<?xml version="1.0" encoding="UTF-8" standalone="no"?>
<!DOCTYPE svg PUBLIC "-//W3C//DTD SVG 1.1//EN"
 "http://www.w3.org/Graphics/SVG/1.1/DTD/svg11.dtd">
<!-- Generated by graphviz version 2.36.0 (20140111.2315)
 -->
<!-- Title: src/bench/Examples.cpp Pages: 1 -->
<svg width="526pt" height="152pt"
 viewBox="0.00 0.00 526.00 152.00" xmlns="http://www.w3.org/2000/svg" xmlns:xlink="http://www.w3.org/1999/xlink">
<g id="graph0" class="graph" transform="scale(1 1) rotate(0) translate(4 148)">
<title>src/bench/Examples.cpp</title>
<polygon fill="white" stroke="none" points="-4,4 -4,-148 522,-148 522,4 -4,4"/>
<!-- Node0 -->
<g id="node1" class="node"><title>Node0</title>
<polygon fill="#bfbfbf" stroke="black" points="322.5,-124.5 322.5,-143.5 447.5,-143.5 447.5,-124.5 322.5,-124.5"/>
<text text-anchor="middle" x="385" y="-131.5" font-family="Helvetica,sans-Serif" font-size="10.00">src/bench/Examples.cpp</text>
</g>
<!-- Node1 -->
<g id="node2" class="node"><title>Node1</title>
<g id="a_node2"><a xlink:href="bench_2bench_8h.html" target="_top" xlink:title="bench.h">
<polygon fill="white" stroke="black" points="217.5,-68.5 217.5,-87.5 268.5,-87.5 268.5,-68.5 217.5,-68.5"/>
<text text-anchor="middle" x="243" y="-75.5" font-family="Helvetica,sans-Serif" font-size="10.00">bench.h</text>
</a>
</g>
</g>
<!-- Node0&#45;&gt;Node1 -->
<g id="edge1" class="edge"><title>Node0&#45;&gt;Node1</title>
<path fill="none" stroke="midnightblue" d="M362.5,-124.444C338.923,-115.478 301.678,-101.314 275.036,-91.1827"/>
<polygon fill="midnightblue" stroke="midnightblue" points="275.986,-87.7995 265.395,-87.5164 273.498,-94.3424 275.986,-87.7995"/>
</g>
<!-- Node7 -->
<g id="node8" class="node"><title>Node7</title>
<polygon fill="white" stroke="#bfbfbf" points="313,-68.5 313,-87.5 379,-87.5 379,-68.5 313,-68.5"/>
<text text-anchor="middle" x="346" y="-75.5" font-family="Helvetica,sans-Serif" font-size="10.00">validation.h</text>
</g>
<!-- Node0&#45;&gt;Node7 -->
<g id="edge7" class="edge"><title>Node0&#45;&gt;Node7</title>
<path fill="none" stroke="midnightblue" d="M378.56,-124.083C373.051,-116.455 364.969,-105.264 358.235,-95.9408"/>
<polygon fill="midnightblue" stroke="midnightblue" points="361.013,-93.8087 352.32,-87.7511 355.338,-97.9071 361.013,-93.8087"/>
</g>
<!-- Node8 -->
<g id="node9" class="node"><title>Node8</title>
<g id="a_node9"><a xlink:href="utiltime_8h.html" target="_top" xlink:title="utiltime.h">
<polygon fill="white" stroke="black" points="397,-68.5 397,-87.5 453,-87.5 453,-68.5 397,-68.5"/>
<text text-anchor="middle" x="425" y="-75.5" font-family="Helvetica,sans-Serif" font-size="10.00">utiltime.h</text>
</a>
</g>
</g>
<!-- Node0&#45;&gt;Node8 -->
<g id="edge8" class="edge"><title>Node0&#45;&gt;Node8</title>
<path fill="none" stroke="midnightblue" d="M391.605,-124.083C397.255,-116.455 405.545,-105.264 412.451,-95.9408"/>
<polygon fill="midnightblue" stroke="midnightblue" points="415.378,-97.87 418.518,-87.7511 409.753,-93.7034 415.378,-97.87"/>
</g>
<!-- Node10 -->
<g id="node11" class="node"><title>Node10</title>
<polygon fill="white" stroke="#bfbfbf" points="471.5,-68.5 471.5,-87.5 518.5,-87.5 518.5,-68.5 471.5,-68.5"/>
<text text-anchor="middle" x="495" y="-75.5" font-family="Helvetica,sans-Serif" font-size="10.00">math.h</text>
</g>
<!-- Node0&#45;&gt;Node10 -->
<g id="edge11" class="edge"><title>Node0&#45;&gt;Node10</title>
<path fill="none" stroke="midnightblue" d="M402.673,-124.324C420.394,-115.625 447.903,-102.12 468.288,-92.113"/>
<polygon fill="midnightblue" stroke="midnightblue" points="469.936,-95.2031 477.37,-87.6545 466.851,-88.9195 469.936,-95.2031"/>
</g>
<!-- Node2 -->
<g id="node3" class="node"><title>Node2</title>
<polygon fill="white" stroke="#bfbfbf" points="-0.5,-6.5 -0.5,-25.5 34.5,-25.5 34.5,-6.5 -0.5,-6.5"/>
<text text-anchor="middle" x="17" y="-13.5" font-family="Helvetica,sans-Serif" font-size="10.00">map</text>
</g>
<!-- Node1&#45;&gt;Node2 -->
<g id="edge2" class="edge"><title>Node1&#45;&gt;Node2</title>
<path fill="none" stroke="midnightblue" d="M217.332,-73.7549C178.553,-68.2958 103.171,-55.4973 43,-32 41.7713,-31.5202 40.5313,-30.9886 39.2944,-30.4202"/>
<polygon fill="midnightblue" stroke="midnightblue" points="40.588,-27.146 30.1081,-25.5897 37.3301,-33.3417 40.588,-27.146"/>
</g>
<!-- Node3 -->
<g id="node4" class="node"><title>Node3</title>
<polygon fill="white" stroke="#bfbfbf" points="404.5,-6.5 404.5,-25.5 445.5,-25.5 445.5,-6.5 404.5,-6.5"/>
<text text-anchor="middle" x="425" y="-13.5" font-family="Helvetica,sans-Serif" font-size="10.00">string</text>
</g>
<!-- Node1&#45;&gt;Node3 -->
<g id="edge3" class="edge"><title>Node1&#45;&gt;Node3</title>
<path fill="none" stroke="midnightblue" d="M268.742,-70.8544C299.35,-63.2119 351.734,-49.0676 395,-32 396.601,-31.3683 398.233,-30.6825 399.866,-29.9634"/>
<polygon fill="midnightblue" stroke="midnightblue" points="401.498,-33.0636 409.045,-25.6278 398.508,-26.7342 401.498,-33.0636"/>
</g>
<!-- Node4 -->
<g id="node5" class="node"><title>Node4</title>
<polygon fill="white" stroke="#bfbfbf" points="52.5,-6.5 52.5,-25.5 149.5,-25.5 149.5,-6.5 52.5,-6.5"/>
<text text-anchor="middle" x="101" y="-13.5" font-family="Helvetica,sans-Serif" font-size="10.00">boost/function.hpp</text>
</g>
<!-- Node1&#45;&gt;Node4 -->
<g id="edge4" class="edge"><title>Node1&#45;&gt;Node4</title>
<path fill="none" stroke="midnightblue" d="M222.655,-68.4035C198.613,-58.245 158.403,-41.2547 130.837,-29.6074"/>
<polygon fill="midnightblue" stroke="midnightblue" points="131.881,-26.2488 121.307,-25.5806 129.157,-32.6968 131.881,-26.2488"/>
</g>
<!-- Node5 -->
<g id="node6" class="node"><title>Node5</title>
<polygon fill="white" stroke="#bfbfbf" points="168,-1 168,-31 268,-31 268,-1 168,-1"/>
<text text-anchor="start" x="176" y="-19" font-family="Helvetica,sans-Serif" font-size="10.00">boost/preprocessor</text>
<text text-anchor="middle" x="218" y="-8" font-family="Helvetica,sans-Serif" font-size="10.00">/cat.hpp</text>
</g>
<!-- Node1&#45;&gt;Node5 -->
<g id="edge5" class="edge"><title>Node1&#45;&gt;Node5</title>
<path fill="none" stroke="midnightblue" d="M239.418,-68.4035C236.38,-61.1127 231.876,-50.3028 227.781,-40.4748"/>
<polygon fill="midnightblue" stroke="midnightblue" points="230.969,-39.0254 223.892,-31.1408 224.507,-41.7178 230.969,-39.0254"/>
</g>
<!-- Node6 -->
<g id="node7" class="node"><title>Node6</title>
<polygon fill="white" stroke="#bfbfbf" points="286,-1 286,-31 386,-31 386,-1 286,-1"/>
<text text-anchor="start" x="294" y="-19" font-family="Helvetica,sans-Serif" font-size="10.00">boost/preprocessor</text>
<text text-anchor="middle" x="336" y="-8" font-family="Helvetica,sans-Serif" font-size="10.00">/stringize.hpp</text>
</g>
<!-- Node1&#45;&gt;Node6 -->
<g id="edge6" class="edge"><title>Node1&#45;&gt;Node6</title>
<path fill="none" stroke="midnightblue" d="M256.325,-68.4035C269.038,-60.2014 288.655,-47.5454 305.242,-36.8441"/>
<polygon fill="midnightblue" stroke="midnightblue" points="307.576,-39.5032 314.082,-31.1408 303.781,-33.6211 307.576,-39.5032"/>
</g>
<!-- Node8&#45;&gt;Node3 -->
<g id="edge10" class="edge"><title>Node8&#45;&gt;Node3</title>
<path fill="none" stroke="midnightblue" d="M425,-68.4035C425,-59.9381 425,-46.7283 425,-35.8199"/>
<polygon fill="midnightblue" stroke="midnightblue" points="428.5,-35.5806 425,-25.5806 421.5,-35.5806 428.5,-35.5806"/>
</g>
<!-- Node9 -->
<g id="node10" class="node"><title>Node9</title>
<polygon fill="white" stroke="#bfbfbf" points="463.5,-6.5 463.5,-25.5 512.5,-25.5 512.5,-6.5 463.5,-6.5"/>
<text text-anchor="middle" x="488" y="-13.5" font-family="Helvetica,sans-Serif" font-size="10.00">stdint.h</text>
</g>
<!-- Node8&#45;&gt;Node9 -->
<g id="edge9" class="edge"><title>Node8&#45;&gt;Node9</title>
<path fill="none" stroke="midnightblue" d="M434.026,-68.4035C443.757,-59.1361 459.458,-44.1828 471.423,-32.7876"/>
<polygon fill="midnightblue" stroke="midnightblue" points="474.163,-35.0117 478.99,-25.5806 469.335,-29.9427 474.163,-35.0117"/>
</g>
</g>
</svg>
