<?xml version="1.0" encoding="UTF-8" standalone="no"?>
<!DOCTYPE svg PUBLIC "-//W3C//DTD SVG 1.1//EN"
 "http://www.w3.org/Graphics/SVG/1.1/DTD/svg11.dtd">
<!-- Generated by graphviz version 2.36.0 (20140111.2315)
 -->
<!-- Title: src/addrman.h Pages: 1 -->
<svg width="2609pt" height="320pt"
 viewBox="0.00 0.00 2608.77 320.00" xmlns="http://www.w3.org/2000/svg" xmlns:xlink="http://www.w3.org/1999/xlink">
<g id="graph0" class="graph" transform="scale(1 1) rotate(0) translate(4 316)">
<title>src/addrman.h</title>
<polygon fill="white" stroke="none" points="-4,4 -4,-316 2604.77,-316 2604.77,4 -4,4"/>
<!-- Node0 -->
<g id="node1" class="node"><title>Node0</title>
<polygon fill="#bfbfbf" stroke="black" points="816.266,-292.5 816.266,-311.5 895.266,-311.5 895.266,-292.5 816.266,-292.5"/>
<text text-anchor="middle" x="855.766" y="-299.5" font-family="Helvetica,sans-Serif" font-size="10.00">src/addrman.h</text>
</g>
<!-- Node1 -->
<g id="node2" class="node"><title>Node1</title>
<g id="a_node2"><a xlink:href="netaddress_8h.html" target="_top" xlink:title="netaddress.h">
<polygon fill="white" stroke="black" points="1176.27,-174.5 1176.27,-193.5 1249.27,-193.5 1249.27,-174.5 1176.27,-174.5"/>
<text text-anchor="middle" x="1212.77" y="-181.5" font-family="Helvetica,sans-Serif" font-size="10.00">netaddress.h</text>
</a>
</g>
</g>
<!-- Node0&#45;&gt;Node1 -->
<g id="edge1" class="edge"><title>Node0&#45;&gt;Node1</title>
<path fill="none" stroke="midnightblue" d="M895.635,-297.159C942.525,-291.755 1022.16,-279.786 1086.77,-256 1126.25,-241.461 1168.04,-215.53 1192.19,-199.353"/>
<polygon fill="midnightblue" stroke="midnightblue" points="1194.24,-202.192 1200.54,-193.675 1190.3,-196.403 1194.24,-202.192"/>
</g>
<!-- Node19 -->
<g id="node20" class="node"><title>Node19</title>
<polygon fill="white" stroke="#bfbfbf" points="1179.27,-0.5 1179.27,-19.5 1228.27,-19.5 1228.27,-0.5 1179.27,-0.5"/>
<text text-anchor="middle" x="1203.77" y="-7.5" font-family="Helvetica,sans-Serif" font-size="10.00">stdint.h</text>
</g>
<!-- Node0&#45;&gt;Node19 -->
<g id="edge80" class="edge"><title>Node0&#45;&gt;Node19</title>
<path fill="none" stroke="midnightblue" d="M895.491,-300.501C1155.23,-296.982 2600.77,-273.429 2600.77,-185 2600.77,-185 2600.77,-185 2600.77,-121 2600.77,-87.5366 2591.51,-73.131 2562.77,-56 2504.24,-21.1242 1446,-12.5541 1238.79,-11.2076"/>
<polygon fill="midnightblue" stroke="midnightblue" points="1238.52,-7.70585 1228.5,-11.1421 1238.47,-14.7057 1238.52,-7.70585"/>
</g>
<!-- Node26 -->
<g id="node26" class="node"><title>Node26</title>
<polygon fill="white" stroke="#bfbfbf" points="1269.27,-56.5 1269.27,-75.5 1304.27,-75.5 1304.27,-56.5 1269.27,-56.5"/>
<text text-anchor="middle" x="1286.77" y="-63.5" font-family="Helvetica,sans-Serif" font-size="10.00">map</text>
</g>
<!-- Node0&#45;&gt;Node26 -->
<g id="edge78" class="edge"><title>Node0&#45;&gt;Node26</title>
<path fill="none" stroke="midnightblue" d="M875.09,-292.405C892.829,-284.141 919.504,-270.758 940.766,-256 1019.9,-201.069 1017.46,-156.762 1102.77,-112 1129.86,-97.7826 1214.78,-80.4579 1259.15,-72.055"/>
<polygon fill="midnightblue" stroke="midnightblue" points="1259.8,-75.4936 1268.99,-70.2122 1258.51,-68.6132 1259.8,-75.4936"/>
</g>
<!-- Node28 -->
<g id="node28" class="node"><title>Node28</title>
<polygon fill="white" stroke="#bfbfbf" points="607.766,-56.5 607.766,-75.5 637.766,-75.5 637.766,-56.5 607.766,-56.5"/>
<text text-anchor="middle" x="622.766" y="-63.5" font-family="Helvetica,sans-Serif" font-size="10.00">set</text>
</g>
<!-- Node0&#45;&gt;Node28 -->
<g id="edge79" class="edge"><title>Node0&#45;&gt;Node28</title>
<path fill="none" stroke="midnightblue" d="M816.021,-300.359C665.16,-297.706 132.968,-286.267 63.7655,-256 30.936,-241.641 19.7678,-232.983 5.76551,-200 0.207869,-186.909 -3.44306,-178.839 5.76551,-168 83.9095,-76.0241 491.874,-67.6283 597.68,-67.0094"/>
<polygon fill="midnightblue" stroke="midnightblue" points="597.764,-70.5092 607.75,-66.9695 597.736,-63.5092 597.764,-70.5092"/>
</g>
<!-- Node32 -->
<g id="node30" class="node"><title>Node32</title>
<polygon fill="white" stroke="#bfbfbf" points="763.766,-56.5 763.766,-75.5 807.766,-75.5 807.766,-56.5 763.766,-56.5"/>
<text text-anchor="middle" x="785.766" y="-63.5" font-family="Helvetica,sans-Serif" font-size="10.00">vector</text>
</g>
<!-- Node0&#45;&gt;Node32 -->
<g id="edge81" class="edge"><title>Node0&#45;&gt;Node32</title>
<path fill="none" stroke="midnightblue" d="M853.191,-292.394C843.031,-258.43 805.578,-133.229 791.323,-85.5778"/>
<polygon fill="midnightblue" stroke="midnightblue" points="794.657,-84.5113 788.438,-75.9339 787.951,-86.5176 794.657,-84.5113"/>
</g>
<!-- Node36 -->
<g id="node31" class="node"><title>Node36</title>
<g id="a_node31"><a xlink:href="protocol_8h.html" target="_top" xlink:title="protocol.h">
<polygon fill="white" stroke="black" points="873.266,-236.5 873.266,-255.5 932.266,-255.5 932.266,-236.5 873.266,-236.5"/>
<text text-anchor="middle" x="902.766" y="-243.5" font-family="Helvetica,sans-Serif" font-size="10.00">protocol.h</text>
</a>
</g>
</g>
<!-- Node0&#45;&gt;Node36 -->
<g id="edge34" class="edge"><title>Node0&#45;&gt;Node36</title>
<path fill="none" stroke="midnightblue" d="M863.527,-292.083C870.302,-284.298 880.309,-272.801 888.521,-263.367"/>
<polygon fill="midnightblue" stroke="midnightblue" points="891.224,-265.592 895.149,-255.751 885.943,-260.996 891.224,-265.592"/>
</g>
<!-- Node42 -->
<g id="node34" class="node"><title>Node42</title>
<g id="a_node34"><a xlink:href="random_8h.html" target="_top" xlink:title="random.h">
<polygon fill="white" stroke="black" points="15.2655,-174.5 15.2655,-193.5 72.2655,-193.5 72.2655,-174.5 15.2655,-174.5"/>
<text text-anchor="middle" x="43.7655" y="-181.5" font-family="Helvetica,sans-Serif" font-size="10.00">random.h</text>
</a>
</g>
</g>
<!-- Node0&#45;&gt;Node42 -->
<g id="edge45" class="edge"><title>Node0&#45;&gt;Node42</title>
<path fill="none" stroke="midnightblue" d="M816.147,-300.82C667.668,-299.857 149.478,-293.792 86.7655,-256 67.4268,-244.346 55.6529,-220.362 49.4279,-203.506"/>
<polygon fill="midnightblue" stroke="midnightblue" points="52.6212,-202.021 46.1147,-193.66 45.9867,-204.254 52.6212,-202.021"/>
</g>
<!-- Node43 -->
<g id="node35" class="node"><title>Node43</title>
<g id="a_node35"><a xlink:href="sync_8h.html" target="_top" xlink:title="sync.h">
<polygon fill="white" stroke="black" points="460.766,-236.5 460.766,-255.5 506.766,-255.5 506.766,-236.5 460.766,-236.5"/>
<text text-anchor="middle" x="483.766" y="-243.5" font-family="Helvetica,sans-Serif" font-size="10.00">sync.h</text>
</a>
</g>
</g>
<!-- Node0&#45;&gt;Node43 -->
<g id="edge48" class="edge"><title>Node0&#45;&gt;Node43</title>
<path fill="none" stroke="midnightblue" d="M815.955,-295.221C742.298,-284.529 586.015,-261.843 517.333,-251.873"/>
<polygon fill="midnightblue" stroke="midnightblue" points="517.488,-248.359 507.089,-250.386 516.482,-255.286 517.488,-248.359"/>
</g>
<!-- Node49 -->
<g id="node41" class="node"><title>Node49</title>
<g id="a_node41"><a xlink:href="timedata_8h.html" target="_top" xlink:title="timedata.h">
<polygon fill="white" stroke="black" points="718.766,-112.5 718.766,-131.5 780.766,-131.5 780.766,-112.5 718.766,-112.5"/>
<text text-anchor="middle" x="749.766" y="-119.5" font-family="Helvetica,sans-Serif" font-size="10.00">timedata.h</text>
</a>
</g>
</g>
<!-- Node0&#45;&gt;Node49 -->
<g id="edge54" class="edge"><title>Node0&#45;&gt;Node49</title>
<path fill="none" stroke="midnightblue" d="M816.193,-298.612C669.836,-289.38 165.278,-253.832 119.766,-200 36.6092,-101.643 554.169,-147.992 708.468,-131.613"/>
<polygon fill="midnightblue" stroke="midnightblue" points="709.016,-135.073 718.516,-130.383 708.165,-128.124 709.016,-135.073"/>
</g>
<!-- Node50 -->
<g id="node42" class="node"><title>Node50</title>
<g id="a_node42"><a xlink:href="util_8h.html" target="_top" xlink:title="util.h">
<polygon fill="white" stroke="black" points="1420.77,-236.5 1420.77,-255.5 1458.77,-255.5 1458.77,-236.5 1420.77,-236.5"/>
<text text-anchor="middle" x="1439.77" y="-243.5" font-family="Helvetica,sans-Serif" font-size="10.00">util.h</text>
</a>
</g>
</g>
<!-- Node0&#45;&gt;Node50 -->
<g id="edge59" class="edge"><title>Node0&#45;&gt;Node50</title>
<path fill="none" stroke="midnightblue" d="M895.447,-297.331C1005.7,-287.136 1313.94,-258.634 1410.48,-249.708"/>
<polygon fill="midnightblue" stroke="midnightblue" points="1411.04,-253.172 1420.67,-248.766 1410.39,-246.201 1411.04,-253.172"/>
</g>
<!-- Node2 -->
<g id="node3" class="node"><title>Node2</title>
<g id="a_node3"><a xlink:href="compat_8h.html" target="_top" xlink:title="compat.h">
<polygon fill="white" stroke="black" points="1946.27,-112.5 1946.27,-131.5 2003.27,-131.5 2003.27,-112.5 1946.27,-112.5"/>
<text text-anchor="middle" x="1974.77" y="-119.5" font-family="Helvetica,sans-Serif" font-size="10.00">compat.h</text>
</a>
</g>
</g>
<!-- Node1&#45;&gt;Node2 -->
<g id="edge2" class="edge"><title>Node1&#45;&gt;Node2</title>
<path fill="none" stroke="midnightblue" d="M1249.29,-179.378C1281.71,-176.211 1330.37,-171.572 1372.77,-168 1585.41,-150.086 1840.63,-132.201 1936.17,-125.631"/>
<polygon fill="midnightblue" stroke="midnightblue" points="1936.5,-129.117 1946.24,-124.941 1936.02,-122.134 1936.5,-129.117"/>
</g>
<!-- Node17 -->
<g id="node18" class="node"><title>Node17</title>
<g id="a_node18"><a xlink:href="serialize_8h.html" target="_top" xlink:title="serialize.h">
<polygon fill="white" stroke="red" points="945.266,-112.5 945.266,-131.5 1006.27,-131.5 1006.27,-112.5 945.266,-112.5"/>
<text text-anchor="middle" x="975.766" y="-119.5" font-family="Helvetica,sans-Serif" font-size="10.00">serialize.h</text>
</a>
</g>
</g>
<!-- Node1&#45;&gt;Node17 -->
<g id="edge17" class="edge"><title>Node1&#45;&gt;Node17</title>
<path fill="none" stroke="midnightblue" d="M1187.57,-174.364C1180.85,-172.174 1173.56,-169.904 1166.77,-168 1115.27,-153.566 1055.12,-139.914 1016.28,-131.512"/>
<polygon fill="midnightblue" stroke="midnightblue" points="1016.91,-128.068 1006.4,-129.388 1015.44,-134.912 1016.91,-128.068"/>
</g>
<!-- Node1&#45;&gt;Node19 -->
<g id="edge31" class="edge"><title>Node1&#45;&gt;Node19</title>
<path fill="none" stroke="midnightblue" d="M1241.82,-174.394C1298.32,-156.195 1413.92,-110.934 1371.77,-56 1355.64,-34.9877 1282.72,-21.6413 1238.42,-15.322"/>
<polygon fill="midnightblue" stroke="midnightblue" points="1238.74,-11.8339 1228.36,-13.9374 1237.79,-18.7685 1238.74,-11.8339"/>
</g>
<!-- Node29 -->
<g id="node29" class="node"><title>Node29</title>
<polygon fill="white" stroke="#bfbfbf" points="1322.27,-56.5 1322.27,-75.5 1363.27,-75.5 1363.27,-56.5 1322.27,-56.5"/>
<text text-anchor="middle" x="1342.77" y="-63.5" font-family="Helvetica,sans-Serif" font-size="10.00">string</text>
</g>
<!-- Node1&#45;&gt;Node29 -->
<g id="edge32" class="edge"><title>Node1&#45;&gt;Node29</title>
<path fill="none" stroke="midnightblue" d="M1222.54,-174.281C1244.48,-154.704 1297.89,-107.041 1325.54,-82.3676"/>
<polygon fill="midnightblue" stroke="midnightblue" points="1328.1,-84.7742 1333.23,-75.5048 1323.44,-79.5512 1328.1,-84.7742"/>
</g>
<!-- Node1&#45;&gt;Node32 -->
<g id="edge33" class="edge"><title>Node1&#45;&gt;Node32</title>
<path fill="none" stroke="midnightblue" d="M1189.1,-174.478C1181.99,-172.136 1174.12,-169.76 1166.77,-168 1065.71,-143.816 1035.18,-162.207 935.766,-132 915.599,-125.872 912.039,-120.531 892.766,-112 867.037,-100.611 837.546,-88.2602 816.05,-79.3838"/>
<polygon fill="midnightblue" stroke="midnightblue" points="817.357,-76.1371 806.777,-75.566 814.692,-82.6099 817.357,-76.1371"/>
</g>
<!-- Node3 -->
<g id="node4" class="node"><title>Node3</title>
<polygon fill="white" stroke="#bfbfbf" points="2050.77,-56.5 2050.77,-75.5 2112.77,-75.5 2112.77,-56.5 2050.77,-56.5"/>
<text text-anchor="middle" x="2081.77" y="-63.5" font-family="Helvetica,sans-Serif" font-size="10.00">sys/fcntl.h</text>
</g>
<!-- Node2&#45;&gt;Node3 -->
<g id="edge3" class="edge"><title>Node2&#45;&gt;Node3</title>
<path fill="none" stroke="midnightblue" d="M1991.96,-112.324C2009.12,-103.664 2035.71,-90.2424 2055.51,-80.249"/>
<polygon fill="midnightblue" stroke="midnightblue" points="2057.27,-83.2847 2064.62,-75.6545 2054.11,-77.0354 2057.27,-83.2847"/>
</g>
<!-- Node4 -->
<g id="node5" class="node"><title>Node4</title>
<polygon fill="white" stroke="#bfbfbf" points="2131.27,-56.5 2131.27,-75.5 2202.27,-75.5 2202.27,-56.5 2131.27,-56.5"/>
<text text-anchor="middle" x="2166.77" y="-63.5" font-family="Helvetica,sans-Serif" font-size="10.00">sys/mman.h</text>
</g>
<!-- Node2&#45;&gt;Node4 -->
<g id="edge4" class="edge"><title>Node2&#45;&gt;Node4</title>
<path fill="none" stroke="midnightblue" d="M2003.51,-112.916C2036.12,-103.745 2089.53,-88.7231 2126.33,-78.3731"/>
<polygon fill="midnightblue" stroke="midnightblue" points="2127.56,-81.6633 2136.24,-75.5865 2125.66,-74.9248 2127.56,-81.6633"/>
</g>
<!-- Node5 -->
<g id="node6" class="node"><title>Node5</title>
<polygon fill="white" stroke="#bfbfbf" points="2220.77,-56.5 2220.77,-75.5 2290.77,-75.5 2290.77,-56.5 2220.77,-56.5"/>
<text text-anchor="middle" x="2255.77" y="-63.5" font-family="Helvetica,sans-Serif" font-size="10.00">sys/select.h</text>
</g>
<!-- Node2&#45;&gt;Node5 -->
<g id="edge5" class="edge"><title>Node2&#45;&gt;Node5</title>
<path fill="none" stroke="midnightblue" d="M2003.48,-115.611C2046.19,-107.576 2129.24,-91.882 2210.5,-76.0372"/>
<polygon fill="midnightblue" stroke="midnightblue" points="2211.25,-79.456 2220.4,-74.1046 2209.91,-72.5858 2211.25,-79.456"/>
</g>
<!-- Node6 -->
<g id="node7" class="node"><title>Node6</title>
<polygon fill="white" stroke="#bfbfbf" points="2309.27,-56.5 2309.27,-75.5 2382.27,-75.5 2382.27,-56.5 2309.27,-56.5"/>
<text text-anchor="middle" x="2345.77" y="-63.5" font-family="Helvetica,sans-Serif" font-size="10.00">sys/socket.h</text>
</g>
<!-- Node2&#45;&gt;Node6 -->
<g id="edge6" class="edge"><title>Node2&#45;&gt;Node6</title>
<path fill="none" stroke="midnightblue" d="M2003.54,-117.562C2058.72,-110.851 2183.44,-95.1191 2299.06,-76.0336"/>
<polygon fill="midnightblue" stroke="midnightblue" points="2299.85,-79.4497 2309.14,-74.3564 2298.7,-72.5445 2299.85,-79.4497"/>
</g>
<!-- Node7 -->
<g id="node8" class="node"><title>Node7</title>
<polygon fill="white" stroke="#bfbfbf" points="2400.77,-56.5 2400.77,-75.5 2468.77,-75.5 2468.77,-56.5 2400.77,-56.5"/>
<text text-anchor="middle" x="2434.77" y="-63.5" font-family="Helvetica,sans-Serif" font-size="10.00">sys/types.h</text>
</g>
<!-- Node2&#45;&gt;Node7 -->
<g id="edge7" class="edge"><title>Node2&#45;&gt;Node7</title>
<path fill="none" stroke="midnightblue" d="M2003.38,-118.837C2071.02,-113.523 2245.96,-98.5907 2390.77,-76 2390.87,-75.9842 2390.97,-75.9684 2391.07,-75.9525"/>
<polygon fill="midnightblue" stroke="midnightblue" points="2391.45,-79.4383 2400.71,-74.2945 2390.26,-72.5395 2391.45,-79.4383"/>
</g>
<!-- Node8 -->
<g id="node9" class="node"><title>Node8</title>
<polygon fill="white" stroke="#bfbfbf" points="2487.27,-56.5 2487.27,-75.5 2534.27,-75.5 2534.27,-56.5 2487.27,-56.5"/>
<text text-anchor="middle" x="2510.77" y="-63.5" font-family="Helvetica,sans-Serif" font-size="10.00">net/if.h</text>
</g>
<!-- Node2&#45;&gt;Node8 -->
<g id="edge8" class="edge"><title>Node2&#45;&gt;Node8</title>
<path fill="none" stroke="midnightblue" d="M2003.36,-120.212C2079.15,-117.75 2291.49,-108.424 2477.15,-75.7719"/>
<polygon fill="midnightblue" stroke="midnightblue" points="2477.86,-79.2006 2487.09,-73.9968 2476.63,-72.3096 2477.86,-79.2006"/>
</g>
<!-- Node9 -->
<g id="node10" class="node"><title>Node9</title>
<polygon fill="white" stroke="#bfbfbf" points="1458.27,-56.5 1458.27,-75.5 1523.27,-75.5 1523.27,-56.5 1458.27,-56.5"/>
<text text-anchor="middle" x="1490.77" y="-63.5" font-family="Helvetica,sans-Serif" font-size="10.00">netinet/in.h</text>
</g>
<!-- Node2&#45;&gt;Node9 -->
<g id="edge9" class="edge"><title>Node2&#45;&gt;Node9</title>
<path fill="none" stroke="midnightblue" d="M1946.19,-119.181C1877.11,-114.553 1695.47,-101.002 1533.84,-76.0032"/>
<polygon fill="midnightblue" stroke="midnightblue" points="1534.14,-72.507 1523.72,-74.4179 1533.05,-79.4228 1534.14,-72.507"/>
</g>
<!-- Node10 -->
<g id="node11" class="node"><title>Node10</title>
<polygon fill="white" stroke="#bfbfbf" points="1541.27,-56.5 1541.27,-75.5 1612.27,-75.5 1612.27,-56.5 1541.27,-56.5"/>
<text text-anchor="middle" x="1576.77" y="-63.5" font-family="Helvetica,sans-Serif" font-size="10.00">netinet/tcp.h</text>
</g>
<!-- Node2&#45;&gt;Node10 -->
<g id="edge10" class="edge"><title>Node2&#45;&gt;Node10</title>
<path fill="none" stroke="midnightblue" d="M1945.84,-118.012C1887.03,-111.789 1749.1,-96.4307 1622.82,-76.0664"/>
<polygon fill="midnightblue" stroke="midnightblue" points="1623.02,-72.553 1612.59,-74.401 1621.89,-79.4621 1623.02,-72.553"/>
</g>
<!-- Node11 -->
<g id="node12" class="node"><title>Node11</title>
<polygon fill="white" stroke="#bfbfbf" points="1630.77,-56.5 1630.77,-75.5 1692.77,-75.5 1692.77,-56.5 1630.77,-56.5"/>
<text text-anchor="middle" x="1661.77" y="-63.5" font-family="Helvetica,sans-Serif" font-size="10.00">arpa/inet.h</text>
</g>
<!-- Node2&#45;&gt;Node11 -->
<g id="edge11" class="edge"><title>Node2&#45;&gt;Node11</title>
<path fill="none" stroke="midnightblue" d="M1945.98,-116.816C1897.79,-109.692 1797.57,-94.3583 1703.17,-76.1867"/>
<polygon fill="midnightblue" stroke="midnightblue" points="1703.66,-72.7159 1693.17,-74.2471 1702.32,-79.5877 1703.66,-72.7159"/>
</g>
<!-- Node12 -->
<g id="node13" class="node"><title>Node12</title>
<polygon fill="white" stroke="#bfbfbf" points="1710.77,-56.5 1710.77,-75.5 1764.77,-75.5 1764.77,-56.5 1710.77,-56.5"/>
<text text-anchor="middle" x="1737.77" y="-63.5" font-family="Helvetica,sans-Serif" font-size="10.00">ifaddrs.h</text>
</g>
<!-- Node2&#45;&gt;Node12 -->
<g id="edge12" class="edge"><title>Node2&#45;&gt;Node12</title>
<path fill="none" stroke="midnightblue" d="M1946.09,-114.813C1908.88,-106.735 1841.69,-91.9761 1774.75,-76.1895"/>
<polygon fill="midnightblue" stroke="midnightblue" points="1775.41,-72.7505 1764.87,-73.8536 1773.8,-79.5624 1775.41,-72.7505"/>
</g>
<!-- Node13 -->
<g id="node14" class="node"><title>Node13</title>
<polygon fill="white" stroke="#bfbfbf" points="1782.77,-56.5 1782.77,-75.5 1830.77,-75.5 1830.77,-56.5 1782.77,-56.5"/>
<text text-anchor="middle" x="1806.77" y="-63.5" font-family="Helvetica,sans-Serif" font-size="10.00">limits.h</text>
</g>
<!-- Node2&#45;&gt;Node13 -->
<g id="edge13" class="edge"><title>Node2&#45;&gt;Node13</title>
<path fill="none" stroke="midnightblue" d="M1948.15,-112.444C1919.01,-103.078 1872.23,-88.0415 1840.53,-77.8532"/>
<polygon fill="midnightblue" stroke="midnightblue" points="1841.4,-74.4571 1830.81,-74.729 1839.26,-81.1213 1841.4,-74.4571"/>
</g>
<!-- Node14 -->
<g id="node15" class="node"><title>Node14</title>
<polygon fill="white" stroke="#bfbfbf" points="1849.27,-56.5 1849.27,-75.5 1898.27,-75.5 1898.27,-56.5 1849.27,-56.5"/>
<text text-anchor="middle" x="1873.77" y="-63.5" font-family="Helvetica,sans-Serif" font-size="10.00">netdb.h</text>
</g>
<!-- Node2&#45;&gt;Node14 -->
<g id="edge14" class="edge"><title>Node2&#45;&gt;Node14</title>
<path fill="none" stroke="midnightblue" d="M1958.54,-112.324C1942.41,-103.703 1917.47,-90.3643 1898.8,-80.3855"/>
<polygon fill="midnightblue" stroke="midnightblue" points="1900.42,-77.283 1889.95,-75.6545 1897.12,-83.456 1900.42,-77.283"/>
</g>
<!-- Node15 -->
<g id="node16" class="node"><title>Node15</title>
<polygon fill="white" stroke="#bfbfbf" points="1916.27,-56.5 1916.27,-75.5 1967.27,-75.5 1967.27,-56.5 1916.27,-56.5"/>
<text text-anchor="middle" x="1941.77" y="-63.5" font-family="Helvetica,sans-Serif" font-size="10.00">unistd.h</text>
</g>
<!-- Node2&#45;&gt;Node15 -->
<g id="edge15" class="edge"><title>Node2&#45;&gt;Node15</title>
<path fill="none" stroke="midnightblue" d="M1969.32,-112.083C1964.75,-104.613 1958.1,-93.7244 1952.47,-84.5199"/>
<polygon fill="midnightblue" stroke="midnightblue" points="1955.31,-82.4588 1947.11,-75.7511 1949.34,-86.109 1955.31,-82.4588"/>
</g>
<!-- Node16 -->
<g id="node17" class="node"><title>Node16</title>
<polygon fill="white" stroke="#bfbfbf" points="1985.27,-56.5 1985.27,-75.5 2032.27,-75.5 2032.27,-56.5 1985.27,-56.5"/>
<text text-anchor="middle" x="2008.77" y="-63.5" font-family="Helvetica,sans-Serif" font-size="10.00">errno.h</text>
</g>
<!-- Node2&#45;&gt;Node16 -->
<g id="edge16" class="edge"><title>Node2&#45;&gt;Node16</title>
<path fill="none" stroke="midnightblue" d="M1980.38,-112.083C1985.13,-104.534 1992.08,-93.4948 1997.92,-84.2298"/>
<polygon fill="midnightblue" stroke="midnightblue" points="2000.89,-86.0783 2003.26,-75.7511 1994.97,-82.3486 2000.89,-86.0783"/>
</g>
<!-- Node18 -->
<g id="node19" class="node"><title>Node18</title>
<g id="a_node19"><a xlink:href="endian_8h.html" target="_top" xlink:title="compat/endian.h">
<polygon fill="white" stroke="red" points="1123.27,-56.5 1123.27,-75.5 1212.27,-75.5 1212.27,-56.5 1123.27,-56.5"/>
<text text-anchor="middle" x="1167.77" y="-63.5" font-family="Helvetica,sans-Serif" font-size="10.00">compat/endian.h</text>
</a>
</g>
</g>
<!-- Node17&#45;&gt;Node18 -->
<g id="edge18" class="edge"><title>Node17&#45;&gt;Node18</title>
<path fill="none" stroke="midnightblue" d="M1006.19,-112.444C1039.05,-103.201 1091.55,-88.4356 1127.74,-78.2572"/>
<polygon fill="midnightblue" stroke="midnightblue" points="1128.81,-81.5932 1137.48,-75.5164 1126.91,-74.8547 1128.81,-81.5932"/>
</g>
<!-- Node17&#45;&gt;Node19 -->
<g id="edge28" class="edge"><title>Node17&#45;&gt;Node19</title>
<path fill="none" stroke="midnightblue" d="M1006.74,-114.724C1011.43,-113.796 1016.23,-112.862 1020.77,-112 1065.13,-103.571 1191.8,-110.645 1220.77,-76 1231.95,-62.6217 1224.27,-42.7014 1215.95,-28.4424"/>
<polygon fill="midnightblue" stroke="midnightblue" points="1218.65,-26.1624 1210.31,-19.6253 1212.75,-29.935 1218.65,-26.1624"/>
</g>
<!-- Node21 -->
<g id="node21" class="node"><title>Node21</title>
<polygon fill="white" stroke="#bfbfbf" points="825.766,-56.5 825.766,-75.5 881.766,-75.5 881.766,-56.5 825.766,-56.5"/>
<text text-anchor="middle" x="853.766" y="-63.5" font-family="Helvetica,sans-Serif" font-size="10.00">algorithm</text>
</g>
<!-- Node17&#45;&gt;Node21 -->
<g id="edge20" class="edge"><title>Node17&#45;&gt;Node21</title>
<path fill="none" stroke="midnightblue" d="M956.434,-112.444C936.446,-103.596 905.022,-89.6875 882.202,-79.5865"/>
<polygon fill="midnightblue" stroke="midnightblue" points="883.567,-76.3635 873.006,-75.5164 880.734,-82.7645 883.567,-76.3635"/>
</g>
<!-- Node22 -->
<g id="node22" class="node"><title>Node22</title>
<polygon fill="white" stroke="#bfbfbf" points="655.766,-56.5 655.766,-75.5 707.766,-75.5 707.766,-56.5 655.766,-56.5"/>
<text text-anchor="middle" x="681.766" y="-63.5" font-family="Helvetica,sans-Serif" font-size="10.00">assert.h</text>
</g>
<!-- Node17&#45;&gt;Node22 -->
<g id="edge21" class="edge"><title>Node17&#45;&gt;Node22</title>
<path fill="none" stroke="midnightblue" d="M945.134,-115.374C890.47,-105.334 776.378,-84.3778 717.949,-73.6459"/>
<polygon fill="midnightblue" stroke="midnightblue" points="718.519,-70.1921 708.051,-71.8279 717.254,-77.077 718.519,-70.1921"/>
</g>
<!-- Node23 -->
<g id="node23" class="node"><title>Node23</title>
<polygon fill="white" stroke="#bfbfbf" points="899.266,-56.5 899.266,-75.5 928.266,-75.5 928.266,-56.5 899.266,-56.5"/>
<text text-anchor="middle" x="913.766" y="-63.5" font-family="Helvetica,sans-Serif" font-size="10.00">ios</text>
</g>
<!-- Node17&#45;&gt;Node23 -->
<g id="edge22" class="edge"><title>Node17&#45;&gt;Node23</title>
<path fill="none" stroke="midnightblue" d="M965.804,-112.324C956.639,-104.341 942.828,-92.3128 931.737,-82.6529"/>
<polygon fill="midnightblue" stroke="midnightblue" points="933.748,-79.7624 923.908,-75.8339 929.15,-85.041 933.748,-79.7624"/>
</g>
<!-- Node24 -->
<g id="node24" class="node"><title>Node24</title>
<polygon fill="white" stroke="#bfbfbf" points="946.766,-56.5 946.766,-75.5 986.766,-75.5 986.766,-56.5 946.766,-56.5"/>
<text text-anchor="middle" x="966.766" y="-63.5" font-family="Helvetica,sans-Serif" font-size="10.00">limits</text>
</g>
<!-- Node17&#45;&gt;Node24 -->
<g id="edge23" class="edge"><title>Node17&#45;&gt;Node24</title>
<path fill="none" stroke="midnightblue" d="M974.279,-112.083C973.087,-104.927 971.371,-94.6353 969.881,-85.6911"/>
<polygon fill="midnightblue" stroke="midnightblue" points="973.32,-85.0396 968.224,-75.7511 966.416,-86.1904 973.32,-85.0396"/>
</g>
<!-- Node25 -->
<g id="node25" class="node"><title>Node25</title>
<polygon fill="white" stroke="#bfbfbf" points="1005.27,-56.5 1005.27,-75.5 1034.27,-75.5 1034.27,-56.5 1005.27,-56.5"/>
<text text-anchor="middle" x="1019.77" y="-63.5" font-family="Helvetica,sans-Serif" font-size="10.00">list</text>
</g>
<!-- Node17&#45;&gt;Node25 -->
<g id="edge24" class="edge"><title>Node17&#45;&gt;Node25</title>
<path fill="none" stroke="midnightblue" d="M983.031,-112.083C989.31,-104.377 998.553,-93.0333 1006.2,-83.6531"/>
<polygon fill="midnightblue" stroke="midnightblue" points="1009.03,-85.7143 1012.64,-75.7511 1003.6,-81.2926 1009.03,-85.7143"/>
</g>
<!-- Node17&#45;&gt;Node26 -->
<g id="edge25" class="edge"><title>Node17&#45;&gt;Node26</title>
<path fill="none" stroke="midnightblue" d="M1006.72,-114.621C1011.42,-113.707 1016.22,-112.805 1020.77,-112 1124.38,-93.6774 1151.93,-98.2855 1254.77,-76 1256.25,-75.6792 1257.76,-75.3295 1259.28,-74.9603"/>
<polygon fill="midnightblue" stroke="midnightblue" points="1260.48,-78.266 1269.26,-72.3385 1258.7,-71.496 1260.48,-78.266"/>
</g>
<!-- Node27 -->
<g id="node27" class="node"><title>Node27</title>
<polygon fill="white" stroke="#bfbfbf" points="1052.77,-56.5 1052.77,-75.5 1104.77,-75.5 1104.77,-56.5 1052.77,-56.5"/>
<text text-anchor="middle" x="1078.77" y="-63.5" font-family="Helvetica,sans-Serif" font-size="10.00">memory</text>
</g>
<!-- Node17&#45;&gt;Node27 -->
<g id="edge26" class="edge"><title>Node17&#45;&gt;Node27</title>
<path fill="none" stroke="midnightblue" d="M992.314,-112.324C1008.76,-103.703 1034.2,-90.3643 1053.23,-80.3855"/>
<polygon fill="midnightblue" stroke="midnightblue" points="1055.03,-83.3977 1062.26,-75.6545 1051.78,-77.198 1055.03,-83.3977"/>
</g>
<!-- Node17&#45;&gt;Node28 -->
<g id="edge27" class="edge"><title>Node17&#45;&gt;Node28</title>
<path fill="none" stroke="midnightblue" d="M944.941,-119.083C887.836,-115.042 761.771,-103.831 647.773,-75.7336"/>
<polygon fill="midnightblue" stroke="midnightblue" points="648.39,-72.2798 637.838,-73.2336 646.682,-79.0682 648.39,-72.2798"/>
</g>
<!-- Node17&#45;&gt;Node29 -->
<g id="edge29" class="edge"><title>Node17&#45;&gt;Node29</title>
<path fill="none" stroke="midnightblue" d="M1006.7,-114.498C1011.4,-113.601 1016.2,-112.736 1020.77,-112 1146.7,-91.6721 1183.04,-102.33 1312.34,-75.728"/>
<polygon fill="midnightblue" stroke="midnightblue" points="1313.16,-79.1336 1322.23,-73.6598 1311.72,-72.2819 1313.16,-79.1336"/>
</g>
<!-- Node17&#45;&gt;Node32 -->
<g id="edge30" class="edge"><title>Node17&#45;&gt;Node32</title>
<path fill="none" stroke="midnightblue" d="M945.267,-112.434C915.185,-103.971 867.642,-90.5567 817.499,-76.197"/>
<polygon fill="midnightblue" stroke="midnightblue" points="818.353,-72.8009 807.776,-73.4099 816.424,-79.5299 818.353,-72.8009"/>
</g>
<!-- Node18&#45;&gt;Node19 -->
<g id="edge19" class="edge"><title>Node18&#45;&gt;Node19</title>
<path fill="none" stroke="midnightblue" d="M1173.71,-56.083C1178.74,-48.5341 1186.1,-37.4948 1192.28,-28.2298"/>
<polygon fill="midnightblue" stroke="midnightblue" points="1195.3,-30.0131 1197.93,-19.7511 1189.47,-26.1301 1195.3,-30.0131"/>
</g>
<!-- Node36&#45;&gt;Node1 -->
<g id="edge35" class="edge"><title>Node36&#45;&gt;Node1</title>
<path fill="none" stroke="midnightblue" d="M932.355,-241.395C981.487,-235.09 1082.81,-220.726 1166.77,-200 1170.69,-199.031 1174.76,-197.896 1178.79,-196.693"/>
<polygon fill="midnightblue" stroke="midnightblue" points="1180.11,-199.947 1188.61,-193.612 1178.02,-193.268 1180.11,-199.947"/>
</g>
<!-- Node36&#45;&gt;Node17 -->
<g id="edge36" class="edge"><title>Node36&#45;&gt;Node17</title>
<path fill="none" stroke="midnightblue" d="M910.561,-236.479C918.312,-227.742 930.244,-213.551 938.766,-200 950.812,-180.843 961.642,-157.169 968.427,-141.168"/>
<polygon fill="midnightblue" stroke="midnightblue" points="971.678,-142.463 972.273,-131.885 965.212,-139.783 971.678,-142.463"/>
</g>
<!-- Node36&#45;&gt;Node19 -->
<g id="edge43" class="edge"><title>Node36&#45;&gt;Node19</title>
<path fill="none" stroke="midnightblue" d="M873.161,-237.225C848.357,-229.91 812.635,-217.462 784.766,-200 767.181,-188.982 768.678,-178.477 750.766,-168 704.536,-140.96 680.171,-161.942 635.766,-132 603.029,-109.927 562.886,-84.9211 589.766,-56 629.315,-13.4461 1044.54,-10.715 1168.82,-10.8585"/>
<polygon fill="midnightblue" stroke="midnightblue" points="1168.92,-14.3586 1178.93,-10.8775 1168.93,-7.35863 1168.92,-14.3586"/>
</g>
<!-- Node36&#45;&gt;Node29 -->
<g id="edge44" class="edge"><title>Node36&#45;&gt;Node29</title>
<path fill="none" stroke="midnightblue" d="M914.305,-236.392C950.446,-209.583 1061.5,-128.403 1102.77,-112 1187.84,-78.1855 1218.53,-96.3372 1312.31,-75.7875"/>
<polygon fill="midnightblue" stroke="midnightblue" points="1313.23,-79.1677 1322.2,-73.5297 1311.67,-72.3433 1313.23,-79.1677"/>
</g>
<!-- Node37 -->
<g id="node32" class="node"><title>Node37</title>
<g id="a_node32"><a xlink:href="uint256_8h.html" target="_top" xlink:title="uint256.h">
<polygon fill="white" stroke="red" points="644.766,-112.5 644.766,-131.5 700.766,-131.5 700.766,-112.5 644.766,-112.5"/>
<text text-anchor="middle" x="672.766" y="-119.5" font-family="Helvetica,sans-Serif" font-size="10.00">uint256.h</text>
</a>
</g>
</g>
<!-- Node36&#45;&gt;Node37 -->
<g id="edge37" class="edge"><title>Node36&#45;&gt;Node37</title>
<path fill="none" stroke="midnightblue" d="M891.175,-236.326C870.547,-221.147 825.772,-189.354 784.766,-168 759.832,-155.016 730.276,-143.283 707.787,-135.055"/>
<polygon fill="midnightblue" stroke="midnightblue" points="708.9,-131.736 698.306,-131.64 706.528,-138.322 708.9,-131.736"/>
</g>
<!-- Node41 -->
<g id="node33" class="node"><title>Node41</title>
<g id="a_node33"><a xlink:href="version_8h.html" target="_top" xlink:title="version.h">
<polygon fill="white" stroke="black" points="874.766,-174.5 874.766,-193.5 930.766,-193.5 930.766,-174.5 874.766,-174.5"/>
<text text-anchor="middle" x="902.766" y="-181.5" font-family="Helvetica,sans-Serif" font-size="10.00">version.h</text>
</a>
</g>
</g>
<!-- Node36&#45;&gt;Node41 -->
<g id="edge42" class="edge"><title>Node36&#45;&gt;Node41</title>
<path fill="none" stroke="midnightblue" d="M902.766,-236.403C902.766,-227.938 902.766,-214.728 902.766,-203.82"/>
<polygon fill="midnightblue" stroke="midnightblue" points="906.266,-203.581 902.766,-193.581 899.266,-203.581 906.266,-203.581"/>
</g>
<!-- Node37&#45;&gt;Node19 -->
<g id="edge39" class="edge"><title>Node37&#45;&gt;Node19</title>
<path fill="none" stroke="midnightblue" d="M649.604,-112.386C620.944,-100.507 578.289,-78.0557 598.766,-56 637.672,-14.0923 1045.96,-10.9028 1168.92,-10.8994"/>
<polygon fill="midnightblue" stroke="midnightblue" points="1168.92,-14.3993 1178.92,-10.9063 1168.93,-7.39927 1168.92,-14.3993"/>
</g>
<!-- Node37&#45;&gt;Node22 -->
<g id="edge38" class="edge"><title>Node37&#45;&gt;Node22</title>
<path fill="none" stroke="midnightblue" d="M674.252,-112.083C675.444,-104.927 677.16,-94.6353 678.65,-85.6911"/>
<polygon fill="midnightblue" stroke="midnightblue" points="682.115,-86.1904 680.307,-75.7511 675.211,-85.0396 682.115,-86.1904"/>
</g>
<!-- Node37&#45;&gt;Node29 -->
<g id="edge40" class="edge"><title>Node37&#45;&gt;Node29</title>
<path fill="none" stroke="midnightblue" d="M700.944,-113.595C703.908,-112.982 706.889,-112.432 709.766,-112 972.022,-72.5998 1046.6,-121.662 1312.32,-75.587"/>
<polygon fill="midnightblue" stroke="midnightblue" points="1313.02,-79.0179 1322.26,-73.8349 1311.8,-72.1241 1313.02,-79.0179"/>
</g>
<!-- Node37&#45;&gt;Node32 -->
<g id="edge41" class="edge"><title>Node37&#45;&gt;Node32</title>
<path fill="none" stroke="midnightblue" d="M690.671,-112.444C709.02,-103.675 737.771,-89.9355 758.859,-79.8579"/>
<polygon fill="midnightblue" stroke="midnightblue" points="760.431,-82.9862 767.944,-75.5164 757.412,-76.6703 760.431,-82.9862"/>
</g>
<!-- Node42&#45;&gt;Node19 -->
<g id="edge47" class="edge"><title>Node42&#45;&gt;Node19</title>
<path fill="none" stroke="midnightblue" d="M69.3639,-174.43C140.871,-150.896 349.209,-85.0977 527.766,-56 770.823,-16.3911 1068.48,-11.471 1168.85,-10.9927"/>
<polygon fill="midnightblue" stroke="midnightblue" points="1169.03,-14.4922 1179.02,-10.9567 1169.01,-7.49222 1169.03,-14.4922"/>
</g>
<!-- Node42&#45;&gt;Node37 -->
<g id="edge46" class="edge"><title>Node42&#45;&gt;Node37</title>
<path fill="none" stroke="midnightblue" d="M64.8857,-174.384C71.7554,-171.921 79.4864,-169.5 86.7655,-168 308.016,-122.398 368.824,-152.79 593.766,-132 607.106,-130.767 621.686,-129.175 634.648,-127.674"/>
<polygon fill="midnightblue" stroke="midnightblue" points="635.12,-131.143 644.642,-126.498 634.302,-124.191 635.12,-131.143"/>
</g>
<!-- Node44 -->
<g id="node36" class="node"><title>Node44</title>
<g id="a_node36"><a xlink:href="threadsafety_8h.html" target="_top" xlink:title="threadsafety.h">
<polygon fill="white" stroke="black" points="129.266,-174.5 129.266,-193.5 208.266,-193.5 208.266,-174.5 129.266,-174.5"/>
<text text-anchor="middle" x="168.766" y="-181.5" font-family="Helvetica,sans-Serif" font-size="10.00">threadsafety.h</text>
</a>
</g>
</g>
<!-- Node43&#45;&gt;Node44 -->
<g id="edge49" class="edge"><title>Node43&#45;&gt;Node44</title>
<path fill="none" stroke="midnightblue" d="M460.696,-242.187C414.167,-236.278 305.913,-221.337 216.766,-200 212.563,-198.994 208.19,-197.816 203.871,-196.571"/>
<polygon fill="midnightblue" stroke="midnightblue" points="204.58,-193.129 193.996,-193.591 202.558,-199.83 204.58,-193.129"/>
</g>
<!-- Node45 -->
<g id="node37" class="node"><title>Node45</title>
<polygon fill="white" stroke="#bfbfbf" points="226.266,-169 226.266,-199 339.266,-199 339.266,-169 226.266,-169"/>
<text text-anchor="start" x="234.266" y="-187" font-family="Helvetica,sans-Serif" font-size="10.00">boost/thread/condition</text>
<text text-anchor="middle" x="282.766" y="-176" font-family="Helvetica,sans-Serif" font-size="10.00">_variable.hpp</text>
</g>
<!-- Node43&#45;&gt;Node45 -->
<g id="edge50" class="edge"><title>Node43&#45;&gt;Node45</title>
<path fill="none" stroke="midnightblue" d="M460.708,-238.117C431.367,-229.359 379.681,-213.93 339.548,-201.95"/>
<polygon fill="midnightblue" stroke="midnightblue" points="340.459,-198.569 329.875,-199.063 338.456,-205.277 340.459,-198.569"/>
</g>
<!-- Node46 -->
<g id="node38" class="node"><title>Node46</title>
<polygon fill="white" stroke="#bfbfbf" points="357.766,-174.5 357.766,-193.5 473.766,-193.5 473.766,-174.5 357.766,-174.5"/>
<text text-anchor="middle" x="415.766" y="-181.5" font-family="Helvetica,sans-Serif" font-size="10.00">boost/thread/locks.hpp</text>
</g>
<!-- Node43&#45;&gt;Node46 -->
<g id="edge51" class="edge"><title>Node43&#45;&gt;Node46</title>
<path fill="none" stroke="midnightblue" d="M474.023,-236.403C463.419,-227.047 446.246,-211.895 433.287,-200.46"/>
<polygon fill="midnightblue" stroke="midnightblue" points="435.304,-197.572 425.49,-193.581 430.673,-202.821 435.304,-197.572"/>
</g>
<!-- Node47 -->
<g id="node39" class="node"><title>Node47</title>
<polygon fill="white" stroke="#bfbfbf" points="492.266,-174.5 492.266,-193.5 611.266,-193.5 611.266,-174.5 492.266,-174.5"/>
<text text-anchor="middle" x="551.766" y="-181.5" font-family="Helvetica,sans-Serif" font-size="10.00">boost/thread/mutex.hpp</text>
</g>
<!-- Node43&#45;&gt;Node47 -->
<g id="edge52" class="edge"><title>Node43&#45;&gt;Node47</title>
<path fill="none" stroke="midnightblue" d="M493.508,-236.403C504.112,-227.047 521.285,-211.895 534.244,-200.46"/>
<polygon fill="midnightblue" stroke="midnightblue" points="536.858,-202.821 542.041,-193.581 532.227,-197.572 536.858,-202.821"/>
</g>
<!-- Node48 -->
<g id="node40" class="node"><title>Node48</title>
<polygon fill="white" stroke="#bfbfbf" points="629.266,-169 629.266,-199 742.266,-199 742.266,-169 629.266,-169"/>
<text text-anchor="start" x="637.266" y="-187" font-family="Helvetica,sans-Serif" font-size="10.00">boost/thread/recursive</text>
<text text-anchor="middle" x="685.766" y="-176" font-family="Helvetica,sans-Serif" font-size="10.00">_mutex.hpp</text>
</g>
<!-- Node43&#45;&gt;Node48 -->
<g id="edge53" class="edge"><title>Node43&#45;&gt;Node48</title>
<path fill="none" stroke="midnightblue" d="M506.937,-238.117C536.424,-229.359 588.368,-213.93 628.701,-201.95"/>
<polygon fill="midnightblue" stroke="midnightblue" points="629.832,-205.265 638.421,-199.063 627.839,-198.555 629.832,-205.265"/>
</g>
<!-- Node49&#45;&gt;Node19 -->
<g id="edge57" class="edge"><title>Node49&#45;&gt;Node19</title>
<path fill="none" stroke="midnightblue" d="M747.382,-112.455C744.08,-98.5472 740.053,-71.0568 754.766,-56 783.556,-26.5358 1068.14,-15.1106 1168.75,-11.9721"/>
<polygon fill="midnightblue" stroke="midnightblue" points="1169.11,-15.4631 1179,-11.6616 1168.89,-8.46632 1169.11,-15.4631"/>
</g>
<!-- Node49&#45;&gt;Node21 -->
<g id="edge55" class="edge"><title>Node49&#45;&gt;Node21</title>
<path fill="none" stroke="midnightblue" d="M766.475,-112.324C783.077,-103.703 808.768,-90.3643 827.986,-80.3855"/>
<polygon fill="midnightblue" stroke="midnightblue" points="829.835,-83.3689 837.098,-75.6545 826.61,-77.1565 829.835,-83.3689"/>
</g>
<!-- Node49&#45;&gt;Node22 -->
<g id="edge56" class="edge"><title>Node49&#45;&gt;Node22</title>
<path fill="none" stroke="midnightblue" d="M738.84,-112.324C728.591,-104.185 713.045,-91.8395 700.765,-82.0874"/>
<polygon fill="midnightblue" stroke="midnightblue" points="702.897,-79.3119 692.89,-75.8339 698.544,-84.7937 702.897,-79.3119"/>
</g>
<!-- Node49&#45;&gt;Node32 -->
<g id="edge58" class="edge"><title>Node49&#45;&gt;Node32</title>
<path fill="none" stroke="midnightblue" d="M755.71,-112.083C760.743,-104.534 768.102,-93.4948 774.279,-84.2298"/>
<polygon fill="midnightblue" stroke="midnightblue" points="777.297,-86.0131 779.931,-75.7511 771.472,-82.1301 777.297,-86.0131"/>
</g>
<!-- Node50&#45;&gt;Node2 -->
<g id="edge60" class="edge"><title>Node50&#45;&gt;Node2</title>
<path fill="none" stroke="midnightblue" d="M1458.86,-244.908C1550.89,-244.271 1945.64,-239.252 1981.77,-200 1996.14,-184.378 1990.08,-158.666 1983.35,-141.296"/>
<polygon fill="midnightblue" stroke="midnightblue" points="1986.4,-139.536 1979.25,-131.723 1979.97,-142.293 1986.4,-139.536"/>
</g>
<!-- Node50&#45;&gt;Node19 -->
<g id="edge72" class="edge"><title>Node50&#45;&gt;Node19</title>
<path fill="none" stroke="midnightblue" d="M1458.98,-244.777C1617.75,-242.62 2703.06,-221.768 2542.77,-56 2496.11,-7.74549 1444.59,-9.92737 1238.59,-10.8208"/>
<polygon fill="midnightblue" stroke="midnightblue" points="1238.34,-7.32177 1228.36,-10.8672 1238.38,-14.3217 1238.34,-7.32177"/>
</g>
<!-- Node50&#45;&gt;Node26 -->
<g id="edge71" class="edge"><title>Node50&#45;&gt;Node26</title>
<path fill="none" stroke="midnightblue" d="M1420.54,-238.866C1401.55,-231.987 1372.68,-219.211 1353.77,-200 1320.62,-166.334 1300.65,-112.96 1291.94,-85.1699"/>
<polygon fill="midnightblue" stroke="midnightblue" points="1295.29,-84.1362 1289.06,-75.5613 1288.58,-86.1451 1295.29,-84.1362"/>
</g>
<!-- Node50&#45;&gt;Node29 -->
<g id="edge73" class="edge"><title>Node50&#45;&gt;Node29</title>
<path fill="none" stroke="midnightblue" d="M1420.62,-237.015C1405.33,-229.643 1384.56,-217.224 1372.77,-200 1348.65,-164.801 1343.62,-113.233 1342.76,-85.7977"/>
<polygon fill="midnightblue" stroke="midnightblue" points="1346.25,-85.5789 1342.6,-75.6351 1339.26,-85.6888 1346.25,-85.5789"/>
</g>
<!-- Node50&#45;&gt;Node32 -->
<g id="edge74" class="edge"><title>Node50&#45;&gt;Node32</title>
<path fill="none" stroke="midnightblue" d="M1420.67,-243.88C1367.78,-240.491 1215.17,-228.756 1091.77,-200 1000.74,-178.789 977.425,-171.606 892.766,-132 861.21,-117.237 827.224,-95.4805 806.221,-81.2745"/>
<polygon fill="midnightblue" stroke="midnightblue" points="808.029,-78.2705 797.8,-75.511 804.076,-84.0472 808.029,-78.2705"/>
</g>
<!-- Node51 -->
<g id="node43" class="node"><title>Node51</title>
<g id="a_node43"><a xlink:href="tinyformat_8h.html" target="_top" xlink:title="tinyformat.h">
<polygon fill="white" stroke="red" points="1111.77,-112.5 1111.77,-131.5 1179.77,-131.5 1179.77,-112.5 1111.77,-112.5"/>
<text text-anchor="middle" x="1145.77" y="-119.5" font-family="Helvetica,sans-Serif" font-size="10.00">tinyformat.h</text>
</a>
</g>
</g>
<!-- Node50&#45;&gt;Node51 -->
<g id="edge61" class="edge"><title>Node50&#45;&gt;Node51</title>
<path fill="none" stroke="midnightblue" d="M1420.73,-240.802C1393.4,-234.338 1341.94,-220.509 1301.77,-200 1280.23,-189.006 1278.92,-179.708 1257.77,-168 1233.49,-154.566 1204.36,-142.991 1181.9,-134.945"/>
<polygon fill="midnightblue" stroke="midnightblue" points="1183,-131.621 1172.4,-131.61 1180.68,-138.225 1183,-131.621"/>
</g>
<!-- Node55 -->
<g id="node44" class="node"><title>Node55</title>
<g id="a_node44"><a xlink:href="utiltime_8h.html" target="_top" xlink:title="utiltime.h">
<polygon fill="white" stroke="black" points="1419.77,-112.5 1419.77,-131.5 1475.77,-131.5 1475.77,-112.5 1419.77,-112.5"/>
<text text-anchor="middle" x="1447.77" y="-119.5" font-family="Helvetica,sans-Serif" font-size="10.00">utiltime.h</text>
</a>
</g>
</g>
<!-- Node50&#45;&gt;Node55 -->
<g id="edge63" class="edge"><title>Node50&#45;&gt;Node55</title>
<path fill="none" stroke="midnightblue" d="M1458.86,-244.854C1549.1,-243.969 1929.89,-237.992 1964.77,-200 1974.38,-189.523 1974.38,-178.484 1964.77,-168 1932.55,-132.861 1600.24,-125.066 1486.05,-123.42"/>
<polygon fill="midnightblue" stroke="midnightblue" points="1486.06,-119.92 1476.01,-123.283 1485.96,-126.919 1486.06,-119.92"/>
</g>
<!-- Node56 -->
<g id="node45" class="node"><title>Node56</title>
<g id="a_node45"><a xlink:href="amount_8h.html" target="_top" xlink:title="amount.h">
<polygon fill="white" stroke="red" points="1101.27,-174.5 1101.27,-193.5 1158.27,-193.5 1158.27,-174.5 1101.27,-174.5"/>
<text text-anchor="middle" x="1129.77" y="-181.5" font-family="Helvetica,sans-Serif" font-size="10.00">amount.h</text>
</a>
</g>
</g>
<!-- Node50&#45;&gt;Node56 -->
<g id="edge66" class="edge"><title>Node50&#45;&gt;Node56</title>
<path fill="none" stroke="midnightblue" d="M1420.58,-243.314C1375.57,-239.041 1259.94,-226.215 1166.77,-200 1163.95,-199.208 1161.06,-198.27 1158.19,-197.255"/>
<polygon fill="midnightblue" stroke="midnightblue" points="1159.28,-193.923 1148.69,-193.611 1156.77,-200.459 1159.28,-193.923"/>
</g>
<!-- Node57 -->
<g id="node46" class="node"><title>Node57</title>
<polygon fill="white" stroke="#bfbfbf" points="1381.77,-174.5 1381.77,-193.5 1427.77,-193.5 1427.77,-174.5 1381.77,-174.5"/>
<text text-anchor="middle" x="1404.77" y="-181.5" font-family="Helvetica,sans-Serif" font-size="10.00">atomic</text>
</g>
<!-- Node50&#45;&gt;Node57 -->
<g id="edge69" class="edge"><title>Node50&#45;&gt;Node57</title>
<path fill="none" stroke="midnightblue" d="M1434.75,-236.403C1429.6,-227.582 1421.45,-213.608 1414.95,-202.455"/>
<polygon fill="midnightblue" stroke="midnightblue" points="1417.83,-200.455 1409.77,-193.581 1411.79,-203.982 1417.83,-200.455"/>
</g>
<!-- Node58 -->
<g id="node47" class="node"><title>Node58</title>
<polygon fill="white" stroke="#bfbfbf" points="1446.27,-174.5 1446.27,-193.5 1505.27,-193.5 1505.27,-174.5 1446.27,-174.5"/>
<text text-anchor="middle" x="1475.77" y="-181.5" font-family="Helvetica,sans-Serif" font-size="10.00">exception</text>
</g>
<!-- Node50&#45;&gt;Node58 -->
<g id="edge70" class="edge"><title>Node50&#45;&gt;Node58</title>
<path fill="none" stroke="midnightblue" d="M1444.92,-236.403C1450.22,-227.582 1458.6,-213.608 1465.29,-202.455"/>
<polygon fill="midnightblue" stroke="midnightblue" points="1468.47,-203.956 1470.62,-193.581 1462.47,-200.355 1468.47,-203.956"/>
</g>
<!-- Node59 -->
<g id="node48" class="node"><title>Node59</title>
<polygon fill="white" stroke="#bfbfbf" points="1523.27,-174.5 1523.27,-193.5 1652.27,-193.5 1652.27,-174.5 1523.27,-174.5"/>
<text text-anchor="middle" x="1587.77" y="-181.5" font-family="Helvetica,sans-Serif" font-size="10.00">boost/filesystem/path.hpp</text>
</g>
<!-- Node50&#45;&gt;Node59 -->
<g id="edge75" class="edge"><title>Node50&#45;&gt;Node59</title>
<path fill="none" stroke="midnightblue" d="M1458.81,-237.279C1483.64,-227.213 1527.38,-209.479 1556.96,-197.489"/>
<polygon fill="midnightblue" stroke="midnightblue" points="1558.45,-200.663 1566.4,-193.662 1555.82,-194.175 1558.45,-200.663"/>
</g>
<!-- Node60 -->
<g id="node49" class="node"><title>Node60</title>
<polygon fill="white" stroke="#bfbfbf" points="1670.27,-174.5 1670.27,-193.5 1797.27,-193.5 1797.27,-174.5 1670.27,-174.5"/>
<text text-anchor="middle" x="1733.77" y="-181.5" font-family="Helvetica,sans-Serif" font-size="10.00">boost/signals2/signal.hpp</text>
</g>
<!-- Node50&#45;&gt;Node60 -->
<g id="edge76" class="edge"><title>Node50&#45;&gt;Node60</title>
<path fill="none" stroke="midnightblue" d="M1458.98,-241.099C1497.35,-233.309 1586.15,-215.262 1660.77,-200 1667.82,-198.556 1675.27,-197.031 1682.59,-195.527"/>
<polygon fill="midnightblue" stroke="midnightblue" points="1683.37,-198.941 1692.46,-193.501 1681.96,-192.084 1683.37,-198.941"/>
</g>
<!-- Node61 -->
<g id="node50" class="node"><title>Node61</title>
<polygon fill="white" stroke="#bfbfbf" points="1815.77,-174.5 1815.77,-193.5 1955.77,-193.5 1955.77,-174.5 1815.77,-174.5"/>
<text text-anchor="middle" x="1885.77" y="-181.5" font-family="Helvetica,sans-Serif" font-size="10.00">boost/thread/exceptions.hpp</text>
</g>
<!-- Node50&#45;&gt;Node61 -->
<g id="edge77" class="edge"><title>Node50&#45;&gt;Node61</title>
<path fill="none" stroke="midnightblue" d="M1458.88,-243.08C1513.27,-237.522 1673.54,-220.503 1805.77,-200 1814.59,-198.631 1823.94,-197.024 1833.01,-195.379"/>
<polygon fill="midnightblue" stroke="midnightblue" points="1833.89,-198.776 1843.09,-193.517 1832.62,-191.892 1833.89,-198.776"/>
</g>
<!-- Node51&#45;&gt;Node21 -->
<g id="edge62" class="edge"><title>Node51&#45;&gt;Node21</title>
<path fill="none" stroke="midnightblue" d="M1111.66,-115.795C1064.33,-108.399 975.846,-93.9532 891.96,-76.3682"/>
<polygon fill="midnightblue" stroke="midnightblue" points="892.528,-72.911 882.02,-74.2649 891.079,-79.7594 892.528,-72.911"/>
</g>
<!-- Node55&#45;&gt;Node19 -->
<g id="edge64" class="edge"><title>Node55&#45;&gt;Node19</title>
<path fill="none" stroke="midnightblue" d="M1444.66,-112.281C1439.15,-98.1215 1426.27,-70.2783 1405.77,-56 1355.2,-20.8001 1281.75,-12.5656 1238.76,-10.9654"/>
<polygon fill="midnightblue" stroke="midnightblue" points="1238.6,-7.4601 1228.51,-10.6891 1238.42,-14.4576 1238.6,-7.4601"/>
</g>
<!-- Node55&#45;&gt;Node29 -->
<g id="edge65" class="edge"><title>Node55&#45;&gt;Node29</title>
<path fill="none" stroke="midnightblue" d="M1430.9,-112.324C1414.06,-103.664 1387.96,-90.2424 1368.53,-80.249"/>
<polygon fill="midnightblue" stroke="midnightblue" points="1370.09,-77.1155 1359.59,-75.6545 1366.89,-83.3405 1370.09,-77.1155"/>
</g>
<!-- Node56&#45;&gt;Node17 -->
<g id="edge67" class="edge"><title>Node56&#45;&gt;Node17</title>
<path fill="none" stroke="midnightblue" d="M1107.7,-174.403C1081.4,-164.156 1037.25,-146.956 1007.34,-135.302"/>
<polygon fill="midnightblue" stroke="midnightblue" points="1008.38,-131.95 997.789,-131.581 1005.84,-138.472 1008.38,-131.95"/>
</g>
<!-- Node56&#45;&gt;Node29 -->
<g id="edge68" class="edge"><title>Node56&#45;&gt;Node29</title>
<path fill="none" stroke="midnightblue" d="M1145.43,-174.47C1182.13,-154.485 1273.9,-104.504 1318.15,-80.4066"/>
<polygon fill="midnightblue" stroke="midnightblue" points="1319.97,-83.3988 1327.08,-75.5423 1316.62,-77.2513 1319.97,-83.3988"/>
</g>
</g>
</svg>
