<?xml version="1.0" encoding="UTF-8" standalone="no"?>
<!DOCTYPE svg PUBLIC "-//W3C//DTD SVG 1.1//EN"
 "http://www.w3.org/Graphics/SVG/1.1/DTD/svg11.dtd">
<!-- Generated by graphviz version 2.36.0 (20140111.2315)
 -->
<!-- Title: src/addressindex.h Pages: 1 -->
<!--zoomable 196 -->
<svg id="main" version="1.1" xmlns="http://www.w3.org/2000/svg" xmlns:xlink="http://www.w3.org/1999/xlink" xml:space="preserve" onload="init(evt)">
<style type="text/css"><![CDATA[
.edge:hover path { stroke: red; }
.edge:hover polygon { stroke: red; fill: red; }
]]></style>
<script type="text/javascript"><![CDATA[
var edges = document.getElementsByTagName('g');
if (edges && edges.length) {
  for (var i=0;i<edges.length;i++) {
    if (edges[i].id.substr(0,4)=='edge') {
      edges[i].setAttribute('class','edge');
    }
  }
}
]]></script>
        <defs>
                <circle id="rim" cx="0" cy="0" r="7"/>
                <circle id="rim2" cx="0" cy="0" r="3.5"/>
                <g id="zoomPlus">
                        <use xlink:href="#rim" fill="#404040">
                                <set attributeName="fill" to="#808080" begin="zoomplus.mouseover" end="zoomplus.mouseout"/>
                        </use>
                        <path d="M-4,0h8M0,-4v8" fill="none" stroke="white" stroke-width="1.5" pointer-events="none"/>
                </g>
                <g id="zoomMin">
                        <use xlink:href="#rim" fill="#404040">
                                <set attributeName="fill" to="#808080" begin="zoomminus.mouseover" end="zoomminus.mouseout"/>
                        </use>
                        <path d="M-4,0h8" fill="none" stroke="white" stroke-width="1.5" pointer-events="none"/>
                </g>
                <g id="dirArrow">
                        <path fill="none" stroke="white" stroke-width="1.5" d="M0,-3.0v7 M-2.5,-0.5L0,-3.0L2.5,-0.5"/>
                </g>
               <g id="resetDef">
                       <use xlink:href="#rim2" fill="#404040">
                               <set attributeName="fill" to="#808080" begin="reset.mouseover" end="reset.mouseout"/>
                       </use>
               </g>
        </defs>

<script type="text/javascript">
var viewWidth = 2683;
var viewHeight = 196;
var sectionId = 'dynsection-1';
</script>
<script xlink:href="svgpan.js"/>
<svg id="graph" class="graph">
<g id="viewport">
<title>src/addressindex.h</title>
<polygon fill="white" stroke="none" points="-4,4 -4,-192 2679,-192 2679,4 -4,4"/>
<!-- Node25 -->
<g id="node1" class="node"><title>Node25</title>
<polygon fill="#bfbfbf" stroke="black" points="1169.5,-168.5 1169.5,-187.5 1268.5,-187.5 1268.5,-168.5 1169.5,-168.5"/>
<text text-anchor="middle" x="1219" y="-175.5" font-family="Helvetica,sans-Serif" font-size="10.00">src/addressindex.h</text>
</g>
<!-- Node26 -->
<g id="node2" class="node"><title>Node26</title>
<g id="a_node2"><a xlink:href="txmempool_8h.html" target="_top" xlink:title="src/txmempool.h">
<polygon fill="white" stroke="black" points="1174.5,-112.5 1174.5,-131.5 1263.5,-131.5 1263.5,-112.5 1174.5,-112.5"/>
<text text-anchor="middle" x="1219" y="-119.5" font-family="Helvetica,sans-Serif" font-size="10.00">src/txmempool.h</text>
</a>
</g>
</g>
<!-- Node25&#45;&gt;Node26 -->
<g id="edge1" class="edge"><title>Node25&#45;&gt;Node26</title>
<path fill="none" stroke="midnightblue" d="M1219,-157.805C1219,-148.91 1219,-138.78 1219,-131.751"/>
<polygon fill="midnightblue" stroke="midnightblue" points="1215.5,-158.083 1219,-168.083 1222.5,-158.083 1215.5,-158.083"/>
</g>
<!-- Node27 -->
<g id="node3" class="node"><title>Node27</title>
<g id="a_node3"><a xlink:href="mempool__eviction_8cpp.html" target="_top" xlink:title="src/bench/mempool_eviction.cpp">
<polygon fill="white" stroke="black" points="0,-56.5 0,-75.5 160,-75.5 160,-56.5 0,-56.5"/>
<text text-anchor="middle" x="80" y="-63.5" font-family="Helvetica,sans-Serif" font-size="10.00">src/bench/mempool_eviction.cpp</text>
</a>
</g>
</g>
<!-- Node26&#45;&gt;Node27 -->
<g id="edge2" class="edge"><title>Node26&#45;&gt;Node27</title>
<path fill="none" stroke="midnightblue" d="M1164.22,-119.747C1008.49,-115.949 549.917,-103.123 170,-76 166.867,-75.7764 163.675,-75.5327 160.451,-75.2736"/>
<polygon fill="midnightblue" stroke="midnightblue" points="1164.39,-123.252 1174.47,-119.995 1164.56,-116.254 1164.39,-123.252"/>
</g>
<!-- Node28 -->
<g id="node4" class="node"><title>Node28</title>
<g id="a_node4"><a xlink:href="blockencodings_8cpp.html" target="_top" xlink:title="src/blockencodings.cpp">
<polygon fill="white" stroke="black" points="178.5,-56.5 178.5,-75.5 297.5,-75.5 297.5,-56.5 178.5,-56.5"/>
<text text-anchor="middle" x="238" y="-63.5" font-family="Helvetica,sans-Serif" font-size="10.00">src/blockencodings.cpp</text>
</a>
</g>
</g>
<!-- Node26&#45;&gt;Node28 -->
<g id="edge3" class="edge"><title>Node26&#45;&gt;Node28</title>
<path fill="none" stroke="midnightblue" d="M1163.94,-119.639C1022.36,-115.842 634.209,-103.551 312,-76 307.358,-75.6031 302.558,-75.1398 297.736,-74.6367"/>
<polygon fill="midnightblue" stroke="midnightblue" points="1164.01,-123.142 1174.1,-119.908 1164.19,-116.144 1164.01,-123.142"/>
</g>
<!-- Node29 -->
<g id="node5" class="node"><title>Node29</title>
<g id="a_node5"><a xlink:href="miner_8h.html" target="_top" xlink:title="src/miner.h">
<polygon fill="white" stroke="black" points="392.5,-56.5 392.5,-75.5 457.5,-75.5 457.5,-56.5 392.5,-56.5"/>
<text text-anchor="middle" x="425" y="-63.5" font-family="Helvetica,sans-Serif" font-size="10.00">src/miner.h</text>
</a>
</g>
</g>
<!-- Node26&#45;&gt;Node29 -->
<g id="edge4" class="edge"><title>Node26&#45;&gt;Node29</title>
<path fill="none" stroke="midnightblue" d="M1163.82,-120.109C1039.74,-117.574 729.416,-108.263 472,-76 467.301,-75.4111 462.365,-74.6382 457.53,-73.7926"/>
<polygon fill="midnightblue" stroke="midnightblue" points="1164.12,-123.615 1174.19,-120.314 1164.26,-116.617 1164.12,-123.615"/>
</g>
<!-- Node30 -->
<g id="node6" class="node"><title>Node30</title>
<g id="a_node6"><a xlink:href="init_8cpp.html" target="_top" xlink:title="src/init.cpp">
<polygon fill="white" stroke="black" points="276.5,-0.5 276.5,-19.5 341.5,-19.5 341.5,-0.5 276.5,-0.5"/>
<text text-anchor="middle" x="309" y="-7.5" font-family="Helvetica,sans-Serif" font-size="10.00">src/init.cpp</text>
</a>
</g>
</g>
<!-- Node26&#45;&gt;Node30 -->
<g id="edge8" class="edge"><title>Node26&#45;&gt;Node30</title>
<path fill="none" stroke="midnightblue" d="M1164.22,-120.376C988.278,-118.058 444.786,-108.329 373,-76 345.853,-63.7743 324.062,-34.4502 314.402,-19.7343"/>
<polygon fill="midnightblue" stroke="midnightblue" points="1164.25,-123.877 1174.29,-120.506 1164.34,-116.878 1164.25,-123.877"/>
</g>
<!-- Node31 -->
<g id="node7" class="node"><title>Node31</title>
<g id="a_node7"><a xlink:href="miner_8cpp.html" target="_top" xlink:title="src/miner.cpp">
<polygon fill="white" stroke="black" points="360,-0.5 360,-19.5 436,-19.5 436,-0.5 360,-0.5"/>
<text text-anchor="middle" x="398" y="-7.5" font-family="Helvetica,sans-Serif" font-size="10.00">src/miner.cpp</text>
</a>
</g>
</g>
<!-- Node26&#45;&gt;Node31 -->
<g id="edge10" class="edge"><title>Node26&#45;&gt;Node31</title>
<path fill="none" stroke="midnightblue" d="M1164.17,-120.095C982.601,-116.835 410.861,-104.347 384,-76 369.391,-60.5822 383.015,-33.7484 391.834,-19.8739"/>
<polygon fill="midnightblue" stroke="midnightblue" points="1164.24,-123.597 1174.3,-120.275 1164.36,-116.598 1164.24,-123.597"/>
</g>
<!-- Node32 -->
<g id="node8" class="node"><title>Node32</title>
<g id="a_node8"><a xlink:href="mining_8cpp.html" target="_top" xlink:title="src/rpc/mining.cpp">
<polygon fill="white" stroke="black" points="454.5,-0.5 454.5,-19.5 551.5,-19.5 551.5,-0.5 454.5,-0.5"/>
<text text-anchor="middle" x="503" y="-7.5" font-family="Helvetica,sans-Serif" font-size="10.00">src/rpc/mining.cpp</text>
</a>
</g>
</g>
<!-- Node26&#45;&gt;Node32 -->
<g id="edge22" class="edge"><title>Node26&#45;&gt;Node32</title>
<path fill="none" stroke="midnightblue" d="M1164.09,-119.539C1000.75,-114.931 527.854,-99.6011 505,-76 490.392,-60.9141 495.955,-33.4368 500.09,-19.5382"/>
<polygon fill="midnightblue" stroke="midnightblue" points="1164.3,-123.046 1174.39,-119.827 1164.49,-116.049 1164.3,-123.046"/>
</g>
<!-- Node33 -->
<g id="node9" class="node"><title>Node33</title>
<g id="a_node9"><a xlink:href="instantx_8cpp.html" target="_top" xlink:title="src/instantx.cpp">
<polygon fill="white" stroke="black" points="514,-56.5 514,-75.5 600,-75.5 600,-56.5 514,-56.5"/>
<text text-anchor="middle" x="557" y="-63.5" font-family="Helvetica,sans-Serif" font-size="10.00">src/instantx.cpp</text>
</a>
</g>
</g>
<!-- Node26&#45;&gt;Node33 -->
<g id="edge9" class="edge"><title>Node26&#45;&gt;Node33</title>
<path fill="none" stroke="midnightblue" d="M1164.23,-118.757C1057.22,-113.978 812.996,-101.117 609,-76 606.09,-75.6417 603.095,-75.2324 600.082,-74.7904"/>
<polygon fill="midnightblue" stroke="midnightblue" points="1164.32,-122.264 1174.46,-119.208 1164.63,-115.271 1164.32,-122.264"/>
</g>
<!-- Node34 -->
<g id="node10" class="node"><title>Node34</title>
<g id="a_node10"><a xlink:href="net__processing_8cpp.html" target="_top" xlink:title="src/net_processing.cpp">
<polygon fill="white" stroke="black" points="618,-56.5 618,-75.5 736,-75.5 736,-56.5 618,-56.5"/>
<text text-anchor="middle" x="677" y="-63.5" font-family="Helvetica,sans-Serif" font-size="10.00">src/net_processing.cpp</text>
</a>
</g>
</g>
<!-- Node26&#45;&gt;Node34 -->
<g id="edge11" class="edge"><title>Node26&#45;&gt;Node34</title>
<path fill="none" stroke="midnightblue" d="M1164.23,-116.414C1076.06,-108.89 897.19,-93.0469 746,-76 742.759,-75.6345 739.434,-75.2461 736.079,-74.8435"/>
<polygon fill="midnightblue" stroke="midnightblue" points="1164.01,-119.908 1174.27,-117.268 1164.61,-112.933 1164.01,-119.908"/>
</g>
<!-- Node35 -->
<g id="node11" class="node"><title>Node35</title>
<g id="a_node11"><a xlink:href="fees_8cpp.html" target="_top" xlink:title="src/policy/fees.cpp">
<polygon fill="white" stroke="black" points="754.5,-56.5 754.5,-75.5 853.5,-75.5 853.5,-56.5 754.5,-56.5"/>
<text text-anchor="middle" x="804" y="-63.5" font-family="Helvetica,sans-Serif" font-size="10.00">src/policy/fees.cpp</text>
</a>
</g>
</g>
<!-- Node26&#45;&gt;Node35 -->
<g id="edge12" class="edge"><title>Node26&#45;&gt;Node35</title>
<path fill="none" stroke="midnightblue" d="M1163.93,-114.483C1093.93,-106.096 969.371,-90.8335 863,-76 859.921,-75.5707 856.754,-75.1184 853.561,-74.6544"/>
<polygon fill="midnightblue" stroke="midnightblue" points="1163.93,-118.007 1174.27,-115.719 1164.76,-111.057 1163.93,-118.007"/>
</g>
<!-- Node36 -->
<g id="node12" class="node"><title>Node36</title>
<g id="a_node12"><a xlink:href="privatesend-client_8cpp.html" target="_top" xlink:title="src/privatesend&#45;client.cpp">
<polygon fill="white" stroke="black" points="872,-56.5 872,-75.5 1000,-75.5 1000,-56.5 872,-56.5"/>
<text text-anchor="middle" x="936" y="-63.5" font-family="Helvetica,sans-Serif" font-size="10.00">src/privatesend&#45;client.cpp</text>
</a>
</g>
</g>
<!-- Node26&#45;&gt;Node36 -->
<g id="edge13" class="edge"><title>Node26&#45;&gt;Node36</title>
<path fill="none" stroke="midnightblue" d="M1164.49,-110.599C1111.04,-100.4 1030.54,-85.0398 980.737,-75.5364"/>
<polygon fill="midnightblue" stroke="midnightblue" points="1163.99,-114.067 1174.47,-112.503 1165.3,-107.191 1163.99,-114.067"/>
</g>
<!-- Node37 -->
<g id="node13" class="node"><title>Node37</title>
<g id="a_node13"><a xlink:href="privatesend-server_8cpp.html" target="_top" xlink:title="src/privatesend&#45;server.cpp">
<polygon fill="white" stroke="black" points="1018,-56.5 1018,-75.5 1150,-75.5 1150,-56.5 1018,-56.5"/>
<text text-anchor="middle" x="1084" y="-63.5" font-family="Helvetica,sans-Serif" font-size="10.00">src/privatesend&#45;server.cpp</text>
</a>
</g>
</g>
<!-- Node26&#45;&gt;Node37 -->
<g id="edge14" class="edge"><title>Node26&#45;&gt;Node37</title>
<path fill="none" stroke="midnightblue" d="M1188.09,-108.638C1162.76,-98.504 1127.57,-84.4274 1105.29,-75.5164"/>
<polygon fill="midnightblue" stroke="midnightblue" points="1187.02,-111.979 1197.61,-112.444 1189.62,-105.48 1187.02,-111.979"/>
</g>
<!-- Node38 -->
<g id="node14" class="node"><title>Node38</title>
<g id="a_node14"><a xlink:href="privatesend_8cpp.html" target="_top" xlink:title="src/privatesend.cpp">
<polygon fill="white" stroke="black" points="1168,-56.5 1168,-75.5 1270,-75.5 1270,-56.5 1168,-56.5"/>
<text text-anchor="middle" x="1219" y="-63.5" font-family="Helvetica,sans-Serif" font-size="10.00">src/privatesend.cpp</text>
</a>
</g>
</g>
<!-- Node26&#45;&gt;Node38 -->
<g id="edge15" class="edge"><title>Node26&#45;&gt;Node38</title>
<path fill="none" stroke="midnightblue" d="M1219,-101.805C1219,-92.9102 1219,-82.7798 1219,-75.7511"/>
<polygon fill="midnightblue" stroke="midnightblue" points="1215.5,-102.083 1219,-112.083 1222.5,-102.083 1215.5,-102.083"/>
</g>
<!-- Node39 -->
<g id="node15" class="node"><title>Node39</title>
<g id="a_node15"><a xlink:href="clientmodel_8cpp.html" target="_top" xlink:title="src/qt/clientmodel.cpp">
<polygon fill="white" stroke="black" points="1288.5,-56.5 1288.5,-75.5 1401.5,-75.5 1401.5,-56.5 1288.5,-56.5"/>
<text text-anchor="middle" x="1345" y="-63.5" font-family="Helvetica,sans-Serif" font-size="10.00">src/qt/clientmodel.cpp</text>
</a>
</g>
</g>
<!-- Node26&#45;&gt;Node39 -->
<g id="edge16" class="edge"><title>Node26&#45;&gt;Node39</title>
<path fill="none" stroke="midnightblue" d="M1248.16,-108.503C1271.78,-98.3795 1304.43,-84.388 1325.13,-75.5164"/>
<polygon fill="midnightblue" stroke="midnightblue" points="1246.78,-105.287 1238.97,-112.444 1249.54,-111.721 1246.78,-105.287"/>
</g>
<!-- Node40 -->
<g id="node16" class="node"><title>Node40</title>
<g id="a_node16"><a xlink:href="coincontroldialog_8cpp.html" target="_top" xlink:title="src/qt/coincontroldialog.cpp">
<polygon fill="white" stroke="black" points="1420,-56.5 1420,-75.5 1556,-75.5 1556,-56.5 1420,-56.5"/>
<text text-anchor="middle" x="1488" y="-63.5" font-family="Helvetica,sans-Serif" font-size="10.00">src/qt/coincontroldialog.cpp</text>
</a>
</g>
</g>
<!-- Node26&#45;&gt;Node40 -->
<g id="edge17" class="edge"><title>Node26&#45;&gt;Node40</title>
<path fill="none" stroke="midnightblue" d="M1271.44,-110.473C1322.28,-100.268 1398.44,-84.9794 1445.58,-75.5164"/>
<polygon fill="midnightblue" stroke="midnightblue" points="1270.74,-107.044 1261.62,-112.444 1272.12,-113.907 1270.74,-107.044"/>
</g>
<!-- Node41 -->
<g id="node17" class="node"><title>Node41</title>
<g id="a_node17"><a xlink:href="sendcoinsdialog_8cpp.html" target="_top" xlink:title="src/qt/sendcoinsdialog.cpp">
<polygon fill="white" stroke="black" points="1574.5,-56.5 1574.5,-75.5 1707.5,-75.5 1707.5,-56.5 1574.5,-56.5"/>
<text text-anchor="middle" x="1641" y="-63.5" font-family="Helvetica,sans-Serif" font-size="10.00">src/qt/sendcoinsdialog.cpp</text>
</a>
</g>
</g>
<!-- Node26&#45;&gt;Node41 -->
<g id="edge18" class="edge"><title>Node26&#45;&gt;Node41</title>
<path fill="none" stroke="midnightblue" d="M1273.75,-113.994C1350.83,-104.131 1491.18,-86.1708 1574.27,-75.5389"/>
<polygon fill="midnightblue" stroke="midnightblue" points="1273.24,-110.531 1263.76,-115.272 1274.13,-117.475 1273.24,-110.531"/>
</g>
<!-- Node42 -->
<g id="node18" class="node"><title>Node42</title>
<g id="a_node18"><a xlink:href="rest_8cpp.html" target="_top" xlink:title="src/rest.cpp">
<polygon fill="white" stroke="black" points="1726,-56.5 1726,-75.5 1794,-75.5 1794,-56.5 1726,-56.5"/>
<text text-anchor="middle" x="1760" y="-63.5" font-family="Helvetica,sans-Serif" font-size="10.00">src/rest.cpp</text>
</a>
</g>
</g>
<!-- Node26&#45;&gt;Node42 -->
<g id="edge19" class="edge"><title>Node26&#45;&gt;Node42</title>
<path fill="none" stroke="midnightblue" d="M1273.92,-118.034C1365.8,-112.624 1556.3,-99.4888 1716,-76 1719.24,-75.5235 1722.6,-74.9611 1725.96,-74.3538"/>
<polygon fill="midnightblue" stroke="midnightblue" points="1273.53,-114.551 1263.75,-118.625 1273.93,-121.539 1273.53,-114.551"/>
</g>
<!-- Node43 -->
<g id="node19" class="node"><title>Node43</title>
<g id="a_node19"><a xlink:href="blockchain_8cpp.html" target="_top" xlink:title="src/rpc/blockchain.cpp">
<polygon fill="white" stroke="black" points="1812.5,-56.5 1812.5,-75.5 1927.5,-75.5 1927.5,-56.5 1812.5,-56.5"/>
<text text-anchor="middle" x="1870" y="-63.5" font-family="Helvetica,sans-Serif" font-size="10.00">src/rpc/blockchain.cpp</text>
</a>
</g>
</g>
<!-- Node26&#45;&gt;Node43 -->
<g id="edge20" class="edge"><title>Node26&#45;&gt;Node43</title>
<path fill="none" stroke="midnightblue" d="M1273.99,-117.805C1377.64,-111.551 1608.93,-96.4952 1803,-76 1806.03,-75.6795 1809.14,-75.3313 1812.28,-74.9643"/>
<polygon fill="midnightblue" stroke="midnightblue" points="1273.54,-114.325 1263.77,-118.418 1273.96,-121.312 1273.54,-114.325"/>
</g>
<!-- Node44 -->
<g id="node20" class="node"><title>Node44</title>
<g id="a_node20"><a xlink:href="rpc_2masternode_8cpp.html" target="_top" xlink:title="src/rpc/masternode.cpp">
<polygon fill="white" stroke="black" points="1945.5,-56.5 1945.5,-75.5 2064.5,-75.5 2064.5,-56.5 1945.5,-56.5"/>
<text text-anchor="middle" x="2005" y="-63.5" font-family="Helvetica,sans-Serif" font-size="10.00">src/rpc/masternode.cpp</text>
</a>
</g>
</g>
<!-- Node26&#45;&gt;Node44 -->
<g id="edge21" class="edge"><title>Node26&#45;&gt;Node44</title>
<path fill="none" stroke="midnightblue" d="M1273.59,-118.824C1393.59,-113.766 1689.31,-99.803 1936,-76 1939.01,-75.7099 1942.08,-75.3907 1945.19,-75.0507"/>
<polygon fill="midnightblue" stroke="midnightblue" points="1273.4,-115.329 1263.55,-119.243 1273.69,-122.323 1273.4,-115.329"/>
</g>
<!-- Node45 -->
<g id="node21" class="node"><title>Node45</title>
<g id="a_node21"><a xlink:href="misc_8cpp.html" target="_top" xlink:title="src/rpc/misc.cpp">
<polygon fill="white" stroke="black" points="2082.5,-56.5 2082.5,-75.5 2171.5,-75.5 2171.5,-56.5 2082.5,-56.5"/>
<text text-anchor="middle" x="2127" y="-63.5" font-family="Helvetica,sans-Serif" font-size="10.00">src/rpc/misc.cpp</text>
</a>
</g>
</g>
<!-- Node26&#45;&gt;Node45 -->
<g id="edge23" class="edge"><title>Node26&#45;&gt;Node45</title>
<path fill="none" stroke="midnightblue" d="M1273.74,-120.248C1409.48,-117.921 1772.37,-108.868 2073,-76 2076.02,-75.6695 2079.13,-75.2809 2082.26,-74.8541"/>
<polygon fill="midnightblue" stroke="midnightblue" points="1273.54,-116.751 1263.59,-120.417 1273.65,-123.75 1273.54,-116.751"/>
</g>
<!-- Node46 -->
<g id="node22" class="node"><title>Node46</title>
<g id="a_node22"><a xlink:href="rawtransaction_8cpp.html" target="_top" xlink:title="src/rpc/rawtransaction.cpp">
<polygon fill="white" stroke="black" points="2190,-56.5 2190,-75.5 2322,-75.5 2322,-56.5 2190,-56.5"/>
<text text-anchor="middle" x="2256" y="-63.5" font-family="Helvetica,sans-Serif" font-size="10.00">src/rpc/rawtransaction.cpp</text>
</a>
</g>
</g>
<!-- Node26&#45;&gt;Node46 -->
<g id="edge24" class="edge"><title>Node26&#45;&gt;Node46</title>
<path fill="none" stroke="midnightblue" d="M1273.73,-119.799C1420.63,-116.282 1835.79,-104.404 2180,-76 2183.18,-75.7378 2186.43,-75.4456 2189.71,-75.1314"/>
<polygon fill="midnightblue" stroke="midnightblue" points="1273.53,-116.303 1263.62,-120.038 1273.7,-123.301 1273.53,-116.303"/>
</g>
<!-- Node47 -->
<g id="node23" class="node"><title>Node47</title>
<g id="a_node23"><a xlink:href="txmempool_8cpp.html" target="_top" xlink:title="src/txmempool.cpp">
<polygon fill="white" stroke="black" points="2340,-56.5 2340,-75.5 2440,-75.5 2440,-56.5 2340,-56.5"/>
<text text-anchor="middle" x="2390" y="-63.5" font-family="Helvetica,sans-Serif" font-size="10.00">src/txmempool.cpp</text>
</a>
</g>
</g>
<!-- Node26&#45;&gt;Node47 -->
<g id="edge25" class="edge"><title>Node26&#45;&gt;Node47</title>
<path fill="none" stroke="midnightblue" d="M1273.8,-120.931C1435.8,-120.264 1926.38,-114.926 2331,-76 2333.89,-75.7222 2336.85,-75.3974 2339.84,-75.0394"/>
<polygon fill="midnightblue" stroke="midnightblue" points="1273.6,-117.431 1263.61,-120.968 1273.63,-124.431 1273.6,-117.431"/>
</g>
<!-- Node48 -->
<g id="node24" class="node"><title>Node48</title>
<g id="a_node24"><a xlink:href="validation_8cpp.html" target="_top" xlink:title="src/validation.cpp">
<polygon fill="white" stroke="black" points="2458.5,-56.5 2458.5,-75.5 2551.5,-75.5 2551.5,-56.5 2458.5,-56.5"/>
<text text-anchor="middle" x="2505" y="-63.5" font-family="Helvetica,sans-Serif" font-size="10.00">src/validation.cpp</text>
</a>
</g>
</g>
<!-- Node26&#45;&gt;Node48 -->
<g id="edge26" class="edge"><title>Node26&#45;&gt;Node48</title>
<path fill="none" stroke="midnightblue" d="M1273.65,-121.388C1446.48,-122.103 1996.51,-120.469 2449,-76 2452.04,-75.7014 2455.16,-75.3432 2458.3,-74.9442"/>
<polygon fill="midnightblue" stroke="midnightblue" points="1273.55,-117.887 1263.53,-121.341 1273.52,-124.887 1273.55,-117.887"/>
</g>
<!-- Node49 -->
<g id="node25" class="node"><title>Node49</title>
<g id="a_node25"><a xlink:href="wallet_8cpp.html" target="_top" xlink:title="src/wallet/wallet.cpp">
<polygon fill="white" stroke="black" points="2569,-56.5 2569,-75.5 2675,-75.5 2675,-56.5 2569,-56.5"/>
<text text-anchor="middle" x="2622" y="-63.5" font-family="Helvetica,sans-Serif" font-size="10.00">src/wallet/wallet.cpp</text>
</a>
</g>
</g>
<!-- Node26&#45;&gt;Node49 -->
<g id="edge27" class="edge"><title>Node26&#45;&gt;Node49</title>
<path fill="none" stroke="midnightblue" d="M1273.84,-121.33C1456.7,-121.969 2062.11,-120.354 2560,-76 2562.93,-75.7394 2565.92,-75.4337 2568.95,-75.0952"/>
<polygon fill="midnightblue" stroke="midnightblue" points="1273.69,-117.83 1263.68,-121.291 1273.66,-124.83 1273.69,-117.83"/>
</g>
<!-- Node29&#45;&gt;Node30 -->
<g id="edge5" class="edge"><title>Node29&#45;&gt;Node30</title>
<path fill="none" stroke="midnightblue" d="M397.28,-52.096C375.608,-42.0073 346.098,-28.2697 327.295,-19.5164"/>
<polygon fill="midnightblue" stroke="midnightblue" points="396.077,-55.3962 406.619,-56.4435 399.031,-49.0501 396.077,-55.3962"/>
</g>
<!-- Node29&#45;&gt;Node31 -->
<g id="edge6" class="edge"><title>Node29&#45;&gt;Node31</title>
<path fill="none" stroke="midnightblue" d="M415.991,-46.9827C411.408,-37.8168 406.046,-27.0922 402.376,-19.7511"/>
<polygon fill="midnightblue" stroke="midnightblue" points="412.939,-48.704 420.541,-56.083 419.2,-45.5734 412.939,-48.704"/>
</g>
<!-- Node29&#45;&gt;Node32 -->
<g id="edge7" class="edge"><title>Node29&#45;&gt;Node32</title>
<path fill="none" stroke="midnightblue" d="M445.768,-50.6221C460.017,-40.7574 478.456,-27.9919 490.499,-19.6545"/>
<polygon fill="midnightblue" stroke="midnightblue" points="443.762,-47.7541 437.532,-56.324 447.746,-53.5095 443.762,-47.7541"/>
</g>
</g>
</svg>
        <g id="navigator" transform="translate(0 0)" fill="#404254">
                <rect fill="#f2f5e9" fill-opacity="0.5" stroke="#606060" stroke-width=".5" x="0" y="0" width="60" height="60"/>
                <use id="zoomplus" xlink:href="#zoomPlus" x="17" y="9" onmousedown="handleZoom(evt,'in')"/>
                <use id="zoomminus" xlink:href="#zoomMin" x="42" y="9" onmousedown="handleZoom(evt,'out')"/>
                <use id="reset" xlink:href="#resetDef" x="30" y="36" onmousedown="handleReset()"/>
                <g id="arrowUp" xlink:href="#dirArrow" transform="translate(30 24)" onmousedown="handlePan(0,-1)">
                  <use xlink:href="#rim" fill="#404040">
                        <set attributeName="fill" to="#808080" begin="arrowUp.mouseover" end="arrowUp.mouseout"/>
                  </use>
                  <path fill="none" stroke="white" stroke-width="1.5" d="M0,-3.0v7 M-2.5,-0.5L0,-3.0L2.5,-0.5"/>
                </g>
                <g id="arrowRight" xlink:href="#dirArrow" transform="rotate(90) translate(36 -43)" onmousedown="handlePan(1,0)">
                  <use xlink:href="#rim" fill="#404040">
                        <set attributeName="fill" to="#808080" begin="arrowRight.mouseover" end="arrowRight.mouseout"/>
                  </use>
                  <path fill="none" stroke="white" stroke-width="1.5" d="M0,-3.0v7 M-2.5,-0.5L0,-3.0L2.5,-0.5"/>
                </g>
                <g id="arrowDown" xlink:href="#dirArrow" transform="rotate(180) translate(-30 -48)" onmousedown="handlePan(0,1)">
                  <use xlink:href="#rim" fill="#404040">
                        <set attributeName="fill" to="#808080" begin="arrowDown.mouseover" end="arrowDown.mouseout"/>
                  </use>
                  <path fill="none" stroke="white" stroke-width="1.5" d="M0,-3.0v7 M-2.5,-0.5L0,-3.0L2.5,-0.5"/>
                </g>
                <g id="arrowLeft" xlink:href="#dirArrow" transform="rotate(270) translate(-36 17)" onmousedown="handlePan(-1,0)">
                  <use xlink:href="#rim" fill="#404040">
                        <set attributeName="fill" to="#808080" begin="arrowLeft.mouseover" end="arrowLeft.mouseout"/>
                  </use>
                  <path fill="none" stroke="white" stroke-width="1.5" d="M0,-3.0v7 M-2.5,-0.5L0,-3.0L2.5,-0.5"/>
                </g>
        </g>
        <svg viewBox="0 0 15 15" width="100%" height="30px" preserveAspectRatio="xMaxYMin meet">
         <g id="arrow_out" transform="scale(0.3 0.3)">
          <a xlink:href="addressindex_8h__dep__incl_org.svg" target="_base">
           <rect id="button" ry="5" rx="5" y="6" x="6" height="38" width="38"
                fill="#f2f5e9" fill-opacity="0.5" stroke="#606060" stroke-width="1.0"/>
           <path id="arrow"
             d="M 11.500037,31.436501 C 11.940474,20.09759 22.043105,11.32322 32.158766,21.979434 L 37.068811,17.246167 C 37.068811,17.246167 37.088388,32 37.088388,32 L 22.160133,31.978069 C 22.160133,31.978069 26.997745,27.140456 26.997745,27.140456 C 18.528582,18.264221 13.291696,25.230495 11.500037,31.436501 z"
             style="fill:#404040;"/>
          </a>
         </g>
        </svg>
</svg>
