<?xml version="1.0" encoding="UTF-8" standalone="no"?>
<!DOCTYPE svg PUBLIC "-//W3C//DTD SVG 1.1//EN"
 "http://www.w3.org/Graphics/SVG/1.1/DTD/svg11.dtd">
<!-- Generated by graphviz version 2.36.0 (20140111.2315)
 -->
<!-- Title: src/qt/addressbookpage.cpp Pages: 1 -->
<!--zoomable 364 -->
<svg id="main" version="1.1" xmlns="http://www.w3.org/2000/svg" xmlns:xlink="http://www.w3.org/1999/xlink" xml:space="preserve" onload="init(evt)">
<style type="text/css"><![CDATA[
.edge:hover path { stroke: red; }
.edge:hover polygon { stroke: red; fill: red; }
]]></style>
<script type="text/javascript"><![CDATA[
var edges = document.getElementsByTagName('g');
if (edges && edges.length) {
  for (var i=0;i<edges.length;i++) {
    if (edges[i].id.substr(0,4)=='edge') {
      edges[i].setAttribute('class','edge');
    }
  }
}
]]></script>
        <defs>
                <circle id="rim" cx="0" cy="0" r="7"/>
                <circle id="rim2" cx="0" cy="0" r="3.5"/>
                <g id="zoomPlus">
                        <use xlink:href="#rim" fill="#404040">
                                <set attributeName="fill" to="#808080" begin="zoomplus.mouseover" end="zoomplus.mouseout"/>
                        </use>
                        <path d="M-4,0h8M0,-4v8" fill="none" stroke="white" stroke-width="1.5" pointer-events="none"/>
                </g>
                <g id="zoomMin">
                        <use xlink:href="#rim" fill="#404040">
                                <set attributeName="fill" to="#808080" begin="zoomminus.mouseover" end="zoomminus.mouseout"/>
                        </use>
                        <path d="M-4,0h8" fill="none" stroke="white" stroke-width="1.5" pointer-events="none"/>
                </g>
                <g id="dirArrow">
                        <path fill="none" stroke="white" stroke-width="1.5" d="M0,-3.0v7 M-2.5,-0.5L0,-3.0L2.5,-0.5"/>
                </g>
               <g id="resetDef">
                       <use xlink:href="#rim2" fill="#404040">
                               <set attributeName="fill" to="#808080" begin="reset.mouseover" end="reset.mouseout"/>
                       </use>
               </g>
        </defs>

<script type="text/javascript">
var viewWidth = 1931;
var viewHeight = 364;
var sectionId = 'dynsection-0';
</script>
<script xlink:href="svgpan.js"/>
<svg id="graph" class="graph">
<g id="viewport">
<title>src/qt/addressbookpage.cpp</title>
<polygon fill="white" stroke="none" points="-4,4 -4,-360 1926.76,-360 1926.76,4 -4,4"/>
<!-- Node0 -->
<g id="node1" class="node"><title>Node0</title>
<polygon fill="#bfbfbf" stroke="black" points="765.76,-336.5 765.76,-355.5 905.76,-355.5 905.76,-336.5 765.76,-336.5"/>
<text text-anchor="middle" x="835.76" y="-343.5" font-family="Helvetica,sans-Serif" font-size="10.00">src/qt/addressbookpage.cpp</text>
</g>
<!-- Node1 -->
<g id="node2" class="node"><title>Node1</title>
<g id="a_node2"><a xlink:href="addressbookpage_8h.html" target="_top" xlink:title="addressbookpage.h">
<polygon fill="white" stroke="black" points="44.2599,-280.5 44.2599,-299.5 145.26,-299.5 145.26,-280.5 44.2599,-280.5"/>
<text text-anchor="middle" x="94.7599" y="-287.5" font-family="Helvetica,sans-Serif" font-size="10.00">addressbookpage.h</text>
</a>
</g>
</g>
<!-- Node0&#45;&gt;Node1 -->
<g id="edge1" class="edge"><title>Node0&#45;&gt;Node1</title>
<path fill="none" stroke="midnightblue" d="M765.346,-340.704C646.443,-333.316 398.322,-317.317 188.76,-300 178.002,-299.111 166.56,-298.084 155.497,-297.049"/>
<polygon fill="midnightblue" stroke="midnightblue" points="155.759,-293.558 145.474,-296.099 155.099,-300.527 155.759,-293.558"/>
</g>
<!-- Node3 -->
<g id="node4" class="node"><title>Node3</title>
<polygon fill="white" stroke="#bfbfbf" points="197.76,-280.5 197.76,-299.5 311.76,-299.5 311.76,-280.5 197.76,-280.5"/>
<text text-anchor="middle" x="254.76" y="-287.5" font-family="Helvetica,sans-Serif" font-size="10.00">ui_addressbookpage.h</text>
</g>
<!-- Node0&#45;&gt;Node3 -->
<g id="edge3" class="edge"><title>Node0&#45;&gt;Node3</title>
<path fill="none" stroke="midnightblue" d="M765.682,-339.957C668.524,-332.724 487.158,-318.356 322.308,-300.125"/>
<polygon fill="midnightblue" stroke="midnightblue" points="322.302,-296.603 311.976,-298.975 321.528,-303.56 322.302,-296.603"/>
</g>
<!-- Node4 -->
<g id="node5" class="node"><title>Node4</title>
<g id="a_node5"><a xlink:href="addresstablemodel_8h.html" target="_top" xlink:title="addresstablemodel.h">
<polygon fill="white" stroke="black" points="449.26,-280.5 449.26,-299.5 556.26,-299.5 556.26,-280.5 449.26,-280.5"/>
<text text-anchor="middle" x="502.76" y="-287.5" font-family="Helvetica,sans-Serif" font-size="10.00">addresstablemodel.h</text>
</a>
</g>
</g>
<!-- Node0&#45;&gt;Node4 -->
<g id="edge4" class="edge"><title>Node0&#45;&gt;Node4</title>
<path fill="none" stroke="midnightblue" d="M782.995,-336.444C723.93,-326.865 628.286,-311.356 565.454,-301.167"/>
<polygon fill="midnightblue" stroke="midnightblue" points="565.709,-297.662 555.278,-299.516 564.589,-304.572 565.709,-297.662"/>
</g>
<!-- Node7 -->
<g id="node8" class="node"><title>Node7</title>
<g id="a_node8"><a xlink:href="bitcoingui_8h.html" target="_top" xlink:title="bitcoingui.h">
<polygon fill="white" stroke="black" points="637.76,-280.5 637.76,-299.5 703.76,-299.5 703.76,-280.5 637.76,-280.5"/>
<text text-anchor="middle" x="670.76" y="-287.5" font-family="Helvetica,sans-Serif" font-size="10.00">bitcoingui.h</text>
</a>
</g>
</g>
<!-- Node0&#45;&gt;Node7 -->
<g id="edge7" class="edge"><title>Node0&#45;&gt;Node7</title>
<path fill="none" stroke="midnightblue" d="M809.615,-336.444C781.736,-327.32 737.411,-312.813 706.36,-302.651"/>
<polygon fill="midnightblue" stroke="midnightblue" points="707.375,-299.3 696.782,-299.516 705.198,-305.953 707.375,-299.3"/>
</g>
<!-- Node31 -->
<g id="node31" class="node"><title>Node31</title>
<polygon fill="white" stroke="#bfbfbf" points="342.76,-224.5 342.76,-243.5 390.76,-243.5 390.76,-224.5 342.76,-224.5"/>
<text text-anchor="middle" x="366.76" y="-231.5" font-family="Helvetica,sans-Serif" font-size="10.00">QMenu</text>
</g>
<!-- Node0&#45;&gt;Node31 -->
<g id="edge62" class="edge"><title>Node0&#45;&gt;Node31</title>
<path fill="none" stroke="midnightblue" d="M791.069,-336.478C748.96,-328.167 684.226,-314.665 628.76,-300 599.949,-292.383 593.568,-287.628 564.76,-280 495.178,-261.575 474.35,-261.825 400.63,-244.105"/>
<polygon fill="midnightblue" stroke="midnightblue" points="401.417,-240.695 390.873,-241.73 399.762,-247.496 401.417,-240.695"/>
</g>
<!-- Node35 -->
<g id="node35" class="node"><title>Node35</title>
<g id="a_node35"><a xlink:href="csvmodelwriter_8h.html" target="_top" xlink:title="csvmodelwriter.h">
<polygon fill="white" stroke="black" points="956.26,-280.5 956.26,-299.5 1047.26,-299.5 1047.26,-280.5 956.26,-280.5"/>
<text text-anchor="middle" x="1001.76" y="-287.5" font-family="Helvetica,sans-Serif" font-size="10.00">csvmodelwriter.h</text>
</a>
</g>
</g>
<!-- Node0&#45;&gt;Node35 -->
<g id="edge41" class="edge"><title>Node0&#45;&gt;Node35</title>
<path fill="none" stroke="midnightblue" d="M862.063,-336.444C890.111,-327.32 934.704,-312.813 965.944,-302.651"/>
<polygon fill="midnightblue" stroke="midnightblue" points="967.153,-305.938 975.58,-299.516 964.987,-299.282 967.153,-305.938"/>
</g>
<!-- Node38 -->
<g id="node38" class="node"><title>Node38</title>
<g id="a_node38"><a xlink:href="editaddressdialog_8h.html" target="_top" xlink:title="editaddressdialog.h">
<polygon fill="white" stroke="black" points="330.26,-280.5 330.26,-299.5 431.26,-299.5 431.26,-280.5 330.26,-280.5"/>
<text text-anchor="middle" x="380.76" y="-287.5" font-family="Helvetica,sans-Serif" font-size="10.00">editaddressdialog.h</text>
</a>
</g>
</g>
<!-- Node0&#45;&gt;Node38 -->
<g id="edge44" class="edge"><title>Node0&#45;&gt;Node38</title>
<path fill="none" stroke="midnightblue" d="M765.558,-337.842C688.488,-329.798 560.834,-315.932 441.33,-300.169"/>
<polygon fill="midnightblue" stroke="midnightblue" points="441.646,-296.68 431.272,-298.835 440.725,-303.619 441.646,-296.68"/>
</g>
<!-- Node39 -->
<g id="node39" class="node"><title>Node39</title>
<g id="a_node39"><a xlink:href="guiutil_8h.html" target="_top" xlink:title="guiutil.h">
<polygon fill="white" stroke="black" points="1193.76,-280.5 1193.76,-299.5 1243.76,-299.5 1243.76,-280.5 1193.76,-280.5"/>
<text text-anchor="middle" x="1218.76" y="-287.5" font-family="Helvetica,sans-Serif" font-size="10.00">guiutil.h</text>
</a>
</g>
</g>
<!-- Node0&#45;&gt;Node39 -->
<g id="edge46" class="edge"><title>Node0&#45;&gt;Node39</title>
<path fill="none" stroke="midnightblue" d="M896.447,-336.444C977.369,-325.034 1117.98,-305.209 1183.4,-295.985"/>
<polygon fill="midnightblue" stroke="midnightblue" points="1184.19,-299.408 1193.61,-294.547 1183.22,-292.477 1184.19,-299.408"/>
</g>
<!-- Node42 -->
<g id="node42" class="node"><title>Node42</title>
<polygon fill="white" stroke="#bfbfbf" points="1585.26,-224.5 1585.26,-243.5 1666.26,-243.5 1666.26,-224.5 1585.26,-224.5"/>
<text text-anchor="middle" x="1625.76" y="-231.5" font-family="Helvetica,sans-Serif" font-size="10.00">QMessageBox</text>
</g>
<!-- Node0&#45;&gt;Node42 -->
<g id="edge63" class="edge"><title>Node0&#45;&gt;Node42</title>
<path fill="none" stroke="midnightblue" d="M906.023,-338.805C989.044,-331.165 1131.26,-317.071 1252.76,-300 1393.8,-280.184 1430.65,-269.821 1574.98,-244.136"/>
<polygon fill="midnightblue" stroke="midnightblue" points="1575.87,-247.533 1585.1,-242.34 1574.65,-240.641 1575.87,-247.533"/>
</g>
<!-- Node47 -->
<g id="node47" class="node"><title>Node47</title>
<g id="a_node47"><a xlink:href="platformstyle_8h.html" target="_top" xlink:title="platformstyle.h">
<polygon fill="white" stroke="black" points="1669.26,-280.5 1669.26,-299.5 1750.26,-299.5 1750.26,-280.5 1669.26,-280.5"/>
<text text-anchor="middle" x="1709.76" y="-287.5" font-family="Helvetica,sans-Serif" font-size="10.00">platformstyle.h</text>
</a>
</g>
</g>
<!-- Node0&#45;&gt;Node47 -->
<g id="edge57" class="edge"><title>Node0&#45;&gt;Node47</title>
<path fill="none" stroke="midnightblue" d="M905.806,-340.672C1076.3,-330.138 1509.79,-303.355 1658.65,-294.158"/>
<polygon fill="midnightblue" stroke="midnightblue" points="1659.11,-297.636 1668.87,-293.526 1658.67,-290.65 1659.11,-297.636"/>
</g>
<!-- Node48 -->
<g id="node48" class="node"><title>Node48</title>
<polygon fill="white" stroke="#bfbfbf" points="1828.26,-224.5 1828.26,-243.5 1871.26,-243.5 1871.26,-224.5 1828.26,-224.5"/>
<text text-anchor="middle" x="1849.76" y="-231.5" font-family="Helvetica,sans-Serif" font-size="10.00">QIcon</text>
</g>
<!-- Node0&#45;&gt;Node48 -->
<g id="edge61" class="edge"><title>Node0&#45;&gt;Node48</title>
<path fill="none" stroke="midnightblue" d="M906.027,-343.855C1107.71,-340.248 1679.11,-327.683 1758.76,-300 1788.39,-289.703 1816.86,-266.514 1833.84,-250.806"/>
<polygon fill="midnightblue" stroke="midnightblue" points="1836.38,-253.219 1841.21,-243.786 1831.55,-248.152 1836.38,-253.219"/>
</g>
<!-- Node50 -->
<g id="node50" class="node"><title>Node50</title>
<polygon fill="white" stroke="#bfbfbf" points="1806.76,-280.5 1806.76,-299.5 1922.76,-299.5 1922.76,-280.5 1806.76,-280.5"/>
<text text-anchor="middle" x="1864.76" y="-287.5" font-family="Helvetica,sans-Serif" font-size="10.00">QSortFilterProxyModel</text>
</g>
<!-- Node0&#45;&gt;Node50 -->
<g id="edge64" class="edge"><title>Node0&#45;&gt;Node50</title>
<path fill="none" stroke="midnightblue" d="M905.824,-343.561C1064.15,-339.905 1461.53,-328.447 1792.76,-300 1794.03,-299.891 1795.31,-299.776 1796.61,-299.657"/>
<polygon fill="midnightblue" stroke="midnightblue" points="1797.04,-303.131 1806.64,-298.656 1796.34,-296.166 1797.04,-303.131"/>
</g>
<!-- Node2 -->
<g id="node3" class="node"><title>Node2</title>
<polygon fill="white" stroke="#bfbfbf" points="59.7599,-224.5 59.7599,-243.5 111.76,-243.5 111.76,-224.5 59.7599,-224.5"/>
<text text-anchor="middle" x="85.7599" y="-231.5" font-family="Helvetica,sans-Serif" font-size="10.00">QDialog</text>
</g>
<!-- Node1&#45;&gt;Node2 -->
<g id="edge2" class="edge"><title>Node1&#45;&gt;Node2</title>
<path fill="none" stroke="midnightblue" d="M93.2737,-280.083C92.0811,-272.927 90.3657,-262.635 88.875,-253.691"/>
<polygon fill="midnightblue" stroke="midnightblue" points="92.3148,-253.04 87.2184,-243.751 85.4101,-254.19 92.3148,-253.04"/>
</g>
<!-- Node5 -->
<g id="node6" class="node"><title>Node5</title>
<polygon fill="white" stroke="#bfbfbf" points="130.26,-224.5 130.26,-243.5 241.26,-243.5 241.26,-224.5 130.26,-224.5"/>
<text text-anchor="middle" x="185.76" y="-231.5" font-family="Helvetica,sans-Serif" font-size="10.00">QAbstractTableModel</text>
</g>
<!-- Node4&#45;&gt;Node5 -->
<g id="edge5" class="edge"><title>Node4&#45;&gt;Node5</title>
<path fill="none" stroke="midnightblue" d="M452.53,-280.444C396.419,-270.885 305.63,-255.419 245.812,-245.23"/>
<polygon fill="midnightblue" stroke="midnightblue" points="246.2,-241.745 235.754,-243.516 245.025,-248.646 246.2,-241.745"/>
</g>
<!-- Node6 -->
<g id="node7" class="node"><title>Node6</title>
<polygon fill="white" stroke="#bfbfbf" points="259.26,-224.5 259.26,-243.5 324.26,-243.5 324.26,-224.5 259.26,-224.5"/>
<text text-anchor="middle" x="291.76" y="-231.5" font-family="Helvetica,sans-Serif" font-size="10.00">QStringList</text>
</g>
<!-- Node4&#45;&gt;Node6 -->
<g id="edge6" class="edge"><title>Node4&#45;&gt;Node6</title>
<path fill="none" stroke="midnightblue" d="M469.326,-280.444C432.767,-271.087 374.091,-256.071 334.283,-245.883"/>
<polygon fill="midnightblue" stroke="midnightblue" points="334.899,-242.428 324.344,-243.339 333.164,-249.209 334.899,-242.428"/>
</g>
<!-- Node8 -->
<g id="node9" class="node"><title>Node8</title>
<g id="a_node9"><a xlink:href="amount_8h.html" target="_top" xlink:title="amount.h">
<polygon fill="white" stroke="black" points="841.26,-224.5 841.26,-243.5 898.26,-243.5 898.26,-224.5 841.26,-224.5"/>
<text text-anchor="middle" x="869.76" y="-231.5" font-family="Helvetica,sans-Serif" font-size="10.00">amount.h</text>
</a>
</g>
</g>
<!-- Node7&#45;&gt;Node8 -->
<g id="edge8" class="edge"><title>Node7&#45;&gt;Node8</title>
<path fill="none" stroke="midnightblue" d="M702.292,-280.444C737.153,-270.984 793.338,-255.738 830.894,-245.546"/>
<polygon fill="midnightblue" stroke="midnightblue" points="832.225,-248.812 840.96,-242.815 830.392,-242.056 832.225,-248.812"/>
</g>
<!-- Node28 -->
<g id="node28" class="node"><title>Node28</title>
<polygon fill="white" stroke="#bfbfbf" points="916.26,-224.5 916.26,-243.5 963.26,-243.5 963.26,-224.5 916.26,-224.5"/>
<text text-anchor="middle" x="939.76" y="-231.5" font-family="Helvetica,sans-Serif" font-size="10.00">QLabel</text>
</g>
<!-- Node7&#45;&gt;Node28 -->
<g id="edge34" class="edge"><title>Node7&#45;&gt;Node28</title>
<path fill="none" stroke="midnightblue" d="M703.763,-283.542C747.671,-276.1 827.903,-261.869 906.015,-244.021"/>
<polygon fill="midnightblue" stroke="midnightblue" points="907.066,-247.37 916.023,-241.711 905.492,-240.549 907.066,-247.37"/>
</g>
<!-- Node29 -->
<g id="node29" class="node"><title>Node29</title>
<polygon fill="white" stroke="#bfbfbf" points="408.76,-224.5 408.76,-243.5 488.76,-243.5 488.76,-224.5 408.76,-224.5"/>
<text text-anchor="middle" x="448.76" y="-231.5" font-family="Helvetica,sans-Serif" font-size="10.00">QMainWindow</text>
</g>
<!-- Node7&#45;&gt;Node29 -->
<g id="edge35" class="edge"><title>Node7&#45;&gt;Node29</title>
<path fill="none" stroke="midnightblue" d="M637.524,-280.916C599.339,-271.627 536.479,-256.337 493.889,-245.977"/>
<polygon fill="midnightblue" stroke="midnightblue" points="494.604,-242.549 484.06,-243.587 492.949,-249.351 494.604,-242.549"/>
</g>
<!-- Node30 -->
<g id="node30" class="node"><title>Node30</title>
<polygon fill="white" stroke="#bfbfbf" points="507.26,-224.5 507.26,-243.5 550.26,-243.5 550.26,-224.5 507.26,-224.5"/>
<text text-anchor="middle" x="528.76" y="-231.5" font-family="Helvetica,sans-Serif" font-size="10.00">QMap</text>
</g>
<!-- Node7&#45;&gt;Node30 -->
<g id="edge36" class="edge"><title>Node7&#45;&gt;Node30</title>
<path fill="none" stroke="midnightblue" d="M648.26,-280.444C624.544,-271.425 586.999,-257.147 560.327,-247.004"/>
<polygon fill="midnightblue" stroke="midnightblue" points="561.279,-243.622 550.688,-243.339 558.791,-250.165 561.279,-243.622"/>
</g>
<!-- Node7&#45;&gt;Node31 -->
<g id="edge37" class="edge"><title>Node7&#45;&gt;Node31</title>
<path fill="none" stroke="midnightblue" d="M637.567,-283.533C574.411,-273.127 440.282,-250.998 400.868,-243.815"/>
<polygon fill="midnightblue" stroke="midnightblue" points="401.324,-240.338 390.84,-241.871 399.992,-247.21 401.324,-240.338"/>
</g>
<!-- Node32 -->
<g id="node32" class="node"><title>Node32</title>
<polygon fill="white" stroke="#bfbfbf" points="568.26,-224.5 568.26,-243.5 615.26,-243.5 615.26,-224.5 568.26,-224.5"/>
<text text-anchor="middle" x="591.76" y="-231.5" font-family="Helvetica,sans-Serif" font-size="10.00">QPoint</text>
</g>
<!-- Node7&#45;&gt;Node32 -->
<g id="edge38" class="edge"><title>Node7&#45;&gt;Node32</title>
<path fill="none" stroke="midnightblue" d="M658.067,-280.324C645.859,-271.979 627.181,-259.212 612.757,-249.352"/>
<polygon fill="midnightblue" stroke="midnightblue" points="614.652,-246.408 604.421,-243.655 610.702,-252.187 614.652,-246.408"/>
</g>
<!-- Node33 -->
<g id="node33" class="node"><title>Node33</title>
<polygon fill="white" stroke="#bfbfbf" points="633.26,-224.5 633.26,-243.5 708.26,-243.5 708.26,-224.5 633.26,-224.5"/>
<text text-anchor="middle" x="670.76" y="-231.5" font-family="Helvetica,sans-Serif" font-size="10.00">QPushButton</text>
</g>
<!-- Node7&#45;&gt;Node33 -->
<g id="edge39" class="edge"><title>Node7&#45;&gt;Node33</title>
<path fill="none" stroke="midnightblue" d="M670.76,-280.083C670.76,-273.006 670.76,-262.861 670.76,-253.986"/>
<polygon fill="midnightblue" stroke="midnightblue" points="674.26,-253.751 670.76,-243.751 667.26,-253.751 674.26,-253.751"/>
</g>
<!-- Node34 -->
<g id="node34" class="node"><title>Node34</title>
<polygon fill="white" stroke="#bfbfbf" points="726.76,-224.5 726.76,-243.5 822.76,-243.5 822.76,-224.5 726.76,-224.5"/>
<text text-anchor="middle" x="774.76" y="-231.5" font-family="Helvetica,sans-Serif" font-size="10.00">QSystemTrayIcon</text>
</g>
<!-- Node7&#45;&gt;Node34 -->
<g id="edge40" class="edge"><title>Node7&#45;&gt;Node34</title>
<path fill="none" stroke="midnightblue" d="M687.469,-280.324C704.072,-271.703 729.762,-258.364 748.98,-248.386"/>
<polygon fill="midnightblue" stroke="midnightblue" points="750.83,-251.369 758.092,-243.655 747.604,-245.156 750.83,-251.369"/>
</g>
<!-- Node9 -->
<g id="node10" class="node"><title>Node9</title>
<g id="a_node10"><a xlink:href="serialize_8h.html" target="_top" xlink:title="serialize.h">
<polygon fill="white" stroke="black" points="454.26,-168.5 454.26,-187.5 515.26,-187.5 515.26,-168.5 454.26,-168.5"/>
<text text-anchor="middle" x="484.76" y="-175.5" font-family="Helvetica,sans-Serif" font-size="10.00">serialize.h</text>
</a>
</g>
</g>
<!-- Node8&#45;&gt;Node9 -->
<g id="edge9" class="edge"><title>Node8&#45;&gt;Node9</title>
<path fill="none" stroke="midnightblue" d="M841.193,-225.899C838.02,-225.21 834.828,-224.561 831.76,-224 721.943,-203.93 590.978,-189.486 525.817,-182.933"/>
<polygon fill="midnightblue" stroke="midnightblue" points="525.859,-179.419 515.561,-181.912 525.166,-186.385 525.859,-179.419"/>
</g>
<!-- Node21 -->
<g id="node22" class="node"><title>Node21</title>
<polygon fill="white" stroke="#bfbfbf" points="849.26,-112.5 849.26,-131.5 890.26,-131.5 890.26,-112.5 849.26,-112.5"/>
<text text-anchor="middle" x="869.76" y="-119.5" font-family="Helvetica,sans-Serif" font-size="10.00">string</text>
</g>
<!-- Node8&#45;&gt;Node21 -->
<g id="edge33" class="edge"><title>Node8&#45;&gt;Node21</title>
<path fill="none" stroke="midnightblue" d="M869.76,-224.368C869.76,-206.617 869.76,-165.666 869.76,-141.597"/>
<polygon fill="midnightblue" stroke="midnightblue" points="873.26,-141.591 869.76,-131.591 866.26,-141.591 873.26,-141.591"/>
</g>
<!-- Node26 -->
<g id="node27" class="node"><title>Node26</title>
<polygon fill="white" stroke="#bfbfbf" points="819.76,-56.5 819.76,-75.5 867.76,-75.5 867.76,-56.5 819.76,-56.5"/>
<text text-anchor="middle" x="843.76" y="-63.5" font-family="Helvetica,sans-Serif" font-size="10.00">stdlib.h</text>
</g>
<!-- Node8&#45;&gt;Node26 -->
<g id="edge32" class="edge"><title>Node8&#45;&gt;Node26</title>
<path fill="none" stroke="midnightblue" d="M875.581,-224.383C888.587,-203.972 917.446,-151.432 898.76,-112 892.632,-99.0681 880.766,-88.6167 869.619,-81.0528"/>
<polygon fill="midnightblue" stroke="midnightblue" points="871.288,-77.9678 860.958,-75.6136 867.565,-83.8958 871.288,-77.9678"/>
</g>
<!-- Node10 -->
<g id="node11" class="node"><title>Node10</title>
<g id="a_node11"><a xlink:href="endian_8h.html" target="_top" xlink:title="compat/endian.h">
<polygon fill="white" stroke="black" points="19.2599,-112.5 19.2599,-131.5 108.26,-131.5 108.26,-112.5 19.2599,-112.5"/>
<text text-anchor="middle" x="63.7599" y="-119.5" font-family="Helvetica,sans-Serif" font-size="10.00">compat/endian.h</text>
</a>
</g>
</g>
<!-- Node9&#45;&gt;Node10 -->
<g id="edge10" class="edge"><title>Node9&#45;&gt;Node10</title>
<path fill="none" stroke="midnightblue" d="M453.792,-173.211C391.972,-165.619 248.88,-147.907 128.76,-132 125.485,-131.566 122.117,-131.115 118.721,-130.657"/>
<polygon fill="midnightblue" stroke="midnightblue" points="118.887,-127.147 108.507,-129.267 117.944,-134.083 118.887,-127.147"/>
</g>
<!-- Node11 -->
<g id="node12" class="node"><title>Node11</title>
<polygon fill="white" stroke="#bfbfbf" points="78.2599,-0.5 78.2599,-19.5 127.26,-19.5 127.26,-0.5 78.2599,-0.5"/>
<text text-anchor="middle" x="102.76" y="-7.5" font-family="Helvetica,sans-Serif" font-size="10.00">stdint.h</text>
</g>
<!-- Node9&#45;&gt;Node11 -->
<g id="edge22" class="edge"><title>Node9&#45;&gt;Node11</title>
<path fill="none" stroke="midnightblue" d="M454.15,-176.329C382.823,-174.209 208.098,-165.628 161.76,-132 157.216,-128.702 126.238,-62.1524 111.08,-29.1859"/>
<polygon fill="midnightblue" stroke="midnightblue" points="114.119,-27.4154 106.768,-19.7853 107.756,-30.334 114.119,-27.4154"/>
</g>
<!-- Node13 -->
<g id="node14" class="node"><title>Node13</title>
<polygon fill="white" stroke="#bfbfbf" points="170.76,-112.5 170.76,-131.5 226.76,-131.5 226.76,-112.5 170.76,-112.5"/>
<text text-anchor="middle" x="198.76" y="-119.5" font-family="Helvetica,sans-Serif" font-size="10.00">algorithm</text>
</g>
<!-- Node9&#45;&gt;Node13 -->
<g id="edge14" class="edge"><title>Node9&#45;&gt;Node13</title>
<path fill="none" stroke="midnightblue" d="M453.891,-171.6C407.536,-163.425 317.223,-147.24 240.76,-132 239.526,-131.754 238.272,-131.501 237.006,-131.244"/>
<polygon fill="midnightblue" stroke="midnightblue" points="237.706,-127.815 227.203,-129.211 236.284,-134.669 237.706,-127.815"/>
</g>
<!-- Node14 -->
<g id="node15" class="node"><title>Node14</title>
<polygon fill="white" stroke="#bfbfbf" points="416.76,-56.5 416.76,-75.5 468.76,-75.5 468.76,-56.5 416.76,-56.5"/>
<text text-anchor="middle" x="442.76" y="-63.5" font-family="Helvetica,sans-Serif" font-size="10.00">assert.h</text>
</g>
<!-- Node9&#45;&gt;Node14 -->
<g id="edge15" class="edge"><title>Node9&#45;&gt;Node14</title>
<path fill="none" stroke="midnightblue" d="M453.963,-175.053C400.975,-170.99 296.085,-159.588 273.76,-132 236.451,-85.8946 345.931,-72.4426 406.098,-68.5559"/>
<polygon fill="midnightblue" stroke="midnightblue" points="406.582,-72.0336 416.36,-67.9542 406.172,-65.0456 406.582,-72.0336"/>
</g>
<!-- Node15 -->
<g id="node16" class="node"><title>Node15</title>
<polygon fill="white" stroke="#bfbfbf" points="283.26,-112.5 283.26,-131.5 312.26,-131.5 312.26,-112.5 283.26,-112.5"/>
<text text-anchor="middle" x="297.76" y="-119.5" font-family="Helvetica,sans-Serif" font-size="10.00">ios</text>
</g>
<!-- Node9&#45;&gt;Node15 -->
<g id="edge16" class="edge"><title>Node9&#45;&gt;Node15</title>
<path fill="none" stroke="midnightblue" d="M454.176,-169.428C423.168,-161.561 373.647,-148.477 322.062,-131.872"/>
<polygon fill="midnightblue" stroke="midnightblue" points="323.002,-128.497 312.41,-128.731 320.836,-135.154 323.002,-128.497"/>
</g>
<!-- Node16 -->
<g id="node17" class="node"><title>Node16</title>
<polygon fill="white" stroke="#bfbfbf" points="330.76,-112.5 330.76,-131.5 370.76,-131.5 370.76,-112.5 330.76,-112.5"/>
<text text-anchor="middle" x="350.76" y="-119.5" font-family="Helvetica,sans-Serif" font-size="10.00">limits</text>
</g>
<!-- Node9&#45;&gt;Node16 -->
<g id="edge17" class="edge"><title>Node9&#45;&gt;Node16</title>
<path fill="none" stroke="midnightblue" d="M463.527,-168.444C441.116,-159.412 405.617,-145.107 380.441,-134.961"/>
<polygon fill="midnightblue" stroke="midnightblue" points="381.599,-131.654 371.016,-131.163 378.983,-138.147 381.599,-131.654"/>
</g>
<!-- Node17 -->
<g id="node18" class="node"><title>Node17</title>
<polygon fill="white" stroke="#bfbfbf" points="389.26,-112.5 389.26,-131.5 418.26,-131.5 418.26,-112.5 389.26,-112.5"/>
<text text-anchor="middle" x="403.76" y="-119.5" font-family="Helvetica,sans-Serif" font-size="10.00">list</text>
</g>
<!-- Node9&#45;&gt;Node17 -->
<g id="edge18" class="edge"><title>Node9&#45;&gt;Node17</title>
<path fill="none" stroke="midnightblue" d="M471.746,-168.324C459.228,-159.979 440.078,-147.212 425.288,-137.352"/>
<polygon fill="midnightblue" stroke="midnightblue" points="427.004,-134.289 416.742,-131.655 423.121,-140.114 427.004,-134.289"/>
</g>
<!-- Node18 -->
<g id="node19" class="node"><title>Node18</title>
<polygon fill="white" stroke="#bfbfbf" points="436.26,-112.5 436.26,-131.5 471.26,-131.5 471.26,-112.5 436.26,-112.5"/>
<text text-anchor="middle" x="453.76" y="-119.5" font-family="Helvetica,sans-Serif" font-size="10.00">map</text>
</g>
<!-- Node9&#45;&gt;Node18 -->
<g id="edge19" class="edge"><title>Node9&#45;&gt;Node18</title>
<path fill="none" stroke="midnightblue" d="M479.641,-168.083C475.352,-160.613 469.102,-149.724 463.818,-140.52"/>
<polygon fill="midnightblue" stroke="midnightblue" points="466.798,-138.681 458.784,-131.751 460.727,-142.166 466.798,-138.681"/>
</g>
<!-- Node19 -->
<g id="node20" class="node"><title>Node19</title>
<polygon fill="white" stroke="#bfbfbf" points="489.76,-112.5 489.76,-131.5 541.76,-131.5 541.76,-112.5 489.76,-112.5"/>
<text text-anchor="middle" x="515.76" y="-119.5" font-family="Helvetica,sans-Serif" font-size="10.00">memory</text>
</g>
<!-- Node9&#45;&gt;Node19 -->
<g id="edge20" class="edge"><title>Node9&#45;&gt;Node19</title>
<path fill="none" stroke="midnightblue" d="M489.879,-168.083C494.167,-160.613 500.418,-149.724 505.702,-140.52"/>
<polygon fill="midnightblue" stroke="midnightblue" points="508.793,-142.166 510.736,-131.751 502.722,-138.681 508.793,-142.166"/>
</g>
<!-- Node20 -->
<g id="node21" class="node"><title>Node20</title>
<polygon fill="white" stroke="#bfbfbf" points="559.76,-112.5 559.76,-131.5 589.76,-131.5 589.76,-112.5 559.76,-112.5"/>
<text text-anchor="middle" x="574.76" y="-119.5" font-family="Helvetica,sans-Serif" font-size="10.00">set</text>
</g>
<!-- Node9&#45;&gt;Node20 -->
<g id="edge21" class="edge"><title>Node9&#45;&gt;Node20</title>
<path fill="none" stroke="midnightblue" d="M499.22,-168.324C513.259,-159.9 534.808,-146.971 551.303,-137.074"/>
<polygon fill="midnightblue" stroke="midnightblue" points="553.561,-139.801 560.336,-131.655 549.96,-133.798 553.561,-139.801"/>
</g>
<!-- Node9&#45;&gt;Node21 -->
<g id="edge23" class="edge"><title>Node9&#45;&gt;Node21</title>
<path fill="none" stroke="midnightblue" d="M515.436,-174.829C575.673,-170.201 713.713,-157.786 839.065,-131.792"/>
<polygon fill="midnightblue" stroke="midnightblue" points="840.157,-135.139 849.219,-129.65 838.712,-128.29 840.157,-135.139"/>
</g>
<!-- Node22 -->
<g id="node23" class="node"><title>Node22</title>
<polygon fill="white" stroke="#bfbfbf" points="634.26,-56.5 634.26,-75.5 683.26,-75.5 683.26,-56.5 634.26,-56.5"/>
<text text-anchor="middle" x="658.76" y="-63.5" font-family="Helvetica,sans-Serif" font-size="10.00">string.h</text>
</g>
<!-- Node9&#45;&gt;Node22 -->
<g id="edge24" class="edge"><title>Node9&#45;&gt;Node22</title>
<path fill="none" stroke="midnightblue" d="M515.308,-168.83C539.11,-161.554 572.281,-149.358 597.76,-132 617.248,-118.723 635.148,-98.223 646.446,-83.8024"/>
<polygon fill="midnightblue" stroke="midnightblue" points="649.318,-85.8074 652.583,-75.728 643.745,-81.5717 649.318,-85.8074"/>
</g>
<!-- Node23 -->
<g id="node24" class="node"><title>Node23</title>
<polygon fill="white" stroke="#bfbfbf" points="645.76,-112.5 645.76,-131.5 685.76,-131.5 685.76,-112.5 645.76,-112.5"/>
<text text-anchor="middle" x="665.76" y="-119.5" font-family="Helvetica,sans-Serif" font-size="10.00">utility</text>
</g>
<!-- Node9&#45;&gt;Node23 -->
<g id="edge25" class="edge"><title>Node9&#45;&gt;Node23</title>
<path fill="none" stroke="midnightblue" d="M513.44,-168.444C546.864,-158.472 601.84,-142.07 635.802,-131.938"/>
<polygon fill="midnightblue" stroke="midnightblue" points="637.039,-135.221 645.621,-129.008 635.037,-128.513 637.039,-135.221"/>
</g>
<!-- Node24 -->
<g id="node25" class="node"><title>Node24</title>
<polygon fill="white" stroke="#bfbfbf" points="703.76,-112.5 703.76,-131.5 747.76,-131.5 747.76,-112.5 703.76,-112.5"/>
<text text-anchor="middle" x="725.76" y="-119.5" font-family="Helvetica,sans-Serif" font-size="10.00">vector</text>
</g>
<!-- Node9&#45;&gt;Node24 -->
<g id="edge26" class="edge"><title>Node9&#45;&gt;Node24</title>
<path fill="none" stroke="midnightblue" d="M515.524,-171.124C554.742,-163.477 624.826,-149.291 693.747,-132.122"/>
<polygon fill="midnightblue" stroke="midnightblue" points="694.616,-135.513 703.461,-129.68 692.909,-128.724 694.616,-135.513"/>
</g>
<!-- Node25 -->
<g id="node26" class="node"><title>Node25</title>
<g id="a_node26"><a xlink:href="prevector_8h.html" target="_top" xlink:title="prevector.h">
<polygon fill="white" stroke="red" points="766.26,-112.5 766.26,-131.5 831.26,-131.5 831.26,-112.5 766.26,-112.5"/>
<text text-anchor="middle" x="798.76" y="-119.5" font-family="Helvetica,sans-Serif" font-size="10.00">prevector.h</text>
</a>
</g>
</g>
<!-- Node9&#45;&gt;Node25 -->
<g id="edge27" class="edge"><title>Node9&#45;&gt;Node25</title>
<path fill="none" stroke="midnightblue" d="M515.314,-172.353C565.577,-164.612 668.806,-148.312 755.76,-132 755.863,-131.981 755.966,-131.961 756.069,-131.942"/>
<polygon fill="midnightblue" stroke="midnightblue" points="756.775,-135.37 765.92,-130.021 755.435,-128.5 756.775,-135.37"/>
</g>
<!-- Node10&#45;&gt;Node11 -->
<g id="edge11" class="edge"><title>Node10&#45;&gt;Node11</title>
<path fill="none" stroke="midnightblue" d="M45.1708,-112.382C22.5904,-100.674 -10.7902,-78.5963 3.75986,-56 17.8532,-34.113 45.4845,-22.7486 67.9821,-16.9211"/>
<polygon fill="midnightblue" stroke="midnightblue" points="68.9441,-20.2908 77.8905,-14.6153 67.3574,-13.473 68.9441,-20.2908"/>
</g>
<!-- Node12 -->
<g id="node13" class="node"><title>Node12</title>
<g id="a_node13"><a xlink:href="byteswap_8h.html" target="_top" xlink:title="compat/byteswap.h">
<polygon fill="white" stroke="black" points="12.7599,-56.5 12.7599,-75.5 114.76,-75.5 114.76,-56.5 12.7599,-56.5"/>
<text text-anchor="middle" x="63.7599" y="-63.5" font-family="Helvetica,sans-Serif" font-size="10.00">compat/byteswap.h</text>
</a>
</g>
</g>
<!-- Node10&#45;&gt;Node12 -->
<g id="edge12" class="edge"><title>Node10&#45;&gt;Node12</title>
<path fill="none" stroke="midnightblue" d="M63.7599,-112.083C63.7599,-105.006 63.7599,-94.8611 63.7599,-85.9865"/>
<polygon fill="midnightblue" stroke="midnightblue" points="67.26,-85.751 63.7599,-75.7511 60.26,-85.7511 67.26,-85.751"/>
</g>
<!-- Node12&#45;&gt;Node11 -->
<g id="edge13" class="edge"><title>Node12&#45;&gt;Node11</title>
<path fill="none" stroke="midnightblue" d="M70.1999,-56.083C75.7087,-48.4554 83.7911,-37.2645 90.5248,-27.9408"/>
<polygon fill="midnightblue" stroke="midnightblue" points="93.4221,-29.9071 96.4396,-19.7511 87.7473,-25.8087 93.4221,-29.9071"/>
</g>
<!-- Node25&#45;&gt;Node11 -->
<g id="edge30" class="edge"><title>Node25&#45;&gt;Node11</title>
<path fill="none" stroke="midnightblue" d="M788.356,-112.325C770.132,-97.6994 730.661,-68.5073 691.76,-56 587.589,-22.5075 247.825,-13.5839 137.617,-11.5413"/>
<polygon fill="midnightblue" stroke="midnightblue" points="137.449,-8.03789 127.388,-11.3595 137.324,-15.0368 137.449,-8.03789"/>
</g>
<!-- Node25&#45;&gt;Node14 -->
<g id="edge28" class="edge"><title>Node25&#45;&gt;Node14</title>
<path fill="none" stroke="midnightblue" d="M765.933,-113.905C762.504,-113.231 759.065,-112.583 755.76,-112 656.002,-94.4074 537.444,-78.7975 479.011,-71.4515"/>
<polygon fill="midnightblue" stroke="midnightblue" points="479.175,-67.9449 468.818,-70.1774 478.307,-74.8908 479.175,-67.9449"/>
</g>
<!-- Node25&#45;&gt;Node22 -->
<g id="edge31" class="edge"><title>Node25&#45;&gt;Node22</title>
<path fill="none" stroke="midnightblue" d="M776.576,-112.444C753.331,-103.478 716.611,-89.314 690.345,-79.1827"/>
<polygon fill="midnightblue" stroke="midnightblue" points="691.429,-75.8497 680.839,-75.5164 688.91,-82.3807 691.429,-75.8497"/>
</g>
<!-- Node25&#45;&gt;Node26 -->
<g id="edge29" class="edge"><title>Node25&#45;&gt;Node26</title>
<path fill="none" stroke="midnightblue" d="M806.191,-112.083C812.613,-104.377 822.065,-93.0333 829.882,-83.6531"/>
<polygon fill="midnightblue" stroke="midnightblue" points="832.754,-85.674 836.467,-75.7511 827.377,-81.1927 832.754,-85.674"/>
</g>
<!-- Node36 -->
<g id="node36" class="node"><title>Node36</title>
<polygon fill="white" stroke="#bfbfbf" points="981.76,-224.5 981.76,-243.5 1021.76,-243.5 1021.76,-224.5 981.76,-224.5"/>
<text text-anchor="middle" x="1001.76" y="-231.5" font-family="Helvetica,sans-Serif" font-size="10.00">QList</text>
</g>
<!-- Node35&#45;&gt;Node36 -->
<g id="edge42" class="edge"><title>Node35&#45;&gt;Node36</title>
<path fill="none" stroke="midnightblue" d="M1001.76,-280.083C1001.76,-273.006 1001.76,-262.861 1001.76,-253.986"/>
<polygon fill="midnightblue" stroke="midnightblue" points="1005.26,-253.751 1001.76,-243.751 998.26,-253.751 1005.26,-253.751"/>
</g>
<!-- Node37 -->
<g id="node37" class="node"><title>Node37</title>
<polygon fill="white" stroke="#bfbfbf" points="1040.26,-224.5 1040.26,-243.5 1093.26,-243.5 1093.26,-224.5 1040.26,-224.5"/>
<text text-anchor="middle" x="1066.76" y="-231.5" font-family="Helvetica,sans-Serif" font-size="10.00">QObject</text>
</g>
<!-- Node35&#45;&gt;Node37 -->
<g id="edge43" class="edge"><title>Node35&#45;&gt;Node37</title>
<path fill="none" stroke="midnightblue" d="M1012.2,-280.324C1021.91,-272.263 1036.58,-260.077 1048.26,-250.369"/>
<polygon fill="midnightblue" stroke="midnightblue" points="1050.67,-252.916 1056.13,-243.834 1046.2,-247.532 1050.67,-252.916"/>
</g>
<!-- Node38&#45;&gt;Node2 -->
<g id="edge45" class="edge"><title>Node38&#45;&gt;Node2</title>
<path fill="none" stroke="midnightblue" d="M330.09,-280.728C270.263,-270.879 173.316,-254.647 122.007,-244.104"/>
<polygon fill="midnightblue" stroke="midnightblue" points="122.587,-240.649 112.079,-242.009 121.142,-247.498 122.587,-240.649"/>
</g>
<!-- Node39&#45;&gt;Node8 -->
<g id="edge47" class="edge"><title>Node39&#45;&gt;Node8</title>
<path fill="none" stroke="midnightblue" d="M1193.55,-286.191C1141.87,-280.258 1020.03,-265.366 908.456,-244.183"/>
<polygon fill="midnightblue" stroke="midnightblue" points="908.865,-240.698 898.384,-242.248 907.544,-247.572 908.865,-240.698"/>
</g>
<!-- Node39&#45;&gt;Node28 -->
<g id="edge55" class="edge"><title>Node39&#45;&gt;Node28</title>
<path fill="none" stroke="midnightblue" d="M1193.47,-285.105C1150.39,-278.313 1059.83,-263.36 973.456,-243.991"/>
<polygon fill="midnightblue" stroke="midnightblue" points="974.018,-240.53 963.492,-241.732 972.471,-247.357 974.018,-240.53"/>
</g>
<!-- Node39&#45;&gt;Node37 -->
<g id="edge51" class="edge"><title>Node39&#45;&gt;Node37</title>
<path fill="none" stroke="midnightblue" d="M1194.68,-280.444C1169.22,-271.399 1128.87,-257.064 1100.3,-246.916"/>
<polygon fill="midnightblue" stroke="midnightblue" points="1101.33,-243.566 1090.73,-243.516 1098.98,-250.162 1101.33,-243.566"/>
</g>
<!-- Node40 -->
<g id="node40" class="node"><title>Node40</title>
<polygon fill="white" stroke="#bfbfbf" points="1111.76,-224.5 1111.76,-243.5 1161.76,-243.5 1161.76,-224.5 1111.76,-224.5"/>
<text text-anchor="middle" x="1136.76" y="-231.5" font-family="Helvetica,sans-Serif" font-size="10.00">QEvent</text>
</g>
<!-- Node39&#45;&gt;Node40 -->
<g id="edge48" class="edge"><title>Node39&#45;&gt;Node40</title>
<path fill="none" stroke="midnightblue" d="M1205.59,-280.324C1192.91,-271.979 1173.53,-259.212 1158.55,-249.352"/>
<polygon fill="midnightblue" stroke="midnightblue" points="1160.18,-246.231 1149.9,-243.655 1156.33,-252.078 1160.18,-246.231"/>
</g>
<!-- Node41 -->
<g id="node41" class="node"><title>Node41</title>
<polygon fill="white" stroke="#bfbfbf" points="1180.26,-224.5 1180.26,-243.5 1257.26,-243.5 1257.26,-224.5 1180.26,-224.5"/>
<text text-anchor="middle" x="1218.76" y="-231.5" font-family="Helvetica,sans-Serif" font-size="10.00">QHeaderView</text>
</g>
<!-- Node39&#45;&gt;Node41 -->
<g id="edge49" class="edge"><title>Node39&#45;&gt;Node41</title>
<path fill="none" stroke="midnightblue" d="M1218.76,-280.083C1218.76,-273.006 1218.76,-262.861 1218.76,-253.986"/>
<polygon fill="midnightblue" stroke="midnightblue" points="1222.26,-253.751 1218.76,-243.751 1215.26,-253.751 1222.26,-253.751"/>
</g>
<!-- Node39&#45;&gt;Node42 -->
<g id="edge50" class="edge"><title>Node39&#45;&gt;Node42</title>
<path fill="none" stroke="midnightblue" d="M1243.93,-286.289C1300.86,-280.059 1444.12,-263.832 1574.93,-244.051"/>
<polygon fill="midnightblue" stroke="midnightblue" points="1575.77,-247.464 1585.13,-242.498 1574.72,-240.544 1575.77,-247.464"/>
</g>
<!-- Node43 -->
<g id="node43" class="node"><title>Node43</title>
<polygon fill="white" stroke="#bfbfbf" points="1275.76,-224.5 1275.76,-243.5 1353.76,-243.5 1353.76,-224.5 1275.76,-224.5"/>
<text text-anchor="middle" x="1314.76" y="-231.5" font-family="Helvetica,sans-Serif" font-size="10.00">QProgressBar</text>
</g>
<!-- Node39&#45;&gt;Node43 -->
<g id="edge52" class="edge"><title>Node39&#45;&gt;Node43</title>
<path fill="none" stroke="midnightblue" d="M1234.18,-280.324C1249.3,-271.822 1272.58,-258.729 1290.23,-248.797"/>
<polygon fill="midnightblue" stroke="midnightblue" points="1292.37,-251.608 1299.37,-243.655 1288.94,-245.507 1292.37,-251.608"/>
</g>
<!-- Node44 -->
<g id="node44" class="node"><title>Node44</title>
<polygon fill="white" stroke="#bfbfbf" points="1684.76,-224.5 1684.76,-243.5 1734.76,-243.5 1734.76,-224.5 1684.76,-224.5"/>
<text text-anchor="middle" x="1709.76" y="-231.5" font-family="Helvetica,sans-Serif" font-size="10.00">QString</text>
</g>
<!-- Node39&#45;&gt;Node44 -->
<g id="edge53" class="edge"><title>Node39&#45;&gt;Node44</title>
<path fill="none" stroke="midnightblue" d="M1243.91,-287.874C1313.11,-284.484 1512.02,-272.779 1674.76,-244 1674.86,-243.982 1674.96,-243.964 1675.06,-243.946"/>
<polygon fill="midnightblue" stroke="midnightblue" points="1675.55,-247.42 1684.63,-241.955 1674.12,-240.567 1675.55,-247.42"/>
</g>
<!-- Node45 -->
<g id="node45" class="node"><title>Node45</title>
<polygon fill="white" stroke="#bfbfbf" points="1371.76,-224.5 1371.76,-243.5 1441.76,-243.5 1441.76,-224.5 1371.76,-224.5"/>
<text text-anchor="middle" x="1406.76" y="-231.5" font-family="Helvetica,sans-Serif" font-size="10.00">QTableView</text>
</g>
<!-- Node39&#45;&gt;Node45 -->
<g id="edge54" class="edge"><title>Node39&#45;&gt;Node45</title>
<path fill="none" stroke="midnightblue" d="M1244.11,-281.717C1275.63,-272.665 1329.78,-257.111 1366.88,-246.456"/>
<polygon fill="midnightblue" stroke="midnightblue" points="1368.21,-249.715 1376.85,-243.59 1366.28,-242.987 1368.21,-249.715"/>
</g>
<!-- Node46 -->
<g id="node46" class="node"><title>Node46</title>
<polygon fill="white" stroke="#bfbfbf" points="1460.26,-224.5 1460.26,-243.5 1567.26,-243.5 1567.26,-224.5 1460.26,-224.5"/>
<text text-anchor="middle" x="1513.76" y="-231.5" font-family="Helvetica,sans-Serif" font-size="10.00">boost/filesystem.hpp</text>
</g>
<!-- Node39&#45;&gt;Node46 -->
<g id="edge56" class="edge"><title>Node39&#45;&gt;Node46</title>
<path fill="none" stroke="midnightblue" d="M1243.91,-284.396C1290.86,-275.801 1392.9,-257.123 1457.18,-245.358"/>
<polygon fill="midnightblue" stroke="midnightblue" points="1457.95,-248.775 1467.15,-243.531 1456.69,-241.889 1457.95,-248.775"/>
</g>
<!-- Node47&#45;&gt;Node44 -->
<g id="edge60" class="edge"><title>Node47&#45;&gt;Node44</title>
<path fill="none" stroke="midnightblue" d="M1709.76,-280.083C1709.76,-273.006 1709.76,-262.861 1709.76,-253.986"/>
<polygon fill="midnightblue" stroke="midnightblue" points="1713.26,-253.751 1709.76,-243.751 1706.26,-253.751 1713.26,-253.751"/>
</g>
<!-- Node47&#45;&gt;Node48 -->
<g id="edge58" class="edge"><title>Node47&#45;&gt;Node48</title>
<path fill="none" stroke="midnightblue" d="M1731.94,-280.444C1755.33,-271.425 1792.34,-257.147 1818.64,-247.004"/>
<polygon fill="midnightblue" stroke="midnightblue" points="1820.07,-250.203 1828.14,-243.339 1817.55,-243.672 1820.07,-250.203"/>
</g>
<!-- Node49 -->
<g id="node49" class="node"><title>Node49</title>
<polygon fill="white" stroke="#bfbfbf" points="1753.26,-224.5 1753.26,-243.5 1810.26,-243.5 1810.26,-224.5 1753.26,-224.5"/>
<text text-anchor="middle" x="1781.76" y="-231.5" font-family="Helvetica,sans-Serif" font-size="10.00">QPixmap</text>
</g>
<!-- Node47&#45;&gt;Node49 -->
<g id="edge59" class="edge"><title>Node47&#45;&gt;Node49</title>
<path fill="none" stroke="midnightblue" d="M1721.33,-280.324C1732.18,-272.185 1748.64,-259.839 1761.64,-250.087"/>
<polygon fill="midnightblue" stroke="midnightblue" points="1764.08,-252.634 1769.98,-243.834 1759.88,-247.034 1764.08,-252.634"/>
</g>
</g>
</svg>
        <g id="navigator" transform="translate(0 0)" fill="#404254">
                <rect fill="#f2f5e9" fill-opacity="0.5" stroke="#606060" stroke-width=".5" x="0" y="0" width="60" height="60"/>
                <use id="zoomplus" xlink:href="#zoomPlus" x="17" y="9" onmousedown="handleZoom(evt,'in')"/>
                <use id="zoomminus" xlink:href="#zoomMin" x="42" y="9" onmousedown="handleZoom(evt,'out')"/>
                <use id="reset" xlink:href="#resetDef" x="30" y="36" onmousedown="handleReset()"/>
                <g id="arrowUp" xlink:href="#dirArrow" transform="translate(30 24)" onmousedown="handlePan(0,-1)">
                  <use xlink:href="#rim" fill="#404040">
                        <set attributeName="fill" to="#808080" begin="arrowUp.mouseover" end="arrowUp.mouseout"/>
                  </use>
                  <path fill="none" stroke="white" stroke-width="1.5" d="M0,-3.0v7 M-2.5,-0.5L0,-3.0L2.5,-0.5"/>
                </g>
                <g id="arrowRight" xlink:href="#dirArrow" transform="rotate(90) translate(36 -43)" onmousedown="handlePan(1,0)">
                  <use xlink:href="#rim" fill="#404040">
                        <set attributeName="fill" to="#808080" begin="arrowRight.mouseover" end="arrowRight.mouseout"/>
                  </use>
                  <path fill="none" stroke="white" stroke-width="1.5" d="M0,-3.0v7 M-2.5,-0.5L0,-3.0L2.5,-0.5"/>
                </g>
                <g id="arrowDown" xlink:href="#dirArrow" transform="rotate(180) translate(-30 -48)" onmousedown="handlePan(0,1)">
                  <use xlink:href="#rim" fill="#404040">
                        <set attributeName="fill" to="#808080" begin="arrowDown.mouseover" end="arrowDown.mouseout"/>
                  </use>
                  <path fill="none" stroke="white" stroke-width="1.5" d="M0,-3.0v7 M-2.5,-0.5L0,-3.0L2.5,-0.5"/>
                </g>
                <g id="arrowLeft" xlink:href="#dirArrow" transform="rotate(270) translate(-36 17)" onmousedown="handlePan(-1,0)">
                  <use xlink:href="#rim" fill="#404040">
                        <set attributeName="fill" to="#808080" begin="arrowLeft.mouseover" end="arrowLeft.mouseout"/>
                  </use>
                  <path fill="none" stroke="white" stroke-width="1.5" d="M0,-3.0v7 M-2.5,-0.5L0,-3.0L2.5,-0.5"/>
                </g>
        </g>
        <svg viewBox="0 0 15 15" width="100%" height="30px" preserveAspectRatio="xMaxYMin meet">
         <g id="arrow_out" transform="scale(0.3 0.3)">
          <a xlink:href="addressbookpage_8cpp__incl_org.svg" target="_base">
           <rect id="button" ry="5" rx="5" y="6" x="6" height="38" width="38"
                fill="#f2f5e9" fill-opacity="0.5" stroke="#606060" stroke-width="1.0"/>
           <path id="arrow"
             d="M 11.500037,31.436501 C 11.940474,20.09759 22.043105,11.32322 32.158766,21.979434 L 37.068811,17.246167 C 37.068811,17.246167 37.088388,32 37.088388,32 L 22.160133,31.978069 C 22.160133,31.978069 26.997745,27.140456 26.997745,27.140456 C 18.528582,18.264221 13.291696,25.230495 11.500037,31.436501 z"
             style="fill:#404040;"/>
          </a>
         </g>
        </svg>
</svg>
