<?xml version="1.0" encoding="UTF-8" standalone="no"?>
<!DOCTYPE svg PUBLIC "-//W3C//DTD SVG 1.1//EN"
 "http://www.w3.org/Graphics/SVG/1.1/DTD/svg11.dtd">
<!-- Generated by graphviz version 2.36.0 (20140111.2315)
 -->
<!-- Title: src/addrdb.h Pages: 1 -->
<svg width="1041pt" height="252pt"
 viewBox="0.00 0.00 1041.00 252.00" xmlns="http://www.w3.org/2000/svg" xmlns:xlink="http://www.w3.org/1999/xlink">
<g id="graph0" class="graph" transform="scale(1 1) rotate(0) translate(4 248)">
<title>src/addrdb.h</title>
<polygon fill="white" stroke="none" points="-4,4 -4,-248 1037,-248 1037,4 -4,4"/>
<!-- Node0 -->
<g id="node1" class="node"><title>Node0</title>
<polygon fill="#bfbfbf" stroke="black" points="820.5,-224.5 820.5,-243.5 891.5,-243.5 891.5,-224.5 820.5,-224.5"/>
<text text-anchor="middle" x="856" y="-231.5" font-family="Helvetica,sans-Serif" font-size="10.00">src/addrdb.h</text>
</g>
<!-- Node1 -->
<g id="node2" class="node"><title>Node1</title>
<g id="a_node2"><a xlink:href="serialize_8h.html" target="_top" xlink:title="serialize.h">
<polygon fill="white" stroke="black" points="460.5,-168.5 460.5,-187.5 521.5,-187.5 521.5,-168.5 460.5,-168.5"/>
<text text-anchor="middle" x="491" y="-175.5" font-family="Helvetica,sans-Serif" font-size="10.00">serialize.h</text>
</a>
</g>
</g>
<!-- Node0&#45;&gt;Node1 -->
<g id="edge1" class="edge"><title>Node0&#45;&gt;Node1</title>
<path fill="none" stroke="midnightblue" d="M820.338,-227.724C752.119,-217.631 603.545,-195.65 531.623,-185.01"/>
<polygon fill="midnightblue" stroke="midnightblue" points="531.991,-181.526 521.586,-183.525 530.966,-188.451 531.991,-181.526"/>
</g>
<!-- Node10 -->
<g id="node11" class="node"><title>Node10</title>
<polygon fill="white" stroke="#bfbfbf" points="819.5,-112.5 819.5,-131.5 854.5,-131.5 854.5,-112.5 819.5,-112.5"/>
<text text-anchor="middle" x="837" y="-119.5" font-family="Helvetica,sans-Serif" font-size="10.00">map</text>
</g>
<!-- Node0&#45;&gt;Node10 -->
<g id="edge26" class="edge"><title>Node0&#45;&gt;Node10</title>
<path fill="none" stroke="midnightblue" d="M854.509,-224.368C851.443,-206.617 844.37,-165.666 840.212,-141.597"/>
<polygon fill="midnightblue" stroke="midnightblue" points="843.635,-140.85 838.484,-131.591 836.737,-142.041 843.635,-140.85"/>
</g>
<!-- Node13 -->
<g id="node14" class="node"><title>Node13</title>
<polygon fill="white" stroke="#bfbfbf" points="872.5,-112.5 872.5,-131.5 913.5,-131.5 913.5,-112.5 872.5,-112.5"/>
<text text-anchor="middle" x="893" y="-119.5" font-family="Helvetica,sans-Serif" font-size="10.00">string</text>
</g>
<!-- Node0&#45;&gt;Node13 -->
<g id="edge25" class="edge"><title>Node0&#45;&gt;Node13</title>
<path fill="none" stroke="midnightblue" d="M858.903,-224.368C864.901,-206.537 878.773,-165.295 886.854,-141.272"/>
<polygon fill="midnightblue" stroke="midnightblue" points="890.239,-142.185 890.11,-131.591 883.605,-139.954 890.239,-142.185"/>
</g>
<!-- Node20 -->
<g id="node21" class="node"><title>Node20</title>
<polygon fill="white" stroke="#bfbfbf" points="903.5,-168.5 903.5,-187.5 1032.5,-187.5 1032.5,-168.5 903.5,-168.5"/>
<text text-anchor="middle" x="968" y="-175.5" font-family="Helvetica,sans-Serif" font-size="10.00">boost/filesystem/path.hpp</text>
</g>
<!-- Node0&#45;&gt;Node20 -->
<g id="edge27" class="edge"><title>Node0&#45;&gt;Node20</title>
<path fill="none" stroke="midnightblue" d="M873.995,-224.324C892.038,-215.625 920.047,-202.12 940.803,-192.113"/>
<polygon fill="midnightblue" stroke="midnightblue" points="942.562,-195.15 950.05,-187.655 939.522,-188.845 942.562,-195.15"/>
</g>
<!-- Node2 -->
<g id="node3" class="node"><title>Node2</title>
<g id="a_node3"><a xlink:href="endian_8h.html" target="_top" xlink:title="compat/endian.h">
<polygon fill="white" stroke="black" points="712.5,-112.5 712.5,-131.5 801.5,-131.5 801.5,-112.5 712.5,-112.5"/>
<text text-anchor="middle" x="757" y="-119.5" font-family="Helvetica,sans-Serif" font-size="10.00">compat/endian.h</text>
</a>
</g>
</g>
<!-- Node1&#45;&gt;Node2 -->
<g id="edge2" class="edge"><title>Node1&#45;&gt;Node2</title>
<path fill="none" stroke="midnightblue" d="M521.514,-170.806C566.349,-161.704 650.611,-144.598 705.237,-133.508"/>
<polygon fill="midnightblue" stroke="midnightblue" points="705.972,-136.93 715.076,-131.511 704.58,-130.07 705.972,-136.93"/>
</g>
<!-- Node3 -->
<g id="node4" class="node"><title>Node3</title>
<polygon fill="white" stroke="#bfbfbf" points="678.5,-0.5 678.5,-19.5 727.5,-19.5 727.5,-0.5 678.5,-0.5"/>
<text text-anchor="middle" x="703" y="-7.5" font-family="Helvetica,sans-Serif" font-size="10.00">stdint.h</text>
</g>
<!-- Node1&#45;&gt;Node3 -->
<g id="edge14" class="edge"><title>Node1&#45;&gt;Node3</title>
<path fill="none" stroke="midnightblue" d="M521.786,-177.491C560.059,-176.408 625.076,-168.754 664,-132 692.657,-104.941 700.311,-56.7555 702.32,-30.084"/>
<polygon fill="midnightblue" stroke="midnightblue" points="705.831,-29.9733 702.89,-19.7948 698.842,-29.5856 705.831,-29.9733"/>
</g>
<!-- Node5 -->
<g id="node6" class="node"><title>Node5</title>
<polygon fill="white" stroke="#bfbfbf" points="209,-112.5 209,-131.5 265,-131.5 265,-112.5 209,-112.5"/>
<text text-anchor="middle" x="237" y="-119.5" font-family="Helvetica,sans-Serif" font-size="10.00">algorithm</text>
</g>
<!-- Node1&#45;&gt;Node5 -->
<g id="edge6" class="edge"><title>Node1&#45;&gt;Node5</title>
<path fill="none" stroke="midnightblue" d="M460.226,-171.065C419.828,-163.183 346.474,-148.56 275.297,-132.466"/>
<polygon fill="midnightblue" stroke="midnightblue" points="275.799,-128.991 265.272,-130.185 274.247,-135.816 275.799,-128.991"/>
</g>
<!-- Node6 -->
<g id="node7" class="node"><title>Node6</title>
<polygon fill="white" stroke="#bfbfbf" points="0,-56.5 0,-75.5 52,-75.5 52,-56.5 0,-56.5"/>
<text text-anchor="middle" x="26" y="-63.5" font-family="Helvetica,sans-Serif" font-size="10.00">assert.h</text>
</g>
<!-- Node1&#45;&gt;Node6 -->
<g id="edge7" class="edge"><title>Node1&#45;&gt;Node6</title>
<path fill="none" stroke="midnightblue" d="M460.427,-176.666C376.413,-175.284 143.904,-168.2 78,-132 58.4659,-121.27 43.5961,-99.8792 34.8598,-84.5658"/>
<polygon fill="midnightblue" stroke="midnightblue" points="37.8337,-82.7057 30.0172,-75.5535 31.6675,-86.019 37.8337,-82.7057"/>
</g>
<!-- Node7 -->
<g id="node8" class="node"><title>Node7</title>
<polygon fill="white" stroke="#bfbfbf" points="282.5,-112.5 282.5,-131.5 311.5,-131.5 311.5,-112.5 282.5,-112.5"/>
<text text-anchor="middle" x="297" y="-119.5" font-family="Helvetica,sans-Serif" font-size="10.00">ios</text>
</g>
<!-- Node1&#45;&gt;Node7 -->
<g id="edge8" class="edge"><title>Node1&#45;&gt;Node7</title>
<path fill="none" stroke="midnightblue" d="M460.333,-169.862C428.025,-162.128 375.516,-148.956 321.402,-131.874"/>
<polygon fill="midnightblue" stroke="midnightblue" points="322.233,-128.466 311.642,-128.756 320.102,-135.133 322.233,-128.466"/>
</g>
<!-- Node8 -->
<g id="node9" class="node"><title>Node8</title>
<polygon fill="white" stroke="#bfbfbf" points="330,-112.5 330,-131.5 370,-131.5 370,-112.5 330,-112.5"/>
<text text-anchor="middle" x="350" y="-119.5" font-family="Helvetica,sans-Serif" font-size="10.00">limits</text>
</g>
<!-- Node1&#45;&gt;Node8 -->
<g id="edge9" class="edge"><title>Node1&#45;&gt;Node8</title>
<path fill="none" stroke="midnightblue" d="M468.658,-168.444C444.696,-159.267 406.517,-144.645 379.961,-134.474"/>
<polygon fill="midnightblue" stroke="midnightblue" points="380.996,-131.123 370.406,-130.815 378.493,-137.66 380.996,-131.123"/>
</g>
<!-- Node9 -->
<g id="node10" class="node"><title>Node9</title>
<polygon fill="white" stroke="#bfbfbf" points="388.5,-112.5 388.5,-131.5 417.5,-131.5 417.5,-112.5 388.5,-112.5"/>
<text text-anchor="middle" x="403" y="-119.5" font-family="Helvetica,sans-Serif" font-size="10.00">list</text>
</g>
<!-- Node1&#45;&gt;Node9 -->
<g id="edge10" class="edge"><title>Node1&#45;&gt;Node9</title>
<path fill="none" stroke="midnightblue" d="M476.861,-168.324C463.134,-159.9 442.064,-146.971 425.936,-137.074"/>
<polygon fill="midnightblue" stroke="midnightblue" points="427.457,-133.902 417.104,-131.655 423.796,-139.868 427.457,-133.902"/>
</g>
<!-- Node1&#45;&gt;Node10 -->
<g id="edge11" class="edge"><title>Node1&#45;&gt;Node10</title>
<path fill="none" stroke="midnightblue" d="M521.691,-174.539C577.279,-169.681 698.368,-157.272 809.391,-131.722"/>
<polygon fill="midnightblue" stroke="midnightblue" points="810.476,-135.062 819.413,-129.372 808.879,-128.247 810.476,-135.062"/>
</g>
<!-- Node11 -->
<g id="node12" class="node"><title>Node11</title>
<polygon fill="white" stroke="#bfbfbf" points="436,-112.5 436,-131.5 488,-131.5 488,-112.5 436,-112.5"/>
<text text-anchor="middle" x="462" y="-119.5" font-family="Helvetica,sans-Serif" font-size="10.00">memory</text>
</g>
<!-- Node1&#45;&gt;Node11 -->
<g id="edge12" class="edge"><title>Node1&#45;&gt;Node11</title>
<path fill="none" stroke="midnightblue" d="M486.211,-168.083C482.242,-160.691 476.475,-149.953 471.565,-140.811"/>
<polygon fill="midnightblue" stroke="midnightblue" points="474.514,-138.905 466.7,-131.751 468.347,-142.217 474.514,-138.905"/>
</g>
<!-- Node12 -->
<g id="node13" class="node"><title>Node12</title>
<polygon fill="white" stroke="#bfbfbf" points="506,-112.5 506,-131.5 536,-131.5 536,-112.5 506,-112.5"/>
<text text-anchor="middle" x="521" y="-119.5" font-family="Helvetica,sans-Serif" font-size="10.00">set</text>
</g>
<!-- Node1&#45;&gt;Node12 -->
<g id="edge13" class="edge"><title>Node1&#45;&gt;Node12</title>
<path fill="none" stroke="midnightblue" d="M495.954,-168.083C500.104,-160.613 506.153,-149.724 511.267,-140.52"/>
<polygon fill="midnightblue" stroke="midnightblue" points="514.341,-142.192 516.138,-131.751 508.222,-138.793 514.341,-142.192"/>
</g>
<!-- Node1&#45;&gt;Node13 -->
<g id="edge15" class="edge"><title>Node1&#45;&gt;Node13</title>
<path fill="none" stroke="midnightblue" d="M521.666,-175.073C584.098,-170.77 730.49,-158.744 862.574,-131.723"/>
<polygon fill="midnightblue" stroke="midnightblue" points="863.385,-135.129 872.462,-129.666 861.959,-128.276 863.385,-135.129"/>
</g>
<!-- Node14 -->
<g id="node15" class="node"><title>Node14</title>
<polygon fill="white" stroke="#bfbfbf" points="240.5,-56.5 240.5,-75.5 289.5,-75.5 289.5,-56.5 240.5,-56.5"/>
<text text-anchor="middle" x="265" y="-63.5" font-family="Helvetica,sans-Serif" font-size="10.00">string.h</text>
</g>
<!-- Node1&#45;&gt;Node14 -->
<g id="edge16" class="edge"><title>Node1&#45;&gt;Node14</title>
<path fill="none" stroke="midnightblue" d="M460.348,-177.056C392.566,-176.46 233.313,-170.861 200,-132 183.698,-112.983 211.817,-92.8528 236.016,-80.1218"/>
<polygon fill="midnightblue" stroke="midnightblue" points="237.625,-83.2307 244.998,-75.6226 234.49,-76.972 237.625,-83.2307"/>
</g>
<!-- Node15 -->
<g id="node16" class="node"><title>Node15</title>
<polygon fill="white" stroke="#bfbfbf" points="554,-112.5 554,-131.5 594,-131.5 594,-112.5 554,-112.5"/>
<text text-anchor="middle" x="574" y="-119.5" font-family="Helvetica,sans-Serif" font-size="10.00">utility</text>
</g>
<!-- Node1&#45;&gt;Node15 -->
<g id="edge17" class="edge"><title>Node1&#45;&gt;Node15</title>
<path fill="none" stroke="midnightblue" d="M504.335,-168.324C517.162,-159.979 536.785,-147.212 551.94,-137.352"/>
<polygon fill="midnightblue" stroke="midnightblue" points="554.224,-140.042 560.698,-131.655 550.407,-134.174 554.224,-140.042"/>
</g>
<!-- Node16 -->
<g id="node17" class="node"><title>Node16</title>
<polygon fill="white" stroke="#bfbfbf" points="612,-112.5 612,-131.5 656,-131.5 656,-112.5 612,-112.5"/>
<text text-anchor="middle" x="634" y="-119.5" font-family="Helvetica,sans-Serif" font-size="10.00">vector</text>
</g>
<!-- Node1&#45;&gt;Node16 -->
<g id="edge18" class="edge"><title>Node1&#45;&gt;Node16</title>
<path fill="none" stroke="midnightblue" d="M513.659,-168.444C537.542,-159.425 575.351,-145.147 602.211,-135.004"/>
<polygon fill="midnightblue" stroke="midnightblue" points="603.798,-138.146 611.917,-131.339 601.325,-131.597 603.798,-138.146"/>
</g>
<!-- Node17 -->
<g id="node18" class="node"><title>Node17</title>
<g id="a_node18"><a xlink:href="prevector_8h.html" target="_top" xlink:title="prevector.h">
<polygon fill="white" stroke="black" points="87.5,-112.5 87.5,-131.5 152.5,-131.5 152.5,-112.5 87.5,-112.5"/>
<text text-anchor="middle" x="120" y="-119.5" font-family="Helvetica,sans-Serif" font-size="10.00">prevector.h</text>
</a>
</g>
</g>
<!-- Node1&#45;&gt;Node17 -->
<g id="edge19" class="edge"><title>Node1&#45;&gt;Node17</title>
<path fill="none" stroke="midnightblue" d="M460.096,-173.243C402.371,-166.107 274.301,-149.713 167,-132 165.54,-131.759 164.055,-131.508 162.557,-131.249"/>
<polygon fill="midnightblue" stroke="midnightblue" points="163.038,-127.78 152.577,-129.462 161.804,-134.67 163.038,-127.78"/>
</g>
<!-- Node2&#45;&gt;Node3 -->
<g id="edge3" class="edge"><title>Node2&#45;&gt;Node3</title>
<path fill="none" stroke="midnightblue" d="M752.763,-112.368C743.93,-94.376 723.397,-52.5503 711.653,-28.6267"/>
<polygon fill="midnightblue" stroke="midnightblue" points="714.766,-27.0257 707.218,-19.5914 708.483,-30.1105 714.766,-27.0257"/>
</g>
<!-- Node4 -->
<g id="node5" class="node"><title>Node4</title>
<g id="a_node5"><a xlink:href="byteswap_8h.html" target="_top" xlink:title="compat/byteswap.h">
<polygon fill="white" stroke="black" points="750,-56.5 750,-75.5 852,-75.5 852,-56.5 750,-56.5"/>
<text text-anchor="middle" x="801" y="-63.5" font-family="Helvetica,sans-Serif" font-size="10.00">compat/byteswap.h</text>
</a>
</g>
</g>
<!-- Node2&#45;&gt;Node4 -->
<g id="edge4" class="edge"><title>Node2&#45;&gt;Node4</title>
<path fill="none" stroke="midnightblue" d="M764.266,-112.083C770.545,-104.377 779.788,-93.0333 787.431,-83.6531"/>
<polygon fill="midnightblue" stroke="midnightblue" points="790.266,-85.7143 793.869,-75.7511 784.839,-81.2926 790.266,-85.7143"/>
</g>
<!-- Node4&#45;&gt;Node3 -->
<g id="edge5" class="edge"><title>Node4&#45;&gt;Node3</title>
<path fill="none" stroke="midnightblue" d="M785.255,-56.324C769.681,-47.7428 745.623,-34.486 727.541,-24.5224"/>
<polygon fill="midnightblue" stroke="midnightblue" points="729.154,-21.4152 718.706,-19.6545 725.776,-27.546 729.154,-21.4152"/>
</g>
<!-- Node17&#45;&gt;Node3 -->
<g id="edge22" class="edge"><title>Node17&#45;&gt;Node3</title>
<path fill="none" stroke="midnightblue" d="M123.11,-112.412C128.865,-97.9179 142.663,-68.9184 165,-56 208.476,-30.8555 556.283,-16.271 668.342,-12.1898"/>
<polygon fill="midnightblue" stroke="midnightblue" points="668.565,-15.6842 678.433,-11.8276 668.313,-8.68867 668.565,-15.6842"/>
</g>
<!-- Node17&#45;&gt;Node6 -->
<g id="edge20" class="edge"><title>Node17&#45;&gt;Node6</title>
<path fill="none" stroke="midnightblue" d="M104.897,-112.324C90.0967,-103.822 67.3058,-90.7288 50.0178,-80.7975"/>
<polygon fill="midnightblue" stroke="midnightblue" points="51.4798,-77.6009 41.0652,-75.6545 47.9929,-83.6707 51.4798,-77.6009"/>
</g>
<!-- Node17&#45;&gt;Node14 -->
<g id="edge23" class="edge"><title>Node17&#45;&gt;Node14</title>
<path fill="none" stroke="midnightblue" d="M142.976,-112.444C167.157,-103.438 205.418,-89.1891 232.646,-79.049"/>
<polygon fill="midnightblue" stroke="midnightblue" points="233.982,-82.2864 242.132,-75.5164 231.539,-75.7265 233.982,-82.2864"/>
</g>
<!-- Node18 -->
<g id="node19" class="node"><title>Node18</title>
<polygon fill="white" stroke="#bfbfbf" points="174,-56.5 174,-75.5 222,-75.5 222,-56.5 174,-56.5"/>
<text text-anchor="middle" x="198" y="-63.5" font-family="Helvetica,sans-Serif" font-size="10.00">stdlib.h</text>
</g>
<!-- Node17&#45;&gt;Node18 -->
<g id="edge21" class="edge"><title>Node17&#45;&gt;Node18</title>
<path fill="none" stroke="midnightblue" d="M132.532,-112.324C144.586,-103.979 163.027,-91.2122 177.269,-81.3524"/>
<polygon fill="midnightblue" stroke="midnightblue" points="179.269,-84.2243 185.499,-75.6545 175.285,-78.469 179.269,-84.2243"/>
</g>
<!-- Node19 -->
<g id="node20" class="node"><title>Node19</title>
<polygon fill="white" stroke="#bfbfbf" points="70.5,-56.5 70.5,-75.5 117.5,-75.5 117.5,-56.5 70.5,-56.5"/>
<text text-anchor="middle" x="94" y="-63.5" font-family="Helvetica,sans-Serif" font-size="10.00">iterator</text>
</g>
<!-- Node17&#45;&gt;Node19 -->
<g id="edge24" class="edge"><title>Node17&#45;&gt;Node19</title>
<path fill="none" stroke="midnightblue" d="M115.707,-112.083C112.148,-104.691 106.978,-93.9533 102.576,-84.8111"/>
<polygon fill="midnightblue" stroke="midnightblue" points="105.705,-83.2427 98.2135,-75.7511 99.3982,-86.2795 105.705,-83.2427"/>
</g>
</g>
</svg>
