<?xml version="1.0" encoding="UTF-8" standalone="no"?>
<!DOCTYPE svg PUBLIC "-//W3C//DTD SVG 1.1//EN"
 "http://www.w3.org/Graphics/SVG/1.1/DTD/svg11.dtd">
<!-- Generated by graphviz version 2.36.0 (20140111.2315)
 -->
<!-- Title: src/crypto/aes.h Pages: 1 -->
<svg width="350pt" height="84pt"
 viewBox="0.00 0.00 350.00 84.00" xmlns="http://www.w3.org/2000/svg" xmlns:xlink="http://www.w3.org/1999/xlink">
<g id="graph0" class="graph" transform="scale(1 1) rotate(0) translate(4 80)">
<title>src/crypto/aes.h</title>
<polygon fill="white" stroke="none" points="-4,4 -4,-80 346,-80 346,4 -4,4"/>
<!-- Node4 -->
<g id="node1" class="node"><title>Node4</title>
<polygon fill="#bfbfbf" stroke="black" points="121.5,-56.5 121.5,-75.5 208.5,-75.5 208.5,-56.5 121.5,-56.5"/>
<text text-anchor="middle" x="165" y="-63.5" font-family="Helvetica,sans-Serif" font-size="10.00">src/crypto/aes.h</text>
</g>
<!-- Node5 -->
<g id="node2" class="node"><title>Node5</title>
<g id="a_node2"><a xlink:href="bls__ies_8cpp.html" target="_top" xlink:title="src/bls/bls_ies.cpp">
<polygon fill="white" stroke="black" points="0,-0.5 0,-19.5 98,-19.5 98,-0.5 0,-0.5"/>
<text text-anchor="middle" x="49" y="-7.5" font-family="Helvetica,sans-Serif" font-size="10.00">src/bls/bls_ies.cpp</text>
</a>
</g>
</g>
<!-- Node4&#45;&gt;Node5 -->
<g id="edge1" class="edge"><title>Node4&#45;&gt;Node5</title>
<path fill="none" stroke="midnightblue" d="M137.28,-52.096C115.608,-42.0073 86.0979,-28.2697 67.2946,-19.5164"/>
<polygon fill="midnightblue" stroke="midnightblue" points="136.077,-55.3962 146.619,-56.4435 139.031,-49.0501 136.077,-55.3962"/>
</g>
<!-- Node6 -->
<g id="node3" class="node"><title>Node6</title>
<g id="a_node3"><a xlink:href="aes_8cpp.html" target="_top" xlink:title="src/crypto/aes.cpp">
<polygon fill="white" stroke="black" points="116,-0.5 116,-19.5 214,-19.5 214,-0.5 116,-0.5"/>
<text text-anchor="middle" x="165" y="-7.5" font-family="Helvetica,sans-Serif" font-size="10.00">src/crypto/aes.cpp</text>
</a>
</g>
</g>
<!-- Node4&#45;&gt;Node6 -->
<g id="edge2" class="edge"><title>Node4&#45;&gt;Node6</title>
<path fill="none" stroke="midnightblue" d="M165,-45.8045C165,-36.9102 165,-26.7798 165,-19.7511"/>
<polygon fill="midnightblue" stroke="midnightblue" points="161.5,-46.083 165,-56.083 168.5,-46.083 161.5,-46.083"/>
</g>
<!-- Node7 -->
<g id="node4" class="node"><title>Node7</title>
<g id="a_node4"><a xlink:href="crypter_8cpp.html" target="_top" xlink:title="src/wallet/crypter.cpp">
<polygon fill="white" stroke="black" points="232,-0.5 232,-19.5 342,-19.5 342,-0.5 232,-0.5"/>
<text text-anchor="middle" x="287" y="-7.5" font-family="Helvetica,sans-Serif" font-size="10.00">src/wallet/crypter.cpp</text>
</a>
</g>
</g>
<!-- Node4&#45;&gt;Node7 -->
<g id="edge3" class="edge"><title>Node4&#45;&gt;Node7</title>
<path fill="none" stroke="midnightblue" d="M193.539,-52.3678C216.386,-42.2553 247.805,-28.3486 267.759,-19.5164"/>
<polygon fill="midnightblue" stroke="midnightblue" points="192.059,-49.1955 184.331,-56.4435 194.892,-55.5965 192.059,-49.1955"/>
</g>
</g>
</svg>
