<?xml version="1.0" encoding="UTF-8" standalone="no"?>
<!DOCTYPE svg PUBLIC "-//W3C//DTD SVG 1.1//EN"
 "http://www.w3.org/Graphics/SVG/1.1/DTD/svg11.dtd">
<!-- Generated by graphviz version 2.36.0 (20140111.2315)
 -->
<!-- Title: src/alert.h Pages: 1 -->
<svg width="817pt" height="84pt"
 viewBox="0.00 0.00 817.00 84.00" xmlns="http://www.w3.org/2000/svg" xmlns:xlink="http://www.w3.org/1999/xlink">
<g id="graph0" class="graph" transform="scale(1 1) rotate(0) translate(4 80)">
<title>src/alert.h</title>
<polygon fill="white" stroke="none" points="-4,4 -4,-80 813,-80 813,4 -4,4"/>
<!-- Node26 -->
<g id="node1" class="node"><title>Node26</title>
<polygon fill="#bfbfbf" stroke="black" points="392,-56.5 392,-75.5 452,-75.5 452,-56.5 392,-56.5"/>
<text text-anchor="middle" x="422" y="-63.5" font-family="Helvetica,sans-Serif" font-size="10.00">src/alert.h</text>
</g>
<!-- Node27 -->
<g id="node2" class="node"><title>Node27</title>
<g id="a_node2"><a xlink:href="alert_8cpp.html" target="_top" xlink:title="src/alert.cpp">
<polygon fill="white" stroke="black" points="-0.5,-0.5 -0.5,-19.5 70.5,-19.5 70.5,-0.5 -0.5,-0.5"/>
<text text-anchor="middle" x="35" y="-7.5" font-family="Helvetica,sans-Serif" font-size="10.00">src/alert.cpp</text>
</a>
</g>
</g>
<!-- Node26&#45;&gt;Node27 -->
<g id="edge1" class="edge"><title>Node26&#45;&gt;Node27</title>
<path fill="none" stroke="midnightblue" d="M381.616,-60.5685C317.504,-53.3351 188.575,-37.9801 80,-20 77.0131,-19.5054 73.9215,-18.9593 70.822,-18.3879"/>
<polygon fill="midnightblue" stroke="midnightblue" points="381.378,-64.0637 391.706,-61.7001 382.158,-57.1073 381.378,-64.0637"/>
</g>
<!-- Node28 -->
<g id="node3" class="node"><title>Node28</title>
<g id="a_node3"><a xlink:href="masternodeman_8cpp.html" target="_top" xlink:title="src/masternodeman.cpp">
<polygon fill="white" stroke="black" points="89,-0.5 89,-19.5 211,-19.5 211,-0.5 89,-0.5"/>
<text text-anchor="middle" x="150" y="-7.5" font-family="Helvetica,sans-Serif" font-size="10.00">src/masternodeman.cpp</text>
</a>
</g>
</g>
<!-- Node26&#45;&gt;Node28 -->
<g id="edge2" class="edge"><title>Node26&#45;&gt;Node28</title>
<path fill="none" stroke="midnightblue" d="M381.961,-57.051C331.518,-47.0366 245.167,-29.8934 193.252,-19.5868"/>
<polygon fill="midnightblue" stroke="midnightblue" points="381.362,-60.5004 391.852,-59.0147 382.725,-53.6344 381.362,-60.5004"/>
</g>
<!-- Node29 -->
<g id="node4" class="node"><title>Node29</title>
<g id="a_node4"><a xlink:href="net__processing_8cpp.html" target="_top" xlink:title="src/net_processing.cpp">
<polygon fill="white" stroke="black" points="229,-0.5 229,-19.5 347,-19.5 347,-0.5 229,-0.5"/>
<text text-anchor="middle" x="288" y="-7.5" font-family="Helvetica,sans-Serif" font-size="10.00">src/net_processing.cpp</text>
</a>
</g>
</g>
<!-- Node26&#45;&gt;Node29 -->
<g id="edge3" class="edge"><title>Node26&#45;&gt;Node29</title>
<path fill="none" stroke="midnightblue" d="M391.323,-52.6377C366.177,-42.504 331.246,-28.4274 309.133,-19.5164"/>
<polygon fill="midnightblue" stroke="midnightblue" points="390.184,-55.952 400.767,-56.4435 392.8,-49.4594 390.184,-55.952"/>
</g>
<!-- Node30 -->
<g id="node5" class="node"><title>Node30</title>
<g id="a_node5"><a xlink:href="clientmodel_8cpp.html" target="_top" xlink:title="src/qt/clientmodel.cpp">
<polygon fill="white" stroke="black" points="365.5,-0.5 365.5,-19.5 478.5,-19.5 478.5,-0.5 365.5,-0.5"/>
<text text-anchor="middle" x="422" y="-7.5" font-family="Helvetica,sans-Serif" font-size="10.00">src/qt/clientmodel.cpp</text>
</a>
</g>
</g>
<!-- Node26&#45;&gt;Node30 -->
<g id="edge4" class="edge"><title>Node26&#45;&gt;Node30</title>
<path fill="none" stroke="midnightblue" d="M422,-45.8045C422,-36.9102 422,-26.7798 422,-19.7511"/>
<polygon fill="midnightblue" stroke="midnightblue" points="418.5,-46.083 422,-56.083 425.5,-46.083 418.5,-46.083"/>
</g>
<!-- Node31 -->
<g id="node6" class="node"><title>Node31</title>
<g id="a_node6"><a xlink:href="sendalert_8cpp.html" target="_top" xlink:title="src/sendalert.cpp">
<polygon fill="white" stroke="black" points="497,-0.5 497,-19.5 589,-19.5 589,-0.5 497,-0.5"/>
<text text-anchor="middle" x="543" y="-7.5" font-family="Helvetica,sans-Serif" font-size="10.00">src/sendalert.cpp</text>
</a>
</g>
</g>
<!-- Node26&#45;&gt;Node31 -->
<g id="edge5" class="edge"><title>Node26&#45;&gt;Node31</title>
<path fill="none" stroke="midnightblue" d="M450.306,-52.3678C472.965,-42.2553 504.126,-28.3486 523.917,-19.5164"/>
<polygon fill="midnightblue" stroke="midnightblue" points="448.878,-49.1719 441.173,-56.4435 451.731,-55.5643 448.878,-49.1719"/>
</g>
<!-- Node32 -->
<g id="node7" class="node"><title>Node32</title>
<g id="a_node7"><a xlink:href="validation_8cpp.html" target="_top" xlink:title="src/validation.cpp">
<polygon fill="white" stroke="black" points="607.5,-0.5 607.5,-19.5 700.5,-19.5 700.5,-0.5 607.5,-0.5"/>
<text text-anchor="middle" x="654" y="-7.5" font-family="Helvetica,sans-Serif" font-size="10.00">src/validation.cpp</text>
</a>
</g>
</g>
<!-- Node26&#45;&gt;Node32 -->
<g id="edge6" class="edge"><title>Node26&#45;&gt;Node32</title>
<path fill="none" stroke="midnightblue" d="M462.308,-55.6181C505.938,-45.4627 574.925,-29.4053 617.155,-19.576"/>
<polygon fill="midnightblue" stroke="midnightblue" points="461.276,-52.2645 452.33,-57.9404 462.863,-59.0823 461.276,-52.2645"/>
</g>
<!-- Node33 -->
<g id="node8" class="node"><title>Node33</title>
<g id="a_node8"><a xlink:href="warnings_8cpp.html" target="_top" xlink:title="src/warnings.cpp">
<polygon fill="white" stroke="black" points="718.5,-0.5 718.5,-19.5 809.5,-19.5 809.5,-0.5 718.5,-0.5"/>
<text text-anchor="middle" x="764" y="-7.5" font-family="Helvetica,sans-Serif" font-size="10.00">src/warnings.cpp</text>
</a>
</g>
</g>
<!-- Node26&#45;&gt;Node33 -->
<g id="edge7" class="edge"><title>Node26&#45;&gt;Node33</title>
<path fill="none" stroke="midnightblue" d="M462.303,-58.7675C517.847,-50.1583 621.045,-34.0917 709,-20 712.057,-19.5102 715.209,-19.0022 718.385,-18.4883"/>
<polygon fill="midnightblue" stroke="midnightblue" points="461.52,-55.3469 452.174,-60.3366 462.592,-62.2643 461.52,-55.3469"/>
</g>
</g>
</svg>
