<?xml version="1.0" encoding="UTF-8" standalone="no"?>
<!DOCTYPE svg PUBLIC "-//W3C//DTD SVG 1.1//EN"
 "http://www.w3.org/Graphics/SVG/1.1/DTD/svg11.dtd">
<!-- Generated by graphviz version 2.36.0 (20140111.2315)
 -->
<!-- Title: src/alert.cpp Pages: 1 -->
<svg width="3232pt" height="444pt"
 viewBox="0.00 0.00 3232.34 444.00" xmlns="http://www.w3.org/2000/svg" xmlns:xlink="http://www.w3.org/1999/xlink">
<g id="graph0" class="graph" transform="scale(1 1) rotate(0) translate(4 440)">
<title>src/alert.cpp</title>
<polygon fill="white" stroke="none" points="-4,4 -4,-440 3228.34,-440 3228.34,4 -4,4"/>
<!-- Node0 -->
<g id="node1" class="node"><title>Node0</title>
<polygon fill="#bfbfbf" stroke="black" points="2285.84,-416.5 2285.84,-435.5 2356.84,-435.5 2356.84,-416.5 2285.84,-416.5"/>
<text text-anchor="middle" x="2321.34" y="-423.5" font-family="Helvetica,sans-Serif" font-size="10.00">src/alert.cpp</text>
</g>
<!-- Node1 -->
<g id="node2" class="node"><title>Node1</title>
<g id="a_node2"><a xlink:href="alert_8h.html" target="_top" xlink:title="alert.h">
<polygon fill="white" stroke="black" points="2327.34,-124.5 2327.34,-143.5 2371.34,-143.5 2371.34,-124.5 2327.34,-124.5"/>
<text text-anchor="middle" x="2349.34" y="-131.5" font-family="Helvetica,sans-Serif" font-size="10.00">alert.h</text>
</a>
</g>
</g>
<!-- Node0&#45;&gt;Node1 -->
<g id="edge1" class="edge"><title>Node0&#45;&gt;Node1</title>
<path fill="none" stroke="midnightblue" d="M2324.03,-416.22C2329.91,-396.295 2343.34,-346.044 2343.34,-303 2343.34,-303 2343.34,-303 2343.34,-245 2343.34,-212.9 2345.91,-175.61 2347.69,-153.732"/>
<polygon fill="midnightblue" stroke="midnightblue" points="2351.2,-153.808 2348.55,-143.549 2344.22,-153.219 2351.2,-153.808"/>
</g>
<!-- Node6 -->
<g id="node4" class="node"><title>Node6</title>
<polygon fill="white" stroke="#bfbfbf" points="379.335,-0.5 379.335,-19.5 435.335,-19.5 435.335,-0.5 379.335,-0.5"/>
<text text-anchor="middle" x="407.335" y="-7.5" font-family="Helvetica,sans-Serif" font-size="10.00">algorithm</text>
</g>
<!-- Node0&#45;&gt;Node6 -->
<g id="edge151" class="edge"><title>Node0&#45;&gt;Node6</title>
<path fill="none" stroke="midnightblue" d="M2285.65,-424.686C2033.39,-422.398 523.064,-407.62 321.335,-380 184.099,-361.21 19.3354,-441.516 19.3354,-303 19.3354,-303 19.3354,-303 19.3354,-133 19.3354,-78.6504 64.6378,-78.0007 114.335,-56 199.617,-18.2466 310.984,-11.3939 368.77,-10.6118"/>
<polygon fill="midnightblue" stroke="midnightblue" points="368.946,-14.1106 378.917,-10.5303 368.89,-7.11081 368.946,-14.1106"/>
</g>
<!-- Node11 -->
<g id="node6" class="node"><title>Node11</title>
<polygon fill="white" stroke="#bfbfbf" points="1735.84,-0.5 1735.84,-19.5 1770.84,-19.5 1770.84,-0.5 1735.84,-0.5"/>
<text text-anchor="middle" x="1753.34" y="-7.5" font-family="Helvetica,sans-Serif" font-size="10.00">map</text>
</g>
<!-- Node0&#45;&gt;Node11 -->
<g id="edge152" class="edge"><title>Node0&#45;&gt;Node11</title>
<path fill="none" stroke="midnightblue" d="M2357.02,-423.918C2447.59,-420.759 2684.24,-409.811 2756.34,-380 2806.56,-359.231 2851.34,-357.35 2851.34,-303 2851.34,-303 2851.34,-303 2851.34,-133 2851.34,-63.1529 2781.47,-75.2635 2714.34,-56 2622.61,-29.6822 1928.82,-14.4911 1780.99,-11.5341"/>
<polygon fill="midnightblue" stroke="midnightblue" points="1781,-8.03376 1770.93,-11.3351 1780.86,-15.0324 1781,-8.03376"/>
</g>
<!-- Node4 -->
<g id="node9" class="node"><title>Node4</title>
<polygon fill="white" stroke="#bfbfbf" points="1251.84,-0.5 1251.84,-19.5 1300.84,-19.5 1300.84,-0.5 1251.84,-0.5"/>
<text text-anchor="middle" x="1276.34" y="-7.5" font-family="Helvetica,sans-Serif" font-size="10.00">stdint.h</text>
</g>
<!-- Node0&#45;&gt;Node4 -->
<g id="edge150" class="edge"><title>Node0&#45;&gt;Node4</title>
<path fill="none" stroke="midnightblue" d="M2318.64,-416.22C2312.76,-396.295 2299.34,-346.044 2299.34,-303 2299.34,-303 2299.34,-303 2299.34,-133 2299.34,-97.6422 2306.85,-78.2109 2279.34,-56 2242.04,-25.8912 1465.2,-22.5267 1417.34,-20 1381.17,-18.0909 1339.82,-15.3904 1311.3,-13.4463"/>
<polygon fill="midnightblue" stroke="midnightblue" points="1311.25,-9.9347 1301.03,-12.7415 1310.77,-16.9183 1311.25,-9.9347"/>
</g>
<!-- Node27 -->
<g id="node13" class="node"><title>Node27</title>
<g id="a_node13"><a xlink:href="base58_8h.html" target="_top" xlink:title="base58.h">
<polygon fill="white" stroke="black" points="350.335,-292.5 350.335,-311.5 406.335,-311.5 406.335,-292.5 350.335,-292.5"/>
<text text-anchor="middle" x="378.335" y="-299.5" font-family="Helvetica,sans-Serif" font-size="10.00">base58.h</text>
</a>
</g>
</g>
<!-- Node0&#45;&gt;Node27 -->
<g id="edge16" class="edge"><title>Node0&#45;&gt;Node27</title>
<path fill="none" stroke="midnightblue" d="M2285.57,-423.342C2168.34,-417.858 1785.09,-399.542 1468.34,-380 1056.35,-354.583 557.289,-316.748 416.777,-305.965"/>
<polygon fill="midnightblue" stroke="midnightblue" points="416.772,-302.454 406.533,-305.178 416.236,-309.434 416.772,-302.454"/>
</g>
<!-- Node59 -->
<g id="node22" class="node"><title>Node59</title>
<g id="a_node22"><a xlink:href="pubkey_8h.html" target="_top" xlink:title="pubkey.h">
<polygon fill="white" stroke="black" points="218.335,-180.5 218.335,-199.5 274.335,-199.5 274.335,-180.5 218.335,-180.5"/>
<text text-anchor="middle" x="246.335" y="-187.5" font-family="Helvetica,sans-Serif" font-size="10.00">pubkey.h</text>
</a>
</g>
</g>
<!-- Node0&#45;&gt;Node59 -->
<g id="edge139" class="edge"><title>Node0&#45;&gt;Node59</title>
<path fill="none" stroke="midnightblue" d="M2285.7,-424.732C2130.93,-423.37 1501.66,-415.804 986.335,-380 698.773,-360.021 605.919,-426.398 341.335,-312 306.335,-296.867 299.291,-286.448 276.335,-256 265.59,-241.748 257.46,-223.031 252.392,-209.344"/>
<polygon fill="midnightblue" stroke="midnightblue" points="255.598,-207.91 248.993,-199.626 248.991,-210.221 255.598,-207.91"/>
</g>
<!-- Node85 -->
<g id="node27" class="node"><title>Node85</title>
<g id="a_node27"><a xlink:href="clientversion_8h.html" target="_top" xlink:title="clientversion.h">
<polygon fill="white" stroke="black" points="2591.34,-62.5 2591.34,-81.5 2671.34,-81.5 2671.34,-62.5 2591.34,-62.5"/>
<text text-anchor="middle" x="2631.34" y="-69.5" font-family="Helvetica,sans-Serif" font-size="10.00">clientversion.h</text>
</a>
</g>
</g>
<!-- Node0&#45;&gt;Node85 -->
<g id="edge65" class="edge"><title>Node0&#45;&gt;Node85</title>
<path fill="none" stroke="midnightblue" d="M2356.99,-421.874C2420.43,-414.147 2546.34,-388.094 2546.34,-303 2546.34,-303 2546.34,-303 2546.34,-189 2546.34,-145.673 2585.4,-107.782 2610.56,-87.8671"/>
<polygon fill="midnightblue" stroke="midnightblue" points="2612.96,-90.4378 2618.79,-81.5933 2608.72,-84.8698 2612.96,-90.4378"/>
</g>
<!-- Node86 -->
<g id="node28" class="node"><title>Node86</title>
<g id="a_node28"><a xlink:href="net_8h.html" target="_top" xlink:title="net.h">
<polygon fill="white" stroke="black" points="1511.34,-292.5 1511.34,-311.5 1549.34,-311.5 1549.34,-292.5 1511.34,-292.5"/>
<text text-anchor="middle" x="1530.34" y="-299.5" font-family="Helvetica,sans-Serif" font-size="10.00">net.h</text>
</a>
</g>
</g>
<!-- Node0&#45;&gt;Node86 -->
<g id="edge68" class="edge"><title>Node0&#45;&gt;Node86</title>
<path fill="none" stroke="midnightblue" d="M2285.52,-420.077C2227.18,-412.012 2108.05,-395.345 2007.34,-380 1837.4,-354.109 1633.88,-320.33 1559.43,-307.881"/>
<polygon fill="midnightblue" stroke="midnightblue" points="1559.84,-304.401 1549.4,-306.202 1558.69,-311.305 1559.84,-304.401"/>
</g>
<!-- Node91 -->
<g id="node33" class="node"><title>Node91</title>
<g id="a_node33"><a xlink:href="timedata_8h.html" target="_top" xlink:title="timedata.h">
<polygon fill="white" stroke="black" points="463.335,-62.5 463.335,-81.5 525.335,-81.5 525.335,-62.5 463.335,-62.5"/>
<text text-anchor="middle" x="494.335" y="-69.5" font-family="Helvetica,sans-Serif" font-size="10.00">timedata.h</text>
</a>
</g>
</g>
<!-- Node0&#45;&gt;Node91 -->
<g id="edge140" class="edge"><title>Node0&#45;&gt;Node91</title>
<path fill="none" stroke="midnightblue" d="M2285.66,-425.117C2041.49,-425.79 620.818,-427.624 435.335,-380 302.167,-345.808 130.858,-299.222 199.335,-180 250.076,-91.6592 384.09,-75.2849 452.65,-72.8761"/>
<polygon fill="midnightblue" stroke="midnightblue" points="453.164,-76.3638 463.068,-72.6005 452.979,-69.3663 453.164,-76.3638"/>
</g>
<!-- Node92 -->
<g id="node34" class="node"><title>Node92</title>
<g id="a_node34"><a xlink:href="util_8h.html" target="_top" xlink:title="util.h">
<polygon fill="white" stroke="red" points="1836.34,-124.5 1836.34,-143.5 1874.34,-143.5 1874.34,-124.5 1836.34,-124.5"/>
<text text-anchor="middle" x="1855.34" y="-131.5" font-family="Helvetica,sans-Serif" font-size="10.00">util.h</text>
</a>
</g>
</g>
<!-- Node0&#45;&gt;Node92 -->
<g id="edge145" class="edge"><title>Node0&#45;&gt;Node92</title>
<path fill="none" stroke="midnightblue" d="M2307.64,-416.478C2242.07,-375.669 1959.94,-200.099 1877.83,-149.002"/>
<polygon fill="midnightblue" stroke="midnightblue" points="1879.6,-145.975 1869.26,-143.663 1875.9,-151.919 1879.6,-145.975"/>
</g>
<!-- Node112 -->
<g id="node45" class="node"><title>Node112</title>
<g id="a_node45"><a xlink:href="netmessagemaker_8h.html" target="_top" xlink:title="netmessagemaker.h">
<polygon fill="white" stroke="black" points="1477.84,-354.5 1477.84,-373.5 1582.84,-373.5 1582.84,-354.5 1477.84,-354.5"/>
<text text-anchor="middle" x="1530.34" y="-361.5" font-family="Helvetica,sans-Serif" font-size="10.00">netmessagemaker.h</text>
</a>
</g>
</g>
<!-- Node0&#45;&gt;Node112 -->
<g id="edge136" class="edge"><title>Node0&#45;&gt;Node112</title>
<path fill="none" stroke="midnightblue" d="M2285.81,-422.305C2162.41,-412.945 1751.28,-381.759 1593.1,-369.761"/>
<polygon fill="midnightblue" stroke="midnightblue" points="1593.29,-366.265 1583.05,-368.999 1592.76,-373.245 1593.29,-366.265"/>
</g>
<!-- Node113 -->
<g id="node46" class="node"><title>Node113</title>
<g id="a_node46"><a xlink:href="ui__interface_8h.html" target="_top" xlink:title="ui_interface.h">
<polygon fill="white" stroke="red" points="2718.84,-124.5 2718.84,-143.5 2793.84,-143.5 2793.84,-124.5 2718.84,-124.5"/>
<text text-anchor="middle" x="2756.34" y="-131.5" font-family="Helvetica,sans-Serif" font-size="10.00">ui_interface.h</text>
</a>
</g>
</g>
<!-- Node0&#45;&gt;Node113 -->
<g id="edge141" class="edge"><title>Node0&#45;&gt;Node113</title>
<path fill="none" stroke="midnightblue" d="M2357.12,-423.813C2470.33,-419.099 2813.34,-397.054 2813.34,-303 2813.34,-303 2813.34,-303 2813.34,-245 2813.34,-208.3 2788.01,-171.657 2771.13,-151.297"/>
<polygon fill="midnightblue" stroke="midnightblue" points="2773.68,-148.904 2764.5,-143.616 2768.38,-153.475 2773.68,-148.904"/>
</g>
<!-- Node115 -->
<g id="node47" class="node"><title>Node115</title>
<g id="a_node47"><a xlink:href="utilstrencodings_8h.html" target="_top" xlink:title="utilstrencodings.h">
<polygon fill="white" stroke="black" points="2403.84,-62.5 2403.84,-81.5 2496.84,-81.5 2496.84,-62.5 2403.84,-62.5"/>
<text text-anchor="middle" x="2450.34" y="-69.5" font-family="Helvetica,sans-Serif" font-size="10.00">utilstrencodings.h</text>
</a>
</g>
</g>
<!-- Node0&#45;&gt;Node115 -->
<g id="edge146" class="edge"><title>Node0&#45;&gt;Node115</title>
<path fill="none" stroke="midnightblue" d="M2336.53,-416.461C2365.18,-399.11 2424.34,-356.776 2424.34,-303 2424.34,-303 2424.34,-303 2424.34,-189 2424.34,-153.705 2435.94,-113.8 2443.64,-91.1944"/>
<polygon fill="midnightblue" stroke="midnightblue" points="2447.01,-92.1779 2447.04,-81.5831 2440.41,-89.843 2447.01,-92.1779"/>
</g>
<!-- Node116 -->
<g id="node48" class="node"><title>Node116</title>
<polygon fill="white" stroke="#bfbfbf" points="2879.34,-349 2879.34,-379 2989.34,-379 2989.34,-349 2879.34,-349"/>
<text text-anchor="start" x="2887.34" y="-367" font-family="Helvetica,sans-Serif" font-size="10.00">boost/algorithm/string</text>
<text text-anchor="middle" x="2934.34" y="-356" font-family="Helvetica,sans-Serif" font-size="10.00">/classification.hpp</text>
</g>
<!-- Node0&#45;&gt;Node116 -->
<g id="edge153" class="edge"><title>Node0&#45;&gt;Node116</title>
<path fill="none" stroke="midnightblue" d="M2356.84,-423.681C2443.92,-420.094 2674.84,-408.459 2865.34,-380 2866.6,-379.812 2867.87,-379.614 2869.15,-379.407"/>
<polygon fill="midnightblue" stroke="midnightblue" points="2869.84,-382.84 2879.09,-377.679 2868.64,-375.944 2869.84,-382.84"/>
</g>
<!-- Node117 -->
<g id="node49" class="node"><title>Node117</title>
<polygon fill="white" stroke="#bfbfbf" points="3007.34,-349 3007.34,-379 3117.34,-379 3117.34,-349 3007.34,-349"/>
<text text-anchor="start" x="3015.34" y="-367" font-family="Helvetica,sans-Serif" font-size="10.00">boost/algorithm/string</text>
<text text-anchor="middle" x="3062.34" y="-356" font-family="Helvetica,sans-Serif" font-size="10.00">/replace.hpp</text>
</g>
<!-- Node0&#45;&gt;Node117 -->
<g id="edge154" class="edge"><title>Node0&#45;&gt;Node117</title>
<path fill="none" stroke="midnightblue" d="M2357.16,-424.68C2457.07,-423.351 2747.35,-416.515 2997.29,-379.986"/>
<polygon fill="midnightblue" stroke="midnightblue" points="2997.91,-383.433 3007.29,-378.506 2996.88,-376.508 2997.91,-383.433"/>
</g>
<!-- Node118 -->
<g id="node50" class="node"><title>Node118</title>
<polygon fill="white" stroke="#bfbfbf" points="3135.84,-354.5 3135.84,-373.5 3224.84,-373.5 3224.84,-354.5 3135.84,-354.5"/>
<text text-anchor="middle" x="3180.34" y="-361.5" font-family="Helvetica,sans-Serif" font-size="10.00">boost/thread.hpp</text>
</g>
<!-- Node0&#45;&gt;Node118 -->
<g id="edge155" class="edge"><title>Node0&#45;&gt;Node118</title>
<path fill="none" stroke="midnightblue" d="M2356.98,-424.027C2492.4,-420.174 2974.93,-404.961 3126.34,-380 3132.18,-379.037 3138.29,-377.684 3144.22,-376.181"/>
<polygon fill="midnightblue" stroke="midnightblue" points="3145.21,-379.541 3153.95,-373.552 3143.38,-372.783 3145.21,-379.541"/>
</g>
<!-- Node2 -->
<g id="node3" class="node"><title>Node2</title>
<g id="a_node3"><a xlink:href="serialize_8h.html" target="_top" xlink:title="serialize.h">
<polygon fill="white" stroke="red" points="1015.84,-62.5 1015.84,-81.5 1076.84,-81.5 1076.84,-62.5 1015.84,-62.5"/>
<text text-anchor="middle" x="1046.34" y="-69.5" font-family="Helvetica,sans-Serif" font-size="10.00">serialize.h</text>
</a>
</g>
</g>
<!-- Node1&#45;&gt;Node2 -->
<g id="edge2" class="edge"><title>Node1&#45;&gt;Node2</title>
<path fill="none" stroke="midnightblue" d="M2327.27,-131.984C2175.73,-125.006 1289.07,-84.1773 1087.22,-74.8826"/>
<polygon fill="midnightblue" stroke="midnightblue" points="1087.2,-71.3781 1077.05,-74.4143 1086.88,-78.3707 1087.2,-71.3781"/>
</g>
<!-- Node1&#45;&gt;Node11 -->
<g id="edge12" class="edge"><title>Node1&#45;&gt;Node11</title>
<path fill="none" stroke="midnightblue" d="M2371.34,-131.814C2444.42,-127.653 2675.69,-112.622 2697.34,-88 2706.73,-77.318 2707.15,-66.2933 2697.34,-56 2664.92,-22.0054 1935,-12.82 1781.5,-11.2614"/>
<polygon fill="midnightblue" stroke="midnightblue" points="1781.12,-7.75748 1771.08,-11.1584 1781.05,-14.7571 1781.12,-7.75748"/>
</g>
<!-- Node13 -->
<g id="node8" class="node"><title>Node13</title>
<polygon fill="white" stroke="#bfbfbf" points="1099.34,-0.5 1099.34,-19.5 1129.34,-19.5 1129.34,-0.5 1099.34,-0.5"/>
<text text-anchor="middle" x="1114.34" y="-7.5" font-family="Helvetica,sans-Serif" font-size="10.00">set</text>
</g>
<!-- Node1&#45;&gt;Node13 -->
<g id="edge13" class="edge"><title>Node1&#45;&gt;Node13</title>
<path fill="none" stroke="midnightblue" d="M2344.75,-124.49C2335.18,-107.734 2311.3,-70.809 2279.34,-56 2174.72,-7.53607 1357.47,-26.0442 1242.34,-20 1206.71,-18.1299 1165.58,-15.0782 1139.76,-13.0546"/>
<polygon fill="midnightblue" stroke="midnightblue" points="1139.94,-9.55795 1129.69,-12.2568 1139.39,-16.5361 1139.94,-9.55795"/>
</g>
<!-- Node1&#45;&gt;Node4 -->
<g id="edge14" class="edge"><title>Node1&#45;&gt;Node4</title>
<path fill="none" stroke="midnightblue" d="M2352.99,-124.438C2359.11,-108.563 2369.14,-74.5015 2351.34,-56 2315.33,-18.5813 1469.19,-22.6541 1417.34,-20 1381.17,-18.149 1339.82,-15.4396 1311.3,-13.4776"/>
<polygon fill="midnightblue" stroke="midnightblue" points="1311.25,-9.9659 1301.03,-12.7655 1310.76,-16.9491 1311.25,-9.9659"/>
</g>
<!-- Node14 -->
<g id="node10" class="node"><title>Node14</title>
<polygon fill="white" stroke="#bfbfbf" points="1426.84,-0.5 1426.84,-19.5 1467.84,-19.5 1467.84,-0.5 1426.84,-0.5"/>
<text text-anchor="middle" x="1447.34" y="-7.5" font-family="Helvetica,sans-Serif" font-size="10.00">string</text>
</g>
<!-- Node1&#45;&gt;Node14 -->
<g id="edge15" class="edge"><title>Node1&#45;&gt;Node14</title>
<path fill="none" stroke="midnightblue" d="M2371.51,-130.972C2427.94,-125.05 2569.32,-104.997 2522.34,-56 2513.05,-46.3127 1653.2,-17.7241 1478.21,-12.0032"/>
<polygon fill="midnightblue" stroke="midnightblue" points="1478.24,-8.50244 1468.13,-11.6743 1478.01,-15.4987 1478.24,-8.50244"/>
</g>
<!-- Node21 -->
<g id="node12" class="node"><title>Node21</title>
<g id="a_node12"><a xlink:href="sync_8h.html" target="_top" xlink:title="sync.h">
<polygon fill="white" stroke="red" points="1513.34,-62.5 1513.34,-81.5 1559.34,-81.5 1559.34,-62.5 1513.34,-62.5"/>
<text text-anchor="middle" x="1536.34" y="-69.5" font-family="Helvetica,sans-Serif" font-size="10.00">sync.h</text>
</a>
</g>
</g>
<!-- Node1&#45;&gt;Node21 -->
<g id="edge11" class="edge"><title>Node1&#45;&gt;Node21</title>
<path fill="none" stroke="midnightblue" d="M2327.23,-132.227C2207.95,-127.988 1643.63,-107.061 1568.34,-88 1565.84,-87.3676 1563.3,-86.5389 1560.8,-85.5954"/>
<polygon fill="midnightblue" stroke="midnightblue" points="1562.09,-82.339 1551.52,-81.5599 1559.29,-88.7581 1562.09,-82.339"/>
</g>
<!-- Node2&#45;&gt;Node6 -->
<g id="edge3" class="edge"><title>Node2&#45;&gt;Node6</title>
<path fill="none" stroke="midnightblue" d="M1015.52,-68.1061C909.868,-58.1862 562.471,-25.5668 445.88,-14.6192"/>
<polygon fill="midnightblue" stroke="midnightblue" points="445.933,-11.1089 435.649,-13.6586 445.278,-18.0782 445.933,-11.1089"/>
</g>
<!-- Node7 -->
<g id="node5" class="node"><title>Node7</title>
<polygon fill="white" stroke="#bfbfbf" points="705.335,-0.5 705.335,-19.5 757.335,-19.5 757.335,-0.5 705.335,-0.5"/>
<text text-anchor="middle" x="731.335" y="-7.5" font-family="Helvetica,sans-Serif" font-size="10.00">assert.h</text>
</g>
<!-- Node2&#45;&gt;Node7 -->
<g id="edge4" class="edge"><title>Node2&#45;&gt;Node7</title>
<path fill="none" stroke="midnightblue" d="M1015.56,-65.1377C957.168,-54.0156 830.561,-29.9 767.933,-17.9709"/>
<polygon fill="midnightblue" stroke="midnightblue" points="768.21,-14.4608 757.731,-16.0278 766.9,-21.3372 768.21,-14.4608"/>
</g>
<!-- Node2&#45;&gt;Node11 -->
<g id="edge5" class="edge"><title>Node2&#45;&gt;Node11</title>
<path fill="none" stroke="midnightblue" d="M1077.17,-68.3833C1194.71,-58.4077 1613.72,-22.8483 1725.67,-13.3479"/>
<polygon fill="midnightblue" stroke="midnightblue" points="1726.14,-16.8206 1735.81,-12.4874 1725.55,-9.84566 1726.14,-16.8206"/>
</g>
<!-- Node12 -->
<g id="node7" class="node"><title>Node12</title>
<polygon fill="white" stroke="#bfbfbf" points="144.335,-0.5 144.335,-19.5 196.335,-19.5 196.335,-0.5 144.335,-0.5"/>
<text text-anchor="middle" x="170.335" y="-7.5" font-family="Helvetica,sans-Serif" font-size="10.00">memory</text>
</g>
<!-- Node2&#45;&gt;Node12 -->
<g id="edge6" class="edge"><title>Node2&#45;&gt;Node12</title>
<path fill="none" stroke="midnightblue" d="M1015.67,-68.8997C881.989,-59.7434 350.401,-23.3332 206.446,-13.4733"/>
<polygon fill="midnightblue" stroke="midnightblue" points="206.595,-9.97542 196.379,-12.7838 206.117,-16.9591 206.595,-9.97542"/>
</g>
<!-- Node2&#45;&gt;Node13 -->
<g id="edge7" class="edge"><title>Node2&#45;&gt;Node13</title>
<path fill="none" stroke="midnightblue" d="M1056.08,-62.4035C1066.68,-53.047 1083.85,-37.8948 1096.81,-26.4599"/>
<polygon fill="midnightblue" stroke="midnightblue" points="1099.43,-28.8213 1104.61,-19.5806 1094.8,-23.5724 1099.43,-28.8213"/>
</g>
<!-- Node2&#45;&gt;Node4 -->
<g id="edge8" class="edge"><title>Node2&#45;&gt;Node4</title>
<path fill="none" stroke="midnightblue" d="M1076.88,-63.0325C1119.62,-51.8832 1197.04,-31.6856 1241.82,-20.0045"/>
<polygon fill="midnightblue" stroke="midnightblue" points="1242.86,-23.3491 1251.66,-17.4382 1241.1,-16.5758 1242.86,-23.3491"/>
</g>
<!-- Node2&#45;&gt;Node14 -->
<g id="edge9" class="edge"><title>Node2&#45;&gt;Node14</title>
<path fill="none" stroke="midnightblue" d="M1077.14,-66.3915C1151.77,-55.2235 1341.67,-26.8109 1416.42,-15.6255"/>
<polygon fill="midnightblue" stroke="midnightblue" points="1417.22,-19.0456 1426.59,-14.1042 1416.18,-12.1226 1417.22,-19.0456"/>
</g>
<!-- Node17 -->
<g id="node11" class="node"><title>Node17</title>
<polygon fill="white" stroke="#bfbfbf" points="597.335,-0.5 597.335,-19.5 641.335,-19.5 641.335,-0.5 597.335,-0.5"/>
<text text-anchor="middle" x="619.335" y="-7.5" font-family="Helvetica,sans-Serif" font-size="10.00">vector</text>
</g>
<!-- Node2&#45;&gt;Node17 -->
<g id="edge10" class="edge"><title>Node2&#45;&gt;Node17</title>
<path fill="none" stroke="midnightblue" d="M1015.65,-65.0863C1000.02,-62.1677 980.698,-58.7029 963.335,-56 903.491,-46.6838 725.376,-24.2335 651.745,-15.0344"/>
<polygon fill="midnightblue" stroke="midnightblue" points="652.023,-11.542 641.666,-13.7765 651.156,-18.4881 652.023,-11.542"/>
</g>
<!-- Node27&#45;&gt;Node14 -->
<g id="edge63" class="edge"><title>Node27&#45;&gt;Node14</title>
<path fill="none" stroke="midnightblue" d="M406.573,-295.16C498.402,-275.984 796.634,-212.257 1039.34,-144 1182.25,-103.806 1349.89,-45.6006 1417.16,-21.7776"/>
<polygon fill="midnightblue" stroke="midnightblue" points="1418.46,-25.031 1426.71,-18.3876 1416.12,-18.4343 1418.46,-25.031"/>
</g>
<!-- Node27&#45;&gt;Node17 -->
<g id="edge64" class="edge"><title>Node27&#45;&gt;Node17</title>
<path fill="none" stroke="midnightblue" d="M377.137,-292.375C372.804,-257.414 361.523,-124.851 428.335,-56 450.107,-33.5641 538.832,-20.1687 587.319,-14.3828"/>
<polygon fill="midnightblue" stroke="midnightblue" points="587.767,-17.8544 597.3,-13.2315 586.965,-10.9005 587.767,-17.8544"/>
</g>
<!-- Node28 -->
<g id="node14" class="node"><title>Node28</title>
<g id="a_node14"><a xlink:href="chainparams_8h.html" target="_top" xlink:title="chainparams.h">
<polygon fill="white" stroke="red" points="444.335,-236.5 444.335,-255.5 524.335,-255.5 524.335,-236.5 444.335,-236.5"/>
<text text-anchor="middle" x="484.335" y="-243.5" font-family="Helvetica,sans-Serif" font-size="10.00">chainparams.h</text>
</a>
</g>
</g>
<!-- Node27&#45;&gt;Node28 -->
<g id="edge17" class="edge"><title>Node27&#45;&gt;Node28</title>
<path fill="none" stroke="midnightblue" d="M395.366,-292.324C412.365,-283.664 438.712,-270.242 458.328,-260.249"/>
<polygon fill="midnightblue" stroke="midnightblue" points="460.025,-263.312 467.347,-255.655 456.848,-257.075 460.025,-263.312"/>
</g>
<!-- Node58 -->
<g id="node21" class="node"><title>Node58</title>
<g id="a_node21"><a xlink:href="key_8h.html" target="_top" xlink:title="key.h">
<polygon fill="white" stroke="red" points="308.835,-236.5 308.835,-255.5 349.835,-255.5 349.835,-236.5 308.835,-236.5"/>
<text text-anchor="middle" x="329.335" y="-243.5" font-family="Helvetica,sans-Serif" font-size="10.00">key.h</text>
</a>
</g>
</g>
<!-- Node27&#45;&gt;Node58 -->
<g id="edge36" class="edge"><title>Node27&#45;&gt;Node58</title>
<path fill="none" stroke="midnightblue" d="M370.244,-292.083C363.18,-284.298 352.748,-272.801 344.186,-263.367"/>
<polygon fill="midnightblue" stroke="midnightblue" points="346.588,-260.805 337.276,-255.751 341.404,-265.509 346.588,-260.805"/>
</g>
<!-- Node27&#45;&gt;Node59 -->
<g id="edge50" class="edge"><title>Node27&#45;&gt;Node59</title>
<path fill="none" stroke="midnightblue" d="M358.883,-292.427C342.067,-284.456 317.651,-271.498 299.335,-256 282.741,-241.958 267.476,-222.187 257.634,-208.145"/>
<polygon fill="midnightblue" stroke="midnightblue" points="260.513,-206.156 251.99,-199.863 254.729,-210.097 260.513,-206.156"/>
</g>
<!-- Node38 -->
<g id="node24" class="node"><title>Node38</title>
<g id="a_node24"><a xlink:href="script_8h.html" target="_top" xlink:title="script/script.h">
<polygon fill="white" stroke="red" points="581.335,-62.5 581.335,-81.5 657.335,-81.5 657.335,-62.5 581.335,-62.5"/>
<text text-anchor="middle" x="619.335" y="-69.5" font-family="Helvetica,sans-Serif" font-size="10.00">script/script.h</text>
</a>
</g>
</g>
<!-- Node27&#45;&gt;Node38 -->
<g id="edge51" class="edge"><title>Node27&#45;&gt;Node38</title>
<path fill="none" stroke="midnightblue" d="M353.884,-292.44C332.599,-284.477 301.326,-271.524 276.335,-256 238.085,-232.24 182.757,-216.349 209.335,-180 230.977,-150.403 467.56,-102.013 571.186,-82.049"/>
<polygon fill="midnightblue" stroke="midnightblue" points="571.921,-85.4718 581.083,-80.1509 570.603,-78.5971 571.921,-85.4718"/>
</g>
<!-- Node80 -->
<g id="node25" class="node"><title>Node80</title>
<g id="a_node25"><a xlink:href="standard_8h.html" target="_top" xlink:title="script/standard.h">
<polygon fill="white" stroke="red" points="603.835,-124.5 603.835,-143.5 692.835,-143.5 692.835,-124.5 603.835,-124.5"/>
<text text-anchor="middle" x="648.335" y="-131.5" font-family="Helvetica,sans-Serif" font-size="10.00">script/standard.h</text>
</a>
</g>
</g>
<!-- Node27&#45;&gt;Node80 -->
<g id="edge57" class="edge"><title>Node27&#45;&gt;Node80</title>
<path fill="none" stroke="midnightblue" d="M406.434,-297.379C438.935,-292.205 493.121,-280.472 533.335,-256 578.537,-228.493 617.758,-178.675 636.537,-152.362"/>
<polygon fill="midnightblue" stroke="midnightblue" points="639.649,-154.019 642.504,-143.816 633.91,-150.011 639.649,-154.019"/>
</g>
<!-- Node84 -->
<g id="node26" class="node"><title>Node84</title>
<g id="a_node26"><a xlink:href="zeroafterfree_8h.html" target="_top" xlink:title="support/allocators\l/zeroafterfree.h">
<polygon fill="white" stroke="red" points="123.335,-57 123.335,-87 217.335,-87 217.335,-57 123.335,-57"/>
<text text-anchor="start" x="131.335" y="-75" font-family="Helvetica,sans-Serif" font-size="10.00">support/allocators</text>
<text text-anchor="middle" x="170.335" y="-64" font-family="Helvetica,sans-Serif" font-size="10.00">/zeroafterfree.h</text>
</a>
</g>
</g>
<!-- Node27&#45;&gt;Node84 -->
<g id="edge60" class="edge"><title>Node27&#45;&gt;Node84</title>
<path fill="none" stroke="midnightblue" d="M349.968,-297.905C301.464,-290.811 205.042,-268.318 176.335,-200 162.269,-166.525 163.803,-123.631 166.696,-97.2456"/>
<polygon fill="midnightblue" stroke="midnightblue" points="170.206,-97.3815 167.978,-87.0238 163.261,-96.5106 170.206,-97.3815"/>
</g>
<!-- Node28&#45;&gt;Node17 -->
<g id="edge35" class="edge"><title>Node28&#45;&gt;Node17</title>
<path fill="none" stroke="midnightblue" d="M478.261,-236.392C458.718,-207.552 401.236,-112.956 445.335,-56 462.57,-33.741 541.957,-20.5037 587.316,-14.6289"/>
<polygon fill="midnightblue" stroke="midnightblue" points="587.761,-18.1006 597.251,-13.3893 586.894,-11.1545 587.761,-18.1006"/>
</g>
<!-- Node40 -->
<g id="node15" class="node"><title>Node40</title>
<g id="a_node15"><a xlink:href="protocol_8h.html" target="_top" xlink:title="protocol.h">
<polygon fill="white" stroke="red" points="1316.84,-180.5 1316.84,-199.5 1375.84,-199.5 1375.84,-180.5 1316.84,-180.5"/>
<text text-anchor="middle" x="1346.34" y="-187.5" font-family="Helvetica,sans-Serif" font-size="10.00">protocol.h</text>
</a>
</g>
</g>
<!-- Node28&#45;&gt;Node40 -->
<g id="edge18" class="edge"><title>Node28&#45;&gt;Node40</title>
<path fill="none" stroke="midnightblue" d="M524.468,-242.486C669.08,-233.427 1162.52,-202.515 1306.56,-193.492"/>
<polygon fill="midnightblue" stroke="midnightblue" points="1306.94,-196.975 1316.7,-192.856 1306.5,-189.989 1306.94,-196.975"/>
</g>
<!-- Node40&#45;&gt;Node2 -->
<g id="edge26" class="edge"><title>Node40&#45;&gt;Node2</title>
<path fill="none" stroke="midnightblue" d="M1325.86,-180.315C1295.69,-167.588 1237.43,-143.289 1187.34,-124 1151.05,-110.026 1109.1,-94.9943 1080.45,-84.8977"/>
<polygon fill="midnightblue" stroke="midnightblue" points="1081.5,-81.5562 1070.9,-81.542 1079.18,-88.1601 1081.5,-81.5562"/>
</g>
<!-- Node40&#45;&gt;Node4 -->
<g id="edge33" class="edge"><title>Node40&#45;&gt;Node4</title>
<path fill="none" stroke="midnightblue" d="M1342.96,-180.415C1332.18,-152.992 1298.4,-67.0986 1283.51,-29.2356"/>
<polygon fill="midnightblue" stroke="midnightblue" points="1286.76,-27.9438 1279.84,-19.9185 1280.25,-30.5057 1286.76,-27.9438"/>
</g>
<!-- Node40&#45;&gt;Node14 -->
<g id="edge34" class="edge"><title>Node40&#45;&gt;Node14</title>
<path fill="none" stroke="midnightblue" d="M1351.18,-180.143C1358.05,-167.61 1371.05,-143.996 1382.34,-124 1401.44,-90.1593 1424.16,-50.8795 1437.05,-28.6803"/>
<polygon fill="midnightblue" stroke="midnightblue" points="1440.23,-30.168 1442.23,-19.7635 1434.18,-26.6503 1440.23,-30.168"/>
</g>
<!-- Node41 -->
<g id="node16" class="node"><title>Node41</title>
<g id="a_node16"><a xlink:href="netaddress_8h.html" target="_top" xlink:title="netaddress.h">
<polygon fill="white" stroke="black" points="1391.84,-124.5 1391.84,-143.5 1464.84,-143.5 1464.84,-124.5 1391.84,-124.5"/>
<text text-anchor="middle" x="1428.34" y="-131.5" font-family="Helvetica,sans-Serif" font-size="10.00">netaddress.h</text>
</a>
</g>
</g>
<!-- Node40&#45;&gt;Node41 -->
<g id="edge19" class="edge"><title>Node40&#45;&gt;Node41</title>
<path fill="none" stroke="midnightblue" d="M1359.51,-180.324C1372.18,-171.979 1391.57,-159.212 1406.54,-149.352"/>
<polygon fill="midnightblue" stroke="midnightblue" points="1408.77,-152.078 1415.19,-143.655 1404.92,-146.231 1408.77,-152.078"/>
</g>
<!-- Node31 -->
<g id="node19" class="node"><title>Node31</title>
<g id="a_node19"><a xlink:href="uint256_8h.html" target="_top" xlink:title="uint256.h">
<polygon fill="white" stroke="red" points="675.335,-62.5 675.335,-81.5 731.335,-81.5 731.335,-62.5 675.335,-62.5"/>
<text text-anchor="middle" x="703.335" y="-69.5" font-family="Helvetica,sans-Serif" font-size="10.00">uint256.h</text>
</a>
</g>
</g>
<!-- Node40&#45;&gt;Node31 -->
<g id="edge27" class="edge"><title>Node40&#45;&gt;Node31</title>
<path fill="none" stroke="midnightblue" d="M1316.49,-187.292C1211.63,-181.176 863.844,-159.894 816.335,-144 813.836,-143.164 757.757,-107.619 725.56,-87.1478"/>
<polygon fill="midnightblue" stroke="midnightblue" points="727.113,-83.9881 716.797,-81.5741 723.356,-89.8944 727.113,-83.9881"/>
</g>
<!-- Node41&#45;&gt;Node2 -->
<g id="edge22" class="edge"><title>Node41&#45;&gt;Node2</title>
<path fill="none" stroke="midnightblue" d="M1391.52,-130.375C1329.12,-125.417 1198.88,-112.868 1091.34,-88 1087.39,-87.0868 1083.29,-85.9703 1079.26,-84.7624"/>
<polygon fill="midnightblue" stroke="midnightblue" points="1080.04,-81.3398 1069.45,-81.6354 1077.92,-88.0088 1080.04,-81.3398"/>
</g>
<!-- Node41&#45;&gt;Node4 -->
<g id="edge23" class="edge"><title>Node41&#45;&gt;Node4</title>
<path fill="none" stroke="midnightblue" d="M1417.4,-124.226C1391.77,-103.651 1327.53,-52.0865 1295.34,-26.2517"/>
<polygon fill="midnightblue" stroke="midnightblue" points="1297.16,-23.2244 1287.17,-19.6944 1292.78,-28.6835 1297.16,-23.2244"/>
</g>
<!-- Node41&#45;&gt;Node14 -->
<g id="edge24" class="edge"><title>Node41&#45;&gt;Node14</title>
<path fill="none" stroke="midnightblue" d="M1429.7,-124.226C1432.77,-104.53 1440.26,-56.4371 1444.42,-29.7004"/>
<polygon fill="midnightblue" stroke="midnightblue" points="1447.9,-30.1139 1445.98,-19.6944 1440.98,-29.0367 1447.9,-30.1139"/>
</g>
<!-- Node41&#45;&gt;Node17 -->
<g id="edge25" class="edge"><title>Node41&#45;&gt;Node17</title>
<path fill="none" stroke="midnightblue" d="M1396.44,-124.394C1336.15,-108.448 1201.08,-74.2701 1085.34,-56 913.831,-28.9285 869.019,-38.0798 696.335,-20 681.615,-18.4588 665.333,-16.581 651.547,-14.9401"/>
<polygon fill="midnightblue" stroke="midnightblue" points="651.905,-11.458 641.559,-13.741 651.07,-18.4081 651.905,-11.458"/>
</g>
<!-- Node42 -->
<g id="node17" class="node"><title>Node42</title>
<g id="a_node17"><a xlink:href="compat_8h.html" target="_top" xlink:title="compat.h">
<polygon fill="white" stroke="red" points="1921.84,-62.5 1921.84,-81.5 1978.84,-81.5 1978.84,-62.5 1921.84,-62.5"/>
<text text-anchor="middle" x="1950.34" y="-69.5" font-family="Helvetica,sans-Serif" font-size="10.00">compat.h</text>
</a>
</g>
</g>
<!-- Node41&#45;&gt;Node42 -->
<g id="edge20" class="edge"><title>Node41&#45;&gt;Node42</title>
<path fill="none" stroke="midnightblue" d="M1465.04,-128.781C1560.2,-117.843 1814.22,-88.6455 1911.6,-77.4525"/>
<polygon fill="midnightblue" stroke="midnightblue" points="1912.07,-80.9215 1921.6,-76.3024 1911.27,-73.9673 1912.07,-80.9215"/>
</g>
<!-- Node51 -->
<g id="node18" class="node"><title>Node51</title>
<polygon fill="white" stroke="#bfbfbf" points="2388.34,-0.5 2388.34,-19.5 2450.34,-19.5 2450.34,-0.5 2388.34,-0.5"/>
<text text-anchor="middle" x="2419.34" y="-7.5" font-family="Helvetica,sans-Serif" font-size="10.00">arpa/inet.h</text>
</g>
<!-- Node42&#45;&gt;Node51 -->
<g id="edge21" class="edge"><title>Node42&#45;&gt;Node51</title>
<path fill="none" stroke="midnightblue" d="M1968.44,-62.4766C1974.35,-60.0184 1981.01,-57.5771 1987.34,-56 2127.61,-21.0056 2300.09,-13.1876 2377.85,-11.4678"/>
<polygon fill="midnightblue" stroke="midnightblue" points="2378.25,-14.9606 2388.18,-11.2634 2378.11,-7.96201 2378.25,-14.9606"/>
</g>
<!-- Node31&#45;&gt;Node7 -->
<g id="edge28" class="edge"><title>Node31&#45;&gt;Node7</title>
<path fill="none" stroke="midnightblue" d="M707.347,-62.4035C711.422,-53.6707 717.854,-39.8893 723.032,-28.7936"/>
<polygon fill="midnightblue" stroke="midnightblue" points="726.274,-30.1225 727.331,-19.5806 719.931,-27.1623 726.274,-30.1225"/>
</g>
<!-- Node31&#45;&gt;Node4 -->
<g id="edge30" class="edge"><title>Node31&#45;&gt;Node4</title>
<path fill="none" stroke="midnightblue" d="M731.442,-67.2034C755.333,-64.0299 790.555,-59.4778 821.335,-56 978.029,-38.2956 1165.52,-20.9705 1241.66,-14.0972"/>
<polygon fill="midnightblue" stroke="midnightblue" points="1242,-17.5805 1251.65,-13.1977 1241.38,-10.6087 1242,-17.5805"/>
</g>
<!-- Node31&#45;&gt;Node14 -->
<g id="edge31" class="edge"><title>Node31&#45;&gt;Node14</title>
<path fill="none" stroke="midnightblue" d="M731.593,-68.7212C848.568,-59.2877 1294.45,-23.3296 1416.37,-13.4976"/>
<polygon fill="midnightblue" stroke="midnightblue" points="1416.81,-16.9728 1426.5,-12.6802 1416.25,-9.99546 1416.81,-16.9728"/>
</g>
<!-- Node31&#45;&gt;Node17 -->
<g id="edge32" class="edge"><title>Node31&#45;&gt;Node17</title>
<path fill="none" stroke="midnightblue" d="M691.3,-62.4035C677.827,-52.7797 655.769,-37.0242 639.62,-25.4891"/>
<polygon fill="midnightblue" stroke="midnightblue" points="641.52,-22.5449 631.348,-19.5806 637.451,-28.2411 641.52,-22.5449"/>
</g>
<!-- Node33 -->
<g id="node20" class="node"><title>Node33</title>
<polygon fill="white" stroke="#bfbfbf" points="46.8354,-0.5 46.8354,-19.5 105.835,-19.5 105.835,-0.5 46.8354,-0.5"/>
<text text-anchor="middle" x="76.3354" y="-7.5" font-family="Helvetica,sans-Serif" font-size="10.00">stdexcept</text>
</g>
<!-- Node31&#45;&gt;Node33 -->
<g id="edge29" class="edge"><title>Node31&#45;&gt;Node33</title>
<path fill="none" stroke="midnightblue" d="M685.641,-62.4967C679.644,-59.9767 672.82,-57.4938 666.335,-56 435.831,-2.89745 370.46,-45.8576 135.335,-20 129.05,-19.3087 122.407,-18.4355 115.936,-17.5064"/>
<polygon fill="midnightblue" stroke="midnightblue" points="116.391,-14.0356 105.984,-16.0185 115.356,-20.9587 116.391,-14.0356"/>
</g>
<!-- Node58&#45;&gt;Node2 -->
<g id="edge46" class="edge"><title>Node58&#45;&gt;Node2</title>
<path fill="none" stroke="midnightblue" d="M349.919,-242.594C442.239,-231.639 818.45,-185.245 929.335,-144 948.943,-136.707 996.935,-105.853 1024.99,-87.3021"/>
<polygon fill="midnightblue" stroke="midnightblue" points="1027.27,-89.9846 1033.66,-81.5345 1023.4,-84.1547 1027.27,-89.9846"/>
</g>
<!-- Node58&#45;&gt;Node17 -->
<g id="edge49" class="edge"><title>Node58&#45;&gt;Node17</title>
<path fill="none" stroke="midnightblue" d="M326.848,-236.424C318.855,-206.872 297.048,-108.226 345.335,-56 377.499,-21.2135 521.801,-13.3169 587.08,-11.5253"/>
<polygon fill="midnightblue" stroke="midnightblue" points="587.302,-15.021 597.214,-11.2792 587.132,-8.02307 587.302,-15.021"/>
</g>
<!-- Node58&#45;&gt;Node31 -->
<g id="edge47" class="edge"><title>Node58&#45;&gt;Node31</title>
<path fill="none" stroke="midnightblue" d="M337.978,-236.353C360.909,-213.948 426.082,-153.69 492.335,-124 564.401,-91.7052 590.766,-110.929 666.335,-88 668.98,-87.1975 671.699,-86.2811 674.404,-85.3057"/>
<polygon fill="midnightblue" stroke="midnightblue" points="675.914,-88.4747 683.987,-81.6131 673.397,-81.9428 675.914,-88.4747"/>
</g>
<!-- Node58&#45;&gt;Node33 -->
<g id="edge48" class="edge"><title>Node58&#45;&gt;Node33</title>
<path fill="none" stroke="midnightblue" d="M308.619,-242.615C248.218,-234.402 72.3446,-201.233 5.33539,-88 -1.90777,-75.7604 -1.51985,-68.461 5.33539,-56 13.2226,-41.6632 27.821,-31.2525 41.7387,-24.0792"/>
<polygon fill="midnightblue" stroke="midnightblue" points="43.6276,-27.0578 51.1744,-19.6217 40.6375,-20.7285 43.6276,-27.0578"/>
</g>
<!-- Node58&#45;&gt;Node59 -->
<g id="edge37" class="edge"><title>Node58&#45;&gt;Node59</title>
<path fill="none" stroke="midnightblue" d="M316,-236.324C303.173,-227.979 283.55,-215.212 268.396,-205.352"/>
<polygon fill="midnightblue" stroke="midnightblue" points="269.929,-202.174 259.638,-199.655 266.111,-208.042 269.929,-202.174"/>
</g>
<!-- Node59&#45;&gt;Node2 -->
<g id="edge42" class="edge"><title>Node59&#45;&gt;Node2</title>
<path fill="none" stroke="midnightblue" d="M274.373,-188.404C382.664,-185.893 773.525,-174.843 893.335,-144 896.631,-143.152 975.853,-106.08 1018.97,-85.8525"/>
<polygon fill="midnightblue" stroke="midnightblue" points="1020.52,-88.9919 1028.08,-81.575 1017.54,-82.6551 1020.52,-88.9919"/>
</g>
<!-- Node59&#45;&gt;Node17 -->
<g id="edge45" class="edge"><title>Node59&#45;&gt;Node17</title>
<path fill="none" stroke="midnightblue" d="M244.745,-180.281C240.95,-156.442 234.131,-89.7094 269.335,-56 292.121,-34.1821 504.811,-18.3421 587.07,-12.9843"/>
<polygon fill="midnightblue" stroke="midnightblue" points="587.353,-16.4734 597.109,-12.3405 586.905,-9.4878 587.353,-16.4734"/>
</g>
<!-- Node59&#45;&gt;Node31 -->
<g id="edge43" class="edge"><title>Node59&#45;&gt;Node31</title>
<path fill="none" stroke="midnightblue" d="M270.663,-180.495C309.942,-167.008 389.95,-140.553 459.335,-124 550.167,-102.331 576.557,-113.687 666.335,-88 669.147,-87.1956 672.036,-86.249 674.902,-85.2288"/>
<polygon fill="midnightblue" stroke="midnightblue" points="676.326,-88.4314 684.405,-81.5771 673.815,-81.8972 676.326,-88.4314"/>
</g>
<!-- Node59&#45;&gt;Node33 -->
<g id="edge44" class="edge"><title>Node59&#45;&gt;Node33</title>
<path fill="none" stroke="midnightblue" d="M218.322,-180.838C179.936,-168.017 112.235,-139.179 81.3354,-88 70.759,-70.4825 71.0239,-46.4556 72.9581,-29.9241"/>
<polygon fill="midnightblue" stroke="midnightblue" points="76.4473,-30.2538 74.451,-19.8488 69.5229,-29.2277 76.4473,-30.2538"/>
</g>
<!-- Node60 -->
<g id="node23" class="node"><title>Node60</title>
<g id="a_node23"><a xlink:href="hash_8h.html" target="_top" xlink:title="hash.h">
<polygon fill="white" stroke="red" points="501.335,-124.5 501.335,-143.5 547.335,-143.5 547.335,-124.5 501.335,-124.5"/>
<text text-anchor="middle" x="524.335" y="-131.5" font-family="Helvetica,sans-Serif" font-size="10.00">hash.h</text>
</a>
</g>
</g>
<!-- Node59&#45;&gt;Node60 -->
<g id="edge38" class="edge"><title>Node59&#45;&gt;Node60</title>
<path fill="none" stroke="midnightblue" d="M274.521,-183.525C326.264,-173.474 436.141,-152.131 491.298,-141.417"/>
<polygon fill="midnightblue" stroke="midnightblue" points="492.101,-144.827 501.25,-139.484 490.766,-137.955 492.101,-144.827"/>
</g>
<!-- Node60&#45;&gt;Node2 -->
<g id="edge39" class="edge"><title>Node60&#45;&gt;Node2</title>
<path fill="none" stroke="midnightblue" d="M547.339,-129.951C560.991,-128.164 578.643,-125.894 594.335,-124 745.901,-105.707 926.313,-85.9588 1005.57,-77.385"/>
<polygon fill="midnightblue" stroke="midnightblue" points="1006.06,-80.8529 1015.63,-76.2989 1005.31,-73.8934 1006.06,-80.8529"/>
</g>
<!-- Node60&#45;&gt;Node17 -->
<g id="edge41" class="edge"><title>Node60&#45;&gt;Node17</title>
<path fill="none" stroke="midnightblue" d="M501.246,-125.036C484.917,-118.049 464.235,-106.133 454.335,-88 447.52,-75.517 445.703,-67.3025 454.335,-56 470.361,-35.0184 543.746,-21.4718 587.065,-15.1555"/>
<polygon fill="midnightblue" stroke="midnightblue" points="587.703,-18.6002 597.118,-13.7405 586.727,-11.6686 587.703,-18.6002"/>
</g>
<!-- Node60&#45;&gt;Node31 -->
<g id="edge40" class="edge"><title>Node60&#45;&gt;Node31</title>
<path fill="none" stroke="midnightblue" d="M547.642,-126.225C575.929,-117.862 624.977,-102.911 666.335,-88 668.732,-87.1361 671.203,-86.211 673.677,-85.2603"/>
<polygon fill="midnightblue" stroke="midnightblue" points="675.076,-88.471 683.09,-81.5406 672.503,-81.9609 675.076,-88.471"/>
</g>
<!-- Node38&#45;&gt;Node7 -->
<g id="edge52" class="edge"><title>Node38&#45;&gt;Node7</title>
<path fill="none" stroke="midnightblue" d="M635.382,-62.4035C653.929,-52.4678 684.675,-35.9966 706.357,-24.3812"/>
<polygon fill="midnightblue" stroke="midnightblue" points="708.156,-27.388 715.318,-19.5806 704.851,-21.2177 708.156,-27.388"/>
</g>
<!-- Node38&#45;&gt;Node4 -->
<g id="edge54" class="edge"><title>Node38&#45;&gt;Node4</title>
<path fill="none" stroke="midnightblue" d="M642.482,-62.4209C649.994,-59.9597 658.431,-57.5307 666.335,-56 694.7,-50.5072 1115.79,-21.8253 1241.29,-13.3565"/>
<polygon fill="midnightblue" stroke="midnightblue" points="1241.75,-16.8334 1251.49,-12.6686 1241.28,-9.84929 1241.75,-16.8334"/>
</g>
<!-- Node38&#45;&gt;Node14 -->
<g id="edge55" class="edge"><title>Node38&#45;&gt;Node14</title>
<path fill="none" stroke="midnightblue" d="M641.988,-62.4942C649.618,-59.9741 658.249,-57.4917 666.335,-56 947.811,-4.07308 1023.63,-37.3138 1309.34,-20 1346.15,-17.7691 1388.47,-14.975 1416.43,-13.0969"/>
<polygon fill="midnightblue" stroke="midnightblue" points="1417.02,-16.5652 1426.76,-12.4008 1416.55,-9.58107 1417.02,-16.5652"/>
</g>
<!-- Node38&#45;&gt;Node17 -->
<g id="edge56" class="edge"><title>Node38&#45;&gt;Node17</title>
<path fill="none" stroke="midnightblue" d="M619.335,-62.4035C619.335,-53.9381 619.335,-40.7283 619.335,-29.8199"/>
<polygon fill="midnightblue" stroke="midnightblue" points="622.835,-29.5806 619.335,-19.5806 615.835,-29.5806 622.835,-29.5806"/>
</g>
<!-- Node38&#45;&gt;Node33 -->
<g id="edge53" class="edge"><title>Node38&#45;&gt;Node33</title>
<path fill="none" stroke="midnightblue" d="M580.91,-63.6003C566.085,-60.9288 548.962,-58.0659 533.335,-56 357.256,-32.7212 311.652,-41.4017 135.335,-20 129.058,-19.238 122.42,-18.3278 115.951,-17.3834"/>
<polygon fill="midnightblue" stroke="midnightblue" points="116.408,-13.9129 105.999,-15.8875 115.368,-20.8352 116.408,-13.9129"/>
</g>
<!-- Node80&#45;&gt;Node4 -->
<g id="edge59" class="edge"><title>Node80&#45;&gt;Node4</title>
<path fill="none" stroke="midnightblue" d="M672.752,-124.441C718.947,-108.571 822.558,-74.5165 912.335,-56 1031.96,-31.3272 1176.68,-18.3638 1241.73,-13.4146"/>
<polygon fill="midnightblue" stroke="midnightblue" points="1242.12,-16.8952 1251.83,-12.6619 1241.6,-9.91454 1242.12,-16.8952"/>
</g>
<!-- Node80&#45;&gt;Node31 -->
<g id="edge58" class="edge"><title>Node80&#45;&gt;Node31</title>
<path fill="none" stroke="midnightblue" d="M656.216,-124.403C664.629,-115.225 678.155,-100.47 688.561,-89.1173"/>
<polygon fill="midnightblue" stroke="midnightblue" points="691.293,-91.3172 695.47,-81.5806 686.133,-86.5871 691.293,-91.3172"/>
</g>
<!-- Node84&#45;&gt;Node12 -->
<g id="edge61" class="edge"><title>Node84&#45;&gt;Node12</title>
<path fill="none" stroke="midnightblue" d="M170.335,-56.7808C170.335,-48.7812 170.335,-38.6887 170.335,-30.0168"/>
<polygon fill="midnightblue" stroke="midnightblue" points="173.835,-29.7305 170.335,-19.7305 166.835,-29.7306 173.835,-29.7305"/>
</g>
<!-- Node84&#45;&gt;Node17 -->
<g id="edge62" class="edge"><title>Node84&#45;&gt;Node17</title>
<path fill="none" stroke="midnightblue" d="M217.498,-58.7817C222.157,-57.7619 226.828,-56.8123 231.335,-56 362.197,-32.4181 520.224,-18.5607 587.028,-13.3659"/>
<polygon fill="midnightblue" stroke="midnightblue" points="587.612,-16.8315 597.316,-12.5786 587.078,-9.85188 587.612,-16.8315"/>
</g>
<!-- Node85&#45;&gt;Node14 -->
<g id="edge66" class="edge"><title>Node85&#45;&gt;Node14</title>
<path fill="none" stroke="midnightblue" d="M2605.24,-62.44C2596.46,-59.9162 2586.56,-57.4455 2577.34,-56 2521.58,-47.2673 1654.37,-17.9185 1478.36,-12.0329"/>
<polygon fill="midnightblue" stroke="midnightblue" points="1478.34,-8.53028 1468.22,-11.6944 1478.1,-15.5264 1478.34,-8.53028"/>
</g>
<!-- Node85&#45;&gt;Node17 -->
<g id="edge67" class="edge"><title>Node85&#45;&gt;Node17</title>
<path fill="none" stroke="midnightblue" d="M2591.14,-65.1907C2566.44,-61.8763 2534.12,-57.9952 2505.34,-56 1703.1,-0.401468 1498.63,-74.7422 696.335,-20 681.569,-18.9925 665.28,-17.1898 651.502,-15.461"/>
<polygon fill="midnightblue" stroke="midnightblue" points="651.889,-11.9819 641.522,-14.1678 650.989,-18.9239 651.889,-11.9819"/>
</g>
<!-- Node86&#45;&gt;Node12 -->
<g id="edge130" class="edge"><title>Node86&#45;&gt;Node12</title>
<path fill="none" stroke="midnightblue" d="M1511.18,-300.718C1374,-298.634 543.197,-284.881 435.335,-256 425.614,-253.397 119.547,-96.6096 114.335,-88 106.971,-75.8332 108.188,-68.8252 114.335,-56 120.588,-42.9542 132.671,-32.4921 144.018,-24.9506"/>
<polygon fill="midnightblue" stroke="midnightblue" points="146.145,-27.7515 152.834,-19.5351 142.481,-21.7869 146.145,-27.7515"/>
</g>
<!-- Node86&#45;&gt;Node4 -->
<g id="edge128" class="edge"><title>Node86&#45;&gt;Node4</title>
<path fill="none" stroke="midnightblue" d="M1549.57,-299.281C1594.6,-294.861 1704.99,-281.611 1730.34,-256 1792.92,-192.775 1787.08,-117.01 1722.34,-56 1707.38,-41.9048 1413.34,-20.4254 1311.05,-13.3501"/>
<polygon fill="midnightblue" stroke="midnightblue" points="1311.15,-9.8487 1300.93,-12.654 1310.67,-16.8322 1311.15,-9.8487"/>
</g>
<!-- Node86&#45;&gt;Node21 -->
<g id="edge120" class="edge"><title>Node86&#45;&gt;Node21</title>
<path fill="none" stroke="midnightblue" d="M1511.27,-298.767C1469.24,-293.07 1374.63,-275.561 1404.34,-236 1438.8,-190.112 1485.94,-238.674 1528.34,-200 1554.31,-176.302 1555.03,-158.849 1550.34,-124 1548.84,-112.893 1545.59,-100.783 1542.59,-91.152"/>
<polygon fill="midnightblue" stroke="midnightblue" points="1545.87,-89.9267 1539.43,-81.5168 1539.22,-92.1096 1545.87,-89.9267"/>
</g>
<!-- Node86&#45;&gt;Node40 -->
<g id="edge108" class="edge"><title>Node86&#45;&gt;Node40</title>
<path fill="none" stroke="midnightblue" d="M1549.6,-299.334C1596.72,-294.566 1711.29,-278.376 1674.34,-236 1637.32,-193.56 1464.8,-189.725 1385.9,-190.261"/>
<polygon fill="midnightblue" stroke="midnightblue" points="1385.82,-186.761 1375.86,-190.357 1385.89,-193.761 1385.82,-186.761"/>
</g>
<!-- Node86&#45;&gt;Node41 -->
<g id="edge107" class="edge"><title>Node86&#45;&gt;Node41</title>
<path fill="none" stroke="midnightblue" d="M1549.41,-300.463C1599.41,-298.332 1727.98,-287.802 1692.34,-236 1643.42,-164.918 1537.16,-143.833 1475.4,-137.598"/>
<polygon fill="midnightblue" stroke="midnightblue" points="1475.43,-134.086 1465.15,-136.659 1474.79,-141.057 1475.43,-134.086"/>
</g>
<!-- Node86&#45;&gt;Node42 -->
<g id="edge102" class="edge"><title>Node86&#45;&gt;Node42</title>
<path fill="none" stroke="midnightblue" d="M1549.4,-300.412C1609.76,-298.225 1795.62,-288.906 1844.34,-256 1859.93,-245.466 1918.54,-134.423 1941.26,-90.6221"/>
<polygon fill="midnightblue" stroke="midnightblue" points="1944.39,-92.1803 1945.88,-81.6899 1938.17,-88.9651 1944.39,-92.1803"/>
</g>
<!-- Node86&#45;&gt;Node51 -->
<g id="edge132" class="edge"><title>Node86&#45;&gt;Node51</title>
<path fill="none" stroke="midnightblue" d="M1549.37,-300.159C1701.47,-293.245 2716.09,-243.53 2802.34,-144 2899.32,-32.0763 2578.18,-14.2885 2460.69,-11.5028"/>
<polygon fill="midnightblue" stroke="midnightblue" points="2460.7,-8.00231 2450.63,-11.2894 2460.55,-15.0007 2460.7,-8.00231"/>
</g>
<!-- Node86&#45;&gt;Node31 -->
<g id="edge121" class="edge"><title>Node86&#45;&gt;Node31</title>
<path fill="none" stroke="midnightblue" d="M1511.21,-300.522C1424.6,-298.2 1068.85,-286.923 962.335,-256 859.998,-226.29 829.313,-215.542 750.335,-144 733.619,-128.858 720.133,-106.544 711.965,-90.9867"/>
<polygon fill="midnightblue" stroke="midnightblue" points="715.006,-89.2424 707.385,-81.882 708.753,-92.3882 715.006,-89.2424"/>
</g>
<!-- Node86&#45;&gt;Node60 -->
<g id="edge103" class="edge"><title>Node86&#45;&gt;Node60</title>
<path fill="none" stroke="midnightblue" d="M1511.18,-301.174C1404.08,-301.957 878.837,-303.292 725.335,-256 651.012,-233.102 575.742,-177.05 542.283,-150.037"/>
<polygon fill="midnightblue" stroke="midnightblue" points="544.299,-147.164 534.345,-143.536 539.864,-152.58 544.299,-147.164"/>
</g>
<!-- Node87 -->
<g id="node29" class="node"><title>Node87</title>
<g id="a_node29"><a xlink:href="addrdb_8h.html" target="_top" xlink:title="addrdb.h">
<polygon fill="white" stroke="black" points="2044.34,-124.5 2044.34,-143.5 2098.34,-143.5 2098.34,-124.5 2044.34,-124.5"/>
<text text-anchor="middle" x="2071.34" y="-131.5" font-family="Helvetica,sans-Serif" font-size="10.00">addrdb.h</text>
</a>
</g>
</g>
<!-- Node86&#45;&gt;Node87 -->
<g id="edge69" class="edge"><title>Node86&#45;&gt;Node87</title>
<path fill="none" stroke="midnightblue" d="M1549.59,-301.379C1627.77,-302.585 1920.94,-303.786 1997.34,-256 2035.48,-232.136 2056.88,-180.685 2066,-153.192"/>
<polygon fill="midnightblue" stroke="midnightblue" points="2069.34,-154.22 2068.99,-143.631 2062.66,-152.129 2069.34,-154.22"/>
</g>
<!-- Node88 -->
<g id="node30" class="node"><title>Node88</title>
<polygon fill="white" stroke="#bfbfbf" points="1996.84,-62.5 1996.84,-81.5 2125.84,-81.5 2125.84,-62.5 1996.84,-62.5"/>
<text text-anchor="middle" x="2061.34" y="-69.5" font-family="Helvetica,sans-Serif" font-size="10.00">boost/filesystem/path.hpp</text>
</g>
<!-- Node86&#45;&gt;Node88 -->
<g id="edge133" class="edge"><title>Node86&#45;&gt;Node88</title>
<path fill="none" stroke="midnightblue" d="M1549.49,-300.008C1612.03,-296.528 1809.55,-283.558 1866.34,-256 1942.12,-219.224 1940.22,-180.899 2002.34,-124 2015.67,-111.783 2031.15,-98.4301 2042.91,-88.4527"/>
<polygon fill="midnightblue" stroke="midnightblue" points="2045.35,-90.9751 2050.73,-81.8488 2040.83,-85.6271 2045.35,-90.9751"/>
</g>
<!-- Node89 -->
<g id="node31" class="node"><title>Node89</title>
<g id="a_node31"><a xlink:href="addrman_8h.html" target="_top" xlink:title="addrman.h">
<polygon fill="white" stroke="black" points="1290.34,-236.5 1290.34,-255.5 1352.34,-255.5 1352.34,-236.5 1290.34,-236.5"/>
<text text-anchor="middle" x="1321.34" y="-243.5" font-family="Helvetica,sans-Serif" font-size="10.00">addrman.h</text>
</a>
</g>
</g>
<!-- Node86&#45;&gt;Node89 -->
<g id="edge74" class="edge"><title>Node86&#45;&gt;Node89</title>
<path fill="none" stroke="midnightblue" d="M1511.05,-296.017C1477.41,-287.327 1407.34,-269.222 1362.42,-257.614"/>
<polygon fill="midnightblue" stroke="midnightblue" points="1363.24,-254.212 1352.68,-255.099 1361.49,-260.989 1363.24,-254.212"/>
</g>
<!-- Node90 -->
<g id="node32" class="node"><title>Node90</title>
<g id="a_node32"><a xlink:href="random_8h.html" target="_top" xlink:title="random.h">
<polygon fill="white" stroke="black" points="1126.84,-180.5 1126.84,-199.5 1183.84,-199.5 1183.84,-180.5 1126.84,-180.5"/>
<text text-anchor="middle" x="1155.34" y="-187.5" font-family="Helvetica,sans-Serif" font-size="10.00">random.h</text>
</a>
</g>
</g>
<!-- Node86&#45;&gt;Node90 -->
<g id="edge109" class="edge"><title>Node86&#45;&gt;Node90</title>
<path fill="none" stroke="midnightblue" d="M1511.26,-301.208C1445.12,-301.541 1226.81,-299.282 1175.34,-256 1161.94,-244.737 1157.35,-224.727 1155.86,-209.874"/>
<polygon fill="midnightblue" stroke="midnightblue" points="1159.35,-209.515 1155.23,-199.752 1152.36,-209.95 1159.35,-209.515"/>
</g>
<!-- Node86&#45;&gt;Node92 -->
<g id="edge122" class="edge"><title>Node86&#45;&gt;Node92</title>
<path fill="none" stroke="midnightblue" d="M1549.65,-300.678C1608.14,-299.307 1781.77,-292.206 1822.34,-256 1851.62,-229.864 1856.02,-180.546 1856.07,-153.648"/>
<polygon fill="midnightblue" stroke="midnightblue" points="1859.57,-153.559 1855.88,-143.626 1852.57,-153.69 1859.57,-153.559"/>
</g>
<!-- Node98 -->
<g id="node35" class="node"><title>Node98</title>
<polygon fill="white" stroke="#bfbfbf" points="1667.34,-62.5 1667.34,-81.5 1713.34,-81.5 1713.34,-62.5 1667.34,-62.5"/>
<text text-anchor="middle" x="1690.34" y="-69.5" font-family="Helvetica,sans-Serif" font-size="10.00">atomic</text>
</g>
<!-- Node86&#45;&gt;Node98 -->
<g id="edge126" class="edge"><title>Node86&#45;&gt;Node98</title>
<path fill="none" stroke="midnightblue" d="M1549.56,-299.127C1591.8,-294.574 1690.51,-281.389 1710.34,-256 1748.64,-206.935 1717.08,-126.598 1699.79,-90.9763"/>
<polygon fill="midnightblue" stroke="midnightblue" points="1702.8,-89.1621 1695.17,-81.8078 1696.55,-92.3129 1702.8,-89.1621"/>
</g>
<!-- Node100 -->
<g id="node36" class="node"><title>Node100</title>
<polygon fill="white" stroke="#bfbfbf" points="2143.84,-62.5 2143.84,-81.5 2270.84,-81.5 2270.84,-62.5 2143.84,-62.5"/>
<text text-anchor="middle" x="2207.34" y="-69.5" font-family="Helvetica,sans-Serif" font-size="10.00">boost/signals2/signal.hpp</text>
</g>
<!-- Node86&#45;&gt;Node100 -->
<g id="edge135" class="edge"><title>Node86&#45;&gt;Node100</title>
<path fill="none" stroke="midnightblue" d="M1549.34,-300.178C1615.35,-297.091 1834.12,-284.86 1897.34,-256 1974.54,-220.75 1962.4,-167.405 2035.34,-124 2056.63,-111.328 2117.89,-94.7078 2161.22,-83.9417"/>
<polygon fill="midnightblue" stroke="midnightblue" points="2162.12,-87.3255 2170.99,-81.537 2160.44,-80.5283 2162.12,-87.3255"/>
</g>
<!-- Node102 -->
<g id="node37" class="node"><title>Node102</title>
<g id="a_node37"><a xlink:href="bloom_8h.html" target="_top" xlink:title="bloom.h">
<polygon fill="white" stroke="black" points="979.835,-124.5 979.835,-143.5 1030.84,-143.5 1030.84,-124.5 979.835,-124.5"/>
<text text-anchor="middle" x="1005.34" y="-131.5" font-family="Helvetica,sans-Serif" font-size="10.00">bloom.h</text>
</a>
</g>
</g>
<!-- Node86&#45;&gt;Node102 -->
<g id="edge99" class="edge"><title>Node86&#45;&gt;Node102</title>
<path fill="none" stroke="midnightblue" d="M1511.33,-300.858C1450.88,-300.014 1258.05,-294.287 1104.34,-256 1039.71,-239.902 1002.61,-255.198 965.335,-200 954.074,-183.322 970.253,-163.556 985.277,-150.235"/>
<polygon fill="midnightblue" stroke="midnightblue" points="987.863,-152.638 993.323,-143.559 983.393,-147.251 987.863,-152.638"/>
</g>
<!-- Node103 -->
<g id="node38" class="node"><title>Node103</title>
<g id="a_node38"><a xlink:href="limitedmap_8h.html" target="_top" xlink:title="limitedmap.h">
<polygon fill="white" stroke="black" points="1577.34,-62.5 1577.34,-81.5 1649.34,-81.5 1649.34,-62.5 1577.34,-62.5"/>
<text text-anchor="middle" x="1613.34" y="-69.5" font-family="Helvetica,sans-Serif" font-size="10.00">limitedmap.h</text>
</a>
</g>
</g>
<!-- Node86&#45;&gt;Node103 -->
<g id="edge104" class="edge"><title>Node86&#45;&gt;Node103</title>
<path fill="none" stroke="midnightblue" d="M1511.09,-296.426C1477.81,-287.593 1415.09,-266.347 1437.34,-236 1468.74,-193.144 1511.09,-234.685 1551.34,-200 1585.15,-170.86 1602.22,-118.995 1609.26,-91.4234"/>
<polygon fill="midnightblue" stroke="midnightblue" points="1612.7,-92.0725 1611.62,-81.5333 1605.89,-90.4486 1612.7,-92.0725"/>
</g>
<!-- Node104 -->
<g id="node39" class="node"><title>Node104</title>
<g id="a_node39"><a xlink:href="streams_8h.html" target="_top" xlink:title="streams.h">
<polygon fill="white" stroke="red" points="825.335,-124.5 825.335,-143.5 885.335,-143.5 885.335,-124.5 825.335,-124.5"/>
<text text-anchor="middle" x="855.335" y="-131.5" font-family="Helvetica,sans-Serif" font-size="10.00">streams.h</text>
</a>
</g>
</g>
<!-- Node86&#45;&gt;Node104 -->
<g id="edge110" class="edge"><title>Node86&#45;&gt;Node104</title>
<path fill="none" stroke="midnightblue" d="M1511.25,-300.892C1428.01,-300.193 1096.56,-294.969 1001.34,-256 944.426,-232.71 892.837,-178.991 869.102,-151.645"/>
<polygon fill="midnightblue" stroke="midnightblue" points="871.546,-149.117 862.403,-143.765 866.213,-153.651 871.546,-149.117"/>
</g>
<!-- Node106 -->
<g id="node40" class="node"><title>Node106</title>
<g id="a_node40"><a xlink:href="threadinterrupt_8h.html" target="_top" xlink:title="threadinterrupt.h">
<polygon fill="white" stroke="red" points="1184.84,-236.5 1184.84,-255.5 1271.84,-255.5 1271.84,-236.5 1184.84,-236.5"/>
<text text-anchor="middle" x="1228.34" y="-243.5" font-family="Helvetica,sans-Serif" font-size="10.00">threadinterrupt.h</text>
</a>
</g>
</g>
<!-- Node86&#45;&gt;Node106 -->
<g id="edge123" class="edge"><title>Node86&#45;&gt;Node106</title>
<path fill="none" stroke="midnightblue" d="M1510.98,-297.54C1465.54,-289.414 1350.67,-268.875 1282.18,-256.627"/>
<polygon fill="midnightblue" stroke="midnightblue" points="1282.47,-253.124 1272.01,-254.809 1281.24,-260.015 1282.47,-253.124"/>
</g>
<!-- Node108 -->
<g id="node41" class="node"><title>Node108</title>
<polygon fill="white" stroke="#bfbfbf" points="974.835,-180.5 974.835,-199.5 1069.84,-199.5 1069.84,-180.5 974.835,-180.5"/>
<text text-anchor="middle" x="1022.34" y="-187.5" font-family="Helvetica,sans-Serif" font-size="10.00">condition_variable</text>
</g>
<!-- Node86&#45;&gt;Node108 -->
<g id="edge131" class="edge"><title>Node86&#45;&gt;Node108</title>
<path fill="none" stroke="midnightblue" d="M1511.32,-300.86C1455.8,-299.996 1289.51,-294.163 1158.34,-256 1116.49,-243.825 1071.53,-219.98 1045.22,-204.803"/>
<polygon fill="midnightblue" stroke="midnightblue" points="1046.81,-201.677 1036.41,-199.641 1043.27,-207.717 1046.81,-201.677"/>
</g>
<!-- Node109 -->
<g id="node42" class="node"><title>Node109</title>
<polygon fill="white" stroke="#bfbfbf" points="1446.84,-236.5 1446.84,-255.5 1489.84,-255.5 1489.84,-236.5 1446.84,-236.5"/>
<text text-anchor="middle" x="1468.34" y="-243.5" font-family="Helvetica,sans-Serif" font-size="10.00">deque</text>
</g>
<!-- Node86&#45;&gt;Node109 -->
<g id="edge127" class="edge"><title>Node86&#45;&gt;Node109</title>
<path fill="none" stroke="midnightblue" d="M1520.37,-292.324C1511.21,-284.341 1497.4,-272.313 1486.31,-262.653"/>
<polygon fill="midnightblue" stroke="midnightblue" points="1488.32,-259.762 1478.48,-255.834 1483.72,-265.041 1488.32,-259.762"/>
</g>
<!-- Node110 -->
<g id="node43" class="node"><title>Node110</title>
<polygon fill="white" stroke="#bfbfbf" points="1508.34,-236.5 1508.34,-255.5 1552.34,-255.5 1552.34,-236.5 1508.34,-236.5"/>
<text text-anchor="middle" x="1530.34" y="-243.5" font-family="Helvetica,sans-Serif" font-size="10.00">thread</text>
</g>
<!-- Node86&#45;&gt;Node110 -->
<g id="edge129" class="edge"><title>Node86&#45;&gt;Node110</title>
<path fill="none" stroke="midnightblue" d="M1530.34,-292.083C1530.34,-285.006 1530.34,-274.861 1530.34,-265.986"/>
<polygon fill="midnightblue" stroke="midnightblue" points="1533.84,-265.751 1530.34,-255.751 1526.84,-265.751 1533.84,-265.751"/>
</g>
<!-- Node111 -->
<g id="node44" class="node"><title>Node111</title>
<polygon fill="white" stroke="#bfbfbf" points="1570.84,-236.5 1570.84,-255.5 1665.84,-255.5 1665.84,-236.5 1570.84,-236.5"/>
<text text-anchor="middle" x="1618.34" y="-243.5" font-family="Helvetica,sans-Serif" font-size="10.00">boost/foreach.hpp</text>
</g>
<!-- Node86&#45;&gt;Node111 -->
<g id="edge134" class="edge"><title>Node86&#45;&gt;Node111</title>
<path fill="none" stroke="midnightblue" d="M1544.47,-292.324C1558.2,-283.9 1579.27,-270.971 1595.4,-261.074"/>
<polygon fill="midnightblue" stroke="midnightblue" points="1597.54,-263.868 1604.23,-255.655 1593.88,-257.902 1597.54,-263.868"/>
</g>
<!-- Node87&#45;&gt;Node2 -->
<g id="edge70" class="edge"><title>Node87&#45;&gt;Node2</title>
<path fill="none" stroke="midnightblue" d="M2044.18,-131.411C1903.4,-123.169 1256.52,-85.3034 1087.06,-75.3841"/>
<polygon fill="midnightblue" stroke="midnightblue" points="1087.25,-71.8888 1077.06,-74.7984 1086.84,-78.8769 1087.25,-71.8888"/>
</g>
<!-- Node87&#45;&gt;Node11 -->
<g id="edge72" class="edge"><title>Node87&#45;&gt;Node11</title>
<path fill="none" stroke="midnightblue" d="M2098.47,-132.014C2214.04,-127.688 2660.25,-109.629 2680.34,-88 2690.01,-77.5794 2690.15,-66.2975 2680.34,-56 2648.55,-22.6379 1933.26,-12.9664 1781.48,-11.2866"/>
<polygon fill="midnightblue" stroke="midnightblue" points="1781.2,-7.7835 1771.16,-11.1753 1781.12,-14.7831 1781.2,-7.7835"/>
</g>
<!-- Node87&#45;&gt;Node14 -->
<g id="edge71" class="edge"><title>Node87&#45;&gt;Node14</title>
<path fill="none" stroke="midnightblue" d="M2098.43,-132.253C2189.15,-129.478 2478.01,-118.309 2505.34,-88 2514.86,-77.4375 2515.18,-66.2681 2505.34,-56 2496.2,-46.4727 1651.75,-17.8158 1478.27,-12.0263"/>
<polygon fill="midnightblue" stroke="midnightblue" points="1478.38,-8.52812 1468.27,-11.6931 1478.15,-15.5242 1478.38,-8.52812"/>
</g>
<!-- Node87&#45;&gt;Node88 -->
<g id="edge73" class="edge"><title>Node87&#45;&gt;Node88</title>
<path fill="none" stroke="midnightblue" d="M2069.9,-124.403C2068.48,-115.849 2066.24,-102.45 2064.41,-91.4762"/>
<polygon fill="midnightblue" stroke="midnightblue" points="2067.86,-90.8691 2062.77,-81.5806 2060.96,-92.02 2067.86,-90.8691"/>
</g>
<!-- Node89&#45;&gt;Node11 -->
<g id="edge95" class="edge"><title>Node89&#45;&gt;Node11</title>
<path fill="none" stroke="midnightblue" d="M1343.9,-236.467C1377.61,-222.507 1440.64,-191.496 1473.34,-144 1496.85,-109.845 1472.77,-82.886 1504.34,-56 1537.33,-27.904 1667.35,-16.3868 1725.26,-12.5818"/>
<polygon fill="midnightblue" stroke="midnightblue" points="1725.75,-16.058 1735.51,-11.9398 1725.31,-9.0717 1725.75,-16.058"/>
</g>
<!-- Node89&#45;&gt;Node13 -->
<g id="edge96" class="edge"><title>Node89&#45;&gt;Node13</title>
<path fill="none" stroke="midnightblue" d="M1313.72,-236.394C1283.23,-201.93 1169.64,-73.5188 1128.95,-27.5222"/>
<polygon fill="midnightblue" stroke="midnightblue" points="1131.49,-25.1049 1122.24,-19.9339 1126.24,-29.7429 1131.49,-25.1049"/>
</g>
<!-- Node89&#45;&gt;Node4 -->
<g id="edge97" class="edge"><title>Node89&#45;&gt;Node4</title>
<path fill="none" stroke="midnightblue" d="M1318.29,-236.471C1315.18,-227.493 1310.38,-212.899 1307.34,-200 1292.77,-138.366 1282.72,-63.8219 1278.53,-29.697"/>
<polygon fill="midnightblue" stroke="midnightblue" points="1282,-29.262 1277.33,-19.7508 1275.05,-30.0969 1282,-29.262"/>
</g>
<!-- Node89&#45;&gt;Node17 -->
<g id="edge98" class="edge"><title>Node89&#45;&gt;Node17</title>
<path fill="none" stroke="midnightblue" d="M1305.73,-236.394C1281.75,-223.342 1234.22,-198.143 1192.34,-180 1034.74,-111.727 992.244,-100.409 826.335,-56 765.058,-39.5977 692.383,-24.8697 651.487,-17.0059"/>
<polygon fill="midnightblue" stroke="midnightblue" points="652.037,-13.5477 641.559,-15.1117 650.726,-20.4237 652.037,-13.5477"/>
</g>
<!-- Node89&#45;&gt;Node21 -->
<g id="edge80" class="edge"><title>Node89&#45;&gt;Node21</title>
<path fill="none" stroke="midnightblue" d="M1352.57,-238.338C1404.11,-227.221 1501.85,-205.556 1507.34,-200 1536.11,-170.849 1538.69,-119.373 1537.73,-91.7562"/>
<polygon fill="midnightblue" stroke="midnightblue" points="1541.21,-91.3095 1537.17,-81.5156 1534.22,-91.6918 1541.21,-91.3095"/>
</g>
<!-- Node89&#45;&gt;Node40 -->
<g id="edge76" class="edge"><title>Node89&#45;&gt;Node40</title>
<path fill="none" stroke="midnightblue" d="M1325.46,-236.083C1328.85,-228.77 1333.75,-218.181 1337.95,-209.103"/>
<polygon fill="midnightblue" stroke="midnightblue" points="1341.26,-210.296 1342.28,-199.751 1334.91,-207.355 1341.26,-210.296"/>
</g>
<!-- Node89&#45;&gt;Node41 -->
<g id="edge75" class="edge"><title>Node89&#45;&gt;Node41</title>
<path fill="none" stroke="midnightblue" d="M1336.22,-236.479C1349.76,-228.266 1369.79,-214.916 1384.34,-200 1398.27,-185.712 1410.66,-166.498 1418.71,-152.671"/>
<polygon fill="midnightblue" stroke="midnightblue" points="1421.91,-154.132 1423.77,-143.703 1415.81,-150.694 1421.91,-154.132"/>
</g>
<!-- Node89&#45;&gt;Node90 -->
<g id="edge77" class="edge"><title>Node89&#45;&gt;Node90</title>
<path fill="none" stroke="midnightblue" d="M1295.03,-236.444C1266.98,-227.32 1222.39,-212.813 1191.15,-202.651"/>
<polygon fill="midnightblue" stroke="midnightblue" points="1192.11,-199.282 1181.52,-199.516 1189.94,-205.938 1192.11,-199.282"/>
</g>
<!-- Node89&#45;&gt;Node91 -->
<g id="edge81" class="edge"><title>Node89&#45;&gt;Node91</title>
<path fill="none" stroke="midnightblue" d="M1290.1,-238.136C1233.19,-225.628 1118.36,-200.369 1117.34,-200 1099.01,-193.403 1097.09,-185.272 1078.34,-180 870.679,-121.624 797.27,-217.118 594.335,-144 576.852,-137.701 536.715,-106.979 512.948,-88.0712"/>
<polygon fill="midnightblue" stroke="midnightblue" points="514.997,-85.2282 505.005,-81.7066 510.62,-90.691 514.997,-85.2282"/>
</g>
<!-- Node89&#45;&gt;Node92 -->
<g id="edge86" class="edge"><title>Node89&#45;&gt;Node92</title>
<path fill="none" stroke="midnightblue" d="M1352.52,-238.822C1395.81,-230.225 1476.56,-214.118 1545.34,-200 1648.61,-178.8 1771.06,-152.898 1826.05,-141.227"/>
<polygon fill="midnightblue" stroke="midnightblue" points="1827.07,-144.589 1836.12,-139.088 1825.61,-137.742 1827.07,-144.589"/>
</g>
<!-- Node90&#45;&gt;Node4 -->
<g id="edge79" class="edge"><title>Node90&#45;&gt;Node4</title>
<path fill="none" stroke="midnightblue" d="M1160.96,-180.188C1174.7,-158.724 1211.2,-102.112 1243.34,-56 1249.93,-46.5439 1257.52,-36.1583 1263.76,-27.7492"/>
<polygon fill="midnightblue" stroke="midnightblue" points="1266.71,-29.6454 1269.88,-19.5378 1261.1,-25.4587 1266.71,-29.6454"/>
</g>
<!-- Node90&#45;&gt;Node31 -->
<g id="edge78" class="edge"><title>Node90&#45;&gt;Node31</title>
<path fill="none" stroke="midnightblue" d="M1126.73,-182.607C1121.94,-181.653 1117.01,-180.742 1112.34,-180 967.065,-156.905 917.8,-203.634 783.335,-144 755.87,-131.819 731.166,-106.675 716.704,-89.8185"/>
<polygon fill="midnightblue" stroke="midnightblue" points="719.192,-87.3356 710.114,-81.872 713.803,-91.8038 719.192,-87.3356"/>
</g>
<!-- Node91&#45;&gt;Node6 -->
<g id="edge82" class="edge"><title>Node91&#45;&gt;Node6</title>
<path fill="none" stroke="midnightblue" d="M481.87,-62.4035C467.916,-52.7797 445.07,-37.0242 428.345,-25.4891"/>
<polygon fill="midnightblue" stroke="midnightblue" points="429.996,-22.3767 419.777,-19.5806 426.022,-28.1392 429.996,-22.3767"/>
</g>
<!-- Node91&#45;&gt;Node7 -->
<g id="edge83" class="edge"><title>Node91&#45;&gt;Node7</title>
<path fill="none" stroke="midnightblue" d="M525.807,-63.0325C569.705,-51.919 649.115,-31.8152 695.322,-20.1173"/>
<polygon fill="midnightblue" stroke="midnightblue" points="696.371,-23.4622 705.206,-17.6149 694.653,-16.6763 696.371,-23.4622"/>
</g>
<!-- Node91&#45;&gt;Node4 -->
<g id="edge84" class="edge"><title>Node91&#45;&gt;Node4</title>
<path fill="none" stroke="midnightblue" d="M525.69,-64.0324C539.869,-61.1242 556.878,-57.9707 572.335,-56 821.935,-24.1776 886.233,-36.129 1137.34,-20 1172.86,-17.7183 1213.48,-15.085 1241.6,-13.2588"/>
<polygon fill="midnightblue" stroke="midnightblue" points="1241.98,-16.7419 1251.73,-12.6009 1241.52,-9.75667 1241.98,-16.7419"/>
</g>
<!-- Node91&#45;&gt;Node17 -->
<g id="edge85" class="edge"><title>Node91&#45;&gt;Node17</title>
<path fill="none" stroke="midnightblue" d="M512.245,-62.4035C533.223,-52.3341 568.185,-35.5522 592.429,-23.9151"/>
<polygon fill="midnightblue" stroke="midnightblue" points="593.958,-27.0633 601.459,-19.5806 590.929,-20.7526 593.958,-27.0633"/>
</g>
<!-- Node92&#45;&gt;Node11 -->
<g id="edge89" class="edge"><title>Node92&#45;&gt;Node11</title>
<path fill="none" stroke="midnightblue" d="M1860.83,-124.049C1869.45,-108.724 1883.77,-77.077 1869.34,-56 1849.73,-27.3623 1809.04,-16.946 1781.45,-13.1594"/>
<polygon fill="midnightblue" stroke="midnightblue" points="1781.58,-9.65048 1771.24,-11.9749 1780.77,-16.6039 1781.58,-9.65048"/>
</g>
<!-- Node92&#45;&gt;Node4 -->
<g id="edge90" class="edge"><title>Node92&#45;&gt;Node4</title>
<path fill="none" stroke="midnightblue" d="M1851.36,-124.395C1843.17,-107.808 1822.72,-71.6659 1793.34,-56 1772.04,-44.6428 1423.99,-20.7588 1311.27,-13.2854"/>
<polygon fill="midnightblue" stroke="midnightblue" points="1311.32,-9.78138 1301.11,-12.6143 1310.86,-16.7661 1311.32,-9.78138"/>
</g>
<!-- Node92&#45;&gt;Node14 -->
<g id="edge91" class="edge"><title>Node92&#45;&gt;Node14</title>
<path fill="none" stroke="midnightblue" d="M1855.46,-124.188C1855.18,-107.896 1852.02,-73.168 1831.34,-56 1777.82,-11.5941 1559.39,-9.59112 1478.05,-10.4412"/>
<polygon fill="midnightblue" stroke="midnightblue" points="1477.9,-6.9427 1467.95,-10.5694 1477.99,-13.9421 1477.9,-6.9427"/>
</g>
<!-- Node92&#45;&gt;Node17 -->
<g id="edge92" class="edge"><title>Node92&#45;&gt;Node17</title>
<path fill="none" stroke="midnightblue" d="M1842.29,-124.339C1814.06,-105.795 1747.85,-63.3349 1722.34,-56 1503.08,7.03351 923.822,-37.257 696.335,-20 681.577,-18.8804 665.289,-17.062 651.51,-15.3517"/>
<polygon fill="midnightblue" stroke="midnightblue" points="651.891,-11.872 641.528,-14.0782 651.005,-18.8157 651.891,-11.872"/>
</g>
<!-- Node92&#45;&gt;Node42 -->
<g id="edge87" class="edge"><title>Node92&#45;&gt;Node42</title>
<path fill="none" stroke="midnightblue" d="M1868.95,-124.403C1884.4,-114.646 1909.83,-98.5854 1928.15,-87.0109"/>
<polygon fill="midnightblue" stroke="midnightblue" points="1930.16,-89.8798 1936.75,-81.5806 1926.43,-83.9613 1930.16,-89.8798"/>
</g>
<!-- Node92&#45;&gt;Node88 -->
<g id="edge93" class="edge"><title>Node92&#45;&gt;Node88</title>
<path fill="none" stroke="midnightblue" d="M1874.35,-127.463C1907.8,-117.72 1977.82,-97.3256 2022.04,-84.4452"/>
<polygon fill="midnightblue" stroke="midnightblue" points="2023.25,-87.7374 2031.88,-81.5806 2021.3,-81.0167 2023.25,-87.7374"/>
</g>
<!-- Node92&#45;&gt;Node98 -->
<g id="edge88" class="edge"><title>Node92&#45;&gt;Node98</title>
<path fill="none" stroke="midnightblue" d="M1836.15,-126.57C1811.03,-118.078 1765.67,-102.5 1727.34,-88 1725.09,-87.1517 1722.78,-86.2587 1720.46,-85.3487"/>
<polygon fill="midnightblue" stroke="midnightblue" points="1721.6,-82.0344 1711.01,-81.5821 1719,-88.5367 1721.6,-82.0344"/>
</g>
<!-- Node92&#45;&gt;Node100 -->
<g id="edge94" class="edge"><title>Node92&#45;&gt;Node100</title>
<path fill="none" stroke="midnightblue" d="M1874.66,-130.173C1920.08,-123.469 2037.09,-105.824 2134.34,-88 2141.77,-86.6375 2149.61,-85.116 2157.29,-83.5789"/>
<polygon fill="midnightblue" stroke="midnightblue" points="2158.13,-86.9792 2167.23,-81.5612 2156.74,-80.1189 2158.13,-86.9792"/>
</g>
<!-- Node102&#45;&gt;Node2 -->
<g id="edge100" class="edge"><title>Node102&#45;&gt;Node2</title>
<path fill="none" stroke="midnightblue" d="M1011.21,-124.403C1017.3,-115.493 1026.98,-101.325 1034.64,-90.1177"/>
<polygon fill="midnightblue" stroke="midnightblue" points="1037.72,-91.8117 1040.47,-81.5806 1031.94,-87.8624 1037.72,-91.8117"/>
</g>
<!-- Node102&#45;&gt;Node17 -->
<g id="edge101" class="edge"><title>Node102&#45;&gt;Node17</title>
<path fill="none" stroke="midnightblue" d="M979.71,-124.901C911.684,-103.4 726.637,-44.9139 651.596,-21.1962"/>
<polygon fill="midnightblue" stroke="midnightblue" points="652.351,-17.7643 641.761,-18.0878 650.241,-24.4388 652.351,-17.7643"/>
</g>
<!-- Node103&#45;&gt;Node7 -->
<g id="edge105" class="edge"><title>Node103&#45;&gt;Node7</title>
<path fill="none" stroke="midnightblue" d="M1591.68,-62.4751C1584.37,-59.9537 1576.1,-57.4754 1568.34,-56 1411.41,-26.1889 908.113,-14.4143 767.9,-11.6645"/>
<polygon fill="midnightblue" stroke="midnightblue" points="767.759,-8.16128 757.694,-11.4679 767.625,-15.16 767.759,-8.16128"/>
</g>
<!-- Node103&#45;&gt;Node11 -->
<g id="edge106" class="edge"><title>Node103&#45;&gt;Node11</title>
<path fill="none" stroke="midnightblue" d="M1633.39,-62.4035C1657.77,-51.9564 1699.01,-34.2838 1726.2,-22.6279"/>
<polygon fill="midnightblue" stroke="midnightblue" points="1727.72,-25.7867 1735.53,-18.6304 1724.96,-19.3527 1727.72,-25.7867"/>
</g>
<!-- Node104&#45;&gt;Node2 -->
<g id="edge112" class="edge"><title>Node104&#45;&gt;Node2</title>
<path fill="none" stroke="midnightblue" d="M883.657,-124.479C913.116,-115.568 960.546,-101.082 1001.34,-88 1004.65,-86.9366 1008.1,-85.8153 1011.54,-84.6842"/>
<polygon fill="midnightblue" stroke="midnightblue" points="1012.75,-87.9738 1021.14,-81.5107 1010.55,-81.3278 1012.75,-87.9738"/>
</g>
<!-- Node104&#45;&gt;Node6 -->
<g id="edge113" class="edge"><title>Node104&#45;&gt;Node6</title>
<path fill="none" stroke="midnightblue" d="M825.096,-131.138C737.109,-125.509 485.465,-107.833 454.335,-88 433.025,-74.423 419.908,-47.3764 413.121,-29.2303"/>
<polygon fill="midnightblue" stroke="midnightblue" points="416.417,-28.0518 409.842,-19.7438 409.801,-30.3385 416.417,-28.0518"/>
</g>
<!-- Node104&#45;&gt;Node7 -->
<g id="edge114" class="edge"><title>Node104&#45;&gt;Node7</title>
<path fill="none" stroke="midnightblue" d="M846.418,-124.226C825.684,-103.826 773.989,-52.9657 747.516,-26.9198"/>
<polygon fill="midnightblue" stroke="midnightblue" points="749.755,-24.2129 740.172,-19.6944 744.846,-29.2027 749.755,-24.2129"/>
</g>
<!-- Node104&#45;&gt;Node11 -->
<g id="edge115" class="edge"><title>Node104&#45;&gt;Node11</title>
<path fill="none" stroke="midnightblue" d="M885.47,-128.906C1023.28,-110.183 1592.46,-32.856 1725.46,-14.7877"/>
<polygon fill="midnightblue" stroke="midnightblue" points="1726.18,-18.2214 1735.62,-13.407 1725.24,-11.2852 1726.18,-18.2214"/>
</g>
<!-- Node104&#45;&gt;Node13 -->
<g id="edge116" class="edge"><title>Node104&#45;&gt;Node13</title>
<path fill="none" stroke="midnightblue" d="M857.494,-124.234C861.967,-108.019 873.849,-73.4121 897.335,-56 927.642,-33.5314 1038.86,-19.0793 1089.24,-13.5471"/>
<polygon fill="midnightblue" stroke="midnightblue" points="1089.72,-17.0159 1099.29,-12.4737 1088.98,-10.0555 1089.72,-17.0159"/>
</g>
<!-- Node104&#45;&gt;Node4 -->
<g id="edge117" class="edge"><title>Node104&#45;&gt;Node4</title>
<path fill="none" stroke="midnightblue" d="M865.238,-124.35C884.543,-108.011 929.197,-72.755 973.335,-56 1021.83,-37.5922 1172.34,-21.1098 1241.25,-14.3062"/>
<polygon fill="midnightblue" stroke="midnightblue" points="1241.97,-17.753 1251.58,-13.2986 1241.29,-10.786 1241.97,-17.753"/>
</g>
<!-- Node104&#45;&gt;Node14 -->
<g id="edge118" class="edge"><title>Node104&#45;&gt;Node14</title>
<path fill="none" stroke="midnightblue" d="M878.651,-124.379C900.129,-116.097 932.62,-102.701 959.335,-88 981.475,-75.8166 982.594,-64.6588 1006.34,-56 1044.72,-42.0016 1322.84,-20.2651 1416.58,-13.2585"/>
<polygon fill="midnightblue" stroke="midnightblue" points="1417.11,-16.7289 1426.82,-12.4969 1416.59,-9.74819 1417.11,-16.7289"/>
</g>
<!-- Node104&#45;&gt;Node17 -->
<g id="edge119" class="edge"><title>Node104&#45;&gt;Node17</title>
<path fill="none" stroke="midnightblue" d="M825.307,-130.412C755.831,-124.121 588.666,-107.133 572.335,-88 555.609,-68.4043 579.786,-42.1983 599.204,-25.9685"/>
<polygon fill="midnightblue" stroke="midnightblue" points="601.465,-28.6425 607.102,-19.672 597.101,-23.169 601.465,-28.6425"/>
</g>
<!-- Node104&#45;&gt;Node84 -->
<g id="edge111" class="edge"><title>Node104&#45;&gt;Node84</title>
<path fill="none" stroke="midnightblue" d="M825.311,-130.822C742.647,-124.764 504.748,-106.909 307.335,-88 281.18,-85.4947 252.256,-82.3787 227.75,-79.6369"/>
<polygon fill="midnightblue" stroke="midnightblue" points="227.868,-76.1282 217.539,-78.4876 227.085,-83.0842 227.868,-76.1282"/>
</g>
<!-- Node106&#45;&gt;Node98 -->
<g id="edge124" class="edge"><title>Node106&#45;&gt;Node98</title>
<path fill="none" stroke="midnightblue" d="M1261.83,-236.453C1293.64,-228.073 1342.67,-214.48 1384.34,-200 1508.61,-156.818 1537.85,-140.825 1658.34,-88 1659.92,-87.3056 1661.54,-86.5822 1663.18,-85.8447"/>
<polygon fill="midnightblue" stroke="midnightblue" points="1664.85,-88.9291 1672.47,-81.5691 1661.92,-82.5701 1664.85,-88.9291"/>
</g>
<!-- Node106&#45;&gt;Node108 -->
<g id="edge125" class="edge"><title>Node106&#45;&gt;Node108</title>
<path fill="none" stroke="midnightblue" d="M1195.69,-236.444C1160.29,-227.162 1103.63,-212.309 1064.78,-202.127"/>
<polygon fill="midnightblue" stroke="midnightblue" points="1065.38,-198.667 1054.82,-199.516 1063.61,-205.438 1065.38,-198.667"/>
</g>
<!-- Node112&#45;&gt;Node2 -->
<g id="edge138" class="edge"><title>Node112&#45;&gt;Node2</title>
<path fill="none" stroke="midnightblue" d="M1477.56,-356.303C1348.58,-338.694 1023.68,-286.407 965.335,-200 935.218,-155.396 1022.07,-168.796 1039.34,-144 1049.82,-128.933 1050.51,-107.512 1049.24,-92.1464"/>
<polygon fill="midnightblue" stroke="midnightblue" points="1052.66,-91.2985 1048,-81.7814 1045.71,-92.1246 1052.66,-91.2985"/>
</g>
<!-- Node112&#45;&gt;Node86 -->
<g id="edge137" class="edge"><title>Node112&#45;&gt;Node86</title>
<path fill="none" stroke="midnightblue" d="M1530.34,-354.403C1530.34,-345.938 1530.34,-332.728 1530.34,-321.82"/>
<polygon fill="midnightblue" stroke="midnightblue" points="1533.84,-321.581 1530.34,-311.581 1526.84,-321.581 1533.84,-321.581"/>
</g>
<!-- Node113&#45;&gt;Node4 -->
<g id="edge142" class="edge"><title>Node113&#45;&gt;Node4</title>
<path fill="none" stroke="midnightblue" d="M2751.17,-124.456C2740.44,-107.638 2713.92,-70.607 2680.34,-56 2615.96,-28.0057 1487.46,-23.2362 1417.34,-20 1381.16,-18.3304 1339.81,-15.5932 1311.29,-13.5751"/>
<polygon fill="midnightblue" stroke="midnightblue" points="1311.25,-10.0633 1301.03,-12.8405 1310.75,-17.0454 1311.25,-10.0633"/>
</g>
<!-- Node113&#45;&gt;Node14 -->
<g id="edge143" class="edge"><title>Node113&#45;&gt;Node14</title>
<path fill="none" stroke="midnightblue" d="M2759.02,-124.327C2763.38,-108.267 2769.8,-73.9092 2751.34,-56 2748.38,-53.1353 1675.4,-18.3626 1478.26,-11.9972"/>
<polygon fill="midnightblue" stroke="midnightblue" points="1478.14,-8.49158 1468.03,-11.6671 1477.91,-15.4879 1478.14,-8.49158"/>
</g>
<!-- Node113&#45;&gt;Node100 -->
<g id="edge144" class="edge"><title>Node113&#45;&gt;Node100</title>
<path fill="none" stroke="midnightblue" d="M2718.6,-128.876C2628.56,-119.036 2399.83,-94.038 2281.21,-81.0741"/>
<polygon fill="midnightblue" stroke="midnightblue" points="2281.45,-77.5791 2271.13,-79.9719 2280.69,-84.5377 2281.45,-77.5791"/>
</g>
<!-- Node115&#45;&gt;Node4 -->
<g id="edge147" class="edge"><title>Node115&#45;&gt;Node4</title>
<path fill="none" stroke="midnightblue" d="M2420.79,-62.4468C2410.87,-59.9235 2399.7,-57.4513 2389.34,-56 1961.21,3.92536 1849.08,-41.7706 1417.34,-20 1381.17,-18.1762 1339.82,-15.4627 1311.3,-13.4922"/>
<polygon fill="midnightblue" stroke="midnightblue" points="1311.25,-9.98051 1301.03,-12.7768 1310.76,-16.9636 1311.25,-9.98051"/>
</g>
<!-- Node115&#45;&gt;Node14 -->
<g id="edge148" class="edge"><title>Node115&#45;&gt;Node14</title>
<path fill="none" stroke="midnightblue" d="M2420.47,-62.4332C2410.63,-59.9412 2399.59,-57.4911 2389.34,-56 2297.56,-42.6529 1630.42,-17.6845 1478.2,-12.1188"/>
<polygon fill="midnightblue" stroke="midnightblue" points="1478.26,-8.61895 1468.14,-11.752 1478.01,-15.6143 1478.26,-8.61895"/>
</g>
<!-- Node115&#45;&gt;Node17 -->
<g id="edge149" class="edge"><title>Node115&#45;&gt;Node17</title>
<path fill="none" stroke="midnightblue" d="M2403.58,-66.0763C2369.24,-62.6608 2321.44,-58.323 2279.34,-56 1576.67,-17.2321 1398.37,-68.903 696.335,-20 681.57,-18.9715 665.282,-17.1659 651.503,-15.4406"/>
<polygon fill="midnightblue" stroke="midnightblue" points="651.889,-11.9614 641.523,-14.1511 650.992,-18.9037 651.889,-11.9614"/>
</g>
</g>
</svg>
