<?xml version="1.0" encoding="UTF-8" standalone="no"?>
<!DOCTYPE svg PUBLIC "-//W3C//DTD SVG 1.1//EN"
 "http://www.w3.org/Graphics/SVG/1.1/DTD/svg11.dtd">
<!-- Generated by graphviz version 2.36.0 (20140111.2315)
 -->
<!-- Title: src/qt/askpassphrasedialog.h Pages: 1 -->
<svg width="289pt" height="84pt"
 viewBox="0.00 0.00 289.00 84.00" xmlns="http://www.w3.org/2000/svg" xmlns:xlink="http://www.w3.org/1999/xlink">
<g id="graph0" class="graph" transform="scale(1 1) rotate(0) translate(4 80)">
<title>src/qt/askpassphrasedialog.h</title>
<polygon fill="white" stroke="none" points="-4,4 -4,-80 285,-80 285,4 -4,4"/>
<!-- Node2 -->
<g id="node1" class="node"><title>Node2</title>
<polygon fill="#bfbfbf" stroke="black" points="80,-56.5 80,-75.5 224,-75.5 224,-56.5 80,-56.5"/>
<text text-anchor="middle" x="152" y="-63.5" font-family="Helvetica,sans-Serif" font-size="10.00">src/qt/askpassphrasedialog.h</text>
</g>
<!-- Node3 -->
<g id="node2" class="node"><title>Node3</title>
<g id="a_node2"><a xlink:href="askpassphrasedialog_8cpp.html" target="_top" xlink:title="src/qt/askpassphrasedialog.cpp">
<polygon fill="white" stroke="black" points="-0.5,-0.5 -0.5,-19.5 154.5,-19.5 154.5,-0.5 -0.5,-0.5"/>
<text text-anchor="middle" x="77" y="-7.5" font-family="Helvetica,sans-Serif" font-size="10.00">src/qt/askpassphrasedialog.cpp</text>
</a>
</g>
</g>
<!-- Node2&#45;&gt;Node3 -->
<g id="edge1" class="edge"><title>Node2&#45;&gt;Node3</title>
<path fill="none" stroke="midnightblue" d="M131.695,-50.3804C118.139,-40.6204 100.758,-28.1057 89.2693,-19.8339"/>
<polygon fill="midnightblue" stroke="midnightblue" points="129.79,-53.3213 139.95,-56.324 133.88,-47.6405 129.79,-53.3213"/>
</g>
<!-- Node4 -->
<g id="node3" class="node"><title>Node4</title>
<g id="a_node3"><a xlink:href="walletview_8cpp.html" target="_top" xlink:title="src/qt/walletview.cpp">
<polygon fill="white" stroke="black" points="172.5,-0.5 172.5,-19.5 281.5,-19.5 281.5,-0.5 172.5,-0.5"/>
<text text-anchor="middle" x="227" y="-7.5" font-family="Helvetica,sans-Serif" font-size="10.00">src/qt/walletview.cpp</text>
</a>
</g>
</g>
<!-- Node2&#45;&gt;Node4 -->
<g id="edge2" class="edge"><title>Node2&#45;&gt;Node4</title>
<path fill="none" stroke="midnightblue" d="M172.305,-50.3804C185.861,-40.6204 203.242,-28.1057 214.731,-19.8339"/>
<polygon fill="midnightblue" stroke="midnightblue" points="170.12,-47.6405 164.05,-56.324 174.21,-53.3213 170.12,-47.6405"/>
</g>
</g>
</svg>
