<?xml version="1.0" encoding="UTF-8" standalone="no"?>
<!DOCTYPE svg PUBLIC "-//W3C//DTD SVG 1.1//EN"
 "http://www.w3.org/Graphics/SVG/1.1/DTD/svg11.dtd">
<!-- Generated by graphviz version 2.36.0 (20140111.2315)
 -->
<!-- Title: src/bench/bench.h Pages: 1 -->
<svg width="453pt" height="96pt"
 viewBox="0.00 0.00 453.00 96.00" xmlns="http://www.w3.org/2000/svg" xmlns:xlink="http://www.w3.org/1999/xlink">
<g id="graph0" class="graph" transform="scale(1 1) rotate(0) translate(4 92)">
<title>src/bench/bench.h</title>
<polygon fill="white" stroke="none" points="-4,4 -4,-92 449,-92 449,4 -4,4"/>
<!-- Node0 -->
<g id="node1" class="node"><title>Node0</title>
<polygon fill="#bfbfbf" stroke="black" points="111.5,-68.5 111.5,-87.5 208.5,-87.5 208.5,-68.5 111.5,-68.5"/>
<text text-anchor="middle" x="160" y="-75.5" font-family="Helvetica,sans-Serif" font-size="10.00">src/bench/bench.h</text>
</g>
<!-- Node1 -->
<g id="node2" class="node"><title>Node1</title>
<polygon fill="white" stroke="#bfbfbf" points="-0.5,-6.5 -0.5,-25.5 34.5,-25.5 34.5,-6.5 -0.5,-6.5"/>
<text text-anchor="middle" x="17" y="-13.5" font-family="Helvetica,sans-Serif" font-size="10.00">map</text>
</g>
<!-- Node0&#45;&gt;Node1 -->
<g id="edge1" class="edge"><title>Node0&#45;&gt;Node1</title>
<path fill="none" stroke="midnightblue" d="M134.415,-68.4581C110.385,-60.133 73.6407,-46.6212 43,-32 41.9888,-31.5175 40.9641,-31.0102 39.9352,-30.4857"/>
<polygon fill="midnightblue" stroke="midnightblue" points="41.2718,-27.2277 30.8179,-25.5056 37.9161,-33.371 41.2718,-27.2277"/>
</g>
<!-- Node2 -->
<g id="node3" class="node"><title>Node2</title>
<polygon fill="white" stroke="#bfbfbf" points="52.5,-6.5 52.5,-25.5 93.5,-25.5 93.5,-6.5 52.5,-6.5"/>
<text text-anchor="middle" x="73" y="-13.5" font-family="Helvetica,sans-Serif" font-size="10.00">string</text>
</g>
<!-- Node0&#45;&gt;Node2 -->
<g id="edge2" class="edge"><title>Node0&#45;&gt;Node2</title>
<path fill="none" stroke="midnightblue" d="M147.535,-68.4035C133.581,-58.7797 110.735,-43.0242 94.0091,-31.4891"/>
<polygon fill="midnightblue" stroke="midnightblue" points="95.6611,-28.3767 85.4419,-25.5806 91.6869,-34.1392 95.6611,-28.3767"/>
</g>
<!-- Node3 -->
<g id="node4" class="node"><title>Node3</title>
<polygon fill="white" stroke="#bfbfbf" points="111.5,-6.5 111.5,-25.5 208.5,-25.5 208.5,-6.5 111.5,-6.5"/>
<text text-anchor="middle" x="160" y="-13.5" font-family="Helvetica,sans-Serif" font-size="10.00">boost/function.hpp</text>
</g>
<!-- Node0&#45;&gt;Node3 -->
<g id="edge3" class="edge"><title>Node0&#45;&gt;Node3</title>
<path fill="none" stroke="midnightblue" d="M160,-68.4035C160,-59.9381 160,-46.7283 160,-35.8199"/>
<polygon fill="midnightblue" stroke="midnightblue" points="163.5,-35.5806 160,-25.5806 156.5,-35.5806 163.5,-35.5806"/>
</g>
<!-- Node4 -->
<g id="node5" class="node"><title>Node4</title>
<polygon fill="white" stroke="#bfbfbf" points="227,-1 227,-31 327,-31 327,-1 227,-1"/>
<text text-anchor="start" x="235" y="-19" font-family="Helvetica,sans-Serif" font-size="10.00">boost/preprocessor</text>
<text text-anchor="middle" x="277" y="-8" font-family="Helvetica,sans-Serif" font-size="10.00">/cat.hpp</text>
</g>
<!-- Node0&#45;&gt;Node4 -->
<g id="edge4" class="edge"><title>Node0&#45;&gt;Node4</title>
<path fill="none" stroke="midnightblue" d="M176.763,-68.4035C193.276,-59.9355 219.045,-46.7204 240.32,-35.8101"/>
<polygon fill="midnightblue" stroke="midnightblue" points="242.124,-38.8184 249.425,-31.1408 238.93,-32.5897 242.124,-38.8184"/>
</g>
<!-- Node5 -->
<g id="node6" class="node"><title>Node5</title>
<polygon fill="white" stroke="#bfbfbf" points="345,-1 345,-31 445,-31 445,-1 345,-1"/>
<text text-anchor="start" x="353" y="-19" font-family="Helvetica,sans-Serif" font-size="10.00">boost/preprocessor</text>
<text text-anchor="middle" x="395" y="-8" font-family="Helvetica,sans-Serif" font-size="10.00">/stringize.hpp</text>
</g>
<!-- Node0&#45;&gt;Node5 -->
<g id="edge5" class="edge"><title>Node0&#45;&gt;Node5</title>
<path fill="none" stroke="midnightblue" d="M193.67,-68.4035C230.483,-59.0045 290.202,-43.7569 335.059,-32.3042"/>
<polygon fill="midnightblue" stroke="midnightblue" points="336.141,-35.6401 344.965,-29.7749 334.41,-28.8576 336.141,-35.6401"/>
</g>
</g>
</svg>
