<?xml version="1.0" encoding="UTF-8" standalone="no"?>
<!DOCTYPE svg PUBLIC "-//W3C//DTD SVG 1.1//EN"
 "http://www.w3.org/Graphics/SVG/1.1/DTD/svg11.dtd">
<!-- Generated by graphviz version 2.36.0 (20140111.2315)
 -->
<!-- Title: src/secp256k1/src/bench_internal.c Pages: 1 -->
<!--zoomable 488 -->
<svg id="main" version="1.1" xmlns="http://www.w3.org/2000/svg" xmlns:xlink="http://www.w3.org/1999/xlink" xml:space="preserve" onload="init(evt)">
<style type="text/css"><![CDATA[
.edge:hover path { stroke: red; }
.edge:hover polygon { stroke: red; fill: red; }
]]></style>
<script type="text/javascript"><![CDATA[
var edges = document.getElementsByTagName('g');
if (edges && edges.length) {
  for (var i=0;i<edges.length;i++) {
    if (edges[i].id.substr(0,4)=='edge') {
      edges[i].setAttribute('class','edge');
    }
  }
}
]]></script>
        <defs>
                <circle id="rim" cx="0" cy="0" r="7"/>
                <circle id="rim2" cx="0" cy="0" r="3.5"/>
                <g id="zoomPlus">
                        <use xlink:href="#rim" fill="#404040">
                                <set attributeName="fill" to="#808080" begin="zoomplus.mouseover" end="zoomplus.mouseout"/>
                        </use>
                        <path d="M-4,0h8M0,-4v8" fill="none" stroke="white" stroke-width="1.5" pointer-events="none"/>
                </g>
                <g id="zoomMin">
                        <use xlink:href="#rim" fill="#404040">
                                <set attributeName="fill" to="#808080" begin="zoomminus.mouseover" end="zoomminus.mouseout"/>
                        </use>
                        <path d="M-4,0h8" fill="none" stroke="white" stroke-width="1.5" pointer-events="none"/>
                </g>
                <g id="dirArrow">
                        <path fill="none" stroke="white" stroke-width="1.5" d="M0,-3.0v7 M-2.5,-0.5L0,-3.0L2.5,-0.5"/>
                </g>
               <g id="resetDef">
                       <use xlink:href="#rim2" fill="#404040">
                               <set attributeName="fill" to="#808080" begin="reset.mouseover" end="reset.mouseout"/>
                       </use>
               </g>
        </defs>

<script type="text/javascript">
var viewWidth = 1501;
var viewHeight = 488;
var sectionId = 'dynsection-0';
</script>
<script xlink:href="svgpan.js"/>
<svg id="graph" class="graph">
<g id="viewport">
<title>src/secp256k1/src/bench_internal.c</title>
<polygon fill="white" stroke="none" points="-4,4 -4,-484 1496.57,-484 1496.57,4 -4,4"/>
<!-- Node0 -->
<g id="node1" class="node"><title>Node0</title>
<polygon fill="#bfbfbf" stroke="black" points="534,-449 534,-479 660,-479 660,-449 534,-449"/>
<text text-anchor="start" x="542" y="-467" font-family="Helvetica,sans-Serif" font-size="10.00">src/secp256k1/src/bench</text>
<text text-anchor="middle" x="597" y="-456" font-family="Helvetica,sans-Serif" font-size="10.00">_internal.c</text>
</g>
<!-- Node1 -->
<g id="node2" class="node"><title>Node1</title>
<polygon fill="white" stroke="#bfbfbf" points="15,-0.5 15,-19.5 61,-19.5 61,-0.5 15,-0.5"/>
<text text-anchor="middle" x="38" y="-7.5" font-family="Helvetica,sans-Serif" font-size="10.00">stdio.h</text>
</g>
<!-- Node0&#45;&gt;Node1 -->
<g id="edge1" class="edge"><title>Node0&#45;&gt;Node1</title>
<path fill="none" stroke="midnightblue" d="M533.958,-463.914C380.496,-464.448 0,-454.894 0,-347 0,-347 0,-347 0,-121 0,-86.8131 16.6005,-49.7639 27.8573,-28.5707"/>
<polygon fill="midnightblue" stroke="midnightblue" points="30.9473,-30.2151 32.7163,-19.769 24.8191,-26.832 30.9473,-30.2151"/>
</g>
<!-- Node2 -->
<g id="node3" class="node"><title>Node2</title>
<g id="a_node3"><a xlink:href="secp256k1_8h.html" target="_top" xlink:title="include/secp256k1.h">
<polygon fill="white" stroke="black" points="631,-336.5 631,-355.5 737,-355.5 737,-336.5 631,-336.5"/>
<text text-anchor="middle" x="684" y="-343.5" font-family="Helvetica,sans-Serif" font-size="10.00">include/secp256k1.h</text>
</a>
</g>
</g>
<!-- Node0&#45;&gt;Node2 -->
<g id="edge2" class="edge"><title>Node0&#45;&gt;Node2</title>
<path fill="none" stroke="midnightblue" d="M607.668,-448.776C623.771,-427.306 654.224,-386.701 671.397,-363.803"/>
<polygon fill="midnightblue" stroke="midnightblue" points="674.27,-365.807 677.47,-355.707 668.67,-361.607 674.27,-365.807"/>
</g>
<!-- Node4 -->
<g id="node5" class="node"><title>Node4</title>
<g id="a_node5"><a xlink:href="secp256k1_2src_2util_8h.html" target="_top" xlink:title="util.h">
<polygon fill="white" stroke="black" points="1283,-56.5 1283,-75.5 1321,-75.5 1321,-56.5 1283,-56.5"/>
<text text-anchor="middle" x="1302" y="-63.5" font-family="Helvetica,sans-Serif" font-size="10.00">util.h</text>
</a>
</g>
</g>
<!-- Node0&#45;&gt;Node4 -->
<g id="edge4" class="edge"><title>Node0&#45;&gt;Node4</title>
<path fill="none" stroke="midnightblue" d="M660.265,-462.729C821.404,-461.424 1243.94,-453.977 1377,-412 1430.06,-395.259 1484,-402.643 1484,-347 1484,-347 1484,-347 1484,-233 1484,-151.009 1381.92,-98.7228 1330.66,-77.6343"/>
<polygon fill="midnightblue" stroke="midnightblue" points="1331.72,-74.2872 1321.13,-73.833 1329.12,-80.789 1331.72,-74.2872"/>
</g>
<!-- Node7 -->
<g id="node8" class="node"><title>Node7</title>
<g id="a_node8"><a xlink:href="hash__impl_8h.html" target="_top" xlink:title="hash_impl.h">
<polygon fill="white" stroke="black" points="1373.5,-224.5 1373.5,-243.5 1442.5,-243.5 1442.5,-224.5 1373.5,-224.5"/>
<text text-anchor="middle" x="1408" y="-231.5" font-family="Helvetica,sans-Serif" font-size="10.00">hash_impl.h</text>
</a>
</g>
</g>
<!-- Node0&#45;&gt;Node7 -->
<g id="edge8" class="edge"><title>Node0&#45;&gt;Node7</title>
<path fill="none" stroke="midnightblue" d="M660.276,-461.022C829.127,-455.416 1281.79,-438.114 1344,-412 1378.54,-397.501 1391.51,-390.111 1407,-356 1422.21,-322.493 1417.08,-278.187 1412.31,-253.549"/>
<polygon fill="midnightblue" stroke="midnightblue" points="1415.73,-252.777 1410.23,-243.723 1408.88,-254.231 1415.73,-252.777"/>
</g>
<!-- Node10 -->
<g id="node11" class="node"><title>Node10</title>
<g id="a_node11"><a xlink:href="num__impl_8h.html" target="_top" xlink:title="num_impl.h">
<polygon fill="white" stroke="black" points="256.5,-336.5 256.5,-355.5 323.5,-355.5 323.5,-336.5 256.5,-336.5"/>
<text text-anchor="middle" x="290" y="-343.5" font-family="Helvetica,sans-Serif" font-size="10.00">num_impl.h</text>
</a>
</g>
</g>
<!-- Node0&#45;&gt;Node10 -->
<g id="edge15" class="edge"><title>Node0&#45;&gt;Node10</title>
<path fill="none" stroke="midnightblue" d="M551.822,-448.958C521.187,-439.188 479.892,-425.533 444,-412 399.651,-395.278 349.208,-373.436 318.498,-359.813"/>
<polygon fill="midnightblue" stroke="midnightblue" points="319.812,-356.567 309.254,-355.696 316.965,-362.962 319.812,-356.567"/>
</g>
<!-- Node12 -->
<g id="node13" class="node"><title>Node12</title>
<g id="a_node13"><a xlink:href="field__impl_8h.html" target="_top" xlink:title="field_impl.h">
<polygon fill="white" stroke="black" points="1332,-336.5 1332,-355.5 1398,-355.5 1398,-336.5 1332,-336.5"/>
<text text-anchor="middle" x="1365" y="-343.5" font-family="Helvetica,sans-Serif" font-size="10.00">field_impl.h</text>
</a>
</g>
</g>
<!-- Node0&#45;&gt;Node12 -->
<g id="edge17" class="edge"><title>Node0&#45;&gt;Node12</title>
<path fill="none" stroke="midnightblue" d="M660.194,-461.572C825.396,-457.414 1261.29,-443.551 1318,-412 1336.59,-401.659 1349.73,-380.517 1357.3,-365.145"/>
<polygon fill="midnightblue" stroke="midnightblue" points="1360.68,-366.178 1361.66,-355.628 1354.31,-363.266 1360.68,-366.178"/>
</g>
<!-- Node13 -->
<g id="node14" class="node"><title>Node13</title>
<g id="a_node14"><a xlink:href="group__impl_8h.html" target="_top" xlink:title="group_impl.h">
<polygon fill="white" stroke="black" points="1164,-224.5 1164,-243.5 1236,-243.5 1236,-224.5 1164,-224.5"/>
<text text-anchor="middle" x="1200" y="-231.5" font-family="Helvetica,sans-Serif" font-size="10.00">group_impl.h</text>
</a>
</g>
</g>
<!-- Node0&#45;&gt;Node13 -->
<g id="edge19" class="edge"><title>Node0&#45;&gt;Node13</title>
<path fill="none" stroke="midnightblue" d="M660.279,-458.177C759.15,-448.805 954.618,-422.822 1106,-356 1146.71,-338.03 1164.89,-337.406 1189,-300 1197.82,-286.321 1200.23,-267.785 1200.64,-254.008"/>
<polygon fill="midnightblue" stroke="midnightblue" points="1204.14,-253.752 1200.6,-243.765 1197.14,-253.777 1204.14,-253.752"/>
</g>
<!-- Node16 -->
<g id="node17" class="node"><title>Node16</title>
<g id="a_node17"><a xlink:href="scalar__impl_8h.html" target="_top" xlink:title="scalar_impl.h">
<polygon fill="white" stroke="black" points="452,-280.5 452,-299.5 526,-299.5 526,-280.5 452,-280.5"/>
<text text-anchor="middle" x="489" y="-287.5" font-family="Helvetica,sans-Serif" font-size="10.00">scalar_impl.h</text>
</a>
</g>
</g>
<!-- Node0&#45;&gt;Node16 -->
<g id="edge26" class="edge"><title>Node0&#45;&gt;Node16</title>
<path fill="none" stroke="midnightblue" d="M588.162,-448.925C568.537,-417.671 521.373,-342.557 499.936,-308.416"/>
<polygon fill="midnightblue" stroke="midnightblue" points="502.672,-306.192 494.39,-299.585 496.744,-309.915 502.672,-306.192"/>
</g>
<!-- Node18 -->
<g id="node19" class="node"><title>Node18</title>
<g id="a_node19"><a xlink:href="ecmult__const__impl_8h.html" target="_top" xlink:title="ecmult_const_impl.h">
<polygon fill="white" stroke="black" points="341.5,-336.5 341.5,-355.5 448.5,-355.5 448.5,-336.5 341.5,-336.5"/>
<text text-anchor="middle" x="395" y="-343.5" font-family="Helvetica,sans-Serif" font-size="10.00">ecmult_const_impl.h</text>
</a>
</g>
</g>
<!-- Node0&#45;&gt;Node18 -->
<g id="edge30" class="edge"><title>Node0&#45;&gt;Node18</title>
<path fill="none" stroke="midnightblue" d="M555.196,-448.919C530.955,-439.935 500.315,-427.145 475,-412 451.158,-397.737 426.812,-376.868 411.341,-362.651"/>
<polygon fill="midnightblue" stroke="midnightblue" points="413.413,-359.796 403.719,-355.521 408.631,-364.908 413.413,-359.796"/>
</g>
<!-- Node20 -->
<g id="node21" class="node"><title>Node20</title>
<g id="a_node21"><a xlink:href="ecmult__impl_8h.html" target="_top" xlink:title="ecmult_impl.h">
<polygon fill="white" stroke="black" points="356.5,-280.5 356.5,-299.5 433.5,-299.5 433.5,-280.5 356.5,-280.5"/>
<text text-anchor="middle" x="395" y="-287.5" font-family="Helvetica,sans-Serif" font-size="10.00">ecmult_impl.h</text>
</a>
</g>
</g>
<!-- Node0&#45;&gt;Node20 -->
<g id="edge43" class="edge"><title>Node0&#45;&gt;Node20</title>
<path fill="none" stroke="midnightblue" d="M582.351,-448.728C557.376,-424.625 504.628,-374.696 457,-336 443.71,-325.202 428.105,-313.883 415.876,-305.298"/>
<polygon fill="midnightblue" stroke="midnightblue" points="417.858,-302.413 407.649,-299.577 413.861,-308.16 417.858,-302.413"/>
</g>
<!-- Node22 -->
<g id="node23" class="node"><title>Node22</title>
<g id="a_node23"><a xlink:href="secp256k1_2src_2bench_8h.html" target="_top" xlink:title="bench.h">
<polygon fill="white" stroke="black" points="122.5,-392.5 122.5,-411.5 173.5,-411.5 173.5,-392.5 122.5,-392.5"/>
<text text-anchor="middle" x="148" y="-399.5" font-family="Helvetica,sans-Serif" font-size="10.00">bench.h</text>
</a>
</g>
</g>
<!-- Node0&#45;&gt;Node22 -->
<g id="edge44" class="edge"><title>Node0&#45;&gt;Node22</title>
<path fill="none" stroke="midnightblue" d="M533.622,-454.531C438.04,-441.758 260.103,-417.98 184.017,-407.813"/>
<polygon fill="midnightblue" stroke="midnightblue" points="184.351,-404.327 173.976,-406.471 183.424,-411.265 184.351,-404.327"/>
</g>
<!-- Node25 -->
<g id="node26" class="node"><title>Node25</title>
<g id="a_node26"><a xlink:href="secp256k1_8c.html" target="_top" xlink:title="secp256k1.c">
<polygon fill="white" stroke="black" points="794,-392.5 794,-411.5 866,-411.5 866,-392.5 794,-392.5"/>
<text text-anchor="middle" x="830" y="-399.5" font-family="Helvetica,sans-Serif" font-size="10.00">secp256k1.c</text>
</a>
</g>
</g>
<!-- Node0&#45;&gt;Node25 -->
<g id="edge48" class="edge"><title>Node0&#45;&gt;Node25</title>
<path fill="none" stroke="midnightblue" d="M651.628,-448.933C692.992,-438.281 749.015,-423.855 787.166,-414.03"/>
<polygon fill="midnightblue" stroke="midnightblue" points="788.131,-417.396 796.942,-411.513 786.385,-410.617 788.131,-417.396"/>
</g>
<!-- Node3 -->
<g id="node4" class="node"><title>Node3</title>
<polygon fill="white" stroke="#bfbfbf" points="658,-224.5 658,-243.5 710,-243.5 710,-224.5 658,-224.5"/>
<text text-anchor="middle" x="684" y="-231.5" font-family="Helvetica,sans-Serif" font-size="10.00">stddef.h</text>
</g>
<!-- Node2&#45;&gt;Node3 -->
<g id="edge3" class="edge"><title>Node2&#45;&gt;Node3</title>
<path fill="none" stroke="midnightblue" d="M684,-336.368C684,-318.617 684,-277.666 684,-253.597"/>
<polygon fill="midnightblue" stroke="midnightblue" points="687.5,-253.591 684,-243.591 680.5,-253.591 687.5,-253.591"/>
</g>
<!-- Node4&#45;&gt;Node1 -->
<g id="edge7" class="edge"><title>Node4&#45;&gt;Node1</title>
<path fill="none" stroke="midnightblue" d="M1282.65,-64.1734C1140.21,-58.0879 254.32,-20.2415 71.1277,-12.4153"/>
<polygon fill="midnightblue" stroke="midnightblue" points="71.1683,-8.9139 61.0279,-11.9838 70.8694,-15.9075 71.1683,-8.9139"/>
</g>
<!-- Node5 -->
<g id="node6" class="node"><title>Node5</title>
<polygon fill="white" stroke="#bfbfbf" points="1376,-0.5 1376,-19.5 1424,-19.5 1424,-0.5 1376,-0.5"/>
<text text-anchor="middle" x="1400" y="-7.5" font-family="Helvetica,sans-Serif" font-size="10.00">stdlib.h</text>
</g>
<!-- Node4&#45;&gt;Node5 -->
<g id="edge5" class="edge"><title>Node4&#45;&gt;Node5</title>
<path fill="none" stroke="midnightblue" d="M1317.75,-56.324C1333.32,-47.7428 1357.38,-34.486 1375.46,-24.5224"/>
<polygon fill="midnightblue" stroke="midnightblue" points="1377.22,-27.546 1384.29,-19.6545 1373.85,-21.4152 1377.22,-27.546"/>
</g>
<!-- Node6 -->
<g id="node7" class="node"><title>Node6</title>
<polygon fill="white" stroke="#bfbfbf" points="1442.5,-0.5 1442.5,-19.5 1491.5,-19.5 1491.5,-0.5 1442.5,-0.5"/>
<text text-anchor="middle" x="1467" y="-7.5" font-family="Helvetica,sans-Serif" font-size="10.00">stdint.h</text>
</g>
<!-- Node4&#45;&gt;Node6 -->
<g id="edge6" class="edge"><title>Node4&#45;&gt;Node6</title>
<path fill="none" stroke="midnightblue" d="M1321.25,-58.6998C1348.45,-49.7996 1398.56,-33.3995 1432.33,-22.3463"/>
<polygon fill="midnightblue" stroke="midnightblue" points="1433.83,-25.5388 1442.24,-19.1019 1431.65,-18.886 1433.83,-25.5388"/>
</g>
<!-- Node7&#45;&gt;Node5 -->
<g id="edge12" class="edge"><title>Node7&#45;&gt;Node5</title>
<path fill="none" stroke="midnightblue" d="M1407.69,-224.297C1406.51,-191.633 1402.34,-75.8661 1400.68,-29.9573"/>
<polygon fill="midnightblue" stroke="midnightblue" points="1404.18,-29.7512 1400.32,-19.8837 1397.18,-30.0033 1404.18,-29.7512"/>
</g>
<!-- Node7&#45;&gt;Node6 -->
<g id="edge13" class="edge"><title>Node7&#45;&gt;Node6</title>
<path fill="none" stroke="midnightblue" d="M1414.67,-224.464C1431.82,-201.867 1477.08,-137.968 1491,-76 1492.95,-67.3273 1493.16,-64.6235 1491,-56 1488.56,-46.2452 1483.56,-36.2896 1478.76,-28.231"/>
<polygon fill="midnightblue" stroke="midnightblue" points="1481.69,-26.3225 1473.37,-19.768 1475.79,-30.0828 1481.69,-26.3225"/>
</g>
<!-- Node8 -->
<g id="node9" class="node"><title>Node8</title>
<g id="a_node9"><a xlink:href="secp256k1_2src_2hash_8h.html" target="_top" xlink:title="hash.h">
<polygon fill="white" stroke="black" points="1436,-56.5 1436,-75.5 1482,-75.5 1482,-56.5 1436,-56.5"/>
<text text-anchor="middle" x="1459" y="-63.5" font-family="Helvetica,sans-Serif" font-size="10.00">hash.h</text>
</a>
</g>
</g>
<!-- Node7&#45;&gt;Node8 -->
<g id="edge9" class="edge"><title>Node7&#45;&gt;Node8</title>
<path fill="none" stroke="midnightblue" d="M1410.7,-224.377C1413.52,-215.322 1418.09,-200.666 1422,-188 1433.23,-151.576 1446.24,-108.938 1453.45,-85.2448"/>
<polygon fill="midnightblue" stroke="midnightblue" points="1456.85,-86.0987 1456.41,-75.5129 1450.15,-84.0609 1456.85,-86.0987"/>
</g>
<!-- Node9 -->
<g id="node10" class="node"><title>Node9</title>
<polygon fill="white" stroke="#bfbfbf" points="1330.5,-168.5 1330.5,-187.5 1379.5,-187.5 1379.5,-168.5 1330.5,-168.5"/>
<text text-anchor="middle" x="1355" y="-175.5" font-family="Helvetica,sans-Serif" font-size="10.00">string.h</text>
</g>
<!-- Node7&#45;&gt;Node9 -->
<g id="edge14" class="edge"><title>Node7&#45;&gt;Node9</title>
<path fill="none" stroke="midnightblue" d="M1399.25,-224.083C1391.53,-216.22 1380.1,-204.569 1370.78,-195.081"/>
<polygon fill="midnightblue" stroke="midnightblue" points="1373.09,-192.436 1363.59,-187.751 1368.1,-197.34 1373.09,-192.436"/>
</g>
<!-- Node8&#45;&gt;Node5 -->
<g id="edge10" class="edge"><title>Node8&#45;&gt;Node5</title>
<path fill="none" stroke="midnightblue" d="M1449.52,-56.324C1440.8,-48.3414 1427.66,-36.3128 1417.1,-26.6529"/>
<polygon fill="midnightblue" stroke="midnightblue" points="1419.39,-24.0036 1409.65,-19.8339 1414.67,-29.1674 1419.39,-24.0036"/>
</g>
<!-- Node8&#45;&gt;Node6 -->
<g id="edge11" class="edge"><title>Node8&#45;&gt;Node6</title>
<path fill="none" stroke="midnightblue" d="M1460.32,-56.083C1461.38,-48.9272 1462.91,-38.6353 1464.23,-29.6911"/>
<polygon fill="midnightblue" stroke="midnightblue" points="1467.7,-30.1561 1465.7,-19.7511 1460.78,-29.1302 1467.7,-30.1561"/>
</g>
<!-- Node11 -->
<g id="node12" class="node"><title>Node11</title>
<g id="a_node12"><a xlink:href="num_8h.html" target="_top" xlink:title="num.h">
<polygon fill="white" stroke="black" points="553,-112.5 553,-131.5 597,-131.5 597,-112.5 553,-112.5"/>
<text text-anchor="middle" x="575" y="-119.5" font-family="Helvetica,sans-Serif" font-size="10.00">num.h</text>
</a>
</g>
</g>
<!-- Node10&#45;&gt;Node11 -->
<g id="edge16" class="edge"><title>Node10&#45;&gt;Node11</title>
<path fill="none" stroke="midnightblue" d="M264.484,-336.456C214.291,-318.314 110.862,-273.53 150,-224 199.194,-161.746 451.902,-133.784 542.571,-125.647"/>
<polygon fill="midnightblue" stroke="midnightblue" points="543.143,-129.11 552.8,-124.752 542.533,-122.137 543.143,-129.11"/>
</g>
<!-- Node12&#45;&gt;Node4 -->
<g id="edge18" class="edge"><title>Node12&#45;&gt;Node4</title>
<path fill="none" stroke="midnightblue" d="M1362.15,-336.239C1354.54,-312.567 1333.47,-245.253 1321,-188 1313.18,-152.111 1307.26,-109.565 1304.24,-85.685"/>
<polygon fill="midnightblue" stroke="midnightblue" points="1307.69,-85.0691 1302.99,-75.5725 1300.74,-85.9257 1307.69,-85.0691"/>
</g>
<!-- Node13&#45;&gt;Node11 -->
<g id="edge20" class="edge"><title>Node13&#45;&gt;Node11</title>
<path fill="none" stroke="midnightblue" d="M1163.7,-226.61C1051.86,-206.928 713.753,-147.42 607.393,-128.701"/>
<polygon fill="midnightblue" stroke="midnightblue" points="607.728,-125.206 597.273,-126.92 606.515,-132.1 607.728,-125.206"/>
</g>
<!-- Node14 -->
<g id="node15" class="node"><title>Node14</title>
<g id="a_node15"><a xlink:href="field_8h.html" target="_top" xlink:title="field.h">
<polygon fill="white" stroke="black" points="1114.5,-112.5 1114.5,-131.5 1157.5,-131.5 1157.5,-112.5 1114.5,-112.5"/>
<text text-anchor="middle" x="1136" y="-119.5" font-family="Helvetica,sans-Serif" font-size="10.00">field.h</text>
</a>
</g>
</g>
<!-- Node13&#45;&gt;Node14 -->
<g id="edge21" class="edge"><title>Node13&#45;&gt;Node14</title>
<path fill="none" stroke="midnightblue" d="M1194.98,-224.368C1184.46,-206.296 1159.96,-164.176 1146.07,-140.307"/>
<polygon fill="midnightblue" stroke="midnightblue" points="1149.05,-138.475 1141,-131.591 1143,-141.995 1149.05,-138.475"/>
</g>
<!-- Node15 -->
<g id="node16" class="node"><title>Node15</title>
<g id="a_node16"><a xlink:href="group_8h.html" target="_top" xlink:title="group.h">
<polygon fill="white" stroke="black" points="697.5,-168.5 697.5,-187.5 746.5,-187.5 746.5,-168.5 697.5,-168.5"/>
<text text-anchor="middle" x="722" y="-175.5" font-family="Helvetica,sans-Serif" font-size="10.00">group.h</text>
</a>
</g>
</g>
<!-- Node13&#45;&gt;Node15 -->
<g id="edge23" class="edge"><title>Node13&#45;&gt;Node15</title>
<path fill="none" stroke="midnightblue" d="M1163.68,-228.897C1074.18,-218.786 843.965,-192.778 756.455,-182.892"/>
<polygon fill="midnightblue" stroke="midnightblue" points="756.839,-179.414 746.51,-181.769 756.053,-186.369 756.839,-179.414"/>
</g>
<!-- Node14&#45;&gt;Node4 -->
<g id="edge22" class="edge"><title>Node14&#45;&gt;Node4</title>
<path fill="none" stroke="midnightblue" d="M1157.7,-113.94C1187.2,-104.344 1240.04,-87.1545 1272.94,-76.4529"/>
<polygon fill="midnightblue" stroke="midnightblue" points="1274.44,-79.646 1282.87,-73.2241 1272.27,-72.9893 1274.44,-79.646"/>
</g>
<!-- Node15&#45;&gt;Node11 -->
<g id="edge24" class="edge"><title>Node15&#45;&gt;Node11</title>
<path fill="none" stroke="midnightblue" d="M698.707,-168.444C673.904,-159.332 634.489,-144.853 606.831,-134.693"/>
<polygon fill="midnightblue" stroke="midnightblue" points="607.815,-131.326 597.221,-131.163 605.401,-137.897 607.815,-131.326"/>
</g>
<!-- Node15&#45;&gt;Node14 -->
<g id="edge25" class="edge"><title>Node15&#45;&gt;Node14</title>
<path fill="none" stroke="midnightblue" d="M746.658,-173.784C817.961,-164.483 1024.37,-137.561 1104.07,-127.165"/>
<polygon fill="midnightblue" stroke="midnightblue" points="1104.55,-130.632 1114.02,-125.868 1103.65,-123.69 1104.55,-130.632"/>
</g>
<!-- Node16&#45;&gt;Node15 -->
<g id="edge27" class="edge"><title>Node16&#45;&gt;Node15</title>
<path fill="none" stroke="midnightblue" d="M493.196,-280.324C500.477,-266.227 516.822,-238.47 539,-224 584.584,-194.258 648.203,-184.168 687.167,-180.748"/>
<polygon fill="midnightblue" stroke="midnightblue" points="687.768,-184.212 697.468,-179.95 687.227,-177.233 687.768,-184.212"/>
</g>
<!-- Node17 -->
<g id="node18" class="node"><title>Node17</title>
<g id="a_node18"><a xlink:href="scalar_8h.html" target="_top" xlink:title="scalar.h">
<polygon fill="white" stroke="black" points="456.5,-168.5 456.5,-187.5 507.5,-187.5 507.5,-168.5 456.5,-168.5"/>
<text text-anchor="middle" x="482" y="-175.5" font-family="Helvetica,sans-Serif" font-size="10.00">scalar.h</text>
</a>
</g>
</g>
<!-- Node16&#45;&gt;Node17 -->
<g id="edge28" class="edge"><title>Node16&#45;&gt;Node17</title>
<path fill="none" stroke="midnightblue" d="M451.565,-281.952C430.18,-275.801 405.087,-264.498 392,-244 375.363,-217.942 414.91,-199.019 446.765,-188.521"/>
<polygon fill="midnightblue" stroke="midnightblue" points="447.83,-191.855 456.333,-185.535 445.744,-185.173 447.83,-191.855"/>
</g>
<!-- Node17&#45;&gt;Node11 -->
<g id="edge29" class="edge"><title>Node17&#45;&gt;Node11</title>
<path fill="none" stroke="midnightblue" d="M496.942,-168.324C511.585,-159.822 534.134,-146.729 551.238,-136.797"/>
<polygon fill="midnightblue" stroke="midnightblue" points="553.205,-139.703 560.095,-131.655 549.69,-133.649 553.205,-139.703"/>
</g>
<!-- Node18&#45;&gt;Node15 -->
<g id="edge32" class="edge"><title>Node18&#45;&gt;Node15</title>
<path fill="none" stroke="midnightblue" d="M380.621,-336.446C362.053,-324.272 333.621,-301.083 347,-280 383.978,-221.73 601.61,-192.068 687.328,-182.521"/>
<polygon fill="midnightblue" stroke="midnightblue" points="687.781,-185.993 697.343,-181.431 687.023,-179.034 687.781,-185.993"/>
</g>
<!-- Node18&#45;&gt;Node17 -->
<g id="edge31" class="edge"><title>Node18&#45;&gt;Node17</title>
<path fill="none" stroke="midnightblue" d="M363.716,-336.38C304.864,-319.455 181.471,-280.354 158,-244 153.179,-236.532 152.163,-230.704 158,-224 195.042,-181.458 369.7,-177.843 446.088,-178.358"/>
<polygon fill="midnightblue" stroke="midnightblue" points="446.157,-181.859 456.19,-178.455 446.224,-174.86 446.157,-181.859"/>
</g>
<!-- Node19 -->
<g id="node20" class="node"><title>Node19</title>
<g id="a_node20"><a xlink:href="ecmult__const_8h.html" target="_top" xlink:title="ecmult_const.h">
<polygon fill="white" stroke="black" points="180.5,-224.5 180.5,-243.5 263.5,-243.5 263.5,-224.5 180.5,-224.5"/>
<text text-anchor="middle" x="222" y="-231.5" font-family="Helvetica,sans-Serif" font-size="10.00">ecmult_const.h</text>
</a>
</g>
</g>
<!-- Node18&#45;&gt;Node19 -->
<g id="edge33" class="edge"><title>Node18&#45;&gt;Node19</title>
<path fill="none" stroke="midnightblue" d="M378.253,-336.376C361.658,-327.673 335.656,-313.61 314,-300 288.245,-283.813 259.823,-263.3 241.483,-249.694"/>
<polygon fill="midnightblue" stroke="midnightblue" points="243.452,-246.796 233.345,-243.618 239.265,-252.405 243.452,-246.796"/>
</g>
<!-- Node18&#45;&gt;Node20 -->
<g id="edge36" class="edge"><title>Node18&#45;&gt;Node20</title>
<path fill="none" stroke="midnightblue" d="M395,-336.083C395,-329.006 395,-318.861 395,-309.986"/>
<polygon fill="midnightblue" stroke="midnightblue" points="398.5,-309.751 395,-299.751 391.5,-309.751 398.5,-309.751"/>
</g>
<!-- Node19&#45;&gt;Node15 -->
<g id="edge35" class="edge"><title>Node19&#45;&gt;Node15</title>
<path fill="none" stroke="midnightblue" d="M263.77,-228.489C360.413,-218.051 597.982,-192.394 687.299,-182.748"/>
<polygon fill="midnightblue" stroke="midnightblue" points="687.871,-186.206 697.437,-181.653 687.119,-179.247 687.871,-186.206"/>
</g>
<!-- Node19&#45;&gt;Node17 -->
<g id="edge34" class="edge"><title>Node19&#45;&gt;Node17</title>
<path fill="none" stroke="midnightblue" d="M263.198,-224.444C313.757,-213.943 398.642,-196.313 446.463,-186.381"/>
<polygon fill="midnightblue" stroke="midnightblue" points="447.284,-189.785 456.363,-184.325 445.86,-182.931 447.284,-189.785"/>
</g>
<!-- Node20&#45;&gt;Node9 -->
<g id="edge37" class="edge"><title>Node20&#45;&gt;Node9</title>
<path fill="none" stroke="midnightblue" d="M419.307,-280.424C442.13,-272.075 477.005,-258.547 506,-244 521.329,-236.309 522.616,-229.068 539,-224 688.128,-177.873 1183.76,-177.795 1320.05,-178.684"/>
<polygon fill="midnightblue" stroke="midnightblue" points="1320.29,-182.186 1330.32,-178.757 1320.34,-175.186 1320.29,-182.186"/>
</g>
<!-- Node20&#45;&gt;Node15 -->
<g id="edge38" class="edge"><title>Node20&#45;&gt;Node15</title>
<path fill="none" stroke="midnightblue" d="M407.965,-280.281C429.216,-266.376 473.188,-239.199 514,-224 572.89,-202.069 645.343,-189.416 687.342,-183.393"/>
<polygon fill="midnightblue" stroke="midnightblue" points="687.914,-186.847 697.337,-182.003 686.95,-179.914 687.914,-186.847"/>
</g>
<!-- Node20&#45;&gt;Node17 -->
<g id="edge39" class="edge"><title>Node20&#45;&gt;Node17</title>
<path fill="none" stroke="midnightblue" d="M356.47,-289.844C279.581,-290.291 118.788,-284.311 171,-224 206.225,-183.311 371.878,-178.611 445.997,-178.595"/>
<polygon fill="midnightblue" stroke="midnightblue" points="446.232,-182.095 456.242,-178.623 446.252,-175.095 446.232,-182.095"/>
</g>
<!-- Node21 -->
<g id="node22" class="node"><title>Node21</title>
<g id="a_node22"><a xlink:href="ecmult_8h.html" target="_top" xlink:title="ecmult.h">
<polygon fill="white" stroke="black" points="548,-224.5 548,-243.5 602,-243.5 602,-224.5 548,-224.5"/>
<text text-anchor="middle" x="575" y="-231.5" font-family="Helvetica,sans-Serif" font-size="10.00">ecmult.h</text>
</a>
</g>
</g>
<!-- Node20&#45;&gt;Node21 -->
<g id="edge40" class="edge"><title>Node20&#45;&gt;Node21</title>
<path fill="none" stroke="midnightblue" d="M423.522,-280.444C454.426,-271.172 503.855,-256.343 537.793,-246.162"/>
<polygon fill="midnightblue" stroke="midnightblue" points="539.218,-249.389 547.79,-243.163 537.206,-242.684 539.218,-249.389"/>
</g>
<!-- Node21&#45;&gt;Node11 -->
<g id="edge41" class="edge"><title>Node21&#45;&gt;Node11</title>
<path fill="none" stroke="midnightblue" d="M575,-224.368C575,-206.617 575,-165.666 575,-141.597"/>
<polygon fill="midnightblue" stroke="midnightblue" points="578.5,-141.591 575,-131.591 571.5,-141.591 578.5,-141.591"/>
</g>
<!-- Node21&#45;&gt;Node15 -->
<g id="edge42" class="edge"><title>Node21&#45;&gt;Node15</title>
<path fill="none" stroke="midnightblue" d="M598.293,-224.444C622.807,-215.438 661.596,-201.189 689.2,-191.049"/>
<polygon fill="midnightblue" stroke="midnightblue" points="690.637,-194.25 698.816,-187.516 688.223,-187.679 690.637,-194.25"/>
</g>
<!-- Node22&#45;&gt;Node1 -->
<g id="edge45" class="edge"><title>Node22&#45;&gt;Node1</title>
<path fill="none" stroke="midnightblue" d="M128.587,-392.464C97.0086,-377.108 38,-341.639 38,-291 38,-291 38,-291 38,-121 38,-88.948 38,-51.6426 38,-29.7489"/>
<polygon fill="midnightblue" stroke="midnightblue" points="41.5001,-29.5577 38,-19.5578 34.5001,-29.5578 41.5001,-29.5577"/>
</g>
<!-- Node23 -->
<g id="node24" class="node"><title>Node23</title>
<polygon fill="white" stroke="#bfbfbf" points="88.5,-336.5 88.5,-355.5 135.5,-355.5 135.5,-336.5 88.5,-336.5"/>
<text text-anchor="middle" x="112" y="-343.5" font-family="Helvetica,sans-Serif" font-size="10.00">math.h</text>
</g>
<!-- Node22&#45;&gt;Node23 -->
<g id="edge46" class="edge"><title>Node22&#45;&gt;Node23</title>
<path fill="none" stroke="midnightblue" d="M142.055,-392.083C137.023,-384.534 129.663,-373.495 123.487,-364.23"/>
<polygon fill="midnightblue" stroke="midnightblue" points="126.293,-362.13 117.834,-355.751 120.469,-366.013 126.293,-362.13"/>
</g>
<!-- Node24 -->
<g id="node25" class="node"><title>Node24</title>
<polygon fill="white" stroke="#bfbfbf" points="154,-336.5 154,-355.5 216,-355.5 216,-336.5 154,-336.5"/>
<text text-anchor="middle" x="185" y="-343.5" font-family="Helvetica,sans-Serif" font-size="10.00">sys/time.h</text>
</g>
<!-- Node22&#45;&gt;Node24 -->
<g id="edge47" class="edge"><title>Node22&#45;&gt;Node24</title>
<path fill="none" stroke="midnightblue" d="M154.11,-392.083C159.282,-384.534 166.846,-373.495 173.194,-364.23"/>
<polygon fill="midnightblue" stroke="midnightblue" points="176.239,-365.979 179.004,-355.751 170.464,-362.022 176.239,-365.979"/>
</g>
<!-- Node25&#45;&gt;Node2 -->
<g id="edge49" class="edge"><title>Node25&#45;&gt;Node2</title>
<path fill="none" stroke="midnightblue" d="M806.866,-392.444C782.518,-383.438 743.993,-369.189 716.577,-359.049"/>
<polygon fill="midnightblue" stroke="midnightblue" points="717.619,-355.703 707.026,-355.516 715.191,-362.268 717.619,-355.703"/>
</g>
<!-- Node25&#45;&gt;Node4 -->
<g id="edge50" class="edge"><title>Node25&#45;&gt;Node4</title>
<path fill="none" stroke="midnightblue" d="M866.009,-397.076C930.477,-389.73 1062.9,-373.093 1106,-356 1147.37,-339.594 1154.66,-328.308 1189,-300 1216.16,-277.609 1226.65,-274.035 1245,-244 1276.92,-191.758 1292.83,-119.785 1298.93,-85.9828"/>
<polygon fill="midnightblue" stroke="midnightblue" points="1302.45,-86.1606 1300.69,-75.7131 1295.55,-84.9784 1302.45,-86.1606"/>
</g>
<!-- Node25&#45;&gt;Node7 -->
<g id="edge86" class="edge"><title>Node25&#45;&gt;Node7</title>
<path fill="none" stroke="midnightblue" d="M866.261,-399.433C953.653,-395.276 1173.72,-382.429 1242,-356 1304.66,-331.745 1365,-277.655 1392.5,-250.781"/>
<polygon fill="midnightblue" stroke="midnightblue" points="1395.02,-253.204 1399.65,-243.673 1390.09,-248.239 1395.02,-253.204"/>
</g>
<!-- Node25&#45;&gt;Node10 -->
<g id="edge51" class="edge"><title>Node25&#45;&gt;Node10</title>
<path fill="none" stroke="midnightblue" d="M793.886,-399.238C713.1,-394.975 511.535,-382.555 333.909,-356.137"/>
<polygon fill="midnightblue" stroke="midnightblue" points="334.271,-352.652 323.861,-354.624 333.228,-359.574 334.271,-352.652"/>
</g>
<!-- Node25&#45;&gt;Node12 -->
<g id="edge52" class="edge"><title>Node25&#45;&gt;Node12</title>
<path fill="none" stroke="midnightblue" d="M866.172,-397.455C942.6,-389.949 1126.14,-371.838 1280,-356 1293.65,-354.595 1308.52,-353.032 1321.95,-351.607"/>
<polygon fill="midnightblue" stroke="midnightblue" points="1322.33,-355.087 1331.9,-350.549 1321.59,-348.126 1322.33,-355.087"/>
</g>
<!-- Node25&#45;&gt;Node13 -->
<g id="edge54" class="edge"><title>Node25&#45;&gt;Node13</title>
<path fill="none" stroke="midnightblue" d="M866.103,-399.461C932.956,-394.792 1077.27,-375.958 1166,-300 1180.18,-287.856 1189.27,-268.3 1194.45,-253.806"/>
<polygon fill="midnightblue" stroke="midnightblue" points="1197.9,-254.509 1197.67,-243.916 1191.25,-252.344 1197.9,-254.509"/>
</g>
<!-- Node25&#45;&gt;Node16 -->
<g id="edge53" class="edge"><title>Node25&#45;&gt;Node16</title>
<path fill="none" stroke="midnightblue" d="M821.507,-392.191C807.176,-377.903 776.644,-349.879 745,-336 660.285,-298.843 631.104,-316.038 540,-300 538.73,-299.776 537.442,-299.55 536.142,-299.321"/>
<polygon fill="midnightblue" stroke="midnightblue" points="536.502,-295.83 526.047,-297.541 535.287,-302.724 536.502,-295.83"/>
</g>
<!-- Node25&#45;&gt;Node18 -->
<g id="edge56" class="edge"><title>Node25&#45;&gt;Node18</title>
<path fill="none" stroke="midnightblue" d="M793.66,-396.489C719.756,-387.314 551.124,-366.381 458.621,-354.898"/>
<polygon fill="midnightblue" stroke="midnightblue" points="458.903,-351.406 448.548,-353.647 458.041,-358.353 458.903,-351.406"/>
</g>
<!-- Node25&#45;&gt;Node20 -->
<g id="edge55" class="edge"><title>Node25&#45;&gt;Node20</title>
<path fill="none" stroke="midnightblue" d="M793.759,-393.913C752.125,-385.596 681.844,-371.024 622,-356 554.725,-339.11 477.215,-316.152 432.389,-302.525"/>
<polygon fill="midnightblue" stroke="midnightblue" points="433.384,-299.169 422.798,-299.6 431.342,-305.865 433.384,-299.169"/>
</g>
<!-- Node26 -->
<g id="node27" class="node"><title>Node26</title>
<g id="a_node27"><a xlink:href="ecmult__gen__impl_8h.html" target="_top" xlink:title="ecmult_gen_impl.h">
<polygon fill="white" stroke="black" points="1026,-280.5 1026,-299.5 1124,-299.5 1124,-280.5 1026,-280.5"/>
<text text-anchor="middle" x="1075" y="-287.5" font-family="Helvetica,sans-Serif" font-size="10.00">ecmult_gen_impl.h</text>
</a>
</g>
</g>
<!-- Node25&#45;&gt;Node26 -->
<g id="edge57" class="edge"><title>Node25&#45;&gt;Node26</title>
<path fill="none" stroke="midnightblue" d="M863.434,-392.437C891.899,-384.6 933.535,-371.829 968,-356 999.658,-341.46 1033.62,-319.647 1054.59,-305.368"/>
<polygon fill="midnightblue" stroke="midnightblue" points="1056.75,-308.129 1062.99,-299.572 1052.77,-302.367 1056.75,-308.129"/>
</g>
<!-- Node28 -->
<g id="node29" class="node"><title>Node28</title>
<g id="a_node29"><a xlink:href="ecdsa__impl_8h.html" target="_top" xlink:title="ecdsa_impl.h">
<polygon fill="white" stroke="black" points="793,-336.5 793,-355.5 867,-355.5 867,-336.5 793,-336.5"/>
<text text-anchor="middle" x="830" y="-343.5" font-family="Helvetica,sans-Serif" font-size="10.00">ecdsa_impl.h</text>
</a>
</g>
</g>
<!-- Node25&#45;&gt;Node28 -->
<g id="edge64" class="edge"><title>Node25&#45;&gt;Node28</title>
<path fill="none" stroke="midnightblue" d="M830,-392.083C830,-385.006 830,-374.861 830,-365.986"/>
<polygon fill="midnightblue" stroke="midnightblue" points="833.5,-365.751 830,-355.751 826.5,-365.751 833.5,-365.751"/>
</g>
<!-- Node30 -->
<g id="node31" class="node"><title>Node30</title>
<g id="a_node31"><a xlink:href="eckey__impl_8h.html" target="_top" xlink:title="eckey_impl.h">
<polygon fill="white" stroke="black" points="885,-336.5 885,-355.5 959,-355.5 959,-336.5 885,-336.5"/>
<text text-anchor="middle" x="922" y="-343.5" font-family="Helvetica,sans-Serif" font-size="10.00">eckey_impl.h</text>
</a>
</g>
</g>
<!-- Node25&#45;&gt;Node30 -->
<g id="edge75" class="edge"><title>Node25&#45;&gt;Node30</title>
<path fill="none" stroke="midnightblue" d="M844.781,-392.324C859.267,-383.822 881.573,-370.729 898.493,-360.797"/>
<polygon fill="midnightblue" stroke="midnightblue" points="900.403,-363.735 907.255,-355.655 896.859,-357.698 900.403,-363.735"/>
</g>
<!-- Node26&#45;&gt;Node7 -->
<g id="edge63" class="edge"><title>Node26&#45;&gt;Node7</title>
<path fill="none" stroke="midnightblue" d="M1124.14,-281.032C1188.74,-270.555 1301.33,-252.299 1363.52,-242.212"/>
<polygon fill="midnightblue" stroke="midnightblue" points="1364.12,-245.662 1373.43,-240.606 1363,-238.752 1364.12,-245.662"/>
</g>
<!-- Node26&#45;&gt;Node15 -->
<g id="edge59" class="edge"><title>Node26&#45;&gt;Node15</title>
<path fill="none" stroke="midnightblue" d="M1072.42,-280.116C1067.74,-265.72 1056.39,-237.544 1036,-224 990.841,-194.001 829.405,-183.528 757.266,-180.291"/>
<polygon fill="midnightblue" stroke="midnightblue" points="757.03,-176.778 746.889,-179.848 756.731,-183.772 757.03,-176.778"/>
</g>
<!-- Node26&#45;&gt;Node17 -->
<g id="edge58" class="edge"><title>Node26&#45;&gt;Node17</title>
<path fill="none" stroke="midnightblue" d="M1064.12,-280.401C1045.09,-265.889 1003.96,-236.864 964,-224 880.816,-197.223 614.721,-184.255 517.77,-180.331"/>
<polygon fill="midnightblue" stroke="midnightblue" points="517.729,-176.826 507.598,-179.927 517.452,-183.821 517.729,-176.826"/>
</g>
<!-- Node27 -->
<g id="node28" class="node"><title>Node27</title>
<g id="a_node28"><a xlink:href="ecmult__gen_8h.html" target="_top" xlink:title="ecmult_gen.h">
<polygon fill="white" stroke="black" points="880.5,-224.5 880.5,-243.5 955.5,-243.5 955.5,-224.5 880.5,-224.5"/>
<text text-anchor="middle" x="918" y="-231.5" font-family="Helvetica,sans-Serif" font-size="10.00">ecmult_gen.h</text>
</a>
</g>
</g>
<!-- Node26&#45;&gt;Node27 -->
<g id="edge60" class="edge"><title>Node26&#45;&gt;Node27</title>
<path fill="none" stroke="midnightblue" d="M1050.12,-280.444C1023.71,-271.359 981.785,-256.939 952.258,-246.783"/>
<polygon fill="midnightblue" stroke="midnightblue" points="953.355,-243.459 942.761,-243.516 951.079,-250.079 953.355,-243.459"/>
</g>
<!-- Node27&#45;&gt;Node15 -->
<g id="edge62" class="edge"><title>Node27&#45;&gt;Node15</title>
<path fill="none" stroke="midnightblue" d="M886.943,-224.444C851.423,-214.657 793.429,-198.679 756.52,-188.511"/>
<polygon fill="midnightblue" stroke="midnightblue" points="757.276,-185.089 746.706,-185.807 755.417,-191.837 757.276,-185.089"/>
</g>
<!-- Node27&#45;&gt;Node17 -->
<g id="edge61" class="edge"><title>Node27&#45;&gt;Node17</title>
<path fill="none" stroke="midnightblue" d="M880.45,-228.349C797.423,-218.066 599.184,-193.514 517.802,-183.434"/>
<polygon fill="midnightblue" stroke="midnightblue" points="517.923,-179.922 507.568,-182.167 517.062,-186.869 517.923,-179.922"/>
</g>
<!-- Node28&#45;&gt;Node14 -->
<g id="edge66" class="edge"><title>Node28&#45;&gt;Node14</title>
<path fill="none" stroke="midnightblue" d="M841.996,-336.297C888.46,-302.588 1056.92,-180.374 1115.64,-137.771"/>
<polygon fill="midnightblue" stroke="midnightblue" points="1118.05,-140.348 1124.09,-131.643 1113.94,-134.682 1118.05,-140.348"/>
</g>
<!-- Node28&#45;&gt;Node15 -->
<g id="edge67" class="edge"><title>Node28&#45;&gt;Node15</title>
<path fill="none" stroke="midnightblue" d="M831.085,-336.493C833.341,-314.932 836.193,-257.481 808,-224 794.538,-208.012 773.933,-196.954 756.267,-189.8"/>
<polygon fill="midnightblue" stroke="midnightblue" points="757.41,-186.491 746.819,-186.222 754.93,-193.037 757.41,-186.491"/>
</g>
<!-- Node28&#45;&gt;Node17 -->
<g id="edge65" class="edge"><title>Node28&#45;&gt;Node17</title>
<path fill="none" stroke="midnightblue" d="M792.98,-338.506C727.973,-327.039 599.27,-304.031 590,-300 551.523,-283.268 540.921,-276.182 514,-244 502.295,-230.008 493.582,-211.008 488.228,-197.165"/>
<polygon fill="midnightblue" stroke="midnightblue" points="491.509,-195.947 484.794,-187.752 484.933,-198.346 491.509,-195.947"/>
</g>
<!-- Node28&#45;&gt;Node21 -->
<g id="edge68" class="edge"><title>Node28&#45;&gt;Node21</title>
<path fill="none" stroke="midnightblue" d="M792.926,-338.216C732.404,-327.023 618.33,-305.388 611,-300 595.443,-288.565 585.771,-268.283 580.421,-253.407"/>
<polygon fill="midnightblue" stroke="midnightblue" points="583.695,-252.157 577.266,-243.735 577.039,-254.327 583.695,-252.157"/>
</g>
<!-- Node28&#45;&gt;Node27 -->
<g id="edge69" class="edge"><title>Node28&#45;&gt;Node27</title>
<path fill="none" stroke="midnightblue" d="M836.905,-336.368C851.492,-318.135 885.659,-275.426 904.66,-251.675"/>
<polygon fill="midnightblue" stroke="midnightblue" points="907.613,-253.587 911.127,-243.591 902.147,-249.214 907.613,-253.587"/>
</g>
<!-- Node29 -->
<g id="node30" class="node"><title>Node29</title>
<g id="a_node30"><a xlink:href="ecdsa_8h.html" target="_top" xlink:title="ecdsa.h">
<polygon fill="white" stroke="black" points="620.5,-280.5 620.5,-299.5 671.5,-299.5 671.5,-280.5 620.5,-280.5"/>
<text text-anchor="middle" x="646" y="-287.5" font-family="Helvetica,sans-Serif" font-size="10.00">ecdsa.h</text>
</a>
</g>
</g>
<!-- Node28&#45;&gt;Node29 -->
<g id="edge70" class="edge"><title>Node28&#45;&gt;Node29</title>
<path fill="none" stroke="midnightblue" d="M800.845,-336.444C768.472,-326.943 716.213,-311.606 681.488,-301.415"/>
<polygon fill="midnightblue" stroke="midnightblue" points="682.334,-298.016 671.753,-298.558 680.363,-304.732 682.334,-298.016"/>
</g>
<!-- Node29&#45;&gt;Node3 -->
<g id="edge71" class="edge"><title>Node29&#45;&gt;Node3</title>
<path fill="none" stroke="midnightblue" d="M652.275,-280.083C657.642,-272.455 665.518,-261.264 672.079,-251.941"/>
<polygon fill="midnightblue" stroke="midnightblue" points="674.949,-253.943 677.842,-243.751 669.225,-249.915 674.949,-253.943"/>
</g>
<!-- Node29&#45;&gt;Node15 -->
<g id="edge73" class="edge"><title>Node29&#45;&gt;Node15</title>
<path fill="none" stroke="midnightblue" d="M643.992,-280.287C641.452,-267.095 638.566,-241.716 649,-224 657.739,-209.162 673.483,-198.546 688.118,-191.366"/>
<polygon fill="midnightblue" stroke="midnightblue" points="689.817,-194.439 697.491,-187.134 686.936,-188.059 689.817,-194.439"/>
</g>
<!-- Node29&#45;&gt;Node17 -->
<g id="edge72" class="edge"><title>Node29&#45;&gt;Node17</title>
<path fill="none" stroke="midnightblue" d="M620.122,-281.763C597.348,-274.58 564.014,-262.028 539,-244 520.621,-230.754 504.1,-210.532 493.635,-196.165"/>
<polygon fill="midnightblue" stroke="midnightblue" points="496.293,-193.861 487.674,-187.701 490.57,-197.892 496.293,-193.861"/>
</g>
<!-- Node29&#45;&gt;Node21 -->
<g id="edge74" class="edge"><title>Node29&#45;&gt;Node21</title>
<path fill="none" stroke="midnightblue" d="M634.593,-280.324C623.891,-272.185 607.659,-259.839 594.837,-250.087"/>
<polygon fill="midnightblue" stroke="midnightblue" points="596.693,-247.102 586.615,-243.834 592.456,-252.673 596.693,-247.102"/>
</g>
<!-- Node30&#45;&gt;Node14 -->
<g id="edge83" class="edge"><title>Node30&#45;&gt;Node14</title>
<path fill="none" stroke="midnightblue" d="M959.075,-342.447C1013.36,-337.859 1110.37,-326.144 1132,-300 1151.48,-276.454 1143.11,-182.703 1138.4,-142.011"/>
<polygon fill="midnightblue" stroke="midnightblue" points="1141.85,-141.343 1137.17,-131.836 1134.9,-142.184 1141.85,-141.343"/>
</g>
<!-- Node30&#45;&gt;Node15 -->
<g id="edge84" class="edge"><title>Node30&#45;&gt;Node15</title>
<path fill="none" stroke="midnightblue" d="M930.084,-336.369C949.109,-315.008 992.996,-258.885 964,-224 950.836,-208.162 820.28,-190.661 756.589,-182.981"/>
<polygon fill="midnightblue" stroke="midnightblue" points="756.949,-179.499 746.606,-181.792 756.121,-186.45 756.949,-179.499"/>
</g>
<!-- Node30&#45;&gt;Node17 -->
<g id="edge82" class="edge"><title>Node30&#45;&gt;Node17</title>
<path fill="none" stroke="midnightblue" d="M884.74,-336.536C839.208,-325.932 766.96,-308.165 757,-300 727.795,-276.058 749.123,-246.776 719,-224 687.865,-200.459 576.423,-187.342 518.126,-181.95"/>
<polygon fill="midnightblue" stroke="midnightblue" points="518.163,-178.439 507.891,-181.032 517.538,-185.411 518.163,-178.439"/>
</g>
<!-- Node30&#45;&gt;Node27 -->
<g id="edge85" class="edge"><title>Node30&#45;&gt;Node27</title>
<path fill="none" stroke="midnightblue" d="M921.686,-336.368C921.041,-318.617 919.552,-277.666 918.676,-253.597"/>
<polygon fill="midnightblue" stroke="midnightblue" points="922.174,-253.458 918.312,-243.591 915.178,-253.712 922.174,-253.458"/>
</g>
<!-- Node31 -->
<g id="node32" class="node"><title>Node31</title>
<g id="a_node32"><a xlink:href="eckey_8h.html" target="_top" xlink:title="eckey.h">
<polygon fill="white" stroke="black" points="766.5,-280.5 766.5,-299.5 817.5,-299.5 817.5,-280.5 766.5,-280.5"/>
<text text-anchor="middle" x="792" y="-287.5" font-family="Helvetica,sans-Serif" font-size="10.00">eckey.h</text>
</a>
</g>
</g>
<!-- Node30&#45;&gt;Node31 -->
<g id="edge76" class="edge"><title>Node30&#45;&gt;Node31</title>
<path fill="none" stroke="midnightblue" d="M901.401,-336.444C880.007,-327.557 846.319,-313.563 821.976,-303.451"/>
<polygon fill="midnightblue" stroke="midnightblue" points="823.08,-300.12 812.503,-299.516 820.395,-306.585 823.08,-300.12"/>
</g>
<!-- Node31&#45;&gt;Node3 -->
<g id="edge77" class="edge"><title>Node31&#45;&gt;Node3</title>
<path fill="none" stroke="midnightblue" d="M774.648,-280.324C757.328,-271.664 730.485,-258.242 710.498,-248.249"/>
<polygon fill="midnightblue" stroke="midnightblue" points="711.819,-244.996 701.309,-243.655 708.688,-251.257 711.819,-244.996"/>
</g>
<!-- Node31&#45;&gt;Node15 -->
<g id="edge78" class="edge"><title>Node31&#45;&gt;Node15</title>
<path fill="none" stroke="midnightblue" d="M794.103,-280.345C796.794,-267.229 800.004,-241.948 790,-224 782.104,-209.834 767.657,-199.335 754.104,-192.058"/>
<polygon fill="midnightblue" stroke="midnightblue" points="755.47,-188.828 744.955,-187.529 752.364,-195.102 755.47,-188.828"/>
</g>
<!-- Node31&#45;&gt;Node17 -->
<g id="edge79" class="edge"><title>Node31&#45;&gt;Node17</title>
<path fill="none" stroke="midnightblue" d="M789.25,-280.163C784.299,-265.836 772.45,-237.756 752,-224 714.275,-198.624 582.101,-186.042 517.746,-181.305"/>
<polygon fill="midnightblue" stroke="midnightblue" points="517.88,-177.806 507.656,-180.586 517.382,-184.788 517.88,-177.806"/>
</g>
<!-- Node31&#45;&gt;Node21 -->
<g id="edge80" class="edge"><title>Node31&#45;&gt;Node21</title>
<path fill="none" stroke="midnightblue" d="M766.255,-282.593C727.926,-273.055 655.675,-255.076 611.783,-244.153"/>
<polygon fill="midnightblue" stroke="midnightblue" points="612.621,-240.755 602.072,-241.737 610.931,-247.548 612.621,-240.755"/>
</g>
<!-- Node31&#45;&gt;Node27 -->
<g id="edge81" class="edge"><title>Node31&#45;&gt;Node27</title>
<path fill="none" stroke="midnightblue" d="M811.965,-280.444C832.609,-271.596 865.063,-257.687 888.632,-247.586"/>
<polygon fill="midnightblue" stroke="midnightblue" points="890.316,-250.673 898.128,-243.516 887.558,-244.239 890.316,-250.673"/>
</g>
</g>
</svg>
        <g id="navigator" transform="translate(0 0)" fill="#404254">
                <rect fill="#f2f5e9" fill-opacity="0.5" stroke="#606060" stroke-width=".5" x="0" y="0" width="60" height="60"/>
                <use id="zoomplus" xlink:href="#zoomPlus" x="17" y="9" onmousedown="handleZoom(evt,'in')"/>
                <use id="zoomminus" xlink:href="#zoomMin" x="42" y="9" onmousedown="handleZoom(evt,'out')"/>
                <use id="reset" xlink:href="#resetDef" x="30" y="36" onmousedown="handleReset()"/>
                <g id="arrowUp" xlink:href="#dirArrow" transform="translate(30 24)" onmousedown="handlePan(0,-1)">
                  <use xlink:href="#rim" fill="#404040">
                        <set attributeName="fill" to="#808080" begin="arrowUp.mouseover" end="arrowUp.mouseout"/>
                  </use>
                  <path fill="none" stroke="white" stroke-width="1.5" d="M0,-3.0v7 M-2.5,-0.5L0,-3.0L2.5,-0.5"/>
                </g>
                <g id="arrowRight" xlink:href="#dirArrow" transform="rotate(90) translate(36 -43)" onmousedown="handlePan(1,0)">
                  <use xlink:href="#rim" fill="#404040">
                        <set attributeName="fill" to="#808080" begin="arrowRight.mouseover" end="arrowRight.mouseout"/>
                  </use>
                  <path fill="none" stroke="white" stroke-width="1.5" d="M0,-3.0v7 M-2.5,-0.5L0,-3.0L2.5,-0.5"/>
                </g>
                <g id="arrowDown" xlink:href="#dirArrow" transform="rotate(180) translate(-30 -48)" onmousedown="handlePan(0,1)">
                  <use xlink:href="#rim" fill="#404040">
                        <set attributeName="fill" to="#808080" begin="arrowDown.mouseover" end="arrowDown.mouseout"/>
                  </use>
                  <path fill="none" stroke="white" stroke-width="1.5" d="M0,-3.0v7 M-2.5,-0.5L0,-3.0L2.5,-0.5"/>
                </g>
                <g id="arrowLeft" xlink:href="#dirArrow" transform="rotate(270) translate(-36 17)" onmousedown="handlePan(-1,0)">
                  <use xlink:href="#rim" fill="#404040">
                        <set attributeName="fill" to="#808080" begin="arrowLeft.mouseover" end="arrowLeft.mouseout"/>
                  </use>
                  <path fill="none" stroke="white" stroke-width="1.5" d="M0,-3.0v7 M-2.5,-0.5L0,-3.0L2.5,-0.5"/>
                </g>
        </g>
        <svg viewBox="0 0 15 15" width="100%" height="30px" preserveAspectRatio="xMaxYMin meet">
         <g id="arrow_out" transform="scale(0.3 0.3)">
          <a xlink:href="bench__internal_8c__incl_org.svg" target="_base">
           <rect id="button" ry="5" rx="5" y="6" x="6" height="38" width="38"
                fill="#f2f5e9" fill-opacity="0.5" stroke="#606060" stroke-width="1.0"/>
           <path id="arrow"
             d="M 11.500037,31.436501 C 11.940474,20.09759 22.043105,11.32322 32.158766,21.979434 L 37.068811,17.246167 C 37.068811,17.246167 37.088388,32 37.088388,32 L 22.160133,31.978069 C 22.160133,31.978069 26.997745,27.140456 26.997745,27.140456 C 18.528582,18.264221 13.291696,25.230495 11.500037,31.436501 z"
             style="fill:#404040;"/>
          </a>
         </g>
        </svg>
</svg>
