<?xml version="1.0" encoding="UTF-8" standalone="no"?>
<!DOCTYPE svg PUBLIC "-//W3C//DTD SVG 1.1//EN"
 "http://www.w3.org/Graphics/SVG/1.1/DTD/svg11.dtd">
<!-- Generated by graphviz version 2.36.0 (20140111.2315)
 -->
<!-- Title: src/bench/bls.cpp Pages: 1 -->
<!--zoomable 432 -->
<svg id="main" version="1.1" xmlns="http://www.w3.org/2000/svg" xmlns:xlink="http://www.w3.org/1999/xlink" xml:space="preserve" onload="init(evt)">
<style type="text/css"><![CDATA[
.edge:hover path { stroke: red; }
.edge:hover polygon { stroke: red; fill: red; }
]]></style>
<script type="text/javascript"><![CDATA[
var edges = document.getElementsByTagName('g');
if (edges && edges.length) {
  for (var i=0;i<edges.length;i++) {
    if (edges[i].id.substr(0,4)=='edge') {
      edges[i].setAttribute('class','edge');
    }
  }
}
]]></script>
        <defs>
                <circle id="rim" cx="0" cy="0" r="7"/>
                <circle id="rim2" cx="0" cy="0" r="3.5"/>
                <g id="zoomPlus">
                        <use xlink:href="#rim" fill="#404040">
                                <set attributeName="fill" to="#808080" begin="zoomplus.mouseover" end="zoomplus.mouseout"/>
                        </use>
                        <path d="M-4,0h8M0,-4v8" fill="none" stroke="white" stroke-width="1.5" pointer-events="none"/>
                </g>
                <g id="zoomMin">
                        <use xlink:href="#rim" fill="#404040">
                                <set attributeName="fill" to="#808080" begin="zoomminus.mouseover" end="zoomminus.mouseout"/>
                        </use>
                        <path d="M-4,0h8" fill="none" stroke="white" stroke-width="1.5" pointer-events="none"/>
                </g>
                <g id="dirArrow">
                        <path fill="none" stroke="white" stroke-width="1.5" d="M0,-3.0v7 M-2.5,-0.5L0,-3.0L2.5,-0.5"/>
                </g>
               <g id="resetDef">
                       <use xlink:href="#rim2" fill="#404040">
                               <set attributeName="fill" to="#808080" begin="reset.mouseover" end="reset.mouseout"/>
                       </use>
               </g>
        </defs>

<script type="text/javascript">
var viewWidth = 2218;
var viewHeight = 432;
var sectionId = 'dynsection-0';
</script>
<script xlink:href="svgpan.js"/>
<svg id="graph" class="graph">
<g id="viewport">
<title>src/bench/bls.cpp</title>
<polygon fill="white" stroke="none" points="-4,4 -4,-428 2214,-428 2214,4 -4,4"/>
<!-- Node0 -->
<g id="node1" class="node"><title>Node0</title>
<polygon fill="#bfbfbf" stroke="black" points="642,-404.5 642,-423.5 736,-423.5 736,-404.5 642,-404.5"/>
<text text-anchor="middle" x="689" y="-411.5" font-family="Helvetica,sans-Serif" font-size="10.00">src/bench/bls.cpp</text>
</g>
<!-- Node1 -->
<g id="node2" class="node"><title>Node1</title>
<g id="a_node2"><a xlink:href="bench_2bench_8h.html" target="_top" xlink:title="bench.h">
<polygon fill="white" stroke="black" points="269.5,-236.5 269.5,-255.5 320.5,-255.5 320.5,-236.5 269.5,-236.5"/>
<text text-anchor="middle" x="295" y="-243.5" font-family="Helvetica,sans-Serif" font-size="10.00">bench.h</text>
</a>
</g>
</g>
<!-- Node0&#45;&gt;Node1 -->
<g id="edge1" class="edge"><title>Node0&#45;&gt;Node1</title>
<path fill="none" stroke="midnightblue" d="M668.647,-404.425C603.799,-377.103 401.81,-292.001 325.029,-259.652"/>
<polygon fill="midnightblue" stroke="midnightblue" points="326.043,-256.281 315.468,-255.624 323.325,-262.732 326.043,-256.281"/>
</g>
<!-- Node7 -->
<g id="node8" class="node"><title>Node7</title>
<g id="a_node8"><a xlink:href="random_8h.html" target="_top" xlink:title="random.h">
<polygon fill="white" stroke="black" points="586.5,-292.5 586.5,-311.5 643.5,-311.5 643.5,-292.5 586.5,-292.5"/>
<text text-anchor="middle" x="615" y="-299.5" font-family="Helvetica,sans-Serif" font-size="10.00">random.h</text>
</a>
</g>
</g>
<!-- Node0&#45;&gt;Node7 -->
<g id="edge7" class="edge"><title>Node0&#45;&gt;Node7</title>
<path fill="none" stroke="midnightblue" d="M683.193,-404.368C670.981,-386.215 642.448,-343.802 626.43,-319.99"/>
<polygon fill="midnightblue" stroke="midnightblue" points="629.266,-317.935 620.78,-311.591 623.457,-321.842 629.266,-317.935"/>
</g>
<!-- Node18 -->
<g id="node19" class="node"><title>Node18</title>
<g id="a_node19"><a xlink:href="bls__worker_8h.html" target="_top" xlink:title="bls/bls_worker.h">
<polygon fill="white" stroke="black" points="1623,-348.5 1623,-367.5 1711,-367.5 1711,-348.5 1623,-348.5"/>
<text text-anchor="middle" x="1667" y="-355.5" font-family="Helvetica,sans-Serif" font-size="10.00">bls/bls_worker.h</text>
</a>
</g>
</g>
<!-- Node0&#45;&gt;Node18 -->
<g id="edge23" class="edge"><title>Node0&#45;&gt;Node18</title>
<path fill="none" stroke="midnightblue" d="M736.171,-410.395C899.295,-401.389 1438.99,-371.589 1612.66,-362.001"/>
<polygon fill="midnightblue" stroke="midnightblue" points="1613.04,-365.485 1622.83,-361.439 1612.66,-358.495 1613.04,-365.485"/>
</g>
<!-- Node47 -->
<g id="node48" class="node"><title>Node47</title>
<g id="a_node48"><a xlink:href="utiltime_8h.html" target="_top" xlink:title="utiltime.h">
<polygon fill="white" stroke="black" points="661,-236.5 661,-255.5 717,-255.5 717,-236.5 661,-236.5"/>
<text text-anchor="middle" x="689" y="-243.5" font-family="Helvetica,sans-Serif" font-size="10.00">utiltime.h</text>
</a>
</g>
</g>
<!-- Node0&#45;&gt;Node47 -->
<g id="edge71" class="edge"><title>Node0&#45;&gt;Node47</title>
<path fill="none" stroke="midnightblue" d="M689,-404.075C689,-377.945 689,-301.211 689,-265.577"/>
<polygon fill="midnightblue" stroke="midnightblue" points="692.5,-265.568 689,-255.568 685.5,-265.568 692.5,-265.568"/>
</g>
<!-- Node48 -->
<g id="node49" class="node"><title>Node48</title>
<polygon fill="white" stroke="#bfbfbf" points="1729,-348.5 1729,-367.5 1783,-367.5 1783,-348.5 1729,-348.5"/>
<text text-anchor="middle" x="1756" y="-355.5" font-family="Helvetica,sans-Serif" font-size="10.00">iostream</text>
</g>
<!-- Node0&#45;&gt;Node48 -->
<g id="edge74" class="edge"><title>Node0&#45;&gt;Node48</title>
<path fill="none" stroke="midnightblue" d="M736.066,-412.162C908.412,-408.909 1505.61,-395.95 1718.49,-367.686"/>
<polygon fill="midnightblue" stroke="midnightblue" points="1719.21,-371.12 1728.64,-366.285 1718.25,-364.186 1719.21,-371.12"/>
</g>
<!-- Node2 -->
<g id="node3" class="node"><title>Node2</title>
<polygon fill="white" stroke="#bfbfbf" points="717.5,-174.5 717.5,-193.5 752.5,-193.5 752.5,-174.5 717.5,-174.5"/>
<text text-anchor="middle" x="735" y="-181.5" font-family="Helvetica,sans-Serif" font-size="10.00">map</text>
</g>
<!-- Node1&#45;&gt;Node2 -->
<g id="edge2" class="edge"><title>Node1&#45;&gt;Node2</title>
<path fill="none" stroke="midnightblue" d="M320.601,-242.883C381.474,-237.643 539.526,-222.815 670,-200 682.403,-197.831 695.994,-194.799 707.528,-192.028"/>
<polygon fill="midnightblue" stroke="midnightblue" points="708.573,-195.376 717.448,-189.589 706.902,-188.578 708.573,-195.376"/>
</g>
<!-- Node3 -->
<g id="node4" class="node"><title>Node3</title>
<polygon fill="white" stroke="#bfbfbf" points="809.5,-174.5 809.5,-193.5 850.5,-193.5 850.5,-174.5 809.5,-174.5"/>
<text text-anchor="middle" x="830" y="-181.5" font-family="Helvetica,sans-Serif" font-size="10.00">string</text>
</g>
<!-- Node1&#45;&gt;Node3 -->
<g id="edge3" class="edge"><title>Node1&#45;&gt;Node3</title>
<path fill="none" stroke="midnightblue" d="M320.643,-243.588C391.22,-239.472 594.171,-226.096 761,-200 773.646,-198.022 787.455,-195.162 799.374,-192.469"/>
<polygon fill="midnightblue" stroke="midnightblue" points="800.334,-195.839 809.286,-190.171 798.754,-189.02 800.334,-195.839"/>
</g>
<!-- Node4 -->
<g id="node5" class="node"><title>Node4</title>
<polygon fill="white" stroke="#bfbfbf" points="-0.5,-174.5 -0.5,-193.5 96.5,-193.5 96.5,-174.5 -0.5,-174.5"/>
<text text-anchor="middle" x="48" y="-181.5" font-family="Helvetica,sans-Serif" font-size="10.00">boost/function.hpp</text>
</g>
<!-- Node1&#45;&gt;Node4 -->
<g id="edge4" class="edge"><title>Node1&#45;&gt;Node4</title>
<path fill="none" stroke="midnightblue" d="M269.283,-239.043C232.882,-230.573 164.269,-214.47 106,-200 100.956,-198.747 95.6715,-197.412 90.4323,-196.075"/>
<polygon fill="midnightblue" stroke="midnightblue" points="91.0446,-192.618 80.4882,-193.52 89.3029,-199.398 91.0446,-192.618"/>
</g>
<!-- Node5 -->
<g id="node6" class="node"><title>Node5</title>
<polygon fill="white" stroke="#bfbfbf" points="115,-169 115,-199 215,-199 215,-169 115,-169"/>
<text text-anchor="start" x="123" y="-187" font-family="Helvetica,sans-Serif" font-size="10.00">boost/preprocessor</text>
<text text-anchor="middle" x="165" y="-176" font-family="Helvetica,sans-Serif" font-size="10.00">/cat.hpp</text>
</g>
<!-- Node1&#45;&gt;Node5 -->
<g id="edge5" class="edge"><title>Node1&#45;&gt;Node5</title>
<path fill="none" stroke="midnightblue" d="M276.374,-236.403C257.78,-227.822 228.622,-214.364 204.804,-203.371"/>
<polygon fill="midnightblue" stroke="midnightblue" points="206.185,-200.154 195.638,-199.141 203.251,-206.509 206.185,-200.154"/>
</g>
<!-- Node6 -->
<g id="node7" class="node"><title>Node6</title>
<polygon fill="white" stroke="#bfbfbf" points="233,-169 233,-199 333,-199 333,-169 233,-169"/>
<text text-anchor="start" x="241" y="-187" font-family="Helvetica,sans-Serif" font-size="10.00">boost/preprocessor</text>
<text text-anchor="middle" x="283" y="-176" font-family="Helvetica,sans-Serif" font-size="10.00">/stringize.hpp</text>
</g>
<!-- Node1&#45;&gt;Node6 -->
<g id="edge6" class="edge"><title>Node1&#45;&gt;Node6</title>
<path fill="none" stroke="midnightblue" d="M293.281,-236.403C291.853,-229.265 289.75,-218.752 287.818,-209.09"/>
<polygon fill="midnightblue" stroke="midnightblue" points="291.221,-208.26 285.828,-199.141 284.357,-209.633 291.221,-208.26"/>
</g>
<!-- Node8 -->
<g id="node9" class="node"><title>Node8</title>
<g id="a_node9"><a xlink:href="uint256_8h.html" target="_top" xlink:title="uint256.h">
<polygon fill="white" stroke="black" points="587,-236.5 587,-255.5 643,-255.5 643,-236.5 587,-236.5"/>
<text text-anchor="middle" x="615" y="-243.5" font-family="Helvetica,sans-Serif" font-size="10.00">uint256.h</text>
</a>
</g>
</g>
<!-- Node7&#45;&gt;Node8 -->
<g id="edge8" class="edge"><title>Node7&#45;&gt;Node8</title>
<path fill="none" stroke="midnightblue" d="M615,-292.083C615,-285.006 615,-274.861 615,-265.986"/>
<polygon fill="midnightblue" stroke="midnightblue" points="618.5,-265.751 615,-255.751 611.5,-265.751 618.5,-265.751"/>
</g>
<!-- Node12 -->
<g id="node13" class="node"><title>Node12</title>
<polygon fill="white" stroke="#bfbfbf" points="648.5,-0.5 648.5,-19.5 697.5,-19.5 697.5,-0.5 648.5,-0.5"/>
<text text-anchor="middle" x="673" y="-7.5" font-family="Helvetica,sans-Serif" font-size="10.00">stdint.h</text>
</g>
<!-- Node7&#45;&gt;Node12 -->
<g id="edge22" class="edge"><title>Node7&#45;&gt;Node12</title>
<path fill="none" stroke="midnightblue" d="M586.357,-300.781C519.929,-298.613 361,-283.168 361,-185 361,-185 361,-185 361,-121 361,-62.804 556.512,-27.8142 637.999,-15.7582"/>
<polygon fill="midnightblue" stroke="midnightblue" points="638.862,-19.1698 648.257,-14.273 637.859,-12.2421 638.862,-19.1698"/>
</g>
<!-- Node8&#45;&gt;Node3 -->
<g id="edge13" class="edge"><title>Node8&#45;&gt;Node3</title>
<path fill="none" stroke="midnightblue" d="M643.278,-238.056C692.11,-226.047 787.75,-202.442 795,-200 797.412,-199.187 799.89,-198.28 802.36,-197.325"/>
<polygon fill="midnightblue" stroke="midnightblue" points="803.761,-200.533 811.687,-193.502 801.107,-194.056 803.761,-200.533"/>
</g>
<!-- Node9 -->
<g id="node10" class="node"><title>Node9</title>
<polygon fill="white" stroke="#bfbfbf" points="1087,-112.5 1087,-131.5 1139,-131.5 1139,-112.5 1087,-112.5"/>
<text text-anchor="middle" x="1113" y="-119.5" font-family="Helvetica,sans-Serif" font-size="10.00">assert.h</text>
</g>
<!-- Node8&#45;&gt;Node9 -->
<g id="edge9" class="edge"><title>Node8&#45;&gt;Node9</title>
<path fill="none" stroke="midnightblue" d="M643.149,-237.717C679.49,-228.077 740.497,-211.016 761,-200 780.751,-189.388 779.481,-177.039 800,-168 848.981,-146.422 1004.94,-131.608 1076.49,-125.773"/>
<polygon fill="midnightblue" stroke="midnightblue" points="1077.13,-129.233 1086.81,-124.945 1076.57,-122.255 1077.13,-129.233"/>
</g>
<!-- Node10 -->
<g id="node11" class="node"><title>Node10</title>
<polygon fill="white" stroke="#bfbfbf" points="505,-174.5 505,-193.5 551,-193.5 551,-174.5 505,-174.5"/>
<text text-anchor="middle" x="528" y="-181.5" font-family="Helvetica,sans-Serif" font-size="10.00">cstring</text>
</g>
<!-- Node8&#45;&gt;Node10 -->
<g id="edge10" class="edge"><title>Node8&#45;&gt;Node10</title>
<path fill="none" stroke="midnightblue" d="M602.535,-236.403C588.581,-226.78 565.735,-211.024 549.009,-199.489"/>
<polygon fill="midnightblue" stroke="midnightblue" points="550.661,-196.377 540.442,-193.581 546.687,-202.139 550.661,-196.377"/>
</g>
<!-- Node11 -->
<g id="node12" class="node"><title>Node11</title>
<polygon fill="white" stroke="#bfbfbf" points="389.5,-174.5 389.5,-193.5 448.5,-193.5 448.5,-174.5 389.5,-174.5"/>
<text text-anchor="middle" x="419" y="-181.5" font-family="Helvetica,sans-Serif" font-size="10.00">stdexcept</text>
</g>
<!-- Node8&#45;&gt;Node11 -->
<g id="edge11" class="edge"><title>Node8&#45;&gt;Node11</title>
<path fill="none" stroke="midnightblue" d="M586.881,-237.046C556.293,-228.308 506.008,-213.691 463,-200 459.847,-198.996 456.575,-197.929 453.304,-196.845"/>
<polygon fill="midnightblue" stroke="midnightblue" points="454.203,-193.455 443.609,-193.587 451.973,-200.09 454.203,-193.455"/>
</g>
<!-- Node8&#45;&gt;Node12 -->
<g id="edge12" class="edge"><title>Node8&#45;&gt;Node12</title>
<path fill="none" stroke="midnightblue" d="M586.877,-243.161C558.591,-239.639 516.341,-229.438 496,-200 487.915,-188.299 494.322,-182.123 496,-168 502.042,-117.154 487.801,-93.1866 523,-56 552.98,-24.3271 604.282,-14.6783 638.415,-11.8888"/>
<polygon fill="midnightblue" stroke="midnightblue" points="638.667,-15.3798 648.414,-11.2265 638.204,-8.39513 638.667,-15.3798"/>
</g>
<!-- Node13 -->
<g id="node14" class="node"><title>Node13</title>
<polygon fill="white" stroke="#bfbfbf" points="1453,-174.5 1453,-193.5 1497,-193.5 1497,-174.5 1453,-174.5"/>
<text text-anchor="middle" x="1475" y="-181.5" font-family="Helvetica,sans-Serif" font-size="10.00">vector</text>
</g>
<!-- Node8&#45;&gt;Node13 -->
<g id="edge14" class="edge"><title>Node8&#45;&gt;Node13</title>
<path fill="none" stroke="midnightblue" d="M643.173,-237.556C646.138,-236.95 649.121,-236.413 652,-236 994.202,-186.919 1088.93,-262.149 1429,-200 1433.59,-199.162 1438.35,-197.982 1442.99,-196.648"/>
<polygon fill="midnightblue" stroke="midnightblue" points="1444.36,-199.887 1452.85,-193.555 1442.26,-193.208 1444.36,-199.887"/>
</g>
<!-- Node14 -->
<g id="node15" class="node"><title>Node14</title>
<g id="a_node15"><a xlink:href="common_8h.html" target="_top" xlink:title="crypto/common.h">
<polygon fill="white" stroke="black" points="569,-174.5 569,-193.5 661,-193.5 661,-174.5 569,-174.5"/>
<text text-anchor="middle" x="615" y="-181.5" font-family="Helvetica,sans-Serif" font-size="10.00">crypto/common.h</text>
</a>
</g>
</g>
<!-- Node8&#45;&gt;Node14 -->
<g id="edge15" class="edge"><title>Node8&#45;&gt;Node14</title>
<path fill="none" stroke="midnightblue" d="M615,-236.403C615,-227.938 615,-214.728 615,-203.82"/>
<polygon fill="midnightblue" stroke="midnightblue" points="618.5,-203.581 615,-193.581 611.5,-203.581 618.5,-203.581"/>
</g>
<!-- Node14&#45;&gt;Node12 -->
<g id="edge16" class="edge"><title>Node14&#45;&gt;Node12</title>
<path fill="none" stroke="midnightblue" d="M602.007,-174.444C572.003,-153.634 502.773,-98.9319 534,-56 557.695,-23.4231 605.485,-13.9469 638.356,-11.4471"/>
<polygon fill="midnightblue" stroke="midnightblue" points="638.674,-14.9345 648.454,-10.8601 638.268,-7.94633 638.674,-14.9345"/>
</g>
<!-- Node15 -->
<g id="node16" class="node"><title>Node15</title>
<polygon fill="white" stroke="#bfbfbf" points="940.5,-112.5 940.5,-131.5 989.5,-131.5 989.5,-112.5 940.5,-112.5"/>
<text text-anchor="middle" x="965" y="-119.5" font-family="Helvetica,sans-Serif" font-size="10.00">string.h</text>
</g>
<!-- Node14&#45;&gt;Node15 -->
<g id="edge17" class="edge"><title>Node14&#45;&gt;Node15</title>
<path fill="none" stroke="midnightblue" d="M661.116,-175.094C732.154,-162.916 866.772,-139.839 930.237,-128.959"/>
<polygon fill="midnightblue" stroke="midnightblue" points="930.886,-132.399 940.151,-127.26 929.703,-125.5 930.886,-132.399"/>
</g>
<!-- Node16 -->
<g id="node17" class="node"><title>Node16</title>
<g id="a_node17"><a xlink:href="endian_8h.html" target="_top" xlink:title="compat/endian.h">
<polygon fill="white" stroke="black" points="570.5,-112.5 570.5,-131.5 659.5,-131.5 659.5,-112.5 570.5,-112.5"/>
<text text-anchor="middle" x="615" y="-119.5" font-family="Helvetica,sans-Serif" font-size="10.00">compat/endian.h</text>
</a>
</g>
</g>
<!-- Node14&#45;&gt;Node16 -->
<g id="edge18" class="edge"><title>Node14&#45;&gt;Node16</title>
<path fill="none" stroke="midnightblue" d="M615,-174.403C615,-165.938 615,-152.728 615,-141.82"/>
<polygon fill="midnightblue" stroke="midnightblue" points="618.5,-141.581 615,-131.581 611.5,-141.581 618.5,-141.581"/>
</g>
<!-- Node16&#45;&gt;Node12 -->
<g id="edge19" class="edge"><title>Node16&#45;&gt;Node12</title>
<path fill="none" stroke="midnightblue" d="M624.038,-112.499C632.596,-103.997 645.256,-90.1793 653,-76 660.958,-61.4282 666.208,-43.2518 669.324,-29.828"/>
<polygon fill="midnightblue" stroke="midnightblue" points="672.789,-30.3634 671.452,-19.8532 665.943,-28.9029 672.789,-30.3634"/>
</g>
<!-- Node17 -->
<g id="node18" class="node"><title>Node17</title>
<g id="a_node18"><a xlink:href="byteswap_8h.html" target="_top" xlink:title="compat/byteswap.h">
<polygon fill="white" stroke="black" points="543,-56.5 543,-75.5 645,-75.5 645,-56.5 543,-56.5"/>
<text text-anchor="middle" x="594" y="-63.5" font-family="Helvetica,sans-Serif" font-size="10.00">compat/byteswap.h</text>
</a>
</g>
</g>
<!-- Node16&#45;&gt;Node17 -->
<g id="edge20" class="edge"><title>Node16&#45;&gt;Node17</title>
<path fill="none" stroke="midnightblue" d="M611.532,-112.083C608.688,-104.77 604.571,-94.1814 601.04,-85.1034"/>
<polygon fill="midnightblue" stroke="midnightblue" points="604.29,-83.8025 597.403,-75.7511 597.766,-86.3397 604.29,-83.8025"/>
</g>
<!-- Node17&#45;&gt;Node12 -->
<g id="edge21" class="edge"><title>Node17&#45;&gt;Node12</title>
<path fill="none" stroke="midnightblue" d="M606.693,-56.324C618.901,-47.979 637.578,-35.2122 652.003,-25.3524"/>
<polygon fill="midnightblue" stroke="midnightblue" points="654.058,-28.1871 660.339,-19.6545 650.108,-22.4082 654.058,-28.1871"/>
</g>
<!-- Node19 -->
<g id="node20" class="node"><title>Node19</title>
<g id="a_node20"><a xlink:href="bls_8h.html" target="_top" xlink:title="bls.h">
<polygon fill="white" stroke="black" points="1027,-292.5 1027,-311.5 1065,-311.5 1065,-292.5 1027,-292.5"/>
<text text-anchor="middle" x="1046" y="-299.5" font-family="Helvetica,sans-Serif" font-size="10.00">bls.h</text>
</a>
</g>
</g>
<!-- Node18&#45;&gt;Node19 -->
<g id="edge24" class="edge"><title>Node18&#45;&gt;Node19</title>
<path fill="none" stroke="midnightblue" d="M1622.84,-353.16C1503.2,-342.756 1175.12,-314.228 1075.24,-305.543"/>
<polygon fill="midnightblue" stroke="midnightblue" points="1075.52,-302.054 1065.25,-304.674 1074.91,-309.027 1075.52,-302.054"/>
</g>
<!-- Node39 -->
<g id="node40" class="node"><title>Node39</title>
<g id="a_node40"><a xlink:href="ctpl_8h.html" target="_top" xlink:title="ctpl.h">
<polygon fill="white" stroke="black" points="1902.5,-292.5 1902.5,-311.5 1943.5,-311.5 1943.5,-292.5 1902.5,-292.5"/>
<text text-anchor="middle" x="1923" y="-299.5" font-family="Helvetica,sans-Serif" font-size="10.00">ctpl.h</text>
</a>
</g>
</g>
<!-- Node18&#45;&gt;Node39 -->
<g id="edge58" class="edge"><title>Node18&#45;&gt;Node39</title>
<path fill="none" stroke="midnightblue" d="M1707.56,-348.444C1758.97,-337.601 1846.41,-319.156 1892.5,-309.435"/>
<polygon fill="midnightblue" stroke="midnightblue" points="1893.41,-312.818 1902.48,-307.329 1891.97,-305.969 1893.41,-312.818"/>
</g>
<!-- Node44 -->
<g id="node45" class="node"><title>Node44</title>
<polygon fill="white" stroke="#bfbfbf" points="2106.5,-236.5 2106.5,-255.5 2147.5,-255.5 2147.5,-236.5 2106.5,-236.5"/>
<text text-anchor="middle" x="2127" y="-243.5" font-family="Helvetica,sans-Serif" font-size="10.00">future</text>
</g>
<!-- Node18&#45;&gt;Node44 -->
<g id="edge68" class="edge"><title>Node18&#45;&gt;Node44</title>
<path fill="none" stroke="midnightblue" d="M1711.24,-349.439C1714.2,-348.948 1717.14,-348.464 1720,-348 1822.99,-331.265 1851.02,-338.299 1952,-312 2005.1,-298.171 2064.5,-274.208 2098.64,-259.56"/>
<polygon fill="midnightblue" stroke="midnightblue" points="2100.2,-262.7 2107.99,-255.514 2097.42,-256.276 2100.2,-262.7"/>
</g>
<!-- Node45 -->
<g id="node46" class="node"><title>Node45</title>
<polygon fill="white" stroke="#bfbfbf" points="2166,-236.5 2166,-255.5 2210,-255.5 2210,-236.5 2166,-236.5"/>
<text text-anchor="middle" x="2188" y="-243.5" font-family="Helvetica,sans-Serif" font-size="10.00">mutex</text>
</g>
<!-- Node18&#45;&gt;Node45 -->
<g id="edge69" class="edge"><title>Node18&#45;&gt;Node45</title>
<path fill="none" stroke="midnightblue" d="M1711.23,-349.356C1714.19,-348.884 1717.14,-348.428 1720,-348 1843.22,-329.568 1876.67,-340.306 1998,-312 2055.88,-298.497 2120.93,-274.154 2157.93,-259.396"/>
<polygon fill="midnightblue" stroke="midnightblue" points="2159.62,-262.487 2167.59,-255.505 2157.01,-255.993 2159.62,-262.487"/>
</g>
<!-- Node46 -->
<g id="node47" class="node"><title>Node46</title>
<polygon fill="white" stroke="#bfbfbf" points="1604,-236.5 1604,-255.5 1730,-255.5 1730,-236.5 1604,-236.5"/>
<text text-anchor="middle" x="1667" y="-243.5" font-family="Helvetica,sans-Serif" font-size="10.00">boost/lockfree/queue.hpp</text>
</g>
<!-- Node18&#45;&gt;Node46 -->
<g id="edge70" class="edge"><title>Node18&#45;&gt;Node46</title>
<path fill="none" stroke="midnightblue" d="M1667,-348.368C1667,-330.617 1667,-289.666 1667,-265.597"/>
<polygon fill="midnightblue" stroke="midnightblue" points="1670.5,-265.591 1667,-255.591 1663.5,-265.591 1670.5,-265.591"/>
</g>
<!-- Node19&#45;&gt;Node8 -->
<g id="edge47" class="edge"><title>Node19&#45;&gt;Node8</title>
<path fill="none" stroke="midnightblue" d="M1026.61,-299.648C970.402,-295.548 802.458,-282.025 653.445,-256.055"/>
<polygon fill="midnightblue" stroke="midnightblue" points="653.661,-252.539 643.205,-254.245 652.443,-259.432 653.661,-252.539"/>
</g>
<!-- Node20 -->
<g id="node21" class="node"><title>Node20</title>
<polygon fill="white" stroke="#bfbfbf" points="861,-236.5 861,-255.5 907,-255.5 907,-236.5 861,-236.5"/>
<text text-anchor="middle" x="884" y="-243.5" font-family="Helvetica,sans-Serif" font-size="10.00">hash.h</text>
</g>
<!-- Node19&#45;&gt;Node20 -->
<g id="edge25" class="edge"><title>Node19&#45;&gt;Node20</title>
<path fill="none" stroke="midnightblue" d="M1026.78,-294.593C999.664,-285.555 949.806,-268.935 916.774,-257.925"/>
<polygon fill="midnightblue" stroke="midnightblue" points="917.701,-254.544 907.107,-254.702 915.487,-261.185 917.701,-254.544"/>
</g>
<!-- Node21 -->
<g id="node22" class="node"><title>Node21</title>
<g id="a_node22"><a xlink:href="serialize_8h.html" target="_top" xlink:title="serialize.h">
<polygon fill="white" stroke="black" points="925.5,-236.5 925.5,-255.5 986.5,-255.5 986.5,-236.5 925.5,-236.5"/>
<text text-anchor="middle" x="956" y="-243.5" font-family="Helvetica,sans-Serif" font-size="10.00">serialize.h</text>
</a>
</g>
</g>
<!-- Node19&#45;&gt;Node21 -->
<g id="edge26" class="edge"><title>Node19&#45;&gt;Node21</title>
<path fill="none" stroke="midnightblue" d="M1031.54,-292.324C1017.5,-283.9 995.952,-270.971 979.457,-261.074"/>
<polygon fill="midnightblue" stroke="midnightblue" points="980.8,-257.798 970.424,-255.655 977.198,-263.801 980.8,-257.798"/>
</g>
<!-- Node32 -->
<g id="node33" class="node"><title>Node32</title>
<g id="a_node33"><a xlink:href="utilstrencodings_8h.html" target="_top" xlink:title="utilstrencodings.h">
<polygon fill="white" stroke="black" points="1492.5,-236.5 1492.5,-255.5 1585.5,-255.5 1585.5,-236.5 1492.5,-236.5"/>
<text text-anchor="middle" x="1539" y="-243.5" font-family="Helvetica,sans-Serif" font-size="10.00">utilstrencodings.h</text>
</a>
</g>
</g>
<!-- Node19&#45;&gt;Node32 -->
<g id="edge48" class="edge"><title>Node19&#45;&gt;Node32</title>
<path fill="none" stroke="midnightblue" d="M1065.21,-299.414C1125.17,-294.381 1314.35,-277.88 1482.27,-256.025"/>
<polygon fill="midnightblue" stroke="midnightblue" points="1482.82,-259.483 1492.28,-254.712 1481.91,-252.542 1482.82,-259.483"/>
</g>
<!-- Node33 -->
<g id="node34" class="node"><title>Node33</title>
<polygon fill="white" stroke="#bfbfbf" points="1005,-236.5 1005,-255.5 1087,-255.5 1087,-236.5 1005,-236.5"/>
<text text-anchor="middle" x="1046" y="-243.5" font-family="Helvetica,sans-Serif" font-size="10.00">chiabls/bls.hpp</text>
</g>
<!-- Node19&#45;&gt;Node33 -->
<g id="edge52" class="edge"><title>Node19&#45;&gt;Node33</title>
<path fill="none" stroke="midnightblue" d="M1046,-292.083C1046,-285.006 1046,-274.861 1046,-265.986"/>
<polygon fill="midnightblue" stroke="midnightblue" points="1049.5,-265.751 1046,-255.751 1042.5,-265.751 1049.5,-265.751"/>
</g>
<!-- Node34 -->
<g id="node35" class="node"><title>Node34</title>
<polygon fill="white" stroke="#bfbfbf" points="1105,-236.5 1105,-255.5 1219,-255.5 1219,-236.5 1105,-236.5"/>
<text text-anchor="middle" x="1162" y="-243.5" font-family="Helvetica,sans-Serif" font-size="10.00">chiabls/privatekey.hpp</text>
</g>
<!-- Node19&#45;&gt;Node34 -->
<g id="edge53" class="edge"><title>Node19&#45;&gt;Node34</title>
<path fill="none" stroke="midnightblue" d="M1064.38,-292.444C1083.22,-283.675 1112.73,-269.935 1134.38,-259.858"/>
<polygon fill="midnightblue" stroke="midnightblue" points="1136.12,-262.91 1143.71,-255.516 1133.16,-256.564 1136.12,-262.91"/>
</g>
<!-- Node35 -->
<g id="node36" class="node"><title>Node35</title>
<polygon fill="white" stroke="#bfbfbf" points="1237,-236.5 1237,-255.5 1347,-255.5 1347,-236.5 1237,-236.5"/>
<text text-anchor="middle" x="1292" y="-243.5" font-family="Helvetica,sans-Serif" font-size="10.00">chiabls/publickey.hpp</text>
</g>
<!-- Node19&#45;&gt;Node35 -->
<g id="edge54" class="edge"><title>Node19&#45;&gt;Node35</title>
<path fill="none" stroke="midnightblue" d="M1065.3,-296.763C1103.26,-288.43 1188.66,-269.684 1243.13,-257.728"/>
<polygon fill="midnightblue" stroke="midnightblue" points="1243.9,-261.142 1252.92,-255.579 1242.4,-254.304 1243.9,-261.142"/>
</g>
<!-- Node36 -->
<g id="node37" class="node"><title>Node36</title>
<polygon fill="white" stroke="#bfbfbf" points="1365.5,-236.5 1365.5,-255.5 1474.5,-255.5 1474.5,-236.5 1365.5,-236.5"/>
<text text-anchor="middle" x="1420" y="-243.5" font-family="Helvetica,sans-Serif" font-size="10.00">chiabls/signature.hpp</text>
</g>
<!-- Node19&#45;&gt;Node36 -->
<g id="edge55" class="edge"><title>Node19&#45;&gt;Node36</title>
<path fill="none" stroke="midnightblue" d="M1065.06,-298.248C1117.9,-290.619 1268.06,-268.938 1355.21,-256.354"/>
<polygon fill="midnightblue" stroke="midnightblue" points="1355.86,-259.797 1365.26,-254.904 1354.86,-252.869 1355.86,-259.797"/>
</g>
<!-- Node37 -->
<g id="node38" class="node"><title>Node37</title>
<polygon fill="white" stroke="#bfbfbf" points="735,-236.5 735,-255.5 773,-255.5 773,-236.5 735,-236.5"/>
<text text-anchor="middle" x="754" y="-243.5" font-family="Helvetica,sans-Serif" font-size="10.00">array</text>
</g>
<!-- Node19&#45;&gt;Node37 -->
<g id="edge56" class="edge"><title>Node19&#45;&gt;Node37</title>
<path fill="none" stroke="midnightblue" d="M1026.92,-298.695C984.654,-293.39 879.825,-279.141 783.11,-255.978"/>
<polygon fill="midnightblue" stroke="midnightblue" points="783.721,-252.525 773.177,-253.561 782.065,-259.326 783.721,-252.525"/>
</g>
<!-- Node38 -->
<g id="node39" class="node"><title>Node38</title>
<polygon fill="white" stroke="#bfbfbf" points="791.5,-236.5 791.5,-255.5 842.5,-255.5 842.5,-236.5 791.5,-236.5"/>
<text text-anchor="middle" x="817" y="-243.5" font-family="Helvetica,sans-Serif" font-size="10.00">unistd.h</text>
</g>
<!-- Node19&#45;&gt;Node38 -->
<g id="edge57" class="edge"><title>Node19&#45;&gt;Node38</title>
<path fill="none" stroke="midnightblue" d="M1026.96,-296.742C993.73,-289.275 922.741,-273.177 852.499,-256.076"/>
<polygon fill="midnightblue" stroke="midnightblue" points="853.142,-252.63 842.597,-253.657 851.48,-259.43 853.142,-252.63"/>
</g>
<!-- Node21&#45;&gt;Node2 -->
<g id="edge33" class="edge"><title>Node21&#45;&gt;Node2</title>
<path fill="none" stroke="midnightblue" d="M925.271,-236.657C881.973,-224.902 803.688,-203.648 762.32,-192.417"/>
<polygon fill="midnightblue" stroke="midnightblue" points="763.21,-189.032 752.642,-189.79 761.376,-195.788 763.21,-189.032"/>
</g>
<!-- Node21&#45;&gt;Node3 -->
<g id="edge37" class="edge"><title>Node21&#45;&gt;Node3</title>
<path fill="none" stroke="midnightblue" d="M937.947,-236.403C916.802,-226.334 881.56,-209.552 857.122,-197.915"/>
<polygon fill="midnightblue" stroke="midnightblue" points="858.553,-194.72 848.019,-193.581 855.543,-201.04 858.553,-194.72"/>
</g>
<!-- Node21&#45;&gt;Node9 -->
<g id="edge29" class="edge"><title>Node21&#45;&gt;Node9</title>
<path fill="none" stroke="midnightblue" d="M986.546,-237.984C989.734,-237.295 992.93,-236.621 996,-236 1040.26,-227.041 1167.03,-234.645 1196,-200 1205.12,-189.089 1203.28,-180.22 1196,-168 1185.67,-150.65 1166.06,-139.578 1148.5,-132.759"/>
<polygon fill="midnightblue" stroke="midnightblue" points="1149.62,-129.442 1139.02,-129.395 1147.28,-136.039 1149.62,-129.442"/>
</g>
<!-- Node21&#45;&gt;Node12 -->
<g id="edge36" class="edge"><title>Node21&#45;&gt;Node12</title>
<path fill="none" stroke="midnightblue" d="M986.507,-237.774C989.703,-237.126 992.911,-236.519 996,-236 1066.79,-224.104 1268.76,-253.157 1317,-200 1343.28,-171.034 1342.38,-142.584 1318,-112 1241.36,-15.8612 831.377,-10.1331 708.092,-10.6225"/>
<polygon fill="midnightblue" stroke="midnightblue" points="707.709,-7.12448 697.729,-10.6814 707.749,-14.1244 707.709,-7.12448"/>
</g>
<!-- Node21&#45;&gt;Node13 -->
<g id="edge40" class="edge"><title>Node21&#45;&gt;Node13</title>
<path fill="none" stroke="midnightblue" d="M986.928,-237.597C989.983,-237 993.045,-236.453 996,-236 1186.88,-206.735 1239.71,-238.191 1429,-200 1433.57,-199.078 1438.32,-197.851 1442.96,-196.494"/>
<polygon fill="midnightblue" stroke="midnightblue" points="1444.33,-199.73 1452.82,-193.385 1442.23,-193.054 1444.33,-199.73"/>
</g>
<!-- Node21&#45;&gt;Node15 -->
<g id="edge38" class="edge"><title>Node21&#45;&gt;Node15</title>
<path fill="none" stroke="midnightblue" d="M956.647,-236.226C958.1,-216.53 961.648,-168.437 963.62,-141.7"/>
<polygon fill="midnightblue" stroke="midnightblue" points="967.113,-141.925 964.359,-131.694 960.132,-141.41 967.113,-141.925"/>
</g>
<!-- Node21&#45;&gt;Node16 -->
<g id="edge27" class="edge"><title>Node21&#45;&gt;Node16</title>
<path fill="none" stroke="midnightblue" d="M944.811,-236.463C933.078,-227.477 914.138,-212.878 898,-200 880.474,-186.015 879.336,-177.444 859,-168 798.144,-139.739 721.008,-129.21 669.936,-125.296"/>
<polygon fill="midnightblue" stroke="midnightblue" points="669.987,-121.791 659.765,-124.578 669.493,-128.774 669.987,-121.791"/>
</g>
<!-- Node22 -->
<g id="node23" class="node"><title>Node22</title>
<polygon fill="white" stroke="#bfbfbf" points="1365,-174.5 1365,-193.5 1421,-193.5 1421,-174.5 1365,-174.5"/>
<text text-anchor="middle" x="1393" y="-181.5" font-family="Helvetica,sans-Serif" font-size="10.00">algorithm</text>
</g>
<!-- Node21&#45;&gt;Node22 -->
<g id="edge28" class="edge"><title>Node21&#45;&gt;Node22</title>
<path fill="none" stroke="midnightblue" d="M986.501,-237.74C989.698,-237.098 992.909,-236.503 996,-236 1152.53,-210.548 1196.31,-234.925 1351,-200 1354.69,-199.167 1358.5,-198.105 1362.26,-196.932"/>
<polygon fill="midnightblue" stroke="midnightblue" points="1363.58,-200.178 1371.93,-193.649 1361.33,-193.549 1363.58,-200.178"/>
</g>
<!-- Node23 -->
<g id="node24" class="node"><title>Node23</title>
<polygon fill="white" stroke="#bfbfbf" points="907.5,-174.5 907.5,-193.5 936.5,-193.5 936.5,-174.5 907.5,-174.5"/>
<text text-anchor="middle" x="922" y="-181.5" font-family="Helvetica,sans-Serif" font-size="10.00">ios</text>
</g>
<!-- Node21&#45;&gt;Node23 -->
<g id="edge30" class="edge"><title>Node21&#45;&gt;Node23</title>
<path fill="none" stroke="midnightblue" d="M951.129,-236.403C946.13,-227.582 938.211,-213.608 931.891,-202.455"/>
<polygon fill="midnightblue" stroke="midnightblue" points="934.838,-200.555 926.862,-193.581 928.747,-204.006 934.838,-200.555"/>
</g>
<!-- Node24 -->
<g id="node25" class="node"><title>Node24</title>
<polygon fill="white" stroke="#bfbfbf" points="993,-174.5 993,-193.5 1033,-193.5 1033,-174.5 993,-174.5"/>
<text text-anchor="middle" x="1013" y="-181.5" font-family="Helvetica,sans-Serif" font-size="10.00">limits</text>
</g>
<!-- Node21&#45;&gt;Node24 -->
<g id="edge31" class="edge"><title>Node21&#45;&gt;Node24</title>
<path fill="none" stroke="midnightblue" d="M964.167,-236.403C972.886,-227.225 986.904,-212.47 997.689,-201.117"/>
<polygon fill="midnightblue" stroke="midnightblue" points="1000.5,-203.241 1004.85,-193.581 995.423,-198.42 1000.5,-203.241"/>
</g>
<!-- Node25 -->
<g id="node26" class="node"><title>Node25</title>
<polygon fill="white" stroke="#bfbfbf" points="1051.5,-174.5 1051.5,-193.5 1080.5,-193.5 1080.5,-174.5 1051.5,-174.5"/>
<text text-anchor="middle" x="1066" y="-181.5" font-family="Helvetica,sans-Serif" font-size="10.00">list</text>
</g>
<!-- Node21&#45;&gt;Node25 -->
<g id="edge32" class="edge"><title>Node21&#45;&gt;Node25</title>
<path fill="none" stroke="midnightblue" d="M973.342,-236.417C990.861,-227.632 1018.61,-213.405 1042,-200 1042.53,-199.695 1043.07,-199.383 1043.61,-199.067"/>
<polygon fill="midnightblue" stroke="midnightblue" points="1045.66,-201.921 1052.4,-193.75 1042.03,-195.931 1045.66,-201.921"/>
</g>
<!-- Node26 -->
<g id="node27" class="node"><title>Node26</title>
<polygon fill="white" stroke="#bfbfbf" points="1806,-174.5 1806,-193.5 1858,-193.5 1858,-174.5 1806,-174.5"/>
<text text-anchor="middle" x="1832" y="-181.5" font-family="Helvetica,sans-Serif" font-size="10.00">memory</text>
</g>
<!-- Node21&#45;&gt;Node26 -->
<g id="edge34" class="edge"><title>Node21&#45;&gt;Node26</title>
<path fill="none" stroke="midnightblue" d="M986.918,-237.529C989.975,-236.945 993.04,-236.42 996,-236 1075.87,-224.653 1645.52,-194.653 1795.75,-186.867"/>
<polygon fill="midnightblue" stroke="midnightblue" points="1796.03,-190.358 1805.83,-186.346 1795.66,-183.367 1796.03,-190.358"/>
</g>
<!-- Node27 -->
<g id="node28" class="node"><title>Node27</title>
<polygon fill="white" stroke="#bfbfbf" points="1099,-174.5 1099,-193.5 1129,-193.5 1129,-174.5 1099,-174.5"/>
<text text-anchor="middle" x="1114" y="-181.5" font-family="Helvetica,sans-Serif" font-size="10.00">set</text>
</g>
<!-- Node21&#45;&gt;Node27 -->
<g id="edge35" class="edge"><title>Node21&#45;&gt;Node27</title>
<path fill="none" stroke="midnightblue" d="M986.559,-236.691C1013.99,-228.76 1055.04,-215.712 1089,-200 1089.99,-199.543 1090.99,-199.057 1091.99,-198.55"/>
<polygon fill="midnightblue" stroke="midnightblue" points="1093.76,-201.566 1100.79,-193.641 1090.36,-195.452 1093.76,-201.566"/>
</g>
<!-- Node28 -->
<g id="node29" class="node"><title>Node28</title>
<polygon fill="white" stroke="#bfbfbf" points="1147,-174.5 1147,-193.5 1187,-193.5 1187,-174.5 1147,-174.5"/>
<text text-anchor="middle" x="1167" y="-181.5" font-family="Helvetica,sans-Serif" font-size="10.00">utility</text>
</g>
<!-- Node21&#45;&gt;Node28 -->
<g id="edge39" class="edge"><title>Node21&#45;&gt;Node28</title>
<path fill="none" stroke="midnightblue" d="M986.803,-237.733C1034.68,-226.377 1122.95,-205.187 1137,-200 1138.65,-199.39 1140.33,-198.715 1142.01,-197.998"/>
<polygon fill="midnightblue" stroke="midnightblue" points="1143.83,-201.012 1151.41,-193.608 1140.87,-194.67 1143.83,-201.012"/>
</g>
<!-- Node29 -->
<g id="node30" class="node"><title>Node29</title>
<g id="a_node30"><a xlink:href="prevector_8h.html" target="_top" xlink:title="prevector.h">
<polygon fill="white" stroke="black" points="1243.5,-174.5 1243.5,-193.5 1308.5,-193.5 1308.5,-174.5 1243.5,-174.5"/>
<text text-anchor="middle" x="1276" y="-181.5" font-family="Helvetica,sans-Serif" font-size="10.00">prevector.h</text>
</a>
</g>
</g>
<!-- Node21&#45;&gt;Node29 -->
<g id="edge41" class="edge"><title>Node21&#45;&gt;Node29</title>
<path fill="none" stroke="midnightblue" d="M986.53,-237.906C989.722,-237.232 992.923,-236.583 996,-236 1098.95,-216.488 1127,-224.002 1229,-200 1233.22,-199.007 1237.61,-197.82 1241.94,-196.554"/>
<polygon fill="midnightblue" stroke="midnightblue" points="1243.28,-199.803 1251.81,-193.514 1241.22,-193.113 1243.28,-199.803"/>
</g>
<!-- Node29&#45;&gt;Node9 -->
<g id="edge42" class="edge"><title>Node29&#45;&gt;Node9</title>
<path fill="none" stroke="midnightblue" d="M1252.65,-174.403C1224.69,-164.111 1177.67,-146.806 1146.01,-135.15"/>
<polygon fill="midnightblue" stroke="midnightblue" points="1146.9,-131.75 1136.31,-131.581 1144.49,-138.32 1146.9,-131.75"/>
</g>
<!-- Node29&#45;&gt;Node12 -->
<g id="edge44" class="edge"><title>Node29&#45;&gt;Node12</title>
<path fill="none" stroke="midnightblue" d="M1271.03,-174.351C1261.75,-159.061 1240.25,-127.421 1213,-112 1125.03,-62.2157 812.515,-25.6296 707.619,-14.5173"/>
<polygon fill="midnightblue" stroke="midnightblue" points="707.875,-11.025 697.564,-13.4631 707.145,-17.9868 707.875,-11.025"/>
</g>
<!-- Node29&#45;&gt;Node15 -->
<g id="edge45" class="edge"><title>Node29&#45;&gt;Node15</title>
<path fill="none" stroke="midnightblue" d="M1243.31,-176.692C1184.19,-165.287 1060.06,-141.339 999.583,-129.672"/>
<polygon fill="midnightblue" stroke="midnightblue" points="1000.23,-126.233 989.752,-127.775 998.908,-133.106 1000.23,-126.233"/>
</g>
<!-- Node30 -->
<g id="node31" class="node"><title>Node30</title>
<polygon fill="white" stroke="#bfbfbf" points="1261,-112.5 1261,-131.5 1309,-131.5 1309,-112.5 1261,-112.5"/>
<text text-anchor="middle" x="1285" y="-119.5" font-family="Helvetica,sans-Serif" font-size="10.00">stdlib.h</text>
</g>
<!-- Node29&#45;&gt;Node30 -->
<g id="edge43" class="edge"><title>Node29&#45;&gt;Node30</title>
<path fill="none" stroke="midnightblue" d="M1277.29,-174.403C1278.57,-165.849 1280.58,-152.45 1282.23,-141.476"/>
<polygon fill="midnightblue" stroke="midnightblue" points="1285.69,-141.989 1283.71,-131.581 1278.77,-140.951 1285.69,-141.989"/>
</g>
<!-- Node31 -->
<g id="node32" class="node"><title>Node31</title>
<polygon fill="white" stroke="#bfbfbf" points="1157.5,-112.5 1157.5,-131.5 1204.5,-131.5 1204.5,-112.5 1157.5,-112.5"/>
<text text-anchor="middle" x="1181" y="-119.5" font-family="Helvetica,sans-Serif" font-size="10.00">iterator</text>
</g>
<!-- Node29&#45;&gt;Node31 -->
<g id="edge46" class="edge"><title>Node29&#45;&gt;Node31</title>
<path fill="none" stroke="midnightblue" d="M1262.39,-174.403C1246.94,-164.646 1221.51,-148.585 1203.18,-137.011"/>
<polygon fill="midnightblue" stroke="midnightblue" points="1204.91,-133.961 1194.59,-131.581 1201.17,-139.88 1204.91,-133.961"/>
</g>
<!-- Node32&#45;&gt;Node3 -->
<g id="edge50" class="edge"><title>Node32&#45;&gt;Node3</title>
<path fill="none" stroke="midnightblue" d="M1492.3,-237.143C1489.15,-236.723 1486.03,-236.336 1483,-236 1224.09,-207.298 1155.97,-236.166 898,-200 885.717,-198.278 872.358,-195.527 860.758,-192.849"/>
<polygon fill="midnightblue" stroke="midnightblue" points="861.22,-189.361 850.681,-190.441 859.593,-196.169 861.22,-189.361"/>
</g>
<!-- Node32&#45;&gt;Node12 -->
<g id="edge49" class="edge"><title>Node32&#45;&gt;Node12</title>
<path fill="none" stroke="midnightblue" d="M1537.29,-236.213C1533.82,-220.573 1524.57,-187.7 1505,-168 1419.49,-81.9007 1373.58,-86.0052 1256,-56 1151.17,-29.2475 816.734,-15.8477 707.719,-12.1116"/>
<polygon fill="midnightblue" stroke="midnightblue" points="707.708,-8.60929 697.596,-11.7703 707.472,-15.6053 707.708,-8.60929"/>
</g>
<!-- Node32&#45;&gt;Node13 -->
<g id="edge51" class="edge"><title>Node32&#45;&gt;Node13</title>
<path fill="none" stroke="midnightblue" d="M1529.83,-236.403C1519.85,-227.047 1503.69,-211.895 1491.49,-200.46"/>
<polygon fill="midnightblue" stroke="midnightblue" points="1493.84,-197.867 1484.15,-193.581 1489.05,-202.973 1493.84,-197.867"/>
</g>
<!-- Node39&#45;&gt;Node13 -->
<g id="edge62" class="edge"><title>Node39&#45;&gt;Node13</title>
<path fill="none" stroke="midnightblue" d="M1919.64,-292.049C1913.69,-277.557 1899.82,-249.247 1878,-236 1815.71,-198.186 1591.36,-188.188 1507.2,-185.739"/>
<polygon fill="midnightblue" stroke="midnightblue" points="1507.28,-182.24 1497.19,-185.465 1507.09,-189.238 1507.28,-182.24"/>
</g>
<!-- Node39&#45;&gt;Node26 -->
<g id="edge63" class="edge"><title>Node39&#45;&gt;Node26</title>
<path fill="none" stroke="midnightblue" d="M1943.54,-298.943C1988.81,-293.618 2090.65,-276.838 2058,-236 2034.65,-206.794 1926.01,-193.11 1868.28,-187.807"/>
<polygon fill="midnightblue" stroke="midnightblue" points="1868.39,-184.303 1858.13,-186.912 1867.78,-191.276 1868.39,-184.303"/>
</g>
<!-- Node40 -->
<g id="node41" class="node"><title>Node40</title>
<polygon fill="white" stroke="#bfbfbf" points="1748.5,-236.5 1748.5,-255.5 1807.5,-255.5 1807.5,-236.5 1748.5,-236.5"/>
<text text-anchor="middle" x="1778" y="-243.5" font-family="Helvetica,sans-Serif" font-size="10.00">functional</text>
</g>
<!-- Node39&#45;&gt;Node40 -->
<g id="edge59" class="edge"><title>Node39&#45;&gt;Node40</title>
<path fill="none" stroke="midnightblue" d="M1902.23,-293.263C1878.27,-284.341 1838.59,-269.564 1810.53,-259.114"/>
<polygon fill="midnightblue" stroke="midnightblue" points="1811.73,-255.825 1801.13,-255.615 1809.28,-262.385 1811.73,-255.825"/>
</g>
<!-- Node41 -->
<g id="node42" class="node"><title>Node41</title>
<polygon fill="white" stroke="#bfbfbf" points="1826,-236.5 1826,-255.5 1870,-255.5 1870,-236.5 1826,-236.5"/>
<text text-anchor="middle" x="1848" y="-243.5" font-family="Helvetica,sans-Serif" font-size="10.00">thread</text>
</g>
<!-- Node39&#45;&gt;Node41 -->
<g id="edge60" class="edge"><title>Node39&#45;&gt;Node41</title>
<path fill="none" stroke="midnightblue" d="M1910.95,-292.324C1899.54,-284.107 1882.17,-271.602 1868.57,-261.807"/>
<polygon fill="midnightblue" stroke="midnightblue" points="1870.43,-258.837 1860.27,-255.834 1866.34,-264.517 1870.43,-258.837"/>
</g>
<!-- Node42 -->
<g id="node43" class="node"><title>Node42</title>
<polygon fill="white" stroke="#bfbfbf" points="1926,-236.5 1926,-255.5 1972,-255.5 1972,-236.5 1926,-236.5"/>
<text text-anchor="middle" x="1949" y="-243.5" font-family="Helvetica,sans-Serif" font-size="10.00">atomic</text>
</g>
<!-- Node39&#45;&gt;Node42 -->
<g id="edge61" class="edge"><title>Node39&#45;&gt;Node42</title>
<path fill="none" stroke="midnightblue" d="M1927.29,-292.083C1930.85,-284.691 1936.02,-273.953 1940.42,-264.811"/>
<polygon fill="midnightblue" stroke="midnightblue" points="1943.6,-266.279 1944.79,-255.751 1937.29,-263.243 1943.6,-266.279"/>
</g>
<!-- Node43 -->
<g id="node44" class="node"><title>Node43</title>
<polygon fill="white" stroke="#bfbfbf" points="1990.5,-236.5 1990.5,-255.5 2049.5,-255.5 2049.5,-236.5 1990.5,-236.5"/>
<text text-anchor="middle" x="2020" y="-243.5" font-family="Helvetica,sans-Serif" font-size="10.00">exception</text>
</g>
<!-- Node39&#45;&gt;Node43 -->
<g id="edge64" class="edge"><title>Node39&#45;&gt;Node43</title>
<path fill="none" stroke="midnightblue" d="M1938.58,-292.324C1954,-283.743 1977.81,-270.486 1995.71,-260.522"/>
<polygon fill="midnightblue" stroke="midnightblue" points="1997.42,-263.577 2004.45,-255.655 1994.01,-257.461 1997.42,-263.577"/>
</g>
<!-- Node39&#45;&gt;Node44 -->
<g id="edge65" class="edge"><title>Node39&#45;&gt;Node44</title>
<path fill="none" stroke="midnightblue" d="M1943.68,-295.525C1979.8,-285.963 2054.53,-266.182 2096.57,-255.055"/>
<polygon fill="midnightblue" stroke="midnightblue" points="2097.49,-258.432 2106.26,-252.489 2095.7,-251.665 2097.49,-258.432"/>
</g>
<!-- Node39&#45;&gt;Node45 -->
<g id="edge66" class="edge"><title>Node39&#45;&gt;Node45</title>
<path fill="none" stroke="midnightblue" d="M1943.69,-297.6C1983.01,-291.016 2071.34,-275.614 2155.92,-255.839"/>
<polygon fill="midnightblue" stroke="midnightblue" points="2156.75,-259.239 2165.68,-253.533 2155.15,-252.426 2156.75,-259.239"/>
</g>
<!-- Node39&#45;&gt;Node46 -->
<g id="edge67" class="edge"><title>Node39&#45;&gt;Node46</title>
<path fill="none" stroke="midnightblue" d="M1902.48,-296.672C1862.64,-288.267 1773.75,-269.517 1717.3,-257.61"/>
<polygon fill="midnightblue" stroke="midnightblue" points="1718,-254.182 1707.5,-255.542 1716.56,-261.031 1718,-254.182"/>
</g>
<!-- Node47&#45;&gt;Node3 -->
<g id="edge73" class="edge"><title>Node47&#45;&gt;Node3</title>
<path fill="none" stroke="midnightblue" d="M709.33,-236.394C730.674,-227.352 765.209,-212.707 795,-200 796.824,-199.222 798.702,-198.42 800.595,-197.611"/>
<polygon fill="midnightblue" stroke="midnightblue" points="802.199,-200.731 810.016,-193.579 799.445,-194.296 802.199,-200.731"/>
</g>
<!-- Node47&#45;&gt;Node12 -->
<g id="edge72" class="edge"><title>Node47&#45;&gt;Node12</title>
<path fill="none" stroke="midnightblue" d="M688.412,-236.394C686.099,-202.573 677.6,-78.2815 674.312,-30.1838"/>
<polygon fill="midnightblue" stroke="midnightblue" points="677.785,-29.6719 673.611,-19.9339 670.801,-30.1494 677.785,-29.6719"/>
</g>
</g>
</svg>
        <g id="navigator" transform="translate(0 0)" fill="#404254">
                <rect fill="#f2f5e9" fill-opacity="0.5" stroke="#606060" stroke-width=".5" x="0" y="0" width="60" height="60"/>
                <use id="zoomplus" xlink:href="#zoomPlus" x="17" y="9" onmousedown="handleZoom(evt,'in')"/>
                <use id="zoomminus" xlink:href="#zoomMin" x="42" y="9" onmousedown="handleZoom(evt,'out')"/>
                <use id="reset" xlink:href="#resetDef" x="30" y="36" onmousedown="handleReset()"/>
                <g id="arrowUp" xlink:href="#dirArrow" transform="translate(30 24)" onmousedown="handlePan(0,-1)">
                  <use xlink:href="#rim" fill="#404040">
                        <set attributeName="fill" to="#808080" begin="arrowUp.mouseover" end="arrowUp.mouseout"/>
                  </use>
                  <path fill="none" stroke="white" stroke-width="1.5" d="M0,-3.0v7 M-2.5,-0.5L0,-3.0L2.5,-0.5"/>
                </g>
                <g id="arrowRight" xlink:href="#dirArrow" transform="rotate(90) translate(36 -43)" onmousedown="handlePan(1,0)">
                  <use xlink:href="#rim" fill="#404040">
                        <set attributeName="fill" to="#808080" begin="arrowRight.mouseover" end="arrowRight.mouseout"/>
                  </use>
                  <path fill="none" stroke="white" stroke-width="1.5" d="M0,-3.0v7 M-2.5,-0.5L0,-3.0L2.5,-0.5"/>
                </g>
                <g id="arrowDown" xlink:href="#dirArrow" transform="rotate(180) translate(-30 -48)" onmousedown="handlePan(0,1)">
                  <use xlink:href="#rim" fill="#404040">
                        <set attributeName="fill" to="#808080" begin="arrowDown.mouseover" end="arrowDown.mouseout"/>
                  </use>
                  <path fill="none" stroke="white" stroke-width="1.5" d="M0,-3.0v7 M-2.5,-0.5L0,-3.0L2.5,-0.5"/>
                </g>
                <g id="arrowLeft" xlink:href="#dirArrow" transform="rotate(270) translate(-36 17)" onmousedown="handlePan(-1,0)">
                  <use xlink:href="#rim" fill="#404040">
                        <set attributeName="fill" to="#808080" begin="arrowLeft.mouseover" end="arrowLeft.mouseout"/>
                  </use>
                  <path fill="none" stroke="white" stroke-width="1.5" d="M0,-3.0v7 M-2.5,-0.5L0,-3.0L2.5,-0.5"/>
                </g>
        </g>
        <svg viewBox="0 0 15 15" width="100%" height="30px" preserveAspectRatio="xMaxYMin meet">
         <g id="arrow_out" transform="scale(0.3 0.3)">
          <a xlink:href="bench_2bls_8cpp__incl_org.svg" target="_base">
           <rect id="button" ry="5" rx="5" y="6" x="6" height="38" width="38"
                fill="#f2f5e9" fill-opacity="0.5" stroke="#606060" stroke-width="1.0"/>
           <path id="arrow"
             d="M 11.500037,31.436501 C 11.940474,20.09759 22.043105,11.32322 32.158766,21.979434 L 37.068811,17.246167 C 37.068811,17.246167 37.088388,32 37.088388,32 L 22.160133,31.978069 C 22.160133,31.978069 26.997745,27.140456 26.997745,27.140456 C 18.528582,18.264221 13.291696,25.230495 11.500037,31.436501 z"
             style="fill:#404040;"/>
          </a>
         </g>
        </svg>
</svg>
