<?xml version="1.0" encoding="UTF-8" standalone="no"?>
<!DOCTYPE svg PUBLIC "-//W3C//DTD SVG 1.1//EN"
 "http://www.w3.org/Graphics/SVG/1.1/DTD/svg11.dtd">
<!-- Generated by graphviz version 2.36.0 (20140111.2315)
 -->
<!-- Title: src/bench/bench.h Pages: 1 -->
<svg width="2317pt" height="84pt"
 viewBox="0.00 0.00 2317.00 84.00" xmlns="http://www.w3.org/2000/svg" xmlns:xlink="http://www.w3.org/1999/xlink">
<g id="graph0" class="graph" transform="scale(1 1) rotate(0) translate(4 80)">
<title>src/bench/bench.h</title>
<polygon fill="white" stroke="none" points="-4,4 -4,-80 2313,-80 2313,4 -4,4"/>
<!-- Node6 -->
<g id="node1" class="node"><title>Node6</title>
<polygon fill="#bfbfbf" stroke="black" points="1066.5,-56.5 1066.5,-75.5 1163.5,-75.5 1163.5,-56.5 1066.5,-56.5"/>
<text text-anchor="middle" x="1115" y="-63.5" font-family="Helvetica,sans-Serif" font-size="10.00">src/bench/bench.h</text>
</g>
<!-- Node7 -->
<g id="node2" class="node"><title>Node7</title>
<g id="a_node2"><a xlink:href="bench_2base58_8cpp.html" target="_top" xlink:title="src/bench/base58.cpp">
<polygon fill="white" stroke="black" points="-0.5,-0.5 -0.5,-19.5 112.5,-19.5 112.5,-0.5 -0.5,-0.5"/>
<text text-anchor="middle" x="56" y="-7.5" font-family="Helvetica,sans-Serif" font-size="10.00">src/bench/base58.cpp</text>
</a>
</g>
</g>
<!-- Node6&#45;&gt;Node7 -->
<g id="edge1" class="edge"><title>Node6&#45;&gt;Node7</title>
<path fill="none" stroke="midnightblue" d="M1056.1,-64.2303C902.116,-61.8072 474.979,-52.449 121,-20 118.277,-19.7504 115.494,-19.4685 112.685,-19.1626"/>
<polygon fill="midnightblue" stroke="midnightblue" points="1056.23,-67.7325 1066.28,-64.3865 1056.33,-60.7333 1056.23,-67.7325"/>
</g>
<!-- Node8 -->
<g id="node3" class="node"><title>Node8</title>
<g id="a_node3"><a xlink:href="bench_8cpp.html" target="_top" xlink:title="src/bench/bench.cpp">
<polygon fill="white" stroke="black" points="130.5,-0.5 130.5,-19.5 237.5,-19.5 237.5,-0.5 130.5,-0.5"/>
<text text-anchor="middle" x="184" y="-7.5" font-family="Helvetica,sans-Serif" font-size="10.00">src/bench/bench.cpp</text>
</a>
</g>
</g>
<!-- Node6&#45;&gt;Node8 -->
<g id="edge2" class="edge"><title>Node6&#45;&gt;Node8</title>
<path fill="none" stroke="midnightblue" d="M1056.32,-63.7816C916.111,-60.4729 550.669,-49.5017 247,-20 243.921,-19.7009 240.762,-19.3595 237.577,-18.9887"/>
<polygon fill="midnightblue" stroke="midnightblue" points="1056.34,-67.2829 1066.42,-64.0158 1056.5,-60.2848 1056.34,-67.2829"/>
</g>
<!-- Node9 -->
<g id="node4" class="node"><title>Node9</title>
<g id="a_node4"><a xlink:href="bench__dash_8cpp.html" target="_top" xlink:title="src/bench/bench_dash.cpp">
<polygon fill="white" stroke="black" points="256,-0.5 256,-19.5 390,-19.5 390,-0.5 256,-0.5"/>
<text text-anchor="middle" x="323" y="-7.5" font-family="Helvetica,sans-Serif" font-size="10.00">src/bench/bench_dash.cpp</text>
</a>
</g>
</g>
<!-- Node6&#45;&gt;Node9 -->
<g id="edge3" class="edge"><title>Node6&#45;&gt;Node9</title>
<path fill="none" stroke="midnightblue" d="M1056.03,-62.3957C933.499,-56.7413 642.471,-42.0501 399,-20 396.089,-19.7363 393.117,-19.4515 390.116,-19.1512"/>
<polygon fill="midnightblue" stroke="midnightblue" points="1056.16,-65.9052 1066.31,-62.8671 1056.48,-58.9126 1056.16,-65.9052"/>
</g>
<!-- Node10 -->
<g id="node5" class="node"><title>Node10</title>
<g id="a_node5"><a xlink:href="bench_2bls_8cpp.html" target="_top" xlink:title="src/bench/bls.cpp">
<polygon fill="white" stroke="black" points="408,-0.5 408,-19.5 502,-19.5 502,-0.5 408,-0.5"/>
<text text-anchor="middle" x="455" y="-7.5" font-family="Helvetica,sans-Serif" font-size="10.00">src/bench/bls.cpp</text>
</a>
</g>
</g>
<!-- Node6&#45;&gt;Node10 -->
<g id="edge4" class="edge"><title>Node6&#45;&gt;Node10</title>
<path fill="none" stroke="midnightblue" d="M1056.27,-62.2857C948.124,-56.9186 710.307,-43.3974 511,-20 508.066,-19.6556 505.051,-19.2683 502.013,-18.8529"/>
<polygon fill="midnightblue" stroke="midnightblue" points="1056.17,-65.7847 1066.33,-62.7797 1056.51,-58.7931 1056.17,-65.7847"/>
</g>
<!-- Node11 -->
<g id="node6" class="node"><title>Node11</title>
<g id="a_node6"><a xlink:href="bls__dkg_8cpp.html" target="_top" xlink:title="src/bench/bls_dkg.cpp">
<polygon fill="white" stroke="black" points="520.5,-0.5 520.5,-19.5 635.5,-19.5 635.5,-0.5 520.5,-0.5"/>
<text text-anchor="middle" x="578" y="-7.5" font-family="Helvetica,sans-Serif" font-size="10.00">src/bench/bls_dkg.cpp</text>
</a>
</g>
</g>
<!-- Node6&#45;&gt;Node11 -->
<g id="edge5" class="edge"><title>Node6&#45;&gt;Node11</title>
<path fill="none" stroke="midnightblue" d="M1056.27,-60.1538C967.068,-52.6208 792.148,-37.1711 644,-20 641.243,-19.6805 638.423,-19.3417 635.576,-18.9902"/>
<polygon fill="midnightblue" stroke="midnightblue" points="1056.19,-63.6599 1066.45,-61.011 1056.78,-56.6846 1056.19,-63.6599"/>
</g>
<!-- Node12 -->
<g id="node7" class="node"><title>Node12</title>
<g id="a_node7"><a xlink:href="ccoins__caching_8cpp.html" target="_top" xlink:title="src/bench/ccoins_caching.cpp">
<polygon fill="white" stroke="black" points="653.5,-0.5 653.5,-19.5 802.5,-19.5 802.5,-0.5 653.5,-0.5"/>
<text text-anchor="middle" x="728" y="-7.5" font-family="Helvetica,sans-Serif" font-size="10.00">src/bench/ccoins_caching.cpp</text>
</a>
</g>
</g>
<!-- Node6&#45;&gt;Node12 -->
<g id="edge6" class="edge"><title>Node6&#45;&gt;Node12</title>
<path fill="none" stroke="midnightblue" d="M1056.1,-56.7819C983.955,-46.7147 862.327,-29.7433 789.161,-19.5341"/>
<polygon fill="midnightblue" stroke="midnightblue" points="1055.99,-60.2999 1066.38,-58.2155 1056.96,-53.3671 1055.99,-60.2999"/>
</g>
<!-- Node13 -->
<g id="node8" class="node"><title>Node13</title>
<g id="a_node8"><a xlink:href="checkblock_8cpp.html" target="_top" xlink:title="src/bench/checkblock.cpp">
<polygon fill="white" stroke="black" points="820.5,-0.5 820.5,-19.5 951.5,-19.5 951.5,-0.5 820.5,-0.5"/>
<text text-anchor="middle" x="886" y="-7.5" font-family="Helvetica,sans-Serif" font-size="10.00">src/bench/checkblock.cpp</text>
</a>
</g>
</g>
<!-- Node6&#45;&gt;Node13 -->
<g id="edge7" class="edge"><title>Node6&#45;&gt;Node13</title>
<path fill="none" stroke="midnightblue" d="M1068.73,-54.0884C1025.46,-43.8865 961.745,-28.8612 922.116,-19.5164"/>
<polygon fill="midnightblue" stroke="midnightblue" points="1068.18,-57.5549 1078.71,-56.4435 1069.78,-50.7418 1068.18,-57.5549"/>
</g>
<!-- Node14 -->
<g id="node9" class="node"><title>Node14</title>
<g id="a_node9"><a xlink:href="checkqueue_8cpp.html" target="_top" xlink:title="src/bench/checkqueue.cpp">
<polygon fill="white" stroke="black" points="970,-0.5 970,-19.5 1104,-19.5 1104,-0.5 970,-0.5"/>
<text text-anchor="middle" x="1037" y="-7.5" font-family="Helvetica,sans-Serif" font-size="10.00">src/bench/checkqueue.cpp</text>
</a>
</g>
</g>
<!-- Node6&#45;&gt;Node14 -->
<g id="edge8" class="edge"><title>Node6&#45;&gt;Node14</title>
<path fill="none" stroke="midnightblue" d="M1094.23,-50.6221C1079.98,-40.7574 1061.54,-27.9919 1049.5,-19.6545"/>
<polygon fill="midnightblue" stroke="midnightblue" points="1092.25,-53.5095 1102.47,-56.324 1096.24,-47.7541 1092.25,-53.5095"/>
</g>
<!-- Node15 -->
<g id="node10" class="node"><title>Node15</title>
<g id="a_node10"><a xlink:href="coin__selection_8cpp.html" target="_top" xlink:title="src/bench/coin_selection.cpp">
<polygon fill="white" stroke="black" points="1122.5,-0.5 1122.5,-19.5 1265.5,-19.5 1265.5,-0.5 1122.5,-0.5"/>
<text text-anchor="middle" x="1194" y="-7.5" font-family="Helvetica,sans-Serif" font-size="10.00">src/bench/coin_selection.cpp</text>
</a>
</g>
</g>
<!-- Node6&#45;&gt;Node15 -->
<g id="edge9" class="edge"><title>Node6&#45;&gt;Node15</title>
<path fill="none" stroke="midnightblue" d="M1136.03,-50.6221C1150.47,-40.7574 1169.14,-27.9919 1181.34,-19.6545"/>
<polygon fill="midnightblue" stroke="midnightblue" points="1133.97,-47.7914 1127.69,-56.324 1137.92,-53.5703 1133.97,-47.7914"/>
</g>
<!-- Node16 -->
<g id="node11" class="node"><title>Node16</title>
<g id="a_node11"><a xlink:href="crypto__hash_8cpp.html" target="_top" xlink:title="src/bench/crypto_hash.cpp">
<polygon fill="white" stroke="black" points="1284,-0.5 1284,-19.5 1418,-19.5 1418,-0.5 1284,-0.5"/>
<text text-anchor="middle" x="1351" y="-7.5" font-family="Helvetica,sans-Serif" font-size="10.00">src/bench/crypto_hash.cpp</text>
</a>
</g>
</g>
<!-- Node6&#45;&gt;Node16 -->
<g id="edge10" class="edge"><title>Node6&#45;&gt;Node16</title>
<path fill="none" stroke="midnightblue" d="M1162.41,-54.1529C1207,-43.95 1272.85,-28.8809 1313.78,-19.5164"/>
<polygon fill="midnightblue" stroke="midnightblue" points="1161.36,-50.8011 1152.39,-56.4435 1162.92,-57.6248 1161.36,-50.8011"/>
</g>
<!-- Node17 -->
<g id="node12" class="node"><title>Node17</title>
<g id="a_node12"><a xlink:href="ecdsa_8cpp.html" target="_top" xlink:title="src/bench/ecdsa.cpp">
<polygon fill="white" stroke="black" points="1436.5,-0.5 1436.5,-19.5 1543.5,-19.5 1543.5,-0.5 1436.5,-0.5"/>
<text text-anchor="middle" x="1490" y="-7.5" font-family="Helvetica,sans-Serif" font-size="10.00">src/bench/ecdsa.cpp</text>
</a>
</g>
</g>
<!-- Node6&#45;&gt;Node17 -->
<g id="edge11" class="edge"><title>Node6&#45;&gt;Node17</title>
<path fill="none" stroke="midnightblue" d="M1173.9,-56.5187C1245.9,-46.15 1366.74,-28.7497 1436.3,-18.7335"/>
<polygon fill="midnightblue" stroke="midnightblue" points="1173.04,-53.1062 1163.64,-57.9958 1174.04,-60.0347 1173.04,-53.1062"/>
</g>
<!-- Node18 -->
<g id="node13" class="node"><title>Node18</title>
<g id="a_node13"><a xlink:href="_examples_8cpp.html" target="_top" xlink:title="src/bench/Examples.cpp">
<polygon fill="white" stroke="black" points="1561.5,-0.5 1561.5,-19.5 1686.5,-19.5 1686.5,-0.5 1561.5,-0.5"/>
<text text-anchor="middle" x="1624" y="-7.5" font-family="Helvetica,sans-Serif" font-size="10.00">src/bench/Examples.cpp</text>
</a>
</g>
</g>
<!-- Node6&#45;&gt;Node18 -->
<g id="edge12" class="edge"><title>Node6&#45;&gt;Node18</title>
<path fill="none" stroke="midnightblue" d="M1173.64,-59.3705C1257.55,-51.2217 1416.7,-35.4212 1552,-20 1555,-19.6576 1558.08,-19.3004 1561.18,-18.934"/>
<polygon fill="midnightblue" stroke="midnightblue" points="1173.15,-55.9009 1163.54,-60.3496 1173.83,-62.8683 1173.15,-55.9009"/>
</g>
<!-- Node19 -->
<g id="node14" class="node"><title>Node19</title>
<g id="a_node14"><a xlink:href="bench_2lockedpool_8cpp.html" target="_top" xlink:title="src/bench/lockedpool.cpp">
<polygon fill="white" stroke="black" points="1705,-0.5 1705,-19.5 1833,-19.5 1833,-0.5 1705,-0.5"/>
<text text-anchor="middle" x="1769" y="-7.5" font-family="Helvetica,sans-Serif" font-size="10.00">src/bench/lockedpool.cpp</text>
</a>
</g>
</g>
<!-- Node6&#45;&gt;Node19 -->
<g id="edge13" class="edge"><title>Node6&#45;&gt;Node19</title>
<path fill="none" stroke="midnightblue" d="M1173.62,-61.2999C1278.39,-54.4985 1504.61,-38.9544 1695,-20 1698.22,-19.6795 1701.52,-19.3357 1704.84,-18.9763"/>
<polygon fill="midnightblue" stroke="midnightblue" points="1173.32,-57.8121 1163.57,-61.9501 1173.77,-64.7975 1173.32,-57.8121"/>
</g>
<!-- Node20 -->
<g id="node15" class="node"><title>Node20</title>
<g id="a_node15"><a xlink:href="mempool__eviction_8cpp.html" target="_top" xlink:title="src/bench/mempool_eviction.cpp">
<polygon fill="white" stroke="black" points="1851,-0.5 1851,-19.5 2011,-19.5 2011,-0.5 1851,-0.5"/>
<text text-anchor="middle" x="1931" y="-7.5" font-family="Helvetica,sans-Serif" font-size="10.00">src/bench/mempool_eviction.cpp</text>
</a>
</g>
</g>
<!-- Node6&#45;&gt;Node20 -->
<g id="edge14" class="edge"><title>Node6&#45;&gt;Node20</title>
<path fill="none" stroke="midnightblue" d="M1173.55,-62.1514C1297.15,-55.9674 1593.75,-40.2274 1842,-20 1844.94,-19.7604 1847.94,-19.5067 1850.96,-19.2425"/>
<polygon fill="midnightblue" stroke="midnightblue" points="1173.36,-58.6567 1163.54,-62.6502 1173.7,-65.648 1173.36,-58.6567"/>
</g>
<!-- Node21 -->
<g id="node16" class="node"><title>Node21</title>
<g id="a_node16"><a xlink:href="rollingbloom_8cpp.html" target="_top" xlink:title="src/bench/rollingbloom.cpp">
<polygon fill="white" stroke="black" points="2029.5,-0.5 2029.5,-19.5 2162.5,-19.5 2162.5,-0.5 2029.5,-0.5"/>
<text text-anchor="middle" x="2096" y="-7.5" font-family="Helvetica,sans-Serif" font-size="10.00">src/bench/rollingbloom.cpp</text>
</a>
</g>
</g>
<!-- Node6&#45;&gt;Node21 -->
<g id="edge15" class="edge"><title>Node6&#45;&gt;Node21</title>
<path fill="none" stroke="midnightblue" d="M1174.04,-63.4584C1318.55,-59.3814 1701.52,-46.7443 2020,-20 2023.05,-19.7443 2026.16,-19.4619 2029.3,-19.1596"/>
<polygon fill="midnightblue" stroke="midnightblue" points="1173.54,-59.9709 1163.64,-63.7485 1173.73,-66.9681 1173.54,-59.9709"/>
</g>
<!-- Node22 -->
<g id="node17" class="node"><title>Node22</title>
<g id="a_node17"><a xlink:href="string__cast_8cpp.html" target="_top" xlink:title="src/bench/string_cast.cpp">
<polygon fill="white" stroke="black" points="2180.5,-0.5 2180.5,-19.5 2309.5,-19.5 2309.5,-0.5 2180.5,-0.5"/>
<text text-anchor="middle" x="2245" y="-7.5" font-family="Helvetica,sans-Serif" font-size="10.00">src/bench/string_cast.cpp</text>
</a>
</g>
</g>
<!-- Node6&#45;&gt;Node22 -->
<g id="edge16" class="edge"><title>Node6&#45;&gt;Node22</title>
<path fill="none" stroke="midnightblue" d="M1173.61,-64.1146C1333.67,-61.3484 1791.61,-51.1063 2171,-20 2174.1,-19.7462 2177.26,-19.4609 2180.46,-19.1522"/>
<polygon fill="midnightblue" stroke="midnightblue" points="1173.44,-60.6169 1163.5,-64.2862 1173.56,-67.6159 1173.44,-60.6169"/>
</g>
</g>
</svg>
