<?xml version="1.0" encoding="UTF-8" standalone="no"?>
<!DOCTYPE svg PUBLIC "-//W3C//DTD SVG 1.1//EN"
 "http://www.w3.org/Graphics/SVG/1.1/DTD/svg11.dtd">
<!-- Generated by graphviz version 2.36.0 (20140111.2315)
 -->
<!-- Title: src/qt/bitcoinamountfield.cpp Pages: 1 -->
<svg width="1394pt" height="364pt"
 viewBox="0.00 0.00 1394.00 364.00" xmlns="http://www.w3.org/2000/svg" xmlns:xlink="http://www.w3.org/1999/xlink">
<g id="graph0" class="graph" transform="scale(1 1) rotate(0) translate(4 360)">
<title>src/qt/bitcoinamountfield.cpp</title>
<polygon fill="white" stroke="none" points="-4,4 -4,-360 1390,-360 1390,4 -4,4"/>
<!-- Node0 -->
<g id="node1" class="node"><title>Node0</title>
<polygon fill="#bfbfbf" stroke="black" points="821,-336.5 821,-355.5 963,-355.5 963,-336.5 821,-336.5"/>
<text text-anchor="middle" x="892" y="-343.5" font-family="Helvetica,sans-Serif" font-size="10.00">src/qt/bitcoinamountfield.cpp</text>
</g>
<!-- Node1 -->
<g id="node2" class="node"><title>Node1</title>
<g id="a_node2"><a xlink:href="bitcoinamountfield_8h.html" target="_top" xlink:title="bitcoinamountfield.h">
<polygon fill="white" stroke="black" points="469,-280.5 469,-299.5 573,-299.5 573,-280.5 469,-280.5"/>
<text text-anchor="middle" x="521" y="-287.5" font-family="Helvetica,sans-Serif" font-size="10.00">bitcoinamountfield.h</text>
</a>
</g>
</g>
<!-- Node0&#45;&gt;Node1 -->
<g id="edge1" class="edge"><title>Node0&#45;&gt;Node1</title>
<path fill="none" stroke="midnightblue" d="M833.142,-336.498C772.973,-327.797 676.519,-313.823 583.405,-300.203"/>
<polygon fill="midnightblue" stroke="midnightblue" points="583.644,-296.701 573.242,-298.716 582.63,-303.627 583.644,-296.701"/>
</g>
<!-- Node23 -->
<g id="node24" class="node"><title>Node23</title>
<g id="a_node24"><a xlink:href="bitcoinunits_8h.html" target="_top" xlink:title="bitcoinunits.h">
<polygon fill="white" stroke="black" points="377,-280.5 377,-299.5 451,-299.5 451,-280.5 377,-280.5"/>
<text text-anchor="middle" x="414" y="-287.5" font-family="Helvetica,sans-Serif" font-size="10.00">bitcoinunits.h</text>
</a>
</g>
</g>
<!-- Node0&#45;&gt;Node23 -->
<g id="edge30" class="edge"><title>Node0&#45;&gt;Node23</title>
<path fill="none" stroke="midnightblue" d="M820.661,-339.536C736.903,-332.679 593.615,-319.571 461.04,-300.035"/>
<polygon fill="midnightblue" stroke="midnightblue" points="461.514,-296.567 451.108,-298.556 460.483,-303.49 461.514,-296.567"/>
</g>
<!-- Node26 -->
<g id="node27" class="node"><title>Node26</title>
<g id="a_node27"><a xlink:href="guiconstants_8h.html" target="_top" xlink:title="guiconstants.h">
<polygon fill="white" stroke="black" points="591,-280.5 591,-299.5 671,-299.5 671,-280.5 591,-280.5"/>
<text text-anchor="middle" x="631" y="-287.5" font-family="Helvetica,sans-Serif" font-size="10.00">guiconstants.h</text>
</a>
</g>
</g>
<!-- Node0&#45;&gt;Node26 -->
<g id="edge34" class="edge"><title>Node0&#45;&gt;Node26</title>
<path fill="none" stroke="midnightblue" d="M850.644,-336.444C804.653,-326.928 730.368,-311.559 681.112,-301.368"/>
<polygon fill="midnightblue" stroke="midnightblue" points="681.807,-297.938 671.305,-299.339 680.389,-304.793 681.807,-297.938"/>
</g>
<!-- Node27 -->
<g id="node28" class="node"><title>Node27</title>
<g id="a_node28"><a xlink:href="qvaluecombobox_8h.html" target="_top" xlink:title="qvaluecombobox.h">
<polygon fill="white" stroke="black" points="689,-280.5 689,-299.5 787,-299.5 787,-280.5 689,-280.5"/>
<text text-anchor="middle" x="738" y="-287.5" font-family="Helvetica,sans-Serif" font-size="10.00">qvaluecombobox.h</text>
</a>
</g>
</g>
<!-- Node0&#45;&gt;Node27 -->
<g id="edge35" class="edge"><title>Node0&#45;&gt;Node27</title>
<path fill="none" stroke="midnightblue" d="M867.598,-336.444C841.803,-327.399 800.923,-313.064 771.982,-302.916"/>
<polygon fill="midnightblue" stroke="midnightblue" points="772.882,-299.523 762.288,-299.516 770.566,-306.128 772.882,-299.523"/>
</g>
<!-- Node30 -->
<g id="node31" class="node"><title>Node30</title>
<polygon fill="white" stroke="#bfbfbf" points="805,-280.5 805,-299.5 877,-299.5 877,-280.5 805,-280.5"/>
<text text-anchor="middle" x="841" y="-287.5" font-family="Helvetica,sans-Serif" font-size="10.00">QApplication</text>
</g>
<!-- Node0&#45;&gt;Node30 -->
<g id="edge38" class="edge"><title>Node0&#45;&gt;Node30</title>
<path fill="none" stroke="midnightblue" d="M883.578,-336.083C876.152,-328.22 865.148,-316.569 856.188,-307.081"/>
<polygon fill="midnightblue" stroke="midnightblue" points="858.676,-304.618 849.265,-299.751 853.587,-309.424 858.676,-304.618"/>
</g>
<!-- Node31 -->
<g id="node32" class="node"><title>Node31</title>
<polygon fill="white" stroke="#bfbfbf" points="895,-280.5 895,-299.5 993,-299.5 993,-280.5 895,-280.5"/>
<text text-anchor="middle" x="944" y="-287.5" font-family="Helvetica,sans-Serif" font-size="10.00">QAbstractSpinBox</text>
</g>
<!-- Node0&#45;&gt;Node31 -->
<g id="edge39" class="edge"><title>Node0&#45;&gt;Node31</title>
<path fill="none" stroke="midnightblue" d="M900.587,-336.083C908.159,-328.22 919.378,-316.569 928.514,-307.081"/>
<polygon fill="midnightblue" stroke="midnightblue" points="931.158,-309.382 935.573,-299.751 926.115,-304.527 931.158,-309.382"/>
</g>
<!-- Node32 -->
<g id="node33" class="node"><title>Node32</title>
<polygon fill="white" stroke="#bfbfbf" points="1011,-280.5 1011,-299.5 1089,-299.5 1089,-280.5 1011,-280.5"/>
<text text-anchor="middle" x="1050" y="-287.5" font-family="Helvetica,sans-Serif" font-size="10.00">QHBoxLayout</text>
</g>
<!-- Node0&#45;&gt;Node32 -->
<g id="edge40" class="edge"><title>Node0&#45;&gt;Node32</title>
<path fill="none" stroke="midnightblue" d="M917.036,-336.444C943.616,-327.359 985.809,-312.939 1015.52,-302.783"/>
<polygon fill="midnightblue" stroke="midnightblue" points="1016.75,-306.062 1025.08,-299.516 1014.49,-299.439 1016.75,-306.062"/>
</g>
<!-- Node33 -->
<g id="node34" class="node"><title>Node33</title>
<polygon fill="white" stroke="#bfbfbf" points="1107.5,-280.5 1107.5,-299.5 1174.5,-299.5 1174.5,-280.5 1107.5,-280.5"/>
<text text-anchor="middle" x="1141" y="-287.5" font-family="Helvetica,sans-Serif" font-size="10.00">QKeyEvent</text>
</g>
<!-- Node0&#45;&gt;Node33 -->
<g id="edge41" class="edge"><title>Node0&#45;&gt;Node33</title>
<path fill="none" stroke="midnightblue" d="M931.455,-336.444C976.681,-326.635 1050.59,-310.608 1097.46,-300.442"/>
<polygon fill="midnightblue" stroke="midnightblue" points="1098.29,-303.844 1107.32,-298.304 1096.8,-297.003 1098.29,-303.844"/>
</g>
<!-- Node34 -->
<g id="node35" class="node"><title>Node34</title>
<polygon fill="white" stroke="#bfbfbf" points="1192.5,-280.5 1192.5,-299.5 1251.5,-299.5 1251.5,-280.5 1192.5,-280.5"/>
<text text-anchor="middle" x="1222" y="-287.5" font-family="Helvetica,sans-Serif" font-size="10.00">QLineEdit</text>
</g>
<!-- Node0&#45;&gt;Node34 -->
<g id="edge42" class="edge"><title>Node0&#45;&gt;Node34</title>
<path fill="none" stroke="midnightblue" d="M956.097,-336.466C1012.96,-328.581 1098.5,-315.956 1182.29,-300.014"/>
<polygon fill="midnightblue" stroke="midnightblue" points="1183.08,-303.428 1192.24,-298.105 1181.76,-296.554 1183.08,-303.428"/>
</g>
<!-- Node35 -->
<g id="node36" class="node"><title>Node35</title>
<polygon fill="white" stroke="#bfbfbf" points="1269.5,-280.5 1269.5,-299.5 1386.5,-299.5 1386.5,-280.5 1269.5,-280.5"/>
<text text-anchor="middle" x="1328" y="-287.5" font-family="Helvetica,sans-Serif" font-size="10.00">bitcoinamountfield.moc</text>
</g>
<!-- Node0&#45;&gt;Node35 -->
<g id="edge43" class="edge"><title>Node0&#45;&gt;Node35</title>
<path fill="none" stroke="midnightblue" d="M963.261,-336.498C1035.17,-327.871 1149.69,-313.999 1259.16,-300.096"/>
<polygon fill="midnightblue" stroke="midnightblue" points="1259.92,-303.527 1269.4,-298.793 1259.04,-296.583 1259.92,-303.527"/>
</g>
<!-- Node2 -->
<g id="node3" class="node"><title>Node2</title>
<g id="a_node3"><a xlink:href="amount_8h.html" target="_top" xlink:title="amount.h">
<polygon fill="white" stroke="black" points="457.5,-224.5 457.5,-243.5 514.5,-243.5 514.5,-224.5 457.5,-224.5"/>
<text text-anchor="middle" x="486" y="-231.5" font-family="Helvetica,sans-Serif" font-size="10.00">amount.h</text>
</a>
</g>
</g>
<!-- Node1&#45;&gt;Node2 -->
<g id="edge2" class="edge"><title>Node1&#45;&gt;Node2</title>
<path fill="none" stroke="midnightblue" d="M515.22,-280.083C510.328,-272.534 503.173,-261.495 497.167,-252.23"/>
<polygon fill="midnightblue" stroke="midnightblue" points="500.048,-250.239 491.672,-243.751 494.174,-254.046 500.048,-250.239"/>
</g>
<!-- Node22 -->
<g id="node23" class="node"><title>Node22</title>
<polygon fill="white" stroke="#bfbfbf" points="532.5,-224.5 532.5,-243.5 587.5,-243.5 587.5,-224.5 532.5,-224.5"/>
<text text-anchor="middle" x="560" y="-231.5" font-family="Helvetica,sans-Serif" font-size="10.00">QWidget</text>
</g>
<!-- Node1&#45;&gt;Node22 -->
<g id="edge29" class="edge"><title>Node1&#45;&gt;Node22</title>
<path fill="none" stroke="midnightblue" d="M527.44,-280.083C532.949,-272.455 541.031,-261.264 547.765,-251.941"/>
<polygon fill="midnightblue" stroke="midnightblue" points="550.662,-253.907 553.68,-243.751 544.987,-249.809 550.662,-253.907"/>
</g>
<!-- Node3 -->
<g id="node4" class="node"><title>Node3</title>
<g id="a_node4"><a xlink:href="serialize_8h.html" target="_top" xlink:title="serialize.h">
<polygon fill="white" stroke="black" points="455.5,-168.5 455.5,-187.5 516.5,-187.5 516.5,-168.5 455.5,-168.5"/>
<text text-anchor="middle" x="486" y="-175.5" font-family="Helvetica,sans-Serif" font-size="10.00">serialize.h</text>
</a>
</g>
</g>
<!-- Node2&#45;&gt;Node3 -->
<g id="edge3" class="edge"><title>Node2&#45;&gt;Node3</title>
<path fill="none" stroke="midnightblue" d="M486,-224.083C486,-217.006 486,-206.861 486,-197.986"/>
<polygon fill="midnightblue" stroke="midnightblue" points="489.5,-197.751 486,-187.751 482.5,-197.751 489.5,-197.751"/>
</g>
<!-- Node15 -->
<g id="node16" class="node"><title>Node15</title>
<polygon fill="white" stroke="#bfbfbf" points="905.5,-112.5 905.5,-131.5 946.5,-131.5 946.5,-112.5 905.5,-112.5"/>
<text text-anchor="middle" x="926" y="-119.5" font-family="Helvetica,sans-Serif" font-size="10.00">string</text>
</g>
<!-- Node2&#45;&gt;Node15 -->
<g id="edge28" class="edge"><title>Node2&#45;&gt;Node15</title>
<path fill="none" stroke="midnightblue" d="M514.543,-226.056C596.42,-206.126 829.891,-149.212 895.457,-131.989"/>
<polygon fill="midnightblue" stroke="midnightblue" points="896.627,-135.299 905.382,-129.333 894.817,-128.537 896.627,-135.299"/>
</g>
<!-- Node20 -->
<g id="node21" class="node"><title>Node20</title>
<polygon fill="white" stroke="#bfbfbf" points="0,-56.5 0,-75.5 48,-75.5 48,-56.5 0,-56.5"/>
<text text-anchor="middle" x="24" y="-63.5" font-family="Helvetica,sans-Serif" font-size="10.00">stdlib.h</text>
</g>
<!-- Node2&#45;&gt;Node20 -->
<g id="edge27" class="edge"><title>Node2&#45;&gt;Node20</title>
<path fill="none" stroke="midnightblue" d="M457.386,-226.012C369.974,-204.61 111.37,-140.88 95,-132 72.16,-119.61 50.8732,-98.2926 37.6784,-83.4628"/>
<polygon fill="midnightblue" stroke="midnightblue" points="40.0758,-80.8836 30.8939,-75.5974 34.7752,-85.4557 40.0758,-80.8836"/>
</g>
<!-- Node4 -->
<g id="node5" class="node"><title>Node4</title>
<g id="a_node5"><a xlink:href="endian_8h.html" target="_top" xlink:title="compat/endian.h">
<polygon fill="white" stroke="black" points="798.5,-112.5 798.5,-131.5 887.5,-131.5 887.5,-112.5 798.5,-112.5"/>
<text text-anchor="middle" x="843" y="-119.5" font-family="Helvetica,sans-Serif" font-size="10.00">compat/endian.h</text>
</a>
</g>
</g>
<!-- Node3&#45;&gt;Node4 -->
<g id="edge4" class="edge"><title>Node3&#45;&gt;Node4</title>
<path fill="none" stroke="midnightblue" d="M516.89,-172.351C571.009,-164.203 686.489,-146.8 784,-132 785.297,-131.803 786.609,-131.604 787.933,-131.403"/>
<polygon fill="midnightblue" stroke="midnightblue" points="788.863,-134.802 798.223,-129.838 787.811,-127.881 788.863,-134.802"/>
</g>
<!-- Node5 -->
<g id="node6" class="node"><title>Node5</title>
<polygon fill="white" stroke="#bfbfbf" points="764.5,-0.5 764.5,-19.5 813.5,-19.5 813.5,-0.5 764.5,-0.5"/>
<text text-anchor="middle" x="789" y="-7.5" font-family="Helvetica,sans-Serif" font-size="10.00">stdint.h</text>
</g>
<!-- Node3&#45;&gt;Node5 -->
<g id="edge16" class="edge"><title>Node3&#45;&gt;Node5</title>
<path fill="none" stroke="midnightblue" d="M516.559,-175.685C578.408,-172.417 715.474,-161.912 750,-132 780.068,-105.95 787.129,-56.5969 788.675,-29.6707"/>
<polygon fill="midnightblue" stroke="midnightblue" points="792.174,-29.7613 789.051,-19.6372 785.179,-29.4992 792.174,-29.7613"/>
</g>
<!-- Node7 -->
<g id="node8" class="node"><title>Node7</title>
<polygon fill="white" stroke="#bfbfbf" points="242,-112.5 242,-131.5 298,-131.5 298,-112.5 242,-112.5"/>
<text text-anchor="middle" x="270" y="-119.5" font-family="Helvetica,sans-Serif" font-size="10.00">algorithm</text>
</g>
<!-- Node3&#45;&gt;Node7 -->
<g id="edge8" class="edge"><title>Node3&#45;&gt;Node7</title>
<path fill="none" stroke="midnightblue" d="M455.052,-169.263C416.256,-159.564 349.781,-142.945 307.955,-132.489"/>
<polygon fill="midnightblue" stroke="midnightblue" points="308.692,-129.065 298.141,-130.035 306.994,-135.856 308.692,-129.065"/>
</g>
<!-- Node8 -->
<g id="node9" class="node"><title>Node8</title>
<polygon fill="white" stroke="#bfbfbf" points="66,-56.5 66,-75.5 118,-75.5 118,-56.5 66,-56.5"/>
<text text-anchor="middle" x="92" y="-63.5" font-family="Helvetica,sans-Serif" font-size="10.00">assert.h</text>
</g>
<!-- Node3&#45;&gt;Node8 -->
<g id="edge9" class="edge"><title>Node3&#45;&gt;Node8</title>
<path fill="none" stroke="midnightblue" d="M455.445,-177.51C375.491,-178.211 162.717,-175.819 111,-132 97.7047,-120.735 93.4357,-100.725 92.1977,-85.8731"/>
<polygon fill="midnightblue" stroke="midnightblue" points="95.6883,-85.5838 91.7425,-75.7511 88.6954,-85.8983 95.6883,-85.5838"/>
</g>
<!-- Node9 -->
<g id="node10" class="node"><title>Node9</title>
<polygon fill="white" stroke="#bfbfbf" points="315.5,-112.5 315.5,-131.5 344.5,-131.5 344.5,-112.5 315.5,-112.5"/>
<text text-anchor="middle" x="330" y="-119.5" font-family="Helvetica,sans-Serif" font-size="10.00">ios</text>
</g>
<!-- Node3&#45;&gt;Node9 -->
<g id="edge10" class="edge"><title>Node3&#45;&gt;Node9</title>
<path fill="none" stroke="midnightblue" d="M460.121,-168.435C435.324,-160.171 396.633,-147.134 354.349,-132.048"/>
<polygon fill="midnightblue" stroke="midnightblue" points="355.292,-128.668 344.697,-128.592 352.932,-135.259 355.292,-128.668"/>
</g>
<!-- Node10 -->
<g id="node11" class="node"><title>Node10</title>
<polygon fill="white" stroke="#bfbfbf" points="363,-112.5 363,-131.5 403,-131.5 403,-112.5 363,-112.5"/>
<text text-anchor="middle" x="383" y="-119.5" font-family="Helvetica,sans-Serif" font-size="10.00">limits</text>
</g>
<!-- Node3&#45;&gt;Node10 -->
<g id="edge11" class="edge"><title>Node3&#45;&gt;Node10</title>
<path fill="none" stroke="midnightblue" d="M469.451,-168.324C453.008,-159.703 427.565,-146.364 408.532,-136.386"/>
<polygon fill="midnightblue" stroke="midnightblue" points="409.989,-133.198 399.508,-131.655 406.739,-139.398 409.989,-133.198"/>
</g>
<!-- Node11 -->
<g id="node12" class="node"><title>Node11</title>
<polygon fill="white" stroke="#bfbfbf" points="421.5,-112.5 421.5,-131.5 450.5,-131.5 450.5,-112.5 421.5,-112.5"/>
<text text-anchor="middle" x="436" y="-119.5" font-family="Helvetica,sans-Serif" font-size="10.00">list</text>
</g>
<!-- Node3&#45;&gt;Node11 -->
<g id="edge12" class="edge"><title>Node3&#45;&gt;Node11</title>
<path fill="none" stroke="midnightblue" d="M477.744,-168.083C470.535,-160.298 459.89,-148.801 451.154,-139.367"/>
<polygon fill="midnightblue" stroke="midnightblue" points="453.465,-136.711 444.103,-131.751 448.329,-141.467 453.465,-136.711"/>
</g>
<!-- Node12 -->
<g id="node13" class="node"><title>Node12</title>
<polygon fill="white" stroke="#bfbfbf" points="468.5,-112.5 468.5,-131.5 503.5,-131.5 503.5,-112.5 468.5,-112.5"/>
<text text-anchor="middle" x="486" y="-119.5" font-family="Helvetica,sans-Serif" font-size="10.00">map</text>
</g>
<!-- Node3&#45;&gt;Node12 -->
<g id="edge13" class="edge"><title>Node3&#45;&gt;Node12</title>
<path fill="none" stroke="midnightblue" d="M486,-168.083C486,-161.006 486,-150.861 486,-141.986"/>
<polygon fill="midnightblue" stroke="midnightblue" points="489.5,-141.751 486,-131.751 482.5,-141.751 489.5,-141.751"/>
</g>
<!-- Node13 -->
<g id="node14" class="node"><title>Node13</title>
<polygon fill="white" stroke="#bfbfbf" points="522,-112.5 522,-131.5 574,-131.5 574,-112.5 522,-112.5"/>
<text text-anchor="middle" x="548" y="-119.5" font-family="Helvetica,sans-Serif" font-size="10.00">memory</text>
</g>
<!-- Node3&#45;&gt;Node13 -->
<g id="edge14" class="edge"><title>Node3&#45;&gt;Node13</title>
<path fill="none" stroke="midnightblue" d="M495.961,-168.324C505.127,-160.341 518.937,-148.313 530.028,-138.653"/>
<polygon fill="midnightblue" stroke="midnightblue" points="532.615,-141.041 537.857,-131.834 528.018,-135.762 532.615,-141.041"/>
</g>
<!-- Node14 -->
<g id="node15" class="node"><title>Node14</title>
<polygon fill="white" stroke="#bfbfbf" points="592,-112.5 592,-131.5 622,-131.5 622,-112.5 592,-112.5"/>
<text text-anchor="middle" x="607" y="-119.5" font-family="Helvetica,sans-Serif" font-size="10.00">set</text>
</g>
<!-- Node3&#45;&gt;Node14 -->
<g id="edge15" class="edge"><title>Node3&#45;&gt;Node14</title>
<path fill="none" stroke="midnightblue" d="M505.173,-168.444C526.07,-159.117 559.568,-144.168 582.392,-133.982"/>
<polygon fill="midnightblue" stroke="midnightblue" points="584.043,-137.078 591.748,-129.807 581.19,-130.686 584.043,-137.078"/>
</g>
<!-- Node3&#45;&gt;Node15 -->
<g id="edge17" class="edge"><title>Node3&#45;&gt;Node15</title>
<path fill="none" stroke="midnightblue" d="M516.64,-175.547C583.669,-171.963 748.38,-160.946 895.366,-131.739"/>
<polygon fill="midnightblue" stroke="midnightblue" points="896.36,-135.109 905.469,-129.697 894.973,-128.248 896.36,-135.109"/>
</g>
<!-- Node16 -->
<g id="node17" class="node"><title>Node16</title>
<polygon fill="white" stroke="#bfbfbf" points="240.5,-56.5 240.5,-75.5 289.5,-75.5 289.5,-56.5 240.5,-56.5"/>
<text text-anchor="middle" x="265" y="-63.5" font-family="Helvetica,sans-Serif" font-size="10.00">string.h</text>
</g>
<!-- Node3&#45;&gt;Node16 -->
<g id="edge18" class="edge"><title>Node3&#45;&gt;Node16</title>
<path fill="none" stroke="midnightblue" d="M455.449,-176.266C394.466,-174.087 261.078,-165.513 233,-132 220.71,-117.331 234.33,-97.1405 247.404,-83.1718"/>
<polygon fill="midnightblue" stroke="midnightblue" points="250.231,-85.2955 254.839,-75.7551 245.287,-80.3397 250.231,-85.2955"/>
</g>
<!-- Node17 -->
<g id="node18" class="node"><title>Node17</title>
<polygon fill="white" stroke="#bfbfbf" points="640,-112.5 640,-131.5 680,-131.5 680,-112.5 640,-112.5"/>
<text text-anchor="middle" x="660" y="-119.5" font-family="Helvetica,sans-Serif" font-size="10.00">utility</text>
</g>
<!-- Node3&#45;&gt;Node17 -->
<g id="edge19" class="edge"><title>Node3&#45;&gt;Node17</title>
<path fill="none" stroke="midnightblue" d="M513.571,-168.444C545.305,-158.595 597.246,-142.475 629.979,-132.317"/>
<polygon fill="midnightblue" stroke="midnightblue" points="631.368,-135.551 639.881,-129.244 629.293,-128.865 631.368,-135.551"/>
</g>
<!-- Node18 -->
<g id="node19" class="node"><title>Node18</title>
<polygon fill="white" stroke="#bfbfbf" points="698,-112.5 698,-131.5 742,-131.5 742,-112.5 698,-112.5"/>
<text text-anchor="middle" x="720" y="-119.5" font-family="Helvetica,sans-Serif" font-size="10.00">vector</text>
</g>
<!-- Node3&#45;&gt;Node18 -->
<g id="edge20" class="edge"><title>Node3&#45;&gt;Node18</title>
<path fill="none" stroke="midnightblue" d="M516.754,-170.826C554.778,-163.053 621.672,-148.922 687.929,-132.154"/>
<polygon fill="midnightblue" stroke="midnightblue" points="688.872,-135.526 697.696,-129.661 687.141,-128.743 688.872,-135.526"/>
</g>
<!-- Node19 -->
<g id="node20" class="node"><title>Node19</title>
<g id="a_node20"><a xlink:href="prevector_8h.html" target="_top" xlink:title="prevector.h">
<polygon fill="white" stroke="black" points="120.5,-112.5 120.5,-131.5 185.5,-131.5 185.5,-112.5 120.5,-112.5"/>
<text text-anchor="middle" x="153" y="-119.5" font-family="Helvetica,sans-Serif" font-size="10.00">prevector.h</text>
</a>
</g>
</g>
<!-- Node3&#45;&gt;Node19 -->
<g id="edge21" class="edge"><title>Node3&#45;&gt;Node19</title>
<path fill="none" stroke="midnightblue" d="M455.47,-172.536C403.108,-164.803 292.843,-148.189 200,-132 198.542,-131.746 197.06,-131.483 195.563,-131.215"/>
<polygon fill="midnightblue" stroke="midnightblue" points="196.058,-127.748 185.59,-129.386 194.795,-134.633 196.058,-127.748"/>
</g>
<!-- Node4&#45;&gt;Node5 -->
<g id="edge5" class="edge"><title>Node4&#45;&gt;Node5</title>
<path fill="none" stroke="midnightblue" d="M838.763,-112.368C829.93,-94.376 809.397,-52.5503 797.653,-28.6267"/>
<polygon fill="midnightblue" stroke="midnightblue" points="800.766,-27.0257 793.218,-19.5914 794.483,-30.1105 800.766,-27.0257"/>
</g>
<!-- Node6 -->
<g id="node7" class="node"><title>Node6</title>
<g id="a_node7"><a xlink:href="byteswap_8h.html" target="_top" xlink:title="compat/byteswap.h">
<polygon fill="white" stroke="black" points="836,-56.5 836,-75.5 938,-75.5 938,-56.5 836,-56.5"/>
<text text-anchor="middle" x="887" y="-63.5" font-family="Helvetica,sans-Serif" font-size="10.00">compat/byteswap.h</text>
</a>
</g>
</g>
<!-- Node4&#45;&gt;Node6 -->
<g id="edge6" class="edge"><title>Node4&#45;&gt;Node6</title>
<path fill="none" stroke="midnightblue" d="M850.266,-112.083C856.545,-104.377 865.788,-93.0333 873.431,-83.6531"/>
<polygon fill="midnightblue" stroke="midnightblue" points="876.266,-85.7143 879.869,-75.7511 870.839,-81.2926 876.266,-85.7143"/>
</g>
<!-- Node6&#45;&gt;Node5 -->
<g id="edge7" class="edge"><title>Node6&#45;&gt;Node5</title>
<path fill="none" stroke="midnightblue" d="M871.255,-56.324C855.681,-47.7428 831.623,-34.486 813.541,-24.5224"/>
<polygon fill="midnightblue" stroke="midnightblue" points="815.154,-21.4152 804.706,-19.6545 811.776,-27.546 815.154,-21.4152"/>
</g>
<!-- Node19&#45;&gt;Node5 -->
<g id="edge24" class="edge"><title>Node19&#45;&gt;Node5</title>
<path fill="none" stroke="midnightblue" d="M160.092,-112.329C172.635,-97.7092 200.319,-68.5257 231,-56 326.474,-17.0221 647.098,-11.7436 753.988,-11.0782"/>
<polygon fill="midnightblue" stroke="midnightblue" points="754.246,-14.577 764.227,-11.0248 754.209,-7.57707 754.246,-14.577"/>
</g>
<!-- Node19&#45;&gt;Node8 -->
<g id="edge22" class="edge"><title>Node19&#45;&gt;Node8</title>
<path fill="none" stroke="midnightblue" d="M143.199,-112.324C134.182,-104.341 120.594,-92.3128 109.682,-82.6529"/>
<polygon fill="midnightblue" stroke="midnightblue" points="111.787,-79.8416 101.979,-75.8339 107.147,-85.083 111.787,-79.8416"/>
</g>
<!-- Node19&#45;&gt;Node16 -->
<g id="edge25" class="edge"><title>Node19&#45;&gt;Node16</title>
<path fill="none" stroke="midnightblue" d="M170.995,-112.324C189.038,-103.625 217.047,-90.1202 237.803,-80.113"/>
<polygon fill="midnightblue" stroke="midnightblue" points="239.562,-83.1502 247.05,-75.6545 236.522,-76.8449 239.562,-83.1502"/>
</g>
<!-- Node19&#45;&gt;Node20 -->
<g id="edge23" class="edge"><title>Node19&#45;&gt;Node20</title>
<path fill="none" stroke="midnightblue" d="M132.56,-112.444C111.33,-103.557 77.901,-89.5632 53.745,-79.4514"/>
<polygon fill="midnightblue" stroke="midnightblue" points="54.9207,-76.1493 44.3448,-75.5164 52.2177,-82.6064 54.9207,-76.1493"/>
</g>
<!-- Node21 -->
<g id="node22" class="node"><title>Node21</title>
<polygon fill="white" stroke="#bfbfbf" points="136.5,-56.5 136.5,-75.5 183.5,-75.5 183.5,-56.5 136.5,-56.5"/>
<text text-anchor="middle" x="160" y="-63.5" font-family="Helvetica,sans-Serif" font-size="10.00">iterator</text>
</g>
<!-- Node19&#45;&gt;Node21 -->
<g id="edge26" class="edge"><title>Node19&#45;&gt;Node21</title>
<path fill="none" stroke="midnightblue" d="M154.156,-112.083C155.084,-104.927 156.418,-94.6353 157.577,-85.6911"/>
<polygon fill="midnightblue" stroke="midnightblue" points="161.051,-86.1181 158.866,-75.7511 154.109,-85.2181 161.051,-86.1181"/>
</g>
<!-- Node23&#45;&gt;Node2 -->
<g id="edge31" class="edge"><title>Node23&#45;&gt;Node2</title>
<path fill="none" stroke="midnightblue" d="M425.568,-280.324C436.42,-272.185 452.881,-259.839 465.883,-250.087"/>
<polygon fill="midnightblue" stroke="midnightblue" points="468.321,-252.634 474.221,-243.834 464.121,-247.034 468.321,-252.634"/>
</g>
<!-- Node24 -->
<g id="node25" class="node"><title>Node24</title>
<polygon fill="white" stroke="#bfbfbf" points="267.5,-224.5 267.5,-243.5 370.5,-243.5 370.5,-224.5 267.5,-224.5"/>
<text text-anchor="middle" x="319" y="-231.5" font-family="Helvetica,sans-Serif" font-size="10.00">QAbstractListModel</text>
</g>
<!-- Node23&#45;&gt;Node24 -->
<g id="edge32" class="edge"><title>Node23&#45;&gt;Node24</title>
<path fill="none" stroke="midnightblue" d="M398.737,-280.324C383.779,-271.822 360.745,-258.729 343.273,-248.797"/>
<polygon fill="midnightblue" stroke="midnightblue" points="344.649,-245.553 334.226,-243.655 341.19,-251.639 344.649,-245.553"/>
</g>
<!-- Node25 -->
<g id="node26" class="node"><title>Node25</title>
<polygon fill="white" stroke="#bfbfbf" points="389,-224.5 389,-243.5 439,-243.5 439,-224.5 389,-224.5"/>
<text text-anchor="middle" x="414" y="-231.5" font-family="Helvetica,sans-Serif" font-size="10.00">QString</text>
</g>
<!-- Node23&#45;&gt;Node25 -->
<g id="edge33" class="edge"><title>Node23&#45;&gt;Node25</title>
<path fill="none" stroke="midnightblue" d="M414,-280.083C414,-273.006 414,-262.861 414,-253.986"/>
<polygon fill="midnightblue" stroke="midnightblue" points="417.5,-253.751 414,-243.751 410.5,-253.751 417.5,-253.751"/>
</g>
<!-- Node28 -->
<g id="node29" class="node"><title>Node28</title>
<polygon fill="white" stroke="#bfbfbf" points="660.5,-224.5 660.5,-243.5 733.5,-243.5 733.5,-224.5 660.5,-224.5"/>
<text text-anchor="middle" x="697" y="-231.5" font-family="Helvetica,sans-Serif" font-size="10.00">QComboBox</text>
</g>
<!-- Node27&#45;&gt;Node28 -->
<g id="edge36" class="edge"><title>Node27&#45;&gt;Node28</title>
<path fill="none" stroke="midnightblue" d="M731.23,-280.083C725.438,-272.455 716.942,-261.264 709.862,-251.941"/>
<polygon fill="midnightblue" stroke="midnightblue" points="712.479,-249.599 703.644,-243.751 706.904,-253.832 712.479,-249.599"/>
</g>
<!-- Node29 -->
<g id="node30" class="node"><title>Node29</title>
<polygon fill="white" stroke="#bfbfbf" points="751.5,-224.5 751.5,-243.5 806.5,-243.5 806.5,-224.5 751.5,-224.5"/>
<text text-anchor="middle" x="779" y="-231.5" font-family="Helvetica,sans-Serif" font-size="10.00">QVariant</text>
</g>
<!-- Node27&#45;&gt;Node29 -->
<g id="edge37" class="edge"><title>Node27&#45;&gt;Node29</title>
<path fill="none" stroke="midnightblue" d="M744.77,-280.083C750.562,-272.455 759.058,-261.264 766.138,-251.941"/>
<polygon fill="midnightblue" stroke="midnightblue" points="769.096,-253.832 772.356,-243.751 763.521,-249.599 769.096,-253.832"/>
</g>
</g>
</svg>
