<?xml version="1.0" encoding="UTF-8" standalone="no"?>
<!DOCTYPE svg PUBLIC "-//W3C//DTD SVG 1.1//EN"
 "http://www.w3.org/Graphics/SVG/1.1/DTD/svg11.dtd">
<!-- Generated by graphviz version 2.36.0 (20140111.2315)
 -->
<!-- Title: src/qt/bitcoinamountfield.h Pages: 1 -->
<svg width="955pt" height="308pt"
 viewBox="0.00 0.00 955.00 308.00" xmlns="http://www.w3.org/2000/svg" xmlns:xlink="http://www.w3.org/1999/xlink">
<g id="graph0" class="graph" transform="scale(1 1) rotate(0) translate(4 304)">
<title>src/qt/bitcoinamountfield.h</title>
<polygon fill="white" stroke="none" points="-4,4 -4,-304 951,-304 951,4 -4,4"/>
<!-- Node0 -->
<g id="node1" class="node"><title>Node0</title>
<polygon fill="#bfbfbf" stroke="black" points="457.5,-280.5 457.5,-299.5 588.5,-299.5 588.5,-280.5 457.5,-280.5"/>
<text text-anchor="middle" x="523" y="-287.5" font-family="Helvetica,sans-Serif" font-size="10.00">src/qt/bitcoinamountfield.h</text>
</g>
<!-- Node1 -->
<g id="node2" class="node"><title>Node1</title>
<g id="a_node2"><a xlink:href="amount_8h.html" target="_top" xlink:title="amount.h">
<polygon fill="white" stroke="black" points="457.5,-224.5 457.5,-243.5 514.5,-243.5 514.5,-224.5 457.5,-224.5"/>
<text text-anchor="middle" x="486" y="-231.5" font-family="Helvetica,sans-Serif" font-size="10.00">amount.h</text>
</a>
</g>
</g>
<!-- Node0&#45;&gt;Node1 -->
<g id="edge1" class="edge"><title>Node0&#45;&gt;Node1</title>
<path fill="none" stroke="midnightblue" d="M516.89,-280.083C511.718,-272.534 504.154,-261.495 497.806,-252.23"/>
<polygon fill="midnightblue" stroke="midnightblue" points="500.536,-250.022 491.996,-243.751 494.761,-253.979 500.536,-250.022"/>
</g>
<!-- Node21 -->
<g id="node22" class="node"><title>Node21</title>
<polygon fill="white" stroke="#bfbfbf" points="532.5,-224.5 532.5,-243.5 587.5,-243.5 587.5,-224.5 532.5,-224.5"/>
<text text-anchor="middle" x="560" y="-231.5" font-family="Helvetica,sans-Serif" font-size="10.00">QWidget</text>
</g>
<!-- Node0&#45;&gt;Node21 -->
<g id="edge28" class="edge"><title>Node0&#45;&gt;Node21</title>
<path fill="none" stroke="midnightblue" d="M529.11,-280.083C534.282,-272.534 541.846,-261.495 548.194,-252.23"/>
<polygon fill="midnightblue" stroke="midnightblue" points="551.239,-253.979 554.004,-243.751 545.464,-250.022 551.239,-253.979"/>
</g>
<!-- Node2 -->
<g id="node3" class="node"><title>Node2</title>
<g id="a_node3"><a xlink:href="serialize_8h.html" target="_top" xlink:title="serialize.h">
<polygon fill="white" stroke="black" points="455.5,-168.5 455.5,-187.5 516.5,-187.5 516.5,-168.5 455.5,-168.5"/>
<text text-anchor="middle" x="486" y="-175.5" font-family="Helvetica,sans-Serif" font-size="10.00">serialize.h</text>
</a>
</g>
</g>
<!-- Node1&#45;&gt;Node2 -->
<g id="edge2" class="edge"><title>Node1&#45;&gt;Node2</title>
<path fill="none" stroke="midnightblue" d="M486,-224.083C486,-217.006 486,-206.861 486,-197.986"/>
<polygon fill="midnightblue" stroke="midnightblue" points="489.5,-197.751 486,-187.751 482.5,-197.751 489.5,-197.751"/>
</g>
<!-- Node14 -->
<g id="node15" class="node"><title>Node14</title>
<polygon fill="white" stroke="#bfbfbf" points="905.5,-112.5 905.5,-131.5 946.5,-131.5 946.5,-112.5 905.5,-112.5"/>
<text text-anchor="middle" x="926" y="-119.5" font-family="Helvetica,sans-Serif" font-size="10.00">string</text>
</g>
<!-- Node1&#45;&gt;Node14 -->
<g id="edge27" class="edge"><title>Node1&#45;&gt;Node14</title>
<path fill="none" stroke="midnightblue" d="M514.543,-226.056C596.42,-206.126 829.891,-149.212 895.457,-131.989"/>
<polygon fill="midnightblue" stroke="midnightblue" points="896.627,-135.299 905.382,-129.333 894.817,-128.537 896.627,-135.299"/>
</g>
<!-- Node19 -->
<g id="node20" class="node"><title>Node19</title>
<polygon fill="white" stroke="#bfbfbf" points="0,-56.5 0,-75.5 48,-75.5 48,-56.5 0,-56.5"/>
<text text-anchor="middle" x="24" y="-63.5" font-family="Helvetica,sans-Serif" font-size="10.00">stdlib.h</text>
</g>
<!-- Node1&#45;&gt;Node19 -->
<g id="edge26" class="edge"><title>Node1&#45;&gt;Node19</title>
<path fill="none" stroke="midnightblue" d="M457.266,-230.376C390.113,-223.256 219.177,-199.363 95,-132 72.16,-119.61 50.8732,-98.2926 37.6784,-83.4628"/>
<polygon fill="midnightblue" stroke="midnightblue" points="40.0758,-80.8836 30.8939,-75.5974 34.7752,-85.4557 40.0758,-80.8836"/>
</g>
<!-- Node3 -->
<g id="node4" class="node"><title>Node3</title>
<g id="a_node4"><a xlink:href="endian_8h.html" target="_top" xlink:title="compat/endian.h">
<polygon fill="white" stroke="black" points="798.5,-112.5 798.5,-131.5 887.5,-131.5 887.5,-112.5 798.5,-112.5"/>
<text text-anchor="middle" x="843" y="-119.5" font-family="Helvetica,sans-Serif" font-size="10.00">compat/endian.h</text>
</a>
</g>
</g>
<!-- Node2&#45;&gt;Node3 -->
<g id="edge3" class="edge"><title>Node2&#45;&gt;Node3</title>
<path fill="none" stroke="midnightblue" d="M516.89,-172.351C571.009,-164.203 686.489,-146.8 784,-132 785.297,-131.803 786.609,-131.604 787.933,-131.403"/>
<polygon fill="midnightblue" stroke="midnightblue" points="788.863,-134.802 798.223,-129.838 787.811,-127.881 788.863,-134.802"/>
</g>
<!-- Node4 -->
<g id="node5" class="node"><title>Node4</title>
<polygon fill="white" stroke="#bfbfbf" points="764.5,-0.5 764.5,-19.5 813.5,-19.5 813.5,-0.5 764.5,-0.5"/>
<text text-anchor="middle" x="789" y="-7.5" font-family="Helvetica,sans-Serif" font-size="10.00">stdint.h</text>
</g>
<!-- Node2&#45;&gt;Node4 -->
<g id="edge15" class="edge"><title>Node2&#45;&gt;Node4</title>
<path fill="none" stroke="midnightblue" d="M516.559,-175.685C578.408,-172.417 715.474,-161.912 750,-132 780.068,-105.95 787.129,-56.5969 788.675,-29.6707"/>
<polygon fill="midnightblue" stroke="midnightblue" points="792.174,-29.7613 789.051,-19.6372 785.179,-29.4992 792.174,-29.7613"/>
</g>
<!-- Node6 -->
<g id="node7" class="node"><title>Node6</title>
<polygon fill="white" stroke="#bfbfbf" points="242,-112.5 242,-131.5 298,-131.5 298,-112.5 242,-112.5"/>
<text text-anchor="middle" x="270" y="-119.5" font-family="Helvetica,sans-Serif" font-size="10.00">algorithm</text>
</g>
<!-- Node2&#45;&gt;Node6 -->
<g id="edge7" class="edge"><title>Node2&#45;&gt;Node6</title>
<path fill="none" stroke="midnightblue" d="M455.052,-169.263C416.256,-159.564 349.781,-142.945 307.955,-132.489"/>
<polygon fill="midnightblue" stroke="midnightblue" points="308.692,-129.065 298.141,-130.035 306.994,-135.856 308.692,-129.065"/>
</g>
<!-- Node7 -->
<g id="node8" class="node"><title>Node7</title>
<polygon fill="white" stroke="#bfbfbf" points="66,-56.5 66,-75.5 118,-75.5 118,-56.5 66,-56.5"/>
<text text-anchor="middle" x="92" y="-63.5" font-family="Helvetica,sans-Serif" font-size="10.00">assert.h</text>
</g>
<!-- Node2&#45;&gt;Node7 -->
<g id="edge8" class="edge"><title>Node2&#45;&gt;Node7</title>
<path fill="none" stroke="midnightblue" d="M455.445,-177.51C375.491,-178.211 162.717,-175.819 111,-132 97.7047,-120.735 93.4357,-100.725 92.1977,-85.8731"/>
<polygon fill="midnightblue" stroke="midnightblue" points="95.6883,-85.5838 91.7425,-75.7511 88.6954,-85.8983 95.6883,-85.5838"/>
</g>
<!-- Node8 -->
<g id="node9" class="node"><title>Node8</title>
<polygon fill="white" stroke="#bfbfbf" points="315.5,-112.5 315.5,-131.5 344.5,-131.5 344.5,-112.5 315.5,-112.5"/>
<text text-anchor="middle" x="330" y="-119.5" font-family="Helvetica,sans-Serif" font-size="10.00">ios</text>
</g>
<!-- Node2&#45;&gt;Node8 -->
<g id="edge9" class="edge"><title>Node2&#45;&gt;Node8</title>
<path fill="none" stroke="midnightblue" d="M460.121,-168.435C435.324,-160.171 396.633,-147.134 354.349,-132.048"/>
<polygon fill="midnightblue" stroke="midnightblue" points="355.292,-128.668 344.697,-128.592 352.932,-135.259 355.292,-128.668"/>
</g>
<!-- Node9 -->
<g id="node10" class="node"><title>Node9</title>
<polygon fill="white" stroke="#bfbfbf" points="363,-112.5 363,-131.5 403,-131.5 403,-112.5 363,-112.5"/>
<text text-anchor="middle" x="383" y="-119.5" font-family="Helvetica,sans-Serif" font-size="10.00">limits</text>
</g>
<!-- Node2&#45;&gt;Node9 -->
<g id="edge10" class="edge"><title>Node2&#45;&gt;Node9</title>
<path fill="none" stroke="midnightblue" d="M469.451,-168.324C453.008,-159.703 427.565,-146.364 408.532,-136.386"/>
<polygon fill="midnightblue" stroke="midnightblue" points="409.989,-133.198 399.508,-131.655 406.739,-139.398 409.989,-133.198"/>
</g>
<!-- Node10 -->
<g id="node11" class="node"><title>Node10</title>
<polygon fill="white" stroke="#bfbfbf" points="421.5,-112.5 421.5,-131.5 450.5,-131.5 450.5,-112.5 421.5,-112.5"/>
<text text-anchor="middle" x="436" y="-119.5" font-family="Helvetica,sans-Serif" font-size="10.00">list</text>
</g>
<!-- Node2&#45;&gt;Node10 -->
<g id="edge11" class="edge"><title>Node2&#45;&gt;Node10</title>
<path fill="none" stroke="midnightblue" d="M477.744,-168.083C470.535,-160.298 459.89,-148.801 451.154,-139.367"/>
<polygon fill="midnightblue" stroke="midnightblue" points="453.465,-136.711 444.103,-131.751 448.329,-141.467 453.465,-136.711"/>
</g>
<!-- Node11 -->
<g id="node12" class="node"><title>Node11</title>
<polygon fill="white" stroke="#bfbfbf" points="468.5,-112.5 468.5,-131.5 503.5,-131.5 503.5,-112.5 468.5,-112.5"/>
<text text-anchor="middle" x="486" y="-119.5" font-family="Helvetica,sans-Serif" font-size="10.00">map</text>
</g>
<!-- Node2&#45;&gt;Node11 -->
<g id="edge12" class="edge"><title>Node2&#45;&gt;Node11</title>
<path fill="none" stroke="midnightblue" d="M486,-168.083C486,-161.006 486,-150.861 486,-141.986"/>
<polygon fill="midnightblue" stroke="midnightblue" points="489.5,-141.751 486,-131.751 482.5,-141.751 489.5,-141.751"/>
</g>
<!-- Node12 -->
<g id="node13" class="node"><title>Node12</title>
<polygon fill="white" stroke="#bfbfbf" points="522,-112.5 522,-131.5 574,-131.5 574,-112.5 522,-112.5"/>
<text text-anchor="middle" x="548" y="-119.5" font-family="Helvetica,sans-Serif" font-size="10.00">memory</text>
</g>
<!-- Node2&#45;&gt;Node12 -->
<g id="edge13" class="edge"><title>Node2&#45;&gt;Node12</title>
<path fill="none" stroke="midnightblue" d="M495.961,-168.324C505.127,-160.341 518.937,-148.313 530.028,-138.653"/>
<polygon fill="midnightblue" stroke="midnightblue" points="532.615,-141.041 537.857,-131.834 528.018,-135.762 532.615,-141.041"/>
</g>
<!-- Node13 -->
<g id="node14" class="node"><title>Node13</title>
<polygon fill="white" stroke="#bfbfbf" points="592,-112.5 592,-131.5 622,-131.5 622,-112.5 592,-112.5"/>
<text text-anchor="middle" x="607" y="-119.5" font-family="Helvetica,sans-Serif" font-size="10.00">set</text>
</g>
<!-- Node2&#45;&gt;Node13 -->
<g id="edge14" class="edge"><title>Node2&#45;&gt;Node13</title>
<path fill="none" stroke="midnightblue" d="M505.173,-168.444C526.07,-159.117 559.568,-144.168 582.392,-133.982"/>
<polygon fill="midnightblue" stroke="midnightblue" points="584.043,-137.078 591.748,-129.807 581.19,-130.686 584.043,-137.078"/>
</g>
<!-- Node2&#45;&gt;Node14 -->
<g id="edge16" class="edge"><title>Node2&#45;&gt;Node14</title>
<path fill="none" stroke="midnightblue" d="M516.64,-175.547C583.669,-171.963 748.38,-160.946 895.366,-131.739"/>
<polygon fill="midnightblue" stroke="midnightblue" points="896.36,-135.109 905.469,-129.697 894.973,-128.248 896.36,-135.109"/>
</g>
<!-- Node15 -->
<g id="node16" class="node"><title>Node15</title>
<polygon fill="white" stroke="#bfbfbf" points="240.5,-56.5 240.5,-75.5 289.5,-75.5 289.5,-56.5 240.5,-56.5"/>
<text text-anchor="middle" x="265" y="-63.5" font-family="Helvetica,sans-Serif" font-size="10.00">string.h</text>
</g>
<!-- Node2&#45;&gt;Node15 -->
<g id="edge17" class="edge"><title>Node2&#45;&gt;Node15</title>
<path fill="none" stroke="midnightblue" d="M455.449,-176.266C394.466,-174.087 261.078,-165.513 233,-132 220.71,-117.331 234.33,-97.1405 247.404,-83.1718"/>
<polygon fill="midnightblue" stroke="midnightblue" points="250.231,-85.2955 254.839,-75.7551 245.287,-80.3397 250.231,-85.2955"/>
</g>
<!-- Node16 -->
<g id="node17" class="node"><title>Node16</title>
<polygon fill="white" stroke="#bfbfbf" points="640,-112.5 640,-131.5 680,-131.5 680,-112.5 640,-112.5"/>
<text text-anchor="middle" x="660" y="-119.5" font-family="Helvetica,sans-Serif" font-size="10.00">utility</text>
</g>
<!-- Node2&#45;&gt;Node16 -->
<g id="edge18" class="edge"><title>Node2&#45;&gt;Node16</title>
<path fill="none" stroke="midnightblue" d="M513.571,-168.444C545.305,-158.595 597.246,-142.475 629.979,-132.317"/>
<polygon fill="midnightblue" stroke="midnightblue" points="631.368,-135.551 639.881,-129.244 629.293,-128.865 631.368,-135.551"/>
</g>
<!-- Node17 -->
<g id="node18" class="node"><title>Node17</title>
<polygon fill="white" stroke="#bfbfbf" points="698,-112.5 698,-131.5 742,-131.5 742,-112.5 698,-112.5"/>
<text text-anchor="middle" x="720" y="-119.5" font-family="Helvetica,sans-Serif" font-size="10.00">vector</text>
</g>
<!-- Node2&#45;&gt;Node17 -->
<g id="edge19" class="edge"><title>Node2&#45;&gt;Node17</title>
<path fill="none" stroke="midnightblue" d="M516.754,-170.826C554.778,-163.053 621.672,-148.922 687.929,-132.154"/>
<polygon fill="midnightblue" stroke="midnightblue" points="688.872,-135.526 697.696,-129.661 687.141,-128.743 688.872,-135.526"/>
</g>
<!-- Node18 -->
<g id="node19" class="node"><title>Node18</title>
<g id="a_node19"><a xlink:href="prevector_8h.html" target="_top" xlink:title="prevector.h">
<polygon fill="white" stroke="black" points="120.5,-112.5 120.5,-131.5 185.5,-131.5 185.5,-112.5 120.5,-112.5"/>
<text text-anchor="middle" x="153" y="-119.5" font-family="Helvetica,sans-Serif" font-size="10.00">prevector.h</text>
</a>
</g>
</g>
<!-- Node2&#45;&gt;Node18 -->
<g id="edge20" class="edge"><title>Node2&#45;&gt;Node18</title>
<path fill="none" stroke="midnightblue" d="M455.47,-172.536C403.108,-164.803 292.843,-148.189 200,-132 198.542,-131.746 197.06,-131.483 195.563,-131.215"/>
<polygon fill="midnightblue" stroke="midnightblue" points="196.058,-127.748 185.59,-129.386 194.795,-134.633 196.058,-127.748"/>
</g>
<!-- Node3&#45;&gt;Node4 -->
<g id="edge4" class="edge"><title>Node3&#45;&gt;Node4</title>
<path fill="none" stroke="midnightblue" d="M838.763,-112.368C829.93,-94.376 809.397,-52.5503 797.653,-28.6267"/>
<polygon fill="midnightblue" stroke="midnightblue" points="800.766,-27.0257 793.218,-19.5914 794.483,-30.1105 800.766,-27.0257"/>
</g>
<!-- Node5 -->
<g id="node6" class="node"><title>Node5</title>
<g id="a_node6"><a xlink:href="byteswap_8h.html" target="_top" xlink:title="compat/byteswap.h">
<polygon fill="white" stroke="black" points="836,-56.5 836,-75.5 938,-75.5 938,-56.5 836,-56.5"/>
<text text-anchor="middle" x="887" y="-63.5" font-family="Helvetica,sans-Serif" font-size="10.00">compat/byteswap.h</text>
</a>
</g>
</g>
<!-- Node3&#45;&gt;Node5 -->
<g id="edge5" class="edge"><title>Node3&#45;&gt;Node5</title>
<path fill="none" stroke="midnightblue" d="M850.266,-112.083C856.545,-104.377 865.788,-93.0333 873.431,-83.6531"/>
<polygon fill="midnightblue" stroke="midnightblue" points="876.266,-85.7143 879.869,-75.7511 870.839,-81.2926 876.266,-85.7143"/>
</g>
<!-- Node5&#45;&gt;Node4 -->
<g id="edge6" class="edge"><title>Node5&#45;&gt;Node4</title>
<path fill="none" stroke="midnightblue" d="M871.255,-56.324C855.681,-47.7428 831.623,-34.486 813.541,-24.5224"/>
<polygon fill="midnightblue" stroke="midnightblue" points="815.154,-21.4152 804.706,-19.6545 811.776,-27.546 815.154,-21.4152"/>
</g>
<!-- Node18&#45;&gt;Node4 -->
<g id="edge23" class="edge"><title>Node18&#45;&gt;Node4</title>
<path fill="none" stroke="midnightblue" d="M160.092,-112.329C172.635,-97.7092 200.319,-68.5257 231,-56 326.474,-17.0221 647.098,-11.7436 753.988,-11.0782"/>
<polygon fill="midnightblue" stroke="midnightblue" points="754.246,-14.577 764.227,-11.0248 754.209,-7.57707 754.246,-14.577"/>
</g>
<!-- Node18&#45;&gt;Node7 -->
<g id="edge21" class="edge"><title>Node18&#45;&gt;Node7</title>
<path fill="none" stroke="midnightblue" d="M143.199,-112.324C134.182,-104.341 120.594,-92.3128 109.682,-82.6529"/>
<polygon fill="midnightblue" stroke="midnightblue" points="111.787,-79.8416 101.979,-75.8339 107.147,-85.083 111.787,-79.8416"/>
</g>
<!-- Node18&#45;&gt;Node15 -->
<g id="edge24" class="edge"><title>Node18&#45;&gt;Node15</title>
<path fill="none" stroke="midnightblue" d="M170.995,-112.324C189.038,-103.625 217.047,-90.1202 237.803,-80.113"/>
<polygon fill="midnightblue" stroke="midnightblue" points="239.562,-83.1502 247.05,-75.6545 236.522,-76.8449 239.562,-83.1502"/>
</g>
<!-- Node18&#45;&gt;Node19 -->
<g id="edge22" class="edge"><title>Node18&#45;&gt;Node19</title>
<path fill="none" stroke="midnightblue" d="M132.56,-112.444C111.33,-103.557 77.901,-89.5632 53.745,-79.4514"/>
<polygon fill="midnightblue" stroke="midnightblue" points="54.9207,-76.1493 44.3448,-75.5164 52.2177,-82.6064 54.9207,-76.1493"/>
</g>
<!-- Node20 -->
<g id="node21" class="node"><title>Node20</title>
<polygon fill="white" stroke="#bfbfbf" points="136.5,-56.5 136.5,-75.5 183.5,-75.5 183.5,-56.5 136.5,-56.5"/>
<text text-anchor="middle" x="160" y="-63.5" font-family="Helvetica,sans-Serif" font-size="10.00">iterator</text>
</g>
<!-- Node18&#45;&gt;Node20 -->
<g id="edge25" class="edge"><title>Node18&#45;&gt;Node20</title>
<path fill="none" stroke="midnightblue" d="M154.156,-112.083C155.084,-104.927 156.418,-94.6353 157.577,-85.6911"/>
<polygon fill="midnightblue" stroke="midnightblue" points="161.051,-86.1181 158.866,-75.7511 154.109,-85.2181 161.051,-86.1181"/>
</g>
</g>
</svg>
