<?xml version="1.0" encoding="UTF-8" standalone="no"?>
<!DOCTYPE svg PUBLIC "-//W3C//DTD SVG 1.1//EN"
 "http://www.w3.org/Graphics/SVG/1.1/DTD/svg11.dtd">
<!-- Generated by graphviz version 2.36.0 (20140111.2315)
 -->
<!-- Title: src/qt/bitcoingui.cpp Pages: 1 -->
<!--zoomable 196 -->
<svg id="main" version="1.1" xmlns="http://www.w3.org/2000/svg" xmlns:xlink="http://www.w3.org/1999/xlink" xml:space="preserve" onload="init(evt)">
<style type="text/css"><![CDATA[
.edge:hover path { stroke: red; }
.edge:hover polygon { stroke: red; fill: red; }
]]></style>
<script type="text/javascript"><![CDATA[
var edges = document.getElementsByTagName('g');
if (edges && edges.length) {
  for (var i=0;i<edges.length;i++) {
    if (edges[i].id.substr(0,4)=='edge') {
      edges[i].setAttribute('class','edge');
    }
  }
}
]]></script>
        <defs>
                <circle id="rim" cx="0" cy="0" r="7"/>
                <circle id="rim2" cx="0" cy="0" r="3.5"/>
                <g id="zoomPlus">
                        <use xlink:href="#rim" fill="#404040">
                                <set attributeName="fill" to="#808080" begin="zoomplus.mouseover" end="zoomplus.mouseout"/>
                        </use>
                        <path d="M-4,0h8M0,-4v8" fill="none" stroke="white" stroke-width="1.5" pointer-events="none"/>
                </g>
                <g id="zoomMin">
                        <use xlink:href="#rim" fill="#404040">
                                <set attributeName="fill" to="#808080" begin="zoomminus.mouseover" end="zoomminus.mouseout"/>
                        </use>
                        <path d="M-4,0h8" fill="none" stroke="white" stroke-width="1.5" pointer-events="none"/>
                </g>
                <g id="dirArrow">
                        <path fill="none" stroke="white" stroke-width="1.5" d="M0,-3.0v7 M-2.5,-0.5L0,-3.0L2.5,-0.5"/>
                </g>
               <g id="resetDef">
                       <use xlink:href="#rim2" fill="#404040">
                               <set attributeName="fill" to="#808080" begin="reset.mouseover" end="reset.mouseout"/>
                       </use>
               </g>
        </defs>

<script type="text/javascript">
var viewWidth = 3777;
var viewHeight = 196;
var sectionId = 'dynsection-0';
</script>
<script xlink:href="svgpan.js"/>
<svg id="graph" class="graph">
<g id="viewport">
<title>src/qt/bitcoingui.cpp</title>
<polygon fill="white" stroke="none" points="-4,4 -4,-192 3773,-192 3773,4 -4,4"/>
<!-- Node0 -->
<g id="node1" class="node"><title>Node0</title>
<polygon fill="#bfbfbf" stroke="black" points="1913,-168.5 1913,-187.5 2017,-187.5 2017,-168.5 1913,-168.5"/>
<text text-anchor="middle" x="1965" y="-175.5" font-family="Helvetica,sans-Serif" font-size="10.00">src/qt/bitcoingui.cpp</text>
</g>
<!-- Node1 -->
<g id="node2" class="node"><title>Node1</title>
<g id="a_node2"><a xlink:href="bitcoingui_8h.html" target="_top" xlink:title="bitcoingui.h">
<polygon fill="white" stroke="black" points="511,-112.5 511,-131.5 577,-131.5 577,-112.5 511,-112.5"/>
<text text-anchor="middle" x="544" y="-119.5" font-family="Helvetica,sans-Serif" font-size="10.00">bitcoingui.h</text>
</a>
</g>
</g>
<!-- Node0&#45;&gt;Node1 -->
<g id="edge1" class="edge"><title>Node0&#45;&gt;Node1</title>
<path fill="none" stroke="midnightblue" d="M1912.89,-176.494C1734.3,-174.494 1130.5,-165.52 633,-132 618.162,-131 601.972,-129.489 587.518,-127.989"/>
<polygon fill="midnightblue" stroke="midnightblue" points="587.657,-124.484 577.343,-126.906 586.917,-131.445 587.657,-124.484"/>
</g>
<!-- Node29 -->
<g id="node11" class="node"><title>Node29</title>
<g id="a_node11"><a xlink:href="bitcoinunits_8h.html" target="_top" xlink:title="bitcoinunits.h">
<polygon fill="white" stroke="red" points="101,-56.5 101,-75.5 175,-75.5 175,-56.5 101,-56.5"/>
<text text-anchor="middle" x="138" y="-63.5" font-family="Helvetica,sans-Serif" font-size="10.00">bitcoinunits.h</text>
</a>
</g>
</g>
<!-- Node0&#45;&gt;Node29 -->
<g id="edge10" class="edge"><title>Node0&#45;&gt;Node29</title>
<path fill="none" stroke="midnightblue" d="M1912.77,-176.4C1685.8,-173.637 784.006,-161.016 502,-132 387.355,-120.204 254.487,-92.9844 185.341,-77.7761"/>
<polygon fill="midnightblue" stroke="midnightblue" points="185.727,-74.2769 175.207,-75.5326 184.214,-81.1114 185.727,-74.2769"/>
</g>
<!-- Node32 -->
<g id="node12" class="node"><title>Node32</title>
<g id="a_node12"><a xlink:href="clientmodel_8h.html" target="_top" xlink:title="clientmodel.h">
<polygon fill="white" stroke="red" points="1080,-112.5 1080,-131.5 1154,-131.5 1154,-112.5 1080,-112.5"/>
<text text-anchor="middle" x="1117" y="-119.5" font-family="Helvetica,sans-Serif" font-size="10.00">clientmodel.h</text>
</a>
</g>
</g>
<!-- Node0&#45;&gt;Node32 -->
<g id="edge12" class="edge"><title>Node0&#45;&gt;Node32</title>
<path fill="none" stroke="midnightblue" d="M1912.78,-176.467C1786.2,-174.661 1452.9,-166.824 1164.37,-131.838"/>
<polygon fill="midnightblue" stroke="midnightblue" points="1164.48,-128.326 1154.13,-130.582 1163.63,-135.273 1164.48,-128.326"/>
</g>
<!-- Node34 -->
<g id="node13" class="node"><title>Node34</title>
<polygon fill="white" stroke="#bfbfbf" points="1097.5,-56.5 1097.5,-75.5 1164.5,-75.5 1164.5,-56.5 1097.5,-56.5"/>
<text text-anchor="middle" x="1131" y="-63.5" font-family="Helvetica,sans-Serif" font-size="10.00">QDateTime</text>
</g>
<!-- Node0&#45;&gt;Node34 -->
<g id="edge44" class="edge"><title>Node0&#45;&gt;Node34</title>
<path fill="none" stroke="midnightblue" d="M1912.72,-176.335C1725.8,-173.705 1100.13,-162.635 1071,-132 1054.28,-114.414 1081.06,-93.7715 1104.01,-80.5471"/>
<polygon fill="midnightblue" stroke="midnightblue" points="1105.76,-83.5803 1112.84,-75.6973 1102.39,-77.4453 1105.76,-83.5803"/>
</g>
<!-- Node36 -->
<g id="node14" class="node"><title>Node36</title>
<g id="a_node14"><a xlink:href="guiconstants_8h.html" target="_top" xlink:title="guiconstants.h">
<polygon fill="white" stroke="black" points="1274,-112.5 1274,-131.5 1354,-131.5 1354,-112.5 1274,-112.5"/>
<text text-anchor="middle" x="1314" y="-119.5" font-family="Helvetica,sans-Serif" font-size="10.00">guiconstants.h</text>
</a>
</g>
</g>
<!-- Node0&#45;&gt;Node36 -->
<g id="edge14" class="edge"><title>Node0&#45;&gt;Node36</title>
<path fill="none" stroke="midnightblue" d="M1912.87,-174.984C1809.9,-170.593 1572.99,-158.468 1363.99,-131.99"/>
<polygon fill="midnightblue" stroke="midnightblue" points="1364.42,-128.517 1354.06,-130.718 1363.53,-135.46 1364.42,-128.517"/>
</g>
<!-- Node37 -->
<g id="node15" class="node"><title>Node37</title>
<g id="a_node15"><a xlink:href="guiutil_8h.html" target="_top" xlink:title="guiutil.h">
<polygon fill="white" stroke="red" points="702,-56.5 702,-75.5 752,-75.5 752,-56.5 702,-56.5"/>
<text text-anchor="middle" x="727" y="-63.5" font-family="Helvetica,sans-Serif" font-size="10.00">guiutil.h</text>
</a>
</g>
</g>
<!-- Node0&#45;&gt;Node37 -->
<g id="edge15" class="edge"><title>Node0&#45;&gt;Node37</title>
<path fill="none" stroke="midnightblue" d="M1912.86,-176.423C1688.69,-173.765 815.983,-161.551 766,-132 748.696,-121.769 738.157,-100.606 732.47,-85.1986"/>
<polygon fill="midnightblue" stroke="midnightblue" points="735.772,-84.0342 729.285,-75.6569 729.132,-86.2506 735.772,-84.0342"/>
</g>
<!-- Node40 -->
<g id="node16" class="node"><title>Node40</title>
<polygon fill="white" stroke="#bfbfbf" points="712.5,-0.5 712.5,-19.5 793.5,-19.5 793.5,-0.5 712.5,-0.5"/>
<text text-anchor="middle" x="753" y="-7.5" font-family="Helvetica,sans-Serif" font-size="10.00">QMessageBox</text>
</g>
<!-- Node0&#45;&gt;Node40 -->
<g id="edge49" class="edge"><title>Node0&#45;&gt;Node40</title>
<path fill="none" stroke="midnightblue" d="M1912.91,-176.173C1697.82,-172.597 887.848,-157.485 840,-132 798.084,-109.675 771.55,-57.1598 759.889,-29.2238"/>
<polygon fill="midnightblue" stroke="midnightblue" points="763.1,-27.8282 756.146,-19.8348 756.598,-30.42 763.1,-27.8282"/>
</g>
<!-- Node44 -->
<g id="node17" class="node"><title>Node44</title>
<g id="a_node17"><a xlink:href="modaloverlay_8h.html" target="_top" xlink:title="modaloverlay.h">
<polygon fill="white" stroke="red" points="1172.5,-112.5 1172.5,-131.5 1255.5,-131.5 1255.5,-112.5 1172.5,-112.5"/>
<text text-anchor="middle" x="1214" y="-119.5" font-family="Helvetica,sans-Serif" font-size="10.00">modaloverlay.h</text>
</a>
</g>
</g>
<!-- Node0&#45;&gt;Node44 -->
<g id="edge19" class="edge"><title>Node0&#45;&gt;Node44</title>
<path fill="none" stroke="midnightblue" d="M1912.57,-175.609C1797.46,-172.127 1513.81,-161.215 1265.98,-131.971"/>
<polygon fill="midnightblue" stroke="midnightblue" points="1266.04,-128.453 1255.69,-130.744 1265.21,-135.404 1266.04,-128.453"/>
</g>
<!-- Node46 -->
<g id="node18" class="node"><title>Node46</title>
<g id="a_node18"><a xlink:href="networkstyle_8h.html" target="_top" xlink:title="networkstyle.h">
<polygon fill="white" stroke="red" points="1372,-112.5 1372,-131.5 1452,-131.5 1452,-112.5 1372,-112.5"/>
<text text-anchor="middle" x="1412" y="-119.5" font-family="Helvetica,sans-Serif" font-size="10.00">networkstyle.h</text>
</a>
</g>
</g>
<!-- Node0&#45;&gt;Node46 -->
<g id="edge21" class="edge"><title>Node0&#45;&gt;Node46</title>
<path fill="none" stroke="midnightblue" d="M1912.95,-173.947C1823.05,-168.327 1632.72,-154.899 1461.98,-132.014"/>
<polygon fill="midnightblue" stroke="midnightblue" points="1462.44,-128.544 1452.06,-130.671 1461.5,-135.481 1462.44,-128.544"/>
</g>
<!-- Node49 -->
<g id="node19" class="node"><title>Node49</title>
<g id="a_node19"><a xlink:href="notificator_8h.html" target="_top" xlink:title="notificator.h">
<polygon fill="white" stroke="red" points="1470,-112.5 1470,-131.5 1538,-131.5 1538,-112.5 1470,-112.5"/>
<text text-anchor="middle" x="1504" y="-119.5" font-family="Helvetica,sans-Serif" font-size="10.00">notificator.h</text>
</a>
</g>
</g>
<!-- Node0&#45;&gt;Node49 -->
<g id="edge22" class="edge"><title>Node0&#45;&gt;Node49</title>
<path fill="none" stroke="midnightblue" d="M1912.98,-173.067C1835.63,-166.853 1685.59,-153.392 1548.48,-132.093"/>
<polygon fill="midnightblue" stroke="midnightblue" points="1548.63,-128.575 1538.21,-130.479 1547.55,-135.49 1548.63,-128.575"/>
</g>
<!-- Node50 -->
<g id="node20" class="node"><title>Node50</title>
<g id="a_node20"><a xlink:href="openuridialog_8h.html" target="_top" xlink:title="openuridialog.h">
<polygon fill="white" stroke="red" points="1556,-112.5 1556,-131.5 1638,-131.5 1638,-112.5 1556,-112.5"/>
<text text-anchor="middle" x="1597" y="-119.5" font-family="Helvetica,sans-Serif" font-size="10.00">openuridialog.h</text>
</a>
</g>
</g>
<!-- Node0&#45;&gt;Node50 -->
<g id="edge23" class="edge"><title>Node0&#45;&gt;Node50</title>
<path fill="none" stroke="midnightblue" d="M1912.86,-170.232C1851.82,-162.173 1747.45,-147.97 1648.09,-132.127"/>
<polygon fill="midnightblue" stroke="midnightblue" points="1648.61,-128.665 1638.18,-130.539 1647.5,-135.577 1648.61,-128.665"/>
</g>
<!-- Node52 -->
<g id="node21" class="node"><title>Node52</title>
<g id="a_node21"><a xlink:href="optionsdialog_8h.html" target="_top" xlink:title="optionsdialog.h">
<polygon fill="white" stroke="red" points="1656,-112.5 1656,-131.5 1738,-131.5 1738,-112.5 1656,-112.5"/>
<text text-anchor="middle" x="1697" y="-119.5" font-family="Helvetica,sans-Serif" font-size="10.00">optionsdialog.h</text>
</a>
</g>
</g>
<!-- Node0&#45;&gt;Node52 -->
<g id="edge24" class="edge"><title>Node0&#45;&gt;Node52</title>
<path fill="none" stroke="midnightblue" d="M1922.53,-168.444C1875.31,-158.928 1799.03,-143.559 1748.46,-133.368"/>
<polygon fill="midnightblue" stroke="midnightblue" points="1748.88,-129.883 1738.39,-131.339 1747.5,-136.745 1748.88,-129.883"/>
</g>
<!-- Node54 -->
<g id="node22" class="node"><title>Node54</title>
<g id="a_node22"><a xlink:href="optionsmodel_8h.html" target="_top" xlink:title="optionsmodel.h">
<polygon fill="white" stroke="red" points="-0.5,-56.5 -0.5,-75.5 82.5,-75.5 82.5,-56.5 -0.5,-56.5"/>
<text text-anchor="middle" x="41" y="-63.5" font-family="Helvetica,sans-Serif" font-size="10.00">optionsmodel.h</text>
</a>
</g>
</g>
<!-- Node0&#45;&gt;Node54 -->
<g id="edge25" class="edge"><title>Node0&#45;&gt;Node54</title>
<path fill="none" stroke="midnightblue" d="M1912.94,-176.763C1672.68,-175.48 669.565,-168.027 358,-132 258.291,-120.471 143.355,-93.3743 83.0115,-78.0553"/>
<polygon fill="midnightblue" stroke="midnightblue" points="83.6557,-74.6074 73.1003,-75.5201 81.921,-81.3891 83.6557,-74.6074"/>
</g>
<!-- Node55 -->
<g id="node23" class="node"><title>Node55</title>
<g id="a_node23"><a xlink:href="platformstyle_8h.html" target="_top" xlink:title="platformstyle.h">
<polygon fill="white" stroke="red" points="874.5,-56.5 874.5,-75.5 955.5,-75.5 955.5,-56.5 874.5,-56.5"/>
<text text-anchor="middle" x="915" y="-63.5" font-family="Helvetica,sans-Serif" font-size="10.00">platformstyle.h</text>
</a>
</g>
</g>
<!-- Node0&#45;&gt;Node55 -->
<g id="edge27" class="edge"><title>Node0&#45;&gt;Node55</title>
<path fill="none" stroke="midnightblue" d="M1912.78,-176.882C1697.23,-176.143 886.254,-170.786 849,-132 831.416,-113.693 860.604,-93.2519 885.573,-80.2672"/>
<polygon fill="midnightblue" stroke="midnightblue" points="887.426,-83.2547 894.83,-75.6757 884.316,-76.9837 887.426,-83.2547"/>
</g>
<!-- Node56 -->
<g id="node24" class="node"><title>Node56</title>
<g id="a_node24"><a xlink:href="rpcconsole_8h.html" target="_top" xlink:title="rpcconsole.h">
<polygon fill="white" stroke="red" points="642,-112.5 642,-131.5 714,-131.5 714,-112.5 642,-112.5"/>
<text text-anchor="middle" x="678" y="-119.5" font-family="Helvetica,sans-Serif" font-size="10.00">rpcconsole.h</text>
</a>
</g>
</g>
<!-- Node0&#45;&gt;Node56 -->
<g id="edge28" class="edge"><title>Node0&#45;&gt;Node56</title>
<path fill="none" stroke="midnightblue" d="M1912.79,-176.088C1708.5,-172.366 963.165,-157.313 728,-132 726.742,-131.865 725.468,-131.716 724.184,-131.556"/>
<polygon fill="midnightblue" stroke="midnightblue" points="724.626,-128.084 714.234,-130.145 723.643,-135.015 724.626,-128.084"/>
</g>
<!-- Node140 -->
<g id="node25" class="node"><title>Node140</title>
<g id="a_node25"><a xlink:href="utilitydialog_8h.html" target="_top" xlink:title="utilitydialog.h">
<polygon fill="white" stroke="red" points="1756,-112.5 1756,-131.5 1830,-131.5 1830,-112.5 1756,-112.5"/>
<text text-anchor="middle" x="1793" y="-119.5" font-family="Helvetica,sans-Serif" font-size="10.00">utilitydialog.h</text>
</a>
</g>
</g>
<!-- Node0&#45;&gt;Node140 -->
<g id="edge30" class="edge"><title>Node0&#45;&gt;Node140</title>
<path fill="none" stroke="midnightblue" d="M1937.75,-168.444C1908.56,-159.28 1862.08,-144.688 1829.69,-134.519"/>
<polygon fill="midnightblue" stroke="midnightblue" points="1830.72,-131.173 1820.13,-131.516 1828.62,-137.851 1830.72,-131.173"/>
</g>
<!-- Node141 -->
<g id="node26" class="node"><title>Node141</title>
<g id="a_node26"><a xlink:href="chainparams_8h.html" target="_top" xlink:title="chainparams.h">
<polygon fill="white" stroke="red" points="1848,-112.5 1848,-131.5 1928,-131.5 1928,-112.5 1848,-112.5"/>
<text text-anchor="middle" x="1888" y="-119.5" font-family="Helvetica,sans-Serif" font-size="10.00">chainparams.h</text>
</a>
</g>
</g>
<!-- Node0&#45;&gt;Node141 -->
<g id="edge31" class="edge"><title>Node0&#45;&gt;Node141</title>
<path fill="none" stroke="midnightblue" d="M1952.63,-168.324C1940.84,-160.058 1922.87,-147.453 1908.86,-137.632"/>
<polygon fill="midnightblue" stroke="midnightblue" points="1910.54,-134.531 1900.34,-131.655 1906.52,-140.262 1910.54,-134.531"/>
</g>
<!-- Node148 -->
<g id="node27" class="node"><title>Node148</title>
<g id="a_node27"><a xlink:href="init_8h.html" target="_top" xlink:title="init.h">
<polygon fill="white" stroke="red" points="1946,-112.5 1946,-131.5 1984,-131.5 1984,-112.5 1946,-112.5"/>
<text text-anchor="middle" x="1965" y="-119.5" font-family="Helvetica,sans-Serif" font-size="10.00">init.h</text>
</a>
</g>
</g>
<!-- Node0&#45;&gt;Node148 -->
<g id="edge32" class="edge"><title>Node0&#45;&gt;Node148</title>
<path fill="none" stroke="midnightblue" d="M1965,-168.083C1965,-161.006 1965,-150.861 1965,-141.986"/>
<polygon fill="midnightblue" stroke="midnightblue" points="1968.5,-141.751 1965,-131.751 1961.5,-141.751 1968.5,-141.751"/>
</g>
<!-- Node149 -->
<g id="node28" class="node"><title>Node149</title>
<g id="a_node28"><a xlink:href="ui__interface_8h.html" target="_top" xlink:title="ui_interface.h">
<polygon fill="white" stroke="red" points="2002.5,-112.5 2002.5,-131.5 2077.5,-131.5 2077.5,-112.5 2002.5,-112.5"/>
<text text-anchor="middle" x="2040" y="-119.5" font-family="Helvetica,sans-Serif" font-size="10.00">ui_interface.h</text>
</a>
</g>
</g>
<!-- Node0&#45;&gt;Node149 -->
<g id="edge33" class="edge"><title>Node0&#45;&gt;Node149</title>
<path fill="none" stroke="midnightblue" d="M1977.05,-168.324C1988.46,-160.107 2005.83,-147.602 2019.43,-137.807"/>
<polygon fill="midnightblue" stroke="midnightblue" points="2021.66,-140.517 2027.73,-131.834 2017.57,-134.837 2021.66,-140.517"/>
</g>
<!-- Node151 -->
<g id="node29" class="node"><title>Node151</title>
<polygon fill="white" stroke="#bfbfbf" points="974,-56.5 974,-75.5 1012,-75.5 1012,-56.5 974,-56.5"/>
<text text-anchor="middle" x="993" y="-63.5" font-family="Helvetica,sans-Serif" font-size="10.00">util.h</text>
</g>
<!-- Node0&#45;&gt;Node151 -->
<g id="edge34" class="edge"><title>Node0&#45;&gt;Node151</title>
<path fill="none" stroke="midnightblue" d="M1912.72,-176.85C1729.81,-175.995 1125.48,-170.272 1048,-132 1027.56,-121.904 1011.79,-100.383 1002.48,-84.8663"/>
<polygon fill="midnightblue" stroke="midnightblue" points="1005.27,-82.7014 997.306,-75.717 999.178,-86.1451 1005.27,-82.7014"/>
</g>
<!-- Node152 -->
<g id="node30" class="node"><title>Node152</title>
<g id="a_node30"><a xlink:href="masternode-sync_8h.html" target="_top" xlink:title="masternode&#45;sync.h">
<polygon fill="white" stroke="red" points="2096,-112.5 2096,-131.5 2196,-131.5 2196,-112.5 2096,-112.5"/>
<text text-anchor="middle" x="2146" y="-119.5" font-family="Helvetica,sans-Serif" font-size="10.00">masternode&#45;sync.h</text>
</a>
</g>
</g>
<!-- Node0&#45;&gt;Node152 -->
<g id="edge35" class="edge"><title>Node0&#45;&gt;Node152</title>
<path fill="none" stroke="midnightblue" d="M1993.68,-168.444C2024.53,-159.241 2073.73,-144.562 2107.83,-134.388"/>
<polygon fill="midnightblue" stroke="midnightblue" points="2108.87,-137.729 2117.45,-131.516 2106.87,-131.021 2108.87,-137.729"/>
</g>
<!-- Node156 -->
<g id="node31" class="node"><title>Node156</title>
<g id="a_node31"><a xlink:href="masternodelist_8h.html" target="_top" xlink:title="masternodelist.h">
<polygon fill="white" stroke="red" points="858.5,-112.5 858.5,-131.5 947.5,-131.5 947.5,-112.5 858.5,-112.5"/>
<text text-anchor="middle" x="903" y="-119.5" font-family="Helvetica,sans-Serif" font-size="10.00">masternodelist.h</text>
</a>
</g>
</g>
<!-- Node0&#45;&gt;Node156 -->
<g id="edge36" class="edge"><title>Node0&#45;&gt;Node156</title>
<path fill="none" stroke="midnightblue" d="M1912.92,-176.618C1764.17,-175.104 1324.77,-167.704 962,-132 960.695,-131.872 959.375,-131.734 958.044,-131.588"/>
<polygon fill="midnightblue" stroke="midnightblue" points="958.064,-128.065 947.715,-130.333 957.22,-135.014 958.064,-128.065"/>
</g>
<!-- Node211 -->
<g id="node32" class="node"><title>Node211</title>
<polygon fill="white" stroke="#bfbfbf" points="1030.5,-56.5 1030.5,-75.5 1079.5,-75.5 1079.5,-56.5 1030.5,-56.5"/>
<text text-anchor="middle" x="1055" y="-63.5" font-family="Helvetica,sans-Serif" font-size="10.00">QTimer</text>
</g>
<!-- Node0&#45;&gt;Node211 -->
<g id="edge57" class="edge"><title>Node0&#45;&gt;Node211</title>
<path fill="none" stroke="midnightblue" d="M1912.95,-176.256C1725.33,-173.336 1093.08,-161.347 1062,-132 1049.77,-120.451 1049.35,-100.486 1051.17,-85.7222"/>
<polygon fill="midnightblue" stroke="midnightblue" points="1054.66,-86.1094 1052.84,-75.6713 1047.75,-84.9633 1054.66,-86.1094"/>
</g>
<!-- Node96 -->
<g id="node33" class="node"><title>Node96</title>
<polygon fill="white" stroke="#bfbfbf" points="2214,-112.5 2214,-131.5 2268,-131.5 2268,-112.5 2214,-112.5"/>
<text text-anchor="middle" x="2241" y="-119.5" font-family="Helvetica,sans-Serif" font-size="10.00">iostream</text>
</g>
<!-- Node0&#45;&gt;Node96 -->
<g id="edge41" class="edge"><title>Node0&#45;&gt;Node96</title>
<path fill="none" stroke="midnightblue" d="M2015.28,-168.472C2061.77,-160.384 2133.01,-147.48 2203.91,-132.136"/>
<polygon fill="midnightblue" stroke="midnightblue" points="2204.89,-135.506 2213.91,-129.955 2203.4,-128.667 2204.89,-135.506"/>
</g>
<!-- Node212 -->
<g id="node34" class="node"><title>Node212</title>
<polygon fill="white" stroke="#bfbfbf" points="2286,-112.5 2286,-131.5 2338,-131.5 2338,-112.5 2286,-112.5"/>
<text text-anchor="middle" x="2312" y="-119.5" font-family="Helvetica,sans-Serif" font-size="10.00">QAction</text>
</g>
<!-- Node0&#45;&gt;Node212 -->
<g id="edge42" class="edge"><title>Node0&#45;&gt;Node212</title>
<path fill="none" stroke="midnightblue" d="M2017.19,-171.228C2077.32,-164.186 2179.26,-151.054 2275.77,-132.067"/>
<polygon fill="midnightblue" stroke="midnightblue" points="2276.57,-135.476 2285.7,-130.09 2275.21,-128.611 2276.57,-135.476"/>
</g>
<!-- Node213 -->
<g id="node35" class="node"><title>Node213</title>
<polygon fill="white" stroke="#bfbfbf" points="2356,-112.5 2356,-131.5 2428,-131.5 2428,-112.5 2356,-112.5"/>
<text text-anchor="middle" x="2392" y="-119.5" font-family="Helvetica,sans-Serif" font-size="10.00">QApplication</text>
</g>
<!-- Node0&#45;&gt;Node213 -->
<g id="edge43" class="edge"><title>Node0&#45;&gt;Node213</title>
<path fill="none" stroke="midnightblue" d="M2017.08,-172.2C2088.84,-165.292 2222.33,-151.382 2345.7,-132.099"/>
<polygon fill="midnightblue" stroke="midnightblue" points="2346.36,-135.537 2355.7,-130.52 2345.27,-128.623 2346.36,-135.537"/>
</g>
<!-- Node214 -->
<g id="node36" class="node"><title>Node214</title>
<polygon fill="white" stroke="#bfbfbf" points="2446,-112.5 2446,-131.5 2538,-131.5 2538,-112.5 2446,-112.5"/>
<text text-anchor="middle" x="2492" y="-119.5" font-family="Helvetica,sans-Serif" font-size="10.00">QDesktopWidget</text>
</g>
<!-- Node0&#45;&gt;Node214 -->
<g id="edge45" class="edge"><title>Node0&#45;&gt;Node214</title>
<path fill="none" stroke="midnightblue" d="M2017.16,-173.178C2102.52,-166.672 2277.58,-152.272 2435.9,-132.065"/>
<polygon fill="midnightblue" stroke="midnightblue" points="2436.35,-135.536 2445.82,-130.788 2435.45,-128.593 2436.35,-135.536"/>
</g>
<!-- Node215 -->
<g id="node37" class="node"><title>Node215</title>
<polygon fill="white" stroke="#bfbfbf" points="2556,-112.5 2556,-131.5 2650,-131.5 2650,-112.5 2556,-112.5"/>
<text text-anchor="middle" x="2603" y="-119.5" font-family="Helvetica,sans-Serif" font-size="10.00">QDragEnterEvent</text>
</g>
<!-- Node0&#45;&gt;Node215 -->
<g id="edge46" class="edge"><title>Node0&#45;&gt;Node215</title>
<path fill="none" stroke="midnightblue" d="M2017.31,-174.4C2117.71,-169.096 2344.57,-155.595 2545.82,-132.045"/>
<polygon fill="midnightblue" stroke="midnightblue" points="2546.47,-135.492 2555.99,-130.843 2545.64,-128.541 2546.47,-135.492"/>
</g>
<!-- Node216 -->
<g id="node38" class="node"><title>Node216</title>
<polygon fill="white" stroke="#bfbfbf" points="2668.5,-112.5 2668.5,-131.5 2739.5,-131.5 2739.5,-112.5 2668.5,-112.5"/>
<text text-anchor="middle" x="2704" y="-119.5" font-family="Helvetica,sans-Serif" font-size="10.00">QListWidget</text>
</g>
<!-- Node0&#45;&gt;Node216 -->
<g id="edge47" class="edge"><title>Node0&#45;&gt;Node216</title>
<path fill="none" stroke="midnightblue" d="M2017.03,-175.982C2131.26,-173.239 2412.66,-163.708 2658.03,-131.937"/>
<polygon fill="midnightblue" stroke="midnightblue" points="2658.75,-135.373 2668.21,-130.603 2657.84,-128.432 2658.75,-135.373"/>
</g>
<!-- Node217 -->
<g id="node39" class="node"><title>Node217</title>
<polygon fill="white" stroke="#bfbfbf" points="2757.5,-112.5 2757.5,-131.5 2820.5,-131.5 2820.5,-112.5 2757.5,-112.5"/>
<text text-anchor="middle" x="2789" y="-119.5" font-family="Helvetica,sans-Serif" font-size="10.00">QMenuBar</text>
</g>
<!-- Node0&#45;&gt;Node217 -->
<g id="edge48" class="edge"><title>Node0&#45;&gt;Node217</title>
<path fill="none" stroke="midnightblue" d="M2017.04,-176.854C2141.61,-175.894 2466.77,-169.78 2747.34,-131.841"/>
<polygon fill="midnightblue" stroke="midnightblue" points="2747.87,-135.301 2757.31,-130.478 2746.92,-128.366 2747.87,-135.301"/>
</g>
<!-- Node218 -->
<g id="node40" class="node"><title>Node218</title>
<polygon fill="white" stroke="#bfbfbf" points="2838.5,-112.5 2838.5,-131.5 2907.5,-131.5 2907.5,-112.5 2838.5,-112.5"/>
<text text-anchor="middle" x="2873" y="-119.5" font-family="Helvetica,sans-Serif" font-size="10.00">QMimeData</text>
</g>
<!-- Node0&#45;&gt;Node218 -->
<g id="edge50" class="edge"><title>Node0&#45;&gt;Node218</title>
<path fill="none" stroke="midnightblue" d="M2017.35,-176.996C2150.91,-176.403 2515.25,-171.132 2828.31,-131.858"/>
<polygon fill="midnightblue" stroke="midnightblue" points="2829.01,-135.297 2838.49,-130.566 2828.13,-128.353 2829.01,-135.297"/>
</g>
<!-- Node219 -->
<g id="node41" class="node"><title>Node219</title>
<polygon fill="white" stroke="#bfbfbf" points="2925.5,-112.5 2925.5,-131.5 3016.5,-131.5 3016.5,-112.5 2925.5,-112.5"/>
<text text-anchor="middle" x="2971" y="-119.5" font-family="Helvetica,sans-Serif" font-size="10.00">QProgressDialog</text>
</g>
<!-- Node0&#45;&gt;Node219 -->
<g id="edge51" class="edge"><title>Node0&#45;&gt;Node219</title>
<path fill="none" stroke="midnightblue" d="M2017.22,-176.633C2159.6,-175.183 2566.64,-168.039 2915.39,-131.919"/>
<polygon fill="midnightblue" stroke="midnightblue" points="2915.85,-135.391 2925.44,-130.87 2915.13,-128.429 2915.85,-135.391"/>
</g>
<!-- Node220 -->
<g id="node42" class="node"><title>Node220</title>
<polygon fill="white" stroke="#bfbfbf" points="3035,-112.5 3035,-131.5 3095,-131.5 3095,-112.5 3035,-112.5"/>
<text text-anchor="middle" x="3065" y="-119.5" font-family="Helvetica,sans-Serif" font-size="10.00">QSettings</text>
</g>
<!-- Node0&#45;&gt;Node220 -->
<g id="edge52" class="edge"><title>Node0&#45;&gt;Node220</title>
<path fill="none" stroke="midnightblue" d="M2017.19,-176.021C2202.29,-172.356 2826.77,-158.293 3025,-132 3025.1,-131.987 3025.2,-131.973 3025.3,-131.959"/>
<polygon fill="midnightblue" stroke="midnightblue" points="3025.67,-135.447 3034.96,-130.364 3024.53,-128.54 3025.67,-135.447"/>
</g>
<!-- Node221 -->
<g id="node43" class="node"><title>Node221</title>
<polygon fill="white" stroke="#bfbfbf" points="3113.5,-112.5 3113.5,-131.5 3174.5,-131.5 3174.5,-112.5 3113.5,-112.5"/>
<text text-anchor="middle" x="3144" y="-119.5" font-family="Helvetica,sans-Serif" font-size="10.00">QShortcut</text>
</g>
<!-- Node0&#45;&gt;Node221 -->
<g id="edge53" class="edge"><title>Node0&#45;&gt;Node221</title>
<path fill="none" stroke="midnightblue" d="M2017.31,-176.158C2211.21,-172.848 2888.75,-159.532 3103,-132 3103.1,-131.987 3103.21,-131.973 3103.31,-131.96"/>
<polygon fill="midnightblue" stroke="midnightblue" points="3103.89,-135.412 3113.21,-130.37 3102.78,-128.5 3103.89,-135.412"/>
</g>
<!-- Node222 -->
<g id="node44" class="node"><title>Node222</title>
<polygon fill="white" stroke="#bfbfbf" points="3192.5,-112.5 3192.5,-131.5 3283.5,-131.5 3283.5,-112.5 3192.5,-112.5"/>
<text text-anchor="middle" x="3238" y="-119.5" font-family="Helvetica,sans-Serif" font-size="10.00">QStackedWidget</text>
</g>
<!-- Node0&#45;&gt;Node222 -->
<g id="edge54" class="edge"><title>Node0&#45;&gt;Node222</title>
<path fill="none" stroke="midnightblue" d="M2017.1,-177.403C2184.71,-178.205 2725.21,-176.951 3182.33,-131.911"/>
<polygon fill="midnightblue" stroke="midnightblue" points="3182.83,-135.378 3192.44,-130.906 3182.14,-128.412 3182.83,-135.378"/>
</g>
<!-- Node223 -->
<g id="node45" class="node"><title>Node223</title>
<polygon fill="white" stroke="#bfbfbf" points="3302,-112.5 3302,-131.5 3370,-131.5 3370,-112.5 3302,-112.5"/>
<text text-anchor="middle" x="3336" y="-119.5" font-family="Helvetica,sans-Serif" font-size="10.00">QStatusBar</text>
</g>
<!-- Node0&#45;&gt;Node223 -->
<g id="edge55" class="edge"><title>Node0&#45;&gt;Node223</title>
<path fill="none" stroke="midnightblue" d="M2017.35,-176.399C2231.15,-173.764 3038.62,-161.995 3292,-132 3292.1,-131.988 3292.2,-131.976 3292.31,-131.964"/>
<polygon fill="midnightblue" stroke="midnightblue" points="3292.59,-135.459 3301.98,-130.546 3291.58,-128.533 3292.59,-135.459"/>
</g>
<!-- Node224 -->
<g id="node46" class="node"><title>Node224</title>
<polygon fill="white" stroke="#bfbfbf" points="3388.5,-112.5 3388.5,-131.5 3435.5,-131.5 3435.5,-112.5 3388.5,-112.5"/>
<text text-anchor="middle" x="3412" y="-119.5" font-family="Helvetica,sans-Serif" font-size="10.00">QStyle</text>
</g>
<!-- Node0&#45;&gt;Node224 -->
<g id="edge56" class="edge"><title>Node0&#45;&gt;Node224</title>
<path fill="none" stroke="midnightblue" d="M2017.05,-176.975C2236.56,-176.62 3088.35,-172.688 3378.27,-131.639"/>
<polygon fill="midnightblue" stroke="midnightblue" points="3378.96,-135.076 3388.35,-130.163 3377.95,-128.15 3378.96,-135.076"/>
</g>
<!-- Node225 -->
<g id="node47" class="node"><title>Node225</title>
<polygon fill="white" stroke="#bfbfbf" points="3454,-112.5 3454,-131.5 3512,-131.5 3512,-112.5 3454,-112.5"/>
<text text-anchor="middle" x="3483" y="-119.5" font-family="Helvetica,sans-Serif" font-size="10.00">QToolBar</text>
</g>
<!-- Node0&#45;&gt;Node225 -->
<g id="edge58" class="edge"><title>Node0&#45;&gt;Node225</title>
<path fill="none" stroke="midnightblue" d="M2017.08,-176.787C2242.86,-175.653 3139.01,-168.951 3443.58,-131.687"/>
<polygon fill="midnightblue" stroke="midnightblue" points="3444.24,-135.131 3453.72,-130.405 3443.36,-128.186 3444.24,-135.131"/>
</g>
<!-- Node226 -->
<g id="node48" class="node"><title>Node226</title>
<polygon fill="white" stroke="#bfbfbf" points="3530.5,-112.5 3530.5,-131.5 3607.5,-131.5 3607.5,-112.5 3530.5,-112.5"/>
<text text-anchor="middle" x="3569" y="-119.5" font-family="Helvetica,sans-Serif" font-size="10.00">QVBoxLayout</text>
</g>
<!-- Node0&#45;&gt;Node226 -->
<g id="edge59" class="edge"><title>Node0&#45;&gt;Node226</title>
<path fill="none" stroke="midnightblue" d="M2017.32,-176.56C2253.17,-174.412 3219.02,-163.808 3520,-132 3520.1,-131.989 3520.21,-131.978 3520.31,-131.966"/>
<polygon fill="midnightblue" stroke="midnightblue" points="3520.83,-135.429 3530.3,-130.673 3519.93,-128.487 3520.83,-135.429"/>
</g>
<!-- Node227 -->
<g id="node49" class="node"><title>Node227</title>
<polygon fill="white" stroke="#bfbfbf" points="3625.5,-112.5 3625.5,-131.5 3714.5,-131.5 3714.5,-112.5 3625.5,-112.5"/>
<text text-anchor="middle" x="3670" y="-119.5" font-family="Helvetica,sans-Serif" font-size="10.00">QTextDocument</text>
</g>
<!-- Node0&#45;&gt;Node227 -->
<g id="edge60" class="edge"><title>Node0&#45;&gt;Node227</title>
<path fill="none" stroke="midnightblue" d="M2017.23,-176.547C2259.28,-174.301 3274.13,-163.226 3615.14,-131.899"/>
<polygon fill="midnightblue" stroke="midnightblue" points="3615.65,-135.366 3625.27,-130.942 3614.99,-128.397 3615.65,-135.366"/>
</g>
<!-- Node228 -->
<g id="node50" class="node"><title>Node228</title>
<polygon fill="white" stroke="#bfbfbf" points="3732.5,-112.5 3732.5,-131.5 3769.5,-131.5 3769.5,-112.5 3732.5,-112.5"/>
<text text-anchor="middle" x="3751" y="-119.5" font-family="Helvetica,sans-Serif" font-size="10.00">QUrl</text>
</g>
<!-- Node0&#45;&gt;Node228 -->
<g id="edge61" class="edge"><title>Node0&#45;&gt;Node228</title>
<path fill="none" stroke="midnightblue" d="M2017.33,-176.549C2286.46,-174.112 3509.85,-161.576 3722.32,-131.39"/>
<polygon fill="midnightblue" stroke="midnightblue" points="3722.86,-134.847 3732.2,-129.846 3721.78,-127.931 3722.86,-134.847"/>
</g>
<!-- Node2 -->
<g id="node3" class="node"><title>Node2</title>
<g id="a_node3"><a xlink:href="amount_8h.html" target="_top" xlink:title="amount.h">
<polygon fill="white" stroke="red" points="278.5,-0.5 278.5,-19.5 335.5,-19.5 335.5,-0.5 278.5,-0.5"/>
<text text-anchor="middle" x="307" y="-7.5" font-family="Helvetica,sans-Serif" font-size="10.00">amount.h</text>
</a>
</g>
</g>
<!-- Node1&#45;&gt;Node2 -->
<g id="edge2" class="edge"><title>Node1&#45;&gt;Node2</title>
<path fill="none" stroke="midnightblue" d="M534.578,-112.17C519.373,-98.3568 487.984,-71.6049 457,-56 421.221,-37.9803 376.938,-25.7963 345.792,-18.6998"/>
<polygon fill="midnightblue" stroke="midnightblue" points="346.283,-15.2241 335.764,-16.4871 344.775,-22.0597 346.283,-15.2241"/>
</g>
<!-- Node22 -->
<g id="node4" class="node"><title>Node22</title>
<polygon fill="white" stroke="#bfbfbf" points="617.5,-0.5 617.5,-19.5 664.5,-19.5 664.5,-0.5 617.5,-0.5"/>
<text text-anchor="middle" x="641" y="-7.5" font-family="Helvetica,sans-Serif" font-size="10.00">QLabel</text>
</g>
<!-- Node1&#45;&gt;Node22 -->
<g id="edge3" class="edge"><title>Node1&#45;&gt;Node22</title>
<path fill="none" stroke="midnightblue" d="M554.682,-112.233C564.997,-103.534 580.803,-89.5744 593,-76 606.712,-60.7393 620.423,-41.701 629.659,-28.182"/>
<polygon fill="midnightblue" stroke="midnightblue" points="632.607,-30.07 635.283,-19.8187 626.798,-26.1638 632.607,-30.07"/>
</g>
<!-- Node23 -->
<g id="node5" class="node"><title>Node23</title>
<polygon fill="white" stroke="#bfbfbf" points="504,-56.5 504,-75.5 584,-75.5 584,-56.5 504,-56.5"/>
<text text-anchor="middle" x="544" y="-63.5" font-family="Helvetica,sans-Serif" font-size="10.00">QMainWindow</text>
</g>
<!-- Node1&#45;&gt;Node23 -->
<g id="edge4" class="edge"><title>Node1&#45;&gt;Node23</title>
<path fill="none" stroke="midnightblue" d="M544,-112.083C544,-105.006 544,-94.8611 544,-85.9865"/>
<polygon fill="midnightblue" stroke="midnightblue" points="547.5,-85.751 544,-75.7511 540.5,-85.7511 547.5,-85.751"/>
</g>
<!-- Node24 -->
<g id="node6" class="node"><title>Node24</title>
<polygon fill="white" stroke="#bfbfbf" points="640.5,-56.5 640.5,-75.5 683.5,-75.5 683.5,-56.5 640.5,-56.5"/>
<text text-anchor="middle" x="662" y="-63.5" font-family="Helvetica,sans-Serif" font-size="10.00">QMap</text>
</g>
<!-- Node1&#45;&gt;Node24 -->
<g id="edge5" class="edge"><title>Node1&#45;&gt;Node24</title>
<path fill="none" stroke="midnightblue" d="M562.697,-112.444C581.944,-103.636 612.152,-89.8116 634.2,-79.722"/>
<polygon fill="midnightblue" stroke="midnightblue" points="635.753,-82.8603 643.39,-75.5164 632.84,-76.4951 635.753,-82.8603"/>
</g>
<!-- Node25 -->
<g id="node7" class="node"><title>Node25</title>
<polygon fill="white" stroke="#bfbfbf" points="808,-56.5 808,-75.5 856,-75.5 856,-56.5 808,-56.5"/>
<text text-anchor="middle" x="832" y="-63.5" font-family="Helvetica,sans-Serif" font-size="10.00">QMenu</text>
</g>
<!-- Node1&#45;&gt;Node25 -->
<g id="edge6" class="edge"><title>Node1&#45;&gt;Node25</title>
<path fill="none" stroke="midnightblue" d="M577.037,-114.806C632.004,-104.499 741.702,-83.9308 797.575,-73.4547"/>
<polygon fill="midnightblue" stroke="midnightblue" points="798.494,-76.8434 807.678,-71.5604 797.204,-69.9633 798.494,-76.8434"/>
</g>
<!-- Node26 -->
<g id="node8" class="node"><title>Node26</title>
<polygon fill="white" stroke="#bfbfbf" points="193.5,-56.5 193.5,-75.5 240.5,-75.5 240.5,-56.5 193.5,-56.5"/>
<text text-anchor="middle" x="217" y="-63.5" font-family="Helvetica,sans-Serif" font-size="10.00">QPoint</text>
</g>
<!-- Node1&#45;&gt;Node26 -->
<g id="edge7" class="edge"><title>Node1&#45;&gt;Node26</title>
<path fill="none" stroke="midnightblue" d="M510.576,-117.259C457.401,-111.013 350.14,-97.221 250.6,-76.141"/>
<polygon fill="midnightblue" stroke="midnightblue" points="251.197,-72.6893 240.684,-74.0109 249.726,-79.5332 251.197,-72.6893"/>
</g>
<!-- Node27 -->
<g id="node9" class="node"><title>Node27</title>
<polygon fill="white" stroke="#bfbfbf" points="258.5,-56.5 258.5,-75.5 333.5,-75.5 333.5,-56.5 258.5,-56.5"/>
<text text-anchor="middle" x="296" y="-63.5" font-family="Helvetica,sans-Serif" font-size="10.00">QPushButton</text>
</g>
<!-- Node1&#45;&gt;Node27 -->
<g id="edge8" class="edge"><title>Node1&#45;&gt;Node27</title>
<path fill="none" stroke="midnightblue" d="M510.811,-113.773C467.929,-104.436 392.974,-88.1153 343.916,-77.4334"/>
<polygon fill="midnightblue" stroke="midnightblue" points="344.378,-73.9519 333.862,-75.2441 342.888,-80.7916 344.378,-73.9519"/>
</g>
<!-- Node28 -->
<g id="node10" class="node"><title>Node28</title>
<polygon fill="white" stroke="#bfbfbf" points="352,-56.5 352,-75.5 448,-75.5 448,-56.5 352,-56.5"/>
<text text-anchor="middle" x="400" y="-63.5" font-family="Helvetica,sans-Serif" font-size="10.00">QSystemTrayIcon</text>
</g>
<!-- Node1&#45;&gt;Node28 -->
<g id="edge9" class="edge"><title>Node1&#45;&gt;Node28</title>
<path fill="none" stroke="midnightblue" d="M521.183,-112.444C497.168,-103.438 459.171,-89.1891 432.131,-79.049"/>
<polygon fill="midnightblue" stroke="midnightblue" points="433.303,-75.7506 422.71,-75.5164 430.845,-82.3049 433.303,-75.7506"/>
</g>
<!-- Node29&#45;&gt;Node2 -->
<g id="edge11" class="edge"><title>Node29&#45;&gt;Node2</title>
<path fill="none" stroke="midnightblue" d="M164.779,-56.4435C193.333,-47.3196 238.733,-32.8133 270.537,-22.6509"/>
<polygon fill="midnightblue" stroke="midnightblue" points="271.886,-25.8941 280.347,-19.5164 269.756,-19.2262 271.886,-25.8941"/>
</g>
<!-- Node32&#45;&gt;Node34 -->
<g id="edge13" class="edge"><title>Node32&#45;&gt;Node34</title>
<path fill="none" stroke="midnightblue" d="M1119.31,-112.083C1121.17,-104.927 1123.84,-94.6353 1126.15,-85.6911"/>
<polygon fill="midnightblue" stroke="midnightblue" points="1129.61,-86.3094 1128.73,-75.7511 1122.83,-84.5527 1129.61,-86.3094"/>
</g>
<!-- Node37&#45;&gt;Node2 -->
<g id="edge16" class="edge"><title>Node37&#45;&gt;Node2</title>
<path fill="none" stroke="midnightblue" d="M701.856,-58.1004C698.556,-57.3228 695.207,-56.597 692,-56 566.457,-32.633 415.494,-19.1823 345.775,-13.786"/>
<polygon fill="midnightblue" stroke="midnightblue" points="345.932,-10.2879 335.695,-13.0184 345.4,-17.2677 345.932,-10.2879"/>
</g>
<!-- Node37&#45;&gt;Node22 -->
<g id="edge18" class="edge"><title>Node37&#45;&gt;Node22</title>
<path fill="none" stroke="midnightblue" d="M713.183,-56.324C699.767,-47.9002 679.176,-34.9709 663.414,-25.0741"/>
<polygon fill="midnightblue" stroke="midnightblue" points="665.113,-22.0081 654.783,-19.6545 661.391,-27.9364 665.113,-22.0081"/>
</g>
<!-- Node37&#45;&gt;Node40 -->
<g id="edge17" class="edge"><title>Node37&#45;&gt;Node40</title>
<path fill="none" stroke="midnightblue" d="M731.293,-56.083C734.852,-48.6913 740.022,-37.9533 744.424,-28.8111"/>
<polygon fill="midnightblue" stroke="midnightblue" points="747.602,-30.2795 748.787,-19.7511 741.295,-27.2427 747.602,-30.2795"/>
</g>
<!-- Node44&#45;&gt;Node34 -->
<g id="edge20" class="edge"><title>Node44&#45;&gt;Node34</title>
<path fill="none" stroke="midnightblue" d="M1200.66,-112.324C1187.84,-103.979 1168.22,-91.2122 1153.06,-81.3524"/>
<polygon fill="midnightblue" stroke="midnightblue" points="1154.59,-78.1742 1144.3,-75.6545 1150.78,-84.0417 1154.59,-78.1742"/>
</g>
<!-- Node54&#45;&gt;Node2 -->
<g id="edge26" class="edge"><title>Node54&#45;&gt;Node2</title>
<path fill="none" stroke="midnightblue" d="M82.5625,-56.5625C133.445,-46.2329 218.935,-28.8778 268.42,-18.8321"/>
<polygon fill="midnightblue" stroke="midnightblue" points="269.303,-22.2242 278.407,-16.8046 267.911,-15.3641 269.303,-22.2242"/>
</g>
<!-- Node56&#45;&gt;Node37 -->
<g id="edge29" class="edge"><title>Node56&#45;&gt;Node37</title>
<path fill="none" stroke="midnightblue" d="M686.091,-112.083C693.155,-104.298 703.588,-92.8015 712.149,-83.3665"/>
<polygon fill="midnightblue" stroke="midnightblue" points="714.931,-85.5087 719.059,-75.7511 709.747,-80.8047 714.931,-85.5087"/>
</g>
<!-- Node156&#45;&gt;Node25 -->
<g id="edge39" class="edge"><title>Node156&#45;&gt;Node25</title>
<path fill="none" stroke="midnightblue" d="M891.593,-112.324C880.891,-104.185 864.659,-91.8395 851.837,-82.0874"/>
<polygon fill="midnightblue" stroke="midnightblue" points="853.693,-79.1018 843.615,-75.8339 849.456,-84.6734 853.693,-79.1018"/>
</g>
<!-- Node156&#45;&gt;Node55 -->
<g id="edge37" class="edge"><title>Node156&#45;&gt;Node55</title>
<path fill="none" stroke="midnightblue" d="M904.982,-112.083C906.572,-104.927 908.859,-94.6353 910.846,-85.6911"/>
<polygon fill="midnightblue" stroke="midnightblue" points="914.303,-86.2722 913.055,-75.7511 907.469,-84.7537 914.303,-86.2722"/>
</g>
<!-- Node156&#45;&gt;Node151 -->
<g id="edge38" class="edge"><title>Node156&#45;&gt;Node151</title>
<path fill="none" stroke="midnightblue" d="M917.46,-112.324C931.5,-103.9 953.048,-90.9709 969.543,-81.0741"/>
<polygon fill="midnightblue" stroke="midnightblue" points="971.802,-83.8007 978.576,-75.6545 968.2,-77.7983 971.802,-83.8007"/>
</g>
<!-- Node156&#45;&gt;Node211 -->
<g id="edge40" class="edge"><title>Node156&#45;&gt;Node211</title>
<path fill="none" stroke="midnightblue" d="M927.085,-112.444C952.545,-103.399 992.894,-89.064 1021.46,-78.9158"/>
<polygon fill="midnightblue" stroke="midnightblue" points="1022.78,-82.1622 1031.03,-75.5164 1020.43,-75.5661 1022.78,-82.1622"/>
</g>
</g>
</svg>
        <g id="navigator" transform="translate(0 0)" fill="#404254">
                <rect fill="#f2f5e9" fill-opacity="0.5" stroke="#606060" stroke-width=".5" x="0" y="0" width="60" height="60"/>
                <use id="zoomplus" xlink:href="#zoomPlus" x="17" y="9" onmousedown="handleZoom(evt,'in')"/>
                <use id="zoomminus" xlink:href="#zoomMin" x="42" y="9" onmousedown="handleZoom(evt,'out')"/>
                <use id="reset" xlink:href="#resetDef" x="30" y="36" onmousedown="handleReset()"/>
                <g id="arrowUp" xlink:href="#dirArrow" transform="translate(30 24)" onmousedown="handlePan(0,-1)">
                  <use xlink:href="#rim" fill="#404040">
                        <set attributeName="fill" to="#808080" begin="arrowUp.mouseover" end="arrowUp.mouseout"/>
                  </use>
                  <path fill="none" stroke="white" stroke-width="1.5" d="M0,-3.0v7 M-2.5,-0.5L0,-3.0L2.5,-0.5"/>
                </g>
                <g id="arrowRight" xlink:href="#dirArrow" transform="rotate(90) translate(36 -43)" onmousedown="handlePan(1,0)">
                  <use xlink:href="#rim" fill="#404040">
                        <set attributeName="fill" to="#808080" begin="arrowRight.mouseover" end="arrowRight.mouseout"/>
                  </use>
                  <path fill="none" stroke="white" stroke-width="1.5" d="M0,-3.0v7 M-2.5,-0.5L0,-3.0L2.5,-0.5"/>
                </g>
                <g id="arrowDown" xlink:href="#dirArrow" transform="rotate(180) translate(-30 -48)" onmousedown="handlePan(0,1)">
                  <use xlink:href="#rim" fill="#404040">
                        <set attributeName="fill" to="#808080" begin="arrowDown.mouseover" end="arrowDown.mouseout"/>
                  </use>
                  <path fill="none" stroke="white" stroke-width="1.5" d="M0,-3.0v7 M-2.5,-0.5L0,-3.0L2.5,-0.5"/>
                </g>
                <g id="arrowLeft" xlink:href="#dirArrow" transform="rotate(270) translate(-36 17)" onmousedown="handlePan(-1,0)">
                  <use xlink:href="#rim" fill="#404040">
                        <set attributeName="fill" to="#808080" begin="arrowLeft.mouseover" end="arrowLeft.mouseout"/>
                  </use>
                  <path fill="none" stroke="white" stroke-width="1.5" d="M0,-3.0v7 M-2.5,-0.5L0,-3.0L2.5,-0.5"/>
                </g>
        </g>
        <svg viewBox="0 0 15 15" width="100%" height="30px" preserveAspectRatio="xMaxYMin meet">
         <g id="arrow_out" transform="scale(0.3 0.3)">
          <a xlink:href="bitcoingui_8cpp__incl_org.svg" target="_base">
           <rect id="button" ry="5" rx="5" y="6" x="6" height="38" width="38"
                fill="#f2f5e9" fill-opacity="0.5" stroke="#606060" stroke-width="1.0"/>
           <path id="arrow"
             d="M 11.500037,31.436501 C 11.940474,20.09759 22.043105,11.32322 32.158766,21.979434 L 37.068811,17.246167 C 37.068811,17.246167 37.088388,32 37.088388,32 L 22.160133,31.978069 C 22.160133,31.978069 26.997745,27.140456 26.997745,27.140456 C 18.528582,18.264221 13.291696,25.230495 11.500037,31.436501 z"
             style="fill:#404040;"/>
          </a>
         </g>
        </svg>
</svg>
