<?xml version="1.0" encoding="UTF-8" standalone="no"?>
<!DOCTYPE svg PUBLIC "-//W3C//DTD SVG 1.1//EN"
 "http://www.w3.org/Graphics/SVG/1.1/DTD/svg11.dtd">
<!-- Generated by graphviz version 2.36.0 (20140111.2315)
 -->
<!-- Title: src/bls/bls_ies.h Pages: 1 -->
<svg width="1547pt" height="376pt"
 viewBox="0.00 0.00 1547.00 376.00" xmlns="http://www.w3.org/2000/svg" xmlns:xlink="http://www.w3.org/1999/xlink">
<g id="graph0" class="graph" transform="scale(1 1) rotate(0) translate(4 372)">
<title>src/bls/bls_ies.h</title>
<polygon fill="white" stroke="none" points="-4,4 -4,-372 1543,-372 1543,4 -4,4"/>
<!-- Node0 -->
<g id="node1" class="node"><title>Node0</title>
<polygon fill="#bfbfbf" stroke="black" points="841,-348.5 841,-367.5 929,-367.5 929,-348.5 841,-348.5"/>
<text text-anchor="middle" x="885" y="-355.5" font-family="Helvetica,sans-Serif" font-size="10.00">src/bls/bls_ies.h</text>
</g>
<!-- Node1 -->
<g id="node2" class="node"><title>Node1</title>
<g id="a_node2"><a xlink:href="bls_8h.html" target="_top" xlink:title="bls.h">
<polygon fill="white" stroke="black" points="534,-292.5 534,-311.5 572,-311.5 572,-292.5 534,-292.5"/>
<text text-anchor="middle" x="553" y="-299.5" font-family="Helvetica,sans-Serif" font-size="10.00">bls.h</text>
</a>
</g>
</g>
<!-- Node0&#45;&gt;Node1 -->
<g id="edge1" class="edge"><title>Node0&#45;&gt;Node1</title>
<path fill="none" stroke="midnightblue" d="M840.913,-349.829C772.001,-338.621 640.619,-317.251 582.226,-307.754"/>
<polygon fill="midnightblue" stroke="midnightblue" points="582.636,-304.274 572.204,-306.124 581.512,-311.184 582.636,-304.274"/>
</g>
<!-- Node33 -->
<g id="node34" class="node"><title>Node33</title>
<g id="a_node34"><a xlink:href="streams_8h.html" target="_top" xlink:title="streams.h">
<polygon fill="white" stroke="black" points="1187,-292.5 1187,-311.5 1247,-311.5 1247,-292.5 1187,-292.5"/>
<text text-anchor="middle" x="1217" y="-299.5" font-family="Helvetica,sans-Serif" font-size="10.00">streams.h</text>
</a>
</g>
</g>
<!-- Node0&#45;&gt;Node33 -->
<g id="edge48" class="edge"><title>Node0&#45;&gt;Node33</title>
<path fill="none" stroke="midnightblue" d="M929.087,-349.829C993.916,-339.285 1114.03,-319.747 1176.66,-309.562"/>
<polygon fill="midnightblue" stroke="midnightblue" points="1177.25,-313.011 1186.56,-307.951 1176.13,-306.102 1177.25,-313.011"/>
</g>
<!-- Node2 -->
<g id="node3" class="node"><title>Node2</title>
<polygon fill="white" stroke="#bfbfbf" points="0,-230.5 0,-249.5 46,-249.5 46,-230.5 0,-230.5"/>
<text text-anchor="middle" x="23" y="-237.5" font-family="Helvetica,sans-Serif" font-size="10.00">hash.h</text>
</g>
<!-- Node1&#45;&gt;Node2 -->
<g id="edge2" class="edge"><title>Node1&#45;&gt;Node2</title>
<path fill="none" stroke="midnightblue" d="M533.903,-300.161C454.21,-296.525 148.016,-281.166 55,-256 52.6513,-255.365 50.2624,-254.566 47.902,-253.67"/>
<polygon fill="midnightblue" stroke="midnightblue" points="49.1037,-250.376 38.5367,-249.608 46.3184,-256.798 49.1037,-250.376"/>
</g>
<!-- Node3 -->
<g id="node4" class="node"><title>Node3</title>
<g id="a_node4"><a xlink:href="serialize_8h.html" target="_top" xlink:title="serialize.h">
<polygon fill="white" stroke="black" points="1089.5,-230.5 1089.5,-249.5 1150.5,-249.5 1150.5,-230.5 1089.5,-230.5"/>
<text text-anchor="middle" x="1120" y="-237.5" font-family="Helvetica,sans-Serif" font-size="10.00">serialize.h</text>
</a>
</g>
</g>
<!-- Node1&#45;&gt;Node3 -->
<g id="edge3" class="edge"><title>Node1&#45;&gt;Node3</title>
<path fill="none" stroke="midnightblue" d="M572.186,-299.915C637.928,-296.05 860.097,-281.797 1042,-256 1054.14,-254.278 1067.27,-251.942 1079.22,-249.626"/>
<polygon fill="midnightblue" stroke="midnightblue" points="1080.24,-252.991 1089.37,-247.612 1078.88,-246.125 1080.24,-252.991"/>
</g>
<!-- Node22 -->
<g id="node23" class="node"><title>Node22</title>
<g id="a_node23"><a xlink:href="uint256_8h.html" target="_top" xlink:title="uint256.h">
<polygon fill="white" stroke="black" points="64,-230.5 64,-249.5 120,-249.5 120,-230.5 64,-230.5"/>
<text text-anchor="middle" x="92" y="-237.5" font-family="Helvetica,sans-Serif" font-size="10.00">uint256.h</text>
</a>
</g>
</g>
<!-- Node1&#45;&gt;Node22 -->
<g id="edge27" class="edge"><title>Node1&#45;&gt;Node22</title>
<path fill="none" stroke="midnightblue" d="M533.651,-300.855C473.005,-299.996 281.588,-294.223 129,-256 125.939,-255.233 122.796,-254.265 119.697,-253.19"/>
<polygon fill="midnightblue" stroke="midnightblue" points="120.695,-249.825 110.105,-249.516 118.191,-256.361 120.695,-249.825"/>
</g>
<!-- Node26 -->
<g id="node27" class="node"><title>Node26</title>
<g id="a_node27"><a xlink:href="utilstrencodings_8h.html" target="_top" xlink:title="utilstrencodings.h">
<polygon fill="white" stroke="black" points="751.5,-230.5 751.5,-249.5 844.5,-249.5 844.5,-230.5 751.5,-230.5"/>
<text text-anchor="middle" x="798" y="-237.5" font-family="Helvetica,sans-Serif" font-size="10.00">utilstrencodings.h</text>
</a>
</g>
</g>
<!-- Node1&#45;&gt;Node26 -->
<g id="edge38" class="edge"><title>Node1&#45;&gt;Node26</title>
<path fill="none" stroke="midnightblue" d="M572.09,-296.641C606.244,-288.8 680.033,-271.673 742,-256 746.751,-254.798 751.72,-253.511 756.653,-252.215"/>
<polygon fill="midnightblue" stroke="midnightblue" points="757.877,-255.511 766.645,-249.564 756.082,-248.745 757.877,-255.511"/>
</g>
<!-- Node27 -->
<g id="node28" class="node"><title>Node27</title>
<polygon fill="white" stroke="#bfbfbf" points="138,-230.5 138,-249.5 220,-249.5 220,-230.5 138,-230.5"/>
<text text-anchor="middle" x="179" y="-237.5" font-family="Helvetica,sans-Serif" font-size="10.00">chiabls/bls.hpp</text>
</g>
<!-- Node1&#45;&gt;Node27 -->
<g id="edge42" class="edge"><title>Node1&#45;&gt;Node27</title>
<path fill="none" stroke="midnightblue" d="M533.83,-299.374C483.446,-294.876 343.301,-280.928 229,-256 224.268,-254.968 219.333,-253.713 214.486,-252.374"/>
<polygon fill="midnightblue" stroke="midnightblue" points="215.333,-248.975 204.753,-249.549 213.382,-255.698 215.333,-248.975"/>
</g>
<!-- Node28 -->
<g id="node29" class="node"><title>Node28</title>
<polygon fill="white" stroke="#bfbfbf" points="238,-230.5 238,-249.5 352,-249.5 352,-230.5 238,-230.5"/>
<text text-anchor="middle" x="295" y="-237.5" font-family="Helvetica,sans-Serif" font-size="10.00">chiabls/privatekey.hpp</text>
</g>
<!-- Node1&#45;&gt;Node28 -->
<g id="edge43" class="edge"><title>Node1&#45;&gt;Node28</title>
<path fill="none" stroke="midnightblue" d="M533.608,-296.49C493.146,-287.081 398.748,-265.127 341.557,-251.827"/>
<polygon fill="midnightblue" stroke="midnightblue" points="342.211,-248.386 331.678,-249.53 340.626,-255.204 342.211,-248.386"/>
</g>
<!-- Node29 -->
<g id="node30" class="node"><title>Node29</title>
<polygon fill="white" stroke="#bfbfbf" points="370,-230.5 370,-249.5 480,-249.5 480,-230.5 370,-230.5"/>
<text text-anchor="middle" x="425" y="-237.5" font-family="Helvetica,sans-Serif" font-size="10.00">chiabls/publickey.hpp</text>
</g>
<!-- Node1&#45;&gt;Node29 -->
<g id="edge44" class="edge"><title>Node1&#45;&gt;Node29</title>
<path fill="none" stroke="midnightblue" d="M534.661,-292.403C513.179,-282.334 477.378,-265.552 452.552,-253.915"/>
<polygon fill="midnightblue" stroke="midnightblue" points="453.845,-250.656 443.305,-249.581 450.874,-256.994 453.845,-250.656"/>
</g>
<!-- Node30 -->
<g id="node31" class="node"><title>Node30</title>
<polygon fill="white" stroke="#bfbfbf" points="498.5,-230.5 498.5,-249.5 607.5,-249.5 607.5,-230.5 498.5,-230.5"/>
<text text-anchor="middle" x="553" y="-237.5" font-family="Helvetica,sans-Serif" font-size="10.00">chiabls/signature.hpp</text>
</g>
<!-- Node1&#45;&gt;Node30 -->
<g id="edge45" class="edge"><title>Node1&#45;&gt;Node30</title>
<path fill="none" stroke="midnightblue" d="M553,-292.403C553,-283.938 553,-270.728 553,-259.82"/>
<polygon fill="midnightblue" stroke="midnightblue" points="556.5,-259.581 553,-249.581 549.5,-259.581 556.5,-259.581"/>
</g>
<!-- Node31 -->
<g id="node32" class="node"><title>Node31</title>
<polygon fill="white" stroke="#bfbfbf" points="626,-230.5 626,-249.5 664,-249.5 664,-230.5 626,-230.5"/>
<text text-anchor="middle" x="645" y="-237.5" font-family="Helvetica,sans-Serif" font-size="10.00">array</text>
</g>
<!-- Node1&#45;&gt;Node31 -->
<g id="edge46" class="edge"><title>Node1&#45;&gt;Node31</title>
<path fill="none" stroke="midnightblue" d="M566.181,-292.403C581.074,-282.691 605.544,-266.732 623.273,-255.17"/>
<polygon fill="midnightblue" stroke="midnightblue" points="625.379,-257.975 631.843,-249.581 621.555,-252.112 625.379,-257.975"/>
</g>
<!-- Node32 -->
<g id="node33" class="node"><title>Node32</title>
<polygon fill="white" stroke="#bfbfbf" points="682.5,-230.5 682.5,-249.5 733.5,-249.5 733.5,-230.5 682.5,-230.5"/>
<text text-anchor="middle" x="708" y="-237.5" font-family="Helvetica,sans-Serif" font-size="10.00">unistd.h</text>
</g>
<!-- Node1&#45;&gt;Node32 -->
<g id="edge47" class="edge"><title>Node1&#45;&gt;Node32</title>
<path fill="none" stroke="midnightblue" d="M572.226,-294.1C596.012,-285.493 637.693,-270.177 673,-256 674.886,-255.243 676.825,-254.451 678.775,-253.643"/>
<polygon fill="midnightblue" stroke="midnightblue" points="680.588,-256.678 688.444,-249.569 677.87,-250.227 680.588,-256.678"/>
</g>
<!-- Node4 -->
<g id="node5" class="node"><title>Node4</title>
<g id="a_node5"><a xlink:href="endian_8h.html" target="_top" xlink:title="compat/endian.h">
<polygon fill="white" stroke="black" points="323.5,-112.5 323.5,-131.5 412.5,-131.5 412.5,-112.5 323.5,-112.5"/>
<text text-anchor="middle" x="368" y="-119.5" font-family="Helvetica,sans-Serif" font-size="10.00">compat/endian.h</text>
</a>
</g>
</g>
<!-- Node3&#45;&gt;Node4 -->
<g id="edge4" class="edge"><title>Node3&#45;&gt;Node4</title>
<path fill="none" stroke="midnightblue" d="M1089.31,-232.765C1074.96,-229.937 1057.64,-226.642 1042,-224 932.612,-205.52 904.038,-208.444 795,-188 756.004,-180.688 747.043,-175.055 708,-168 607.96,-149.922 490.128,-135.942 422.734,-128.634"/>
<polygon fill="midnightblue" stroke="midnightblue" points="423.08,-125.152 412.763,-127.562 422.331,-132.111 423.08,-125.152"/>
</g>
<!-- Node5 -->
<g id="node6" class="node"><title>Node5</title>
<polygon fill="white" stroke="#bfbfbf" points="432.5,-0.5 432.5,-19.5 481.5,-19.5 481.5,-0.5 432.5,-0.5"/>
<text text-anchor="middle" x="457" y="-7.5" font-family="Helvetica,sans-Serif" font-size="10.00">stdint.h</text>
</g>
<!-- Node3&#45;&gt;Node5 -->
<g id="edge16" class="edge"><title>Node3&#45;&gt;Node5</title>
<path fill="none" stroke="midnightblue" d="M1120.13,-230.369C1119.97,-207.389 1116.19,-144.269 1081,-112 993.742,-31.9815 610.306,-15.1004 491.932,-11.7706"/>
<polygon fill="midnightblue" stroke="midnightblue" points="491.727,-8.26403 481.637,-11.4969 491.541,-15.2616 491.727,-8.26403"/>
</g>
<!-- Node7 -->
<g id="node8" class="node"><title>Node7</title>
<polygon fill="white" stroke="#bfbfbf" points="1151,-168.5 1151,-187.5 1207,-187.5 1207,-168.5 1151,-168.5"/>
<text text-anchor="middle" x="1179" y="-175.5" font-family="Helvetica,sans-Serif" font-size="10.00">algorithm</text>
</g>
<!-- Node3&#45;&gt;Node7 -->
<g id="edge8" class="edge"><title>Node3&#45;&gt;Node7</title>
<path fill="none" stroke="midnightblue" d="M1128.45,-230.403C1137.57,-221.136 1152.27,-206.183 1163.48,-194.788"/>
<polygon fill="midnightblue" stroke="midnightblue" points="1166.05,-197.165 1170.56,-187.581 1161.06,-192.257 1166.05,-197.165"/>
</g>
<!-- Node8 -->
<g id="node9" class="node"><title>Node8</title>
<polygon fill="white" stroke="#bfbfbf" points="850,-112.5 850,-131.5 902,-131.5 902,-112.5 850,-112.5"/>
<text text-anchor="middle" x="876" y="-119.5" font-family="Helvetica,sans-Serif" font-size="10.00">assert.h</text>
</g>
<!-- Node3&#45;&gt;Node8 -->
<g id="edge9" class="edge"><title>Node3&#45;&gt;Node8</title>
<path fill="none" stroke="midnightblue" d="M1095.86,-230.413C1089.15,-228.175 1081.83,-225.869 1075,-224 1001.76,-203.965 967.85,-234.721 908,-188 893.304,-176.528 884.899,-156.551 880.426,-141.763"/>
<polygon fill="midnightblue" stroke="midnightblue" points="883.697,-140.449 877.733,-131.693 876.935,-142.258 883.697,-140.449"/>
</g>
<!-- Node9 -->
<g id="node10" class="node"><title>Node9</title>
<polygon fill="white" stroke="#bfbfbf" points="1263.5,-168.5 1263.5,-187.5 1292.5,-187.5 1292.5,-168.5 1263.5,-168.5"/>
<text text-anchor="middle" x="1278" y="-175.5" font-family="Helvetica,sans-Serif" font-size="10.00">ios</text>
</g>
<!-- Node3&#45;&gt;Node9 -->
<g id="edge10" class="edge"><title>Node3&#45;&gt;Node9</title>
<path fill="none" stroke="midnightblue" d="M1142.64,-230.403C1172.23,-219.166 1223.84,-199.568 1254.06,-188.092"/>
<polygon fill="midnightblue" stroke="midnightblue" points="1255.32,-191.357 1263.43,-184.535 1252.83,-184.813 1255.32,-191.357"/>
</g>
<!-- Node10 -->
<g id="node11" class="node"><title>Node10</title>
<polygon fill="white" stroke="#bfbfbf" points="1311,-168.5 1311,-187.5 1351,-187.5 1351,-168.5 1311,-168.5"/>
<text text-anchor="middle" x="1331" y="-175.5" font-family="Helvetica,sans-Serif" font-size="10.00">limits</text>
</g>
<!-- Node3&#45;&gt;Node10 -->
<g id="edge11" class="edge"><title>Node3&#45;&gt;Node10</title>
<path fill="none" stroke="midnightblue" d="M1150.79,-230.494C1186.84,-220.495 1248.34,-203.318 1301,-188 1301.1,-187.972 1301.2,-187.943 1301.29,-187.914"/>
<polygon fill="midnightblue" stroke="midnightblue" points="1302.08,-191.332 1310.68,-185.146 1300.1,-184.618 1302.08,-191.332"/>
</g>
<!-- Node11 -->
<g id="node12" class="node"><title>Node11</title>
<polygon fill="white" stroke="#bfbfbf" points="831.5,-168.5 831.5,-187.5 860.5,-187.5 860.5,-168.5 831.5,-168.5"/>
<text text-anchor="middle" x="846" y="-175.5" font-family="Helvetica,sans-Serif" font-size="10.00">list</text>
</g>
<!-- Node3&#45;&gt;Node11 -->
<g id="edge12" class="edge"><title>Node3&#45;&gt;Node11</title>
<path fill="none" stroke="midnightblue" d="M1096.37,-230.415C1089.53,-228.125 1082.02,-225.792 1075,-224 987.489,-201.662 962.739,-209.425 875,-188 873.528,-187.64 872.02,-187.248 870.504,-186.835"/>
<polygon fill="midnightblue" stroke="midnightblue" points="871.237,-183.402 860.655,-183.932 869.258,-190.116 871.237,-183.402"/>
</g>
<!-- Node12 -->
<g id="node13" class="node"><title>Node12</title>
<polygon fill="white" stroke="#bfbfbf" points="1369.5,-168.5 1369.5,-187.5 1404.5,-187.5 1404.5,-168.5 1369.5,-168.5"/>
<text text-anchor="middle" x="1387" y="-175.5" font-family="Helvetica,sans-Serif" font-size="10.00">map</text>
</g>
<!-- Node3&#45;&gt;Node12 -->
<g id="edge13" class="edge"><title>Node3&#45;&gt;Node12</title>
<path fill="none" stroke="midnightblue" d="M1150.57,-233.643C1194.64,-225.675 1278.7,-209.559 1359.53,-187.866"/>
<polygon fill="midnightblue" stroke="midnightblue" points="1360.64,-191.193 1369.37,-185.193 1358.8,-184.438 1360.64,-191.193"/>
</g>
<!-- Node13 -->
<g id="node14" class="node"><title>Node13</title>
<polygon fill="white" stroke="#bfbfbf" points="647,-168.5 647,-187.5 699,-187.5 699,-168.5 647,-168.5"/>
<text text-anchor="middle" x="673" y="-175.5" font-family="Helvetica,sans-Serif" font-size="10.00">memory</text>
</g>
<!-- Node3&#45;&gt;Node13 -->
<g id="edge14" class="edge"><title>Node3&#45;&gt;Node13</title>
<path fill="none" stroke="midnightblue" d="M1089.34,-232.599C1075,-229.735 1057.67,-226.459 1042,-224 1009.6,-218.915 796.005,-193.534 709.391,-183.294"/>
<polygon fill="midnightblue" stroke="midnightblue" points="709.58,-179.792 699.238,-182.094 708.758,-186.743 709.58,-179.792"/>
</g>
<!-- Node14 -->
<g id="node15" class="node"><title>Node14</title>
<polygon fill="white" stroke="#bfbfbf" points="1423,-168.5 1423,-187.5 1453,-187.5 1453,-168.5 1423,-168.5"/>
<text text-anchor="middle" x="1438" y="-175.5" font-family="Helvetica,sans-Serif" font-size="10.00">set</text>
</g>
<!-- Node3&#45;&gt;Node14 -->
<g id="edge15" class="edge"><title>Node3&#45;&gt;Node14</title>
<path fill="none" stroke="midnightblue" d="M1150.75,-235.431C1204.53,-228.794 1318.92,-212.922 1413,-188 1413.1,-187.973 1413.2,-187.947 1413.3,-187.92"/>
<polygon fill="midnightblue" stroke="midnightblue" points="1414.3,-191.275 1422.8,-184.947 1412.21,-184.595 1414.3,-191.275"/>
</g>
<!-- Node15 -->
<g id="node16" class="node"><title>Node15</title>
<polygon fill="white" stroke="#bfbfbf" points="525.5,-168.5 525.5,-187.5 566.5,-187.5 566.5,-168.5 525.5,-168.5"/>
<text text-anchor="middle" x="546" y="-175.5" font-family="Helvetica,sans-Serif" font-size="10.00">string</text>
</g>
<!-- Node3&#45;&gt;Node15 -->
<g id="edge17" class="edge"><title>Node3&#45;&gt;Node15</title>
<path fill="none" stroke="midnightblue" d="M1089.38,-232.283C1075.05,-229.353 1057.72,-226.111 1042,-224 839.338,-196.774 781.995,-225.149 576.417,-187.624"/>
<polygon fill="midnightblue" stroke="midnightblue" points="576.985,-184.169 566.514,-185.786 575.708,-191.052 576.985,-184.169"/>
</g>
<!-- Node16 -->
<g id="node17" class="node"><title>Node16</title>
<polygon fill="white" stroke="#bfbfbf" points="740.5,-112.5 740.5,-131.5 789.5,-131.5 789.5,-112.5 740.5,-112.5"/>
<text text-anchor="middle" x="765" y="-119.5" font-family="Helvetica,sans-Serif" font-size="10.00">string.h</text>
</g>
<!-- Node3&#45;&gt;Node16 -->
<g id="edge18" class="edge"><title>Node3&#45;&gt;Node16</title>
<path fill="none" stroke="midnightblue" d="M1096.87,-230.404C1089.92,-228.06 1082.21,-225.701 1075,-224 964.454,-197.936 921.884,-242.064 822,-188 801.669,-176.995 785.168,-155.702 775.249,-140.485"/>
<polygon fill="midnightblue" stroke="midnightblue" points="778.194,-138.593 769.948,-131.941 772.246,-142.284 778.194,-138.593"/>
</g>
<!-- Node17 -->
<g id="node18" class="node"><title>Node17</title>
<polygon fill="white" stroke="#bfbfbf" points="1471,-168.5 1471,-187.5 1511,-187.5 1511,-168.5 1471,-168.5"/>
<text text-anchor="middle" x="1491" y="-175.5" font-family="Helvetica,sans-Serif" font-size="10.00">utility</text>
</g>
<!-- Node3&#45;&gt;Node17 -->
<g id="edge19" class="edge"><title>Node3&#45;&gt;Node17</title>
<path fill="none" stroke="midnightblue" d="M1150.7,-234.981C1222.91,-225.438 1401.85,-201.224 1461,-188 1461.1,-187.978 1461.2,-187.955 1461.3,-187.933"/>
<polygon fill="midnightblue" stroke="midnightblue" points="1461.96,-191.377 1470.77,-185.497 1460.21,-184.598 1461.96,-191.377"/>
</g>
<!-- Node18 -->
<g id="node19" class="node"><title>Node18</title>
<polygon fill="white" stroke="#bfbfbf" points="585,-168.5 585,-187.5 629,-187.5 629,-168.5 585,-168.5"/>
<text text-anchor="middle" x="607" y="-175.5" font-family="Helvetica,sans-Serif" font-size="10.00">vector</text>
</g>
<!-- Node3&#45;&gt;Node18 -->
<g id="edge20" class="edge"><title>Node3&#45;&gt;Node18</title>
<path fill="none" stroke="midnightblue" d="M1089.37,-232.367C1075.04,-229.455 1057.7,-226.204 1042,-224 866.708,-199.399 816.956,-220.494 639.171,-187.868"/>
<polygon fill="midnightblue" stroke="midnightblue" points="639.699,-184.406 629.226,-186.012 638.414,-191.287 639.699,-184.406"/>
</g>
<!-- Node19 -->
<g id="node20" class="node"><title>Node19</title>
<g id="a_node20"><a xlink:href="prevector_8h.html" target="_top" xlink:title="prevector.h">
<polygon fill="white" stroke="black" points="917.5,-168.5 917.5,-187.5 982.5,-187.5 982.5,-168.5 917.5,-168.5"/>
<text text-anchor="middle" x="950" y="-175.5" font-family="Helvetica,sans-Serif" font-size="10.00">prevector.h</text>
</a>
</g>
</g>
<!-- Node3&#45;&gt;Node19 -->
<g id="edge21" class="edge"><title>Node3&#45;&gt;Node19</title>
<path fill="none" stroke="midnightblue" d="M1095.64,-230.403C1066.36,-220.067 1017.03,-202.656 983.998,-190.999"/>
<polygon fill="midnightblue" stroke="midnightblue" points="984.906,-187.608 974.312,-187.581 982.577,-194.209 984.906,-187.608"/>
</g>
<!-- Node4&#45;&gt;Node5 -->
<g id="edge5" class="edge"><title>Node4&#45;&gt;Node5</title>
<path fill="none" stroke="midnightblue" d="M363.156,-112.226C356.55,-98.9536 346.75,-73.4711 358,-56 372.093,-34.113 399.725,-22.7486 422.222,-16.9211"/>
<polygon fill="midnightblue" stroke="midnightblue" points="423.184,-20.2908 432.131,-14.6153 421.598,-13.473 423.184,-20.2908"/>
</g>
<!-- Node6 -->
<g id="node7" class="node"><title>Node6</title>
<g id="a_node7"><a xlink:href="byteswap_8h.html" target="_top" xlink:title="compat/byteswap.h">
<polygon fill="white" stroke="black" points="367,-56.5 367,-75.5 469,-75.5 469,-56.5 367,-56.5"/>
<text text-anchor="middle" x="418" y="-63.5" font-family="Helvetica,sans-Serif" font-size="10.00">compat/byteswap.h</text>
</a>
</g>
</g>
<!-- Node4&#45;&gt;Node6 -->
<g id="edge6" class="edge"><title>Node4&#45;&gt;Node6</title>
<path fill="none" stroke="midnightblue" d="M376.256,-112.083C383.465,-104.298 394.11,-92.8015 402.846,-83.3665"/>
<polygon fill="midnightblue" stroke="midnightblue" points="405.671,-85.4666 409.897,-75.7511 400.535,-80.7108 405.671,-85.4666"/>
</g>
<!-- Node6&#45;&gt;Node5 -->
<g id="edge7" class="edge"><title>Node6&#45;&gt;Node5</title>
<path fill="none" stroke="midnightblue" d="M424.44,-56.083C429.949,-48.4554 438.031,-37.2645 444.765,-27.9408"/>
<polygon fill="midnightblue" stroke="midnightblue" points="447.662,-29.9071 450.68,-19.7511 441.987,-25.8087 447.662,-29.9071"/>
</g>
<!-- Node19&#45;&gt;Node5 -->
<g id="edge24" class="edge"><title>Node19&#45;&gt;Node5</title>
<path fill="none" stroke="midnightblue" d="M958.788,-168.125C970.992,-154.722 990.068,-129.07 976,-112 914.054,-36.8375 598.171,-16.8839 491.922,-12.2569"/>
<polygon fill="midnightblue" stroke="midnightblue" points="491.872,-8.75192 481.735,-11.8328 491.581,-15.7459 491.872,-8.75192"/>
</g>
<!-- Node19&#45;&gt;Node8 -->
<g id="edge22" class="edge"><title>Node19&#45;&gt;Node8</title>
<path fill="none" stroke="midnightblue" d="M938.111,-168.324C926.85,-160.107 909.713,-147.602 896.291,-137.807"/>
<polygon fill="midnightblue" stroke="midnightblue" points="898.247,-134.901 888.106,-131.834 894.12,-140.556 898.247,-134.901"/>
</g>
<!-- Node19&#45;&gt;Node16 -->
<g id="edge25" class="edge"><title>Node19&#45;&gt;Node16</title>
<path fill="none" stroke="midnightblue" d="M920.686,-168.444C887.767,-158.835 834.395,-143.256 799.494,-133.069"/>
<polygon fill="midnightblue" stroke="midnightblue" points="800.316,-129.663 789.736,-130.22 798.355,-136.382 800.316,-129.663"/>
</g>
<!-- Node20 -->
<g id="node21" class="node"><title>Node20</title>
<polygon fill="white" stroke="#bfbfbf" points="1024,-112.5 1024,-131.5 1072,-131.5 1072,-112.5 1024,-112.5"/>
<text text-anchor="middle" x="1048" y="-119.5" font-family="Helvetica,sans-Serif" font-size="10.00">stdlib.h</text>
</g>
<!-- Node19&#45;&gt;Node20 -->
<g id="edge23" class="edge"><title>Node19&#45;&gt;Node20</title>
<path fill="none" stroke="midnightblue" d="M965.745,-168.324C981.319,-159.743 1005.38,-146.486 1023.46,-136.522"/>
<polygon fill="midnightblue" stroke="midnightblue" points="1025.22,-139.546 1032.29,-131.655 1021.85,-133.415 1025.22,-139.546"/>
</g>
<!-- Node21 -->
<g id="node22" class="node"><title>Node21</title>
<polygon fill="white" stroke="#bfbfbf" points="920.5,-112.5 920.5,-131.5 967.5,-131.5 967.5,-112.5 920.5,-112.5"/>
<text text-anchor="middle" x="944" y="-119.5" font-family="Helvetica,sans-Serif" font-size="10.00">iterator</text>
</g>
<!-- Node19&#45;&gt;Node21 -->
<g id="edge26" class="edge"><title>Node19&#45;&gt;Node21</title>
<path fill="none" stroke="midnightblue" d="M949.009,-168.083C948.214,-160.927 947.071,-150.635 946.077,-141.691"/>
<polygon fill="midnightblue" stroke="midnightblue" points="949.555,-141.303 944.972,-131.751 942.598,-142.076 949.555,-141.303"/>
</g>
<!-- Node22&#45;&gt;Node5 -->
<g id="edge31" class="edge"><title>Node22&#45;&gt;Node5</title>
<path fill="none" stroke="midnightblue" d="M99.3185,-230.149C111.114,-216.147 135.403,-188.388 159,-168 224.683,-111.252 241.336,-94.7665 319,-56 352.636,-39.2106 393.932,-26.7077 422.539,-19.1968"/>
<polygon fill="midnightblue" stroke="midnightblue" points="423.646,-22.5263 432.466,-16.6568 421.911,-15.7448 423.646,-22.5263"/>
</g>
<!-- Node22&#45;&gt;Node8 -->
<g id="edge28" class="edge"><title>Node22&#45;&gt;Node8</title>
<path fill="none" stroke="midnightblue" d="M110.504,-230.41C116.318,-228.008 122.831,-225.616 129,-224 250.797,-192.083 285.638,-207.681 410,-188 457.353,-180.506 468.636,-175.421 516,-168 577.883,-158.304 760.914,-136.511 839.49,-127.271"/>
<polygon fill="midnightblue" stroke="midnightblue" points="840.337,-130.696 849.861,-126.053 839.521,-123.743 840.337,-130.696"/>
</g>
<!-- Node22&#45;&gt;Node15 -->
<g id="edge32" class="edge"><title>Node22&#45;&gt;Node15</title>
<path fill="none" stroke="midnightblue" d="M110.106,-230.49C116.014,-228.033 122.681,-225.588 129,-224 273.8,-187.602 314.561,-204.048 463,-188 480.211,-186.139 499.429,-184.056 515.035,-182.362"/>
<polygon fill="midnightblue" stroke="midnightblue" points="515.629,-185.819 525.193,-181.26 514.874,-178.859 515.629,-185.819"/>
</g>
<!-- Node22&#45;&gt;Node18 -->
<g id="edge33" class="edge"><title>Node22&#45;&gt;Node18</title>
<path fill="none" stroke="midnightblue" d="M110.082,-230.388C115.988,-227.925 122.66,-225.503 129,-224 319.288,-178.873 377.331,-221.617 574.636,-187.64"/>
<polygon fill="midnightblue" stroke="midnightblue" points="575.51,-191.039 584.749,-185.852 574.292,-184.146 575.51,-191.039"/>
</g>
<!-- Node23 -->
<g id="node24" class="node"><title>Node23</title>
<polygon fill="white" stroke="#bfbfbf" points="278,-168.5 278,-187.5 324,-187.5 324,-168.5 278,-168.5"/>
<text text-anchor="middle" x="301" y="-175.5" font-family="Helvetica,sans-Serif" font-size="10.00">cstring</text>
</g>
<!-- Node22&#45;&gt;Node23 -->
<g id="edge29" class="edge"><title>Node22&#45;&gt;Node23</title>
<path fill="none" stroke="midnightblue" d="M111.789,-230.41C117.305,-228.171 123.339,-225.866 129,-224 187.037,-204.868 205.202,-204.669 267.922,-188.218"/>
<polygon fill="midnightblue" stroke="midnightblue" points="269.181,-191.505 277.945,-185.551 267.381,-184.74 269.181,-191.505"/>
</g>
<!-- Node24 -->
<g id="node25" class="node"><title>Node24</title>
<polygon fill="white" stroke="#bfbfbf" points="342.5,-168.5 342.5,-187.5 401.5,-187.5 401.5,-168.5 342.5,-168.5"/>
<text text-anchor="middle" x="372" y="-175.5" font-family="Helvetica,sans-Serif" font-size="10.00">stdexcept</text>
</g>
<!-- Node22&#45;&gt;Node24 -->
<g id="edge30" class="edge"><title>Node22&#45;&gt;Node24</title>
<path fill="none" stroke="midnightblue" d="M110.933,-230.432C116.652,-228.089 123.005,-225.723 129,-224 214.46,-199.434 240.978,-205.863 332.282,-188.027"/>
<polygon fill="midnightblue" stroke="midnightblue" points="333.104,-191.432 342.224,-186.04 331.732,-184.568 333.104,-191.432"/>
</g>
<!-- Node25 -->
<g id="node26" class="node"><title>Node25</title>
<g id="a_node26"><a xlink:href="common_8h.html" target="_top" xlink:title="crypto/common.h">
<polygon fill="white" stroke="black" points="168,-168.5 168,-187.5 260,-187.5 260,-168.5 168,-168.5"/>
<text text-anchor="middle" x="214" y="-175.5" font-family="Helvetica,sans-Serif" font-size="10.00">crypto/common.h</text>
</a>
</g>
</g>
<!-- Node22&#45;&gt;Node25 -->
<g id="edge34" class="edge"><title>Node22&#45;&gt;Node25</title>
<path fill="none" stroke="midnightblue" d="M109.48,-230.403C129.863,-220.379 163.775,-203.701 187.425,-192.07"/>
<polygon fill="midnightblue" stroke="midnightblue" points="189.124,-195.135 196.553,-187.581 186.035,-188.853 189.124,-195.135"/>
</g>
<!-- Node25&#45;&gt;Node4 -->
<g id="edge37" class="edge"><title>Node25&#45;&gt;Node4</title>
<path fill="none" stroke="midnightblue" d="M238.402,-168.444C264.197,-159.399 305.077,-145.064 334.018,-134.916"/>
<polygon fill="midnightblue" stroke="midnightblue" points="335.434,-138.128 343.712,-131.516 333.118,-131.523 335.434,-138.128"/>
</g>
<!-- Node25&#45;&gt;Node5 -->
<g id="edge35" class="edge"><title>Node25&#45;&gt;Node5</title>
<path fill="none" stroke="midnightblue" d="M221.726,-168.291C241.212,-146.753 294.695,-90.2568 349,-56 372.092,-41.4329 400.709,-29.7571 422.682,-21.9524"/>
<polygon fill="midnightblue" stroke="midnightblue" points="423.957,-25.2149 432.267,-18.6423 421.672,-18.5984 423.957,-25.2149"/>
</g>
<!-- Node25&#45;&gt;Node16 -->
<g id="edge36" class="edge"><title>Node25&#45;&gt;Node16</title>
<path fill="none" stroke="midnightblue" d="M260.179,-169.197C263.16,-168.769 266.12,-168.366 269,-168 441.594,-146.078 649.297,-130.817 730.29,-125.289"/>
<polygon fill="midnightblue" stroke="midnightblue" points="730.677,-128.77 740.418,-124.603 730.204,-121.786 730.677,-128.77"/>
</g>
<!-- Node26&#45;&gt;Node5 -->
<g id="edge39" class="edge"><title>Node26&#45;&gt;Node5</title>
<path fill="none" stroke="midnightblue" d="M768.495,-230.483C759.987,-228.194 750.663,-225.845 742,-224 642.52,-202.813 592.417,-255.123 516,-188 470.039,-147.629 498.134,-113.407 477,-56 473.677,-46.9742 469.412,-37.1909 465.675,-29.0589"/>
<polygon fill="midnightblue" stroke="midnightblue" points="468.756,-27.3843 461.334,-19.8228 462.42,-30.3618 468.756,-27.3843"/>
</g>
<!-- Node26&#45;&gt;Node15 -->
<g id="edge40" class="edge"><title>Node26&#45;&gt;Node15</title>
<path fill="none" stroke="midnightblue" d="M767.259,-230.48C759.071,-228.289 750.217,-225.99 742,-224 671.638,-206.957 650.791,-206.84 576.439,-187.94"/>
<polygon fill="midnightblue" stroke="midnightblue" points="577.154,-184.51 566.598,-185.409 575.411,-191.29 577.154,-184.51"/>
</g>
<!-- Node26&#45;&gt;Node18 -->
<g id="edge41" class="edge"><title>Node26&#45;&gt;Node18</title>
<path fill="none" stroke="midnightblue" d="M770.634,-230.403C735.843,-219.474 675.877,-200.637 639.004,-189.054"/>
<polygon fill="midnightblue" stroke="midnightblue" points="639.845,-185.649 629.256,-185.991 637.747,-192.328 639.845,-185.649"/>
</g>
<!-- Node33&#45;&gt;Node3 -->
<g id="edge54" class="edge"><title>Node33&#45;&gt;Node3</title>
<path fill="none" stroke="midnightblue" d="M1203.1,-292.403C1187.26,-282.601 1161.13,-266.439 1142.4,-254.853"/>
<polygon fill="midnightblue" stroke="midnightblue" points="1144.22,-251.865 1133.87,-249.581 1140.54,-257.818 1144.22,-251.865"/>
</g>
<!-- Node33&#45;&gt;Node5 -->
<g id="edge61" class="edge"><title>Node33&#45;&gt;Node5</title>
<path fill="none" stroke="midnightblue" d="M1247.21,-298.735C1290.13,-294.638 1370.48,-283.682 1433,-256 1486.24,-232.426 1539,-237.229 1539,-179 1539,-179 1539,-179 1539,-121 1539,-13.1631 677.358,-10.1916 491.898,-10.8009"/>
<polygon fill="midnightblue" stroke="midnightblue" points="491.618,-7.3019 481.632,-10.8408 491.646,-14.3018 491.618,-7.3019"/>
</g>
<!-- Node33&#45;&gt;Node7 -->
<g id="edge55" class="edge"><title>Node33&#45;&gt;Node7</title>
<path fill="none" stroke="midnightblue" d="M1214.27,-292.226C1208.1,-272.442 1193.02,-224.007 1184.71,-197.344"/>
<polygon fill="midnightblue" stroke="midnightblue" points="1188.02,-196.201 1181.71,-187.694 1181.34,-198.283 1188.02,-196.201"/>
</g>
<!-- Node33&#45;&gt;Node8 -->
<g id="edge56" class="edge"><title>Node33&#45;&gt;Node8</title>
<path fill="none" stroke="midnightblue" d="M1220.21,-292.488C1228.39,-269.175 1247.17,-203.665 1215,-168 1171.39,-119.659 994.062,-142.321 912.653,-131.791"/>
<polygon fill="midnightblue" stroke="midnightblue" points="912.711,-128.257 902.289,-130.162 911.624,-135.172 912.711,-128.257"/>
</g>
<!-- Node33&#45;&gt;Node9 -->
<g id="edge57" class="edge"><title>Node33&#45;&gt;Node9</title>
<path fill="none" stroke="midnightblue" d="M1247.1,-293.233C1265.88,-286.658 1288.6,-275.155 1300,-256 1311.18,-237.226 1300.34,-212.484 1290.31,-196.177"/>
<polygon fill="midnightblue" stroke="midnightblue" points="1293.1,-194.062 1284.66,-187.659 1287.27,-197.928 1293.1,-194.062"/>
</g>
<!-- Node33&#45;&gt;Node10 -->
<g id="edge58" class="edge"><title>Node33&#45;&gt;Node10</title>
<path fill="none" stroke="midnightblue" d="M1247.13,-295.075C1269.53,-289.07 1299.04,-277.487 1316,-256 1329.03,-239.498 1331.8,-214.898 1331.94,-197.967"/>
<polygon fill="midnightblue" stroke="midnightblue" points="1335.44,-197.587 1331.72,-187.665 1328.44,-197.739 1335.44,-197.587"/>
</g>
<!-- Node33&#45;&gt;Node12 -->
<g id="edge59" class="edge"><title>Node33&#45;&gt;Node12</title>
<path fill="none" stroke="midnightblue" d="M1247.23,-295.062C1272.97,-288.803 1309.85,-276.876 1336,-256 1355.82,-240.178 1370.62,-214.513 1379.03,-197.208"/>
<polygon fill="midnightblue" stroke="midnightblue" points="1382.42,-198.222 1383.44,-187.676 1376.06,-195.287 1382.42,-198.222"/>
</g>
<!-- Node33&#45;&gt;Node14 -->
<g id="edge60" class="edge"><title>Node33&#45;&gt;Node14</title>
<path fill="none" stroke="midnightblue" d="M1247.06,-296.266C1277.91,-290.406 1326.45,-278.345 1363,-256 1389.03,-240.084 1412.4,-213.09 1425.9,-195.66"/>
<polygon fill="midnightblue" stroke="midnightblue" points="1428.8,-197.623 1432.01,-187.527 1423.21,-193.415 1428.8,-197.623"/>
</g>
<!-- Node33&#45;&gt;Node15 -->
<g id="edge63" class="edge"><title>Node33&#45;&gt;Node15</title>
<path fill="none" stroke="midnightblue" d="M1186.97,-299.246C1116,-294.73 939.9,-281.249 887,-256 868.272,-247.062 871.756,-232.88 853,-224 743.642,-172.226 699.657,-211.798 576.345,-187.661"/>
<polygon fill="midnightblue" stroke="midnightblue" points="577.043,-184.231 566.543,-185.642 575.631,-191.087 577.043,-184.231"/>
</g>
<!-- Node33&#45;&gt;Node16 -->
<g id="edge64" class="edge"><title>Node33&#45;&gt;Node16</title>
<path fill="none" stroke="midnightblue" d="M1186.79,-294.399C1158.33,-287.411 1115.09,-274.774 1081,-256 1061.36,-245.185 1062.51,-233.059 1042,-224 940.521,-179.177 883.879,-254.39 795,-188 780.241,-176.976 772.516,-156.928 768.627,-142.001"/>
<polygon fill="midnightblue" stroke="midnightblue" points="771.948,-140.813 766.348,-131.819 765.117,-142.342 771.948,-140.813"/>
</g>
<!-- Node33&#45;&gt;Node17 -->
<g id="edge65" class="edge"><title>Node33&#45;&gt;Node17</title>
<path fill="none" stroke="midnightblue" d="M1247.21,-297.471C1283.96,-292.283 1347.14,-280.436 1396,-256 1427.62,-240.19 1458.29,-212.374 1475.88,-194.856"/>
<polygon fill="midnightblue" stroke="midnightblue" points="1478.48,-197.2 1482.99,-187.613 1473.49,-192.294 1478.48,-197.2"/>
</g>
<!-- Node33&#45;&gt;Node18 -->
<g id="edge66" class="edge"><title>Node33&#45;&gt;Node18</title>
<path fill="none" stroke="midnightblue" d="M1186.8,-300.96C1133.04,-299.886 1018.12,-293.011 930,-256 908.036,-246.775 909.018,-233.094 887,-224 786.577,-182.524 749.402,-209.986 639.091,-187.921"/>
<polygon fill="midnightblue" stroke="midnightblue" points="639.761,-184.486 629.256,-185.863 638.327,-191.337 639.761,-184.486"/>
</g>
<!-- Node34 -->
<g id="node35" class="node"><title>Node34</title>
<g id="a_node35"><a xlink:href="zeroafterfree_8h.html" target="_top" xlink:title="support/allocators\l/zeroafterfree.h">
<polygon fill="white" stroke="black" points="939,-225 939,-255 1033,-255 1033,-225 939,-225"/>
<text text-anchor="start" x="947" y="-243" font-family="Helvetica,sans-Serif" font-size="10.00">support/allocators</text>
<text text-anchor="middle" x="986" y="-232" font-family="Helvetica,sans-Serif" font-size="10.00">/zeroafterfree.h</text>
</a>
</g>
</g>
<!-- Node33&#45;&gt;Node34 -->
<g id="edge49" class="edge"><title>Node33&#45;&gt;Node34</title>
<path fill="none" stroke="midnightblue" d="M1186.8,-293.156C1150.34,-283.686 1088.26,-267.561 1042.76,-255.742"/>
<polygon fill="midnightblue" stroke="midnightblue" points="1043.58,-252.341 1033.02,-253.214 1041.82,-259.116 1043.58,-252.341"/>
</g>
<!-- Node36 -->
<g id="node37" class="node"><title>Node36</title>
<polygon fill="white" stroke="#bfbfbf" points="1245,-230.5 1245,-249.5 1291,-249.5 1291,-230.5 1245,-230.5"/>
<text text-anchor="middle" x="1268" y="-237.5" font-family="Helvetica,sans-Serif" font-size="10.00">stdio.h</text>
</g>
<!-- Node33&#45;&gt;Node36 -->
<g id="edge62" class="edge"><title>Node33&#45;&gt;Node36</title>
<path fill="none" stroke="midnightblue" d="M1224.31,-292.403C1232.03,-283.314 1244.41,-268.756 1254.02,-257.449"/>
<polygon fill="midnightblue" stroke="midnightblue" points="1256.9,-259.467 1260.71,-249.581 1251.56,-254.933 1256.9,-259.467"/>
</g>
<!-- Node34&#45;&gt;Node13 -->
<g id="edge52" class="edge"><title>Node34&#45;&gt;Node13</title>
<path fill="none" stroke="midnightblue" d="M938.789,-227.03C934.14,-225.96 929.485,-224.931 925,-224 831.424,-204.576 806.764,-206.496 713,-188 711.743,-187.752 710.465,-187.494 709.175,-187.23"/>
<polygon fill="midnightblue" stroke="midnightblue" points="709.718,-183.767 699.208,-185.106 708.259,-190.613 709.718,-183.767"/>
</g>
<!-- Node34&#45;&gt;Node18 -->
<g id="edge53" class="edge"><title>Node34&#45;&gt;Node18</title>
<path fill="none" stroke="midnightblue" d="M938.829,-226.826C934.172,-225.797 929.504,-224.833 925,-224 801.8,-201.206 765.719,-213.346 639.312,-187.975"/>
<polygon fill="midnightblue" stroke="midnightblue" points="639.744,-184.491 629.246,-185.914 638.341,-191.348 639.744,-184.491"/>
</g>
<!-- Node35 -->
<g id="node36" class="node"><title>Node35</title>
<g id="a_node36"><a xlink:href="cleanse_8h.html" target="_top" xlink:title="support/cleanse.h">
<polygon fill="white" stroke="black" points="1001,-168.5 1001,-187.5 1095,-187.5 1095,-168.5 1001,-168.5"/>
<text text-anchor="middle" x="1048" y="-175.5" font-family="Helvetica,sans-Serif" font-size="10.00">support/cleanse.h</text>
</a>
</g>
</g>
<!-- Node34&#45;&gt;Node35 -->
<g id="edge50" class="edge"><title>Node34&#45;&gt;Node35</title>
<path fill="none" stroke="midnightblue" d="M1000.69,-224.781C1009.98,-215.792 1022,-204.162 1031.6,-194.873"/>
<polygon fill="midnightblue" stroke="midnightblue" points="1034.23,-197.2 1038.98,-187.731 1029.36,-192.17 1034.23,-197.2"/>
</g>
<!-- Node35&#45;&gt;Node20 -->
<g id="edge51" class="edge"><title>Node35&#45;&gt;Node20</title>
<path fill="none" stroke="midnightblue" d="M1048,-168.083C1048,-161.006 1048,-150.861 1048,-141.986"/>
<polygon fill="midnightblue" stroke="midnightblue" points="1051.5,-141.751 1048,-131.751 1044.5,-141.751 1051.5,-141.751"/>
</g>
</g>
</svg>
