<?xml version="1.0" encoding="UTF-8" standalone="no"?>
<!DOCTYPE svg PUBLIC "-//W3C//DTD SVG 1.1//EN"
 "http://www.w3.org/Graphics/SVG/1.1/DTD/svg11.dtd">
<!-- Generated by graphviz version 2.36.0 (20140111.2315)
 -->
<!-- Title: src/bls/bls_ies.cpp Pages: 1 -->
<!--zoomable 432 -->
<svg id="main" version="1.1" xmlns="http://www.w3.org/2000/svg" xmlns:xlink="http://www.w3.org/1999/xlink" xml:space="preserve" onload="init(evt)">
<style type="text/css"><![CDATA[
.edge:hover path { stroke: red; }
.edge:hover polygon { stroke: red; fill: red; }
]]></style>
<script type="text/javascript"><![CDATA[
var edges = document.getElementsByTagName('g');
if (edges && edges.length) {
  for (var i=0;i<edges.length;i++) {
    if (edges[i].id.substr(0,4)=='edge') {
      edges[i].setAttribute('class','edge');
    }
  }
}
]]></script>
        <defs>
                <circle id="rim" cx="0" cy="0" r="7"/>
                <circle id="rim2" cx="0" cy="0" r="3.5"/>
                <g id="zoomPlus">
                        <use xlink:href="#rim" fill="#404040">
                                <set attributeName="fill" to="#808080" begin="zoomplus.mouseover" end="zoomplus.mouseout"/>
                        </use>
                        <path d="M-4,0h8M0,-4v8" fill="none" stroke="white" stroke-width="1.5" pointer-events="none"/>
                </g>
                <g id="zoomMin">
                        <use xlink:href="#rim" fill="#404040">
                                <set attributeName="fill" to="#808080" begin="zoomminus.mouseover" end="zoomminus.mouseout"/>
                        </use>
                        <path d="M-4,0h8" fill="none" stroke="white" stroke-width="1.5" pointer-events="none"/>
                </g>
                <g id="dirArrow">
                        <path fill="none" stroke="white" stroke-width="1.5" d="M0,-3.0v7 M-2.5,-0.5L0,-3.0L2.5,-0.5"/>
                </g>
               <g id="resetDef">
                       <use xlink:href="#rim2" fill="#404040">
                               <set attributeName="fill" to="#808080" begin="reset.mouseover" end="reset.mouseout"/>
                       </use>
               </g>
        </defs>

<script type="text/javascript">
var viewWidth = 1981;
var viewHeight = 432;
var sectionId = 'dynsection-0';
</script>
<script xlink:href="svgpan.js"/>
<svg id="graph" class="graph">
<g id="viewport">
<title>src/bls/bls_ies.cpp</title>
<polygon fill="white" stroke="none" points="-4,4 -4,-428 1977,-428 1977,4 -4,4"/>
<!-- Node0 -->
<g id="node1" class="node"><title>Node0</title>
<polygon fill="#bfbfbf" stroke="black" points="1086,-404.5 1086,-423.5 1184,-423.5 1184,-404.5 1086,-404.5"/>
<text text-anchor="middle" x="1135" y="-411.5" font-family="Helvetica,sans-Serif" font-size="10.00">src/bls/bls_ies.cpp</text>
</g>
<!-- Node1 -->
<g id="node2" class="node"><title>Node1</title>
<g id="a_node2"><a xlink:href="bls__ies_8h.html" target="_top" xlink:title="bls_ies.h">
<polygon fill="white" stroke="black" points="1051,-348.5 1051,-367.5 1107,-367.5 1107,-348.5 1051,-348.5"/>
<text text-anchor="middle" x="1079" y="-355.5" font-family="Helvetica,sans-Serif" font-size="10.00">bls_ies.h</text>
</a>
</g>
</g>
<!-- Node0&#45;&gt;Node1 -->
<g id="edge1" class="edge"><title>Node0&#45;&gt;Node1</title>
<path fill="none" stroke="midnightblue" d="M1126,-404.324C1117.81,-396.42 1105.49,-384.548 1095.53,-374.938"/>
<polygon fill="midnightblue" stroke="midnightblue" points="1097.79,-372.256 1088.16,-367.834 1092.93,-377.295 1097.79,-372.256"/>
</g>
<!-- Node3 -->
<g id="node4" class="node"><title>Node3</title>
<polygon fill="white" stroke="#bfbfbf" points="0,-230.5 0,-249.5 46,-249.5 46,-230.5 0,-230.5"/>
<text text-anchor="middle" x="23" y="-237.5" font-family="Helvetica,sans-Serif" font-size="10.00">hash.h</text>
</g>
<!-- Node0&#45;&gt;Node3 -->
<g id="edge68" class="edge"><title>Node0&#45;&gt;Node3</title>
<path fill="none" stroke="midnightblue" d="M1086,-410.985C931.368,-403.556 441.112,-371.788 55,-256 52.719,-255.316 50.394,-254.495 48.091,-253.593"/>
<polygon fill="midnightblue" stroke="midnightblue" points="49.4799,-250.381 38.9151,-249.584 46.6775,-256.795 49.4799,-250.381"/>
</g>
<!-- Node34 -->
<g id="node35" class="node"><title>Node34</title>
<g id="a_node35"><a xlink:href="streams_8h.html" target="_top" xlink:title="streams.h">
<polygon fill="white" stroke="black" points="1077,-292.5 1077,-311.5 1137,-311.5 1137,-292.5 1077,-292.5"/>
<text text-anchor="middle" x="1107" y="-299.5" font-family="Helvetica,sans-Serif" font-size="10.00">streams.h</text>
</a>
</g>
</g>
<!-- Node0&#45;&gt;Node34 -->
<g id="edge72" class="edge"><title>Node0&#45;&gt;Node34</title>
<path fill="none" stroke="midnightblue" d="M1132.8,-404.368C1128.28,-386.617 1117.86,-345.666 1111.73,-321.597"/>
<polygon fill="midnightblue" stroke="midnightblue" points="1115.05,-320.419 1109.19,-311.591 1108.26,-322.146 1115.05,-320.419"/>
</g>
<!-- Node38 -->
<g id="node39" class="node"><title>Node38</title>
<g id="a_node39"><a xlink:href="random_8h.html" target="_top" xlink:title="random.h">
<polygon fill="white" stroke="black" points="1424.5,-292.5 1424.5,-311.5 1481.5,-311.5 1481.5,-292.5 1424.5,-292.5"/>
<text text-anchor="middle" x="1453" y="-299.5" font-family="Helvetica,sans-Serif" font-size="10.00">random.h</text>
</a>
</g>
</g>
<!-- Node0&#45;&gt;Node38 -->
<g id="edge69" class="edge"><title>Node0&#45;&gt;Node38</title>
<path fill="none" stroke="midnightblue" d="M1159.69,-404.46C1215.93,-385.006 1353.68,-337.355 1418.38,-314.977"/>
<polygon fill="midnightblue" stroke="midnightblue" points="1419.8,-318.187 1428.11,-311.61 1417.51,-311.572 1419.8,-318.187"/>
</g>
<!-- Node39 -->
<g id="node40" class="node"><title>Node39</title>
<g id="a_node40"><a xlink:href="aes_8h.html" target="_top" xlink:title="crypto/aes.h">
<polygon fill="white" stroke="black" points="1780.5,-348.5 1780.5,-367.5 1851.5,-367.5 1851.5,-348.5 1780.5,-348.5"/>
<text text-anchor="middle" x="1816" y="-355.5" font-family="Helvetica,sans-Serif" font-size="10.00">crypto/aes.h</text>
</a>
</g>
</g>
<!-- Node0&#45;&gt;Node39 -->
<g id="edge73" class="edge"><title>Node0&#45;&gt;Node39</title>
<path fill="none" stroke="midnightblue" d="M1184.25,-409.095C1311.01,-399.043 1647.19,-372.386 1770.14,-362.637"/>
<polygon fill="midnightblue" stroke="midnightblue" points="1770.64,-366.108 1780.33,-361.828 1770.09,-359.13 1770.64,-366.108"/>
</g>
<!-- Node2 -->
<g id="node3" class="node"><title>Node2</title>
<g id="a_node3"><a xlink:href="bls_8h.html" target="_top" xlink:title="bls.h">
<polygon fill="white" stroke="black" points="468,-292.5 468,-311.5 506,-311.5 506,-292.5 468,-292.5"/>
<text text-anchor="middle" x="487" y="-299.5" font-family="Helvetica,sans-Serif" font-size="10.00">bls.h</text>
</a>
</g>
</g>
<!-- Node1&#45;&gt;Node2 -->
<g id="edge2" class="edge"><title>Node1&#45;&gt;Node2</title>
<path fill="none" stroke="midnightblue" d="M1050.84,-354.432C951.41,-345.362 617.285,-314.884 516.21,-305.664"/>
<polygon fill="midnightblue" stroke="midnightblue" points="516.389,-302.166 506.112,-304.743 515.753,-309.137 516.389,-302.166"/>
</g>
<!-- Node1&#45;&gt;Node34 -->
<g id="edge49" class="edge"><title>Node1&#45;&gt;Node34</title>
<path fill="none" stroke="midnightblue" d="M1083.62,-348.083C1087.46,-340.691 1093.02,-329.953 1097.76,-320.811"/>
<polygon fill="midnightblue" stroke="midnightblue" points="1100.97,-322.24 1102.46,-311.751 1094.75,-319.018 1100.97,-322.24"/>
</g>
<!-- Node2&#45;&gt;Node3 -->
<g id="edge3" class="edge"><title>Node2&#45;&gt;Node3</title>
<path fill="none" stroke="midnightblue" d="M467.628,-301.258C406.049,-301.6 209.75,-299.006 55,-256 52.6557,-255.349 50.2698,-254.539 47.9115,-253.636"/>
<polygon fill="midnightblue" stroke="midnightblue" points="49.1154,-250.343 38.5493,-249.563 46.3228,-256.762 49.1154,-250.343"/>
</g>
<!-- Node4 -->
<g id="node5" class="node"><title>Node4</title>
<g id="a_node5"><a xlink:href="serialize_8h.html" target="_top" xlink:title="serialize.h">
<polygon fill="white" stroke="black" points="830.5,-230.5 830.5,-249.5 891.5,-249.5 891.5,-230.5 830.5,-230.5"/>
<text text-anchor="middle" x="861" y="-237.5" font-family="Helvetica,sans-Serif" font-size="10.00">serialize.h</text>
</a>
</g>
</g>
<!-- Node2&#45;&gt;Node4 -->
<g id="edge4" class="edge"><title>Node2&#45;&gt;Node4</title>
<path fill="none" stroke="midnightblue" d="M506.061,-297.942C564.113,-288.629 739.659,-260.466 820.028,-247.573"/>
<polygon fill="midnightblue" stroke="midnightblue" points="820.939,-250.972 830.259,-245.932 819.831,-244.06 820.939,-250.972"/>
</g>
<!-- Node23 -->
<g id="node24" class="node"><title>Node23</title>
<g id="a_node24"><a xlink:href="uint256_8h.html" target="_top" xlink:title="uint256.h">
<polygon fill="white" stroke="black" points="1425,-230.5 1425,-249.5 1481,-249.5 1481,-230.5 1425,-230.5"/>
<text text-anchor="middle" x="1453" y="-237.5" font-family="Helvetica,sans-Serif" font-size="10.00">uint256.h</text>
</a>
</g>
</g>
<!-- Node2&#45;&gt;Node23 -->
<g id="edge28" class="edge"><title>Node2&#45;&gt;Node23</title>
<path fill="none" stroke="midnightblue" d="M506.213,-301.073C601.233,-301.217 1030.26,-299.317 1378,-256 1390.03,-254.502 1403.01,-252.166 1414.74,-249.779"/>
<polygon fill="midnightblue" stroke="midnightblue" points="1415.6,-253.174 1424.67,-247.689 1414.16,-246.324 1415.6,-253.174"/>
</g>
<!-- Node27 -->
<g id="node28" class="node"><title>Node27</title>
<g id="a_node28"><a xlink:href="utilstrencodings_8h.html" target="_top" xlink:title="utilstrencodings.h">
<polygon fill="white" stroke="black" points="909.5,-230.5 909.5,-249.5 1002.5,-249.5 1002.5,-230.5 909.5,-230.5"/>
<text text-anchor="middle" x="956" y="-237.5" font-family="Helvetica,sans-Serif" font-size="10.00">utilstrencodings.h</text>
</a>
</g>
</g>
<!-- Node2&#45;&gt;Node27 -->
<g id="edge39" class="edge"><title>Node2&#45;&gt;Node27</title>
<path fill="none" stroke="midnightblue" d="M506.088,-299.963C565.105,-296.535 749.706,-284.145 900,-256 905.767,-254.92 911.812,-253.554 917.709,-252.088"/>
<polygon fill="midnightblue" stroke="midnightblue" points="918.622,-255.467 927.417,-249.56 916.858,-248.693 918.622,-255.467"/>
</g>
<!-- Node28 -->
<g id="node29" class="node"><title>Node28</title>
<polygon fill="white" stroke="#bfbfbf" points="446,-230.5 446,-249.5 528,-249.5 528,-230.5 446,-230.5"/>
<text text-anchor="middle" x="487" y="-237.5" font-family="Helvetica,sans-Serif" font-size="10.00">chiabls/bls.hpp</text>
</g>
<!-- Node2&#45;&gt;Node28 -->
<g id="edge43" class="edge"><title>Node2&#45;&gt;Node28</title>
<path fill="none" stroke="midnightblue" d="M487,-292.403C487,-283.938 487,-270.728 487,-259.82"/>
<polygon fill="midnightblue" stroke="midnightblue" points="490.5,-259.581 487,-249.581 483.5,-259.581 490.5,-259.581"/>
</g>
<!-- Node29 -->
<g id="node30" class="node"><title>Node29</title>
<polygon fill="white" stroke="#bfbfbf" points="546,-230.5 546,-249.5 660,-249.5 660,-230.5 546,-230.5"/>
<text text-anchor="middle" x="603" y="-237.5" font-family="Helvetica,sans-Serif" font-size="10.00">chiabls/privatekey.hpp</text>
</g>
<!-- Node2&#45;&gt;Node29 -->
<g id="edge44" class="edge"><title>Node2&#45;&gt;Node29</title>
<path fill="none" stroke="midnightblue" d="M503.62,-292.403C522.915,-282.423 554.959,-265.849 577.431,-254.225"/>
<polygon fill="midnightblue" stroke="midnightblue" points="579.137,-257.284 586.411,-249.581 575.921,-251.066 579.137,-257.284"/>
</g>
<!-- Node30 -->
<g id="node31" class="node"><title>Node30</title>
<polygon fill="white" stroke="#bfbfbf" points="64,-230.5 64,-249.5 174,-249.5 174,-230.5 64,-230.5"/>
<text text-anchor="middle" x="119" y="-237.5" font-family="Helvetica,sans-Serif" font-size="10.00">chiabls/publickey.hpp</text>
</g>
<!-- Node2&#45;&gt;Node30 -->
<g id="edge45" class="edge"><title>Node2&#45;&gt;Node30</title>
<path fill="none" stroke="midnightblue" d="M467.7,-298.71C419.475,-292.865 289.91,-276.405 183,-256 176.6,-254.778 169.871,-253.356 163.279,-251.882"/>
<polygon fill="midnightblue" stroke="midnightblue" points="163.628,-248.371 153.098,-249.547 162.063,-255.194 163.628,-248.371"/>
</g>
<!-- Node31 -->
<g id="node32" class="node"><title>Node31</title>
<polygon fill="white" stroke="#bfbfbf" points="192.5,-230.5 192.5,-249.5 301.5,-249.5 301.5,-230.5 192.5,-230.5"/>
<text text-anchor="middle" x="247" y="-237.5" font-family="Helvetica,sans-Serif" font-size="10.00">chiabls/signature.hpp</text>
</g>
<!-- Node2&#45;&gt;Node31 -->
<g id="edge46" class="edge"><title>Node2&#45;&gt;Node31</title>
<path fill="none" stroke="midnightblue" d="M467.765,-296.191C429.624,-286.656 343.55,-265.138 290.855,-251.964"/>
<polygon fill="midnightblue" stroke="midnightblue" points="291.655,-248.556 281.104,-249.526 289.957,-255.347 291.655,-248.556"/>
</g>
<!-- Node32 -->
<g id="node33" class="node"><title>Node32</title>
<polygon fill="white" stroke="#bfbfbf" points="320,-230.5 320,-249.5 358,-249.5 358,-230.5 320,-230.5"/>
<text text-anchor="middle" x="339" y="-237.5" font-family="Helvetica,sans-Serif" font-size="10.00">array</text>
</g>
<!-- Node2&#45;&gt;Node32 -->
<g id="edge47" class="edge"><title>Node2&#45;&gt;Node32</title>
<path fill="none" stroke="midnightblue" d="M467.979,-294.745C444.047,-286.676 401.861,-271.79 367,-256 365.813,-255.462 364.607,-254.896 363.395,-254.312"/>
<polygon fill="midnightblue" stroke="midnightblue" points="364.718,-251.057 354.22,-249.627 361.534,-257.291 364.718,-251.057"/>
</g>
<!-- Node33 -->
<g id="node34" class="node"><title>Node33</title>
<polygon fill="white" stroke="#bfbfbf" points="376.5,-230.5 376.5,-249.5 427.5,-249.5 427.5,-230.5 376.5,-230.5"/>
<text text-anchor="middle" x="402" y="-237.5" font-family="Helvetica,sans-Serif" font-size="10.00">unistd.h</text>
</g>
<!-- Node2&#45;&gt;Node33 -->
<g id="edge48" class="edge"><title>Node2&#45;&gt;Node33</title>
<path fill="none" stroke="midnightblue" d="M474.822,-292.403C461.188,-282.78 438.868,-267.024 422.526,-255.489"/>
<polygon fill="midnightblue" stroke="midnightblue" points="424.344,-252.488 414.156,-249.581 420.307,-258.207 424.344,-252.488"/>
</g>
<!-- Node5 -->
<g id="node6" class="node"><title>Node5</title>
<g id="a_node6"><a xlink:href="endian_8h.html" target="_top" xlink:title="compat/endian.h">
<polygon fill="white" stroke="black" points="1310.5,-112.5 1310.5,-131.5 1399.5,-131.5 1399.5,-112.5 1310.5,-112.5"/>
<text text-anchor="middle" x="1355" y="-119.5" font-family="Helvetica,sans-Serif" font-size="10.00">compat/endian.h</text>
</a>
</g>
</g>
<!-- Node4&#45;&gt;Node5 -->
<g id="edge5" class="edge"><title>Node4&#45;&gt;Node5</title>
<path fill="none" stroke="midnightblue" d="M867.89,-230.127C880.61,-214.482 909.473,-182.297 942,-168 1004.91,-140.348 1203,-128.929 1300.16,-124.898"/>
<polygon fill="midnightblue" stroke="midnightblue" points="1300.52,-128.386 1310.37,-124.486 1300.24,-121.392 1300.52,-128.386"/>
</g>
<!-- Node6 -->
<g id="node7" class="node"><title>Node6</title>
<polygon fill="white" stroke="#bfbfbf" points="1409.5,-0.5 1409.5,-19.5 1458.5,-19.5 1458.5,-0.5 1409.5,-0.5"/>
<text text-anchor="middle" x="1434" y="-7.5" font-family="Helvetica,sans-Serif" font-size="10.00">stdint.h</text>
</g>
<!-- Node4&#45;&gt;Node6 -->
<g id="edge17" class="edge"><title>Node4&#45;&gt;Node6</title>
<path fill="none" stroke="midnightblue" d="M830.388,-237.905C737.876,-233.48 472.025,-211.967 547,-112 600.333,-40.8889 651.457,-71.4085 739,-56 989.438,-11.9203 1297.44,-9.89492 1399.42,-10.5762"/>
<polygon fill="midnightblue" stroke="midnightblue" points="1399.43,-14.0763 1409.46,-10.657 1399.48,-7.07654 1399.43,-14.0763"/>
</g>
<!-- Node8 -->
<g id="node9" class="node"><title>Node8</title>
<polygon fill="white" stroke="#bfbfbf" points="754,-168.5 754,-187.5 810,-187.5 810,-168.5 754,-168.5"/>
<text text-anchor="middle" x="782" y="-175.5" font-family="Helvetica,sans-Serif" font-size="10.00">algorithm</text>
</g>
<!-- Node4&#45;&gt;Node8 -->
<g id="edge9" class="edge"><title>Node4&#45;&gt;Node8</title>
<path fill="none" stroke="midnightblue" d="M849.681,-230.403C837.127,-220.869 816.649,-205.315 801.501,-193.811"/>
<polygon fill="midnightblue" stroke="midnightblue" points="803.378,-190.842 793.298,-187.581 799.144,-196.416 803.378,-190.842"/>
</g>
<!-- Node9 -->
<g id="node10" class="node"><title>Node9</title>
<polygon fill="white" stroke="#bfbfbf" points="836,-112.5 836,-131.5 888,-131.5 888,-112.5 836,-112.5"/>
<text text-anchor="middle" x="862" y="-119.5" font-family="Helvetica,sans-Serif" font-size="10.00">assert.h</text>
</g>
<!-- Node4&#45;&gt;Node9 -->
<g id="edge10" class="edge"><title>Node4&#45;&gt;Node9</title>
<path fill="none" stroke="midnightblue" d="M861.886,-230.349C862.876,-220.214 864.416,-202.909 865,-188 865.348,-179.118 865.296,-176.884 865,-168 864.713,-159.383 864.118,-149.854 863.533,-141.791"/>
<polygon fill="midnightblue" stroke="midnightblue" points="867.007,-141.318 862.746,-131.618 860.028,-141.859 867.007,-141.318"/>
</g>
<!-- Node10 -->
<g id="node11" class="node"><title>Node10</title>
<polygon fill="white" stroke="#bfbfbf" points="827.5,-168.5 827.5,-187.5 856.5,-187.5 856.5,-168.5 827.5,-168.5"/>
<text text-anchor="middle" x="842" y="-175.5" font-family="Helvetica,sans-Serif" font-size="10.00">ios</text>
</g>
<!-- Node4&#45;&gt;Node10 -->
<g id="edge11" class="edge"><title>Node4&#45;&gt;Node10</title>
<path fill="none" stroke="midnightblue" d="M858.278,-230.403C855.541,-221.76 851.237,-208.17 847.742,-197.134"/>
<polygon fill="midnightblue" stroke="midnightblue" points="851.073,-196.057 844.717,-187.581 844.399,-198.171 851.073,-196.057"/>
</g>
<!-- Node11 -->
<g id="node12" class="node"><title>Node11</title>
<polygon fill="white" stroke="#bfbfbf" points="951,-168.5 951,-187.5 991,-187.5 991,-168.5 951,-168.5"/>
<text text-anchor="middle" x="971" y="-175.5" font-family="Helvetica,sans-Serif" font-size="10.00">limits</text>
</g>
<!-- Node4&#45;&gt;Node11 -->
<g id="edge12" class="edge"><title>Node4&#45;&gt;Node11</title>
<path fill="none" stroke="midnightblue" d="M876.76,-230.403C894.976,-220.468 925.173,-203.997 946.468,-192.381"/>
<polygon fill="midnightblue" stroke="midnightblue" points="948.166,-195.442 955.269,-187.581 944.814,-189.297 948.166,-195.442"/>
</g>
<!-- Node12 -->
<g id="node13" class="node"><title>Node12</title>
<polygon fill="white" stroke="#bfbfbf" points="470.5,-168.5 470.5,-187.5 499.5,-187.5 499.5,-168.5 470.5,-168.5"/>
<text text-anchor="middle" x="485" y="-175.5" font-family="Helvetica,sans-Serif" font-size="10.00">list</text>
</g>
<!-- Node4&#45;&gt;Node12 -->
<g id="edge13" class="edge"><title>Node4&#45;&gt;Node12</title>
<path fill="none" stroke="midnightblue" d="M830.068,-236.08C769.071,-229.966 629.191,-214.173 514,-188 512.522,-187.664 511.01,-187.29 509.491,-186.891"/>
<polygon fill="midnightblue" stroke="midnightblue" points="510.213,-183.456 499.633,-184.025 508.259,-190.178 510.213,-183.456"/>
</g>
<!-- Node13 -->
<g id="node14" class="node"><title>Node13</title>
<polygon fill="white" stroke="#bfbfbf" points="1009.5,-168.5 1009.5,-187.5 1044.5,-187.5 1044.5,-168.5 1009.5,-168.5"/>
<text text-anchor="middle" x="1027" y="-175.5" font-family="Helvetica,sans-Serif" font-size="10.00">map</text>
</g>
<!-- Node4&#45;&gt;Node13 -->
<g id="edge14" class="edge"><title>Node4&#45;&gt;Node13</title>
<path fill="none" stroke="midnightblue" d="M882.826,-230.488C888.413,-228.341 894.42,-226.061 900,-224 934.287,-211.334 974.034,-197.365 999.801,-188.402"/>
<polygon fill="midnightblue" stroke="midnightblue" points="1000.98,-191.698 1009.28,-185.112 998.683,-185.086 1000.98,-191.698"/>
</g>
<!-- Node14 -->
<g id="node15" class="node"><title>Node14</title>
<polygon fill="white" stroke="#bfbfbf" points="1169,-168.5 1169,-187.5 1221,-187.5 1221,-168.5 1169,-168.5"/>
<text text-anchor="middle" x="1195" y="-175.5" font-family="Helvetica,sans-Serif" font-size="10.00">memory</text>
</g>
<!-- Node4&#45;&gt;Node14 -->
<g id="edge15" class="edge"><title>Node4&#45;&gt;Node14</title>
<path fill="none" stroke="midnightblue" d="M880.553,-230.471C886.683,-228.073 893.537,-225.667 900,-224 1009.87,-195.666 1043.7,-209.738 1158.8,-188.024"/>
<polygon fill="midnightblue" stroke="midnightblue" points="1159.55,-191.443 1168.7,-186.106 1158.22,-184.571 1159.55,-191.443"/>
</g>
<!-- Node15 -->
<g id="node16" class="node"><title>Node15</title>
<polygon fill="white" stroke="#bfbfbf" points="1063,-168.5 1063,-187.5 1093,-187.5 1093,-168.5 1063,-168.5"/>
<text text-anchor="middle" x="1078" y="-175.5" font-family="Helvetica,sans-Serif" font-size="10.00">set</text>
</g>
<!-- Node4&#45;&gt;Node15 -->
<g id="edge16" class="edge"><title>Node4&#45;&gt;Node15</title>
<path fill="none" stroke="midnightblue" d="M881.866,-230.373C887.681,-228.135 894.038,-225.839 900,-224 966.755,-203.414 986.027,-207.863 1053,-188 1053.1,-187.97 1053.2,-187.941 1053.3,-187.911"/>
<polygon fill="midnightblue" stroke="midnightblue" points="1054.35,-191.25 1062.76,-184.801 1052.16,-184.6 1054.35,-191.25"/>
</g>
<!-- Node16 -->
<g id="node17" class="node"><title>Node16</title>
<polygon fill="white" stroke="#bfbfbf" points="1239.5,-168.5 1239.5,-187.5 1280.5,-187.5 1280.5,-168.5 1239.5,-168.5"/>
<text text-anchor="middle" x="1260" y="-175.5" font-family="Helvetica,sans-Serif" font-size="10.00">string</text>
</g>
<!-- Node4&#45;&gt;Node16 -->
<g id="edge18" class="edge"><title>Node4&#45;&gt;Node16</title>
<path fill="none" stroke="midnightblue" d="M880.524,-230.356C886.653,-227.953 893.514,-225.573 900,-224 1040.16,-190.01 1083.47,-216.089 1229.25,-187.74"/>
<polygon fill="midnightblue" stroke="midnightblue" points="1230.35,-191.091 1239.47,-185.699 1228.98,-184.227 1230.35,-191.091"/>
</g>
<!-- Node17 -->
<g id="node18" class="node"><title>Node17</title>
<polygon fill="white" stroke="#bfbfbf" points="556.5,-112.5 556.5,-131.5 605.5,-131.5 605.5,-112.5 556.5,-112.5"/>
<text text-anchor="middle" x="581" y="-119.5" font-family="Helvetica,sans-Serif" font-size="10.00">string.h</text>
</g>
<!-- Node4&#45;&gt;Node17 -->
<g id="edge19" class="edge"><title>Node4&#45;&gt;Node17</title>
<path fill="none" stroke="midnightblue" d="M830.393,-235.266C763.02,-226.764 606.532,-205.353 590,-188 578.591,-176.024 577.228,-156.726 578.186,-142.262"/>
<polygon fill="midnightblue" stroke="midnightblue" points="581.708,-142.25 579.304,-131.931 574.748,-141.496 581.708,-142.25"/>
</g>
<!-- Node18 -->
<g id="node19" class="node"><title>Node18</title>
<polygon fill="white" stroke="#bfbfbf" points="1111,-168.5 1111,-187.5 1151,-187.5 1151,-168.5 1111,-168.5"/>
<text text-anchor="middle" x="1131" y="-175.5" font-family="Helvetica,sans-Serif" font-size="10.00">utility</text>
</g>
<!-- Node4&#45;&gt;Node18 -->
<g id="edge20" class="edge"><title>Node4&#45;&gt;Node18</title>
<path fill="none" stroke="midnightblue" d="M880.996,-230.472C887.024,-228.13 893.711,-225.755 900,-224 987.413,-199.6 1012.73,-209.073 1101,-188 1101.1,-187.976 1101.2,-187.953 1101.3,-187.929"/>
<polygon fill="midnightblue" stroke="midnightblue" points="1101.99,-191.367 1110.75,-185.416 1100.19,-184.602 1101.99,-191.367"/>
</g>
<!-- Node19 -->
<g id="node20" class="node"><title>Node19</title>
<polygon fill="white" stroke="#bfbfbf" points="1299,-168.5 1299,-187.5 1343,-187.5 1343,-168.5 1299,-168.5"/>
<text text-anchor="middle" x="1321" y="-175.5" font-family="Helvetica,sans-Serif" font-size="10.00">vector</text>
</g>
<!-- Node4&#45;&gt;Node19 -->
<g id="edge21" class="edge"><title>Node4&#45;&gt;Node19</title>
<path fill="none" stroke="midnightblue" d="M880.11,-230.447C886.338,-227.988 893.36,-225.553 900,-224 1065.93,-185.196 1116.41,-218.356 1288.83,-187.63"/>
<polygon fill="midnightblue" stroke="midnightblue" points="1289.53,-191.06 1298.74,-185.818 1288.28,-184.174 1289.53,-191.06"/>
</g>
<!-- Node20 -->
<g id="node21" class="node"><title>Node20</title>
<g id="a_node21"><a xlink:href="prevector_8h.html" target="_top" xlink:title="prevector.h">
<polygon fill="white" stroke="black" points="632.5,-168.5 632.5,-187.5 697.5,-187.5 697.5,-168.5 632.5,-168.5"/>
<text text-anchor="middle" x="665" y="-175.5" font-family="Helvetica,sans-Serif" font-size="10.00">prevector.h</text>
</a>
</g>
</g>
<!-- Node4&#45;&gt;Node20 -->
<g id="edge22" class="edge"><title>Node4&#45;&gt;Node20</title>
<path fill="none" stroke="midnightblue" d="M832.918,-230.403C798.715,-219.933 740.803,-202.205 702.73,-190.55"/>
<polygon fill="midnightblue" stroke="midnightblue" points="703.616,-187.161 693.03,-187.581 701.567,-193.855 703.616,-187.161"/>
</g>
<!-- Node5&#45;&gt;Node6 -->
<g id="edge6" class="edge"><title>Node5&#45;&gt;Node6</title>
<path fill="none" stroke="midnightblue" d="M1348.04,-112.375C1338.38,-99.298 1323.37,-74.0669 1335,-56 1349.09,-34.113 1376.72,-22.7486 1399.22,-16.9211"/>
<polygon fill="midnightblue" stroke="midnightblue" points="1400.18,-20.2908 1409.13,-14.6153 1398.6,-13.473 1400.18,-20.2908"/>
</g>
<!-- Node7 -->
<g id="node8" class="node"><title>Node7</title>
<g id="a_node8"><a xlink:href="byteswap_8h.html" target="_top" xlink:title="compat/byteswap.h">
<polygon fill="white" stroke="black" points="1344,-56.5 1344,-75.5 1446,-75.5 1446,-56.5 1344,-56.5"/>
<text text-anchor="middle" x="1395" y="-63.5" font-family="Helvetica,sans-Serif" font-size="10.00">compat/byteswap.h</text>
</a>
</g>
</g>
<!-- Node5&#45;&gt;Node7 -->
<g id="edge7" class="edge"><title>Node5&#45;&gt;Node7</title>
<path fill="none" stroke="midnightblue" d="M1361.61,-112.083C1367.26,-104.455 1375.54,-93.2645 1382.45,-83.9408"/>
<polygon fill="midnightblue" stroke="midnightblue" points="1385.38,-85.87 1388.52,-75.7511 1379.75,-81.7034 1385.38,-85.87"/>
</g>
<!-- Node7&#45;&gt;Node6 -->
<g id="edge8" class="edge"><title>Node7&#45;&gt;Node6</title>
<path fill="none" stroke="midnightblue" d="M1401.44,-56.083C1406.95,-48.4554 1415.03,-37.2645 1421.76,-27.9408"/>
<polygon fill="midnightblue" stroke="midnightblue" points="1424.66,-29.9071 1427.68,-19.7511 1418.99,-25.8087 1424.66,-29.9071"/>
</g>
<!-- Node20&#45;&gt;Node6 -->
<g id="edge25" class="edge"><title>Node20&#45;&gt;Node6</title>
<path fill="none" stroke="midnightblue" d="M682.539,-168.49C711.799,-154.631 772.725,-127.21 827,-112 1039.96,-52.3217 1305.44,-23.1145 1399.23,-14.123"/>
<polygon fill="midnightblue" stroke="midnightblue" points="1399.67,-17.5972 1409.3,-13.1729 1399.01,-10.6282 1399.67,-17.5972"/>
</g>
<!-- Node20&#45;&gt;Node9 -->
<g id="edge23" class="edge"><title>Node20&#45;&gt;Node9</title>
<path fill="none" stroke="midnightblue" d="M696.215,-168.444C731.52,-158.766 788.914,-143.034 826.059,-132.852"/>
<polygon fill="midnightblue" stroke="midnightblue" points="827.245,-136.156 835.964,-130.137 825.394,-129.405 827.245,-136.156"/>
</g>
<!-- Node20&#45;&gt;Node17 -->
<g id="edge26" class="edge"><title>Node20&#45;&gt;Node17</title>
<path fill="none" stroke="midnightblue" d="M651.504,-168.324C638.4,-159.9 618.288,-146.971 602.893,-137.074"/>
<polygon fill="midnightblue" stroke="midnightblue" points="604.767,-134.118 594.463,-131.655 600.982,-140.006 604.767,-134.118"/>
</g>
<!-- Node21 -->
<g id="node22" class="node"><title>Node21</title>
<polygon fill="white" stroke="#bfbfbf" points="1532,-112.5 1532,-131.5 1580,-131.5 1580,-112.5 1532,-112.5"/>
<text text-anchor="middle" x="1556" y="-119.5" font-family="Helvetica,sans-Serif" font-size="10.00">stdlib.h</text>
</g>
<!-- Node20&#45;&gt;Node21 -->
<g id="edge24" class="edge"><title>Node20&#45;&gt;Node21</title>
<path fill="none" stroke="midnightblue" d="M697.653,-172.895C712.138,-171.185 729.4,-169.3 745,-168 1039.08,-143.494 1113.39,-148.956 1408,-132 1446.91,-129.761 1491.56,-127.022 1521.56,-125.158"/>
<polygon fill="midnightblue" stroke="midnightblue" points="1522.14,-128.628 1531.91,-124.513 1521.71,-121.642 1522.14,-128.628"/>
</g>
<!-- Node22 -->
<g id="node23" class="node"><title>Node22</title>
<polygon fill="white" stroke="#bfbfbf" points="662.5,-112.5 662.5,-131.5 709.5,-131.5 709.5,-112.5 662.5,-112.5"/>
<text text-anchor="middle" x="686" y="-119.5" font-family="Helvetica,sans-Serif" font-size="10.00">iterator</text>
</g>
<!-- Node20&#45;&gt;Node22 -->
<g id="edge27" class="edge"><title>Node20&#45;&gt;Node22</title>
<path fill="none" stroke="midnightblue" d="M668.468,-168.083C671.312,-160.77 675.429,-150.181 678.96,-141.103"/>
<polygon fill="midnightblue" stroke="midnightblue" points="682.234,-142.34 682.597,-131.751 675.71,-139.803 682.234,-142.34"/>
</g>
<!-- Node23&#45;&gt;Node6 -->
<g id="edge32" class="edge"><title>Node23&#45;&gt;Node6</title>
<path fill="none" stroke="midnightblue" d="M1481.05,-238.633C1548.79,-237.093 1718.28,-229.123 1753,-188 1839.04,-86.0957 1567.69,-32.0765 1468.69,-16.1151"/>
<polygon fill="midnightblue" stroke="midnightblue" points="1469,-12.6214 1458.58,-14.5215 1467.91,-19.536 1469,-12.6214"/>
</g>
<!-- Node23&#45;&gt;Node9 -->
<g id="edge29" class="edge"><title>Node23&#45;&gt;Node9</title>
<path fill="none" stroke="midnightblue" d="M1442.09,-230.322C1420.1,-213.017 1370.86,-175.249 1351,-168 1267.64,-137.579 996.52,-126.877 898.108,-123.94"/>
<polygon fill="midnightblue" stroke="midnightblue" points="898.153,-120.44 888.056,-123.649 897.951,-127.437 898.153,-120.44"/>
</g>
<!-- Node23&#45;&gt;Node16 -->
<g id="edge33" class="edge"><title>Node23&#45;&gt;Node16</title>
<path fill="none" stroke="midnightblue" d="M1425.35,-230.403C1389.52,-219.267 1327.29,-199.919 1290.24,-188.402"/>
<polygon fill="midnightblue" stroke="midnightblue" points="1291.09,-185.001 1280.51,-185.375 1289.02,-191.686 1291.09,-185.001"/>
</g>
<!-- Node23&#45;&gt;Node19 -->
<g id="edge34" class="edge"><title>Node23&#45;&gt;Node19</title>
<path fill="none" stroke="midnightblue" d="M1434.09,-230.403C1411.84,-220.29 1374.69,-203.404 1349.07,-191.761"/>
<polygon fill="midnightblue" stroke="midnightblue" points="1350.43,-188.532 1339.88,-187.581 1347.53,-194.905 1350.43,-188.532"/>
</g>
<!-- Node24 -->
<g id="node25" class="node"><title>Node24</title>
<polygon fill="white" stroke="#bfbfbf" points="1621,-168.5 1621,-187.5 1667,-187.5 1667,-168.5 1621,-168.5"/>
<text text-anchor="middle" x="1644" y="-175.5" font-family="Helvetica,sans-Serif" font-size="10.00">cstring</text>
</g>
<!-- Node23&#45;&gt;Node24 -->
<g id="edge30" class="edge"><title>Node23&#45;&gt;Node24</title>
<path fill="none" stroke="midnightblue" d="M1480.37,-230.403C1514.87,-219.563 1574.15,-200.943 1611.09,-189.337"/>
<polygon fill="midnightblue" stroke="midnightblue" points="1612.39,-192.599 1620.88,-186.263 1610.29,-185.921 1612.39,-192.599"/>
</g>
<!-- Node25 -->
<g id="node26" class="node"><title>Node25</title>
<polygon fill="white" stroke="#bfbfbf" points="1685.5,-168.5 1685.5,-187.5 1744.5,-187.5 1744.5,-168.5 1685.5,-168.5"/>
<text text-anchor="middle" x="1715" y="-175.5" font-family="Helvetica,sans-Serif" font-size="10.00">stdexcept</text>
</g>
<!-- Node23&#45;&gt;Node25 -->
<g id="edge31" class="edge"><title>Node23&#45;&gt;Node25</title>
<path fill="none" stroke="midnightblue" d="M1481.17,-232.577C1521.74,-223.321 1599.24,-205.624 1675.43,-188.128"/>
<polygon fill="midnightblue" stroke="midnightblue" points="1676.23,-191.535 1685.19,-185.885 1674.66,-184.713 1676.23,-191.535"/>
</g>
<!-- Node26 -->
<g id="node27" class="node"><title>Node26</title>
<g id="a_node27"><a xlink:href="common_8h.html" target="_top" xlink:title="crypto/common.h">
<polygon fill="white" stroke="black" points="1399,-168.5 1399,-187.5 1491,-187.5 1491,-168.5 1399,-168.5"/>
<text text-anchor="middle" x="1445" y="-175.5" font-family="Helvetica,sans-Serif" font-size="10.00">crypto/common.h</text>
</a>
</g>
</g>
<!-- Node23&#45;&gt;Node26 -->
<g id="edge35" class="edge"><title>Node23&#45;&gt;Node26</title>
<path fill="none" stroke="midnightblue" d="M1451.85,-230.403C1450.73,-221.938 1448.96,-208.728 1447.51,-197.82"/>
<polygon fill="midnightblue" stroke="midnightblue" points="1450.94,-197.03 1446.14,-187.581 1444,-197.955 1450.94,-197.03"/>
</g>
<!-- Node26&#45;&gt;Node5 -->
<g id="edge38" class="edge"><title>Node26&#45;&gt;Node5</title>
<path fill="none" stroke="midnightblue" d="M1430.54,-168.324C1416.5,-159.9 1394.95,-146.971 1378.46,-137.074"/>
<polygon fill="midnightblue" stroke="midnightblue" points="1379.8,-133.798 1369.42,-131.655 1376.2,-139.801 1379.8,-133.798"/>
</g>
<!-- Node26&#45;&gt;Node6 -->
<g id="edge36" class="edge"><title>Node26&#45;&gt;Node6</title>
<path fill="none" stroke="midnightblue" d="M1447.28,-168.38C1452.23,-148.39 1462.79,-97.4182 1454,-56 1452,-46.5915 1447.9,-36.7618 1443.93,-28.6981"/>
<polygon fill="midnightblue" stroke="midnightblue" points="1446.89,-26.8101 1439.13,-19.5932 1440.69,-30.0721 1446.89,-26.8101"/>
</g>
<!-- Node26&#45;&gt;Node17 -->
<g id="edge37" class="edge"><title>Node26&#45;&gt;Node17</title>
<path fill="none" stroke="midnightblue" d="M1398.66,-172.155C1383.48,-170.678 1366.53,-169.144 1351,-168 1041.2,-145.191 962.434,-159.283 653,-132 640.771,-130.922 627.419,-129.36 615.571,-127.84"/>
<polygon fill="midnightblue" stroke="midnightblue" points="615.983,-124.364 605.612,-126.527 615.069,-131.304 615.983,-124.364"/>
</g>
<!-- Node27&#45;&gt;Node6 -->
<g id="edge40" class="edge"><title>Node27&#45;&gt;Node6</title>
<path fill="none" stroke="midnightblue" d="M927.106,-230.478C918.445,-228.136 908.886,-225.759 900,-224 839.109,-211.943 663.966,-234.635 623,-188 602.05,-164.151 630.65,-128.137 653,-112 774.956,-23.9501 1264.26,-12.6453 1399.32,-11.2067"/>
<polygon fill="midnightblue" stroke="midnightblue" points="1399.53,-14.7049 1409.5,-11.1102 1399.47,-7.70526 1399.53,-14.7049"/>
</g>
<!-- Node27&#45;&gt;Node16 -->
<g id="edge41" class="edge"><title>Node27&#45;&gt;Node16</title>
<path fill="none" stroke="midnightblue" d="M1002.64,-230.944C1065.19,-220.04 1173.91,-200.709 1229.65,-187.819"/>
<polygon fill="midnightblue" stroke="midnightblue" points="1230.51,-191.214 1239.42,-185.49 1228.88,-184.404 1230.51,-191.214"/>
</g>
<!-- Node27&#45;&gt;Node19 -->
<g id="edge42" class="edge"><title>Node27&#45;&gt;Node19</title>
<path fill="none" stroke="midnightblue" d="M1002.84,-231.442C1017.9,-229.036 1034.65,-226.381 1050,-224 1153.04,-208.018 1182.28,-210.424 1288.85,-187.773"/>
<polygon fill="midnightblue" stroke="midnightblue" points="1289.67,-191.176 1298.71,-185.652 1288.2,-184.332 1289.67,-191.176"/>
</g>
<!-- Node34&#45;&gt;Node4 -->
<g id="edge55" class="edge"><title>Node34&#45;&gt;Node4</title>
<path fill="none" stroke="midnightblue" d="M1076.81,-295.936C1036.17,-288.78 961.837,-274.495 900,-256 897.037,-255.114 893.98,-254.107 890.942,-253.044"/>
<polygon fill="midnightblue" stroke="midnightblue" points="892.034,-249.717 881.441,-249.538 889.611,-256.284 892.034,-249.717"/>
</g>
<!-- Node34&#45;&gt;Node6 -->
<g id="edge62" class="edge"><title>Node34&#45;&gt;Node6</title>
<path fill="none" stroke="midnightblue" d="M1137.25,-299.014C1272,-289.772 1811,-248.465 1811,-179 1811,-179 1811,-179 1811,-121 1811,-50.0975 1562.16,-21.7966 1468.81,-13.6746"/>
<polygon fill="midnightblue" stroke="midnightblue" points="1468.99,-10.1777 1458.74,-12.8242 1468.41,-17.1529 1468.99,-10.1777"/>
</g>
<!-- Node34&#45;&gt;Node8 -->
<g id="edge56" class="edge"><title>Node34&#45;&gt;Node8</title>
<path fill="none" stroke="midnightblue" d="M1076.5,-300.178C1009.34,-297.778 851.394,-288.714 811,-256 793.433,-241.773 786.503,-215.711 783.772,-197.883"/>
<polygon fill="midnightblue" stroke="midnightblue" points="787.226,-197.294 782.535,-187.795 780.278,-198.146 787.226,-197.294"/>
</g>
<!-- Node34&#45;&gt;Node9 -->
<g id="edge57" class="edge"><title>Node34&#45;&gt;Node9</title>
<path fill="none" stroke="midnightblue" d="M1076.89,-299.985C1006.68,-297.115 834.499,-287.025 787,-256 750.717,-232.301 720.465,-203.723 745,-168 763.027,-141.753 798.664,-130.809 825.895,-126.249"/>
<polygon fill="midnightblue" stroke="midnightblue" points="826.475,-129.701 835.865,-124.795 825.465,-122.775 826.475,-129.701"/>
</g>
<!-- Node34&#45;&gt;Node10 -->
<g id="edge58" class="edge"><title>Node34&#45;&gt;Node10</title>
<path fill="none" stroke="midnightblue" d="M1076.62,-300.967C1009.85,-300.18 853.663,-294.204 821,-256 806.565,-239.116 818.444,-213.183 829.341,-196.155"/>
<polygon fill="midnightblue" stroke="midnightblue" points="832.353,-197.952 835.121,-187.725 826.579,-193.993 832.353,-197.952"/>
</g>
<!-- Node34&#45;&gt;Node11 -->
<g id="edge59" class="edge"><title>Node34&#45;&gt;Node11</title>
<path fill="none" stroke="midnightblue" d="M1095.36,-292.376C1083.64,-283.559 1065.16,-269.308 1050,-256 1027.2,-235.987 1002.37,-211.263 986.754,-195.318"/>
<polygon fill="midnightblue" stroke="midnightblue" points="988.968,-192.575 979.485,-187.852 983.953,-197.458 988.968,-192.575"/>
</g>
<!-- Node34&#45;&gt;Node13 -->
<g id="edge60" class="edge"><title>Node34&#45;&gt;Node13</title>
<path fill="none" stroke="midnightblue" d="M1111,-292.151C1117.19,-276.979 1127.12,-245.557 1114,-224 1107.15,-212.751 1076.75,-198.643 1053.8,-189.252"/>
<polygon fill="midnightblue" stroke="midnightblue" points="1055.09,-186 1044.51,-185.538 1052.49,-192.5 1055.09,-186"/>
</g>
<!-- Node34&#45;&gt;Node15 -->
<g id="edge61" class="edge"><title>Node34&#45;&gt;Node15</title>
<path fill="none" stroke="midnightblue" d="M1118.27,-292.427C1127.97,-284.275 1141.28,-271.046 1147,-256 1152.05,-242.706 1153.77,-236.505 1147,-224 1141.98,-214.737 1119.89,-201.233 1102.04,-191.436"/>
<polygon fill="midnightblue" stroke="midnightblue" points="1103.66,-188.338 1093.2,-186.693 1100.35,-194.506 1103.66,-188.338"/>
</g>
<!-- Node34&#45;&gt;Node16 -->
<g id="edge64" class="edge"><title>Node34&#45;&gt;Node16</title>
<path fill="none" stroke="midnightblue" d="M1133.52,-292.385C1153.73,-284.934 1181.49,-272.717 1202,-256 1222.61,-239.207 1239.97,-213.613 1250.18,-196.602"/>
<polygon fill="midnightblue" stroke="midnightblue" points="1253.35,-198.116 1255.34,-187.709 1247.29,-194.604 1253.35,-198.116"/>
</g>
<!-- Node34&#45;&gt;Node17 -->
<g id="edge65" class="edge"><title>Node34&#45;&gt;Node17</title>
<path fill="none" stroke="midnightblue" d="M1076.52,-299.967C1013.7,-297.236 865.664,-287.698 746,-256 710.176,-246.511 704.59,-234.335 669,-224 623.952,-210.918 491.209,-223.887 461,-188 433.892,-155.797 502.204,-136.986 546.55,-128.488"/>
<polygon fill="midnightblue" stroke="midnightblue" points="547.211,-131.926 556.421,-126.689 545.955,-125.039 547.211,-131.926"/>
</g>
<!-- Node34&#45;&gt;Node18 -->
<g id="edge66" class="edge"><title>Node34&#45;&gt;Node18</title>
<path fill="none" stroke="midnightblue" d="M1136.12,-292.441C1153.64,-285.62 1174.52,-274.141 1185,-256 1192.11,-243.684 1191.03,-236.879 1185,-224 1178.96,-211.094 1167.19,-200.599 1156.18,-193"/>
<polygon fill="midnightblue" stroke="midnightblue" points="1157.94,-189.975 1147.63,-187.536 1154.17,-195.872 1157.94,-189.975"/>
</g>
<!-- Node34&#45;&gt;Node19 -->
<g id="edge67" class="edge"><title>Node34&#45;&gt;Node19</title>
<path fill="none" stroke="midnightblue" d="M1137.24,-300.674C1201.32,-299.276 1347.39,-292.109 1378,-256 1387.2,-245.151 1384.2,-236.799 1378,-224 1371.6,-210.8 1359.25,-200.303 1347.67,-192.779"/>
<polygon fill="midnightblue" stroke="midnightblue" points="1349.45,-189.768 1339.08,-187.61 1345.84,-195.765 1349.45,-189.768"/>
</g>
<!-- Node35 -->
<g id="node36" class="node"><title>Node35</title>
<g id="a_node36"><a xlink:href="zeroafterfree_8h.html" target="_top" xlink:title="support/allocators\l/zeroafterfree.h">
<polygon fill="white" stroke="black" points="1275,-225 1275,-255 1369,-255 1369,-225 1275,-225"/>
<text text-anchor="start" x="1283" y="-243" font-family="Helvetica,sans-Serif" font-size="10.00">support/allocators</text>
<text text-anchor="middle" x="1322" y="-232" font-family="Helvetica,sans-Serif" font-size="10.00">/zeroafterfree.h</text>
</a>
</g>
</g>
<!-- Node34&#45;&gt;Node35 -->
<g id="edge50" class="edge"><title>Node34&#45;&gt;Node35</title>
<path fill="none" stroke="midnightblue" d="M1137.35,-292.531C1170.39,-283.309 1223.99,-268.352 1264.95,-256.921"/>
<polygon fill="midnightblue" stroke="midnightblue" points="1266.11,-260.23 1274.8,-254.171 1264.23,-253.488 1266.11,-260.23"/>
</g>
<!-- Node37 -->
<g id="node38" class="node"><title>Node37</title>
<polygon fill="white" stroke="#bfbfbf" points="1059,-230.5 1059,-249.5 1105,-249.5 1105,-230.5 1059,-230.5"/>
<text text-anchor="middle" x="1082" y="-237.5" font-family="Helvetica,sans-Serif" font-size="10.00">stdio.h</text>
</g>
<!-- Node34&#45;&gt;Node37 -->
<g id="edge63" class="edge"><title>Node34&#45;&gt;Node37</title>
<path fill="none" stroke="midnightblue" d="M1103.42,-292.403C1099.82,-283.76 1094.15,-270.17 1089.56,-259.134"/>
<polygon fill="midnightblue" stroke="midnightblue" points="1092.65,-257.465 1085.58,-249.581 1086.19,-260.158 1092.65,-257.465"/>
</g>
<!-- Node35&#45;&gt;Node14 -->
<g id="edge53" class="edge"><title>Node35&#45;&gt;Node14</title>
<path fill="none" stroke="midnightblue" d="M1292.22,-224.933C1271.08,-214.946 1242.92,-201.64 1222.35,-191.92"/>
<polygon fill="midnightblue" stroke="midnightblue" points="1223.74,-188.707 1213.2,-187.6 1220.75,-195.036 1223.74,-188.707"/>
</g>
<!-- Node35&#45;&gt;Node19 -->
<g id="edge54" class="edge"><title>Node35&#45;&gt;Node19</title>
<path fill="none" stroke="midnightblue" d="M1321.76,-224.781C1321.63,-216.781 1321.46,-206.689 1321.32,-198.017"/>
<polygon fill="midnightblue" stroke="midnightblue" points="1324.81,-197.671 1321.15,-187.731 1317.81,-197.788 1324.81,-197.671"/>
</g>
<!-- Node36 -->
<g id="node37" class="node"><title>Node36</title>
<g id="a_node37"><a xlink:href="cleanse_8h.html" target="_top" xlink:title="support/cleanse.h">
<polygon fill="white" stroke="black" points="1509,-168.5 1509,-187.5 1603,-187.5 1603,-168.5 1509,-168.5"/>
<text text-anchor="middle" x="1556" y="-175.5" font-family="Helvetica,sans-Serif" font-size="10.00">support/cleanse.h</text>
</a>
</g>
</g>
<!-- Node35&#45;&gt;Node36 -->
<g id="edge51" class="edge"><title>Node35&#45;&gt;Node36</title>
<path fill="none" stroke="midnightblue" d="M1369.07,-226.93C1411.03,-216.173 1471.93,-200.557 1512.7,-190.103"/>
<polygon fill="midnightblue" stroke="midnightblue" points="1513.79,-193.437 1522.6,-187.563 1512.05,-186.657 1513.79,-193.437"/>
</g>
<!-- Node36&#45;&gt;Node21 -->
<g id="edge52" class="edge"><title>Node36&#45;&gt;Node21</title>
<path fill="none" stroke="midnightblue" d="M1556,-168.083C1556,-161.006 1556,-150.861 1556,-141.986"/>
<polygon fill="midnightblue" stroke="midnightblue" points="1559.5,-141.751 1556,-131.751 1552.5,-141.751 1559.5,-141.751"/>
</g>
<!-- Node38&#45;&gt;Node6 -->
<g id="edge71" class="edge"><title>Node38&#45;&gt;Node6</title>
<path fill="none" stroke="midnightblue" d="M1481.7,-300.473C1590.71,-297.711 1973,-280.77 1973,-179 1973,-179 1973,-179 1973,-121 1973,-17.6315 1587.62,-10.4249 1468.59,-10.6642"/>
<polygon fill="midnightblue" stroke="midnightblue" points="1468.55,-7.16429 1458.56,-10.7038 1468.57,-14.1642 1468.55,-7.16429"/>
</g>
<!-- Node38&#45;&gt;Node23 -->
<g id="edge70" class="edge"><title>Node38&#45;&gt;Node23</title>
<path fill="none" stroke="midnightblue" d="M1453,-292.403C1453,-283.938 1453,-270.728 1453,-259.82"/>
<polygon fill="midnightblue" stroke="midnightblue" points="1456.5,-259.581 1453,-249.581 1449.5,-259.581 1456.5,-259.581"/>
</g>
<!-- Node40 -->
<g id="node41" class="node"><title>Node40</title>
<g id="a_node41"><a xlink:href="ctaes_8h.html" target="_top" xlink:title="crypto/ctaes/ctaes.h">
<polygon fill="white" stroke="black" points="1839,-168.5 1839,-187.5 1945,-187.5 1945,-168.5 1839,-168.5"/>
<text text-anchor="middle" x="1892" y="-175.5" font-family="Helvetica,sans-Serif" font-size="10.00">crypto/ctaes/ctaes.h</text>
</a>
</g>
</g>
<!-- Node39&#45;&gt;Node40 -->
<g id="edge74" class="edge"><title>Node39&#45;&gt;Node40</title>
<path fill="none" stroke="midnightblue" d="M1819.67,-348.415C1831.37,-320.992 1868.05,-235.099 1884.21,-197.236"/>
<polygon fill="midnightblue" stroke="midnightblue" points="1887.48,-198.49 1888.19,-187.918 1881.05,-195.741 1887.48,-198.49"/>
</g>
<!-- Node40&#45;&gt;Node6 -->
<g id="edge75" class="edge"><title>Node40&#45;&gt;Node6</title>
<path fill="none" stroke="midnightblue" d="M1890.12,-168.437C1884.62,-145.697 1866.31,-83.6478 1825,-56 1767.07,-17.228 1553.13,-11.674 1468.64,-11.0169"/>
<polygon fill="midnightblue" stroke="midnightblue" points="1468.56,-7.51647 1458.54,-10.9573 1468.52,-14.5164 1468.56,-7.51647"/>
</g>
<!-- Node40&#45;&gt;Node21 -->
<g id="edge76" class="edge"><title>Node40&#45;&gt;Node21</title>
<path fill="none" stroke="midnightblue" d="M1838.76,-168.444C1769.08,-157.245 1648.94,-137.937 1590.26,-128.506"/>
<polygon fill="midnightblue" stroke="midnightblue" points="1590.47,-124.996 1580.05,-126.865 1589.36,-131.907 1590.47,-124.996"/>
</g>
</g>
</svg>
        <g id="navigator" transform="translate(0 0)" fill="#404254">
                <rect fill="#f2f5e9" fill-opacity="0.5" stroke="#606060" stroke-width=".5" x="0" y="0" width="60" height="60"/>
                <use id="zoomplus" xlink:href="#zoomPlus" x="17" y="9" onmousedown="handleZoom(evt,'in')"/>
                <use id="zoomminus" xlink:href="#zoomMin" x="42" y="9" onmousedown="handleZoom(evt,'out')"/>
                <use id="reset" xlink:href="#resetDef" x="30" y="36" onmousedown="handleReset()"/>
                <g id="arrowUp" xlink:href="#dirArrow" transform="translate(30 24)" onmousedown="handlePan(0,-1)">
                  <use xlink:href="#rim" fill="#404040">
                        <set attributeName="fill" to="#808080" begin="arrowUp.mouseover" end="arrowUp.mouseout"/>
                  </use>
                  <path fill="none" stroke="white" stroke-width="1.5" d="M0,-3.0v7 M-2.5,-0.5L0,-3.0L2.5,-0.5"/>
                </g>
                <g id="arrowRight" xlink:href="#dirArrow" transform="rotate(90) translate(36 -43)" onmousedown="handlePan(1,0)">
                  <use xlink:href="#rim" fill="#404040">
                        <set attributeName="fill" to="#808080" begin="arrowRight.mouseover" end="arrowRight.mouseout"/>
                  </use>
                  <path fill="none" stroke="white" stroke-width="1.5" d="M0,-3.0v7 M-2.5,-0.5L0,-3.0L2.5,-0.5"/>
                </g>
                <g id="arrowDown" xlink:href="#dirArrow" transform="rotate(180) translate(-30 -48)" onmousedown="handlePan(0,1)">
                  <use xlink:href="#rim" fill="#404040">
                        <set attributeName="fill" to="#808080" begin="arrowDown.mouseover" end="arrowDown.mouseout"/>
                  </use>
                  <path fill="none" stroke="white" stroke-width="1.5" d="M0,-3.0v7 M-2.5,-0.5L0,-3.0L2.5,-0.5"/>
                </g>
                <g id="arrowLeft" xlink:href="#dirArrow" transform="rotate(270) translate(-36 17)" onmousedown="handlePan(-1,0)">
                  <use xlink:href="#rim" fill="#404040">
                        <set attributeName="fill" to="#808080" begin="arrowLeft.mouseover" end="arrowLeft.mouseout"/>
                  </use>
                  <path fill="none" stroke="white" stroke-width="1.5" d="M0,-3.0v7 M-2.5,-0.5L0,-3.0L2.5,-0.5"/>
                </g>
        </g>
        <svg viewBox="0 0 15 15" width="100%" height="30px" preserveAspectRatio="xMaxYMin meet">
         <g id="arrow_out" transform="scale(0.3 0.3)">
          <a xlink:href="bls__ies_8cpp__incl_org.svg" target="_base">
           <rect id="button" ry="5" rx="5" y="6" x="6" height="38" width="38"
                fill="#f2f5e9" fill-opacity="0.5" stroke="#606060" stroke-width="1.0"/>
           <path id="arrow"
             d="M 11.500037,31.436501 C 11.940474,20.09759 22.043105,11.32322 32.158766,21.979434 L 37.068811,17.246167 C 37.068811,17.246167 37.088388,32 37.088388,32 L 22.160133,31.978069 C 22.160133,31.978069 26.997745,27.140456 26.997745,27.140456 C 18.528582,18.264221 13.291696,25.230495 11.500037,31.436501 z"
             style="fill:#404040;"/>
          </a>
         </g>
        </svg>
</svg>
