<?xml version="1.0" encoding="UTF-8" standalone="no"?>
<!DOCTYPE svg PUBLIC "-//W3C//DTD SVG 1.1//EN"
 "http://www.w3.org/Graphics/SVG/1.1/DTD/svg11.dtd">
<!-- Generated by graphviz version 2.36.0 (20140111.2315)
 -->
<!-- Title: src/bls/bls.h Pages: 1 -->
<!--zoomable 308 -->
<svg id="main" version="1.1" xmlns="http://www.w3.org/2000/svg" xmlns:xlink="http://www.w3.org/1999/xlink" xml:space="preserve" onload="init(evt)">
<style type="text/css"><![CDATA[
.edge:hover path { stroke: red; }
.edge:hover polygon { stroke: red; fill: red; }
]]></style>
<script type="text/javascript"><![CDATA[
var edges = document.getElementsByTagName('g');
if (edges && edges.length) {
  for (var i=0;i<edges.length;i++) {
    if (edges[i].id.substr(0,4)=='edge') {
      edges[i].setAttribute('class','edge');
    }
  }
}
]]></script>
        <defs>
                <circle id="rim" cx="0" cy="0" r="7"/>
                <circle id="rim2" cx="0" cy="0" r="3.5"/>
                <g id="zoomPlus">
                        <use xlink:href="#rim" fill="#404040">
                                <set attributeName="fill" to="#808080" begin="zoomplus.mouseover" end="zoomplus.mouseout"/>
                        </use>
                        <path d="M-4,0h8M0,-4v8" fill="none" stroke="white" stroke-width="1.5" pointer-events="none"/>
                </g>
                <g id="zoomMin">
                        <use xlink:href="#rim" fill="#404040">
                                <set attributeName="fill" to="#808080" begin="zoomminus.mouseover" end="zoomminus.mouseout"/>
                        </use>
                        <path d="M-4,0h8" fill="none" stroke="white" stroke-width="1.5" pointer-events="none"/>
                </g>
                <g id="dirArrow">
                        <path fill="none" stroke="white" stroke-width="1.5" d="M0,-3.0v7 M-2.5,-0.5L0,-3.0L2.5,-0.5"/>
                </g>
               <g id="resetDef">
                       <use xlink:href="#rim2" fill="#404040">
                               <set attributeName="fill" to="#808080" begin="reset.mouseover" end="reset.mouseout"/>
                       </use>
               </g>
        </defs>

<script type="text/javascript">
var viewWidth = 1303;
var viewHeight = 308;
var sectionId = 'dynsection-0';
</script>
<script xlink:href="svgpan.js"/>
<svg id="graph" class="graph">
<g id="viewport">
<title>src/bls/bls.h</title>
<polygon fill="white" stroke="none" points="-4,4 -4,-304 1299.33,-304 1299.33,4 -4,4"/>
<!-- Node0 -->
<g id="node1" class="node"><title>Node0</title>
<polygon fill="#bfbfbf" stroke="black" points="764.331,-280.5 764.331,-299.5 834.331,-299.5 834.331,-280.5 764.331,-280.5"/>
<text text-anchor="middle" x="799.331" y="-287.5" font-family="Helvetica,sans-Serif" font-size="10.00">src/bls/bls.h</text>
</g>
<!-- Node1 -->
<g id="node2" class="node"><title>Node1</title>
<polygon fill="white" stroke="#bfbfbf" points="234.331,-224.5 234.331,-243.5 280.331,-243.5 280.331,-224.5 234.331,-224.5"/>
<text text-anchor="middle" x="257.331" y="-231.5" font-family="Helvetica,sans-Serif" font-size="10.00">hash.h</text>
</g>
<!-- Node0&#45;&gt;Node1 -->
<g id="edge1" class="edge"><title>Node0&#45;&gt;Node1</title>
<path fill="none" stroke="midnightblue" d="M764.094,-288.145C682.347,-285.682 473.456,-276.632 290.693,-243.924"/>
<polygon fill="midnightblue" stroke="midnightblue" points="291.097,-240.44 280.632,-242.095 289.845,-247.327 291.097,-240.44"/>
</g>
<!-- Node2 -->
<g id="node3" class="node"><title>Node2</title>
<g id="a_node3"><a xlink:href="serialize_8h.html" target="_top" xlink:title="serialize.h">
<polygon fill="white" stroke="black" points="620.831,-224.5 620.831,-243.5 681.831,-243.5 681.831,-224.5 620.831,-224.5"/>
<text text-anchor="middle" x="651.331" y="-231.5" font-family="Helvetica,sans-Serif" font-size="10.00">serialize.h</text>
</a>
</g>
</g>
<!-- Node0&#45;&gt;Node2 -->
<g id="edge2" class="edge"><title>Node0&#45;&gt;Node2</title>
<path fill="none" stroke="midnightblue" d="M775.88,-280.444C751.199,-271.438 712.146,-257.189 684.355,-247.049"/>
<polygon fill="midnightblue" stroke="midnightblue" points="685.267,-243.656 674.673,-243.516 682.867,-250.232 685.267,-243.656"/>
</g>
<!-- Node21 -->
<g id="node22" class="node"><title>Node21</title>
<g id="a_node22"><a xlink:href="uint256_8h.html" target="_top" xlink:title="uint256.h">
<polygon fill="white" stroke="black" points="298.331,-224.5 298.331,-243.5 354.331,-243.5 354.331,-224.5 298.331,-224.5"/>
<text text-anchor="middle" x="326.331" y="-231.5" font-family="Helvetica,sans-Serif" font-size="10.00">uint256.h</text>
</a>
</g>
</g>
<!-- Node0&#45;&gt;Node21 -->
<g id="edge26" class="edge"><title>Node0&#45;&gt;Node21</title>
<path fill="none" stroke="midnightblue" d="M764.239,-286.418C690.968,-280.784 516.474,-266.096 371.331,-244 369.005,-243.646 366.617,-243.254 364.212,-242.837"/>
<polygon fill="midnightblue" stroke="midnightblue" points="364.815,-239.389 354.346,-241.02 363.547,-246.273 364.815,-239.389"/>
</g>
<!-- Node25 -->
<g id="node26" class="node"><title>Node25</title>
<g id="a_node26"><a xlink:href="utilstrencodings_8h.html" target="_top" xlink:title="utilstrencodings.h">
<polygon fill="white" stroke="black" points="380.831,-224.5 380.831,-243.5 473.831,-243.5 473.831,-224.5 380.831,-224.5"/>
<text text-anchor="middle" x="427.331" y="-231.5" font-family="Helvetica,sans-Serif" font-size="10.00">utilstrencodings.h</text>
</a>
</g>
</g>
<!-- Node0&#45;&gt;Node25 -->
<g id="edge37" class="edge"><title>Node0&#45;&gt;Node25</title>
<path fill="none" stroke="midnightblue" d="M763.999,-283.871C699.431,-274.498 561.878,-254.531 484.057,-243.234"/>
<polygon fill="midnightblue" stroke="midnightblue" points="484.347,-239.74 473.948,-241.767 483.342,-246.667 484.347,-239.74"/>
</g>
<!-- Node26 -->
<g id="node27" class="node"><title>Node26</title>
<polygon fill="white" stroke="#bfbfbf" points="700.331,-224.5 700.331,-243.5 782.331,-243.5 782.331,-224.5 700.331,-224.5"/>
<text text-anchor="middle" x="741.331" y="-231.5" font-family="Helvetica,sans-Serif" font-size="10.00">chiabls/bls.hpp</text>
</g>
<!-- Node0&#45;&gt;Node26 -->
<g id="edge41" class="edge"><title>Node0&#45;&gt;Node26</title>
<path fill="none" stroke="midnightblue" d="M790.013,-280.324C781.439,-272.341 768.519,-260.313 758.144,-250.653"/>
<polygon fill="midnightblue" stroke="midnightblue" points="760.524,-248.086 750.82,-243.834 755.754,-253.21 760.524,-248.086"/>
</g>
<!-- Node27 -->
<g id="node28" class="node"><title>Node27</title>
<polygon fill="white" stroke="#bfbfbf" points="800.331,-224.5 800.331,-243.5 914.331,-243.5 914.331,-224.5 800.331,-224.5"/>
<text text-anchor="middle" x="857.331" y="-231.5" font-family="Helvetica,sans-Serif" font-size="10.00">chiabls/privatekey.hpp</text>
</g>
<!-- Node0&#45;&gt;Node27 -->
<g id="edge42" class="edge"><title>Node0&#45;&gt;Node27</title>
<path fill="none" stroke="midnightblue" d="M808.65,-280.324C817.224,-272.341 830.144,-260.313 840.519,-250.653"/>
<polygon fill="midnightblue" stroke="midnightblue" points="842.909,-253.21 847.843,-243.834 838.139,-248.086 842.909,-253.21"/>
</g>
<!-- Node28 -->
<g id="node29" class="node"><title>Node28</title>
<polygon fill="white" stroke="#bfbfbf" points="932.331,-224.5 932.331,-243.5 1042.33,-243.5 1042.33,-224.5 932.331,-224.5"/>
<text text-anchor="middle" x="987.331" y="-231.5" font-family="Helvetica,sans-Serif" font-size="10.00">chiabls/publickey.hpp</text>
</g>
<!-- Node0&#45;&gt;Node28 -->
<g id="edge43" class="edge"><title>Node0&#45;&gt;Node28</title>
<path fill="none" stroke="midnightblue" d="M829.12,-280.444C861.16,-271.241 912.265,-256.562 947.684,-246.388"/>
<polygon fill="midnightblue" stroke="midnightblue" points="949.036,-249.641 957.682,-243.516 947.104,-242.913 949.036,-249.641"/>
</g>
<!-- Node29 -->
<g id="node30" class="node"><title>Node29</title>
<polygon fill="white" stroke="#bfbfbf" points="1060.83,-224.5 1060.83,-243.5 1169.83,-243.5 1169.83,-224.5 1060.83,-224.5"/>
<text text-anchor="middle" x="1115.33" y="-231.5" font-family="Helvetica,sans-Serif" font-size="10.00">chiabls/signature.hpp</text>
</g>
<!-- Node0&#45;&gt;Node29 -->
<g id="edge44" class="edge"><title>Node0&#45;&gt;Node29</title>
<path fill="none" stroke="midnightblue" d="M834.356,-283.015C887.666,-273.905 989.857,-256.442 1055.2,-245.275"/>
<polygon fill="midnightblue" stroke="midnightblue" points="1056.09,-248.674 1065.36,-243.539 1054.91,-241.774 1056.09,-248.674"/>
</g>
<!-- Node30 -->
<g id="node31" class="node"><title>Node30</title>
<polygon fill="white" stroke="#bfbfbf" points="1188.33,-224.5 1188.33,-243.5 1226.33,-243.5 1226.33,-224.5 1188.33,-224.5"/>
<text text-anchor="middle" x="1207.33" y="-231.5" font-family="Helvetica,sans-Serif" font-size="10.00">array</text>
</g>
<!-- Node0&#45;&gt;Node30 -->
<g id="edge45" class="edge"><title>Node0&#45;&gt;Node30</title>
<path fill="none" stroke="midnightblue" d="M834.428,-286.982C901.745,-282.639 1053.41,-270.568 1178.33,-244 1178.43,-243.979 1178.53,-243.957 1178.63,-243.936"/>
<polygon fill="midnightblue" stroke="midnightblue" points="1179.3,-247.377 1188.12,-241.501 1177.56,-240.597 1179.3,-247.377"/>
</g>
<!-- Node31 -->
<g id="node32" class="node"><title>Node31</title>
<polygon fill="white" stroke="#bfbfbf" points="1244.83,-224.5 1244.83,-243.5 1295.83,-243.5 1295.83,-224.5 1244.83,-224.5"/>
<text text-anchor="middle" x="1270.33" y="-231.5" font-family="Helvetica,sans-Serif" font-size="10.00">unistd.h</text>
</g>
<!-- Node0&#45;&gt;Node31 -->
<g id="edge46" class="edge"><title>Node0&#45;&gt;Node31</title>
<path fill="none" stroke="midnightblue" d="M834.336,-287.16C907.075,-282.957 1079.94,-270.998 1234.65,-243.84"/>
<polygon fill="midnightblue" stroke="midnightblue" points="1235.58,-247.23 1244.81,-242.03 1234.35,-240.338 1235.58,-247.23"/>
</g>
<!-- Node3 -->
<g id="node4" class="node"><title>Node3</title>
<g id="a_node4"><a xlink:href="endian_8h.html" target="_top" xlink:title="compat/endian.h">
<polygon fill="white" stroke="black" points="325.831,-112.5 325.831,-131.5 414.831,-131.5 414.831,-112.5 325.831,-112.5"/>
<text text-anchor="middle" x="370.331" y="-119.5" font-family="Helvetica,sans-Serif" font-size="10.00">compat/endian.h</text>
</a>
</g>
</g>
<!-- Node2&#45;&gt;Node3 -->
<g id="edge3" class="edge"><title>Node2&#45;&gt;Node3</title>
<path fill="none" stroke="midnightblue" d="M620.591,-225.209C590.666,-217.234 544.149,-203.794 505.331,-188 487.288,-180.659 483.82,-176.58 466.331,-168 443.571,-156.834 417.514,-144.657 398.295,-135.79"/>
<polygon fill="midnightblue" stroke="midnightblue" points="399.736,-132.6 389.188,-131.599 396.81,-138.959 399.736,-132.6"/>
</g>
<!-- Node4 -->
<g id="node5" class="node"><title>Node4</title>
<polygon fill="white" stroke="#bfbfbf" points="306.831,-0.5 306.831,-19.5 355.831,-19.5 355.831,-0.5 306.831,-0.5"/>
<text text-anchor="middle" x="331.331" y="-7.5" font-family="Helvetica,sans-Serif" font-size="10.00">stdint.h</text>
</g>
<!-- Node2&#45;&gt;Node4 -->
<g id="edge15" class="edge"><title>Node2&#45;&gt;Node4</title>
<path fill="none" stroke="midnightblue" d="M681.832,-225.739C685.029,-225.097 688.24,-224.502 691.331,-224 770.597,-211.134 1095.17,-233.23 1048.33,-168 966.825,-54.4841 498.662,-20.2355 366.227,-12.7535"/>
<polygon fill="midnightblue" stroke="midnightblue" points="366.047,-9.23843 355.87,-12.1848 365.663,-16.2279 366.047,-9.23843"/>
</g>
<!-- Node6 -->
<g id="node7" class="node"><title>Node6</title>
<polygon fill="white" stroke="#bfbfbf" points="1095.33,-168.5 1095.33,-187.5 1151.33,-187.5 1151.33,-168.5 1095.33,-168.5"/>
<text text-anchor="middle" x="1123.33" y="-175.5" font-family="Helvetica,sans-Serif" font-size="10.00">algorithm</text>
</g>
<!-- Node2&#45;&gt;Node6 -->
<g id="edge7" class="edge"><title>Node2&#45;&gt;Node6</title>
<path fill="none" stroke="midnightblue" d="M682.264,-225.625C685.318,-225.022 688.378,-224.466 691.331,-224 863.269,-196.838 909.257,-214.283 1081.33,-188 1082.58,-187.81 1083.84,-187.606 1085.11,-187.39"/>
<polygon fill="midnightblue" stroke="midnightblue" points="1085.76,-190.83 1094.95,-185.561 1084.48,-183.948 1085.76,-190.83"/>
</g>
<!-- Node7 -->
<g id="node8" class="node"><title>Node7</title>
<polygon fill="white" stroke="#bfbfbf" points="584.331,-112.5 584.331,-131.5 636.331,-131.5 636.331,-112.5 584.331,-112.5"/>
<text text-anchor="middle" x="610.331" y="-119.5" font-family="Helvetica,sans-Serif" font-size="10.00">assert.h</text>
</g>
<!-- Node2&#45;&gt;Node7 -->
<g id="edge8" class="edge"><title>Node2&#45;&gt;Node7</title>
<path fill="none" stroke="midnightblue" d="M648.114,-224.368C641.468,-206.537 626.096,-165.295 617.142,-141.272"/>
<polygon fill="midnightblue" stroke="midnightblue" points="620.306,-139.739 613.534,-131.591 613.747,-142.184 620.306,-139.739"/>
</g>
<!-- Node8 -->
<g id="node9" class="node"><title>Node8</title>
<polygon fill="white" stroke="#bfbfbf" points="514.831,-168.5 514.831,-187.5 543.831,-187.5 543.831,-168.5 514.831,-168.5"/>
<text text-anchor="middle" x="529.331" y="-175.5" font-family="Helvetica,sans-Serif" font-size="10.00">ios</text>
</g>
<!-- Node2&#45;&gt;Node8 -->
<g id="edge9" class="edge"><title>Node2&#45;&gt;Node8</title>
<path fill="none" stroke="midnightblue" d="M632,-224.444C610.696,-215.014 576.403,-199.835 553.379,-189.644"/>
<polygon fill="midnightblue" stroke="midnightblue" points="554.538,-186.33 543.977,-185.483 551.705,-192.731 554.538,-186.33"/>
</g>
<!-- Node9 -->
<g id="node10" class="node"><title>Node9</title>
<polygon fill="white" stroke="#bfbfbf" points="562.331,-168.5 562.331,-187.5 602.331,-187.5 602.331,-168.5 562.331,-168.5"/>
<text text-anchor="middle" x="582.331" y="-175.5" font-family="Helvetica,sans-Serif" font-size="10.00">limits</text>
</g>
<!-- Node2&#45;&gt;Node9 -->
<g id="edge10" class="edge"><title>Node2&#45;&gt;Node9</title>
<path fill="none" stroke="midnightblue" d="M640.245,-224.324C629.845,-216.185 614.071,-203.839 601.61,-194.087"/>
<polygon fill="midnightblue" stroke="midnightblue" points="603.651,-191.241 593.619,-187.834 599.337,-196.753 603.651,-191.241"/>
</g>
<!-- Node10 -->
<g id="node11" class="node"><title>Node10</title>
<polygon fill="white" stroke="#bfbfbf" points="658.831,-168.5 658.831,-187.5 687.831,-187.5 687.831,-168.5 658.831,-168.5"/>
<text text-anchor="middle" x="673.331" y="-175.5" font-family="Helvetica,sans-Serif" font-size="10.00">list</text>
</g>
<!-- Node2&#45;&gt;Node10 -->
<g id="edge11" class="edge"><title>Node2&#45;&gt;Node10</title>
<path fill="none" stroke="midnightblue" d="M654.964,-224.083C657.944,-216.77 662.257,-206.181 665.956,-197.103"/>
<polygon fill="midnightblue" stroke="midnightblue" points="669.234,-198.333 669.766,-187.751 662.752,-195.691 669.234,-198.333"/>
</g>
<!-- Node11 -->
<g id="node12" class="node"><title>Node11</title>
<polygon fill="white" stroke="#bfbfbf" points="827.831,-168.5 827.831,-187.5 862.831,-187.5 862.831,-168.5 827.831,-168.5"/>
<text text-anchor="middle" x="845.331" y="-175.5" font-family="Helvetica,sans-Serif" font-size="10.00">map</text>
</g>
<!-- Node2&#45;&gt;Node11 -->
<g id="edge12" class="edge"><title>Node2&#45;&gt;Node11</title>
<path fill="none" stroke="midnightblue" d="M681.957,-225.321C713.662,-217.246 764.821,-203.868 818.053,-187.949"/>
<polygon fill="midnightblue" stroke="midnightblue" points="819.094,-191.291 827.66,-185.055 817.075,-184.588 819.094,-191.291"/>
</g>
<!-- Node12 -->
<g id="node13" class="node"><title>Node12</title>
<polygon fill="white" stroke="#bfbfbf" points="881.331,-168.5 881.331,-187.5 933.331,-187.5 933.331,-168.5 881.331,-168.5"/>
<text text-anchor="middle" x="907.331" y="-175.5" font-family="Helvetica,sans-Serif" font-size="10.00">memory</text>
</g>
<!-- Node2&#45;&gt;Node12 -->
<g id="edge13" class="edge"><title>Node2&#45;&gt;Node12</title>
<path fill="none" stroke="midnightblue" d="M681.89,-226.045C685.076,-225.344 688.268,-224.651 691.331,-224 768.017,-207.707 790.035,-206.012 870.863,-188.01"/>
<polygon fill="midnightblue" stroke="midnightblue" points="872.028,-191.335 881.02,-185.731 870.496,-184.505 872.028,-191.335"/>
</g>
<!-- Node13 -->
<g id="node14" class="node"><title>Node13</title>
<polygon fill="white" stroke="#bfbfbf" points="951.331,-168.5 951.331,-187.5 981.331,-187.5 981.331,-168.5 951.331,-168.5"/>
<text text-anchor="middle" x="966.331" y="-175.5" font-family="Helvetica,sans-Serif" font-size="10.00">set</text>
</g>
<!-- Node2&#45;&gt;Node13 -->
<g id="edge14" class="edge"><title>Node2&#45;&gt;Node13</title>
<path fill="none" stroke="midnightblue" d="M681.855,-225.872C685.048,-225.204 688.251,-224.567 691.331,-224 799.031,-204.192 831.336,-215.276 941.427,-187.727"/>
<polygon fill="midnightblue" stroke="midnightblue" points="942.431,-191.083 951.255,-185.218 940.7,-184.301 942.431,-191.083"/>
</g>
<!-- Node14 -->
<g id="node15" class="node"><title>Node14</title>
<polygon fill="white" stroke="#bfbfbf" points="354.831,-168.5 354.831,-187.5 395.831,-187.5 395.831,-168.5 354.831,-168.5"/>
<text text-anchor="middle" x="375.331" y="-175.5" font-family="Helvetica,sans-Serif" font-size="10.00">string</text>
</g>
<!-- Node2&#45;&gt;Node14 -->
<g id="edge16" class="edge"><title>Node2&#45;&gt;Node14</title>
<path fill="none" stroke="midnightblue" d="M620.807,-228.529C575.862,-221.705 489.093,-207.617 405.783,-187.871"/>
<polygon fill="midnightblue" stroke="midnightblue" points="406.447,-184.431 395.907,-185.499 404.813,-191.238 406.447,-184.431"/>
</g>
<!-- Node15 -->
<g id="node16" class="node"><title>Node15</title>
<polygon fill="white" stroke="#bfbfbf" points="654.831,-112.5 654.831,-131.5 703.831,-131.5 703.831,-112.5 654.831,-112.5"/>
<text text-anchor="middle" x="679.331" y="-119.5" font-family="Helvetica,sans-Serif" font-size="10.00">string.h</text>
</g>
<!-- Node2&#45;&gt;Node15 -->
<g id="edge17" class="edge"><title>Node2&#45;&gt;Node15</title>
<path fill="none" stroke="midnightblue" d="M664.395,-224.436C675.245,-216.471 689.905,-203.515 696.331,-188 702.734,-172.543 696.625,-154.001 690.015,-140.684"/>
<polygon fill="midnightblue" stroke="midnightblue" points="692.94,-138.739 685.061,-131.656 686.803,-142.107 692.94,-138.739"/>
</g>
<!-- Node16 -->
<g id="node17" class="node"><title>Node16</title>
<polygon fill="white" stroke="#bfbfbf" points="999.331,-168.5 999.331,-187.5 1039.33,-187.5 1039.33,-168.5 999.331,-168.5"/>
<text text-anchor="middle" x="1019.33" y="-175.5" font-family="Helvetica,sans-Serif" font-size="10.00">utility</text>
</g>
<!-- Node2&#45;&gt;Node16 -->
<g id="edge18" class="edge"><title>Node2&#45;&gt;Node16</title>
<path fill="none" stroke="midnightblue" d="M681.843,-225.801C685.038,-225.147 688.245,-224.532 691.331,-224 822.798,-201.329 858.74,-215.267 989.331,-188 989.431,-187.979 989.531,-187.958 989.631,-187.937"/>
<polygon fill="midnightblue" stroke="midnightblue" points="990.26,-191.387 999.119,-185.576 988.57,-184.594 990.26,-191.387"/>
</g>
<!-- Node17 -->
<g id="node18" class="node"><title>Node17</title>
<polygon fill="white" stroke="#bfbfbf" points="414.331,-168.5 414.331,-187.5 458.331,-187.5 458.331,-168.5 414.331,-168.5"/>
<text text-anchor="middle" x="436.331" y="-175.5" font-family="Helvetica,sans-Serif" font-size="10.00">vector</text>
</g>
<!-- Node2&#45;&gt;Node17 -->
<g id="edge19" class="edge"><title>Node2&#45;&gt;Node17</title>
<path fill="none" stroke="midnightblue" d="M620.527,-225.263C580.066,-215.101 509.357,-197.341 468.317,-187.034"/>
<polygon fill="midnightblue" stroke="midnightblue" points="469.11,-183.624 458.559,-184.583 467.405,-190.413 469.11,-183.624"/>
</g>
<!-- Node18 -->
<g id="node19" class="node"><title>Node18</title>
<g id="a_node19"><a xlink:href="prevector_8h.html" target="_top" xlink:title="prevector.h">
<polygon fill="white" stroke="black" points="744.831,-168.5 744.831,-187.5 809.831,-187.5 809.831,-168.5 744.831,-168.5"/>
<text text-anchor="middle" x="777.331" y="-175.5" font-family="Helvetica,sans-Serif" font-size="10.00">prevector.h</text>
</a>
</g>
</g>
<!-- Node2&#45;&gt;Node18 -->
<g id="edge20" class="edge"><title>Node2&#45;&gt;Node18</title>
<path fill="none" stroke="midnightblue" d="M671.296,-224.444C691.94,-215.596 724.394,-201.687 747.963,-191.586"/>
<polygon fill="midnightblue" stroke="midnightblue" points="749.647,-194.673 757.46,-187.516 746.889,-188.239 749.647,-194.673"/>
</g>
<!-- Node3&#45;&gt;Node4 -->
<g id="edge4" class="edge"><title>Node3&#45;&gt;Node4</title>
<path fill="none" stroke="midnightblue" d="M377.065,-112.251C386.041,-99.4441 399.759,-75.0469 390.331,-56 383.728,-42.6595 371.066,-32.1941 359.16,-24.7262"/>
<polygon fill="midnightblue" stroke="midnightblue" points="360.723,-21.5866 350.316,-19.6018 357.214,-27.6435 360.723,-21.5866"/>
</g>
<!-- Node5 -->
<g id="node6" class="node"><title>Node5</title>
<g id="a_node6"><a xlink:href="byteswap_8h.html" target="_top" xlink:title="compat/byteswap.h">
<polygon fill="white" stroke="black" points="280.331,-56.5 280.331,-75.5 382.331,-75.5 382.331,-56.5 280.331,-56.5"/>
<text text-anchor="middle" x="331.331" y="-63.5" font-family="Helvetica,sans-Serif" font-size="10.00">compat/byteswap.h</text>
</a>
</g>
</g>
<!-- Node3&#45;&gt;Node5 -->
<g id="edge5" class="edge"><title>Node3&#45;&gt;Node5</title>
<path fill="none" stroke="midnightblue" d="M363.891,-112.083C358.382,-104.455 350.3,-93.2645 343.566,-83.9408"/>
<polygon fill="midnightblue" stroke="midnightblue" points="346.344,-81.8087 337.652,-75.7511 340.669,-85.9071 346.344,-81.8087"/>
</g>
<!-- Node5&#45;&gt;Node4 -->
<g id="edge6" class="edge"><title>Node5&#45;&gt;Node4</title>
<path fill="none" stroke="midnightblue" d="M331.331,-56.083C331.331,-49.0059 331.331,-38.8611 331.331,-29.9865"/>
<polygon fill="midnightblue" stroke="midnightblue" points="334.831,-29.751 331.331,-19.7511 327.831,-29.7511 334.831,-29.751"/>
</g>
<!-- Node18&#45;&gt;Node4 -->
<g id="edge23" class="edge"><title>Node18&#45;&gt;Node4</title>
<path fill="none" stroke="midnightblue" d="M780.407,-168.317C784.621,-154.704 790.291,-128.223 777.331,-112 725.629,-47.2804 461.866,-20.9619 366.118,-13.4433"/>
<polygon fill="midnightblue" stroke="midnightblue" points="366.316,-9.94827 356.078,-12.6759 365.782,-16.9279 366.316,-9.94827"/>
</g>
<!-- Node18&#45;&gt;Node7 -->
<g id="edge21" class="edge"><title>Node18&#45;&gt;Node7</title>
<path fill="none" stroke="midnightblue" d="M750.87,-168.444C722.57,-159.293 677.527,-144.728 646.086,-134.561"/>
<polygon fill="midnightblue" stroke="midnightblue" points="646.986,-131.174 636.394,-131.428 644.832,-137.835 646.986,-131.174"/>
</g>
<!-- Node18&#45;&gt;Node15 -->
<g id="edge24" class="edge"><title>Node18&#45;&gt;Node15</title>
<path fill="none" stroke="midnightblue" d="M761.586,-168.324C746.013,-159.743 721.954,-146.486 703.872,-136.522"/>
<polygon fill="midnightblue" stroke="midnightblue" points="705.485,-133.415 695.038,-131.655 702.107,-139.546 705.485,-133.415"/>
</g>
<!-- Node19 -->
<g id="node20" class="node"><title>Node19</title>
<polygon fill="white" stroke="#bfbfbf" points="825.331,-112.5 825.331,-131.5 873.331,-131.5 873.331,-112.5 825.331,-112.5"/>
<text text-anchor="middle" x="849.331" y="-119.5" font-family="Helvetica,sans-Serif" font-size="10.00">stdlib.h</text>
</g>
<!-- Node18&#45;&gt;Node19 -->
<g id="edge22" class="edge"><title>Node18&#45;&gt;Node19</title>
<path fill="none" stroke="midnightblue" d="M788.899,-168.324C799.752,-160.185 816.212,-147.839 829.215,-138.087"/>
<polygon fill="midnightblue" stroke="midnightblue" points="831.653,-140.634 837.553,-131.834 827.453,-135.034 831.653,-140.634"/>
</g>
<!-- Node20 -->
<g id="node21" class="node"><title>Node20</title>
<polygon fill="white" stroke="#bfbfbf" points="721.831,-112.5 721.831,-131.5 768.831,-131.5 768.831,-112.5 721.831,-112.5"/>
<text text-anchor="middle" x="745.331" y="-119.5" font-family="Helvetica,sans-Serif" font-size="10.00">iterator</text>
</g>
<!-- Node18&#45;&gt;Node20 -->
<g id="edge25" class="edge"><title>Node18&#45;&gt;Node20</title>
<path fill="none" stroke="midnightblue" d="M772.047,-168.083C767.62,-160.613 761.168,-149.724 755.713,-140.52"/>
<polygon fill="midnightblue" stroke="midnightblue" points="758.626,-138.57 750.517,-131.751 752.604,-142.138 758.626,-138.57"/>
</g>
<!-- Node21&#45;&gt;Node4 -->
<g id="edge30" class="edge"><title>Node21&#45;&gt;Node4</title>
<path fill="none" stroke="midnightblue" d="M298.117,-225.808C295.16,-225.153 292.19,-224.535 289.331,-224 229.401,-212.779 57.5169,-233.855 17.3313,-188 -69.4208,-89.0095 198.354,-33.1982 296.642,-16.4371"/>
<polygon fill="midnightblue" stroke="midnightblue" points="297.399,-19.8593 306.686,-14.7603 296.246,-12.9549 297.399,-19.8593"/>
</g>
<!-- Node21&#45;&gt;Node7 -->
<g id="edge27" class="edge"><title>Node21&#45;&gt;Node7</title>
<path fill="none" stroke="midnightblue" d="M326.152,-224.339C326.368,-210.264 328.997,-182.539 345.331,-168 378.598,-138.39 509.577,-127.918 574.065,-124.506"/>
<polygon fill="midnightblue" stroke="midnightblue" points="574.376,-127.995 584.189,-124 574.027,-121.004 574.376,-127.995"/>
</g>
<!-- Node21&#45;&gt;Node14 -->
<g id="edge31" class="edge"><title>Node21&#45;&gt;Node14</title>
<path fill="none" stroke="midnightblue" d="M334.423,-224.083C341.487,-216.298 351.919,-204.801 360.48,-195.367"/>
<polygon fill="midnightblue" stroke="midnightblue" points="363.263,-197.509 367.391,-187.751 358.079,-192.805 363.263,-197.509"/>
</g>
<!-- Node21&#45;&gt;Node17 -->
<g id="edge32" class="edge"><title>Node21&#45;&gt;Node17</title>
<path fill="none" stroke="midnightblue" d="M344.005,-224.324C361.725,-215.625 389.235,-202.12 409.62,-192.113"/>
<polygon fill="midnightblue" stroke="midnightblue" points="411.267,-195.203 418.702,-187.655 408.183,-188.919 411.267,-195.203"/>
</g>
<!-- Node22 -->
<g id="node23" class="node"><title>Node22</title>
<polygon fill="white" stroke="#bfbfbf" points="26.3313,-168.5 26.3313,-187.5 72.3313,-187.5 72.3313,-168.5 26.3313,-168.5"/>
<text text-anchor="middle" x="49.3313" y="-175.5" font-family="Helvetica,sans-Serif" font-size="10.00">cstring</text>
</g>
<!-- Node21&#45;&gt;Node22 -->
<g id="edge28" class="edge"><title>Node21&#45;&gt;Node22</title>
<path fill="none" stroke="midnightblue" d="M298.094,-225.924C295.141,-225.247 292.179,-224.592 289.331,-224 200.616,-205.555 174.595,-208.493 82.6898,-188.118"/>
<polygon fill="midnightblue" stroke="midnightblue" points="83.2037,-184.647 72.6792,-185.866 81.6668,-191.476 83.2037,-184.647"/>
</g>
<!-- Node23 -->
<g id="node24" class="node"><title>Node23</title>
<polygon fill="white" stroke="#bfbfbf" points="90.8313,-168.5 90.8313,-187.5 149.831,-187.5 149.831,-168.5 90.8313,-168.5"/>
<text text-anchor="middle" x="120.331" y="-175.5" font-family="Helvetica,sans-Serif" font-size="10.00">stdexcept</text>
</g>
<!-- Node21&#45;&gt;Node23 -->
<g id="edge29" class="edge"><title>Node21&#45;&gt;Node23</title>
<path fill="none" stroke="midnightblue" d="M298.12,-225.605C262.261,-216.205 200.163,-199.927 159.667,-189.311"/>
<polygon fill="midnightblue" stroke="midnightblue" points="160.426,-185.892 149.866,-186.742 158.651,-192.663 160.426,-185.892"/>
</g>
<!-- Node24 -->
<g id="node25" class="node"><title>Node24</title>
<g id="a_node25"><a xlink:href="common_8h.html" target="_top" xlink:title="crypto/common.h">
<polygon fill="white" stroke="black" points="206.331,-168.5 206.331,-187.5 298.331,-187.5 298.331,-168.5 206.331,-168.5"/>
<text text-anchor="middle" x="252.331" y="-175.5" font-family="Helvetica,sans-Serif" font-size="10.00">crypto/common.h</text>
</a>
</g>
</g>
<!-- Node21&#45;&gt;Node24 -->
<g id="edge33" class="edge"><title>Node21&#45;&gt;Node24</title>
<path fill="none" stroke="midnightblue" d="M314.442,-224.324C303.181,-216.107 286.045,-203.602 272.622,-193.807"/>
<polygon fill="midnightblue" stroke="midnightblue" points="274.578,-190.901 264.437,-187.834 270.452,-196.556 274.578,-190.901"/>
</g>
<!-- Node24&#45;&gt;Node3 -->
<g id="edge36" class="edge"><title>Node24&#45;&gt;Node3</title>
<path fill="none" stroke="midnightblue" d="M271.029,-168.444C290.276,-159.636 320.484,-145.812 342.531,-135.722"/>
<polygon fill="midnightblue" stroke="midnightblue" points="344.085,-138.86 351.721,-131.516 341.172,-132.495 344.085,-138.86"/>
</g>
<!-- Node24&#45;&gt;Node4 -->
<g id="edge34" class="edge"><title>Node24&#45;&gt;Node4</title>
<path fill="none" stroke="midnightblue" d="M251.576,-168.345C250.171,-147.401 249.081,-92.9905 271.331,-56 279.193,-42.9296 292.423,-32.3986 304.462,-24.8198"/>
<polygon fill="midnightblue" stroke="midnightblue" points="306.482,-27.6925 313.328,-19.6065 302.933,-21.6584 306.482,-27.6925"/>
</g>
<!-- Node24&#45;&gt;Node15 -->
<g id="edge35" class="edge"><title>Node24&#45;&gt;Node15</title>
<path fill="none" stroke="midnightblue" d="M298.457,-172.566C383.613,-164.246 563.447,-146.017 644.273,-131.883"/>
<polygon fill="midnightblue" stroke="midnightblue" points="645.336,-135.247 654.544,-130.005 644.077,-128.361 645.336,-135.247"/>
</g>
<!-- Node25&#45;&gt;Node4 -->
<g id="edge38" class="edge"><title>Node25&#45;&gt;Node4</title>
<path fill="none" stroke="midnightblue" d="M380.638,-225.416C315.114,-214.551 203.166,-195.087 197.331,-188 165.228,-149.007 139.203,-181.703 258.331,-56 270.849,-42.7918 288.054,-31.938 302.617,-24.2013"/>
<polygon fill="midnightblue" stroke="midnightblue" points="304.399,-27.2223 311.73,-19.5739 301.229,-20.9809 304.399,-27.2223"/>
</g>
<!-- Node25&#45;&gt;Node14 -->
<g id="edge39" class="edge"><title>Node25&#45;&gt;Node14</title>
<path fill="none" stroke="midnightblue" d="M418.745,-224.083C411.172,-216.22 399.953,-204.569 390.817,-195.081"/>
<polygon fill="midnightblue" stroke="midnightblue" points="393.216,-192.527 383.758,-187.751 388.174,-197.382 393.216,-192.527"/>
</g>
<!-- Node25&#45;&gt;Node17 -->
<g id="edge40" class="edge"><title>Node25&#45;&gt;Node17</title>
<path fill="none" stroke="midnightblue" d="M428.818,-224.083C430.01,-216.927 431.725,-206.635 433.216,-197.691"/>
<polygon fill="midnightblue" stroke="midnightblue" points="436.681,-198.19 434.873,-187.751 429.776,-197.04 436.681,-198.19"/>
</g>
</g>
</svg>
        <g id="navigator" transform="translate(0 0)" fill="#404254">
                <rect fill="#f2f5e9" fill-opacity="0.5" stroke="#606060" stroke-width=".5" x="0" y="0" width="60" height="60"/>
                <use id="zoomplus" xlink:href="#zoomPlus" x="17" y="9" onmousedown="handleZoom(evt,'in')"/>
                <use id="zoomminus" xlink:href="#zoomMin" x="42" y="9" onmousedown="handleZoom(evt,'out')"/>
                <use id="reset" xlink:href="#resetDef" x="30" y="36" onmousedown="handleReset()"/>
                <g id="arrowUp" xlink:href="#dirArrow" transform="translate(30 24)" onmousedown="handlePan(0,-1)">
                  <use xlink:href="#rim" fill="#404040">
                        <set attributeName="fill" to="#808080" begin="arrowUp.mouseover" end="arrowUp.mouseout"/>
                  </use>
                  <path fill="none" stroke="white" stroke-width="1.5" d="M0,-3.0v7 M-2.5,-0.5L0,-3.0L2.5,-0.5"/>
                </g>
                <g id="arrowRight" xlink:href="#dirArrow" transform="rotate(90) translate(36 -43)" onmousedown="handlePan(1,0)">
                  <use xlink:href="#rim" fill="#404040">
                        <set attributeName="fill" to="#808080" begin="arrowRight.mouseover" end="arrowRight.mouseout"/>
                  </use>
                  <path fill="none" stroke="white" stroke-width="1.5" d="M0,-3.0v7 M-2.5,-0.5L0,-3.0L2.5,-0.5"/>
                </g>
                <g id="arrowDown" xlink:href="#dirArrow" transform="rotate(180) translate(-30 -48)" onmousedown="handlePan(0,1)">
                  <use xlink:href="#rim" fill="#404040">
                        <set attributeName="fill" to="#808080" begin="arrowDown.mouseover" end="arrowDown.mouseout"/>
                  </use>
                  <path fill="none" stroke="white" stroke-width="1.5" d="M0,-3.0v7 M-2.5,-0.5L0,-3.0L2.5,-0.5"/>
                </g>
                <g id="arrowLeft" xlink:href="#dirArrow" transform="rotate(270) translate(-36 17)" onmousedown="handlePan(-1,0)">
                  <use xlink:href="#rim" fill="#404040">
                        <set attributeName="fill" to="#808080" begin="arrowLeft.mouseover" end="arrowLeft.mouseout"/>
                  </use>
                  <path fill="none" stroke="white" stroke-width="1.5" d="M0,-3.0v7 M-2.5,-0.5L0,-3.0L2.5,-0.5"/>
                </g>
        </g>
        <svg viewBox="0 0 15 15" width="100%" height="30px" preserveAspectRatio="xMaxYMin meet">
         <g id="arrow_out" transform="scale(0.3 0.3)">
          <a xlink:href="bls_8h__incl_org.svg" target="_base">
           <rect id="button" ry="5" rx="5" y="6" x="6" height="38" width="38"
                fill="#f2f5e9" fill-opacity="0.5" stroke="#606060" stroke-width="1.0"/>
           <path id="arrow"
             d="M 11.500037,31.436501 C 11.940474,20.09759 22.043105,11.32322 32.158766,21.979434 L 37.068811,17.246167 C 37.068811,17.246167 37.088388,32 37.088388,32 L 22.160133,31.978069 C 22.160133,31.978069 26.997745,27.140456 26.997745,27.140456 C 18.528582,18.264221 13.291696,25.230495 11.500037,31.436501 z"
             style="fill:#404040;"/>
          </a>
         </g>
        </svg>
</svg>
