<?xml version="1.0" encoding="UTF-8" standalone="no"?>
<!DOCTYPE svg PUBLIC "-//W3C//DTD SVG 1.1//EN"
 "http://www.w3.org/Graphics/SVG/1.1/DTD/svg11.dtd">
<!-- Generated by graphviz version 2.36.0 (20140111.2315)
 -->
<!-- Title: src/bls/bls_worker.cpp Pages: 1 -->
<!--zoomable 420 -->
<svg id="main" version="1.1" xmlns="http://www.w3.org/2000/svg" xmlns:xlink="http://www.w3.org/1999/xlink" xml:space="preserve" onload="init(evt)">
<style type="text/css"><![CDATA[
.edge:hover path { stroke: red; }
.edge:hover polygon { stroke: red; fill: red; }
]]></style>
<script type="text/javascript"><![CDATA[
var edges = document.getElementsByTagName('g');
if (edges && edges.length) {
  for (var i=0;i<edges.length;i++) {
    if (edges[i].id.substr(0,4)=='edge') {
      edges[i].setAttribute('class','edge');
    }
  }
}
]]></script>
        <defs>
                <circle id="rim" cx="0" cy="0" r="7"/>
                <circle id="rim2" cx="0" cy="0" r="3.5"/>
                <g id="zoomPlus">
                        <use xlink:href="#rim" fill="#404040">
                                <set attributeName="fill" to="#808080" begin="zoomplus.mouseover" end="zoomplus.mouseout"/>
                        </use>
                        <path d="M-4,0h8M0,-4v8" fill="none" stroke="white" stroke-width="1.5" pointer-events="none"/>
                </g>
                <g id="zoomMin">
                        <use xlink:href="#rim" fill="#404040">
                                <set attributeName="fill" to="#808080" begin="zoomminus.mouseover" end="zoomminus.mouseout"/>
                        </use>
                        <path d="M-4,0h8" fill="none" stroke="white" stroke-width="1.5" pointer-events="none"/>
                </g>
                <g id="dirArrow">
                        <path fill="none" stroke="white" stroke-width="1.5" d="M0,-3.0v7 M-2.5,-0.5L0,-3.0L2.5,-0.5"/>
                </g>
               <g id="resetDef">
                       <use xlink:href="#rim2" fill="#404040">
                               <set attributeName="fill" to="#808080" begin="reset.mouseover" end="reset.mouseout"/>
                       </use>
               </g>
        </defs>

<script type="text/javascript">
var viewWidth = 1623;
var viewHeight = 420;
var sectionId = 'dynsection-0';
</script>
<script xlink:href="svgpan.js"/>
<svg id="graph" class="graph">
<g id="viewport">
<title>src/bls/bls_worker.cpp</title>
<polygon fill="white" stroke="none" points="-4,4 -4,-416 1619.49,-416 1619.49,4 -4,4"/>
<!-- Node0 -->
<g id="node1" class="node"><title>Node0</title>
<polygon fill="#bfbfbf" stroke="black" points="599.992,-392.5 599.992,-411.5 714.992,-411.5 714.992,-392.5 599.992,-392.5"/>
<text text-anchor="middle" x="657.492" y="-399.5" font-family="Helvetica,sans-Serif" font-size="10.00">src/bls/bls_worker.cpp</text>
</g>
<!-- Node1 -->
<g id="node2" class="node"><title>Node1</title>
<g id="a_node2"><a xlink:href="bls__worker_8h.html" target="_top" xlink:title="bls_worker.h">
<polygon fill="white" stroke="black" points="923.492,-336.5 923.492,-355.5 995.492,-355.5 995.492,-336.5 923.492,-336.5"/>
<text text-anchor="middle" x="959.492" y="-343.5" font-family="Helvetica,sans-Serif" font-size="10.00">bls_worker.h</text>
</a>
</g>
</g>
<!-- Node0&#45;&gt;Node1 -->
<g id="edge1" class="edge"><title>Node0&#45;&gt;Node1</title>
<path fill="none" stroke="midnightblue" d="M705.344,-392.444C762.338,-382.253 856.884,-365.347 913.187,-355.28"/>
<polygon fill="midnightblue" stroke="midnightblue" points="914.009,-358.688 923.237,-353.483 912.777,-351.798 914.009,-358.688"/>
</g>
<!-- Node3 -->
<g id="node4" class="node"><title>Node3</title>
<polygon fill="white" stroke="#bfbfbf" points="69.4916,-224.5 69.4916,-243.5 115.492,-243.5 115.492,-224.5 69.4916,-224.5"/>
<text text-anchor="middle" x="92.4916" y="-231.5" font-family="Helvetica,sans-Serif" font-size="10.00">hash.h</text>
</g>
<!-- Node0&#45;&gt;Node3 -->
<g id="edge62" class="edge"><title>Node0&#45;&gt;Node3</title>
<path fill="none" stroke="midnightblue" d="M618.236,-392.437C580.247,-383.942 521.137,-370.176 470.492,-356 341.687,-319.946 190.882,-268.998 125.499,-246.473"/>
<polygon fill="midnightblue" stroke="midnightblue" points="126.35,-243.064 115.755,-243.109 124.065,-249.681 126.35,-243.064"/>
</g>
<!-- Node4 -->
<g id="node5" class="node"><title>Node4</title>
<g id="a_node5"><a xlink:href="serialize_8h.html" target="_top" xlink:title="serialize.h">
<polygon fill="white" stroke="black" points="133.992,-224.5 133.992,-243.5 194.992,-243.5 194.992,-224.5 133.992,-224.5"/>
<text text-anchor="middle" x="164.492" y="-231.5" font-family="Helvetica,sans-Serif" font-size="10.00">serialize.h</text>
</a>
</g>
</g>
<!-- Node0&#45;&gt;Node4 -->
<g id="edge63" class="edge"><title>Node0&#45;&gt;Node4</title>
<path fill="none" stroke="midnightblue" d="M632.024,-392.425C550.125,-364.848 293.406,-278.407 199.417,-246.76"/>
<polygon fill="midnightblue" stroke="midnightblue" points="200.401,-243.398 189.807,-243.524 198.167,-250.032 200.401,-243.398"/>
</g>
<!-- Node42 -->
<g id="node43" class="node"><title>Node42</title>
<polygon fill="white" stroke="#bfbfbf" points="1013.49,-336.5 1013.49,-355.5 1051.49,-355.5 1051.49,-336.5 1013.49,-336.5"/>
<text text-anchor="middle" x="1032.49" y="-343.5" font-family="Helvetica,sans-Serif" font-size="10.00">util.h</text>
</g>
<!-- Node0&#45;&gt;Node42 -->
<g id="edge64" class="edge"><title>Node0&#45;&gt;Node42</title>
<path fill="none" stroke="midnightblue" d="M715.153,-396.755C782.366,-391.088 896.814,-379.216 1003.38,-355.883"/>
<polygon fill="midnightblue" stroke="midnightblue" points="1004.34,-359.255 1013.34,-353.664 1002.82,-352.423 1004.34,-359.255"/>
</g>
<!-- Node2 -->
<g id="node3" class="node"><title>Node2</title>
<g id="a_node3"><a xlink:href="bls_8h.html" target="_top" xlink:title="bls.h">
<polygon fill="white" stroke="black" points="609.492,-280.5 609.492,-299.5 647.492,-299.5 647.492,-280.5 609.492,-280.5"/>
<text text-anchor="middle" x="628.492" y="-287.5" font-family="Helvetica,sans-Serif" font-size="10.00">bls.h</text>
</a>
</g>
</g>
<!-- Node1&#45;&gt;Node2 -->
<g id="edge2" class="edge"><title>Node1&#45;&gt;Node2</title>
<path fill="none" stroke="midnightblue" d="M923.439,-339.118C857.368,-328.339 718.119,-305.622 657.601,-295.749"/>
<polygon fill="midnightblue" stroke="midnightblue" points="658.017,-292.271 647.584,-294.115 656.89,-299.179 658.017,-292.271"/>
</g>
<!-- Node34 -->
<g id="node35" class="node"><title>Node34</title>
<g id="a_node35"><a xlink:href="ctpl_8h.html" target="_top" xlink:title="ctpl.h">
<polygon fill="white" stroke="black" points="1236.99,-280.5 1236.99,-299.5 1277.99,-299.5 1277.99,-280.5 1236.99,-280.5"/>
<text text-anchor="middle" x="1257.49" y="-287.5" font-family="Helvetica,sans-Serif" font-size="10.00">ctpl.h</text>
</a>
</g>
</g>
<!-- Node1&#45;&gt;Node34 -->
<g id="edge49" class="edge"><title>Node1&#45;&gt;Node34</title>
<path fill="none" stroke="midnightblue" d="M995.828,-337.663C998.758,-337.093 1001.67,-336.532 1004.49,-336 1084.58,-320.871 1179.2,-304.419 1226.83,-296.236"/>
<polygon fill="midnightblue" stroke="midnightblue" points="1227.54,-299.666 1236.8,-294.526 1226.36,-292.766 1227.54,-299.666"/>
</g>
<!-- Node39 -->
<g id="node40" class="node"><title>Node39</title>
<polygon fill="white" stroke="#bfbfbf" points="1574.99,-224.5 1574.99,-243.5 1615.99,-243.5 1615.99,-224.5 1574.99,-224.5"/>
<text text-anchor="middle" x="1595.49" y="-231.5" font-family="Helvetica,sans-Serif" font-size="10.00">future</text>
</g>
<!-- Node1&#45;&gt;Node39 -->
<g id="edge59" class="edge"><title>Node1&#45;&gt;Node39</title>
<path fill="none" stroke="midnightblue" d="M995.801,-337.51C998.737,-336.974 1001.66,-336.463 1004.49,-336 1129.18,-315.598 1161.81,-320.445 1286.49,-300 1408.13,-280.054 1441.13,-274.907 1565.03,-243.926"/>
<polygon fill="midnightblue" stroke="midnightblue" points="1566.06,-247.278 1574.9,-241.452 1564.35,-240.488 1566.06,-247.278"/>
</g>
<!-- Node40 -->
<g id="node41" class="node"><title>Node40</title>
<polygon fill="white" stroke="#bfbfbf" points="937.492,-224.5 937.492,-243.5 981.492,-243.5 981.492,-224.5 937.492,-224.5"/>
<text text-anchor="middle" x="959.492" y="-231.5" font-family="Helvetica,sans-Serif" font-size="10.00">mutex</text>
</g>
<!-- Node1&#45;&gt;Node40 -->
<g id="edge60" class="edge"><title>Node1&#45;&gt;Node40</title>
<path fill="none" stroke="midnightblue" d="M959.492,-336.368C959.492,-318.617 959.492,-277.666 959.492,-253.597"/>
<polygon fill="midnightblue" stroke="midnightblue" points="962.992,-253.591 959.492,-243.591 955.992,-253.591 962.992,-253.591"/>
</g>
<!-- Node41 -->
<g id="node42" class="node"><title>Node41</title>
<polygon fill="white" stroke="#bfbfbf" points="999.492,-224.5 999.492,-243.5 1125.49,-243.5 1125.49,-224.5 999.492,-224.5"/>
<text text-anchor="middle" x="1062.49" y="-231.5" font-family="Helvetica,sans-Serif" font-size="10.00">boost/lockfree/queue.hpp</text>
</g>
<!-- Node1&#45;&gt;Node41 -->
<g id="edge61" class="edge"><title>Node1&#45;&gt;Node41</title>
<path fill="none" stroke="midnightblue" d="M967.574,-336.368C984.797,-317.974 1025.34,-274.671 1047.46,-251.052"/>
<polygon fill="midnightblue" stroke="midnightblue" points="1050.17,-253.283 1054.45,-243.591 1045.06,-248.499 1050.17,-253.283"/>
</g>
<!-- Node2&#45;&gt;Node3 -->
<g id="edge3" class="edge"><title>Node2&#45;&gt;Node3</title>
<path fill="none" stroke="midnightblue" d="M609.092,-288.558C542.772,-286.777 318.954,-278.559 125.837,-243.922"/>
<polygon fill="midnightblue" stroke="midnightblue" points="126.259,-240.442 115.793,-242.092 125.003,-247.328 126.259,-240.442"/>
</g>
<!-- Node2&#45;&gt;Node4 -->
<g id="edge4" class="edge"><title>Node2&#45;&gt;Node4</title>
<path fill="none" stroke="midnightblue" d="M609.369,-287.762C550.615,-283.792 367.421,-270.183 205.158,-243.912"/>
<polygon fill="midnightblue" stroke="midnightblue" points="205.43,-240.409 194.995,-242.245 204.297,-247.317 205.43,-240.409"/>
</g>
<!-- Node23 -->
<g id="node24" class="node"><title>Node23</title>
<g id="a_node24"><a xlink:href="uint256_8h.html" target="_top" xlink:title="uint256.h">
<polygon fill="white" stroke="black" points="1219.49,-224.5 1219.49,-243.5 1275.49,-243.5 1275.49,-224.5 1219.49,-224.5"/>
<text text-anchor="middle" x="1247.49" y="-231.5" font-family="Helvetica,sans-Serif" font-size="10.00">uint256.h</text>
</a>
</g>
</g>
<!-- Node2&#45;&gt;Node23 -->
<g id="edge28" class="edge"><title>Node2&#45;&gt;Node23</title>
<path fill="none" stroke="midnightblue" d="M647.696,-287.325C734.556,-279.747 1091.54,-248.605 1209.48,-238.316"/>
<polygon fill="midnightblue" stroke="midnightblue" points="1209.83,-241.799 1219.49,-237.443 1209.22,-234.825 1209.83,-241.799"/>
</g>
<!-- Node27 -->
<g id="node28" class="node"><title>Node27</title>
<g id="a_node28"><a xlink:href="utilstrencodings_8h.html" target="_top" xlink:title="utilstrencodings.h">
<polygon fill="white" stroke="black" points="826.992,-224.5 826.992,-243.5 919.992,-243.5 919.992,-224.5 826.992,-224.5"/>
<text text-anchor="middle" x="873.492" y="-231.5" font-family="Helvetica,sans-Serif" font-size="10.00">utilstrencodings.h</text>
</a>
</g>
</g>
<!-- Node2&#45;&gt;Node27 -->
<g id="edge39" class="edge"><title>Node2&#45;&gt;Node27</title>
<path fill="none" stroke="midnightblue" d="M647.716,-284.763C685.444,-276.447 770.219,-257.762 824.479,-245.803"/>
<polygon fill="midnightblue" stroke="midnightblue" points="825.557,-249.149 834.569,-243.579 824.05,-242.313 825.557,-249.149"/>
</g>
<!-- Node28 -->
<g id="node29" class="node"><title>Node28</title>
<polygon fill="white" stroke="#bfbfbf" points="213.492,-224.5 213.492,-243.5 295.492,-243.5 295.492,-224.5 213.492,-224.5"/>
<text text-anchor="middle" x="254.492" y="-231.5" font-family="Helvetica,sans-Serif" font-size="10.00">chiabls/bls.hpp</text>
</g>
<!-- Node2&#45;&gt;Node28 -->
<g id="edge43" class="edge"><title>Node2&#45;&gt;Node28</title>
<path fill="none" stroke="midnightblue" d="M609.462,-286.628C560.786,-280.503 427.577,-263.384 305.902,-244.172"/>
<polygon fill="midnightblue" stroke="midnightblue" points="306.095,-240.659 295.67,-242.547 304.997,-247.572 306.095,-240.659"/>
</g>
<!-- Node29 -->
<g id="node30" class="node"><title>Node29</title>
<polygon fill="white" stroke="#bfbfbf" points="313.492,-224.5 313.492,-243.5 427.492,-243.5 427.492,-224.5 313.492,-224.5"/>
<text text-anchor="middle" x="370.492" y="-231.5" font-family="Helvetica,sans-Serif" font-size="10.00">chiabls/privatekey.hpp</text>
</g>
<!-- Node2&#45;&gt;Node29 -->
<g id="edge44" class="edge"><title>Node2&#45;&gt;Node29</title>
<path fill="none" stroke="midnightblue" d="M609.1,-284.941C569.633,-276.681 478.849,-257.679 421.334,-245.641"/>
<polygon fill="midnightblue" stroke="midnightblue" points="421.857,-242.175 411.352,-243.552 420.423,-249.027 421.857,-242.175"/>
</g>
<!-- Node30 -->
<g id="node31" class="node"><title>Node30</title>
<polygon fill="white" stroke="#bfbfbf" points="445.492,-224.5 445.492,-243.5 555.492,-243.5 555.492,-224.5 445.492,-224.5"/>
<text text-anchor="middle" x="500.492" y="-231.5" font-family="Helvetica,sans-Serif" font-size="10.00">chiabls/publickey.hpp</text>
</g>
<!-- Node2&#45;&gt;Node30 -->
<g id="edge45" class="edge"><title>Node2&#45;&gt;Node30</title>
<path fill="none" stroke="midnightblue" d="M609.329,-280.916C588.488,-272.123 554.9,-257.953 530.543,-247.678"/>
<polygon fill="midnightblue" stroke="midnightblue" points="531.633,-244.339 521.059,-243.677 528.912,-250.789 531.633,-244.339"/>
</g>
<!-- Node31 -->
<g id="node32" class="node"><title>Node31</title>
<polygon fill="white" stroke="#bfbfbf" points="573.992,-224.5 573.992,-243.5 682.992,-243.5 682.992,-224.5 573.992,-224.5"/>
<text text-anchor="middle" x="628.492" y="-231.5" font-family="Helvetica,sans-Serif" font-size="10.00">chiabls/signature.hpp</text>
</g>
<!-- Node2&#45;&gt;Node31 -->
<g id="edge46" class="edge"><title>Node2&#45;&gt;Node31</title>
<path fill="none" stroke="midnightblue" d="M628.492,-280.083C628.492,-273.006 628.492,-262.861 628.492,-253.986"/>
<polygon fill="midnightblue" stroke="midnightblue" points="631.992,-253.751 628.492,-243.751 624.992,-253.751 631.992,-253.751"/>
</g>
<!-- Node32 -->
<g id="node33" class="node"><title>Node32</title>
<polygon fill="white" stroke="#bfbfbf" points="701.492,-224.5 701.492,-243.5 739.492,-243.5 739.492,-224.5 701.492,-224.5"/>
<text text-anchor="middle" x="720.492" y="-231.5" font-family="Helvetica,sans-Serif" font-size="10.00">array</text>
</g>
<!-- Node2&#45;&gt;Node32 -->
<g id="edge47" class="edge"><title>Node2&#45;&gt;Node32</title>
<path fill="none" stroke="midnightblue" d="M643.273,-280.324C657.759,-271.822 680.065,-258.729 696.985,-248.797"/>
<polygon fill="midnightblue" stroke="midnightblue" points="698.894,-251.735 705.747,-243.655 695.351,-245.698 698.894,-251.735"/>
</g>
<!-- Node33 -->
<g id="node34" class="node"><title>Node33</title>
<polygon fill="white" stroke="#bfbfbf" points="757.992,-224.5 757.992,-243.5 808.992,-243.5 808.992,-224.5 757.992,-224.5"/>
<text text-anchor="middle" x="783.492" y="-231.5" font-family="Helvetica,sans-Serif" font-size="10.00">unistd.h</text>
</g>
<!-- Node2&#45;&gt;Node33 -->
<g id="edge48" class="edge"><title>Node2&#45;&gt;Node33</title>
<path fill="none" stroke="midnightblue" d="M647.498,-282.379C672.809,-273.56 718.023,-257.808 749.33,-246.901"/>
<polygon fill="midnightblue" stroke="midnightblue" points="750.672,-250.14 758.964,-243.545 748.369,-243.53 750.672,-250.14"/>
</g>
<!-- Node5 -->
<g id="node6" class="node"><title>Node5</title>
<g id="a_node6"><a xlink:href="endian_8h.html" target="_top" xlink:title="compat/endian.h">
<polygon fill="white" stroke="black" points="653.992,-112.5 653.992,-131.5 742.992,-131.5 742.992,-112.5 653.992,-112.5"/>
<text text-anchor="middle" x="698.492" y="-119.5" font-family="Helvetica,sans-Serif" font-size="10.00">compat/endian.h</text>
</a>
</g>
</g>
<!-- Node4&#45;&gt;Node5 -->
<g id="edge5" class="edge"><title>Node4&#45;&gt;Node5</title>
<path fill="none" stroke="midnightblue" d="M194.997,-225.765C198.193,-225.118 201.402,-224.514 204.492,-224 350.025,-199.769 391.29,-223.5 534.492,-188 584.87,-175.511 640.418,-151.072 672.214,-135.978"/>
<polygon fill="midnightblue" stroke="midnightblue" points="673.79,-139.104 681.287,-131.617 670.758,-132.795 673.79,-139.104"/>
</g>
<!-- Node6 -->
<g id="node7" class="node"><title>Node6</title>
<polygon fill="white" stroke="#bfbfbf" points="730.992,-0.5 730.992,-19.5 779.992,-19.5 779.992,-0.5 730.992,-0.5"/>
<text text-anchor="middle" x="755.492" y="-7.5" font-family="Helvetica,sans-Serif" font-size="10.00">stdint.h</text>
</g>
<!-- Node4&#45;&gt;Node6 -->
<g id="edge17" class="edge"><title>Node4&#45;&gt;Node6</title>
<path fill="none" stroke="midnightblue" d="M133.674,-225.293C88.5643,-213.867 9.43925,-193.22 5.49164,-188 -12.0023,-164.868 17.9731,-126.202 32.4916,-112 75.4296,-69.9973 97.3088,-70.9216 155.492,-56 263.684,-28.2529 609.811,-15.4613 720.853,-12.0014"/>
<polygon fill="midnightblue" stroke="midnightblue" points="720.961,-15.4998 730.849,-11.6955 720.747,-8.50307 720.961,-15.4998"/>
</g>
<!-- Node8 -->
<g id="node9" class="node"><title>Node8</title>
<polygon fill="white" stroke="#bfbfbf" points="136.492,-168.5 136.492,-187.5 192.492,-187.5 192.492,-168.5 136.492,-168.5"/>
<text text-anchor="middle" x="164.492" y="-175.5" font-family="Helvetica,sans-Serif" font-size="10.00">algorithm</text>
</g>
<!-- Node4&#45;&gt;Node8 -->
<g id="edge9" class="edge"><title>Node4&#45;&gt;Node8</title>
<path fill="none" stroke="midnightblue" d="M164.492,-224.083C164.492,-217.006 164.492,-206.861 164.492,-197.986"/>
<polygon fill="midnightblue" stroke="midnightblue" points="167.992,-197.751 164.492,-187.751 160.992,-197.751 167.992,-197.751"/>
</g>
<!-- Node9 -->
<g id="node10" class="node"><title>Node9</title>
<polygon fill="white" stroke="#bfbfbf" points="184.492,-112.5 184.492,-131.5 236.492,-131.5 236.492,-112.5 184.492,-112.5"/>
<text text-anchor="middle" x="210.492" y="-119.5" font-family="Helvetica,sans-Serif" font-size="10.00">assert.h</text>
</g>
<!-- Node4&#45;&gt;Node9 -->
<g id="edge10" class="edge"><title>Node4&#45;&gt;Node9</title>
<path fill="none" stroke="midnightblue" d="M152.987,-224.105C138.175,-211.527 115.668,-187.86 127.492,-168 137.821,-150.65 157.428,-139.578 174.993,-132.759"/>
<polygon fill="midnightblue" stroke="midnightblue" points="176.216,-136.039 184.469,-129.395 173.874,-129.442 176.216,-136.039"/>
</g>
<!-- Node10 -->
<g id="node11" class="node"><title>Node10</title>
<polygon fill="white" stroke="#bfbfbf" points="209.992,-168.5 209.992,-187.5 238.992,-187.5 238.992,-168.5 209.992,-168.5"/>
<text text-anchor="middle" x="224.492" y="-175.5" font-family="Helvetica,sans-Serif" font-size="10.00">ios</text>
</g>
<!-- Node4&#45;&gt;Node10 -->
<g id="edge11" class="edge"><title>Node4&#45;&gt;Node10</title>
<path fill="none" stroke="midnightblue" d="M174.132,-224.324C183.001,-216.341 196.366,-204.313 207.1,-194.653"/>
<polygon fill="midnightblue" stroke="midnightblue" points="209.585,-197.125 214.676,-187.834 204.902,-191.922 209.585,-197.125"/>
</g>
<!-- Node11 -->
<g id="node12" class="node"><title>Node11</title>
<polygon fill="white" stroke="#bfbfbf" points="257.492,-168.5 257.492,-187.5 297.492,-187.5 297.492,-168.5 257.492,-168.5"/>
<text text-anchor="middle" x="277.492" y="-175.5" font-family="Helvetica,sans-Serif" font-size="10.00">limits</text>
</g>
<!-- Node4&#45;&gt;Node11 -->
<g id="edge12" class="edge"><title>Node4&#45;&gt;Node11</title>
<path fill="none" stroke="midnightblue" d="M182.397,-224.444C200.746,-215.675 229.497,-201.935 250.585,-191.858"/>
<polygon fill="midnightblue" stroke="midnightblue" points="252.157,-194.986 259.67,-187.516 249.138,-188.67 252.157,-194.986"/>
</g>
<!-- Node12 -->
<g id="node13" class="node"><title>Node12</title>
<polygon fill="white" stroke="#bfbfbf" points="315.992,-168.5 315.992,-187.5 344.992,-187.5 344.992,-168.5 315.992,-168.5"/>
<text text-anchor="middle" x="330.492" y="-175.5" font-family="Helvetica,sans-Serif" font-size="10.00">list</text>
</g>
<!-- Node4&#45;&gt;Node12 -->
<g id="edge13" class="edge"><title>Node4&#45;&gt;Node12</title>
<path fill="none" stroke="midnightblue" d="M192.923,-224.465C219.782,-216.298 261.391,-203.381 306.205,-187.968"/>
<polygon fill="midnightblue" stroke="midnightblue" points="307.507,-191.221 315.812,-184.642 305.217,-184.606 307.507,-191.221"/>
</g>
<!-- Node13 -->
<g id="node14" class="node"><title>Node13</title>
<polygon fill="white" stroke="#bfbfbf" points="362.992,-168.5 362.992,-187.5 397.992,-187.5 397.992,-168.5 362.992,-168.5"/>
<text text-anchor="middle" x="380.492" y="-175.5" font-family="Helvetica,sans-Serif" font-size="10.00">map</text>
</g>
<!-- Node4&#45;&gt;Node13 -->
<g id="edge14" class="edge"><title>Node4&#45;&gt;Node13</title>
<path fill="none" stroke="midnightblue" d="M195.339,-226.003C237.341,-216.422 311.223,-199.361 352.962,-187.912"/>
<polygon fill="midnightblue" stroke="midnightblue" points="354.165,-191.21 362.842,-185.131 352.268,-184.472 354.165,-191.21"/>
</g>
<!-- Node14 -->
<g id="node15" class="node"><title>Node14</title>
<polygon fill="white" stroke="#bfbfbf" points="692.492,-168.5 692.492,-187.5 744.492,-187.5 744.492,-168.5 692.492,-168.5"/>
<text text-anchor="middle" x="718.492" y="-175.5" font-family="Helvetica,sans-Serif" font-size="10.00">memory</text>
</g>
<!-- Node4&#45;&gt;Node14 -->
<g id="edge15" class="edge"><title>Node4&#45;&gt;Node14</title>
<path fill="none" stroke="midnightblue" d="M195.42,-225.598C198.475,-225 201.537,-224.453 204.492,-224 394.929,-194.784 444.717,-206.512 636.492,-188 651.519,-186.549 668.074,-184.767 682.351,-183.173"/>
<polygon fill="midnightblue" stroke="midnightblue" points="682.745,-186.651 692.29,-182.052 681.961,-179.695 682.745,-186.651"/>
</g>
<!-- Node15 -->
<g id="node16" class="node"><title>Node15</title>
<polygon fill="white" stroke="#bfbfbf" points="416.492,-168.5 416.492,-187.5 446.492,-187.5 446.492,-168.5 416.492,-168.5"/>
<text text-anchor="middle" x="431.492" y="-175.5" font-family="Helvetica,sans-Serif" font-size="10.00">set</text>
</g>
<!-- Node4&#45;&gt;Node15 -->
<g id="edge16" class="edge"><title>Node4&#45;&gt;Node15</title>
<path fill="none" stroke="midnightblue" d="M195.036,-225.979C198.225,-225.291 201.421,-224.619 204.492,-224 293.887,-205.987 318.387,-211.528 406.492,-188 406.592,-187.973 406.692,-187.946 406.793,-187.919"/>
<polygon fill="midnightblue" stroke="midnightblue" points="407.794,-191.273 416.285,-184.937 405.696,-184.595 407.794,-191.273"/>
</g>
<!-- Node16 -->
<g id="node17" class="node"><title>Node16</title>
<polygon fill="white" stroke="#bfbfbf" points="821.992,-168.5 821.992,-187.5 862.992,-187.5 862.992,-168.5 821.992,-168.5"/>
<text text-anchor="middle" x="842.492" y="-175.5" font-family="Helvetica,sans-Serif" font-size="10.00">string</text>
</g>
<!-- Node4&#45;&gt;Node16 -->
<g id="edge18" class="edge"><title>Node4&#45;&gt;Node16</title>
<path fill="none" stroke="midnightblue" d="M195.412,-225.543C198.468,-224.957 201.533,-224.427 204.492,-224 446.506,-189.056 509.812,-208.304 753.492,-188 772.845,-186.387 794.526,-184.203 811.644,-182.39"/>
<polygon fill="midnightblue" stroke="midnightblue" points="812.081,-185.863 821.651,-181.317 811.335,-178.903 812.081,-185.863"/>
</g>
<!-- Node17 -->
<g id="node18" class="node"><title>Node17</title>
<polygon fill="white" stroke="#bfbfbf" points="507.992,-112.5 507.992,-131.5 556.992,-131.5 556.992,-112.5 507.992,-112.5"/>
<text text-anchor="middle" x="532.492" y="-119.5" font-family="Helvetica,sans-Serif" font-size="10.00">string.h</text>
</g>
<!-- Node4&#45;&gt;Node17 -->
<g id="edge19" class="edge"><title>Node4&#45;&gt;Node17</title>
<path fill="none" stroke="midnightblue" d="M195.001,-225.788C198.196,-225.137 201.404,-224.526 204.492,-224 272.642,-212.396 460.671,-232.599 513.492,-188 526.806,-176.758 531.072,-156.745 532.304,-141.885"/>
<polygon fill="midnightblue" stroke="midnightblue" points="535.807,-141.903 532.755,-131.758 528.814,-141.592 535.807,-141.903"/>
</g>
<!-- Node18 -->
<g id="node19" class="node"><title>Node18</title>
<polygon fill="white" stroke="#bfbfbf" points="464.492,-168.5 464.492,-187.5 504.492,-187.5 504.492,-168.5 464.492,-168.5"/>
<text text-anchor="middle" x="484.492" y="-175.5" font-family="Helvetica,sans-Serif" font-size="10.00">utility</text>
</g>
<!-- Node4&#45;&gt;Node18 -->
<g id="edge20" class="edge"><title>Node4&#45;&gt;Node18</title>
<path fill="none" stroke="midnightblue" d="M195.016,-225.874C198.209,-225.206 201.412,-224.567 204.492,-224 314.891,-203.664 344.873,-212.195 454.492,-188 454.591,-187.978 454.691,-187.956 454.791,-187.934"/>
<polygon fill="midnightblue" stroke="midnightblue" points="455.444,-191.379 464.266,-185.512 453.71,-184.597 455.444,-191.379"/>
</g>
<!-- Node19 -->
<g id="node20" class="node"><title>Node19</title>
<polygon fill="white" stroke="#bfbfbf" points="881.492,-168.5 881.492,-187.5 925.492,-187.5 925.492,-168.5 881.492,-168.5"/>
<text text-anchor="middle" x="903.492" y="-175.5" font-family="Helvetica,sans-Serif" font-size="10.00">vector</text>
</g>
<!-- Node4&#45;&gt;Node19 -->
<g id="edge21" class="edge"><title>Node4&#45;&gt;Node19</title>
<path fill="none" stroke="midnightblue" d="M195.407,-225.507C198.464,-224.928 201.53,-224.41 204.492,-224 495.258,-183.731 576.777,-235.299 871.14,-187.594"/>
<polygon fill="midnightblue" stroke="midnightblue" points="871.955,-191.007 881.254,-185.93 870.818,-184.1 871.955,-191.007"/>
</g>
<!-- Node20 -->
<g id="node21" class="node"><title>Node20</title>
<g id="a_node21"><a xlink:href="prevector_8h.html" target="_top" xlink:title="prevector.h">
<polygon fill="white" stroke="black" points="14.9916,-168.5 14.9916,-187.5 79.9916,-187.5 79.9916,-168.5 14.9916,-168.5"/>
<text text-anchor="middle" x="47.4916" y="-175.5" font-family="Helvetica,sans-Serif" font-size="10.00">prevector.h</text>
</a>
</g>
</g>
<!-- Node4&#45;&gt;Node20 -->
<g id="edge22" class="edge"><title>Node4&#45;&gt;Node20</title>
<path fill="none" stroke="midnightblue" d="M145.953,-224.444C126.869,-215.636 96.9167,-201.812 75.0559,-191.722"/>
<polygon fill="midnightblue" stroke="midnightblue" points="76.4902,-188.529 65.9439,-187.516 73.5568,-194.885 76.4902,-188.529"/>
</g>
<!-- Node5&#45;&gt;Node6 -->
<g id="edge6" class="edge"><title>Node5&#45;&gt;Node6</title>
<path fill="none" stroke="midnightblue" d="M707.28,-112.453C715.604,-103.918 727.924,-90.0751 735.492,-76 743.354,-61.3764 748.614,-43.2051 751.757,-29.7964"/>
<polygon fill="midnightblue" stroke="midnightblue" points="755.219,-30.3495 753.911,-19.8356 748.377,-28.87 755.219,-30.3495"/>
</g>
<!-- Node7 -->
<g id="node8" class="node"><title>Node7</title>
<g id="a_node8"><a xlink:href="byteswap_8h.html" target="_top" xlink:title="compat/byteswap.h">
<polygon fill="white" stroke="black" points="625.492,-56.5 625.492,-75.5 727.492,-75.5 727.492,-56.5 625.492,-56.5"/>
<text text-anchor="middle" x="676.492" y="-63.5" font-family="Helvetica,sans-Serif" font-size="10.00">compat/byteswap.h</text>
</a>
</g>
</g>
<!-- Node5&#45;&gt;Node7 -->
<g id="edge7" class="edge"><title>Node5&#45;&gt;Node7</title>
<path fill="none" stroke="midnightblue" d="M694.859,-112.083C691.879,-104.77 687.566,-94.1814 683.867,-85.1034"/>
<polygon fill="midnightblue" stroke="midnightblue" points="687.071,-83.6914 680.057,-75.7511 680.589,-86.3326 687.071,-83.6914"/>
</g>
<!-- Node7&#45;&gt;Node6 -->
<g id="edge8" class="edge"><title>Node7&#45;&gt;Node6</title>
<path fill="none" stroke="midnightblue" d="M689.184,-56.324C701.393,-47.979 720.07,-35.2122 734.495,-25.3524"/>
<polygon fill="midnightblue" stroke="midnightblue" points="736.55,-28.1871 742.83,-19.6545 732.6,-22.4082 736.55,-28.1871"/>
</g>
<!-- Node20&#45;&gt;Node6 -->
<g id="edge25" class="edge"><title>Node20&#45;&gt;Node6</title>
<path fill="none" stroke="midnightblue" d="M43.484,-168.195C37.8867,-154.415 29.8536,-127.709 43.4916,-112 88.5659,-60.0805 583.259,-22.729 720.415,-13.3174"/>
<polygon fill="midnightblue" stroke="midnightblue" points="721.016,-16.7847 730.755,-12.6145 720.541,-9.80084 721.016,-16.7847"/>
</g>
<!-- Node20&#45;&gt;Node9 -->
<g id="edge23" class="edge"><title>Node20&#45;&gt;Node9</title>
<path fill="none" stroke="midnightblue" d="M73.3195,-168.444C100.741,-159.359 144.269,-144.939 174.924,-134.783"/>
<polygon fill="midnightblue" stroke="midnightblue" points="176.393,-137.984 184.785,-131.516 174.191,-131.339 176.393,-137.984"/>
</g>
<!-- Node20&#45;&gt;Node17 -->
<g id="edge26" class="edge"><title>Node20&#45;&gt;Node17</title>
<path fill="none" stroke="midnightblue" d="M80.1858,-173.312C94.6778,-171.679 111.935,-169.739 127.492,-168 264.584,-152.672 427.799,-134.587 497.807,-126.838"/>
<polygon fill="midnightblue" stroke="midnightblue" points="498.281,-130.307 507.836,-125.728 497.511,-123.349 498.281,-130.307"/>
</g>
<!-- Node21 -->
<g id="node22" class="node"><title>Node21</title>
<polygon fill="white" stroke="#bfbfbf" points="52.4916,-112.5 52.4916,-131.5 100.492,-131.5 100.492,-112.5 52.4916,-112.5"/>
<text text-anchor="middle" x="76.4916" y="-119.5" font-family="Helvetica,sans-Serif" font-size="10.00">stdlib.h</text>
</g>
<!-- Node20&#45;&gt;Node21 -->
<g id="edge24" class="edge"><title>Node20&#45;&gt;Node21</title>
<path fill="none" stroke="midnightblue" d="M52.2804,-168.083C56.25,-160.691 62.0167,-149.953 66.9264,-140.811"/>
<polygon fill="midnightblue" stroke="midnightblue" points="70.1442,-142.217 71.792,-131.751 63.9772,-138.905 70.1442,-142.217"/>
</g>
<!-- Node22 -->
<g id="node23" class="node"><title>Node22</title>
<polygon fill="white" stroke="#bfbfbf" points="118.992,-112.5 118.992,-131.5 165.992,-131.5 165.992,-112.5 118.992,-112.5"/>
<text text-anchor="middle" x="142.492" y="-119.5" font-family="Helvetica,sans-Serif" font-size="10.00">iterator</text>
</g>
<!-- Node20&#45;&gt;Node22 -->
<g id="edge27" class="edge"><title>Node20&#45;&gt;Node22</title>
<path fill="none" stroke="midnightblue" d="M62.755,-168.324C77.7131,-159.822 100.746,-146.729 118.218,-136.797"/>
<polygon fill="midnightblue" stroke="midnightblue" points="120.302,-139.639 127.266,-131.655 116.843,-133.553 120.302,-139.639"/>
</g>
<!-- Node23&#45;&gt;Node6 -->
<g id="edge32" class="edge"><title>Node23&#45;&gt;Node6</title>
<path fill="none" stroke="midnightblue" d="M1252.17,-224.476C1258.82,-211.082 1268.9,-184.894 1256.49,-168 1199.36,-90.232 894.031,-33.7087 790.134,-16.4847"/>
<polygon fill="midnightblue" stroke="midnightblue" points="790.595,-13.0136 780.16,-14.8499 789.462,-19.9214 790.595,-13.0136"/>
</g>
<!-- Node23&#45;&gt;Node9 -->
<g id="edge29" class="edge"><title>Node23&#45;&gt;Node9</title>
<path fill="none" stroke="midnightblue" d="M1219.27,-227.698C1212.47,-226.454 1205.23,-225.155 1198.49,-224 1098.24,-206.812 1069.17,-219.599 972.492,-188 953.976,-181.948 952.276,-173.158 933.492,-168 867.007,-149.742 383.924,-129.745 246.733,-124.385"/>
<polygon fill="midnightblue" stroke="midnightblue" points="246.857,-120.887 236.729,-123.996 246.585,-127.882 246.857,-120.887"/>
</g>
<!-- Node23&#45;&gt;Node16 -->
<g id="edge33" class="edge"><title>Node23&#45;&gt;Node16</title>
<path fill="none" stroke="midnightblue" d="M1219.28,-229.749C1141.52,-220.773 926.851,-195.875 873.058,-187.439"/>
<polygon fill="midnightblue" stroke="midnightblue" points="873.485,-183.96 863.029,-185.669 872.268,-190.854 873.485,-183.96"/>
</g>
<!-- Node23&#45;&gt;Node19 -->
<g id="edge34" class="edge"><title>Node23&#45;&gt;Node19</title>
<path fill="none" stroke="midnightblue" d="M1219.08,-226.604C1214.55,-225.672 1209.9,-224.769 1205.49,-224 1087.97,-203.487 1056.65,-210.502 939.492,-188 938.246,-187.761 936.979,-187.505 935.702,-187.237"/>
<polygon fill="midnightblue" stroke="midnightblue" points="936.402,-183.807 925.875,-185.002 934.85,-190.633 936.402,-183.807"/>
</g>
<!-- Node24 -->
<g id="node25" class="node"><title>Node24</title>
<polygon fill="white" stroke="#bfbfbf" points="1124.49,-168.5 1124.49,-187.5 1170.49,-187.5 1170.49,-168.5 1124.49,-168.5"/>
<text text-anchor="middle" x="1147.49" y="-175.5" font-family="Helvetica,sans-Serif" font-size="10.00">cstring</text>
</g>
<!-- Node23&#45;&gt;Node24 -->
<g id="edge30" class="edge"><title>Node23&#45;&gt;Node24</title>
<path fill="none" stroke="midnightblue" d="M1231.42,-224.324C1215.53,-215.743 1190.98,-202.486 1172.53,-192.522"/>
<polygon fill="midnightblue" stroke="midnightblue" points="1173.98,-189.326 1163.52,-187.655 1170.65,-195.486 1173.98,-189.326"/>
</g>
<!-- Node25 -->
<g id="node26" class="node"><title>Node25</title>
<polygon fill="white" stroke="#bfbfbf" points="1188.99,-168.5 1188.99,-187.5 1247.99,-187.5 1247.99,-168.5 1188.99,-168.5"/>
<text text-anchor="middle" x="1218.49" y="-175.5" font-family="Helvetica,sans-Serif" font-size="10.00">stdexcept</text>
</g>
<!-- Node23&#45;&gt;Node25 -->
<g id="edge31" class="edge"><title>Node23&#45;&gt;Node25</title>
<path fill="none" stroke="midnightblue" d="M1242.7,-224.083C1238.73,-216.691 1232.97,-205.953 1228.06,-196.811"/>
<polygon fill="midnightblue" stroke="midnightblue" points="1231.01,-194.905 1223.19,-187.751 1224.84,-198.217 1231.01,-194.905"/>
</g>
<!-- Node26 -->
<g id="node27" class="node"><title>Node26</title>
<g id="a_node27"><a xlink:href="common_8h.html" target="_top" xlink:title="crypto/common.h">
<polygon fill="white" stroke="black" points="981.492,-168.5 981.492,-187.5 1073.49,-187.5 1073.49,-168.5 981.492,-168.5"/>
<text text-anchor="middle" x="1027.49" y="-175.5" font-family="Helvetica,sans-Serif" font-size="10.00">crypto/common.h</text>
</a>
</g>
</g>
<!-- Node23&#45;&gt;Node26 -->
<g id="edge35" class="edge"><title>Node23&#45;&gt;Node26</title>
<path fill="none" stroke="midnightblue" d="M1219.18,-226.051C1181.93,-216.907 1116.04,-200.735 1072.07,-189.941"/>
<polygon fill="midnightblue" stroke="midnightblue" points="1072.76,-186.507 1062.21,-187.522 1071.09,-193.305 1072.76,-186.507"/>
</g>
<!-- Node26&#45;&gt;Node5 -->
<g id="edge38" class="edge"><title>Node26&#45;&gt;Node5</title>
<path fill="none" stroke="midnightblue" d="M981.399,-169.435C921.471,-159.598 816.941,-142.442 753.102,-131.963"/>
<polygon fill="midnightblue" stroke="midnightblue" points="753.653,-128.507 743.219,-130.341 752.52,-135.415 753.653,-128.507"/>
</g>
<!-- Node26&#45;&gt;Node6 -->
<g id="edge36" class="edge"><title>Node26&#45;&gt;Node6</title>
<path fill="none" stroke="midnightblue" d="M1013.25,-168.309C968.818,-141.192 832.471,-57.9802 778.16,-24.8345"/>
<polygon fill="midnightblue" stroke="midnightblue" points="779.951,-21.827 769.592,-19.6051 776.304,-27.8022 779.951,-21.827"/>
</g>
<!-- Node26&#45;&gt;Node17 -->
<g id="edge37" class="edge"><title>Node26&#45;&gt;Node17</title>
<path fill="none" stroke="midnightblue" d="M981.333,-169.858C976.662,-169.201 971.985,-168.569 967.492,-168 818.883,-149.178 640.963,-132.639 567.179,-126.044"/>
<polygon fill="midnightblue" stroke="midnightblue" points="567.335,-122.544 557.065,-125.144 566.715,-129.517 567.335,-122.544"/>
</g>
<!-- Node27&#45;&gt;Node6 -->
<g id="edge40" class="edge"><title>Node27&#45;&gt;Node6</title>
<path fill="none" stroke="midnightblue" d="M857.003,-224.408C843.515,-216.595 824.871,-203.874 813.492,-188 777.436,-137.707 762.875,-63.6973 757.821,-29.5327"/>
<polygon fill="midnightblue" stroke="midnightblue" points="761.281,-28.9974 756.454,-19.5657 754.346,-29.9485 761.281,-28.9974"/>
</g>
<!-- Node27&#45;&gt;Node16 -->
<g id="edge41" class="edge"><title>Node27&#45;&gt;Node16</title>
<path fill="none" stroke="midnightblue" d="M868.373,-224.083C864.084,-216.613 857.833,-205.724 852.549,-196.52"/>
<polygon fill="midnightblue" stroke="midnightblue" points="855.53,-194.681 847.515,-187.751 849.459,-198.166 855.53,-194.681"/>
</g>
<!-- Node27&#45;&gt;Node19 -->
<g id="edge42" class="edge"><title>Node27&#45;&gt;Node19</title>
<path fill="none" stroke="midnightblue" d="M878.446,-224.083C882.596,-216.613 888.645,-205.724 893.758,-196.52"/>
<polygon fill="midnightblue" stroke="midnightblue" points="896.833,-198.192 898.63,-187.751 890.714,-194.793 896.833,-198.192"/>
</g>
<!-- Node34&#45;&gt;Node14 -->
<g id="edge54" class="edge"><title>Node34&#45;&gt;Node14</title>
<path fill="none" stroke="midnightblue" d="M1239.34,-280.459C1221,-271.707 1191.96,-257.505 1167.49,-244 1152.48,-235.714 1150.74,-229.497 1134.49,-224 1116.59,-217.941 852.739,-191.981 754.762,-182.492"/>
<polygon fill="midnightblue" stroke="midnightblue" points="755.023,-179.001 744.733,-181.522 754.349,-185.968 755.023,-179.001"/>
</g>
<!-- Node34&#45;&gt;Node19 -->
<g id="edge53" class="edge"><title>Node34&#45;&gt;Node19</title>
<path fill="none" stroke="midnightblue" d="M1248.42,-280.143C1233.13,-265.786 1200.63,-237.664 1167.49,-224 1072.65,-184.898 1040.02,-208.461 939.492,-188 938.213,-187.74 936.912,-187.464 935.599,-187.178"/>
<polygon fill="midnightblue" stroke="midnightblue" points="936.039,-183.687 925.506,-184.831 934.453,-190.505 936.039,-183.687"/>
</g>
<!-- Node35 -->
<g id="node36" class="node"><title>Node35</title>
<polygon fill="white" stroke="#bfbfbf" points="1293.99,-224.5 1293.99,-243.5 1352.99,-243.5 1352.99,-224.5 1293.99,-224.5"/>
<text text-anchor="middle" x="1323.49" y="-231.5" font-family="Helvetica,sans-Serif" font-size="10.00">functional</text>
</g>
<!-- Node34&#45;&gt;Node35 -->
<g id="edge50" class="edge"><title>Node34&#45;&gt;Node35</title>
<path fill="none" stroke="midnightblue" d="M1268.1,-280.324C1277.95,-272.263 1292.84,-260.077 1304.71,-250.369"/>
<polygon fill="midnightblue" stroke="midnightblue" points="1307.17,-252.875 1312.69,-243.834 1302.74,-247.457 1307.17,-252.875"/>
</g>
<!-- Node36 -->
<g id="node37" class="node"><title>Node36</title>
<polygon fill="white" stroke="#bfbfbf" points="1371.49,-224.5 1371.49,-243.5 1415.49,-243.5 1415.49,-224.5 1371.49,-224.5"/>
<text text-anchor="middle" x="1393.49" y="-231.5" font-family="Helvetica,sans-Serif" font-size="10.00">thread</text>
</g>
<!-- Node34&#45;&gt;Node36 -->
<g id="edge51" class="edge"><title>Node34&#45;&gt;Node36</title>
<path fill="none" stroke="midnightblue" d="M1278.15,-280.799C1300.55,-271.903 1336.56,-257.604 1362.39,-247.349"/>
<polygon fill="midnightblue" stroke="midnightblue" points="1363.74,-250.58 1371.74,-243.637 1361.15,-244.074 1363.74,-250.58"/>
</g>
<!-- Node37 -->
<g id="node38" class="node"><title>Node37</title>
<polygon fill="white" stroke="#bfbfbf" points="1433.49,-224.5 1433.49,-243.5 1479.49,-243.5 1479.49,-224.5 1433.49,-224.5"/>
<text text-anchor="middle" x="1456.49" y="-231.5" font-family="Helvetica,sans-Serif" font-size="10.00">atomic</text>
</g>
<!-- Node34&#45;&gt;Node37 -->
<g id="edge52" class="edge"><title>Node34&#45;&gt;Node37</title>
<path fill="none" stroke="midnightblue" d="M1278.2,-283.398C1309.61,-274.896 1371.2,-258.22 1423.49,-244 1423.59,-243.973 1423.69,-243.945 1423.79,-243.918"/>
<polygon fill="midnightblue" stroke="midnightblue" points="1424.68,-247.303 1433.41,-241.299 1422.85,-240.549 1424.68,-247.303"/>
</g>
<!-- Node38 -->
<g id="node39" class="node"><title>Node38</title>
<polygon fill="white" stroke="#bfbfbf" points="1497.99,-224.5 1497.99,-243.5 1556.99,-243.5 1556.99,-224.5 1497.99,-224.5"/>
<text text-anchor="middle" x="1527.49" y="-231.5" font-family="Helvetica,sans-Serif" font-size="10.00">exception</text>
</g>
<!-- Node34&#45;&gt;Node38 -->
<g id="edge55" class="edge"><title>Node34&#45;&gt;Node38</title>
<path fill="none" stroke="midnightblue" d="M1278.25,-285.204C1317.21,-278.026 1404.2,-261.753 1487.79,-244.089"/>
<polygon fill="midnightblue" stroke="midnightblue" points="1488.65,-247.486 1497.7,-241.985 1487.2,-240.638 1488.65,-247.486"/>
</g>
<!-- Node34&#45;&gt;Node39 -->
<g id="edge56" class="edge"><title>Node34&#45;&gt;Node39</title>
<path fill="none" stroke="midnightblue" d="M1278.23,-287.03C1326.71,-282.202 1451.33,-268.502 1565.03,-243.787"/>
<polygon fill="midnightblue" stroke="midnightblue" points="1565.93,-247.172 1574.94,-241.598 1564.42,-240.337 1565.93,-247.172"/>
</g>
<!-- Node34&#45;&gt;Node40 -->
<g id="edge57" class="edge"><title>Node34&#45;&gt;Node40</title>
<path fill="none" stroke="midnightblue" d="M1236.9,-286.357C1193.38,-280.595 1088.72,-265.822 991.725,-244.066"/>
<polygon fill="midnightblue" stroke="midnightblue" points="992.289,-240.605 981.762,-241.8 990.737,-247.43 992.289,-240.605"/>
</g>
<!-- Node34&#45;&gt;Node41 -->
<g id="edge58" class="edge"><title>Node34&#45;&gt;Node41</title>
<path fill="none" stroke="midnightblue" d="M1236.62,-283.221C1204.92,-274.442 1144.02,-257.578 1103.31,-246.305"/>
<polygon fill="midnightblue" stroke="midnightblue" points="1104,-242.863 1093.43,-243.568 1102.13,-249.61 1104,-242.863"/>
</g>
</g>
</svg>
        <g id="navigator" transform="translate(0 0)" fill="#404254">
                <rect fill="#f2f5e9" fill-opacity="0.5" stroke="#606060" stroke-width=".5" x="0" y="0" width="60" height="60"/>
                <use id="zoomplus" xlink:href="#zoomPlus" x="17" y="9" onmousedown="handleZoom(evt,'in')"/>
                <use id="zoomminus" xlink:href="#zoomMin" x="42" y="9" onmousedown="handleZoom(evt,'out')"/>
                <use id="reset" xlink:href="#resetDef" x="30" y="36" onmousedown="handleReset()"/>
                <g id="arrowUp" xlink:href="#dirArrow" transform="translate(30 24)" onmousedown="handlePan(0,-1)">
                  <use xlink:href="#rim" fill="#404040">
                        <set attributeName="fill" to="#808080" begin="arrowUp.mouseover" end="arrowUp.mouseout"/>
                  </use>
                  <path fill="none" stroke="white" stroke-width="1.5" d="M0,-3.0v7 M-2.5,-0.5L0,-3.0L2.5,-0.5"/>
                </g>
                <g id="arrowRight" xlink:href="#dirArrow" transform="rotate(90) translate(36 -43)" onmousedown="handlePan(1,0)">
                  <use xlink:href="#rim" fill="#404040">
                        <set attributeName="fill" to="#808080" begin="arrowRight.mouseover" end="arrowRight.mouseout"/>
                  </use>
                  <path fill="none" stroke="white" stroke-width="1.5" d="M0,-3.0v7 M-2.5,-0.5L0,-3.0L2.5,-0.5"/>
                </g>
                <g id="arrowDown" xlink:href="#dirArrow" transform="rotate(180) translate(-30 -48)" onmousedown="handlePan(0,1)">
                  <use xlink:href="#rim" fill="#404040">
                        <set attributeName="fill" to="#808080" begin="arrowDown.mouseover" end="arrowDown.mouseout"/>
                  </use>
                  <path fill="none" stroke="white" stroke-width="1.5" d="M0,-3.0v7 M-2.5,-0.5L0,-3.0L2.5,-0.5"/>
                </g>
                <g id="arrowLeft" xlink:href="#dirArrow" transform="rotate(270) translate(-36 17)" onmousedown="handlePan(-1,0)">
                  <use xlink:href="#rim" fill="#404040">
                        <set attributeName="fill" to="#808080" begin="arrowLeft.mouseover" end="arrowLeft.mouseout"/>
                  </use>
                  <path fill="none" stroke="white" stroke-width="1.5" d="M0,-3.0v7 M-2.5,-0.5L0,-3.0L2.5,-0.5"/>
                </g>
        </g>
        <svg viewBox="0 0 15 15" width="100%" height="30px" preserveAspectRatio="xMaxYMin meet">
         <g id="arrow_out" transform="scale(0.3 0.3)">
          <a xlink:href="bls__worker_8cpp__incl_org.svg" target="_base">
           <rect id="button" ry="5" rx="5" y="6" x="6" height="38" width="38"
                fill="#f2f5e9" fill-opacity="0.5" stroke="#606060" stroke-width="1.0"/>
           <path id="arrow"
             d="M 11.500037,31.436501 C 11.940474,20.09759 22.043105,11.32322 32.158766,21.979434 L 37.068811,17.246167 C 37.068811,17.246167 37.088388,32 37.088388,32 L 22.160133,31.978069 C 22.160133,31.978069 26.997745,27.140456 26.997745,27.140456 C 18.528582,18.264221 13.291696,25.230495 11.500037,31.436501 z"
             style="fill:#404040;"/>
          </a>
         </g>
        </svg>
</svg>
