<?xml version="1.0" encoding="UTF-8" standalone="no"?>
<!DOCTYPE svg PUBLIC "-//W3C//DTD SVG 1.1//EN"
 "http://www.w3.org/Graphics/SVG/1.1/DTD/svg11.dtd">
<!-- Generated by graphviz version 2.36.0 (20140111.2315)
 -->
<!-- Title: src/bls/bls_worker.h Pages: 1 -->
<svg width="368pt" height="84pt"
 viewBox="0.00 0.00 368.00 84.00" xmlns="http://www.w3.org/2000/svg" xmlns:xlink="http://www.w3.org/1999/xlink">
<g id="graph0" class="graph" transform="scale(1 1) rotate(0) translate(4 80)">
<title>src/bls/bls_worker.h</title>
<polygon fill="white" stroke="none" points="-4,4 -4,-80 364,-80 364,4 -4,4"/>
<!-- Node41 -->
<g id="node1" class="node"><title>Node41</title>
<polygon fill="#bfbfbf" stroke="black" points="118,-56.5 118,-75.5 222,-75.5 222,-56.5 118,-56.5"/>
<text text-anchor="middle" x="170" y="-63.5" font-family="Helvetica,sans-Serif" font-size="10.00">src/bls/bls_worker.h</text>
</g>
<!-- Node42 -->
<g id="node2" class="node"><title>Node42</title>
<g id="a_node2"><a xlink:href="bench_2bls_8cpp.html" target="_top" xlink:title="src/bench/bls.cpp">
<polygon fill="white" stroke="black" points="0,-0.5 0,-19.5 94,-19.5 94,-0.5 0,-0.5"/>
<text text-anchor="middle" x="47" y="-7.5" font-family="Helvetica,sans-Serif" font-size="10.00">src/bench/bls.cpp</text>
</a>
</g>
</g>
<!-- Node41&#45;&gt;Node42 -->
<g id="edge1" class="edge"><title>Node41&#45;&gt;Node42</title>
<path fill="none" stroke="midnightblue" d="M141.227,-52.3678C118.193,-42.2553 86.5162,-28.3486 66.3985,-19.5164"/>
<polygon fill="midnightblue" stroke="midnightblue" points="139.947,-55.6283 150.51,-56.4435 142.761,-49.2188 139.947,-55.6283"/>
</g>
<!-- Node43 -->
<g id="node3" class="node"><title>Node43</title>
<g id="a_node3"><a xlink:href="bls__dkg_8cpp.html" target="_top" xlink:title="src/bench/bls_dkg.cpp">
<polygon fill="white" stroke="black" points="112.5,-0.5 112.5,-19.5 227.5,-19.5 227.5,-0.5 112.5,-0.5"/>
<text text-anchor="middle" x="170" y="-7.5" font-family="Helvetica,sans-Serif" font-size="10.00">src/bench/bls_dkg.cpp</text>
</a>
</g>
</g>
<!-- Node41&#45;&gt;Node43 -->
<g id="edge2" class="edge"><title>Node41&#45;&gt;Node43</title>
<path fill="none" stroke="midnightblue" d="M170,-45.8045C170,-36.9102 170,-26.7798 170,-19.7511"/>
<polygon fill="midnightblue" stroke="midnightblue" points="166.5,-46.083 170,-56.083 173.5,-46.083 166.5,-46.083"/>
</g>
<!-- Node44 -->
<g id="node4" class="node"><title>Node44</title>
<g id="a_node4"><a xlink:href="bls__worker_8cpp.html" target="_top" xlink:title="src/bls/bls_worker.cpp">
<polygon fill="white" stroke="black" points="245.5,-0.5 245.5,-19.5 360.5,-19.5 360.5,-0.5 245.5,-0.5"/>
<text text-anchor="middle" x="303" y="-7.5" font-family="Helvetica,sans-Serif" font-size="10.00">src/bls/bls_worker.cpp</text>
</a>
</g>
</g>
<!-- Node41&#45;&gt;Node44 -->
<g id="edge3" class="edge"><title>Node41&#45;&gt;Node44</title>
<path fill="none" stroke="midnightblue" d="M200.448,-52.6377C225.407,-42.504 260.077,-28.4274 282.024,-19.5164"/>
<polygon fill="midnightblue" stroke="midnightblue" points="199.023,-49.4387 191.074,-56.4435 201.656,-55.9245 199.023,-49.4387"/>
</g>
</g>
</svg>
