<?xml version="1.0" encoding="UTF-8" standalone="no"?>
<!DOCTYPE svg PUBLIC "-//W3C//DTD SVG 1.1//EN"
 "http://www.w3.org/Graphics/SVG/1.1/DTD/svg11.dtd">
<!-- Generated by graphviz version 2.36.0 (20140111.2315)
 -->
<!-- Title: src/bench/bls_dkg.cpp Pages: 1 -->
<svg width="2351pt" height="432pt"
 viewBox="0.00 0.00 2351.00 432.00" xmlns="http://www.w3.org/2000/svg" xmlns:xlink="http://www.w3.org/1999/xlink">
<g id="graph0" class="graph" transform="scale(1 1) rotate(0) translate(4 428)">
<title>src/bench/bls_dkg.cpp</title>
<polygon fill="white" stroke="none" points="-4,4 -4,-428 2347,-428 2347,4 -4,4"/>
<!-- Node0 -->
<g id="node1" class="node"><title>Node0</title>
<polygon fill="#bfbfbf" stroke="black" points="548.5,-404.5 548.5,-423.5 663.5,-423.5 663.5,-404.5 548.5,-404.5"/>
<text text-anchor="middle" x="606" y="-411.5" font-family="Helvetica,sans-Serif" font-size="10.00">src/bench/bls_dkg.cpp</text>
</g>
<!-- Node1 -->
<g id="node2" class="node"><title>Node1</title>
<g id="a_node2"><a xlink:href="bench_2bench_8h.html" target="_top" xlink:title="bench.h">
<polygon fill="white" stroke="black" points="271.5,-236.5 271.5,-255.5 322.5,-255.5 322.5,-236.5 271.5,-236.5"/>
<text text-anchor="middle" x="297" y="-243.5" font-family="Helvetica,sans-Serif" font-size="10.00">bench.h</text>
</a>
</g>
</g>
<!-- Node0&#45;&gt;Node1 -->
<g id="edge1" class="edge"><title>Node0&#45;&gt;Node1</title>
<path fill="none" stroke="midnightblue" d="M589.822,-404.309C539.137,-377.08 383.169,-293.292 321.992,-260.426"/>
<polygon fill="midnightblue" stroke="midnightblue" points="323.484,-257.254 313.018,-255.605 320.171,-263.421 323.484,-257.254"/>
</g>
<!-- Node7 -->
<g id="node8" class="node"><title>Node7</title>
<g id="a_node8"><a xlink:href="random_8h.html" target="_top" xlink:title="random.h">
<polygon fill="white" stroke="black" points="577.5,-292.5 577.5,-311.5 634.5,-311.5 634.5,-292.5 577.5,-292.5"/>
<text text-anchor="middle" x="606" y="-299.5" font-family="Helvetica,sans-Serif" font-size="10.00">random.h</text>
</a>
</g>
</g>
<!-- Node0&#45;&gt;Node7 -->
<g id="edge7" class="edge"><title>Node0&#45;&gt;Node7</title>
<path fill="none" stroke="midnightblue" d="M606,-404.368C606,-386.617 606,-345.666 606,-321.597"/>
<polygon fill="midnightblue" stroke="midnightblue" points="609.5,-321.591 606,-311.591 602.5,-321.591 609.5,-321.591"/>
</g>
<!-- Node18 -->
<g id="node19" class="node"><title>Node18</title>
<g id="a_node19"><a xlink:href="bls__worker_8h.html" target="_top" xlink:title="bls/bls_worker.h">
<polygon fill="white" stroke="black" points="1744,-348.5 1744,-367.5 1832,-367.5 1832,-348.5 1744,-348.5"/>
<text text-anchor="middle" x="1788" y="-355.5" font-family="Helvetica,sans-Serif" font-size="10.00">bls/bls_worker.h</text>
</a>
</g>
</g>
<!-- Node0&#45;&gt;Node18 -->
<g id="edge23" class="edge"><title>Node0&#45;&gt;Node18</title>
<path fill="none" stroke="midnightblue" d="M663.81,-410.359C865.643,-401.138 1537.35,-370.451 1733.67,-361.482"/>
<polygon fill="midnightblue" stroke="midnightblue" points="1733.92,-364.975 1743.75,-361.022 1733.6,-357.982 1733.92,-364.975"/>
</g>
<!-- Node2 -->
<g id="node3" class="node"><title>Node2</title>
<polygon fill="white" stroke="#bfbfbf" points="390.5,-174.5 390.5,-193.5 425.5,-193.5 425.5,-174.5 390.5,-174.5"/>
<text text-anchor="middle" x="408" y="-181.5" font-family="Helvetica,sans-Serif" font-size="10.00">map</text>
</g>
<!-- Node1&#45;&gt;Node2 -->
<g id="edge2" class="edge"><title>Node1&#45;&gt;Node2</title>
<path fill="none" stroke="midnightblue" d="M312.904,-236.403C331.285,-226.468 361.756,-209.997 383.245,-198.381"/>
<polygon fill="midnightblue" stroke="midnightblue" points="384.993,-201.415 392.126,-193.581 381.665,-195.257 384.993,-201.415"/>
</g>
<!-- Node3 -->
<g id="node4" class="node"><title>Node3</title>
<polygon fill="white" stroke="#bfbfbf" points="772.5,-174.5 772.5,-193.5 813.5,-193.5 813.5,-174.5 772.5,-174.5"/>
<text text-anchor="middle" x="793" y="-181.5" font-family="Helvetica,sans-Serif" font-size="10.00">string</text>
</g>
<!-- Node1&#45;&gt;Node3 -->
<g id="edge3" class="edge"><title>Node1&#45;&gt;Node3</title>
<path fill="none" stroke="midnightblue" d="M322.637,-243.278C389.18,-238.598 572.76,-224.334 724,-200 736.638,-197.967 750.445,-195.097 762.365,-192.411"/>
<polygon fill="midnightblue" stroke="midnightblue" points="763.321,-195.782 772.278,-190.123 761.747,-188.961 763.321,-195.782"/>
</g>
<!-- Node4 -->
<g id="node5" class="node"><title>Node4</title>
<polygon fill="white" stroke="#bfbfbf" points="236.5,-174.5 236.5,-193.5 333.5,-193.5 333.5,-174.5 236.5,-174.5"/>
<text text-anchor="middle" x="285" y="-181.5" font-family="Helvetica,sans-Serif" font-size="10.00">boost/function.hpp</text>
</g>
<!-- Node1&#45;&gt;Node4 -->
<g id="edge4" class="edge"><title>Node1&#45;&gt;Node4</title>
<path fill="none" stroke="midnightblue" d="M295.281,-236.403C293.57,-227.849 290.89,-214.45 288.695,-203.476"/>
<polygon fill="midnightblue" stroke="midnightblue" points="292.109,-202.7 286.716,-193.581 285.245,-204.073 292.109,-202.7"/>
</g>
<!-- Node5 -->
<g id="node6" class="node"><title>Node5</title>
<polygon fill="white" stroke="#bfbfbf" points="0,-169 0,-199 100,-199 100,-169 0,-169"/>
<text text-anchor="start" x="8" y="-187" font-family="Helvetica,sans-Serif" font-size="10.00">boost/preprocessor</text>
<text text-anchor="middle" x="50" y="-176" font-family="Helvetica,sans-Serif" font-size="10.00">/cat.hpp</text>
</g>
<!-- Node1&#45;&gt;Node5 -->
<g id="edge5" class="edge"><title>Node1&#45;&gt;Node5</title>
<path fill="none" stroke="midnightblue" d="M271.429,-238.999C237,-230.894 173.585,-215.874 109.991,-200.227"/>
<polygon fill="midnightblue" stroke="midnightblue" points="110.747,-196.809 100.2,-197.814 109.072,-203.605 110.747,-196.809"/>
</g>
<!-- Node6 -->
<g id="node7" class="node"><title>Node6</title>
<polygon fill="white" stroke="#bfbfbf" points="118,-169 118,-199 218,-199 218,-169 118,-169"/>
<text text-anchor="start" x="126" y="-187" font-family="Helvetica,sans-Serif" font-size="10.00">boost/preprocessor</text>
<text text-anchor="middle" x="168" y="-176" font-family="Helvetica,sans-Serif" font-size="10.00">/stringize.hpp</text>
</g>
<!-- Node1&#45;&gt;Node6 -->
<g id="edge6" class="edge"><title>Node1&#45;&gt;Node6</title>
<path fill="none" stroke="midnightblue" d="M278.517,-236.403C260.066,-227.822 231.133,-214.364 207.498,-203.371"/>
<polygon fill="midnightblue" stroke="midnightblue" points="208.946,-200.185 198.403,-199.141 205.994,-206.532 208.946,-200.185"/>
</g>
<!-- Node8 -->
<g id="node9" class="node"><title>Node8</title>
<g id="a_node9"><a xlink:href="uint256_8h.html" target="_top" xlink:title="uint256.h">
<polygon fill="white" stroke="black" points="658,-236.5 658,-255.5 714,-255.5 714,-236.5 658,-236.5"/>
<text text-anchor="middle" x="686" y="-243.5" font-family="Helvetica,sans-Serif" font-size="10.00">uint256.h</text>
</a>
</g>
</g>
<!-- Node7&#45;&gt;Node8 -->
<g id="edge8" class="edge"><title>Node7&#45;&gt;Node8</title>
<path fill="none" stroke="midnightblue" d="M618.853,-292.324C631.216,-283.979 650.13,-271.212 664.737,-261.352"/>
<polygon fill="midnightblue" stroke="midnightblue" points="666.848,-264.15 673.179,-255.655 662.932,-258.348 666.848,-264.15"/>
</g>
<!-- Node12 -->
<g id="node13" class="node"><title>Node12</title>
<polygon fill="white" stroke="#bfbfbf" points="685.5,-0.5 685.5,-19.5 734.5,-19.5 734.5,-0.5 685.5,-0.5"/>
<text text-anchor="middle" x="710" y="-7.5" font-family="Helvetica,sans-Serif" font-size="10.00">stdint.h</text>
</g>
<!-- Node7&#45;&gt;Node12 -->
<g id="edge22" class="edge"><title>Node7&#45;&gt;Node12</title>
<path fill="none" stroke="midnightblue" d="M577.052,-300.293C512.419,-297.021 362,-279.278 362,-185 362,-185 362,-185 362,-121 362,-55.7738 587.077,-24.3152 675.207,-14.4975"/>
<polygon fill="midnightblue" stroke="midnightblue" points="675.688,-17.966 685.252,-13.4067 674.932,-11.0069 675.688,-17.966"/>
</g>
<!-- Node8&#45;&gt;Node3 -->
<g id="edge13" class="edge"><title>Node8&#45;&gt;Node3</title>
<path fill="none" stroke="midnightblue" d="M701.33,-236.403C718.97,-226.512 748.16,-210.144 768.858,-198.538"/>
<polygon fill="midnightblue" stroke="midnightblue" points="770.688,-201.524 777.698,-193.581 767.264,-195.419 770.688,-201.524"/>
</g>
<!-- Node9 -->
<g id="node10" class="node"><title>Node9</title>
<polygon fill="white" stroke="#bfbfbf" points="1204,-112.5 1204,-131.5 1256,-131.5 1256,-112.5 1204,-112.5"/>
<text text-anchor="middle" x="1230" y="-119.5" font-family="Helvetica,sans-Serif" font-size="10.00">assert.h</text>
</g>
<!-- Node8&#45;&gt;Node9 -->
<g id="edge9" class="edge"><title>Node8&#45;&gt;Node9</title>
<path fill="none" stroke="midnightblue" d="M693.222,-236.441C708.896,-218.102 745.987,-176.025 763,-168 839.332,-131.996 1098.1,-124.794 1193.92,-123.357"/>
<polygon fill="midnightblue" stroke="midnightblue" points="1194.04,-126.856 1204,-123.219 1193.95,-119.857 1194.04,-126.856"/>
</g>
<!-- Node10 -->
<g id="node11" class="node"><title>Node10</title>
<polygon fill="white" stroke="#bfbfbf" points="592,-174.5 592,-193.5 638,-193.5 638,-174.5 592,-174.5"/>
<text text-anchor="middle" x="615" y="-181.5" font-family="Helvetica,sans-Serif" font-size="10.00">cstring</text>
</g>
<!-- Node8&#45;&gt;Node10 -->
<g id="edge10" class="edge"><title>Node8&#45;&gt;Node10</title>
<path fill="none" stroke="midnightblue" d="M675.827,-236.403C664.65,-226.958 646.483,-211.606 632.909,-200.134"/>
<polygon fill="midnightblue" stroke="midnightblue" points="635.051,-197.362 625.154,-193.581 630.533,-202.709 635.051,-197.362"/>
</g>
<!-- Node11 -->
<g id="node12" class="node"><title>Node11</title>
<polygon fill="white" stroke="#bfbfbf" points="656.5,-174.5 656.5,-193.5 715.5,-193.5 715.5,-174.5 656.5,-174.5"/>
<text text-anchor="middle" x="686" y="-181.5" font-family="Helvetica,sans-Serif" font-size="10.00">stdexcept</text>
</g>
<!-- Node8&#45;&gt;Node11 -->
<g id="edge11" class="edge"><title>Node8&#45;&gt;Node11</title>
<path fill="none" stroke="midnightblue" d="M686,-236.403C686,-227.938 686,-214.728 686,-203.82"/>
<polygon fill="midnightblue" stroke="midnightblue" points="689.5,-203.581 686,-193.581 682.5,-203.581 689.5,-203.581"/>
</g>
<!-- Node8&#45;&gt;Node12 -->
<g id="edge12" class="edge"><title>Node8&#45;&gt;Node12</title>
<path fill="none" stroke="midnightblue" d="M657.573,-245.528C591.42,-245.601 435.53,-238.481 473,-168 515.967,-87.1789 621.061,-41.0621 675.718,-21.7833"/>
<polygon fill="midnightblue" stroke="midnightblue" points="676.986,-25.0484 685.31,-18.4935 674.715,-18.427 676.986,-25.0484"/>
</g>
<!-- Node13 -->
<g id="node14" class="node"><title>Node13</title>
<polygon fill="white" stroke="#bfbfbf" points="1466,-174.5 1466,-193.5 1510,-193.5 1510,-174.5 1466,-174.5"/>
<text text-anchor="middle" x="1488" y="-181.5" font-family="Helvetica,sans-Serif" font-size="10.00">vector</text>
</g>
<!-- Node8&#45;&gt;Node13 -->
<g id="edge14" class="edge"><title>Node8&#45;&gt;Node13</title>
<path fill="none" stroke="midnightblue" d="M714.375,-243.53C828.757,-237.552 1256.28,-214.687 1391,-200 1412.63,-197.643 1436.8,-193.906 1455.61,-190.753"/>
<polygon fill="midnightblue" stroke="midnightblue" points="1456.46,-194.158 1465.73,-189.026 1455.28,-187.258 1456.46,-194.158"/>
</g>
<!-- Node14 -->
<g id="node15" class="node"><title>Node14</title>
<g id="a_node15"><a xlink:href="common_8h.html" target="_top" xlink:title="crypto/common.h">
<polygon fill="white" stroke="black" points="482,-174.5 482,-193.5 574,-193.5 574,-174.5 482,-174.5"/>
<text text-anchor="middle" x="528" y="-181.5" font-family="Helvetica,sans-Serif" font-size="10.00">crypto/common.h</text>
</a>
</g>
</g>
<!-- Node8&#45;&gt;Node14 -->
<g id="edge15" class="edge"><title>Node8&#45;&gt;Node14</title>
<path fill="none" stroke="midnightblue" d="M663.362,-236.403C636.26,-226.111 590.69,-208.806 559.996,-197.15"/>
<polygon fill="midnightblue" stroke="midnightblue" points="561.187,-193.859 550.596,-193.581 558.702,-200.403 561.187,-193.859"/>
</g>
<!-- Node14&#45;&gt;Node12 -->
<g id="edge16" class="edge"><title>Node14&#45;&gt;Node12</title>
<path fill="none" stroke="midnightblue" d="M537.276,-174.234C566.368,-146.74 656.1,-61.9385 693.436,-26.654"/>
<polygon fill="midnightblue" stroke="midnightblue" points="696.095,-28.9566 700.959,-19.5442 691.287,-23.869 696.095,-28.9566"/>
</g>
<!-- Node15 -->
<g id="node16" class="node"><title>Node15</title>
<polygon fill="white" stroke="#bfbfbf" points="840.5,-112.5 840.5,-131.5 889.5,-131.5 889.5,-112.5 840.5,-112.5"/>
<text text-anchor="middle" x="865" y="-119.5" font-family="Helvetica,sans-Serif" font-size="10.00">string.h</text>
</g>
<!-- Node14&#45;&gt;Node15 -->
<g id="edge17" class="edge"><title>Node14&#45;&gt;Node15</title>
<path fill="none" stroke="midnightblue" d="M556.971,-174.469C565.326,-172.181 574.486,-169.835 583,-168 671.373,-148.956 776.924,-134.211 830.347,-127.303"/>
<polygon fill="midnightblue" stroke="midnightblue" points="830.841,-130.768 840.316,-126.026 829.952,-123.825 830.841,-130.768"/>
</g>
<!-- Node16 -->
<g id="node17" class="node"><title>Node16</title>
<g id="a_node17"><a xlink:href="endian_8h.html" target="_top" xlink:title="compat/endian.h">
<polygon fill="white" stroke="black" points="655.5,-112.5 655.5,-131.5 744.5,-131.5 744.5,-112.5 655.5,-112.5"/>
<text text-anchor="middle" x="700" y="-119.5" font-family="Helvetica,sans-Serif" font-size="10.00">compat/endian.h</text>
</a>
</g>
</g>
<!-- Node14&#45;&gt;Node16 -->
<g id="edge18" class="edge"><title>Node14&#45;&gt;Node16</title>
<path fill="none" stroke="midnightblue" d="M552.643,-174.403C582.275,-164.067 632.185,-146.656 665.602,-134.999"/>
<polygon fill="midnightblue" stroke="midnightblue" points="667.113,-138.179 675.402,-131.581 664.807,-131.57 667.113,-138.179"/>
</g>
<!-- Node16&#45;&gt;Node12 -->
<g id="edge19" class="edge"><title>Node16&#45;&gt;Node12</title>
<path fill="none" stroke="midnightblue" d="M696.606,-112.111C692.264,-99.5395 685.781,-75.8804 690,-56 691.997,-46.5915 696.101,-36.7618 700.075,-28.6981"/>
<polygon fill="midnightblue" stroke="midnightblue" points="703.307,-30.0721 704.87,-19.5932 697.113,-26.8101 703.307,-30.0721"/>
</g>
<!-- Node17 -->
<g id="node18" class="node"><title>Node17</title>
<g id="a_node18"><a xlink:href="byteswap_8h.html" target="_top" xlink:title="compat/byteswap.h">
<polygon fill="white" stroke="black" points="699,-56.5 699,-75.5 801,-75.5 801,-56.5 699,-56.5"/>
<text text-anchor="middle" x="750" y="-63.5" font-family="Helvetica,sans-Serif" font-size="10.00">compat/byteswap.h</text>
</a>
</g>
</g>
<!-- Node16&#45;&gt;Node17 -->
<g id="edge20" class="edge"><title>Node16&#45;&gt;Node17</title>
<path fill="none" stroke="midnightblue" d="M708.256,-112.083C715.465,-104.298 726.11,-92.8015 734.846,-83.3665"/>
<polygon fill="midnightblue" stroke="midnightblue" points="737.671,-85.4666 741.897,-75.7511 732.535,-80.7108 737.671,-85.4666"/>
</g>
<!-- Node17&#45;&gt;Node12 -->
<g id="edge21" class="edge"><title>Node17&#45;&gt;Node12</title>
<path fill="none" stroke="midnightblue" d="M743.395,-56.083C737.745,-48.4554 729.455,-37.2645 722.549,-27.9408"/>
<polygon fill="midnightblue" stroke="midnightblue" points="725.247,-25.7034 716.482,-19.7511 719.622,-29.87 725.247,-25.7034"/>
</g>
<!-- Node19 -->
<g id="node20" class="node"><title>Node19</title>
<g id="a_node20"><a xlink:href="bls_8h.html" target="_top" xlink:title="bls.h">
<polygon fill="white" stroke="black" points="1344,-292.5 1344,-311.5 1382,-311.5 1382,-292.5 1344,-292.5"/>
<text text-anchor="middle" x="1363" y="-299.5" font-family="Helvetica,sans-Serif" font-size="10.00">bls.h</text>
</a>
</g>
</g>
<!-- Node18&#45;&gt;Node19 -->
<g id="edge24" class="edge"><title>Node18&#45;&gt;Node19</title>
<path fill="none" stroke="midnightblue" d="M1743.72,-351.374C1656.76,-340.325 1465.78,-316.06 1392.46,-306.744"/>
<polygon fill="midnightblue" stroke="midnightblue" points="1392.5,-303.22 1382.13,-305.431 1391.61,-310.164 1392.5,-303.22"/>
</g>
<!-- Node39 -->
<g id="node40" class="node"><title>Node39</title>
<g id="a_node40"><a xlink:href="ctpl_8h.html" target="_top" xlink:title="ctpl.h">
<polygon fill="white" stroke="black" points="2017.5,-292.5 2017.5,-311.5 2058.5,-311.5 2058.5,-292.5 2017.5,-292.5"/>
<text text-anchor="middle" x="2038" y="-299.5" font-family="Helvetica,sans-Serif" font-size="10.00">ctpl.h</text>
</a>
</g>
</g>
<!-- Node18&#45;&gt;Node39 -->
<g id="edge58" class="edge"><title>Node18&#45;&gt;Node39</title>
<path fill="none" stroke="midnightblue" d="M1827.61,-348.444C1877.56,-337.656 1962.34,-319.344 2007.52,-309.584"/>
<polygon fill="midnightblue" stroke="midnightblue" points="2008.29,-312.999 2017.32,-307.466 2006.81,-306.157 2008.29,-312.999"/>
</g>
<!-- Node44 -->
<g id="node45" class="node"><title>Node44</title>
<polygon fill="white" stroke="#bfbfbf" points="1737.5,-236.5 1737.5,-255.5 1778.5,-255.5 1778.5,-236.5 1737.5,-236.5"/>
<text text-anchor="middle" x="1758" y="-243.5" font-family="Helvetica,sans-Serif" font-size="10.00">future</text>
</g>
<!-- Node18&#45;&gt;Node44 -->
<g id="edge68" class="edge"><title>Node18&#45;&gt;Node44</title>
<path fill="none" stroke="midnightblue" d="M1785.65,-348.368C1780.78,-330.537 1769.54,-289.295 1762.98,-265.272"/>
<polygon fill="midnightblue" stroke="midnightblue" points="1766.35,-264.318 1760.34,-255.591 1759.6,-266.16 1766.35,-264.318"/>
</g>
<!-- Node45 -->
<g id="node46" class="node"><title>Node45</title>
<polygon fill="white" stroke="#bfbfbf" points="1797,-236.5 1797,-255.5 1841,-255.5 1841,-236.5 1797,-236.5"/>
<text text-anchor="middle" x="1819" y="-243.5" font-family="Helvetica,sans-Serif" font-size="10.00">mutex</text>
</g>
<!-- Node18&#45;&gt;Node45 -->
<g id="edge69" class="edge"><title>Node18&#45;&gt;Node45</title>
<path fill="none" stroke="midnightblue" d="M1790.43,-348.368C1795.46,-330.537 1807.08,-289.295 1813.85,-265.272"/>
<polygon fill="midnightblue" stroke="midnightblue" points="1817.23,-266.166 1816.58,-255.591 1810.5,-264.267 1817.23,-266.166"/>
</g>
<!-- Node46 -->
<g id="node47" class="node"><title>Node46</title>
<polygon fill="white" stroke="#bfbfbf" points="1859,-236.5 1859,-255.5 1985,-255.5 1985,-236.5 1859,-236.5"/>
<text text-anchor="middle" x="1922" y="-243.5" font-family="Helvetica,sans-Serif" font-size="10.00">boost/lockfree/queue.hpp</text>
</g>
<!-- Node18&#45;&gt;Node46 -->
<g id="edge70" class="edge"><title>Node18&#45;&gt;Node46</title>
<path fill="none" stroke="midnightblue" d="M1798.51,-348.368C1821.22,-329.733 1875.06,-285.532 1903.56,-262.134"/>
<polygon fill="midnightblue" stroke="midnightblue" points="1906.03,-264.642 1911.53,-255.591 1901.58,-259.231 1906.03,-264.642"/>
</g>
<!-- Node19&#45;&gt;Node8 -->
<g id="edge47" class="edge"><title>Node19&#45;&gt;Node8</title>
<path fill="none" stroke="midnightblue" d="M1343.83,-299.471C1251.32,-292.092 850.36,-260.11 724.171,-250.045"/>
<polygon fill="midnightblue" stroke="midnightblue" points="724.439,-246.555 714.193,-249.249 723.883,-253.533 724.439,-246.555"/>
</g>
<!-- Node20 -->
<g id="node21" class="node"><title>Node20</title>
<polygon fill="white" stroke="#bfbfbf" points="1562,-236.5 1562,-255.5 1608,-255.5 1608,-236.5 1562,-236.5"/>
<text text-anchor="middle" x="1585" y="-243.5" font-family="Helvetica,sans-Serif" font-size="10.00">hash.h</text>
</g>
<!-- Node19&#45;&gt;Node20 -->
<g id="edge25" class="edge"><title>Node19&#45;&gt;Node20</title>
<path fill="none" stroke="midnightblue" d="M1382.1,-296.669C1416.26,-288.873 1490.07,-271.813 1552,-256 1552.1,-255.974 1552.2,-255.949 1552.3,-255.923"/>
<polygon fill="midnightblue" stroke="midnightblue" points="1553.16,-259.315 1561.95,-253.39 1551.39,-252.545 1553.16,-259.315"/>
</g>
<!-- Node21 -->
<g id="node22" class="node"><title>Node21</title>
<g id="a_node22"><a xlink:href="serialize_8h.html" target="_top" xlink:title="serialize.h">
<polygon fill="white" stroke="black" points="868.5,-236.5 868.5,-255.5 929.5,-255.5 929.5,-236.5 868.5,-236.5"/>
<text text-anchor="middle" x="899" y="-243.5" font-family="Helvetica,sans-Serif" font-size="10.00">serialize.h</text>
</a>
</g>
</g>
<!-- Node19&#45;&gt;Node21 -->
<g id="edge26" class="edge"><title>Node19&#45;&gt;Node21</title>
<path fill="none" stroke="midnightblue" d="M1343.88,-299.762C1285.12,-295.792 1101.93,-282.183 939.667,-255.912"/>
<polygon fill="midnightblue" stroke="midnightblue" points="939.938,-252.409 929.504,-254.245 938.805,-259.317 939.938,-252.409"/>
</g>
<!-- Node32 -->
<g id="node33" class="node"><title>Node32</title>
<g id="a_node33"><a xlink:href="utilstrencodings_8h.html" target="_top" xlink:title="utilstrencodings.h">
<polygon fill="white" stroke="black" points="1626.5,-236.5 1626.5,-255.5 1719.5,-255.5 1719.5,-236.5 1626.5,-236.5"/>
<text text-anchor="middle" x="1673" y="-243.5" font-family="Helvetica,sans-Serif" font-size="10.00">utilstrencodings.h</text>
</a>
</g>
</g>
<!-- Node19&#45;&gt;Node32 -->
<g id="edge48" class="edge"><title>Node19&#45;&gt;Node32</title>
<path fill="none" stroke="midnightblue" d="M1382.39,-297.622C1428.38,-289.611 1545.48,-269.213 1616.2,-256.894"/>
<polygon fill="midnightblue" stroke="midnightblue" points="1617.03,-260.302 1626.29,-255.137 1615.83,-253.405 1617.03,-260.302"/>
</g>
<!-- Node33 -->
<g id="node34" class="node"><title>Node33</title>
<polygon fill="white" stroke="#bfbfbf" points="948,-236.5 948,-255.5 1030,-255.5 1030,-236.5 948,-236.5"/>
<text text-anchor="middle" x="989" y="-243.5" font-family="Helvetica,sans-Serif" font-size="10.00">chiabls/bls.hpp</text>
</g>
<!-- Node19&#45;&gt;Node33 -->
<g id="edge52" class="edge"><title>Node19&#45;&gt;Node33</title>
<path fill="none" stroke="midnightblue" d="M1343.97,-298.628C1295.29,-292.503 1162.09,-275.384 1040.41,-256.172"/>
<polygon fill="midnightblue" stroke="midnightblue" points="1040.6,-252.659 1030.18,-254.547 1039.51,-259.572 1040.6,-252.659"/>
</g>
<!-- Node34 -->
<g id="node35" class="node"><title>Node34</title>
<polygon fill="white" stroke="#bfbfbf" points="1048,-236.5 1048,-255.5 1162,-255.5 1162,-236.5 1048,-236.5"/>
<text text-anchor="middle" x="1105" y="-243.5" font-family="Helvetica,sans-Serif" font-size="10.00">chiabls/privatekey.hpp</text>
</g>
<!-- Node19&#45;&gt;Node34 -->
<g id="edge53" class="edge"><title>Node19&#45;&gt;Node34</title>
<path fill="none" stroke="midnightblue" d="M1343.61,-296.941C1304.14,-288.681 1213.36,-269.679 1155.84,-257.641"/>
<polygon fill="midnightblue" stroke="midnightblue" points="1156.37,-254.175 1145.86,-255.552 1154.93,-261.027 1156.37,-254.175"/>
</g>
<!-- Node35 -->
<g id="node36" class="node"><title>Node35</title>
<polygon fill="white" stroke="#bfbfbf" points="1180,-236.5 1180,-255.5 1290,-255.5 1290,-236.5 1180,-236.5"/>
<text text-anchor="middle" x="1235" y="-243.5" font-family="Helvetica,sans-Serif" font-size="10.00">chiabls/publickey.hpp</text>
</g>
<!-- Node19&#45;&gt;Node35 -->
<g id="edge54" class="edge"><title>Node19&#45;&gt;Node35</title>
<path fill="none" stroke="midnightblue" d="M1343.84,-292.916C1323,-284.123 1289.41,-269.953 1265.05,-259.678"/>
<polygon fill="midnightblue" stroke="midnightblue" points="1266.14,-256.339 1255.57,-255.677 1263.42,-262.789 1266.14,-256.339"/>
</g>
<!-- Node36 -->
<g id="node37" class="node"><title>Node36</title>
<polygon fill="white" stroke="#bfbfbf" points="1308.5,-236.5 1308.5,-255.5 1417.5,-255.5 1417.5,-236.5 1308.5,-236.5"/>
<text text-anchor="middle" x="1363" y="-243.5" font-family="Helvetica,sans-Serif" font-size="10.00">chiabls/signature.hpp</text>
</g>
<!-- Node19&#45;&gt;Node36 -->
<g id="edge55" class="edge"><title>Node19&#45;&gt;Node36</title>
<path fill="none" stroke="midnightblue" d="M1363,-292.083C1363,-285.006 1363,-274.861 1363,-265.986"/>
<polygon fill="midnightblue" stroke="midnightblue" points="1366.5,-265.751 1363,-255.751 1359.5,-265.751 1366.5,-265.751"/>
</g>
<!-- Node37 -->
<g id="node38" class="node"><title>Node37</title>
<polygon fill="white" stroke="#bfbfbf" points="1436,-236.5 1436,-255.5 1474,-255.5 1474,-236.5 1436,-236.5"/>
<text text-anchor="middle" x="1455" y="-243.5" font-family="Helvetica,sans-Serif" font-size="10.00">array</text>
</g>
<!-- Node19&#45;&gt;Node37 -->
<g id="edge56" class="edge"><title>Node19&#45;&gt;Node37</title>
<path fill="none" stroke="midnightblue" d="M1377.78,-292.324C1392.27,-283.822 1414.57,-270.729 1431.49,-260.797"/>
<polygon fill="midnightblue" stroke="midnightblue" points="1433.4,-263.735 1440.26,-255.655 1429.86,-257.698 1433.4,-263.735"/>
</g>
<!-- Node38 -->
<g id="node39" class="node"><title>Node38</title>
<polygon fill="white" stroke="#bfbfbf" points="1492.5,-236.5 1492.5,-255.5 1543.5,-255.5 1543.5,-236.5 1492.5,-236.5"/>
<text text-anchor="middle" x="1518" y="-243.5" font-family="Helvetica,sans-Serif" font-size="10.00">unistd.h</text>
</g>
<!-- Node19&#45;&gt;Node38 -->
<g id="edge57" class="edge"><title>Node19&#45;&gt;Node38</title>
<path fill="none" stroke="midnightblue" d="M1382.01,-294.379C1407.32,-285.56 1452.53,-269.808 1483.84,-258.901"/>
<polygon fill="midnightblue" stroke="midnightblue" points="1485.18,-262.14 1493.47,-255.545 1482.88,-255.53 1485.18,-262.14"/>
</g>
<!-- Node21&#45;&gt;Node2 -->
<g id="edge33" class="edge"><title>Node21&#45;&gt;Node2</title>
<path fill="none" stroke="midnightblue" d="M868.35,-243.047C798.076,-238.288 620.061,-224.642 473,-200 460.582,-197.919 446.988,-194.9 435.457,-192.116"/>
<polygon fill="midnightblue" stroke="midnightblue" points="436.089,-188.666 425.54,-189.658 434.404,-195.461 436.089,-188.666"/>
</g>
<!-- Node21&#45;&gt;Node3 -->
<g id="edge37" class="edge"><title>Node21&#45;&gt;Node3</title>
<path fill="none" stroke="midnightblue" d="M883.813,-236.403C866.338,-226.512 837.421,-210.144 816.917,-198.538"/>
<polygon fill="midnightblue" stroke="midnightblue" points="818.586,-195.461 808.159,-193.581 815.138,-201.553 818.586,-195.461"/>
</g>
<!-- Node21&#45;&gt;Node9 -->
<g id="edge29" class="edge"><title>Node21&#45;&gt;Node9</title>
<path fill="none" stroke="midnightblue" d="M929.505,-237.763C932.701,-237.117 935.911,-236.514 939,-236 1011.99,-223.86 1220.59,-255.074 1270,-200 1286.49,-181.622 1265.47,-155.214 1248.21,-138.592"/>
<polygon fill="midnightblue" stroke="midnightblue" points="1250.43,-135.88 1240.69,-131.707 1245.7,-141.042 1250.43,-135.88"/>
</g>
<!-- Node21&#45;&gt;Node12 -->
<g id="edge36" class="edge"><title>Node21&#45;&gt;Node12</title>
<path fill="none" stroke="midnightblue" d="M901.64,-236.191C907.821,-213.762 921.04,-153.351 898,-112 866.295,-55.0991 789.473,-28.7176 744.454,-17.7729"/>
<polygon fill="midnightblue" stroke="midnightblue" points="745.08,-14.3254 734.549,-15.4892 743.507,-21.1465 745.08,-14.3254"/>
</g>
<!-- Node21&#45;&gt;Node13 -->
<g id="edge40" class="edge"><title>Node21&#45;&gt;Node13</title>
<path fill="none" stroke="midnightblue" d="M929.927,-237.586C932.982,-236.991 936.044,-236.448 939,-236 1138.25,-205.805 1190.84,-223.415 1391,-200 1412.61,-197.473 1436.78,-193.736 1455.6,-190.624"/>
<polygon fill="midnightblue" stroke="midnightblue" points="1456.44,-194.033 1465.72,-188.925 1455.28,-187.129 1456.44,-194.033"/>
</g>
<!-- Node21&#45;&gt;Node15 -->
<g id="edge38" class="edge"><title>Node21&#45;&gt;Node15</title>
<path fill="none" stroke="midnightblue" d="M896.555,-236.226C891.041,-216.442 877.543,-168.007 870.112,-141.344"/>
<polygon fill="midnightblue" stroke="midnightblue" points="873.479,-140.388 867.423,-131.694 866.736,-142.267 873.479,-140.388"/>
</g>
<!-- Node21&#45;&gt;Node16 -->
<g id="edge27" class="edge"><title>Node21&#45;&gt;Node16</title>
<path fill="none" stroke="midnightblue" d="M892.511,-236.394C880.306,-220.748 852.412,-187.467 822,-168 798.27,-152.81 768.681,-141.736 744.586,-134.374"/>
<polygon fill="midnightblue" stroke="midnightblue" points="745.551,-131.01 734.97,-131.542 743.573,-137.725 745.551,-131.01"/>
</g>
<!-- Node22 -->
<g id="node23" class="node"><title>Node22</title>
<polygon fill="white" stroke="#bfbfbf" points="946,-174.5 946,-193.5 1002,-193.5 1002,-174.5 946,-174.5"/>
<text text-anchor="middle" x="974" y="-181.5" font-family="Helvetica,sans-Serif" font-size="10.00">algorithm</text>
</g>
<!-- Node21&#45;&gt;Node22 -->
<g id="edge28" class="edge"><title>Node21&#45;&gt;Node22</title>
<path fill="none" stroke="midnightblue" d="M909.746,-236.403C921.553,-226.958 940.743,-211.606 955.082,-200.134"/>
<polygon fill="midnightblue" stroke="midnightblue" points="957.652,-202.561 963.274,-193.581 953.279,-197.095 957.652,-202.561"/>
</g>
<!-- Node23 -->
<g id="node24" class="node"><title>Node23</title>
<polygon fill="white" stroke="#bfbfbf" points="1019.5,-174.5 1019.5,-193.5 1048.5,-193.5 1048.5,-174.5 1019.5,-174.5"/>
<text text-anchor="middle" x="1034" y="-181.5" font-family="Helvetica,sans-Serif" font-size="10.00">ios</text>
</g>
<!-- Node21&#45;&gt;Node23 -->
<g id="edge30" class="edge"><title>Node21&#45;&gt;Node23</title>
<path fill="none" stroke="midnightblue" d="M923.794,-236.355C946.655,-228.057 981.291,-214.651 1010,-200 1010.69,-199.648 1011.38,-199.283 1012.08,-198.907"/>
<polygon fill="midnightblue" stroke="midnightblue" points="1014.17,-201.742 1021.03,-193.674 1010.64,-195.699 1014.17,-201.742"/>
</g>
<!-- Node24 -->
<g id="node25" class="node"><title>Node24</title>
<polygon fill="white" stroke="#bfbfbf" points="1067,-174.5 1067,-193.5 1107,-193.5 1107,-174.5 1067,-174.5"/>
<text text-anchor="middle" x="1087" y="-181.5" font-family="Helvetica,sans-Serif" font-size="10.00">limits</text>
</g>
<!-- Node21&#45;&gt;Node24 -->
<g id="edge31" class="edge"><title>Node21&#45;&gt;Node24</title>
<path fill="none" stroke="midnightblue" d="M929.545,-238.093C961.78,-230.392 1013.8,-216.784 1057,-200 1058.64,-199.362 1060.31,-198.666 1061.99,-197.933"/>
<polygon fill="midnightblue" stroke="midnightblue" points="1063.82,-200.938 1071.37,-193.504 1060.83,-194.609 1063.82,-200.938"/>
</g>
<!-- Node25 -->
<g id="node26" class="node"><title>Node25</title>
<polygon fill="white" stroke="#bfbfbf" points="1125.5,-174.5 1125.5,-193.5 1154.5,-193.5 1154.5,-174.5 1125.5,-174.5"/>
<text text-anchor="middle" x="1140" y="-181.5" font-family="Helvetica,sans-Serif" font-size="10.00">list</text>
</g>
<!-- Node21&#45;&gt;Node25 -->
<g id="edge32" class="edge"><title>Node21&#45;&gt;Node25</title>
<path fill="none" stroke="midnightblue" d="M929.561,-238.056C932.746,-237.352 935.938,-236.656 939,-236 1017.5,-219.188 1041.44,-229.749 1116,-200 1117.05,-199.581 1118.1,-199.117 1119.15,-198.618"/>
<polygon fill="midnightblue" stroke="midnightblue" points="1121.23,-201.465 1128.24,-193.518 1117.81,-195.361 1121.23,-201.465"/>
</g>
<!-- Node26 -->
<g id="node27" class="node"><title>Node26</title>
<polygon fill="white" stroke="#bfbfbf" points="1560,-174.5 1560,-193.5 1612,-193.5 1612,-174.5 1560,-174.5"/>
<text text-anchor="middle" x="1586" y="-181.5" font-family="Helvetica,sans-Serif" font-size="10.00">memory</text>
</g>
<!-- Node21&#45;&gt;Node26 -->
<g id="edge34" class="edge"><title>Node21&#45;&gt;Node26</title>
<path fill="none" stroke="midnightblue" d="M929.919,-237.532C932.975,-236.948 936.04,-236.422 939,-236 1194.25,-199.586 1262.68,-235.877 1518,-200 1528.42,-198.536 1539.61,-196.335 1549.84,-194.067"/>
<polygon fill="midnightblue" stroke="midnightblue" points="1550.73,-197.453 1559.69,-191.801 1549.16,-190.631 1550.73,-197.453"/>
</g>
<!-- Node27 -->
<g id="node28" class="node"><title>Node27</title>
<polygon fill="white" stroke="#bfbfbf" points="1173,-174.5 1173,-193.5 1203,-193.5 1203,-174.5 1173,-174.5"/>
<text text-anchor="middle" x="1188" y="-181.5" font-family="Helvetica,sans-Serif" font-size="10.00">set</text>
</g>
<!-- Node21&#45;&gt;Node27 -->
<g id="edge35" class="edge"><title>Node21&#45;&gt;Node27</title>
<path fill="none" stroke="midnightblue" d="M929.534,-237.925C932.725,-237.247 935.925,-236.593 939,-236 1038.01,-216.924 1068.28,-234.565 1163,-200 1164.23,-199.551 1165.47,-199.04 1166.7,-198.483"/>
<polygon fill="midnightblue" stroke="midnightblue" points="1168.6,-201.433 1175.75,-193.615 1165.29,-195.268 1168.6,-201.433"/>
</g>
<!-- Node28 -->
<g id="node29" class="node"><title>Node28</title>
<polygon fill="white" stroke="#bfbfbf" points="1221,-174.5 1221,-193.5 1261,-193.5 1261,-174.5 1221,-174.5"/>
<text text-anchor="middle" x="1241" y="-181.5" font-family="Helvetica,sans-Serif" font-size="10.00">utility</text>
</g>
<!-- Node21&#45;&gt;Node28 -->
<g id="edge39" class="edge"><title>Node21&#45;&gt;Node28</title>
<path fill="none" stroke="midnightblue" d="M929.518,-237.837C932.712,-237.176 935.917,-236.55 939,-236 1059.05,-214.594 1094.42,-235.759 1211,-200 1212.92,-199.411 1214.87,-198.708 1216.8,-197.933"/>
<polygon fill="midnightblue" stroke="midnightblue" points="1218.52,-200.998 1226.14,-193.646 1215.6,-194.635 1218.52,-200.998"/>
</g>
<!-- Node29 -->
<g id="node30" class="node"><title>Node29</title>
<g id="a_node30"><a xlink:href="prevector_8h.html" target="_top" xlink:title="prevector.h">
<polygon fill="white" stroke="black" points="1317.5,-174.5 1317.5,-193.5 1382.5,-193.5 1382.5,-174.5 1317.5,-174.5"/>
<text text-anchor="middle" x="1350" y="-181.5" font-family="Helvetica,sans-Serif" font-size="10.00">prevector.h</text>
</a>
</g>
</g>
<!-- Node21&#45;&gt;Node29 -->
<g id="edge41" class="edge"><title>Node21&#45;&gt;Node29</title>
<path fill="none" stroke="midnightblue" d="M929.936,-237.645C932.989,-237.038 936.049,-236.476 939,-236 1099.49,-210.109 1143.8,-232.895 1303,-200 1307.46,-199.078 1312.1,-197.892 1316.64,-196.591"/>
<polygon fill="midnightblue" stroke="midnightblue" points="1317.81,-199.893 1326.35,-193.617 1315.76,-193.201 1317.81,-199.893"/>
</g>
<!-- Node29&#45;&gt;Node9 -->
<g id="edge42" class="edge"><title>Node29&#45;&gt;Node9</title>
<path fill="none" stroke="midnightblue" d="M1332.81,-174.403C1312.76,-164.379 1279.4,-147.701 1256.14,-136.07"/>
<polygon fill="midnightblue" stroke="midnightblue" points="1257.67,-132.922 1247.16,-131.581 1254.54,-139.183 1257.67,-132.922"/>
</g>
<!-- Node29&#45;&gt;Node12 -->
<g id="edge44" class="edge"><title>Node29&#45;&gt;Node12</title>
<path fill="none" stroke="midnightblue" d="M1350.32,-174.027C1350.33,-158.809 1347.96,-128.035 1330,-112 1242.34,-33.7289 862.843,-15.6626 745.025,-11.9062"/>
<polygon fill="midnightblue" stroke="midnightblue" points="744.875,-8.40013 734.773,-11.5949 744.662,-15.3969 744.875,-8.40013"/>
</g>
<!-- Node29&#45;&gt;Node15 -->
<g id="edge45" class="edge"><title>Node29&#45;&gt;Node15</title>
<path fill="none" stroke="midnightblue" d="M1317.4,-176.316C1302.92,-173.497 1285.65,-170.334 1270,-168 1133.56,-147.658 970.005,-132.197 899.796,-125.983"/>
<polygon fill="midnightblue" stroke="midnightblue" points="900.006,-122.488 889.738,-125.1 899.393,-129.461 900.006,-122.488"/>
</g>
<!-- Node30 -->
<g id="node31" class="node"><title>Node30</title>
<polygon fill="white" stroke="#bfbfbf" points="1378,-112.5 1378,-131.5 1426,-131.5 1426,-112.5 1378,-112.5"/>
<text text-anchor="middle" x="1402" y="-119.5" font-family="Helvetica,sans-Serif" font-size="10.00">stdlib.h</text>
</g>
<!-- Node29&#45;&gt;Node30 -->
<g id="edge43" class="edge"><title>Node29&#45;&gt;Node30</title>
<path fill="none" stroke="midnightblue" d="M1357.45,-174.403C1365.33,-165.314 1377.94,-150.756 1387.74,-139.449"/>
<polygon fill="midnightblue" stroke="midnightblue" points="1390.66,-141.43 1394.56,-131.581 1385.37,-136.845 1390.66,-141.43"/>
</g>
<!-- Node31 -->
<g id="node32" class="node"><title>Node31</title>
<polygon fill="white" stroke="#bfbfbf" points="1274.5,-112.5 1274.5,-131.5 1321.5,-131.5 1321.5,-112.5 1274.5,-112.5"/>
<text text-anchor="middle" x="1298" y="-119.5" font-family="Helvetica,sans-Serif" font-size="10.00">iterator</text>
</g>
<!-- Node29&#45;&gt;Node31 -->
<g id="edge46" class="edge"><title>Node29&#45;&gt;Node31</title>
<path fill="none" stroke="midnightblue" d="M1342.55,-174.403C1334.67,-165.314 1322.06,-150.756 1312.26,-139.449"/>
<polygon fill="midnightblue" stroke="midnightblue" points="1314.63,-136.845 1305.44,-131.581 1309.34,-141.43 1314.63,-136.845"/>
</g>
<!-- Node32&#45;&gt;Node3 -->
<g id="edge50" class="edge"><title>Node32&#45;&gt;Node3</title>
<path fill="none" stroke="midnightblue" d="M1626.3,-237.113C1623.16,-236.7 1620.04,-236.323 1617,-236 1316.06,-203.943 1238.72,-223.686 937,-200 897.944,-196.934 853.069,-192.041 823.936,-188.683"/>
<polygon fill="midnightblue" stroke="midnightblue" points="824.293,-185.201 813.956,-187.521 823.484,-192.154 824.293,-185.201"/>
</g>
<!-- Node32&#45;&gt;Node12 -->
<g id="edge49" class="edge"><title>Node32&#45;&gt;Node12</title>
<path fill="none" stroke="midnightblue" d="M1669.55,-236.412C1662.72,-220.494 1645.94,-186.362 1621,-168 1551.48,-116.815 1517.84,-136.304 1435,-112 1348.07,-86.4957 1328.11,-72.3604 1239,-56 1054.91,-22.2002 830.02,-13.7078 744.888,-11.641"/>
<polygon fill="midnightblue" stroke="midnightblue" points="744.823,-8.13865 734.745,-11.4095 744.663,-15.1368 744.823,-8.13865"/>
</g>
<!-- Node32&#45;&gt;Node13 -->
<g id="edge51" class="edge"><title>Node32&#45;&gt;Node13</title>
<path fill="none" stroke="midnightblue" d="M1646.49,-236.403C1613.12,-225.58 1555.83,-207 1520.04,-195.392"/>
<polygon fill="midnightblue" stroke="midnightblue" points="1520.7,-191.928 1510.11,-192.172 1518.55,-198.586 1520.7,-191.928"/>
</g>
<!-- Node39&#45;&gt;Node13 -->
<g id="edge62" class="edge"><title>Node39&#45;&gt;Node13</title>
<path fill="none" stroke="midnightblue" d="M2035.02,-292.412C2029.48,-277.917 2016.12,-248.916 1994,-236 1908.7,-186.205 1648.55,-215.484 1551,-200 1540.86,-198.391 1529.94,-196.022 1520.09,-193.64"/>
<polygon fill="midnightblue" stroke="midnightblue" points="1520.84,-190.218 1510.29,-191.184 1519.14,-197.009 1520.84,-190.218"/>
</g>
<!-- Node39&#45;&gt;Node26 -->
<g id="edge63" class="edge"><title>Node39&#45;&gt;Node26</title>
<path fill="none" stroke="midnightblue" d="M2058.9,-300.853C2119.31,-299.774 2286.59,-291.799 2235,-236 2193.26,-190.847 1753.45,-185.607 1622.55,-185.051"/>
<polygon fill="midnightblue" stroke="midnightblue" points="1622.27,-181.55 1612.26,-185.014 1622.25,-188.55 1622.27,-181.55"/>
</g>
<!-- Node40 -->
<g id="node41" class="node"><title>Node40</title>
<polygon fill="white" stroke="#bfbfbf" points="2283.5,-236.5 2283.5,-255.5 2342.5,-255.5 2342.5,-236.5 2283.5,-236.5"/>
<text text-anchor="middle" x="2313" y="-243.5" font-family="Helvetica,sans-Serif" font-size="10.00">functional</text>
</g>
<!-- Node39&#45;&gt;Node40 -->
<g id="edge59" class="edge"><title>Node39&#45;&gt;Node40</title>
<path fill="none" stroke="midnightblue" d="M2058.72,-297.031C2099.17,-289.268 2191.47,-271.48 2269,-256 2270.43,-255.714 2271.89,-255.421 2273.37,-255.125"/>
<polygon fill="midnightblue" stroke="midnightblue" points="2274.08,-258.552 2283.19,-253.138 2272.69,-251.691 2274.08,-258.552"/>
</g>
<!-- Node41 -->
<g id="node42" class="node"><title>Node41</title>
<polygon fill="white" stroke="#bfbfbf" points="2041,-236.5 2041,-255.5 2085,-255.5 2085,-236.5 2041,-236.5"/>
<text text-anchor="middle" x="2063" y="-243.5" font-family="Helvetica,sans-Serif" font-size="10.00">thread</text>
</g>
<!-- Node39&#45;&gt;Node41 -->
<g id="edge60" class="edge"><title>Node39&#45;&gt;Node41</title>
<path fill="none" stroke="midnightblue" d="M2042.13,-292.083C2045.51,-284.77 2050.42,-274.181 2054.62,-265.103"/>
<polygon fill="midnightblue" stroke="midnightblue" points="2057.92,-266.296 2058.95,-255.751 2051.57,-263.355 2057.92,-266.296"/>
</g>
<!-- Node42 -->
<g id="node43" class="node"><title>Node42</title>
<polygon fill="white" stroke="#bfbfbf" points="2103,-236.5 2103,-255.5 2149,-255.5 2149,-236.5 2103,-236.5"/>
<text text-anchor="middle" x="2126" y="-243.5" font-family="Helvetica,sans-Serif" font-size="10.00">atomic</text>
</g>
<!-- Node39&#45;&gt;Node42 -->
<g id="edge61" class="edge"><title>Node39&#45;&gt;Node42</title>
<path fill="none" stroke="midnightblue" d="M2052.14,-292.324C2065.87,-283.9 2086.94,-270.971 2103.06,-261.074"/>
<polygon fill="midnightblue" stroke="midnightblue" points="2105.2,-263.868 2111.9,-255.655 2101.54,-257.902 2105.2,-263.868"/>
</g>
<!-- Node43 -->
<g id="node44" class="node"><title>Node43</title>
<polygon fill="white" stroke="#bfbfbf" points="2167.5,-236.5 2167.5,-255.5 2226.5,-255.5 2226.5,-236.5 2167.5,-236.5"/>
<text text-anchor="middle" x="2197" y="-243.5" font-family="Helvetica,sans-Serif" font-size="10.00">exception</text>
</g>
<!-- Node39&#45;&gt;Node43 -->
<g id="edge64" class="edge"><title>Node39&#45;&gt;Node43</title>
<path fill="none" stroke="midnightblue" d="M2058.79,-293.94C2084.99,-285.041 2130.43,-269.61 2162.02,-258.88"/>
<polygon fill="midnightblue" stroke="midnightblue" points="2163.41,-262.106 2171.75,-255.576 2161.15,-255.478 2163.41,-262.106"/>
</g>
<!-- Node39&#45;&gt;Node44 -->
<g id="edge65" class="edge"><title>Node39&#45;&gt;Node44</title>
<path fill="none" stroke="midnightblue" d="M2017.42,-298.104C1975.98,-292.102 1879.39,-277.252 1788.48,-255.87"/>
<polygon fill="midnightblue" stroke="midnightblue" points="1789.11,-252.422 1778.57,-253.507 1787.49,-259.231 1789.11,-252.422"/>
</g>
<!-- Node39&#45;&gt;Node45 -->
<g id="edge66" class="edge"><title>Node39&#45;&gt;Node45</title>
<path fill="none" stroke="midnightblue" d="M2017.33,-296.392C1984.26,-288.945 1917.19,-273.549 1851.06,-256.191"/>
<polygon fill="midnightblue" stroke="midnightblue" points="1851.88,-252.787 1841.32,-253.616 1850.09,-259.555 1851.88,-252.787"/>
</g>
<!-- Node39&#45;&gt;Node46 -->
<g id="edge67" class="edge"><title>Node39&#45;&gt;Node46</title>
<path fill="none" stroke="midnightblue" d="M2019.62,-292.444C2000.78,-283.675 1971.27,-269.935 1949.62,-259.858"/>
<polygon fill="midnightblue" stroke="midnightblue" points="1950.84,-256.564 1940.29,-255.516 1947.88,-262.91 1950.84,-256.564"/>
</g>
</g>
</svg>
