<?xml version="1.0" encoding="UTF-8" standalone="no"?>
<!DOCTYPE svg PUBLIC "-//W3C//DTD SVG 1.1//EN"
 "http://www.w3.org/Graphics/SVG/1.1/DTD/svg11.dtd">
<!-- Generated by graphviz version 2.36.0 (20140111.2315)
 -->
<!-- Title: src/cachemap.h Pages: 1 -->
<!--zoomable 364 -->
<svg id="main" version="1.1" xmlns="http://www.w3.org/2000/svg" xmlns:xlink="http://www.w3.org/1999/xlink" xml:space="preserve" onload="init(evt)">
<style type="text/css"><![CDATA[
.edge:hover path { stroke: red; }
.edge:hover polygon { stroke: red; fill: red; }
]]></style>
<script type="text/javascript"><![CDATA[
var edges = document.getElementsByTagName('g');
if (edges && edges.length) {
  for (var i=0;i<edges.length;i++) {
    if (edges[i].id.substr(0,4)=='edge') {
      edges[i].setAttribute('class','edge');
    }
  }
}
]]></script>
        <defs>
                <circle id="rim" cx="0" cy="0" r="7"/>
                <circle id="rim2" cx="0" cy="0" r="3.5"/>
                <g id="zoomPlus">
                        <use xlink:href="#rim" fill="#404040">
                                <set attributeName="fill" to="#808080" begin="zoomplus.mouseover" end="zoomplus.mouseout"/>
                        </use>
                        <path d="M-4,0h8M0,-4v8" fill="none" stroke="white" stroke-width="1.5" pointer-events="none"/>
                </g>
                <g id="zoomMin">
                        <use xlink:href="#rim" fill="#404040">
                                <set attributeName="fill" to="#808080" begin="zoomminus.mouseover" end="zoomminus.mouseout"/>
                        </use>
                        <path d="M-4,0h8" fill="none" stroke="white" stroke-width="1.5" pointer-events="none"/>
                </g>
                <g id="dirArrow">
                        <path fill="none" stroke="white" stroke-width="1.5" d="M0,-3.0v7 M-2.5,-0.5L0,-3.0L2.5,-0.5"/>
                </g>
               <g id="resetDef">
                       <use xlink:href="#rim2" fill="#404040">
                               <set attributeName="fill" to="#808080" begin="reset.mouseover" end="reset.mouseout"/>
                       </use>
               </g>
        </defs>

<script type="text/javascript">
var viewWidth = 1573;
var viewHeight = 364;
var sectionId = 'dynsection-1';
</script>
<script xlink:href="svgpan.js"/>
<svg id="graph" class="graph">
<g id="viewport">
<title>src/cachemap.h</title>
<polygon fill="white" stroke="none" points="-4,4 -4,-360 1569.49,-360 1569.49,4 -4,4"/>
<!-- Node21 -->
<g id="node1" class="node"><title>Node21</title>
<polygon fill="#bfbfbf" stroke="black" points="639.488,-336.5 639.488,-355.5 725.488,-355.5 725.488,-336.5 639.488,-336.5"/>
<text text-anchor="middle" x="682.488" y="-343.5" font-family="Helvetica,sans-Serif" font-size="10.00">src/cachemap.h</text>
</g>
<!-- Node22 -->
<g id="node2" class="node"><title>Node22</title>
<g id="a_node2"><a xlink:href="cachemultimap_8h.html" target="_top" xlink:title="src/cachemultimap.h">
<polygon fill="white" stroke="black" points="669.988,-280.5 669.988,-299.5 776.988,-299.5 776.988,-280.5 669.988,-280.5"/>
<text text-anchor="middle" x="723.488" y="-287.5" font-family="Helvetica,sans-Serif" font-size="10.00">src/cachemultimap.h</text>
</a>
</g>
</g>
<!-- Node21&#45;&gt;Node22 -->
<g id="edge1" class="edge"><title>Node21&#45;&gt;Node22</title>
<path fill="none" stroke="midnightblue" d="M695.505,-327.855C702.604,-318.505 711.092,-307.327 716.843,-299.751"/>
<polygon fill="midnightblue" stroke="midnightblue" points="692.518,-326.002 689.258,-336.083 698.093,-330.235 692.518,-326.002"/>
</g>
<!-- Node23 -->
<g id="node3" class="node"><title>Node23</title>
<g id="a_node3"><a xlink:href="governance_8h.html" target="_top" xlink:title="src/governance.h">
<polygon fill="white" stroke="black" points="595.488,-168.5 595.488,-187.5 687.488,-187.5 687.488,-168.5 595.488,-168.5"/>
<text text-anchor="middle" x="641.488" y="-175.5" font-family="Helvetica,sans-Serif" font-size="10.00">src/governance.h</text>
</a>
</g>
</g>
<!-- Node21&#45;&gt;Node23 -->
<g id="edge30" class="edge"><title>Node21&#45;&gt;Node23</title>
<path fill="none" stroke="midnightblue" d="M672.412,-327.497C668.135,-319.37 663.46,-309.435 660.488,-300 647.643,-259.234 643.256,-207.891 641.963,-187.71"/>
<polygon fill="midnightblue" stroke="midnightblue" points="669.402,-329.288 677.291,-336.36 675.535,-325.912 669.402,-329.288"/>
</g>
<!-- Node22&#45;&gt;Node23 -->
<g id="edge2" class="edge"><title>Node22&#45;&gt;Node23</title>
<path fill="none" stroke="midnightblue" d="M711.018,-272.272C693.293,-248.494 661.458,-205.789 647.892,-187.591"/>
<polygon fill="midnightblue" stroke="midnightblue" points="708.271,-274.443 717.053,-280.368 713.883,-270.259 708.271,-274.443"/>
</g>
<!-- Node37 -->
<g id="node17" class="node"><title>Node37</title>
<g id="a_node17"><a xlink:href="governance-object_8h.html" target="_top" xlink:title="src/governance&#45;object.h">
<polygon fill="white" stroke="black" points="1001.99,-224.5 1001.99,-243.5 1122.99,-243.5 1122.99,-224.5 1001.99,-224.5"/>
<text text-anchor="middle" x="1062.49" y="-231.5" font-family="Helvetica,sans-Serif" font-size="10.00">src/governance&#45;object.h</text>
</a>
</g>
</g>
<!-- Node22&#45;&gt;Node37 -->
<g id="edge19" class="edge"><title>Node22&#45;&gt;Node37</title>
<path fill="none" stroke="midnightblue" d="M787.184,-278.854C851.235,-268.651 948.874,-253.098 1009.02,-243.516"/>
<polygon fill="midnightblue" stroke="midnightblue" points="786.528,-275.414 777.203,-280.444 787.629,-282.327 786.528,-275.414"/>
</g>
<!-- Node24 -->
<g id="node4" class="node"><title>Node24</title>
<g id="a_node4"><a xlink:href="dsnotificationinterface_8cpp.html" target="_top" xlink:title="src/dsnotificationinterface.cpp">
<polygon fill="white" stroke="black" points="829.988,-112.5 829.988,-131.5 976.988,-131.5 976.988,-112.5 829.988,-112.5"/>
<text text-anchor="middle" x="903.488" y="-119.5" font-family="Helvetica,sans-Serif" font-size="10.00">src/dsnotificationinterface.cpp</text>
</a>
</g>
</g>
<!-- Node23&#45;&gt;Node24 -->
<g id="edge3" class="edge"><title>Node23&#45;&gt;Node24</title>
<path fill="none" stroke="midnightblue" d="M692.871,-166.41C742.386,-156.204 816.35,-140.96 862.167,-131.516"/>
<polygon fill="midnightblue" stroke="midnightblue" points="692.09,-162.997 683.002,-168.444 693.503,-169.853 692.09,-162.997"/>
</g>
<!-- Node25 -->
<g id="node5" class="node"><title>Node25</title>
<g id="a_node5"><a xlink:href="governance-classes_8h.html" target="_top" xlink:title="src/governance&#45;classes.h">
<polygon fill="white" stroke="black" points="645.488,-112.5 645.488,-131.5 773.488,-131.5 773.488,-112.5 645.488,-112.5"/>
<text text-anchor="middle" x="709.488" y="-119.5" font-family="Helvetica,sans-Serif" font-size="10.00">src/governance&#45;classes.h</text>
</a>
</g>
</g>
<!-- Node23&#45;&gt;Node25 -->
<g id="edge4" class="edge"><title>Node23&#45;&gt;Node25</title>
<path fill="none" stroke="midnightblue" d="M660.25,-162.101C672.488,-152.382 688.046,-140.027 698.364,-131.834"/>
<polygon fill="midnightblue" stroke="midnightblue" points="658.068,-159.364 652.413,-168.324 662.421,-164.846 658.068,-159.364"/>
</g>
<!-- Node27 -->
<g id="node7" class="node"><title>Node27</title>
<g id="a_node7"><a xlink:href="governance-object_8cpp.html" target="_top" xlink:title="src/governance&#45;object.cpp">
<polygon fill="white" stroke="black" points="802.988,-56.5 802.988,-75.5 933.988,-75.5 933.988,-56.5 802.988,-56.5"/>
<text text-anchor="middle" x="868.488" y="-63.5" font-family="Helvetica,sans-Serif" font-size="10.00">src/governance&#45;object.cpp</text>
</a>
</g>
</g>
<!-- Node23&#45;&gt;Node27 -->
<g id="edge11" class="edge"><title>Node23&#45;&gt;Node27</title>
<path fill="none" stroke="midnightblue" d="M689.922,-165.893C717.897,-158.426 753.228,-147.161 782.488,-132 813.063,-116.157 844.114,-89.5092 859.162,-75.773"/>
<polygon fill="midnightblue" stroke="midnightblue" points="688.775,-162.574 679.973,-168.472 690.531,-169.35 688.775,-162.574"/>
</g>
<!-- Node28 -->
<g id="node8" class="node"><title>Node28</title>
<g id="a_node8"><a xlink:href="governance_8cpp.html" target="_top" xlink:title="src/governance.cpp">
<polygon fill="white" stroke="black" points="954.488,-56.5 954.488,-75.5 1056.49,-75.5 1056.49,-56.5 954.488,-56.5"/>
<text text-anchor="middle" x="1005.49" y="-63.5" font-family="Helvetica,sans-Serif" font-size="10.00">src/governance.cpp</text>
</a>
</g>
</g>
<!-- Node23&#45;&gt;Node28 -->
<g id="edge12" class="edge"><title>Node23&#45;&gt;Node28</title>
<path fill="none" stroke="midnightblue" d="M697.74,-176.807C783.927,-175.357 943.144,-167.752 985.488,-132 1002.27,-117.833 1005.22,-89.9392 1005.58,-75.7442"/>
<polygon fill="midnightblue" stroke="midnightblue" points="697.552,-173.309 687.604,-176.955 697.654,-180.309 697.552,-173.309"/>
</g>
<!-- Node30 -->
<g id="node10" class="node"><title>Node30</title>
<g id="a_node10"><a xlink:href="rpc_2governance_8cpp.html" target="_top" xlink:title="src/rpc/governance.cpp">
<polygon fill="white" stroke="black" points="78.9878,-56.5 78.9878,-75.5 197.988,-75.5 197.988,-56.5 78.9878,-56.5"/>
<text text-anchor="middle" x="138.488" y="-63.5" font-family="Helvetica,sans-Serif" font-size="10.00">src/rpc/governance.cpp</text>
</a>
</g>
</g>
<!-- Node23&#45;&gt;Node30 -->
<g id="edge17" class="edge"><title>Node23&#45;&gt;Node30</title>
<path fill="none" stroke="midnightblue" d="M585.042,-177.278C437.03,-177.419 46.4168,-173.79 7.48776,-132 -19.6817,-102.834 35.7448,-84.9943 82.6769,-75.5585"/>
<polygon fill="midnightblue" stroke="midnightblue" points="585.277,-180.777 595.272,-177.261 585.266,-173.777 585.277,-180.777"/>
</g>
<!-- Node32 -->
<g id="node12" class="node"><title>Node32</title>
<g id="a_node12"><a xlink:href="init_8cpp.html" target="_top" xlink:title="src/init.cpp">
<polygon fill="white" stroke="black" points="16.9878,-112.5 16.9878,-131.5 81.9878,-131.5 81.9878,-112.5 16.9878,-112.5"/>
<text text-anchor="middle" x="49.4878" y="-119.5" font-family="Helvetica,sans-Serif" font-size="10.00">src/init.cpp</text>
</a>
</g>
</g>
<!-- Node23&#45;&gt;Node32 -->
<g id="edge13" class="edge"><title>Node23&#45;&gt;Node32</title>
<path fill="none" stroke="midnightblue" d="M584.976,-174.896C484.852,-170.61 269.939,-158.899 90.4878,-132 87.7491,-131.589 84.9201,-131.103 82.0879,-130.571"/>
<polygon fill="midnightblue" stroke="midnightblue" points="585.03,-178.401 595.168,-175.324 585.324,-171.407 585.03,-178.401"/>
</g>
<!-- Node33 -->
<g id="node13" class="node"><title>Node33</title>
<g id="a_node13"><a xlink:href="masternode-sync_8cpp.html" target="_top" xlink:title="src/masternode&#45;sync.cpp">
<polygon fill="white" stroke="black" points="99.9878,-112.5 99.9878,-131.5 226.988,-131.5 226.988,-112.5 99.9878,-112.5"/>
<text text-anchor="middle" x="163.488" y="-119.5" font-family="Helvetica,sans-Serif" font-size="10.00">src/masternode&#45;sync.cpp</text>
</a>
</g>
</g>
<!-- Node23&#45;&gt;Node33 -->
<g id="edge14" class="edge"><title>Node23&#45;&gt;Node33</title>
<path fill="none" stroke="midnightblue" d="M585.185,-170.96C506.937,-162.517 360.891,-146.579 236.488,-132 233.444,-131.643 230.329,-131.274 227.184,-130.899"/>
<polygon fill="midnightblue" stroke="midnightblue" points="584.989,-174.459 595.306,-172.051 585.739,-167.499 584.989,-174.459"/>
</g>
<!-- Node34 -->
<g id="node14" class="node"><title>Node34</title>
<g id="a_node14"><a xlink:href="masternodeman_8cpp.html" target="_top" xlink:title="src/masternodeman.cpp">
<polygon fill="white" stroke="black" points="245.488,-112.5 245.488,-131.5 367.488,-131.5 367.488,-112.5 245.488,-112.5"/>
<text text-anchor="middle" x="306.488" y="-119.5" font-family="Helvetica,sans-Serif" font-size="10.00">src/masternodeman.cpp</text>
</a>
</g>
</g>
<!-- Node23&#45;&gt;Node34 -->
<g id="edge15" class="edge"><title>Node23&#45;&gt;Node34</title>
<path fill="none" stroke="midnightblue" d="M585.109,-167.912C522.127,-157.76 420.957,-141.452 359.414,-131.531"/>
<polygon fill="midnightblue" stroke="midnightblue" points="584.83,-171.412 595.259,-169.548 585.944,-164.501 584.83,-171.412"/>
</g>
<!-- Node35 -->
<g id="node15" class="node"><title>Node35</title>
<g id="a_node15"><a xlink:href="net__processing_8cpp.html" target="_top" xlink:title="src/net_processing.cpp">
<polygon fill="white" stroke="black" points="385.488,-112.5 385.488,-131.5 503.488,-131.5 503.488,-112.5 385.488,-112.5"/>
<text text-anchor="middle" x="444.488" y="-119.5" font-family="Helvetica,sans-Serif" font-size="10.00">src/net_processing.cpp</text>
</a>
</g>
</g>
<!-- Node23&#45;&gt;Node35 -->
<g id="edge16" class="edge"><title>Node23&#45;&gt;Node35</title>
<path fill="none" stroke="midnightblue" d="M600.259,-165.699C563.078,-155.507 509.216,-140.743 475.557,-131.516"/>
<polygon fill="midnightblue" stroke="midnightblue" points="599.703,-169.175 610.273,-168.444 601.554,-162.424 599.703,-169.175"/>
</g>
<!-- Node36 -->
<g id="node16" class="node"><title>Node36</title>
<g id="a_node16"><a xlink:href="wallet_8cpp.html" target="_top" xlink:title="src/wallet/wallet.cpp">
<polygon fill="white" stroke="black" points="521.488,-112.5 521.488,-131.5 627.488,-131.5 627.488,-112.5 521.488,-112.5"/>
<text text-anchor="middle" x="574.488" y="-119.5" font-family="Helvetica,sans-Serif" font-size="10.00">src/wallet/wallet.cpp</text>
</a>
</g>
</g>
<!-- Node23&#45;&gt;Node36 -->
<g id="edge18" class="edge"><title>Node23&#45;&gt;Node36</title>
<path fill="none" stroke="midnightblue" d="M622.653,-161.82C610.649,-152.145 595.516,-139.948 585.448,-131.834"/>
<polygon fill="midnightblue" stroke="midnightblue" points="620.741,-164.774 630.723,-168.324 625.133,-159.324 620.741,-164.774"/>
</g>
<!-- Node26 -->
<g id="node6" class="node"><title>Node26</title>
<g id="a_node6"><a xlink:href="governance-classes_8cpp.html" target="_top" xlink:title="src/governance&#45;classes.cpp">
<polygon fill="white" stroke="black" points="478.988,-56.5 478.988,-75.5 617.988,-75.5 617.988,-56.5 478.988,-56.5"/>
<text text-anchor="middle" x="548.488" y="-63.5" font-family="Helvetica,sans-Serif" font-size="10.00">src/governance&#45;classes.cpp</text>
</a>
</g>
</g>
<!-- Node25&#45;&gt;Node26 -->
<g id="edge5" class="edge"><title>Node25&#45;&gt;Node26</title>
<path fill="none" stroke="midnightblue" d="M674.223,-109.172C643.907,-99.0039 600.918,-84.5852 573.879,-75.5164"/>
<polygon fill="midnightblue" stroke="midnightblue" points="673.383,-112.582 683.977,-112.444 675.609,-105.945 673.383,-112.582"/>
</g>
<!-- Node25&#45;&gt;Node27 -->
<g id="edge6" class="edge"><title>Node25&#45;&gt;Node27</title>
<path fill="none" stroke="midnightblue" d="M744.315,-109.172C774.254,-99.0039 816.709,-84.5852 843.412,-75.5164"/>
<polygon fill="midnightblue" stroke="midnightblue" points="743.025,-105.914 734.682,-112.444 745.276,-112.542 743.025,-105.914"/>
</g>
<!-- Node25&#45;&gt;Node28 -->
<g id="edge7" class="edge"><title>Node25&#45;&gt;Node28</title>
<path fill="none" stroke="midnightblue" d="M766.491,-110.601C822.432,-100.395 906.718,-85.0189 958.805,-75.5164"/>
<polygon fill="midnightblue" stroke="midnightblue" points="765.599,-107.206 756.39,-112.444 766.856,-114.092 765.599,-107.206"/>
</g>
<!-- Node29 -->
<g id="node9" class="node"><title>Node29</title>
<g id="a_node9"><a xlink:href="masternode-payments_8cpp.html" target="_top" xlink:title="src/masternode&#45;payments.cpp">
<polygon fill="white" stroke="black" points="635.988,-56.5 635.988,-75.5 784.988,-75.5 784.988,-56.5 635.988,-56.5"/>
<text text-anchor="middle" x="710.488" y="-63.5" font-family="Helvetica,sans-Serif" font-size="10.00">src/masternode&#45;payments.cpp</text>
</a>
</g>
</g>
<!-- Node25&#45;&gt;Node29 -->
<g id="edge8" class="edge"><title>Node25&#45;&gt;Node29</title>
<path fill="none" stroke="midnightblue" d="M709.843,-101.805C710.008,-92.9102 710.196,-82.7798 710.326,-75.7511"/>
<polygon fill="midnightblue" stroke="midnightblue" points="706.339,-102.02 709.653,-112.083 713.338,-102.15 706.339,-102.02"/>
</g>
<!-- Node25&#45;&gt;Node30 -->
<g id="edge9" class="edge"><title>Node25&#45;&gt;Node30</title>
<path fill="none" stroke="midnightblue" d="M634.998,-111.982C470.226,-94.6337 289.688,-79.3116 198.218,-71.8115"/>
<polygon fill="midnightblue" stroke="midnightblue" points="635.014,-115.503 645.326,-113.074 635.75,-108.542 635.014,-115.503"/>
</g>
<!-- Node31 -->
<g id="node11" class="node"><title>Node31</title>
<g id="a_node11"><a xlink:href="mining_8cpp.html" target="_top" xlink:title="src/rpc/mining.cpp">
<polygon fill="white" stroke="black" points="363.988,-56.5 363.988,-75.5 460.988,-75.5 460.988,-56.5 363.988,-56.5"/>
<text text-anchor="middle" x="412.488" y="-63.5" font-family="Helvetica,sans-Serif" font-size="10.00">src/rpc/mining.cpp</text>
</a>
</g>
</g>
<!-- Node25&#45;&gt;Node31 -->
<g id="edge10" class="edge"><title>Node25&#45;&gt;Node31</title>
<path fill="none" stroke="midnightblue" d="M652.292,-110.601C596.162,-100.395 511.592,-85.0189 459.328,-75.5164"/>
<polygon fill="midnightblue" stroke="midnightblue" points="651.962,-114.098 662.427,-112.444 653.215,-107.211 651.962,-114.098"/>
</g>
<!-- Node37&#45;&gt;Node23 -->
<g id="edge20" class="edge"><title>Node37&#45;&gt;Node23</title>
<path fill="none" stroke="midnightblue" d="M991.716,-223.922C905.152,-212.819 761.097,-194.342 687.636,-184.919"/>
<polygon fill="midnightblue" stroke="midnightblue" points="991.356,-227.405 1001.72,-225.206 992.247,-220.462 991.356,-227.405"/>
</g>
<!-- Node37&#45;&gt;Node27 -->
<g id="edge21" class="edge"><title>Node37&#45;&gt;Node27</title>
<path fill="none" stroke="midnightblue" d="M1055.36,-214.919C1044.2,-188.764 1020.21,-140.405 985.488,-112 963.168,-93.7423 932.61,-82.3293 908.32,-75.5666"/>
<polygon fill="midnightblue" stroke="midnightblue" points="1052.2,-216.436 1059.24,-224.355 1058.68,-213.775 1052.2,-216.436"/>
</g>
<!-- Node37&#45;&gt;Node28 -->
<g id="edge23" class="edge"><title>Node37&#45;&gt;Node28</title>
<path fill="none" stroke="midnightblue" d="M1066.09,-214.351C1069.93,-189.602 1073.49,-145.173 1057.49,-112 1049.81,-96.0847 1033.63,-83.5312 1021.35,-75.7717"/>
<polygon fill="midnightblue" stroke="midnightblue" points="1062.64,-213.775 1064.38,-224.226 1069.54,-214.972 1062.64,-213.775"/>
</g>
<!-- Node38 -->
<g id="node18" class="node"><title>Node38</title>
<g id="a_node18"><a xlink:href="governance-vote_8cpp.html" target="_top" xlink:title="src/governance&#45;vote.cpp">
<polygon fill="white" stroke="black" points="1109.49,-168.5 1109.49,-187.5 1233.49,-187.5 1233.49,-168.5 1109.49,-168.5"/>
<text text-anchor="middle" x="1171.49" y="-175.5" font-family="Helvetica,sans-Serif" font-size="10.00">src/governance&#45;vote.cpp</text>
</a>
</g>
</g>
<!-- Node37&#45;&gt;Node38 -->
<g id="edge22" class="edge"><title>Node37&#45;&gt;Node38</title>
<path fill="none" stroke="midnightblue" d="M1089.01,-219.862C1109.22,-209.849 1136.47,-196.346 1154.02,-187.655"/>
<polygon fill="midnightblue" stroke="midnightblue" points="1087.41,-216.748 1080,-224.324 1090.51,-223.021 1087.41,-216.748"/>
</g>
<!-- Node39 -->
<g id="node19" class="node"><title>Node39</title>
<g id="a_node19"><a xlink:href="zmqconfig_8h.html" target="_top" xlink:title="src/zmq/zmqconfig.h">
<polygon fill="white" stroke="black" points="1251.49,-168.5 1251.49,-187.5 1359.49,-187.5 1359.49,-168.5 1251.49,-168.5"/>
<text text-anchor="middle" x="1305.49" y="-175.5" font-family="Helvetica,sans-Serif" font-size="10.00">src/zmq/zmqconfig.h</text>
</a>
</g>
</g>
<!-- Node37&#45;&gt;Node39 -->
<g id="edge24" class="edge"><title>Node37&#45;&gt;Node39</title>
<path fill="none" stroke="midnightblue" d="M1111.01,-222.217C1156.93,-212.013 1224.94,-196.901 1267.16,-187.516"/>
<polygon fill="midnightblue" stroke="midnightblue" points="1109.99,-218.858 1100.99,-224.444 1111.51,-225.691 1109.99,-218.858"/>
</g>
<!-- Node40 -->
<g id="node20" class="node"><title>Node40</title>
<g id="a_node20"><a xlink:href="zmqabstractnotifier_8h.html" target="_top" xlink:title="src/zmq/zmqabstractnotifier.h">
<polygon fill="white" stroke="black" points="1232.49,-112.5 1232.49,-131.5 1378.49,-131.5 1378.49,-112.5 1232.49,-112.5"/>
<text text-anchor="middle" x="1305.49" y="-119.5" font-family="Helvetica,sans-Serif" font-size="10.00">src/zmq/zmqabstractnotifier.h</text>
</a>
</g>
</g>
<!-- Node39&#45;&gt;Node40 -->
<g id="edge25" class="edge"><title>Node39&#45;&gt;Node40</title>
<path fill="none" stroke="midnightblue" d="M1305.49,-157.805C1305.49,-148.91 1305.49,-138.78 1305.49,-131.751"/>
<polygon fill="midnightblue" stroke="midnightblue" points="1301.99,-158.083 1305.49,-168.083 1308.99,-158.083 1301.99,-158.083"/>
</g>
<!-- Node41 -->
<g id="node21" class="node"><title>Node41</title>
<g id="a_node21"><a xlink:href="zmqabstractnotifier_8cpp.html" target="_top" xlink:title="src/zmq/zmqabstractnotifier.cpp">
<polygon fill="white" stroke="black" points="1150.99,-56.5 1150.99,-75.5 1307.99,-75.5 1307.99,-56.5 1150.99,-56.5"/>
<text text-anchor="middle" x="1229.49" y="-63.5" font-family="Helvetica,sans-Serif" font-size="10.00">src/zmq/zmqabstractnotifier.cpp</text>
</a>
</g>
</g>
<!-- Node40&#45;&gt;Node41 -->
<g id="edge26" class="edge"><title>Node40&#45;&gt;Node41</title>
<path fill="none" stroke="midnightblue" d="M1284.91,-106.38C1271.18,-96.6204 1253.56,-84.1057 1241.92,-75.8339"/>
<polygon fill="midnightblue" stroke="midnightblue" points="1283.1,-109.385 1293.28,-112.324 1287.15,-103.679 1283.1,-109.385"/>
</g>
<!-- Node42 -->
<g id="node22" class="node"><title>Node42</title>
<g id="a_node22"><a xlink:href="zmqpublishnotifier_8h.html" target="_top" xlink:title="src/zmq/zmqpublishnotifier.h">
<polygon fill="white" stroke="black" points="1326.49,-56.5 1326.49,-75.5 1468.49,-75.5 1468.49,-56.5 1326.49,-56.5"/>
<text text-anchor="middle" x="1397.49" y="-63.5" font-family="Helvetica,sans-Serif" font-size="10.00">src/zmq/zmqpublishnotifier.h</text>
</a>
</g>
</g>
<!-- Node40&#45;&gt;Node42 -->
<g id="edge27" class="edge"><title>Node40&#45;&gt;Node42</title>
<path fill="none" stroke="midnightblue" d="M1329.04,-107.177C1345.97,-97.2407 1368.27,-84.1492 1382.74,-75.6545"/>
<polygon fill="midnightblue" stroke="midnightblue" points="1327.12,-104.243 1320.27,-112.324 1330.67,-110.28 1327.12,-104.243"/>
</g>
<!-- Node43 -->
<g id="node23" class="node"><title>Node43</title>
<g id="a_node23"><a xlink:href="zmqnotificationinterface_8cpp.html" target="_top" xlink:title="src/zmq/zmqnotificationinterface.cpp">
<polygon fill="white" stroke="black" points="1217.99,-0.5 1217.99,-19.5 1394.99,-19.5 1394.99,-0.5 1217.99,-0.5"/>
<text text-anchor="middle" x="1306.49" y="-7.5" font-family="Helvetica,sans-Serif" font-size="10.00">src/zmq/zmqnotificationinterface.cpp</text>
</a>
</g>
</g>
<!-- Node42&#45;&gt;Node43 -->
<g id="edge28" class="edge"><title>Node42&#45;&gt;Node43</title>
<path fill="none" stroke="midnightblue" d="M1374.19,-51.1774C1357.45,-41.2407 1335.39,-28.1492 1321.07,-19.6545"/>
<polygon fill="midnightblue" stroke="midnightblue" points="1372.48,-54.2307 1382.87,-56.324 1376.05,-48.2108 1372.48,-54.2307"/>
</g>
<!-- Node44 -->
<g id="node24" class="node"><title>Node44</title>
<g id="a_node24"><a xlink:href="zmqpublishnotifier_8cpp.html" target="_top" xlink:title="src/zmq/zmqpublishnotifier.cpp">
<polygon fill="white" stroke="black" points="1413.49,-0.5 1413.49,-19.5 1565.49,-19.5 1565.49,-0.5 1413.49,-0.5"/>
<text text-anchor="middle" x="1489.49" y="-7.5" font-family="Helvetica,sans-Serif" font-size="10.00">src/zmq/zmqpublishnotifier.cpp</text>
</a>
</g>
</g>
<!-- Node42&#45;&gt;Node44 -->
<g id="edge29" class="edge"><title>Node42&#45;&gt;Node44</title>
<path fill="none" stroke="midnightblue" d="M1421.04,-51.1774C1437.97,-41.2407 1460.27,-28.1492 1474.74,-19.6545"/>
<polygon fill="midnightblue" stroke="midnightblue" points="1419.12,-48.2435 1412.27,-56.324 1422.67,-54.2804 1419.12,-48.2435"/>
</g>
</g>
</svg>
        <g id="navigator" transform="translate(0 0)" fill="#404254">
                <rect fill="#f2f5e9" fill-opacity="0.5" stroke="#606060" stroke-width=".5" x="0" y="0" width="60" height="60"/>
                <use id="zoomplus" xlink:href="#zoomPlus" x="17" y="9" onmousedown="handleZoom(evt,'in')"/>
                <use id="zoomminus" xlink:href="#zoomMin" x="42" y="9" onmousedown="handleZoom(evt,'out')"/>
                <use id="reset" xlink:href="#resetDef" x="30" y="36" onmousedown="handleReset()"/>
                <g id="arrowUp" xlink:href="#dirArrow" transform="translate(30 24)" onmousedown="handlePan(0,-1)">
                  <use xlink:href="#rim" fill="#404040">
                        <set attributeName="fill" to="#808080" begin="arrowUp.mouseover" end="arrowUp.mouseout"/>
                  </use>
                  <path fill="none" stroke="white" stroke-width="1.5" d="M0,-3.0v7 M-2.5,-0.5L0,-3.0L2.5,-0.5"/>
                </g>
                <g id="arrowRight" xlink:href="#dirArrow" transform="rotate(90) translate(36 -43)" onmousedown="handlePan(1,0)">
                  <use xlink:href="#rim" fill="#404040">
                        <set attributeName="fill" to="#808080" begin="arrowRight.mouseover" end="arrowRight.mouseout"/>
                  </use>
                  <path fill="none" stroke="white" stroke-width="1.5" d="M0,-3.0v7 M-2.5,-0.5L0,-3.0L2.5,-0.5"/>
                </g>
                <g id="arrowDown" xlink:href="#dirArrow" transform="rotate(180) translate(-30 -48)" onmousedown="handlePan(0,1)">
                  <use xlink:href="#rim" fill="#404040">
                        <set attributeName="fill" to="#808080" begin="arrowDown.mouseover" end="arrowDown.mouseout"/>
                  </use>
                  <path fill="none" stroke="white" stroke-width="1.5" d="M0,-3.0v7 M-2.5,-0.5L0,-3.0L2.5,-0.5"/>
                </g>
                <g id="arrowLeft" xlink:href="#dirArrow" transform="rotate(270) translate(-36 17)" onmousedown="handlePan(-1,0)">
                  <use xlink:href="#rim" fill="#404040">
                        <set attributeName="fill" to="#808080" begin="arrowLeft.mouseover" end="arrowLeft.mouseout"/>
                  </use>
                  <path fill="none" stroke="white" stroke-width="1.5" d="M0,-3.0v7 M-2.5,-0.5L0,-3.0L2.5,-0.5"/>
                </g>
        </g>
        <svg viewBox="0 0 15 15" width="100%" height="30px" preserveAspectRatio="xMaxYMin meet">
         <g id="arrow_out" transform="scale(0.3 0.3)">
          <a xlink:href="cachemap_8h__dep__incl_org.svg" target="_base">
           <rect id="button" ry="5" rx="5" y="6" x="6" height="38" width="38"
                fill="#f2f5e9" fill-opacity="0.5" stroke="#606060" stroke-width="1.0"/>
           <path id="arrow"
             d="M 11.500037,31.436501 C 11.940474,20.09759 22.043105,11.32322 32.158766,21.979434 L 37.068811,17.246167 C 37.068811,17.246167 37.088388,32 37.088388,32 L 22.160133,31.978069 C 22.160133,31.978069 26.997745,27.140456 26.997745,27.140456 C 18.528582,18.264221 13.291696,25.230495 11.500037,31.436501 z"
             style="fill:#404040;"/>
          </a>
         </g>
        </svg>
</svg>
