<?xml version="1.0" encoding="UTF-8" standalone="no"?>
<!DOCTYPE svg PUBLIC "-//W3C//DTD SVG 1.1//EN"
 "http://www.w3.org/Graphics/SVG/1.1/DTD/svg11.dtd">
<!-- Generated by graphviz version 2.36.0 (20140111.2315)
 -->
<!-- Title: src/evo/cbtx.h Pages: 1 -->
<!--zoomable 420 -->
<svg id="main" version="1.1" xmlns="http://www.w3.org/2000/svg" xmlns:xlink="http://www.w3.org/1999/xlink" xml:space="preserve" onload="init(evt)">
<style type="text/css"><![CDATA[
.edge:hover path { stroke: red; }
.edge:hover polygon { stroke: red; fill: red; }
]]></style>
<script type="text/javascript"><![CDATA[
var edges = document.getElementsByTagName('g');
if (edges && edges.length) {
  for (var i=0;i<edges.length;i++) {
    if (edges[i].id.substr(0,4)=='edge') {
      edges[i].setAttribute('class','edge');
    }
  }
}
]]></script>
        <defs>
                <circle id="rim" cx="0" cy="0" r="7"/>
                <circle id="rim2" cx="0" cy="0" r="3.5"/>
                <g id="zoomPlus">
                        <use xlink:href="#rim" fill="#404040">
                                <set attributeName="fill" to="#808080" begin="zoomplus.mouseover" end="zoomplus.mouseout"/>
                        </use>
                        <path d="M-4,0h8M0,-4v8" fill="none" stroke="white" stroke-width="1.5" pointer-events="none"/>
                </g>
                <g id="zoomMin">
                        <use xlink:href="#rim" fill="#404040">
                                <set attributeName="fill" to="#808080" begin="zoomminus.mouseover" end="zoomminus.mouseout"/>
                        </use>
                        <path d="M-4,0h8" fill="none" stroke="white" stroke-width="1.5" pointer-events="none"/>
                </g>
                <g id="dirArrow">
                        <path fill="none" stroke="white" stroke-width="1.5" d="M0,-3.0v7 M-2.5,-0.5L0,-3.0L2.5,-0.5"/>
                </g>
               <g id="resetDef">
                       <use xlink:href="#rim2" fill="#404040">
                               <set attributeName="fill" to="#808080" begin="reset.mouseover" end="reset.mouseout"/>
                       </use>
               </g>
        </defs>

<script type="text/javascript">
var viewWidth = 1347;
var viewHeight = 420;
var sectionId = 'dynsection-0';
</script>
<script xlink:href="svgpan.js"/>
<svg id="graph" class="graph">
<g id="viewport">
<title>src/evo/cbtx.h</title>
<polygon fill="white" stroke="none" points="-4,4 -4,-416 1343,-416 1343,4 -4,4"/>
<!-- Node0 -->
<g id="node1" class="node"><title>Node0</title>
<polygon fill="#bfbfbf" stroke="black" points="315.5,-392.5 315.5,-411.5 394.5,-411.5 394.5,-392.5 315.5,-392.5"/>
<text text-anchor="middle" x="355" y="-399.5" font-family="Helvetica,sans-Serif" font-size="10.00">src/evo/cbtx.h</text>
</g>
<!-- Node1 -->
<g id="node2" class="node"><title>Node1</title>
<g id="a_node2"><a xlink:href="consensus_2validation_8h.html" target="_top" xlink:title="consensus/validation.h">
<polygon fill="white" stroke="black" points="110,-280.5 110,-299.5 226,-299.5 226,-280.5 110,-280.5"/>
<text text-anchor="middle" x="168" y="-287.5" font-family="Helvetica,sans-Serif" font-size="10.00">consensus/validation.h</text>
</a>
</g>
</g>
<!-- Node0&#45;&gt;Node1 -->
<g id="edge1" class="edge"><title>Node0&#45;&gt;Node1</title>
<path fill="none" stroke="midnightblue" d="M340.326,-392.368C308.101,-373.412 230.901,-328.001 191.702,-304.942"/>
<polygon fill="midnightblue" stroke="midnightblue" points="192.999,-301.645 182.605,-299.591 189.45,-307.678 192.999,-301.645"/>
</g>
<!-- Node3 -->
<g id="node4" class="node"><title>Node3</title>
<g id="a_node4"><a xlink:href="transaction_8h.html" target="_top" xlink:title="primitives/transaction.h">
<polygon fill="white" stroke="black" points="388,-336.5 388,-355.5 506,-355.5 506,-336.5 388,-336.5"/>
<text text-anchor="middle" x="447" y="-343.5" font-family="Helvetica,sans-Serif" font-size="10.00">primitives/transaction.h</text>
</a>
</g>
</g>
<!-- Node0&#45;&gt;Node3 -->
<g id="edge3" class="edge"><title>Node0&#45;&gt;Node3</title>
<path fill="none" stroke="midnightblue" d="M369.781,-392.324C384.267,-383.822 406.573,-370.729 423.493,-360.797"/>
<polygon fill="midnightblue" stroke="midnightblue" points="425.403,-363.735 432.255,-355.655 421.859,-357.698 425.403,-363.735"/>
</g>
<!-- Node2 -->
<g id="node3" class="node"><title>Node2</title>
<polygon fill="white" stroke="#bfbfbf" points="-0.5,-168.5 -0.5,-187.5 40.5,-187.5 40.5,-168.5 -0.5,-168.5"/>
<text text-anchor="middle" x="20" y="-175.5" font-family="Helvetica,sans-Serif" font-size="10.00">string</text>
</g>
<!-- Node1&#45;&gt;Node2 -->
<g id="edge2" class="edge"><title>Node1&#45;&gt;Node2</title>
<path fill="none" stroke="midnightblue" d="M156.387,-280.368C131.206,-261.653 71.3302,-217.151 39.9564,-193.832"/>
<polygon fill="midnightblue" stroke="midnightblue" points="41.6732,-190.748 31.5594,-187.591 37.4975,-196.366 41.6732,-190.748"/>
</g>
<!-- Node4 -->
<g id="node5" class="node"><title>Node4</title>
<g id="a_node5"><a xlink:href="amount_8h.html" target="_top" xlink:title="amount.h">
<polygon fill="white" stroke="black" points="361.5,-280.5 361.5,-299.5 418.5,-299.5 418.5,-280.5 361.5,-280.5"/>
<text text-anchor="middle" x="390" y="-287.5" font-family="Helvetica,sans-Serif" font-size="10.00">amount.h</text>
</a>
</g>
</g>
<!-- Node3&#45;&gt;Node4 -->
<g id="edge4" class="edge"><title>Node3&#45;&gt;Node4</title>
<path fill="none" stroke="midnightblue" d="M437.842,-336.324C429.499,-328.42 416.968,-316.548 406.823,-306.938"/>
<polygon fill="midnightblue" stroke="midnightblue" points="408.991,-304.171 399.325,-299.834 404.177,-309.252 408.991,-304.171"/>
</g>
<!-- Node5 -->
<g id="node6" class="node"><title>Node5</title>
<g id="a_node6"><a xlink:href="serialize_8h.html" target="_top" xlink:title="serialize.h">
<polygon fill="white" stroke="black" points="359.5,-224.5 359.5,-243.5 420.5,-243.5 420.5,-224.5 359.5,-224.5"/>
<text text-anchor="middle" x="390" y="-231.5" font-family="Helvetica,sans-Serif" font-size="10.00">serialize.h</text>
</a>
</g>
</g>
<!-- Node3&#45;&gt;Node5 -->
<g id="edge45" class="edge"><title>Node3&#45;&gt;Node5</title>
<path fill="none" stroke="midnightblue" d="M445.42,-336.164C442.863,-323.249 437.064,-298.718 427,-280 421.324,-269.444 412.975,-259.018 405.644,-250.864"/>
<polygon fill="midnightblue" stroke="midnightblue" points="408.179,-248.452 398.788,-243.547 403.071,-253.237 408.179,-248.452"/>
</g>
<!-- Node23 -->
<g id="node24" class="node"><title>Node23</title>
<g id="a_node24"><a xlink:href="script_8h.html" target="_top" xlink:title="script/script.h">
<polygon fill="white" stroke="black" points="823,-224.5 823,-243.5 899,-243.5 899,-224.5 823,-224.5"/>
<text text-anchor="middle" x="861" y="-231.5" font-family="Helvetica,sans-Serif" font-size="10.00">script/script.h</text>
</a>
</g>
</g>
<!-- Node3&#45;&gt;Node23 -->
<g id="edge31" class="edge"><title>Node3&#45;&gt;Node23</title>
<path fill="none" stroke="midnightblue" d="M479.141,-336.46C553.277,-316.762 736.222,-268.154 819.052,-246.146"/>
<polygon fill="midnightblue" stroke="midnightblue" points="820.113,-249.485 828.879,-243.535 818.316,-242.72 820.113,-249.485"/>
</g>
<!-- Node27 -->
<g id="node28" class="node"><title>Node27</title>
<g id="a_node28"><a xlink:href="uint256_8h.html" target="_top" xlink:title="uint256.h">
<polygon fill="white" stroke="black" points="1094,-224.5 1094,-243.5 1150,-243.5 1150,-224.5 1094,-224.5"/>
<text text-anchor="middle" x="1122" y="-231.5" font-family="Helvetica,sans-Serif" font-size="10.00">uint256.h</text>
</a>
</g>
</g>
<!-- Node3&#45;&gt;Node27 -->
<g id="edge46" class="edge"><title>Node3&#45;&gt;Node27</title>
<path fill="none" stroke="midnightblue" d="M499.404,-336.46C630.369,-315.118 969.596,-259.836 1083.82,-241.222"/>
<polygon fill="midnightblue" stroke="midnightblue" points="1084.54,-244.651 1093.85,-239.588 1083.41,-237.742 1084.54,-244.651"/>
</g>
<!-- Node4&#45;&gt;Node2 -->
<g id="edge30" class="edge"><title>Node4&#45;&gt;Node2</title>
<path fill="none" stroke="midnightblue" d="M361.275,-280.46C292.96,-260.15 121.265,-209.106 50.8555,-188.173"/>
<polygon fill="midnightblue" stroke="midnightblue" points="51.4233,-184.691 40.8405,-185.196 49.4284,-191.4 51.4233,-184.691"/>
</g>
<!-- Node4&#45;&gt;Node5 -->
<g id="edge5" class="edge"><title>Node4&#45;&gt;Node5</title>
<path fill="none" stroke="midnightblue" d="M390,-280.083C390,-273.006 390,-262.861 390,-253.986"/>
<polygon fill="midnightblue" stroke="midnightblue" points="393.5,-253.751 390,-243.751 386.5,-253.751 393.5,-253.751"/>
</g>
<!-- Node21 -->
<g id="node22" class="node"><title>Node21</title>
<polygon fill="white" stroke="#bfbfbf" points="619,-112.5 619,-131.5 667,-131.5 667,-112.5 619,-112.5"/>
<text text-anchor="middle" x="643" y="-119.5" font-family="Helvetica,sans-Serif" font-size="10.00">stdlib.h</text>
</g>
<!-- Node4&#45;&gt;Node21 -->
<g id="edge29" class="edge"><title>Node4&#45;&gt;Node21</title>
<path fill="none" stroke="midnightblue" d="M418.563,-288.138C475.564,-284.688 602.697,-267.942 658,-188 667.65,-174.051 661.349,-154.789 654.19,-140.858"/>
<polygon fill="midnightblue" stroke="midnightblue" points="657.029,-138.769 649.041,-131.808 650.945,-142.231 657.029,-138.769"/>
</g>
<!-- Node5&#45;&gt;Node2 -->
<g id="edge19" class="edge"><title>Node5&#45;&gt;Node2</title>
<path fill="none" stroke="midnightblue" d="M359.317,-230.104C300.118,-224.247 166.162,-209.68 55,-188 53.5375,-187.715 52.0451,-187.405 50.5409,-187.078"/>
<polygon fill="midnightblue" stroke="midnightblue" points="51.1729,-183.631 40.6361,-184.738 49.5634,-190.443 51.1729,-183.631"/>
</g>
<!-- Node6 -->
<g id="node7" class="node"><title>Node6</title>
<g id="a_node7"><a xlink:href="endian_8h.html" target="_top" xlink:title="compat/endian.h">
<polygon fill="white" stroke="black" points="24.5,-112.5 24.5,-131.5 113.5,-131.5 113.5,-112.5 24.5,-112.5"/>
<text text-anchor="middle" x="69" y="-119.5" font-family="Helvetica,sans-Serif" font-size="10.00">compat/endian.h</text>
</a>
</g>
</g>
<!-- Node5&#45;&gt;Node6 -->
<g id="edge6" class="edge"><title>Node5&#45;&gt;Node6</title>
<path fill="none" stroke="midnightblue" d="M359.455,-230.136C287.819,-223.173 113.492,-204.698 93,-188 79.178,-176.737 73.3161,-156.727 70.8302,-141.874"/>
<polygon fill="midnightblue" stroke="midnightblue" points="74.2741,-141.216 69.5113,-131.752 67.3327,-142.12 74.2741,-141.216"/>
</g>
<!-- Node7 -->
<g id="node8" class="node"><title>Node7</title>
<polygon fill="white" stroke="#bfbfbf" points="670.5,-0.5 670.5,-19.5 719.5,-19.5 719.5,-0.5 670.5,-0.5"/>
<text text-anchor="middle" x="695" y="-7.5" font-family="Helvetica,sans-Serif" font-size="10.00">stdint.h</text>
</g>
<!-- Node5&#45;&gt;Node7 -->
<g id="edge18" class="edge"><title>Node5&#45;&gt;Node7</title>
<path fill="none" stroke="midnightblue" d="M359.103,-232.508C295.95,-230.78 155.538,-222.998 126,-188 120.267,-181.207 120.615,-175.072 126,-168 192.531,-80.6251 546.518,-29.5044 659.978,-15.179"/>
<polygon fill="midnightblue" stroke="midnightblue" points="660.699,-18.6164 670.19,-13.9075 659.834,-11.67 660.699,-18.6164"/>
</g>
<!-- Node9 -->
<g id="node10" class="node"><title>Node9</title>
<polygon fill="white" stroke="#bfbfbf" points="135,-168.5 135,-187.5 191,-187.5 191,-168.5 135,-168.5"/>
<text text-anchor="middle" x="163" y="-175.5" font-family="Helvetica,sans-Serif" font-size="10.00">algorithm</text>
</g>
<!-- Node5&#45;&gt;Node9 -->
<g id="edge10" class="edge"><title>Node5&#45;&gt;Node9</title>
<path fill="none" stroke="midnightblue" d="M359.386,-225.717C318.406,-215.969 245.73,-198.68 201.209,-188.089"/>
<polygon fill="midnightblue" stroke="midnightblue" points="201.885,-184.653 191.346,-185.743 200.265,-191.462 201.885,-184.653"/>
</g>
<!-- Node10 -->
<g id="node11" class="node"><title>Node10</title>
<polygon fill="white" stroke="#bfbfbf" points="789,-112.5 789,-131.5 841,-131.5 841,-112.5 789,-112.5"/>
<text text-anchor="middle" x="815" y="-119.5" font-family="Helvetica,sans-Serif" font-size="10.00">assert.h</text>
</g>
<!-- Node5&#45;&gt;Node10 -->
<g id="edge11" class="edge"><title>Node5&#45;&gt;Node10</title>
<path fill="none" stroke="midnightblue" d="M359.191,-230.388C304.675,-224.681 200.351,-208.238 238,-168 277.512,-125.771 684.864,-140.053 778.708,-131.349"/>
<polygon fill="midnightblue" stroke="midnightblue" points="779.257,-134.808 788.765,-130.134 778.417,-127.858 779.257,-134.808"/>
</g>
<!-- Node11 -->
<g id="node12" class="node"><title>Node11</title>
<polygon fill="white" stroke="#bfbfbf" points="247.5,-168.5 247.5,-187.5 276.5,-187.5 276.5,-168.5 247.5,-168.5"/>
<text text-anchor="middle" x="262" y="-175.5" font-family="Helvetica,sans-Serif" font-size="10.00">ios</text>
</g>
<!-- Node5&#45;&gt;Node11 -->
<g id="edge12" class="edge"><title>Node5&#45;&gt;Node11</title>
<path fill="none" stroke="midnightblue" d="M369.718,-224.444C347.019,-214.867 310.266,-199.362 286.115,-189.173"/>
<polygon fill="midnightblue" stroke="midnightblue" points="287.187,-185.827 276.613,-185.165 284.466,-192.277 287.187,-185.827"/>
</g>
<!-- Node12 -->
<g id="node13" class="node"><title>Node12</title>
<polygon fill="white" stroke="#bfbfbf" points="609,-168.5 609,-187.5 649,-187.5 649,-168.5 609,-168.5"/>
<text text-anchor="middle" x="629" y="-175.5" font-family="Helvetica,sans-Serif" font-size="10.00">limits</text>
</g>
<!-- Node5&#45;&gt;Node12 -->
<g id="edge13" class="edge"><title>Node5&#45;&gt;Node12</title>
<path fill="none" stroke="midnightblue" d="M420.809,-227.298C460.074,-219.835 530.21,-205.852 599.079,-188.063"/>
<polygon fill="midnightblue" stroke="midnightblue" points="599.994,-191.441 608.785,-185.528 598.225,-184.669 599.994,-191.441"/>
</g>
<!-- Node13 -->
<g id="node14" class="node"><title>Node13</title>
<polygon fill="white" stroke="#bfbfbf" points="294.5,-168.5 294.5,-187.5 323.5,-187.5 323.5,-168.5 294.5,-168.5"/>
<text text-anchor="middle" x="309" y="-175.5" font-family="Helvetica,sans-Serif" font-size="10.00">list</text>
</g>
<!-- Node5&#45;&gt;Node13 -->
<g id="edge14" class="edge"><title>Node5&#45;&gt;Node13</title>
<path fill="none" stroke="midnightblue" d="M376.986,-224.324C364.468,-215.979 345.318,-203.212 330.529,-193.352"/>
<polygon fill="midnightblue" stroke="midnightblue" points="332.244,-190.289 321.982,-187.655 328.361,-196.114 332.244,-190.289"/>
</g>
<!-- Node14 -->
<g id="node15" class="node"><title>Node14</title>
<polygon fill="white" stroke="#bfbfbf" points="341.5,-168.5 341.5,-187.5 376.5,-187.5 376.5,-168.5 341.5,-168.5"/>
<text text-anchor="middle" x="359" y="-175.5" font-family="Helvetica,sans-Serif" font-size="10.00">map</text>
</g>
<!-- Node5&#45;&gt;Node14 -->
<g id="edge15" class="edge"><title>Node5&#45;&gt;Node14</title>
<path fill="none" stroke="midnightblue" d="M384.881,-224.083C380.592,-216.613 374.342,-205.724 369.058,-196.52"/>
<polygon fill="midnightblue" stroke="midnightblue" points="372.038,-194.681 364.024,-187.751 365.967,-198.166 372.038,-194.681"/>
</g>
<!-- Node15 -->
<g id="node16" class="node"><title>Node15</title>
<polygon fill="white" stroke="#bfbfbf" points="395,-168.5 395,-187.5 447,-187.5 447,-168.5 395,-168.5"/>
<text text-anchor="middle" x="421" y="-175.5" font-family="Helvetica,sans-Serif" font-size="10.00">memory</text>
</g>
<!-- Node5&#45;&gt;Node15 -->
<g id="edge16" class="edge"><title>Node5&#45;&gt;Node15</title>
<path fill="none" stroke="midnightblue" d="M395.119,-224.083C399.408,-216.613 405.658,-205.724 410.942,-196.52"/>
<polygon fill="midnightblue" stroke="midnightblue" points="414.033,-198.166 415.976,-187.751 407.962,-194.681 414.033,-198.166"/>
</g>
<!-- Node16 -->
<g id="node17" class="node"><title>Node16</title>
<polygon fill="white" stroke="#bfbfbf" points="465,-168.5 465,-187.5 495,-187.5 495,-168.5 465,-168.5"/>
<text text-anchor="middle" x="480" y="-175.5" font-family="Helvetica,sans-Serif" font-size="10.00">set</text>
</g>
<!-- Node5&#45;&gt;Node16 -->
<g id="edge17" class="edge"><title>Node5&#45;&gt;Node16</title>
<path fill="none" stroke="midnightblue" d="M404.46,-224.324C418.5,-215.9 440.048,-202.971 456.543,-193.074"/>
<polygon fill="midnightblue" stroke="midnightblue" points="458.802,-195.801 465.576,-187.655 455.2,-189.798 458.802,-195.801"/>
</g>
<!-- Node17 -->
<g id="node18" class="node"><title>Node17</title>
<polygon fill="white" stroke="#bfbfbf" points="859.5,-112.5 859.5,-131.5 908.5,-131.5 908.5,-112.5 859.5,-112.5"/>
<text text-anchor="middle" x="884" y="-119.5" font-family="Helvetica,sans-Serif" font-size="10.00">string.h</text>
</g>
<!-- Node5&#45;&gt;Node17 -->
<g id="edge20" class="edge"><title>Node5&#45;&gt;Node17</title>
<path fill="none" stroke="midnightblue" d="M413.21,-224.495C436.244,-215.883 472.431,-201.887 503,-188 520.735,-179.943 523.362,-173.665 542,-168 670.773,-128.856 712.637,-156.341 849.212,-131.853"/>
<polygon fill="midnightblue" stroke="midnightblue" points="850.017,-135.263 859.211,-129.998 848.74,-128.381 850.017,-135.263"/>
</g>
<!-- Node18 -->
<g id="node19" class="node"><title>Node18</title>
<polygon fill="white" stroke="#bfbfbf" points="551,-168.5 551,-187.5 591,-187.5 591,-168.5 551,-168.5"/>
<text text-anchor="middle" x="571" y="-175.5" font-family="Helvetica,sans-Serif" font-size="10.00">utility</text>
</g>
<!-- Node5&#45;&gt;Node18 -->
<g id="edge21" class="edge"><title>Node5&#45;&gt;Node18</title>
<path fill="none" stroke="midnightblue" d="M418.68,-224.444C452.105,-214.472 507.08,-198.07 541.042,-187.938"/>
<polygon fill="midnightblue" stroke="midnightblue" points="542.279,-191.221 550.861,-185.008 540.277,-184.513 542.279,-191.221"/>
</g>
<!-- Node19 -->
<g id="node20" class="node"><title>Node19</title>
<polygon fill="white" stroke="#bfbfbf" points="789,-168.5 789,-187.5 833,-187.5 833,-168.5 789,-168.5"/>
<text text-anchor="middle" x="811" y="-175.5" font-family="Helvetica,sans-Serif" font-size="10.00">vector</text>
</g>
<!-- Node5&#45;&gt;Node19 -->
<g id="edge22" class="edge"><title>Node5&#45;&gt;Node19</title>
<path fill="none" stroke="midnightblue" d="M420.518,-231.127C484.909,-226.822 639.462,-214.629 778.73,-187.715"/>
<polygon fill="midnightblue" stroke="midnightblue" points="779.591,-191.113 788.73,-185.752 778.243,-184.244 779.591,-191.113"/>
</g>
<!-- Node20 -->
<g id="node21" class="node"><title>Node20</title>
<g id="a_node21"><a xlink:href="prevector_8h.html" target="_top" xlink:title="prevector.h">
<polygon fill="white" stroke="black" points="705.5,-168.5 705.5,-187.5 770.5,-187.5 770.5,-168.5 705.5,-168.5"/>
<text text-anchor="middle" x="738" y="-175.5" font-family="Helvetica,sans-Serif" font-size="10.00">prevector.h</text>
</a>
</g>
</g>
<!-- Node5&#45;&gt;Node20 -->
<g id="edge23" class="edge"><title>Node5&#45;&gt;Node20</title>
<path fill="none" stroke="midnightblue" d="M420.578,-228.255C482.783,-218.603 624.182,-196.661 695.372,-185.615"/>
<polygon fill="midnightblue" stroke="midnightblue" points="696.004,-189.059 705.349,-184.067 694.93,-182.141 696.004,-189.059"/>
</g>
<!-- Node6&#45;&gt;Node7 -->
<g id="edge7" class="edge"><title>Node6&#45;&gt;Node7</title>
<path fill="none" stroke="midnightblue" d="M50.8808,-112.342C27.0303,-99.8489 -9.79132,-76.0644 9,-56 53.8313,-8.13148 527.376,-9.28877 660.413,-10.5734"/>
<polygon fill="midnightblue" stroke="midnightblue" points="660.421,-14.0735 670.457,-10.6771 660.494,-7.07392 660.421,-14.0735"/>
</g>
<!-- Node8 -->
<g id="node9" class="node"><title>Node8</title>
<g id="a_node9"><a xlink:href="byteswap_8h.html" target="_top" xlink:title="compat/byteswap.h">
<polygon fill="white" stroke="black" points="18,-56.5 18,-75.5 120,-75.5 120,-56.5 18,-56.5"/>
<text text-anchor="middle" x="69" y="-63.5" font-family="Helvetica,sans-Serif" font-size="10.00">compat/byteswap.h</text>
</a>
</g>
</g>
<!-- Node6&#45;&gt;Node8 -->
<g id="edge8" class="edge"><title>Node6&#45;&gt;Node8</title>
<path fill="none" stroke="midnightblue" d="M69,-112.083C69,-105.006 69,-94.8611 69,-85.9865"/>
<polygon fill="midnightblue" stroke="midnightblue" points="72.5001,-85.751 69,-75.7511 65.5001,-85.7511 72.5001,-85.751"/>
</g>
<!-- Node8&#45;&gt;Node7 -->
<g id="edge9" class="edge"><title>Node8&#45;&gt;Node7</title>
<path fill="none" stroke="midnightblue" d="M120.06,-57.6475C124.769,-57.0548 129.47,-56.4949 134,-56 332.605,-34.3032 571.841,-18.5579 660.103,-13.0984"/>
<polygon fill="midnightblue" stroke="midnightblue" points="660.578,-16.5759 670.345,-12.4693 660.149,-9.58907 660.578,-16.5759"/>
</g>
<!-- Node20&#45;&gt;Node7 -->
<g id="edge26" class="edge"><title>Node20&#45;&gt;Node7</title>
<path fill="none" stroke="midnightblue" d="M732.302,-168.429C726.746,-159.654 718.495,-145.435 714,-132 702.346,-97.1669 697.769,-54.2519 696.024,-30.0202"/>
<polygon fill="midnightblue" stroke="midnightblue" points="699.498,-29.5028 695.376,-19.7427 692.512,-29.943 699.498,-29.5028"/>
</g>
<!-- Node20&#45;&gt;Node10 -->
<g id="edge24" class="edge"><title>Node20&#45;&gt;Node10</title>
<path fill="none" stroke="midnightblue" d="M750.371,-168.324C762.158,-160.058 780.132,-147.453 794.136,-137.632"/>
<polygon fill="midnightblue" stroke="midnightblue" points="796.482,-140.262 802.659,-131.655 792.462,-134.531 796.482,-140.262"/>
</g>
<!-- Node20&#45;&gt;Node17 -->
<g id="edge27" class="edge"><title>Node20&#45;&gt;Node17</title>
<path fill="none" stroke="midnightblue" d="M761.134,-168.444C785.482,-159.438 824.007,-145.189 851.423,-135.049"/>
<polygon fill="midnightblue" stroke="midnightblue" points="852.809,-138.268 860.974,-131.516 850.381,-131.703 852.809,-138.268"/>
</g>
<!-- Node20&#45;&gt;Node21 -->
<g id="edge25" class="edge"><title>Node20&#45;&gt;Node21</title>
<path fill="none" stroke="midnightblue" d="M722.737,-168.324C707.779,-159.822 684.745,-146.729 667.273,-136.797"/>
<polygon fill="midnightblue" stroke="midnightblue" points="668.649,-133.553 658.226,-131.655 665.19,-139.639 668.649,-133.553"/>
</g>
<!-- Node22 -->
<g id="node23" class="node"><title>Node22</title>
<polygon fill="white" stroke="#bfbfbf" points="723.5,-112.5 723.5,-131.5 770.5,-131.5 770.5,-112.5 723.5,-112.5"/>
<text text-anchor="middle" x="747" y="-119.5" font-family="Helvetica,sans-Serif" font-size="10.00">iterator</text>
</g>
<!-- Node20&#45;&gt;Node22 -->
<g id="edge28" class="edge"><title>Node20&#45;&gt;Node22</title>
<path fill="none" stroke="midnightblue" d="M739.486,-168.083C740.679,-160.927 742.394,-150.635 743.885,-141.691"/>
<polygon fill="midnightblue" stroke="midnightblue" points="747.35,-142.19 745.541,-131.751 740.445,-141.04 747.35,-142.19"/>
</g>
<!-- Node23&#45;&gt;Node2 -->
<g id="edge43" class="edge"><title>Node23&#45;&gt;Node2</title>
<path fill="none" stroke="midnightblue" d="M822.72,-230.975C713.74,-225.142 392.482,-207.468 126,-188 100.63,-186.147 71.8766,-183.682 50.7237,-181.801"/>
<polygon fill="midnightblue" stroke="midnightblue" points="50.9787,-178.31 40.7062,-180.903 50.3538,-185.282 50.9787,-178.31"/>
</g>
<!-- Node23&#45;&gt;Node7 -->
<g id="edge41" class="edge"><title>Node23&#45;&gt;Node7</title>
<path fill="none" stroke="midnightblue" d="M870.802,-224.368C892.81,-203.924 942.308,-151.317 917,-112 875.298,-47.2122 780.718,-23.4979 729.5,-15.2001"/>
<polygon fill="midnightblue" stroke="midnightblue" points="729.974,-11.7321 719.563,-13.6963 728.927,-18.6533 729.974,-11.7321"/>
</g>
<!-- Node23&#45;&gt;Node10 -->
<g id="edge37" class="edge"><title>Node23&#45;&gt;Node10</title>
<path fill="none" stroke="midnightblue" d="M859.005,-224.366C855.932,-211.702 849.495,-187.481 841,-168 836.852,-158.489 831.184,-148.442 826.199,-140.26"/>
<polygon fill="midnightblue" stroke="midnightblue" points="829.076,-138.26 820.792,-131.656 823.149,-141.985 829.076,-138.26"/>
</g>
<!-- Node23&#45;&gt;Node12 -->
<g id="edge39" class="edge"><title>Node23&#45;&gt;Node12</title>
<path fill="none" stroke="midnightblue" d="M824.239,-224.444C778.538,-213.806 701.404,-195.853 659.06,-185.997"/>
<polygon fill="midnightblue" stroke="midnightblue" points="659.618,-182.533 649.085,-183.675 658.031,-189.351 659.618,-182.533"/>
</g>
<!-- Node23&#45;&gt;Node17 -->
<g id="edge42" class="edge"><title>Node23&#45;&gt;Node17</title>
<path fill="none" stroke="midnightblue" d="M864.109,-224.486C867.273,-215.52 872.113,-200.936 875,-188 878.417,-172.693 880.761,-155.051 882.199,-142.012"/>
<polygon fill="midnightblue" stroke="midnightblue" points="885.696,-142.218 883.233,-131.914 878.732,-141.505 885.696,-142.218"/>
</g>
<!-- Node23&#45;&gt;Node19 -->
<g id="edge44" class="edge"><title>Node23&#45;&gt;Node19</title>
<path fill="none" stroke="midnightblue" d="M852.744,-224.083C845.535,-216.298 834.89,-204.801 826.154,-195.367"/>
<polygon fill="midnightblue" stroke="midnightblue" points="828.465,-192.711 819.103,-187.751 823.329,-197.467 828.465,-192.711"/>
</g>
<!-- Node23&#45;&gt;Node20 -->
<g id="edge36" class="edge"><title>Node23&#45;&gt;Node20</title>
<path fill="none" stroke="midnightblue" d="M841.51,-224.444C821.358,-215.596 789.677,-201.687 766.669,-191.586"/>
<polygon fill="midnightblue" stroke="midnightblue" points="767.962,-188.332 757.399,-187.516 765.148,-194.741 767.962,-188.332"/>
</g>
<!-- Node24 -->
<g id="node25" class="node"><title>Node24</title>
<g id="a_node25"><a xlink:href="common_8h.html" target="_top" xlink:title="crypto/common.h">
<polygon fill="white" stroke="black" points="1029,-168.5 1029,-187.5 1121,-187.5 1121,-168.5 1029,-168.5"/>
<text text-anchor="middle" x="1075" y="-175.5" font-family="Helvetica,sans-Serif" font-size="10.00">crypto/common.h</text>
</a>
</g>
</g>
<!-- Node23&#45;&gt;Node24 -->
<g id="edge32" class="edge"><title>Node23&#45;&gt;Node24</title>
<path fill="none" stroke="midnightblue" d="M894.909,-224.444C931.849,-215.122 991.054,-200.183 1031.42,-189.997"/>
<polygon fill="midnightblue" stroke="midnightblue" points="1032.41,-193.357 1041.25,-187.516 1030.7,-186.57 1032.41,-193.357"/>
</g>
<!-- Node25 -->
<g id="node26" class="node"><title>Node25</title>
<polygon fill="white" stroke="#bfbfbf" points="965.5,-168.5 965.5,-187.5 1010.5,-187.5 1010.5,-168.5 965.5,-168.5"/>
<text text-anchor="middle" x="988" y="-175.5" font-family="Helvetica,sans-Serif" font-size="10.00">climits</text>
</g>
<!-- Node23&#45;&gt;Node25 -->
<g id="edge38" class="edge"><title>Node23&#45;&gt;Node25</title>
<path fill="none" stroke="midnightblue" d="M881.124,-224.444C902.024,-215.557 934.935,-201.563 958.716,-191.451"/>
<polygon fill="midnightblue" stroke="midnightblue" points="960.138,-194.65 967.971,-187.516 957.398,-188.208 960.138,-194.65"/>
</g>
<!-- Node26 -->
<g id="node27" class="node"><title>Node26</title>
<polygon fill="white" stroke="#bfbfbf" points="1139.5,-168.5 1139.5,-187.5 1198.5,-187.5 1198.5,-168.5 1139.5,-168.5"/>
<text text-anchor="middle" x="1169" y="-175.5" font-family="Helvetica,sans-Serif" font-size="10.00">stdexcept</text>
</g>
<!-- Node23&#45;&gt;Node26 -->
<g id="edge40" class="edge"><title>Node23&#45;&gt;Node26</title>
<path fill="none" stroke="midnightblue" d="M899.444,-227.324C949.879,-219.712 1041.35,-205.339 1129.35,-188.026"/>
<polygon fill="midnightblue" stroke="midnightblue" points="1130.1,-191.445 1139.23,-186.067 1128.74,-184.579 1130.1,-191.445"/>
</g>
<!-- Node24&#45;&gt;Node6 -->
<g id="edge35" class="edge"><title>Node24&#45;&gt;Node6</title>
<path fill="none" stroke="midnightblue" d="M1028.91,-169.173C1025.56,-168.734 1022.23,-168.335 1019,-168 679.785,-132.819 269.54,-125.115 123.689,-123.451"/>
<polygon fill="midnightblue" stroke="midnightblue" points="123.687,-119.95 113.649,-123.341 123.61,-126.95 123.687,-119.95"/>
</g>
<!-- Node24&#45;&gt;Node7 -->
<g id="edge33" class="edge"><title>Node24&#45;&gt;Node7</title>
<path fill="none" stroke="midnightblue" d="M1068.97,-168.19C1052.83,-145.389 1006.14,-84.2595 951,-56 878.639,-18.9169 781.319,-11.7424 730.021,-10.7453"/>
<polygon fill="midnightblue" stroke="midnightblue" points="729.842,-7.24292 719.799,-10.6178 729.754,-14.2424 729.842,-7.24292"/>
</g>
<!-- Node24&#45;&gt;Node17 -->
<g id="edge34" class="edge"><title>Node24&#45;&gt;Node17</title>
<path fill="none" stroke="midnightblue" d="M1044.74,-168.444C1010.46,-158.753 954.713,-142.992 918.704,-132.811"/>
<polygon fill="midnightblue" stroke="midnightblue" points="919.232,-129.324 908.657,-129.971 917.327,-136.06 919.232,-129.324"/>
</g>
<!-- Node27&#45;&gt;Node2 -->
<g id="edge51" class="edge"><title>Node27&#45;&gt;Node2</title>
<path fill="none" stroke="midnightblue" d="M1093.9,-231.797C942.275,-225.297 224.779,-194.422 126,-188 100.616,-186.35 71.8637,-183.87 50.7147,-181.931"/>
<polygon fill="midnightblue" stroke="midnightblue" points="50.9801,-178.441 40.6994,-181.001 50.333,-185.411 50.9801,-178.441"/>
</g>
<!-- Node27&#45;&gt;Node7 -->
<g id="edge50" class="edge"><title>Node27&#45;&gt;Node7</title>
<path fill="none" stroke="midnightblue" d="M1150.29,-227.21C1186.67,-218.375 1242.93,-199.187 1223,-168 1159.18,-68.1364 1094.4,-90.43 981,-56 892.849,-29.2371 784.324,-17.7298 729.782,-13.3518"/>
<polygon fill="midnightblue" stroke="midnightblue" points="729.855,-9.8471 719.616,-12.5688 729.317,-16.8264 729.855,-9.8471"/>
</g>
<!-- Node27&#45;&gt;Node10 -->
<g id="edge47" class="edge"><title>Node27&#45;&gt;Node10</title>
<path fill="none" stroke="midnightblue" d="M1149.81,-224.45C1182.16,-213.142 1228.56,-191.838 1207,-168 1155.45,-110.995 944.54,-143.412 851.26,-131.72"/>
<polygon fill="midnightblue" stroke="midnightblue" points="851.691,-128.245 841.28,-130.212 850.645,-135.167 851.691,-128.245"/>
</g>
<!-- Node27&#45;&gt;Node19 -->
<g id="edge52" class="edge"><title>Node27&#45;&gt;Node19</title>
<path fill="none" stroke="midnightblue" d="M1093.85,-228.113C1036.04,-218.075 904.248,-195.191 843.173,-184.586"/>
<polygon fill="midnightblue" stroke="midnightblue" points="843.762,-181.136 833.311,-182.874 842.565,-188.033 843.762,-181.136"/>
</g>
<!-- Node27&#45;&gt;Node24 -->
<g id="edge53" class="edge"><title>Node27&#45;&gt;Node24</title>
<path fill="none" stroke="midnightblue" d="M1114.24,-224.083C1107.46,-216.298 1097.46,-204.801 1089.24,-195.367"/>
<polygon fill="midnightblue" stroke="midnightblue" points="1091.82,-192.996 1082.62,-187.751 1086.54,-197.592 1091.82,-192.996"/>
</g>
<!-- Node27&#45;&gt;Node26 -->
<g id="edge49" class="edge"><title>Node27&#45;&gt;Node26</title>
<path fill="none" stroke="midnightblue" d="M1129.76,-224.083C1136.54,-216.298 1146.54,-204.801 1154.76,-195.367"/>
<polygon fill="midnightblue" stroke="midnightblue" points="1157.46,-197.592 1161.38,-187.751 1152.18,-192.996 1157.46,-197.592"/>
</g>
<!-- Node28 -->
<g id="node29" class="node"><title>Node28</title>
<polygon fill="white" stroke="#bfbfbf" points="1293,-168.5 1293,-187.5 1339,-187.5 1339,-168.5 1293,-168.5"/>
<text text-anchor="middle" x="1316" y="-175.5" font-family="Helvetica,sans-Serif" font-size="10.00">cstring</text>
</g>
<!-- Node27&#45;&gt;Node28 -->
<g id="edge48" class="edge"><title>Node27&#45;&gt;Node28</title>
<path fill="none" stroke="midnightblue" d="M1150.21,-225.148C1185.46,-215.335 1245.69,-198.57 1283.03,-188.176"/>
<polygon fill="midnightblue" stroke="midnightblue" points="1284.22,-191.478 1292.92,-185.424 1282.35,-184.734 1284.22,-191.478"/>
</g>
</g>
</svg>
        <g id="navigator" transform="translate(0 0)" fill="#404254">
                <rect fill="#f2f5e9" fill-opacity="0.5" stroke="#606060" stroke-width=".5" x="0" y="0" width="60" height="60"/>
                <use id="zoomplus" xlink:href="#zoomPlus" x="17" y="9" onmousedown="handleZoom(evt,'in')"/>
                <use id="zoomminus" xlink:href="#zoomMin" x="42" y="9" onmousedown="handleZoom(evt,'out')"/>
                <use id="reset" xlink:href="#resetDef" x="30" y="36" onmousedown="handleReset()"/>
                <g id="arrowUp" xlink:href="#dirArrow" transform="translate(30 24)" onmousedown="handlePan(0,-1)">
                  <use xlink:href="#rim" fill="#404040">
                        <set attributeName="fill" to="#808080" begin="arrowUp.mouseover" end="arrowUp.mouseout"/>
                  </use>
                  <path fill="none" stroke="white" stroke-width="1.5" d="M0,-3.0v7 M-2.5,-0.5L0,-3.0L2.5,-0.5"/>
                </g>
                <g id="arrowRight" xlink:href="#dirArrow" transform="rotate(90) translate(36 -43)" onmousedown="handlePan(1,0)">
                  <use xlink:href="#rim" fill="#404040">
                        <set attributeName="fill" to="#808080" begin="arrowRight.mouseover" end="arrowRight.mouseout"/>
                  </use>
                  <path fill="none" stroke="white" stroke-width="1.5" d="M0,-3.0v7 M-2.5,-0.5L0,-3.0L2.5,-0.5"/>
                </g>
                <g id="arrowDown" xlink:href="#dirArrow" transform="rotate(180) translate(-30 -48)" onmousedown="handlePan(0,1)">
                  <use xlink:href="#rim" fill="#404040">
                        <set attributeName="fill" to="#808080" begin="arrowDown.mouseover" end="arrowDown.mouseout"/>
                  </use>
                  <path fill="none" stroke="white" stroke-width="1.5" d="M0,-3.0v7 M-2.5,-0.5L0,-3.0L2.5,-0.5"/>
                </g>
                <g id="arrowLeft" xlink:href="#dirArrow" transform="rotate(270) translate(-36 17)" onmousedown="handlePan(-1,0)">
                  <use xlink:href="#rim" fill="#404040">
                        <set attributeName="fill" to="#808080" begin="arrowLeft.mouseover" end="arrowLeft.mouseout"/>
                  </use>
                  <path fill="none" stroke="white" stroke-width="1.5" d="M0,-3.0v7 M-2.5,-0.5L0,-3.0L2.5,-0.5"/>
                </g>
        </g>
        <svg viewBox="0 0 15 15" width="100%" height="30px" preserveAspectRatio="xMaxYMin meet">
         <g id="arrow_out" transform="scale(0.3 0.3)">
          <a xlink:href="cbtx_8h__incl_org.svg" target="_base">
           <rect id="button" ry="5" rx="5" y="6" x="6" height="38" width="38"
                fill="#f2f5e9" fill-opacity="0.5" stroke="#606060" stroke-width="1.0"/>
           <path id="arrow"
             d="M 11.500037,31.436501 C 11.940474,20.09759 22.043105,11.32322 32.158766,21.979434 L 37.068811,17.246167 C 37.068811,17.246167 37.088388,32 37.088388,32 L 22.160133,31.978069 C 22.160133,31.978069 26.997745,27.140456 26.997745,27.140456 C 18.528582,18.264221 13.291696,25.230495 11.500037,31.436501 z"
             style="fill:#404040;"/>
          </a>
         </g>
        </svg>
</svg>
