<?xml version="1.0" encoding="UTF-8" standalone="no"?>
<!DOCTYPE svg PUBLIC "-//W3C//DTD SVG 1.1//EN"
 "http://www.w3.org/Graphics/SVG/1.1/DTD/svg11.dtd">
<!-- Generated by graphviz version 2.36.0 (20140111.2315)
 -->
<!-- Title: src/chain.h Pages: 1 -->
<!--zoomable 476 -->
<svg id="main" version="1.1" xmlns="http://www.w3.org/2000/svg" xmlns:xlink="http://www.w3.org/1999/xlink" xml:space="preserve" onload="init(evt)">
<style type="text/css"><![CDATA[
.edge:hover path { stroke: red; }
.edge:hover polygon { stroke: red; fill: red; }
]]></style>
<script type="text/javascript"><![CDATA[
var edges = document.getElementsByTagName('g');
if (edges && edges.length) {
  for (var i=0;i<edges.length;i++) {
    if (edges[i].id.substr(0,4)=='edge') {
      edges[i].setAttribute('class','edge');
    }
  }
}
]]></script>
        <defs>
                <circle id="rim" cx="0" cy="0" r="7"/>
                <circle id="rim2" cx="0" cy="0" r="3.5"/>
                <g id="zoomPlus">
                        <use xlink:href="#rim" fill="#404040">
                                <set attributeName="fill" to="#808080" begin="zoomplus.mouseover" end="zoomplus.mouseout"/>
                        </use>
                        <path d="M-4,0h8M0,-4v8" fill="none" stroke="white" stroke-width="1.5" pointer-events="none"/>
                </g>
                <g id="zoomMin">
                        <use xlink:href="#rim" fill="#404040">
                                <set attributeName="fill" to="#808080" begin="zoomminus.mouseover" end="zoomminus.mouseout"/>
                        </use>
                        <path d="M-4,0h8" fill="none" stroke="white" stroke-width="1.5" pointer-events="none"/>
                </g>
                <g id="dirArrow">
                        <path fill="none" stroke="white" stroke-width="1.5" d="M0,-3.0v7 M-2.5,-0.5L0,-3.0L2.5,-0.5"/>
                </g>
               <g id="resetDef">
                       <use xlink:href="#rim2" fill="#404040">
                               <set attributeName="fill" to="#808080" begin="reset.mouseover" end="reset.mouseout"/>
                       </use>
               </g>
        </defs>

<script type="text/javascript">
var viewWidth = 1618;
var viewHeight = 476;
var sectionId = 'dynsection-0';
</script>
<script xlink:href="svgpan.js"/>
<svg id="graph" class="graph">
<g id="viewport">
<title>src/chain.h</title>
<polygon fill="white" stroke="none" points="-4,4 -4,-472 1614.03,-472 1614.03,4 -4,4"/>
<!-- Node0 -->
<g id="node1" class="node"><title>Node0</title>
<polygon fill="#bfbfbf" stroke="black" points="397.534,-448.5 397.534,-467.5 462.534,-467.5 462.534,-448.5 397.534,-448.5"/>
<text text-anchor="middle" x="430.034" y="-455.5" font-family="Helvetica,sans-Serif" font-size="10.00">src/chain.h</text>
</g>
<!-- Node1 -->
<g id="node2" class="node"><title>Node1</title>
<g id="a_node2"><a xlink:href="arith__uint256_8h.html" target="_top" xlink:title="arith_uint256.h">
<polygon fill="white" stroke="black" points="69.0338,-224.5 69.0338,-243.5 149.034,-243.5 149.034,-224.5 69.0338,-224.5"/>
<text text-anchor="middle" x="109.034" y="-231.5" font-family="Helvetica,sans-Serif" font-size="10.00">arith_uint256.h</text>
</a>
</g>
</g>
<!-- Node0&#45;&gt;Node1 -->
<g id="edge1" class="edge"><title>Node0&#45;&gt;Node1</title>
<path fill="none" stroke="midnightblue" d="M417.45,-448.297C368.607,-414.518 191.266,-291.871 130.013,-249.509"/>
<polygon fill="midnightblue" stroke="midnightblue" points="131.746,-246.452 121.53,-243.643 127.764,-252.209 131.746,-246.452"/>
</g>
<!-- Node7 -->
<g id="node8" class="node"><title>Node7</title>
<polygon fill="white" stroke="#bfbfbf" points="87.0338,-168.5 87.0338,-187.5 131.034,-187.5 131.034,-168.5 87.0338,-168.5"/>
<text text-anchor="middle" x="109.034" y="-175.5" font-family="Helvetica,sans-Serif" font-size="10.00">vector</text>
</g>
<!-- Node0&#45;&gt;Node7 -->
<g id="edge75" class="edge"><title>Node0&#45;&gt;Node7</title>
<path fill="none" stroke="midnightblue" d="M397.112,-452.947C342.963,-444.242 241.034,-418.375 241.034,-347 241.034,-347 241.034,-347 241.034,-289 241.034,-236.887 179.565,-204.674 140.52,-189.469"/>
<polygon fill="midnightblue" stroke="midnightblue" points="141.72,-186.181 131.128,-185.968 139.275,-192.74 141.72,-186.181"/>
</g>
<!-- Node8 -->
<g id="node9" class="node"><title>Node8</title>
<g id="a_node9"><a xlink:href="block_8h.html" target="_top" xlink:title="primitives/block.h">
<polygon fill="white" stroke="black" points="433.534,-392.5 433.534,-411.5 526.534,-411.5 526.534,-392.5 433.534,-392.5"/>
<text text-anchor="middle" x="480.034" y="-399.5" font-family="Helvetica,sans-Serif" font-size="10.00">primitives/block.h</text>
</a>
</g>
</g>
<!-- Node0&#45;&gt;Node8 -->
<g id="edge8" class="edge"><title>Node0&#45;&gt;Node8</title>
<path fill="none" stroke="midnightblue" d="M438.29,-448.083C445.498,-440.298 456.144,-428.801 464.88,-419.367"/>
<polygon fill="midnightblue" stroke="midnightblue" points="467.705,-421.467 471.931,-411.751 462.569,-416.711 467.705,-421.467"/>
</g>
<!-- Node29 -->
<g id="node30" class="node"><title>Node29</title>
<g id="a_node30"><a xlink:href="uint256_8h.html" target="_top" xlink:title="uint256.h">
<polygon fill="white" stroke="black" points="352.034,-224.5 352.034,-243.5 408.034,-243.5 408.034,-224.5 352.034,-224.5"/>
<text text-anchor="middle" x="380.034" y="-231.5" font-family="Helvetica,sans-Serif" font-size="10.00">uint256.h</text>
</a>
</g>
</g>
<!-- Node0&#45;&gt;Node29 -->
<g id="edge74" class="edge"><title>Node0&#45;&gt;Node29</title>
<path fill="none" stroke="midnightblue" d="M428.043,-448.5C422.533,-424.937 406.658,-356.779 394.034,-300 390.585,-284.487 386.796,-266.86 384.031,-253.88"/>
<polygon fill="midnightblue" stroke="midnightblue" points="387.4,-252.894 381.899,-243.839 380.553,-254.348 387.4,-252.894"/>
</g>
<!-- Node30 -->
<g id="node31" class="node"><title>Node30</title>
<g id="a_node31"><a xlink:href="pow_8h.html" target="_top" xlink:title="pow.h">
<polygon fill="white" stroke="black" points="807.534,-336.5 807.534,-355.5 850.534,-355.5 850.534,-336.5 807.534,-336.5"/>
<text text-anchor="middle" x="829.034" y="-343.5" font-family="Helvetica,sans-Serif" font-size="10.00">pow.h</text>
</a>
</g>
</g>
<!-- Node0&#45;&gt;Node30 -->
<g id="edge62" class="edge"><title>Node0&#45;&gt;Node30</title>
<path fill="none" stroke="midnightblue" d="M461.011,-448.46C535.332,-427.97 723.119,-376.2 797.751,-355.624"/>
<polygon fill="midnightblue" stroke="midnightblue" points="798.797,-358.967 807.507,-352.935 796.937,-352.218 798.797,-358.967"/>
</g>
<!-- Node32 -->
<g id="node33" class="node"><title>Node32</title>
<g id="a_node33"><a xlink:href="tinyformat_8h.html" target="_top" xlink:title="tinyformat.h">
<polygon fill="white" stroke="black" points="1419.03,-224.5 1419.03,-243.5 1487.03,-243.5 1487.03,-224.5 1419.03,-224.5"/>
<text text-anchor="middle" x="1453.03" y="-231.5" font-family="Helvetica,sans-Serif" font-size="10.00">tinyformat.h</text>
</a>
</g>
</g>
<!-- Node0&#45;&gt;Node32 -->
<g id="edge68" class="edge"><title>Node0&#45;&gt;Node32</title>
<path fill="none" stroke="midnightblue" d="M462.717,-455.034C613.372,-445.483 1240.5,-400.243 1405.03,-300 1423.14,-288.97 1436.6,-268.311 1444.58,-253.235"/>
<polygon fill="midnightblue" stroke="midnightblue" points="1447.92,-254.39 1449.23,-243.877 1441.65,-251.278 1447.92,-254.39"/>
</g>
<!-- Node2 -->
<g id="node3" class="node"><title>Node2</title>
<polygon fill="white" stroke="#bfbfbf" points="341.034,-112.5 341.034,-131.5 393.034,-131.5 393.034,-112.5 341.034,-112.5"/>
<text text-anchor="middle" x="367.034" y="-119.5" font-family="Helvetica,sans-Serif" font-size="10.00">assert.h</text>
</g>
<!-- Node1&#45;&gt;Node2 -->
<g id="edge2" class="edge"><title>Node1&#45;&gt;Node2</title>
<path fill="none" stroke="midnightblue" d="M76.1574,-224.459C40.5525,-213.674 -8.35254,-193.421 14.0338,-168 34.7828,-144.438 245.142,-129.922 330.917,-124.942"/>
<polygon fill="midnightblue" stroke="midnightblue" points="331.192,-128.432 340.977,-124.369 330.794,-121.443 331.192,-128.432"/>
</g>
<!-- Node3 -->
<g id="node4" class="node"><title>Node3</title>
<polygon fill="white" stroke="#bfbfbf" points="23.0338,-168.5 23.0338,-187.5 69.0338,-187.5 69.0338,-168.5 23.0338,-168.5"/>
<text text-anchor="middle" x="46.0338" y="-175.5" font-family="Helvetica,sans-Serif" font-size="10.00">cstring</text>
</g>
<!-- Node1&#45;&gt;Node3 -->
<g id="edge3" class="edge"><title>Node1&#45;&gt;Node3</title>
<path fill="none" stroke="midnightblue" d="M98.9117,-224.324C89.5074,-216.263 75.2897,-204.077 63.9648,-194.369"/>
<polygon fill="midnightblue" stroke="midnightblue" points="66.2104,-191.684 56.34,-187.834 61.6548,-196.999 66.2104,-191.684"/>
</g>
<!-- Node4 -->
<g id="node5" class="node"><title>Node4</title>
<polygon fill="white" stroke="#bfbfbf" points="225.534,-168.5 225.534,-187.5 284.534,-187.5 284.534,-168.5 225.534,-168.5"/>
<text text-anchor="middle" x="255.034" y="-175.5" font-family="Helvetica,sans-Serif" font-size="10.00">stdexcept</text>
</g>
<!-- Node1&#45;&gt;Node4 -->
<g id="edge4" class="edge"><title>Node1&#45;&gt;Node4</title>
<path fill="none" stroke="midnightblue" d="M132.168,-224.444C156.516,-215.438 195.041,-201.189 222.457,-191.049"/>
<polygon fill="midnightblue" stroke="midnightblue" points="223.843,-194.268 232.008,-187.516 221.415,-187.703 223.843,-194.268"/>
</g>
<!-- Node5 -->
<g id="node6" class="node"><title>Node5</title>
<polygon fill="white" stroke="#bfbfbf" points="758.534,-0.5 758.534,-19.5 807.534,-19.5 807.534,-0.5 758.534,-0.5"/>
<text text-anchor="middle" x="783.034" y="-7.5" font-family="Helvetica,sans-Serif" font-size="10.00">stdint.h</text>
</g>
<!-- Node1&#45;&gt;Node5 -->
<g id="edge5" class="edge"><title>Node1&#45;&gt;Node5</title>
<path fill="none" stroke="midnightblue" d="M68.8647,-224.444C31.7647,-214.596 -14.8223,-196.074 5.03378,-168 92.9518,-43.6934 608.848,-17.0056 748.299,-12.0311"/>
<polygon fill="midnightblue" stroke="midnightblue" points="748.543,-15.5249 758.418,-11.6852 748.304,-8.52904 748.543,-15.5249"/>
</g>
<!-- Node6 -->
<g id="node7" class="node"><title>Node6</title>
<polygon fill="white" stroke="#bfbfbf" points="591.534,-168.5 591.534,-187.5 632.534,-187.5 632.534,-168.5 591.534,-168.5"/>
<text text-anchor="middle" x="612.034" y="-175.5" font-family="Helvetica,sans-Serif" font-size="10.00">string</text>
</g>
<!-- Node1&#45;&gt;Node6 -->
<g id="edge6" class="edge"><title>Node1&#45;&gt;Node6</title>
<path fill="none" stroke="midnightblue" d="M149.162,-229.196C225.785,-221.854 398.201,-204.951 543.034,-188 555.655,-186.523 569.554,-184.74 581.549,-183.152"/>
<polygon fill="midnightblue" stroke="midnightblue" points="582.072,-186.614 591.521,-181.82 581.145,-179.675 582.072,-186.614"/>
</g>
<!-- Node1&#45;&gt;Node7 -->
<g id="edge7" class="edge"><title>Node1&#45;&gt;Node7</title>
<path fill="none" stroke="midnightblue" d="M109.034,-224.083C109.034,-217.006 109.034,-206.861 109.034,-197.986"/>
<polygon fill="midnightblue" stroke="midnightblue" points="112.534,-197.751 109.034,-187.751 105.534,-197.751 112.534,-197.751"/>
</g>
<!-- Node9 -->
<g id="node10" class="node"><title>Node9</title>
<g id="a_node10"><a xlink:href="transaction_8h.html" target="_top" xlink:title="primitives/transaction.h">
<polygon fill="white" stroke="black" points="446.034,-336.5 446.034,-355.5 564.034,-355.5 564.034,-336.5 446.034,-336.5"/>
<text text-anchor="middle" x="505.034" y="-343.5" font-family="Helvetica,sans-Serif" font-size="10.00">primitives/transaction.h</text>
</a>
</g>
</g>
<!-- Node8&#45;&gt;Node9 -->
<g id="edge9" class="edge"><title>Node8&#45;&gt;Node9</title>
<path fill="none" stroke="midnightblue" d="M484.162,-392.083C487.548,-384.77 492.45,-374.181 496.653,-365.103"/>
<polygon fill="midnightblue" stroke="midnightblue" points="499.957,-366.296 500.982,-355.751 493.605,-363.355 499.957,-366.296"/>
</g>
<!-- Node11 -->
<g id="node12" class="node"><title>Node11</title>
<g id="a_node12"><a xlink:href="serialize_8h.html" target="_top" xlink:title="serialize.h">
<polygon fill="white" stroke="black" points="819.534,-224.5 819.534,-243.5 880.534,-243.5 880.534,-224.5 819.534,-224.5"/>
<text text-anchor="middle" x="850.034" y="-231.5" font-family="Helvetica,sans-Serif" font-size="10.00">serialize.h</text>
</a>
</g>
</g>
<!-- Node8&#45;&gt;Node11 -->
<g id="edge60" class="edge"><title>Node8&#45;&gt;Node11</title>
<path fill="none" stroke="midnightblue" d="M512.181,-392.472C565.366,-377.69 674.214,-344.567 759.034,-300 786.211,-285.72 814.533,-264.282 832.217,-249.977"/>
<polygon fill="midnightblue" stroke="midnightblue" points="834.487,-252.642 839.993,-243.59 830.044,-247.233 834.487,-252.642"/>
</g>
<!-- Node8&#45;&gt;Node29 -->
<g id="edge61" class="edge"><title>Node8&#45;&gt;Node29</title>
<path fill="none" stroke="midnightblue" d="M470.201,-392.454C460.81,-383.919 446.695,-370.077 437.034,-356 413.913,-322.31 395.647,-277.768 386.485,-253.208"/>
<polygon fill="midnightblue" stroke="midnightblue" points="389.74,-251.917 383.029,-243.718 383.162,-254.312 389.74,-251.917"/>
</g>
<!-- Node10 -->
<g id="node11" class="node"><title>Node10</title>
<g id="a_node11"><a xlink:href="amount_8h.html" target="_top" xlink:title="amount.h">
<polygon fill="white" stroke="black" points="693.534,-280.5 693.534,-299.5 750.534,-299.5 750.534,-280.5 693.534,-280.5"/>
<text text-anchor="middle" x="722.034" y="-287.5" font-family="Helvetica,sans-Serif" font-size="10.00">amount.h</text>
</a>
</g>
</g>
<!-- Node9&#45;&gt;Node10 -->
<g id="edge10" class="edge"><title>Node9&#45;&gt;Node10</title>
<path fill="none" stroke="midnightblue" d="M539.418,-336.444C578.639,-326.683 642.611,-310.764 683.488,-300.592"/>
<polygon fill="midnightblue" stroke="midnightblue" points="684.495,-303.948 693.354,-298.137 682.805,-297.155 684.495,-303.948"/>
</g>
<!-- Node9&#45;&gt;Node11 -->
<g id="edge51" class="edge"><title>Node9&#45;&gt;Node11</title>
<path fill="none" stroke="midnightblue" d="M509.613,-336.095C517.544,-321.67 535.292,-293.452 559.034,-280 601.023,-256.209 739.365,-243.033 809.094,-237.756"/>
<polygon fill="midnightblue" stroke="midnightblue" points="809.552,-241.232 819.268,-237.005 809.037,-234.251 809.552,-241.232"/>
</g>
<!-- Node26 -->
<g id="node27" class="node"><title>Node26</title>
<g id="a_node27"><a xlink:href="script_8h.html" target="_top" xlink:title="script/script.h">
<polygon fill="white" stroke="black" points="464.034,-224.5 464.034,-243.5 540.034,-243.5 540.034,-224.5 464.034,-224.5"/>
<text text-anchor="middle" x="502.034" y="-231.5" font-family="Helvetica,sans-Serif" font-size="10.00">script/script.h</text>
</a>
</g>
</g>
<!-- Node9&#45;&gt;Node26 -->
<g id="edge37" class="edge"><title>Node9&#45;&gt;Node26</title>
<path fill="none" stroke="midnightblue" d="M504.798,-336.368C504.314,-318.617 503.197,-277.666 502.541,-253.597"/>
<polygon fill="midnightblue" stroke="midnightblue" points="506.04,-253.492 502.268,-243.591 499.042,-253.683 506.04,-253.492"/>
</g>
<!-- Node9&#45;&gt;Node29 -->
<g id="edge52" class="edge"><title>Node9&#45;&gt;Node29</title>
<path fill="none" stroke="midnightblue" d="M495.155,-336.124C481.159,-323.568 454.734,-299.927 432.034,-280 420.678,-270.032 407.841,-258.921 397.763,-250.234"/>
<polygon fill="midnightblue" stroke="midnightblue" points="399.901,-247.457 390.039,-243.585 395.334,-252.762 399.901,-247.457"/>
</g>
<!-- Node10&#45;&gt;Node6 -->
<g id="edge36" class="edge"><title>Node10&#45;&gt;Node6</title>
<path fill="none" stroke="midnightblue" d="M713.402,-280.368C694.928,-261.894 651.326,-218.293 627.777,-194.744"/>
<polygon fill="midnightblue" stroke="midnightblue" points="630.171,-192.188 620.625,-187.591 625.221,-197.137 630.171,-192.188"/>
</g>
<!-- Node10&#45;&gt;Node11 -->
<g id="edge11" class="edge"><title>Node10&#45;&gt;Node11</title>
<path fill="none" stroke="midnightblue" d="M742.316,-280.444C763.381,-271.557 796.551,-257.563 820.519,-247.451"/>
<polygon fill="midnightblue" stroke="midnightblue" points="821.994,-250.628 829.847,-243.516 819.273,-244.179 821.994,-250.628"/>
</g>
<!-- Node24 -->
<g id="node25" class="node"><title>Node24</title>
<polygon fill="white" stroke="#bfbfbf" points="1265.03,-112.5 1265.03,-131.5 1313.03,-131.5 1313.03,-112.5 1265.03,-112.5"/>
<text text-anchor="middle" x="1289.03" y="-119.5" font-family="Helvetica,sans-Serif" font-size="10.00">stdlib.h</text>
</g>
<!-- Node10&#45;&gt;Node24 -->
<g id="edge35" class="edge"><title>Node10&#45;&gt;Node24</title>
<path fill="none" stroke="midnightblue" d="M750.721,-288.917C861.178,-287.935 1256.62,-278.087 1333.03,-188 1346.75,-171.836 1327.55,-151.317 1310.38,-137.704"/>
<polygon fill="midnightblue" stroke="midnightblue" points="1312.36,-134.818 1302.26,-131.625 1308.16,-140.421 1312.36,-134.818"/>
</g>
<!-- Node11&#45;&gt;Node2 -->
<g id="edge17" class="edge"><title>Node11&#45;&gt;Node2</title>
<path fill="none" stroke="midnightblue" d="M823.911,-224.45C799.822,-216.218 763.32,-202.855 733.034,-188 717.636,-180.448 716.204,-173.713 700.034,-168 596.817,-131.536 466.003,-124.35 403.503,-123.112"/>
<polygon fill="midnightblue" stroke="midnightblue" points="403.415,-119.611 393.361,-122.953 403.304,-126.61 403.415,-119.611"/>
</g>
<!-- Node11&#45;&gt;Node5 -->
<g id="edge24" class="edge"><title>Node11&#45;&gt;Node5</title>
<path fill="none" stroke="midnightblue" d="M880.793,-228.102C889.292,-226.76 898.519,-225.314 907.034,-224 960.116,-215.812 1111,-228.709 1146.03,-188 1151.83,-181.263 1150.42,-175.733 1146.03,-168 1078.3,-48.473 894.691,-19.8795 817.722,-13.0912"/>
<polygon fill="midnightblue" stroke="midnightblue" points="817.843,-9.58954 807.593,-12.2708 817.277,-16.5667 817.843,-9.58954"/>
</g>
<!-- Node11&#45;&gt;Node6 -->
<g id="edge25" class="edge"><title>Node11&#45;&gt;Node6</title>
<path fill="none" stroke="midnightblue" d="M819.195,-227.114C780.26,-219.512 711.043,-205.431 642.321,-187.906"/>
<polygon fill="midnightblue" stroke="midnightblue" points="643.188,-184.515 632.631,-185.411 641.442,-191.294 643.188,-184.515"/>
</g>
<!-- Node11&#45;&gt;Node7 -->
<g id="edge28" class="edge"><title>Node11&#45;&gt;Node7</title>
<path fill="none" stroke="midnightblue" d="M819.344,-230.964C727.679,-224.854 447.893,-205.979 216.034,-188 190.912,-186.052 162.49,-183.652 141.256,-181.821"/>
<polygon fill="midnightblue" stroke="midnightblue" points="141.424,-178.322 131.159,-180.946 140.82,-185.296 141.424,-178.322"/>
</g>
<!-- Node12 -->
<g id="node13" class="node"><title>Node12</title>
<g id="a_node13"><a xlink:href="endian_8h.html" target="_top" xlink:title="compat/endian.h">
<polygon fill="white" stroke="black" points="833.534,-112.5 833.534,-131.5 922.534,-131.5 922.534,-112.5 833.534,-112.5"/>
<text text-anchor="middle" x="878.034" y="-119.5" font-family="Helvetica,sans-Serif" font-size="10.00">compat/endian.h</text>
</a>
</g>
</g>
<!-- Node11&#45;&gt;Node12 -->
<g id="edge12" class="edge"><title>Node11&#45;&gt;Node12</title>
<path fill="none" stroke="midnightblue" d="M880.77,-232.846C946.691,-231.796 1098.26,-225.287 1130.03,-188 1135.8,-181.234 1135.74,-174.815 1130.03,-168 1105.42,-138.606 999.537,-128.393 933.097,-124.858"/>
<polygon fill="midnightblue" stroke="midnightblue" points="932.952,-121.346 922.79,-124.346 932.604,-128.338 932.952,-121.346"/>
</g>
<!-- Node14 -->
<g id="node15" class="node"><title>Node14</title>
<polygon fill="white" stroke="#bfbfbf" points="1269.03,-168.5 1269.03,-187.5 1325.03,-187.5 1325.03,-168.5 1269.03,-168.5"/>
<text text-anchor="middle" x="1297.03" y="-175.5" font-family="Helvetica,sans-Serif" font-size="10.00">algorithm</text>
</g>
<!-- Node11&#45;&gt;Node14 -->
<g id="edge16" class="edge"><title>Node11&#45;&gt;Node14</title>
<path fill="none" stroke="midnightblue" d="M880.742,-230.919C949.084,-226.003 1118.78,-212.231 1259.03,-188 1259.13,-187.983 1259.23,-187.965 1259.33,-187.948"/>
<polygon fill="midnightblue" stroke="midnightblue" points="1259.75,-191.433 1268.89,-186.072 1258.4,-184.564 1259.75,-191.433"/>
</g>
<!-- Node15 -->
<g id="node16" class="node"><title>Node15</title>
<polygon fill="white" stroke="#bfbfbf" points="868.534,-168.5 868.534,-187.5 897.534,-187.5 897.534,-168.5 868.534,-168.5"/>
<text text-anchor="middle" x="883.034" y="-175.5" font-family="Helvetica,sans-Serif" font-size="10.00">ios</text>
</g>
<!-- Node11&#45;&gt;Node15 -->
<g id="edge18" class="edge"><title>Node11&#45;&gt;Node15</title>
<path fill="none" stroke="midnightblue" d="M855.483,-224.083C860.048,-216.613 866.702,-205.724 872.327,-196.52"/>
<polygon fill="midnightblue" stroke="midnightblue" points="875.458,-198.109 877.686,-187.751 869.485,-194.459 875.458,-198.109"/>
</g>
<!-- Node16 -->
<g id="node17" class="node"><title>Node16</title>
<polygon fill="white" stroke="#bfbfbf" points="651.034,-168.5 651.034,-187.5 691.034,-187.5 691.034,-168.5 651.034,-168.5"/>
<text text-anchor="middle" x="671.034" y="-175.5" font-family="Helvetica,sans-Serif" font-size="10.00">limits</text>
</g>
<!-- Node11&#45;&gt;Node16 -->
<g id="edge19" class="edge"><title>Node11&#45;&gt;Node16</title>
<path fill="none" stroke="midnightblue" d="M821.671,-224.444C788.705,-214.499 734.541,-198.159 700.933,-188.02"/>
<polygon fill="midnightblue" stroke="midnightblue" points="701.794,-184.624 691.209,-185.086 699.772,-191.326 701.794,-184.624"/>
</g>
<!-- Node17 -->
<g id="node18" class="node"><title>Node17</title>
<polygon fill="white" stroke="#bfbfbf" points="915.534,-168.5 915.534,-187.5 944.534,-187.5 944.534,-168.5 915.534,-168.5"/>
<text text-anchor="middle" x="930.034" y="-175.5" font-family="Helvetica,sans-Serif" font-size="10.00">list</text>
</g>
<!-- Node11&#45;&gt;Node17 -->
<g id="edge20" class="edge"><title>Node11&#45;&gt;Node17</title>
<path fill="none" stroke="midnightblue" d="M862.887,-224.324C875.25,-215.979 894.164,-203.212 908.771,-193.352"/>
<polygon fill="midnightblue" stroke="midnightblue" points="910.882,-196.15 917.212,-187.655 906.966,-190.348 910.882,-196.15"/>
</g>
<!-- Node18 -->
<g id="node19" class="node"><title>Node18</title>
<polygon fill="white" stroke="#bfbfbf" points="1215.53,-168.5 1215.53,-187.5 1250.53,-187.5 1250.53,-168.5 1215.53,-168.5"/>
<text text-anchor="middle" x="1233.03" y="-175.5" font-family="Helvetica,sans-Serif" font-size="10.00">map</text>
</g>
<!-- Node11&#45;&gt;Node18 -->
<g id="edge21" class="edge"><title>Node11&#45;&gt;Node18</title>
<path fill="none" stroke="midnightblue" d="M880.799,-230.584C942.162,-225.429 1083.94,-211.838 1201.03,-188 1202.48,-187.705 1203.96,-187.379 1205.45,-187.031"/>
<polygon fill="midnightblue" stroke="midnightblue" points="1206.4,-190.401 1215.21,-184.513 1204.65,-183.623 1206.4,-190.401"/>
</g>
<!-- Node19 -->
<g id="node20" class="node"><title>Node19</title>
<polygon fill="white" stroke="#bfbfbf" points="963.034,-168.5 963.034,-187.5 1015.03,-187.5 1015.03,-168.5 963.034,-168.5"/>
<text text-anchor="middle" x="989.034" y="-175.5" font-family="Helvetica,sans-Serif" font-size="10.00">memory</text>
</g>
<!-- Node11&#45;&gt;Node19 -->
<g id="edge22" class="edge"><title>Node11&#45;&gt;Node19</title>
<path fill="none" stroke="midnightblue" d="M872.059,-224.444C895.138,-215.478 931.596,-201.314 957.675,-191.183"/>
<polygon fill="midnightblue" stroke="midnightblue" points="959.058,-194.4 967.112,-187.516 956.523,-187.875 959.058,-194.4"/>
</g>
<!-- Node20 -->
<g id="node21" class="node"><title>Node20</title>
<polygon fill="white" stroke="#bfbfbf" points="1033.03,-168.5 1033.03,-187.5 1063.03,-187.5 1063.03,-168.5 1033.03,-168.5"/>
<text text-anchor="middle" x="1048.03" y="-175.5" font-family="Helvetica,sans-Serif" font-size="10.00">set</text>
</g>
<!-- Node11&#45;&gt;Node20 -->
<g id="edge23" class="edge"><title>Node11&#45;&gt;Node20</title>
<path fill="none" stroke="midnightblue" d="M880.8,-226.082C913.878,-218.419 968.145,-205.195 1023.3,-187.985"/>
<polygon fill="midnightblue" stroke="midnightblue" points="1024.4,-191.308 1032.88,-184.958 1022.29,-184.634 1024.4,-191.308"/>
</g>
<!-- Node21 -->
<g id="node22" class="node"><title>Node21</title>
<polygon fill="white" stroke="#bfbfbf" points="606.534,-112.5 606.534,-131.5 655.534,-131.5 655.534,-112.5 606.534,-112.5"/>
<text text-anchor="middle" x="631.034" y="-119.5" font-family="Helvetica,sans-Serif" font-size="10.00">string.h</text>
</g>
<!-- Node11&#45;&gt;Node21 -->
<g id="edge26" class="edge"><title>Node11&#45;&gt;Node21</title>
<path fill="none" stroke="midnightblue" d="M835.489,-224.352C813.589,-211.462 770.696,-186.721 733.034,-168 709.351,-156.228 681.891,-144.203 661.433,-135.548"/>
<polygon fill="midnightblue" stroke="midnightblue" points="662.574,-132.231 651.999,-131.586 659.864,-138.685 662.574,-132.231"/>
</g>
<!-- Node22 -->
<g id="node23" class="node"><title>Node22</title>
<polygon fill="white" stroke="#bfbfbf" points="1081.03,-168.5 1081.03,-187.5 1121.03,-187.5 1121.03,-168.5 1081.03,-168.5"/>
<text text-anchor="middle" x="1101.03" y="-175.5" font-family="Helvetica,sans-Serif" font-size="10.00">utility</text>
</g>
<!-- Node11&#45;&gt;Node22 -->
<g id="edge27" class="edge"><title>Node11&#45;&gt;Node22</title>
<path fill="none" stroke="midnightblue" d="M880.616,-227.679C923.45,-220.02 1003.63,-204.936 1071.03,-188 1071.13,-187.975 1071.23,-187.95 1071.33,-187.925"/>
<polygon fill="midnightblue" stroke="midnightblue" points="1072.04,-191.359 1080.77,-185.35 1070.2,-184.606 1072.04,-191.359"/>
</g>
<!-- Node23 -->
<g id="node24" class="node"><title>Node23</title>
<g id="a_node24"><a xlink:href="prevector_8h.html" target="_top" xlink:title="prevector.h">
<polygon fill="white" stroke="black" points="785.534,-168.5 785.534,-187.5 850.534,-187.5 850.534,-168.5 785.534,-168.5"/>
<text text-anchor="middle" x="818.034" y="-175.5" font-family="Helvetica,sans-Serif" font-size="10.00">prevector.h</text>
</a>
</g>
</g>
<!-- Node11&#45;&gt;Node23 -->
<g id="edge29" class="edge"><title>Node11&#45;&gt;Node23</title>
<path fill="none" stroke="midnightblue" d="M844.75,-224.083C840.323,-216.613 833.87,-205.724 828.416,-196.52"/>
<polygon fill="midnightblue" stroke="midnightblue" points="831.329,-194.57 823.22,-187.751 825.307,-198.138 831.329,-194.57"/>
</g>
<!-- Node12&#45;&gt;Node5 -->
<g id="edge13" class="edge"><title>Node12&#45;&gt;Node5</title>
<path fill="none" stroke="midnightblue" d="M870.579,-112.368C854.763,-94.0547 817.622,-51.0489 797.165,-27.3624"/>
<polygon fill="midnightblue" stroke="midnightblue" points="799.639,-24.872 790.454,-19.5914 794.341,-29.4474 799.639,-24.872"/>
</g>
<!-- Node13 -->
<g id="node14" class="node"><title>Node13</title>
<g id="a_node14"><a xlink:href="byteswap_8h.html" target="_top" xlink:title="compat/byteswap.h">
<polygon fill="white" stroke="black" points="849.034,-56.5 849.034,-75.5 951.034,-75.5 951.034,-56.5 849.034,-56.5"/>
<text text-anchor="middle" x="900.034" y="-63.5" font-family="Helvetica,sans-Serif" font-size="10.00">compat/byteswap.h</text>
</a>
</g>
</g>
<!-- Node12&#45;&gt;Node13 -->
<g id="edge14" class="edge"><title>Node12&#45;&gt;Node13</title>
<path fill="none" stroke="midnightblue" d="M881.667,-112.083C884.646,-104.77 888.96,-94.1814 892.658,-85.1034"/>
<polygon fill="midnightblue" stroke="midnightblue" points="895.937,-86.3326 896.469,-75.7511 889.454,-83.6914 895.937,-86.3326"/>
</g>
<!-- Node13&#45;&gt;Node5 -->
<g id="edge15" class="edge"><title>Node13&#45;&gt;Node5</title>
<path fill="none" stroke="midnightblue" d="M881.495,-56.4435C862.411,-47.6356 832.459,-33.8116 810.598,-23.722"/>
<polygon fill="midnightblue" stroke="midnightblue" points="812.032,-20.5292 801.486,-19.5164 809.099,-26.8849 812.032,-20.5292"/>
</g>
<!-- Node23&#45;&gt;Node2 -->
<g id="edge30" class="edge"><title>Node23&#45;&gt;Node2</title>
<path fill="none" stroke="midnightblue" d="M785.236,-173.073C703.024,-163.229 488.635,-137.56 403.068,-127.314"/>
<polygon fill="midnightblue" stroke="midnightblue" points="403.397,-123.829 393.052,-126.115 402.565,-130.779 403.397,-123.829"/>
</g>
<!-- Node23&#45;&gt;Node5 -->
<g id="edge32" class="edge"><title>Node23&#45;&gt;Node5</title>
<path fill="none" stroke="midnightblue" d="M816.152,-168.075C810.643,-141.945 794.464,-65.2106 786.951,-29.577"/>
<polygon fill="midnightblue" stroke="midnightblue" points="790.328,-28.6309 784.84,-19.5681 783.479,-30.0751 790.328,-28.6309"/>
</g>
<!-- Node23&#45;&gt;Node21 -->
<g id="edge33" class="edge"><title>Node23&#45;&gt;Node21</title>
<path fill="none" stroke="midnightblue" d="M788.403,-168.444C755.034,-158.808 700.875,-143.168 665.603,-132.983"/>
<polygon fill="midnightblue" stroke="midnightblue" points="666.327,-129.549 655.748,-130.137 664.385,-136.274 666.327,-129.549"/>
</g>
<!-- Node23&#45;&gt;Node24 -->
<g id="edge31" class="edge"><title>Node23&#45;&gt;Node24</title>
<path fill="none" stroke="midnightblue" d="M850.644,-169.497C853.474,-168.951 856.3,-168.442 859.034,-168 1005.23,-144.38 1181.49,-130.439 1254.63,-125.287"/>
<polygon fill="midnightblue" stroke="midnightblue" points="1254.93,-128.776 1264.66,-124.591 1254.44,-121.792 1254.93,-128.776"/>
</g>
<!-- Node25 -->
<g id="node26" class="node"><title>Node25</title>
<polygon fill="white" stroke="#bfbfbf" points="707.534,-112.5 707.534,-131.5 754.534,-131.5 754.534,-112.5 707.534,-112.5"/>
<text text-anchor="middle" x="731.034" y="-119.5" font-family="Helvetica,sans-Serif" font-size="10.00">iterator</text>
</g>
<!-- Node23&#45;&gt;Node25 -->
<g id="edge34" class="edge"><title>Node23&#45;&gt;Node25</title>
<path fill="none" stroke="midnightblue" d="M804.056,-168.324C790.484,-159.9 769.654,-146.971 753.709,-137.074"/>
<polygon fill="midnightblue" stroke="midnightblue" points="755.319,-133.954 744.977,-131.655 751.628,-139.902 755.319,-133.954"/>
</g>
<!-- Node26&#45;&gt;Node2 -->
<g id="edge43" class="edge"><title>Node26&#45;&gt;Node2</title>
<path fill="none" stroke="midnightblue" d="M463.793,-231.143C433.137,-227.428 391.771,-216.942 370.034,-188 360.184,-174.886 360.542,-155.74 362.697,-141.622"/>
<polygon fill="midnightblue" stroke="midnightblue" points="366.175,-142.073 364.65,-131.589 359.304,-140.736 366.175,-142.073"/>
</g>
<!-- Node26&#45;&gt;Node4 -->
<g id="edge46" class="edge"><title>Node26&#45;&gt;Node4</title>
<path fill="none" stroke="midnightblue" d="M463.981,-224.681C418.061,-214.642 341.228,-197.844 294.628,-187.656"/>
<polygon fill="midnightblue" stroke="midnightblue" points="295.117,-184.181 284.601,-185.464 293.622,-191.019 295.117,-184.181"/>
</g>
<!-- Node26&#45;&gt;Node5 -->
<g id="edge47" class="edge"><title>Node26&#45;&gt;Node5</title>
<path fill="none" stroke="midnightblue" d="M463.972,-229.381C432.579,-224.602 388.558,-213.542 359.034,-188 331.925,-164.547 309.627,-139.98 332.034,-112 384.426,-46.577 651.67,-20.6699 748.197,-13.3535"/>
<polygon fill="midnightblue" stroke="midnightblue" points="748.597,-16.8336 758.313,-12.608 748.083,-9.85254 748.597,-16.8336"/>
</g>
<!-- Node26&#45;&gt;Node6 -->
<g id="edge49" class="edge"><title>Node26&#45;&gt;Node6</title>
<path fill="none" stroke="midnightblue" d="M519.707,-224.324C537.428,-215.625 564.937,-202.12 585.322,-192.113"/>
<polygon fill="midnightblue" stroke="midnightblue" points="586.97,-195.203 594.404,-187.655 583.885,-188.919 586.97,-195.203"/>
</g>
<!-- Node26&#45;&gt;Node7 -->
<g id="edge50" class="edge"><title>Node26&#45;&gt;Node7</title>
<path fill="none" stroke="midnightblue" d="M463.994,-227.773C387.039,-217.199 214.073,-193.433 141.773,-183.498"/>
<polygon fill="midnightblue" stroke="midnightblue" points="141.844,-179.975 131.461,-182.082 140.891,-186.91 141.844,-179.975"/>
</g>
<!-- Node26&#45;&gt;Node16 -->
<g id="edge45" class="edge"><title>Node26&#45;&gt;Node16</title>
<path fill="none" stroke="midnightblue" d="M528.812,-224.444C559.382,-214.676 609.26,-198.738 641.092,-188.567"/>
<polygon fill="midnightblue" stroke="midnightblue" points="642.285,-191.86 650.746,-185.483 640.155,-185.192 642.285,-191.86"/>
</g>
<!-- Node26&#45;&gt;Node21 -->
<g id="edge48" class="edge"><title>Node26&#45;&gt;Node21</title>
<path fill="none" stroke="midnightblue" d="M512.156,-224.368C534.01,-205.733 585.846,-161.532 613.286,-138.134"/>
<polygon fill="midnightblue" stroke="midnightblue" points="615.62,-140.743 620.958,-131.591 611.078,-135.417 615.62,-140.743"/>
</g>
<!-- Node26&#45;&gt;Node23 -->
<g id="edge42" class="edge"><title>Node26&#45;&gt;Node23</title>
<path fill="none" stroke="midnightblue" d="M540.151,-226.486C599.428,-216.357 713.319,-196.894 775.3,-186.303"/>
<polygon fill="midnightblue" stroke="midnightblue" points="776.247,-189.692 785.515,-184.557 775.068,-182.792 776.247,-189.692"/>
</g>
<!-- Node27 -->
<g id="node28" class="node"><title>Node27</title>
<g id="a_node28"><a xlink:href="common_8h.html" target="_top" xlink:title="crypto/common.h">
<polygon fill="white" stroke="black" points="379.034,-168.5 379.034,-187.5 471.034,-187.5 471.034,-168.5 379.034,-168.5"/>
<text text-anchor="middle" x="425.034" y="-175.5" font-family="Helvetica,sans-Serif" font-size="10.00">crypto/common.h</text>
</a>
</g>
</g>
<!-- Node26&#45;&gt;Node27 -->
<g id="edge38" class="edge"><title>Node26&#45;&gt;Node27</title>
<path fill="none" stroke="midnightblue" d="M489.662,-224.324C477.875,-216.058 459.901,-203.453 445.898,-193.632"/>
<polygon fill="midnightblue" stroke="midnightblue" points="447.571,-190.531 437.374,-187.655 443.552,-196.262 447.571,-190.531"/>
</g>
<!-- Node28 -->
<g id="node29" class="node"><title>Node28</title>
<polygon fill="white" stroke="#bfbfbf" points="489.534,-168.5 489.534,-187.5 534.534,-187.5 534.534,-168.5 489.534,-168.5"/>
<text text-anchor="middle" x="512.034" y="-175.5" font-family="Helvetica,sans-Serif" font-size="10.00">climits</text>
</g>
<!-- Node26&#45;&gt;Node28 -->
<g id="edge44" class="edge"><title>Node26&#45;&gt;Node28</title>
<path fill="none" stroke="midnightblue" d="M503.685,-224.083C505.01,-216.927 506.916,-206.635 508.572,-197.691"/>
<polygon fill="midnightblue" stroke="midnightblue" points="512.034,-198.221 510.413,-187.751 505.151,-196.947 512.034,-198.221"/>
</g>
<!-- Node27&#45;&gt;Node5 -->
<g id="edge39" class="edge"><title>Node27&#45;&gt;Node5</title>
<path fill="none" stroke="midnightblue" d="M443.777,-168.309C502.862,-140.912 685.436,-56.255 755.379,-23.8234"/>
<polygon fill="midnightblue" stroke="midnightblue" points="756.876,-26.9871 764.476,-19.6051 753.931,-20.6366 756.876,-26.9871"/>
</g>
<!-- Node27&#45;&gt;Node12 -->
<g id="edge41" class="edge"><title>Node27&#45;&gt;Node12</title>
<path fill="none" stroke="midnightblue" d="M471.222,-169.271C474.202,-168.826 477.158,-168.398 480.034,-168 602.235,-151.104 746.202,-136.015 823.082,-128.342"/>
<polygon fill="midnightblue" stroke="midnightblue" points="823.871,-131.781 833.475,-127.31 823.178,-124.816 823.871,-131.781"/>
</g>
<!-- Node27&#45;&gt;Node21 -->
<g id="edge40" class="edge"><title>Node27&#45;&gt;Node21</title>
<path fill="none" stroke="midnightblue" d="M457.675,-168.444C495.583,-158.506 557.848,-142.185 596.532,-132.044"/>
<polygon fill="midnightblue" stroke="midnightblue" points="597.518,-135.404 606.304,-129.483 595.743,-128.633 597.518,-135.404"/>
</g>
<!-- Node29&#45;&gt;Node2 -->
<g id="edge53" class="edge"><title>Node29&#45;&gt;Node2</title>
<path fill="none" stroke="midnightblue" d="M351.976,-229.4C309.6,-223.322 232.46,-209.54 216.034,-188 184.152,-146.191 276.347,-130.895 330.556,-125.604"/>
<polygon fill="midnightblue" stroke="midnightblue" points="331.199,-129.06 340.843,-124.674 330.569,-122.089 331.199,-129.06"/>
</g>
<!-- Node29&#45;&gt;Node3 -->
<g id="edge54" class="edge"><title>Node29&#45;&gt;Node3</title>
<path fill="none" stroke="midnightblue" d="M351.926,-230.013C299.918,-224.23 185.046,-210.256 79.2474,-188.035"/>
<polygon fill="midnightblue" stroke="midnightblue" points="79.8774,-184.591 69.3675,-185.93 78.4185,-191.437 79.8774,-184.591"/>
</g>
<!-- Node29&#45;&gt;Node4 -->
<g id="edge55" class="edge"><title>Node29&#45;&gt;Node4</title>
<path fill="none" stroke="midnightblue" d="M360.227,-224.444C339.747,-215.596 307.551,-201.687 284.169,-191.586"/>
<polygon fill="midnightblue" stroke="midnightblue" points="285.316,-188.269 274.748,-187.516 282.54,-194.695 285.316,-188.269"/>
</g>
<!-- Node29&#45;&gt;Node5 -->
<g id="edge56" class="edge"><title>Node29&#45;&gt;Node5</title>
<path fill="none" stroke="midnightblue" d="M351.619,-233.065C294.758,-232.036 174.977,-223.418 206.034,-168 252.651,-84.8147 298.868,-87.032 389.034,-56 455.22,-33.2211 664.835,-18.2381 748.276,-13.0376"/>
<polygon fill="midnightblue" stroke="midnightblue" points="748.732,-16.5163 758.498,-12.4103 748.303,-9.52945 748.732,-16.5163"/>
</g>
<!-- Node29&#45;&gt;Node6 -->
<g id="edge57" class="edge"><title>Node29&#45;&gt;Node6</title>
<path fill="none" stroke="midnightblue" d="M408.482,-226.379C452.373,-216.163 536.245,-196.641 581.415,-186.127"/>
<polygon fill="midnightblue" stroke="midnightblue" points="582.282,-189.519 591.228,-183.843 580.695,-182.701 582.282,-189.519"/>
</g>
<!-- Node29&#45;&gt;Node7 -->
<g id="edge58" class="edge"><title>Node29&#45;&gt;Node7</title>
<path fill="none" stroke="midnightblue" d="M351.714,-228.104C307.456,-220.333 219.268,-204.373 145.034,-188 143.76,-187.719 142.462,-187.426 141.153,-187.125"/>
<polygon fill="midnightblue" stroke="midnightblue" points="141.612,-183.636 131.073,-184.716 139.985,-190.445 141.612,-183.636"/>
</g>
<!-- Node29&#45;&gt;Node27 -->
<g id="edge59" class="edge"><title>Node29&#45;&gt;Node27</title>
<path fill="none" stroke="midnightblue" d="M387.465,-224.083C393.886,-216.377 403.339,-205.033 411.156,-195.653"/>
<polygon fill="midnightblue" stroke="midnightblue" points="414.028,-197.674 417.741,-187.751 408.651,-193.193 414.028,-197.674"/>
</g>
<!-- Node30&#45;&gt;Node5 -->
<g id="edge67" class="edge"><title>Node30&#45;&gt;Node5</title>
<path fill="none" stroke="midnightblue" d="M850.72,-345.456C954.003,-347.061 1391.03,-347.221 1391.03,-235 1391.03,-235 1391.03,-235 1391.03,-121 1391.03,-62.311 946.702,-23.5764 817.733,-13.5696"/>
<polygon fill="midnightblue" stroke="midnightblue" points="817.86,-10.0691 807.621,-12.794 817.324,-17.0486 817.86,-10.0691"/>
</g>
<!-- Node31 -->
<g id="node32" class="node"><title>Node31</title>
<g id="a_node32"><a xlink:href="params_8h.html" target="_top" xlink:title="consensus/params.h">
<polygon fill="white" stroke="black" points="568.534,-280.5 568.534,-299.5 675.534,-299.5 675.534,-280.5 568.534,-280.5"/>
<text text-anchor="middle" x="622.034" y="-287.5" font-family="Helvetica,sans-Serif" font-size="10.00">consensus/params.h</text>
</a>
</g>
</g>
<!-- Node30&#45;&gt;Node31 -->
<g id="edge63" class="edge"><title>Node30&#45;&gt;Node31</title>
<path fill="none" stroke="midnightblue" d="M807.272,-339.323C773.471,-330.505 707.736,-313.357 664.36,-302.042"/>
<polygon fill="midnightblue" stroke="midnightblue" points="665.216,-298.648 654.656,-299.51 663.449,-305.421 665.216,-298.648"/>
</g>
<!-- Node31&#45;&gt;Node6 -->
<g id="edge66" class="edge"><title>Node31&#45;&gt;Node6</title>
<path fill="none" stroke="midnightblue" d="M621.249,-280.368C619.635,-262.617 615.913,-221.666 613.724,-197.597"/>
<polygon fill="midnightblue" stroke="midnightblue" points="617.206,-197.233 612.815,-187.591 610.235,-197.867 617.206,-197.233"/>
</g>
<!-- Node31&#45;&gt;Node18 -->
<g id="edge65" class="edge"><title>Node31&#45;&gt;Node18</title>
<path fill="none" stroke="midnightblue" d="M675.045,-280.495C798.163,-260.622 1100.59,-211.082 1201.03,-188 1202.51,-187.661 1204.02,-187.296 1205.54,-186.916"/>
<polygon fill="midnightblue" stroke="midnightblue" points="1206.75,-190.217 1215.51,-184.259 1204.94,-183.453 1206.75,-190.217"/>
</g>
<!-- Node31&#45;&gt;Node29 -->
<g id="edge64" class="edge"><title>Node31&#45;&gt;Node29</title>
<path fill="none" stroke="midnightblue" d="M583.688,-280.444C538.434,-270.346 463.634,-253.654 418.379,-243.556"/>
<polygon fill="midnightblue" stroke="midnightblue" points="418.892,-240.085 408.37,-241.323 417.368,-246.917 418.892,-240.085"/>
</g>
<!-- Node32&#45;&gt;Node4 -->
<g id="edge73" class="edge"><title>Node32&#45;&gt;Node4</title>
<path fill="none" stroke="midnightblue" d="M1418.87,-232.036C1284.94,-228.159 782.827,-212.72 370.034,-188 345.01,-186.501 316.963,-184.317 294.832,-182.475"/>
<polygon fill="midnightblue" stroke="midnightblue" points="295.056,-178.981 284.798,-181.63 294.468,-185.957 295.056,-178.981"/>
</g>
<!-- Node32&#45;&gt;Node14 -->
<g id="edge69" class="edge"><title>Node32&#45;&gt;Node14</title>
<path fill="none" stroke="midnightblue" d="M1428.32,-224.444C1402.19,-215.399 1360.77,-201.064 1331.46,-190.916"/>
<polygon fill="midnightblue" stroke="midnightblue" points="1332.23,-187.48 1321.64,-187.516 1329.94,-194.095 1332.23,-187.48"/>
</g>
<!-- Node33 -->
<g id="node34" class="node"><title>Node33</title>
<polygon fill="white" stroke="#bfbfbf" points="1561.53,-168.5 1561.53,-187.5 1610.53,-187.5 1610.53,-168.5 1561.53,-168.5"/>
<text text-anchor="middle" x="1586.03" y="-175.5" font-family="Helvetica,sans-Serif" font-size="10.00">cassert</text>
</g>
<!-- Node32&#45;&gt;Node33 -->
<g id="edge70" class="edge"><title>Node32&#45;&gt;Node33</title>
<path fill="none" stroke="midnightblue" d="M1474.11,-224.444C1496.09,-215.517 1530.77,-201.439 1555.7,-191.317"/>
<polygon fill="midnightblue" stroke="midnightblue" points="1557.11,-194.521 1565.06,-187.516 1554.48,-188.035 1557.11,-194.521"/>
</g>
<!-- Node34 -->
<g id="node35" class="node"><title>Node34</title>
<polygon fill="white" stroke="#bfbfbf" points="1419.03,-168.5 1419.03,-187.5 1473.03,-187.5 1473.03,-168.5 1419.03,-168.5"/>
<text text-anchor="middle" x="1446.03" y="-175.5" font-family="Helvetica,sans-Serif" font-size="10.00">iostream</text>
</g>
<!-- Node32&#45;&gt;Node34 -->
<g id="edge71" class="edge"><title>Node32&#45;&gt;Node34</title>
<path fill="none" stroke="midnightblue" d="M1451.88,-224.083C1450.95,-216.927 1449.62,-206.635 1448.46,-197.691"/>
<polygon fill="midnightblue" stroke="midnightblue" points="1451.92,-197.218 1447.17,-187.751 1444.98,-198.118 1451.92,-197.218"/>
</g>
<!-- Node35 -->
<g id="node36" class="node"><title>Node35</title>
<polygon fill="white" stroke="#bfbfbf" points="1491.03,-168.5 1491.03,-187.5 1543.03,-187.5 1543.03,-168.5 1491.03,-168.5"/>
<text text-anchor="middle" x="1517.03" y="-175.5" font-family="Helvetica,sans-Serif" font-size="10.00">sstream</text>
</g>
<!-- Node32&#45;&gt;Node35 -->
<g id="edge72" class="edge"><title>Node32&#45;&gt;Node35</title>
<path fill="none" stroke="midnightblue" d="M1463.32,-224.324C1472.87,-216.263 1487.31,-204.077 1498.82,-194.369"/>
<polygon fill="midnightblue" stroke="midnightblue" points="1501.18,-196.958 1506.56,-187.834 1496.66,-191.608 1501.18,-196.958"/>
</g>
</g>
</svg>
        <g id="navigator" transform="translate(0 0)" fill="#404254">
                <rect fill="#f2f5e9" fill-opacity="0.5" stroke="#606060" stroke-width=".5" x="0" y="0" width="60" height="60"/>
                <use id="zoomplus" xlink:href="#zoomPlus" x="17" y="9" onmousedown="handleZoom(evt,'in')"/>
                <use id="zoomminus" xlink:href="#zoomMin" x="42" y="9" onmousedown="handleZoom(evt,'out')"/>
                <use id="reset" xlink:href="#resetDef" x="30" y="36" onmousedown="handleReset()"/>
                <g id="arrowUp" xlink:href="#dirArrow" transform="translate(30 24)" onmousedown="handlePan(0,-1)">
                  <use xlink:href="#rim" fill="#404040">
                        <set attributeName="fill" to="#808080" begin="arrowUp.mouseover" end="arrowUp.mouseout"/>
                  </use>
                  <path fill="none" stroke="white" stroke-width="1.5" d="M0,-3.0v7 M-2.5,-0.5L0,-3.0L2.5,-0.5"/>
                </g>
                <g id="arrowRight" xlink:href="#dirArrow" transform="rotate(90) translate(36 -43)" onmousedown="handlePan(1,0)">
                  <use xlink:href="#rim" fill="#404040">
                        <set attributeName="fill" to="#808080" begin="arrowRight.mouseover" end="arrowRight.mouseout"/>
                  </use>
                  <path fill="none" stroke="white" stroke-width="1.5" d="M0,-3.0v7 M-2.5,-0.5L0,-3.0L2.5,-0.5"/>
                </g>
                <g id="arrowDown" xlink:href="#dirArrow" transform="rotate(180) translate(-30 -48)" onmousedown="handlePan(0,1)">
                  <use xlink:href="#rim" fill="#404040">
                        <set attributeName="fill" to="#808080" begin="arrowDown.mouseover" end="arrowDown.mouseout"/>
                  </use>
                  <path fill="none" stroke="white" stroke-width="1.5" d="M0,-3.0v7 M-2.5,-0.5L0,-3.0L2.5,-0.5"/>
                </g>
                <g id="arrowLeft" xlink:href="#dirArrow" transform="rotate(270) translate(-36 17)" onmousedown="handlePan(-1,0)">
                  <use xlink:href="#rim" fill="#404040">
                        <set attributeName="fill" to="#808080" begin="arrowLeft.mouseover" end="arrowLeft.mouseout"/>
                  </use>
                  <path fill="none" stroke="white" stroke-width="1.5" d="M0,-3.0v7 M-2.5,-0.5L0,-3.0L2.5,-0.5"/>
                </g>
        </g>
        <svg viewBox="0 0 15 15" width="100%" height="30px" preserveAspectRatio="xMaxYMin meet">
         <g id="arrow_out" transform="scale(0.3 0.3)">
          <a xlink:href="chain_8h__incl_org.svg" target="_base">
           <rect id="button" ry="5" rx="5" y="6" x="6" height="38" width="38"
                fill="#f2f5e9" fill-opacity="0.5" stroke="#606060" stroke-width="1.0"/>
           <path id="arrow"
             d="M 11.500037,31.436501 C 11.940474,20.09759 22.043105,11.32322 32.158766,21.979434 L 37.068811,17.246167 C 37.068811,17.246167 37.088388,32 37.088388,32 L 22.160133,31.978069 C 22.160133,31.978069 26.997745,27.140456 26.997745,27.140456 C 18.528582,18.264221 13.291696,25.230495 11.500037,31.436501 z"
             style="fill:#404040;"/>
          </a>
         </g>
        </svg>
</svg>
