<?xml version="1.0" encoding="UTF-8" standalone="no"?>
<!DOCTYPE svg PUBLIC "-//W3C//DTD SVG 1.1//EN"
 "http://www.w3.org/Graphics/SVG/1.1/DTD/svg11.dtd">
<!-- Generated by graphviz version 2.36.0 (20140111.2315)
 -->
<!-- Title: src/chainparamsbase.cpp Pages: 1 -->
<!--zoomable 364 -->
<svg id="main" version="1.1" xmlns="http://www.w3.org/2000/svg" xmlns:xlink="http://www.w3.org/1999/xlink" xml:space="preserve" onload="init(evt)">
<style type="text/css"><![CDATA[
.edge:hover path { stroke: red; }
.edge:hover polygon { stroke: red; fill: red; }
]]></style>
<script type="text/javascript"><![CDATA[
var edges = document.getElementsByTagName('g');
if (edges && edges.length) {
  for (var i=0;i<edges.length;i++) {
    if (edges[i].id.substr(0,4)=='edge') {
      edges[i].setAttribute('class','edge');
    }
  }
}
]]></script>
        <defs>
                <circle id="rim" cx="0" cy="0" r="7"/>
                <circle id="rim2" cx="0" cy="0" r="3.5"/>
                <g id="zoomPlus">
                        <use xlink:href="#rim" fill="#404040">
                                <set attributeName="fill" to="#808080" begin="zoomplus.mouseover" end="zoomplus.mouseout"/>
                        </use>
                        <path d="M-4,0h8M0,-4v8" fill="none" stroke="white" stroke-width="1.5" pointer-events="none"/>
                </g>
                <g id="zoomMin">
                        <use xlink:href="#rim" fill="#404040">
                                <set attributeName="fill" to="#808080" begin="zoomminus.mouseover" end="zoomminus.mouseout"/>
                        </use>
                        <path d="M-4,0h8" fill="none" stroke="white" stroke-width="1.5" pointer-events="none"/>
                </g>
                <g id="dirArrow">
                        <path fill="none" stroke="white" stroke-width="1.5" d="M0,-3.0v7 M-2.5,-0.5L0,-3.0L2.5,-0.5"/>
                </g>
               <g id="resetDef">
                       <use xlink:href="#rim2" fill="#404040">
                               <set attributeName="fill" to="#808080" begin="reset.mouseover" end="reset.mouseout"/>
                       </use>
               </g>
        </defs>

<script type="text/javascript">
var viewWidth = 1922;
var viewHeight = 364;
var sectionId = 'dynsection-0';
</script>
<script xlink:href="svgpan.js"/>
<svg id="graph" class="graph">
<g id="viewport">
<title>src/chainparamsbase.cpp</title>
<polygon fill="white" stroke="none" points="-4,4 -4,-360 1918.46,-360 1918.46,4 -4,4"/>
<!-- Node0 -->
<g id="node1" class="node"><title>Node0</title>
<polygon fill="#bfbfbf" stroke="black" points="422,-336.5 422,-355.5 550,-355.5 550,-336.5 422,-336.5"/>
<text text-anchor="middle" x="486" y="-343.5" font-family="Helvetica,sans-Serif" font-size="10.00">src/chainparamsbase.cpp</text>
</g>
<!-- Node1 -->
<g id="node2" class="node"><title>Node1</title>
<g id="a_node2"><a xlink:href="chainparamsbase_8h.html" target="_top" xlink:title="chainparamsbase.h">
<polygon fill="white" stroke="black" points="517.5,-168.5 517.5,-187.5 618.5,-187.5 618.5,-168.5 517.5,-168.5"/>
<text text-anchor="middle" x="568" y="-175.5" font-family="Helvetica,sans-Serif" font-size="10.00">chainparamsbase.h</text>
</a>
</g>
</g>
<!-- Node0&#45;&gt;Node1 -->
<g id="edge1" class="edge"><title>Node0&#45;&gt;Node1</title>
<path fill="none" stroke="midnightblue" d="M490.409,-336.075C503.428,-309.719 541.88,-231.878 559.276,-196.661"/>
<polygon fill="midnightblue" stroke="midnightblue" points="562.477,-198.084 563.768,-187.568 556.201,-194.984 562.477,-198.084"/>
</g>
<!-- Node4 -->
<g id="node5" class="node"><title>Node4</title>
<g id="a_node5"><a xlink:href="tinyformat_8h.html" target="_top" xlink:title="tinyformat.h">
<polygon fill="white" stroke="black" points="275,-224.5 275,-243.5 343,-243.5 343,-224.5 275,-224.5"/>
<text text-anchor="middle" x="309" y="-231.5" font-family="Helvetica,sans-Serif" font-size="10.00">tinyformat.h</text>
</a>
</g>
</g>
<!-- Node0&#45;&gt;Node4 -->
<g id="edge4" class="edge"><title>Node0&#45;&gt;Node4</title>
<path fill="none" stroke="midnightblue" d="M472.111,-336.368C441.609,-317.412 368.537,-272.001 331.435,-248.942"/>
<polygon fill="midnightblue" stroke="midnightblue" points="333.165,-245.897 322.824,-243.591 329.47,-251.843 333.165,-245.897"/>
</g>
<!-- Node10 -->
<g id="node11" class="node"><title>Node10</title>
<g id="a_node11"><a xlink:href="util_8h.html" target="_top" xlink:title="util.h">
<polygon fill="white" stroke="black" points="790,-280.5 790,-299.5 828,-299.5 828,-280.5 790,-280.5"/>
<text text-anchor="middle" x="809" y="-287.5" font-family="Helvetica,sans-Serif" font-size="10.00">util.h</text>
</a>
</g>
</g>
<!-- Node0&#45;&gt;Node10 -->
<g id="edge10" class="edge"><title>Node0&#45;&gt;Node10</title>
<path fill="none" stroke="midnightblue" d="M537.18,-336.444C605.722,-324.985 725.045,-305.036 779.899,-295.865"/>
<polygon fill="midnightblue" stroke="midnightblue" points="780.69,-299.282 789.976,-294.181 779.535,-292.377 780.69,-299.282"/>
</g>
<!-- Node32 -->
<g id="node33" class="node"><title>Node32</title>
<polygon fill="white" stroke="#bfbfbf" points="122,-56.5 122,-75.5 174,-75.5 174,-56.5 122,-56.5"/>
<text text-anchor="middle" x="148" y="-63.5" font-family="Helvetica,sans-Serif" font-size="10.00">assert.h</text>
</g>
<!-- Node0&#45;&gt;Node32 -->
<g id="edge66" class="edge"><title>Node0&#45;&gt;Node32</title>
<path fill="none" stroke="midnightblue" d="M421.964,-343.792C289.994,-339.562 0,-320.536 0,-235 0,-235 0,-235 0,-177 0,-121.311 68.3332,-90.5146 112.136,-76.4941"/>
<polygon fill="midnightblue" stroke="midnightblue" points="113.339,-79.7863 121.881,-73.5192 111.295,-73.0913 113.339,-79.7863"/>
</g>
<!-- Node2 -->
<g id="node3" class="node"><title>Node2</title>
<polygon fill="white" stroke="#bfbfbf" points="874.5,-112.5 874.5,-131.5 915.5,-131.5 915.5,-112.5 874.5,-112.5"/>
<text text-anchor="middle" x="895" y="-119.5" font-family="Helvetica,sans-Serif" font-size="10.00">string</text>
</g>
<!-- Node1&#45;&gt;Node2 -->
<g id="edge2" class="edge"><title>Node1&#45;&gt;Node2</title>
<path fill="none" stroke="midnightblue" d="M618.575,-169.683C696.786,-158.31 840.554,-137.162 864,-132 864.212,-131.953 864.425,-131.906 864.638,-131.858"/>
<polygon fill="midnightblue" stroke="midnightblue" points="865.583,-135.229 874.42,-129.385 863.867,-128.443 865.583,-135.229"/>
</g>
<!-- Node3 -->
<g id="node4" class="node"><title>Node3</title>
<polygon fill="white" stroke="#bfbfbf" points="812,-112.5 812,-131.5 856,-131.5 856,-112.5 812,-112.5"/>
<text text-anchor="middle" x="834" y="-119.5" font-family="Helvetica,sans-Serif" font-size="10.00">vector</text>
</g>
<!-- Node1&#45;&gt;Node3 -->
<g id="edge3" class="edge"><title>Node1&#45;&gt;Node3</title>
<path fill="none" stroke="midnightblue" d="M618.718,-168.697C664.27,-160.924 733.16,-148.388 801.621,-132.16"/>
<polygon fill="midnightblue" stroke="midnightblue" points="802.807,-135.475 811.715,-129.739 801.175,-128.668 802.807,-135.475"/>
</g>
<!-- Node5 -->
<g id="node6" class="node"><title>Node5</title>
<polygon fill="white" stroke="#bfbfbf" points="66,-112.5 66,-131.5 122,-131.5 122,-112.5 66,-112.5"/>
<text text-anchor="middle" x="94" y="-119.5" font-family="Helvetica,sans-Serif" font-size="10.00">algorithm</text>
</g>
<!-- Node4&#45;&gt;Node5 -->
<g id="edge5" class="edge"><title>Node4&#45;&gt;Node5</title>
<path fill="none" stroke="midnightblue" d="M319.848,-224.32C334.995,-211.17 359.022,-185.845 344,-168 313.791,-132.113 182.054,-140.916 136,-132 134.765,-131.761 133.509,-131.514 132.243,-131.262"/>
<polygon fill="midnightblue" stroke="midnightblue" points="132.934,-127.831 122.435,-129.253 131.53,-134.688 132.934,-127.831"/>
</g>
<!-- Node6 -->
<g id="node7" class="node"><title>Node6</title>
<polygon fill="white" stroke="#bfbfbf" points="143.5,-168.5 143.5,-187.5 192.5,-187.5 192.5,-168.5 143.5,-168.5"/>
<text text-anchor="middle" x="168" y="-175.5" font-family="Helvetica,sans-Serif" font-size="10.00">cassert</text>
</g>
<!-- Node4&#45;&gt;Node6 -->
<g id="edge6" class="edge"><title>Node4&#45;&gt;Node6</title>
<path fill="none" stroke="midnightblue" d="M286.658,-224.444C263.247,-215.478 226.264,-201.314 199.81,-191.183"/>
<polygon fill="midnightblue" stroke="midnightblue" points="200.828,-187.824 190.237,-187.516 198.324,-194.361 200.828,-187.824"/>
</g>
<!-- Node7 -->
<g id="node8" class="node"><title>Node7</title>
<polygon fill="white" stroke="#bfbfbf" points="211,-168.5 211,-187.5 265,-187.5 265,-168.5 211,-168.5"/>
<text text-anchor="middle" x="238" y="-175.5" font-family="Helvetica,sans-Serif" font-size="10.00">iostream</text>
</g>
<!-- Node4&#45;&gt;Node7 -->
<g id="edge7" class="edge"><title>Node4&#45;&gt;Node7</title>
<path fill="none" stroke="midnightblue" d="M297.593,-224.324C286.891,-216.185 270.659,-203.839 257.837,-194.087"/>
<polygon fill="midnightblue" stroke="midnightblue" points="259.693,-191.102 249.615,-187.834 255.456,-196.673 259.693,-191.102"/>
</g>
<!-- Node8 -->
<g id="node9" class="node"><title>Node8</title>
<polygon fill="white" stroke="#bfbfbf" points="283,-168.5 283,-187.5 335,-187.5 335,-168.5 283,-168.5"/>
<text text-anchor="middle" x="309" y="-175.5" font-family="Helvetica,sans-Serif" font-size="10.00">sstream</text>
</g>
<!-- Node4&#45;&gt;Node8 -->
<g id="edge8" class="edge"><title>Node4&#45;&gt;Node8</title>
<path fill="none" stroke="midnightblue" d="M309,-224.083C309,-217.006 309,-206.861 309,-197.986"/>
<polygon fill="midnightblue" stroke="midnightblue" points="312.5,-197.751 309,-187.751 305.5,-197.751 312.5,-197.751"/>
</g>
<!-- Node9 -->
<g id="node10" class="node"><title>Node9</title>
<polygon fill="white" stroke="#bfbfbf" points="66.5,-168.5 66.5,-187.5 125.5,-187.5 125.5,-168.5 66.5,-168.5"/>
<text text-anchor="middle" x="96" y="-175.5" font-family="Helvetica,sans-Serif" font-size="10.00">stdexcept</text>
</g>
<!-- Node4&#45;&gt;Node9 -->
<g id="edge9" class="edge"><title>Node4&#45;&gt;Node9</title>
<path fill="none" stroke="midnightblue" d="M275.25,-224.444C237.292,-214.821 175.718,-199.21 135.539,-189.024"/>
<polygon fill="midnightblue" stroke="midnightblue" points="136.366,-185.623 125.812,-186.558 134.645,-192.408 136.366,-185.623"/>
</g>
<!-- Node10&#45;&gt;Node2 -->
<g id="edge61" class="edge"><title>Node10&#45;&gt;Node2</title>
<path fill="none" stroke="midnightblue" d="M789.771,-282.06C773.759,-275.136 752.017,-262.795 742,-244 726.113,-214.192 721.764,-195.045 742,-168 742.474,-167.367 820.252,-144.702 864.716,-131.786"/>
<polygon fill="midnightblue" stroke="midnightblue" points="865.82,-135.11 874.447,-128.96 863.868,-128.388 865.82,-135.11"/>
</g>
<!-- Node10&#45;&gt;Node3 -->
<g id="edge62" class="edge"><title>Node10&#45;&gt;Node3</title>
<path fill="none" stroke="midnightblue" d="M789.92,-286.598C766.264,-282.485 726.883,-271.658 709,-244 690.66,-215.635 689.577,-195.635 709,-168 714.583,-160.057 766.898,-143.095 802.055,-132.415"/>
<polygon fill="midnightblue" stroke="midnightblue" points="803.337,-135.684 811.904,-129.45 801.319,-128.981 803.337,-135.684"/>
</g>
<!-- Node10&#45;&gt;Node4 -->
<g id="edge26" class="edge"><title>Node10&#45;&gt;Node4</title>
<path fill="none" stroke="midnightblue" d="M789.706,-286.916C716.918,-279.055 457.816,-251.072 353.242,-239.778"/>
<polygon fill="midnightblue" stroke="midnightblue" points="353.347,-236.269 343.029,-238.675 352.595,-243.229 353.347,-236.269"/>
</g>
<!-- Node11 -->
<g id="node12" class="node"><title>Node11</title>
<g id="a_node12"><a xlink:href="compat_8h.html" target="_top" xlink:title="compat.h">
<polygon fill="white" stroke="black" points="1343.5,-224.5 1343.5,-243.5 1400.5,-243.5 1400.5,-224.5 1343.5,-224.5"/>
<text text-anchor="middle" x="1372" y="-231.5" font-family="Helvetica,sans-Serif" font-size="10.00">compat.h</text>
</a>
</g>
</g>
<!-- Node10&#45;&gt;Node11 -->
<g id="edge11" class="edge"><title>Node10&#45;&gt;Node11</title>
<path fill="none" stroke="midnightblue" d="M828.194,-288.374C895.946,-285.951 1130.27,-275.772 1333.5,-243.823"/>
<polygon fill="midnightblue" stroke="midnightblue" points="1334.13,-247.266 1343.46,-242.236 1333.03,-240.353 1334.13,-247.266"/>
</g>
<!-- Node26 -->
<g id="node27" class="node"><title>Node26</title>
<g id="a_node27"><a xlink:href="utiltime_8h.html" target="_top" xlink:title="utiltime.h">
<polygon fill="white" stroke="black" points="1846,-168.5 1846,-187.5 1902,-187.5 1902,-168.5 1846,-168.5"/>
<text text-anchor="middle" x="1874" y="-175.5" font-family="Helvetica,sans-Serif" font-size="10.00">utiltime.h</text>
</a>
</g>
</g>
<!-- Node10&#45;&gt;Node26 -->
<g id="edge27" class="edge"><title>Node10&#45;&gt;Node26</title>
<path fill="none" stroke="midnightblue" d="M828.204,-287.949C902.858,-283.781 1180.92,-267.491 1409,-244 1599.4,-224.39 1647.74,-222.545 1836,-188 1836.1,-187.982 1836.2,-187.963 1836.3,-187.945"/>
<polygon fill="midnightblue" stroke="midnightblue" points="1836.74,-191.426 1845.85,-186.006 1835.35,-184.566 1836.74,-191.426"/>
</g>
<!-- Node27 -->
<g id="node28" class="node"><title>Node27</title>
<polygon fill="white" stroke="#bfbfbf" points="671.5,-0.5 671.5,-19.5 720.5,-19.5 720.5,-0.5 671.5,-0.5"/>
<text text-anchor="middle" x="696" y="-7.5" font-family="Helvetica,sans-Serif" font-size="10.00">stdint.h</text>
</g>
<!-- Node10&#45;&gt;Node27 -->
<g id="edge60" class="edge"><title>Node10&#45;&gt;Node27</title>
<path fill="none" stroke="midnightblue" d="M789.941,-288.349C671.214,-284.046 38,-257.422 38,-179 38,-179 38,-179 38,-121 38,-76.8901 72.2963,-72.9967 113,-56 212.951,-14.2633 551.361,-10.8398 661.236,-10.8563"/>
<polygon fill="midnightblue" stroke="midnightblue" points="661.43,-14.3564 671.434,-10.8681 661.438,-7.35641 661.43,-14.3564"/>
</g>
<!-- Node28 -->
<g id="node29" class="node"><title>Node28</title>
<g id="a_node29"><a xlink:href="amount_8h.html" target="_top" xlink:title="amount.h">
<polygon fill="white" stroke="black" points="451.5,-224.5 451.5,-243.5 508.5,-243.5 508.5,-224.5 451.5,-224.5"/>
<text text-anchor="middle" x="480" y="-231.5" font-family="Helvetica,sans-Serif" font-size="10.00">amount.h</text>
</a>
</g>
</g>
<!-- Node10&#45;&gt;Node28 -->
<g id="edge30" class="edge"><title>Node10&#45;&gt;Node28</title>
<path fill="none" stroke="midnightblue" d="M789.89,-285.863C737.32,-277.235 589.767,-253.017 518.921,-241.388"/>
<polygon fill="midnightblue" stroke="midnightblue" points="519.075,-237.867 508.64,-239.701 517.941,-244.774 519.075,-237.867"/>
</g>
<!-- Node36 -->
<g id="node37" class="node"><title>Node36</title>
<polygon fill="white" stroke="#bfbfbf" points="1371.5,-112.5 1371.5,-131.5 1406.5,-131.5 1406.5,-112.5 1371.5,-112.5"/>
<text text-anchor="middle" x="1389" y="-119.5" font-family="Helvetica,sans-Serif" font-size="10.00">map</text>
</g>
<!-- Node10&#45;&gt;Node36 -->
<g id="edge59" class="edge"><title>Node10&#45;&gt;Node36</title>
<path fill="none" stroke="midnightblue" d="M828.07,-288.798C968.261,-287.118 1836.05,-273.296 1910,-188 1915.82,-181.284 1916.01,-174.55 1910,-168 1876.47,-131.449 1520.51,-124.509 1417.05,-123.261"/>
<polygon fill="midnightblue" stroke="midnightblue" points="1416.81,-119.758 1406.78,-123.146 1416.74,-126.758 1416.81,-119.758"/>
</g>
<!-- Node44 -->
<g id="node45" class="node"><title>Node44</title>
<polygon fill="white" stroke="#bfbfbf" points="751,-224.5 751,-243.5 797,-243.5 797,-224.5 751,-224.5"/>
<text text-anchor="middle" x="774" y="-231.5" font-family="Helvetica,sans-Serif" font-size="10.00">atomic</text>
</g>
<!-- Node10&#45;&gt;Node44 -->
<g id="edge57" class="edge"><title>Node10&#45;&gt;Node44</title>
<path fill="none" stroke="midnightblue" d="M803.22,-280.083C798.328,-272.534 791.173,-261.495 785.167,-252.23"/>
<polygon fill="midnightblue" stroke="midnightblue" points="788.048,-250.239 779.672,-243.751 782.174,-254.046 788.048,-250.239"/>
</g>
<!-- Node45 -->
<g id="node46" class="node"><title>Node45</title>
<polygon fill="white" stroke="#bfbfbf" points="815.5,-224.5 815.5,-243.5 874.5,-243.5 874.5,-224.5 815.5,-224.5"/>
<text text-anchor="middle" x="845" y="-231.5" font-family="Helvetica,sans-Serif" font-size="10.00">exception</text>
</g>
<!-- Node10&#45;&gt;Node45 -->
<g id="edge58" class="edge"><title>Node10&#45;&gt;Node45</title>
<path fill="none" stroke="midnightblue" d="M814.945,-280.083C819.977,-272.534 827.337,-261.495 833.513,-252.23"/>
<polygon fill="midnightblue" stroke="midnightblue" points="836.531,-254.013 839.166,-243.751 830.707,-250.13 836.531,-254.013"/>
</g>
<!-- Node46 -->
<g id="node47" class="node"><title>Node46</title>
<polygon fill="white" stroke="#bfbfbf" points="892.5,-224.5 892.5,-243.5 1021.5,-243.5 1021.5,-224.5 892.5,-224.5"/>
<text text-anchor="middle" x="957" y="-231.5" font-family="Helvetica,sans-Serif" font-size="10.00">boost/filesystem/path.hpp</text>
</g>
<!-- Node10&#45;&gt;Node46 -->
<g id="edge63" class="edge"><title>Node10&#45;&gt;Node46</title>
<path fill="none" stroke="midnightblue" d="M828.045,-282.051C852.315,-273.196 894.65,-257.749 924.168,-246.979"/>
<polygon fill="midnightblue" stroke="midnightblue" points="925.448,-250.238 933.642,-243.522 923.048,-243.662 925.448,-250.238"/>
</g>
<!-- Node47 -->
<g id="node48" class="node"><title>Node47</title>
<polygon fill="white" stroke="#bfbfbf" points="1039.5,-224.5 1039.5,-243.5 1166.5,-243.5 1166.5,-224.5 1039.5,-224.5"/>
<text text-anchor="middle" x="1103" y="-231.5" font-family="Helvetica,sans-Serif" font-size="10.00">boost/signals2/signal.hpp</text>
</g>
<!-- Node10&#45;&gt;Node47 -->
<g id="edge64" class="edge"><title>Node10&#45;&gt;Node47</title>
<path fill="none" stroke="midnightblue" d="M828.29,-285.457C871.973,-277.433 979.84,-257.621 1046.67,-245.346"/>
<polygon fill="midnightblue" stroke="midnightblue" points="1047.42,-248.766 1056.63,-243.517 1046.16,-241.882 1047.42,-248.766"/>
</g>
<!-- Node48 -->
<g id="node49" class="node"><title>Node48</title>
<polygon fill="white" stroke="#bfbfbf" points="1185,-224.5 1185,-243.5 1325,-243.5 1325,-224.5 1185,-224.5"/>
<text text-anchor="middle" x="1255" y="-231.5" font-family="Helvetica,sans-Serif" font-size="10.00">boost/thread/exceptions.hpp</text>
</g>
<!-- Node10&#45;&gt;Node48 -->
<g id="edge65" class="edge"><title>Node10&#45;&gt;Node48</title>
<path fill="none" stroke="midnightblue" d="M828.164,-286.68C887.12,-279.542 1068.22,-257.614 1174.64,-244.73"/>
<polygon fill="midnightblue" stroke="midnightblue" points="1175.19,-248.188 1184.7,-243.512 1174.35,-241.239 1175.19,-248.188"/>
</g>
<!-- Node12 -->
<g id="node13" class="node"><title>Node12</title>
<polygon fill="white" stroke="#bfbfbf" points="886,-168.5 886,-187.5 948,-187.5 948,-168.5 886,-168.5"/>
<text text-anchor="middle" x="917" y="-175.5" font-family="Helvetica,sans-Serif" font-size="10.00">sys/fcntl.h</text>
</g>
<!-- Node11&#45;&gt;Node12 -->
<g id="edge12" class="edge"><title>Node11&#45;&gt;Node12</title>
<path fill="none" stroke="midnightblue" d="M1343.45,-225.794C1340.27,-225.125 1337.08,-224.509 1334,-224 1171.18,-197.076 1125.01,-213.841 958.468,-188.044"/>
<polygon fill="midnightblue" stroke="midnightblue" points="958.794,-184.552 948.371,-186.451 957.703,-191.467 958.794,-184.552"/>
</g>
<!-- Node13 -->
<g id="node14" class="node"><title>Node13</title>
<polygon fill="white" stroke="#bfbfbf" points="966.5,-168.5 966.5,-187.5 1037.5,-187.5 1037.5,-168.5 966.5,-168.5"/>
<text text-anchor="middle" x="1002" y="-175.5" font-family="Helvetica,sans-Serif" font-size="10.00">sys/mman.h</text>
</g>
<!-- Node11&#45;&gt;Node13 -->
<g id="edge13" class="edge"><title>Node11&#45;&gt;Node13</title>
<path fill="none" stroke="midnightblue" d="M1343.44,-225.886C1340.26,-225.2 1337.07,-224.554 1334,-224 1210.7,-201.733 1175.66,-208.26 1047.99,-188.043"/>
<polygon fill="midnightblue" stroke="midnightblue" points="1048.25,-184.54 1037.82,-186.408 1047.14,-191.451 1048.25,-184.54"/>
</g>
<!-- Node14 -->
<g id="node15" class="node"><title>Node14</title>
<polygon fill="white" stroke="#bfbfbf" points="1056,-168.5 1056,-187.5 1126,-187.5 1126,-168.5 1056,-168.5"/>
<text text-anchor="middle" x="1091" y="-175.5" font-family="Helvetica,sans-Serif" font-size="10.00">sys/select.h</text>
</g>
<!-- Node11&#45;&gt;Node14 -->
<g id="edge14" class="edge"><title>Node11&#45;&gt;Node14</title>
<path fill="none" stroke="midnightblue" d="M1343.4,-226.056C1340.24,-225.338 1337.05,-224.639 1334,-224 1249.53,-206.331 1225.53,-204.857 1136.37,-188.035"/>
<polygon fill="midnightblue" stroke="midnightblue" points="1136.84,-184.561 1126.36,-186.133 1135.53,-191.438 1136.84,-184.561"/>
</g>
<!-- Node15 -->
<g id="node16" class="node"><title>Node15</title>
<polygon fill="white" stroke="#bfbfbf" points="1144.5,-168.5 1144.5,-187.5 1217.5,-187.5 1217.5,-168.5 1144.5,-168.5"/>
<text text-anchor="middle" x="1181" y="-175.5" font-family="Helvetica,sans-Serif" font-size="10.00">sys/socket.h</text>
</g>
<!-- Node11&#45;&gt;Node15 -->
<g id="edge15" class="edge"><title>Node11&#45;&gt;Node15</title>
<path fill="none" stroke="midnightblue" d="M1343.41,-224.916C1310.97,-215.745 1257.84,-200.723 1221.23,-190.373"/>
<polygon fill="midnightblue" stroke="midnightblue" points="1221.95,-186.939 1211.37,-187.587 1220.04,-193.675 1221.95,-186.939"/>
</g>
<!-- Node16 -->
<g id="node17" class="node"><title>Node16</title>
<polygon fill="white" stroke="#bfbfbf" points="1236,-168.5 1236,-187.5 1304,-187.5 1304,-168.5 1236,-168.5"/>
<text text-anchor="middle" x="1270" y="-175.5" font-family="Helvetica,sans-Serif" font-size="10.00">sys/types.h</text>
</g>
<!-- Node11&#45;&gt;Node16 -->
<g id="edge16" class="edge"><title>Node11&#45;&gt;Node16</title>
<path fill="none" stroke="midnightblue" d="M1355.61,-224.324C1339.33,-215.703 1314.13,-202.364 1295.28,-192.386"/>
<polygon fill="midnightblue" stroke="midnightblue" points="1296.82,-189.24 1286.35,-187.655 1293.55,-195.427 1296.82,-189.24"/>
</g>
<!-- Node17 -->
<g id="node18" class="node"><title>Node17</title>
<polygon fill="white" stroke="#bfbfbf" points="1322.5,-168.5 1322.5,-187.5 1369.5,-187.5 1369.5,-168.5 1322.5,-168.5"/>
<text text-anchor="middle" x="1346" y="-175.5" font-family="Helvetica,sans-Serif" font-size="10.00">net/if.h</text>
</g>
<!-- Node11&#45;&gt;Node17 -->
<g id="edge17" class="edge"><title>Node11&#45;&gt;Node17</title>
<path fill="none" stroke="midnightblue" d="M1367.71,-224.083C1364.15,-216.691 1358.98,-205.953 1354.58,-196.811"/>
<polygon fill="midnightblue" stroke="midnightblue" points="1357.71,-195.243 1350.21,-187.751 1351.4,-198.279 1357.71,-195.243"/>
</g>
<!-- Node18 -->
<g id="node19" class="node"><title>Node18</title>
<polygon fill="white" stroke="#bfbfbf" points="1387.5,-168.5 1387.5,-187.5 1452.5,-187.5 1452.5,-168.5 1387.5,-168.5"/>
<text text-anchor="middle" x="1420" y="-175.5" font-family="Helvetica,sans-Serif" font-size="10.00">netinet/in.h</text>
</g>
<!-- Node11&#45;&gt;Node18 -->
<g id="edge18" class="edge"><title>Node11&#45;&gt;Node18</title>
<path fill="none" stroke="midnightblue" d="M1379.93,-224.083C1386.85,-216.298 1397.07,-204.801 1405.45,-195.367"/>
<polygon fill="midnightblue" stroke="midnightblue" points="1408.19,-197.55 1412.22,-187.751 1402.96,-192.9 1408.19,-197.55"/>
</g>
<!-- Node19 -->
<g id="node20" class="node"><title>Node19</title>
<polygon fill="white" stroke="#bfbfbf" points="1470.5,-168.5 1470.5,-187.5 1541.5,-187.5 1541.5,-168.5 1470.5,-168.5"/>
<text text-anchor="middle" x="1506" y="-175.5" font-family="Helvetica,sans-Serif" font-size="10.00">netinet/tcp.h</text>
</g>
<!-- Node11&#45;&gt;Node19 -->
<g id="edge19" class="edge"><title>Node11&#45;&gt;Node19</title>
<path fill="none" stroke="midnightblue" d="M1393.23,-224.444C1415.38,-215.517 1450.32,-201.439 1475.44,-191.317"/>
<polygon fill="midnightblue" stroke="midnightblue" points="1476.9,-194.501 1484.87,-187.516 1474.28,-188.008 1476.9,-194.501"/>
</g>
<!-- Node20 -->
<g id="node21" class="node"><title>Node20</title>
<polygon fill="white" stroke="#bfbfbf" points="1560,-168.5 1560,-187.5 1622,-187.5 1622,-168.5 1560,-168.5"/>
<text text-anchor="middle" x="1591" y="-175.5" font-family="Helvetica,sans-Serif" font-size="10.00">arpa/inet.h</text>
</g>
<!-- Node11&#45;&gt;Node20 -->
<g id="edge20" class="edge"><title>Node11&#45;&gt;Node20</title>
<path fill="none" stroke="midnightblue" d="M1400.63,-225.94C1438.74,-216.545 1506.36,-199.87 1549.91,-189.133"/>
<polygon fill="midnightblue" stroke="midnightblue" points="1551.02,-192.464 1559.89,-186.671 1549.34,-185.667 1551.02,-192.464"/>
</g>
<!-- Node21 -->
<g id="node22" class="node"><title>Node21</title>
<polygon fill="white" stroke="#bfbfbf" points="1640,-168.5 1640,-187.5 1694,-187.5 1694,-168.5 1640,-168.5"/>
<text text-anchor="middle" x="1667" y="-175.5" font-family="Helvetica,sans-Serif" font-size="10.00">ifaddrs.h</text>
</g>
<!-- Node11&#45;&gt;Node21 -->
<g id="edge21" class="edge"><title>Node11&#45;&gt;Node21</title>
<path fill="none" stroke="midnightblue" d="M1400.75,-228.62C1448.53,-221.199 1547.21,-205.269 1630,-188 1630.1,-187.979 1630.2,-187.958 1630.3,-187.936"/>
<polygon fill="midnightblue" stroke="midnightblue" points="1630.96,-191.375 1639.97,-185.793 1629.45,-184.541 1630.96,-191.375"/>
</g>
<!-- Node22 -->
<g id="node23" class="node"><title>Node22</title>
<polygon fill="white" stroke="#bfbfbf" points="1712,-168.5 1712,-187.5 1760,-187.5 1760,-168.5 1712,-168.5"/>
<text text-anchor="middle" x="1736" y="-175.5" font-family="Helvetica,sans-Serif" font-size="10.00">limits.h</text>
</g>
<!-- Node11&#45;&gt;Node22 -->
<g id="edge22" class="edge"><title>Node11&#45;&gt;Node22</title>
<path fill="none" stroke="midnightblue" d="M1400.55,-230.392C1456.56,-225.004 1584.91,-211.319 1702.08,-187.948"/>
<polygon fill="midnightblue" stroke="midnightblue" points="1702.83,-191.368 1711.94,-185.954 1701.44,-184.507 1702.83,-191.368"/>
</g>
<!-- Node23 -->
<g id="node24" class="node"><title>Node23</title>
<polygon fill="white" stroke="#bfbfbf" points="1778.5,-168.5 1778.5,-187.5 1827.5,-187.5 1827.5,-168.5 1778.5,-168.5"/>
<text text-anchor="middle" x="1803" y="-175.5" font-family="Helvetica,sans-Serif" font-size="10.00">netdb.h</text>
</g>
<!-- Node11&#45;&gt;Node23 -->
<g id="edge23" class="edge"><title>Node11&#45;&gt;Node23</title>
<path fill="none" stroke="midnightblue" d="M1400.61,-231.195C1464.74,-226.844 1624.91,-214.277 1768.35,-187.852"/>
<polygon fill="midnightblue" stroke="midnightblue" points="1769.03,-191.287 1778.21,-186.008 1767.74,-184.406 1769.03,-191.287"/>
</g>
<!-- Node24 -->
<g id="node25" class="node"><title>Node24</title>
<polygon fill="white" stroke="#bfbfbf" points="751.5,-168.5 751.5,-187.5 802.5,-187.5 802.5,-168.5 751.5,-168.5"/>
<text text-anchor="middle" x="777" y="-175.5" font-family="Helvetica,sans-Serif" font-size="10.00">unistd.h</text>
</g>
<!-- Node11&#45;&gt;Node24 -->
<g id="edge24" class="edge"><title>Node11&#45;&gt;Node24</title>
<path fill="none" stroke="midnightblue" d="M1343.46,-225.712C1340.29,-225.058 1337.08,-224.468 1334,-224 1106.91,-189.529 1042.69,-224.95 812.528,-187.948"/>
<polygon fill="midnightblue" stroke="midnightblue" points="812.941,-184.469 802.507,-186.308 811.81,-191.377 812.941,-184.469"/>
</g>
<!-- Node25 -->
<g id="node26" class="node"><title>Node25</title>
<polygon fill="white" stroke="#bfbfbf" points="820.5,-168.5 820.5,-187.5 867.5,-187.5 867.5,-168.5 820.5,-168.5"/>
<text text-anchor="middle" x="844" y="-175.5" font-family="Helvetica,sans-Serif" font-size="10.00">errno.h</text>
</g>
<!-- Node11&#45;&gt;Node25 -->
<g id="edge25" class="edge"><title>Node11&#45;&gt;Node25</title>
<path fill="none" stroke="midnightblue" d="M1343.46,-225.743C1340.28,-225.083 1337.08,-224.483 1334,-224 1135.96,-192.938 1079.53,-221.99 877.707,-187.761"/>
<polygon fill="midnightblue" stroke="midnightblue" points="878.123,-184.281 867.673,-186.027 876.931,-191.179 878.123,-184.281"/>
</g>
<!-- Node26&#45;&gt;Node2 -->
<g id="edge29" class="edge"><title>Node26&#45;&gt;Node2</title>
<path fill="none" stroke="midnightblue" d="M1845.89,-169.731C1842.57,-169.055 1839.22,-168.455 1836,-168 1654.09,-142.333 1066.82,-127.061 925.7,-123.705"/>
<polygon fill="midnightblue" stroke="midnightblue" points="925.674,-120.203 915.594,-123.467 925.509,-127.201 925.674,-120.203"/>
</g>
<!-- Node26&#45;&gt;Node27 -->
<g id="edge28" class="edge"><title>Node26&#45;&gt;Node27</title>
<path fill="none" stroke="midnightblue" d="M1845.84,-170.014C1842.53,-169.288 1839.2,-168.598 1836,-168 1402.96,-87.0915 870.125,-29.0821 730.695,-14.5514"/>
<polygon fill="midnightblue" stroke="midnightblue" points="730.915,-11.0556 720.607,-13.5046 730.192,-18.0182 730.915,-11.0556"/>
</g>
<!-- Node28&#45;&gt;Node2 -->
<g id="edge56" class="edge"><title>Node28&#45;&gt;Node2</title>
<path fill="none" stroke="midnightblue" d="M508.44,-224.448C551.616,-211.575 636.367,-186.731 709,-168 777.482,-150.339 795.571,-149.866 864,-132 864.21,-131.945 864.421,-131.89 864.633,-131.834"/>
<polygon fill="midnightblue" stroke="midnightblue" points="865.651,-135.184 874.366,-129.16 863.796,-128.434 865.651,-135.184"/>
</g>
<!-- Node29 -->
<g id="node30" class="node"><title>Node29</title>
<g id="a_node30"><a xlink:href="serialize_8h.html" target="_top" xlink:title="serialize.h">
<polygon fill="white" stroke="black" points="438.5,-168.5 438.5,-187.5 499.5,-187.5 499.5,-168.5 438.5,-168.5"/>
<text text-anchor="middle" x="469" y="-175.5" font-family="Helvetica,sans-Serif" font-size="10.00">serialize.h</text>
</a>
</g>
</g>
<!-- Node28&#45;&gt;Node29 -->
<g id="edge31" class="edge"><title>Node28&#45;&gt;Node29</title>
<path fill="none" stroke="midnightblue" d="M478.184,-224.083C476.726,-216.927 474.629,-206.635 472.807,-197.691"/>
<polygon fill="midnightblue" stroke="midnightblue" points="476.208,-196.851 470.783,-187.751 469.349,-198.248 476.208,-196.851"/>
</g>
<!-- Node42 -->
<g id="node43" class="node"><title>Node42</title>
<polygon fill="white" stroke="#bfbfbf" points="192,-56.5 192,-75.5 240,-75.5 240,-56.5 192,-56.5"/>
<text text-anchor="middle" x="216" y="-63.5" font-family="Helvetica,sans-Serif" font-size="10.00">stdlib.h</text>
</g>
<!-- Node28&#45;&gt;Node42 -->
<g id="edge55" class="edge"><title>Node28&#45;&gt;Node42</title>
<path fill="none" stroke="midnightblue" d="M467.005,-224.359C445.713,-210.563 401.685,-183.537 361,-168 295.335,-142.924 250.681,-187.069 207,-132 196.518,-118.785 201.171,-99.1128 206.959,-84.8736"/>
<polygon fill="midnightblue" stroke="midnightblue" points="210.207,-86.1861 211.173,-75.6354 203.839,-83.2807 210.207,-86.1861"/>
</g>
<!-- Node29&#45;&gt;Node2 -->
<g id="edge45" class="edge"><title>Node29&#45;&gt;Node2</title>
<path fill="none" stroke="midnightblue" d="M499.584,-169.558C502.42,-168.985 505.258,-168.453 508,-168 664.901,-142.069 707.883,-162.295 864,-132 864.213,-131.959 864.427,-131.916 864.641,-131.873"/>
<polygon fill="midnightblue" stroke="midnightblue" points="865.537,-135.258 874.451,-129.532 863.911,-128.45 865.537,-135.258"/>
</g>
<!-- Node29&#45;&gt;Node3 -->
<g id="edge48" class="edge"><title>Node29&#45;&gt;Node3</title>
<path fill="none" stroke="midnightblue" d="M499.595,-169.619C502.428,-169.032 505.263,-168.482 508,-168 634.911,-145.677 671.811,-157.867 801.818,-131.942"/>
<polygon fill="midnightblue" stroke="midnightblue" points="802.653,-135.344 811.756,-129.923 801.26,-128.484 802.653,-135.344"/>
</g>
<!-- Node29&#45;&gt;Node5 -->
<g id="edge36" class="edge"><title>Node29&#45;&gt;Node5</title>
<path fill="none" stroke="midnightblue" d="M438.312,-172.581C370.289,-162.786 206.971,-139.268 132.357,-128.523"/>
<polygon fill="midnightblue" stroke="midnightblue" points="132.41,-124.995 122.013,-127.034 131.412,-131.924 132.41,-124.995"/>
</g>
<!-- Node29&#45;&gt;Node27 -->
<g id="edge44" class="edge"><title>Node29&#45;&gt;Node27</title>
<path fill="none" stroke="midnightblue" d="M499.737,-169.467C546.737,-157.848 631.627,-136.43 637,-132 669.506,-105.204 685.487,-56.1553 692.098,-29.4747"/>
<polygon fill="midnightblue" stroke="midnightblue" points="695.552,-30.0693 694.379,-19.5397 688.73,-28.503 695.552,-30.0693"/>
</g>
<!-- Node30 -->
<g id="node31" class="node"><title>Node30</title>
<g id="a_node31"><a xlink:href="endian_8h.html" target="_top" xlink:title="compat/endian.h">
<polygon fill="white" stroke="black" points="705.5,-112.5 705.5,-131.5 794.5,-131.5 794.5,-112.5 705.5,-112.5"/>
<text text-anchor="middle" x="750" y="-119.5" font-family="Helvetica,sans-Serif" font-size="10.00">compat/endian.h</text>
</a>
</g>
</g>
<!-- Node29&#45;&gt;Node30 -->
<g id="edge32" class="edge"><title>Node29&#45;&gt;Node30</title>
<path fill="none" stroke="midnightblue" d="M499.629,-169.801C502.456,-169.176 505.279,-168.567 508,-168 572.056,-154.66 646.054,-141.18 695.19,-132.499"/>
<polygon fill="midnightblue" stroke="midnightblue" points="696.043,-135.903 705.285,-130.722 694.829,-129.009 696.043,-135.903"/>
</g>
<!-- Node29&#45;&gt;Node32 -->
<g id="edge37" class="edge"><title>Node29&#45;&gt;Node32</title>
<path fill="none" stroke="midnightblue" d="M438.181,-174.24C377.816,-168.427 246.448,-153.649 207,-132 186.421,-120.706 169.246,-99.4713 158.83,-84.3469"/>
<polygon fill="midnightblue" stroke="midnightblue" points="161.668,-82.2928 153.247,-75.8629 155.82,-86.1406 161.668,-82.2928"/>
</g>
<!-- Node33 -->
<g id="node34" class="node"><title>Node33</title>
<polygon fill="white" stroke="#bfbfbf" points="299.5,-112.5 299.5,-131.5 328.5,-131.5 328.5,-112.5 299.5,-112.5"/>
<text text-anchor="middle" x="314" y="-119.5" font-family="Helvetica,sans-Serif" font-size="10.00">ios</text>
</g>
<!-- Node29&#45;&gt;Node33 -->
<g id="edge38" class="edge"><title>Node29&#45;&gt;Node33</title>
<path fill="none" stroke="midnightblue" d="M443.322,-168.415C418.718,-160.138 380.324,-147.089 338.294,-132.035"/>
<polygon fill="midnightblue" stroke="midnightblue" points="339.294,-128.675 328.699,-128.586 336.926,-135.263 339.294,-128.675"/>
</g>
<!-- Node34 -->
<g id="node35" class="node"><title>Node34</title>
<polygon fill="white" stroke="#bfbfbf" points="347,-112.5 347,-131.5 387,-131.5 387,-112.5 347,-112.5"/>
<text text-anchor="middle" x="367" y="-119.5" font-family="Helvetica,sans-Serif" font-size="10.00">limits</text>
</g>
<!-- Node29&#45;&gt;Node34 -->
<g id="edge39" class="edge"><title>Node29&#45;&gt;Node34</title>
<path fill="none" stroke="midnightblue" d="M452.612,-168.324C436.329,-159.703 411.133,-146.364 392.284,-136.386"/>
<polygon fill="midnightblue" stroke="midnightblue" points="393.823,-133.24 383.347,-131.655 390.548,-139.427 393.823,-133.24"/>
</g>
<!-- Node35 -->
<g id="node36" class="node"><title>Node35</title>
<polygon fill="white" stroke="#bfbfbf" points="405.5,-112.5 405.5,-131.5 434.5,-131.5 434.5,-112.5 405.5,-112.5"/>
<text text-anchor="middle" x="420" y="-119.5" font-family="Helvetica,sans-Serif" font-size="10.00">list</text>
</g>
<!-- Node29&#45;&gt;Node35 -->
<g id="edge40" class="edge"><title>Node29&#45;&gt;Node35</title>
<path fill="none" stroke="midnightblue" d="M460.909,-168.083C453.845,-160.298 443.412,-148.801 434.851,-139.367"/>
<polygon fill="midnightblue" stroke="midnightblue" points="437.253,-136.805 427.941,-131.751 432.069,-141.509 437.253,-136.805"/>
</g>
<!-- Node29&#45;&gt;Node36 -->
<g id="edge41" class="edge"><title>Node29&#45;&gt;Node36</title>
<path fill="none" stroke="midnightblue" d="M499.562,-169.413C502.403,-168.869 505.247,-168.385 508,-168 678.592,-144.148 1229.6,-127.469 1360.78,-123.773"/>
<polygon fill="midnightblue" stroke="midnightblue" points="1361.26,-127.261 1371.16,-123.483 1361.07,-120.264 1361.26,-127.261"/>
</g>
<!-- Node37 -->
<g id="node38" class="node"><title>Node37</title>
<polygon fill="white" stroke="#bfbfbf" points="453,-112.5 453,-131.5 505,-131.5 505,-112.5 453,-112.5"/>
<text text-anchor="middle" x="479" y="-119.5" font-family="Helvetica,sans-Serif" font-size="10.00">memory</text>
</g>
<!-- Node29&#45;&gt;Node37 -->
<g id="edge42" class="edge"><title>Node29&#45;&gt;Node37</title>
<path fill="none" stroke="midnightblue" d="M470.651,-168.083C471.976,-160.927 473.882,-150.635 475.539,-141.691"/>
<polygon fill="midnightblue" stroke="midnightblue" points="479,-142.221 477.379,-131.751 472.117,-140.947 479,-142.221"/>
</g>
<!-- Node38 -->
<g id="node39" class="node"><title>Node38</title>
<polygon fill="white" stroke="#bfbfbf" points="523,-112.5 523,-131.5 553,-131.5 553,-112.5 523,-112.5"/>
<text text-anchor="middle" x="538" y="-119.5" font-family="Helvetica,sans-Serif" font-size="10.00">set</text>
</g>
<!-- Node29&#45;&gt;Node38 -->
<g id="edge43" class="edge"><title>Node29&#45;&gt;Node38</title>
<path fill="none" stroke="midnightblue" d="M480.086,-168.324C490.486,-160.185 506.261,-147.839 518.722,-138.087"/>
<polygon fill="midnightblue" stroke="midnightblue" points="520.994,-140.753 526.712,-131.834 516.68,-135.241 520.994,-140.753"/>
</g>
<!-- Node39 -->
<g id="node40" class="node"><title>Node39</title>
<polygon fill="white" stroke="#bfbfbf" points="532.5,-56.5 532.5,-75.5 581.5,-75.5 581.5,-56.5 532.5,-56.5"/>
<text text-anchor="middle" x="557" y="-63.5" font-family="Helvetica,sans-Serif" font-size="10.00">string.h</text>
</g>
<!-- Node29&#45;&gt;Node39 -->
<g id="edge46" class="edge"><title>Node29&#45;&gt;Node39</title>
<path fill="none" stroke="midnightblue" d="M499.779,-169.899C541.774,-159.905 612.684,-141.814 620,-132 634.529,-112.51 608.497,-92.8408 585.618,-80.3254"/>
<polygon fill="midnightblue" stroke="midnightblue" points="586.944,-77.0707 576.455,-75.5789 583.724,-83.2863 586.944,-77.0707"/>
</g>
<!-- Node40 -->
<g id="node41" class="node"><title>Node40</title>
<polygon fill="white" stroke="#bfbfbf" points="571,-112.5 571,-131.5 611,-131.5 611,-112.5 571,-112.5"/>
<text text-anchor="middle" x="591" y="-119.5" font-family="Helvetica,sans-Serif" font-size="10.00">utility</text>
</g>
<!-- Node29&#45;&gt;Node40 -->
<g id="edge47" class="edge"><title>Node29&#45;&gt;Node40</title>
<path fill="none" stroke="midnightblue" d="M488.331,-168.444C508.32,-159.596 539.743,-145.687 562.564,-135.586"/>
<polygon fill="midnightblue" stroke="midnightblue" points="564.032,-138.764 571.759,-131.516 561.198,-132.363 564.032,-138.764"/>
</g>
<!-- Node41 -->
<g id="node42" class="node"><title>Node41</title>
<g id="a_node42"><a xlink:href="prevector_8h.html" target="_top" xlink:title="prevector.h">
<polygon fill="white" stroke="black" points="216.5,-112.5 216.5,-131.5 281.5,-131.5 281.5,-112.5 216.5,-112.5"/>
<text text-anchor="middle" x="249" y="-119.5" font-family="Helvetica,sans-Serif" font-size="10.00">prevector.h</text>
</a>
</g>
</g>
<!-- Node29&#45;&gt;Node41 -->
<g id="edge49" class="edge"><title>Node29&#45;&gt;Node41</title>
<path fill="none" stroke="midnightblue" d="M438.41,-169.492C400.263,-160.128 334.834,-144.068 291.746,-133.492"/>
<polygon fill="midnightblue" stroke="midnightblue" points="292.386,-130.045 281.84,-131.061 290.717,-136.844 292.386,-130.045"/>
</g>
<!-- Node30&#45;&gt;Node27 -->
<g id="edge33" class="edge"><title>Node30&#45;&gt;Node27</title>
<path fill="none" stroke="midnightblue" d="M745.763,-112.368C736.93,-94.376 716.397,-52.5503 704.653,-28.6267"/>
<polygon fill="midnightblue" stroke="midnightblue" points="707.766,-27.0257 700.218,-19.5914 701.483,-30.1105 707.766,-27.0257"/>
</g>
<!-- Node31 -->
<g id="node32" class="node"><title>Node31</title>
<g id="a_node32"><a xlink:href="byteswap_8h.html" target="_top" xlink:title="compat/byteswap.h">
<polygon fill="white" stroke="black" points="743,-56.5 743,-75.5 845,-75.5 845,-56.5 743,-56.5"/>
<text text-anchor="middle" x="794" y="-63.5" font-family="Helvetica,sans-Serif" font-size="10.00">compat/byteswap.h</text>
</a>
</g>
</g>
<!-- Node30&#45;&gt;Node31 -->
<g id="edge34" class="edge"><title>Node30&#45;&gt;Node31</title>
<path fill="none" stroke="midnightblue" d="M757.266,-112.083C763.545,-104.377 772.788,-93.0333 780.431,-83.6531"/>
<polygon fill="midnightblue" stroke="midnightblue" points="783.266,-85.7143 786.869,-75.7511 777.839,-81.2926 783.266,-85.7143"/>
</g>
<!-- Node31&#45;&gt;Node27 -->
<g id="edge35" class="edge"><title>Node31&#45;&gt;Node27</title>
<path fill="none" stroke="midnightblue" d="M778.255,-56.324C762.681,-47.7428 738.623,-34.486 720.541,-24.5224"/>
<polygon fill="midnightblue" stroke="midnightblue" points="722.154,-21.4152 711.706,-19.6545 718.776,-27.546 722.154,-21.4152"/>
</g>
<!-- Node41&#45;&gt;Node27 -->
<g id="edge52" class="edge"><title>Node41&#45;&gt;Node27</title>
<path fill="none" stroke="midnightblue" d="M281.507,-113C363.376,-92.8538 577.492,-40.1631 661.482,-19.4945"/>
<polygon fill="midnightblue" stroke="midnightblue" points="662.419,-22.8683 671.293,-17.0801 660.746,-16.0711 662.419,-22.8683"/>
</g>
<!-- Node41&#45;&gt;Node32 -->
<g id="edge50" class="edge"><title>Node41&#45;&gt;Node32</title>
<path fill="none" stroke="midnightblue" d="M232.773,-112.324C216.649,-103.703 191.7,-90.3643 173.036,-80.3855"/>
<polygon fill="midnightblue" stroke="midnightblue" points="174.656,-77.283 164.187,-75.6545 171.356,-83.456 174.656,-77.283"/>
</g>
<!-- Node41&#45;&gt;Node39 -->
<g id="edge53" class="edge"><title>Node41&#45;&gt;Node39</title>
<path fill="none" stroke="midnightblue" d="M281.644,-113.683C284.466,-113.096 287.281,-112.527 290,-112 372.936,-95.9183 471.013,-80.2385 522.098,-72.3219"/>
<polygon fill="midnightblue" stroke="midnightblue" points="522.915,-75.7375 532.264,-70.7531 521.847,-68.8194 522.915,-75.7375"/>
</g>
<!-- Node41&#45;&gt;Node42 -->
<g id="edge51" class="edge"><title>Node41&#45;&gt;Node42</title>
<path fill="none" stroke="midnightblue" d="M243.551,-112.083C238.986,-104.613 232.332,-93.7244 226.707,-84.5199"/>
<polygon fill="midnightblue" stroke="midnightblue" points="229.549,-82.4588 221.348,-75.7511 223.576,-86.109 229.549,-82.4588"/>
</g>
<!-- Node43 -->
<g id="node44" class="node"><title>Node43</title>
<polygon fill="white" stroke="#bfbfbf" points="258.5,-56.5 258.5,-75.5 305.5,-75.5 305.5,-56.5 258.5,-56.5"/>
<text text-anchor="middle" x="282" y="-63.5" font-family="Helvetica,sans-Serif" font-size="10.00">iterator</text>
</g>
<!-- Node41&#45;&gt;Node43 -->
<g id="edge54" class="edge"><title>Node41&#45;&gt;Node43</title>
<path fill="none" stroke="midnightblue" d="M254.449,-112.083C259.014,-104.613 265.668,-93.7244 271.293,-84.5199"/>
<polygon fill="midnightblue" stroke="midnightblue" points="274.424,-86.109 276.652,-75.7511 268.451,-82.4588 274.424,-86.109"/>
</g>
</g>
</svg>
        <g id="navigator" transform="translate(0 0)" fill="#404254">
                <rect fill="#f2f5e9" fill-opacity="0.5" stroke="#606060" stroke-width=".5" x="0" y="0" width="60" height="60"/>
                <use id="zoomplus" xlink:href="#zoomPlus" x="17" y="9" onmousedown="handleZoom(evt,'in')"/>
                <use id="zoomminus" xlink:href="#zoomMin" x="42" y="9" onmousedown="handleZoom(evt,'out')"/>
                <use id="reset" xlink:href="#resetDef" x="30" y="36" onmousedown="handleReset()"/>
                <g id="arrowUp" xlink:href="#dirArrow" transform="translate(30 24)" onmousedown="handlePan(0,-1)">
                  <use xlink:href="#rim" fill="#404040">
                        <set attributeName="fill" to="#808080" begin="arrowUp.mouseover" end="arrowUp.mouseout"/>
                  </use>
                  <path fill="none" stroke="white" stroke-width="1.5" d="M0,-3.0v7 M-2.5,-0.5L0,-3.0L2.5,-0.5"/>
                </g>
                <g id="arrowRight" xlink:href="#dirArrow" transform="rotate(90) translate(36 -43)" onmousedown="handlePan(1,0)">
                  <use xlink:href="#rim" fill="#404040">
                        <set attributeName="fill" to="#808080" begin="arrowRight.mouseover" end="arrowRight.mouseout"/>
                  </use>
                  <path fill="none" stroke="white" stroke-width="1.5" d="M0,-3.0v7 M-2.5,-0.5L0,-3.0L2.5,-0.5"/>
                </g>
                <g id="arrowDown" xlink:href="#dirArrow" transform="rotate(180) translate(-30 -48)" onmousedown="handlePan(0,1)">
                  <use xlink:href="#rim" fill="#404040">
                        <set attributeName="fill" to="#808080" begin="arrowDown.mouseover" end="arrowDown.mouseout"/>
                  </use>
                  <path fill="none" stroke="white" stroke-width="1.5" d="M0,-3.0v7 M-2.5,-0.5L0,-3.0L2.5,-0.5"/>
                </g>
                <g id="arrowLeft" xlink:href="#dirArrow" transform="rotate(270) translate(-36 17)" onmousedown="handlePan(-1,0)">
                  <use xlink:href="#rim" fill="#404040">
                        <set attributeName="fill" to="#808080" begin="arrowLeft.mouseover" end="arrowLeft.mouseout"/>
                  </use>
                  <path fill="none" stroke="white" stroke-width="1.5" d="M0,-3.0v7 M-2.5,-0.5L0,-3.0L2.5,-0.5"/>
                </g>
        </g>
        <svg viewBox="0 0 15 15" width="100%" height="30px" preserveAspectRatio="xMaxYMin meet">
         <g id="arrow_out" transform="scale(0.3 0.3)">
          <a xlink:href="chainparamsbase_8cpp__incl_org.svg" target="_base">
           <rect id="button" ry="5" rx="5" y="6" x="6" height="38" width="38"
                fill="#f2f5e9" fill-opacity="0.5" stroke="#606060" stroke-width="1.0"/>
           <path id="arrow"
             d="M 11.500037,31.436501 C 11.940474,20.09759 22.043105,11.32322 32.158766,21.979434 L 37.068811,17.246167 C 37.068811,17.246167 37.088388,32 37.088388,32 L 22.160133,31.978069 C 22.160133,31.978069 26.997745,27.140456 26.997745,27.140456 C 18.528582,18.264221 13.291696,25.230495 11.500037,31.436501 z"
             style="fill:#404040;"/>
          </a>
         </g>
        </svg>
</svg>
