<?xml version="1.0" encoding="UTF-8" standalone="no"?>
<!DOCTYPE svg PUBLIC "-//W3C//DTD SVG 1.1//EN"
 "http://www.w3.org/Graphics/SVG/1.1/DTD/svg11.dtd">
<!-- Generated by graphviz version 2.36.0 (20140111.2315)
 -->
<!-- Title: src/immer/detail/hamts/champ.hpp Pages: 1 -->
<svg width="579pt" height="232pt"
 viewBox="0.00 0.00 579.00 232.00" xmlns="http://www.w3.org/2000/svg" xmlns:xlink="http://www.w3.org/1999/xlink">
<g id="graph0" class="graph" transform="scale(1 1) rotate(0) translate(4 228)">
<title>src/immer/detail/hamts/champ.hpp</title>
<polygon fill="white" stroke="none" points="-4,4 -4,-228 575,-228 575,4 -4,4"/>
<!-- Node0 -->
<g id="node1" class="node"><title>Node0</title>
<polygon fill="#bfbfbf" stroke="black" points="272,-193 272,-223 388,-223 388,-193 272,-193"/>
<text text-anchor="start" x="280" y="-211" font-family="Helvetica,sans-Serif" font-size="10.00">src/immer/detail/hamts</text>
<text text-anchor="middle" x="330" y="-200" font-family="Helvetica,sans-Serif" font-size="10.00">/champ.hpp</text>
</g>
<!-- Node1 -->
<g id="node2" class="node"><title>Node1</title>
<g id="a_node2"><a xlink:href="config_8hpp.html" target="_top" xlink:title="immer/config.hpp">
<polygon fill="white" stroke="black" points="0,-0.5 0,-19.5 92,-19.5 92,-0.5 0,-0.5"/>
<text text-anchor="middle" x="46" y="-7.5" font-family="Helvetica,sans-Serif" font-size="10.00">immer/config.hpp</text>
</a>
</g>
</g>
<!-- Node0&#45;&gt;Node1 -->
<g id="edge1" class="edge"><title>Node0&#45;&gt;Node1</title>
<path fill="none" stroke="midnightblue" d="M306.324,-192.868C270.511,-171.266 200.726,-128.289 144,-88 115.264,-67.5907 83.4191,-41.9783 64.0564,-26.0478"/>
<polygon fill="midnightblue" stroke="midnightblue" points="66.2679,-23.3349 56.3309,-19.6598 61.8072,-28.7296 66.2679,-23.3349"/>
</g>
<!-- Node2 -->
<g id="node3" class="node"><title>Node2</title>
<g id="a_node3"><a xlink:href="hamts_2node_8hpp.html" target="_top" xlink:title="immer/detail/hamts\l/node.hpp">
<polygon fill="white" stroke="black" points="280,-125 280,-155 380,-155 380,-125 280,-125"/>
<text text-anchor="start" x="288" y="-143" font-family="Helvetica,sans-Serif" font-size="10.00">immer/detail/hamts</text>
<text text-anchor="middle" x="330" y="-132" font-family="Helvetica,sans-Serif" font-size="10.00">/node.hpp</text>
</a>
</g>
</g>
<!-- Node0&#45;&gt;Node2 -->
<g id="edge2" class="edge"><title>Node0&#45;&gt;Node2</title>
<path fill="none" stroke="midnightblue" d="M330,-192.679C330,-184.722 330,-174.605 330,-165.436"/>
<polygon fill="midnightblue" stroke="midnightblue" points="333.5,-165.293 330,-155.293 326.5,-165.293 333.5,-165.293"/>
</g>
<!-- Node12 -->
<g id="node13" class="node"><title>Node12</title>
<polygon fill="white" stroke="#bfbfbf" points="398,-130.5 398,-149.5 454,-149.5 454,-130.5 398,-130.5"/>
<text text-anchor="middle" x="426" y="-137.5" font-family="Helvetica,sans-Serif" font-size="10.00">algorithm</text>
</g>
<!-- Node0&#45;&gt;Node12 -->
<g id="edge14" class="edge"><title>Node0&#45;&gt;Node12</title>
<path fill="none" stroke="midnightblue" d="M350.831,-192.679C366.78,-181.713 388.698,-166.645 404.751,-155.609"/>
<polygon fill="midnightblue" stroke="midnightblue" points="407.178,-158.187 413.436,-149.638 403.213,-152.419 407.178,-158.187"/>
</g>
<!-- Node3 -->
<g id="node4" class="node"><title>Node3</title>
<g id="a_node4"><a xlink:href="combine__standard__layout_8hpp.html" target="_top" xlink:title="immer/detail/combine\l_standard_layout.hpp">
<polygon fill="white" stroke="black" points="275,-57 275,-87 385,-87 385,-57 275,-57"/>
<text text-anchor="start" x="283" y="-75" font-family="Helvetica,sans-Serif" font-size="10.00">immer/detail/combine</text>
<text text-anchor="middle" x="330" y="-64" font-family="Helvetica,sans-Serif" font-size="10.00">_standard_layout.hpp</text>
</a>
</g>
</g>
<!-- Node2&#45;&gt;Node3 -->
<g id="edge3" class="edge"><title>Node2&#45;&gt;Node3</title>
<path fill="none" stroke="midnightblue" d="M330,-124.679C330,-116.722 330,-106.605 330,-97.4356"/>
<polygon fill="midnightblue" stroke="midnightblue" points="333.5,-97.293 330,-87.2931 326.5,-97.2931 333.5,-97.293"/>
</g>
<!-- Node5 -->
<g id="node6" class="node"><title>Node5</title>
<g id="a_node6"><a xlink:href="util_8hpp.html" target="_top" xlink:title="immer/detail/util.hpp">
<polygon fill="white" stroke="black" points="153,-62.5 153,-81.5 257,-81.5 257,-62.5 153,-62.5"/>
<text text-anchor="middle" x="205" y="-69.5" font-family="Helvetica,sans-Serif" font-size="10.00">immer/detail/util.hpp</text>
</a>
</g>
</g>
<!-- Node2&#45;&gt;Node5 -->
<g id="edge5" class="edge"><title>Node2&#45;&gt;Node5</title>
<path fill="none" stroke="midnightblue" d="M303.184,-124.841C281.66,-113.476 251.644,-97.628 230.481,-86.454"/>
<polygon fill="midnightblue" stroke="midnightblue" points="231.92,-83.256 221.443,-81.6819 228.652,-89.4461 231.92,-83.256"/>
</g>
<!-- Node9 -->
<g id="node10" class="node"><title>Node9</title>
<g id="a_node10"><a xlink:href="hamts_2bits_8hpp.html" target="_top" xlink:title="immer/detail/hamts\l/bits.hpp">
<polygon fill="white" stroke="black" points="471,-57 471,-87 571,-87 571,-57 471,-57"/>
<text text-anchor="start" x="479" y="-75" font-family="Helvetica,sans-Serif" font-size="10.00">immer/detail/hamts</text>
<text text-anchor="middle" x="521" y="-64" font-family="Helvetica,sans-Serif" font-size="10.00">/bits.hpp</text>
</a>
</g>
</g>
<!-- Node2&#45;&gt;Node9 -->
<g id="edge11" class="edge"><title>Node2&#45;&gt;Node9</title>
<path fill="none" stroke="midnightblue" d="M370.974,-124.841C400.152,-114.759 439.543,-101.147 470.64,-90.4018"/>
<polygon fill="midnightblue" stroke="midnightblue" points="472.113,-93.596 480.422,-87.0218 469.827,-86.9798 472.113,-93.596"/>
</g>
<!-- Node11 -->
<g id="node12" class="node"><title>Node11</title>
<polygon fill="white" stroke="#bfbfbf" points="403.5,-62.5 403.5,-81.5 452.5,-81.5 452.5,-62.5 403.5,-62.5"/>
<text text-anchor="middle" x="428" y="-69.5" font-family="Helvetica,sans-Serif" font-size="10.00">cassert</text>
</g>
<!-- Node2&#45;&gt;Node11 -->
<g id="edge13" class="edge"><title>Node2&#45;&gt;Node11</title>
<path fill="none" stroke="midnightblue" d="M351.265,-124.679C367.699,-113.611 390.34,-98.363 406.766,-87.3002"/>
<polygon fill="midnightblue" stroke="midnightblue" points="408.835,-90.127 415.174,-81.6379 404.925,-84.3209 408.835,-90.127"/>
</g>
<!-- Node4 -->
<g id="node5" class="node"><title>Node4</title>
<polygon fill="white" stroke="#bfbfbf" points="301,-0.5 301,-19.5 363,-19.5 363,-0.5 301,-0.5"/>
<text text-anchor="middle" x="332" y="-7.5" font-family="Helvetica,sans-Serif" font-size="10.00">type_traits</text>
</g>
<!-- Node3&#45;&gt;Node4 -->
<g id="edge4" class="edge"><title>Node3&#45;&gt;Node4</title>
<path fill="none" stroke="midnightblue" d="M330.474,-56.7808C330.744,-48.6913 331.085,-38.4617 331.376,-29.725"/>
<polygon fill="midnightblue" stroke="midnightblue" points="334.874,-29.8416 331.709,-19.7305 327.878,-29.6083 334.874,-29.8416"/>
</g>
<!-- Node5&#45;&gt;Node1 -->
<g id="edge6" class="edge"><title>Node5&#45;&gt;Node1</title>
<path fill="none" stroke="midnightblue" d="M182.219,-62.4035C154.945,-52.1113 109.087,-34.8064 78.1986,-23.1504"/>
<polygon fill="midnightblue" stroke="midnightblue" points="79.3303,-19.8366 68.7386,-19.5806 76.8589,-26.3858 79.3303,-19.8366"/>
</g>
<!-- Node5&#45;&gt;Node4 -->
<g id="edge9" class="edge"><title>Node5&#45;&gt;Node4</title>
<path fill="none" stroke="midnightblue" d="M223.196,-62.4035C244.509,-52.3341 280.031,-35.5522 304.663,-23.9151"/>
<polygon fill="midnightblue" stroke="midnightblue" points="306.291,-27.0169 313.838,-19.5806 303.301,-20.6877 306.291,-27.0169"/>
</g>
<!-- Node6 -->
<g id="node7" class="node"><title>Node6</title>
<polygon fill="white" stroke="#bfbfbf" points="180.5,-0.5 180.5,-19.5 229.5,-19.5 229.5,-0.5 180.5,-0.5"/>
<text text-anchor="middle" x="205" y="-7.5" font-family="Helvetica,sans-Serif" font-size="10.00">cstddef</text>
</g>
<!-- Node5&#45;&gt;Node6 -->
<g id="edge7" class="edge"><title>Node5&#45;&gt;Node6</title>
<path fill="none" stroke="midnightblue" d="M205,-62.4035C205,-53.9381 205,-40.7283 205,-29.8199"/>
<polygon fill="midnightblue" stroke="midnightblue" points="208.5,-29.5806 205,-19.5806 201.5,-29.5806 208.5,-29.5806"/>
</g>
<!-- Node7 -->
<g id="node8" class="node"><title>Node7</title>
<polygon fill="white" stroke="#bfbfbf" points="247.5,-0.5 247.5,-19.5 282.5,-19.5 282.5,-0.5 247.5,-0.5"/>
<text text-anchor="middle" x="265" y="-7.5" font-family="Helvetica,sans-Serif" font-size="10.00">new</text>
</g>
<!-- Node5&#45;&gt;Node7 -->
<g id="edge8" class="edge"><title>Node5&#45;&gt;Node7</title>
<path fill="none" stroke="midnightblue" d="M213.597,-62.4035C222.864,-53.1361 237.817,-38.1828 249.212,-26.7876"/>
<polygon fill="midnightblue" stroke="midnightblue" points="251.823,-29.1266 256.419,-19.5806 246.873,-24.1768 251.823,-29.1266"/>
</g>
<!-- Node8 -->
<g id="node9" class="node"><title>Node8</title>
<polygon fill="white" stroke="#bfbfbf" points="110,-0.5 110,-19.5 162,-19.5 162,-0.5 110,-0.5"/>
<text text-anchor="middle" x="136" y="-7.5" font-family="Helvetica,sans-Serif" font-size="10.00">memory</text>
</g>
<!-- Node5&#45;&gt;Node8 -->
<g id="edge10" class="edge"><title>Node5&#45;&gt;Node8</title>
<path fill="none" stroke="midnightblue" d="M195.114,-62.4035C184.354,-53.047 166.929,-37.8948 153.779,-26.4599"/>
<polygon fill="midnightblue" stroke="midnightblue" points="155.71,-23.5013 145.868,-19.5806 151.117,-28.7835 155.71,-23.5013"/>
</g>
<!-- Node10 -->
<g id="node11" class="node"><title>Node10</title>
<polygon fill="white" stroke="#bfbfbf" points="498,-0.5 498,-19.5 544,-19.5 544,-0.5 498,-0.5"/>
<text text-anchor="middle" x="521" y="-7.5" font-family="Helvetica,sans-Serif" font-size="10.00">cstdint</text>
</g>
<!-- Node9&#45;&gt;Node10 -->
<g id="edge12" class="edge"><title>Node9&#45;&gt;Node10</title>
<path fill="none" stroke="midnightblue" d="M521,-56.7808C521,-48.7812 521,-38.6887 521,-30.0168"/>
<polygon fill="midnightblue" stroke="midnightblue" points="524.5,-29.7305 521,-19.7305 517.5,-29.7306 524.5,-29.7305"/>
</g>
</g>
</svg>
