<?xml version="1.0" encoding="UTF-8" standalone="no"?>
<!DOCTYPE svg PUBLIC "-//W3C//DTD SVG 1.1//EN"
 "http://www.w3.org/Graphics/SVG/1.1/DTD/svg11.dtd">
<!-- Generated by graphviz version 2.36.0 (20140111.2315)
 -->
<!-- Title: src/immer/detail/hamts/champ_iterator.hpp Pages: 1 -->
<svg width="629pt" height="300pt"
 viewBox="0.00 0.00 629.00 300.00" xmlns="http://www.w3.org/2000/svg" xmlns:xlink="http://www.w3.org/1999/xlink">
<g id="graph0" class="graph" transform="scale(1 1) rotate(0) translate(4 296)">
<title>src/immer/detail/hamts/champ_iterator.hpp</title>
<polygon fill="white" stroke="none" points="-4,4 -4,-296 625,-296 625,4 -4,4"/>
<!-- Node0 -->
<g id="node1" class="node"><title>Node0</title>
<polygon fill="#bfbfbf" stroke="black" points="312,-261 312,-291 428,-291 428,-261 312,-261"/>
<text text-anchor="start" x="320" y="-279" font-family="Helvetica,sans-Serif" font-size="10.00">src/immer/detail/hamts</text>
<text text-anchor="middle" x="370" y="-268" font-family="Helvetica,sans-Serif" font-size="10.00">/champ_iterator.hpp</text>
</g>
<!-- Node1 -->
<g id="node2" class="node"><title>Node1</title>
<g id="a_node2"><a xlink:href="champ_8hpp.html" target="_top" xlink:title="immer/detail/hamts\l/champ.hpp">
<polygon fill="white" stroke="black" points="244,-193 244,-223 344,-223 344,-193 244,-193"/>
<text text-anchor="start" x="252" y="-211" font-family="Helvetica,sans-Serif" font-size="10.00">immer/detail/hamts</text>
<text text-anchor="middle" x="294" y="-200" font-family="Helvetica,sans-Serif" font-size="10.00">/champ.hpp</text>
</a>
</g>
</g>
<!-- Node0&#45;&gt;Node1 -->
<g id="edge1" class="edge"><title>Node0&#45;&gt;Node1</title>
<path fill="none" stroke="midnightblue" d="M353.509,-260.679C343.081,-251.623 329.43,-239.768 317.833,-229.697"/>
<polygon fill="midnightblue" stroke="midnightblue" points="320.043,-226.981 310.198,-223.066 315.453,-232.266 320.043,-226.981"/>
</g>
<!-- Node14 -->
<g id="node15" class="node"><title>Node14</title>
<g id="a_node15"><a xlink:href="iterator__facade_8hpp.html" target="_top" xlink:title="immer/detail/iterator\l_facade.hpp">
<polygon fill="white" stroke="black" points="399.5,-57 399.5,-87 502.5,-87 502.5,-57 399.5,-57"/>
<text text-anchor="start" x="407.5" y="-75" font-family="Helvetica,sans-Serif" font-size="10.00">immer/detail/iterator</text>
<text text-anchor="middle" x="451" y="-64" font-family="Helvetica,sans-Serif" font-size="10.00">_facade.hpp</text>
</a>
</g>
</g>
<!-- Node0&#45;&gt;Node14 -->
<g id="edge16" class="edge"><title>Node0&#45;&gt;Node14</title>
<path fill="none" stroke="midnightblue" d="M375.696,-260.796C389.435,-226.532 424.515,-139.048 441.5,-96.6905"/>
<polygon fill="midnightblue" stroke="midnightblue" points="444.837,-97.7728 445.311,-87.1886 438.34,-95.1675 444.837,-97.7728"/>
</g>
<!-- Node2 -->
<g id="node3" class="node"><title>Node2</title>
<g id="a_node3"><a xlink:href="config_8hpp.html" target="_top" xlink:title="immer/config.hpp">
<polygon fill="white" stroke="black" points="0,-0.5 0,-19.5 92,-19.5 92,-0.5 0,-0.5"/>
<text text-anchor="middle" x="46" y="-7.5" font-family="Helvetica,sans-Serif" font-size="10.00">immer/config.hpp</text>
</a>
</g>
</g>
<!-- Node1&#45;&gt;Node2 -->
<g id="edge2" class="edge"><title>Node1&#45;&gt;Node2</title>
<path fill="none" stroke="midnightblue" d="M244.231,-192.908C193.662,-176.067 116.612,-143.031 72,-88 58.2832,-71.0799 51.6549,-46.5659 48.554,-29.7696"/>
<polygon fill="midnightblue" stroke="midnightblue" points="51.9576,-28.8868 46.927,-19.5625 45.0449,-29.9888 51.9576,-28.8868"/>
</g>
<!-- Node3 -->
<g id="node4" class="node"><title>Node3</title>
<g id="a_node4"><a xlink:href="hamts_2node_8hpp.html" target="_top" xlink:title="immer/detail/hamts\l/node.hpp">
<polygon fill="white" stroke="black" points="196,-125 196,-155 296,-155 296,-125 196,-125"/>
<text text-anchor="start" x="204" y="-143" font-family="Helvetica,sans-Serif" font-size="10.00">immer/detail/hamts</text>
<text text-anchor="middle" x="246" y="-132" font-family="Helvetica,sans-Serif" font-size="10.00">/node.hpp</text>
</a>
</g>
</g>
<!-- Node1&#45;&gt;Node3 -->
<g id="edge3" class="edge"><title>Node1&#45;&gt;Node3</title>
<path fill="none" stroke="midnightblue" d="M283.585,-192.679C277.421,-184.203 269.474,-173.276 262.476,-163.655"/>
<polygon fill="midnightblue" stroke="midnightblue" points="265.107,-161.322 256.395,-155.293 259.446,-165.439 265.107,-161.322"/>
</g>
<!-- Node13 -->
<g id="node14" class="node"><title>Node13</title>
<polygon fill="white" stroke="#bfbfbf" points="314,-130.5 314,-149.5 370,-149.5 370,-130.5 314,-130.5"/>
<text text-anchor="middle" x="342" y="-137.5" font-family="Helvetica,sans-Serif" font-size="10.00">algorithm</text>
</g>
<!-- Node1&#45;&gt;Node13 -->
<g id="edge15" class="edge"><title>Node1&#45;&gt;Node13</title>
<path fill="none" stroke="midnightblue" d="M304.415,-192.679C311.825,-182.49 321.812,-168.759 329.628,-158.011"/>
<polygon fill="midnightblue" stroke="midnightblue" points="332.528,-159.974 335.579,-149.828 326.867,-155.857 332.528,-159.974"/>
</g>
<!-- Node4 -->
<g id="node5" class="node"><title>Node4</title>
<g id="a_node5"><a xlink:href="combine__standard__layout_8hpp.html" target="_top" xlink:title="immer/detail/combine\l_standard_layout.hpp">
<polygon fill="white" stroke="black" points="271,-57 271,-87 381,-87 381,-57 271,-57"/>
<text text-anchor="start" x="279" y="-75" font-family="Helvetica,sans-Serif" font-size="10.00">immer/detail/combine</text>
<text text-anchor="middle" x="326" y="-64" font-family="Helvetica,sans-Serif" font-size="10.00">_standard_layout.hpp</text>
</a>
</g>
</g>
<!-- Node3&#45;&gt;Node4 -->
<g id="edge4" class="edge"><title>Node3&#45;&gt;Node4</title>
<path fill="none" stroke="midnightblue" d="M263.359,-124.679C274.336,-115.623 288.706,-103.768 300.913,-93.697"/>
<polygon fill="midnightblue" stroke="midnightblue" points="303.463,-96.13 308.95,-87.0663 299.009,-90.7304 303.463,-96.13"/>
</g>
<!-- Node6 -->
<g id="node7" class="node"><title>Node6</title>
<g id="a_node7"><a xlink:href="util_8hpp.html" target="_top" xlink:title="immer/detail/util.hpp">
<polygon fill="white" stroke="black" points="81,-62.5 81,-81.5 185,-81.5 185,-62.5 81,-62.5"/>
<text text-anchor="middle" x="133" y="-69.5" font-family="Helvetica,sans-Serif" font-size="10.00">immer/detail/util.hpp</text>
</a>
</g>
</g>
<!-- Node3&#45;&gt;Node6 -->
<g id="edge6" class="edge"><title>Node3&#45;&gt;Node6</title>
<path fill="none" stroke="midnightblue" d="M221.759,-124.841C202.476,-113.579 175.654,-97.9132 156.554,-86.7572"/>
<polygon fill="midnightblue" stroke="midnightblue" points="158.265,-83.7031 147.864,-81.6819 154.734,-89.7477 158.265,-83.7031"/>
</g>
<!-- Node10 -->
<g id="node11" class="node"><title>Node10</title>
<g id="a_node11"><a xlink:href="hamts_2bits_8hpp.html" target="_top" xlink:title="immer/detail/hamts\l/bits.hpp">
<polygon fill="white" stroke="black" points="521,-57 521,-87 621,-87 621,-57 521,-57"/>
<text text-anchor="start" x="529" y="-75" font-family="Helvetica,sans-Serif" font-size="10.00">immer/detail/hamts</text>
<text text-anchor="middle" x="571" y="-64" font-family="Helvetica,sans-Serif" font-size="10.00">/bits.hpp</text>
</a>
</g>
</g>
<!-- Node3&#45;&gt;Node10 -->
<g id="edge12" class="edge"><title>Node3&#45;&gt;Node10</title>
<path fill="none" stroke="midnightblue" d="M296.151,-125.974C299.14,-125.283 302.106,-124.62 305,-124 395.882,-104.535 420.079,-107.283 511,-88 511.102,-87.9784 511.204,-87.9568 511.306,-87.9351"/>
<polygon fill="midnightblue" stroke="midnightblue" points="511.966,-91.3737 520.972,-85.793 510.452,-84.5395 511.966,-91.3737"/>
</g>
<!-- Node12 -->
<g id="node13" class="node"><title>Node12</title>
<polygon fill="white" stroke="#bfbfbf" points="203.5,-62.5 203.5,-81.5 252.5,-81.5 252.5,-62.5 203.5,-62.5"/>
<text text-anchor="middle" x="228" y="-69.5" font-family="Helvetica,sans-Serif" font-size="10.00">cassert</text>
</g>
<!-- Node3&#45;&gt;Node12 -->
<g id="edge14" class="edge"><title>Node3&#45;&gt;Node12</title>
<path fill="none" stroke="midnightblue" d="M242.094,-124.679C239.454,-114.999 235.943,-102.123 233.085,-91.6449"/>
<polygon fill="midnightblue" stroke="midnightblue" points="236.416,-90.555 230.408,-81.8283 229.662,-92.3969 236.416,-90.555"/>
</g>
<!-- Node5 -->
<g id="node6" class="node"><title>Node5</title>
<polygon fill="white" stroke="#bfbfbf" points="287,-0.5 287,-19.5 349,-19.5 349,-0.5 287,-0.5"/>
<text text-anchor="middle" x="318" y="-7.5" font-family="Helvetica,sans-Serif" font-size="10.00">type_traits</text>
</g>
<!-- Node4&#45;&gt;Node5 -->
<g id="edge5" class="edge"><title>Node4&#45;&gt;Node5</title>
<path fill="none" stroke="midnightblue" d="M324.104,-56.7808C323.026,-48.6913 321.662,-38.4617 320.497,-29.725"/>
<polygon fill="midnightblue" stroke="midnightblue" points="323.955,-29.1802 319.164,-19.7305 317.016,-30.1054 323.955,-29.1802"/>
</g>
<!-- Node6&#45;&gt;Node2 -->
<g id="edge7" class="edge"><title>Node6&#45;&gt;Node2</title>
<path fill="none" stroke="midnightblue" d="M120.535,-62.4035C106.581,-52.7797 83.7351,-37.0242 67.0091,-25.4891"/>
<polygon fill="midnightblue" stroke="midnightblue" points="68.6611,-22.3767 58.4419,-19.5806 64.6869,-28.1392 68.6611,-22.3767"/>
</g>
<!-- Node6&#45;&gt;Node5 -->
<g id="edge10" class="edge"><title>Node6&#45;&gt;Node5</title>
<path fill="none" stroke="midnightblue" d="M159.506,-62.4035C191.652,-51.9777 245.987,-34.3557 281.927,-22.6992"/>
<polygon fill="midnightblue" stroke="midnightblue" points="283.111,-25.995 291.543,-19.5806 280.951,-19.3364 283.111,-25.995"/>
</g>
<!-- Node7 -->
<g id="node8" class="node"><title>Node7</title>
<polygon fill="white" stroke="#bfbfbf" points="367.5,-0.5 367.5,-19.5 416.5,-19.5 416.5,-0.5 367.5,-0.5"/>
<text text-anchor="middle" x="392" y="-7.5" font-family="Helvetica,sans-Serif" font-size="10.00">cstddef</text>
</g>
<!-- Node6&#45;&gt;Node7 -->
<g id="edge8" class="edge"><title>Node6&#45;&gt;Node7</title>
<path fill="none" stroke="midnightblue" d="M167.164,-62.4475C175.903,-60.3015 185.291,-58.0322 194,-56 266.249,-39.1409 284.841,-37.2408 357,-20 357.103,-19.9754 357.206,-19.9507 357.309,-19.926"/>
<polygon fill="midnightblue" stroke="midnightblue" points="358.297,-23.2873 367.17,-17.497 356.623,-16.4905 358.297,-23.2873"/>
</g>
<!-- Node8 -->
<g id="node9" class="node"><title>Node8</title>
<polygon fill="white" stroke="#bfbfbf" points="180.5,-0.5 180.5,-19.5 215.5,-19.5 215.5,-0.5 180.5,-0.5"/>
<text text-anchor="middle" x="198" y="-7.5" font-family="Helvetica,sans-Serif" font-size="10.00">new</text>
</g>
<!-- Node6&#45;&gt;Node8 -->
<g id="edge9" class="edge"><title>Node6&#45;&gt;Node8</title>
<path fill="none" stroke="midnightblue" d="M142.313,-62.4035C152.449,-53.047 168.864,-37.8948 181.252,-26.4599"/>
<polygon fill="midnightblue" stroke="midnightblue" points="183.73,-28.9352 188.704,-19.5806 178.982,-23.7916 183.73,-28.9352"/>
</g>
<!-- Node9 -->
<g id="node10" class="node"><title>Node9</title>
<polygon fill="white" stroke="#bfbfbf" points="110,-0.5 110,-19.5 162,-19.5 162,-0.5 110,-0.5"/>
<text text-anchor="middle" x="136" y="-7.5" font-family="Helvetica,sans-Serif" font-size="10.00">memory</text>
</g>
<!-- Node6&#45;&gt;Node9 -->
<g id="edge11" class="edge"><title>Node6&#45;&gt;Node9</title>
<path fill="none" stroke="midnightblue" d="M133.43,-62.4035C133.853,-53.9381 134.514,-40.7283 135.059,-29.8199"/>
<polygon fill="midnightblue" stroke="midnightblue" points="138.567,-29.7429 135.571,-19.5806 131.576,-29.3933 138.567,-29.7429"/>
</g>
<!-- Node11 -->
<g id="node12" class="node"><title>Node11</title>
<polygon fill="white" stroke="#bfbfbf" points="548,-0.5 548,-19.5 594,-19.5 594,-0.5 548,-0.5"/>
<text text-anchor="middle" x="571" y="-7.5" font-family="Helvetica,sans-Serif" font-size="10.00">cstdint</text>
</g>
<!-- Node10&#45;&gt;Node11 -->
<g id="edge13" class="edge"><title>Node10&#45;&gt;Node11</title>
<path fill="none" stroke="midnightblue" d="M571,-56.7808C571,-48.7812 571,-38.6887 571,-30.0168"/>
<polygon fill="midnightblue" stroke="midnightblue" points="574.5,-29.7305 571,-19.7305 567.5,-29.7306 574.5,-29.7305"/>
</g>
<!-- Node14&#45;&gt;Node5 -->
<g id="edge19" class="edge"><title>Node14&#45;&gt;Node5</title>
<path fill="none" stroke="midnightblue" d="M419.817,-56.9327C397.579,-46.9004 367.918,-33.5193 346.348,-23.7888"/>
<polygon fill="midnightblue" stroke="midnightblue" points="347.618,-20.5219 337.063,-19.6 344.739,-26.9027 347.618,-20.5219"/>
</g>
<!-- Node14&#45;&gt;Node7 -->
<g id="edge17" class="edge"><title>Node14&#45;&gt;Node7</title>
<path fill="none" stroke="midnightblue" d="M437.018,-56.7808C428.179,-47.7925 416.743,-36.162 407.609,-26.8731"/>
<polygon fill="midnightblue" stroke="midnightblue" points="410.092,-24.4068 400.585,-19.7305 405.101,-29.3148 410.092,-24.4068"/>
</g>
<!-- Node15 -->
<g id="node16" class="node"><title>Node15</title>
<polygon fill="white" stroke="#bfbfbf" points="434.5,-0.5 434.5,-19.5 481.5,-19.5 481.5,-0.5 434.5,-0.5"/>
<text text-anchor="middle" x="458" y="-7.5" font-family="Helvetica,sans-Serif" font-size="10.00">iterator</text>
</g>
<!-- Node14&#45;&gt;Node15 -->
<g id="edge18" class="edge"><title>Node14&#45;&gt;Node15</title>
<path fill="none" stroke="midnightblue" d="M452.659,-56.7808C453.603,-48.6913 454.796,-38.4617 455.815,-29.725"/>
<polygon fill="midnightblue" stroke="midnightblue" points="459.299,-30.0688 456.981,-19.7305 452.346,-29.2576 459.299,-30.0688"/>
</g>
</g>
</svg>
