<?xml version="1.0" encoding="UTF-8" standalone="no"?>
<!DOCTYPE svg PUBLIC "-//W3C//DTD SVG 1.1//EN"
 "http://www.w3.org/Graphics/SVG/1.1/DTD/svg11.dtd">
<!-- Generated by graphviz version 2.36.0 (20140111.2315)
 -->
<!-- Title: src/checkqueue.h Pages: 1 -->
<svg width="642pt" height="96pt"
 viewBox="0.00 0.00 642.00 96.00" xmlns="http://www.w3.org/2000/svg" xmlns:xlink="http://www.w3.org/1999/xlink">
<g id="graph0" class="graph" transform="scale(1 1) rotate(0) translate(4 92)">
<title>src/checkqueue.h</title>
<polygon fill="white" stroke="none" points="-4,4 -4,-92 638,-92 638,4 -4,4"/>
<!-- Node0 -->
<g id="node1" class="node"><title>Node0</title>
<polygon fill="#bfbfbf" stroke="black" points="198,-68.5 198,-87.5 292,-87.5 292,-68.5 198,-68.5"/>
<text text-anchor="middle" x="245" y="-75.5" font-family="Helvetica,sans-Serif" font-size="10.00">src/checkqueue.h</text>
</g>
<!-- Node1 -->
<g id="node2" class="node"><title>Node1</title>
<polygon fill="white" stroke="#bfbfbf" points="0,-6.5 0,-25.5 56,-25.5 56,-6.5 0,-6.5"/>
<text text-anchor="middle" x="28" y="-13.5" font-family="Helvetica,sans-Serif" font-size="10.00">algorithm</text>
</g>
<!-- Node0&#45;&gt;Node1 -->
<g id="edge1" class="edge"><title>Node0&#45;&gt;Node1</title>
<path fill="none" stroke="midnightblue" d="M203.788,-68.4248C167.001,-60.363 111.858,-47.2722 65,-32 62.4319,-31.163 59.7883,-30.2332 57.1516,-29.2583"/>
<polygon fill="midnightblue" stroke="midnightblue" points="58.3695,-25.9767 47.7808,-25.6152 55.833,-32.501 58.3695,-25.9767"/>
</g>
<!-- Node2 -->
<g id="node3" class="node"><title>Node2</title>
<polygon fill="white" stroke="#bfbfbf" points="74,-6.5 74,-25.5 118,-25.5 118,-6.5 74,-6.5"/>
<text text-anchor="middle" x="96" y="-13.5" font-family="Helvetica,sans-Serif" font-size="10.00">vector</text>
</g>
<!-- Node0&#45;&gt;Node2 -->
<g id="edge2" class="edge"><title>Node0&#45;&gt;Node2</title>
<path fill="none" stroke="midnightblue" d="M220.8,-68.4647C196.774,-59.8289 159.007,-45.8159 127,-32 125.415,-31.3158 123.793,-30.5951 122.163,-29.8549"/>
<polygon fill="midnightblue" stroke="midnightblue" points="123.472,-26.6031 112.933,-25.5194 120.496,-32.9389 123.472,-26.6031"/>
</g>
<!-- Node3 -->
<g id="node4" class="node"><title>Node3</title>
<polygon fill="white" stroke="#bfbfbf" points="136.5,-6.5 136.5,-25.5 231.5,-25.5 231.5,-6.5 136.5,-6.5"/>
<text text-anchor="middle" x="184" y="-13.5" font-family="Helvetica,sans-Serif" font-size="10.00">boost/foreach.hpp</text>
</g>
<!-- Node0&#45;&gt;Node3 -->
<g id="edge3" class="edge"><title>Node0&#45;&gt;Node3</title>
<path fill="none" stroke="midnightblue" d="M236.26,-68.4035C226.838,-59.1361 211.636,-44.1828 200.051,-32.7876"/>
<polygon fill="midnightblue" stroke="midnightblue" points="202.307,-30.0978 192.724,-25.5806 197.399,-35.0883 202.307,-30.0978"/>
</g>
<!-- Node4 -->
<g id="node5" class="node"><title>Node4</title>
<polygon fill="white" stroke="#bfbfbf" points="249.5,-1 249.5,-31 362.5,-31 362.5,-1 249.5,-1"/>
<text text-anchor="start" x="257.5" y="-19" font-family="Helvetica,sans-Serif" font-size="10.00">boost/thread/condition</text>
<text text-anchor="middle" x="306" y="-8" font-family="Helvetica,sans-Serif" font-size="10.00">_variable.hpp</text>
</g>
<!-- Node0&#45;&gt;Node4 -->
<g id="edge4" class="edge"><title>Node0&#45;&gt;Node4</title>
<path fill="none" stroke="midnightblue" d="M253.74,-68.4035C261.693,-60.5811 273.764,-48.7077 284.302,-38.3424"/>
<polygon fill="midnightblue" stroke="midnightblue" points="286.949,-40.6485 291.624,-31.1408 282.04,-35.658 286.949,-40.6485"/>
</g>
<!-- Node5 -->
<g id="node6" class="node"><title>Node5</title>
<polygon fill="white" stroke="#bfbfbf" points="381,-6.5 381,-25.5 497,-25.5 497,-6.5 381,-6.5"/>
<text text-anchor="middle" x="439" y="-13.5" font-family="Helvetica,sans-Serif" font-size="10.00">boost/thread/locks.hpp</text>
</g>
<!-- Node0&#45;&gt;Node5 -->
<g id="edge5" class="edge"><title>Node0&#45;&gt;Node5</title>
<path fill="none" stroke="midnightblue" d="M272.795,-68.4035C306.65,-57.9331 363.971,-40.2049 401.655,-28.5501"/>
<polygon fill="midnightblue" stroke="midnightblue" points="402.737,-31.8791 411.256,-25.5806 400.668,-25.1916 402.737,-31.8791"/>
</g>
<!-- Node6 -->
<g id="node7" class="node"><title>Node6</title>
<polygon fill="white" stroke="#bfbfbf" points="515.5,-6.5 515.5,-25.5 634.5,-25.5 634.5,-6.5 515.5,-6.5"/>
<text text-anchor="middle" x="575" y="-13.5" font-family="Helvetica,sans-Serif" font-size="10.00">boost/thread/mutex.hpp</text>
</g>
<!-- Node0&#45;&gt;Node6 -->
<g id="edge6" class="edge"><title>Node0&#45;&gt;Node6</title>
<path fill="none" stroke="midnightblue" d="M292.072,-69.4303C344.233,-60.9079 430.791,-46.3669 505,-32 512.047,-30.6357 519.476,-29.1237 526.758,-27.5999"/>
<polygon fill="midnightblue" stroke="midnightblue" points="527.487,-31.0232 536.545,-25.5275 526.037,-24.175 527.487,-31.0232"/>
</g>
</g>
</svg>
