<?xml version="1.0" encoding="UTF-8" standalone="no"?>
<!DOCTYPE svg PUBLIC "-//W3C//DTD SVG 1.1//EN"
 "http://www.w3.org/Graphics/SVG/1.1/DTD/svg11.dtd">
<!-- Generated by graphviz version 2.36.0 (20140111.2315)
 -->
<!-- Title: AddressBookPage Pages: 1 -->
<svg width="1992pt" height="493pt"
 viewBox="0.00 0.00 1992.00 493.41" xmlns="http://www.w3.org/2000/svg" xmlns:xlink="http://www.w3.org/1999/xlink">
<g id="graph0" class="graph" transform="scale(1 1) rotate(0) translate(4 489.405)">
<title>AddressBookPage</title>
<polygon fill="white" stroke="none" points="-4,4 -4,-489.405 1988,-489.405 1988,4 -4,4"/>
<!-- Node2 -->
<g id="node1" class="node"><title>Node2</title>
<polygon fill="#bfbfbf" stroke="black" points="1408,-214.5 1408,-233.5 1506,-233.5 1506,-214.5 1408,-214.5"/>
<text text-anchor="middle" x="1457" y="-221.5" font-family="Helvetica,sans-Serif" font-size="10.00">AddressBookPage</text>
</g>
<!-- Node3 -->
<g id="node2" class="node"><title>Node3</title>
<polygon fill="white" stroke="#bfbfbf" points="1206,-252.5 1206,-271.5 1258,-271.5 1258,-252.5 1206,-252.5"/>
<text text-anchor="middle" x="1232" y="-259.5" font-family="Helvetica,sans-Serif" font-size="10.00">QDialog</text>
</g>
<!-- Node3&#45;&gt;Node2 -->
<g id="edge1" class="edge"><title>Node3&#45;&gt;Node2</title>
<path fill="none" stroke="midnightblue" d="M1268.19,-273.271C1300.69,-281.807 1349.87,-289.909 1390,-276 1414.26,-267.592 1436.36,-246.167 1447.8,-233.597"/>
<polygon fill="midnightblue" stroke="midnightblue" points="1268.83,-269.816 1258.25,-270.512 1266.95,-276.56 1268.83,-269.816"/>
</g>
<!-- Node4 -->
<g id="node3" class="node"><title>Node4</title>
<g id="a_node3"><a xlink:href="class_address_table_model.html" target="_top" xlink:title="Qt model of the address book in the core. ">
<polygon fill="white" stroke="black" points="1180.5,-186.5 1180.5,-205.5 1283.5,-205.5 1283.5,-186.5 1180.5,-186.5"/>
<text text-anchor="middle" x="1232" y="-193.5" font-family="Helvetica,sans-Serif" font-size="10.00">AddressTableModel</text>
</a>
</g>
</g>
<!-- Node4&#45;&gt;Node2 -->
<g id="edge2" class="edge"><title>Node4&#45;&gt;Node2</title>
<path fill="none" stroke="#9a32cd" stroke-dasharray="5,2" d="M1293.8,-191.039C1323.14,-189.999 1358.68,-190.737 1390,-197 1407,-200.398 1425.14,-208.155 1438.1,-214.486"/>
<polygon fill="#9a32cd" stroke="#9a32cd" points="1293.54,-187.547 1283.7,-191.475 1293.84,-194.54 1293.54,-187.547"/>
<text text-anchor="middle" x="1346" y="-200" font-family="Helvetica,sans-Serif" font-size="10.00"> model</text>
</g>
<!-- Node6 -->
<g id="node5" class="node"><title>Node6</title>
<g id="a_node5"><a xlink:href="class_address_table_priv.html" target="_top" xlink:title="AddressTablePriv">
<polygon fill="white" stroke="black" points="1410,-150.5 1410,-169.5 1504,-169.5 1504,-150.5 1410,-150.5"/>
<text text-anchor="middle" x="1457" y="-157.5" font-family="Helvetica,sans-Serif" font-size="10.00">AddressTablePriv</text>
</a>
</g>
</g>
<!-- Node4&#45;&gt;Node6 -->
<g id="edge5" class="edge"><title>Node4&#45;&gt;Node6</title>
<path fill="none" stroke="#9a32cd" stroke-dasharray="5,2" d="M1271.2,-183.61C1281.15,-180.75 1291.9,-177.972 1302,-176 1337.88,-168.995 1379.1,-164.917 1409.86,-162.633"/>
<polygon fill="#9a32cd" stroke="#9a32cd" points="1270.18,-180.264 1261.59,-186.47 1272.17,-186.973 1270.18,-180.264"/>
<text text-anchor="middle" x="1346" y="-179" font-family="Helvetica,sans-Serif" font-size="10.00"> parent</text>
</g>
<!-- Node22 -->
<g id="node21" class="node"><title>Node22</title>
<g id="a_node21"><a xlink:href="class_wallet_model.html" target="_top" xlink:title="Interface to Bitcoin wallet from Qt view code. ">
<polygon fill="white" stroke="black" points="1421.5,-279.5 1421.5,-298.5 1492.5,-298.5 1492.5,-279.5 1421.5,-279.5"/>
<text text-anchor="middle" x="1457" y="-286.5" font-family="Helvetica,sans-Serif" font-size="10.00">WalletModel</text>
</a>
</g>
</g>
<!-- Node4&#45;&gt;Node22 -->
<g id="edge34" class="edge"><title>Node4&#45;&gt;Node22</title>
<path fill="none" stroke="#9a32cd" stroke-dasharray="5,2" d="M1253.42,-211.924C1266.68,-221.666 1284.66,-233.792 1302,-242 1341.16,-260.538 1389.36,-273.857 1421.29,-281.482"/>
<polygon fill="#9a32cd" stroke="#9a32cd" points="1255.16,-208.852 1245.06,-205.639 1250.95,-214.446 1255.16,-208.852"/>
<text text-anchor="middle" x="1346" y="-276" font-family="Helvetica,sans-Serif" font-size="10.00"> addressTableModel</text>
</g>
<!-- Node5 -->
<g id="node4" class="node"><title>Node5</title>
<polygon fill="white" stroke="#bfbfbf" points="1002.5,-413.5 1002.5,-432.5 1113.5,-432.5 1113.5,-413.5 1002.5,-413.5"/>
<text text-anchor="middle" x="1058" y="-420.5" font-family="Helvetica,sans-Serif" font-size="10.00">QAbstractTableModel</text>
</g>
<!-- Node5&#45;&gt;Node4 -->
<g id="edge3" class="edge"><title>Node5&#45;&gt;Node4</title>
<path fill="none" stroke="midnightblue" d="M1092.54,-408.597C1100.29,-404.119 1108.02,-398.59 1114,-392 1162.69,-338.381 1137.82,-301.881 1180,-243 1190.66,-228.121 1206.64,-214.342 1217.86,-205.601"/>
<polygon fill="midnightblue" stroke="midnightblue" points="1090.72,-405.599 1083.52,-413.371 1093.99,-411.786 1090.72,-405.599"/>
</g>
<!-- Node24 -->
<g id="node23" class="node"><title>Node24</title>
<g id="a_node23"><a xlink:href="class_transaction_table_model.html" target="_top" xlink:title="UI model for the transaction table of a wallet. ">
<polygon fill="white" stroke="black" points="1677,-137.5 1677,-156.5 1795,-156.5 1795,-137.5 1677,-137.5"/>
<text text-anchor="middle" x="1736" y="-144.5" font-family="Helvetica,sans-Serif" font-size="10.00">TransactionTableModel</text>
</a>
</g>
</g>
<!-- Node5&#45;&gt;Node24 -->
<g id="edge27" class="edge"><title>Node5&#45;&gt;Node24</title>
<path fill="none" stroke="midnightblue" d="M1123.63,-432.295C1241.76,-445.507 1494.46,-455.796 1648,-331 1663.01,-318.798 1716.01,-192.817 1731.01,-156.655"/>
<polygon fill="midnightblue" stroke="midnightblue" points="1123.99,-428.814 1113.65,-431.136 1123.18,-435.767 1123.99,-428.814"/>
</g>
<!-- Node27 -->
<g id="node26" class="node"><title>Node27</title>
<g id="a_node26"><a xlink:href="class_recent_requests_table_model.html" target="_top" xlink:title="Model for list of recently generated payment requests / dash: URIs. ">
<polygon fill="white" stroke="black" points="1666,-313.5 1666,-332.5 1806,-332.5 1806,-313.5 1666,-313.5"/>
<text text-anchor="middle" x="1736" y="-320.5" font-family="Helvetica,sans-Serif" font-size="10.00">RecentRequestsTableModel</text>
</a>
</g>
</g>
<!-- Node5&#45;&gt;Node27 -->
<g id="edge36" class="edge"><title>Node5&#45;&gt;Node27</title>
<path fill="none" stroke="midnightblue" d="M1097.44,-435.519C1195.43,-465.076 1460.06,-529.987 1648,-437 1693.3,-414.587 1721.46,-356.036 1731.18,-332.754"/>
<polygon fill="midnightblue" stroke="midnightblue" points="1098.27,-432.11 1087.68,-432.523 1096.21,-438.802 1098.27,-432.11"/>
</g>
<!-- Node6&#45;&gt;Node4 -->
<g id="edge4" class="edge"><title>Node6&#45;&gt;Node4</title>
<path fill="none" stroke="#9a32cd" stroke-dasharray="5,2" d="M1419.64,-146.559C1415.66,-144.807 1411.71,-142.941 1408,-141 1399.48,-136.539 1399.2,-131.786 1390,-129 1352.57,-117.666 1338.24,-114.299 1302,-129 1273.22,-140.674 1249.84,-170.753 1239.2,-186.33"/>
<polygon fill="#9a32cd" stroke="#9a32cd" points="1418.32,-149.799 1428.89,-150.425 1421.02,-143.34 1418.32,-149.799"/>
<text text-anchor="middle" x="1346" y="-132" font-family="Helvetica,sans-Serif" font-size="10.00"> priv</text>
</g>
<!-- Node7 -->
<g id="node6" class="node"><title>Node7</title>
<g id="a_node6"><a xlink:href="class_c_wallet.html" target="_top" xlink:title="A CWallet is an extension of a keystore, which also maintains a set of transactions and balances...">
<polygon fill="white" stroke="black" points="1032,-95.5 1032,-114.5 1084,-114.5 1084,-95.5 1032,-95.5"/>
<text text-anchor="middle" x="1058" y="-102.5" font-family="Helvetica,sans-Serif" font-size="10.00">CWallet</text>
</a>
</g>
</g>
<!-- Node7&#45;&gt;Node4 -->
<g id="edge41" class="edge"><title>Node7&#45;&gt;Node4</title>
<path fill="none" stroke="#9a32cd" stroke-dasharray="5,2" d="M1086.37,-119.478C1121.83,-138.242 1182.7,-170.444 1212.9,-186.425"/>
<polygon fill="#9a32cd" stroke="#9a32cd" points="1087.56,-116.149 1077.08,-114.567 1084.28,-122.337 1087.56,-116.149"/>
<text text-anchor="middle" x="1147" y="-162" font-family="Helvetica,sans-Serif" font-size="10.00"> wallet</text>
</g>
<!-- Node7&#45;&gt;Node6 -->
<g id="edge6" class="edge"><title>Node7&#45;&gt;Node6</title>
<path fill="none" stroke="#9a32cd" stroke-dasharray="5,2" d="M1094.04,-96.6476C1157.4,-83.5107 1293.41,-64.4788 1390,-116 1402.08,-122.444 1397.2,-132.586 1408,-141 1412.88,-144.801 1418.61,-147.933 1424.39,-150.481"/>
<polygon fill="#9a32cd" stroke="#9a32cd" points="1093.19,-93.2495 1084.15,-98.7735 1094.66,-100.093 1093.19,-93.2495"/>
<text text-anchor="middle" x="1232" y="-88" font-family="Helvetica,sans-Serif" font-size="10.00"> wallet</text>
</g>
<!-- Node7&#45;&gt;Node22 -->
<g id="edge40" class="edge"><title>Node7&#45;&gt;Node22</title>
<path fill="none" stroke="#9a32cd" stroke-dasharray="5,2" d="M1066.01,-124.57C1080.63,-162.208 1118.25,-244.206 1180,-281 1255.98,-326.269 1365.8,-310.443 1421.22,-298.07"/>
<polygon fill="#9a32cd" stroke="#9a32cd" points="1069.14,-122.943 1062.35,-114.807 1062.58,-125.399 1069.14,-122.943"/>
<text text-anchor="middle" x="1232" y="-314" font-family="Helvetica,sans-Serif" font-size="10.00"> wallet</text>
</g>
<!-- Node7&#45;&gt;Node24 -->
<g id="edge33" class="edge"><title>Node7&#45;&gt;Node24</title>
<path fill="none" stroke="#9a32cd" stroke-dasharray="5,2" d="M1093.66,-92.9335C1105.67,-89.1889 1119.3,-85.4149 1132,-83 1153.03,-79.0006 1158.63,-80.3275 1180,-79 1234.16,-75.6348 1247.74,-75.1113 1302,-74 1341.1,-73.199 1351.07,-70.1896 1390,-74 1506.33,-85.3875 1533.97,-99.3302 1648,-125 1664.87,-128.798 1683.47,-133.438 1699.12,-137.477"/>
<polygon fill="#9a32cd" stroke="#9a32cd" points="1092.46,-89.6436 1084.01,-96.0416 1094.61,-96.3063 1092.46,-89.6436"/>
<text text-anchor="middle" x="1346" y="-77" font-family="Helvetica,sans-Serif" font-size="10.00"> wallet</text>
</g>
<!-- Node25 -->
<g id="node24" class="node"><title>Node25</title>
<g id="a_node24"><a xlink:href="class_transaction_table_priv.html" target="_top" xlink:title="TransactionTablePriv">
<polygon fill="white" stroke="black" points="1874.5,-103.5 1874.5,-122.5 1983.5,-122.5 1983.5,-103.5 1874.5,-103.5"/>
<text text-anchor="middle" x="1929" y="-110.5" font-family="Helvetica,sans-Serif" font-size="10.00">TransactionTablePriv</text>
</a>
</g>
</g>
<!-- Node7&#45;&gt;Node25 -->
<g id="edge30" class="edge"><title>Node7&#45;&gt;Node25</title>
<path fill="none" stroke="#9a32cd" stroke-dasharray="5,2" d="M1077.69,-88.5513C1107.77,-63.8403 1169.76,-20 1231,-20 1231,-20 1231,-20 1737,-20 1812.61,-20 1889.6,-79.6363 1917.28,-103.398"/>
<polygon fill="#9a32cd" stroke="#9a32cd" points="1075.14,-86.1271 1069.75,-95.2494 1079.65,-91.4784 1075.14,-86.1271"/>
<text text-anchor="middle" x="1457" y="-23" font-family="Helvetica,sans-Serif" font-size="10.00"> wallet</text>
</g>
<!-- Node8 -->
<g id="node7" class="node"><title>Node8</title>
<g id="a_node7"><a xlink:href="class_c_crypto_key_store.html" target="_top" xlink:title="Keystore which keeps the private keys encrypted. ">
<polygon fill="white" stroke="black" points="774,-152.5 774,-171.5 868,-171.5 868,-152.5 774,-152.5"/>
<text text-anchor="middle" x="821" y="-159.5" font-family="Helvetica,sans-Serif" font-size="10.00">CCryptoKeyStore</text>
</a>
</g>
</g>
<!-- Node8&#45;&gt;Node7 -->
<g id="edge7" class="edge"><title>Node8&#45;&gt;Node7</title>
<path fill="none" stroke="midnightblue" d="M877.947,-152.27C909.331,-146.396 949.078,-138.264 984,-129 1000.12,-124.724 1017.9,-118.902 1031.88,-114.063"/>
<polygon fill="midnightblue" stroke="midnightblue" points="877.266,-148.836 868.068,-154.096 878.538,-155.72 877.266,-148.836"/>
</g>
<!-- Node9 -->
<g id="node8" class="node"><title>Node9</title>
<g id="a_node8"><a xlink:href="class_c_basic_key_store.html" target="_top" xlink:title="Basic key store, that keeps keys in an address&#45;&gt;secret map. ">
<polygon fill="white" stroke="black" points="640.5,-152.5 640.5,-171.5 729.5,-171.5 729.5,-152.5 640.5,-152.5"/>
<text text-anchor="middle" x="685" y="-159.5" font-family="Helvetica,sans-Serif" font-size="10.00">CBasicKeyStore</text>
</a>
</g>
</g>
<!-- Node9&#45;&gt;Node8 -->
<g id="edge8" class="edge"><title>Node9&#45;&gt;Node8</title>
<path fill="none" stroke="midnightblue" d="M739.727,-162C751.061,-162 762.923,-162 773.945,-162"/>
<polygon fill="midnightblue" stroke="midnightblue" points="739.506,-158.5 729.506,-162 739.506,-165.5 739.506,-158.5"/>
</g>
<!-- Node10 -->
<g id="node9" class="node"><title>Node10</title>
<g id="a_node9"><a xlink:href="class_c_key_store.html" target="_top" xlink:title="A virtual base class for key stores. ">
<polygon fill="white" stroke="black" points="498.5,-166.5 498.5,-185.5 563.5,-185.5 563.5,-166.5 498.5,-166.5"/>
<text text-anchor="middle" x="531" y="-173.5" font-family="Helvetica,sans-Serif" font-size="10.00">CKeyStore</text>
</a>
</g>
</g>
<!-- Node10&#45;&gt;Node9 -->
<g id="edge9" class="edge"><title>Node10&#45;&gt;Node9</title>
<path fill="none" stroke="midnightblue" d="M573.931,-172.138C594.587,-170.235 619.477,-167.943 640.359,-166.02"/>
<polygon fill="midnightblue" stroke="midnightblue" points="573.501,-168.663 563.864,-173.065 574.143,-175.633 573.501,-168.663"/>
</g>
<!-- Node11 -->
<g id="node10" class="node"><title>Node11</title>
<g id="a_node10"><a xlink:href="class_c_critical_section.html" target="_top" xlink:title="Wrapped boost mutex: supports recursive locking, but no waiting TODO: We should move away from using ...">
<polygon fill="white" stroke="black" points="314,-174.5 314,-193.5 402,-193.5 402,-174.5 314,-174.5"/>
<text text-anchor="middle" x="358" y="-181.5" font-family="Helvetica,sans-Serif" font-size="10.00">CCriticalSection</text>
</a>
</g>
</g>
<!-- Node11&#45;&gt;Node7 -->
<g id="edge21" class="edge"><title>Node11&#45;&gt;Node7</title>
<path fill="none" stroke="#9a32cd" stroke-dasharray="5,2" d="M402.797,-196C437.126,-204.353 486.244,-214 530,-214 530,-214 530,-214 822,-214 915.995,-214 1013.15,-141.349 1045.65,-114.673"/>
<polygon fill="#9a32cd" stroke="#9a32cd" points="403.632,-192.601 393.082,-193.575 401.937,-199.393 403.632,-192.601"/>
<text text-anchor="middle" x="685" y="-217" font-family="Helvetica,sans-Serif" font-size="10.00"> cs_wallet</text>
</g>
<!-- Node11&#45;&gt;Node10 -->
<g id="edge10" class="edge"><title>Node11&#45;&gt;Node10</title>
<path fill="none" stroke="#9a32cd" stroke-dasharray="5,2" d="M412.293,-181.507C440.574,-180.184 474.362,-178.603 498.468,-177.475"/>
<polygon fill="#9a32cd" stroke="#9a32cd" points="411.976,-178.018 402.151,-181.981 412.303,-185.01 411.976,-178.018"/>
<text text-anchor="middle" x="450" y="-184" font-family="Helvetica,sans-Serif" font-size="10.00"> cs_KeyStore</text>
</g>
<!-- Node14 -->
<g id="node13" class="node"><title>Node14</title>
<g id="a_node13"><a xlink:href="class_c_h_d_chain.html" target="_top" xlink:title="CHDChain">
<polygon fill="white" stroke="black" points="498.5,-111.5 498.5,-130.5 563.5,-130.5 563.5,-111.5 498.5,-111.5"/>
<text text-anchor="middle" x="531" y="-118.5" font-family="Helvetica,sans-Serif" font-size="10.00">CHDChain</text>
</a>
</g>
</g>
<!-- Node11&#45;&gt;Node14 -->
<g id="edge16" class="edge"><title>Node11&#45;&gt;Node14</title>
<path fill="none" stroke="#9a32cd" stroke-dasharray="5,2" d="M394.591,-170.888C427.253,-158.854 474.869,-141.312 504.065,-130.555"/>
<polygon fill="#9a32cd" stroke="#9a32cd" points="393.145,-167.69 384.971,-174.432 395.565,-174.259 393.145,-167.69"/>
<text text-anchor="middle" x="450" y="-163" font-family="Helvetica,sans-Serif" font-size="10.00"> cs_accounts</text>
</g>
<!-- Node12 -->
<g id="node11" class="node"><title>Node12</title>
<polygon fill="white" stroke="#bfbfbf" points="158.5,-169 158.5,-199 275.5,-199 275.5,-169 158.5,-169"/>
<text text-anchor="start" x="166.5" y="-187" font-family="Helvetica,sans-Serif" font-size="10.00">AnnotatedMixin&lt; boost</text>
<text text-anchor="middle" x="217" y="-176" font-family="Helvetica,sans-Serif" font-size="10.00">::recursive_mutex &gt;</text>
</g>
<!-- Node12&#45;&gt;Node11 -->
<g id="edge11" class="edge"><title>Node12&#45;&gt;Node11</title>
<path fill="none" stroke="midnightblue" d="M285.927,-184C295.358,-184 304.827,-184 313.64,-184"/>
<polygon fill="midnightblue" stroke="midnightblue" points="285.741,-180.5 275.741,-184 285.741,-187.5 285.741,-180.5"/>
</g>
<!-- Node13 -->
<g id="node12" class="node"><title>Node13</title>
<polygon fill="white" stroke="#bfbfbf" points="0.5,-174.5 0.5,-193.5 119.5,-193.5 119.5,-174.5 0.5,-174.5"/>
<text text-anchor="middle" x="60" y="-181.5" font-family="Helvetica,sans-Serif" font-size="10.00">boost::recursive_mutex</text>
</g>
<!-- Node13&#45;&gt;Node12 -->
<g id="edge12" class="edge"><title>Node13&#45;&gt;Node12</title>
<path fill="none" stroke="midnightblue" d="M129.834,-184C139.356,-184 149.055,-184 158.346,-184"/>
<polygon fill="midnightblue" stroke="midnightblue" points="129.599,-180.5 119.599,-184 129.599,-187.5 129.599,-180.5"/>
</g>
<!-- Node14&#45;&gt;Node8 -->
<g id="edge17" class="edge"><title>Node14&#45;&gt;Node8</title>
<path fill="none" stroke="#9a32cd" stroke-dasharray="5,2" d="M573.521,-120.117C613.855,-120.006 676.648,-121.815 730,-132 742.376,-134.363 772.106,-144.617 794.026,-152.486"/>
<polygon fill="#9a32cd" stroke="#9a32cd" points="573.495,-116.617 563.52,-120.186 573.543,-123.617 573.495,-116.617"/>
<text text-anchor="middle" x="685" y="-135" font-family="Helvetica,sans-Serif" font-size="10.00"> cryptedHDChain</text>
</g>
<!-- Node14&#45;&gt;Node9 -->
<g id="edge13" class="edge"><title>Node14&#45;&gt;Node9</title>
<path fill="none" stroke="#9a32cd" stroke-dasharray="5,2" d="M573.582,-132.216C597.141,-138.571 626.293,-146.434 648.726,-152.485"/>
<polygon fill="#9a32cd" stroke="#9a32cd" points="574.431,-128.82 563.864,-129.595 572.608,-135.579 574.431,-128.82"/>
<text text-anchor="middle" x="602" y="-149" font-family="Helvetica,sans-Serif" font-size="10.00"> hdChain</text>
</g>
<!-- Node15 -->
<g id="node14" class="node"><title>Node15</title>
<g id="a_node14"><a xlink:href="classuint256.html" target="_top" xlink:title="256&#45;bit opaque blob. ">
<polygon fill="white" stroke="black" points="334,-106.5 334,-125.5 382,-125.5 382,-106.5 334,-106.5"/>
<text text-anchor="middle" x="358" y="-113.5" font-family="Helvetica,sans-Serif" font-size="10.00">uint256</text>
</a>
</g>
</g>
<!-- Node15&#45;&gt;Node14 -->
<g id="edge14" class="edge"><title>Node15&#45;&gt;Node14</title>
<path fill="none" stroke="#9a32cd" stroke-dasharray="5,2" d="M392.339,-115.635C416.651,-115.525 450.383,-115.695 480,-117 485.916,-117.261 492.217,-117.665 498.281,-118.119"/>
<polygon fill="#9a32cd" stroke="#9a32cd" points="392.187,-112.136 382.209,-115.699 392.232,-119.135 392.187,-112.136"/>
<text text-anchor="middle" x="450" y="-120" font-family="Helvetica,sans-Serif" font-size="10.00"> id</text>
</g>
<!-- Node16 -->
<g id="node15" class="node"><title>Node16</title>
<g id="a_node15"><a xlink:href="classbase__blob.html" target="_top" xlink:title="base_blob\&lt; 256 \&gt;">
<polygon fill="white" stroke="black" points="169.5,-106.5 169.5,-125.5 264.5,-125.5 264.5,-106.5 169.5,-106.5"/>
<text text-anchor="middle" x="217" y="-113.5" font-family="Helvetica,sans-Serif" font-size="10.00">base_blob&lt; 256 &gt;</text>
</a>
</g>
</g>
<!-- Node16&#45;&gt;Node15 -->
<g id="edge15" class="edge"><title>Node16&#45;&gt;Node15</title>
<path fill="none" stroke="midnightblue" d="M274.928,-116C295.493,-116 317.576,-116 333.65,-116"/>
<polygon fill="midnightblue" stroke="midnightblue" points="274.672,-112.5 264.672,-116 274.672,-119.5 274.672,-112.5"/>
</g>
<!-- Node17 -->
<g id="node16" class="node"><title>Node17</title>
<g id="a_node16"><a xlink:href="class_c_validation_interface.html" target="_top" xlink:title="CValidationInterface">
<polygon fill="white" stroke="black" points="768.5,-114.5 768.5,-133.5 873.5,-133.5 873.5,-114.5 768.5,-114.5"/>
<text text-anchor="middle" x="821" y="-121.5" font-family="Helvetica,sans-Serif" font-size="10.00">CValidationInterface</text>
</a>
</g>
</g>
<!-- Node17&#45;&gt;Node7 -->
<g id="edge18" class="edge"><title>Node17&#45;&gt;Node7</title>
<path fill="none" stroke="midnightblue" d="M883.626,-119.018C931.989,-115.107 996.815,-109.866 1031.9,-107.029"/>
<polygon fill="midnightblue" stroke="midnightblue" points="883.257,-115.536 873.572,-119.83 883.821,-122.513 883.257,-115.536"/>
</g>
<!-- Node18 -->
<g id="node17" class="node"><title>Node18</title>
<g id="a_node17"><a xlink:href="class_c_fee_rate.html" target="_top" xlink:title="Fee rate in satoshis per kilobyte: CAmount / kB. ">
<polygon fill="white" stroke="black" points="790,-76.5 790,-95.5 852,-95.5 852,-76.5 790,-76.5"/>
<text text-anchor="middle" x="821" y="-83.5" font-family="Helvetica,sans-Serif" font-size="10.00">CFeeRate</text>
</a>
</g>
</g>
<!-- Node18&#45;&gt;Node7 -->
<g id="edge19" class="edge"><title>Node18&#45;&gt;Node7</title>
<path fill="none" stroke="#9a32cd" stroke-dasharray="5,2" d="M862.135,-83.1776C895.028,-81.5405 942.716,-80.7155 984,-86 1000.24,-88.0785 1018.02,-92.6571 1031.97,-96.7988"/>
<polygon fill="#9a32cd" stroke="#9a32cd" points="861.797,-79.6908 852.003,-83.7309 862.179,-86.6804 861.797,-79.6908"/>
<text text-anchor="middle" x="938" y="-100" font-family="Helvetica,sans-Serif" font-size="10.00"> minTxFee</text>
<text text-anchor="middle" x="938" y="-89" font-family="Helvetica,sans-Serif" font-size="10.00">fallbackFee</text>
</g>
<!-- Node19 -->
<g id="node18" class="node"><title>Node19</title>
<g id="a_node18"><a xlink:href="class_c_pub_key.html" target="_top" xlink:title="An encapsulated public key. ">
<polygon fill="white" stroke="black" points="791.5,-38.5 791.5,-57.5 850.5,-57.5 850.5,-38.5 791.5,-38.5"/>
<text text-anchor="middle" x="821" y="-45.5" font-family="Helvetica,sans-Serif" font-size="10.00">CPubKey</text>
</a>
</g>
</g>
<!-- Node19&#45;&gt;Node7 -->
<g id="edge20" class="edge"><title>Node19&#45;&gt;Node7</title>
<path fill="none" stroke="#9a32cd" stroke-dasharray="5,2" d="M860.981,-48.6326C894.311,-50.0969 943.213,-54.4567 984,-67 1005.58,-73.6357 1028.33,-86.5555 1042.58,-95.4747"/>
<polygon fill="#9a32cd" stroke="#9a32cd" points="860.859,-45.1258 850.736,-48.2522 860.599,-52.1209 860.859,-45.1258"/>
<text text-anchor="middle" x="938" y="-70" font-family="Helvetica,sans-Serif" font-size="10.00"> vchDefaultKey</text>
</g>
<!-- Node20 -->
<g id="node19" class="node"><title>Node20</title>
<g id="a_node19"><a xlink:href="class_c_wallet_d_b.html" target="_top" xlink:title="Access to the wallet database. ">
<polygon fill="white" stroke="black" points="788,-0.5 788,-19.5 854,-19.5 854,-0.5 788,-0.5"/>
<text text-anchor="middle" x="821" y="-7.5" font-family="Helvetica,sans-Serif" font-size="10.00">CWalletDB</text>
</a>
</g>
</g>
<!-- Node20&#45;&gt;Node7 -->
<g id="edge22" class="edge"><title>Node20&#45;&gt;Node7</title>
<path fill="none" stroke="#9a32cd" stroke-dasharray="5,2" d="M864.176,-10.0304C898.137,-11.5984 946.262,-17.3881 984,-36 1012.78,-50.1932 1037.9,-79.6292 1049.75,-95.0642"/>
<polygon fill="#9a32cd" stroke="#9a32cd" points="864.238,-6.53043 854.119,-9.66976 863.987,-13.5259 864.238,-6.53043"/>
<text text-anchor="middle" x="938" y="-39" font-family="Helvetica,sans-Serif" font-size="10.00"> pwalletdbEncryption</text>
</g>
<!-- Node21 -->
<g id="node20" class="node"><title>Node21</title>
<g id="a_node20"><a xlink:href="class_c_d_b.html" target="_top" xlink:title="RAII class that provides access to a Berkeley database. ">
<polygon fill="white" stroke="black" points="666,-0.5 666,-19.5 704,-19.5 704,-0.5 666,-0.5"/>
<text text-anchor="middle" x="685" y="-7.5" font-family="Helvetica,sans-Serif" font-size="10.00">CDB</text>
</a>
</g>
</g>
<!-- Node21&#45;&gt;Node20 -->
<g id="edge23" class="edge"><title>Node21&#45;&gt;Node20</title>
<path fill="none" stroke="midnightblue" d="M714.211,-10C735.737,-10 765.412,-10 787.856,-10"/>
<polygon fill="midnightblue" stroke="midnightblue" points="714.072,-6.5001 704.072,-10 714.072,-13.5001 714.072,-6.5001"/>
</g>
<!-- Node22&#45;&gt;Node4 -->
<g id="edge24" class="edge"><title>Node22&#45;&gt;Node4</title>
<path fill="none" stroke="#9a32cd" stroke-dasharray="5,2" d="M1438.72,-272.03C1422.99,-256.928 1400.65,-236.414 1390,-231 1380.26,-226.05 1323.75,-214.072 1281.3,-205.509"/>
<polygon fill="#9a32cd" stroke="#9a32cd" points="1436.63,-274.878 1446.24,-279.326 1441.5,-269.852 1436.63,-274.878"/>
<text text-anchor="middle" x="1346" y="-234" font-family="Helvetica,sans-Serif" font-size="10.00"> walletModel</text>
</g>
<!-- Node22&#45;&gt;Node24 -->
<g id="edge32" class="edge"><title>Node22&#45;&gt;Node24</title>
<path fill="none" stroke="#9a32cd" stroke-dasharray="5,2" d="M1496.08,-276.165C1543.48,-259.917 1621.42,-232.215 1648,-217 1678.79,-199.376 1710.02,-171.179 1725.32,-156.53"/>
<polygon fill="#9a32cd" stroke="#9a32cd" points="1494.8,-272.906 1486.46,-279.45 1497.06,-279.531 1494.8,-272.906"/>
<text text-anchor="middle" x="1586" y="-268" font-family="Helvetica,sans-Serif" font-size="10.00"> walletModel</text>
</g>
<!-- Node22&#45;&gt;Node27 -->
<g id="edge37" class="edge"><title>Node22&#45;&gt;Node27</title>
<path fill="none" stroke="#9a32cd" stroke-dasharray="5,2" d="M1503.13,-283.843C1541.92,-280.576 1599.16,-278.543 1648,-288 1672.93,-292.828 1699.79,-304.768 1716.96,-313.36"/>
<polygon fill="#9a32cd" stroke="#9a32cd" points="1502.34,-280.4 1492.7,-284.789 1502.98,-287.372 1502.34,-280.4"/>
<text text-anchor="middle" x="1586" y="-291" font-family="Helvetica,sans-Serif" font-size="10.00"> walletModel</text>
</g>
<!-- Node23 -->
<g id="node22" class="node"><title>Node23</title>
<polygon fill="white" stroke="#bfbfbf" points="1205.5,-337.5 1205.5,-356.5 1258.5,-356.5 1258.5,-337.5 1205.5,-337.5"/>
<text text-anchor="middle" x="1232" y="-344.5" font-family="Helvetica,sans-Serif" font-size="10.00">QObject</text>
</g>
<!-- Node23&#45;&gt;Node22 -->
<g id="edge25" class="edge"><title>Node23&#45;&gt;Node22</title>
<path fill="none" stroke="midnightblue" d="M1269.1,-347.21C1301.56,-346.39 1350.12,-342.639 1390,-329 1410.28,-322.063 1430.99,-308.172 1443.67,-298.73"/>
<polygon fill="midnightblue" stroke="midnightblue" points="1268.69,-343.716 1258.75,-347.385 1268.81,-350.715 1268.69,-343.716"/>
</g>
<!-- Node24&#45;&gt;Node22 -->
<g id="edge26" class="edge"><title>Node24&#45;&gt;Node22</title>
<path fill="none" stroke="#9a32cd" stroke-dasharray="5,2" d="M1666.67,-151.735C1621.74,-158.038 1564.05,-172.584 1524,-206 1509.96,-217.716 1516.77,-228.221 1506,-243 1495.67,-257.179 1480.68,-270.737 1470.21,-279.413"/>
<polygon fill="#9a32cd" stroke="#9a32cd" points="1667.17,-155.2 1676.64,-150.441 1666.27,-148.258 1667.17,-155.2"/>
<text text-anchor="middle" x="1586" y="-209" font-family="Helvetica,sans-Serif" font-size="10.00"> transactionTableModel</text>
</g>
<!-- Node24&#45;&gt;Node25 -->
<g id="edge29" class="edge"><title>Node24&#45;&gt;Node25</title>
<path fill="none" stroke="#9a32cd" stroke-dasharray="5,2" d="M1764.22,-132.907C1780.97,-125.042 1803.16,-116.036 1824,-112 1840.22,-108.86 1858.13,-108.092 1874.45,-108.402"/>
<polygon fill="#9a32cd" stroke="#9a32cd" points="1762.51,-129.848 1755.04,-137.36 1765.57,-136.146 1762.51,-129.848"/>
<text text-anchor="middle" x="1840" y="-115" font-family="Helvetica,sans-Serif" font-size="10.00"> parent</text>
</g>
<!-- Node25&#45;&gt;Node24 -->
<g id="edge28" class="edge"><title>Node25&#45;&gt;Node24</title>
<path fill="none" stroke="#9a32cd" stroke-dasharray="5,2" d="M1864.48,-124.308C1840.48,-128.579 1813.44,-133.393 1790.46,-137.484"/>
<polygon fill="#9a32cd" stroke="#9a32cd" points="1865.32,-127.712 1874.55,-122.514 1864.1,-120.821 1865.32,-127.712"/>
<text text-anchor="middle" x="1840" y="-135" font-family="Helvetica,sans-Serif" font-size="10.00"> priv</text>
</g>
<!-- Node26 -->
<g id="node25" class="node"><title>Node26</title>
<g id="a_node25"><a xlink:href="class_platform_style.html" target="_top" xlink:title="PlatformStyle">
<polygon fill="white" stroke="black" points="1419,-112.5 1419,-131.5 1495,-131.5 1495,-112.5 1419,-112.5"/>
<text text-anchor="middle" x="1457" y="-119.5" font-family="Helvetica,sans-Serif" font-size="10.00">PlatformStyle</text>
</a>
</g>
</g>
<!-- Node26&#45;&gt;Node24 -->
<g id="edge31" class="edge"><title>Node26&#45;&gt;Node24</title>
<path fill="none" stroke="#9a32cd" stroke-dasharray="5,2" d="M1505.08,-126.249C1552.54,-130.532 1625.88,-137.151 1676.92,-141.758"/>
<polygon fill="#9a32cd" stroke="#9a32cd" points="1505.34,-122.759 1495.07,-125.346 1504.71,-129.73 1505.34,-122.759"/>
<text text-anchor="middle" x="1586" y="-142" font-family="Helvetica,sans-Serif" font-size="10.00"> platformStyle</text>
</g>
<!-- Node27&#45;&gt;Node22 -->
<g id="edge35" class="edge"><title>Node27&#45;&gt;Node22</title>
<path fill="none" stroke="#9a32cd" stroke-dasharray="5,2" d="M1655.8,-316.179C1616.14,-312.398 1567.44,-307.204 1524,-301 1513.74,-299.534 1502.64,-297.637 1492.52,-295.786"/>
<polygon fill="#9a32cd" stroke="#9a32cd" points="1655.66,-319.681 1665.94,-317.133 1656.31,-312.711 1655.66,-319.681"/>
<text text-anchor="middle" x="1586" y="-319" font-family="Helvetica,sans-Serif" font-size="10.00"> recentRequestsTableModel</text>
</g>
<!-- Node28 -->
<g id="node27" class="node"><title>Node28</title>
<g id="a_node27"><a xlink:href="class_options_model.html" target="_top" xlink:title="Interface from Qt to configuration data structure for Bitcoin client. ">
<polygon fill="white" stroke="black" points="1193.5,-375.5 1193.5,-394.5 1270.5,-394.5 1270.5,-375.5 1193.5,-375.5"/>
<text text-anchor="middle" x="1232" y="-382.5" font-family="Helvetica,sans-Serif" font-size="10.00">OptionsModel</text>
</a>
</g>
</g>
<!-- Node28&#45;&gt;Node22 -->
<g id="edge38" class="edge"><title>Node28&#45;&gt;Node22</title>
<path fill="none" stroke="#9a32cd" stroke-dasharray="5,2" d="M1280.92,-381.812C1313.27,-378.052 1356.09,-369.857 1390,-352 1415.23,-338.716 1437.61,-312.966 1448.67,-298.848"/>
<polygon fill="#9a32cd" stroke="#9a32cd" points="1280.38,-378.349 1270.81,-382.884 1281.12,-385.31 1280.38,-378.349"/>
<text text-anchor="middle" x="1346" y="-381" font-family="Helvetica,sans-Serif" font-size="10.00"> optionsModel</text>
</g>
<!-- Node29 -->
<g id="node28" class="node"><title>Node29</title>
<polygon fill="white" stroke="#bfbfbf" points="1006.5,-363.5 1006.5,-382.5 1109.5,-382.5 1109.5,-363.5 1006.5,-363.5"/>
<text text-anchor="middle" x="1058" y="-370.5" font-family="Helvetica,sans-Serif" font-size="10.00">QAbstractListModel</text>
</g>
<!-- Node29&#45;&gt;Node28 -->
<g id="edge39" class="edge"><title>Node29&#45;&gt;Node28</title>
<path fill="none" stroke="midnightblue" d="M1119.94,-377.252C1144.38,-378.957 1171.77,-380.868 1193.24,-382.366"/>
<polygon fill="midnightblue" stroke="midnightblue" points="1119.89,-373.74 1109.68,-376.535 1119.41,-380.723 1119.89,-373.74"/>
</g>
</g>
</svg>
