<?xml version="1.0" encoding="UTF-8" standalone="no"?>
<!DOCTYPE svg PUBLIC "-//W3C//DTD SVG 1.1//EN"
 "http://www.w3.org/Graphics/SVG/1.1/DTD/svg11.dtd">
<!-- Generated by graphviz version 2.36.0 (20140111.2315)
 -->
<!-- Title: WalletModelTransaction Pages: 1 -->
<!--zoomable 382 -->
<svg id="main" version="1.1" xmlns="http://www.w3.org/2000/svg" xmlns:xlink="http://www.w3.org/1999/xlink" xml:space="preserve" onload="init(evt)">
<style type="text/css"><![CDATA[
.edge:hover path { stroke: red; }
.edge:hover polygon { stroke: red; fill: red; }
]]></style>
<script type="text/javascript"><![CDATA[
var edges = document.getElementsByTagName('g');
if (edges && edges.length) {
  for (var i=0;i<edges.length;i++) {
    if (edges[i].id.substr(0,4)=='edge') {
      edges[i].setAttribute('class','edge');
    }
  }
}
]]></script>
        <defs>
                <circle id="rim" cx="0" cy="0" r="7"/>
                <circle id="rim2" cx="0" cy="0" r="3.5"/>
                <g id="zoomPlus">
                        <use xlink:href="#rim" fill="#404040">
                                <set attributeName="fill" to="#808080" begin="zoomplus.mouseover" end="zoomplus.mouseout"/>
                        </use>
                        <path d="M-4,0h8M0,-4v8" fill="none" stroke="white" stroke-width="1.5" pointer-events="none"/>
                </g>
                <g id="zoomMin">
                        <use xlink:href="#rim" fill="#404040">
                                <set attributeName="fill" to="#808080" begin="zoomminus.mouseover" end="zoomminus.mouseout"/>
                        </use>
                        <path d="M-4,0h8" fill="none" stroke="white" stroke-width="1.5" pointer-events="none"/>
                </g>
                <g id="dirArrow">
                        <path fill="none" stroke="white" stroke-width="1.5" d="M0,-3.0v7 M-2.5,-0.5L0,-3.0L2.5,-0.5"/>
                </g>
               <g id="resetDef">
                       <use xlink:href="#rim2" fill="#404040">
                               <set attributeName="fill" to="#808080" begin="reset.mouseover" end="reset.mouseout"/>
                       </use>
               </g>
        </defs>

<script type="text/javascript">
var viewWidth = 1594;
var viewHeight = 382;
var sectionId = 'dynsection-0';
</script>
<script xlink:href="svgpan.js"/>
<svg id="graph" class="graph">
<g id="viewport">
<title>WalletModelTransaction</title>
<polygon fill="white" stroke="none" points="-4,4 -4,-378 1590,-378 1590,4 -4,4"/>
<!-- Node1 -->
<g id="node1" class="node"><title>Node1</title>
<polygon fill="#bfbfbf" stroke="black" points="1464,-243.5 1464,-262.5 1586,-262.5 1586,-243.5 1464,-243.5"/>
<text text-anchor="middle" x="1525" y="-250.5" font-family="Helvetica,sans-Serif" font-size="10.00">WalletModelTransaction</text>
</g>
<!-- Node2 -->
<g id="node2" class="node"><title>Node2</title>
<g id="a_node2"><a xlink:href="class_c_reserve_key.html" target="_top" xlink:title="A key allocated from the key pool. ">
<polygon fill="white" stroke="black" points="1270,-268.5 1270,-287.5 1348,-287.5 1348,-268.5 1270,-268.5"/>
<text text-anchor="middle" x="1309" y="-275.5" font-family="Helvetica,sans-Serif" font-size="10.00">CReserveKey</text>
</a>
</g>
</g>
<!-- Node2&#45;&gt;Node1 -->
<g id="edge1" class="edge"><title>Node2&#45;&gt;Node1</title>
<path fill="none" stroke="#9a32cd" stroke-dasharray="5,2" d="M1358.46,-272.339C1389.69,-268.69 1430.54,-263.919 1463.84,-260.028"/>
<polygon fill="#9a32cd" stroke="#9a32cd" points="1357.79,-268.894 1348.26,-273.531 1358.6,-275.846 1357.79,-268.894"/>
<text text-anchor="middle" x="1406" y="-275" font-family="Helvetica,sans-Serif" font-size="10.00"> keyChange</text>
</g>
<!-- Node3 -->
<g id="node3" class="node"><title>Node3</title>
<g id="a_node3"><a xlink:href="class_c_reserve_script.html" target="_top" xlink:title="CReserveScript">
<polygon fill="white" stroke="black" points="1114,-349.5 1114,-368.5 1200,-368.5 1200,-349.5 1114,-349.5"/>
<text text-anchor="middle" x="1157" y="-356.5" font-family="Helvetica,sans-Serif" font-size="10.00">CReserveScript</text>
</a>
</g>
</g>
<!-- Node3&#45;&gt;Node2 -->
<g id="edge2" class="edge"><title>Node3&#45;&gt;Node2</title>
<path fill="none" stroke="midnightblue" d="M1210.21,-350.276C1224.37,-346.559 1239.28,-341.326 1252,-334 1272.73,-322.057 1291.15,-300.479 1300.82,-287.88"/>
<polygon fill="midnightblue" stroke="midnightblue" points="1208.98,-346.973 1200.08,-352.723 1210.62,-353.777 1208.98,-346.973"/>
</g>
<!-- Node4 -->
<g id="node4" class="node"><title>Node4</title>
<g id="a_node4"><a xlink:href="class_c_script.html" target="_top" xlink:title="Serialized script, used inside transaction inputs and outputs. ">
<polygon fill="white" stroke="black" points="908,-349.5 908,-368.5 958,-368.5 958,-349.5 908,-349.5"/>
<text text-anchor="middle" x="933" y="-356.5" font-family="Helvetica,sans-Serif" font-size="10.00">CScript</text>
</a>
</g>
</g>
<!-- Node4&#45;&gt;Node3 -->
<g id="edge3" class="edge"><title>Node4&#45;&gt;Node3</title>
<path fill="none" stroke="#9a32cd" stroke-dasharray="5,2" d="M968.281,-359C1007.42,-359 1071.46,-359 1113.68,-359"/>
<polygon fill="#9a32cd" stroke="#9a32cd" points="968.181,-355.5 958.18,-359 968.18,-362.5 968.181,-355.5"/>
<text text-anchor="middle" x="1050" y="-362" font-family="Helvetica,sans-Serif" font-size="10.00"> reserveScript</text>
</g>
<!-- Node5 -->
<g id="node5" class="node"><title>Node5</title>
<g id="a_node5"><a xlink:href="classprevector.html" target="_top" xlink:title="Implements a drop&#45;in replacement for std::vector&lt;T&gt; which stores up to N elements directly (without h...">
<polygon fill="white" stroke="black" points="761,-349.5 761,-368.5 833,-368.5 833,-349.5 761,-349.5"/>
<text text-anchor="middle" x="797" y="-356.5" font-family="Helvetica,sans-Serif" font-size="10.00">CScriptBase</text>
</a>
</g>
</g>
<!-- Node5&#45;&gt;Node4 -->
<g id="edge4" class="edge"><title>Node5&#45;&gt;Node4</title>
<path fill="none" stroke="midnightblue" d="M843.442,-359C864.923,-359 889.714,-359 907.593,-359"/>
<polygon fill="midnightblue" stroke="midnightblue" points="843.207,-355.5 833.207,-359 843.207,-362.5 843.207,-355.5"/>
</g>
<!-- Node6 -->
<g id="node6" class="node"><title>Node6</title>
<g id="a_node6"><a xlink:href="unionprevector_1_1direct__or__indirect.html" target="_top" xlink:title="prevector\&lt; N, T, Size,\l Diff \&gt;::direct_or_indirect">
<polygon fill="white" stroke="black" points="524.5,-344 524.5,-374 649.5,-374 649.5,-344 524.5,-344"/>
<text text-anchor="start" x="532.5" y="-362" font-family="Helvetica,sans-Serif" font-size="10.00">prevector&lt; N, T, Size,</text>
<text text-anchor="middle" x="587" y="-351" font-family="Helvetica,sans-Serif" font-size="10.00"> Diff &gt;::direct_or_indirect</text>
</a>
</g>
</g>
<!-- Node6&#45;&gt;Node5 -->
<g id="edge5" class="edge"><title>Node6&#45;&gt;Node5</title>
<path fill="none" stroke="#9a32cd" stroke-dasharray="5,2" d="M659.972,-359C694.101,-359 733.33,-359 760.863,-359"/>
<polygon fill="#9a32cd" stroke="#9a32cd" points="659.563,-355.5 649.563,-359 659.563,-362.5 659.563,-355.5"/>
<text text-anchor="middle" x="701" y="-362" font-family="Helvetica,sans-Serif" font-size="10.00"> _union</text>
</g>
<!-- Node7 -->
<g id="node7" class="node"><title>Node7</title>
<g id="a_node7"><a xlink:href="class_c_pub_key.html" target="_top" xlink:title="An encapsulated public key. ">
<polygon fill="white" stroke="black" points="903.5,-301.5 903.5,-320.5 962.5,-320.5 962.5,-301.5 903.5,-301.5"/>
<text text-anchor="middle" x="933" y="-308.5" font-family="Helvetica,sans-Serif" font-size="10.00">CPubKey</text>
</a>
</g>
</g>
<!-- Node7&#45;&gt;Node2 -->
<g id="edge6" class="edge"><title>Node7&#45;&gt;Node2</title>
<path fill="none" stroke="#9a32cd" stroke-dasharray="5,2" d="M972.824,-310.895C1005.68,-310.545 1053.99,-309.414 1096,-306 1157.06,-301.038 1227.48,-290.841 1269.83,-284.218"/>
<polygon fill="#9a32cd" stroke="#9a32cd" points="972.696,-307.396 962.727,-310.983 972.757,-314.396 972.696,-307.396"/>
<text text-anchor="middle" x="1157" y="-308" font-family="Helvetica,sans-Serif" font-size="10.00"> vchPubKey</text>
</g>
<!-- Node8 -->
<g id="node8" class="node"><title>Node8</title>
<g id="a_node8"><a xlink:href="class_c_wallet.html" target="_top" xlink:title="A CWallet is an extension of a keystore, which also maintains a set of transactions and balances...">
<polygon fill="white" stroke="black" points="1131,-214.5 1131,-233.5 1183,-233.5 1183,-214.5 1131,-214.5"/>
<text text-anchor="middle" x="1157" y="-221.5" font-family="Helvetica,sans-Serif" font-size="10.00">CWallet</text>
</a>
</g>
</g>
<!-- Node7&#45;&gt;Node8 -->
<g id="edge21" class="edge"><title>Node7&#45;&gt;Node8</title>
<path fill="none" stroke="#9a32cd" stroke-dasharray="5,2" d="M972.6,-301.555C1016.87,-290.596 1084.83,-273.343 1096,-268 1114.88,-258.971 1133.89,-243.75 1145.31,-233.789"/>
<polygon fill="#9a32cd" stroke="#9a32cd" points="971.592,-298.199 962.722,-303.993 973.27,-304.995 971.592,-298.199"/>
<text text-anchor="middle" x="1050" y="-297" font-family="Helvetica,sans-Serif" font-size="10.00"> vchDefaultKey</text>
</g>
<!-- Node8&#45;&gt;Node2 -->
<g id="edge7" class="edge"><title>Node8&#45;&gt;Node2</title>
<path fill="none" stroke="#9a32cd" stroke-dasharray="5,2" d="M1192.59,-236.453C1219.68,-246.205 1256.8,-259.568 1281.55,-268.477"/>
<polygon fill="#9a32cd" stroke="#9a32cd" points="1193.7,-233.133 1183.11,-233.038 1191.33,-239.719 1193.7,-233.133"/>
<text text-anchor="middle" x="1235" y="-261" font-family="Helvetica,sans-Serif" font-size="10.00"> pwallet</text>
</g>
<!-- Node22 -->
<g id="node22" class="node"><title>Node22</title>
<g id="a_node22"><a xlink:href="class_c_wallet_tx.html" target="_top" xlink:title="A transaction with a bunch of additional info that only the owner cares about. ">
<polygon fill="white" stroke="black" points="1277.5,-214.5 1277.5,-233.5 1340.5,-233.5 1340.5,-214.5 1277.5,-214.5"/>
<text text-anchor="middle" x="1309" y="-221.5" font-family="Helvetica,sans-Serif" font-size="10.00">CWalletTx</text>
</a>
</g>
</g>
<!-- Node8&#45;&gt;Node22 -->
<g id="edge28" class="edge"><title>Node8&#45;&gt;Node22</title>
<path fill="none" stroke="#9a32cd" stroke-dasharray="5,2" d="M1193.12,-224C1218.67,-224 1252.92,-224 1277.36,-224"/>
<polygon fill="#9a32cd" stroke="#9a32cd" points="1193.11,-220.5 1183.11,-224 1193.11,-227.5 1193.11,-220.5"/>
<text text-anchor="middle" x="1235" y="-227" font-family="Helvetica,sans-Serif" font-size="10.00"> pwallet</text>
</g>
<!-- Node9 -->
<g id="node9" class="node"><title>Node9</title>
<g id="a_node9"><a xlink:href="class_c_crypto_key_store.html" target="_top" xlink:title="Keystore which keeps the private keys encrypted. ">
<polygon fill="white" stroke="black" points="886,-92.5 886,-111.5 980,-111.5 980,-92.5 886,-92.5"/>
<text text-anchor="middle" x="933" y="-99.5" font-family="Helvetica,sans-Serif" font-size="10.00">CCryptoKeyStore</text>
</a>
</g>
</g>
<!-- Node9&#45;&gt;Node8 -->
<g id="edge8" class="edge"><title>Node9&#45;&gt;Node8</title>
<path fill="none" stroke="midnightblue" d="M990.176,-103.008C1023.37,-106.014 1064.86,-114.183 1096,-135 1126.05,-155.092 1145.01,-195.843 1152.44,-214.403"/>
<polygon fill="midnightblue" stroke="midnightblue" points="990.402,-99.5146 980.161,-102.232 989.861,-106.494 990.402,-99.5146"/>
</g>
<!-- Node10 -->
<g id="node10" class="node"><title>Node10</title>
<g id="a_node10"><a xlink:href="class_c_basic_key_store.html" target="_top" xlink:title="Basic key store, that keeps keys in an address&#45;&gt;secret map. ">
<polygon fill="white" stroke="black" points="752.5,-92.5 752.5,-111.5 841.5,-111.5 841.5,-92.5 752.5,-92.5"/>
<text text-anchor="middle" x="797" y="-99.5" font-family="Helvetica,sans-Serif" font-size="10.00">CBasicKeyStore</text>
</a>
</g>
</g>
<!-- Node10&#45;&gt;Node9 -->
<g id="edge9" class="edge"><title>Node10&#45;&gt;Node9</title>
<path fill="none" stroke="midnightblue" d="M851.727,-102C863.061,-102 874.923,-102 885.945,-102"/>
<polygon fill="midnightblue" stroke="midnightblue" points="851.506,-98.5001 841.506,-102 851.506,-105.5 851.506,-98.5001"/>
</g>
<!-- Node11 -->
<g id="node11" class="node"><title>Node11</title>
<g id="a_node11"><a xlink:href="class_c_key_store.html" target="_top" xlink:title="A virtual base class for key stores. ">
<polygon fill="white" stroke="black" points="554.5,-101.5 554.5,-120.5 619.5,-120.5 619.5,-101.5 554.5,-101.5"/>
<text text-anchor="middle" x="587" y="-108.5" font-family="Helvetica,sans-Serif" font-size="10.00">CKeyStore</text>
</a>
</g>
</g>
<!-- Node11&#45;&gt;Node10 -->
<g id="edge10" class="edge"><title>Node11&#45;&gt;Node10</title>
<path fill="none" stroke="midnightblue" d="M629.87,-109.901C659.065,-109.053 698.918,-107.732 734,-106 739.925,-105.707 746.166,-105.356 752.314,-104.984"/>
<polygon fill="midnightblue" stroke="midnightblue" points="629.521,-106.41 619.624,-110.192 629.72,-113.407 629.521,-106.41"/>
</g>
<!-- Node12 -->
<g id="node12" class="node"><title>Node12</title>
<g id="a_node12"><a xlink:href="class_c_critical_section.html" target="_top" xlink:title="Wrapped boost mutex: supports recursive locking, but no waiting TODO: We should move away from using ...">
<polygon fill="white" stroke="black" points="314,-113.5 314,-132.5 402,-132.5 402,-113.5 314,-113.5"/>
<text text-anchor="middle" x="358" y="-120.5" font-family="Helvetica,sans-Serif" font-size="10.00">CCriticalSection</text>
</a>
</g>
</g>
<!-- Node12&#45;&gt;Node8 -->
<g id="edge22" class="edge"><title>Node12&#45;&gt;Node8</title>
<path fill="none" stroke="#9a32cd" stroke-dasharray="5,2" d="M412.295,-133.838C414.896,-134.256 417.475,-134.646 420,-135 493.324,-145.272 511.96,-149 586,-149 586,-149 586,-149 934,-149 1014.75,-149 1103.75,-194.092 1139.65,-214.349"/>
<polygon fill="#9a32cd" stroke="#9a32cd" points="412.669,-130.351 402.221,-132.113 411.487,-137.25 412.669,-130.351"/>
<text text-anchor="middle" x="797" y="-152" font-family="Helvetica,sans-Serif" font-size="10.00"> cs_wallet</text>
</g>
<!-- Node12&#45;&gt;Node11 -->
<g id="edge11" class="edge"><title>Node12&#45;&gt;Node11</title>
<path fill="none" stroke="#9a32cd" stroke-dasharray="5,2" d="M412.482,-120.173C456.55,-117.843 517.564,-114.618 554.266,-112.678"/>
<polygon fill="#9a32cd" stroke="#9a32cd" points="412.033,-116.692 402.231,-120.715 412.402,-123.682 412.033,-116.692"/>
<text text-anchor="middle" x="463" y="-123" font-family="Helvetica,sans-Serif" font-size="10.00"> cs_KeyStore</text>
</g>
<!-- Node15 -->
<g id="node15" class="node"><title>Node15</title>
<g id="a_node15"><a xlink:href="class_c_h_d_chain.html" target="_top" xlink:title="CHDChain">
<polygon fill="white" stroke="black" points="554.5,-57.5 554.5,-76.5 619.5,-76.5 619.5,-57.5 554.5,-57.5"/>
<text text-anchor="middle" x="587" y="-64.5" font-family="Helvetica,sans-Serif" font-size="10.00">CHDChain</text>
</a>
</g>
</g>
<!-- Node12&#45;&gt;Node15 -->
<g id="edge17" class="edge"><title>Node12&#45;&gt;Node15</title>
<path fill="none" stroke="#9a32cd" stroke-dasharray="5,2" d="M392.652,-109.883C401.47,-106.718 411.023,-103.524 420,-101 466.161,-88.0215 520.837,-77.7864 554.471,-72.0627"/>
<polygon fill="#9a32cd" stroke="#9a32cd" points="391.254,-106.669 383.08,-113.409 393.673,-113.237 391.254,-106.669"/>
<text text-anchor="middle" x="463" y="-104" font-family="Helvetica,sans-Serif" font-size="10.00"> cs_accounts</text>
</g>
<!-- Node13 -->
<g id="node13" class="node"><title>Node13</title>
<polygon fill="white" stroke="#bfbfbf" points="158.5,-108 158.5,-138 275.5,-138 275.5,-108 158.5,-108"/>
<text text-anchor="start" x="166.5" y="-126" font-family="Helvetica,sans-Serif" font-size="10.00">AnnotatedMixin&lt; boost</text>
<text text-anchor="middle" x="217" y="-115" font-family="Helvetica,sans-Serif" font-size="10.00">::recursive_mutex &gt;</text>
</g>
<!-- Node13&#45;&gt;Node12 -->
<g id="edge12" class="edge"><title>Node13&#45;&gt;Node12</title>
<path fill="none" stroke="midnightblue" d="M285.927,-123C295.358,-123 304.827,-123 313.64,-123"/>
<polygon fill="midnightblue" stroke="midnightblue" points="285.741,-119.5 275.741,-123 285.741,-126.5 285.741,-119.5"/>
</g>
<!-- Node14 -->
<g id="node14" class="node"><title>Node14</title>
<polygon fill="white" stroke="#bfbfbf" points="0.5,-113.5 0.5,-132.5 119.5,-132.5 119.5,-113.5 0.5,-113.5"/>
<text text-anchor="middle" x="60" y="-120.5" font-family="Helvetica,sans-Serif" font-size="10.00">boost::recursive_mutex</text>
</g>
<!-- Node14&#45;&gt;Node13 -->
<g id="edge13" class="edge"><title>Node14&#45;&gt;Node13</title>
<path fill="none" stroke="midnightblue" d="M129.834,-123C139.356,-123 149.055,-123 158.346,-123"/>
<polygon fill="midnightblue" stroke="midnightblue" points="129.599,-119.5 119.599,-123 129.599,-126.5 129.599,-119.5"/>
</g>
<!-- Node15&#45;&gt;Node9 -->
<g id="edge18" class="edge"><title>Node15&#45;&gt;Node9</title>
<path fill="none" stroke="#9a32cd" stroke-dasharray="5,2" d="M629.796,-63.9968C680.435,-61.2346 768.148,-59.2682 842,-72 865.697,-76.0852 891.638,-85.2684 909.555,-92.406"/>
<polygon fill="#9a32cd" stroke="#9a32cd" points="629.35,-60.5168 619.571,-64.5933 629.758,-67.5049 629.35,-60.5168"/>
<text text-anchor="middle" x="797" y="-75" font-family="Helvetica,sans-Serif" font-size="10.00"> cryptedHDChain</text>
</g>
<!-- Node15&#45;&gt;Node10 -->
<g id="edge14" class="edge"><title>Node15&#45;&gt;Node10</title>
<path fill="none" stroke="#9a32cd" stroke-dasharray="5,2" d="M629.625,-74.0041C665.122,-79.9773 715.996,-88.5378 752.125,-94.6172"/>
<polygon fill="#9a32cd" stroke="#9a32cd" points="630.033,-70.5237 619.591,-72.3157 628.871,-77.4267 630.033,-70.5237"/>
<text text-anchor="middle" x="701" y="-94" font-family="Helvetica,sans-Serif" font-size="10.00"> hdChain</text>
</g>
<!-- Node16 -->
<g id="node16" class="node"><title>Node16</title>
<g id="a_node16"><a xlink:href="classuint256.html" target="_top" xlink:title="256&#45;bit opaque blob. ">
<polygon fill="white" stroke="black" points="334,-23.5 334,-42.5 382,-42.5 382,-23.5 334,-23.5"/>
<text text-anchor="middle" x="358" y="-30.5" font-family="Helvetica,sans-Serif" font-size="10.00">uint256</text>
</a>
</g>
</g>
<!-- Node16&#45;&gt;Node15 -->
<g id="edge15" class="edge"><title>Node16&#45;&gt;Node15</title>
<path fill="none" stroke="#9a32cd" stroke-dasharray="5,2" d="M392.073,-37.9537C435.554,-44.4662 511.424,-55.83 554.241,-62.2431"/>
<polygon fill="#9a32cd" stroke="#9a32cd" points="392.423,-34.4672 382.015,-36.4472 391.386,-41.39 392.423,-34.4672"/>
<text text-anchor="middle" x="463" y="-58" font-family="Helvetica,sans-Serif" font-size="10.00"> id</text>
</g>
<!-- Node23 -->
<g id="node23" class="node"><title>Node23</title>
<g id="a_node23"><a xlink:href="class_c_merkle_tx.html" target="_top" xlink:title="A transaction with a merkle branch linking it to the block chain. ">
<polygon fill="white" stroke="black" points="668.5,-0.5 668.5,-19.5 733.5,-19.5 733.5,-0.5 668.5,-0.5"/>
<text text-anchor="middle" x="701" y="-7.5" font-family="Helvetica,sans-Serif" font-size="10.00">CMerkleTx</text>
</a>
</g>
</g>
<!-- Node16&#45;&gt;Node23 -->
<g id="edge27" class="edge"><title>Node16&#45;&gt;Node23</title>
<path fill="none" stroke="#9a32cd" stroke-dasharray="5,2" d="M391.993,-23.5315C401.002,-21.3189 410.813,-19.2463 420,-18 509.392,-5.8728 616.252,-7.12009 668.329,-8.72681"/>
<polygon fill="#9a32cd" stroke="#9a32cd" points="391.045,-20.1615 382.239,-26.0527 392.797,-26.9387 391.045,-20.1615"/>
<text text-anchor="middle" x="463" y="-32" font-family="Helvetica,sans-Serif" font-size="10.00"> hashBlock</text>
<text text-anchor="middle" x="463" y="-21" font-family="Helvetica,sans-Serif" font-size="10.00">ABANDON_HASH</text>
</g>
<!-- Node17 -->
<g id="node17" class="node"><title>Node17</title>
<g id="a_node17"><a xlink:href="classbase__blob.html" target="_top" xlink:title="base_blob\&lt; 256 \&gt;">
<polygon fill="white" stroke="black" points="169.5,-23.5 169.5,-42.5 264.5,-42.5 264.5,-23.5 169.5,-23.5"/>
<text text-anchor="middle" x="217" y="-30.5" font-family="Helvetica,sans-Serif" font-size="10.00">base_blob&lt; 256 &gt;</text>
</a>
</g>
</g>
<!-- Node17&#45;&gt;Node16 -->
<g id="edge16" class="edge"><title>Node17&#45;&gt;Node16</title>
<path fill="none" stroke="midnightblue" d="M274.928,-33C295.493,-33 317.576,-33 333.65,-33"/>
<polygon fill="midnightblue" stroke="midnightblue" points="274.672,-29.5001 264.672,-33 274.672,-36.5001 274.672,-29.5001"/>
</g>
<!-- Node18 -->
<g id="node18" class="node"><title>Node18</title>
<g id="a_node18"><a xlink:href="class_c_validation_interface.html" target="_top" xlink:title="CValidationInterface">
<polygon fill="white" stroke="black" points="880.5,-253.5 880.5,-272.5 985.5,-272.5 985.5,-253.5 880.5,-253.5"/>
<text text-anchor="middle" x="933" y="-260.5" font-family="Helvetica,sans-Serif" font-size="10.00">CValidationInterface</text>
</a>
</g>
</g>
<!-- Node18&#45;&gt;Node8 -->
<g id="edge19" class="edge"><title>Node18&#45;&gt;Node8</title>
<path fill="none" stroke="midnightblue" d="M995.722,-260.787C1026.22,-258.715 1063.38,-254.715 1096,-247 1109.35,-243.842 1123.73,-238.409 1135.06,-233.616"/>
<polygon fill="midnightblue" stroke="midnightblue" points="995.413,-257.3 985.652,-261.419 995.851,-264.286 995.413,-257.3"/>
</g>
<!-- Node19 -->
<g id="node19" class="node"><title>Node19</title>
<g id="a_node19"><a xlink:href="class_c_fee_rate.html" target="_top" xlink:title="Fee rate in satoshis per kilobyte: CAmount / kB. ">
<polygon fill="white" stroke="black" points="902,-215.5 902,-234.5 964,-234.5 964,-215.5 902,-215.5"/>
<text text-anchor="middle" x="933" y="-222.5" font-family="Helvetica,sans-Serif" font-size="10.00">CFeeRate</text>
</a>
</g>
</g>
<!-- Node19&#45;&gt;Node8 -->
<g id="edge20" class="edge"><title>Node19&#45;&gt;Node8</title>
<path fill="none" stroke="#9a32cd" stroke-dasharray="5,2" d="M974.53,-224.817C1020.09,-224.612 1092.67,-224.285 1130.77,-224.114"/>
<polygon fill="#9a32cd" stroke="#9a32cd" points="974.387,-221.318 964.403,-224.863 974.418,-228.318 974.387,-221.318"/>
<text text-anchor="middle" x="1050" y="-239" font-family="Helvetica,sans-Serif" font-size="10.00"> minTxFee</text>
<text text-anchor="middle" x="1050" y="-228" font-family="Helvetica,sans-Serif" font-size="10.00">fallbackFee</text>
</g>
<!-- Node20 -->
<g id="node20" class="node"><title>Node20</title>
<g id="a_node20"><a xlink:href="class_c_wallet_d_b.html" target="_top" xlink:title="Access to the wallet database. ">
<polygon fill="white" stroke="black" points="900,-177.5 900,-196.5 966,-196.5 966,-177.5 900,-177.5"/>
<text text-anchor="middle" x="933" y="-184.5" font-family="Helvetica,sans-Serif" font-size="10.00">CWalletDB</text>
</a>
</g>
</g>
<!-- Node20&#45;&gt;Node8 -->
<g id="edge23" class="edge"><title>Node20&#45;&gt;Node8</title>
<path fill="none" stroke="#9a32cd" stroke-dasharray="5,2" d="M976.241,-191.961C1009.03,-196.061 1055.56,-202.427 1096,-210 1107.57,-212.166 1120.27,-215.055 1131,-217.647"/>
<polygon fill="#9a32cd" stroke="#9a32cd" points="976.457,-188.461 966.104,-190.71 975.6,-195.408 976.457,-188.461"/>
<text text-anchor="middle" x="1050" y="-213" font-family="Helvetica,sans-Serif" font-size="10.00"> pwalletdbEncryption</text>
</g>
<!-- Node21 -->
<g id="node21" class="node"><title>Node21</title>
<g id="a_node21"><a xlink:href="class_c_d_b.html" target="_top" xlink:title="RAII class that provides access to a Berkeley database. ">
<polygon fill="white" stroke="black" points="778,-178.5 778,-197.5 816,-197.5 816,-178.5 778,-178.5"/>
<text text-anchor="middle" x="797" y="-185.5" font-family="Helvetica,sans-Serif" font-size="10.00">CDB</text>
</a>
</g>
</g>
<!-- Node21&#45;&gt;Node20 -->
<g id="edge24" class="edge"><title>Node21&#45;&gt;Node20</title>
<path fill="none" stroke="midnightblue" d="M826.211,-187.789C847.737,-187.629 877.412,-187.407 899.856,-187.24"/>
<polygon fill="midnightblue" stroke="midnightblue" points="826.045,-184.291 816.072,-187.865 826.098,-191.29 826.045,-184.291"/>
</g>
<!-- Node22&#45;&gt;Node1 -->
<g id="edge25" class="edge"><title>Node22&#45;&gt;Node1</title>
<path fill="none" stroke="#9a32cd" stroke-dasharray="5,2" d="M1350.97,-229.552C1382.93,-233.883 1427.78,-239.961 1463.82,-244.844"/>
<polygon fill="#9a32cd" stroke="#9a32cd" points="1351.04,-226.03 1340.66,-228.155 1350.1,-232.966 1351.04,-226.03"/>
<text text-anchor="middle" x="1406" y="-245" font-family="Helvetica,sans-Serif" font-size="10.00"> walletTransaction</text>
</g>
<!-- Node23&#45;&gt;Node22 -->
<g id="edge26" class="edge"><title>Node23&#45;&gt;Node22</title>
<path fill="none" stroke="midnightblue" d="M744.048,-10.4108C775.882,-10.6867 820.691,-11 860,-11 860,-11 860,-11 1158,-11 1258.86,-11 1297.82,-172.625 1306.19,-214.294"/>
<polygon fill="midnightblue" stroke="midnightblue" points="743.807,-6.90858 733.776,-10.3192 743.744,-13.9083 743.807,-6.90858"/>
</g>
</g>
</svg>
        <g id="navigator" transform="translate(0 0)" fill="#404254">
                <rect fill="#f2f5e9" fill-opacity="0.5" stroke="#606060" stroke-width=".5" x="0" y="0" width="60" height="60"/>
                <use id="zoomplus" xlink:href="#zoomPlus" x="17" y="9" onmousedown="handleZoom(evt,'in')"/>
                <use id="zoomminus" xlink:href="#zoomMin" x="42" y="9" onmousedown="handleZoom(evt,'out')"/>
                <use id="reset" xlink:href="#resetDef" x="30" y="36" onmousedown="handleReset()"/>
                <g id="arrowUp" xlink:href="#dirArrow" transform="translate(30 24)" onmousedown="handlePan(0,-1)">
                  <use xlink:href="#rim" fill="#404040">
                        <set attributeName="fill" to="#808080" begin="arrowUp.mouseover" end="arrowUp.mouseout"/>
                  </use>
                  <path fill="none" stroke="white" stroke-width="1.5" d="M0,-3.0v7 M-2.5,-0.5L0,-3.0L2.5,-0.5"/>
                </g>
                <g id="arrowRight" xlink:href="#dirArrow" transform="rotate(90) translate(36 -43)" onmousedown="handlePan(1,0)">
                  <use xlink:href="#rim" fill="#404040">
                        <set attributeName="fill" to="#808080" begin="arrowRight.mouseover" end="arrowRight.mouseout"/>
                  </use>
                  <path fill="none" stroke="white" stroke-width="1.5" d="M0,-3.0v7 M-2.5,-0.5L0,-3.0L2.5,-0.5"/>
                </g>
                <g id="arrowDown" xlink:href="#dirArrow" transform="rotate(180) translate(-30 -48)" onmousedown="handlePan(0,1)">
                  <use xlink:href="#rim" fill="#404040">
                        <set attributeName="fill" to="#808080" begin="arrowDown.mouseover" end="arrowDown.mouseout"/>
                  </use>
                  <path fill="none" stroke="white" stroke-width="1.5" d="M0,-3.0v7 M-2.5,-0.5L0,-3.0L2.5,-0.5"/>
                </g>
                <g id="arrowLeft" xlink:href="#dirArrow" transform="rotate(270) translate(-36 17)" onmousedown="handlePan(-1,0)">
                  <use xlink:href="#rim" fill="#404040">
                        <set attributeName="fill" to="#808080" begin="arrowLeft.mouseover" end="arrowLeft.mouseout"/>
                  </use>
                  <path fill="none" stroke="white" stroke-width="1.5" d="M0,-3.0v7 M-2.5,-0.5L0,-3.0L2.5,-0.5"/>
                </g>
        </g>
        <svg viewBox="0 0 15 15" width="100%" height="30px" preserveAspectRatio="xMaxYMin meet">
         <g id="arrow_out" transform="scale(0.3 0.3)">
          <a xlink:href="class_wallet_model_transaction__coll__graph_org.svg" target="_base">
           <rect id="button" ry="5" rx="5" y="6" x="6" height="38" width="38"
                fill="#f2f5e9" fill-opacity="0.5" stroke="#606060" stroke-width="1.0"/>
           <path id="arrow"
             d="M 11.500037,31.436501 C 11.940474,20.09759 22.043105,11.32322 32.158766,21.979434 L 37.068811,17.246167 C 37.068811,17.246167 37.088388,32 37.088388,32 L 22.160133,31.978069 C 22.160133,31.978069 26.997745,27.140456 26.997745,27.140456 C 18.528582,18.264221 13.291696,25.230495 11.500037,31.436501 z"
             style="fill:#404040;"/>
          </a>
         </g>
        </svg>
</svg>
