<?xml version="1.0" encoding="UTF-8" standalone="no"?>
<!DOCTYPE svg PUBLIC "-//W3C//DTD SVG 1.1//EN"
 "http://www.w3.org/Graphics/SVG/1.1/DTD/svg11.dtd">
<!-- Generated by graphviz version 2.36.0 (20140111.2315)
 -->
<!-- Title: CTxMemPoolEntry Pages: 1 -->
<svg width="306pt" height="302pt"
 viewBox="0.00 0.00 306.00 302.00" xmlns="http://www.w3.org/2000/svg" xmlns:xlink="http://www.w3.org/1999/xlink">
<g id="graph0" class="graph" transform="scale(1 1) rotate(0) translate(4 298)">
<title>CTxMemPoolEntry</title>
<polygon fill="white" stroke="none" points="-4,4 -4,-298 302,-298 302,4 -4,4"/>
<!-- Node1 -->
<g id="node1" class="node"><title>Node1</title>
<polygon fill="#bfbfbf" stroke="black" points="127,-0.5 127,-19.5 227,-19.5 227,-0.5 127,-0.5"/>
<text text-anchor="middle" x="177" y="-7.5" font-family="Helvetica,sans-Serif" font-size="10.00">CTxMemPoolEntry</text>
</g>
<!-- Node2 -->
<g id="node2" class="node"><title>Node2</title>
<g id="a_node2"><a xlink:href="classuint256.html" target="_top" xlink:title="256&#45;bit opaque blob. ">
<polygon fill="white" stroke="black" points="162,-216.5 162,-235.5 210,-235.5 210,-216.5 162,-216.5"/>
<text text-anchor="middle" x="186" y="-223.5" font-family="Helvetica,sans-Serif" font-size="10.00">uint256</text>
</a>
</g>
</g>
<!-- Node2&#45;&gt;Node1 -->
<g id="edge1" class="edge"><title>Node2&#45;&gt;Node1</title>
<path fill="none" stroke="#9a32cd" stroke-dasharray="5,2" d="M196.598,-207.463C198.003,-204.404 199.224,-201.181 200,-198 216.846,-128.913 224.57,-104.732 200,-38 197.447,-31.0658 192.234,-24.6998 187.415,-19.893"/>
<polygon fill="#9a32cd" stroke="#9a32cd" points="193.435,-205.957 191.799,-216.425 199.606,-209.262 193.435,-205.957"/>
<text text-anchor="middle" x="257" y="-109.5" font-family="Helvetica,sans-Serif" font-size="10.00"> validForProTxKey</text>
</g>
<!-- Node5 -->
<g id="node5" class="node"><title>Node5</title>
<g id="a_node5"><a xlink:href="class_c_block_index.html" target="_top" xlink:title="The block chain is a tree shaped structure starting with the genesis block at the root...">
<polygon fill="white" stroke="black" points="67.5,-137.5 67.5,-156.5 140.5,-156.5 140.5,-137.5 67.5,-137.5"/>
<text text-anchor="middle" x="104" y="-144.5" font-family="Helvetica,sans-Serif" font-size="10.00">CBlockIndex</text>
</a>
</g>
</g>
<!-- Node2&#45;&gt;Node5 -->
<g id="edge6" class="edge"><title>Node2&#45;&gt;Node5</title>
<path fill="none" stroke="#9a32cd" stroke-dasharray="5,2" d="M152.425,-214.068C143.703,-210.044 134.846,-204.765 128,-198 116.22,-186.359 109.435,-167.79 106.251,-156.857"/>
<polygon fill="#9a32cd" stroke="#9a32cd" points="151.159,-217.332 161.735,-217.952 153.854,-210.872 151.159,-217.332"/>
<text text-anchor="middle" x="164" y="-190" font-family="Helvetica,sans-Serif" font-size="10.00"> phashBlock</text>
<text text-anchor="middle" x="164" y="-179" font-family="Helvetica,sans-Serif" font-size="10.00">hashMerkleRoot</text>
</g>
<!-- Node3 -->
<g id="node3" class="node"><title>Node3</title>
<g id="a_node3"><a xlink:href="classbase__blob.html" target="_top" xlink:title="base_blob\&lt; 256 \&gt;">
<polygon fill="white" stroke="black" points="138.5,-274.5 138.5,-293.5 233.5,-293.5 233.5,-274.5 138.5,-274.5"/>
<text text-anchor="middle" x="186" y="-281.5" font-family="Helvetica,sans-Serif" font-size="10.00">base_blob&lt; 256 &gt;</text>
</a>
</g>
</g>
<!-- Node3&#45;&gt;Node2 -->
<g id="edge2" class="edge"><title>Node3&#45;&gt;Node2</title>
<path fill="none" stroke="midnightblue" d="M186,-263.953C186,-254.287 186,-243.031 186,-235.505"/>
<polygon fill="midnightblue" stroke="midnightblue" points="182.5,-264.25 186,-274.25 189.5,-264.25 182.5,-264.25"/>
</g>
<!-- Node4 -->
<g id="node4" class="node"><title>Node4</title>
<g id="a_node4"><a xlink:href="struct_lock_points.html" target="_top" xlink:title="LockPoints">
<polygon fill="white" stroke="black" points="90.5,-68.5 90.5,-87.5 155.5,-87.5 155.5,-68.5 90.5,-68.5"/>
<text text-anchor="middle" x="123" y="-75.5" font-family="Helvetica,sans-Serif" font-size="10.00">LockPoints</text>
</a>
</g>
</g>
<!-- Node4&#45;&gt;Node1 -->
<g id="edge3" class="edge"><title>Node4&#45;&gt;Node1</title>
<path fill="none" stroke="#9a32cd" stroke-dasharray="5,2" d="M134.579,-59.7565C139.436,-52.8267 145.278,-44.8682 151,-38 156.332,-31.6003 162.832,-24.8503 167.999,-19.7002"/>
<polygon fill="#9a32cd" stroke="#9a32cd" points="131.441,-58.1435 128.67,-68.3695 137.213,-62.1037 131.441,-58.1435"/>
<text text-anchor="middle" x="175.5" y="-41.5" font-family="Helvetica,sans-Serif" font-size="10.00"> lockPoints</text>
</g>
<!-- Node5&#45;&gt;Node4 -->
<g id="edge4" class="edge"><title>Node5&#45;&gt;Node4</title>
<path fill="none" stroke="#9a32cd" stroke-dasharray="5,2" d="M109.272,-127.411C112.97,-114.37 117.742,-97.5418 120.576,-87.5494"/>
<polygon fill="#9a32cd" stroke="#9a32cd" points="105.845,-126.665 106.484,-137.241 112.579,-128.575 105.845,-126.665"/>
<text text-anchor="middle" x="150.5" y="-109.5" font-family="Helvetica,sans-Serif" font-size="10.00"> maxInputBlock</text>
</g>
<!-- Node5&#45;&gt;Node5 -->
<g id="edge5" class="edge"><title>Node5&#45;&gt;Node5</title>
<path fill="none" stroke="#9a32cd" stroke-dasharray="5,2" d="M150.79,-152.124C155.208,-151.075 158,-149.367 158,-147 158,-143.115 150.48,-141.006 140.596,-140.672"/>
<polygon fill="#9a32cd" stroke="#9a32cd" points="150.117,-148.679 140.596,-153.328 150.938,-155.631 150.117,-148.679"/>
<text text-anchor="middle" x="171.5" y="-150" font-family="Helvetica,sans-Serif" font-size="10.00"> pskip</text>
<text text-anchor="middle" x="171.5" y="-139" font-family="Helvetica,sans-Serif" font-size="10.00">pprev</text>
</g>
<!-- Node6 -->
<g id="node6" class="node"><title>Node6</title>
<g id="a_node6"><a xlink:href="classarith__uint256.html" target="_top" xlink:title="256&#45;bit unsigned big integer. ">
<polygon fill="white" stroke="black" points="10,-216.5 10,-235.5 82,-235.5 82,-216.5 10,-216.5"/>
<text text-anchor="middle" x="46" y="-223.5" font-family="Helvetica,sans-Serif" font-size="10.00">arith_uint256</text>
</a>
</g>
</g>
<!-- Node6&#45;&gt;Node5 -->
<g id="edge7" class="edge"><title>Node6&#45;&gt;Node5</title>
<path fill="none" stroke="#9a32cd" stroke-dasharray="5,2" d="M41.9887,-206.334C40.922,-196.581 41.3526,-184.863 47,-176 52.7468,-166.981 62.3221,-160.776 71.9995,-156.549"/>
<polygon fill="#9a32cd" stroke="#9a32cd" points="38.5449,-206.962 43.6312,-216.256 45.4509,-205.819 38.5449,-206.962"/>
<text text-anchor="middle" x="76" y="-184.5" font-family="Helvetica,sans-Serif" font-size="10.00"> nChainWork</text>
</g>
<!-- Node7 -->
<g id="node7" class="node"><title>Node7</title>
<g id="a_node7"><a xlink:href="classbase__uint.html" target="_top" xlink:title="base_uint\&lt; 256 \&gt;">
<polygon fill="white" stroke="black" points="0,-274.5 0,-293.5 92,-293.5 92,-274.5 0,-274.5"/>
<text text-anchor="middle" x="46" y="-281.5" font-family="Helvetica,sans-Serif" font-size="10.00">base_uint&lt; 256 &gt;</text>
</a>
</g>
</g>
<!-- Node7&#45;&gt;Node6 -->
<g id="edge8" class="edge"><title>Node7&#45;&gt;Node6</title>
<path fill="none" stroke="midnightblue" d="M46,-263.953C46,-254.287 46,-243.031 46,-235.505"/>
<polygon fill="midnightblue" stroke="midnightblue" points="42.5001,-264.25 46,-274.25 49.5001,-264.25 42.5001,-264.25"/>
</g>
</g>
</svg>
