<?xml version="1.0" encoding="UTF-8" standalone="no"?>
<!DOCTYPE svg PUBLIC "-//W3C//DTD SVG 1.1//EN"
 "http://www.w3.org/Graphics/SVG/1.1/DTD/svg11.dtd">
<!-- Generated by graphviz version 2.36.0 (20140111.2315)
 -->
<!-- Title: CPrivateSendBroadcastTx Pages: 1 -->
<svg width="165pt" height="222pt"
 viewBox="0.00 0.00 165.00 222.00" xmlns="http://www.w3.org/2000/svg" xmlns:xlink="http://www.w3.org/1999/xlink">
<g id="graph0" class="graph" transform="scale(1 1) rotate(0) translate(4 218)">
<title>CPrivateSendBroadcastTx</title>
<polygon fill="white" stroke="none" points="-4,4 -4,-218 161,-218 161,4 -4,4"/>
<!-- Node1 -->
<g id="node1" class="node"><title>Node1</title>
<polygon fill="#bfbfbf" stroke="black" points="-0.5,-0.5 -0.5,-19.5 132.5,-19.5 132.5,-0.5 -0.5,-0.5"/>
<text text-anchor="middle" x="66" y="-7.5" font-family="Helvetica,sans-Serif" font-size="10.00">CPrivateSendBroadcastTx</text>
</g>
<!-- Node2 -->
<g id="node2" class="node"><title>Node2</title>
<g id="a_node2"><a xlink:href="class_c_out_point.html" target="_top" xlink:title="An outpoint &#45; a combination of a transaction hash and an index n into its vout. ">
<polygon fill="white" stroke="black" points="35,-68.5 35,-87.5 97,-87.5 97,-68.5 35,-68.5"/>
<text text-anchor="middle" x="66" y="-75.5" font-family="Helvetica,sans-Serif" font-size="10.00">COutPoint</text>
</a>
</g>
</g>
<!-- Node2&#45;&gt;Node1 -->
<g id="edge1" class="edge"><title>Node2&#45;&gt;Node1</title>
<path fill="none" stroke="#9a32cd" stroke-dasharray="5,2" d="M66,-58.0413C66,-45.4724 66,-29.5631 66,-19.8411"/>
<polygon fill="#9a32cd" stroke="#9a32cd" points="62.5001,-58.3716 66,-68.3717 69.5001,-58.3717 62.5001,-58.3716"/>
<text text-anchor="middle" x="111.5" y="-41.5" font-family="Helvetica,sans-Serif" font-size="10.00"> masternodeOutpoint</text>
</g>
<!-- Node3 -->
<g id="node3" class="node"><title>Node3</title>
<g id="a_node3"><a xlink:href="classuint256.html" target="_top" xlink:title="256&#45;bit opaque blob. ">
<polygon fill="white" stroke="black" points="42,-136.5 42,-155.5 90,-155.5 90,-136.5 42,-136.5"/>
<text text-anchor="middle" x="66" y="-143.5" font-family="Helvetica,sans-Serif" font-size="10.00">uint256</text>
</a>
</g>
</g>
<!-- Node3&#45;&gt;Node2 -->
<g id="edge2" class="edge"><title>Node3&#45;&gt;Node2</title>
<path fill="none" stroke="#9a32cd" stroke-dasharray="5,2" d="M66,-126.041C66,-113.472 66,-97.5631 66,-87.8411"/>
<polygon fill="#9a32cd" stroke="#9a32cd" points="62.5001,-126.372 66,-136.372 69.5001,-126.372 62.5001,-126.372"/>
<text text-anchor="middle" x="78.5" y="-109.5" font-family="Helvetica,sans-Serif" font-size="10.00"> hash</text>
</g>
<!-- Node4 -->
<g id="node4" class="node"><title>Node4</title>
<g id="a_node4"><a xlink:href="classbase__blob.html" target="_top" xlink:title="base_blob\&lt; 256 \&gt;">
<polygon fill="white" stroke="black" points="18.5,-194.5 18.5,-213.5 113.5,-213.5 113.5,-194.5 18.5,-194.5"/>
<text text-anchor="middle" x="66" y="-201.5" font-family="Helvetica,sans-Serif" font-size="10.00">base_blob&lt; 256 &gt;</text>
</a>
</g>
</g>
<!-- Node4&#45;&gt;Node3 -->
<g id="edge3" class="edge"><title>Node4&#45;&gt;Node3</title>
<path fill="none" stroke="midnightblue" d="M66,-183.953C66,-174.287 66,-163.031 66,-155.505"/>
<polygon fill="midnightblue" stroke="midnightblue" points="62.5001,-184.25 66,-194.25 69.5001,-184.25 62.5001,-184.25"/>
</g>
</g>
</svg>
