<?xml version="1.0" encoding="UTF-8" standalone="no"?>
<!DOCTYPE svg PUBLIC "-//W3C//DTD SVG 1.1//EN"
 "http://www.w3.org/Graphics/SVG/1.1/DTD/svg11.dtd">
<!-- Generated by graphviz version 2.36.0 (20140111.2315)
 -->
<!-- Title: CCoinsViewErrorCatcher Pages: 1 -->
<svg width="134pt" height="154pt"
 viewBox="0.00 0.00 134.00 154.00" xmlns="http://www.w3.org/2000/svg" xmlns:xlink="http://www.w3.org/1999/xlink">
<g id="graph0" class="graph" transform="scale(1 1) rotate(0) translate(4 150)">
<title>CCoinsViewErrorCatcher</title>
<polygon fill="white" stroke="none" points="-4,4 -4,-150 130,-150 130,4 -4,4"/>
<!-- Node3 -->
<g id="node1" class="node"><title>Node3</title>
<polygon fill="#bfbfbf" stroke="black" points="-0.5,-0.5 -0.5,-19.5 126.5,-19.5 126.5,-0.5 -0.5,-0.5"/>
<text text-anchor="middle" x="63" y="-7.5" font-family="Helvetica,sans-Serif" font-size="10.00">CCoinsViewErrorCatcher</text>
</g>
<!-- Node4 -->
<g id="node2" class="node"><title>Node4</title>
<g id="a_node2"><a xlink:href="class_c_coins_view_backed.html" target="_top" xlink:title="CCoinsView backed by another CCoinsView. ">
<polygon fill="white" stroke="black" points="11,-58.5 11,-77.5 115,-77.5 115,-58.5 11,-58.5"/>
<text text-anchor="middle" x="63" y="-65.5" font-family="Helvetica,sans-Serif" font-size="10.00">CCoinsViewBacked</text>
</a>
</g>
</g>
<!-- Node4&#45;&gt;Node3 -->
<g id="edge1" class="edge"><title>Node4&#45;&gt;Node3</title>
<path fill="none" stroke="midnightblue" d="M63,-47.953C63,-38.2875 63,-27.0312 63,-19.5052"/>
<polygon fill="midnightblue" stroke="midnightblue" points="59.5001,-48.25 63,-58.25 66.5001,-48.25 59.5001,-48.25"/>
</g>
<!-- Node5 -->
<g id="node3" class="node"><title>Node5</title>
<g id="a_node3"><a xlink:href="class_c_coins_view.html" target="_top" xlink:title="Abstract view on the open txout dataset. ">
<polygon fill="white" stroke="black" points="27.5,-126.5 27.5,-145.5 98.5,-145.5 98.5,-126.5 27.5,-126.5"/>
<text text-anchor="middle" x="63" y="-133.5" font-family="Helvetica,sans-Serif" font-size="10.00">CCoinsView</text>
</a>
</g>
</g>
<!-- Node5&#45;&gt;Node4 -->
<g id="edge2" class="edge"><title>Node5&#45;&gt;Node4</title>
<path fill="none" stroke="midnightblue" d="M61.4399,-116.382C61.2572,-113.575 61.1003,-110.713 61,-108 60.6141,-97.5663 61.4162,-85.5725 62.1167,-77.6712"/>
<polygon fill="midnightblue" stroke="midnightblue" points="57.9607,-116.791 62.2083,-126.497 64.9406,-116.26 57.9607,-116.791"/>
</g>
<!-- Node5&#45;&gt;Node4 -->
<g id="edge3" class="edge"><title>Node5&#45;&gt;Node4</title>
<path fill="none" stroke="#9a32cd" stroke-dasharray="5,2" d="M63,-116.041C63,-103.472 63,-87.5631 63,-77.8411"/>
<polygon fill="#9a32cd" stroke="#9a32cd" points="59.5001,-116.372 63,-126.372 66.5001,-116.372 59.5001,-116.372"/>
<text text-anchor="middle" x="75.5" y="-99.5" font-family="Helvetica,sans-Serif" font-size="10.00"> base</text>
</g>
</g>
</svg>
