<?xml version="1.0" encoding="UTF-8" standalone="no"?>
<!DOCTYPE svg PUBLIC "-//W3C//DTD SVG 1.1//EN"
 "http://www.w3.org/Graphics/SVG/1.1/DTD/svg11.dtd">
<!-- Generated by graphviz version 2.36.0 (20140111.2315)
 -->
<!-- Title: CCoinsViewMemPool Pages: 1 -->
<svg width="950pt" height="196pt"
 viewBox="0.00 0.00 950.00 196.00" xmlns="http://www.w3.org/2000/svg" xmlns:xlink="http://www.w3.org/1999/xlink">
<g id="graph0" class="graph" transform="scale(1 1) rotate(0) translate(4 192)">
<title>CCoinsViewMemPool</title>
<polygon fill="white" stroke="none" points="-4,4 -4,-192 946,-192 946,4 -4,4"/>
<!-- Node3 -->
<g id="node1" class="node"><title>Node3</title>
<polygon fill="#bfbfbf" stroke="black" points="828.5,-127.5 828.5,-146.5 941.5,-146.5 941.5,-127.5 828.5,-127.5"/>
<text text-anchor="middle" x="885" y="-134.5" font-family="Helvetica,sans-Serif" font-size="10.00">CCoinsViewMemPool</text>
</g>
<!-- Node4 -->
<g id="node2" class="node"><title>Node4</title>
<g id="a_node2"><a xlink:href="class_c_coins_view_backed.html" target="_top" xlink:title="CCoinsView backed by another CCoinsView. ">
<polygon fill="white" stroke="black" points="644,-152.5 644,-171.5 748,-171.5 748,-152.5 644,-152.5"/>
<text text-anchor="middle" x="696" y="-159.5" font-family="Helvetica,sans-Serif" font-size="10.00">CCoinsViewBacked</text>
</a>
</g>
</g>
<!-- Node4&#45;&gt;Node3 -->
<g id="edge1" class="edge"><title>Node4&#45;&gt;Node3</title>
<path fill="none" stroke="midnightblue" d="M758.255,-153.811C780.847,-150.791 806.301,-147.388 828.369,-144.437"/>
<polygon fill="midnightblue" stroke="midnightblue" points="757.547,-150.374 748.099,-155.169 758.474,-157.313 757.547,-150.374"/>
</g>
<!-- Node5 -->
<g id="node3" class="node"><title>Node5</title>
<g id="a_node3"><a xlink:href="class_c_coins_view.html" target="_top" xlink:title="Abstract view on the open txout dataset. ">
<polygon fill="white" stroke="black" points="411.5,-168.5 411.5,-187.5 482.5,-187.5 482.5,-168.5 411.5,-168.5"/>
<text text-anchor="middle" x="447" y="-175.5" font-family="Helvetica,sans-Serif" font-size="10.00">CCoinsView</text>
</a>
</g>
</g>
<!-- Node5&#45;&gt;Node4 -->
<g id="edge2" class="edge"><title>Node5&#45;&gt;Node4</title>
<path fill="none" stroke="midnightblue" d="M492.741,-178.844C528.805,-179.079 580.78,-178.415 626,-174 632.293,-173.386 638.876,-172.526 645.372,-171.545"/>
<polygon fill="midnightblue" stroke="midnightblue" points="492.579,-175.342 482.548,-178.75 492.515,-182.342 492.579,-175.342"/>
</g>
<!-- Node5&#45;&gt;Node4 -->
<g id="edge3" class="edge"><title>Node5&#45;&gt;Node4</title>
<path fill="none" stroke="#9a32cd" stroke-dasharray="5,2" d="M492.593,-166.8C504.056,-164.397 516.423,-162.216 528,-161 571.317,-156.448 582.446,-160.684 626,-161 631.75,-161.042 637.77,-161.103 643.756,-161.175"/>
<polygon fill="#9a32cd" stroke="#9a32cd" points="491.811,-163.388 482.794,-168.95 493.312,-170.226 491.811,-163.388"/>
<text text-anchor="middle" x="577" y="-164" font-family="Helvetica,sans-Serif" font-size="10.00"> base</text>
</g>
<!-- Node6 -->
<g id="node4" class="node"><title>Node6</title>
<g id="a_node4"><a xlink:href="class_c_tx_mem_pool.html" target="_top" xlink:title="CTxMemPool stores valid&#45;according&#45;to&#45;the&#45;current&#45;best&#45;chain transactions that may be included in the ...">
<polygon fill="white" stroke="black" points="657.5,-85.5 657.5,-104.5 734.5,-104.5 734.5,-85.5 657.5,-85.5"/>
<text text-anchor="middle" x="696" y="-92.5" font-family="Helvetica,sans-Serif" font-size="10.00">CTxMemPool</text>
</a>
</g>
</g>
<!-- Node6&#45;&gt;Node3 -->
<g id="edge4" class="edge"><title>Node6&#45;&gt;Node3</title>
<path fill="none" stroke="#9a32cd" stroke-dasharray="5,2" d="M744.642,-105.7C774.557,-112.419 812.795,-121.007 841.647,-127.488"/>
<polygon fill="#9a32cd" stroke="#9a32cd" points="745.366,-102.276 734.842,-103.499 743.832,-109.106 745.366,-102.276"/>
<text text-anchor="middle" x="788" y="-123" font-family="Helvetica,sans-Serif" font-size="10.00"> mempool</text>
</g>
<!-- Node7 -->
<g id="node5" class="node"><title>Node7</title>
<g id="a_node5"><a xlink:href="classindirectmap.html" target="_top" xlink:title="indirectmap\&lt; COutPoint,\l const CTransaction *\&gt;">
<polygon fill="white" stroke="black" points="384.5,-116 384.5,-146 509.5,-146 509.5,-116 384.5,-116"/>
<text text-anchor="start" x="392.5" y="-134" font-family="Helvetica,sans-Serif" font-size="10.00">indirectmap&lt; COutPoint,</text>
<text text-anchor="middle" x="447" y="-123" font-family="Helvetica,sans-Serif" font-size="10.00"> const CTransaction *&gt;</text>
</a>
</g>
</g>
<!-- Node7&#45;&gt;Node6 -->
<g id="edge5" class="edge"><title>Node7&#45;&gt;Node6</title>
<path fill="none" stroke="#9a32cd" stroke-dasharray="5,2" d="M520.107,-121.182C552.501,-116.692 591.191,-111.219 626,-106 636.197,-104.471 647.229,-102.745 657.418,-101.121"/>
<polygon fill="#9a32cd" stroke="#9a32cd" points="519.25,-117.767 509.824,-122.604 520.209,-124.701 519.25,-117.767"/>
<text text-anchor="middle" x="577" y="-123" font-family="Helvetica,sans-Serif" font-size="10.00"> mapNextTx</text>
</g>
<!-- Node8 -->
<g id="node6" class="node"><title>Node8</title>
<g id="a_node6"><a xlink:href="class_c_critical_section.html" target="_top" xlink:title="Wrapped boost mutex: supports recursive locking, but no waiting TODO: We should move away from using ...">
<polygon fill="white" stroke="black" points="403,-77.5 403,-96.5 491,-96.5 491,-77.5 403,-77.5"/>
<text text-anchor="middle" x="447" y="-84.5" font-family="Helvetica,sans-Serif" font-size="10.00">CCriticalSection</text>
</a>
</g>
</g>
<!-- Node8&#45;&gt;Node6 -->
<g id="edge6" class="edge"><title>Node8&#45;&gt;Node6</title>
<path fill="none" stroke="#9a32cd" stroke-dasharray="5,2" d="M501.029,-88.7175C548.068,-90.2411 615.608,-92.4286 657.318,-93.7795"/>
<polygon fill="#9a32cd" stroke="#9a32cd" points="501.132,-85.2191 491.024,-88.3935 500.906,-92.2155 501.132,-85.2191"/>
<text text-anchor="middle" x="577" y="-96" font-family="Helvetica,sans-Serif" font-size="10.00"> cs</text>
</g>
<!-- Node9 -->
<g id="node7" class="node"><title>Node9</title>
<polygon fill="white" stroke="#bfbfbf" points="158.5,-77 158.5,-107 275.5,-107 275.5,-77 158.5,-77"/>
<text text-anchor="start" x="166.5" y="-95" font-family="Helvetica,sans-Serif" font-size="10.00">AnnotatedMixin&lt; boost</text>
<text text-anchor="middle" x="217" y="-84" font-family="Helvetica,sans-Serif" font-size="10.00">::recursive_mutex &gt;</text>
</g>
<!-- Node9&#45;&gt;Node8 -->
<g id="edge7" class="edge"><title>Node9&#45;&gt;Node8</title>
<path fill="none" stroke="midnightblue" d="M285.989,-90.509C323.884,-89.678 369.931,-88.6682 402.88,-87.9456"/>
<polygon fill="midnightblue" stroke="midnightblue" points="285.455,-87.0198 275.534,-90.7383 285.608,-94.0181 285.455,-87.0198"/>
</g>
<!-- Node10 -->
<g id="node8" class="node"><title>Node10</title>
<polygon fill="white" stroke="#bfbfbf" points="0.5,-82.5 0.5,-101.5 119.5,-101.5 119.5,-82.5 0.5,-82.5"/>
<text text-anchor="middle" x="60" y="-89.5" font-family="Helvetica,sans-Serif" font-size="10.00">boost::recursive_mutex</text>
</g>
<!-- Node10&#45;&gt;Node9 -->
<g id="edge8" class="edge"><title>Node10&#45;&gt;Node9</title>
<path fill="none" stroke="midnightblue" d="M129.834,-92C139.356,-92 149.055,-92 158.346,-92"/>
<polygon fill="midnightblue" stroke="midnightblue" points="129.599,-88.5001 119.599,-92 129.599,-95.5001 129.599,-88.5001"/>
</g>
<!-- Node11 -->
<g id="node9" class="node"><title>Node11</title>
<g id="a_node9"><a xlink:href="class_c_block_policy_estimator.html" target="_top" xlink:title="We want to be able to estimate feerates that are needed on tx&#39;s to be included in a certain number of...">
<polygon fill="white" stroke="black" points="388,-38.5 388,-57.5 506,-57.5 506,-38.5 388,-38.5"/>
<text text-anchor="middle" x="447" y="-45.5" font-family="Helvetica,sans-Serif" font-size="10.00">CBlockPolicyEstimator</text>
</a>
</g>
</g>
<!-- Node11&#45;&gt;Node6 -->
<g id="edge9" class="edge"><title>Node11&#45;&gt;Node6</title>
<path fill="none" stroke="#9a32cd" stroke-dasharray="5,2" d="M516.164,-56.199C549.474,-60.7485 590.035,-67.0959 626,-75 639.034,-77.8645 653.227,-81.8285 665.332,-85.4723"/>
<polygon fill="#9a32cd" stroke="#9a32cd" points="516.449,-52.706 506.073,-54.8451 515.518,-59.6438 516.449,-52.706"/>
<text text-anchor="middle" x="577" y="-78" font-family="Helvetica,sans-Serif" font-size="10.00"> minerPolicyEstimator</text>
</g>
<!-- Node12 -->
<g id="node10" class="node"><title>Node12</title>
<g id="a_node10"><a xlink:href="class_tx_confirm_stats.html" target="_top" xlink:title="We will instantiate an instance of this class to track transactions that were included in a block...">
<polygon fill="white" stroke="black" points="174,-38.5 174,-57.5 260,-57.5 260,-38.5 174,-38.5"/>
<text text-anchor="middle" x="217" y="-45.5" font-family="Helvetica,sans-Serif" font-size="10.00">TxConfirmStats</text>
</a>
</g>
</g>
<!-- Node12&#45;&gt;Node11 -->
<g id="edge10" class="edge"><title>Node12&#45;&gt;Node11</title>
<path fill="none" stroke="#9a32cd" stroke-dasharray="5,2" d="M270.129,-48C305.226,-48 351.547,-48 387.84,-48"/>
<polygon fill="#9a32cd" stroke="#9a32cd" points="270.084,-44.5001 260.084,-48 270.084,-51.5001 270.084,-44.5001"/>
<text text-anchor="middle" x="330" y="-51" font-family="Helvetica,sans-Serif" font-size="10.00"> feeStats</text>
</g>
<!-- Node13 -->
<g id="node11" class="node"><title>Node13</title>
<g id="a_node11"><a xlink:href="class_c_fee_rate.html" target="_top" xlink:title="Fee rate in satoshis per kilobyte: CAmount / kB. ">
<polygon fill="white" stroke="black" points="186,-0.5 186,-19.5 248,-19.5 248,-0.5 186,-0.5"/>
<text text-anchor="middle" x="217" y="-7.5" font-family="Helvetica,sans-Serif" font-size="10.00">CFeeRate</text>
</a>
</g>
</g>
<!-- Node13&#45;&gt;Node11 -->
<g id="edge11" class="edge"><title>Node13&#45;&gt;Node11</title>
<path fill="none" stroke="#9a32cd" stroke-dasharray="5,2" d="M258.112,-15.888C287.916,-20.3468 329.548,-26.7517 366,-33 375.889,-34.695 386.446,-36.6036 396.54,-38.477"/>
<polygon fill="#9a32cd" stroke="#9a32cd" points="258.498,-12.4069 248.091,-14.3954 257.467,-19.3305 258.498,-12.4069"/>
<text text-anchor="middle" x="330" y="-36" font-family="Helvetica,sans-Serif" font-size="10.00"> minTrackedFee</text>
</g>
</g>
</svg>
