<?xml version="1.0" encoding="UTF-8" standalone="no"?>
<!DOCTYPE svg PUBLIC "-//W3C//DTD SVG 1.1//EN"
 "http://www.w3.org/Graphics/SVG/1.1/DTD/svg11.dtd">
<!-- Generated by graphviz version 2.36.0 (20140111.2315)
 -->
<!-- Title: COutput Pages: 1 -->
<!--zoomable 254 -->
<svg id="main" version="1.1" xmlns="http://www.w3.org/2000/svg" xmlns:xlink="http://www.w3.org/1999/xlink" xml:space="preserve" onload="init(evt)">
<style type="text/css"><![CDATA[
.edge:hover path { stroke: red; }
.edge:hover polygon { stroke: red; fill: red; }
]]></style>
<script type="text/javascript"><![CDATA[
var edges = document.getElementsByTagName('g');
if (edges && edges.length) {
  for (var i=0;i<edges.length;i++) {
    if (edges[i].id.substr(0,4)=='edge') {
      edges[i].setAttribute('class','edge');
    }
  }
}
]]></script>
        <defs>
                <circle id="rim" cx="0" cy="0" r="7"/>
                <circle id="rim2" cx="0" cy="0" r="3.5"/>
                <g id="zoomPlus">
                        <use xlink:href="#rim" fill="#404040">
                                <set attributeName="fill" to="#808080" begin="zoomplus.mouseover" end="zoomplus.mouseout"/>
                        </use>
                        <path d="M-4,0h8M0,-4v8" fill="none" stroke="white" stroke-width="1.5" pointer-events="none"/>
                </g>
                <g id="zoomMin">
                        <use xlink:href="#rim" fill="#404040">
                                <set attributeName="fill" to="#808080" begin="zoomminus.mouseover" end="zoomminus.mouseout"/>
                        </use>
                        <path d="M-4,0h8" fill="none" stroke="white" stroke-width="1.5" pointer-events="none"/>
                </g>
                <g id="dirArrow">
                        <path fill="none" stroke="white" stroke-width="1.5" d="M0,-3.0v7 M-2.5,-0.5L0,-3.0L2.5,-0.5"/>
                </g>
               <g id="resetDef">
                       <use xlink:href="#rim2" fill="#404040">
                               <set attributeName="fill" to="#808080" begin="reset.mouseover" end="reset.mouseout"/>
                       </use>
               </g>
        </defs>

<script type="text/javascript">
var viewWidth = 1350;
var viewHeight = 254;
var sectionId = 'dynsection-0';
</script>
<script xlink:href="svgpan.js"/>
<svg id="graph" class="graph">
<g id="viewport">
<title>COutput</title>
<polygon fill="white" stroke="none" points="-4,4 -4,-250 1346,-250 1346,4 -4,4"/>
<!-- Node1 -->
<g id="node1" class="node"><title>Node1</title>
<polygon fill="#bfbfbf" stroke="black" points="1288.5,-31.5 1288.5,-50.5 1341.5,-50.5 1341.5,-31.5 1288.5,-31.5"/>
<text text-anchor="middle" x="1315" y="-38.5" font-family="Helvetica,sans-Serif" font-size="10.00">COutput</text>
</g>
<!-- Node2 -->
<g id="node2" class="node"><title>Node2</title>
<g id="a_node2"><a xlink:href="class_c_wallet_tx.html" target="_top" xlink:title="A transaction with a bunch of additional info that only the owner cares about. ">
<polygon fill="white" stroke="black" points="1176.5,-31.5 1176.5,-50.5 1239.5,-50.5 1239.5,-31.5 1176.5,-31.5"/>
<text text-anchor="middle" x="1208" y="-38.5" font-family="Helvetica,sans-Serif" font-size="10.00">CWalletTx</text>
</a>
</g>
</g>
<!-- Node2&#45;&gt;Node1 -->
<g id="edge1" class="edge"><title>Node2&#45;&gt;Node1</title>
<path fill="none" stroke="#9a32cd" stroke-dasharray="5,2" d="M1249.81,-41C1262.82,-41 1276.84,-41 1288.45,-41"/>
<polygon fill="#9a32cd" stroke="#9a32cd" points="1249.65,-37.5001 1239.65,-41 1249.65,-44.5001 1249.65,-37.5001"/>
<text text-anchor="middle" x="1264" y="-44" font-family="Helvetica,sans-Serif" font-size="10.00"> tx</text>
</g>
<!-- Node3 -->
<g id="node3" class="node"><title>Node3</title>
<g id="a_node3"><a xlink:href="class_c_merkle_tx.html" target="_top" xlink:title="A transaction with a merkle branch linking it to the block chain. ">
<polygon fill="white" stroke="black" points="608.5,-0.5 608.5,-19.5 673.5,-19.5 673.5,-0.5 608.5,-0.5"/>
<text text-anchor="middle" x="641" y="-7.5" font-family="Helvetica,sans-Serif" font-size="10.00">CMerkleTx</text>
</a>
</g>
</g>
<!-- Node3&#45;&gt;Node2 -->
<g id="edge2" class="edge"><title>Node3&#45;&gt;Node2</title>
<path fill="none" stroke="midnightblue" d="M684.037,-7.94613C715.865,-6.5667 760.672,-5 800,-5 800,-5 800,-5 1081,-5 1119.45,-5 1162.04,-20.689 1186.56,-31.3527"/>
<polygon fill="midnightblue" stroke="midnightblue" points="683.601,-4.462 673.767,-8.40422 683.913,-11.455 683.601,-4.462"/>
</g>
<!-- Node4 -->
<g id="node4" class="node"><title>Node4</title>
<g id="a_node4"><a xlink:href="classuint256.html" target="_top" xlink:title="256&#45;bit opaque blob. ">
<polygon fill="white" stroke="black" points="334,-68.5 334,-87.5 382,-87.5 382,-68.5 334,-68.5"/>
<text text-anchor="middle" x="358" y="-75.5" font-family="Helvetica,sans-Serif" font-size="10.00">uint256</text>
</a>
</g>
</g>
<!-- Node4&#45;&gt;Node3 -->
<g id="edge3" class="edge"><title>Node4&#45;&gt;Node3</title>
<path fill="none" stroke="#9a32cd" stroke-dasharray="5,2" d="M392.348,-69.93C446.993,-56.7064 554.864,-30.6024 608.369,-17.6544"/>
<polygon fill="#9a32cd" stroke="#9a32cd" points="391.371,-66.5654 382.475,-72.3193 393.017,-73.369 391.371,-66.5654"/>
<text text-anchor="middle" x="463" y="-77" font-family="Helvetica,sans-Serif" font-size="10.00"> hashBlock</text>
<text text-anchor="middle" x="463" y="-66" font-family="Helvetica,sans-Serif" font-size="10.00">ABANDON_HASH</text>
</g>
<!-- Node13 -->
<g id="node13" class="node"><title>Node13</title>
<g id="a_node13"><a xlink:href="class_c_h_d_chain.html" target="_top" xlink:title="CHDChain">
<polygon fill="white" stroke="black" points="524.5,-139.5 524.5,-158.5 589.5,-158.5 589.5,-139.5 524.5,-139.5"/>
<text text-anchor="middle" x="557" y="-146.5" font-family="Helvetica,sans-Serif" font-size="10.00">CHDChain</text>
</a>
</g>
</g>
<!-- Node4&#45;&gt;Node13 -->
<g id="edge13" class="edge"><title>Node4&#45;&gt;Node13</title>
<path fill="none" stroke="#9a32cd" stroke-dasharray="5,2" d="M392.114,-89.9343C430.78,-103.87 493.964,-126.642 529.524,-139.458"/>
<polygon fill="#9a32cd" stroke="#9a32cd" points="392.966,-86.5214 382.372,-86.4234 390.593,-93.1068 392.966,-86.5214"/>
<text text-anchor="middle" x="463" y="-133" font-family="Helvetica,sans-Serif" font-size="10.00"> id</text>
</g>
<!-- Node5 -->
<g id="node5" class="node"><title>Node5</title>
<g id="a_node5"><a xlink:href="classbase__blob.html" target="_top" xlink:title="base_blob\&lt; 256 \&gt;">
<polygon fill="white" stroke="black" points="169.5,-68.5 169.5,-87.5 264.5,-87.5 264.5,-68.5 169.5,-68.5"/>
<text text-anchor="middle" x="217" y="-75.5" font-family="Helvetica,sans-Serif" font-size="10.00">base_blob&lt; 256 &gt;</text>
</a>
</g>
</g>
<!-- Node5&#45;&gt;Node4 -->
<g id="edge4" class="edge"><title>Node5&#45;&gt;Node4</title>
<path fill="none" stroke="midnightblue" d="M274.928,-78C295.493,-78 317.576,-78 333.65,-78"/>
<polygon fill="midnightblue" stroke="midnightblue" points="274.672,-74.5001 264.672,-78 274.672,-81.5001 274.672,-74.5001"/>
</g>
<!-- Node6 -->
<g id="node6" class="node"><title>Node6</title>
<g id="a_node6"><a xlink:href="class_c_wallet.html" target="_top" xlink:title="A CWallet is an extension of a keystore, which also maintains a set of transactions and balances...">
<polygon fill="white" stroke="black" points="1054,-109.5 1054,-128.5 1106,-128.5 1106,-109.5 1054,-109.5"/>
<text text-anchor="middle" x="1080" y="-116.5" font-family="Helvetica,sans-Serif" font-size="10.00">CWallet</text>
</a>
</g>
</g>
<!-- Node6&#45;&gt;Node2 -->
<g id="edge5" class="edge"><title>Node6&#45;&gt;Node2</title>
<path fill="none" stroke="#9a32cd" stroke-dasharray="5,2" d="M1105.13,-104.063C1130.54,-88.3293 1169.82,-64.0183 1191.42,-50.6426"/>
<polygon fill="#9a32cd" stroke="#9a32cd" points="1103.11,-101.196 1096.45,-109.436 1106.79,-107.148 1103.11,-101.196"/>
<text text-anchor="middle" x="1141" y="-95" font-family="Helvetica,sans-Serif" font-size="10.00"> pwallet</text>
</g>
<!-- Node7 -->
<g id="node7" class="node"><title>Node7</title>
<g id="a_node7"><a xlink:href="class_c_crypto_key_store.html" target="_top" xlink:title="Keystore which keeps the private keys encrypted. ">
<polygon fill="white" stroke="black" points="826,-185.5 826,-204.5 920,-204.5 920,-185.5 826,-185.5"/>
<text text-anchor="middle" x="873" y="-192.5" font-family="Helvetica,sans-Serif" font-size="10.00">CCryptoKeyStore</text>
</a>
</g>
</g>
<!-- Node7&#45;&gt;Node6 -->
<g id="edge6" class="edge"><title>Node7&#45;&gt;Node6</title>
<path fill="none" stroke="midnightblue" d="M930.473,-193.233C963.02,-190.156 1003.74,-182.668 1036,-165 1051.92,-156.282 1065.27,-139.529 1072.69,-128.826"/>
<polygon fill="midnightblue" stroke="midnightblue" points="929.891,-189.77 920.214,-194.085 930.47,-196.746 929.891,-189.77"/>
</g>
<!-- Node8 -->
<g id="node8" class="node"><title>Node8</title>
<g id="a_node8"><a xlink:href="class_c_basic_key_store.html" target="_top" xlink:title="Basic key store, that keeps keys in an address&#45;&gt;secret map. ">
<polygon fill="white" stroke="black" points="692.5,-179.5 692.5,-198.5 781.5,-198.5 781.5,-179.5 692.5,-179.5"/>
<text text-anchor="middle" x="737" y="-186.5" font-family="Helvetica,sans-Serif" font-size="10.00">CBasicKeyStore</text>
</a>
</g>
</g>
<!-- Node8&#45;&gt;Node7 -->
<g id="edge7" class="edge"><title>Node8&#45;&gt;Node7</title>
<path fill="none" stroke="midnightblue" d="M791.727,-191.406C803.061,-191.913 814.923,-192.444 825.945,-192.938"/>
<polygon fill="midnightblue" stroke="midnightblue" points="791.653,-187.899 781.506,-190.948 791.339,-194.892 791.653,-187.899"/>
</g>
<!-- Node9 -->
<g id="node9" class="node"><title>Node9</title>
<g id="a_node9"><a xlink:href="class_c_key_store.html" target="_top" xlink:title="A virtual base class for key stores. ">
<polygon fill="white" stroke="black" points="524.5,-187.5 524.5,-206.5 589.5,-206.5 589.5,-187.5 524.5,-187.5"/>
<text text-anchor="middle" x="557" y="-194.5" font-family="Helvetica,sans-Serif" font-size="10.00">CKeyStore</text>
</a>
</g>
</g>
<!-- Node9&#45;&gt;Node8 -->
<g id="edge8" class="edge"><title>Node9&#45;&gt;Node8</title>
<path fill="none" stroke="midnightblue" d="M600.033,-195.111C627.862,-193.86 664.277,-192.224 692.417,-190.959"/>
<polygon fill="midnightblue" stroke="midnightblue" points="599.656,-191.624 589.823,-195.57 599.97,-198.617 599.656,-191.624"/>
</g>
<!-- Node10 -->
<g id="node10" class="node"><title>Node10</title>
<g id="a_node10"><a xlink:href="class_c_critical_section.html" target="_top" xlink:title="Wrapped boost mutex: supports recursive locking, but no waiting TODO: We should move away from using ...">
<polygon fill="white" stroke="black" points="314,-187.5 314,-206.5 402,-206.5 402,-187.5 314,-187.5"/>
<text text-anchor="middle" x="358" y="-194.5" font-family="Helvetica,sans-Serif" font-size="10.00">CCriticalSection</text>
</a>
</g>
</g>
<!-- Node10&#45;&gt;Node6 -->
<g id="edge19" class="edge"><title>Node10&#45;&gt;Node6</title>
<path fill="none" stroke="#9a32cd" stroke-dasharray="5,2" d="M399.14,-209.395C438.645,-220.483 500.887,-235 556,-235 556,-235 556,-235 874,-235 948.38,-235 976.744,-237.957 1036,-193 1058.14,-176.206 1070.88,-144.462 1076.14,-128.57"/>
<polygon fill="#9a32cd" stroke="#9a32cd" points="399.938,-205.983 389.36,-206.589 398.007,-212.711 399.938,-205.983"/>
<text text-anchor="middle" x="737" y="-238" font-family="Helvetica,sans-Serif" font-size="10.00"> cs_wallet</text>
</g>
<!-- Node10&#45;&gt;Node9 -->
<g id="edge9" class="edge"><title>Node10&#45;&gt;Node9</title>
<path fill="none" stroke="#9a32cd" stroke-dasharray="5,2" d="M412.53,-197C448.389,-197 494.371,-197 524.483,-197"/>
<polygon fill="#9a32cd" stroke="#9a32cd" points="412.233,-193.5 402.232,-197 412.232,-200.5 412.233,-193.5"/>
<text text-anchor="middle" x="463" y="-200" font-family="Helvetica,sans-Serif" font-size="10.00"> cs_KeyStore</text>
</g>
<!-- Node10&#45;&gt;Node13 -->
<g id="edge14" class="edge"><title>Node10&#45;&gt;Node13</title>
<path fill="none" stroke="#9a32cd" stroke-dasharray="5,2" d="M407.526,-185.053C411.745,-184.019 415.948,-182.99 420,-182 455.757,-173.265 496.823,-163.312 524.391,-156.641"/>
<polygon fill="#9a32cd" stroke="#9a32cd" points="406.596,-181.677 397.719,-187.46 408.265,-188.475 406.596,-181.677"/>
<text text-anchor="middle" x="463" y="-185" font-family="Helvetica,sans-Serif" font-size="10.00"> cs_accounts</text>
</g>
<!-- Node11 -->
<g id="node11" class="node"><title>Node11</title>
<polygon fill="white" stroke="#bfbfbf" points="158.5,-182 158.5,-212 275.5,-212 275.5,-182 158.5,-182"/>
<text text-anchor="start" x="166.5" y="-200" font-family="Helvetica,sans-Serif" font-size="10.00">AnnotatedMixin&lt; boost</text>
<text text-anchor="middle" x="217" y="-189" font-family="Helvetica,sans-Serif" font-size="10.00">::recursive_mutex &gt;</text>
</g>
<!-- Node11&#45;&gt;Node10 -->
<g id="edge10" class="edge"><title>Node11&#45;&gt;Node10</title>
<path fill="none" stroke="midnightblue" d="M285.927,-197C295.358,-197 304.827,-197 313.64,-197"/>
<polygon fill="midnightblue" stroke="midnightblue" points="285.741,-193.5 275.741,-197 285.741,-200.5 285.741,-193.5"/>
</g>
<!-- Node12 -->
<g id="node12" class="node"><title>Node12</title>
<polygon fill="white" stroke="#bfbfbf" points="0.5,-187.5 0.5,-206.5 119.5,-206.5 119.5,-187.5 0.5,-187.5"/>
<text text-anchor="middle" x="60" y="-194.5" font-family="Helvetica,sans-Serif" font-size="10.00">boost::recursive_mutex</text>
</g>
<!-- Node12&#45;&gt;Node11 -->
<g id="edge11" class="edge"><title>Node12&#45;&gt;Node11</title>
<path fill="none" stroke="midnightblue" d="M129.834,-197C139.356,-197 149.055,-197 158.346,-197"/>
<polygon fill="midnightblue" stroke="midnightblue" points="129.599,-193.5 119.599,-197 129.599,-200.5 129.599,-193.5"/>
</g>
<!-- Node13&#45;&gt;Node7 -->
<g id="edge15" class="edge"><title>Node13&#45;&gt;Node7</title>
<path fill="none" stroke="#9a32cd" stroke-dasharray="5,2" d="M599.753,-146.251C645.231,-144.317 719.799,-144.263 782,-159 800.004,-163.266 802.856,-169.043 820,-176 828.016,-179.253 836.822,-182.567 844.873,-185.497"/>
<polygon fill="#9a32cd" stroke="#9a32cd" points="599.497,-142.759 589.675,-146.731 599.83,-149.751 599.497,-142.759"/>
<text text-anchor="middle" x="737" y="-162" font-family="Helvetica,sans-Serif" font-size="10.00"> cryptedHDChain</text>
</g>
<!-- Node13&#45;&gt;Node8 -->
<g id="edge12" class="edge"><title>Node13&#45;&gt;Node8</title>
<path fill="none" stroke="#9a32cd" stroke-dasharray="5,2" d="M599.773,-158.387C627.964,-164.722 665.053,-173.057 693.412,-179.43"/>
<polygon fill="#9a32cd" stroke="#9a32cd" points="600.347,-154.929 589.823,-156.151 598.812,-161.759 600.347,-154.929"/>
<text text-anchor="middle" x="641" y="-178" font-family="Helvetica,sans-Serif" font-size="10.00"> hdChain</text>
</g>
<!-- Node14 -->
<g id="node14" class="node"><title>Node14</title>
<g id="a_node14"><a xlink:href="class_c_validation_interface.html" target="_top" xlink:title="CValidationInterface">
<polygon fill="white" stroke="black" points="820.5,-147.5 820.5,-166.5 925.5,-166.5 925.5,-147.5 820.5,-147.5"/>
<text text-anchor="middle" x="873" y="-154.5" font-family="Helvetica,sans-Serif" font-size="10.00">CValidationInterface</text>
</a>
</g>
</g>
<!-- Node14&#45;&gt;Node6 -->
<g id="edge16" class="edge"><title>Node14&#45;&gt;Node6</title>
<path fill="none" stroke="midnightblue" d="M935.902,-157.729C966.594,-156.572 1003.87,-152.855 1036,-143 1046.46,-139.791 1057.21,-133.791 1065.35,-128.593"/>
<polygon fill="midnightblue" stroke="midnightblue" points="935.655,-154.234 925.763,-158.028 935.862,-161.231 935.655,-154.234"/>
</g>
<!-- Node15 -->
<g id="node15" class="node"><title>Node15</title>
<g id="a_node15"><a xlink:href="class_c_fee_rate.html" target="_top" xlink:title="Fee rate in satoshis per kilobyte: CAmount / kB. ">
<polygon fill="white" stroke="black" points="842,-109.5 842,-128.5 904,-128.5 904,-109.5 842,-109.5"/>
<text text-anchor="middle" x="873" y="-116.5" font-family="Helvetica,sans-Serif" font-size="10.00">CFeeRate</text>
</a>
</g>
</g>
<!-- Node15&#45;&gt;Node6 -->
<g id="edge17" class="edge"><title>Node15&#45;&gt;Node6</title>
<path fill="none" stroke="#9a32cd" stroke-dasharray="5,2" d="M914.281,-119C955.713,-119 1018.96,-119 1053.8,-119"/>
<polygon fill="#9a32cd" stroke="#9a32cd" points="914.248,-115.5 904.248,-119 914.248,-122.5 914.248,-115.5"/>
<text text-anchor="middle" x="990" y="-133" font-family="Helvetica,sans-Serif" font-size="10.00"> minTxFee</text>
<text text-anchor="middle" x="990" y="-122" font-family="Helvetica,sans-Serif" font-size="10.00">fallbackFee</text>
</g>
<!-- Node16 -->
<g id="node16" class="node"><title>Node16</title>
<g id="a_node16"><a xlink:href="class_c_pub_key.html" target="_top" xlink:title="An encapsulated public key. ">
<polygon fill="white" stroke="black" points="843.5,-71.5 843.5,-90.5 902.5,-90.5 902.5,-71.5 843.5,-71.5"/>
<text text-anchor="middle" x="873" y="-78.5" font-family="Helvetica,sans-Serif" font-size="10.00">CPubKey</text>
</a>
</g>
</g>
<!-- Node16&#45;&gt;Node6 -->
<g id="edge18" class="edge"><title>Node16&#45;&gt;Node6</title>
<path fill="none" stroke="#9a32cd" stroke-dasharray="5,2" d="M912.867,-84.374C945.937,-87.7531 994.528,-93.9241 1036,-104 1041.99,-105.456 1048.33,-107.417 1054.23,-109.441"/>
<polygon fill="#9a32cd" stroke="#9a32cd" points="912.999,-80.8701 902.704,-83.3735 912.313,-87.8364 912.999,-80.8701"/>
<text text-anchor="middle" x="990" y="-107" font-family="Helvetica,sans-Serif" font-size="10.00"> vchDefaultKey</text>
</g>
<!-- Node17 -->
<g id="node17" class="node"><title>Node17</title>
<g id="a_node17"><a xlink:href="class_c_wallet_d_b.html" target="_top" xlink:title="Access to the wallet database. ">
<polygon fill="white" stroke="black" points="840,-33.5 840,-52.5 906,-52.5 906,-33.5 840,-33.5"/>
<text text-anchor="middle" x="873" y="-40.5" font-family="Helvetica,sans-Serif" font-size="10.00">CWalletDB</text>
</a>
</g>
</g>
<!-- Node17&#45;&gt;Node6 -->
<g id="edge20" class="edge"><title>Node17&#45;&gt;Node6</title>
<path fill="none" stroke="#9a32cd" stroke-dasharray="5,2" d="M916.227,-43.6472C950.416,-45.7985 998.829,-52.6401 1036,-73 1051.92,-81.7177 1065.27,-98.4713 1072.69,-109.174"/>
<polygon fill="#9a32cd" stroke="#9a32cd" points="916.27,-40.1448 906.102,-43.1204 915.906,-47.1353 916.27,-40.1448"/>
<text text-anchor="middle" x="990" y="-76" font-family="Helvetica,sans-Serif" font-size="10.00"> pwalletdbEncryption</text>
</g>
<!-- Node18 -->
<g id="node18" class="node"><title>Node18</title>
<g id="a_node18"><a xlink:href="class_c_d_b.html" target="_top" xlink:title="RAII class that provides access to a Berkeley database. ">
<polygon fill="white" stroke="black" points="718,-33.5 718,-52.5 756,-52.5 756,-33.5 718,-33.5"/>
<text text-anchor="middle" x="737" y="-40.5" font-family="Helvetica,sans-Serif" font-size="10.00">CDB</text>
</a>
</g>
</g>
<!-- Node18&#45;&gt;Node17 -->
<g id="edge21" class="edge"><title>Node18&#45;&gt;Node17</title>
<path fill="none" stroke="midnightblue" d="M766.211,-43C787.737,-43 817.412,-43 839.856,-43"/>
<polygon fill="midnightblue" stroke="midnightblue" points="766.072,-39.5001 756.072,-43 766.072,-46.5001 766.072,-39.5001"/>
</g>
</g>
</svg>
        <g id="navigator" transform="translate(0 0)" fill="#404254">
                <rect fill="#f2f5e9" fill-opacity="0.5" stroke="#606060" stroke-width=".5" x="0" y="0" width="60" height="60"/>
                <use id="zoomplus" xlink:href="#zoomPlus" x="17" y="9" onmousedown="handleZoom(evt,'in')"/>
                <use id="zoomminus" xlink:href="#zoomMin" x="42" y="9" onmousedown="handleZoom(evt,'out')"/>
                <use id="reset" xlink:href="#resetDef" x="30" y="36" onmousedown="handleReset()"/>
                <g id="arrowUp" xlink:href="#dirArrow" transform="translate(30 24)" onmousedown="handlePan(0,-1)">
                  <use xlink:href="#rim" fill="#404040">
                        <set attributeName="fill" to="#808080" begin="arrowUp.mouseover" end="arrowUp.mouseout"/>
                  </use>
                  <path fill="none" stroke="white" stroke-width="1.5" d="M0,-3.0v7 M-2.5,-0.5L0,-3.0L2.5,-0.5"/>
                </g>
                <g id="arrowRight" xlink:href="#dirArrow" transform="rotate(90) translate(36 -43)" onmousedown="handlePan(1,0)">
                  <use xlink:href="#rim" fill="#404040">
                        <set attributeName="fill" to="#808080" begin="arrowRight.mouseover" end="arrowRight.mouseout"/>
                  </use>
                  <path fill="none" stroke="white" stroke-width="1.5" d="M0,-3.0v7 M-2.5,-0.5L0,-3.0L2.5,-0.5"/>
                </g>
                <g id="arrowDown" xlink:href="#dirArrow" transform="rotate(180) translate(-30 -48)" onmousedown="handlePan(0,1)">
                  <use xlink:href="#rim" fill="#404040">
                        <set attributeName="fill" to="#808080" begin="arrowDown.mouseover" end="arrowDown.mouseout"/>
                  </use>
                  <path fill="none" stroke="white" stroke-width="1.5" d="M0,-3.0v7 M-2.5,-0.5L0,-3.0L2.5,-0.5"/>
                </g>
                <g id="arrowLeft" xlink:href="#dirArrow" transform="rotate(270) translate(-36 17)" onmousedown="handlePan(-1,0)">
                  <use xlink:href="#rim" fill="#404040">
                        <set attributeName="fill" to="#808080" begin="arrowLeft.mouseover" end="arrowLeft.mouseout"/>
                  </use>
                  <path fill="none" stroke="white" stroke-width="1.5" d="M0,-3.0v7 M-2.5,-0.5L0,-3.0L2.5,-0.5"/>
                </g>
        </g>
        <svg viewBox="0 0 15 15" width="100%" height="30px" preserveAspectRatio="xMaxYMin meet">
         <g id="arrow_out" transform="scale(0.3 0.3)">
          <a xlink:href="class_c_output__coll__graph_org.svg" target="_base">
           <rect id="button" ry="5" rx="5" y="6" x="6" height="38" width="38"
                fill="#f2f5e9" fill-opacity="0.5" stroke="#606060" stroke-width="1.0"/>
           <path id="arrow"
             d="M 11.500037,31.436501 C 11.940474,20.09759 22.043105,11.32322 32.158766,21.979434 L 37.068811,17.246167 C 37.068811,17.246167 37.088388,32 37.088388,32 L 22.160133,31.978069 C 22.160133,31.978069 26.997745,27.140456 26.997745,27.140456 C 18.528582,18.264221 13.291696,25.230495 11.500037,31.436501 z"
             style="fill:#404040;"/>
          </a>
         </g>
        </svg>
</svg>
