<?xml version="1.0" encoding="UTF-8" standalone="no"?>
<!DOCTYPE svg PUBLIC "-//W3C//DTD SVG 1.1//EN"
 "http://www.w3.org/Graphics/SVG/1.1/DTD/svg11.dtd">
<!-- Generated by graphviz version 2.36.0 (20140111.2315)
 -->
<!-- Title: CMasternodePaymentVote Pages: 1 -->
<svg width="253pt" height="244pt"
 viewBox="0.00 0.00 253.00 244.00" xmlns="http://www.w3.org/2000/svg" xmlns:xlink="http://www.w3.org/1999/xlink">
<g id="graph0" class="graph" transform="scale(1 1) rotate(0) translate(4 240)">
<title>CMasternodePaymentVote</title>
<polygon fill="white" stroke="none" points="-4,4 -4,-240 249,-240 249,4 -4,4"/>
<!-- Node1 -->
<g id="node1" class="node"><title>Node1</title>
<polygon fill="#bfbfbf" stroke="black" points="66,-0.5 66,-19.5 200,-19.5 200,-0.5 66,-0.5"/>
<text text-anchor="middle" x="133" y="-7.5" font-family="Helvetica,sans-Serif" font-size="10.00">CMasternodePaymentVote</text>
</g>
<!-- Node2 -->
<g id="node2" class="node"><title>Node2</title>
<g id="a_node2"><a xlink:href="class_c_script.html" target="_top" xlink:title="Serialized script, used inside transaction inputs and outputs. ">
<polygon fill="white" stroke="black" points="68,-68.5 68,-87.5 118,-87.5 118,-68.5 68,-68.5"/>
<text text-anchor="middle" x="93" y="-75.5" font-family="Helvetica,sans-Serif" font-size="10.00">CScript</text>
</a>
</g>
</g>
<!-- Node2&#45;&gt;Node1 -->
<g id="edge1" class="edge"><title>Node2&#45;&gt;Node1</title>
<path fill="none" stroke="#9a32cd" stroke-dasharray="5,2" d="M101.285,-59.3486C104.678,-52.5402 108.793,-44.7754 113,-38 116.939,-31.6567 121.939,-24.9067 125.954,-19.7425"/>
<polygon fill="#9a32cd" stroke="#9a32cd" points="98.1048,-57.886 96.9045,-68.4126 104.407,-60.9321 98.1048,-57.886"/>
<text text-anchor="middle" x="128" y="-41.5" font-family="Helvetica,sans-Serif" font-size="10.00"> payee</text>
</g>
<!-- Node3 -->
<g id="node3" class="node"><title>Node3</title>
<g id="a_node3"><a xlink:href="classprevector.html" target="_top" xlink:title="Implements a drop&#45;in replacement for std::vector&lt;T&gt; which stores up to N elements directly (without h...">
<polygon fill="white" stroke="black" points="39,-136.5 39,-155.5 111,-155.5 111,-136.5 39,-136.5"/>
<text text-anchor="middle" x="75" y="-143.5" font-family="Helvetica,sans-Serif" font-size="10.00">CScriptBase</text>
</a>
</g>
</g>
<!-- Node3&#45;&gt;Node2 -->
<g id="edge2" class="edge"><title>Node3&#45;&gt;Node2</title>
<path fill="none" stroke="midnightblue" d="M80.0659,-126.425C83.5097,-113.798 87.9103,-97.6623 90.5888,-87.8411"/>
<polygon fill="midnightblue" stroke="midnightblue" points="76.6078,-125.803 77.3532,-136.372 83.3611,-127.645 76.6078,-125.803"/>
</g>
<!-- Node4 -->
<g id="node4" class="node"><title>Node4</title>
<g id="a_node4"><a xlink:href="unionprevector_1_1direct__or__indirect.html" target="_top" xlink:title="prevector\&lt; N, T, Size,\l Diff \&gt;::direct_or_indirect">
<polygon fill="white" stroke="black" points="-0.5,-205 -0.5,-235 124.5,-235 124.5,-205 -0.5,-205"/>
<text text-anchor="start" x="7.5" y="-223" font-family="Helvetica,sans-Serif" font-size="10.00">prevector&lt; N, T, Size,</text>
<text text-anchor="middle" x="62" y="-212" font-family="Helvetica,sans-Serif" font-size="10.00"> Diff &gt;::direct_or_indirect</text>
</a>
</g>
</g>
<!-- Node4&#45;&gt;Node3 -->
<g id="edge3" class="edge"><title>Node4&#45;&gt;Node3</title>
<path fill="none" stroke="#9a32cd" stroke-dasharray="5,2" d="M66.3896,-194.688C68.8155,-181.253 71.6813,-165.38 73.4185,-155.759"/>
<polygon fill="#9a32cd" stroke="#9a32cd" points="62.901,-194.312 64.5684,-204.775 69.7896,-195.556 62.901,-194.312"/>
<text text-anchor="middle" x="87" y="-177.5" font-family="Helvetica,sans-Serif" font-size="10.00"> _union</text>
</g>
<!-- Node5 -->
<g id="node5" class="node"><title>Node5</title>
<g id="a_node5"><a xlink:href="class_c_out_point.html" target="_top" xlink:title="An outpoint &#45; a combination of a transaction hash and an index n into its vout. ">
<polygon fill="white" stroke="black" points="138,-68.5 138,-87.5 200,-87.5 200,-68.5 138,-68.5"/>
<text text-anchor="middle" x="169" y="-75.5" font-family="Helvetica,sans-Serif" font-size="10.00">COutPoint</text>
</a>
</g>
</g>
<!-- Node5&#45;&gt;Node1 -->
<g id="edge4" class="edge"><title>Node5&#45;&gt;Node1</title>
<path fill="none" stroke="#9a32cd" stroke-dasharray="5,2" d="M159.489,-59.563C152.517,-46.7815 143.342,-29.9599 137.822,-19.8411"/>
<polygon fill="#9a32cd" stroke="#9a32cd" points="156.432,-61.2687 164.294,-68.3717 162.578,-57.9167 156.432,-61.2687"/>
<text text-anchor="middle" x="199.5" y="-41.5" font-family="Helvetica,sans-Serif" font-size="10.00"> masternodeOutpoint</text>
</g>
<!-- Node6 -->
<g id="node6" class="node"><title>Node6</title>
<g id="a_node6"><a xlink:href="classuint256.html" target="_top" xlink:title="256&#45;bit opaque blob. ">
<polygon fill="white" stroke="black" points="154,-136.5 154,-155.5 202,-155.5 202,-136.5 154,-136.5"/>
<text text-anchor="middle" x="178" y="-143.5" font-family="Helvetica,sans-Serif" font-size="10.00">uint256</text>
</a>
</g>
</g>
<!-- Node6&#45;&gt;Node5 -->
<g id="edge5" class="edge"><title>Node6&#45;&gt;Node5</title>
<path fill="none" stroke="#9a32cd" stroke-dasharray="5,2" d="M175.467,-126.425C173.745,-113.798 171.545,-97.6623 170.206,-87.8411"/>
<polygon fill="#9a32cd" stroke="#9a32cd" points="172.004,-126.936 176.823,-136.372 178.94,-125.99 172.004,-126.936"/>
<text text-anchor="middle" x="186.5" y="-109.5" font-family="Helvetica,sans-Serif" font-size="10.00"> hash</text>
</g>
<!-- Node7 -->
<g id="node7" class="node"><title>Node7</title>
<g id="a_node7"><a xlink:href="classbase__blob.html" target="_top" xlink:title="base_blob\&lt; 256 \&gt;">
<polygon fill="white" stroke="black" points="142.5,-210.5 142.5,-229.5 237.5,-229.5 237.5,-210.5 142.5,-210.5"/>
<text text-anchor="middle" x="190" y="-217.5" font-family="Helvetica,sans-Serif" font-size="10.00">base_blob&lt; 256 &gt;</text>
</a>
</g>
</g>
<!-- Node7&#45;&gt;Node6 -->
<g id="edge6" class="edge"><title>Node7&#45;&gt;Node6</title>
<path fill="none" stroke="midnightblue" d="M186.931,-200.584C184.516,-186.094 181.261,-166.568 179.422,-155.531"/>
<polygon fill="midnightblue" stroke="midnightblue" points="183.48,-201.169 188.576,-210.458 190.385,-200.019 183.48,-201.169"/>
</g>
</g>
</svg>
