<?xml version="1.0" encoding="UTF-8" standalone="no"?>
<!DOCTYPE svg PUBLIC "-//W3C//DTD SVG 1.1//EN"
 "http://www.w3.org/Graphics/SVG/1.1/DTD/svg11.dtd">
<!-- Generated by graphviz version 2.36.0 (20140111.2315)
 -->
<!-- Title: TransactionTableModel Pages: 1 -->
<!--zoomable 409 -->
<svg id="main" version="1.1" xmlns="http://www.w3.org/2000/svg" xmlns:xlink="http://www.w3.org/1999/xlink" xml:space="preserve" onload="init(evt)">
<style type="text/css"><![CDATA[
.edge:hover path { stroke: red; }
.edge:hover polygon { stroke: red; fill: red; }
]]></style>
<script type="text/javascript"><![CDATA[
var edges = document.getElementsByTagName('g');
if (edges && edges.length) {
  for (var i=0;i<edges.length;i++) {
    if (edges[i].id.substr(0,4)=='edge') {
      edges[i].setAttribute('class','edge');
    }
  }
}
]]></script>
        <defs>
                <circle id="rim" cx="0" cy="0" r="7"/>
                <circle id="rim2" cx="0" cy="0" r="3.5"/>
                <g id="zoomPlus">
                        <use xlink:href="#rim" fill="#404040">
                                <set attributeName="fill" to="#808080" begin="zoomplus.mouseover" end="zoomplus.mouseout"/>
                        </use>
                        <path d="M-4,0h8M0,-4v8" fill="none" stroke="white" stroke-width="1.5" pointer-events="none"/>
                </g>
                <g id="zoomMin">
                        <use xlink:href="#rim" fill="#404040">
                                <set attributeName="fill" to="#808080" begin="zoomminus.mouseover" end="zoomminus.mouseout"/>
                        </use>
                        <path d="M-4,0h8" fill="none" stroke="white" stroke-width="1.5" pointer-events="none"/>
                </g>
                <g id="dirArrow">
                        <path fill="none" stroke="white" stroke-width="1.5" d="M0,-3.0v7 M-2.5,-0.5L0,-3.0L2.5,-0.5"/>
                </g>
               <g id="resetDef">
                       <use xlink:href="#rim2" fill="#404040">
                               <set attributeName="fill" to="#808080" begin="reset.mouseover" end="reset.mouseout"/>
                       </use>
               </g>
        </defs>

<script type="text/javascript">
var viewWidth = 2048;
var viewHeight = 409;
var sectionId = 'dynsection-1';
</script>
<script xlink:href="svgpan.js"/>
<svg id="graph" class="graph">
<g id="viewport">
<title>TransactionTableModel</title>
<polygon fill="white" stroke="none" points="-4,4 -4,-405 2044,-405 2044,4 -4,4"/>
<!-- Node2 -->
<g id="node1" class="node"><title>Node2</title>
<polygon fill="#bfbfbf" stroke="black" points="1212,-144.5 1212,-163.5 1330,-163.5 1330,-144.5 1212,-144.5"/>
<text text-anchor="middle" x="1271" y="-151.5" font-family="Helvetica,sans-Serif" font-size="10.00">TransactionTableModel</text>
</g>
<!-- Node4 -->
<g id="node3" class="node"><title>Node4</title>
<g id="a_node3"><a xlink:href="class_transaction_table_priv.html" target="_top" xlink:title="TransactionTablePriv">
<polygon fill="white" stroke="black" points="1468.5,-209.5 1468.5,-228.5 1577.5,-228.5 1577.5,-209.5 1468.5,-209.5"/>
<text text-anchor="middle" x="1523" y="-216.5" font-family="Helvetica,sans-Serif" font-size="10.00">TransactionTablePriv</text>
</a>
</g>
</g>
<!-- Node2&#45;&gt;Node4 -->
<g id="edge3" class="edge"><title>Node2&#45;&gt;Node4</title>
<path fill="none" stroke="#9a32cd" stroke-dasharray="5,2" d="M1293.6,-169.247C1308.26,-178.81 1328.46,-190.517 1348,-197 1387.01,-209.943 1433.27,-215.353 1468.28,-217.576"/>
<polygon fill="#9a32cd" stroke="#9a32cd" points="1295.5,-166.306 1285.25,-163.636 1291.6,-172.117 1295.5,-166.306"/>
<text text-anchor="middle" x="1399" y="-219" font-family="Helvetica,sans-Serif" font-size="10.00"> parent</text>
</g>
<!-- Node21 -->
<g id="node20" class="node"><title>Node21</title>
<g id="a_node20"><a xlink:href="class_wallet_model.html" target="_top" xlink:title="Interface to Bitcoin wallet from Qt view code. ">
<polygon fill="white" stroke="black" points="1487.5,-100.5 1487.5,-119.5 1558.5,-119.5 1558.5,-100.5 1487.5,-100.5"/>
<text text-anchor="middle" x="1523" y="-107.5" font-family="Helvetica,sans-Serif" font-size="10.00">WalletModel</text>
</a>
</g>
</g>
<!-- Node2&#45;&gt;Node21 -->
<g id="edge25" class="edge"><title>Node2&#45;&gt;Node21</title>
<path fill="none" stroke="#9a32cd" stroke-dasharray="5,2" d="M1340.1,-146.357C1373.39,-142.132 1413.96,-136.26 1450,-129 1462.93,-126.396 1476.98,-122.851 1489.22,-119.528"/>
<polygon fill="#9a32cd" stroke="#9a32cd" points="1339.5,-142.904 1330.01,-147.615 1340.37,-149.85 1339.5,-142.904"/>
<text text-anchor="middle" x="1399" y="-149" font-family="Helvetica,sans-Serif" font-size="10.00"> transactionTableModel</text>
</g>
<!-- Node3 -->
<g id="node2" class="node"><title>Node3</title>
<polygon fill="white" stroke="#bfbfbf" points="1002.5,-15.5 1002.5,-34.5 1113.5,-34.5 1113.5,-15.5 1002.5,-15.5"/>
<text text-anchor="middle" x="1058" y="-22.5" font-family="Helvetica,sans-Serif" font-size="10.00">QAbstractTableModel</text>
</g>
<!-- Node3&#45;&gt;Node2 -->
<g id="edge1" class="edge"><title>Node3&#45;&gt;Node2</title>
<path fill="none" stroke="midnightblue" d="M1085.92,-39.7135C1094.92,-44.7541 1104.96,-50.5094 1114,-56 1158.46,-83.0081 1167.77,-92.6158 1212,-120 1225.7,-128.479 1241.48,-137.697 1253.12,-144.393"/>
<polygon fill="midnightblue" stroke="midnightblue" points="1087.45,-36.556 1077.01,-34.7604 1084.05,-42.6756 1087.45,-36.556"/>
</g>
<!-- Node23 -->
<g id="node22" class="node"><title>Node23</title>
<g id="a_node22"><a xlink:href="class_address_table_model.html" target="_top" xlink:title="Qt model of the address book in the core. ">
<polygon fill="white" stroke="black" points="1756.5,-134.5 1756.5,-153.5 1859.5,-153.5 1859.5,-134.5 1756.5,-134.5"/>
<text text-anchor="middle" x="1808" y="-141.5" font-family="Helvetica,sans-Serif" font-size="10.00">AddressTableModel</text>
</a>
</g>
</g>
<!-- Node3&#45;&gt;Node23 -->
<g id="edge27" class="edge"><title>Node3&#45;&gt;Node23</title>
<path fill="none" stroke="midnightblue" d="M1124.13,-24.6443C1280.27,-24.1918 1666.9,-25.5866 1720,-50 1759.8,-68.2983 1789.87,-114.099 1801.61,-134.239"/>
<polygon fill="midnightblue" stroke="midnightblue" points="1123.73,-21.1455 1113.74,-24.6782 1123.75,-28.1455 1123.73,-21.1455"/>
</g>
<!-- Node25 -->
<g id="node24" class="node"><title>Node25</title>
<g id="a_node24"><a xlink:href="class_recent_requests_table_model.html" target="_top" xlink:title="Model for list of recently generated payment requests / dash: URIs. ">
<polygon fill="white" stroke="black" points="1738,-0.5 1738,-19.5 1878,-19.5 1878,-0.5 1738,-0.5"/>
<text text-anchor="middle" x="1808" y="-7.5" font-family="Helvetica,sans-Serif" font-size="10.00">RecentRequestsTableModel</text>
</a>
</g>
</g>
<!-- Node3&#45;&gt;Node25 -->
<g id="edge34" class="edge"><title>Node3&#45;&gt;Node25</title>
<path fill="none" stroke="midnightblue" d="M1111.57,-13.7451C1118.42,-12.6253 1125.36,-11.6602 1132,-11 1337.22,9.39375 1389.77,-7.8889 1596,-7 1651.11,-6.76246 1664.9,-6.05023 1720,-7 1725.74,-7.09897 1731.7,-7.23466 1737.67,-7.39399"/>
<polygon fill="midnightblue" stroke="midnightblue" points="1110.9,-10.3086 1101.66,-15.479 1112.11,-17.204 1110.9,-10.3086"/>
</g>
<!-- Node4&#45;&gt;Node2 -->
<g id="edge2" class="edge"><title>Node4&#45;&gt;Node2</title>
<path fill="none" stroke="#9a32cd" stroke-dasharray="5,2" d="M1495.38,-204.85C1482.07,-198.281 1465.52,-190.866 1450,-186 1410.9,-173.742 1365.41,-165.666 1330.2,-160.693"/>
<polygon fill="#9a32cd" stroke="#9a32cd" points="1493.94,-208.044 1504.45,-209.436 1497.1,-201.798 1493.94,-208.044"/>
<text text-anchor="middle" x="1399" y="-189" font-family="Helvetica,sans-Serif" font-size="10.00"> priv</text>
</g>
<!-- Node5 -->
<g id="node4" class="node"><title>Node5</title>
<g id="a_node4"><a xlink:href="class_c_wallet.html" target="_top" xlink:title="A CWallet is an extension of a keystore, which also maintains a set of transactions and balances...">
<polygon fill="white" stroke="black" points="1032,-271.5 1032,-290.5 1084,-290.5 1084,-271.5 1032,-271.5"/>
<text text-anchor="middle" x="1058" y="-278.5" font-family="Helvetica,sans-Serif" font-size="10.00">CWallet</text>
</a>
</g>
</g>
<!-- Node5&#45;&gt;Node2 -->
<g id="edge39" class="edge"><title>Node5&#45;&gt;Node2</title>
<path fill="none" stroke="#9a32cd" stroke-dasharray="5,2" d="M1073.27,-263.348C1086.94,-247.38 1108.87,-224.119 1132,-209 1164.49,-187.765 1206.48,-172.489 1235.56,-163.504"/>
<polygon fill="#9a32cd" stroke="#9a32cd" points="1070.29,-261.452 1066.57,-271.37 1075.67,-265.94 1070.29,-261.452"/>
<text text-anchor="middle" x="1163" y="-212" font-family="Helvetica,sans-Serif" font-size="10.00"> wallet</text>
</g>
<!-- Node5&#45;&gt;Node4 -->
<g id="edge4" class="edge"><title>Node5&#45;&gt;Node4</title>
<path fill="none" stroke="#9a32cd" stroke-dasharray="5,2" d="M1094.36,-284.202C1164.02,-289.389 1323.27,-295.668 1450,-259 1472.25,-252.561 1495.17,-238.254 1509.01,-228.614"/>
<polygon fill="#9a32cd" stroke="#9a32cd" points="1094.6,-280.71 1084.35,-283.417 1094.05,-287.688 1094.6,-280.71"/>
<text text-anchor="middle" x="1271" y="-292" font-family="Helvetica,sans-Serif" font-size="10.00"> wallet</text>
</g>
<!-- Node5&#45;&gt;Node21 -->
<g id="edge38" class="edge"><title>Node5&#45;&gt;Node21</title>
<path fill="none" stroke="#9a32cd" stroke-dasharray="5,2" d="M1094.19,-277.353C1187.51,-267.569 1435.21,-240.816 1450,-231 1463.27,-222.19 1459.9,-213.72 1468,-200 1485.32,-170.656 1506.15,-136.159 1516.12,-119.695"/>
<polygon fill="#9a32cd" stroke="#9a32cd" points="1093.69,-273.886 1084.11,-278.407 1094.42,-280.848 1093.69,-273.886"/>
<text text-anchor="middle" x="1271" y="-268" font-family="Helvetica,sans-Serif" font-size="10.00"> wallet</text>
</g>
<!-- Node5&#45;&gt;Node23 -->
<g id="edge32" class="edge"><title>Node5&#45;&gt;Node23</title>
<path fill="none" stroke="#9a32cd" stroke-dasharray="5,2" d="M1093.91,-293.004C1105.85,-296.579 1119.37,-300.059 1132,-302 1158.71,-306.107 1327.7,-304.191 1330,-304 1517.59,-288.474 1727.37,-185.708 1789.05,-153.581"/>
<polygon fill="#9a32cd" stroke="#9a32cd" points="1094.91,-289.648 1084.32,-290.01 1092.82,-296.33 1094.91,-289.648"/>
<text text-anchor="middle" x="1399" y="-305" font-family="Helvetica,sans-Serif" font-size="10.00"> wallet</text>
</g>
<!-- Node24 -->
<g id="node23" class="node"><title>Node24</title>
<g id="a_node23"><a xlink:href="class_address_table_priv.html" target="_top" xlink:title="AddressTablePriv">
<polygon fill="white" stroke="black" points="1946,-168.5 1946,-187.5 2040,-187.5 2040,-168.5 1946,-168.5"/>
<text text-anchor="middle" x="1993" y="-175.5" font-family="Helvetica,sans-Serif" font-size="10.00">AddressTablePriv</text>
</a>
</g>
</g>
<!-- Node5&#45;&gt;Node24 -->
<g id="edge30" class="edge"><title>Node5&#45;&gt;Node24</title>
<path fill="none" stroke="#9a32cd" stroke-dasharray="5,2" d="M1081.09,-296.504C1118.26,-321.023 1196.46,-366 1270,-366 1270,-366 1270,-366 1809,-366 1909.66,-366 1972.91,-225.892 1988.32,-187.581"/>
<polygon fill="#9a32cd" stroke="#9a32cd" points="1082.8,-293.437 1072.56,-290.751 1078.89,-299.242 1082.8,-293.437"/>
<text text-anchor="middle" x="1523" y="-369" font-family="Helvetica,sans-Serif" font-size="10.00"> wallet</text>
</g>
<!-- Node6 -->
<g id="node5" class="node"><title>Node6</title>
<g id="a_node5"><a xlink:href="class_c_crypto_key_store.html" target="_top" xlink:title="Keystore which keeps the private keys encrypted. ">
<polygon fill="white" stroke="black" points="774,-328.5 774,-347.5 868,-347.5 868,-328.5 774,-328.5"/>
<text text-anchor="middle" x="821" y="-335.5" font-family="Helvetica,sans-Serif" font-size="10.00">CCryptoKeyStore</text>
</a>
</g>
</g>
<!-- Node6&#45;&gt;Node5 -->
<g id="edge5" class="edge"><title>Node6&#45;&gt;Node5</title>
<path fill="none" stroke="midnightblue" d="M877.947,-328.27C909.331,-322.396 949.078,-314.264 984,-305 1000.12,-300.724 1017.9,-294.902 1031.88,-290.063"/>
<polygon fill="midnightblue" stroke="midnightblue" points="877.266,-324.836 868.068,-330.096 878.538,-331.72 877.266,-324.836"/>
</g>
<!-- Node7 -->
<g id="node6" class="node"><title>Node7</title>
<g id="a_node6"><a xlink:href="class_c_basic_key_store.html" target="_top" xlink:title="Basic key store, that keeps keys in an address&#45;&gt;secret map. ">
<polygon fill="white" stroke="black" points="640.5,-328.5 640.5,-347.5 729.5,-347.5 729.5,-328.5 640.5,-328.5"/>
<text text-anchor="middle" x="685" y="-335.5" font-family="Helvetica,sans-Serif" font-size="10.00">CBasicKeyStore</text>
</a>
</g>
</g>
<!-- Node7&#45;&gt;Node6 -->
<g id="edge6" class="edge"><title>Node7&#45;&gt;Node6</title>
<path fill="none" stroke="midnightblue" d="M739.727,-338C751.061,-338 762.923,-338 773.945,-338"/>
<polygon fill="midnightblue" stroke="midnightblue" points="739.506,-334.5 729.506,-338 739.506,-341.5 739.506,-334.5"/>
</g>
<!-- Node8 -->
<g id="node7" class="node"><title>Node8</title>
<g id="a_node7"><a xlink:href="class_c_key_store.html" target="_top" xlink:title="A virtual base class for key stores. ">
<polygon fill="white" stroke="black" points="498.5,-342.5 498.5,-361.5 563.5,-361.5 563.5,-342.5 498.5,-342.5"/>
<text text-anchor="middle" x="531" y="-349.5" font-family="Helvetica,sans-Serif" font-size="10.00">CKeyStore</text>
</a>
</g>
</g>
<!-- Node8&#45;&gt;Node7 -->
<g id="edge7" class="edge"><title>Node8&#45;&gt;Node7</title>
<path fill="none" stroke="midnightblue" d="M573.931,-348.138C594.587,-346.235 619.477,-343.943 640.359,-342.02"/>
<polygon fill="midnightblue" stroke="midnightblue" points="573.501,-344.663 563.864,-349.065 574.143,-351.633 573.501,-344.663"/>
</g>
<!-- Node9 -->
<g id="node8" class="node"><title>Node9</title>
<g id="a_node8"><a xlink:href="class_c_critical_section.html" target="_top" xlink:title="Wrapped boost mutex: supports recursive locking, but no waiting TODO: We should move away from using ...">
<polygon fill="white" stroke="black" points="314,-349.5 314,-368.5 402,-368.5 402,-349.5 314,-349.5"/>
<text text-anchor="middle" x="358" y="-356.5" font-family="Helvetica,sans-Serif" font-size="10.00">CCriticalSection</text>
</a>
</g>
</g>
<!-- Node9&#45;&gt;Node5 -->
<g id="edge19" class="edge"><title>Node9&#45;&gt;Node5</title>
<path fill="none" stroke="#9a32cd" stroke-dasharray="5,2" d="M401.488,-371.076C435.855,-379.78 485.651,-390 530,-390 530,-390 530,-390 822,-390 915.995,-390 1013.15,-317.349 1045.65,-290.673"/>
<polygon fill="#9a32cd" stroke="#9a32cd" points="402.341,-367.681 391.782,-368.554 400.58,-374.456 402.341,-367.681"/>
<text text-anchor="middle" x="685" y="-393" font-family="Helvetica,sans-Serif" font-size="10.00"> cs_wallet</text>
</g>
<!-- Node9&#45;&gt;Node8 -->
<g id="edge8" class="edge"><title>Node9&#45;&gt;Node8</title>
<path fill="none" stroke="#9a32cd" stroke-dasharray="5,2" d="M412.293,-356.818C440.574,-355.661 474.362,-354.278 498.468,-353.291"/>
<polygon fill="#9a32cd" stroke="#9a32cd" points="411.999,-353.327 402.151,-357.234 412.285,-360.322 411.999,-353.327"/>
<text text-anchor="middle" x="450" y="-360" font-family="Helvetica,sans-Serif" font-size="10.00"> cs_KeyStore</text>
</g>
<!-- Node12 -->
<g id="node11" class="node"><title>Node12</title>
<g id="a_node11"><a xlink:href="class_c_h_d_chain.html" target="_top" xlink:title="CHDChain">
<polygon fill="white" stroke="black" points="498.5,-290.5 498.5,-309.5 563.5,-309.5 563.5,-290.5 498.5,-290.5"/>
<text text-anchor="middle" x="531" y="-297.5" font-family="Helvetica,sans-Serif" font-size="10.00">CHDChain</text>
</a>
</g>
</g>
<!-- Node9&#45;&gt;Node12 -->
<g id="edge14" class="edge"><title>Node9&#45;&gt;Node12</title>
<path fill="none" stroke="#9a32cd" stroke-dasharray="5,2" d="M396.32,-346.124C428.306,-335.087 473.65,-319.442 502.441,-309.509"/>
<polygon fill="#9a32cd" stroke="#9a32cd" points="395.166,-342.819 386.855,-349.389 397.449,-349.436 395.166,-342.819"/>
<text text-anchor="middle" x="450" y="-340" font-family="Helvetica,sans-Serif" font-size="10.00"> cs_accounts</text>
</g>
<!-- Node10 -->
<g id="node9" class="node"><title>Node10</title>
<polygon fill="white" stroke="#bfbfbf" points="158.5,-344 158.5,-374 275.5,-374 275.5,-344 158.5,-344"/>
<text text-anchor="start" x="166.5" y="-362" font-family="Helvetica,sans-Serif" font-size="10.00">AnnotatedMixin&lt; boost</text>
<text text-anchor="middle" x="217" y="-351" font-family="Helvetica,sans-Serif" font-size="10.00">::recursive_mutex &gt;</text>
</g>
<!-- Node10&#45;&gt;Node9 -->
<g id="edge9" class="edge"><title>Node10&#45;&gt;Node9</title>
<path fill="none" stroke="midnightblue" d="M285.927,-359C295.358,-359 304.827,-359 313.64,-359"/>
<polygon fill="midnightblue" stroke="midnightblue" points="285.741,-355.5 275.741,-359 285.741,-362.5 285.741,-355.5"/>
</g>
<!-- Node11 -->
<g id="node10" class="node"><title>Node11</title>
<polygon fill="white" stroke="#bfbfbf" points="0.5,-349.5 0.5,-368.5 119.5,-368.5 119.5,-349.5 0.5,-349.5"/>
<text text-anchor="middle" x="60" y="-356.5" font-family="Helvetica,sans-Serif" font-size="10.00">boost::recursive_mutex</text>
</g>
<!-- Node11&#45;&gt;Node10 -->
<g id="edge10" class="edge"><title>Node11&#45;&gt;Node10</title>
<path fill="none" stroke="midnightblue" d="M129.834,-359C139.356,-359 149.055,-359 158.346,-359"/>
<polygon fill="midnightblue" stroke="midnightblue" points="129.599,-355.5 119.599,-359 129.599,-362.5 129.599,-355.5"/>
</g>
<!-- Node12&#45;&gt;Node6 -->
<g id="edge15" class="edge"><title>Node12&#45;&gt;Node6</title>
<path fill="none" stroke="#9a32cd" stroke-dasharray="5,2" d="M573.505,-298.312C613.827,-297.461 676.611,-298.226 730,-308 742.394,-310.269 772.12,-320.542 794.035,-328.441"/>
<polygon fill="#9a32cd" stroke="#9a32cd" points="573.414,-294.813 563.507,-298.567 573.592,-301.811 573.414,-294.813"/>
<text text-anchor="middle" x="685" y="-311" font-family="Helvetica,sans-Serif" font-size="10.00"> cryptedHDChain</text>
</g>
<!-- Node12&#45;&gt;Node7 -->
<g id="edge11" class="edge"><title>Node12&#45;&gt;Node7</title>
<path fill="none" stroke="#9a32cd" stroke-dasharray="5,2" d="M573.837,-310.459C596.404,-316.101 624.046,-323.012 645.996,-328.499"/>
<polygon fill="#9a32cd" stroke="#9a32cd" points="574.415,-306.996 563.864,-307.966 572.717,-313.787 574.415,-306.996"/>
<text text-anchor="middle" x="602" y="-326" font-family="Helvetica,sans-Serif" font-size="10.00"> hdChain</text>
</g>
<!-- Node13 -->
<g id="node12" class="node"><title>Node13</title>
<g id="a_node12"><a xlink:href="classuint256.html" target="_top" xlink:title="256&#45;bit opaque blob. ">
<polygon fill="white" stroke="black" points="334,-281.5 334,-300.5 382,-300.5 382,-281.5 334,-281.5"/>
<text text-anchor="middle" x="358" y="-288.5" font-family="Helvetica,sans-Serif" font-size="10.00">uint256</text>
</a>
</g>
</g>
<!-- Node13&#45;&gt;Node12 -->
<g id="edge12" class="edge"><title>Node13&#45;&gt;Node12</title>
<path fill="none" stroke="#9a32cd" stroke-dasharray="5,2" d="M392.384,-289.93C416.718,-289.478 450.458,-289.529 480,-292 485.957,-292.498 492.277,-293.296 498.347,-294.2"/>
<polygon fill="#9a32cd" stroke="#9a32cd" points="392.163,-286.434 382.244,-290.158 392.32,-293.433 392.163,-286.434"/>
<text text-anchor="middle" x="450" y="-295" font-family="Helvetica,sans-Serif" font-size="10.00"> id</text>
</g>
<!-- Node14 -->
<g id="node13" class="node"><title>Node14</title>
<g id="a_node13"><a xlink:href="classbase__blob.html" target="_top" xlink:title="base_blob\&lt; 256 \&gt;">
<polygon fill="white" stroke="black" points="169.5,-281.5 169.5,-300.5 264.5,-300.5 264.5,-281.5 169.5,-281.5"/>
<text text-anchor="middle" x="217" y="-288.5" font-family="Helvetica,sans-Serif" font-size="10.00">base_blob&lt; 256 &gt;</text>
</a>
</g>
</g>
<!-- Node14&#45;&gt;Node13 -->
<g id="edge13" class="edge"><title>Node14&#45;&gt;Node13</title>
<path fill="none" stroke="midnightblue" d="M274.928,-291C295.493,-291 317.576,-291 333.65,-291"/>
<polygon fill="midnightblue" stroke="midnightblue" points="274.672,-287.5 264.672,-291 274.672,-294.5 274.672,-287.5"/>
</g>
<!-- Node15 -->
<g id="node14" class="node"><title>Node15</title>
<g id="a_node14"><a xlink:href="class_c_validation_interface.html" target="_top" xlink:title="CValidationInterface">
<polygon fill="white" stroke="black" points="768.5,-290.5 768.5,-309.5 873.5,-309.5 873.5,-290.5 768.5,-290.5"/>
<text text-anchor="middle" x="821" y="-297.5" font-family="Helvetica,sans-Serif" font-size="10.00">CValidationInterface</text>
</a>
</g>
</g>
<!-- Node15&#45;&gt;Node5 -->
<g id="edge16" class="edge"><title>Node15&#45;&gt;Node5</title>
<path fill="none" stroke="midnightblue" d="M883.626,-295.018C931.989,-291.107 996.815,-285.866 1031.9,-283.029"/>
<polygon fill="midnightblue" stroke="midnightblue" points="883.257,-291.536 873.572,-295.83 883.821,-298.513 883.257,-291.536"/>
</g>
<!-- Node16 -->
<g id="node15" class="node"><title>Node16</title>
<g id="a_node15"><a xlink:href="class_c_fee_rate.html" target="_top" xlink:title="Fee rate in satoshis per kilobyte: CAmount / kB. ">
<polygon fill="white" stroke="black" points="790,-252.5 790,-271.5 852,-271.5 852,-252.5 790,-252.5"/>
<text text-anchor="middle" x="821" y="-259.5" font-family="Helvetica,sans-Serif" font-size="10.00">CFeeRate</text>
</a>
</g>
</g>
<!-- Node16&#45;&gt;Node5 -->
<g id="edge17" class="edge"><title>Node16&#45;&gt;Node5</title>
<path fill="none" stroke="#9a32cd" stroke-dasharray="5,2" d="M862.135,-259.178C895.028,-257.541 942.716,-256.715 984,-262 1000.24,-264.078 1018.02,-268.657 1031.97,-272.799"/>
<polygon fill="#9a32cd" stroke="#9a32cd" points="861.797,-255.691 852.003,-259.731 862.179,-262.68 861.797,-255.691"/>
<text text-anchor="middle" x="938" y="-276" font-family="Helvetica,sans-Serif" font-size="10.00"> minTxFee</text>
<text text-anchor="middle" x="938" y="-265" font-family="Helvetica,sans-Serif" font-size="10.00">fallbackFee</text>
</g>
<!-- Node17 -->
<g id="node16" class="node"><title>Node17</title>
<g id="a_node16"><a xlink:href="class_c_pub_key.html" target="_top" xlink:title="An encapsulated public key. ">
<polygon fill="white" stroke="black" points="791.5,-214.5 791.5,-233.5 850.5,-233.5 850.5,-214.5 791.5,-214.5"/>
<text text-anchor="middle" x="821" y="-221.5" font-family="Helvetica,sans-Serif" font-size="10.00">CPubKey</text>
</a>
</g>
</g>
<!-- Node17&#45;&gt;Node5 -->
<g id="edge18" class="edge"><title>Node17&#45;&gt;Node5</title>
<path fill="none" stroke="#9a32cd" stroke-dasharray="5,2" d="M860.981,-224.633C894.311,-226.097 943.213,-230.457 984,-243 1005.58,-249.636 1028.33,-262.555 1042.58,-271.475"/>
<polygon fill="#9a32cd" stroke="#9a32cd" points="860.859,-221.126 850.736,-224.252 860.599,-228.121 860.859,-221.126"/>
<text text-anchor="middle" x="938" y="-246" font-family="Helvetica,sans-Serif" font-size="10.00"> vchDefaultKey</text>
</g>
<!-- Node18 -->
<g id="node17" class="node"><title>Node18</title>
<g id="a_node17"><a xlink:href="class_c_wallet_d_b.html" target="_top" xlink:title="Access to the wallet database. ">
<polygon fill="white" stroke="black" points="788,-176.5 788,-195.5 854,-195.5 854,-176.5 788,-176.5"/>
<text text-anchor="middle" x="821" y="-183.5" font-family="Helvetica,sans-Serif" font-size="10.00">CWalletDB</text>
</a>
</g>
</g>
<!-- Node18&#45;&gt;Node5 -->
<g id="edge20" class="edge"><title>Node18&#45;&gt;Node5</title>
<path fill="none" stroke="#9a32cd" stroke-dasharray="5,2" d="M864.176,-186.03C898.137,-187.598 946.262,-193.388 984,-212 1012.78,-226.193 1037.9,-255.629 1049.75,-271.064"/>
<polygon fill="#9a32cd" stroke="#9a32cd" points="864.238,-182.53 854.119,-185.67 863.987,-189.526 864.238,-182.53"/>
<text text-anchor="middle" x="938" y="-215" font-family="Helvetica,sans-Serif" font-size="10.00"> pwalletdbEncryption</text>
</g>
<!-- Node19 -->
<g id="node18" class="node"><title>Node19</title>
<g id="a_node18"><a xlink:href="class_c_d_b.html" target="_top" xlink:title="RAII class that provides access to a Berkeley database. ">
<polygon fill="white" stroke="black" points="666,-176.5 666,-195.5 704,-195.5 704,-176.5 666,-176.5"/>
<text text-anchor="middle" x="685" y="-183.5" font-family="Helvetica,sans-Serif" font-size="10.00">CDB</text>
</a>
</g>
</g>
<!-- Node19&#45;&gt;Node18 -->
<g id="edge21" class="edge"><title>Node19&#45;&gt;Node18</title>
<path fill="none" stroke="midnightblue" d="M714.211,-186C735.737,-186 765.412,-186 787.856,-186"/>
<polygon fill="midnightblue" stroke="midnightblue" points="714.072,-182.5 704.072,-186 714.072,-189.5 714.072,-182.5"/>
</g>
<!-- Node20 -->
<g id="node19" class="node"><title>Node20</title>
<g id="a_node19"><a xlink:href="class_platform_style.html" target="_top" xlink:title="PlatformStyle">
<polygon fill="white" stroke="black" points="1020,-144.5 1020,-163.5 1096,-163.5 1096,-144.5 1020,-144.5"/>
<text text-anchor="middle" x="1058" y="-151.5" font-family="Helvetica,sans-Serif" font-size="10.00">PlatformStyle</text>
</a>
</g>
</g>
<!-- Node20&#45;&gt;Node2 -->
<g id="edge22" class="edge"><title>Node20&#45;&gt;Node2</title>
<path fill="none" stroke="#9a32cd" stroke-dasharray="5,2" d="M1106.4,-154C1137.54,-154 1178.5,-154 1211.65,-154"/>
<polygon fill="#9a32cd" stroke="#9a32cd" points="1106.24,-150.5 1096.24,-154 1106.24,-157.5 1106.24,-150.5"/>
<text text-anchor="middle" x="1163" y="-157" font-family="Helvetica,sans-Serif" font-size="10.00"> platformStyle</text>
</g>
<!-- Node21&#45;&gt;Node2 -->
<g id="edge23" class="edge"><title>Node21&#45;&gt;Node2</title>
<path fill="none" stroke="#9a32cd" stroke-dasharray="5,2" d="M1477.35,-107.261C1441.78,-106.218 1391,-107.288 1348,-118 1325.76,-123.541 1302.21,-135.826 1287.33,-144.499"/>
<polygon fill="#9a32cd" stroke="#9a32cd" points="1477.3,-110.762 1487.42,-107.625 1477.55,-103.766 1477.3,-110.762"/>
<text text-anchor="middle" x="1399" y="-121" font-family="Helvetica,sans-Serif" font-size="10.00"> walletModel</text>
</g>
<!-- Node21&#45;&gt;Node23 -->
<g id="edge31" class="edge"><title>Node21&#45;&gt;Node23</title>
<path fill="none" stroke="#9a32cd" stroke-dasharray="5,2" d="M1568.69,-117.885C1577.72,-119.354 1587.15,-120.802 1596,-122 1650.56,-129.385 1713.36,-135.647 1756.16,-139.58"/>
<polygon fill="#9a32cd" stroke="#9a32cd" points="1569.16,-114.416 1558.73,-116.229 1568.02,-121.321 1569.16,-114.416"/>
<text text-anchor="middle" x="1658" y="-139" font-family="Helvetica,sans-Serif" font-size="10.00"> walletModel</text>
</g>
<!-- Node21&#45;&gt;Node25 -->
<g id="edge35" class="edge"><title>Node21&#45;&gt;Node25</title>
<path fill="none" stroke="#9a32cd" stroke-dasharray="5,2" d="M1566.76,-97.4946C1619.94,-81.8823 1705.55,-56.5465 1720,-51 1744.32,-41.6683 1771.31,-28.4848 1788.68,-19.609"/>
<polygon fill="#9a32cd" stroke="#9a32cd" points="1565.52,-94.211 1556.91,-100.384 1567.49,-100.928 1565.52,-94.211"/>
<text text-anchor="middle" x="1658" y="-92" font-family="Helvetica,sans-Serif" font-size="10.00"> walletModel</text>
</g>
<!-- Node22 -->
<g id="node21" class="node"><title>Node22</title>
<polygon fill="white" stroke="#bfbfbf" points="1244.5,-91.5 1244.5,-110.5 1297.5,-110.5 1297.5,-91.5 1244.5,-91.5"/>
<text text-anchor="middle" x="1271" y="-98.5" font-family="Helvetica,sans-Serif" font-size="10.00">QObject</text>
</g>
<!-- Node22&#45;&gt;Node21 -->
<g id="edge24" class="edge"><title>Node22&#45;&gt;Node21</title>
<path fill="none" stroke="midnightblue" d="M1307.71,-98.3189C1343.7,-96.1055 1400.8,-93.928 1450,-98 1462.25,-99.0139 1475.55,-100.982 1487.35,-103.036"/>
<polygon fill="midnightblue" stroke="midnightblue" points="1307.45,-94.8284 1297.7,-98.9695 1307.9,-101.814 1307.45,-94.8284"/>
</g>
<!-- Node23&#45;&gt;Node21 -->
<g id="edge26" class="edge"><title>Node23&#45;&gt;Node21</title>
<path fill="none" stroke="#9a32cd" stroke-dasharray="5,2" d="M1778.71,-130.317C1762.04,-123.017 1740.31,-114.777 1720,-111 1664.3,-100.644 1598.14,-103.336 1558.69,-106.484"/>
<polygon fill="#9a32cd" stroke="#9a32cd" points="1777.33,-133.535 1787.88,-134.467 1780.21,-127.157 1777.33,-133.535"/>
<text text-anchor="middle" x="1658" y="-114" font-family="Helvetica,sans-Serif" font-size="10.00"> addressTableModel</text>
</g>
<!-- Node23&#45;&gt;Node24 -->
<g id="edge29" class="edge"><title>Node23&#45;&gt;Node24</title>
<path fill="none" stroke="#9a32cd" stroke-dasharray="5,2" d="M1870.01,-155.335C1894.8,-159.942 1922.97,-165.175 1945.99,-169.451"/>
<polygon fill="#9a32cd" stroke="#9a32cd" points="1870.45,-151.857 1859.98,-153.471 1869.17,-158.739 1870.45,-151.857"/>
<text text-anchor="middle" x="1912" y="-170" font-family="Helvetica,sans-Serif" font-size="10.00"> parent</text>
</g>
<!-- Node24&#45;&gt;Node23 -->
<g id="edge28" class="edge"><title>Node24&#45;&gt;Node23</title>
<path fill="none" stroke="#9a32cd" stroke-dasharray="5,2" d="M1969.32,-162.991C1957.52,-156.067 1942.56,-148.597 1928,-145 1906.04,-139.573 1881.09,-138.606 1859.73,-139.276"/>
<polygon fill="#9a32cd" stroke="#9a32cd" points="1967.68,-166.091 1978.03,-168.343 1971.34,-160.126 1967.68,-166.091"/>
<text text-anchor="middle" x="1912" y="-148" font-family="Helvetica,sans-Serif" font-size="10.00"> priv</text>
</g>
<!-- Node25&#45;&gt;Node21 -->
<g id="edge33" class="edge"><title>Node25&#45;&gt;Node21</title>
<path fill="none" stroke="#9a32cd" stroke-dasharray="5,2" d="M1727.55,-9.69613C1686.46,-12.3463 1636.57,-20.0866 1596,-40 1566.89,-54.2875 1542.07,-84.766 1530.68,-100.366"/>
<polygon fill="#9a32cd" stroke="#9a32cd" points="1728,-13.1765 1737.79,-9.1277 1727.61,-6.18723 1728,-13.1765"/>
<text text-anchor="middle" x="1658" y="-43" font-family="Helvetica,sans-Serif" font-size="10.00"> recentRequestsTableModel</text>
</g>
<!-- Node26 -->
<g id="node25" class="node"><title>Node26</title>
<g id="a_node25"><a xlink:href="class_options_model.html" target="_top" xlink:title="Interface from Qt to configuration data structure for Bitcoin client. ">
<polygon fill="white" stroke="black" points="1232.5,-53.5 1232.5,-72.5 1309.5,-72.5 1309.5,-53.5 1232.5,-53.5"/>
<text text-anchor="middle" x="1271" y="-60.5" font-family="Helvetica,sans-Serif" font-size="10.00">OptionsModel</text>
</a>
</g>
</g>
<!-- Node26&#45;&gt;Node21 -->
<g id="edge36" class="edge"><title>Node26&#45;&gt;Node21</title>
<path fill="none" stroke="#9a32cd" stroke-dasharray="5,2" d="M1319.96,-64.1945C1356.14,-65.9715 1406.77,-70.3368 1450,-81 1468.45,-85.5505 1488.42,-93.8858 1502.63,-100.456"/>
<polygon fill="#9a32cd" stroke="#9a32cd" points="1319.83,-60.6855 1309.68,-63.7404 1319.52,-67.6787 1319.83,-60.6855"/>
<text text-anchor="middle" x="1399" y="-84" font-family="Helvetica,sans-Serif" font-size="10.00"> optionsModel</text>
</g>
<!-- Node27 -->
<g id="node26" class="node"><title>Node27</title>
<polygon fill="white" stroke="#bfbfbf" points="1006.5,-65.5 1006.5,-84.5 1109.5,-84.5 1109.5,-65.5 1006.5,-65.5"/>
<text text-anchor="middle" x="1058" y="-72.5" font-family="Helvetica,sans-Serif" font-size="10.00">QAbstractListModel</text>
</g>
<!-- Node27&#45;&gt;Node26 -->
<g id="edge37" class="edge"><title>Node27&#45;&gt;Node26</title>
<path fill="none" stroke="midnightblue" d="M1119.55,-71.5562C1155.95,-69.4861 1201.13,-66.9169 1232.43,-65.1368"/>
<polygon fill="midnightblue" stroke="midnightblue" points="1119.32,-68.0635 1109.54,-72.1257 1119.72,-75.0522 1119.32,-68.0635"/>
</g>
</g>
</svg>
        <g id="navigator" transform="translate(0 0)" fill="#404254">
                <rect fill="#f2f5e9" fill-opacity="0.5" stroke="#606060" stroke-width=".5" x="0" y="0" width="60" height="60"/>
                <use id="zoomplus" xlink:href="#zoomPlus" x="17" y="9" onmousedown="handleZoom(evt,'in')"/>
                <use id="zoomminus" xlink:href="#zoomMin" x="42" y="9" onmousedown="handleZoom(evt,'out')"/>
                <use id="reset" xlink:href="#resetDef" x="30" y="36" onmousedown="handleReset()"/>
                <g id="arrowUp" xlink:href="#dirArrow" transform="translate(30 24)" onmousedown="handlePan(0,-1)">
                  <use xlink:href="#rim" fill="#404040">
                        <set attributeName="fill" to="#808080" begin="arrowUp.mouseover" end="arrowUp.mouseout"/>
                  </use>
                  <path fill="none" stroke="white" stroke-width="1.5" d="M0,-3.0v7 M-2.5,-0.5L0,-3.0L2.5,-0.5"/>
                </g>
                <g id="arrowRight" xlink:href="#dirArrow" transform="rotate(90) translate(36 -43)" onmousedown="handlePan(1,0)">
                  <use xlink:href="#rim" fill="#404040">
                        <set attributeName="fill" to="#808080" begin="arrowRight.mouseover" end="arrowRight.mouseout"/>
                  </use>
                  <path fill="none" stroke="white" stroke-width="1.5" d="M0,-3.0v7 M-2.5,-0.5L0,-3.0L2.5,-0.5"/>
                </g>
                <g id="arrowDown" xlink:href="#dirArrow" transform="rotate(180) translate(-30 -48)" onmousedown="handlePan(0,1)">
                  <use xlink:href="#rim" fill="#404040">
                        <set attributeName="fill" to="#808080" begin="arrowDown.mouseover" end="arrowDown.mouseout"/>
                  </use>
                  <path fill="none" stroke="white" stroke-width="1.5" d="M0,-3.0v7 M-2.5,-0.5L0,-3.0L2.5,-0.5"/>
                </g>
                <g id="arrowLeft" xlink:href="#dirArrow" transform="rotate(270) translate(-36 17)" onmousedown="handlePan(-1,0)">
                  <use xlink:href="#rim" fill="#404040">
                        <set attributeName="fill" to="#808080" begin="arrowLeft.mouseover" end="arrowLeft.mouseout"/>
                  </use>
                  <path fill="none" stroke="white" stroke-width="1.5" d="M0,-3.0v7 M-2.5,-0.5L0,-3.0L2.5,-0.5"/>
                </g>
        </g>
        <svg viewBox="0 0 15 15" width="100%" height="30px" preserveAspectRatio="xMaxYMin meet">
         <g id="arrow_out" transform="scale(0.3 0.3)">
          <a xlink:href="class_transaction_table_model__coll__graph_org.svg" target="_base">
           <rect id="button" ry="5" rx="5" y="6" x="6" height="38" width="38"
                fill="#f2f5e9" fill-opacity="0.5" stroke="#606060" stroke-width="1.0"/>
           <path id="arrow"
             d="M 11.500037,31.436501 C 11.940474,20.09759 22.043105,11.32322 32.158766,21.979434 L 37.068811,17.246167 C 37.068811,17.246167 37.088388,32 37.088388,32 L 22.160133,31.978069 C 22.160133,31.978069 26.997745,27.140456 26.997745,27.140456 C 18.528582,18.264221 13.291696,25.230495 11.500037,31.436501 z"
             style="fill:#404040;"/>
          </a>
         </g>
        </svg>
</svg>
