<?xml version="1.0" encoding="UTF-8" standalone="no"?>
<!DOCTYPE svg PUBLIC "-//W3C//DTD SVG 1.1//EN"
 "http://www.w3.org/Graphics/SVG/1.1/DTD/svg11.dtd">
<!-- Generated by graphviz version 2.36.0 (20140111.2315)
 -->
<!-- Title: CBLSIESMultiRecipientBlobs Pages: 1 -->
<svg width="898pt" height="138pt"
 viewBox="0.00 0.00 898.00 138.00" xmlns="http://www.w3.org/2000/svg" xmlns:xlink="http://www.w3.org/1999/xlink">
<g id="graph0" class="graph" transform="scale(1 1) rotate(0) translate(4 134)">
<title>CBLSIESMultiRecipientBlobs</title>
<polygon fill="white" stroke="none" points="-4,4 -4,-134 894,-134 894,4 -4,4"/>
<!-- Node2 -->
<g id="node1" class="node"><title>Node2</title>
<polygon fill="#bfbfbf" stroke="black" points="744,-71.5 744,-90.5 890,-90.5 890,-71.5 744,-71.5"/>
<text text-anchor="middle" x="817" y="-78.5" font-family="Helvetica,sans-Serif" font-size="10.00">CBLSIESMultiRecipientBlobs</text>
</g>
<!-- Node3 -->
<g id="node2" class="node"><title>Node3</title>
<g id="a_node2"><a xlink:href="classuint256.html" target="_top" xlink:title="256&#45;bit opaque blob. ">
<polygon fill="white" stroke="black" points="134,-71.5 134,-90.5 182,-90.5 182,-71.5 134,-71.5"/>
<text text-anchor="middle" x="158" y="-78.5" font-family="Helvetica,sans-Serif" font-size="10.00">uint256</text>
</a>
</g>
</g>
<!-- Node3&#45;&gt;Node2 -->
<g id="edge1" class="edge"><title>Node3&#45;&gt;Node2</title>
<path fill="none" stroke="#9a32cd" stroke-dasharray="5,2" d="M191.907,-93.5837C194.627,-94.4572 197.349,-95.2765 200,-96 233.134,-105.044 241.796,-106.876 276,-110 475.267,-128.2 527.075,-117.626 726,-96 738.756,-94.6133 752.45,-92.6024 765.211,-90.5012"/>
<polygon fill="#9a32cd" stroke="#9a32cd" points="192.791,-90.1867 182.196,-90.2571 190.522,-96.809 192.791,-90.1867"/>
<text text-anchor="middle" x="489" y="-122" font-family="Helvetica,sans-Serif" font-size="10.00"> ivSeed</text>
</g>
<!-- Node6 -->
<g id="node5" class="node"><title>Node6</title>
<g id="a_node5"><a xlink:href="class_c_b_l_s_wrapper.html" target="_top" xlink:title="CBLSWrapper\&lt; bls::Private\lKey, BLS_CURVE_SECKEY_SIZE,\l CBLSSecretKey \&gt;">
<polygon fill="white" stroke="black" points="276.5,-60.5 276.5,-101.5 453.5,-101.5 453.5,-60.5 276.5,-60.5"/>
<text text-anchor="start" x="284.5" y="-89.5" font-family="Helvetica,sans-Serif" font-size="10.00">CBLSWrapper&lt; bls::Private</text>
<text text-anchor="start" x="284.5" y="-78.5" font-family="Helvetica,sans-Serif" font-size="10.00">Key, BLS_CURVE_SECKEY_SIZE,</text>
<text text-anchor="middle" x="365" y="-67.5" font-family="Helvetica,sans-Serif" font-size="10.00"> CBLSSecretKey &gt;</text>
</a>
</g>
</g>
<!-- Node3&#45;&gt;Node6 -->
<g id="edge5" class="edge"><title>Node3&#45;&gt;Node6</title>
<path fill="none" stroke="#9a32cd" stroke-dasharray="5,2" d="M192.298,-81C215.179,-81 246.693,-81 276.481,-81"/>
<polygon fill="#9a32cd" stroke="#9a32cd" points="192.118,-77.5001 182.118,-81 192.118,-84.5001 192.118,-77.5001"/>
<text text-anchor="middle" x="229" y="-84" font-family="Helvetica,sans-Serif" font-size="10.00"> cachedHash</text>
</g>
<!-- Node8 -->
<g id="node7" class="node"><title>Node8</title>
<g id="a_node7"><a xlink:href="class_c_b_l_s_wrapper.html" target="_top" xlink:title="CBLSWrapper\&lt; bls::Public\lKey, BLS_CURVE_PUBKEY\l_SIZE, CBLSPublicKey \&gt;">
<polygon fill="white" stroke="black" points="292,-0.5 292,-41.5 438,-41.5 438,-0.5 292,-0.5"/>
<text text-anchor="start" x="300" y="-29.5" font-family="Helvetica,sans-Serif" font-size="10.00">CBLSWrapper&lt; bls::Public</text>
<text text-anchor="start" x="300" y="-18.5" font-family="Helvetica,sans-Serif" font-size="10.00">Key, BLS_CURVE_PUBKEY</text>
<text text-anchor="middle" x="365" y="-7.5" font-family="Helvetica,sans-Serif" font-size="10.00">_SIZE, CBLSPublicKey &gt;</text>
</a>
</g>
</g>
<!-- Node3&#45;&gt;Node8 -->
<g id="edge8" class="edge"><title>Node3&#45;&gt;Node8</title>
<path fill="none" stroke="#9a32cd" stroke-dasharray="5,2" d="M191.981,-68.6657C194.685,-67.7364 197.383,-66.8362 200,-66 229.811,-56.4748 263.053,-47.1225 291.772,-39.433"/>
<polygon fill="#9a32cd" stroke="#9a32cd" points="190.557,-65.4568 182.301,-72.0959 192.895,-72.0549 190.557,-65.4568"/>
<text text-anchor="middle" x="229" y="-69" font-family="Helvetica,sans-Serif" font-size="10.00"> cachedHash</text>
</g>
<!-- Node4 -->
<g id="node3" class="node"><title>Node4</title>
<g id="a_node3"><a xlink:href="classbase__blob.html" target="_top" xlink:title="base_blob\&lt; 256 \&gt;">
<polygon fill="white" stroke="black" points="0.5,-71.5 0.5,-90.5 95.5,-90.5 95.5,-71.5 0.5,-71.5"/>
<text text-anchor="middle" x="48" y="-78.5" font-family="Helvetica,sans-Serif" font-size="10.00">base_blob&lt; 256 &gt;</text>
</a>
</g>
</g>
<!-- Node4&#45;&gt;Node3 -->
<g id="edge2" class="edge"><title>Node4&#45;&gt;Node3</title>
<path fill="none" stroke="midnightblue" d="M106.034,-81C115.916,-81 125.662,-81 133.943,-81"/>
<polygon fill="midnightblue" stroke="midnightblue" points="105.742,-77.5001 95.7422,-81 105.742,-84.5001 105.742,-77.5001"/>
</g>
<!-- Node5 -->
<g id="node4" class="node"><title>Node5</title>
<g id="a_node4"><a xlink:href="class_c_b_l_s_secret_key.html" target="_top" xlink:title="CBLSSecretKey">
<polygon fill="white" stroke="black" points="524.5,-71.5 524.5,-90.5 613.5,-90.5 613.5,-71.5 524.5,-71.5"/>
<text text-anchor="middle" x="569" y="-78.5" font-family="Helvetica,sans-Serif" font-size="10.00">CBLSSecretKey</text>
</a>
</g>
</g>
<!-- Node5&#45;&gt;Node2 -->
<g id="edge3" class="edge"><title>Node5&#45;&gt;Node2</title>
<path fill="none" stroke="#9a32cd" stroke-dasharray="5,2" d="M623.774,-81C658.974,-81 705.39,-81 743.793,-81"/>
<polygon fill="#9a32cd" stroke="#9a32cd" points="623.696,-77.5001 613.696,-81 623.696,-84.5001 623.696,-77.5001"/>
<text text-anchor="middle" x="679" y="-84" font-family="Helvetica,sans-Serif" font-size="10.00"> ephemeralSecretKey</text>
</g>
<!-- Node6&#45;&gt;Node5 -->
<g id="edge4" class="edge"><title>Node6&#45;&gt;Node5</title>
<path fill="none" stroke="midnightblue" d="M463.807,-81C485.103,-81 506.588,-81 524.471,-81"/>
<polygon fill="midnightblue" stroke="midnightblue" points="463.719,-77.5001 453.719,-81 463.719,-84.5001 463.719,-77.5001"/>
</g>
<!-- Node7 -->
<g id="node6" class="node"><title>Node7</title>
<g id="a_node6"><a xlink:href="class_c_b_l_s_public_key.html" target="_top" xlink:title="CBLSPublicKey">
<polygon fill="white" stroke="black" points="525.5,-28.5 525.5,-47.5 612.5,-47.5 612.5,-28.5 525.5,-28.5"/>
<text text-anchor="middle" x="569" y="-35.5" font-family="Helvetica,sans-Serif" font-size="10.00">CBLSPublicKey</text>
</a>
</g>
</g>
<!-- Node7&#45;&gt;Node2 -->
<g id="edge6" class="edge"><title>Node7&#45;&gt;Node2</title>
<path fill="none" stroke="#9a32cd" stroke-dasharray="5,2" d="M622.613,-47.1966C663.52,-54.347 720.083,-64.234 761.469,-71.4682"/>
<polygon fill="#9a32cd" stroke="#9a32cd" points="623.022,-43.7152 612.569,-45.4409 621.817,-50.6106 623.022,-43.7152"/>
<text text-anchor="middle" x="679" y="-68" font-family="Helvetica,sans-Serif" font-size="10.00"> ephemeralPubKey</text>
</g>
<!-- Node8&#45;&gt;Node7 -->
<g id="edge7" class="edge"><title>Node8&#45;&gt;Node7</title>
<path fill="none" stroke="midnightblue" d="M448.126,-27.9116C474.631,-30.1422 502.934,-32.5242 525.38,-34.4132"/>
<polygon fill="midnightblue" stroke="midnightblue" points="448.329,-24.4164 438.071,-27.0654 447.742,-31.3918 448.329,-24.4164"/>
</g>
</g>
</svg>
