<?xml version="1.0" encoding="UTF-8" standalone="no"?>
<!DOCTYPE svg PUBLIC "-//W3C//DTD SVG 1.1//EN"
 "http://www.w3.org/Graphics/SVG/1.1/DTD/svg11.dtd">
<!-- Generated by graphviz version 2.36.0 (20140111.2315)
 -->
<!-- Title: submitblock_StateCatcher Pages: 1 -->
<svg width="287pt" height="154pt"
 viewBox="0.00 0.00 287.00 154.00" xmlns="http://www.w3.org/2000/svg" xmlns:xlink="http://www.w3.org/1999/xlink">
<g id="graph0" class="graph" transform="scale(1 1) rotate(0) translate(4 150)">
<title>submitblock_StateCatcher</title>
<polygon fill="white" stroke="none" points="-4,4 -4,-150 283,-150 283,4 -4,4"/>
<!-- Node2 -->
<g id="node1" class="node"><title>Node2</title>
<polygon fill="#bfbfbf" stroke="black" points="81,-0.5 81,-19.5 213,-19.5 213,-0.5 81,-0.5"/>
<text text-anchor="middle" x="147" y="-7.5" font-family="Helvetica,sans-Serif" font-size="10.00">submitblock_StateCatcher</text>
</g>
<!-- Node3 -->
<g id="node2" class="node"><title>Node3</title>
<g id="a_node2"><a xlink:href="class_c_validation_interface.html" target="_top" xlink:title="CValidationInterface">
<polygon fill="white" stroke="black" points="-0.5,-68.5 -0.5,-87.5 104.5,-87.5 104.5,-68.5 -0.5,-68.5"/>
<text text-anchor="middle" x="52" y="-75.5" font-family="Helvetica,sans-Serif" font-size="10.00">CValidationInterface</text>
</a>
</g>
</g>
<!-- Node3&#45;&gt;Node2 -->
<g id="edge1" class="edge"><title>Node3&#45;&gt;Node2</title>
<path fill="none" stroke="midnightblue" d="M72.679,-62.6336C91.5624,-49.5145 118.858,-30.551 134.577,-19.6305"/>
<polygon fill="midnightblue" stroke="midnightblue" points="70.6352,-59.7916 64.4196,-68.3717 74.6292,-65.5404 70.6352,-59.7916"/>
</g>
<!-- Node4 -->
<g id="node3" class="node"><title>Node4</title>
<g id="a_node3"><a xlink:href="classuint256.html" target="_top" xlink:title="256&#45;bit opaque blob. ">
<polygon fill="white" stroke="black" points="123,-68.5 123,-87.5 171,-87.5 171,-68.5 123,-68.5"/>
<text text-anchor="middle" x="147" y="-75.5" font-family="Helvetica,sans-Serif" font-size="10.00">uint256</text>
</a>
</g>
</g>
<!-- Node4&#45;&gt;Node2 -->
<g id="edge2" class="edge"><title>Node4&#45;&gt;Node2</title>
<path fill="none" stroke="#9a32cd" stroke-dasharray="5,2" d="M147,-58.0413C147,-45.4724 147,-29.5631 147,-19.8411"/>
<polygon fill="#9a32cd" stroke="#9a32cd" points="143.5,-58.3716 147,-68.3717 150.5,-58.3717 143.5,-58.3716"/>
<text text-anchor="middle" x="159.5" y="-41.5" font-family="Helvetica,sans-Serif" font-size="10.00"> hash</text>
</g>
<!-- Node5 -->
<g id="node4" class="node"><title>Node5</title>
<g id="a_node4"><a xlink:href="classbase__blob.html" target="_top" xlink:title="base_blob\&lt; 256 \&gt;">
<polygon fill="white" stroke="black" points="99.5,-126.5 99.5,-145.5 194.5,-145.5 194.5,-126.5 99.5,-126.5"/>
<text text-anchor="middle" x="147" y="-133.5" font-family="Helvetica,sans-Serif" font-size="10.00">base_blob&lt; 256 &gt;</text>
</a>
</g>
</g>
<!-- Node5&#45;&gt;Node4 -->
<g id="edge3" class="edge"><title>Node5&#45;&gt;Node4</title>
<path fill="none" stroke="midnightblue" d="M147,-115.953C147,-106.287 147,-95.0312 147,-87.5052"/>
<polygon fill="midnightblue" stroke="midnightblue" points="143.5,-116.25 147,-126.25 150.5,-116.25 143.5,-116.25"/>
</g>
<!-- Node6 -->
<g id="node5" class="node"><title>Node6</title>
<g id="a_node5"><a xlink:href="class_c_validation_state.html" target="_top" xlink:title="Capture information about block/transaction validation. ">
<polygon fill="white" stroke="black" points="189,-68.5 189,-87.5 279,-87.5 279,-68.5 189,-68.5"/>
<text text-anchor="middle" x="234" y="-75.5" font-family="Helvetica,sans-Serif" font-size="10.00">CValidationState</text>
</a>
</g>
</g>
<!-- Node6&#45;&gt;Node2 -->
<g id="edge4" class="edge"><title>Node6&#45;&gt;Node2</title>
<path fill="none" stroke="#9a32cd" stroke-dasharray="5,2" d="M214.354,-62.0961C197.092,-49.0012 172.576,-30.4028 158.377,-19.6305"/>
<polygon fill="#9a32cd" stroke="#9a32cd" points="212.544,-65.1162 222.626,-68.3717 216.775,-59.5393 212.544,-65.1162"/>
<text text-anchor="middle" x="211.5" y="-41.5" font-family="Helvetica,sans-Serif" font-size="10.00"> state</text>
</g>
</g>
</svg>
