<?xml version="1.0" encoding="UTF-8" standalone="no"?>
<!DOCTYPE svg PUBLIC "-//W3C//DTD SVG 1.1//EN"
 "http://www.w3.org/Graphics/SVG/1.1/DTD/svg11.dtd">
<!-- Generated by graphviz version 2.36.0 (20140111.2315)
 -->
<!-- Title: prevector&lt; N, T, Size, Diff &gt; Pages: 1 -->
<svg width="122pt" height="108pt"
 viewBox="0.00 0.00 122.00 108.00" xmlns="http://www.w3.org/2000/svg" xmlns:xlink="http://www.w3.org/1999/xlink">
<g id="graph0" class="graph" transform="scale(1 1) rotate(0) translate(4 104)">
<title>prevector&lt; N, T, Size, Diff &gt;</title>
<polygon fill="white" stroke="none" points="-4,4 -4,-104 118,-104 118,4 -4,4"/>
<!-- Node0 -->
<g id="node1" class="node"><title>Node0</title>
<polygon fill="#bfbfbf" stroke="black" points="0,-69 0,-99 114,-99 114,-69 0,-69"/>
<text text-anchor="start" x="8" y="-87" font-family="Helvetica,sans-Serif" font-size="10.00">prevector&lt; N, T, Size,</text>
<text text-anchor="middle" x="57" y="-76" font-family="Helvetica,sans-Serif" font-size="10.00"> Diff &gt;</text>
</g>
<!-- Node1 -->
<g id="node2" class="node"><title>Node1</title>
<g id="a_node2"><a xlink:href="class_c_script.html" target="_top" xlink:title="Serialized script, used inside transaction inputs and outputs. ">
<polygon fill="white" stroke="black" points="0,-1 0,-31 114,-31 114,-1 0,-1"/>
<text text-anchor="start" x="8" y="-19" font-family="Helvetica,sans-Serif" font-size="10.00">CScript&lt; 28, unsigned</text>
<text text-anchor="middle" x="57" y="-8" font-family="Helvetica,sans-Serif" font-size="10.00"> char &gt;</text>
</a>
</g>
</g>
<!-- Node0&#45;&gt;Node1 -->
<g id="edge1" class="edge"><title>Node0&#45;&gt;Node1</title>
<path fill="none" stroke="midnightblue" d="M57,-58.5322C57,-49.3606 57,-39.2449 57,-31.2931"/>
<polygon fill="midnightblue" stroke="midnightblue" points="53.5001,-58.6789 57,-68.679 60.5001,-58.679 53.5001,-58.6789"/>
</g>
</g>
</svg>
