<?xml version="1.0" encoding="UTF-8" standalone="no"?>
<!DOCTYPE svg PUBLIC "-//W3C//DTD SVG 1.1//EN"
 "http://www.w3.org/Graphics/SVG/1.1/DTD/svg11.dtd">
<!-- Generated by graphviz version 2.36.0 (20140111.2315)
 -->
<!-- Title: COutPointLock Pages: 1 -->
<svg width="102pt" height="222pt"
 viewBox="0.00 0.00 102.00 222.00" xmlns="http://www.w3.org/2000/svg" xmlns:xlink="http://www.w3.org/1999/xlink">
<g id="graph0" class="graph" transform="scale(1 1) rotate(0) translate(4 218)">
<title>COutPointLock</title>
<polygon fill="white" stroke="none" points="-4,4 -4,-218 98,-218 98,4 -4,4"/>
<!-- Node1 -->
<g id="node1" class="node"><title>Node1</title>
<polygon fill="#bfbfbf" stroke="black" points="5.5,-0.5 5.5,-19.5 88.5,-19.5 88.5,-0.5 5.5,-0.5"/>
<text text-anchor="middle" x="47" y="-7.5" font-family="Helvetica,sans-Serif" font-size="10.00">COutPointLock</text>
</g>
<!-- Node2 -->
<g id="node2" class="node"><title>Node2</title>
<g id="a_node2"><a xlink:href="class_c_out_point.html" target="_top" xlink:title="An outpoint &#45; a combination of a transaction hash and an index n into its vout. ">
<polygon fill="white" stroke="black" points="16,-68.5 16,-87.5 78,-87.5 78,-68.5 16,-68.5"/>
<text text-anchor="middle" x="47" y="-75.5" font-family="Helvetica,sans-Serif" font-size="10.00">COutPoint</text>
</a>
</g>
</g>
<!-- Node2&#45;&gt;Node1 -->
<g id="edge1" class="edge"><title>Node2&#45;&gt;Node1</title>
<path fill="none" stroke="#9a32cd" stroke-dasharray="5,2" d="M47,-58.0413C47,-45.4724 47,-29.5631 47,-19.8411"/>
<polygon fill="#9a32cd" stroke="#9a32cd" points="43.5001,-58.3716 47,-68.3717 50.5001,-58.3717 43.5001,-58.3716"/>
<text text-anchor="middle" x="66" y="-41.5" font-family="Helvetica,sans-Serif" font-size="10.00"> outpoint</text>
</g>
<!-- Node3 -->
<g id="node3" class="node"><title>Node3</title>
<g id="a_node3"><a xlink:href="classuint256.html" target="_top" xlink:title="256&#45;bit opaque blob. ">
<polygon fill="white" stroke="black" points="23,-136.5 23,-155.5 71,-155.5 71,-136.5 23,-136.5"/>
<text text-anchor="middle" x="47" y="-143.5" font-family="Helvetica,sans-Serif" font-size="10.00">uint256</text>
</a>
</g>
</g>
<!-- Node3&#45;&gt;Node2 -->
<g id="edge2" class="edge"><title>Node3&#45;&gt;Node2</title>
<path fill="none" stroke="#9a32cd" stroke-dasharray="5,2" d="M47,-126.041C47,-113.472 47,-97.5631 47,-87.8411"/>
<polygon fill="#9a32cd" stroke="#9a32cd" points="43.5001,-126.372 47,-136.372 50.5001,-126.372 43.5001,-126.372"/>
<text text-anchor="middle" x="59.5" y="-109.5" font-family="Helvetica,sans-Serif" font-size="10.00"> hash</text>
</g>
<!-- Node4 -->
<g id="node4" class="node"><title>Node4</title>
<g id="a_node4"><a xlink:href="classbase__blob.html" target="_top" xlink:title="base_blob\&lt; 256 \&gt;">
<polygon fill="white" stroke="black" points="-0.5,-194.5 -0.5,-213.5 94.5,-213.5 94.5,-194.5 -0.5,-194.5"/>
<text text-anchor="middle" x="47" y="-201.5" font-family="Helvetica,sans-Serif" font-size="10.00">base_blob&lt; 256 &gt;</text>
</a>
</g>
</g>
<!-- Node4&#45;&gt;Node3 -->
<g id="edge3" class="edge"><title>Node4&#45;&gt;Node3</title>
<path fill="none" stroke="midnightblue" d="M47,-183.953C47,-174.287 47,-163.031 47,-155.505"/>
<polygon fill="midnightblue" stroke="midnightblue" points="43.5001,-184.25 47,-194.25 50.5001,-184.25 43.5001,-184.25"/>
</g>
</g>
</svg>
