<?xml version="1.0" encoding="UTF-8" standalone="no"?>
<!DOCTYPE svg PUBLIC "-//W3C//DTD SVG 1.1//EN"
 "http://www.w3.org/Graphics/SVG/1.1/DTD/svg11.dtd">
<!-- Generated by graphviz version 2.36.0 (20140111.2315)
 -->
<!-- Title: CEvoDB Pages: 1 -->
<svg width="990pt" height="213pt"
 viewBox="0.00 0.00 990.00 213.00" xmlns="http://www.w3.org/2000/svg" xmlns:xlink="http://www.w3.org/1999/xlink">
<g id="graph0" class="graph" transform="scale(1 1) rotate(0) translate(4 209)">
<title>CEvoDB</title>
<polygon fill="white" stroke="none" points="-4,4 -4,-209 986,-209 986,4 -4,4"/>
<!-- Node1 -->
<g id="node1" class="node"><title>Node1</title>
<polygon fill="#bfbfbf" stroke="black" points="926,-93.5 926,-112.5 982,-112.5 982,-93.5 926,-93.5"/>
<text text-anchor="middle" x="954" y="-100.5" font-family="Helvetica,sans-Serif" font-size="10.00">CEvoDB</text>
</g>
<!-- Node2 -->
<g id="node2" class="node"><title>Node2</title>
<g id="a_node2"><a xlink:href="class_c_d_b_transaction.html" target="_top" xlink:title="CDBTransaction\&lt; RootTransaction,\l RootTransaction \&gt;">
<polygon fill="white" stroke="black" points="634.5,-88 634.5,-118 807.5,-118 807.5,-88 634.5,-88"/>
<text text-anchor="start" x="642.5" y="-106" font-family="Helvetica,sans-Serif" font-size="10.00">CDBTransaction&lt; RootTransaction,</text>
<text text-anchor="middle" x="721" y="-95" font-family="Helvetica,sans-Serif" font-size="10.00"> RootTransaction &gt;</text>
</a>
</g>
</g>
<!-- Node2&#45;&gt;Node1 -->
<g id="edge1" class="edge"><title>Node2&#45;&gt;Node1</title>
<path fill="none" stroke="#9a32cd" stroke-dasharray="5,2" d="M818.089,-103C857.208,-103 899.387,-103 925.974,-103"/>
<polygon fill="#9a32cd" stroke="#9a32cd" points="817.688,-99.5001 807.688,-103 817.688,-106.5 817.688,-99.5001"/>
<text text-anchor="middle" x="867" y="-106" font-family="Helvetica,sans-Serif" font-size="10.00"> curDBTransaction</text>
</g>
<!-- Node3 -->
<g id="node3" class="node"><title>Node3</title>
<g id="a_node3"><a xlink:href="class_c_d_b_transaction.html" target="_top" xlink:title="CDBTransaction\&lt; CDBWrapper,\l CDBBatch \&gt;">
<polygon fill="white" stroke="black" points="374,-114 374,-144 534,-144 534,-114 374,-114"/>
<text text-anchor="start" x="382" y="-132" font-family="Helvetica,sans-Serif" font-size="10.00">CDBTransaction&lt; CDBWrapper,</text>
<text text-anchor="middle" x="454" y="-121" font-family="Helvetica,sans-Serif" font-size="10.00"> CDBBatch &gt;</text>
</a>
</g>
</g>
<!-- Node3&#45;&gt;Node1 -->
<g id="edge7" class="edge"><title>Node3&#45;&gt;Node1</title>
<path fill="none" stroke="#9a32cd" stroke-dasharray="5,2" d="M544.237,-140.461C546.852,-140.662 549.444,-140.842 552,-141 665.732,-148.008 694.428,-136.251 808,-127 852.477,-123.377 864.317,-127.117 908,-118 914.449,-116.654 921.262,-114.684 927.582,-112.612"/>
<polygon fill="#9a32cd" stroke="#9a32cd" points="544.327,-136.956 534.067,-139.596 543.734,-143.931 544.327,-136.956"/>
<text text-anchor="middle" x="721" y="-146" font-family="Helvetica,sans-Serif" font-size="10.00"> rootDBTransaction</text>
</g>
<!-- Node3&#45;&gt;Node2 -->
<g id="edge2" class="edge"><title>Node3&#45;&gt;Node2</title>
<path fill="none" stroke="#9a32cd" stroke-dasharray="5,2" d="M544.273,-119.77C546.877,-119.509 549.457,-119.252 552,-119 578.677,-116.355 607.747,-113.556 634.09,-111.052"/>
<polygon fill="#9a32cd" stroke="#9a32cd" points="543.735,-116.306 534.136,-120.79 544.436,-123.271 543.735,-116.306"/>
<text text-anchor="middle" x="584" y="-133" font-family="Helvetica,sans-Serif" font-size="10.00"> commitTarget</text>
<text text-anchor="middle" x="584" y="-122" font-family="Helvetica,sans-Serif" font-size="10.00">parent</text>
</g>
<!-- Node4 -->
<g id="node4" class="node"><title>Node4</title>
<g id="a_node4"><a xlink:href="class_c_d_b_wrapper.html" target="_top" xlink:title="CDBWrapper">
<polygon fill="white" stroke="black" points="1.5,-129.5 1.5,-148.5 76.5,-148.5 76.5,-129.5 1.5,-129.5"/>
<text text-anchor="middle" x="39" y="-136.5" font-family="Helvetica,sans-Serif" font-size="10.00">CDBWrapper</text>
</a>
</g>
</g>
<!-- Node4&#45;&gt;Node1 -->
<g id="edge8" class="edge"><title>Node4&#45;&gt;Node1</title>
<path fill="none" stroke="#9a32cd" stroke-dasharray="5,2" d="M66.6639,-153.133C99.9469,-169.429 159.073,-194 213,-194 213,-194 213,-194 722,-194 808.593,-194 830.699,-175.024 908,-136 920.627,-129.626 933.488,-119.788 942.209,-112.512"/>
<polygon fill="#9a32cd" stroke="#9a32cd" points="68.1004,-149.938 57.5928,-148.58 64.9606,-156.194 68.1004,-149.938"/>
<text text-anchor="middle" x="454" y="-197" font-family="Helvetica,sans-Serif" font-size="10.00"> db</text>
</g>
<!-- Node4&#45;&gt;Node3 -->
<g id="edge3" class="edge"><title>Node4&#45;&gt;Node3</title>
<path fill="none" stroke="#9a32cd" stroke-dasharray="5,2" d="M86.8893,-137.865C156.662,-136.175 288.696,-132.978 373.675,-130.921"/>
<polygon fill="#9a32cd" stroke="#9a32cd" points="86.5633,-134.371 76.651,-138.113 86.7328,-141.369 86.5633,-134.371"/>
<text text-anchor="middle" x="214" y="-140" font-family="Helvetica,sans-Serif" font-size="10.00"> parent</text>
</g>
<!-- Node5 -->
<g id="node5" class="node"><title>Node5</title>
<g id="a_node5"><a xlink:href="class_c_d_b_batch.html" target="_top" xlink:title="Batch of changes queued to be written to a CDBWrapper. ">
<polygon fill="white" stroke="black" points="182,-61.5 182,-80.5 246,-80.5 246,-61.5 182,-61.5"/>
<text text-anchor="middle" x="214" y="-68.5" font-family="Helvetica,sans-Serif" font-size="10.00">CDBBatch</text>
</a>
</g>
</g>
<!-- Node4&#45;&gt;Node5 -->
<g id="edge6" class="edge"><title>Node4&#45;&gt;Node5</title>
<path fill="none" stroke="#9a32cd" stroke-dasharray="5,2" d="M69.7193,-125.284C78.1627,-121.509 87.4003,-117.495 96,-114 126.273,-101.696 161.539,-88.9466 185.376,-80.5579"/>
<polygon fill="#9a32cd" stroke="#9a32cd" points="68.2728,-122.097 60.6001,-129.403 71.1543,-128.476 68.2728,-122.097"/>
<text text-anchor="middle" x="116" y="-117" font-family="Helvetica,sans-Serif" font-size="10.00"> parent</text>
</g>
<!-- Node5&#45;&gt;Node1 -->
<g id="edge12" class="edge"><title>Node5&#45;&gt;Node1</title>
<path fill="none" stroke="#9a32cd" stroke-dasharray="5,2" d="M256.516,-69.2299C353.369,-65.5934 601.702,-59.1188 808,-78 849.465,-81.795 896.912,-90.8926 925.912,-97.0017"/>
<polygon fill="#9a32cd" stroke="#9a32cd" points="256.13,-65.7421 246.273,-69.6254 256.401,-72.7369 256.13,-65.7421"/>
<text text-anchor="middle" x="584" y="-71" font-family="Helvetica,sans-Serif" font-size="10.00"> rootBatch</text>
</g>
<!-- Node5&#45;&gt;Node3 -->
<g id="edge4" class="edge"><title>Node5&#45;&gt;Node3</title>
<path fill="none" stroke="#9a32cd" stroke-dasharray="5,2" d="M256.099,-81.0157C293.293,-90.0798 348.598,-103.557 391.133,-113.923"/>
<polygon fill="#9a32cd" stroke="#9a32cd" points="256.659,-77.5498 246.114,-78.5825 255.001,-84.3507 256.659,-77.5498"/>
<text text-anchor="middle" x="324" y="-109" font-family="Helvetica,sans-Serif" font-size="10.00"> commitTarget</text>
</g>
<!-- Node6 -->
<g id="node6" class="node"><title>Node6</title>
<g id="a_node6"><a xlink:href="class_c_data_stream.html" target="_top" xlink:title="Double ended buffer combining vector and stream&#45;like interfaces. ">
<polygon fill="white" stroke="black" points="0.5,-58.5 0.5,-77.5 77.5,-77.5 77.5,-58.5 0.5,-58.5"/>
<text text-anchor="middle" x="39" y="-65.5" font-family="Helvetica,sans-Serif" font-size="10.00">CDataStream</text>
</a>
</g>
</g>
<!-- Node6&#45;&gt;Node5 -->
<g id="edge5" class="edge"><title>Node6&#45;&gt;Node5</title>
<path fill="none" stroke="#9a32cd" stroke-dasharray="5,2" d="M88.1323,-68.3549C103.435,-68.507 120.429,-68.7167 136,-69 151.108,-69.2749 167.882,-69.6968 181.906,-70.0823"/>
<polygon fill="#9a32cd" stroke="#9a32cd" points="87.8785,-64.8524 77.8461,-68.2586 87.8129,-71.8521 87.8785,-64.8524"/>
<text text-anchor="middle" x="116" y="-83" font-family="Helvetica,sans-Serif" font-size="10.00"> ssValue</text>
<text text-anchor="middle" x="116" y="-72" font-family="Helvetica,sans-Serif" font-size="10.00">ssKey</text>
</g>
<!-- Node7 -->
<g id="node7" class="node"><title>Node7</title>
<g id="a_node7"><a xlink:href="class_c_critical_section.html" target="_top" xlink:title="Wrapped boost mutex: supports recursive locking, but no waiting TODO: We should move away from using ...">
<polygon fill="white" stroke="black" points="677,-10.5 677,-29.5 765,-29.5 765,-10.5 677,-10.5"/>
<text text-anchor="middle" x="721" y="-17.5" font-family="Helvetica,sans-Serif" font-size="10.00">CCriticalSection</text>
</a>
</g>
</g>
<!-- Node7&#45;&gt;Node1 -->
<g id="edge9" class="edge"><title>Node7&#45;&gt;Node1</title>
<path fill="none" stroke="#9a32cd" stroke-dasharray="5,2" d="M775.26,-12.0115C814.622,-8.81908 868.083,-10.3964 908,-34 930.897,-47.5396 944.277,-77.8291 949.882,-93.3813"/>
<polygon fill="#9a32cd" stroke="#9a32cd" points="774.694,-8.54921 765.066,-12.9693 775.349,-15.5185 774.694,-8.54921"/>
<text text-anchor="middle" x="867" y="-37" font-family="Helvetica,sans-Serif" font-size="10.00"> cs</text>
</g>
<!-- Node8 -->
<g id="node8" class="node"><title>Node8</title>
<polygon fill="white" stroke="#bfbfbf" points="395.5,-0 395.5,-30 512.5,-30 512.5,-0 395.5,-0"/>
<text text-anchor="start" x="403.5" y="-18" font-family="Helvetica,sans-Serif" font-size="10.00">AnnotatedMixin&lt; boost</text>
<text text-anchor="middle" x="454" y="-7" font-family="Helvetica,sans-Serif" font-size="10.00">::recursive_mutex &gt;</text>
</g>
<!-- Node8&#45;&gt;Node7 -->
<g id="edge10" class="edge"><title>Node8&#45;&gt;Node7</title>
<path fill="none" stroke="midnightblue" d="M522.619,-16.2758C571.194,-17.1923 635.217,-18.4003 676.979,-19.1883"/>
<polygon fill="midnightblue" stroke="midnightblue" points="522.565,-12.7743 512.501,-16.0849 522.433,-19.773 522.565,-12.7743"/>
</g>
<!-- Node9 -->
<g id="node9" class="node"><title>Node9</title>
<polygon fill="white" stroke="#bfbfbf" points="154.5,-5.5 154.5,-24.5 273.5,-24.5 273.5,-5.5 154.5,-5.5"/>
<text text-anchor="middle" x="214" y="-12.5" font-family="Helvetica,sans-Serif" font-size="10.00">boost::recursive_mutex</text>
</g>
<!-- Node9&#45;&gt;Node8 -->
<g id="edge11" class="edge"><title>Node9&#45;&gt;Node8</title>
<path fill="none" stroke="midnightblue" d="M283.747,-15C319.027,-15 361.527,-15 395.112,-15"/>
<polygon fill="midnightblue" stroke="midnightblue" points="283.526,-11.5001 273.526,-15 283.526,-18.5001 283.526,-11.5001"/>
</g>
</g>
</svg>
