<?xml version="1.0" encoding="UTF-8" standalone="no"?>
<!DOCTYPE svg PUBLIC "-//W3C//DTD SVG 1.1//EN"
 "http://www.w3.org/Graphics/SVG/1.1/DTD/svg11.dtd">
<!-- Generated by graphviz version 2.36.0 (20140111.2315)
 -->
<!-- Title: TrafficGraphWidget Pages: 1 -->
<!--zoomable 222 -->
<svg id="main" version="1.1" xmlns="http://www.w3.org/2000/svg" xmlns:xlink="http://www.w3.org/1999/xlink" xml:space="preserve" onload="init(evt)">
<style type="text/css"><![CDATA[
.edge:hover path { stroke: red; }
.edge:hover polygon { stroke: red; fill: red; }
]]></style>
<script type="text/javascript"><![CDATA[
var edges = document.getElementsByTagName('g');
if (edges && edges.length) {
  for (var i=0;i<edges.length;i++) {
    if (edges[i].id.substr(0,4)=='edge') {
      edges[i].setAttribute('class','edge');
    }
  }
}
]]></script>
        <defs>
                <circle id="rim" cx="0" cy="0" r="7"/>
                <circle id="rim2" cx="0" cy="0" r="3.5"/>
                <g id="zoomPlus">
                        <use xlink:href="#rim" fill="#404040">
                                <set attributeName="fill" to="#808080" begin="zoomplus.mouseover" end="zoomplus.mouseout"/>
                        </use>
                        <path d="M-4,0h8M0,-4v8" fill="none" stroke="white" stroke-width="1.5" pointer-events="none"/>
                </g>
                <g id="zoomMin">
                        <use xlink:href="#rim" fill="#404040">
                                <set attributeName="fill" to="#808080" begin="zoomminus.mouseover" end="zoomminus.mouseout"/>
                        </use>
                        <path d="M-4,0h8" fill="none" stroke="white" stroke-width="1.5" pointer-events="none"/>
                </g>
                <g id="dirArrow">
                        <path fill="none" stroke="white" stroke-width="1.5" d="M0,-3.0v7 M-2.5,-0.5L0,-3.0L2.5,-0.5"/>
                </g>
               <g id="resetDef">
                       <use xlink:href="#rim2" fill="#404040">
                               <set attributeName="fill" to="#808080" begin="reset.mouseover" end="reset.mouseout"/>
                       </use>
               </g>
        </defs>

<script type="text/javascript">
var viewWidth = 702;
var viewHeight = 222;
var sectionId = 'dynsection-1';
</script>
<script xlink:href="svgpan.js"/>
<svg id="graph" class="graph">
<g id="viewport">
<title>TrafficGraphWidget</title>
<polygon fill="white" stroke="none" points="-4,4 -4,-218 698,-218 698,4 -4,4"/>
<!-- Node2 -->
<g id="node1" class="node"><title>Node2</title>
<polygon fill="#bfbfbf" stroke="black" points="68.5,-0.5 68.5,-19.5 169.5,-19.5 169.5,-0.5 68.5,-0.5"/>
<text text-anchor="middle" x="119" y="-7.5" font-family="Helvetica,sans-Serif" font-size="10.00">TrafficGraphWidget</text>
</g>
<!-- Node3 -->
<g id="node2" class="node"><title>Node3</title>
<polygon fill="white" stroke="#bfbfbf" points="-0.5,-68.5 -0.5,-87.5 54.5,-87.5 54.5,-68.5 -0.5,-68.5"/>
<text text-anchor="middle" x="27" y="-75.5" font-family="Helvetica,sans-Serif" font-size="10.00">QWidget</text>
</g>
<!-- Node3&#45;&gt;Node2 -->
<g id="edge1" class="edge"><title>Node3&#45;&gt;Node2</title>
<path fill="none" stroke="midnightblue" d="M47.2747,-62.4551C65.5521,-49.3431 91.8159,-30.5016 106.97,-19.6305"/>
<polygon fill="midnightblue" stroke="midnightblue" points="45.1126,-59.6986 39.0274,-68.3717 49.193,-65.3864 45.1126,-59.6986"/>
</g>
<!-- Node4 -->
<g id="node3" class="node"><title>Node4</title>
<g id="a_node3"><a xlink:href="class_traffic_graph_data.html" target="_top" xlink:title="TrafficGraphData">
<polygon fill="white" stroke="black" points="73,-68.5 73,-87.5 165,-87.5 165,-68.5 73,-68.5"/>
<text text-anchor="middle" x="119" y="-75.5" font-family="Helvetica,sans-Serif" font-size="10.00">TrafficGraphData</text>
</a>
</g>
</g>
<!-- Node4&#45;&gt;Node2 -->
<g id="edge2" class="edge"><title>Node4&#45;&gt;Node2</title>
<path fill="none" stroke="#9a32cd" stroke-dasharray="5,2" d="M119,-58.0413C119,-45.4724 119,-29.5631 119,-19.8411"/>
<polygon fill="#9a32cd" stroke="#9a32cd" points="115.5,-58.3716 119,-68.3717 122.5,-58.3717 115.5,-58.3716"/>
<text text-anchor="middle" x="157" y="-41.5" font-family="Helvetica,sans-Serif" font-size="10.00"> trafficGraphData</text>
</g>
<!-- Node5 -->
<g id="node4" class="node"><title>Node5</title>
<g id="a_node4"><a xlink:href="class_client_model.html" target="_top" xlink:title="Model for Dash network client. ">
<polygon fill="white" stroke="black" points="353,-68.5 353,-87.5 421,-87.5 421,-68.5 353,-68.5"/>
<text text-anchor="middle" x="387" y="-75.5" font-family="Helvetica,sans-Serif" font-size="10.00">ClientModel</text>
</a>
</g>
</g>
<!-- Node5&#45;&gt;Node2 -->
<g id="edge3" class="edge"><title>Node5&#45;&gt;Node2</title>
<path fill="none" stroke="#9a32cd" stroke-dasharray="5,2" d="M342.968,-70.949C312.422,-66.321 270.93,-59.1769 235,-50 217.399,-45.5045 171.555,-29.6136 143.052,-19.5567"/>
<polygon fill="#9a32cd" stroke="#9a32cd" points="342.478,-74.4145 352.884,-72.4213 343.506,-67.4905 342.478,-74.4145"/>
<text text-anchor="middle" x="261.5" y="-41.5" font-family="Helvetica,sans-Serif" font-size="10.00"> clientModel</text>
</g>
<!-- Node7 -->
<g id="node6" class="node"><title>Node7</title>
<g id="a_node6"><a xlink:href="class_peer_table_model.html" target="_top" xlink:title="Qt model providing information about connected peers, similar to the &quot;getpeerinfo&quot; RPC call...">
<polygon fill="white" stroke="black" points="495.5,-0.5 495.5,-19.5 582.5,-19.5 582.5,-0.5 495.5,-0.5"/>
<text text-anchor="middle" x="539" y="-7.5" font-family="Helvetica,sans-Serif" font-size="10.00">PeerTableModel</text>
</a>
</g>
</g>
<!-- Node5&#45;&gt;Node7 -->
<g id="edge7" class="edge"><title>Node5&#45;&gt;Node7</title>
<path fill="none" stroke="#9a32cd" stroke-dasharray="5,2" d="M414.471,-63.9245C423.061,-59.6608 432.509,-54.7883 441,-50 449.7,-45.0939 450.991,-42.3112 460,-38 475.558,-30.5549 493.723,-24.1972 508.708,-19.5248"/>
<polygon fill="#9a32cd" stroke="#9a32cd" points="412.68,-60.9044 405.235,-68.4427 415.756,-67.1924 412.68,-60.9044"/>
<text text-anchor="middle" x="486.5" y="-41.5" font-family="Helvetica,sans-Serif" font-size="10.00"> clientModel</text>
</g>
<!-- Node9 -->
<g id="node8" class="node"><title>Node9</title>
<g id="a_node8"><a xlink:href="class_ban_table_model.html" target="_top" xlink:title="Qt model providing information about connected peers, similar to the &quot;getpeerinfo&quot; RPC call...">
<polygon fill="white" stroke="black" points="345,-0.5 345,-19.5 429,-19.5 429,-0.5 345,-0.5"/>
<text text-anchor="middle" x="387" y="-7.5" font-family="Helvetica,sans-Serif" font-size="10.00">BanTableModel</text>
</a>
</g>
</g>
<!-- Node5&#45;&gt;Node9 -->
<g id="edge10" class="edge"><title>Node5&#45;&gt;Node9</title>
<path fill="none" stroke="#9a32cd" stroke-dasharray="5,2" d="M387,-58.0413C387,-45.4724 387,-29.5631 387,-19.8411"/>
<polygon fill="#9a32cd" stroke="#9a32cd" points="383.5,-58.3716 387,-68.3717 390.5,-58.3717 383.5,-58.3716"/>
<text text-anchor="middle" x="413.5" y="-41.5" font-family="Helvetica,sans-Serif" font-size="10.00"> clientModel</text>
</g>
<!-- Node6 -->
<g id="node5" class="node"><title>Node6</title>
<polygon fill="white" stroke="#bfbfbf" points="331.5,-136.5 331.5,-155.5 384.5,-155.5 384.5,-136.5 331.5,-136.5"/>
<text text-anchor="middle" x="358" y="-143.5" font-family="Helvetica,sans-Serif" font-size="10.00">QObject</text>
</g>
<!-- Node6&#45;&gt;Node5 -->
<g id="edge4" class="edge"><title>Node6&#45;&gt;Node5</title>
<path fill="none" stroke="midnightblue" d="M365.827,-127.186C371.422,-114.452 378.713,-97.8607 383.115,-87.8411"/>
<polygon fill="midnightblue" stroke="midnightblue" points="362.61,-125.808 361.791,-136.372 369.018,-128.624 362.61,-125.808"/>
</g>
<!-- Node7&#45;&gt;Node5 -->
<g id="edge5" class="edge"><title>Node7&#45;&gt;Node5</title>
<path fill="none" stroke="#9a32cd" stroke-dasharray="5,2" d="M532.692,-29.1111C529.188,-36.648 524.077,-44.8292 517,-50 489.081,-70.3982 449.248,-76.1619 421.047,-77.4379"/>
<polygon fill="#9a32cd" stroke="#9a32cd" points="536.041,-30.1609 536.507,-19.5763 529.542,-27.5603 536.041,-30.1609"/>
<text text-anchor="middle" x="563.5" y="-41.5" font-family="Helvetica,sans-Serif" font-size="10.00"> peerTableModel</text>
</g>
<!-- Node8 -->
<g id="node7" class="node"><title>Node8</title>
<polygon fill="white" stroke="#bfbfbf" points="583.5,-68.5 583.5,-87.5 694.5,-87.5 694.5,-68.5 583.5,-68.5"/>
<text text-anchor="middle" x="639" y="-75.5" font-family="Helvetica,sans-Serif" font-size="10.00">QAbstractTableModel</text>
</g>
<!-- Node8&#45;&gt;Node7 -->
<g id="edge6" class="edge"><title>Node8&#45;&gt;Node7</title>
<path fill="none" stroke="midnightblue" d="M642.948,-58.1414C643.346,-51.1623 642.389,-43.5959 638,-38 624.972,-21.3885 602.792,-14.3704 582.725,-11.6236"/>
<polygon fill="midnightblue" stroke="midnightblue" points="639.452,-57.8636 641.505,-68.2575 646.382,-58.8518 639.452,-57.8636"/>
</g>
<!-- Node8&#45;&gt;Node9 -->
<g id="edge9" class="edge"><title>Node8&#45;&gt;Node9</title>
<path fill="none" stroke="midnightblue" d="M627.925,-59.7865C621.854,-51.8174 613.607,-43.0212 604,-38 588.859,-30.0869 487.729,-19.9532 429.017,-14.6337"/>
<polygon fill="midnightblue" stroke="midnightblue" points="625.206,-62.0062 633.811,-68.1873 630.939,-57.9892 625.206,-62.0062"/>
</g>
<!-- Node9&#45;&gt;Node5 -->
<g id="edge8" class="edge"><title>Node9&#45;&gt;Node5</title>
<path fill="none" stroke="#9a32cd" stroke-dasharray="5,2" d="M334.851,-16.4305C306.997,-21.5517 281.049,-31.3663 295,-50 308.269,-67.7223 332.582,-74.3176 352.883,-76.5642"/>
<polygon fill="#9a32cd" stroke="#9a32cd" points="335.421,-19.8839 344.721,-14.808 334.286,-12.9766 335.421,-19.8839"/>
<text text-anchor="middle" x="330" y="-41.5" font-family="Helvetica,sans-Serif" font-size="10.00"> banTableModel</text>
</g>
<!-- Node10 -->
<g id="node9" class="node"><title>Node10</title>
<g id="a_node9"><a xlink:href="class_options_model.html" target="_top" xlink:title="Interface from Qt to configuration data structure for Bitcoin client. ">
<polygon fill="white" stroke="black" points="402.5,-136.5 402.5,-155.5 479.5,-155.5 479.5,-136.5 402.5,-136.5"/>
<text text-anchor="middle" x="441" y="-143.5" font-family="Helvetica,sans-Serif" font-size="10.00">OptionsModel</text>
</a>
</g>
</g>
<!-- Node10&#45;&gt;Node5 -->
<g id="edge11" class="edge"><title>Node10&#45;&gt;Node5</title>
<path fill="none" stroke="#9a32cd" stroke-dasharray="5,2" d="M427.345,-128.31C416.818,-115.444 402.675,-98.1583 394.234,-87.8411"/>
<polygon fill="#9a32cd" stroke="#9a32cd" points="424.899,-130.848 433.94,-136.372 430.317,-126.416 424.899,-130.848"/>
<text text-anchor="middle" x="449.5" y="-109.5" font-family="Helvetica,sans-Serif" font-size="10.00"> optionsModel</text>
</g>
<!-- Node11 -->
<g id="node10" class="node"><title>Node11</title>
<polygon fill="white" stroke="#bfbfbf" points="389.5,-194.5 389.5,-213.5 492.5,-213.5 492.5,-194.5 389.5,-194.5"/>
<text text-anchor="middle" x="441" y="-201.5" font-family="Helvetica,sans-Serif" font-size="10.00">QAbstractListModel</text>
</g>
<!-- Node11&#45;&gt;Node10 -->
<g id="edge12" class="edge"><title>Node11&#45;&gt;Node10</title>
<path fill="none" stroke="midnightblue" d="M441,-183.953C441,-174.287 441,-163.031 441,-155.505"/>
<polygon fill="midnightblue" stroke="midnightblue" points="437.5,-184.25 441,-194.25 444.5,-184.25 437.5,-184.25"/>
</g>
</g>
</svg>
        <g id="navigator" transform="translate(0 0)" fill="#404254">
                <rect fill="#f2f5e9" fill-opacity="0.5" stroke="#606060" stroke-width=".5" x="0" y="0" width="60" height="60"/>
                <use id="zoomplus" xlink:href="#zoomPlus" x="17" y="9" onmousedown="handleZoom(evt,'in')"/>
                <use id="zoomminus" xlink:href="#zoomMin" x="42" y="9" onmousedown="handleZoom(evt,'out')"/>
                <use id="reset" xlink:href="#resetDef" x="30" y="36" onmousedown="handleReset()"/>
                <g id="arrowUp" xlink:href="#dirArrow" transform="translate(30 24)" onmousedown="handlePan(0,-1)">
                  <use xlink:href="#rim" fill="#404040">
                        <set attributeName="fill" to="#808080" begin="arrowUp.mouseover" end="arrowUp.mouseout"/>
                  </use>
                  <path fill="none" stroke="white" stroke-width="1.5" d="M0,-3.0v7 M-2.5,-0.5L0,-3.0L2.5,-0.5"/>
                </g>
                <g id="arrowRight" xlink:href="#dirArrow" transform="rotate(90) translate(36 -43)" onmousedown="handlePan(1,0)">
                  <use xlink:href="#rim" fill="#404040">
                        <set attributeName="fill" to="#808080" begin="arrowRight.mouseover" end="arrowRight.mouseout"/>
                  </use>
                  <path fill="none" stroke="white" stroke-width="1.5" d="M0,-3.0v7 M-2.5,-0.5L0,-3.0L2.5,-0.5"/>
                </g>
                <g id="arrowDown" xlink:href="#dirArrow" transform="rotate(180) translate(-30 -48)" onmousedown="handlePan(0,1)">
                  <use xlink:href="#rim" fill="#404040">
                        <set attributeName="fill" to="#808080" begin="arrowDown.mouseover" end="arrowDown.mouseout"/>
                  </use>
                  <path fill="none" stroke="white" stroke-width="1.5" d="M0,-3.0v7 M-2.5,-0.5L0,-3.0L2.5,-0.5"/>
                </g>
                <g id="arrowLeft" xlink:href="#dirArrow" transform="rotate(270) translate(-36 17)" onmousedown="handlePan(-1,0)">
                  <use xlink:href="#rim" fill="#404040">
                        <set attributeName="fill" to="#808080" begin="arrowLeft.mouseover" end="arrowLeft.mouseout"/>
                  </use>
                  <path fill="none" stroke="white" stroke-width="1.5" d="M0,-3.0v7 M-2.5,-0.5L0,-3.0L2.5,-0.5"/>
                </g>
        </g>
        <svg viewBox="0 0 15 15" width="100%" height="30px" preserveAspectRatio="xMaxYMin meet">
         <g id="arrow_out" transform="scale(0.3 0.3)">
          <a xlink:href="class_traffic_graph_widget__coll__graph_org.svg" target="_base">
           <rect id="button" ry="5" rx="5" y="6" x="6" height="38" width="38"
                fill="#f2f5e9" fill-opacity="0.5" stroke="#606060" stroke-width="1.0"/>
           <path id="arrow"
             d="M 11.500037,31.436501 C 11.940474,20.09759 22.043105,11.32322 32.158766,21.979434 L 37.068811,17.246167 C 37.068811,17.246167 37.088388,32 37.088388,32 L 22.160133,31.978069 C 22.160133,31.978069 26.997745,27.140456 26.997745,27.140456 C 18.528582,18.264221 13.291696,25.230495 11.500037,31.436501 z"
             style="fill:#404040;"/>
          </a>
         </g>
        </svg>
</svg>
