<?xml version="1.0" encoding="UTF-8" standalone="no"?>
<!DOCTYPE svg PUBLIC "-//W3C//DTD SVG 1.1//EN"
 "http://www.w3.org/Graphics/SVG/1.1/DTD/svg11.dtd">
<!-- Generated by graphviz version 2.36.0 (20140111.2315)
 -->
<!-- Title: CZMQAbstractPublishNotifier Pages: 1 -->
<!--zoomable 557 -->
<svg id="main" version="1.1" xmlns="http://www.w3.org/2000/svg" xmlns:xlink="http://www.w3.org/1999/xlink" xml:space="preserve" onload="init(evt)">
<style type="text/css"><![CDATA[
.edge:hover path { stroke: red; }
.edge:hover polygon { stroke: red; fill: red; }
]]></style>
<script type="text/javascript"><![CDATA[
var edges = document.getElementsByTagName('g');
if (edges && edges.length) {
  for (var i=0;i<edges.length;i++) {
    if (edges[i].id.substr(0,4)=='edge') {
      edges[i].setAttribute('class','edge');
    }
  }
}
]]></script>
        <defs>
                <circle id="rim" cx="0" cy="0" r="7"/>
                <circle id="rim2" cx="0" cy="0" r="3.5"/>
                <g id="zoomPlus">
                        <use xlink:href="#rim" fill="#404040">
                                <set attributeName="fill" to="#808080" begin="zoomplus.mouseover" end="zoomplus.mouseout"/>
                        </use>
                        <path d="M-4,0h8M0,-4v8" fill="none" stroke="white" stroke-width="1.5" pointer-events="none"/>
                </g>
                <g id="zoomMin">
                        <use xlink:href="#rim" fill="#404040">
                                <set attributeName="fill" to="#808080" begin="zoomminus.mouseover" end="zoomminus.mouseout"/>
                        </use>
                        <path d="M-4,0h8" fill="none" stroke="white" stroke-width="1.5" pointer-events="none"/>
                </g>
                <g id="dirArrow">
                        <path fill="none" stroke="white" stroke-width="1.5" d="M0,-3.0v7 M-2.5,-0.5L0,-3.0L2.5,-0.5"/>
                </g>
               <g id="resetDef">
                       <use xlink:href="#rim2" fill="#404040">
                               <set attributeName="fill" to="#808080" begin="reset.mouseover" end="reset.mouseout"/>
                       </use>
               </g>
        </defs>

<script type="text/javascript">
var viewWidth = 498;
var viewHeight = 557;
var sectionId = 'dynsection-0';
</script>
<script xlink:href="svgpan.js"/>
<svg id="graph" class="graph">
<g id="viewport">
<title>CZMQAbstractPublishNotifier</title>
<polygon fill="white" stroke="none" points="-4,4 -4,-553 494,-553 494,4 -4,4"/>
<!-- Node0 -->
<g id="node1" class="node"><title>Node0</title>
<polygon fill="#bfbfbf" stroke="black" points="150,-267.5 150,-286.5 296,-286.5 296,-267.5 150,-267.5"/>
<text text-anchor="middle" x="223" y="-274.5" font-family="Helvetica,sans-Serif" font-size="10.00">CZMQAbstractPublishNotifier</text>
</g>
<!-- Node2 -->
<g id="node3" class="node"><title>Node2</title>
<g id="a_node3"><a xlink:href="class_c_z_m_q_publish_hash_block_notifier.html" target="_top" xlink:title="CZMQPublishHashBlockNotifier">
<polygon fill="white" stroke="black" points="332,-529.5 332,-548.5 490,-548.5 490,-529.5 332,-529.5"/>
<text text-anchor="middle" x="411" y="-536.5" font-family="Helvetica,sans-Serif" font-size="10.00">CZMQPublishHashBlockNotifier</text>
</a>
</g>
</g>
<!-- Node0&#45;&gt;Node2 -->
<g id="edge2" class="edge"><title>Node0&#45;&gt;Node2</title>
<path fill="none" stroke="midnightblue" d="M226.872,-296.541C234.713,-342.672 260.868,-458.962 332,-519 337.128,-523.328 343.075,-526.736 349.354,-529.417"/>
<polygon fill="midnightblue" stroke="midnightblue" points="230.323,-295.955 225.291,-286.632 223.41,-297.058 230.323,-295.955"/>
</g>
<!-- Node3 -->
<g id="node4" class="node"><title>Node3</title>
<g id="a_node4"><a xlink:href="class_c_z_m_q_publish_hash_governance_object_notifier.html" target="_top" xlink:title="CZMQPublishHashGovernance\lObjectNotifier">
<polygon fill="white" stroke="black" points="334,-480 334,-510 488,-510 488,-480 334,-480"/>
<text text-anchor="start" x="342" y="-498" font-family="Helvetica,sans-Serif" font-size="10.00">CZMQPublishHashGovernance</text>
<text text-anchor="middle" x="411" y="-487" font-family="Helvetica,sans-Serif" font-size="10.00">ObjectNotifier</text>
</a>
</g>
</g>
<!-- Node0&#45;&gt;Node3 -->
<g id="edge3" class="edge"><title>Node0&#45;&gt;Node3</title>
<path fill="none" stroke="midnightblue" d="M229.643,-296.715C241.788,-335.635 274.103,-422.662 332,-470 336.734,-473.87 342.078,-477.146 347.694,-479.917"/>
<polygon fill="midnightblue" stroke="midnightblue" points="232.858,-295.252 226.63,-286.68 226.153,-297.264 232.858,-295.252"/>
</g>
<!-- Node4 -->
<g id="node5" class="node"><title>Node4</title>
<g id="a_node5"><a xlink:href="class_c_z_m_q_publish_hash_governance_vote_notifier.html" target="_top" xlink:title="CZMQPublishHashGovernance\lVoteNotifier">
<polygon fill="white" stroke="black" points="334,-431 334,-461 488,-461 488,-431 334,-431"/>
<text text-anchor="start" x="342" y="-449" font-family="Helvetica,sans-Serif" font-size="10.00">CZMQPublishHashGovernance</text>
<text text-anchor="middle" x="411" y="-438" font-family="Helvetica,sans-Serif" font-size="10.00">VoteNotifier</text>
</a>
</g>
</g>
<!-- Node0&#45;&gt;Node4 -->
<g id="edge4" class="edge"><title>Node0&#45;&gt;Node4</title>
<path fill="none" stroke="midnightblue" d="M233.194,-295.862C249.102,-326.562 284.656,-387.292 332,-421 337.444,-424.876 343.519,-428.172 349.809,-430.97"/>
<polygon fill="midnightblue" stroke="midnightblue" points="236.193,-294.035 228.564,-286.684 229.943,-297.188 236.193,-294.035"/>
</g>
<!-- Node5 -->
<g id="node6" class="node"><title>Node5</title>
<g id="a_node6"><a xlink:href="class_c_z_m_q_publish_hash_instant_send_double_spend_notifier.html" target="_top" xlink:title="CZMQPublishHashInstantSend\lDoubleSpendNotifier">
<polygon fill="white" stroke="black" points="334,-382 334,-412 488,-412 488,-382 334,-382"/>
<text text-anchor="start" x="342" y="-400" font-family="Helvetica,sans-Serif" font-size="10.00">CZMQPublishHashInstantSend</text>
<text text-anchor="middle" x="411" y="-389" font-family="Helvetica,sans-Serif" font-size="10.00">DoubleSpendNotifier</text>
</a>
</g>
</g>
<!-- Node0&#45;&gt;Node5 -->
<g id="edge5" class="edge"><title>Node0&#45;&gt;Node5</title>
<path fill="none" stroke="midnightblue" d="M239.134,-294.075C258.666,-315.151 294.605,-350.797 332,-372 338.68,-375.788 346.012,-379.09 353.425,-381.942"/>
<polygon fill="midnightblue" stroke="midnightblue" points="241.578,-291.56 232.259,-286.52 236.401,-296.272 241.578,-291.56"/>
</g>
<!-- Node6 -->
<g id="node7" class="node"><title>Node6</title>
<g id="a_node7"><a xlink:href="class_c_z_m_q_publish_hash_transaction_lock_notifier.html" target="_top" xlink:title="CZMQPublishHashTransaction\lLockNotifier">
<polygon fill="white" stroke="black" points="335,-333 335,-363 487,-363 487,-333 335,-333"/>
<text text-anchor="start" x="343" y="-351" font-family="Helvetica,sans-Serif" font-size="10.00">CZMQPublishHashTransaction</text>
<text text-anchor="middle" x="411" y="-340" font-family="Helvetica,sans-Serif" font-size="10.00">LockNotifier</text>
</a>
</g>
</g>
<!-- Node0&#45;&gt;Node6 -->
<g id="edge6" class="edge"><title>Node0&#45;&gt;Node6</title>
<path fill="none" stroke="midnightblue" d="M254.135,-290.722C275.631,-300.291 305.334,-313.072 332,-323 341.195,-326.424 351.1,-329.818 360.664,-332.95"/>
<polygon fill="midnightblue" stroke="midnightblue" points="255.433,-287.468 244.876,-286.573 252.571,-293.856 255.433,-287.468"/>
</g>
<!-- Node7 -->
<g id="node8" class="node"><title>Node7</title>
<g id="a_node8"><a xlink:href="class_c_z_m_q_publish_hash_transaction_notifier.html" target="_top" xlink:title="CZMQPublishHashTransaction\lNotifier">
<polygon fill="white" stroke="black" points="335,-284 335,-314 487,-314 487,-284 335,-284"/>
<text text-anchor="start" x="343" y="-302" font-family="Helvetica,sans-Serif" font-size="10.00">CZMQPublishHashTransaction</text>
<text text-anchor="middle" x="411" y="-291" font-family="Helvetica,sans-Serif" font-size="10.00">Notifier</text>
</a>
</g>
</g>
<!-- Node0&#45;&gt;Node7 -->
<g id="edge7" class="edge"><title>Node0&#45;&gt;Node7</title>
<path fill="none" stroke="midnightblue" d="M306.365,-286.742C315.824,-287.861 325.431,-288.997 334.789,-290.104"/>
<polygon fill="midnightblue" stroke="midnightblue" points="306.521,-283.236 296.179,-285.537 305.698,-290.188 306.521,-283.236"/>
</g>
<!-- Node8 -->
<g id="node9" class="node"><title>Node8</title>
<g id="a_node9"><a xlink:href="class_c_z_m_q_publish_raw_block_notifier.html" target="_top" xlink:title="CZMQPublishRawBlockNotifier">
<polygon fill="white" stroke="black" points="333.5,-245.5 333.5,-264.5 488.5,-264.5 488.5,-245.5 333.5,-245.5"/>
<text text-anchor="middle" x="411" y="-252.5" font-family="Helvetica,sans-Serif" font-size="10.00">CZMQPublishRawBlockNotifier</text>
</a>
</g>
</g>
<!-- Node0&#45;&gt;Node8 -->
<g id="edge8" class="edge"><title>Node0&#45;&gt;Node8</title>
<path fill="none" stroke="midnightblue" d="M306.241,-267.273C315.22,-266.211 324.335,-265.132 333.245,-264.079"/>
<polygon fill="midnightblue" stroke="midnightblue" points="305.698,-263.812 296.179,-268.463 306.521,-270.764 305.698,-263.812"/>
</g>
<!-- Node9 -->
<g id="node10" class="node"><title>Node9</title>
<g id="a_node10"><a xlink:href="class_c_z_m_q_publish_raw_governance_object_notifier.html" target="_top" xlink:title="CZMQPublishRawGovernance\lObjectNotifier">
<polygon fill="white" stroke="black" points="335.5,-196 335.5,-226 486.5,-226 486.5,-196 335.5,-196"/>
<text text-anchor="start" x="343.5" y="-214" font-family="Helvetica,sans-Serif" font-size="10.00">CZMQPublishRawGovernance</text>
<text text-anchor="middle" x="411" y="-203" font-family="Helvetica,sans-Serif" font-size="10.00">ObjectNotifier</text>
</a>
</g>
</g>
<!-- Node0&#45;&gt;Node9 -->
<g id="edge9" class="edge"><title>Node0&#45;&gt;Node9</title>
<path fill="none" stroke="midnightblue" d="M257.842,-263.628C279.044,-255.382 306.996,-244.746 332,-236 341.53,-232.666 351.774,-229.259 361.602,-226.075"/>
<polygon fill="midnightblue" stroke="midnightblue" points="256.356,-260.451 248.315,-267.35 258.903,-266.971 256.356,-260.451"/>
</g>
<!-- Node10 -->
<g id="node11" class="node"><title>Node10</title>
<g id="a_node11"><a xlink:href="class_c_z_m_q_publish_raw_governance_vote_notifier.html" target="_top" xlink:title="CZMQPublishRawGovernance\lVoteNotifier">
<polygon fill="white" stroke="black" points="335.5,-147 335.5,-177 486.5,-177 486.5,-147 335.5,-147"/>
<text text-anchor="start" x="343.5" y="-165" font-family="Helvetica,sans-Serif" font-size="10.00">CZMQPublishRawGovernance</text>
<text text-anchor="middle" x="411" y="-154" font-family="Helvetica,sans-Serif" font-size="10.00">VoteNotifier</text>
</a>
</g>
</g>
<!-- Node0&#45;&gt;Node10 -->
<g id="edge10" class="edge"><title>Node0&#45;&gt;Node10</title>
<path fill="none" stroke="midnightblue" d="M239.853,-259.985C259.628,-239.69 295.325,-206.004 332,-186 338.219,-182.608 344.984,-179.625 351.845,-177.022"/>
<polygon fill="midnightblue" stroke="midnightblue" points="237.242,-257.652 232.855,-267.296 242.298,-262.492 237.242,-257.652"/>
</g>
<!-- Node11 -->
<g id="node12" class="node"><title>Node11</title>
<g id="a_node12"><a xlink:href="class_c_z_m_q_publish_raw_instant_send_double_spend_notifier.html" target="_top" xlink:title="CZMQPublishRawInstantSend\lDoubleSpendNotifier">
<polygon fill="white" stroke="black" points="335.5,-98 335.5,-128 486.5,-128 486.5,-98 335.5,-98"/>
<text text-anchor="start" x="343.5" y="-116" font-family="Helvetica,sans-Serif" font-size="10.00">CZMQPublishRawInstantSend</text>
<text text-anchor="middle" x="411" y="-105" font-family="Helvetica,sans-Serif" font-size="10.00">DoubleSpendNotifier</text>
</a>
</g>
</g>
<!-- Node0&#45;&gt;Node11 -->
<g id="edge11" class="edge"><title>Node0&#45;&gt;Node11</title>
<path fill="none" stroke="midnightblue" d="M233.523,-258.171C249.679,-228.107 285.306,-169.365 332,-137 336.891,-133.61 342.276,-130.686 347.862,-128.167"/>
<polygon fill="midnightblue" stroke="midnightblue" points="230.34,-256.704 228.803,-267.187 236.542,-259.951 230.34,-256.704"/>
</g>
<!-- Node12 -->
<g id="node13" class="node"><title>Node12</title>
<g id="a_node13"><a xlink:href="class_c_z_m_q_publish_raw_transaction_lock_notifier.html" target="_top" xlink:title="CZMQPublishRawTransaction\lLockNotifier">
<polygon fill="white" stroke="black" points="336.5,-49 336.5,-79 485.5,-79 485.5,-49 336.5,-49"/>
<text text-anchor="start" x="344.5" y="-67" font-family="Helvetica,sans-Serif" font-size="10.00">CZMQPublishRawTransaction</text>
<text text-anchor="middle" x="411" y="-56" font-family="Helvetica,sans-Serif" font-size="10.00">LockNotifier</text>
</a>
</g>
</g>
<!-- Node0&#45;&gt;Node12 -->
<g id="edge12" class="edge"><title>Node0&#45;&gt;Node12</title>
<path fill="none" stroke="midnightblue" d="M229.717,-257.633C241.996,-219.41 274.537,-134.002 332,-88 336.314,-84.5467 341.123,-81.5887 346.178,-79.055"/>
<polygon fill="midnightblue" stroke="midnightblue" points="226.28,-256.901 226.669,-267.489 232.967,-258.97 226.28,-256.901"/>
</g>
<!-- Node13 -->
<g id="node14" class="node"><title>Node13</title>
<g id="a_node14"><a xlink:href="class_c_z_m_q_publish_raw_transaction_notifier.html" target="_top" xlink:title="CZMQPublishRawTransaction\lNotifier">
<polygon fill="white" stroke="black" points="336.5,-0 336.5,-30 485.5,-30 485.5,-0 336.5,-0"/>
<text text-anchor="start" x="344.5" y="-18" font-family="Helvetica,sans-Serif" font-size="10.00">CZMQPublishRawTransaction</text>
<text text-anchor="middle" x="411" y="-7" font-family="Helvetica,sans-Serif" font-size="10.00">Notifier</text>
</a>
</g>
</g>
<!-- Node0&#45;&gt;Node13 -->
<g id="edge13" class="edge"><title>Node0&#45;&gt;Node13</title>
<path fill="none" stroke="midnightblue" d="M227.336,-257.086C236.01,-211.574 263.543,-99.2416 332,-39 335.935,-35.5369 340.363,-32.5734 345.057,-30.0376"/>
<polygon fill="midnightblue" stroke="midnightblue" points="223.853,-256.682 225.524,-267.144 230.742,-257.923 223.853,-256.682"/>
</g>
<!-- Node1 -->
<g id="node2" class="node"><title>Node1</title>
<g id="a_node2"><a xlink:href="class_c_z_m_q_abstract_notifier.html" target="_top" xlink:title="CZMQAbstractNotifier">
<polygon fill="white" stroke="black" points="0,-267.5 0,-286.5 114,-286.5 114,-267.5 0,-267.5"/>
<text text-anchor="middle" x="57" y="-274.5" font-family="Helvetica,sans-Serif" font-size="10.00">CZMQAbstractNotifier</text>
</a>
</g>
</g>
<!-- Node1&#45;&gt;Node0 -->
<g id="edge1" class="edge"><title>Node1&#45;&gt;Node0</title>
<path fill="none" stroke="midnightblue" d="M124.482,-277C132.825,-277 141.39,-277 149.816,-277"/>
<polygon fill="midnightblue" stroke="midnightblue" points="124.44,-273.5 114.439,-277 124.439,-280.5 124.44,-273.5"/>
</g>
</g>
</svg>
        <g id="navigator" transform="translate(0 0)" fill="#404254">
                <rect fill="#f2f5e9" fill-opacity="0.5" stroke="#606060" stroke-width=".5" x="0" y="0" width="60" height="60"/>
                <use id="zoomplus" xlink:href="#zoomPlus" x="17" y="9" onmousedown="handleZoom(evt,'in')"/>
                <use id="zoomminus" xlink:href="#zoomMin" x="42" y="9" onmousedown="handleZoom(evt,'out')"/>
                <use id="reset" xlink:href="#resetDef" x="30" y="36" onmousedown="handleReset()"/>
                <g id="arrowUp" xlink:href="#dirArrow" transform="translate(30 24)" onmousedown="handlePan(0,-1)">
                  <use xlink:href="#rim" fill="#404040">
                        <set attributeName="fill" to="#808080" begin="arrowUp.mouseover" end="arrowUp.mouseout"/>
                  </use>
                  <path fill="none" stroke="white" stroke-width="1.5" d="M0,-3.0v7 M-2.5,-0.5L0,-3.0L2.5,-0.5"/>
                </g>
                <g id="arrowRight" xlink:href="#dirArrow" transform="rotate(90) translate(36 -43)" onmousedown="handlePan(1,0)">
                  <use xlink:href="#rim" fill="#404040">
                        <set attributeName="fill" to="#808080" begin="arrowRight.mouseover" end="arrowRight.mouseout"/>
                  </use>
                  <path fill="none" stroke="white" stroke-width="1.5" d="M0,-3.0v7 M-2.5,-0.5L0,-3.0L2.5,-0.5"/>
                </g>
                <g id="arrowDown" xlink:href="#dirArrow" transform="rotate(180) translate(-30 -48)" onmousedown="handlePan(0,1)">
                  <use xlink:href="#rim" fill="#404040">
                        <set attributeName="fill" to="#808080" begin="arrowDown.mouseover" end="arrowDown.mouseout"/>
                  </use>
                  <path fill="none" stroke="white" stroke-width="1.5" d="M0,-3.0v7 M-2.5,-0.5L0,-3.0L2.5,-0.5"/>
                </g>
                <g id="arrowLeft" xlink:href="#dirArrow" transform="rotate(270) translate(-36 17)" onmousedown="handlePan(-1,0)">
                  <use xlink:href="#rim" fill="#404040">
                        <set attributeName="fill" to="#808080" begin="arrowLeft.mouseover" end="arrowLeft.mouseout"/>
                  </use>
                  <path fill="none" stroke="white" stroke-width="1.5" d="M0,-3.0v7 M-2.5,-0.5L0,-3.0L2.5,-0.5"/>
                </g>
        </g>
        <svg viewBox="0 0 15 15" width="100%" height="30px" preserveAspectRatio="xMaxYMin meet">
         <g id="arrow_out" transform="scale(0.3 0.3)">
          <a xlink:href="class_c_z_m_q_abstract_publish_notifier__inherit__graph_org.svg" target="_base">
           <rect id="button" ry="5" rx="5" y="6" x="6" height="38" width="38"
                fill="#f2f5e9" fill-opacity="0.5" stroke="#606060" stroke-width="1.0"/>
           <path id="arrow"
             d="M 11.500037,31.436501 C 11.940474,20.09759 22.043105,11.32322 32.158766,21.979434 L 37.068811,17.246167 C 37.068811,17.246167 37.088388,32 37.088388,32 L 22.160133,31.978069 C 22.160133,31.978069 26.997745,27.140456 26.997745,27.140456 C 18.528582,18.264221 13.291696,25.230495 11.500037,31.436501 z"
             style="fill:#404040;"/>
          </a>
         </g>
        </svg>
</svg>
