<?xml version="1.0" encoding="UTF-8" standalone="no"?>
<!DOCTYPE svg PUBLIC "-//W3C//DTD SVG 1.1//EN"
 "http://www.w3.org/Graphics/SVG/1.1/DTD/svg11.dtd">
<!-- Generated by graphviz version 2.36.0 (20140111.2315)
 -->
<!-- Title: CBLSId Pages: 1 -->
<svg width="180pt" height="234pt"
 viewBox="0.00 0.00 180.00 234.00" xmlns="http://www.w3.org/2000/svg" xmlns:xlink="http://www.w3.org/1999/xlink">
<g id="graph0" class="graph" transform="scale(1 1) rotate(0) translate(4 230)">
<title>CBLSId</title>
<polygon fill="white" stroke="none" points="-4,4 -4,-230 176,-230 176,4 -4,4"/>
<!-- Node2 -->
<g id="node1" class="node"><title>Node2</title>
<polygon fill="#bfbfbf" stroke="black" points="60.5,-0.5 60.5,-19.5 111.5,-19.5 111.5,-0.5 60.5,-0.5"/>
<text text-anchor="middle" x="86" y="-7.5" font-family="Helvetica,sans-Serif" font-size="10.00">CBLSId</text>
</g>
<!-- Node3 -->
<g id="node2" class="node"><title>Node3</title>
<g id="a_node2"><a xlink:href="class_c_b_l_s_wrapper.html" target="_top" xlink:title="CBLSWrapper\&lt; uint256,\l BLS_CURVE_ID_SIZE, CBLSId \&gt;">
<polygon fill="white" stroke="black" points="-0.5,-59 -0.5,-89 172.5,-89 172.5,-59 -0.5,-59"/>
<text text-anchor="start" x="7.5" y="-77" font-family="Helvetica,sans-Serif" font-size="10.00">CBLSWrapper&lt; uint256,</text>
<text text-anchor="middle" x="86" y="-66" font-family="Helvetica,sans-Serif" font-size="10.00"> BLS_CURVE_ID_SIZE, CBLSId &gt;</text>
</a>
</g>
</g>
<!-- Node3&#45;&gt;Node2 -->
<g id="edge1" class="edge"><title>Node3&#45;&gt;Node2</title>
<path fill="none" stroke="midnightblue" d="M86,-48.8706C86,-38.6625 86,-27.4077 86,-19.8419"/>
<polygon fill="midnightblue" stroke="midnightblue" points="82.5001,-48.9312 86,-58.9312 89.5001,-48.9313 82.5001,-48.9312"/>
</g>
<!-- Node4 -->
<g id="node3" class="node"><title>Node4</title>
<g id="a_node3"><a xlink:href="classuint256.html" target="_top" xlink:title="256&#45;bit opaque blob. ">
<polygon fill="white" stroke="black" points="62,-148.5 62,-167.5 110,-167.5 110,-148.5 62,-148.5"/>
<text text-anchor="middle" x="86" y="-155.5" font-family="Helvetica,sans-Serif" font-size="10.00">uint256</text>
</a>
</g>
</g>
<!-- Node4&#45;&gt;Node3 -->
<g id="edge2" class="edge"><title>Node4&#45;&gt;Node3</title>
<path fill="none" stroke="#9a32cd" stroke-dasharray="5,2" d="M86,-138.114C86,-123.201 86,-102.72 86,-89.1839"/>
<polygon fill="#9a32cd" stroke="#9a32cd" points="82.5001,-138.225 86,-148.225 89.5001,-138.225 82.5001,-138.225"/>
<text text-anchor="middle" x="113.5" y="-122" font-family="Helvetica,sans-Serif" font-size="10.00"> impl</text>
<text text-anchor="middle" x="113.5" y="-111" font-family="Helvetica,sans-Serif" font-size="10.00">cachedHash</text>
</g>
<!-- Node5 -->
<g id="node4" class="node"><title>Node5</title>
<g id="a_node4"><a xlink:href="classbase__blob.html" target="_top" xlink:title="base_blob\&lt; 256 \&gt;">
<polygon fill="white" stroke="black" points="38.5,-206.5 38.5,-225.5 133.5,-225.5 133.5,-206.5 38.5,-206.5"/>
<text text-anchor="middle" x="86" y="-213.5" font-family="Helvetica,sans-Serif" font-size="10.00">base_blob&lt; 256 &gt;</text>
</a>
</g>
</g>
<!-- Node5&#45;&gt;Node4 -->
<g id="edge3" class="edge"><title>Node5&#45;&gt;Node4</title>
<path fill="none" stroke="midnightblue" d="M86,-195.953C86,-186.287 86,-175.031 86,-167.505"/>
<polygon fill="midnightblue" stroke="midnightblue" points="82.5001,-196.25 86,-206.25 89.5001,-196.25 82.5001,-196.25"/>
</g>
</g>
</svg>
