<?xml version="1.0" encoding="UTF-8" standalone="no"?>
<!DOCTYPE svg PUBLIC "-//W3C//DTD SVG 1.1//EN"
 "http://www.w3.org/Graphics/SVG/1.1/DTD/svg11.dtd">
<!-- Generated by graphviz version 2.36.0 (20140111.2315)
 -->
<!-- Title: TransactionTablePriv Pages: 1 -->
<!--zoomable 768 -->
<svg id="main" version="1.1" xmlns="http://www.w3.org/2000/svg" xmlns:xlink="http://www.w3.org/1999/xlink" xml:space="preserve" onload="init(evt)">
<style type="text/css"><![CDATA[
.edge:hover path { stroke: red; }
.edge:hover polygon { stroke: red; fill: red; }
]]></style>
<script type="text/javascript"><![CDATA[
var edges = document.getElementsByTagName('g');
if (edges && edges.length) {
  for (var i=0;i<edges.length;i++) {
    if (edges[i].id.substr(0,4)=='edge') {
      edges[i].setAttribute('class','edge');
    }
  }
}
]]></script>
        <defs>
                <circle id="rim" cx="0" cy="0" r="7"/>
                <circle id="rim2" cx="0" cy="0" r="3.5"/>
                <g id="zoomPlus">
                        <use xlink:href="#rim" fill="#404040">
                                <set attributeName="fill" to="#808080" begin="zoomplus.mouseover" end="zoomplus.mouseout"/>
                        </use>
                        <path d="M-4,0h8M0,-4v8" fill="none" stroke="white" stroke-width="1.5" pointer-events="none"/>
                </g>
                <g id="zoomMin">
                        <use xlink:href="#rim" fill="#404040">
                                <set attributeName="fill" to="#808080" begin="zoomminus.mouseover" end="zoomminus.mouseout"/>
                        </use>
                        <path d="M-4,0h8" fill="none" stroke="white" stroke-width="1.5" pointer-events="none"/>
                </g>
                <g id="dirArrow">
                        <path fill="none" stroke="white" stroke-width="1.5" d="M0,-3.0v7 M-2.5,-0.5L0,-3.0L2.5,-0.5"/>
                </g>
               <g id="resetDef">
                       <use xlink:href="#rim2" fill="#404040">
                               <set attributeName="fill" to="#808080" begin="reset.mouseover" end="reset.mouseout"/>
                       </use>
               </g>
        </defs>

<script type="text/javascript">
var viewWidth = 712;
var viewHeight = 768;
var sectionId = 'dynsection-0';
</script>
<script xlink:href="svgpan.js"/>
<svg id="graph" class="graph">
<g id="viewport">
<title>TransactionTablePriv</title>
<polygon fill="white" stroke="none" points="-4,4 -4,-764 708,-764 708,4 -4,4"/>
<!-- Node1 -->
<g id="node1" class="node"><title>Node1</title>
<polygon fill="#bfbfbf" stroke="black" points="323.5,-272.5 323.5,-291.5 432.5,-291.5 432.5,-272.5 323.5,-272.5"/>
<text text-anchor="middle" x="378" y="-279.5" font-family="Helvetica,sans-Serif" font-size="10.00">TransactionTablePriv</text>
</g>
<!-- Node2 -->
<g id="node2" class="node"><title>Node2</title>
<g id="a_node2"><a xlink:href="class_transaction_table_model.html" target="_top" xlink:title="UI model for the transaction table of a wallet. ">
<polygon fill="white" stroke="black" points="369,-204.5 369,-223.5 487,-223.5 487,-204.5 369,-204.5"/>
<text text-anchor="middle" x="428" y="-211.5" font-family="Helvetica,sans-Serif" font-size="10.00">TransactionTableModel</text>
</a>
</g>
</g>
<!-- Node1&#45;&gt;Node2 -->
<g id="edge3" class="edge"><title>Node1&#45;&gt;Node2</title>
<path fill="none" stroke="#9a32cd" stroke-dasharray="5,2" d="M396.291,-265.691C400.071,-262.072 403.855,-258.073 407,-254 414.426,-244.383 420.685,-231.781 424.388,-223.542"/>
<polygon fill="#9a32cd" stroke="#9a32cd" points="393.83,-263.198 388.742,-272.491 398.514,-268.399 393.83,-263.198"/>
<text text-anchor="middle" x="424.5" y="-245.5" font-family="Helvetica,sans-Serif" font-size="10.00"> priv</text>
</g>
<!-- Node2&#45;&gt;Node1 -->
<g id="edge1" class="edge"><title>Node2&#45;&gt;Node1</title>
<path fill="none" stroke="#9a32cd" stroke-dasharray="5,2" d="M389.74,-228.45C384.267,-232.015 379.362,-236.466 376,-242 370.438,-251.155 372.504,-263.865 374.9,-272.255"/>
<polygon fill="#9a32cd" stroke="#9a32cd" points="391.586,-231.429 398.668,-223.549 388.218,-225.293 391.586,-231.429"/>
<text text-anchor="middle" x="391.5" y="-245.5" font-family="Helvetica,sans-Serif" font-size="10.00"> parent</text>
</g>
<!-- Node5 -->
<g id="node5" class="node"><title>Node5</title>
<g id="a_node5"><a xlink:href="class_wallet_model.html" target="_top" xlink:title="Interface to Bitcoin wallet from Qt view code. ">
<polygon fill="white" stroke="black" points="249.5,-136.5 249.5,-155.5 320.5,-155.5 320.5,-136.5 249.5,-136.5"/>
<text text-anchor="middle" x="285" y="-143.5" font-family="Helvetica,sans-Serif" font-size="10.00">WalletModel</text>
</a>
</g>
</g>
<!-- Node2&#45;&gt;Node5 -->
<g id="edge7" class="edge"><title>Node2&#45;&gt;Node5</title>
<path fill="none" stroke="#9a32cd" stroke-dasharray="5,2" d="M358.887,-204.408C333.838,-200.068 309.385,-193.998 300,-186 290.945,-178.283 287.336,-164.448 285.911,-155.501"/>
<polygon fill="#9a32cd" stroke="#9a32cd" points="358.425,-207.879 368.86,-206.045 359.559,-200.971 358.425,-207.879"/>
<text text-anchor="middle" x="351" y="-177.5" font-family="Helvetica,sans-Serif" font-size="10.00"> transactionTableModel</text>
</g>
<!-- Node3 -->
<g id="node3" class="node"><title>Node3</title>
<polygon fill="white" stroke="#bfbfbf" points="516.5,-272.5 516.5,-291.5 627.5,-291.5 627.5,-272.5 516.5,-272.5"/>
<text text-anchor="middle" x="572" y="-279.5" font-family="Helvetica,sans-Serif" font-size="10.00">QAbstractTableModel</text>
</g>
<!-- Node3&#45;&gt;Node2 -->
<g id="edge2" class="edge"><title>Node3&#45;&gt;Node2</title>
<path fill="none" stroke="midnightblue" d="M540.996,-268.601C530.174,-264.147 517.989,-258.989 507,-254 485.134,-244.074 460.375,-231.654 444.495,-223.533"/>
<polygon fill="midnightblue" stroke="midnightblue" points="539.897,-271.933 550.478,-272.469 542.541,-265.451 539.897,-271.933"/>
</g>
<!-- Node7 -->
<g id="node7" class="node"><title>Node7</title>
<g id="a_node7"><a xlink:href="class_address_table_model.html" target="_top" xlink:title="Qt model of the address book in the core. ">
<polygon fill="white" stroke="black" points="233.5,-68.5 233.5,-87.5 336.5,-87.5 336.5,-68.5 233.5,-68.5"/>
<text text-anchor="middle" x="285" y="-75.5" font-family="Helvetica,sans-Serif" font-size="10.00">AddressTableModel</text>
</a>
</g>
</g>
<!-- Node3&#45;&gt;Node7 -->
<g id="edge9" class="edge"><title>Node3&#45;&gt;Node7</title>
<path fill="none" stroke="midnightblue" d="M565.294,-262.862C550.805,-226.439 512.884,-144.597 452,-106 433.272,-94.1276 378.535,-86.8672 336.785,-82.9087"/>
<polygon fill="midnightblue" stroke="midnightblue" points="562.043,-264.158 568.899,-272.235 568.576,-261.645 562.043,-264.158"/>
</g>
<!-- Node24 -->
<g id="node24" class="node"><title>Node24</title>
<g id="a_node24"><a xlink:href="class_recent_requests_table_model.html" target="_top" xlink:title="Model for list of recently generated payment requests / dash: URIs. ">
<polygon fill="white" stroke="black" points="429,-68.5 429,-87.5 569,-87.5 569,-68.5 429,-68.5"/>
<text text-anchor="middle" x="499" y="-75.5" font-family="Helvetica,sans-Serif" font-size="10.00">RecentRequestsTableModel</text>
</a>
</g>
</g>
<!-- Node3&#45;&gt;Node24 -->
<g id="edge33" class="edge"><title>Node3&#45;&gt;Node24</title>
<path fill="none" stroke="midnightblue" d="M582.568,-263.437C601.577,-229.325 636.325,-153.312 600,-106 593.893,-98.0459 574.24,-91.928 553.874,-87.543"/>
<polygon fill="midnightblue" stroke="midnightblue" points="579.451,-261.836 577.483,-272.246 585.514,-265.336 579.451,-261.836"/>
</g>
<!-- Node4 -->
<g id="node4" class="node"><title>Node4</title>
<g id="a_node4"><a xlink:href="class_platform_style.html" target="_top" xlink:title="PlatformStyle">
<polygon fill="white" stroke="black" points="229,-272.5 229,-291.5 305,-291.5 305,-272.5 229,-272.5"/>
<text text-anchor="middle" x="267" y="-279.5" font-family="Helvetica,sans-Serif" font-size="10.00">PlatformStyle</text>
</a>
</g>
</g>
<!-- Node4&#45;&gt;Node2 -->
<g id="edge4" class="edge"><title>Node4&#45;&gt;Node2</title>
<path fill="none" stroke="#9a32cd" stroke-dasharray="5,2" d="M280.303,-264.718C287.668,-256.73 297.454,-247.637 308,-242 326.645,-232.035 348.815,-225.739 368.996,-221.765"/>
<polygon fill="#9a32cd" stroke="#9a32cd" points="277.498,-262.611 273.574,-272.452 282.779,-267.205 277.498,-262.611"/>
<text text-anchor="middle" x="338.5" y="-245.5" font-family="Helvetica,sans-Serif" font-size="10.00"> platformStyle</text>
</g>
<!-- Node5&#45;&gt;Node2 -->
<g id="edge5" class="edge"><title>Node5&#45;&gt;Node2</title>
<path fill="none" stroke="#9a32cd" stroke-dasharray="5,2" d="M330.836,-148.401C355.186,-151.189 384.448,-158.008 406,-174 416.238,-181.597 422.388,-195.466 425.485,-204.453"/>
<polygon fill="#9a32cd" stroke="#9a32cd" points="331.026,-144.903 320.739,-147.438 330.361,-151.872 331.026,-144.903"/>
<text text-anchor="middle" x="444.5" y="-177.5" font-family="Helvetica,sans-Serif" font-size="10.00"> walletModel</text>
</g>
<!-- Node5&#45;&gt;Node7 -->
<g id="edge30" class="edge"><title>Node5&#45;&gt;Node7</title>
<path fill="none" stroke="#9a32cd" stroke-dasharray="5,2" d="M242.474,-132.632C228.703,-126.283 218.653,-117.442 226,-106 231.478,-97.4691 240.396,-91.5993 249.659,-87.5741"/>
<polygon fill="#9a32cd" stroke="#9a32cd" points="241.332,-135.945 251.915,-136.446 243.954,-129.455 241.332,-135.945"/>
<text text-anchor="middle" x="253.5" y="-109.5" font-family="Helvetica,sans-Serif" font-size="10.00"> walletModel</text>
</g>
<!-- Node5&#45;&gt;Node24 -->
<g id="edge34" class="edge"><title>Node5&#45;&gt;Node24</title>
<path fill="none" stroke="#9a32cd" stroke-dasharray="5,2" d="M328.775,-133.657C343.384,-129.364 359.602,-124.036 374,-118 384.272,-113.694 385.648,-110.109 396,-106 415.588,-98.2251 438.155,-92.0205 457.164,-87.5295"/>
<polygon fill="#9a32cd" stroke="#9a32cd" points="327.615,-130.349 318.96,-136.461 329.537,-137.08 327.615,-130.349"/>
<text text-anchor="middle" x="423.5" y="-109.5" font-family="Helvetica,sans-Serif" font-size="10.00"> walletModel</text>
</g>
<!-- Node6 -->
<g id="node6" class="node"><title>Node6</title>
<polygon fill="white" stroke="#bfbfbf" points="109.5,-204.5 109.5,-223.5 162.5,-223.5 162.5,-204.5 109.5,-204.5"/>
<text text-anchor="middle" x="136" y="-211.5" font-family="Helvetica,sans-Serif" font-size="10.00">QObject</text>
</g>
<!-- Node6&#45;&gt;Node5 -->
<g id="edge6" class="edge"><title>Node6&#45;&gt;Node5</title>
<path fill="none" stroke="midnightblue" d="M160.416,-199.524C175.144,-191.635 194.404,-181.736 212,-174 227.586,-167.148 245.514,-160.5 259.703,-155.515"/>
<polygon fill="midnightblue" stroke="midnightblue" points="158.583,-196.537 151.455,-204.376 161.915,-202.693 158.583,-196.537"/>
</g>
<!-- Node7&#45;&gt;Node5 -->
<g id="edge8" class="edge"><title>Node7&#45;&gt;Node5</title>
<path fill="none" stroke="#9a32cd" stroke-dasharray="5,2" d="M285,-97.8504C285,-110.528 285,-126.643 285,-136.372"/>
<polygon fill="#9a32cd" stroke="#9a32cd" points="288.5,-97.8411 285,-87.8411 281.5,-97.8412 288.5,-97.8411"/>
<text text-anchor="middle" x="329" y="-109.5" font-family="Helvetica,sans-Serif" font-size="10.00"> addressTableModel</text>
</g>
<!-- Node8 -->
<g id="node8" class="node"><title>Node8</title>
<g id="a_node8"><a xlink:href="class_address_table_priv.html" target="_top" xlink:title="AddressTablePriv">
<polygon fill="white" stroke="black" points="280,-0.5 280,-19.5 374,-19.5 374,-0.5 280,-0.5"/>
<text text-anchor="middle" x="327" y="-7.5" font-family="Helvetica,sans-Serif" font-size="10.00">AddressTablePriv</text>
</a>
</g>
</g>
<!-- Node7&#45;&gt;Node8 -->
<g id="edge11" class="edge"><title>Node7&#45;&gt;Node8</title>
<path fill="none" stroke="#9a32cd" stroke-dasharray="5,2" d="M298.023,-60.0868C300.418,-56.7925 302.841,-53.3276 305,-50 311.601,-39.8268 318.327,-27.57 322.574,-19.5467"/>
<polygon fill="#9a32cd" stroke="#9a32cd" points="295.142,-58.0947 291.952,-68.1978 300.746,-62.2894 295.142,-58.0947"/>
<text text-anchor="middle" x="328.5" y="-41.5" font-family="Helvetica,sans-Serif" font-size="10.00"> parent</text>
</g>
<!-- Node8&#45;&gt;Node7 -->
<g id="edge10" class="edge"><title>Node8&#45;&gt;Node7</title>
<path fill="none" stroke="#9a32cd" stroke-dasharray="5,2" d="M297.592,-25.1785C292.964,-28.7167 288.794,-32.9709 286,-38 280.803,-47.355 281.64,-60.0184 283.043,-68.3428"/>
<polygon fill="#9a32cd" stroke="#9a32cd" points="299.741,-27.956 306.216,-19.5701 295.925,-22.0877 299.741,-27.956"/>
<text text-anchor="middle" x="295.5" y="-41.5" font-family="Helvetica,sans-Serif" font-size="10.00"> priv</text>
</g>
<!-- Node9 -->
<g id="node9" class="node"><title>Node9</title>
<g id="a_node9"><a xlink:href="class_c_wallet.html" target="_top" xlink:title="A CWallet is an extension of a keystore, which also maintains a set of transactions and balances...">
<polygon fill="white" stroke="black" points="352,-340.5 352,-359.5 404,-359.5 404,-340.5 352,-340.5"/>
<text text-anchor="middle" x="378" y="-347.5" font-family="Helvetica,sans-Serif" font-size="10.00">CWallet</text>
</a>
</g>
</g>
<!-- Node9&#45;&gt;Node1 -->
<g id="edge39" class="edge"><title>Node9&#45;&gt;Node1</title>
<path fill="none" stroke="#9a32cd" stroke-dasharray="5,2" d="M378,-330.041C378,-317.472 378,-301.563 378,-291.841"/>
<polygon fill="#9a32cd" stroke="#9a32cd" points="374.5,-330.372 378,-340.372 381.5,-330.372 374.5,-330.372"/>
<text text-anchor="middle" x="392.5" y="-313.5" font-family="Helvetica,sans-Serif" font-size="10.00"> wallet</text>
</g>
<!-- Node9&#45;&gt;Node2 -->
<g id="edge38" class="edge"><title>Node9&#45;&gt;Node2</title>
<path fill="none" stroke="#9a32cd" stroke-dasharray="5,2" d="M402.35,-334.794C416.699,-324.873 433.474,-310.169 441,-292 450.65,-268.703 439.415,-238.612 432.549,-223.897"/>
<polygon fill="#9a32cd" stroke="#9a32cd" points="400.303,-331.951 393.834,-340.341 404.123,-337.816 400.303,-331.951"/>
<text text-anchor="middle" x="459.5" y="-279.5" font-family="Helvetica,sans-Serif" font-size="10.00"> wallet</text>
</g>
<!-- Node9&#45;&gt;Node5 -->
<g id="edge37" class="edge"><title>Node9&#45;&gt;Node5</title>
<path fill="none" stroke="#9a32cd" stroke-dasharray="5,2" d="M341.661,-347.123C273.007,-342.734 128.387,-329.196 98,-292 86.8933,-278.404 65.1488,-251.754 100,-204 134.077,-157.307 205.875,-147.627 249.324,-146.302"/>
<polygon fill="#9a32cd" stroke="#9a32cd" points="341.804,-350.638 351.998,-347.75 342.228,-343.65 341.804,-350.638"/>
<text text-anchor="middle" x="96.5" y="-245.5" font-family="Helvetica,sans-Serif" font-size="10.00"> wallet</text>
</g>
<!-- Node9&#45;&gt;Node7 -->
<g id="edge31" class="edge"><title>Node9&#45;&gt;Node7</title>
<path fill="none" stroke="#9a32cd" stroke-dasharray="5,2" d="M341.798,-348.209C291.73,-346.434 198.828,-340.676 122,-322 75.6451,-310.731 22,-330.705 22,-283 22,-283 22,-283 22,-145 22,-101.867 156.761,-86.6667 233.353,-81.5107"/>
<polygon fill="#9a32cd" stroke="#9a32cd" points="341.703,-351.708 351.81,-348.53 341.928,-344.711 341.703,-351.708"/>
<text text-anchor="middle" x="36.5" y="-211.5" font-family="Helvetica,sans-Serif" font-size="10.00"> wallet</text>
</g>
<!-- Node9&#45;&gt;Node8 -->
<g id="edge12" class="edge"><title>Node9&#45;&gt;Node8</title>
<path fill="none" stroke="#9a32cd" stroke-dasharray="5,2" d="M414.111,-348.498C493.256,-346.419 675,-335.889 675,-283 675,-283 675,-283 675,-77 675,-16.5056 469.445,-10.0131 374.295,-10.2482"/>
<polygon fill="#9a32cd" stroke="#9a32cd" points="414.013,-344.999 404.096,-348.73 414.175,-351.997 414.013,-344.999"/>
<text text-anchor="middle" x="689.5" y="-177.5" font-family="Helvetica,sans-Serif" font-size="10.00"> wallet</text>
</g>
<!-- Node10 -->
<g id="node10" class="node"><title>Node10</title>
<g id="a_node10"><a xlink:href="class_c_crypto_key_store.html" target="_top" xlink:title="Keystore which keeps the private keys encrypted. ">
<polygon fill="white" stroke="black" points="118,-418.5 118,-437.5 212,-437.5 212,-418.5 118,-418.5"/>
<text text-anchor="middle" x="165" y="-425.5" font-family="Helvetica,sans-Serif" font-size="10.00">CCryptoKeyStore</text>
</a>
</g>
</g>
<!-- Node10&#45;&gt;Node9 -->
<g id="edge13" class="edge"><title>Node10&#45;&gt;Node9</title>
<path fill="none" stroke="midnightblue" d="M181.649,-411.495C194.458,-400.44 213.112,-386.145 232,-378 271.647,-360.902 321.915,-354.62 351.933,-352.319"/>
<polygon fill="midnightblue" stroke="midnightblue" points="179.269,-408.929 174.132,-418.195 183.926,-414.154 179.269,-408.929"/>
</g>
<!-- Node11 -->
<g id="node11" class="node"><title>Node11</title>
<g id="a_node11"><a xlink:href="class_c_basic_key_store.html" target="_top" xlink:title="Basic key store, that keeps keys in an address&#45;&gt;secret map. ">
<polygon fill="white" stroke="black" points="120.5,-476.5 120.5,-495.5 209.5,-495.5 209.5,-476.5 120.5,-476.5"/>
<text text-anchor="middle" x="165" y="-483.5" font-family="Helvetica,sans-Serif" font-size="10.00">CBasicKeyStore</text>
</a>
</g>
</g>
<!-- Node11&#45;&gt;Node10 -->
<g id="edge14" class="edge"><title>Node11&#45;&gt;Node10</title>
<path fill="none" stroke="midnightblue" d="M165,-465.953C165,-456.287 165,-445.031 165,-437.505"/>
<polygon fill="midnightblue" stroke="midnightblue" points="161.5,-466.25 165,-476.25 168.5,-466.25 161.5,-466.25"/>
</g>
<!-- Node12 -->
<g id="node12" class="node"><title>Node12</title>
<g id="a_node12"><a xlink:href="class_c_key_store.html" target="_top" xlink:title="A virtual base class for key stores. ">
<polygon fill="white" stroke="black" points="136.5,-544.5 136.5,-563.5 201.5,-563.5 201.5,-544.5 136.5,-544.5"/>
<text text-anchor="middle" x="169" y="-551.5" font-family="Helvetica,sans-Serif" font-size="10.00">CKeyStore</text>
</a>
</g>
</g>
<!-- Node12&#45;&gt;Node11 -->
<g id="edge15" class="edge"><title>Node12&#45;&gt;Node11</title>
<path fill="none" stroke="midnightblue" d="M167.851,-534.041C167.089,-521.472 166.125,-505.563 165.536,-495.841"/>
<polygon fill="midnightblue" stroke="midnightblue" points="164.378,-534.602 168.477,-544.372 171.366,-534.178 164.378,-534.602"/>
</g>
<!-- Node13 -->
<g id="node13" class="node"><title>Node13</title>
<g id="a_node13"><a xlink:href="class_c_critical_section.html" target="_top" xlink:title="Wrapped boost mutex: supports recursive locking, but no waiting TODO: We should move away from using ...">
<polygon fill="white" stroke="black" points="126,-612.5 126,-631.5 214,-631.5 214,-612.5 126,-612.5"/>
<text text-anchor="middle" x="170" y="-619.5" font-family="Helvetica,sans-Serif" font-size="10.00">CCriticalSection</text>
</a>
</g>
</g>
<!-- Node13&#45;&gt;Node9 -->
<g id="edge27" class="edge"><title>Node13&#45;&gt;Node9</title>
<path fill="none" stroke="#9a32cd" stroke-dasharray="5,2" d="M212.084,-608.279C219.428,-604.589 226.472,-599.906 232,-594 244.585,-580.555 246,-573.416 246,-555 246,-555 246,-555 246,-427 246,-378.608 313.452,-360.565 351.921,-354.21"/>
<polygon fill="#9a32cd" stroke="#9a32cd" points="210.433,-605.183 202.714,-612.44 213.274,-611.58 210.433,-605.183"/>
<text text-anchor="middle" x="268.5" y="-483.5" font-family="Helvetica,sans-Serif" font-size="10.00"> cs_wallet</text>
</g>
<!-- Node13&#45;&gt;Node12 -->
<g id="edge16" class="edge"><title>Node13&#45;&gt;Node12</title>
<path fill="none" stroke="#9a32cd" stroke-dasharray="5,2" d="M169.713,-602.041C169.522,-589.472 169.281,-573.563 169.134,-563.841"/>
<polygon fill="#9a32cd" stroke="#9a32cd" points="166.218,-602.426 169.869,-612.372 173.217,-602.32 166.218,-602.426"/>
<text text-anchor="middle" x="200" y="-585.5" font-family="Helvetica,sans-Serif" font-size="10.00"> cs_KeyStore</text>
</g>
<!-- Node16 -->
<g id="node16" class="node"><title>Node16</title>
<g id="a_node16"><a xlink:href="class_c_h_d_chain.html" target="_top" xlink:title="CHDChain">
<polygon fill="white" stroke="black" points="30.5,-544.5 30.5,-563.5 95.5,-563.5 95.5,-544.5 30.5,-544.5"/>
<text text-anchor="middle" x="63" y="-551.5" font-family="Helvetica,sans-Serif" font-size="10.00">CHDChain</text>
</a>
</g>
</g>
<!-- Node13&#45;&gt;Node16 -->
<g id="edge22" class="edge"><title>Node13&#45;&gt;Node16</title>
<path fill="none" stroke="#9a32cd" stroke-dasharray="5,2" d="M135.805,-608.692C126.168,-604.606 115.894,-599.639 107,-594 93.2065,-585.255 79.4673,-572.207 71.1027,-563.65"/>
<polygon fill="#9a32cd" stroke="#9a32cd" points="134.572,-611.968 145.154,-612.476 137.198,-605.48 134.572,-611.968"/>
<text text-anchor="middle" x="136.5" y="-585.5" font-family="Helvetica,sans-Serif" font-size="10.00"> cs_accounts</text>
</g>
<!-- Node14 -->
<g id="node14" class="node"><title>Node14</title>
<polygon fill="white" stroke="#bfbfbf" points="112.5,-671 112.5,-701 229.5,-701 229.5,-671 112.5,-671"/>
<text text-anchor="start" x="120.5" y="-689" font-family="Helvetica,sans-Serif" font-size="10.00">AnnotatedMixin&lt; boost</text>
<text text-anchor="middle" x="171" y="-678" font-family="Helvetica,sans-Serif" font-size="10.00">::recursive_mutex &gt;</text>
</g>
<!-- Node14&#45;&gt;Node13 -->
<g id="edge17" class="edge"><title>Node14&#45;&gt;Node13</title>
<path fill="none" stroke="midnightblue" d="M170.611,-660.871C170.446,-650.663 170.265,-639.408 170.143,-631.842"/>
<polygon fill="midnightblue" stroke="midnightblue" points="167.112,-660.989 170.773,-670.931 174.111,-660.876 167.112,-660.989"/>
</g>
<!-- Node15 -->
<g id="node15" class="node"><title>Node15</title>
<polygon fill="white" stroke="#bfbfbf" points="111.5,-740.5 111.5,-759.5 230.5,-759.5 230.5,-740.5 111.5,-740.5"/>
<text text-anchor="middle" x="171" y="-747.5" font-family="Helvetica,sans-Serif" font-size="10.00">boost::recursive_mutex</text>
</g>
<!-- Node15&#45;&gt;Node14 -->
<g id="edge18" class="edge"><title>Node15&#45;&gt;Node14</title>
<path fill="none" stroke="midnightblue" d="M171,-730.183C171,-720.886 171,-709.851 171,-701.263"/>
<polygon fill="midnightblue" stroke="midnightblue" points="167.5,-730.379 171,-740.379 174.5,-730.379 167.5,-730.379"/>
</g>
<!-- Node16&#45;&gt;Node10 -->
<g id="edge23" class="edge"><title>Node16&#45;&gt;Node10</title>
<path fill="none" stroke="#9a32cd" stroke-dasharray="5,2" d="M48.3025,-536.07C35.8898,-519.614 22.0382,-494.469 35,-476 53.6118,-449.48 88.7458,-437.86 117.801,-432.8"/>
<polygon fill="#9a32cd" stroke="#9a32cd" points="45.8711,-538.631 54.8711,-544.221 51.3216,-534.238 45.8711,-538.631"/>
<text text-anchor="middle" x="73" y="-483.5" font-family="Helvetica,sans-Serif" font-size="10.00"> cryptedHDChain</text>
</g>
<!-- Node16&#45;&gt;Node11 -->
<g id="edge19" class="edge"><title>Node16&#45;&gt;Node11</title>
<path fill="none" stroke="#9a32cd" stroke-dasharray="5,2" d="M84.781,-538.805C96.1604,-531.398 110.321,-522.196 123,-514 132.464,-507.882 143.147,-501.015 151.37,-495.738"/>
<polygon fill="#9a32cd" stroke="#9a32cd" points="82.8025,-535.916 76.3326,-544.306 86.6224,-541.782 82.8025,-535.916"/>
<text text-anchor="middle" x="143" y="-517.5" font-family="Helvetica,sans-Serif" font-size="10.00"> hdChain</text>
</g>
<!-- Node17 -->
<g id="node17" class="node"><title>Node17</title>
<g id="a_node17"><a xlink:href="classuint256.html" target="_top" xlink:title="256&#45;bit opaque blob. ">
<polygon fill="white" stroke="black" points="23,-612.5 23,-631.5 71,-631.5 71,-612.5 23,-612.5"/>
<text text-anchor="middle" x="47" y="-619.5" font-family="Helvetica,sans-Serif" font-size="10.00">uint256</text>
</a>
</g>
</g>
<!-- Node17&#45;&gt;Node16 -->
<g id="edge20" class="edge"><title>Node17&#45;&gt;Node16</title>
<path fill="none" stroke="#9a32cd" stroke-dasharray="5,2" d="M49.1602,-601.85C50.0866,-595.479 51.3452,-588.383 53,-582 54.6058,-575.806 57.1058,-569.056 59.2043,-563.855"/>
<polygon fill="#9a32cd" stroke="#9a32cd" points="45.6305,-601.861 47.8376,-612.223 52.5743,-602.746 45.6305,-601.861"/>
<text text-anchor="middle" x="58.5" y="-585.5" font-family="Helvetica,sans-Serif" font-size="10.00"> id</text>
</g>
<!-- Node18 -->
<g id="node18" class="node"><title>Node18</title>
<g id="a_node18"><a xlink:href="classbase__blob.html" target="_top" xlink:title="base_blob\&lt; 256 \&gt;">
<polygon fill="white" stroke="black" points="-0.5,-676.5 -0.5,-695.5 94.5,-695.5 94.5,-676.5 -0.5,-676.5"/>
<text text-anchor="middle" x="47" y="-683.5" font-family="Helvetica,sans-Serif" font-size="10.00">base_blob&lt; 256 &gt;</text>
</a>
</g>
</g>
<!-- Node18&#45;&gt;Node17 -->
<g id="edge21" class="edge"><title>Node18&#45;&gt;Node17</title>
<path fill="none" stroke="midnightblue" d="M47,-666.037C47,-654.53 47,-640.403 47,-631.548"/>
<polygon fill="midnightblue" stroke="midnightblue" points="43.5001,-666.379 47,-676.379 50.5001,-666.379 43.5001,-666.379"/>
</g>
<!-- Node19 -->
<g id="node19" class="node"><title>Node19</title>
<g id="a_node19"><a xlink:href="class_c_validation_interface.html" target="_top" xlink:title="CValidationInterface">
<polygon fill="white" stroke="black" points="274.5,-418.5 274.5,-437.5 379.5,-437.5 379.5,-418.5 274.5,-418.5"/>
<text text-anchor="middle" x="327" y="-425.5" font-family="Helvetica,sans-Serif" font-size="10.00">CValidationInterface</text>
</a>
</g>
</g>
<!-- Node19&#45;&gt;Node9 -->
<g id="edge24" class="edge"><title>Node19&#45;&gt;Node9</title>
<path fill="none" stroke="midnightblue" d="M338.7,-409.565C349.179,-393.949 364.109,-371.7 372.218,-359.616"/>
<polygon fill="midnightblue" stroke="midnightblue" points="335.516,-408.028 332.85,-418.282 341.329,-411.928 335.516,-408.028"/>
</g>
<!-- Node20 -->
<g id="node20" class="node"><title>Node20</title>
<g id="a_node20"><a xlink:href="class_c_fee_rate.html" target="_top" xlink:title="Fee rate in satoshis per kilobyte: CAmount / kB. ">
<polygon fill="white" stroke="black" points="398,-418.5 398,-437.5 460,-437.5 460,-418.5 398,-418.5"/>
<text text-anchor="middle" x="429" y="-425.5" font-family="Helvetica,sans-Serif" font-size="10.00">CFeeRate</text>
</a>
</g>
</g>
<!-- Node20&#45;&gt;Node9 -->
<g id="edge25" class="edge"><title>Node20&#45;&gt;Node9</title>
<path fill="none" stroke="#9a32cd" stroke-dasharray="5,2" d="M417.3,-409.565C406.821,-393.949 391.891,-371.7 383.782,-359.616"/>
<polygon fill="#9a32cd" stroke="#9a32cd" points="414.671,-411.928 423.15,-418.282 420.484,-408.028 414.671,-411.928"/>
<text text-anchor="middle" x="435.5" y="-392" font-family="Helvetica,sans-Serif" font-size="10.00"> minTxFee</text>
<text text-anchor="middle" x="435.5" y="-381" font-family="Helvetica,sans-Serif" font-size="10.00">fallbackFee</text>
</g>
<!-- Node21 -->
<g id="node21" class="node"><title>Node21</title>
<g id="a_node21"><a xlink:href="class_c_pub_key.html" target="_top" xlink:title="An encapsulated public key. ">
<polygon fill="white" stroke="black" points="478.5,-418.5 478.5,-437.5 537.5,-437.5 537.5,-418.5 478.5,-418.5"/>
<text text-anchor="middle" x="508" y="-425.5" font-family="Helvetica,sans-Serif" font-size="10.00">CPubKey</text>
</a>
</g>
</g>
<!-- Node21&#45;&gt;Node9 -->
<g id="edge26" class="edge"><title>Node21&#45;&gt;Node9</title>
<path fill="none" stroke="#9a32cd" stroke-dasharray="5,2" d="M496.779,-409.984C489.003,-399.408 477.776,-386.293 465,-378 446.561,-366.032 422.497,-359.1 404.352,-355.264"/>
<polygon fill="#9a32cd" stroke="#9a32cd" points="494.084,-412.239 502.675,-418.439 499.826,-408.234 494.084,-412.239"/>
<text text-anchor="middle" x="523" y="-386.5" font-family="Helvetica,sans-Serif" font-size="10.00"> vchDefaultKey</text>
</g>
<!-- Node22 -->
<g id="node22" class="node"><title>Node22</title>
<g id="a_node22"><a xlink:href="class_c_wallet_d_b.html" target="_top" xlink:title="Access to the wallet database. ">
<polygon fill="white" stroke="black" points="563,-418.5 563,-437.5 629,-437.5 629,-418.5 563,-418.5"/>
<text text-anchor="middle" x="596" y="-425.5" font-family="Helvetica,sans-Serif" font-size="10.00">CWalletDB</text>
</a>
</g>
</g>
<!-- Node22&#45;&gt;Node9 -->
<g id="edge28" class="edge"><title>Node22&#45;&gt;Node9</title>
<path fill="none" stroke="#9a32cd" stroke-dasharray="5,2" d="M587.973,-409.379C582.084,-398.534 573.02,-385.345 561,-378 535.172,-362.218 448.161,-355.038 404.072,-352.35"/>
<polygon fill="#9a32cd" stroke="#9a32cd" points="584.895,-411.051 592.482,-418.446 591.162,-407.934 584.895,-411.051"/>
<text text-anchor="middle" x="627.5" y="-386.5" font-family="Helvetica,sans-Serif" font-size="10.00"> pwalletdbEncryption</text>
</g>
<!-- Node23 -->
<g id="node23" class="node"><title>Node23</title>
<g id="a_node23"><a xlink:href="class_c_d_b.html" target="_top" xlink:title="RAII class that provides access to a Berkeley database. ">
<polygon fill="white" stroke="black" points="577,-476.5 577,-495.5 615,-495.5 615,-476.5 577,-476.5"/>
<text text-anchor="middle" x="596" y="-483.5" font-family="Helvetica,sans-Serif" font-size="10.00">CDB</text>
</a>
</g>
</g>
<!-- Node23&#45;&gt;Node22 -->
<g id="edge29" class="edge"><title>Node23&#45;&gt;Node22</title>
<path fill="none" stroke="midnightblue" d="M596,-465.953C596,-456.287 596,-445.031 596,-437.505"/>
<polygon fill="midnightblue" stroke="midnightblue" points="592.5,-466.25 596,-476.25 599.5,-466.25 592.5,-466.25"/>
</g>
<!-- Node24&#45;&gt;Node5 -->
<g id="edge32" class="edge"><title>Node24&#45;&gt;Node5</title>
<path fill="none" stroke="#9a32cd" stroke-dasharray="5,2" d="M484.904,-95.299C476.953,-103.424 466.352,-112.637 455,-118 411.768,-138.425 356.17,-143.866 320.551,-145.074"/>
<polygon fill="#9a32cd" stroke="#9a32cd" points="487.69,-97.4414 491.901,-87.7196 482.546,-92.6932 487.69,-97.4414"/>
<text text-anchor="middle" x="534.5" y="-109.5" font-family="Helvetica,sans-Serif" font-size="10.00"> recentRequestsTableModel</text>
</g>
<!-- Node25 -->
<g id="node25" class="node"><title>Node25</title>
<g id="a_node25"><a xlink:href="class_options_model.html" target="_top" xlink:title="Interface from Qt to configuration data structure for Bitcoin client. ">
<polygon fill="white" stroke="black" points="180.5,-204.5 180.5,-223.5 257.5,-223.5 257.5,-204.5 180.5,-204.5"/>
<text text-anchor="middle" x="219" y="-211.5" font-family="Helvetica,sans-Serif" font-size="10.00">OptionsModel</text>
</a>
</g>
</g>
<!-- Node25&#45;&gt;Node5 -->
<g id="edge35" class="edge"><title>Node25&#45;&gt;Node5</title>
<path fill="none" stroke="#9a32cd" stroke-dasharray="5,2" d="M215.434,-194.421C215.085,-187.479 215.976,-179.864 220,-174 226.844,-164.025 238.116,-157.727 249.367,-153.754"/>
<polygon fill="#9a32cd" stroke="#9a32cd" points="211.974,-194.962 216.73,-204.43 218.916,-194.063 211.974,-194.962"/>
<text text-anchor="middle" x="250.5" y="-177.5" font-family="Helvetica,sans-Serif" font-size="10.00"> optionsModel</text>
</g>
<!-- Node26 -->
<g id="node26" class="node"><title>Node26</title>
<polygon fill="white" stroke="#bfbfbf" points="107.5,-272.5 107.5,-291.5 210.5,-291.5 210.5,-272.5 107.5,-272.5"/>
<text text-anchor="middle" x="159" y="-279.5" font-family="Helvetica,sans-Serif" font-size="10.00">QAbstractListModel</text>
</g>
<!-- Node26&#45;&gt;Node25 -->
<g id="edge36" class="edge"><title>Node26&#45;&gt;Node25</title>
<path fill="none" stroke="midnightblue" d="M173.836,-264.68C185.567,-251.777 201.493,-234.258 210.963,-223.841"/>
<polygon fill="midnightblue" stroke="midnightblue" points="170.981,-262.618 166.844,-272.372 176.161,-267.327 170.981,-262.618"/>
</g>
</g>
</svg>
        <g id="navigator" transform="translate(0 0)" fill="#404254">
                <rect fill="#f2f5e9" fill-opacity="0.5" stroke="#606060" stroke-width=".5" x="0" y="0" width="60" height="60"/>
                <use id="zoomplus" xlink:href="#zoomPlus" x="17" y="9" onmousedown="handleZoom(evt,'in')"/>
                <use id="zoomminus" xlink:href="#zoomMin" x="42" y="9" onmousedown="handleZoom(evt,'out')"/>
                <use id="reset" xlink:href="#resetDef" x="30" y="36" onmousedown="handleReset()"/>
                <g id="arrowUp" xlink:href="#dirArrow" transform="translate(30 24)" onmousedown="handlePan(0,-1)">
                  <use xlink:href="#rim" fill="#404040">
                        <set attributeName="fill" to="#808080" begin="arrowUp.mouseover" end="arrowUp.mouseout"/>
                  </use>
                  <path fill="none" stroke="white" stroke-width="1.5" d="M0,-3.0v7 M-2.5,-0.5L0,-3.0L2.5,-0.5"/>
                </g>
                <g id="arrowRight" xlink:href="#dirArrow" transform="rotate(90) translate(36 -43)" onmousedown="handlePan(1,0)">
                  <use xlink:href="#rim" fill="#404040">
                        <set attributeName="fill" to="#808080" begin="arrowRight.mouseover" end="arrowRight.mouseout"/>
                  </use>
                  <path fill="none" stroke="white" stroke-width="1.5" d="M0,-3.0v7 M-2.5,-0.5L0,-3.0L2.5,-0.5"/>
                </g>
                <g id="arrowDown" xlink:href="#dirArrow" transform="rotate(180) translate(-30 -48)" onmousedown="handlePan(0,1)">
                  <use xlink:href="#rim" fill="#404040">
                        <set attributeName="fill" to="#808080" begin="arrowDown.mouseover" end="arrowDown.mouseout"/>
                  </use>
                  <path fill="none" stroke="white" stroke-width="1.5" d="M0,-3.0v7 M-2.5,-0.5L0,-3.0L2.5,-0.5"/>
                </g>
                <g id="arrowLeft" xlink:href="#dirArrow" transform="rotate(270) translate(-36 17)" onmousedown="handlePan(-1,0)">
                  <use xlink:href="#rim" fill="#404040">
                        <set attributeName="fill" to="#808080" begin="arrowLeft.mouseover" end="arrowLeft.mouseout"/>
                  </use>
                  <path fill="none" stroke="white" stroke-width="1.5" d="M0,-3.0v7 M-2.5,-0.5L0,-3.0L2.5,-0.5"/>
                </g>
        </g>
        <svg viewBox="0 0 15 15" width="100%" height="30px" preserveAspectRatio="xMaxYMin meet">
         <g id="arrow_out" transform="scale(0.3 0.3)">
          <a xlink:href="class_transaction_table_priv__coll__graph_org.svg" target="_base">
           <rect id="button" ry="5" rx="5" y="6" x="6" height="38" width="38"
                fill="#f2f5e9" fill-opacity="0.5" stroke="#606060" stroke-width="1.0"/>
           <path id="arrow"
             d="M 11.500037,31.436501 C 11.940474,20.09759 22.043105,11.32322 32.158766,21.979434 L 37.068811,17.246167 C 37.068811,17.246167 37.088388,32 37.088388,32 L 22.160133,31.978069 C 22.160133,31.978069 26.997745,27.140456 26.997745,27.140456 C 18.528582,18.264221 13.291696,25.230495 11.500037,31.436501 z"
             style="fill:#404040;"/>
          </a>
         </g>
        </svg>
</svg>
