<?xml version="1.0" encoding="UTF-8" standalone="no"?>
<!DOCTYPE svg PUBLIC "-//W3C//DTD SVG 1.1//EN"
 "http://www.w3.org/Graphics/SVG/1.1/DTD/svg11.dtd">
<!-- Generated by graphviz version 2.36.0 (20140111.2315)
 -->
<!-- Title: CCriticalSection Pages: 1 -->
<svg width="126pt" height="152pt"
 viewBox="0.00 0.00 126.00 152.00" xmlns="http://www.w3.org/2000/svg" xmlns:xlink="http://www.w3.org/1999/xlink">
<g id="graph0" class="graph" transform="scale(1 1) rotate(0) translate(4 148)">
<title>CCriticalSection</title>
<polygon fill="white" stroke="none" points="-4,4 -4,-148 122,-148 122,4 -4,4"/>
<!-- Node0 -->
<g id="node1" class="node"><title>Node0</title>
<polygon fill="#bfbfbf" stroke="black" points="15,-0.5 15,-19.5 103,-19.5 103,-0.5 15,-0.5"/>
<text text-anchor="middle" x="59" y="-7.5" font-family="Helvetica,sans-Serif" font-size="10.00">CCriticalSection</text>
</g>
<!-- Node1 -->
<g id="node2" class="node"><title>Node1</title>
<polygon fill="white" stroke="#bfbfbf" points="0.5,-57 0.5,-87 117.5,-87 117.5,-57 0.5,-57"/>
<text text-anchor="start" x="8.5" y="-75" font-family="Helvetica,sans-Serif" font-size="10.00">AnnotatedMixin&lt; boost</text>
<text text-anchor="middle" x="59" y="-64" font-family="Helvetica,sans-Serif" font-size="10.00">::recursive_mutex &gt;</text>
</g>
<!-- Node1&#45;&gt;Node0 -->
<g id="edge1" class="edge"><title>Node1&#45;&gt;Node0</title>
<path fill="none" stroke="midnightblue" d="M59,-46.5858C59,-37.0743 59,-26.7864 59,-19.7305"/>
<polygon fill="midnightblue" stroke="midnightblue" points="55.5001,-46.7808 59,-56.7808 62.5001,-46.7809 55.5001,-46.7808"/>
</g>
<!-- Node2 -->
<g id="node3" class="node"><title>Node2</title>
<polygon fill="white" stroke="#bfbfbf" points="-0.5,-124.5 -0.5,-143.5 118.5,-143.5 118.5,-124.5 -0.5,-124.5"/>
<text text-anchor="middle" x="59" y="-131.5" font-family="Helvetica,sans-Serif" font-size="10.00">boost::recursive_mutex</text>
</g>
<!-- Node2&#45;&gt;Node1 -->
<g id="edge2" class="edge"><title>Node2&#45;&gt;Node1</title>
<path fill="none" stroke="midnightblue" d="M59,-114.371C59,-105.585 59,-95.2721 59,-87.1408"/>
<polygon fill="midnightblue" stroke="midnightblue" points="55.5001,-114.403 59,-124.403 62.5001,-114.403 55.5001,-114.403"/>
</g>
</g>
</svg>
