<?xml version="1.0" encoding="UTF-8" standalone="no"?>
<!DOCTYPE svg PUBLIC "-//W3C//DTD SVG 1.1//EN"
 "http://www.w3.org/Graphics/SVG/1.1/DTD/svg11.dtd">
<!-- Generated by graphviz version 2.36.0 (20140111.2315)
 -->
<!-- Title: CPrivateSendBaseManager Pages: 1 -->
<svg width="272pt" height="84pt"
 viewBox="0.00 0.00 272.00 84.00" xmlns="http://www.w3.org/2000/svg" xmlns:xlink="http://www.w3.org/1999/xlink">
<g id="graph0" class="graph" transform="scale(1 1) rotate(0) translate(4 80)">
<title>CPrivateSendBaseManager</title>
<polygon fill="white" stroke="none" points="-4,4 -4,-80 268,-80 268,4 -4,4"/>
<!-- Node0 -->
<g id="node1" class="node"><title>Node0</title>
<polygon fill="#bfbfbf" stroke="black" points="71.5,-56.5 71.5,-75.5 208.5,-75.5 208.5,-56.5 71.5,-56.5"/>
<text text-anchor="middle" x="140" y="-63.5" font-family="Helvetica,sans-Serif" font-size="10.00">CPrivateSendBaseManager</text>
</g>
<!-- Node1 -->
<g id="node2" class="node"><title>Node1</title>
<g id="a_node2"><a xlink:href="class_c_private_send_client_manager.html" target="_top" xlink:title="Used to keep track of current status of mixing pool. ">
<polygon fill="white" stroke="black" points="0,-0.5 0,-19.5 140,-19.5 140,-0.5 0,-0.5"/>
<text text-anchor="middle" x="70" y="-7.5" font-family="Helvetica,sans-Serif" font-size="10.00">CPrivateSendClientManager</text>
</a>
</g>
</g>
<!-- Node0&#45;&gt;Node1 -->
<g id="edge1" class="edge"><title>Node0&#45;&gt;Node1</title>
<path fill="none" stroke="midnightblue" d="M120.686,-50.1008C108.088,-40.3824 92.0719,-28.0269 81.4513,-19.8339"/>
<polygon fill="midnightblue" stroke="midnightblue" points="118.698,-52.9871 128.753,-56.324 122.973,-47.4446 118.698,-52.9871"/>
</g>
<!-- Node2 -->
<g id="node3" class="node"><title>Node2</title>
<g id="a_node3"><a xlink:href="class_c_private_send_server.html" target="_top" xlink:title="Used to keep track of current status of mixing pool. ">
<polygon fill="white" stroke="black" points="158,-0.5 158,-19.5 264,-19.5 264,-0.5 158,-0.5"/>
<text text-anchor="middle" x="211" y="-7.5" font-family="Helvetica,sans-Serif" font-size="10.00">CPrivateSendServer</text>
</a>
</g>
</g>
<!-- Node0&#45;&gt;Node2 -->
<g id="edge2" class="edge"><title>Node0&#45;&gt;Node2</title>
<path fill="none" stroke="midnightblue" d="M159.59,-50.1008C172.368,-40.3824 188.613,-28.0269 199.385,-19.8339"/>
<polygon fill="midnightblue" stroke="midnightblue" points="157.248,-47.4844 151.407,-56.324 161.486,-53.0561 157.248,-47.4844"/>
</g>
</g>
</svg>
