<?xml version="1.0" encoding="UTF-8" standalone="no"?>
<!DOCTYPE svg PUBLIC "-//W3C//DTD SVG 1.1//EN"
 "http://www.w3.org/Graphics/SVG/1.1/DTD/svg11.dtd">
<!-- Generated by graphviz version 2.36.0 (20140111.2315)
 -->
<!-- Title: BitcoinGUI Pages: 1 -->
<svg width="1048pt" height="600pt"
 viewBox="0.00 0.00 1048.00 600.41" xmlns="http://www.w3.org/2000/svg" xmlns:xlink="http://www.w3.org/1999/xlink">
<g id="graph0" class="graph" transform="scale(1 1) rotate(0) translate(4 596.414)">
<title>BitcoinGUI</title>
<polygon fill="white" stroke="none" points="-4,4 -4,-596.414 1044,-596.414 1044,4 -4,4"/>
<!-- Node2 -->
<g id="node1" class="node"><title>Node2</title>
<polygon fill="#bfbfbf" stroke="black" points="808.5,-358.914 808.5,-377.914 873.5,-377.914 873.5,-358.914 808.5,-358.914"/>
<text text-anchor="middle" x="841" y="-365.914" font-family="Helvetica,sans-Serif" font-size="10.00">BitcoinGUI</text>
</g>
<!-- Node17 -->
<g id="node16" class="node"><title>Node17</title>
<g id="a_node16"><a xlink:href="class_wallet_frame.html" target="_top" xlink:title="A container for embedding all wallet&#45;related controls into BitcoinGUI. ">
<polygon fill="white" stroke="black" points="968,-324.914 968,-343.914 1040,-343.914 1040,-324.914 968,-324.914"/>
<text text-anchor="middle" x="1004" y="-331.914" font-family="Helvetica,sans-Serif" font-size="10.00">WalletFrame</text>
</a>
</g>
</g>
<!-- Node2&#45;&gt;Node17 -->
<g id="edge24" class="edge"><title>Node2&#45;&gt;Node17</title>
<path fill="none" stroke="#9a32cd" stroke-dasharray="5,2" d="M859.478,-352.185C868.478,-344.932 880.053,-337.18 892,-333.414 916.537,-325.679 945.669,-326.284 967.93,-328.633"/>
<polygon fill="#9a32cd" stroke="#9a32cd" points="857.028,-349.675 851.711,-358.839 861.582,-354.991 857.028,-349.675"/>
<text text-anchor="middle" x="921" y="-336.414" font-family="Helvetica,sans-Serif" font-size="10.00"> gui</text>
</g>
<!-- Node3 -->
<g id="node2" class="node"><title>Node3</title>
<polygon fill="white" stroke="#bfbfbf" points="590,-490.914 590,-509.914 670,-509.914 670,-490.914 590,-490.914"/>
<text text-anchor="middle" x="630" y="-497.914" font-family="Helvetica,sans-Serif" font-size="10.00">QMainWindow</text>
</g>
<!-- Node3&#45;&gt;Node2 -->
<g id="edge1" class="edge"><title>Node3&#45;&gt;Node2</title>
<path fill="none" stroke="midnightblue" d="M680.414,-504.15C714.392,-504.167 758.832,-498.854 790,-475.414 822.775,-450.766 834.857,-399.323 838.574,-377.996"/>
<polygon fill="midnightblue" stroke="midnightblue" points="680.285,-500.648 670.231,-503.988 680.174,-507.647 680.285,-500.648"/>
</g>
<!-- Node4 -->
<g id="node3" class="node"><title>Node4</title>
<g id="a_node3"><a xlink:href="class_help_message_dialog.html" target="_top" xlink:title="&quot;Help message&quot; dialog box ">
<polygon fill="white" stroke="black" points="578,-566.914 578,-585.914 682,-585.914 682,-566.914 578,-566.914"/>
<text text-anchor="middle" x="630" y="-573.914" font-family="Helvetica,sans-Serif" font-size="10.00">HelpMessageDialog</text>
</a>
</g>
</g>
<!-- Node4&#45;&gt;Node2 -->
<g id="edge2" class="edge"><title>Node4&#45;&gt;Node2</title>
<path fill="none" stroke="#9a32cd" stroke-dasharray="5,2" d="M692.491,-582.228C725.16,-581.932 763.853,-575.703 790,-552.414 816.821,-528.526 834.098,-412.928 838.74,-378.261"/>
<polygon fill="#9a32cd" stroke="#9a32cd" points="692.152,-578.725 682.119,-582.13 692.086,-585.725 692.152,-578.725"/>
<text text-anchor="middle" x="745" y="-584.414" font-family="Helvetica,sans-Serif" font-size="10.00"> helpMessageDialog</text>
</g>
<!-- Node5 -->
<g id="node4" class="node"><title>Node5</title>
<polygon fill="white" stroke="#bfbfbf" points="364,-566.914 364,-585.914 416,-585.914 416,-566.914 364,-566.914"/>
<text text-anchor="middle" x="390" y="-573.914" font-family="Helvetica,sans-Serif" font-size="10.00">QDialog</text>
</g>
<!-- Node5&#45;&gt;Node4 -->
<g id="edge3" class="edge"><title>Node5&#45;&gt;Node4</title>
<path fill="none" stroke="midnightblue" d="M426.102,-576.414C466.134,-576.414 531.949,-576.414 577.724,-576.414"/>
<polygon fill="midnightblue" stroke="midnightblue" points="426.02,-572.914 416.02,-576.414 426.02,-579.914 426.02,-572.914"/>
</g>
<!-- Node6 -->
<g id="node5" class="node"><title>Node6</title>
<g id="a_node5"><a xlink:href="class_platform_style.html" target="_top" xlink:title="PlatformStyle">
<polygon fill="white" stroke="black" points="352,-463.914 352,-482.914 428,-482.914 428,-463.914 352,-463.914"/>
<text text-anchor="middle" x="390" y="-470.914" font-family="Helvetica,sans-Serif" font-size="10.00">PlatformStyle</text>
</a>
</g>
</g>
<!-- Node6&#45;&gt;Node2 -->
<g id="edge4" class="edge"><title>Node6&#45;&gt;Node2</title>
<path fill="none" stroke="#9a32cd" stroke-dasharray="5,2" d="M438.547,-471.717C515.268,-467.541 669.908,-453.121 790,-403.414 804.882,-397.255 819.718,-386.071 829.317,-378"/>
<polygon fill="#9a32cd" stroke="#9a32cd" points="438.059,-468.237 428.25,-472.241 438.415,-475.228 438.059,-468.237"/>
<text text-anchor="middle" x="630" y="-459.414" font-family="Helvetica,sans-Serif" font-size="10.00"> platformStyle</text>
</g>
<!-- Node14 -->
<g id="node13" class="node"><title>Node14</title>
<g id="a_node13"><a xlink:href="class_r_p_c_console.html" target="_top" xlink:title="Local Bitcoin RPC console. ">
<polygon fill="white" stroke="black" points="593,-320.914 593,-339.914 667,-339.914 667,-320.914 593,-320.914"/>
<text text-anchor="middle" x="630" y="-327.914" font-family="Helvetica,sans-Serif" font-size="10.00">RPCConsole</text>
</a>
</g>
</g>
<!-- Node6&#45;&gt;Node14 -->
<g id="edge18" class="edge"><title>Node6&#45;&gt;Node14</title>
<path fill="none" stroke="#9a32cd" stroke-dasharray="5,2" d="M417.789,-458.745C431.164,-451.314 447.536,-442.056 462,-433.414 506.244,-406.979 521.408,-405.576 560,-371.414 569.46,-363.04 567.724,-356.763 578,-349.414 583.303,-345.621 589.452,-342.493 595.606,-339.946"/>
<polygon fill="#9a32cd" stroke="#9a32cd" points="415.708,-455.896 408.65,-463.798 419.095,-462.022 415.708,-455.896"/>
<text text-anchor="middle" x="520" y="-424.414" font-family="Helvetica,sans-Serif" font-size="10.00"> platformStyle</text>
</g>
<!-- Node6&#45;&gt;Node17 -->
<g id="edge22" class="edge"><title>Node6&#45;&gt;Node17</title>
<path fill="none" stroke="#9a32cd" stroke-dasharray="5,2" d="M425.597,-486.405C497.094,-511.077 664.899,-557.623 790,-503.414 881.824,-463.624 967.638,-373.838 994.424,-344.149"/>
<polygon fill="#9a32cd" stroke="#9a32cd" points="426.758,-483.103 416.163,-483.082 424.432,-489.705 426.758,-483.103"/>
<text text-anchor="middle" x="745" y="-528.414" font-family="Helvetica,sans-Serif" font-size="10.00"> platformStyle</text>
</g>
<!-- Node7 -->
<g id="node6" class="node"><title>Node7</title>
<g id="a_node6"><a xlink:href="class_client_model.html" target="_top" xlink:title="Model for Dash network client. ">
<polygon fill="white" stroke="black" points="356,-142.914 356,-161.914 424,-161.914 424,-142.914 356,-142.914"/>
<text text-anchor="middle" x="390" y="-149.914" font-family="Helvetica,sans-Serif" font-size="10.00">ClientModel</text>
</a>
</g>
</g>
<!-- Node7&#45;&gt;Node2 -->
<g id="edge5" class="edge"><title>Node7&#45;&gt;Node2</title>
<path fill="none" stroke="#9a32cd" stroke-dasharray="5,2" d="M414.86,-137.594C432.208,-127.726 456.649,-115.647 480,-110.414 567.759,-90.7468 605.278,-75.4856 682,-122.414 777.478,-180.815 825.698,-321.115 837.236,-358.904"/>
<polygon fill="#9a32cd" stroke="#9a32cd" points="412.857,-134.711 406.004,-142.791 416.4,-140.748 412.857,-134.711"/>
<text text-anchor="middle" x="630" y="-125.414" font-family="Helvetica,sans-Serif" font-size="10.00"> clientModel</text>
</g>
<!-- Node9 -->
<g id="node8" class="node"><title>Node9</title>
<g id="a_node8"><a xlink:href="class_peer_table_model.html" target="_top" xlink:title="Qt model providing information about connected peers, similar to the &quot;getpeerinfo&quot; RPC call...">
<polygon fill="white" stroke="black" points="586.5,-210.914 586.5,-229.914 673.5,-229.914 673.5,-210.914 586.5,-210.914"/>
<text text-anchor="middle" x="630" y="-217.914" font-family="Helvetica,sans-Serif" font-size="10.00">PeerTableModel</text>
</a>
</g>
</g>
<!-- Node7&#45;&gt;Node9 -->
<g id="edge9" class="edge"><title>Node7&#45;&gt;Node9</title>
<path fill="none" stroke="#9a32cd" stroke-dasharray="5,2" d="M434.355,-157.516C469.014,-162.389 518.496,-171.145 560,-185.414 579.181,-192.008 599.74,-203 613.379,-210.908"/>
<polygon fill="#9a32cd" stroke="#9a32cd" points="434.479,-154 424.099,-156.126 433.539,-160.937 434.479,-154"/>
<text text-anchor="middle" x="520" y="-188.414" font-family="Helvetica,sans-Serif" font-size="10.00"> clientModel</text>
</g>
<!-- Node11 -->
<g id="node10" class="node"><title>Node11</title>
<g id="a_node10"><a xlink:href="class_ban_table_model.html" target="_top" xlink:title="Qt model providing information about connected peers, similar to the &quot;getpeerinfo&quot; RPC call...">
<polygon fill="white" stroke="black" points="588,-142.914 588,-161.914 672,-161.914 672,-142.914 588,-142.914"/>
<text text-anchor="middle" x="630" y="-149.914" font-family="Helvetica,sans-Serif" font-size="10.00">BanTableModel</text>
</a>
</g>
</g>
<!-- Node7&#45;&gt;Node11 -->
<g id="edge12" class="edge"><title>Node7&#45;&gt;Node11</title>
<path fill="none" stroke="#9a32cd" stroke-dasharray="5,2" d="M434.12,-152.414C477.788,-152.414 544.843,-152.414 587.807,-152.414"/>
<polygon fill="#9a32cd" stroke="#9a32cd" points="434.093,-148.914 424.093,-152.414 434.093,-155.914 434.093,-148.914"/>
<text text-anchor="middle" x="520" y="-155.414" font-family="Helvetica,sans-Serif" font-size="10.00"> clientModel</text>
</g>
<!-- Node7&#45;&gt;Node14 -->
<g id="edge19" class="edge"><title>Node7&#45;&gt;Node14</title>
<path fill="none" stroke="#9a32cd" stroke-dasharray="5,2" d="M408.785,-169.218C426.349,-185.516 454.243,-210.615 480,-230.414 526.682,-266.299 585.649,-303.703 613.317,-320.824"/>
<polygon fill="#9a32cd" stroke="#9a32cd" points="410.743,-166.257 401.048,-161.986 405.964,-171.371 410.743,-166.257"/>
<text text-anchor="middle" x="520" y="-290.414" font-family="Helvetica,sans-Serif" font-size="10.00"> clientModel</text>
</g>
<!-- Node7&#45;&gt;Node17 -->
<g id="edge23" class="edge"><title>Node7&#45;&gt;Node17</title>
<path fill="none" stroke="#9a32cd" stroke-dasharray="5,2" d="M407.937,-135.948C424.689,-120.877 451.837,-99.5732 480,-90.414 611.719,-47.5761 671.486,-50.7243 790,-122.414 886.426,-180.743 971.771,-291.568 996.087,-324.776"/>
<polygon fill="#9a32cd" stroke="#9a32cd" points="405.539,-133.397 400.589,-142.765 410.301,-138.529 405.539,-133.397"/>
<text text-anchor="middle" x="745" y="-125.414" font-family="Helvetica,sans-Serif" font-size="10.00"> clientModel</text>
</g>
<!-- Node8 -->
<g id="node7" class="node"><title>Node8</title>
<polygon fill="white" stroke="#bfbfbf" points="154.5,-121.914 154.5,-140.914 207.5,-140.914 207.5,-121.914 154.5,-121.914"/>
<text text-anchor="middle" x="181" y="-128.914" font-family="Helvetica,sans-Serif" font-size="10.00">QObject</text>
</g>
<!-- Node8&#45;&gt;Node7 -->
<g id="edge6" class="edge"><title>Node8&#45;&gt;Node7</title>
<path fill="none" stroke="midnightblue" d="M218.106,-135.077C256.888,-139.011 318.005,-145.212 355.676,-149.033"/>
<polygon fill="midnightblue" stroke="midnightblue" points="218.1,-131.559 207.798,-134.031 217.394,-138.523 218.1,-131.559"/>
</g>
<!-- Node20 -->
<g id="node19" class="node"><title>Node20</title>
<g id="a_node19"><a xlink:href="class_notificator.html" target="_top" xlink:title="Cross&#45;platform desktop notification client. ">
<polygon fill="white" stroke="black" points="489,-18.914 489,-37.914 551,-37.914 551,-18.914 489,-18.914"/>
<text text-anchor="middle" x="520" y="-25.914" font-family="Helvetica,sans-Serif" font-size="10.00">Notificator</text>
</a>
</g>
</g>
<!-- Node8&#45;&gt;Node20 -->
<g id="edge28" class="edge"><title>Node8&#45;&gt;Node20</title>
<path fill="none" stroke="midnightblue" d="M217.206,-120.654C283.592,-100.364 426.2,-56.7774 488.654,-37.6889"/>
<polygon fill="midnightblue" stroke="midnightblue" points="216.147,-117.318 207.606,-123.588 218.193,-124.012 216.147,-117.318"/>
</g>
<!-- Node9&#45;&gt;Node7 -->
<g id="edge7" class="edge"><title>Node9&#45;&gt;Node7</title>
<path fill="none" stroke="#9a32cd" stroke-dasharray="5,2" d="M576.103,-216.882C547.182,-213.894 511.032,-208.417 480,-198.414 452.354,-189.503 422.903,-172.643 405.767,-161.996"/>
<polygon fill="#9a32cd" stroke="#9a32cd" points="576.118,-220.4 586.408,-217.874 576.789,-213.432 576.118,-220.4"/>
<text text-anchor="middle" x="520" y="-218.414" font-family="Helvetica,sans-Serif" font-size="10.00"> peerTableModel</text>
</g>
<!-- Node10 -->
<g id="node9" class="node"><title>Node10</title>
<polygon fill="white" stroke="#bfbfbf" points="334.5,-280.914 334.5,-299.914 445.5,-299.914 445.5,-280.914 334.5,-280.914"/>
<text text-anchor="middle" x="390" y="-287.914" font-family="Helvetica,sans-Serif" font-size="10.00">QAbstractTableModel</text>
</g>
<!-- Node10&#45;&gt;Node9 -->
<g id="edge8" class="edge"><title>Node10&#45;&gt;Node9</title>
<path fill="none" stroke="midnightblue" d="M445.489,-301.384C479.698,-305.739 523.996,-306.63 560,-291.414 589.765,-278.835 613.025,-246.441 623.282,-230.119"/>
<polygon fill="midnightblue" stroke="midnightblue" points="445.607,-297.866 435.216,-299.935 444.63,-304.797 445.607,-297.866"/>
</g>
<!-- Node10&#45;&gt;Node11 -->
<g id="edge11" class="edge"><title>Node10&#45;&gt;Node11</title>
<path fill="none" stroke="midnightblue" d="M455.986,-288.41C496.854,-285.815 544.659,-279.893 560,-266.414 582.519,-246.629 562.645,-227.159 578,-201.414 587.56,-185.385 603.747,-171.116 615.321,-162.168"/>
<polygon fill="midnightblue" stroke="midnightblue" points="455.551,-284.929 445.77,-289 455.955,-291.917 455.551,-284.929"/>
</g>
<!-- Node11&#45;&gt;Node7 -->
<g id="edge10" class="edge"><title>Node11&#45;&gt;Node7</title>
<path fill="none" stroke="#9a32cd" stroke-dasharray="5,2" d="M605.414,-137.894C592.511,-130.801 575.943,-123.03 560,-119.414 525.325,-111.549 514.997,-113.135 480,-119.414 455.183,-123.867 428.24,-134.785 410.576,-142.849"/>
<polygon fill="#9a32cd" stroke="#9a32cd" points="603.684,-140.936 614.101,-142.869 607.163,-134.862 603.684,-140.936"/>
<text text-anchor="middle" x="520" y="-122.414" font-family="Helvetica,sans-Serif" font-size="10.00"> banTableModel</text>
</g>
<!-- Node12 -->
<g id="node11" class="node"><title>Node12</title>
<g id="a_node11"><a xlink:href="class_options_model.html" target="_top" xlink:title="Interface from Qt to configuration data structure for Bitcoin client. ">
<polygon fill="white" stroke="black" points="142.5,-205.914 142.5,-224.914 219.5,-224.914 219.5,-205.914 142.5,-205.914"/>
<text text-anchor="middle" x="181" y="-212.914" font-family="Helvetica,sans-Serif" font-size="10.00">OptionsModel</text>
</a>
</g>
</g>
<!-- Node12&#45;&gt;Node7 -->
<g id="edge13" class="edge"><title>Node12&#45;&gt;Node7</title>
<path fill="none" stroke="#9a32cd" stroke-dasharray="5,2" d="M223.055,-202.919C262.628,-190.875 321.653,-172.911 357.605,-161.969"/>
<polygon fill="#9a32cd" stroke="#9a32cd" points="221.986,-199.586 213.439,-205.846 224.025,-206.282 221.986,-199.586"/>
<text text-anchor="middle" x="269" y="-200.414" font-family="Helvetica,sans-Serif" font-size="10.00"> optionsModel</text>
</g>
<!-- Node21 -->
<g id="node20" class="node"><title>Node21</title>
<g id="a_node20"><a xlink:href="class_unit_display_status_bar_control.html" target="_top" xlink:title="UnitDisplayStatusBarControl">
<polygon fill="white" stroke="black" points="318.5,-404.914 318.5,-423.914 461.5,-423.914 461.5,-404.914 318.5,-404.914"/>
<text text-anchor="middle" x="390" y="-411.914" font-family="Helvetica,sans-Serif" font-size="10.00">UnitDisplayStatusBarControl</text>
</a>
</g>
</g>
<!-- Node12&#45;&gt;Node21 -->
<g id="edge31" class="edge"><title>Node12&#45;&gt;Node21</title>
<path fill="none" stroke="#9a32cd" stroke-dasharray="5,2" d="M190.78,-234.11C209.042,-270.903 254.747,-352.823 318,-395.414 323.716,-399.263 330.179,-402.333 336.82,-404.782"/>
<polygon fill="#9a32cd" stroke="#9a32cd" points="193.876,-232.472 186.365,-224.999 187.576,-235.525 193.876,-232.472"/>
<text text-anchor="middle" x="269" y="-383.414" font-family="Helvetica,sans-Serif" font-size="10.00"> optionsModel</text>
</g>
<!-- Node13 -->
<g id="node12" class="node"><title>Node13</title>
<polygon fill="white" stroke="#bfbfbf" points="0.5,-205.914 0.5,-224.914 103.5,-224.914 103.5,-205.914 0.5,-205.914"/>
<text text-anchor="middle" x="52" y="-212.914" font-family="Helvetica,sans-Serif" font-size="10.00">QAbstractListModel</text>
</g>
<!-- Node13&#45;&gt;Node12 -->
<g id="edge14" class="edge"><title>Node13&#45;&gt;Node12</title>
<path fill="none" stroke="midnightblue" d="M113.619,-215.414C123.341,-215.414 133.153,-215.414 142.142,-215.414"/>
<polygon fill="midnightblue" stroke="midnightblue" points="113.559,-211.914 103.559,-215.414 113.559,-218.914 113.559,-211.914"/>
</g>
<!-- Node14&#45;&gt;Node2 -->
<g id="edge15" class="edge"><title>Node14&#45;&gt;Node2</title>
<path fill="none" stroke="#9a32cd" stroke-dasharray="5,2" d="M677.207,-335.269C709.113,-339.067 752.401,-345.103 790,-353.414 796.814,-354.92 804.052,-356.877 810.843,-358.878"/>
<polygon fill="#9a32cd" stroke="#9a32cd" points="677.607,-331.792 667.269,-334.115 676.799,-338.745 677.607,-331.792"/>
<text text-anchor="middle" x="745" y="-356.414" font-family="Helvetica,sans-Serif" font-size="10.00"> rpcConsole</text>
</g>
<!-- Node15 -->
<g id="node14" class="node"><title>Node15</title>
<polygon fill="white" stroke="#bfbfbf" points="362.5,-366.914 362.5,-385.914 417.5,-385.914 417.5,-366.914 362.5,-366.914"/>
<text text-anchor="middle" x="390" y="-373.914" font-family="Helvetica,sans-Serif" font-size="10.00">QWidget</text>
</g>
<!-- Node15&#45;&gt;Node14 -->
<g id="edge16" class="edge"><title>Node15&#45;&gt;Node14</title>
<path fill="none" stroke="midnightblue" d="M427.599,-372.173C462.001,-367.86 514.817,-360.394 560,-350.414 573.031,-347.536 587.223,-343.57 599.329,-339.928"/>
<polygon fill="midnightblue" stroke="midnightblue" points="427.04,-368.716 417.542,-373.41 427.894,-375.663 427.04,-368.716"/>
</g>
<!-- Node19 -->
<g id="node18" class="node"><title>Node19</title>
<g id="a_node18"><a xlink:href="class_modal_overlay.html" target="_top" xlink:title="Modal overlay to display information about the chain&#45;sync state. ">
<polygon fill="white" stroke="black" points="591.5,-358.914 591.5,-377.914 668.5,-377.914 668.5,-358.914 591.5,-358.914"/>
<text text-anchor="middle" x="630" y="-365.914" font-family="Helvetica,sans-Serif" font-size="10.00">ModalOverlay</text>
</a>
</g>
</g>
<!-- Node15&#45;&gt;Node19 -->
<g id="edge26" class="edge"><title>Node15&#45;&gt;Node19</title>
<path fill="none" stroke="midnightblue" d="M427.675,-377.202C461.927,-377.699 514.463,-377.853 560,-375.414 570.22,-374.867 581.26,-373.911 591.449,-372.879"/>
<polygon fill="midnightblue" stroke="midnightblue" points="427.715,-373.702 417.66,-377.039 427.601,-380.701 427.715,-373.702"/>
</g>
<!-- Node16 -->
<g id="node15" class="node"><title>Node16</title>
<g id="a_node15"><a xlink:href="class_r_p_c_timer_interface.html" target="_top" xlink:title="RPC timer &quot;driver&quot;. ">
<polygon fill="white" stroke="black" points="339.5,-328.914 339.5,-347.914 440.5,-347.914 440.5,-328.914 339.5,-328.914"/>
<text text-anchor="middle" x="390" y="-335.914" font-family="Helvetica,sans-Serif" font-size="10.00">RPCTimerInterface</text>
</a>
</g>
</g>
<!-- Node16&#45;&gt;Node14 -->
<g id="edge17" class="edge"><title>Node16&#45;&gt;Node14</title>
<path fill="none" stroke="#9a32cd" stroke-dasharray="5,2" d="M450.745,-336.406C495.382,-334.905 554.953,-332.903 592.654,-331.636"/>
<polygon fill="#9a32cd" stroke="#9a32cd" points="450.48,-332.913 440.603,-336.747 450.715,-339.909 450.48,-332.913"/>
<text text-anchor="middle" x="520" y="-338.414" font-family="Helvetica,sans-Serif" font-size="10.00"> rpcTimerInterface</text>
</g>
<!-- Node17&#45;&gt;Node2 -->
<g id="edge20" class="edge"><title>Node17&#45;&gt;Node2</title>
<path fill="none" stroke="#9a32cd" stroke-dasharray="5,2" d="M958.066,-344.659C955.338,-345.259 952.633,-345.848 950,-346.414 924.371,-351.925 895.242,-357.838 873.7,-362.145"/>
<polygon fill="#9a32cd" stroke="#9a32cd" points="958.955,-348.047 967.958,-342.461 957.437,-341.213 958.955,-348.047"/>
<text text-anchor="middle" x="921" y="-360.414" font-family="Helvetica,sans-Serif" font-size="10.00"> walletFrame</text>
</g>
<!-- Node18 -->
<g id="node17" class="node"><title>Node18</title>
<polygon fill="white" stroke="#bfbfbf" points="815,-12.914 815,-31.914 867,-31.914 867,-12.914 815,-12.914"/>
<text text-anchor="middle" x="841" y="-19.914" font-family="Helvetica,sans-Serif" font-size="10.00">QFrame</text>
</g>
<!-- Node18&#45;&gt;Node17 -->
<g id="edge21" class="edge"><title>Node18&#45;&gt;Node17</title>
<path fill="none" stroke="midnightblue" d="M877.253,-20.8186C901.06,-21.7396 931.421,-27.1407 950,-46.414 989.782,-87.683 1000.6,-279.711 1002.62,-324.881"/>
<polygon fill="midnightblue" stroke="midnightblue" points="877.223,-17.3179 867.174,-20.6736 877.122,-24.3172 877.223,-17.3179"/>
</g>
<!-- Node19&#45;&gt;Node2 -->
<g id="edge25" class="edge"><title>Node19&#45;&gt;Node2</title>
<path fill="none" stroke="#9a32cd" stroke-dasharray="5,2" d="M679.085,-368.414C718.748,-368.414 773.897,-368.414 808.242,-368.414"/>
<polygon fill="#9a32cd" stroke="#9a32cd" points="678.848,-364.914 668.848,-368.414 678.848,-371.914 678.848,-364.914"/>
<text text-anchor="middle" x="745" y="-371.414" font-family="Helvetica,sans-Serif" font-size="10.00"> modalOverlay</text>
</g>
<!-- Node20&#45;&gt;Node2 -->
<g id="edge27" class="edge"><title>Node20&#45;&gt;Node2</title>
<path fill="none" stroke="#9a32cd" stroke-dasharray="5,2" d="M559.916,-16.1347C617.841,-0.529212 726.691,18.1045 790,-38.414 839.17,-82.3101 840.435,-308.801 840.107,-358.687"/>
<polygon fill="#9a32cd" stroke="#9a32cd" points="558.74,-12.8293 550.054,-18.896 560.628,-19.5701 558.74,-12.8293"/>
<text text-anchor="middle" x="630" y="-14.414" font-family="Helvetica,sans-Serif" font-size="10.00"> notificator</text>
</g>
<!-- Node21&#45;&gt;Node2 -->
<g id="edge29" class="edge"><title>Node21&#45;&gt;Node2</title>
<path fill="none" stroke="#9a32cd" stroke-dasharray="5,2" d="M471.644,-413.194C552.709,-410.79 680.944,-403.766 790,-383.414 797.216,-382.067 804.872,-380.071 811.966,-377.971"/>
<polygon fill="#9a32cd" stroke="#9a32cd" points="471.405,-409.7 461.507,-413.478 471.601,-416.697 471.405,-409.7"/>
<text text-anchor="middle" x="630" y="-410.414" font-family="Helvetica,sans-Serif" font-size="10.00"> unitDisplayControl</text>
</g>
<!-- Node22 -->
<g id="node21" class="node"><title>Node22</title>
<polygon fill="white" stroke="#bfbfbf" points="157.5,-404.914 157.5,-423.914 204.5,-423.914 204.5,-404.914 157.5,-404.914"/>
<text text-anchor="middle" x="181" y="-411.914" font-family="Helvetica,sans-Serif" font-size="10.00">QLabel</text>
</g>
<!-- Node22&#45;&gt;Node21 -->
<g id="edge30" class="edge"><title>Node22&#45;&gt;Node21</title>
<path fill="none" stroke="midnightblue" d="M214.858,-414.414C242.575,-414.414 283.221,-414.414 318.275,-414.414"/>
<polygon fill="midnightblue" stroke="midnightblue" points="214.547,-410.914 204.547,-414.414 214.547,-417.914 214.547,-410.914"/>
</g>
</g>
</svg>
