<?xml version="1.0" encoding="UTF-8" standalone="no"?>
<!DOCTYPE svg PUBLIC "-//W3C//DTD SVG 1.1//EN"
 "http://www.w3.org/Graphics/SVG/1.1/DTD/svg11.dtd">
<!-- Generated by graphviz version 2.36.0 (20140111.2315)
 -->
<!-- Title: CDeterministicMNList Pages: 1 -->
<!--zoomable 137 -->
<svg id="main" version="1.1" xmlns="http://www.w3.org/2000/svg" xmlns:xlink="http://www.w3.org/1999/xlink" xml:space="preserve" onload="init(evt)">
<style type="text/css"><![CDATA[
.edge:hover path { stroke: red; }
.edge:hover polygon { stroke: red; fill: red; }
]]></style>
<script type="text/javascript"><![CDATA[
var edges = document.getElementsByTagName('g');
if (edges && edges.length) {
  for (var i=0;i<edges.length;i++) {
    if (edges[i].id.substr(0,4)=='edge') {
      edges[i].setAttribute('class','edge');
    }
  }
}
]]></script>
        <defs>
                <circle id="rim" cx="0" cy="0" r="7"/>
                <circle id="rim2" cx="0" cy="0" r="3.5"/>
                <g id="zoomPlus">
                        <use xlink:href="#rim" fill="#404040">
                                <set attributeName="fill" to="#808080" begin="zoomplus.mouseover" end="zoomplus.mouseout"/>
                        </use>
                        <path d="M-4,0h8M0,-4v8" fill="none" stroke="white" stroke-width="1.5" pointer-events="none"/>
                </g>
                <g id="zoomMin">
                        <use xlink:href="#rim" fill="#404040">
                                <set attributeName="fill" to="#808080" begin="zoomminus.mouseover" end="zoomminus.mouseout"/>
                        </use>
                        <path d="M-4,0h8" fill="none" stroke="white" stroke-width="1.5" pointer-events="none"/>
                </g>
                <g id="dirArrow">
                        <path fill="none" stroke="white" stroke-width="1.5" d="M0,-3.0v7 M-2.5,-0.5L0,-3.0L2.5,-0.5"/>
                </g>
               <g id="resetDef">
                       <use xlink:href="#rim2" fill="#404040">
                               <set attributeName="fill" to="#808080" begin="reset.mouseover" end="reset.mouseout"/>
                       </use>
               </g>
        </defs>

<script type="text/javascript">
var viewWidth = 788;
var viewHeight = 137;
var sectionId = 'dynsection-0';
</script>
<script xlink:href="svgpan.js"/>
<svg id="graph" class="graph">
<g id="viewport">
<title>CDeterministicMNList</title>
<polygon fill="white" stroke="none" points="-4,4 -4,-133 784,-133 784,4 -4,4"/>
<!-- Node1 -->
<g id="node1" class="node"><title>Node1</title>
<polygon fill="#bfbfbf" stroke="black" points="666.5,-44.5 666.5,-63.5 779.5,-63.5 779.5,-44.5 666.5,-44.5"/>
<text text-anchor="middle" x="723" y="-51.5" font-family="Helvetica,sans-Serif" font-size="10.00">CDeterministicMNList</text>
</g>
<!-- Node2 -->
<g id="node2" class="node"><title>Node2</title>
<g id="a_node2"><a xlink:href="classimmer_1_1map.html" target="_top" xlink:title="immer::map\&lt; uint256,\l std::pair\&lt; uint256,\l uint32_t \&gt; \&gt;">
<polygon fill="white" stroke="black" points="405,-87.5 405,-128.5 517,-128.5 517,-87.5 405,-87.5"/>
<text text-anchor="start" x="413" y="-116.5" font-family="Helvetica,sans-Serif" font-size="10.00">immer::map&lt; uint256,</text>
<text text-anchor="start" x="413" y="-105.5" font-family="Helvetica,sans-Serif" font-size="10.00"> std::pair&lt; uint256,</text>
<text text-anchor="middle" x="461" y="-94.5" font-family="Helvetica,sans-Serif" font-size="10.00"> uint32_t &gt; &gt;</text>
</a>
</g>
</g>
<!-- Node2&#45;&gt;Node1 -->
<g id="edge1" class="edge"><title>Node2&#45;&gt;Node1</title>
<path fill="none" stroke="#9a32cd" stroke-dasharray="5,2" d="M527.097,-94.4799C573.483,-84.8459 634.698,-72.132 676.05,-63.5434"/>
<polygon fill="#9a32cd" stroke="#9a32cd" points="526.219,-91.0875 517.139,-96.548 527.642,-97.9413 526.219,-91.0875"/>
<text text-anchor="middle" x="596" y="-93" font-family="Helvetica,sans-Serif" font-size="10.00"> mnUniquePropertyMap</text>
</g>
<!-- Node3 -->
<g id="node3" class="node"><title>Node3</title>
<g id="a_node3"><a xlink:href="structimmer_1_1detail_1_1hamts_1_1champ.html" target="_top" xlink:title="immer::detail::hamts\l::champ\&lt; value_t, hash\l_key, equal_key, default\l_memory_policy, default_bits \&gt;">
<polygon fill="white" stroke="black" points="178.5,-50 178.5,-102 331.5,-102 331.5,-50 178.5,-50"/>
<text text-anchor="start" x="186.5" y="-90" font-family="Helvetica,sans-Serif" font-size="10.00">immer::detail::hamts</text>
<text text-anchor="start" x="186.5" y="-79" font-family="Helvetica,sans-Serif" font-size="10.00">::champ&lt; value_t, hash</text>
<text text-anchor="start" x="186.5" y="-68" font-family="Helvetica,sans-Serif" font-size="10.00">_key, equal_key, default</text>
<text text-anchor="middle" x="255" y="-57" font-family="Helvetica,sans-Serif" font-size="10.00">_memory_policy, default_bits &gt;</text>
</a>
</g>
</g>
<!-- Node3&#45;&gt;Node2 -->
<g id="edge2" class="edge"><title>Node3&#45;&gt;Node2</title>
<path fill="none" stroke="#9a32cd" stroke-dasharray="5,2" d="M341.729,-89.4477C363.084,-92.7975 385.415,-96.3004 404.848,-99.3487"/>
<polygon fill="#9a32cd" stroke="#9a32cd" points="342.094,-85.9622 331.672,-87.8701 341.009,-92.8776 342.094,-85.9622"/>
<text text-anchor="middle" x="364" y="-97" font-family="Helvetica,sans-Serif" font-size="10.00"> impl_</text>
</g>
<!-- Node7 -->
<g id="node7" class="node"><title>Node7</title>
<g id="a_node7"><a xlink:href="classimmer_1_1map.html" target="_top" xlink:title="immer::map\&lt; uint256,\l CDeterministicMNCPtr \&gt;">
<polygon fill="white" stroke="black" points="396,-39 396,-69 526,-69 526,-39 396,-39"/>
<text text-anchor="start" x="404" y="-57" font-family="Helvetica,sans-Serif" font-size="10.00">immer::map&lt; uint256,</text>
<text text-anchor="middle" x="461" y="-46" font-family="Helvetica,sans-Serif" font-size="10.00"> CDeterministicMNCPtr &gt;</text>
</a>
</g>
</g>
<!-- Node3&#45;&gt;Node7 -->
<g id="edge7" class="edge"><title>Node3&#45;&gt;Node7</title>
<path fill="none" stroke="#9a32cd" stroke-dasharray="5,2" d="M341.661,-66.762C359.8,-64.8058 378.647,-62.7734 395.826,-60.9207"/>
<polygon fill="#9a32cd" stroke="#9a32cd" points="341.239,-63.2871 331.672,-67.8393 341.99,-70.2468 341.239,-63.2871"/>
<text text-anchor="middle" x="364" y="-69" font-family="Helvetica,sans-Serif" font-size="10.00"> impl_</text>
</g>
<!-- Node4 -->
<g id="node4" class="node"><title>Node4</title>
<g id="a_node4"><a xlink:href="structimmer_1_1detail_1_1hamts_1_1node.html" target="_top" xlink:title="immer::detail::hamts\l::node\&lt; T, Hash, Equal,\l MemoryPolicy, B \&gt;">
<polygon fill="white" stroke="black" points="0,-55.5 0,-96.5 122,-96.5 122,-55.5 0,-55.5"/>
<text text-anchor="start" x="8" y="-84.5" font-family="Helvetica,sans-Serif" font-size="10.00">immer::detail::hamts</text>
<text text-anchor="start" x="8" y="-73.5" font-family="Helvetica,sans-Serif" font-size="10.00">::node&lt; T, Hash, Equal,</text>
<text text-anchor="middle" x="61" y="-62.5" font-family="Helvetica,sans-Serif" font-size="10.00"> MemoryPolicy, B &gt;</text>
</a>
</g>
</g>
<!-- Node4&#45;&gt;Node3 -->
<g id="edge3" class="edge"><title>Node4&#45;&gt;Node3</title>
<path fill="none" stroke="#9a32cd" stroke-dasharray="5,2" d="M132.427,-76C147.402,-76 163.271,-76 178.429,-76"/>
<polygon fill="#9a32cd" stroke="#9a32cd" points="132.223,-72.5001 122.223,-76 132.223,-79.5001 132.223,-72.5001"/>
<text text-anchor="middle" x="150" y="-79" font-family="Helvetica,sans-Serif" font-size="10.00"> root</text>
</g>
<!-- Node5 -->
<g id="node5" class="node"><title>Node5</title>
<g id="a_node5"><a xlink:href="classuint256.html" target="_top" xlink:title="256&#45;bit opaque blob. ">
<polygon fill="white" stroke="black" points="437,-0.5 437,-19.5 485,-19.5 485,-0.5 437,-0.5"/>
<text text-anchor="middle" x="461" y="-7.5" font-family="Helvetica,sans-Serif" font-size="10.00">uint256</text>
</a>
</g>
</g>
<!-- Node5&#45;&gt;Node1 -->
<g id="edge4" class="edge"><title>Node5&#45;&gt;Node1</title>
<path fill="none" stroke="#9a32cd" stroke-dasharray="5,2" d="M495.547,-14.7631C532.851,-20.1682 594.858,-29.4763 648,-39 657.29,-40.6649 667.208,-42.5798 676.666,-44.4724"/>
<polygon fill="#9a32cd" stroke="#9a32cd" points="495.651,-11.242 485.254,-13.28 494.653,-18.1705 495.651,-11.242"/>
<text text-anchor="middle" x="596" y="-42" font-family="Helvetica,sans-Serif" font-size="10.00"> blockHash</text>
</g>
<!-- Node6 -->
<g id="node6" class="node"><title>Node6</title>
<g id="a_node6"><a xlink:href="classbase__blob.html" target="_top" xlink:title="base_blob\&lt; 256 \&gt;">
<polygon fill="white" stroke="black" points="207.5,-0.5 207.5,-19.5 302.5,-19.5 302.5,-0.5 207.5,-0.5"/>
<text text-anchor="middle" x="255" y="-7.5" font-family="Helvetica,sans-Serif" font-size="10.00">base_blob&lt; 256 &gt;</text>
</a>
</g>
</g>
<!-- Node6&#45;&gt;Node5 -->
<g id="edge5" class="edge"><title>Node6&#45;&gt;Node5</title>
<path fill="none" stroke="midnightblue" d="M312.693,-10C353.733,-10 407.052,-10 436.989,-10"/>
<polygon fill="midnightblue" stroke="midnightblue" points="312.546,-6.5001 302.546,-10 312.546,-13.5001 312.546,-6.5001"/>
</g>
<!-- Node7&#45;&gt;Node1 -->
<g id="edge6" class="edge"><title>Node7&#45;&gt;Node1</title>
<path fill="none" stroke="#9a32cd" stroke-dasharray="5,2" d="M536.312,-54C577.727,-54 628.441,-54 666.398,-54"/>
<polygon fill="#9a32cd" stroke="#9a32cd" points="536.27,-50.5001 526.27,-54 536.27,-57.5001 536.27,-50.5001"/>
<text text-anchor="middle" x="596" y="-57" font-family="Helvetica,sans-Serif" font-size="10.00"> mnMap</text>
</g>
</g>
</svg>
        <g id="navigator" transform="translate(0 0)" fill="#404254">
                <rect fill="#f2f5e9" fill-opacity="0.5" stroke="#606060" stroke-width=".5" x="0" y="0" width="60" height="60"/>
                <use id="zoomplus" xlink:href="#zoomPlus" x="17" y="9" onmousedown="handleZoom(evt,'in')"/>
                <use id="zoomminus" xlink:href="#zoomMin" x="42" y="9" onmousedown="handleZoom(evt,'out')"/>
                <use id="reset" xlink:href="#resetDef" x="30" y="36" onmousedown="handleReset()"/>
                <g id="arrowUp" xlink:href="#dirArrow" transform="translate(30 24)" onmousedown="handlePan(0,-1)">
                  <use xlink:href="#rim" fill="#404040">
                        <set attributeName="fill" to="#808080" begin="arrowUp.mouseover" end="arrowUp.mouseout"/>
                  </use>
                  <path fill="none" stroke="white" stroke-width="1.5" d="M0,-3.0v7 M-2.5,-0.5L0,-3.0L2.5,-0.5"/>
                </g>
                <g id="arrowRight" xlink:href="#dirArrow" transform="rotate(90) translate(36 -43)" onmousedown="handlePan(1,0)">
                  <use xlink:href="#rim" fill="#404040">
                        <set attributeName="fill" to="#808080" begin="arrowRight.mouseover" end="arrowRight.mouseout"/>
                  </use>
                  <path fill="none" stroke="white" stroke-width="1.5" d="M0,-3.0v7 M-2.5,-0.5L0,-3.0L2.5,-0.5"/>
                </g>
                <g id="arrowDown" xlink:href="#dirArrow" transform="rotate(180) translate(-30 -48)" onmousedown="handlePan(0,1)">
                  <use xlink:href="#rim" fill="#404040">
                        <set attributeName="fill" to="#808080" begin="arrowDown.mouseover" end="arrowDown.mouseout"/>
                  </use>
                  <path fill="none" stroke="white" stroke-width="1.5" d="M0,-3.0v7 M-2.5,-0.5L0,-3.0L2.5,-0.5"/>
                </g>
                <g id="arrowLeft" xlink:href="#dirArrow" transform="rotate(270) translate(-36 17)" onmousedown="handlePan(-1,0)">
                  <use xlink:href="#rim" fill="#404040">
                        <set attributeName="fill" to="#808080" begin="arrowLeft.mouseover" end="arrowLeft.mouseout"/>
                  </use>
                  <path fill="none" stroke="white" stroke-width="1.5" d="M0,-3.0v7 M-2.5,-0.5L0,-3.0L2.5,-0.5"/>
                </g>
        </g>
        <svg viewBox="0 0 15 15" width="100%" height="30px" preserveAspectRatio="xMaxYMin meet">
         <g id="arrow_out" transform="scale(0.3 0.3)">
          <a xlink:href="class_c_deterministic_m_n_list__coll__graph_org.svg" target="_base">
           <rect id="button" ry="5" rx="5" y="6" x="6" height="38" width="38"
                fill="#f2f5e9" fill-opacity="0.5" stroke="#606060" stroke-width="1.0"/>
           <path id="arrow"
             d="M 11.500037,31.436501 C 11.940474,20.09759 22.043105,11.32322 32.158766,21.979434 L 37.068811,17.246167 C 37.068811,17.246167 37.088388,32 37.088388,32 L 22.160133,31.978069 C 22.160133,31.978069 26.997745,27.140456 26.997745,27.140456 C 18.528582,18.264221 13.291696,25.230495 11.500037,31.436501 z"
             style="fill:#404040;"/>
          </a>
         </g>
        </svg>
</svg>
