<?xml version="1.0" encoding="UTF-8" standalone="no"?>
<!DOCTYPE svg PUBLIC "-//W3C//DTD SVG 1.1//EN"
 "http://www.w3.org/Graphics/SVG/1.1/DTD/svg11.dtd">
<!-- Generated by graphviz version 2.36.0 (20140111.2315)
 -->
<!-- Title: CoinControlDialog Pages: 1 -->
<!--zoomable 508 -->
<svg id="main" version="1.1" xmlns="http://www.w3.org/2000/svg" xmlns:xlink="http://www.w3.org/1999/xlink" xml:space="preserve" onload="init(evt)">
<style type="text/css"><![CDATA[
.edge:hover path { stroke: red; }
.edge:hover polygon { stroke: red; fill: red; }
]]></style>
<script type="text/javascript"><![CDATA[
var edges = document.getElementsByTagName('g');
if (edges && edges.length) {
  for (var i=0;i<edges.length;i++) {
    if (edges[i].id.substr(0,4)=='edge') {
      edges[i].setAttribute('class','edge');
    }
  }
}
]]></script>
        <defs>
                <circle id="rim" cx="0" cy="0" r="7"/>
                <circle id="rim2" cx="0" cy="0" r="3.5"/>
                <g id="zoomPlus">
                        <use xlink:href="#rim" fill="#404040">
                                <set attributeName="fill" to="#808080" begin="zoomplus.mouseover" end="zoomplus.mouseout"/>
                        </use>
                        <path d="M-4,0h8M0,-4v8" fill="none" stroke="white" stroke-width="1.5" pointer-events="none"/>
                </g>
                <g id="zoomMin">
                        <use xlink:href="#rim" fill="#404040">
                                <set attributeName="fill" to="#808080" begin="zoomminus.mouseover" end="zoomminus.mouseout"/>
                        </use>
                        <path d="M-4,0h8" fill="none" stroke="white" stroke-width="1.5" pointer-events="none"/>
                </g>
                <g id="dirArrow">
                        <path fill="none" stroke="white" stroke-width="1.5" d="M0,-3.0v7 M-2.5,-0.5L0,-3.0L2.5,-0.5"/>
                </g>
               <g id="resetDef">
                       <use xlink:href="#rim2" fill="#404040">
                               <set attributeName="fill" to="#808080" begin="reset.mouseover" end="reset.mouseout"/>
                       </use>
               </g>
        </defs>

<script type="text/javascript">
var viewWidth = 2062;
var viewHeight = 508;
var sectionId = 'dynsection-1';
</script>
<script xlink:href="svgpan.js"/>
<svg id="graph" class="graph">
<g id="viewport">
<title>CoinControlDialog</title>
<polygon fill="white" stroke="none" points="-4,4 -4,-503.564 2058,-503.564 2058,4 -4,4"/>
<!-- Node2 -->
<g id="node1" class="node"><title>Node2</title>
<polygon fill="#bfbfbf" stroke="black" points="1774,-423.064 1774,-442.064 1870,-442.064 1870,-423.064 1774,-423.064"/>
<text text-anchor="middle" x="1822" y="-430.064" font-family="Helvetica,sans-Serif" font-size="10.00">CoinControlDialog</text>
</g>
<!-- Node3 -->
<g id="node2" class="node"><title>Node3</title>
<polygon fill="white" stroke="#bfbfbf" points="1511,-480.064 1511,-499.064 1563,-499.064 1563,-480.064 1511,-480.064"/>
<text text-anchor="middle" x="1537" y="-487.064" font-family="Helvetica,sans-Serif" font-size="10.00">QDialog</text>
</g>
<!-- Node3&#45;&gt;Node2 -->
<g id="edge1" class="edge"><title>Node3&#45;&gt;Node2</title>
<path fill="none" stroke="midnightblue" d="M1573.3,-487.802C1612.9,-485.237 1678.82,-479.196 1734,-465.564 1757.21,-459.83 1782.66,-449.696 1800.01,-442.166"/>
<polygon fill="midnightblue" stroke="midnightblue" points="1572.87,-484.322 1563.1,-488.423 1573.29,-491.309 1572.87,-484.322"/>
</g>
<!-- Node4 -->
<g id="node3" class="node"><title>Node4</title>
<g id="a_node3"><a xlink:href="class_platform_style.html" target="_top" xlink:title="PlatformStyle">
<polygon fill="white" stroke="black" points="1020,-384.064 1020,-403.064 1096,-403.064 1096,-384.064 1020,-384.064"/>
<text text-anchor="middle" x="1058" y="-391.064" font-family="Helvetica,sans-Serif" font-size="10.00">PlatformStyle</text>
</a>
</g>
</g>
<!-- Node4&#45;&gt;Node2 -->
<g id="edge2" class="edge"><title>Node4&#45;&gt;Node2</title>
<path fill="none" stroke="#9a32cd" stroke-dasharray="5,2" d="M1106.15,-395.977C1242.67,-402.964 1637.27,-423.16 1773.83,-430.149"/>
<polygon fill="#9a32cd" stroke="#9a32cd" points="1106.18,-392.474 1096.01,-395.458 1105.82,-399.465 1106.18,-392.474"/>
<text text-anchor="middle" x="1413" y="-417.564" font-family="Helvetica,sans-Serif" font-size="10.00"> platformStyle</text>
</g>
<!-- Node9 -->
<g id="node8" class="node"><title>Node9</title>
<g id="a_node8"><a xlink:href="class_transaction_table_model.html" target="_top" xlink:title="UI model for the transaction table of a wallet. ">
<polygon fill="white" stroke="black" points="1226,-221.064 1226,-240.064 1344,-240.064 1344,-221.064 1226,-221.064"/>
<text text-anchor="middle" x="1285" y="-228.064" font-family="Helvetica,sans-Serif" font-size="10.00">TransactionTableModel</text>
</a>
</g>
</g>
<!-- Node4&#45;&gt;Node9 -->
<g id="edge29" class="edge"><title>Node4&#45;&gt;Node9</title>
<path fill="none" stroke="#9a32cd" stroke-dasharray="5,2" d="M1077.47,-377.455C1107.5,-351.646 1169.26,-300.116 1226,-262.564 1238.47,-254.312 1253.23,-246.189 1264.74,-240.192"/>
<polygon fill="#9a32cd" stroke="#9a32cd" points="1075.15,-374.834 1069.87,-384.02 1079.73,-380.13 1075.15,-374.834"/>
<text text-anchor="middle" x="1170" y="-334.564" font-family="Helvetica,sans-Serif" font-size="10.00"> platformStyle</text>
</g>
<!-- Node5 -->
<g id="node4" class="node"><title>Node5</title>
<g id="a_node4"><a xlink:href="class_c_coin_control.html" target="_top" xlink:title="Coin Control Features. ">
<polygon fill="white" stroke="black" points="1132,-435.064 1132,-454.064 1208,-454.064 1208,-435.064 1132,-435.064"/>
<text text-anchor="middle" x="1170" y="-442.064" font-family="Helvetica,sans-Serif" font-size="10.00">CCoinControl</text>
</a>
</g>
</g>
<!-- Node5&#45;&gt;Node2 -->
<g id="edge3" class="edge"><title>Node5&#45;&gt;Node2</title>
<path fill="none" stroke="#9a32cd" stroke-dasharray="5,2" d="M1218.63,-443.684C1338.87,-441.465 1653.66,-435.653 1773.63,-433.438"/>
<polygon fill="#9a32cd" stroke="#9a32cd" points="1218.22,-440.191 1208.28,-443.875 1218.34,-447.19 1218.22,-440.191"/>
<text text-anchor="middle" x="1413" y="-443.564" font-family="Helvetica,sans-Serif" font-size="10.00"> coinControl</text>
</g>
<!-- Node6 -->
<g id="node5" class="node"><title>Node6</title>
<g id="a_node5"><a xlink:href="class_c_fee_rate.html" target="_top" xlink:title="Fee rate in satoshis per kilobyte: CAmount / kB. ">
<polygon fill="white" stroke="black" points="790,-421.064 790,-440.064 852,-440.064 852,-421.064 790,-421.064"/>
<text text-anchor="middle" x="821" y="-428.064" font-family="Helvetica,sans-Serif" font-size="10.00">CFeeRate</text>
</a>
</g>
</g>
<!-- Node6&#45;&gt;Node5 -->
<g id="edge4" class="edge"><title>Node6&#45;&gt;Node5</title>
<path fill="none" stroke="#9a32cd" stroke-dasharray="5,2" d="M862.484,-432.197C930.412,-434.938 1066.33,-440.421 1131.91,-443.067"/>
<polygon fill="#9a32cd" stroke="#9a32cd" points="862.32,-428.688 852.187,-431.782 862.038,-435.682 862.32,-428.688"/>
<text text-anchor="middle" x="938" y="-439.564" font-family="Helvetica,sans-Serif" font-size="10.00"> nFeeRate</text>
</g>
<!-- Node12 -->
<g id="node11" class="node"><title>Node12</title>
<g id="a_node11"><a xlink:href="class_c_wallet.html" target="_top" xlink:title="A CWallet is an extension of a keystore, which also maintains a set of transactions and balances...">
<polygon fill="white" stroke="black" points="1032,-280.064 1032,-299.064 1084,-299.064 1084,-280.064 1032,-280.064"/>
<text text-anchor="middle" x="1058" y="-287.064" font-family="Helvetica,sans-Serif" font-size="10.00">CWallet</text>
</a>
</g>
</g>
<!-- Node6&#45;&gt;Node12 -->
<g id="edge24" class="edge"><title>Node6&#45;&gt;Node12</title>
<path fill="none" stroke="#9a32cd" stroke-dasharray="5,2" d="M852.943,-417.051C865.084,-411.815 879.161,-405.825 892,-400.564 932.628,-383.914 947.417,-388.844 984,-364.564 1012.16,-345.874 1037.94,-314.751 1049.93,-299.128"/>
<polygon fill="#9a32cd" stroke="#9a32cd" points="851.468,-413.876 843.681,-421.06 854.249,-420.299 851.468,-413.876"/>
<text text-anchor="middle" x="938" y="-414.564" font-family="Helvetica,sans-Serif" font-size="10.00"> minTxFee</text>
<text text-anchor="middle" x="938" y="-403.564" font-family="Helvetica,sans-Serif" font-size="10.00">fallbackFee</text>
</g>
<!-- Node7 -->
<g id="node6" class="node"><title>Node7</title>
<g id="a_node6"><a xlink:href="class_wallet_model.html" target="_top" xlink:title="Interface to Bitcoin wallet from Qt view code. ">
<polygon fill="white" stroke="black" points="1501.5,-120.064 1501.5,-139.064 1572.5,-139.064 1572.5,-120.064 1501.5,-120.064"/>
<text text-anchor="middle" x="1537" y="-127.064" font-family="Helvetica,sans-Serif" font-size="10.00">WalletModel</text>
</a>
</g>
</g>
<!-- Node7&#45;&gt;Node2 -->
<g id="edge5" class="edge"><title>Node7&#45;&gt;Node2</title>
<path fill="none" stroke="#9a32cd" stroke-dasharray="5,2" d="M1553.97,-146.665C1606.34,-202.732 1771.77,-379.856 1812.08,-423.013"/>
<polygon fill="#9a32cd" stroke="#9a32cd" points="1556.48,-144.221 1547.1,-139.302 1551.36,-148.999 1556.48,-144.221"/>
<text text-anchor="middle" x="1672" y="-337.564" font-family="Helvetica,sans-Serif" font-size="10.00"> model</text>
</g>
<!-- Node7&#45;&gt;Node9 -->
<g id="edge30" class="edge"><title>Node7&#45;&gt;Node9</title>
<path fill="none" stroke="#9a32cd" stroke-dasharray="5,2" d="M1491.1,-136.511C1443.45,-144.091 1373.44,-155.9 1362,-161.564 1332.61,-176.107 1306.21,-205.39 1293.68,-220.711"/>
<polygon fill="#9a32cd" stroke="#9a32cd" points="1491.86,-139.934 1501.19,-134.915 1490.77,-133.019 1491.86,-139.934"/>
<text text-anchor="middle" x="1413" y="-164.564" font-family="Helvetica,sans-Serif" font-size="10.00"> walletModel</text>
</g>
<!-- Node26 -->
<g id="node25" class="node"><title>Node26</title>
<g id="a_node25"><a xlink:href="class_address_table_model.html" target="_top" xlink:title="Qt model of the address book in the core. ">
<polygon fill="white" stroke="black" points="1770.5,-154.064 1770.5,-173.064 1873.5,-173.064 1873.5,-154.064 1770.5,-154.064"/>
<text text-anchor="middle" x="1822" y="-161.064" font-family="Helvetica,sans-Serif" font-size="10.00">AddressTableModel</text>
</a>
</g>
</g>
<!-- Node7&#45;&gt;Node26 -->
<g id="edge37" class="edge"><title>Node7&#45;&gt;Node26</title>
<path fill="none" stroke="#9a32cd" stroke-dasharray="5,2" d="M1582.69,-137.449C1591.72,-138.918 1601.15,-140.366 1610,-141.564 1664.56,-148.948 1727.36,-155.211 1770.16,-159.143"/>
<polygon fill="#9a32cd" stroke="#9a32cd" points="1583.16,-133.98 1572.73,-135.793 1582.02,-140.885 1583.16,-133.98"/>
<text text-anchor="middle" x="1672" y="-158.564" font-family="Helvetica,sans-Serif" font-size="10.00"> walletModel</text>
</g>
<!-- Node28 -->
<g id="node27" class="node"><title>Node28</title>
<g id="a_node27"><a xlink:href="class_recent_requests_table_model.html" target="_top" xlink:title="Model for list of recently generated payment requests / dash: URIs. ">
<polygon fill="white" stroke="black" points="1752,-1.0637 1752,-20.0637 1892,-20.0637 1892,-1.0637 1752,-1.0637"/>
<text text-anchor="middle" x="1822" y="-8.0637" font-family="Helvetica,sans-Serif" font-size="10.00">RecentRequestsTableModel</text>
</a>
</g>
</g>
<!-- Node7&#45;&gt;Node28 -->
<g id="edge41" class="edge"><title>Node7&#45;&gt;Node28</title>
<path fill="none" stroke="#9a32cd" stroke-dasharray="5,2" d="M1546.4,-110.827C1557.5,-88.5119 1579.28,-52.0616 1610,-34.5637 1652.77,-10.2035 1708.31,-4.72355 1751.67,-5.05697"/>
<polygon fill="#9a32cd" stroke="#9a32cd" points="1543.19,-109.432 1542.07,-119.967 1549.52,-112.434 1543.19,-109.432"/>
<text text-anchor="middle" x="1672" y="-37.5637" font-family="Helvetica,sans-Serif" font-size="10.00"> walletModel</text>
</g>
<!-- Node8 -->
<g id="node7" class="node"><title>Node8</title>
<polygon fill="white" stroke="#bfbfbf" points="1258.5,-139.064 1258.5,-158.064 1311.5,-158.064 1311.5,-139.064 1258.5,-139.064"/>
<text text-anchor="middle" x="1285" y="-146.064" font-family="Helvetica,sans-Serif" font-size="10.00">QObject</text>
</g>
<!-- Node8&#45;&gt;Node7 -->
<g id="edge6" class="edge"><title>Node8&#45;&gt;Node7</title>
<path fill="none" stroke="midnightblue" d="M1322.02,-145.826C1369.89,-142.188 1453.92,-135.802 1501.18,-132.21"/>
<polygon fill="midnightblue" stroke="midnightblue" points="1321.52,-142.354 1311.81,-146.602 1322.05,-149.334 1321.52,-142.354"/>
</g>
<!-- Node9&#45;&gt;Node7 -->
<g id="edge7" class="edge"><title>Node9&#45;&gt;Node7</title>
<path fill="none" stroke="#9a32cd" stroke-dasharray="5,2" d="M1326.79,-218.016C1377.32,-202.43 1457.59,-177.518 1464,-174.564 1485.82,-164.51 1509.05,-149.016 1523.04,-139.085"/>
<polygon fill="#9a32cd" stroke="#9a32cd" points="1325.64,-214.709 1317.11,-220.999 1327.7,-221.398 1325.64,-214.709"/>
<text text-anchor="middle" x="1413" y="-209.564" font-family="Helvetica,sans-Serif" font-size="10.00"> transactionTableModel</text>
</g>
<!-- Node11 -->
<g id="node10" class="node"><title>Node11</title>
<g id="a_node10"><a xlink:href="class_transaction_table_priv.html" target="_top" xlink:title="TransactionTablePriv">
<polygon fill="white" stroke="black" points="1482.5,-255.064 1482.5,-274.064 1591.5,-274.064 1591.5,-255.064 1482.5,-255.064"/>
<text text-anchor="middle" x="1537" y="-262.064" font-family="Helvetica,sans-Serif" font-size="10.00">TransactionTablePriv</text>
</a>
</g>
</g>
<!-- Node9&#45;&gt;Node11 -->
<g id="edge10" class="edge"><title>Node9&#45;&gt;Node11</title>
<path fill="none" stroke="#9a32cd" stroke-dasharray="5,2" d="M1354.2,-222.887C1387.69,-220.955 1428.38,-221.366 1464,-229.564 1485.13,-234.427 1507.24,-246.36 1521.3,-254.941"/>
<polygon fill="#9a32cd" stroke="#9a32cd" points="1353.81,-219.406 1344.06,-223.556 1354.27,-226.391 1353.81,-219.406"/>
<text text-anchor="middle" x="1413" y="-232.564" font-family="Helvetica,sans-Serif" font-size="10.00"> parent</text>
</g>
<!-- Node10 -->
<g id="node9" class="node"><title>Node10</title>
<polygon fill="white" stroke="#bfbfbf" points="1002.5,-12.0637 1002.5,-31.0637 1113.5,-31.0637 1113.5,-12.0637 1002.5,-12.0637"/>
<text text-anchor="middle" x="1058" y="-19.0637" font-family="Helvetica,sans-Serif" font-size="10.00">QAbstractTableModel</text>
</g>
<!-- Node10&#45;&gt;Node9 -->
<g id="edge8" class="edge"><title>Node10&#45;&gt;Node9</title>
<path fill="none" stroke="midnightblue" d="M1104.61,-35.1863C1107.89,-36.8039 1111.06,-38.592 1114,-40.5637 1176.52,-82.4562 1175.62,-111.655 1226,-167.564 1243.12,-186.56 1263.42,-208.469 1274.89,-220.802"/>
<polygon fill="midnightblue" stroke="midnightblue" points="1105.75,-31.8645 1095.19,-31.0673 1102.95,-38.2788 1105.75,-31.8645"/>
</g>
<!-- Node10&#45;&gt;Node26 -->
<g id="edge33" class="edge"><title>Node10&#45;&gt;Node26</title>
<path fill="none" stroke="midnightblue" d="M1123.76,-21.2575C1282.29,-20.9442 1680.81,-22.9508 1734,-50.5637 1778.61,-73.7197 1807.18,-131.206 1817.09,-154.017"/>
<polygon fill="midnightblue" stroke="midnightblue" points="1123.66,-17.7577 1113.67,-21.2813 1123.68,-24.7576 1123.66,-17.7577"/>
</g>
<!-- Node10&#45;&gt;Node28 -->
<g id="edge40" class="edge"><title>Node10&#45;&gt;Node28</title>
<path fill="none" stroke="midnightblue" d="M1123.72,-12.2987C1126.51,-12.0248 1129.28,-11.7774 1132,-11.5637 1343.84,5.10568 1397.52,-3.78605 1610,-1.5637 1665.11,-0.987321 1678.96,1.27551 1734,-1.5637 1739.76,-1.86097 1745.73,-2.26829 1751.72,-2.74644"/>
<polygon fill="midnightblue" stroke="midnightblue" points="1123.11,-8.84456 1113.54,-13.3942 1123.85,-15.8044 1123.11,-8.84456"/>
</g>
<!-- Node11&#45;&gt;Node9 -->
<g id="edge9" class="edge"><title>Node11&#45;&gt;Node9</title>
<path fill="none" stroke="#9a32cd" stroke-dasharray="5,2" d="M1472.29,-256.986C1439.33,-252.945 1398.47,-247.747 1362,-242.564 1356.18,-241.737 1350.12,-240.839 1344.06,-239.921"/>
<polygon fill="#9a32cd" stroke="#9a32cd" points="1471.9,-260.464 1482.25,-258.202 1472.75,-253.516 1471.9,-260.464"/>
<text text-anchor="middle" x="1413" y="-259.564" font-family="Helvetica,sans-Serif" font-size="10.00"> priv</text>
</g>
<!-- Node12&#45;&gt;Node7 -->
<g id="edge44" class="edge"><title>Node12&#45;&gt;Node7</title>
<path fill="none" stroke="#9a32cd" stroke-dasharray="5,2" d="M1069.71,-271.243C1092.71,-233.978 1150.87,-150.204 1226,-118.564 1320.55,-78.7439 1446.04,-104.278 1504.07,-119.952"/>
<polygon fill="#9a32cd" stroke="#9a32cd" points="1066.57,-269.678 1064.4,-280.049 1072.56,-273.293 1066.57,-269.678"/>
<text text-anchor="middle" x="1285" y="-121.564" font-family="Helvetica,sans-Serif" font-size="10.00"> wallet</text>
</g>
<!-- Node12&#45;&gt;Node9 -->
<g id="edge31" class="edge"><title>Node12&#45;&gt;Node9</title>
<path fill="none" stroke="#9a32cd" stroke-dasharray="5,2" d="M1088.5,-275.854C1101.6,-270.181 1117.35,-263.923 1132,-259.564 1162.51,-250.484 1197.35,-243.597 1225.96,-238.817"/>
<polygon fill="#9a32cd" stroke="#9a32cd" points="1086.78,-272.787 1079.06,-280.037 1089.62,-279.187 1086.78,-272.787"/>
<text text-anchor="middle" x="1170" y="-262.564" font-family="Helvetica,sans-Serif" font-size="10.00"> wallet</text>
</g>
<!-- Node12&#45;&gt;Node11 -->
<g id="edge11" class="edge"><title>Node12&#45;&gt;Node11</title>
<path fill="none" stroke="#9a32cd" stroke-dasharray="5,2" d="M1094.23,-288.62C1164.58,-286.599 1327.44,-281.23 1464,-271.564 1469.89,-271.147 1476.04,-270.647 1482.16,-270.109"/>
<polygon fill="#9a32cd" stroke="#9a32cd" points="1094.04,-285.124 1084.15,-288.905 1094.24,-292.121 1094.04,-285.124"/>
<text text-anchor="middle" x="1285" y="-287.564" font-family="Helvetica,sans-Serif" font-size="10.00"> wallet</text>
</g>
<!-- Node12&#45;&gt;Node26 -->
<g id="edge38" class="edge"><title>Node12&#45;&gt;Node26</title>
<path fill="none" stroke="#9a32cd" stroke-dasharray="5,2" d="M1094.27,-295.966C1106.21,-297.843 1119.64,-299.638 1132,-300.564 1165.68,-303.087 1174.22,-300.688 1208,-300.564 1378.83,-299.936 1427.52,-329.715 1592,-283.564 1680.16,-258.827 1773.23,-197.313 1807.41,-173.344"/>
<polygon fill="#9a32cd" stroke="#9a32cd" points="1094.67,-292.485 1084.23,-294.317 1093.53,-299.392 1094.67,-292.485"/>
<text text-anchor="middle" x="1413" y="-312.564" font-family="Helvetica,sans-Serif" font-size="10.00"> wallet</text>
</g>
<!-- Node27 -->
<g id="node26" class="node"><title>Node27</title>
<g id="a_node26"><a xlink:href="class_address_table_priv.html" target="_top" xlink:title="AddressTablePriv">
<polygon fill="white" stroke="black" points="1960,-188.064 1960,-207.064 2054,-207.064 2054,-188.064 1960,-188.064"/>
<text text-anchor="middle" x="2007" y="-195.064" font-family="Helvetica,sans-Serif" font-size="10.00">AddressTablePriv</text>
</a>
</g>
</g>
<!-- Node12&#45;&gt;Node27 -->
<g id="edge36" class="edge"><title>Node12&#45;&gt;Node27</title>
<path fill="none" stroke="#9a32cd" stroke-dasharray="5,2" d="M1091.83,-302.671C1104.26,-307.257 1118.64,-312.116 1132,-315.564 1254.11,-347.069 1285.89,-361.564 1412,-361.564 1412,-361.564 1412,-361.564 1823,-361.564 1916,-361.564 1983.31,-242.638 2001.25,-207.332"/>
<polygon fill="#9a32cd" stroke="#9a32cd" points="1092.93,-299.344 1082.34,-299.084 1090.45,-305.892 1092.93,-299.344"/>
<text text-anchor="middle" x="1537" y="-364.564" font-family="Helvetica,sans-Serif" font-size="10.00"> wallet</text>
</g>
<!-- Node13 -->
<g id="node12" class="node"><title>Node13</title>
<g id="a_node12"><a xlink:href="class_c_crypto_key_store.html" target="_top" xlink:title="Keystore which keeps the private keys encrypted. ">
<polygon fill="white" stroke="black" points="774,-319.064 774,-338.064 868,-338.064 868,-319.064 774,-319.064"/>
<text text-anchor="middle" x="821" y="-326.064" font-family="Helvetica,sans-Serif" font-size="10.00">CCryptoKeyStore</text>
</a>
</g>
</g>
<!-- Node13&#45;&gt;Node12 -->
<g id="edge12" class="edge"><title>Node13&#45;&gt;Node12</title>
<path fill="none" stroke="midnightblue" d="M878.399,-320.375C909.577,-315.719 948.981,-309.622 984,-303.564 999.895,-300.814 1017.67,-297.412 1031.7,-294.65"/>
<polygon fill="midnightblue" stroke="midnightblue" points="877.537,-316.964 868.16,-321.896 878.566,-323.888 877.537,-316.964"/>
</g>
<!-- Node14 -->
<g id="node13" class="node"><title>Node14</title>
<g id="a_node13"><a xlink:href="class_c_basic_key_store.html" target="_top" xlink:title="Basic key store, that keeps keys in an address&#45;&gt;secret map. ">
<polygon fill="white" stroke="black" points="640.5,-319.064 640.5,-338.064 729.5,-338.064 729.5,-319.064 640.5,-319.064"/>
<text text-anchor="middle" x="685" y="-326.064" font-family="Helvetica,sans-Serif" font-size="10.00">CBasicKeyStore</text>
</a>
</g>
</g>
<!-- Node14&#45;&gt;Node13 -->
<g id="edge13" class="edge"><title>Node14&#45;&gt;Node13</title>
<path fill="none" stroke="midnightblue" d="M739.727,-328.564C751.061,-328.564 762.923,-328.564 773.945,-328.564"/>
<polygon fill="midnightblue" stroke="midnightblue" points="739.506,-325.064 729.506,-328.564 739.506,-332.064 739.506,-325.064"/>
</g>
<!-- Node15 -->
<g id="node14" class="node"><title>Node15</title>
<g id="a_node14"><a xlink:href="class_c_key_store.html" target="_top" xlink:title="A virtual base class for key stores. ">
<polygon fill="white" stroke="black" points="498.5,-318.064 498.5,-337.064 563.5,-337.064 563.5,-318.064 498.5,-318.064"/>
<text text-anchor="middle" x="531" y="-325.064" font-family="Helvetica,sans-Serif" font-size="10.00">CKeyStore</text>
</a>
</g>
</g>
<!-- Node15&#45;&gt;Node14 -->
<g id="edge14" class="edge"><title>Node15&#45;&gt;Node14</title>
<path fill="none" stroke="midnightblue" d="M573.931,-327.84C594.587,-327.975 619.477,-328.139 640.359,-328.277"/>
<polygon fill="midnightblue" stroke="midnightblue" points="573.887,-324.339 563.864,-327.773 573.841,-331.339 573.887,-324.339"/>
</g>
<!-- Node16 -->
<g id="node15" class="node"><title>Node16</title>
<g id="a_node15"><a xlink:href="class_c_critical_section.html" target="_top" xlink:title="Wrapped boost mutex: supports recursive locking, but no waiting TODO: We should move away from using ...">
<polygon fill="white" stroke="black" points="314,-315.064 314,-334.064 402,-334.064 402,-315.064 314,-315.064"/>
<text text-anchor="middle" x="358" y="-322.064" font-family="Helvetica,sans-Serif" font-size="10.00">CCriticalSection</text>
</a>
</g>
</g>
<!-- Node16&#45;&gt;Node12 -->
<g id="edge26" class="edge"><title>Node16&#45;&gt;Node12</title>
<path fill="none" stroke="#9a32cd" stroke-dasharray="5,2" d="M397.317,-312.107C431.676,-302.05 483.665,-289.564 530,-289.564 530,-289.564 530,-289.564 822,-289.564 898.497,-289.564 989.002,-289.564 1031.96,-289.564"/>
<polygon fill="#9a32cd" stroke="#9a32cd" points="396.251,-308.772 387.68,-315 398.264,-315.477 396.251,-308.772"/>
<text text-anchor="middle" x="685" y="-292.564" font-family="Helvetica,sans-Serif" font-size="10.00"> cs_wallet</text>
</g>
<!-- Node16&#45;&gt;Node15 -->
<g id="edge15" class="edge"><title>Node16&#45;&gt;Node15</title>
<path fill="none" stroke="#9a32cd" stroke-dasharray="5,2" d="M412.193,-324.639C433.305,-324.764 457.801,-325.028 480,-325.564 485.906,-325.706 492.202,-325.914 498.264,-326.143"/>
<polygon fill="#9a32cd" stroke="#9a32cd" points="412.144,-321.139 402.126,-324.588 412.108,-328.139 412.144,-321.139"/>
<text text-anchor="middle" x="450" y="-328.564" font-family="Helvetica,sans-Serif" font-size="10.00"> cs_KeyStore</text>
</g>
<!-- Node19 -->
<g id="node18" class="node"><title>Node19</title>
<g id="a_node18"><a xlink:href="class_c_h_d_chain.html" target="_top" xlink:title="CHDChain">
<polygon fill="white" stroke="black" points="498.5,-360.064 498.5,-379.064 563.5,-379.064 563.5,-360.064 498.5,-360.064"/>
<text text-anchor="middle" x="531" y="-367.064" font-family="Helvetica,sans-Serif" font-size="10.00">CHDChain</text>
</a>
</g>
</g>
<!-- Node16&#45;&gt;Node19 -->
<g id="edge21" class="edge"><title>Node16&#45;&gt;Node19</title>
<path fill="none" stroke="#9a32cd" stroke-dasharray="5,2" d="M404.951,-336.656C434.51,-344.435 472.159,-354.342 498.387,-361.244"/>
<polygon fill="#9a32cd" stroke="#9a32cd" points="405.826,-333.267 395.265,-334.107 404.045,-340.037 405.826,-333.267"/>
<text text-anchor="middle" x="450" y="-359.564" font-family="Helvetica,sans-Serif" font-size="10.00"> cs_accounts</text>
</g>
<!-- Node17 -->
<g id="node16" class="node"><title>Node17</title>
<polygon fill="white" stroke="#bfbfbf" points="158.5,-309.564 158.5,-339.564 275.5,-339.564 275.5,-309.564 158.5,-309.564"/>
<text text-anchor="start" x="166.5" y="-327.564" font-family="Helvetica,sans-Serif" font-size="10.00">AnnotatedMixin&lt; boost</text>
<text text-anchor="middle" x="217" y="-316.564" font-family="Helvetica,sans-Serif" font-size="10.00">::recursive_mutex &gt;</text>
</g>
<!-- Node17&#45;&gt;Node16 -->
<g id="edge16" class="edge"><title>Node17&#45;&gt;Node16</title>
<path fill="none" stroke="midnightblue" d="M285.927,-324.564C295.358,-324.564 304.827,-324.564 313.64,-324.564"/>
<polygon fill="midnightblue" stroke="midnightblue" points="285.741,-321.064 275.741,-324.564 285.741,-328.064 285.741,-321.064"/>
</g>
<!-- Node18 -->
<g id="node17" class="node"><title>Node18</title>
<polygon fill="white" stroke="#bfbfbf" points="0.5,-315.064 0.5,-334.064 119.5,-334.064 119.5,-315.064 0.5,-315.064"/>
<text text-anchor="middle" x="60" y="-322.064" font-family="Helvetica,sans-Serif" font-size="10.00">boost::recursive_mutex</text>
</g>
<!-- Node18&#45;&gt;Node17 -->
<g id="edge17" class="edge"><title>Node18&#45;&gt;Node17</title>
<path fill="none" stroke="midnightblue" d="M129.834,-324.564C139.356,-324.564 149.055,-324.564 158.346,-324.564"/>
<polygon fill="midnightblue" stroke="midnightblue" points="129.599,-321.064 119.599,-324.564 129.599,-328.064 129.599,-321.064"/>
</g>
<!-- Node19&#45;&gt;Node13 -->
<g id="edge22" class="edge"><title>Node19&#45;&gt;Node13</title>
<path fill="none" stroke="#9a32cd" stroke-dasharray="5,2" d="M573.803,-365.56C588.987,-364.059 606.274,-362.296 622,-360.564 670.056,-355.269 682.302,-355.453 730,-347.564 745.913,-344.932 763.278,-341.419 778.474,-338.13"/>
<polygon fill="#9a32cd" stroke="#9a32cd" points="573.282,-362.094 563.671,-366.554 573.965,-369.061 573.282,-362.094"/>
<text text-anchor="middle" x="685" y="-362.564" font-family="Helvetica,sans-Serif" font-size="10.00"> cryptedHDChain</text>
</g>
<!-- Node19&#45;&gt;Node14 -->
<g id="edge18" class="edge"><title>Node19&#45;&gt;Node14</title>
<path fill="none" stroke="#9a32cd" stroke-dasharray="5,2" d="M563.02,-356.168C569.236,-353.765 575.771,-351.434 582,-349.564 600.874,-343.895 622.167,-339.246 640.398,-335.777"/>
<polygon fill="#9a32cd" stroke="#9a32cd" points="561.582,-352.974 553.606,-359.947 564.19,-359.47 561.582,-352.974"/>
<text text-anchor="middle" x="602" y="-352.564" font-family="Helvetica,sans-Serif" font-size="10.00"> hdChain</text>
</g>
<!-- Node20 -->
<g id="node19" class="node"><title>Node20</title>
<g id="a_node19"><a xlink:href="classuint256.html" target="_top" xlink:title="256&#45;bit opaque blob. ">
<polygon fill="white" stroke="black" points="334,-383.064 334,-402.064 382,-402.064 382,-383.064 334,-383.064"/>
<text text-anchor="middle" x="358" y="-390.064" font-family="Helvetica,sans-Serif" font-size="10.00">uint256</text>
</a>
</g>
</g>
<!-- Node20&#45;&gt;Node19 -->
<g id="edge19" class="edge"><title>Node20&#45;&gt;Node19</title>
<path fill="none" stroke="#9a32cd" stroke-dasharray="5,2" d="M392.255,-388.091C422.926,-383.965 468.143,-377.884 498.307,-373.826"/>
<polygon fill="#9a32cd" stroke="#9a32cd" points="391.506,-384.66 382.062,-389.462 392.439,-391.597 391.506,-384.66"/>
<text text-anchor="middle" x="450" y="-387.564" font-family="Helvetica,sans-Serif" font-size="10.00"> id</text>
</g>
<!-- Node21 -->
<g id="node20" class="node"><title>Node21</title>
<g id="a_node20"><a xlink:href="classbase__blob.html" target="_top" xlink:title="base_blob\&lt; 256 \&gt;">
<polygon fill="white" stroke="black" points="169.5,-383.064 169.5,-402.064 264.5,-402.064 264.5,-383.064 169.5,-383.064"/>
<text text-anchor="middle" x="217" y="-390.064" font-family="Helvetica,sans-Serif" font-size="10.00">base_blob&lt; 256 &gt;</text>
</a>
</g>
</g>
<!-- Node21&#45;&gt;Node20 -->
<g id="edge20" class="edge"><title>Node21&#45;&gt;Node20</title>
<path fill="none" stroke="midnightblue" d="M274.928,-392.564C295.493,-392.564 317.576,-392.564 333.65,-392.564"/>
<polygon fill="midnightblue" stroke="midnightblue" points="274.672,-389.064 264.672,-392.564 274.672,-396.064 274.672,-389.064"/>
</g>
<!-- Node22 -->
<g id="node21" class="node"><title>Node22</title>
<g id="a_node21"><a xlink:href="class_c_validation_interface.html" target="_top" xlink:title="CValidationInterface">
<polygon fill="white" stroke="black" points="768.5,-242.064 768.5,-261.064 873.5,-261.064 873.5,-242.064 768.5,-242.064"/>
<text text-anchor="middle" x="821" y="-249.064" font-family="Helvetica,sans-Serif" font-size="10.00">CValidationInterface</text>
</a>
</g>
</g>
<!-- Node22&#45;&gt;Node12 -->
<g id="edge23" class="edge"><title>Node22&#45;&gt;Node12</title>
<path fill="none" stroke="midnightblue" d="M883.527,-260.053C913.83,-264.393 950.884,-269.938 984,-275.564 999.903,-278.265 1017.68,-281.667 1031.71,-284.44"/>
<polygon fill="midnightblue" stroke="midnightblue" points="883.918,-256.573 873.525,-258.628 882.932,-263.503 883.918,-256.573"/>
</g>
<!-- Node23 -->
<g id="node22" class="node"><title>Node23</title>
<g id="a_node22"><a xlink:href="class_c_pub_key.html" target="_top" xlink:title="An encapsulated public key. ">
<polygon fill="white" stroke="black" points="791.5,-204.064 791.5,-223.064 850.5,-223.064 850.5,-204.064 791.5,-204.064"/>
<text text-anchor="middle" x="821" y="-211.064" font-family="Helvetica,sans-Serif" font-size="10.00">CPubKey</text>
</a>
</g>
</g>
<!-- Node23&#45;&gt;Node12 -->
<g id="edge25" class="edge"><title>Node23&#45;&gt;Node12</title>
<path fill="none" stroke="#9a32cd" stroke-dasharray="5,2" d="M860.847,-218.211C894.287,-223.028 943.418,-232.081 984,-247.564 1005.99,-255.955 1029.2,-270.404 1043.39,-279.972"/>
<polygon fill="#9a32cd" stroke="#9a32cd" points="860.956,-214.693 850.572,-216.792 859.999,-221.627 860.956,-214.693"/>
<text text-anchor="middle" x="938" y="-250.564" font-family="Helvetica,sans-Serif" font-size="10.00"> vchDefaultKey</text>
</g>
<!-- Node24 -->
<g id="node23" class="node"><title>Node24</title>
<g id="a_node23"><a xlink:href="class_c_wallet_d_b.html" target="_top" xlink:title="Access to the wallet database. ">
<polygon fill="white" stroke="black" points="788,-376.064 788,-395.064 854,-395.064 854,-376.064 788,-376.064"/>
<text text-anchor="middle" x="821" y="-383.064" font-family="Helvetica,sans-Serif" font-size="10.00">CWalletDB</text>
</a>
</g>
</g>
<!-- Node24&#45;&gt;Node12 -->
<g id="edge27" class="edge"><title>Node24&#45;&gt;Node12</title>
<path fill="none" stroke="#9a32cd" stroke-dasharray="5,2" d="M850.122,-371.669C862.76,-365.697 877.96,-358.882 892,-353.564 931.969,-338.423 944.258,-341.29 984,-325.564 1003.58,-317.817 1025.1,-306.892 1039.66,-299.114"/>
<polygon fill="#9a32cd" stroke="#9a32cd" points="848.524,-368.554 841.02,-376.033 851.55,-374.866 848.524,-368.554"/>
<text text-anchor="middle" x="938" y="-356.564" font-family="Helvetica,sans-Serif" font-size="10.00"> pwalletdbEncryption</text>
</g>
<!-- Node25 -->
<g id="node24" class="node"><title>Node25</title>
<g id="a_node24"><a xlink:href="class_c_d_b.html" target="_top" xlink:title="RAII class that provides access to a Berkeley database. ">
<polygon fill="white" stroke="black" points="666,-404.064 666,-423.064 704,-423.064 704,-404.064 666,-404.064"/>
<text text-anchor="middle" x="685" y="-411.064" font-family="Helvetica,sans-Serif" font-size="10.00">CDB</text>
</a>
</g>
</g>
<!-- Node25&#45;&gt;Node24 -->
<g id="edge28" class="edge"><title>Node25&#45;&gt;Node24</title>
<path fill="none" stroke="midnightblue" d="M713.916,-407.73C735.466,-403.228 765.31,-396.991 787.856,-392.28"/>
<polygon fill="midnightblue" stroke="midnightblue" points="713.145,-404.316 704.072,-409.787 714.576,-411.168 713.145,-404.316"/>
</g>
<!-- Node26&#45;&gt;Node7 -->
<g id="edge32" class="edge"><title>Node26&#45;&gt;Node7</title>
<path fill="none" stroke="#9a32cd" stroke-dasharray="5,2" d="M1792.71,-149.881C1776.04,-142.58 1754.31,-134.34 1734,-130.564 1678.3,-120.207 1612.14,-122.899 1572.69,-126.047"/>
<polygon fill="#9a32cd" stroke="#9a32cd" points="1791.33,-153.099 1801.88,-154.03 1794.21,-146.721 1791.33,-153.099"/>
<text text-anchor="middle" x="1672" y="-133.564" font-family="Helvetica,sans-Serif" font-size="10.00"> addressTableModel</text>
</g>
<!-- Node26&#45;&gt;Node27 -->
<g id="edge35" class="edge"><title>Node26&#45;&gt;Node27</title>
<path fill="none" stroke="#9a32cd" stroke-dasharray="5,2" d="M1884.01,-174.899C1908.8,-179.505 1936.97,-184.738 1959.99,-189.015"/>
<polygon fill="#9a32cd" stroke="#9a32cd" points="1884.45,-171.42 1873.98,-173.035 1883.17,-178.302 1884.45,-171.42"/>
<text text-anchor="middle" x="1926" y="-189.564" font-family="Helvetica,sans-Serif" font-size="10.00"> parent</text>
</g>
<!-- Node27&#45;&gt;Node26 -->
<g id="edge34" class="edge"><title>Node27&#45;&gt;Node26</title>
<path fill="none" stroke="#9a32cd" stroke-dasharray="5,2" d="M1983.32,-182.555C1971.52,-175.63 1956.56,-168.16 1942,-164.564 1920.04,-159.137 1895.09,-158.17 1873.73,-158.84"/>
<polygon fill="#9a32cd" stroke="#9a32cd" points="1981.68,-185.654 1992.03,-187.907 1985.34,-179.69 1981.68,-185.654"/>
<text text-anchor="middle" x="1926" y="-167.564" font-family="Helvetica,sans-Serif" font-size="10.00"> priv</text>
</g>
<!-- Node28&#45;&gt;Node7 -->
<g id="edge39" class="edge"><title>Node28&#45;&gt;Node7</title>
<path fill="none" stroke="#9a32cd" stroke-dasharray="5,2" d="M1788.82,-24.094C1730.97,-48.4195 1610.77,-98.9634 1560.68,-120.027"/>
<polygon fill="#9a32cd" stroke="#9a32cd" points="1790.35,-27.2489 1798.21,-20.1462 1787.64,-20.7961 1790.35,-27.2489"/>
<text text-anchor="middle" x="1672" y="-101.564" font-family="Helvetica,sans-Serif" font-size="10.00"> recentRequestsTableModel</text>
</g>
<!-- Node29 -->
<g id="node28" class="node"><title>Node29</title>
<g id="a_node28"><a xlink:href="class_options_model.html" target="_top" xlink:title="Interface from Qt to configuration data structure for Bitcoin client. ">
<polygon fill="white" stroke="black" points="1246.5,-54.0637 1246.5,-73.0637 1323.5,-73.0637 1323.5,-54.0637 1246.5,-54.0637"/>
<text text-anchor="middle" x="1285" y="-61.0637" font-family="Helvetica,sans-Serif" font-size="10.00">OptionsModel</text>
</a>
</g>
</g>
<!-- Node29&#45;&gt;Node7 -->
<g id="edge42" class="edge"><title>Node29&#45;&gt;Node7</title>
<path fill="none" stroke="#9a32cd" stroke-dasharray="5,2" d="M1334.09,-61.3157C1370.75,-61.1463 1421.93,-64.2864 1464,-79.5637 1488.6,-88.4979 1512.65,-107.998 1525.78,-119.832"/>
<polygon fill="#9a32cd" stroke="#9a32cd" points="1333.63,-57.8213 1323.68,-61.4541 1333.72,-64.8207 1333.63,-57.8213"/>
<text text-anchor="middle" x="1413" y="-82.5637" font-family="Helvetica,sans-Serif" font-size="10.00"> optionsModel</text>
</g>
<!-- Node30 -->
<g id="node29" class="node"><title>Node30</title>
<polygon fill="white" stroke="#bfbfbf" points="1006.5,-50.0637 1006.5,-69.0637 1109.5,-69.0637 1109.5,-50.0637 1006.5,-50.0637"/>
<text text-anchor="middle" x="1058" y="-57.0637" font-family="Helvetica,sans-Serif" font-size="10.00">QAbstractListModel</text>
</g>
<!-- Node30&#45;&gt;Node29 -->
<g id="edge43" class="edge"><title>Node30&#45;&gt;Node29</title>
<path fill="none" stroke="midnightblue" d="M1119.78,-60.6442C1160.14,-61.3618 1211.86,-62.2813 1246.37,-62.8948"/>
<polygon fill="midnightblue" stroke="midnightblue" points="1119.84,-57.1448 1109.77,-60.4664 1119.71,-64.1437 1119.84,-57.1448"/>
</g>
</g>
</svg>
        <g id="navigator" transform="translate(0 0)" fill="#404254">
                <rect fill="#f2f5e9" fill-opacity="0.5" stroke="#606060" stroke-width=".5" x="0" y="0" width="60" height="60"/>
                <use id="zoomplus" xlink:href="#zoomPlus" x="17" y="9" onmousedown="handleZoom(evt,'in')"/>
                <use id="zoomminus" xlink:href="#zoomMin" x="42" y="9" onmousedown="handleZoom(evt,'out')"/>
                <use id="reset" xlink:href="#resetDef" x="30" y="36" onmousedown="handleReset()"/>
                <g id="arrowUp" xlink:href="#dirArrow" transform="translate(30 24)" onmousedown="handlePan(0,-1)">
                  <use xlink:href="#rim" fill="#404040">
                        <set attributeName="fill" to="#808080" begin="arrowUp.mouseover" end="arrowUp.mouseout"/>
                  </use>
                  <path fill="none" stroke="white" stroke-width="1.5" d="M0,-3.0v7 M-2.5,-0.5L0,-3.0L2.5,-0.5"/>
                </g>
                <g id="arrowRight" xlink:href="#dirArrow" transform="rotate(90) translate(36 -43)" onmousedown="handlePan(1,0)">
                  <use xlink:href="#rim" fill="#404040">
                        <set attributeName="fill" to="#808080" begin="arrowRight.mouseover" end="arrowRight.mouseout"/>
                  </use>
                  <path fill="none" stroke="white" stroke-width="1.5" d="M0,-3.0v7 M-2.5,-0.5L0,-3.0L2.5,-0.5"/>
                </g>
                <g id="arrowDown" xlink:href="#dirArrow" transform="rotate(180) translate(-30 -48)" onmousedown="handlePan(0,1)">
                  <use xlink:href="#rim" fill="#404040">
                        <set attributeName="fill" to="#808080" begin="arrowDown.mouseover" end="arrowDown.mouseout"/>
                  </use>
                  <path fill="none" stroke="white" stroke-width="1.5" d="M0,-3.0v7 M-2.5,-0.5L0,-3.0L2.5,-0.5"/>
                </g>
                <g id="arrowLeft" xlink:href="#dirArrow" transform="rotate(270) translate(-36 17)" onmousedown="handlePan(-1,0)">
                  <use xlink:href="#rim" fill="#404040">
                        <set attributeName="fill" to="#808080" begin="arrowLeft.mouseover" end="arrowLeft.mouseout"/>
                  </use>
                  <path fill="none" stroke="white" stroke-width="1.5" d="M0,-3.0v7 M-2.5,-0.5L0,-3.0L2.5,-0.5"/>
                </g>
        </g>
        <svg viewBox="0 0 15 15" width="100%" height="30px" preserveAspectRatio="xMaxYMin meet">
         <g id="arrow_out" transform="scale(0.3 0.3)">
          <a xlink:href="class_coin_control_dialog__coll__graph_org.svg" target="_base">
           <rect id="button" ry="5" rx="5" y="6" x="6" height="38" width="38"
                fill="#f2f5e9" fill-opacity="0.5" stroke="#606060" stroke-width="1.0"/>
           <path id="arrow"
             d="M 11.500037,31.436501 C 11.940474,20.09759 22.043105,11.32322 32.158766,21.979434 L 37.068811,17.246167 C 37.068811,17.246167 37.088388,32 37.088388,32 L 22.160133,31.978069 C 22.160133,31.978069 26.997745,27.140456 26.997745,27.140456 C 18.528582,18.264221 13.291696,25.230495 11.500037,31.436501 z"
             style="fill:#404040;"/>
          </a>
         </g>
        </svg>
</svg>
