<?xml version="1.0" encoding="UTF-8" standalone="no"?>
<!DOCTYPE svg PUBLIC "-//W3C//DTD SVG 1.1//EN"
 "http://www.w3.org/Graphics/SVG/1.1/DTD/svg11.dtd">
<!-- Generated by graphviz version 2.36.0 (20140111.2315)
 -->
<!-- Title: CMasternodePing Pages: 1 -->
<svg width="201pt" height="222pt"
 viewBox="0.00 0.00 201.00 222.00" xmlns="http://www.w3.org/2000/svg" xmlns:xlink="http://www.w3.org/1999/xlink">
<g id="graph0" class="graph" transform="scale(1 1) rotate(0) translate(4 218)">
<title>CMasternodePing</title>
<polygon fill="white" stroke="none" points="-4,4 -4,-218 197,-218 197,4 -4,4"/>
<!-- Node1 -->
<g id="node1" class="node"><title>Node1</title>
<polygon fill="#bfbfbf" stroke="black" points="16.5,-0.5 16.5,-19.5 111.5,-19.5 111.5,-0.5 16.5,-0.5"/>
<text text-anchor="middle" x="64" y="-7.5" font-family="Helvetica,sans-Serif" font-size="10.00">CMasternodePing</text>
</g>
<!-- Node2 -->
<g id="node2" class="node"><title>Node2</title>
<g id="a_node2"><a xlink:href="class_c_out_point.html" target="_top" xlink:title="An outpoint &#45; a combination of a transaction hash and an index n into its vout. ">
<polygon fill="white" stroke="black" points="99,-68.5 99,-87.5 161,-87.5 161,-68.5 99,-68.5"/>
<text text-anchor="middle" x="130" y="-75.5" font-family="Helvetica,sans-Serif" font-size="10.00">COutPoint</text>
</a>
</g>
</g>
<!-- Node2&#45;&gt;Node1 -->
<g id="edge1" class="edge"><title>Node2&#45;&gt;Node1</title>
<path fill="none" stroke="#9a32cd" stroke-dasharray="5,2" d="M114.047,-61.0474C101.111,-48.1111 83.3567,-30.3567 72.8411,-19.8411"/>
<polygon fill="#9a32cd" stroke="#9a32cd" points="111.826,-63.7754 121.372,-68.3717 116.775,-58.8257 111.826,-63.7754"/>
<text text-anchor="middle" x="147.5" y="-41.5" font-family="Helvetica,sans-Serif" font-size="10.00"> masternodeOutpoint</text>
</g>
<!-- Node3 -->
<g id="node3" class="node"><title>Node3</title>
<g id="a_node3"><a xlink:href="classuint256.html" target="_top" xlink:title="256&#45;bit opaque blob. ">
<polygon fill="white" stroke="black" points="23,-136.5 23,-155.5 71,-155.5 71,-136.5 23,-136.5"/>
<text text-anchor="middle" x="47" y="-143.5" font-family="Helvetica,sans-Serif" font-size="10.00">uint256</text>
</a>
</g>
</g>
<!-- Node3&#45;&gt;Node1 -->
<g id="edge4" class="edge"><title>Node3&#45;&gt;Node1</title>
<path fill="none" stroke="#9a32cd" stroke-dasharray="5,2" d="M42.3222,-126.376C39.0892,-110.679 36.0231,-87.6932 40,-68 43.6557,-49.8973 53.233,-30.3894 59.1246,-19.5364"/>
<polygon fill="#9a32cd" stroke="#9a32cd" points="38.9657,-127.399 44.6076,-136.366 45.7894,-125.838 38.9657,-127.399"/>
<text text-anchor="middle" x="65" y="-75.5" font-family="Helvetica,sans-Serif" font-size="10.00"> blockHash</text>
</g>
<!-- Node3&#45;&gt;Node2 -->
<g id="edge2" class="edge"><title>Node3&#45;&gt;Node2</title>
<path fill="none" stroke="#9a32cd" stroke-dasharray="5,2" d="M65.7428,-130.096C82.2107,-117.001 105.6,-98.4028 119.147,-87.6305"/>
<polygon fill="#9a32cd" stroke="#9a32cd" points="63.4995,-127.408 57.8508,-136.372 67.8563,-132.887 63.4995,-127.408"/>
<text text-anchor="middle" x="107.5" y="-109.5" font-family="Helvetica,sans-Serif" font-size="10.00"> hash</text>
</g>
<!-- Node4 -->
<g id="node4" class="node"><title>Node4</title>
<g id="a_node4"><a xlink:href="classbase__blob.html" target="_top" xlink:title="base_blob\&lt; 256 \&gt;">
<polygon fill="white" stroke="black" points="-0.5,-194.5 -0.5,-213.5 94.5,-213.5 94.5,-194.5 -0.5,-194.5"/>
<text text-anchor="middle" x="47" y="-201.5" font-family="Helvetica,sans-Serif" font-size="10.00">base_blob&lt; 256 &gt;</text>
</a>
</g>
</g>
<!-- Node4&#45;&gt;Node3 -->
<g id="edge3" class="edge"><title>Node4&#45;&gt;Node3</title>
<path fill="none" stroke="midnightblue" d="M47,-183.953C47,-174.287 47,-163.031 47,-155.505"/>
<polygon fill="midnightblue" stroke="midnightblue" points="43.5001,-184.25 47,-194.25 50.5001,-184.25 43.5001,-184.25"/>
</g>
</g>
</svg>
