<?xml version="1.0" encoding="UTF-8" standalone="no"?>
<!DOCTYPE svg PUBLIC "-//W3C//DTD SVG 1.1//EN"
 "http://www.w3.org/Graphics/SVG/1.1/DTD/svg11.dtd">
<!-- Generated by graphviz version 2.36.0 (20140111.2315)
 -->
<!-- Title: TransactionSignatureChecker Pages: 1 -->
<svg width="227pt" height="222pt"
 viewBox="0.00 0.00 227.00 222.00" xmlns="http://www.w3.org/2000/svg" xmlns:xlink="http://www.w3.org/1999/xlink">
<g id="graph0" class="graph" transform="scale(1 1) rotate(0) translate(4 218)">
<title>TransactionSignatureChecker</title>
<polygon fill="white" stroke="none" points="-4,4 -4,-218 223,-218 223,4 -4,4"/>
<!-- Node4 -->
<g id="node1" class="node"><title>Node4</title>
<polygon fill="#bfbfbf" stroke="black" points="21,-0.5 21,-19.5 167,-19.5 167,-0.5 21,-0.5"/>
<text text-anchor="middle" x="94" y="-7.5" font-family="Helvetica,sans-Serif" font-size="10.00">TransactionSignatureChecker</text>
</g>
<!-- Node5 -->
<g id="node2" class="node"><title>Node5</title>
<g id="a_node2"><a xlink:href="class_base_signature_checker.html" target="_top" xlink:title="BaseSignatureChecker">
<polygon fill="white" stroke="black" points="-0.5,-68.5 -0.5,-87.5 116.5,-87.5 116.5,-68.5 -0.5,-68.5"/>
<text text-anchor="middle" x="58" y="-75.5" font-family="Helvetica,sans-Serif" font-size="10.00">BaseSignatureChecker</text>
</a>
</g>
</g>
<!-- Node5&#45;&gt;Node4 -->
<g id="edge1" class="edge"><title>Node5&#45;&gt;Node4</title>
<path fill="none" stroke="midnightblue" d="M67.5111,-59.563C74.4828,-46.7815 83.6582,-29.9599 89.1776,-19.8411"/>
<polygon fill="midnightblue" stroke="midnightblue" points="64.4223,-57.9167 62.7064,-68.3717 70.5676,-61.2687 64.4223,-57.9167"/>
</g>
<!-- Node6 -->
<g id="node3" class="node"><title>Node6</title>
<g id="a_node3"><a xlink:href="class_c_transaction.html" target="_top" xlink:title="The basic transaction that is broadcasted on the network and contained in blocks. ...">
<polygon fill="white" stroke="black" points="134.5,-68.5 134.5,-87.5 209.5,-87.5 209.5,-68.5 134.5,-68.5"/>
<text text-anchor="middle" x="172" y="-75.5" font-family="Helvetica,sans-Serif" font-size="10.00">CTransaction</text>
</a>
</g>
</g>
<!-- Node6&#45;&gt;Node4 -->
<g id="edge2" class="edge"><title>Node6&#45;&gt;Node4</title>
<path fill="none" stroke="#9a32cd" stroke-dasharray="5,2" d="M154.006,-61.7744C138.653,-48.7837 117.111,-30.5551 104.449,-19.8411"/>
<polygon fill="#9a32cd" stroke="#9a32cd" points="151.908,-64.5841 161.803,-68.3717 156.43,-59.2403 151.908,-64.5841"/>
<text text-anchor="middle" x="150.5" y="-41.5" font-family="Helvetica,sans-Serif" font-size="10.00"> txTo</text>
</g>
<!-- Node7 -->
<g id="node4" class="node"><title>Node7</title>
<g id="a_node4"><a xlink:href="classuint256.html" target="_top" xlink:title="256&#45;bit opaque blob. ">
<polygon fill="white" stroke="black" points="148,-136.5 148,-155.5 196,-155.5 196,-136.5 148,-136.5"/>
<text text-anchor="middle" x="172" y="-143.5" font-family="Helvetica,sans-Serif" font-size="10.00">uint256</text>
</a>
</g>
</g>
<!-- Node7&#45;&gt;Node6 -->
<g id="edge3" class="edge"><title>Node7&#45;&gt;Node6</title>
<path fill="none" stroke="#9a32cd" stroke-dasharray="5,2" d="M172,-126.041C172,-113.472 172,-97.5631 172,-87.8411"/>
<polygon fill="#9a32cd" stroke="#9a32cd" points="168.5,-126.372 172,-136.372 175.5,-126.372 168.5,-126.372"/>
<text text-anchor="middle" x="184.5" y="-109.5" font-family="Helvetica,sans-Serif" font-size="10.00"> hash</text>
</g>
<!-- Node8 -->
<g id="node5" class="node"><title>Node8</title>
<g id="a_node5"><a xlink:href="classbase__blob.html" target="_top" xlink:title="base_blob\&lt; 256 \&gt;">
<polygon fill="white" stroke="black" points="124.5,-194.5 124.5,-213.5 219.5,-213.5 219.5,-194.5 124.5,-194.5"/>
<text text-anchor="middle" x="172" y="-201.5" font-family="Helvetica,sans-Serif" font-size="10.00">base_blob&lt; 256 &gt;</text>
</a>
</g>
</g>
<!-- Node8&#45;&gt;Node7 -->
<g id="edge4" class="edge"><title>Node8&#45;&gt;Node7</title>
<path fill="none" stroke="midnightblue" d="M172,-183.953C172,-174.287 172,-163.031 172,-155.505"/>
<polygon fill="midnightblue" stroke="midnightblue" points="168.5,-184.25 172,-194.25 175.5,-184.25 168.5,-184.25"/>
</g>
</g>
</svg>
