<?xml version="1.0" encoding="UTF-8" standalone="no"?>
<!DOCTYPE svg PUBLIC "-//W3C//DTD SVG 1.1//EN"
 "http://www.w3.org/Graphics/SVG/1.1/DTD/svg11.dtd">
<!-- Generated by graphviz version 2.36.0 (20140111.2315)
 -->
<!-- Title: org.bitcoin.NativeSecp256k1 Pages: 1 -->
<svg width="192pt" height="106pt"
 viewBox="0.00 0.00 192.00 106.00" xmlns="http://www.w3.org/2000/svg" xmlns:xlink="http://www.w3.org/1999/xlink">
<g id="graph0" class="graph" transform="scale(1 1) rotate(0) translate(4 102)">
<title>org.bitcoin.NativeSecp256k1</title>
<polygon fill="white" stroke="none" points="-4,4 -4,-102 188,-102 188,4 -4,4"/>
<!-- Node1 -->
<g id="node1" class="node"><title>Node1</title>
<polygon fill="#bfbfbf" stroke="black" points="42,-0.5 42,-19.5 184,-19.5 184,-0.5 42,-0.5"/>
<text text-anchor="middle" x="113" y="-7.5" font-family="Helvetica,sans-Serif" font-size="10.00">org.bitcoin.NativeSecp256k1</text>
</g>
<!-- Node2 -->
<g id="node2" class="node"><title>Node2</title>
<polygon fill="white" stroke="#bfbfbf" points="-0.5,-78.5 -0.5,-97.5 126.5,-97.5 126.5,-78.5 -0.5,-78.5"/>
<text text-anchor="middle" x="63" y="-85.5" font-family="Helvetica,sans-Serif" font-size="10.00">ReentrantReadWriteLock</text>
</g>
<!-- Node2&#45;&gt;Node1 -->
<g id="edge1" class="edge"><title>Node2&#45;&gt;Node1</title>
<path fill="none" stroke="#9a32cd" stroke-dasharray="5,2" d="M74.4702,-69.5654C84.7443,-53.9486 99.3815,-31.7002 107.331,-19.6165"/>
<polygon fill="#9a32cd" stroke="#9a32cd" points="71.3079,-68.004 68.7356,-78.2818 77.1558,-71.8513 71.3079,-68.004"/>
<text text-anchor="middle" x="102" y="-46.5" font-family="Helvetica,sans-Serif" font-size="10.00"> rwl</text>
</g>
<!-- Node3 -->
<g id="node3" class="node"><title>Node3</title>
<polygon fill="white" stroke="#bfbfbf" points="145,-78.5 145,-97.5 183,-97.5 183,-78.5 145,-78.5"/>
<text text-anchor="middle" x="164" y="-85.5" font-family="Helvetica,sans-Serif" font-size="10.00">Lock</text>
</g>
<!-- Node3&#45;&gt;Node1 -->
<g id="edge2" class="edge"><title>Node3&#45;&gt;Node1</title>
<path fill="none" stroke="#9a32cd" stroke-dasharray="5,2" d="M152.3,-69.5654C141.821,-53.9486 126.891,-31.7002 118.782,-19.6165"/>
<polygon fill="#9a32cd" stroke="#9a32cd" points="149.671,-71.9284 158.15,-78.2818 155.484,-68.0279 149.671,-71.9284"/>
<text text-anchor="middle" x="150.5" y="-52" font-family="Helvetica,sans-Serif" font-size="10.00"> w</text>
<text text-anchor="middle" x="150.5" y="-41" font-family="Helvetica,sans-Serif" font-size="10.00">r</text>
</g>
</g>
</svg>
