<?xml version="1.0" encoding="UTF-8" standalone="no"?>
<!DOCTYPE svg PUBLIC "-//W3C//DTD SVG 1.1//EN"
 "http://www.w3.org/Graphics/SVG/1.1/DTD/svg11.dtd">
<!-- Generated by graphviz version 2.36.0 (20140111.2315)
 -->
<!-- Title: tinyformat::FormatList Pages: 1 -->
<svg width="125pt" height="108pt"
 viewBox="0.00 0.00 125.00 108.00" xmlns="http://www.w3.org/2000/svg" xmlns:xlink="http://www.w3.org/1999/xlink">
<g id="graph0" class="graph" transform="scale(1 1) rotate(0) translate(4 104)">
<title>tinyformat::FormatList</title>
<polygon fill="white" stroke="none" points="-4,4 -4,-104 121,-104 121,4 -4,4"/>
<!-- Node3 -->
<g id="node1" class="node"><title>Node3</title>
<polygon fill="#bfbfbf" stroke="black" points="-0.5,-0.5 -0.5,-19.5 112.5,-19.5 112.5,-0.5 -0.5,-0.5"/>
<text text-anchor="middle" x="56" y="-7.5" font-family="Helvetica,sans-Serif" font-size="10.00">tinyformat::FormatList</text>
</g>
<!-- Node4 -->
<g id="node2" class="node"><title>Node4</title>
<g id="a_node2"><a xlink:href="classtinyformat_1_1detail_1_1_format_arg.html" target="_top" xlink:title="tinyformat::detail\l::FormatArg">
<polygon fill="white" stroke="black" points="11.5,-69 11.5,-99 100.5,-99 100.5,-69 11.5,-69"/>
<text text-anchor="start" x="19.5" y="-87" font-family="Helvetica,sans-Serif" font-size="10.00">tinyformat::detail</text>
<text text-anchor="middle" x="56" y="-76" font-family="Helvetica,sans-Serif" font-size="10.00">::FormatArg</text>
</a>
</g>
</g>
<!-- Node4&#45;&gt;Node3 -->
<g id="edge1" class="edge"><title>Node4&#45;&gt;Node3</title>
<path fill="none" stroke="#9a32cd" stroke-dasharray="5,2" d="M56,-58.6883C56,-45.2526 56,-29.3805 56,-19.7589"/>
<polygon fill="#9a32cd" stroke="#9a32cd" points="52.5001,-58.7751 56,-68.7751 59.5001,-58.7752 52.5001,-58.7751"/>
<text text-anchor="middle" x="86.5" y="-41.5" font-family="Helvetica,sans-Serif" font-size="10.00"> m_formatters</text>
</g>
</g>
</svg>
