<?xml version="1.0" encoding="UTF-8" standalone="no"?>
<!DOCTYPE svg PUBLIC "-//W3C//DTD SVG 1.1//EN"
 "http://www.w3.org/Graphics/SVG/1.1/DTD/svg11.dtd">
<!-- Generated by graphviz version 2.36.0 (20140111.2315)
 -->
<!-- Title: SendCoinsDialog Pages: 1 -->
<!--zoomable 574 -->
<svg id="main" version="1.1" xmlns="http://www.w3.org/2000/svg" xmlns:xlink="http://www.w3.org/1999/xlink" xml:space="preserve" onload="init(evt)">
<style type="text/css"><![CDATA[
.edge:hover path { stroke: red; }
.edge:hover polygon { stroke: red; fill: red; }
]]></style>
<script type="text/javascript"><![CDATA[
var edges = document.getElementsByTagName('g');
if (edges && edges.length) {
  for (var i=0;i<edges.length;i++) {
    if (edges[i].id.substr(0,4)=='edge') {
      edges[i].setAttribute('class','edge');
    }
  }
}
]]></script>
        <defs>
                <circle id="rim" cx="0" cy="0" r="7"/>
                <circle id="rim2" cx="0" cy="0" r="3.5"/>
                <g id="zoomPlus">
                        <use xlink:href="#rim" fill="#404040">
                                <set attributeName="fill" to="#808080" begin="zoomplus.mouseover" end="zoomplus.mouseout"/>
                        </use>
                        <path d="M-4,0h8M0,-4v8" fill="none" stroke="white" stroke-width="1.5" pointer-events="none"/>
                </g>
                <g id="zoomMin">
                        <use xlink:href="#rim" fill="#404040">
                                <set attributeName="fill" to="#808080" begin="zoomminus.mouseover" end="zoomminus.mouseout"/>
                        </use>
                        <path d="M-4,0h8" fill="none" stroke="white" stroke-width="1.5" pointer-events="none"/>
                </g>
                <g id="dirArrow">
                        <path fill="none" stroke="white" stroke-width="1.5" d="M0,-3.0v7 M-2.5,-0.5L0,-3.0L2.5,-0.5"/>
                </g>
               <g id="resetDef">
                       <use xlink:href="#rim2" fill="#404040">
                               <set attributeName="fill" to="#808080" begin="reset.mouseover" end="reset.mouseout"/>
                       </use>
               </g>
        </defs>

<script type="text/javascript">
var viewWidth = 2048;
var viewHeight = 574;
var sectionId = 'dynsection-1';
</script>
<script xlink:href="svgpan.js"/>
<svg id="graph" class="graph">
<g id="viewport">
<title>SendCoinsDialog</title>
<polygon fill="white" stroke="none" points="-4,4 -4,-570.388 2044,-570.388 2044,4 -4,4"/>
<!-- Node2 -->
<g id="node1" class="node"><title>Node2</title>
<polygon fill="#bfbfbf" stroke="black" points="1762,-124.888 1762,-143.888 1854,-143.888 1854,-124.888 1762,-124.888"/>
<text text-anchor="middle" x="1808" y="-131.888" font-family="Helvetica,sans-Serif" font-size="10.00">SendCoinsDialog</text>
</g>
<!-- Node3 -->
<g id="node2" class="node"><title>Node3</title>
<polygon fill="white" stroke="#bfbfbf" points="1497,-112.888 1497,-131.888 1549,-131.888 1549,-112.888 1497,-112.888"/>
<text text-anchor="middle" x="1523" y="-119.888" font-family="Helvetica,sans-Serif" font-size="10.00">QDialog</text>
</g>
<!-- Node3&#45;&gt;Node2 -->
<g id="edge1" class="edge"><title>Node3&#45;&gt;Node2</title>
<path fill="none" stroke="midnightblue" d="M1559.36,-123.888C1610.65,-126.062 1705.65,-130.091 1761.91,-132.476"/>
<polygon fill="midnightblue" stroke="midnightblue" points="1559.25,-120.38 1549.11,-123.453 1558.96,-127.374 1559.25,-120.38"/>
</g>
<!-- Node4 -->
<g id="node3" class="node"><title>Node4</title>
<g id="a_node3"><a xlink:href="class_platform_style.html" target="_top" xlink:title="PlatformStyle">
<polygon fill="white" stroke="black" points="1020,-230.888 1020,-249.888 1096,-249.888 1096,-230.888 1020,-230.888"/>
<text text-anchor="middle" x="1058" y="-237.888" font-family="Helvetica,sans-Serif" font-size="10.00">PlatformStyle</text>
</a>
</g>
</g>
<!-- Node4&#45;&gt;Node2 -->
<g id="edge2" class="edge"><title>Node4&#45;&gt;Node2</title>
<path fill="none" stroke="#9a32cd" stroke-dasharray="5,2" d="M1106.42,-235.912C1180.18,-228.648 1326.72,-213.003 1450,-192.388 1515.43,-181.448 1530.6,-172.496 1596,-161.388 1652.98,-151.71 1719.15,-143.775 1761.98,-139.068"/>
<polygon fill="#9a32cd" stroke="#9a32cd" points="1105.69,-232.467 1096.08,-236.923 1106.37,-239.434 1105.69,-232.467"/>
<text text-anchor="middle" x="1399" y="-210.388" font-family="Helvetica,sans-Serif" font-size="10.00"> platformStyle</text>
</g>
<!-- Node13 -->
<g id="node12" class="node"><title>Node13</title>
<g id="a_node12"><a xlink:href="class_transaction_table_model.html" target="_top" xlink:title="UI model for the transaction table of a wallet. ">
<polygon fill="white" stroke="black" points="1212,-302.888 1212,-321.888 1330,-321.888 1330,-302.888 1212,-302.888"/>
<text text-anchor="middle" x="1271" y="-309.888" font-family="Helvetica,sans-Serif" font-size="10.00">TransactionTableModel</text>
</a>
</g>
</g>
<!-- Node4&#45;&gt;Node13 -->
<g id="edge37" class="edge"><title>Node4&#45;&gt;Node13</title>
<path fill="none" stroke="#9a32cd" stroke-dasharray="5,2" d="M1096.53,-253.196C1138.18,-267.409 1204.44,-290.019 1241.86,-302.788"/>
<polygon fill="#9a32cd" stroke="#9a32cd" points="1097.61,-249.867 1087.02,-249.949 1095.35,-256.491 1097.61,-249.867"/>
<text text-anchor="middle" x="1163" y="-288.388" font-family="Helvetica,sans-Serif" font-size="10.00"> platformStyle</text>
</g>
<!-- Node5 -->
<g id="node4" class="node"><title>Node5</title>
<g id="a_node4"><a xlink:href="class_client_model.html" target="_top" xlink:title="Model for Dash network client. ">
<polygon fill="white" stroke="black" points="1489,-52.8884 1489,-71.8884 1557,-71.8884 1557,-52.8884 1489,-52.8884"/>
<text text-anchor="middle" x="1523" y="-59.8884" font-family="Helvetica,sans-Serif" font-size="10.00">ClientModel</text>
</a>
</g>
</g>
<!-- Node5&#45;&gt;Node2 -->
<g id="edge3" class="edge"><title>Node5&#45;&gt;Node2</title>
<path fill="none" stroke="#9a32cd" stroke-dasharray="5,2" d="M1567.21,-73.0145C1606.96,-82.8291 1667.5,-97.8871 1720,-111.388 1736.95,-115.747 1755.72,-120.694 1771.47,-124.88"/>
<polygon fill="#9a32cd" stroke="#9a32cd" points="1567.87,-69.5726 1557.33,-70.5751 1566.2,-76.3688 1567.87,-69.5726"/>
<text text-anchor="middle" x="1658" y="-114.388" font-family="Helvetica,sans-Serif" font-size="10.00"> clientModel</text>
</g>
<!-- Node7 -->
<g id="node6" class="node"><title>Node7</title>
<g id="a_node6"><a xlink:href="class_peer_table_model.html" target="_top" xlink:title="Qt model providing information about connected peers, similar to the &quot;getpeerinfo&quot; RPC call...">
<polygon fill="white" stroke="black" points="1227.5,-40.8884 1227.5,-59.8884 1314.5,-59.8884 1314.5,-40.8884 1227.5,-40.8884"/>
<text text-anchor="middle" x="1271" y="-47.8884" font-family="Helvetica,sans-Serif" font-size="10.00">PeerTableModel</text>
</a>
</g>
</g>
<!-- Node5&#45;&gt;Node7 -->
<g id="edge7" class="edge"><title>Node5&#45;&gt;Node7</title>
<path fill="none" stroke="#9a32cd" stroke-dasharray="5,2" d="M1478.43,-60.2971C1432.42,-58.0888 1360.36,-54.6299 1314.69,-52.4376"/>
<polygon fill="#9a32cd" stroke="#9a32cd" points="1478.53,-63.8056 1488.68,-60.7891 1478.86,-56.8136 1478.53,-63.8056"/>
<text text-anchor="middle" x="1399" y="-62.3884" font-family="Helvetica,sans-Serif" font-size="10.00"> clientModel</text>
</g>
<!-- Node9 -->
<g id="node8" class="node"><title>Node9</title>
<g id="a_node8"><a xlink:href="class_ban_table_model.html" target="_top" xlink:title="Qt model providing information about connected peers, similar to the &quot;getpeerinfo&quot; RPC call...">
<polygon fill="white" stroke="black" points="1766,-18.8884 1766,-37.8884 1850,-37.8884 1850,-18.8884 1766,-18.8884"/>
<text text-anchor="middle" x="1808" y="-25.8884" font-family="Helvetica,sans-Serif" font-size="10.00">BanTableModel</text>
</a>
</g>
</g>
<!-- Node5&#45;&gt;Node9 -->
<g id="edge10" class="edge"><title>Node5&#45;&gt;Node9</title>
<path fill="none" stroke="#9a32cd" stroke-dasharray="5,2" d="M1567.46,-57.8286C1607.2,-53.5833 1667.6,-46.9418 1720,-40.3884 1734.98,-38.5151 1751.38,-36.2961 1765.87,-34.2789"/>
<polygon fill="#9a32cd" stroke="#9a32cd" points="1566.9,-54.3689 1557.32,-58.9075 1567.64,-61.3296 1566.9,-54.3689"/>
<text text-anchor="middle" x="1658" y="-58.3884" font-family="Helvetica,sans-Serif" font-size="10.00"> clientModel</text>
</g>
<!-- Node6 -->
<g id="node5" class="node"><title>Node6</title>
<polygon fill="white" stroke="#bfbfbf" points="1244.5,-249.888 1244.5,-268.888 1297.5,-268.888 1297.5,-249.888 1244.5,-249.888"/>
<text text-anchor="middle" x="1271" y="-256.888" font-family="Helvetica,sans-Serif" font-size="10.00">QObject</text>
</g>
<!-- Node6&#45;&gt;Node5 -->
<g id="edge4" class="edge"><title>Node6&#45;&gt;Node5</title>
<path fill="none" stroke="midnightblue" d="M1307.74,-263.861C1348.25,-266.749 1413.4,-264.401 1450,-226.388 1488.32,-186.586 1439.91,-150.964 1468,-103.388 1476.08,-89.7046 1490.65,-79.0512 1502.63,-72.0374"/>
<polygon fill="midnightblue" stroke="midnightblue" points="1308.02,-260.372 1297.76,-263.008 1307.42,-267.347 1308.02,-260.372"/>
</g>
<!-- Node12 -->
<g id="node11" class="node"><title>Node12</title>
<g id="a_node11"><a xlink:href="class_wallet_model.html" target="_top" xlink:title="Interface to Bitcoin wallet from Qt view code. ">
<polygon fill="white" stroke="black" points="1487.5,-281.888 1487.5,-300.888 1558.5,-300.888 1558.5,-281.888 1487.5,-281.888"/>
<text text-anchor="middle" x="1523" y="-288.888" font-family="Helvetica,sans-Serif" font-size="10.00">WalletModel</text>
</a>
</g>
</g>
<!-- Node6&#45;&gt;Node12 -->
<g id="edge14" class="edge"><title>Node6&#45;&gt;Node12</title>
<path fill="none" stroke="midnightblue" d="M1308.02,-263.999C1355.89,-270.127 1439.92,-280.882 1487.18,-286.931"/>
<polygon fill="midnightblue" stroke="midnightblue" points="1308.18,-260.49 1297.81,-262.692 1307.29,-267.434 1308.18,-260.49"/>
</g>
<!-- Node7&#45;&gt;Node5 -->
<g id="edge5" class="edge"><title>Node7&#45;&gt;Node5</title>
<path fill="none" stroke="#9a32cd" stroke-dasharray="5,2" d="M1309.26,-37.9395C1321.46,-34.4455 1335.18,-31.1274 1348,-29.3884 1392.92,-23.2962 1405.71,-19.7219 1450,-29.3884 1470.55,-33.8744 1492.26,-44.7856 1506.39,-52.8395"/>
<polygon fill="#9a32cd" stroke="#9a32cd" points="1308,-34.6641 1299.42,-40.8849 1310,-41.3701 1308,-34.6641"/>
<text text-anchor="middle" x="1399" y="-32.3884" font-family="Helvetica,sans-Serif" font-size="10.00"> peerTableModel</text>
</g>
<!-- Node8 -->
<g id="node7" class="node"><title>Node8</title>
<polygon fill="white" stroke="#bfbfbf" points="1002.5,-78.8884 1002.5,-97.8884 1113.5,-97.8884 1113.5,-78.8884 1002.5,-78.8884"/>
<text text-anchor="middle" x="1058" y="-85.8884" font-family="Helvetica,sans-Serif" font-size="10.00">QAbstractTableModel</text>
</g>
<!-- Node8&#45;&gt;Node7 -->
<g id="edge6" class="edge"><title>Node8&#45;&gt;Node7</title>
<path fill="none" stroke="midnightblue" d="M1118.24,-76.9378C1122.89,-76.0655 1127.52,-75.2069 1132,-74.3884 1163.94,-68.5496 1200.09,-62.2738 1227.38,-57.6046"/>
<polygon fill="midnightblue" stroke="midnightblue" points="1117.24,-73.5648 1108.06,-78.8586 1118.54,-80.4434 1117.24,-73.5648"/>
</g>
<!-- Node8&#45;&gt;Node9 -->
<g id="edge9" class="edge"><title>Node8&#45;&gt;Node9</title>
<path fill="none" stroke="midnightblue" d="M1088.36,-74.5774C1118.62,-61.039 1167.51,-41.0678 1212,-31.3884 1432.71,16.6333 1494.65,-0.920511 1720,-16.3884 1735.06,-17.4221 1751.48,-19.4509 1765.96,-21.5506"/>
<polygon fill="midnightblue" stroke="midnightblue" points="1086.88,-71.4056 1079.22,-78.7257 1089.78,-77.7797 1086.88,-71.4056"/>
</g>
<!-- Node8&#45;&gt;Node13 -->
<g id="edge16" class="edge"><title>Node8&#45;&gt;Node13</title>
<path fill="none" stroke="midnightblue" d="M1075.75,-105.368C1086.92,-116.923 1101.74,-132.723 1114,-147.388 1160.64,-203.174 1157.79,-229.934 1212,-278.388 1223.14,-288.345 1237.64,-296.845 1249.35,-302.855"/>
<polygon fill="midnightblue" stroke="midnightblue" points="1078.17,-102.831 1068.68,-98.112 1073.15,-107.717 1078.17,-102.831"/>
</g>
<!-- Node30 -->
<g id="node29" class="node"><title>Node30</title>
<g id="a_node29"><a xlink:href="class_address_table_model.html" target="_top" xlink:title="Qt model of the address book in the core. ">
<polygon fill="white" stroke="black" points="1756.5,-356.888 1756.5,-375.888 1859.5,-375.888 1859.5,-356.888 1756.5,-356.888"/>
<text text-anchor="middle" x="1808" y="-363.888" font-family="Helvetica,sans-Serif" font-size="10.00">AddressTableModel</text>
</a>
</g>
</g>
<!-- Node8&#45;&gt;Node30 -->
<g id="edge41" class="edge"><title>Node8&#45;&gt;Node30</title>
<path fill="none" stroke="midnightblue" d="M1123.66,-97.4156C1219.22,-111.406 1392.98,-139.52 1450,-166.388 1459.47,-170.849 1586.59,-280.809 1596,-285.388 1646.8,-310.114 1667.63,-292.19 1720,-313.388 1748.2,-324.802 1777.78,-344.804 1794.15,-356.701"/>
<polygon fill="midnightblue" stroke="midnightblue" points="1123.94,-93.9189 1113.54,-95.9433 1122.93,-100.846 1123.94,-93.9189"/>
</g>
<!-- Node32 -->
<g id="node31" class="node"><title>Node32</title>
<g id="a_node31"><a xlink:href="class_recent_requests_table_model.html" target="_top" xlink:title="Model for list of recently generated payment requests / dash: URIs. ">
<polygon fill="white" stroke="black" points="1738,-229.888 1738,-248.888 1878,-248.888 1878,-229.888 1738,-229.888"/>
<text text-anchor="middle" x="1808" y="-236.888" font-family="Helvetica,sans-Serif" font-size="10.00">RecentRequestsTableModel</text>
</a>
</g>
</g>
<!-- Node8&#45;&gt;Node32 -->
<g id="edge48" class="edge"><title>Node8&#45;&gt;Node32</title>
<path fill="none" stroke="midnightblue" d="M1123.59,-82.7585C1220.64,-75.6014 1398.25,-67.9557 1450,-102.388 1465.89,-112.963 1452.89,-129.721 1468,-141.388 1558.05,-210.923 1613.6,-146.104 1720,-186.388 1748.61,-197.222 1778.29,-217.618 1794.52,-229.704"/>
<polygon fill="midnightblue" stroke="midnightblue" points="1123.3,-79.2699 1113.6,-83.5146 1123.83,-86.25 1123.3,-79.2699"/>
</g>
<!-- Node9&#45;&gt;Node5 -->
<g id="edge8" class="edge"><title>Node9&#45;&gt;Node5</title>
<path fill="none" stroke="#9a32cd" stroke-dasharray="5,2" d="M1756.01,-22.6673C1712.86,-19.2363 1649.65,-17.5463 1596,-29.3884 1575.46,-33.9231 1553.75,-44.8248 1539.61,-52.8631"/>
<polygon fill="#9a32cd" stroke="#9a32cd" points="1755.72,-26.1556 1765.99,-23.52 1756.32,-19.181 1755.72,-26.1556"/>
<text text-anchor="middle" x="1658" y="-32.3884" font-family="Helvetica,sans-Serif" font-size="10.00"> banTableModel</text>
</g>
<!-- Node10 -->
<g id="node9" class="node"><title>Node10</title>
<g id="a_node9"><a xlink:href="class_options_model.html" target="_top" xlink:title="Interface from Qt to configuration data structure for Bitcoin client. ">
<polygon fill="white" stroke="black" points="1232.5,-168.888 1232.5,-187.888 1309.5,-187.888 1309.5,-168.888 1232.5,-168.888"/>
<text text-anchor="middle" x="1271" y="-175.888" font-family="Helvetica,sans-Serif" font-size="10.00">OptionsModel</text>
</a>
</g>
</g>
<!-- Node10&#45;&gt;Node5 -->
<g id="edge11" class="edge"><title>Node10&#45;&gt;Node5</title>
<path fill="none" stroke="#9a32cd" stroke-dasharray="5,2" d="M1302.16,-164.393C1353.66,-140.498 1457.24,-92.4364 1501.35,-71.9698"/>
<polygon fill="#9a32cd" stroke="#9a32cd" points="1300.48,-161.314 1292.88,-168.698 1303.43,-167.664 1300.48,-161.314"/>
<text text-anchor="middle" x="1399" y="-144.388" font-family="Helvetica,sans-Serif" font-size="10.00"> optionsModel</text>
</g>
<!-- Node10&#45;&gt;Node12 -->
<g id="edge50" class="edge"><title>Node10&#45;&gt;Node12</title>
<path fill="none" stroke="#9a32cd" stroke-dasharray="5,2" d="M1319.93,-172.761C1365.82,-168.486 1430.82,-165.694 1450,-181.388 1478.88,-205.017 1445.29,-233.781 1468,-263.388 1474.23,-271.517 1483.5,-277.505 1492.6,-281.808"/>
<polygon fill="#9a32cd" stroke="#9a32cd" points="1319.48,-169.288 1309.87,-173.75 1320.17,-176.255 1319.48,-169.288"/>
<text text-anchor="middle" x="1399" y="-184.388" font-family="Helvetica,sans-Serif" font-size="10.00"> optionsModel</text>
</g>
<!-- Node11 -->
<g id="node10" class="node"><title>Node11</title>
<polygon fill="white" stroke="#bfbfbf" points="1006.5,-156.888 1006.5,-175.888 1109.5,-175.888 1109.5,-156.888 1006.5,-156.888"/>
<text text-anchor="middle" x="1058" y="-163.888" font-family="Helvetica,sans-Serif" font-size="10.00">QAbstractListModel</text>
</g>
<!-- Node11&#45;&gt;Node10 -->
<g id="edge12" class="edge"><title>Node11&#45;&gt;Node10</title>
<path fill="none" stroke="midnightblue" d="M1119.55,-169.832C1155.95,-171.902 1201.13,-174.472 1232.43,-176.252"/>
<polygon fill="midnightblue" stroke="midnightblue" points="1119.72,-166.336 1109.54,-169.263 1119.32,-173.325 1119.72,-166.336"/>
</g>
<!-- Node12&#45;&gt;Node2 -->
<g id="edge13" class="edge"><title>Node12&#45;&gt;Node2</title>
<path fill="none" stroke="#9a32cd" stroke-dasharray="5,2" d="M1536.64,-273.4C1549.73,-255.945 1571.64,-229.76 1596,-213.388 1626.43,-192.931 1725.48,-160.062 1776.3,-143.936"/>
<polygon fill="#9a32cd" stroke="#9a32cd" points="1533.7,-271.492 1530.64,-281.634 1539.36,-275.616 1533.7,-271.492"/>
<text text-anchor="middle" x="1658" y="-216.388" font-family="Helvetica,sans-Serif" font-size="10.00"> model</text>
</g>
<!-- Node12&#45;&gt;Node13 -->
<g id="edge38" class="edge"><title>Node12&#45;&gt;Node13</title>
<path fill="none" stroke="#9a32cd" stroke-dasharray="5,2" d="M1482.79,-303.608C1472.24,-306.377 1460.78,-308.929 1450,-310.388 1410.34,-315.76 1365.26,-316.209 1330.38,-315.341"/>
<polygon fill="#9a32cd" stroke="#9a32cd" points="1483.85,-306.947 1492.56,-300.916 1481.99,-300.199 1483.85,-306.947"/>
<text text-anchor="middle" x="1399" y="-319.388" font-family="Helvetica,sans-Serif" font-size="10.00"> walletModel</text>
</g>
<!-- Node12&#45;&gt;Node30 -->
<g id="edge45" class="edge"><title>Node12&#45;&gt;Node30</title>
<path fill="none" stroke="#9a32cd" stroke-dasharray="5,2" d="M1541.29,-308.29C1554.95,-320.54 1575.14,-336.317 1596,-344.388 1648.04,-364.525 1712.38,-368.533 1756.24,-368.45"/>
<polygon fill="#9a32cd" stroke="#9a32cd" points="1543.39,-305.46 1533.68,-301.218 1538.62,-310.589 1543.39,-305.46"/>
<text text-anchor="middle" x="1658" y="-371.388" font-family="Helvetica,sans-Serif" font-size="10.00"> walletModel</text>
</g>
<!-- Node12&#45;&gt;Node32 -->
<g id="edge49" class="edge"><title>Node12&#45;&gt;Node32</title>
<path fill="none" stroke="#9a32cd" stroke-dasharray="5,2" d="M1541.27,-274.892C1554.92,-263.046 1575.1,-248.041 1596,-241.388 1641.73,-226.829 1695.91,-226.647 1737.92,-229.94"/>
<polygon fill="#9a32cd" stroke="#9a32cd" points="1538.74,-272.459 1533.66,-281.757 1543.43,-277.655 1538.74,-272.459"/>
<text text-anchor="middle" x="1658" y="-244.388" font-family="Helvetica,sans-Serif" font-size="10.00"> walletModel</text>
</g>
<!-- Node13&#45;&gt;Node12 -->
<g id="edge15" class="edge"><title>Node13&#45;&gt;Node12</title>
<path fill="none" stroke="#9a32cd" stroke-dasharray="5,2" d="M1332.56,-301.339C1337.77,-300.598 1342.97,-299.932 1348,-299.388 1396.1,-294.188 1452.05,-292.363 1487.24,-291.726"/>
<polygon fill="#9a32cd" stroke="#9a32cd" points="1331.94,-297.894 1322.57,-302.843 1332.98,-304.816 1331.94,-297.894"/>
<text text-anchor="middle" x="1399" y="-302.388" font-family="Helvetica,sans-Serif" font-size="10.00"> transactionTableModel</text>
</g>
<!-- Node14 -->
<g id="node13" class="node"><title>Node14</title>
<g id="a_node13"><a xlink:href="class_transaction_table_priv.html" target="_top" xlink:title="TransactionTablePriv">
<polygon fill="white" stroke="black" points="1468.5,-415.888 1468.5,-434.888 1577.5,-434.888 1577.5,-415.888 1468.5,-415.888"/>
<text text-anchor="middle" x="1523" y="-422.888" font-family="Helvetica,sans-Serif" font-size="10.00">TransactionTablePriv</text>
</a>
</g>
</g>
<!-- Node13&#45;&gt;Node14 -->
<g id="edge18" class="edge"><title>Node13&#45;&gt;Node14</title>
<path fill="none" stroke="#9a32cd" stroke-dasharray="5,2" d="M1304.83,-325.768C1313.07,-329.182 1321.87,-332.88 1330,-336.388 1383.69,-359.572 1397.03,-365.601 1450,-390.388 1468,-398.812 1488.36,-408.746 1502.82,-415.874"/>
<polygon fill="#9a32cd" stroke="#9a32cd" points="1306.07,-322.495 1295.49,-321.919 1303.4,-328.966 1306.07,-322.495"/>
<text text-anchor="middle" x="1399" y="-393.388" font-family="Helvetica,sans-Serif" font-size="10.00"> parent</text>
</g>
<!-- Node14&#45;&gt;Node13 -->
<g id="edge17" class="edge"><title>Node14&#45;&gt;Node13</title>
<path fill="none" stroke="#9a32cd" stroke-dasharray="5,2" d="M1458.17,-424.606C1415.45,-422.75 1364.2,-417.514 1348,-403.388 1324.76,-383.126 1350.34,-359.56 1330,-336.388 1324.46,-330.082 1317.01,-325.399 1309.3,-321.932"/>
<polygon fill="#9a32cd" stroke="#9a32cd" points="1458.13,-428.107 1468.25,-424.99 1458.4,-421.112 1458.13,-428.107"/>
<text text-anchor="middle" x="1399" y="-427.388" font-family="Helvetica,sans-Serif" font-size="10.00"> priv</text>
</g>
<!-- Node15 -->
<g id="node14" class="node"><title>Node15</title>
<g id="a_node14"><a xlink:href="class_c_wallet.html" target="_top" xlink:title="A CWallet is an extension of a keystore, which also maintains a set of transactions and balances...">
<polygon fill="white" stroke="black" points="1032,-438.888 1032,-457.888 1084,-457.888 1084,-438.888 1032,-438.888"/>
<text text-anchor="middle" x="1058" y="-445.888" font-family="Helvetica,sans-Serif" font-size="10.00">CWallet</text>
</a>
</g>
</g>
<!-- Node15&#45;&gt;Node12 -->
<g id="edge51" class="edge"><title>Node15&#45;&gt;Node12</title>
<path fill="none" stroke="#9a32cd" stroke-dasharray="5,2" d="M1094.36,-440.53C1164.04,-424.458 1323.31,-384.793 1450,-331.388 1470.56,-322.724 1492.8,-309.766 1507.03,-300.964"/>
<polygon fill="#9a32cd" stroke="#9a32cd" points="1093.33,-437.176 1084.36,-442.817 1094.89,-444 1093.33,-437.176"/>
<text text-anchor="middle" x="1271" y="-414.388" font-family="Helvetica,sans-Serif" font-size="10.00"> wallet</text>
</g>
<!-- Node15&#45;&gt;Node13 -->
<g id="edge39" class="edge"><title>Node15&#45;&gt;Node13</title>
<path fill="none" stroke="#9a32cd" stroke-dasharray="5,2" d="M1065.46,-429.068C1075.34,-402.762 1096.84,-356.33 1132,-333.388 1155.34,-318.16 1185.56,-312.375 1211.77,-310.623"/>
<polygon fill="#9a32cd" stroke="#9a32cd" points="1062.09,-428.086 1062.03,-438.681 1068.69,-430.436 1062.09,-428.086"/>
<text text-anchor="middle" x="1163" y="-336.388" font-family="Helvetica,sans-Serif" font-size="10.00"> wallet</text>
</g>
<!-- Node15&#45;&gt;Node14 -->
<g id="edge19" class="edge"><title>Node15&#45;&gt;Node14</title>
<path fill="none" stroke="#9a32cd" stroke-dasharray="5,2" d="M1094.51,-449.013C1163.29,-449.864 1319.44,-450.045 1450,-437.388 1456.56,-436.753 1463.42,-435.88 1470.2,-434.893"/>
<polygon fill="#9a32cd" stroke="#9a32cd" points="1094.28,-445.51 1084.23,-448.873 1094.18,-452.509 1094.28,-445.51"/>
<text text-anchor="middle" x="1271" y="-452.388" font-family="Helvetica,sans-Serif" font-size="10.00"> wallet</text>
</g>
<!-- Node15&#45;&gt;Node30 -->
<g id="edge46" class="edge"><title>Node15&#45;&gt;Node30</title>
<path fill="none" stroke="#9a32cd" stroke-dasharray="5,2" d="M1094.18,-457.026C1106.11,-459.577 1119.56,-462.045 1132,-463.388 1167.35,-467.206 1176.44,-464.166 1212,-464.388 1374.91,-465.407 1418.57,-477.871 1578,-444.388 1656.1,-427.987 1744.41,-392.966 1784.76,-375.998"/>
<polygon fill="#9a32cd" stroke="#9a32cd" points="1094.67,-453.55 1084.15,-454.788 1093.15,-460.382 1094.67,-453.55"/>
<text text-anchor="middle" x="1399" y="-471.388" font-family="Helvetica,sans-Serif" font-size="10.00"> wallet</text>
</g>
<!-- Node31 -->
<g id="node30" class="node"><title>Node31</title>
<g id="a_node30"><a xlink:href="class_address_table_priv.html" target="_top" xlink:title="AddressTablePriv">
<polygon fill="white" stroke="black" points="1946,-390.888 1946,-409.888 2040,-409.888 2040,-390.888 1946,-390.888"/>
<text text-anchor="middle" x="1993" y="-397.888" font-family="Helvetica,sans-Serif" font-size="10.00">AddressTablePriv</text>
</a>
</g>
</g>
<!-- Node15&#45;&gt;Node31 -->
<g id="edge44" class="edge"><title>Node15&#45;&gt;Node31</title>
<path fill="none" stroke="#9a32cd" stroke-dasharray="5,2" d="M1081.09,-463.892C1118.26,-488.412 1196.46,-533.388 1270,-533.388 1270,-533.388 1270,-533.388 1809,-533.388 1893.05,-533.388 1964.46,-440.449 1985.63,-409.953"/>
<polygon fill="#9a32cd" stroke="#9a32cd" points="1082.8,-460.825 1072.56,-458.139 1078.89,-466.63 1082.8,-460.825"/>
<text text-anchor="middle" x="1523" y="-536.388" font-family="Helvetica,sans-Serif" font-size="10.00"> wallet</text>
</g>
<!-- Node16 -->
<g id="node15" class="node"><title>Node16</title>
<g id="a_node15"><a xlink:href="class_c_crypto_key_store.html" target="_top" xlink:title="Keystore which keeps the private keys encrypted. ">
<polygon fill="white" stroke="black" points="774,-495.888 774,-514.888 868,-514.888 868,-495.888 774,-495.888"/>
<text text-anchor="middle" x="821" y="-502.888" font-family="Helvetica,sans-Serif" font-size="10.00">CCryptoKeyStore</text>
</a>
</g>
</g>
<!-- Node16&#45;&gt;Node15 -->
<g id="edge20" class="edge"><title>Node16&#45;&gt;Node15</title>
<path fill="none" stroke="midnightblue" d="M877.947,-495.658C909.331,-489.784 949.078,-481.652 984,-472.388 1000.12,-468.113 1017.9,-462.29 1031.88,-457.451"/>
<polygon fill="midnightblue" stroke="midnightblue" points="877.266,-492.225 868.068,-497.484 878.538,-499.108 877.266,-492.225"/>
</g>
<!-- Node17 -->
<g id="node16" class="node"><title>Node17</title>
<g id="a_node16"><a xlink:href="class_c_basic_key_store.html" target="_top" xlink:title="Basic key store, that keeps keys in an address&#45;&gt;secret map. ">
<polygon fill="white" stroke="black" points="640.5,-495.888 640.5,-514.888 729.5,-514.888 729.5,-495.888 640.5,-495.888"/>
<text text-anchor="middle" x="685" y="-502.888" font-family="Helvetica,sans-Serif" font-size="10.00">CBasicKeyStore</text>
</a>
</g>
</g>
<!-- Node17&#45;&gt;Node16 -->
<g id="edge21" class="edge"><title>Node17&#45;&gt;Node16</title>
<path fill="none" stroke="midnightblue" d="M739.727,-505.388C751.061,-505.388 762.923,-505.388 773.945,-505.388"/>
<polygon fill="midnightblue" stroke="midnightblue" points="739.506,-501.888 729.506,-505.388 739.506,-508.888 739.506,-501.888"/>
</g>
<!-- Node18 -->
<g id="node17" class="node"><title>Node18</title>
<g id="a_node17"><a xlink:href="class_c_key_store.html" target="_top" xlink:title="A virtual base class for key stores. ">
<polygon fill="white" stroke="black" points="498.5,-507.888 498.5,-526.888 563.5,-526.888 563.5,-507.888 498.5,-507.888"/>
<text text-anchor="middle" x="531" y="-514.888" font-family="Helvetica,sans-Serif" font-size="10.00">CKeyStore</text>
</a>
</g>
</g>
<!-- Node18&#45;&gt;Node17 -->
<g id="edge22" class="edge"><title>Node18&#45;&gt;Node17</title>
<path fill="none" stroke="midnightblue" d="M573.931,-514.078C594.587,-512.447 619.477,-510.482 640.359,-508.834"/>
<polygon fill="midnightblue" stroke="midnightblue" points="573.558,-510.597 563.864,-514.873 574.109,-517.575 573.558,-510.597"/>
</g>
<!-- Node19 -->
<g id="node18" class="node"><title>Node19</title>
<g id="a_node18"><a xlink:href="class_c_critical_section.html" target="_top" xlink:title="Wrapped boost mutex: supports recursive locking, but no waiting TODO: We should move away from using ...">
<polygon fill="white" stroke="black" points="314,-517.888 314,-536.888 402,-536.888 402,-517.888 314,-517.888"/>
<text text-anchor="middle" x="358" y="-524.888" font-family="Helvetica,sans-Serif" font-size="10.00">CCriticalSection</text>
</a>
</g>
</g>
<!-- Node19&#45;&gt;Node15 -->
<g id="edge34" class="edge"><title>Node19&#45;&gt;Node15</title>
<path fill="none" stroke="#9a32cd" stroke-dasharray="5,2" d="M405.897,-539.276C440.069,-546.904 487.607,-555.388 530,-555.388 530,-555.388 530,-555.388 822,-555.388 915.244,-555.388 1012.1,-484.752 1045.15,-458.263"/>
<polygon fill="#9a32cd" stroke="#9a32cd" points="406.271,-535.771 395.742,-536.946 404.706,-542.593 406.271,-535.771"/>
<text text-anchor="middle" x="685" y="-558.388" font-family="Helvetica,sans-Serif" font-size="10.00"> cs_wallet</text>
</g>
<!-- Node19&#45;&gt;Node18 -->
<g id="edge23" class="edge"><title>Node19&#45;&gt;Node18</title>
<path fill="none" stroke="#9a32cd" stroke-dasharray="5,2" d="M412.293,-524.272C440.574,-522.618 474.362,-520.642 498.468,-519.232"/>
<polygon fill="#9a32cd" stroke="#9a32cd" points="411.929,-520.787 402.151,-524.865 412.338,-527.775 411.929,-520.787"/>
<text text-anchor="middle" x="450" y="-526.388" font-family="Helvetica,sans-Serif" font-size="10.00"> cs_KeyStore</text>
</g>
<!-- Node22 -->
<g id="node21" class="node"><title>Node22</title>
<g id="a_node21"><a xlink:href="class_c_h_d_chain.html" target="_top" xlink:title="CHDChain">
<polygon fill="white" stroke="black" points="498.5,-452.888 498.5,-471.888 563.5,-471.888 563.5,-452.888 498.5,-452.888"/>
<text text-anchor="middle" x="531" y="-459.888" font-family="Helvetica,sans-Serif" font-size="10.00">CHDChain</text>
</a>
</g>
</g>
<!-- Node19&#45;&gt;Node22 -->
<g id="edge29" class="edge"><title>Node19&#45;&gt;Node22</title>
<path fill="none" stroke="#9a32cd" stroke-dasharray="5,2" d="M393.932,-514.11C426.938,-501.564 475.637,-483.053 504.943,-471.913"/>
<polygon fill="#9a32cd" stroke="#9a32cd" points="392.335,-510.973 384.232,-517.797 394.823,-517.516 392.335,-510.973"/>
<text text-anchor="middle" x="450" y="-505.388" font-family="Helvetica,sans-Serif" font-size="10.00"> cs_accounts</text>
</g>
<!-- Node20 -->
<g id="node19" class="node"><title>Node20</title>
<polygon fill="white" stroke="#bfbfbf" points="158.5,-512.388 158.5,-542.388 275.5,-542.388 275.5,-512.388 158.5,-512.388"/>
<text text-anchor="start" x="166.5" y="-530.388" font-family="Helvetica,sans-Serif" font-size="10.00">AnnotatedMixin&lt; boost</text>
<text text-anchor="middle" x="217" y="-519.388" font-family="Helvetica,sans-Serif" font-size="10.00">::recursive_mutex &gt;</text>
</g>
<!-- Node20&#45;&gt;Node19 -->
<g id="edge24" class="edge"><title>Node20&#45;&gt;Node19</title>
<path fill="none" stroke="midnightblue" d="M285.927,-527.388C295.358,-527.388 304.827,-527.388 313.64,-527.388"/>
<polygon fill="midnightblue" stroke="midnightblue" points="285.741,-523.888 275.741,-527.388 285.741,-530.888 285.741,-523.888"/>
</g>
<!-- Node21 -->
<g id="node20" class="node"><title>Node21</title>
<polygon fill="white" stroke="#bfbfbf" points="0.5,-517.888 0.5,-536.888 119.5,-536.888 119.5,-517.888 0.5,-517.888"/>
<text text-anchor="middle" x="60" y="-524.888" font-family="Helvetica,sans-Serif" font-size="10.00">boost::recursive_mutex</text>
</g>
<!-- Node21&#45;&gt;Node20 -->
<g id="edge25" class="edge"><title>Node21&#45;&gt;Node20</title>
<path fill="none" stroke="midnightblue" d="M129.834,-527.388C139.356,-527.388 149.055,-527.388 158.346,-527.388"/>
<polygon fill="midnightblue" stroke="midnightblue" points="129.599,-523.888 119.599,-527.388 129.599,-530.888 129.599,-523.888"/>
</g>
<!-- Node22&#45;&gt;Node16 -->
<g id="edge30" class="edge"><title>Node22&#45;&gt;Node16</title>
<path fill="none" stroke="#9a32cd" stroke-dasharray="5,2" d="M573.53,-462.042C613.87,-462.424 676.667,-464.929 730,-475.388 742.283,-477.797 771.709,-487.922 793.59,-495.75"/>
<polygon fill="#9a32cd" stroke="#9a32cd" points="573.546,-458.542 563.526,-461.986 573.507,-465.542 573.546,-458.542"/>
<text text-anchor="middle" x="685" y="-478.388" font-family="Helvetica,sans-Serif" font-size="10.00"> cryptedHDChain</text>
</g>
<!-- Node22&#45;&gt;Node17 -->
<g id="edge26" class="edge"><title>Node22&#45;&gt;Node17</title>
<path fill="none" stroke="#9a32cd" stroke-dasharray="5,2" d="M573.795,-474.212C597.884,-481.026 627.765,-489.48 650.333,-495.864"/>
<polygon fill="#9a32cd" stroke="#9a32cd" points="574.439,-470.757 563.864,-471.403 572.534,-477.493 574.439,-470.757"/>
<text text-anchor="middle" x="602" y="-491.388" font-family="Helvetica,sans-Serif" font-size="10.00"> hdChain</text>
</g>
<!-- Node23 -->
<g id="node22" class="node"><title>Node23</title>
<g id="a_node22"><a xlink:href="classuint256.html" target="_top" xlink:title="256&#45;bit opaque blob. ">
<polygon fill="white" stroke="black" points="334,-449.888 334,-468.888 382,-468.888 382,-449.888 334,-449.888"/>
<text text-anchor="middle" x="358" y="-456.888" font-family="Helvetica,sans-Serif" font-size="10.00">uint256</text>
</a>
</g>
</g>
<!-- Node23&#45;&gt;Node22 -->
<g id="edge27" class="edge"><title>Node23&#45;&gt;Node22</title>
<path fill="none" stroke="#9a32cd" stroke-dasharray="5,2" d="M392.327,-459.38C416.633,-459.443 450.363,-459.673 480,-460.388 485.906,-460.531 492.202,-460.739 498.264,-460.967"/>
<polygon fill="#9a32cd" stroke="#9a32cd" points="392.206,-455.88 382.2,-459.362 392.194,-462.88 392.206,-455.88"/>
<text text-anchor="middle" x="450" y="-463.388" font-family="Helvetica,sans-Serif" font-size="10.00"> id</text>
</g>
<!-- Node24 -->
<g id="node23" class="node"><title>Node24</title>
<g id="a_node23"><a xlink:href="classbase__blob.html" target="_top" xlink:title="base_blob\&lt; 256 \&gt;">
<polygon fill="white" stroke="black" points="169.5,-449.888 169.5,-468.888 264.5,-468.888 264.5,-449.888 169.5,-449.888"/>
<text text-anchor="middle" x="217" y="-456.888" font-family="Helvetica,sans-Serif" font-size="10.00">base_blob&lt; 256 &gt;</text>
</a>
</g>
</g>
<!-- Node24&#45;&gt;Node23 -->
<g id="edge28" class="edge"><title>Node24&#45;&gt;Node23</title>
<path fill="none" stroke="midnightblue" d="M274.928,-459.388C295.493,-459.388 317.576,-459.388 333.65,-459.388"/>
<polygon fill="midnightblue" stroke="midnightblue" points="274.672,-455.888 264.672,-459.388 274.672,-462.888 274.672,-455.888"/>
</g>
<!-- Node25 -->
<g id="node24" class="node"><title>Node25</title>
<g id="a_node24"><a xlink:href="class_c_validation_interface.html" target="_top" xlink:title="CValidationInterface">
<polygon fill="white" stroke="black" points="768.5,-457.888 768.5,-476.888 873.5,-476.888 873.5,-457.888 768.5,-457.888"/>
<text text-anchor="middle" x="821" y="-464.888" font-family="Helvetica,sans-Serif" font-size="10.00">CValidationInterface</text>
</a>
</g>
</g>
<!-- Node25&#45;&gt;Node15 -->
<g id="edge31" class="edge"><title>Node25&#45;&gt;Node15</title>
<path fill="none" stroke="midnightblue" d="M883.626,-462.406C931.989,-458.496 996.815,-453.254 1031.9,-450.418"/>
<polygon fill="midnightblue" stroke="midnightblue" points="883.257,-458.924 873.572,-463.219 883.821,-465.901 883.257,-458.924"/>
</g>
<!-- Node26 -->
<g id="node25" class="node"><title>Node26</title>
<g id="a_node25"><a xlink:href="class_c_fee_rate.html" target="_top" xlink:title="Fee rate in satoshis per kilobyte: CAmount / kB. ">
<polygon fill="white" stroke="black" points="790,-419.888 790,-438.888 852,-438.888 852,-419.888 790,-419.888"/>
<text text-anchor="middle" x="821" y="-426.888" font-family="Helvetica,sans-Serif" font-size="10.00">CFeeRate</text>
</a>
</g>
</g>
<!-- Node26&#45;&gt;Node15 -->
<g id="edge32" class="edge"><title>Node26&#45;&gt;Node15</title>
<path fill="none" stroke="#9a32cd" stroke-dasharray="5,2" d="M862.135,-426.566C895.028,-424.929 942.716,-424.104 984,-429.388 1000.24,-431.467 1018.02,-436.046 1031.97,-440.187"/>
<polygon fill="#9a32cd" stroke="#9a32cd" points="861.797,-423.079 852.003,-427.119 862.179,-430.069 861.797,-423.079"/>
<text text-anchor="middle" x="938" y="-443.388" font-family="Helvetica,sans-Serif" font-size="10.00"> minTxFee</text>
<text text-anchor="middle" x="938" y="-432.388" font-family="Helvetica,sans-Serif" font-size="10.00">fallbackFee</text>
</g>
<!-- Node27 -->
<g id="node26" class="node"><title>Node27</title>
<g id="a_node26"><a xlink:href="class_c_pub_key.html" target="_top" xlink:title="An encapsulated public key. ">
<polygon fill="white" stroke="black" points="791.5,-381.888 791.5,-400.888 850.5,-400.888 850.5,-381.888 791.5,-381.888"/>
<text text-anchor="middle" x="821" y="-388.888" font-family="Helvetica,sans-Serif" font-size="10.00">CPubKey</text>
</a>
</g>
</g>
<!-- Node27&#45;&gt;Node15 -->
<g id="edge33" class="edge"><title>Node27&#45;&gt;Node15</title>
<path fill="none" stroke="#9a32cd" stroke-dasharray="5,2" d="M860.981,-392.021C894.311,-393.485 943.213,-397.845 984,-410.388 1005.58,-417.024 1028.33,-429.944 1042.58,-438.863"/>
<polygon fill="#9a32cd" stroke="#9a32cd" points="860.859,-388.514 850.736,-391.641 860.599,-395.509 860.859,-388.514"/>
<text text-anchor="middle" x="938" y="-413.388" font-family="Helvetica,sans-Serif" font-size="10.00"> vchDefaultKey</text>
</g>
<!-- Node28 -->
<g id="node27" class="node"><title>Node28</title>
<g id="a_node27"><a xlink:href="class_c_wallet_d_b.html" target="_top" xlink:title="Access to the wallet database. ">
<polygon fill="white" stroke="black" points="788,-343.888 788,-362.888 854,-362.888 854,-343.888 788,-343.888"/>
<text text-anchor="middle" x="821" y="-350.888" font-family="Helvetica,sans-Serif" font-size="10.00">CWalletDB</text>
</a>
</g>
</g>
<!-- Node28&#45;&gt;Node15 -->
<g id="edge35" class="edge"><title>Node28&#45;&gt;Node15</title>
<path fill="none" stroke="#9a32cd" stroke-dasharray="5,2" d="M864.176,-353.419C898.137,-354.987 946.262,-360.777 984,-379.388 1012.78,-393.582 1037.9,-423.018 1049.75,-438.453"/>
<polygon fill="#9a32cd" stroke="#9a32cd" points="864.238,-349.919 854.119,-353.058 863.987,-356.914 864.238,-349.919"/>
<text text-anchor="middle" x="938" y="-382.388" font-family="Helvetica,sans-Serif" font-size="10.00"> pwalletdbEncryption</text>
</g>
<!-- Node29 -->
<g id="node28" class="node"><title>Node29</title>
<g id="a_node28"><a xlink:href="class_c_d_b.html" target="_top" xlink:title="RAII class that provides access to a Berkeley database. ">
<polygon fill="white" stroke="black" points="666,-343.888 666,-362.888 704,-362.888 704,-343.888 666,-343.888"/>
<text text-anchor="middle" x="685" y="-350.888" font-family="Helvetica,sans-Serif" font-size="10.00">CDB</text>
</a>
</g>
</g>
<!-- Node29&#45;&gt;Node28 -->
<g id="edge36" class="edge"><title>Node29&#45;&gt;Node28</title>
<path fill="none" stroke="midnightblue" d="M714.211,-353.388C735.737,-353.388 765.412,-353.388 787.856,-353.388"/>
<polygon fill="midnightblue" stroke="midnightblue" points="714.072,-349.888 704.072,-353.388 714.072,-356.888 714.072,-349.888"/>
</g>
<!-- Node30&#45;&gt;Node12 -->
<g id="edge40" class="edge"><title>Node30&#45;&gt;Node12</title>
<path fill="none" stroke="#9a32cd" stroke-dasharray="5,2" d="M1775.6,-352.917C1759.26,-346.307 1738.81,-338.654 1720,-333.388 1666.02,-318.277 1650.69,-322.659 1596,-310.388 1583.51,-307.587 1569.91,-304.11 1557.93,-300.9"/>
<polygon fill="#9a32cd" stroke="#9a32cd" points="1774.62,-356.297 1785.2,-356.868 1777.28,-349.824 1774.62,-356.297"/>
<text text-anchor="middle" x="1658" y="-336.388" font-family="Helvetica,sans-Serif" font-size="10.00"> addressTableModel</text>
</g>
<!-- Node30&#45;&gt;Node31 -->
<g id="edge43" class="edge"><title>Node30&#45;&gt;Node31</title>
<path fill="none" stroke="#9a32cd" stroke-dasharray="5,2" d="M1870.01,-377.723C1894.8,-382.33 1922.97,-387.563 1945.99,-391.839"/>
<polygon fill="#9a32cd" stroke="#9a32cd" points="1870.45,-374.245 1859.98,-375.859 1869.17,-381.127 1870.45,-374.245"/>
<text text-anchor="middle" x="1912" y="-392.388" font-family="Helvetica,sans-Serif" font-size="10.00"> parent</text>
</g>
<!-- Node31&#45;&gt;Node30 -->
<g id="edge42" class="edge"><title>Node31&#45;&gt;Node30</title>
<path fill="none" stroke="#9a32cd" stroke-dasharray="5,2" d="M1969.32,-385.379C1957.52,-378.455 1942.56,-370.985 1928,-367.388 1906.04,-361.962 1881.09,-360.994 1859.73,-361.664"/>
<polygon fill="#9a32cd" stroke="#9a32cd" points="1967.68,-388.479 1978.03,-390.731 1971.34,-382.515 1967.68,-388.479"/>
<text text-anchor="middle" x="1912" y="-370.388" font-family="Helvetica,sans-Serif" font-size="10.00"> priv</text>
</g>
<!-- Node32&#45;&gt;Node12 -->
<g id="edge47" class="edge"><title>Node32&#45;&gt;Node12</title>
<path fill="none" stroke="#9a32cd" stroke-dasharray="5,2" d="M1745.19,-250.746C1688.01,-261.253 1605.07,-276.493 1558.7,-285.012"/>
<polygon fill="#9a32cd" stroke="#9a32cd" points="1745.99,-254.157 1755.2,-248.907 1744.73,-247.272 1745.99,-254.157"/>
<text text-anchor="middle" x="1658" y="-281.388" font-family="Helvetica,sans-Serif" font-size="10.00"> recentRequestsTableModel</text>
</g>
</g>
</svg>
        <g id="navigator" transform="translate(0 0)" fill="#404254">
                <rect fill="#f2f5e9" fill-opacity="0.5" stroke="#606060" stroke-width=".5" x="0" y="0" width="60" height="60"/>
                <use id="zoomplus" xlink:href="#zoomPlus" x="17" y="9" onmousedown="handleZoom(evt,'in')"/>
                <use id="zoomminus" xlink:href="#zoomMin" x="42" y="9" onmousedown="handleZoom(evt,'out')"/>
                <use id="reset" xlink:href="#resetDef" x="30" y="36" onmousedown="handleReset()"/>
                <g id="arrowUp" xlink:href="#dirArrow" transform="translate(30 24)" onmousedown="handlePan(0,-1)">
                  <use xlink:href="#rim" fill="#404040">
                        <set attributeName="fill" to="#808080" begin="arrowUp.mouseover" end="arrowUp.mouseout"/>
                  </use>
                  <path fill="none" stroke="white" stroke-width="1.5" d="M0,-3.0v7 M-2.5,-0.5L0,-3.0L2.5,-0.5"/>
                </g>
                <g id="arrowRight" xlink:href="#dirArrow" transform="rotate(90) translate(36 -43)" onmousedown="handlePan(1,0)">
                  <use xlink:href="#rim" fill="#404040">
                        <set attributeName="fill" to="#808080" begin="arrowRight.mouseover" end="arrowRight.mouseout"/>
                  </use>
                  <path fill="none" stroke="white" stroke-width="1.5" d="M0,-3.0v7 M-2.5,-0.5L0,-3.0L2.5,-0.5"/>
                </g>
                <g id="arrowDown" xlink:href="#dirArrow" transform="rotate(180) translate(-30 -48)" onmousedown="handlePan(0,1)">
                  <use xlink:href="#rim" fill="#404040">
                        <set attributeName="fill" to="#808080" begin="arrowDown.mouseover" end="arrowDown.mouseout"/>
                  </use>
                  <path fill="none" stroke="white" stroke-width="1.5" d="M0,-3.0v7 M-2.5,-0.5L0,-3.0L2.5,-0.5"/>
                </g>
                <g id="arrowLeft" xlink:href="#dirArrow" transform="rotate(270) translate(-36 17)" onmousedown="handlePan(-1,0)">
                  <use xlink:href="#rim" fill="#404040">
                        <set attributeName="fill" to="#808080" begin="arrowLeft.mouseover" end="arrowLeft.mouseout"/>
                  </use>
                  <path fill="none" stroke="white" stroke-width="1.5" d="M0,-3.0v7 M-2.5,-0.5L0,-3.0L2.5,-0.5"/>
                </g>
        </g>
        <svg viewBox="0 0 15 15" width="100%" height="30px" preserveAspectRatio="xMaxYMin meet">
         <g id="arrow_out" transform="scale(0.3 0.3)">
          <a xlink:href="class_send_coins_dialog__coll__graph_org.svg" target="_base">
           <rect id="button" ry="5" rx="5" y="6" x="6" height="38" width="38"
                fill="#f2f5e9" fill-opacity="0.5" stroke="#606060" stroke-width="1.0"/>
           <path id="arrow"
             d="M 11.500037,31.436501 C 11.940474,20.09759 22.043105,11.32322 32.158766,21.979434 L 37.068811,17.246167 C 37.068811,17.246167 37.088388,32 37.088388,32 L 22.160133,31.978069 C 22.160133,31.978069 26.997745,27.140456 26.997745,27.140456 C 18.528582,18.264221 13.291696,25.230495 11.500037,31.436501 z"
             style="fill:#404040;"/>
          </a>
         </g>
        </svg>
</svg>
