<?xml version="1.0" encoding="UTF-8" standalone="no"?>
<!DOCTYPE svg PUBLIC "-//W3C//DTD SVG 1.1//EN"
 "http://www.w3.org/Graphics/SVG/1.1/DTD/svg11.dtd">
<!-- Generated by graphviz version 2.36.0 (20140111.2315)
 -->
<!-- Title: CPrivateSendServer Pages: 1 -->
<svg width="297pt" height="84pt"
 viewBox="0.00 0.00 297.00 84.00" xmlns="http://www.w3.org/2000/svg" xmlns:xlink="http://www.w3.org/1999/xlink">
<g id="graph0" class="graph" transform="scale(1 1) rotate(0) translate(4 80)">
<title>CPrivateSendServer</title>
<polygon fill="white" stroke="none" points="-4,4 -4,-80 293,-80 293,4 -4,4"/>
<!-- Node0 -->
<g id="node1" class="node"><title>Node0</title>
<polygon fill="#bfbfbf" stroke="black" points="91,-0.5 91,-19.5 197,-19.5 197,-0.5 91,-0.5"/>
<text text-anchor="middle" x="144" y="-7.5" font-family="Helvetica,sans-Serif" font-size="10.00">CPrivateSendServer</text>
</g>
<!-- Node1 -->
<g id="node2" class="node"><title>Node1</title>
<g id="a_node2"><a xlink:href="class_c_private_send_base_session.html" target="_top" xlink:title="CPrivateSendBaseSession">
<polygon fill="white" stroke="black" points="-0.5,-56.5 -0.5,-75.5 134.5,-75.5 134.5,-56.5 -0.5,-56.5"/>
<text text-anchor="middle" x="67" y="-63.5" font-family="Helvetica,sans-Serif" font-size="10.00">CPrivateSendBaseSession</text>
</a>
</g>
</g>
<!-- Node1&#45;&gt;Node0 -->
<g id="edge1" class="edge"><title>Node1&#45;&gt;Node0</title>
<path fill="none" stroke="midnightblue" d="M87.901,-50.3422C101.911,-40.5169 119.883,-27.9132 131.659,-19.6545"/>
<polygon fill="midnightblue" stroke="midnightblue" points="85.5491,-47.7166 79.3714,-56.324 89.5683,-53.4477 85.5491,-47.7166"/>
</g>
<!-- Node2 -->
<g id="node3" class="node"><title>Node2</title>
<g id="a_node3"><a xlink:href="class_c_private_send_base_manager.html" target="_top" xlink:title="CPrivateSendBaseManager">
<polygon fill="white" stroke="black" points="152.5,-56.5 152.5,-75.5 289.5,-75.5 289.5,-56.5 152.5,-56.5"/>
<text text-anchor="middle" x="221" y="-63.5" font-family="Helvetica,sans-Serif" font-size="10.00">CPrivateSendBaseManager</text>
</a>
</g>
</g>
<!-- Node2&#45;&gt;Node0 -->
<g id="edge2" class="edge"><title>Node2&#45;&gt;Node0</title>
<path fill="none" stroke="midnightblue" d="M200.099,-50.3422C186.089,-40.5169 168.117,-27.9132 156.341,-19.6545"/>
<polygon fill="midnightblue" stroke="midnightblue" points="198.432,-53.4477 208.629,-56.324 202.451,-47.7166 198.432,-53.4477"/>
</g>
</g>
</svg>
