<?xml version="1.0" encoding="UTF-8" standalone="no"?>
<!DOCTYPE svg PUBLIC "-//W3C//DTD SVG 1.1//EN"
 "http://www.w3.org/Graphics/SVG/1.1/DTD/svg11.dtd">
<!-- Generated by graphviz version 2.36.0 (20140111.2315)
 -->
<!-- Title: CuckooCache::cache&lt; Element, Hash &gt; Pages: 1 -->
<svg width="145pt" height="120pt"
 viewBox="0.00 0.00 145.00 120.00" xmlns="http://www.w3.org/2000/svg" xmlns:xlink="http://www.w3.org/1999/xlink">
<g id="graph0" class="graph" transform="scale(1 1) rotate(0) translate(4 116)">
<title>CuckooCache::cache&lt; Element, Hash &gt;</title>
<polygon fill="white" stroke="none" points="-4,4 -4,-116 141,-116 141,4 -4,4"/>
<!-- Node1 -->
<g id="node1" class="node"><title>Node1</title>
<polygon fill="#bfbfbf" stroke="black" points="10.5,-1 10.5,-31 121.5,-31 121.5,-1 10.5,-1"/>
<text text-anchor="start" x="18.5" y="-19" font-family="Helvetica,sans-Serif" font-size="10.00">CuckooCache::cache</text>
<text text-anchor="middle" x="66" y="-8" font-family="Helvetica,sans-Serif" font-size="10.00">&lt; Element, Hash &gt;</text>
</g>
<!-- Node2 -->
<g id="node2" class="node"><title>Node2</title>
<g id="a_node2"><a xlink:href="class_cuckoo_cache_1_1bit__packed__atomic__flags.html" target="_top" xlink:title="bit_packed_atomic_flags implements a container for garbage collection flags that is only thread unsaf...">
<polygon fill="white" stroke="black" points="0,-81 0,-111 132,-111 132,-81 0,-81"/>
<text text-anchor="start" x="8" y="-99" font-family="Helvetica,sans-Serif" font-size="10.00">CuckooCache::bit_packed</text>
<text text-anchor="middle" x="66" y="-88" font-family="Helvetica,sans-Serif" font-size="10.00">_atomic_flags</text>
</a>
</g>
</g>
<!-- Node2&#45;&gt;Node1 -->
<g id="edge1" class="edge"><title>Node2&#45;&gt;Node1</title>
<path fill="none" stroke="#9a32cd" stroke-dasharray="5,2" d="M66,-70.5644C66,-57.6243 66,-42.1862 66,-31.2157"/>
<polygon fill="#9a32cd" stroke="#9a32cd" points="62.5001,-70.6936 66,-80.6936 69.5001,-70.6936 62.5001,-70.6936"/>
<text text-anchor="middle" x="101.5" y="-53.5" font-family="Helvetica,sans-Serif" font-size="10.00"> collection_flags</text>
</g>
</g>
</svg>
