<?xml version="1.0" encoding="UTF-8" standalone="no"?>
<!DOCTYPE svg PUBLIC "-//W3C//DTD SVG 1.1//EN"
 "http://www.w3.org/Graphics/SVG/1.1/DTD/svg11.dtd">
<!-- Generated by graphviz version 2.36.0 (20140111.2315)
 -->
<!-- Title: CBlock Pages: 1 -->
<svg width="127pt" height="222pt"
 viewBox="0.00 0.00 127.00 222.00" xmlns="http://www.w3.org/2000/svg" xmlns:xlink="http://www.w3.org/1999/xlink">
<g id="graph0" class="graph" transform="scale(1 1) rotate(0) translate(4 218)">
<title>CBlock</title>
<polygon fill="white" stroke="none" points="-4,4 -4,-218 123,-218 123,4 -4,4"/>
<!-- Node2 -->
<g id="node1" class="node"><title>Node2</title>
<polygon fill="#bfbfbf" stroke="black" points="22.5,-0.5 22.5,-19.5 71.5,-19.5 71.5,-0.5 22.5,-0.5"/>
<text text-anchor="middle" x="47" y="-7.5" font-family="Helvetica,sans-Serif" font-size="10.00">CBlock</text>
</g>
<!-- Node3 -->
<g id="node2" class="node"><title>Node3</title>
<g id="a_node2"><a xlink:href="class_c_block_header.html" target="_top" xlink:title="Nodes collect new transactions into a block, hash them into a hash tree, and scan through nonce value...">
<polygon fill="white" stroke="black" points="7,-58.5 7,-77.5 87,-77.5 87,-58.5 7,-58.5"/>
<text text-anchor="middle" x="47" y="-65.5" font-family="Helvetica,sans-Serif" font-size="10.00">CBlockHeader</text>
</a>
</g>
</g>
<!-- Node3&#45;&gt;Node2 -->
<g id="edge1" class="edge"><title>Node3&#45;&gt;Node2</title>
<path fill="none" stroke="midnightblue" d="M47,-47.953C47,-38.2875 47,-27.0312 47,-19.5052"/>
<polygon fill="midnightblue" stroke="midnightblue" points="43.5001,-48.25 47,-58.25 50.5001,-48.25 43.5001,-48.25"/>
</g>
<!-- Node4 -->
<g id="node3" class="node"><title>Node4</title>
<g id="a_node3"><a xlink:href="classuint256.html" target="_top" xlink:title="256&#45;bit opaque blob. ">
<polygon fill="white" stroke="black" points="23,-136.5 23,-155.5 71,-155.5 71,-136.5 23,-136.5"/>
<text text-anchor="middle" x="47" y="-143.5" font-family="Helvetica,sans-Serif" font-size="10.00">uint256</text>
</a>
</g>
</g>
<!-- Node4&#45;&gt;Node3 -->
<g id="edge2" class="edge"><title>Node4&#45;&gt;Node3</title>
<path fill="none" stroke="#9a32cd" stroke-dasharray="5,2" d="M47,-126.224C47,-110.697 47,-89.3582 47,-77.6165"/>
<polygon fill="#9a32cd" stroke="#9a32cd" points="43.5001,-126.282 47,-136.282 50.5001,-126.282 43.5001,-126.282"/>
<text text-anchor="middle" x="83" y="-110" font-family="Helvetica,sans-Serif" font-size="10.00"> hashPrevBlock</text>
<text text-anchor="middle" x="83" y="-99" font-family="Helvetica,sans-Serif" font-size="10.00">hashMerkleRoot</text>
</g>
<!-- Node5 -->
<g id="node4" class="node"><title>Node5</title>
<g id="a_node4"><a xlink:href="classbase__blob.html" target="_top" xlink:title="base_blob\&lt; 256 \&gt;">
<polygon fill="white" stroke="black" points="-0.5,-194.5 -0.5,-213.5 94.5,-213.5 94.5,-194.5 -0.5,-194.5"/>
<text text-anchor="middle" x="47" y="-201.5" font-family="Helvetica,sans-Serif" font-size="10.00">base_blob&lt; 256 &gt;</text>
</a>
</g>
</g>
<!-- Node5&#45;&gt;Node4 -->
<g id="edge3" class="edge"><title>Node5&#45;&gt;Node4</title>
<path fill="none" stroke="midnightblue" d="M47,-183.953C47,-174.287 47,-163.031 47,-155.505"/>
<polygon fill="midnightblue" stroke="midnightblue" points="43.5001,-184.25 47,-194.25 50.5001,-184.25 43.5001,-184.25"/>
</g>
</g>
</svg>
