<?xml version="1.0" encoding="UTF-8" standalone="no"?>
<!DOCTYPE svg PUBLIC "-//W3C//DTD SVG 1.1//EN"
 "http://www.w3.org/Graphics/SVG/1.1/DTD/svg11.dtd">
<!-- Generated by graphviz version 2.36.0 (20140111.2315)
 -->
<!-- Title: CSimplifiedMNListDiff Pages: 1 -->
<svg width="215pt" height="164pt"
 viewBox="0.00 0.00 215.00 164.00" xmlns="http://www.w3.org/2000/svg" xmlns:xlink="http://www.w3.org/1999/xlink">
<g id="graph0" class="graph" transform="scale(1 1) rotate(0) translate(4 160)">
<title>CSimplifiedMNListDiff</title>
<polygon fill="white" stroke="none" points="-4,4 -4,-160 211,-160 211,4 -4,4"/>
<!-- Node1 -->
<g id="node1" class="node"><title>Node1</title>
<polygon fill="#bfbfbf" stroke="black" points="41,-0.5 41,-19.5 155,-19.5 155,-0.5 41,-0.5"/>
<text text-anchor="middle" x="98" y="-7.5" font-family="Helvetica,sans-Serif" font-size="10.00">CSimplifiedMNListDiff</text>
</g>
<!-- Node2 -->
<g id="node2" class="node"><title>Node2</title>
<g id="a_node2"><a xlink:href="class_c_partial_merkle_tree.html" target="_top" xlink:title="Data structure that represents a partial merkle tree. ">
<polygon fill="white" stroke="black" points="-0.5,-78.5 -0.5,-97.5 100.5,-97.5 100.5,-78.5 -0.5,-78.5"/>
<text text-anchor="middle" x="50" y="-85.5" font-family="Helvetica,sans-Serif" font-size="10.00">CPartialMerkleTree</text>
</a>
</g>
</g>
<!-- Node2&#45;&gt;Node1 -->
<g id="edge1" class="edge"><title>Node2&#45;&gt;Node1</title>
<path fill="none" stroke="#9a32cd" stroke-dasharray="5,2" d="M46.1902,-68.1638C45.232,-58.5134 45.7004,-46.9445 51,-38 55.8928,-29.7421 64.348,-23.7784 72.75,-19.5917"/>
<polygon fill="#9a32cd" stroke="#9a32cd" points="42.7768,-68.9927 47.7664,-78.3391 49.6943,-67.9211 42.7768,-68.9927"/>
<text text-anchor="middle" x="88" y="-46.5" font-family="Helvetica,sans-Serif" font-size="10.00"> cbTxMerkleTree</text>
</g>
<!-- Node3 -->
<g id="node3" class="node"><title>Node3</title>
<g id="a_node3"><a xlink:href="classuint256.html" target="_top" xlink:title="256&#45;bit opaque blob. ">
<polygon fill="white" stroke="black" points="123,-78.5 123,-97.5 171,-97.5 171,-78.5 123,-78.5"/>
<text text-anchor="middle" x="147" y="-85.5" font-family="Helvetica,sans-Serif" font-size="10.00">uint256</text>
</a>
</g>
</g>
<!-- Node3&#45;&gt;Node1 -->
<g id="edge2" class="edge"><title>Node3&#45;&gt;Node1</title>
<path fill="none" stroke="#9a32cd" stroke-dasharray="5,2" d="M140.663,-68.7987C136.877,-59.1941 131.531,-47.4712 125,-38 120.333,-31.2329 113.853,-24.6867 108.411,-19.7351"/>
<polygon fill="#9a32cd" stroke="#9a32cd" points="137.384,-70.0223 144.141,-78.1824 143.947,-67.5893 137.384,-70.0223"/>
<text text-anchor="middle" x="172" y="-52" font-family="Helvetica,sans-Serif" font-size="10.00"> blockHash</text>
<text text-anchor="middle" x="172" y="-41" font-family="Helvetica,sans-Serif" font-size="10.00">baseBlockHash</text>
</g>
<!-- Node4 -->
<g id="node4" class="node"><title>Node4</title>
<g id="a_node4"><a xlink:href="classbase__blob.html" target="_top" xlink:title="base_blob\&lt; 256 \&gt;">
<polygon fill="white" stroke="black" points="99.5,-136.5 99.5,-155.5 194.5,-155.5 194.5,-136.5 99.5,-136.5"/>
<text text-anchor="middle" x="147" y="-143.5" font-family="Helvetica,sans-Serif" font-size="10.00">base_blob&lt; 256 &gt;</text>
</a>
</g>
</g>
<!-- Node4&#45;&gt;Node3 -->
<g id="edge3" class="edge"><title>Node4&#45;&gt;Node3</title>
<path fill="none" stroke="midnightblue" d="M147,-125.953C147,-116.287 147,-105.031 147,-97.5052"/>
<polygon fill="midnightblue" stroke="midnightblue" points="143.5,-126.25 147,-136.25 150.5,-126.25 143.5,-126.25"/>
</g>
</g>
</svg>
