<?xml version="1.0" encoding="UTF-8" standalone="no"?>
<!DOCTYPE svg PUBLIC "-//W3C//DTD SVG 1.1//EN"
 "http://www.w3.org/Graphics/SVG/1.1/DTD/svg11.dtd">
<!-- Generated by graphviz version 2.36.0 (20140111.2315)
 -->
<!-- Title: CNetFulfilledRequestManager Pages: 1 -->
<svg width="196pt" height="224pt"
 viewBox="0.00 0.00 196.00 224.00" xmlns="http://www.w3.org/2000/svg" xmlns:xlink="http://www.w3.org/1999/xlink">
<g id="graph0" class="graph" transform="scale(1 1) rotate(0) translate(4 220)">
<title>CNetFulfilledRequestManager</title>
<polygon fill="white" stroke="none" points="-4,4 -4,-220 192,-220 192,4 -4,4"/>
<!-- Node1 -->
<g id="node1" class="node"><title>Node1</title>
<polygon fill="#bfbfbf" stroke="black" points="0,-0.5 0,-19.5 148,-19.5 148,-0.5 0,-0.5"/>
<text text-anchor="middle" x="74" y="-7.5" font-family="Helvetica,sans-Serif" font-size="10.00">CNetFulfilledRequestManager</text>
</g>
<!-- Node2 -->
<g id="node2" class="node"><title>Node2</title>
<g id="a_node2"><a xlink:href="class_c_critical_section.html" target="_top" xlink:title="Wrapped boost mutex: supports recursive locking, but no waiting TODO: We should move away from using ...">
<polygon fill="white" stroke="black" points="30,-68.5 30,-87.5 118,-87.5 118,-68.5 30,-68.5"/>
<text text-anchor="middle" x="74" y="-75.5" font-family="Helvetica,sans-Serif" font-size="10.00">CCriticalSection</text>
</a>
</g>
</g>
<!-- Node2&#45;&gt;Node1 -->
<g id="edge1" class="edge"><title>Node2&#45;&gt;Node1</title>
<path fill="none" stroke="#9a32cd" stroke-dasharray="5,2" d="M74,-58.0413C74,-45.4724 74,-29.5631 74,-19.8411"/>
<polygon fill="#9a32cd" stroke="#9a32cd" points="70.5001,-58.3716 74,-68.3717 77.5001,-58.3717 70.5001,-58.3716"/>
<text text-anchor="middle" x="131" y="-41.5" font-family="Helvetica,sans-Serif" font-size="10.00"> cs_mapFulfilledRequests</text>
</g>
<!-- Node3 -->
<g id="node3" class="node"><title>Node3</title>
<polygon fill="white" stroke="#bfbfbf" points="15.5,-127 15.5,-157 132.5,-157 132.5,-127 15.5,-127"/>
<text text-anchor="start" x="23.5" y="-145" font-family="Helvetica,sans-Serif" font-size="10.00">AnnotatedMixin&lt; boost</text>
<text text-anchor="middle" x="74" y="-134" font-family="Helvetica,sans-Serif" font-size="10.00">::recursive_mutex &gt;</text>
</g>
<!-- Node3&#45;&gt;Node2 -->
<g id="edge2" class="edge"><title>Node3&#45;&gt;Node2</title>
<path fill="none" stroke="midnightblue" d="M74,-116.871C74,-106.663 74,-95.4077 74,-87.8419"/>
<polygon fill="midnightblue" stroke="midnightblue" points="70.5001,-116.931 74,-126.931 77.5001,-116.931 70.5001,-116.931"/>
</g>
<!-- Node4 -->
<g id="node4" class="node"><title>Node4</title>
<polygon fill="white" stroke="#bfbfbf" points="14.5,-196.5 14.5,-215.5 133.5,-215.5 133.5,-196.5 14.5,-196.5"/>
<text text-anchor="middle" x="74" y="-203.5" font-family="Helvetica,sans-Serif" font-size="10.00">boost::recursive_mutex</text>
</g>
<!-- Node4&#45;&gt;Node3 -->
<g id="edge3" class="edge"><title>Node4&#45;&gt;Node3</title>
<path fill="none" stroke="midnightblue" d="M74,-186.183C74,-176.886 74,-165.851 74,-157.263"/>
<polygon fill="midnightblue" stroke="midnightblue" points="70.5001,-186.379 74,-196.379 77.5001,-186.379 70.5001,-186.379"/>
</g>
</g>
</svg>
