<?xml version="1.0" encoding="UTF-8" standalone="no"?>
<!DOCTYPE svg PUBLIC "-//W3C//DTD SVG 1.1//EN"
 "http://www.w3.org/Graphics/SVG/1.1/DTD/svg11.dtd">
<!-- Generated by graphviz version 2.36.0 (20140111.2315)
 -->
<!-- Title: CBLSSignature Pages: 1 -->
<svg width="154pt" height="234pt"
 viewBox="0.00 0.00 154.00 234.00" xmlns="http://www.w3.org/2000/svg" xmlns:xlink="http://www.w3.org/1999/xlink">
<g id="graph0" class="graph" transform="scale(1 1) rotate(0) translate(4 230)">
<title>CBLSSignature</title>
<polygon fill="white" stroke="none" points="-4,4 -4,-230 150,-230 150,4 -4,4"/>
<!-- Node2 -->
<g id="node1" class="node"><title>Node2</title>
<polygon fill="#bfbfbf" stroke="black" points="31,-0.5 31,-19.5 115,-19.5 115,-0.5 31,-0.5"/>
<text text-anchor="middle" x="73" y="-7.5" font-family="Helvetica,sans-Serif" font-size="10.00">CBLSSignature</text>
</g>
<!-- Node3 -->
<g id="node2" class="node"><title>Node3</title>
<g id="a_node2"><a xlink:href="class_c_b_l_s_wrapper.html" target="_top" xlink:title="CBLSWrapper\&lt; bls::Insecure\lSignature, BLS_CURVE_SIG\l_SIZE, CBLSSignature \&gt;">
<polygon fill="white" stroke="black" points="0,-58.5 0,-99.5 146,-99.5 146,-58.5 0,-58.5"/>
<text text-anchor="start" x="8" y="-87.5" font-family="Helvetica,sans-Serif" font-size="10.00">CBLSWrapper&lt; bls::Insecure</text>
<text text-anchor="start" x="8" y="-76.5" font-family="Helvetica,sans-Serif" font-size="10.00">Signature, BLS_CURVE_SIG</text>
<text text-anchor="middle" x="73" y="-65.5" font-family="Helvetica,sans-Serif" font-size="10.00">_SIZE, CBLSSignature &gt;</text>
</a>
</g>
</g>
<!-- Node3&#45;&gt;Node2 -->
<g id="edge1" class="edge"><title>Node3&#45;&gt;Node2</title>
<path fill="none" stroke="midnightblue" d="M73,-48.1891C73,-37.8085 73,-26.9496 73,-19.6647"/>
<polygon fill="midnightblue" stroke="midnightblue" points="69.5001,-48.2601 73,-58.2602 76.5001,-48.2602 69.5001,-48.2601"/>
</g>
<!-- Node4 -->
<g id="node3" class="node"><title>Node4</title>
<g id="a_node3"><a xlink:href="classuint256.html" target="_top" xlink:title="256&#45;bit opaque blob. ">
<polygon fill="white" stroke="black" points="49,-148.5 49,-167.5 97,-167.5 97,-148.5 49,-148.5"/>
<text text-anchor="middle" x="73" y="-155.5" font-family="Helvetica,sans-Serif" font-size="10.00">uint256</text>
</a>
</g>
</g>
<!-- Node4&#45;&gt;Node3 -->
<g id="edge2" class="edge"><title>Node4&#45;&gt;Node3</title>
<path fill="none" stroke="#9a32cd" stroke-dasharray="5,2" d="M73,-138.149C73,-126.503 73,-111.581 73,-99.7685"/>
<polygon fill="#9a32cd" stroke="#9a32cd" points="69.5001,-138.465 73,-148.465 76.5001,-138.465 69.5001,-138.465"/>
<text text-anchor="middle" x="102" y="-121.5" font-family="Helvetica,sans-Serif" font-size="10.00"> cachedHash</text>
</g>
<!-- Node5 -->
<g id="node4" class="node"><title>Node5</title>
<g id="a_node4"><a xlink:href="classbase__blob.html" target="_top" xlink:title="base_blob\&lt; 256 \&gt;">
<polygon fill="white" stroke="black" points="25.5,-206.5 25.5,-225.5 120.5,-225.5 120.5,-206.5 25.5,-206.5"/>
<text text-anchor="middle" x="73" y="-213.5" font-family="Helvetica,sans-Serif" font-size="10.00">base_blob&lt; 256 &gt;</text>
</a>
</g>
</g>
<!-- Node5&#45;&gt;Node4 -->
<g id="edge3" class="edge"><title>Node5&#45;&gt;Node4</title>
<path fill="none" stroke="midnightblue" d="M73,-195.953C73,-186.287 73,-175.031 73,-167.505"/>
<polygon fill="midnightblue" stroke="midnightblue" points="69.5001,-196.25 73,-206.25 76.5001,-196.25 69.5001,-196.25"/>
</g>
</g>
</svg>
