<?xml version="1.0" encoding="UTF-8" standalone="no"?>
<!DOCTYPE svg PUBLIC "-//W3C//DTD SVG 1.1//EN"
 "http://www.w3.org/Graphics/SVG/1.1/DTD/svg11.dtd">
<!-- Generated by graphviz version 2.36.0 (20140111.2315)
 -->
<!-- Title: BlockTransactions Pages: 1 -->
<svg width="104pt" height="154pt"
 viewBox="0.00 0.00 104.00 154.00" xmlns="http://www.w3.org/2000/svg" xmlns:xlink="http://www.w3.org/1999/xlink">
<g id="graph0" class="graph" transform="scale(1 1) rotate(0) translate(4 150)">
<title>BlockTransactions</title>
<polygon fill="white" stroke="none" points="-4,4 -4,-150 100,-150 100,4 -4,4"/>
<!-- Node1 -->
<g id="node1" class="node"><title>Node1</title>
<polygon fill="#bfbfbf" stroke="black" points="-1,-0.5 -1,-19.5 97,-19.5 97,-0.5 -1,-0.5"/>
<text text-anchor="middle" x="48" y="-7.5" font-family="Helvetica,sans-Serif" font-size="10.00">BlockTransactions</text>
</g>
<!-- Node2 -->
<g id="node2" class="node"><title>Node2</title>
<g id="a_node2"><a xlink:href="classuint256.html" target="_top" xlink:title="256&#45;bit opaque blob. ">
<polygon fill="white" stroke="black" points="24,-68.5 24,-87.5 72,-87.5 72,-68.5 24,-68.5"/>
<text text-anchor="middle" x="48" y="-75.5" font-family="Helvetica,sans-Serif" font-size="10.00">uint256</text>
</a>
</g>
</g>
<!-- Node2&#45;&gt;Node1 -->
<g id="edge1" class="edge"><title>Node2&#45;&gt;Node1</title>
<path fill="none" stroke="#9a32cd" stroke-dasharray="5,2" d="M48,-58.0413C48,-45.4724 48,-29.5631 48,-19.8411"/>
<polygon fill="#9a32cd" stroke="#9a32cd" points="44.5001,-58.3716 48,-68.3717 51.5001,-58.3717 44.5001,-58.3716"/>
<text text-anchor="middle" x="72" y="-41.5" font-family="Helvetica,sans-Serif" font-size="10.00"> blockhash</text>
</g>
<!-- Node3 -->
<g id="node3" class="node"><title>Node3</title>
<g id="a_node3"><a xlink:href="classbase__blob.html" target="_top" xlink:title="base_blob\&lt; 256 \&gt;">
<polygon fill="white" stroke="black" points="0.5,-126.5 0.5,-145.5 95.5,-145.5 95.5,-126.5 0.5,-126.5"/>
<text text-anchor="middle" x="48" y="-133.5" font-family="Helvetica,sans-Serif" font-size="10.00">base_blob&lt; 256 &gt;</text>
</a>
</g>
</g>
<!-- Node3&#45;&gt;Node2 -->
<g id="edge2" class="edge"><title>Node3&#45;&gt;Node2</title>
<path fill="none" stroke="midnightblue" d="M48,-115.953C48,-106.287 48,-95.0312 48,-87.5052"/>
<polygon fill="midnightblue" stroke="midnightblue" points="44.5001,-116.25 48,-126.25 51.5001,-116.25 44.5001,-116.25"/>
</g>
</g>
</svg>
