<?xml version="1.0" encoding="UTF-8" standalone="no"?>
<!DOCTYPE svg PUBLIC "-//W3C//DTD SVG 1.1//EN"
 "http://www.w3.org/Graphics/SVG/1.1/DTD/svg11.dtd">
<!-- Generated by graphviz version 2.36.0 (20140111.2315)
 -->
<!-- Title: CBLSWrapper&lt; ImplType, _SerSize, C &gt; Pages: 1 -->
<svg width="164pt" height="166pt"
 viewBox="0.00 0.00 164.00 166.00" xmlns="http://www.w3.org/2000/svg" xmlns:xlink="http://www.w3.org/1999/xlink">
<g id="graph0" class="graph" transform="scale(1 1) rotate(0) translate(4 162)">
<title>CBLSWrapper&lt; ImplType, _SerSize, C &gt;</title>
<polygon fill="white" stroke="none" points="-4,4 -4,-162 160,-162 160,4 -4,4"/>
<!-- Node1 -->
<g id="node1" class="node"><title>Node1</title>
<polygon fill="#bfbfbf" stroke="black" points="21,-1 21,-31 153,-31 153,-1 21,-1"/>
<text text-anchor="start" x="29" y="-19" font-family="Helvetica,sans-Serif" font-size="10.00">CBLSWrapper&lt; ImplType,</text>
<text text-anchor="middle" x="87" y="-8" font-family="Helvetica,sans-Serif" font-size="10.00"> _SerSize, C &gt;</text>
</g>
<!-- Node2 -->
<g id="node2" class="node"><title>Node2</title>
<g id="a_node2"><a xlink:href="classuint256.html" target="_top" xlink:title="256&#45;bit opaque blob. ">
<polygon fill="white" stroke="black" points="23,-80.5 23,-99.5 71,-99.5 71,-80.5 23,-80.5"/>
<text text-anchor="middle" x="47" y="-87.5" font-family="Helvetica,sans-Serif" font-size="10.00">uint256</text>
</a>
</g>
</g>
<!-- Node2&#45;&gt;Node1 -->
<g id="edge1" class="edge"><title>Node2&#45;&gt;Node1</title>
<path fill="none" stroke="#9a32cd" stroke-dasharray="5,2" d="M44.4041,-70.2488C44.2596,-63.572 45.036,-56.1818 48,-50 51.5279,-42.6421 57.5569,-36.3108 63.8339,-31.2184"/>
<polygon fill="#9a32cd" stroke="#9a32cd" points="40.9399,-70.8132 45.2934,-80.4723 47.9136,-70.2065 40.9399,-70.8132"/>
<text text-anchor="middle" x="77" y="-53.5" font-family="Helvetica,sans-Serif" font-size="10.00"> cachedHash</text>
</g>
<!-- Node3 -->
<g id="node3" class="node"><title>Node3</title>
<g id="a_node3"><a xlink:href="classbase__blob.html" target="_top" xlink:title="base_blob\&lt; 256 \&gt;">
<polygon fill="white" stroke="black" points="-0.5,-138.5 -0.5,-157.5 94.5,-157.5 94.5,-138.5 -0.5,-138.5"/>
<text text-anchor="middle" x="47" y="-145.5" font-family="Helvetica,sans-Serif" font-size="10.00">base_blob&lt; 256 &gt;</text>
</a>
</g>
</g>
<!-- Node3&#45;&gt;Node2 -->
<g id="edge2" class="edge"><title>Node3&#45;&gt;Node2</title>
<path fill="none" stroke="midnightblue" d="M47,-127.953C47,-118.287 47,-107.031 47,-99.5052"/>
<polygon fill="midnightblue" stroke="midnightblue" points="43.5001,-128.25 47,-138.25 50.5001,-128.25 43.5001,-128.25"/>
</g>
<!-- Node4 -->
<g id="node4" class="node"><title>Node4</title>
<polygon fill="white" stroke="#bfbfbf" points="99.5,-80.5 99.5,-99.5 156.5,-99.5 156.5,-80.5 99.5,-80.5"/>
<text text-anchor="middle" x="128" y="-87.5" font-family="Helvetica,sans-Serif" font-size="10.00">ImplType</text>
</g>
<!-- Node4&#45;&gt;Node1 -->
<g id="edge3" class="edge"><title>Node4&#45;&gt;Node1</title>
<path fill="none" stroke="#9a32cd" stroke-dasharray="5,2" d="M118.118,-71.4055C114.34,-64.6985 109.983,-56.9882 106,-50 102.465,-43.7969 98.5308,-36.9544 95.1637,-31.1159"/>
<polygon fill="#9a32cd" stroke="#9a32cd" points="115.176,-73.3133 123.129,-80.3133 121.277,-69.8816 115.176,-73.3133"/>
<text text-anchor="middle" x="124" y="-53.5" font-family="Helvetica,sans-Serif" font-size="10.00"> impl</text>
</g>
</g>
</svg>
