<?xml version="1.0" encoding="UTF-8" standalone="no"?>
<!DOCTYPE svg PUBLIC "-//W3C//DTD SVG 1.1//EN"
 "http://www.w3.org/Graphics/SVG/1.1/DTD/svg11.dtd">
<!-- Generated by graphviz version 2.36.0 (20140111.2315)
 -->
<!-- Title: ReceiveCoinsDialog Pages: 1 -->
<svg width="1818pt" height="588pt"
 viewBox="0.00 0.00 1818.00 588.25" xmlns="http://www.w3.org/2000/svg" xmlns:xlink="http://www.w3.org/1999/xlink">
<g id="graph0" class="graph" transform="scale(1 1) rotate(0) translate(4 584.254)">
<title>ReceiveCoinsDialog</title>
<polygon fill="white" stroke="none" points="-4,4 -4,-584.254 1814,-584.254 1814,4 -4,4"/>
<!-- Node2 -->
<g id="node1" class="node"><title>Node2</title>
<polygon fill="#bfbfbf" stroke="black" points="1509,-517.754 1509,-536.754 1615,-536.754 1615,-517.754 1509,-517.754"/>
<text text-anchor="middle" x="1562" y="-524.754" font-family="Helvetica,sans-Serif" font-size="10.00">ReceiveCoinsDialog</text>
</g>
<!-- Node3 -->
<g id="node2" class="node"><title>Node3</title>
<polygon fill="white" stroke="#bfbfbf" points="1229,-560.754 1229,-579.754 1281,-579.754 1281,-560.754 1229,-560.754"/>
<text text-anchor="middle" x="1255" y="-567.754" font-family="Helvetica,sans-Serif" font-size="10.00">QDialog</text>
</g>
<!-- Node3&#45;&gt;Node2 -->
<g id="edge1" class="edge"><title>Node3&#45;&gt;Node2</title>
<path fill="none" stroke="midnightblue" d="M1291.2,-565.872C1334.33,-560.433 1409.61,-550.715 1474,-541.254 1485.2,-539.608 1497.2,-537.744 1508.59,-535.925"/>
<polygon fill="midnightblue" stroke="midnightblue" points="1290.69,-562.407 1281.21,-567.127 1291.57,-569.353 1290.69,-562.407"/>
</g>
<!-- Node4 -->
<g id="node3" class="node"><title>Node4</title>
<g id="a_node3"><a xlink:href="class_g_u_i_util_1_1_table_view_last_column_resizing_fixer.html" target="_top" xlink:title="Makes a QTableView last column feel as if it was being resized from its left border. ">
<polygon fill="white" stroke="black" points="1178,-502.254 1178,-532.254 1332,-532.254 1332,-502.254 1178,-502.254"/>
<text text-anchor="start" x="1186" y="-520.254" font-family="Helvetica,sans-Serif" font-size="10.00">GUIUtil::TableViewLastColumn</text>
<text text-anchor="middle" x="1255" y="-509.254" font-family="Helvetica,sans-Serif" font-size="10.00">ResizingFixer</text>
</a>
</g>
</g>
<!-- Node4&#45;&gt;Node2 -->
<g id="edge2" class="edge"><title>Node4&#45;&gt;Node2</title>
<path fill="none" stroke="#9a32cd" stroke-dasharray="5,2" d="M1342.29,-521.943C1344.89,-522.052 1347.46,-522.156 1350,-522.254 1404.19,-524.336 1466.25,-525.682 1508.96,-526.447"/>
<polygon fill="#9a32cd" stroke="#9a32cd" points="1342.32,-518.441 1332.18,-521.496 1342.01,-525.434 1342.32,-518.441"/>
<text text-anchor="middle" x="1412" y="-529.254" font-family="Helvetica,sans-Serif" font-size="10.00"> columnResizingFixer</text>
</g>
<!-- Node5 -->
<g id="node4" class="node"><title>Node5</title>
<polygon fill="white" stroke="#bfbfbf" points="1014.5,-449.754 1014.5,-468.754 1067.5,-468.754 1067.5,-449.754 1014.5,-449.754"/>
<text text-anchor="middle" x="1041" y="-456.754" font-family="Helvetica,sans-Serif" font-size="10.00">QObject</text>
</g>
<!-- Node5&#45;&gt;Node4 -->
<g id="edge3" class="edge"><title>Node5&#45;&gt;Node4</title>
<path fill="none" stroke="midnightblue" d="M1077.29,-468.908C1110.45,-477.98 1160.59,-491.697 1199,-502.206"/>
<polygon fill="midnightblue" stroke="midnightblue" points="1078.14,-465.513 1067.57,-466.25 1076.29,-472.265 1078.14,-465.513"/>
</g>
<!-- Node7 -->
<g id="node6" class="node"><title>Node7</title>
<g id="a_node6"><a xlink:href="class_wallet_model.html" target="_top" xlink:title="Interface to Bitcoin wallet from Qt view code. ">
<polygon fill="white" stroke="black" points="1219.5,-405.754 1219.5,-424.754 1290.5,-424.754 1290.5,-405.754 1219.5,-405.754"/>
<text text-anchor="middle" x="1255" y="-412.754" font-family="Helvetica,sans-Serif" font-size="10.00">WalletModel</text>
</a>
</g>
</g>
<!-- Node5&#45;&gt;Node7 -->
<g id="edge6" class="edge"><title>Node5&#45;&gt;Node7</title>
<path fill="none" stroke="midnightblue" d="M1077.53,-451.879C1116.93,-443.701 1180.08,-430.594 1219.19,-422.478"/>
<polygon fill="midnightblue" stroke="midnightblue" points="1076.65,-448.487 1067.57,-453.946 1078.07,-455.341 1076.65,-448.487"/>
</g>
<!-- Node6 -->
<g id="node5" class="node"><title>Node6</title>
<g id="a_node5"><a xlink:href="class_platform_style.html" target="_top" xlink:title="PlatformStyle">
<polygon fill="white" stroke="black" points="1217,-367.754 1217,-386.754 1293,-386.754 1293,-367.754 1217,-367.754"/>
<text text-anchor="middle" x="1255" y="-374.754" font-family="Helvetica,sans-Serif" font-size="10.00">PlatformStyle</text>
</a>
</g>
</g>
<!-- Node6&#45;&gt;Node2 -->
<g id="edge4" class="edge"><title>Node6&#45;&gt;Node2</title>
<path fill="none" stroke="#9a32cd" stroke-dasharray="5,2" d="M1295.11,-365.052C1341.25,-353.109 1418.68,-340.97 1474,-373.254 1529.96,-405.912 1552.78,-489.353 1559.07,-517.678"/>
<polygon fill="#9a32cd" stroke="#9a32cd" points="1293.94,-361.744 1285.2,-367.739 1295.77,-368.5 1293.94,-361.744"/>
<text text-anchor="middle" x="1412" y="-376.254" font-family="Helvetica,sans-Serif" font-size="10.00"> platformStyle</text>
</g>
<!-- Node8 -->
<g id="node7" class="node"><title>Node8</title>
<g id="a_node7"><a xlink:href="class_transaction_table_model.html" target="_top" xlink:title="UI model for the transaction table of a wallet. ">
<polygon fill="white" stroke="black" points="1503,-120.754 1503,-139.754 1621,-139.754 1621,-120.754 1503,-120.754"/>
<text text-anchor="middle" x="1562" y="-127.754" font-family="Helvetica,sans-Serif" font-size="10.00">TransactionTableModel</text>
</a>
</g>
</g>
<!-- Node6&#45;&gt;Node8 -->
<g id="edge29" class="edge"><title>Node6&#45;&gt;Node8</title>
<path fill="none" stroke="#9a32cd" stroke-dasharray="5,2" d="M1303.02,-371.418C1314.03,-367.848 1324.67,-362.189 1332,-353.254 1378.51,-296.566 1302.55,-245.16 1350,-189.254 1350.73,-188.393 1466.6,-156.31 1526.3,-139.825"/>
<polygon fill="#9a32cd" stroke="#9a32cd" points="1302.06,-368.052 1293.33,-374.048 1303.9,-374.808 1302.06,-368.052"/>
<text text-anchor="middle" x="1412" y="-192.254" font-family="Helvetica,sans-Serif" font-size="10.00"> platformStyle</text>
</g>
<!-- Node7&#45;&gt;Node2 -->
<g id="edge5" class="edge"><title>Node7&#45;&gt;Node2</title>
<path fill="none" stroke="#9a32cd" stroke-dasharray="5,2" d="M1275.41,-431.362C1293.61,-445.678 1322.12,-466.159 1350,-478.254 1365.14,-484.82 1458.68,-505.412 1516.02,-517.713"/>
<polygon fill="#9a32cd" stroke="#9a32cd" points="1277.35,-428.425 1267.36,-424.893 1272.96,-433.883 1277.35,-428.425"/>
<text text-anchor="middle" x="1412" y="-511.254" font-family="Helvetica,sans-Serif" font-size="10.00"> model</text>
</g>
<!-- Node7&#45;&gt;Node8 -->
<g id="edge30" class="edge"><title>Node7&#45;&gt;Node8</title>
<path fill="none" stroke="#9a32cd" stroke-dasharray="5,2" d="M1300.68,-413.229C1312.45,-410.491 1324.07,-405.407 1332,-396.254 1357.61,-366.712 1323.27,-249.784 1350,-221.254 1388.21,-180.461 1423.02,-223.181 1474,-200.254 1506.89,-185.463 1537.91,-155.213 1552.42,-139.775"/>
<polygon fill="#9a32cd" stroke="#9a32cd" points="1300.05,-409.787 1290.84,-415.015 1301.3,-416.674 1300.05,-409.787"/>
<text text-anchor="middle" x="1412" y="-224.254" font-family="Helvetica,sans-Serif" font-size="10.00"> walletModel</text>
</g>
<!-- Node26 -->
<g id="node25" class="node"><title>Node26</title>
<g id="a_node25"><a xlink:href="class_address_table_model.html" target="_top" xlink:title="Qt model of the address book in the core. ">
<polygon fill="white" stroke="black" points="1510.5,-331.754 1510.5,-350.754 1613.5,-350.754 1613.5,-331.754 1510.5,-331.754"/>
<text text-anchor="middle" x="1562" y="-338.754" font-family="Helvetica,sans-Serif" font-size="10.00">AddressTableModel</text>
</a>
</g>
</g>
<!-- Node7&#45;&gt;Node26 -->
<g id="edge37" class="edge"><title>Node7&#45;&gt;Node26</title>
<path fill="none" stroke="#9a32cd" stroke-dasharray="5,2" d="M1283.17,-429.362C1325.92,-449.484 1410.55,-480.791 1474,-450.254 1518.07,-429.042 1546.76,-373.439 1556.9,-350.926"/>
<polygon fill="#9a32cd" stroke="#9a32cd" points="1284.49,-426.116 1273.97,-424.898 1281.44,-432.413 1284.49,-426.116"/>
<text text-anchor="middle" x="1412" y="-466.254" font-family="Helvetica,sans-Serif" font-size="10.00"> walletModel</text>
</g>
<!-- Node28 -->
<g id="node27" class="node"><title>Node28</title>
<g id="a_node27"><a xlink:href="class_recent_requests_table_model.html" target="_top" xlink:title="Model for list of recently generated payment requests / dash: URIs. ">
<polygon fill="white" stroke="black" points="1492,-280.754 1492,-299.754 1632,-299.754 1632,-280.754 1492,-280.754"/>
<text text-anchor="middle" x="1562" y="-287.754" font-family="Helvetica,sans-Serif" font-size="10.00">RecentRequestsTableModel</text>
</a>
</g>
</g>
<!-- Node7&#45;&gt;Node28 -->
<g id="edge41" class="edge"><title>Node7&#45;&gt;Node28</title>
<path fill="none" stroke="#9a32cd" stroke-dasharray="5,2" d="M1300.92,-410.548C1362.83,-403.88 1467.52,-391.87 1474,-386.254 1496.32,-366.894 1472.84,-344.751 1492,-322.254 1500.82,-311.898 1513.71,-304.695 1525.97,-299.785"/>
<polygon fill="#9a32cd" stroke="#9a32cd" points="1300.2,-407.105 1290.63,-411.649 1300.95,-414.065 1300.2,-407.105"/>
<text text-anchor="middle" x="1412" y="-408.254" font-family="Helvetica,sans-Serif" font-size="10.00"> walletModel</text>
</g>
<!-- Node8&#45;&gt;Node7 -->
<g id="edge7" class="edge"><title>Node8&#45;&gt;Node7</title>
<path fill="none" stroke="#9a32cd" stroke-dasharray="5,2" d="M1550.08,-148.572C1535.46,-171.618 1507.46,-210.985 1474,-234.254 1425.99,-267.637 1387.25,-233.175 1350,-278.254 1316.21,-319.149 1367.72,-357.027 1332,-396.254 1321.56,-407.718 1305.35,-412.74 1290.57,-414.783"/>
<polygon fill="#9a32cd" stroke="#9a32cd" points="1553.06,-150.408 1555.33,-140.061 1547.1,-146.728 1553.06,-150.408"/>
<text text-anchor="middle" x="1412" y="-281.254" font-family="Helvetica,sans-Serif" font-size="10.00"> transactionTableModel</text>
</g>
<!-- Node10 -->
<g id="node9" class="node"><title>Node10</title>
<g id="a_node9"><a xlink:href="class_transaction_table_priv.html" target="_top" xlink:title="TransactionTablePriv">
<polygon fill="white" stroke="black" points="1700.5,-37.7535 1700.5,-56.7535 1809.5,-56.7535 1809.5,-37.7535 1700.5,-37.7535"/>
<text text-anchor="middle" x="1755" y="-44.7535" font-family="Helvetica,sans-Serif" font-size="10.00">TransactionTablePriv</text>
</a>
</g>
</g>
<!-- Node8&#45;&gt;Node10 -->
<g id="edge10" class="edge"><title>Node8&#45;&gt;Node10</title>
<path fill="none" stroke="#9a32cd" stroke-dasharray="5,2" d="M1580.07,-113.201C1596.52,-97.8307 1622.85,-75.9085 1650,-64.2535 1665.72,-57.5054 1683.83,-53.4188 1700.49,-50.9498"/>
<polygon fill="#9a32cd" stroke="#9a32cd" points="1577.2,-111.101 1572.41,-120.553 1582.05,-116.15 1577.2,-111.101"/>
<text text-anchor="middle" x="1666" y="-67.2535" font-family="Helvetica,sans-Serif" font-size="10.00"> parent</text>
</g>
<!-- Node9 -->
<g id="node8" class="node"><title>Node9</title>
<polygon fill="white" stroke="#bfbfbf" points="1199.5,-148.754 1199.5,-167.754 1310.5,-167.754 1310.5,-148.754 1199.5,-148.754"/>
<text text-anchor="middle" x="1255" y="-155.754" font-family="Helvetica,sans-Serif" font-size="10.00">QAbstractTableModel</text>
</g>
<!-- Node9&#45;&gt;Node8 -->
<g id="edge8" class="edge"><title>Node9&#45;&gt;Node8</title>
<path fill="none" stroke="midnightblue" d="M1320.69,-147.911C1330.49,-146.549 1340.5,-145.274 1350,-144.254 1401.47,-138.723 1460.25,-135.037 1502.68,-132.842"/>
<polygon fill="midnightblue" stroke="midnightblue" points="1319.98,-144.476 1310.58,-149.355 1320.97,-151.406 1319.98,-144.476"/>
</g>
<!-- Node9&#45;&gt;Node26 -->
<g id="edge33" class="edge"><title>Node9&#45;&gt;Node26</title>
<path fill="none" stroke="midnightblue" d="M1262.7,-177.316C1274.83,-208.817 1303.57,-271.324 1350,-302.254 1363.2,-311.044 1452.16,-325.391 1510.28,-334.016"/>
<polygon fill="midnightblue" stroke="midnightblue" points="1265.98,-176.076 1259.22,-167.912 1259.41,-178.505 1265.98,-176.076"/>
</g>
<!-- Node9&#45;&gt;Node28 -->
<g id="edge40" class="edge"><title>Node9&#45;&gt;Node28</title>
<path fill="none" stroke="midnightblue" d="M1318.4,-147.606C1364.23,-142.933 1426.51,-143.378 1474,-169.254 1520.35,-194.508 1548.07,-256.35 1557.43,-280.43"/>
<polygon fill="midnightblue" stroke="midnightblue" points="1317.84,-144.147 1308.29,-148.746 1318.62,-151.103 1317.84,-144.147"/>
</g>
<!-- Node10&#45;&gt;Node8 -->
<g id="edge9" class="edge"><title>Node10&#45;&gt;Node8</title>
<path fill="none" stroke="#9a32cd" stroke-dasharray="5,2" d="M1722.79,-60.8142C1684,-77.6713 1618.78,-106.012 1584.91,-120.732"/>
<polygon fill="#9a32cd" stroke="#9a32cd" points="1724.28,-63.9867 1732.05,-56.7911 1721.49,-57.5667 1724.28,-63.9867"/>
<text text-anchor="middle" x="1666" y="-94.2535" font-family="Helvetica,sans-Serif" font-size="10.00"> priv</text>
</g>
<!-- Node11 -->
<g id="node10" class="node"><title>Node11</title>
<g id="a_node10"><a xlink:href="class_c_wallet.html" target="_top" xlink:title="A CWallet is an extension of a keystore, which also maintains a set of transactions and balances...">
<polygon fill="white" stroke="black" points="1015,-109.754 1015,-128.754 1067,-128.754 1067,-109.754 1015,-109.754"/>
<text text-anchor="middle" x="1041" y="-116.754" font-family="Helvetica,sans-Serif" font-size="10.00">CWallet</text>
</a>
</g>
</g>
<!-- Node11&#45;&gt;Node7 -->
<g id="edge44" class="edge"><title>Node11&#45;&gt;Node7</title>
<path fill="none" stroke="#9a32cd" stroke-dasharray="5,2" d="M1041.62,-138.846C1041.78,-181.944 1047.72,-286.375 1098,-352.254 1127.06,-390.332 1182.91,-405.478 1219.3,-411.446"/>
<polygon fill="#9a32cd" stroke="#9a32cd" points="1045.12,-138.856 1041.69,-128.832 1038.12,-138.808 1045.12,-138.856"/>
<text text-anchor="middle" x="1129" y="-399.254" font-family="Helvetica,sans-Serif" font-size="10.00"> wallet</text>
</g>
<!-- Node11&#45;&gt;Node8 -->
<g id="edge31" class="edge"><title>Node11&#45;&gt;Node8</title>
<path fill="none" stroke="#9a32cd" stroke-dasharray="5,2" d="M1077.27,-120.001C1165.14,-121.864 1394.53,-126.725 1502.81,-129.02"/>
<polygon fill="#9a32cd" stroke="#9a32cd" points="1077.1,-116.497 1067.03,-119.784 1076.96,-123.495 1077.1,-116.497"/>
<text text-anchor="middle" x="1255" y="-129.254" font-family="Helvetica,sans-Serif" font-size="10.00"> wallet</text>
</g>
<!-- Node11&#45;&gt;Node10 -->
<g id="edge11" class="edge"><title>Node11&#45;&gt;Node10</title>
<path fill="none" stroke="#9a32cd" stroke-dasharray="5,2" d="M1053.39,-100.962C1063.29,-86.8577 1079,-68.2837 1098,-59.2535 1312.25,42.5597 1612.03,-13.3315 1716.41,-37.7237"/>
<polygon fill="#9a32cd" stroke="#9a32cd" points="1050.38,-99.1749 1047.75,-109.44 1056.2,-103.052 1050.38,-99.1749"/>
<text text-anchor="middle" x="1412" y="-5.25355" font-family="Helvetica,sans-Serif" font-size="10.00"> wallet</text>
</g>
<!-- Node11&#45;&gt;Node26 -->
<g id="edge38" class="edge"><title>Node11&#45;&gt;Node26</title>
<path fill="none" stroke="#9a32cd" stroke-dasharray="5,2" d="M1059.36,-136.058C1103.49,-177.539 1225.31,-284.527 1350,-327.254 1402.44,-345.223 1466.43,-346.865 1510.1,-345.189"/>
<polygon fill="#9a32cd" stroke="#9a32cd" points="1061.7,-133.455 1052.04,-129.105 1056.88,-138.53 1061.7,-133.455"/>
<text text-anchor="middle" x="1255" y="-323.254" font-family="Helvetica,sans-Serif" font-size="10.00"> wallet</text>
</g>
<!-- Node27 -->
<g id="node26" class="node"><title>Node27</title>
<g id="a_node26"><a xlink:href="class_address_table_priv.html" target="_top" xlink:title="AddressTablePriv">
<polygon fill="white" stroke="black" points="1708,-297.754 1708,-316.754 1802,-316.754 1802,-297.754 1708,-297.754"/>
<text text-anchor="middle" x="1755" y="-304.754" font-family="Helvetica,sans-Serif" font-size="10.00">AddressTablePriv</text>
</a>
</g>
</g>
<!-- Node11&#45;&gt;Node27 -->
<g id="edge36" class="edge"><title>Node11&#45;&gt;Node27</title>
<path fill="none" stroke="#9a32cd" stroke-dasharray="5,2" d="M1076.91,-107.57C1172.86,-77.6849 1445.8,-7.82822 1632,-111.254 1707.68,-153.292 1742.5,-263.926 1751.54,-297.472"/>
<polygon fill="#9a32cd" stroke="#9a32cd" points="1075.61,-104.309 1067.14,-110.668 1077.73,-110.982 1075.61,-104.309"/>
<text text-anchor="middle" x="1412" y="-65.2535" font-family="Helvetica,sans-Serif" font-size="10.00"> wallet</text>
</g>
<!-- Node12 -->
<g id="node11" class="node"><title>Node12</title>
<g id="a_node11"><a xlink:href="class_c_crypto_key_store.html" target="_top" xlink:title="Keystore which keeps the private keys encrypted. ">
<polygon fill="white" stroke="black" points="774,-132.754 774,-151.754 868,-151.754 868,-132.754 774,-132.754"/>
<text text-anchor="middle" x="821" y="-139.754" font-family="Helvetica,sans-Serif" font-size="10.00">CCryptoKeyStore</text>
</a>
</g>
</g>
<!-- Node12&#45;&gt;Node11 -->
<g id="edge12" class="edge"><title>Node12&#45;&gt;Node11</title>
<path fill="none" stroke="midnightblue" d="M878.248,-136.319C922.379,-131.663 981.71,-125.403 1014.87,-121.905"/>
<polygon fill="midnightblue" stroke="midnightblue" points="877.81,-132.846 868.232,-137.376 878.544,-139.807 877.81,-132.846"/>
</g>
<!-- Node13 -->
<g id="node12" class="node"><title>Node13</title>
<g id="a_node12"><a xlink:href="class_c_basic_key_store.html" target="_top" xlink:title="Basic key store, that keeps keys in an address&#45;&gt;secret map. ">
<polygon fill="white" stroke="black" points="640.5,-126.754 640.5,-145.754 729.5,-145.754 729.5,-126.754 640.5,-126.754"/>
<text text-anchor="middle" x="685" y="-133.754" font-family="Helvetica,sans-Serif" font-size="10.00">CBasicKeyStore</text>
</a>
</g>
</g>
<!-- Node13&#45;&gt;Node12 -->
<g id="edge13" class="edge"><title>Node13&#45;&gt;Node12</title>
<path fill="none" stroke="midnightblue" d="M739.727,-138.659C751.061,-139.167 762.923,-139.698 773.945,-140.191"/>
<polygon fill="midnightblue" stroke="midnightblue" points="739.653,-135.152 729.506,-138.202 739.339,-142.145 739.653,-135.152"/>
</g>
<!-- Node14 -->
<g id="node13" class="node"><title>Node14</title>
<g id="a_node13"><a xlink:href="class_c_key_store.html" target="_top" xlink:title="A virtual base class for key stores. ">
<polygon fill="white" stroke="black" points="498.5,-134.754 498.5,-153.754 563.5,-153.754 563.5,-134.754 498.5,-134.754"/>
<text text-anchor="middle" x="531" y="-141.754" font-family="Helvetica,sans-Serif" font-size="10.00">CKeyStore</text>
</a>
</g>
</g>
<!-- Node14&#45;&gt;Node13 -->
<g id="edge14" class="edge"><title>Node14&#45;&gt;Node13</title>
<path fill="none" stroke="midnightblue" d="M573.931,-142.047C594.587,-140.959 619.477,-139.649 640.359,-138.55"/>
<polygon fill="midnightblue" stroke="midnightblue" points="573.666,-138.556 563.864,-142.576 574.034,-145.546 573.666,-138.556"/>
</g>
<!-- Node15 -->
<g id="node14" class="node"><title>Node15</title>
<g id="a_node14"><a xlink:href="class_c_critical_section.html" target="_top" xlink:title="Wrapped boost mutex: supports recursive locking, but no waiting TODO: We should move away from using ...">
<polygon fill="white" stroke="black" points="314,-140.754 314,-159.754 402,-159.754 402,-140.754 314,-140.754"/>
<text text-anchor="middle" x="358" y="-147.754" font-family="Helvetica,sans-Serif" font-size="10.00">CCriticalSection</text>
</a>
</g>
</g>
<!-- Node15&#45;&gt;Node11 -->
<g id="edge26" class="edge"><title>Node15&#45;&gt;Node11</title>
<path fill="none" stroke="#9a32cd" stroke-dasharray="5,2" d="M400.194,-162.386C434.581,-171.441 485.055,-182.254 530,-182.254 530,-182.254 530,-182.254 822,-182.254 898.034,-182.254 983.329,-146.446 1020.7,-128.822"/>
<polygon fill="#9a32cd" stroke="#9a32cd" points="401.068,-158.997 390.501,-159.768 399.243,-165.755 401.068,-158.997"/>
<text text-anchor="middle" x="685" y="-185.254" font-family="Helvetica,sans-Serif" font-size="10.00"> cs_wallet</text>
</g>
<!-- Node15&#45;&gt;Node14 -->
<g id="edge15" class="edge"><title>Node15&#45;&gt;Node14</title>
<path fill="none" stroke="#9a32cd" stroke-dasharray="5,2" d="M412.293,-148.384C440.574,-147.391 474.362,-146.206 498.468,-145.36"/>
<polygon fill="#9a32cd" stroke="#9a32cd" points="412.022,-144.891 402.151,-148.739 412.267,-151.887 412.022,-144.891"/>
<text text-anchor="middle" x="450" y="-151.254" font-family="Helvetica,sans-Serif" font-size="10.00"> cs_KeyStore</text>
</g>
<!-- Node18 -->
<g id="node17" class="node"><title>Node18</title>
<g id="a_node17"><a xlink:href="class_c_h_d_chain.html" target="_top" xlink:title="CHDChain">
<polygon fill="white" stroke="black" points="498.5,-89.7535 498.5,-108.754 563.5,-108.754 563.5,-89.7535 498.5,-89.7535"/>
<text text-anchor="middle" x="531" y="-96.7535" font-family="Helvetica,sans-Serif" font-size="10.00">CHDChain</text>
</a>
</g>
</g>
<!-- Node15&#45;&gt;Node18 -->
<g id="edge21" class="edge"><title>Node15&#45;&gt;Node18</title>
<path fill="none" stroke="#9a32cd" stroke-dasharray="5,2" d="M399.275,-137.591C406.181,-135.453 413.292,-133.274 420,-131.254 446.281,-123.339 476.192,-114.658 498.183,-108.338"/>
<polygon fill="#9a32cd" stroke="#9a32cd" points="397.883,-134.359 389.373,-140.67 399.961,-141.043 397.883,-134.359"/>
<text text-anchor="middle" x="450" y="-134.254" font-family="Helvetica,sans-Serif" font-size="10.00"> cs_accounts</text>
</g>
<!-- Node16 -->
<g id="node15" class="node"><title>Node16</title>
<polygon fill="white" stroke="#bfbfbf" points="158.5,-135.254 158.5,-165.254 275.5,-165.254 275.5,-135.254 158.5,-135.254"/>
<text text-anchor="start" x="166.5" y="-153.254" font-family="Helvetica,sans-Serif" font-size="10.00">AnnotatedMixin&lt; boost</text>
<text text-anchor="middle" x="217" y="-142.254" font-family="Helvetica,sans-Serif" font-size="10.00">::recursive_mutex &gt;</text>
</g>
<!-- Node16&#45;&gt;Node15 -->
<g id="edge16" class="edge"><title>Node16&#45;&gt;Node15</title>
<path fill="none" stroke="midnightblue" d="M285.927,-150.254C295.358,-150.254 304.827,-150.254 313.64,-150.254"/>
<polygon fill="midnightblue" stroke="midnightblue" points="285.741,-146.754 275.741,-150.254 285.741,-153.754 285.741,-146.754"/>
</g>
<!-- Node17 -->
<g id="node16" class="node"><title>Node17</title>
<polygon fill="white" stroke="#bfbfbf" points="0.5,-140.754 0.5,-159.754 119.5,-159.754 119.5,-140.754 0.5,-140.754"/>
<text text-anchor="middle" x="60" y="-147.754" font-family="Helvetica,sans-Serif" font-size="10.00">boost::recursive_mutex</text>
</g>
<!-- Node17&#45;&gt;Node16 -->
<g id="edge17" class="edge"><title>Node17&#45;&gt;Node16</title>
<path fill="none" stroke="midnightblue" d="M129.834,-150.254C139.356,-150.254 149.055,-150.254 158.346,-150.254"/>
<polygon fill="midnightblue" stroke="midnightblue" points="129.599,-146.754 119.599,-150.254 129.599,-153.754 129.599,-146.754"/>
</g>
<!-- Node18&#45;&gt;Node12 -->
<g id="edge22" class="edge"><title>Node18&#45;&gt;Node12</title>
<path fill="none" stroke="#9a32cd" stroke-dasharray="5,2" d="M573.738,-96.1364C614.232,-94.1816 677.138,-93.9877 730,-106.254 748.023,-110.436 750.856,-116.297 768,-123.254 776.016,-126.506 784.822,-129.82 792.873,-132.75"/>
<polygon fill="#9a32cd" stroke="#9a32cd" points="573.49,-92.6446 563.694,-96.6799 573.868,-99.6344 573.49,-92.6446"/>
<text text-anchor="middle" x="685" y="-109.254" font-family="Helvetica,sans-Serif" font-size="10.00"> cryptedHDChain</text>
</g>
<!-- Node18&#45;&gt;Node13 -->
<g id="edge18" class="edge"><title>Node18&#45;&gt;Node13</title>
<path fill="none" stroke="#9a32cd" stroke-dasharray="5,2" d="M573.686,-109.401C595.903,-114.809 623.071,-121.422 644.886,-126.732"/>
<polygon fill="#9a32cd" stroke="#9a32cd" points="574.408,-105.974 563.864,-107.01 572.753,-112.776 574.408,-105.974"/>
<text text-anchor="middle" x="602" y="-124.254" font-family="Helvetica,sans-Serif" font-size="10.00"> hdChain</text>
</g>
<!-- Node19 -->
<g id="node18" class="node"><title>Node19</title>
<g id="a_node18"><a xlink:href="classuint256.html" target="_top" xlink:title="256&#45;bit opaque blob. ">
<polygon fill="white" stroke="black" points="334,-72.7535 334,-91.7535 382,-91.7535 382,-72.7535 334,-72.7535"/>
<text text-anchor="middle" x="358" y="-79.7535" font-family="Helvetica,sans-Serif" font-size="10.00">uint256</text>
</a>
</g>
</g>
<!-- Node19&#45;&gt;Node18 -->
<g id="edge19" class="edge"><title>Node19&#45;&gt;Node18</title>
<path fill="none" stroke="#9a32cd" stroke-dasharray="5,2" d="M392.548,-79.8415C416.961,-78.7373 450.728,-78.5602 480,-83.2535 488.369,-84.5955 497.256,-87.0739 505.181,-89.6861"/>
<polygon fill="#9a32cd" stroke="#9a32cd" points="392.171,-76.3564 382.37,-80.3797 392.541,-83.3466 392.171,-76.3564"/>
<text text-anchor="middle" x="450" y="-86.2535" font-family="Helvetica,sans-Serif" font-size="10.00"> id</text>
</g>
<!-- Node20 -->
<g id="node19" class="node"><title>Node20</title>
<g id="a_node19"><a xlink:href="classbase__blob.html" target="_top" xlink:title="base_blob\&lt; 256 \&gt;">
<polygon fill="white" stroke="black" points="169.5,-72.7535 169.5,-91.7535 264.5,-91.7535 264.5,-72.7535 169.5,-72.7535"/>
<text text-anchor="middle" x="217" y="-79.7535" font-family="Helvetica,sans-Serif" font-size="10.00">base_blob&lt; 256 &gt;</text>
</a>
</g>
</g>
<!-- Node20&#45;&gt;Node19 -->
<g id="edge20" class="edge"><title>Node20&#45;&gt;Node19</title>
<path fill="none" stroke="midnightblue" d="M274.928,-82.2535C295.493,-82.2535 317.576,-82.2535 333.65,-82.2535"/>
<polygon fill="midnightblue" stroke="midnightblue" points="274.672,-78.7536 264.672,-82.2535 274.672,-85.7536 274.672,-78.7536"/>
</g>
<!-- Node21 -->
<g id="node20" class="node"><title>Node21</title>
<g id="a_node20"><a xlink:href="class_c_validation_interface.html" target="_top" xlink:title="CValidationInterface">
<polygon fill="white" stroke="black" points="768.5,-94.7535 768.5,-113.754 873.5,-113.754 873.5,-94.7535 768.5,-94.7535"/>
<text text-anchor="middle" x="821" y="-101.754" font-family="Helvetica,sans-Serif" font-size="10.00">CValidationInterface</text>
</a>
</g>
</g>
<!-- Node21&#45;&gt;Node11 -->
<g id="edge23" class="edge"><title>Node21&#45;&gt;Node11</title>
<path fill="none" stroke="midnightblue" d="M883.864,-108.51C927.35,-111.502 983.234,-115.348 1014.99,-117.533"/>
<polygon fill="midnightblue" stroke="midnightblue" points="883.88,-105.003 873.663,-107.808 883.399,-111.987 883.88,-105.003"/>
</g>
<!-- Node22 -->
<g id="node21" class="node"><title>Node22</title>
<g id="a_node21"><a xlink:href="class_c_fee_rate.html" target="_top" xlink:title="Fee rate in satoshis per kilobyte: CAmount / kB. ">
<polygon fill="white" stroke="black" points="790,-56.7535 790,-75.7535 852,-75.7535 852,-56.7535 790,-56.7535"/>
<text text-anchor="middle" x="821" y="-63.7535" font-family="Helvetica,sans-Serif" font-size="10.00">CFeeRate</text>
</a>
</g>
</g>
<!-- Node22&#45;&gt;Node11 -->
<g id="edge24" class="edge"><title>Node22&#45;&gt;Node11</title>
<path fill="none" stroke="#9a32cd" stroke-dasharray="5,2" d="M862.487,-65.3598C895.963,-65.8216 944.277,-69.2938 984,-83.2535 1000.79,-89.1548 1017.65,-100.984 1028.41,-109.473"/>
<polygon fill="#9a32cd" stroke="#9a32cd" points="862.188,-61.8583 852.17,-65.3062 862.151,-68.8582 862.188,-61.8583"/>
<text text-anchor="middle" x="938" y="-97.2535" font-family="Helvetica,sans-Serif" font-size="10.00"> minTxFee</text>
<text text-anchor="middle" x="938" y="-86.2535" font-family="Helvetica,sans-Serif" font-size="10.00">fallbackFee</text>
</g>
<!-- Node23 -->
<g id="node22" class="node"><title>Node23</title>
<g id="a_node22"><a xlink:href="class_c_pub_key.html" target="_top" xlink:title="An encapsulated public key. ">
<polygon fill="white" stroke="black" points="791.5,-18.7535 791.5,-37.7535 850.5,-37.7535 850.5,-18.7535 791.5,-18.7535"/>
<text text-anchor="middle" x="821" y="-25.7535" font-family="Helvetica,sans-Serif" font-size="10.00">CPubKey</text>
</a>
</g>
</g>
<!-- Node23&#45;&gt;Node11 -->
<g id="edge25" class="edge"><title>Node23&#45;&gt;Node11</title>
<path fill="none" stroke="#9a32cd" stroke-dasharray="5,2" d="M860.731,-26.4529C895.197,-26.532 945.901,-30.901 984,-52.2535 1008.33,-65.8912 1026.62,-94.537 1034.98,-109.572"/>
<polygon fill="#9a32cd" stroke="#9a32cd" points="860.554,-22.9544 850.589,-26.5521 860.622,-29.9541 860.554,-22.9544"/>
<text text-anchor="middle" x="938" y="-55.2535" font-family="Helvetica,sans-Serif" font-size="10.00"> vchDefaultKey</text>
</g>
<!-- Node24 -->
<g id="node23" class="node"><title>Node24</title>
<g id="a_node23"><a xlink:href="class_c_wallet_d_b.html" target="_top" xlink:title="Access to the wallet database. ">
<polygon fill="white" stroke="black" points="788,-211.754 788,-230.754 854,-230.754 854,-211.754 788,-211.754"/>
<text text-anchor="middle" x="821" y="-218.754" font-family="Helvetica,sans-Serif" font-size="10.00">CWalletDB</text>
</a>
</g>
</g>
<!-- Node24&#45;&gt;Node11 -->
<g id="edge27" class="edge"><title>Node24&#45;&gt;Node11</title>
<path fill="none" stroke="#9a32cd" stroke-dasharray="5,2" d="M864.533,-223.37C899.104,-223.151 947.888,-218.273 984,-196.254 1010.67,-179.989 1028.49,-145.771 1035.98,-128.973"/>
<polygon fill="#9a32cd" stroke="#9a32cd" points="864.313,-219.868 854.29,-223.302 864.267,-226.868 864.313,-219.868"/>
<text text-anchor="middle" x="938" y="-225.254" font-family="Helvetica,sans-Serif" font-size="10.00"> pwalletdbEncryption</text>
</g>
<!-- Node25 -->
<g id="node24" class="node"><title>Node25</title>
<g id="a_node24"><a xlink:href="class_c_d_b.html" target="_top" xlink:title="RAII class that provides access to a Berkeley database. ">
<polygon fill="white" stroke="black" points="666,-211.754 666,-230.754 704,-230.754 704,-211.754 666,-211.754"/>
<text text-anchor="middle" x="685" y="-218.754" font-family="Helvetica,sans-Serif" font-size="10.00">CDB</text>
</a>
</g>
</g>
<!-- Node25&#45;&gt;Node24 -->
<g id="edge28" class="edge"><title>Node25&#45;&gt;Node24</title>
<path fill="none" stroke="midnightblue" d="M714.211,-221.254C735.737,-221.254 765.412,-221.254 787.856,-221.254"/>
<polygon fill="midnightblue" stroke="midnightblue" points="714.072,-217.754 704.072,-221.254 714.072,-224.754 714.072,-217.754"/>
</g>
<!-- Node26&#45;&gt;Node7 -->
<g id="edge32" class="edge"><title>Node26&#45;&gt;Node7</title>
<path fill="none" stroke="#9a32cd" stroke-dasharray="5,2" d="M1548.15,-358.981C1532.96,-378.277 1505.69,-408.013 1474,-420.254 1412.91,-443.853 1334.83,-433.273 1290.62,-423.932"/>
<polygon fill="#9a32cd" stroke="#9a32cd" points="1550.99,-361.03 1554.26,-350.951 1545.42,-356.794 1550.99,-361.03"/>
<text text-anchor="middle" x="1412" y="-438.254" font-family="Helvetica,sans-Serif" font-size="10.00"> addressTableModel</text>
</g>
<!-- Node26&#45;&gt;Node27 -->
<g id="edge35" class="edge"><title>Node26&#45;&gt;Node27</title>
<path fill="none" stroke="#9a32cd" stroke-dasharray="5,2" d="M1590.22,-327.161C1606.97,-319.295 1629.16,-310.289 1650,-306.254 1668.7,-302.633 1689.65,-302.166 1707.82,-302.869"/>
<polygon fill="#9a32cd" stroke="#9a32cd" points="1588.51,-324.101 1581.04,-331.614 1591.57,-330.4 1588.51,-324.101"/>
<text text-anchor="middle" x="1666" y="-309.254" font-family="Helvetica,sans-Serif" font-size="10.00"> parent</text>
</g>
<!-- Node27&#45;&gt;Node26 -->
<g id="edge34" class="edge"><title>Node27&#45;&gt;Node26</title>
<path fill="none" stroke="#9a32cd" stroke-dasharray="5,2" d="M1698.03,-317.217C1671.34,-321.968 1639.65,-327.609 1613.68,-332.231"/>
<polygon fill="#9a32cd" stroke="#9a32cd" points="1698.76,-320.643 1707.99,-315.444 1697.53,-313.751 1698.76,-320.643"/>
<text text-anchor="middle" x="1666" y="-329.254" font-family="Helvetica,sans-Serif" font-size="10.00"> priv</text>
</g>
<!-- Node28&#45;&gt;Node7 -->
<g id="edge39" class="edge"><title>Node28&#45;&gt;Node7</title>
<path fill="none" stroke="#9a32cd" stroke-dasharray="5,2" d="M1481.63,-291.25C1437.82,-295.856 1385.31,-308.631 1350,-341.254 1331.11,-358.707 1350.82,-378.726 1332,-396.254 1320.85,-406.634 1304.91,-411.568 1290.51,-413.835"/>
<polygon fill="#9a32cd" stroke="#9a32cd" points="1482.06,-294.725 1491.69,-290.316 1481.41,-287.755 1482.06,-294.725"/>
<text text-anchor="middle" x="1412" y="-344.254" font-family="Helvetica,sans-Serif" font-size="10.00"> recentRequestsTableModel</text>
</g>
<!-- Node29 -->
<g id="node28" class="node"><title>Node29</title>
<g id="a_node28"><a xlink:href="class_options_model.html" target="_top" xlink:title="Interface from Qt to configuration data structure for Bitcoin client. ">
<polygon fill="white" stroke="black" points="1002.5,-405.754 1002.5,-424.754 1079.5,-424.754 1079.5,-405.754 1002.5,-405.754"/>
<text text-anchor="middle" x="1041" y="-412.754" font-family="Helvetica,sans-Serif" font-size="10.00">OptionsModel</text>
</a>
</g>
</g>
<!-- Node29&#45;&gt;Node7 -->
<g id="edge42" class="edge"><title>Node29&#45;&gt;Node7</title>
<path fill="none" stroke="#9a32cd" stroke-dasharray="5,2" d="M1090.05,-415.254C1129.37,-415.254 1184.05,-415.254 1219.24,-415.254"/>
<polygon fill="#9a32cd" stroke="#9a32cd" points="1089.9,-411.754 1079.9,-415.254 1089.9,-418.754 1089.9,-411.754"/>
<text text-anchor="middle" x="1129" y="-418.254" font-family="Helvetica,sans-Serif" font-size="10.00"> optionsModel</text>
</g>
<!-- Node30 -->
<g id="node29" class="node"><title>Node30</title>
<polygon fill="white" stroke="#bfbfbf" points="769.5,-405.754 769.5,-424.754 872.5,-424.754 872.5,-405.754 769.5,-405.754"/>
<text text-anchor="middle" x="821" y="-412.754" font-family="Helvetica,sans-Serif" font-size="10.00">QAbstractListModel</text>
</g>
<!-- Node30&#45;&gt;Node29 -->
<g id="edge43" class="edge"><title>Node30&#45;&gt;Node29</title>
<path fill="none" stroke="midnightblue" d="M882.589,-415.254C920.958,-415.254 969.372,-415.254 1002.31,-415.254"/>
<polygon fill="midnightblue" stroke="midnightblue" points="882.562,-411.754 872.562,-415.254 882.561,-418.754 882.562,-411.754"/>
</g>
</g>
</svg>
