<?xml version="1.0" encoding="UTF-8" standalone="no"?>
<!DOCTYPE svg PUBLIC "-//W3C//DTD SVG 1.1//EN"
 "http://www.w3.org/Graphics/SVG/1.1/DTD/svg11.dtd">
<!-- Generated by graphviz version 2.36.0 (20140111.2315)
 -->
<!-- Title: DummySignatureCreator Pages: 1 -->
<svg width="132pt" height="350pt"
 viewBox="0.00 0.00 132.00 350.00" xmlns="http://www.w3.org/2000/svg" xmlns:xlink="http://www.w3.org/1999/xlink">
<g id="graph0" class="graph" transform="scale(1 1) rotate(0) translate(4 346)">
<title>DummySignatureCreator</title>
<polygon fill="white" stroke="none" points="-4,4 -4,-346 128,-346 128,4 -4,4"/>
<!-- Node2 -->
<g id="node1" class="node"><title>Node2</title>
<polygon fill="#bfbfbf" stroke="black" points="-0.5,-0.5 -0.5,-19.5 124.5,-19.5 124.5,-0.5 -0.5,-0.5"/>
<text text-anchor="middle" x="62" y="-7.5" font-family="Helvetica,sans-Serif" font-size="10.00">DummySignatureCreator</text>
</g>
<!-- Node3 -->
<g id="node2" class="node"><title>Node3</title>
<g id="a_node2"><a xlink:href="class_base_signature_creator.html" target="_top" xlink:title="Virtual base class for signature creators. ">
<polygon fill="white" stroke="black" points="5.5,-58.5 5.5,-77.5 118.5,-77.5 118.5,-58.5 5.5,-58.5"/>
<text text-anchor="middle" x="62" y="-65.5" font-family="Helvetica,sans-Serif" font-size="10.00">BaseSignatureCreator</text>
</a>
</g>
</g>
<!-- Node3&#45;&gt;Node2 -->
<g id="edge1" class="edge"><title>Node3&#45;&gt;Node2</title>
<path fill="none" stroke="midnightblue" d="M62,-47.953C62,-38.2875 62,-27.0312 62,-19.5052"/>
<polygon fill="midnightblue" stroke="midnightblue" points="58.5001,-48.25 62,-58.25 65.5001,-48.25 58.5001,-48.25"/>
</g>
<!-- Node4 -->
<g id="node3" class="node"><title>Node4</title>
<g id="a_node3"><a xlink:href="class_c_key_store.html" target="_top" xlink:title="A virtual base class for key stores. ">
<polygon fill="white" stroke="black" points="29.5,-126.5 29.5,-145.5 94.5,-145.5 94.5,-126.5 29.5,-126.5"/>
<text text-anchor="middle" x="62" y="-133.5" font-family="Helvetica,sans-Serif" font-size="10.00">CKeyStore</text>
</a>
</g>
</g>
<!-- Node4&#45;&gt;Node3 -->
<g id="edge2" class="edge"><title>Node4&#45;&gt;Node3</title>
<path fill="none" stroke="#9a32cd" stroke-dasharray="5,2" d="M62,-116.041C62,-103.472 62,-87.5631 62,-77.8411"/>
<polygon fill="#9a32cd" stroke="#9a32cd" points="58.5001,-116.372 62,-126.372 65.5001,-116.372 58.5001,-116.372"/>
<text text-anchor="middle" x="82.5" y="-99.5" font-family="Helvetica,sans-Serif" font-size="10.00"> keystore</text>
</g>
<!-- Node5 -->
<g id="node4" class="node"><title>Node5</title>
<g id="a_node4"><a xlink:href="class_c_critical_section.html" target="_top" xlink:title="Wrapped boost mutex: supports recursive locking, but no waiting TODO: We should move away from using ...">
<polygon fill="white" stroke="black" points="18,-194.5 18,-213.5 106,-213.5 106,-194.5 18,-194.5"/>
<text text-anchor="middle" x="62" y="-201.5" font-family="Helvetica,sans-Serif" font-size="10.00">CCriticalSection</text>
</a>
</g>
</g>
<!-- Node5&#45;&gt;Node4 -->
<g id="edge3" class="edge"><title>Node5&#45;&gt;Node4</title>
<path fill="none" stroke="#9a32cd" stroke-dasharray="5,2" d="M62,-184.041C62,-171.472 62,-155.563 62,-145.841"/>
<polygon fill="#9a32cd" stroke="#9a32cd" points="58.5001,-184.372 62,-194.372 65.5001,-184.372 58.5001,-184.372"/>
<text text-anchor="middle" x="92" y="-167.5" font-family="Helvetica,sans-Serif" font-size="10.00"> cs_KeyStore</text>
</g>
<!-- Node6 -->
<g id="node5" class="node"><title>Node6</title>
<polygon fill="white" stroke="#bfbfbf" points="3.5,-253 3.5,-283 120.5,-283 120.5,-253 3.5,-253"/>
<text text-anchor="start" x="11.5" y="-271" font-family="Helvetica,sans-Serif" font-size="10.00">AnnotatedMixin&lt; boost</text>
<text text-anchor="middle" x="62" y="-260" font-family="Helvetica,sans-Serif" font-size="10.00">::recursive_mutex &gt;</text>
</g>
<!-- Node6&#45;&gt;Node5 -->
<g id="edge4" class="edge"><title>Node6&#45;&gt;Node5</title>
<path fill="none" stroke="midnightblue" d="M62,-242.871C62,-232.663 62,-221.408 62,-213.842"/>
<polygon fill="midnightblue" stroke="midnightblue" points="58.5001,-242.931 62,-252.931 65.5001,-242.931 58.5001,-242.931"/>
</g>
<!-- Node7 -->
<g id="node6" class="node"><title>Node7</title>
<polygon fill="white" stroke="#bfbfbf" points="2.5,-322.5 2.5,-341.5 121.5,-341.5 121.5,-322.5 2.5,-322.5"/>
<text text-anchor="middle" x="62" y="-329.5" font-family="Helvetica,sans-Serif" font-size="10.00">boost::recursive_mutex</text>
</g>
<!-- Node7&#45;&gt;Node6 -->
<g id="edge5" class="edge"><title>Node7&#45;&gt;Node6</title>
<path fill="none" stroke="midnightblue" d="M62,-312.183C62,-302.886 62,-291.851 62,-283.263"/>
<polygon fill="midnightblue" stroke="midnightblue" points="58.5001,-312.379 62,-322.379 65.5001,-312.379 58.5001,-312.379"/>
</g>
</g>
</svg>
