<?xml version="1.0" encoding="UTF-8" standalone="no"?>
<!DOCTYPE svg PUBLIC "-//W3C//DTD SVG 1.1//EN"
 "http://www.w3.org/Graphics/SVG/1.1/DTD/svg11.dtd">
<!-- Generated by graphviz version 2.36.0 (20140111.2315)
 -->
<!-- Title: CBlockIndex Pages: 1 -->
<svg width="213pt" height="166pt"
 viewBox="0.00 0.00 213.00 166.00" xmlns="http://www.w3.org/2000/svg" xmlns:xlink="http://www.w3.org/1999/xlink">
<g id="graph0" class="graph" transform="scale(1 1) rotate(0) translate(4 162)">
<title>CBlockIndex</title>
<polygon fill="white" stroke="none" points="-4,4 -4,-162 209,-162 209,4 -4,4"/>
<!-- Node2 -->
<g id="node1" class="node"><title>Node2</title>
<polygon fill="#bfbfbf" stroke="black" points="64.5,-1.5 64.5,-20.5 137.5,-20.5 137.5,-1.5 64.5,-1.5"/>
<text text-anchor="middle" x="101" y="-8.5" font-family="Helvetica,sans-Serif" font-size="10.00">CBlockIndex</text>
</g>
<!-- Node2&#45;&gt;Node2 -->
<g id="edge1" class="edge"><title>Node2&#45;&gt;Node2</title>
<path fill="none" stroke="#9a32cd" stroke-dasharray="5,2" d="M147.79,-17.0282C152.208,-15.7944 155,-13.785 155,-11 155,-6.42969 147.48,-3.94815 137.596,-3.55539"/>
<polygon fill="#9a32cd" stroke="#9a32cd" points="147.019,-13.6015 137.596,-18.4446 147.983,-20.5349 147.019,-13.6015"/>
<text text-anchor="middle" x="168.5" y="-14" font-family="Helvetica,sans-Serif" font-size="10.00"> pskip</text>
<text text-anchor="middle" x="168.5" y="-3" font-family="Helvetica,sans-Serif" font-size="10.00">pprev</text>
</g>
<!-- Node3 -->
<g id="node2" class="node"><title>Node3</title>
<g id="a_node2"><a xlink:href="classuint256.html" target="_top" xlink:title="256&#45;bit opaque blob. ">
<polygon fill="white" stroke="black" points="25,-80.5 25,-99.5 73,-99.5 73,-80.5 25,-80.5"/>
<text text-anchor="middle" x="49" y="-87.5" font-family="Helvetica,sans-Serif" font-size="10.00">uint256</text>
</a>
</g>
</g>
<!-- Node3&#45;&gt;Node2 -->
<g id="edge2" class="edge"><title>Node3&#45;&gt;Node2</title>
<path fill="none" stroke="#9a32cd" stroke-dasharray="5,2" d="M48.0358,-70.0405C48.4077,-60.3561 50.2629,-48.794 56,-40 61.5303,-31.5229 70.6164,-25.1611 79.1815,-20.662"/>
<polygon fill="#9a32cd" stroke="#9a32cd" points="44.5381,-70.3033 48.1368,-80.2682 51.5378,-70.2341 44.5381,-70.3033"/>
<text text-anchor="middle" x="92" y="-54" font-family="Helvetica,sans-Serif" font-size="10.00"> phashBlock</text>
<text text-anchor="middle" x="92" y="-43" font-family="Helvetica,sans-Serif" font-size="10.00">hashMerkleRoot</text>
</g>
<!-- Node4 -->
<g id="node3" class="node"><title>Node4</title>
<g id="a_node3"><a xlink:href="classbase__blob.html" target="_top" xlink:title="base_blob\&lt; 256 \&gt;">
<polygon fill="white" stroke="black" points="-0.5,-138.5 -0.5,-157.5 94.5,-157.5 94.5,-138.5 -0.5,-138.5"/>
<text text-anchor="middle" x="47" y="-145.5" font-family="Helvetica,sans-Serif" font-size="10.00">base_blob&lt; 256 &gt;</text>
</a>
</g>
</g>
<!-- Node4&#45;&gt;Node3 -->
<g id="edge3" class="edge"><title>Node4&#45;&gt;Node3</title>
<path fill="none" stroke="midnightblue" d="M47.6802,-127.953C48.0254,-118.287 48.4275,-107.031 48.6962,-99.5052"/>
<polygon fill="midnightblue" stroke="midnightblue" points="44.1717,-128.131 47.3125,-138.25 51.1673,-128.381 44.1717,-128.131"/>
</g>
<!-- Node5 -->
<g id="node4" class="node"><title>Node5</title>
<g id="a_node4"><a xlink:href="classarith__uint256.html" target="_top" xlink:title="256&#45;bit unsigned big integer. ">
<polygon fill="white" stroke="black" points="122,-80.5 122,-99.5 194,-99.5 194,-80.5 122,-80.5"/>
<text text-anchor="middle" x="158" y="-87.5" font-family="Helvetica,sans-Serif" font-size="10.00">arith_uint256</text>
</a>
</g>
</g>
<!-- Node5&#45;&gt;Node2 -->
<g id="edge4" class="edge"><title>Node5&#45;&gt;Node2</title>
<path fill="none" stroke="#9a32cd" stroke-dasharray="5,2" d="M148.424,-71.3147C142.922,-61.7171 135.609,-49.8383 128,-40 122.712,-33.1624 115.962,-26.1624 110.534,-20.8718"/>
<polygon fill="#9a32cd" stroke="#9a32cd" points="145.511,-73.2784 153.437,-80.3096 151.626,-69.8707 145.511,-73.2784"/>
<text text-anchor="middle" x="172" y="-48.5" font-family="Helvetica,sans-Serif" font-size="10.00"> nChainWork</text>
</g>
<!-- Node6 -->
<g id="node5" class="node"><title>Node6</title>
<g id="a_node5"><a xlink:href="classbase__uint.html" target="_top" xlink:title="base_uint\&lt; 256 \&gt;">
<polygon fill="white" stroke="black" points="113,-138.5 113,-157.5 205,-157.5 205,-138.5 113,-138.5"/>
<text text-anchor="middle" x="159" y="-145.5" font-family="Helvetica,sans-Serif" font-size="10.00">base_uint&lt; 256 &gt;</text>
</a>
</g>
</g>
<!-- Node6&#45;&gt;Node5 -->
<g id="edge5" class="edge"><title>Node6&#45;&gt;Node5</title>
<path fill="none" stroke="midnightblue" d="M158.66,-127.953C158.487,-118.287 158.286,-107.031 158.152,-99.5052"/>
<polygon fill="midnightblue" stroke="midnightblue" points="155.166,-128.314 158.844,-138.25 162.165,-128.189 155.166,-128.314"/>
</g>
</g>
</svg>
