<?xml version="1.0" encoding="UTF-8" standalone="no"?>
<!DOCTYPE svg PUBLIC "-//W3C//DTD SVG 1.1//EN"
 "http://www.w3.org/Graphics/SVG/1.1/DTD/svg11.dtd">
<!-- Generated by graphviz version 2.36.0 (20140111.2315)
 -->
<!-- Title: CAddrInfo Pages: 1 -->
<svg width="106pt" height="212pt"
 viewBox="0.00 0.00 106.00 212.00" xmlns="http://www.w3.org/2000/svg" xmlns:xlink="http://www.w3.org/1999/xlink">
<g id="graph0" class="graph" transform="scale(1 1) rotate(0) translate(4 208)">
<title>CAddrInfo</title>
<polygon fill="white" stroke="none" points="-4,4 -4,-208 102,-208 102,4 -4,4"/>
<!-- Node4 -->
<g id="node1" class="node"><title>Node4</title>
<polygon fill="#bfbfbf" stroke="black" points="-0.5,-0.5 -0.5,-19.5 60.5,-19.5 60.5,-0.5 -0.5,-0.5"/>
<text text-anchor="middle" x="30" y="-7.5" font-family="Helvetica,sans-Serif" font-size="10.00">CAddrInfo</text>
</g>
<!-- Node5 -->
<g id="node2" class="node"><title>Node5</title>
<g id="a_node2"><a xlink:href="class_c_address.html" target="_top" xlink:title="A CService with information about it as peer. ">
<polygon fill="white" stroke="black" points="38,-58.5 38,-77.5 98,-77.5 98,-58.5 38,-58.5"/>
<text text-anchor="middle" x="68" y="-65.5" font-family="Helvetica,sans-Serif" font-size="10.00">CAddress</text>
</a>
</g>
</g>
<!-- Node5&#45;&gt;Node4 -->
<g id="edge1" class="edge"><title>Node5&#45;&gt;Node4</title>
<path fill="none" stroke="midnightblue" d="M56.3437,-49.8224C49.5236,-39.7716 41.2114,-27.522 35.7714,-19.5052"/>
<polygon fill="midnightblue" stroke="midnightblue" points="53.5513,-51.9405 62.0625,-58.25 59.3436,-48.01 53.5513,-51.9405"/>
</g>
<!-- Node6 -->
<g id="node3" class="node"><title>Node6</title>
<g id="a_node3"><a xlink:href="class_c_service.html" target="_top" xlink:title="A combination of a network address (CNetAddr) and a (TCP) port. ">
<polygon fill="white" stroke="black" points="38.5,-126.5 38.5,-145.5 95.5,-145.5 95.5,-126.5 38.5,-126.5"/>
<text text-anchor="middle" x="67" y="-133.5" font-family="Helvetica,sans-Serif" font-size="10.00">CService</text>
</a>
</g>
</g>
<!-- Node6&#45;&gt;Node5 -->
<g id="edge2" class="edge"><title>Node6&#45;&gt;Node5</title>
<path fill="none" stroke="midnightblue" d="M67.2873,-116.041C67.4777,-103.472 67.7187,-87.5631 67.866,-77.8411"/>
<polygon fill="midnightblue" stroke="midnightblue" points="63.7827,-116.32 67.1307,-126.372 70.7819,-116.426 63.7827,-116.32"/>
</g>
<!-- Node7 -->
<g id="node4" class="node"><title>Node7</title>
<g id="a_node4"><a xlink:href="class_c_net_addr.html" target="_top" xlink:title="IP address (IPv6, or IPv4 using mapped IPv6 range (::FFFF:0:0/96)) ">
<polygon fill="white" stroke="black" points="0,-184.5 0,-203.5 60,-203.5 60,-184.5 0,-184.5"/>
<text text-anchor="middle" x="30" y="-191.5" font-family="Helvetica,sans-Serif" font-size="10.00">CNetAddr</text>
</a>
</g>
</g>
<!-- Node7&#45;&gt;Node4 -->
<g id="edge4" class="edge"><title>Node7&#45;&gt;Node4</title>
<path fill="none" stroke="#9a32cd" stroke-dasharray="5,2" d="M29.5098,-174.255C29.3082,-165.647 29.099,-155.306 29,-146 28.584,-106.891 28.584,-97.1089 29,-58 29.1424,-44.6158 29.5127,-29.0913 29.7605,-19.6616"/>
<polygon fill="#9a32cd" stroke="#9a32cd" points="26.013,-174.429 29.7605,-184.338 33.0108,-174.254 26.013,-174.429"/>
<text text-anchor="middle" x="45.5" y="-99.5" font-family="Helvetica,sans-Serif" font-size="10.00"> source</text>
</g>
<!-- Node7&#45;&gt;Node6 -->
<g id="edge3" class="edge"><title>Node7&#45;&gt;Node6</title>
<path fill="none" stroke="midnightblue" d="M41.3495,-175.822C47.9902,-165.772 56.0837,-153.522 61.3805,-145.505"/>
<polygon fill="midnightblue" stroke="midnightblue" points="38.3737,-173.977 35.7812,-184.25 44.214,-177.836 38.3737,-173.977"/>
</g>
</g>
</svg>
