<?xml version="1.0" encoding="UTF-8" standalone="no"?>
<!DOCTYPE svg PUBLIC "-//W3C//DTD SVG 1.1//EN"
 "http://www.w3.org/Graphics/SVG/1.1/DTD/svg11.dtd">
<!-- Generated by graphviz version 2.36.0 (20140111.2315)
 -->
<!-- Title: CGovernanceVote Pages: 1 -->
<svg width="206pt" height="224pt"
 viewBox="0.00 0.00 206.00 224.00" xmlns="http://www.w3.org/2000/svg" xmlns:xlink="http://www.w3.org/1999/xlink">
<g id="graph0" class="graph" transform="scale(1 1) rotate(0) translate(4 220)">
<title>CGovernanceVote</title>
<polygon fill="white" stroke="none" points="-4,4 -4,-220 202,-220 202,4 -4,4"/>
<!-- Node1 -->
<g id="node1" class="node"><title>Node1</title>
<polygon fill="#bfbfbf" stroke="black" points="17.5,-0.5 17.5,-19.5 114.5,-19.5 114.5,-0.5 17.5,-0.5"/>
<text text-anchor="middle" x="66" y="-7.5" font-family="Helvetica,sans-Serif" font-size="10.00">CGovernanceVote</text>
</g>
<!-- Node2 -->
<g id="node2" class="node"><title>Node2</title>
<g id="a_node2"><a xlink:href="class_c_out_point.html" target="_top" xlink:title="An outpoint &#45; a combination of a transaction hash and an index n into its vout. ">
<polygon fill="white" stroke="black" points="110,-69.5 110,-88.5 172,-88.5 172,-69.5 110,-69.5"/>
<text text-anchor="middle" x="141" y="-76.5" font-family="Helvetica,sans-Serif" font-size="10.00">COutPoint</text>
</a>
</g>
</g>
<!-- Node2&#45;&gt;Node1 -->
<g id="edge1" class="edge"><title>Node2&#45;&gt;Node1</title>
<path fill="none" stroke="#9a32cd" stroke-dasharray="5,2" d="M123.607,-62.4623C108.656,-49.1061 87.6506,-30.3412 75.5702,-19.5494"/>
<polygon fill="#9a32cd" stroke="#9a32cd" points="121.406,-65.1889 131.195,-69.2409 126.069,-59.9686 121.406,-65.1889"/>
<text text-anchor="middle" x="152.5" y="-41.5" font-family="Helvetica,sans-Serif" font-size="10.00"> masternodeOutpoint</text>
</g>
<!-- Node3 -->
<g id="node3" class="node"><title>Node3</title>
<g id="a_node3"><a xlink:href="classuint256.html" target="_top" xlink:title="256&#45;bit opaque blob. ">
<polygon fill="white" stroke="black" points="23,-138.5 23,-157.5 71,-157.5 71,-138.5 23,-138.5"/>
<text text-anchor="middle" x="47" y="-145.5" font-family="Helvetica,sans-Serif" font-size="10.00">uint256</text>
</a>
</g>
</g>
<!-- Node3&#45;&gt;Node1 -->
<g id="edge4" class="edge"><title>Node3&#45;&gt;Node1</title>
<path fill="none" stroke="#9a32cd" stroke-dasharray="5,2" d="M42.2135,-128.326C38.8192,-112.191 35.5814,-88.3339 40,-68 43.9263,-49.9313 54.1035,-30.7243 60.4981,-19.8587"/>
<polygon fill="#9a32cd" stroke="#9a32cd" points="38.8184,-129.179 44.4963,-138.124 45.6358,-127.59 38.8184,-129.179"/>
<text text-anchor="middle" x="70.5" y="-82" font-family="Helvetica,sans-Serif" font-size="10.00"> nParentHash</text>
<text text-anchor="middle" x="70.5" y="-71" font-family="Helvetica,sans-Serif" font-size="10.00">hash</text>
</g>
<!-- Node3&#45;&gt;Node2 -->
<g id="edge2" class="edge"><title>Node3&#45;&gt;Node2</title>
<path fill="none" stroke="#9a32cd" stroke-dasharray="5,2" d="M67.5104,-132.381C86.3129,-118.979 113.514,-99.591 129.005,-88.5494"/>
<polygon fill="#9a32cd" stroke="#9a32cd" points="65.4006,-129.587 59.2889,-138.241 69.4635,-135.287 65.4006,-129.587"/>
<text text-anchor="middle" x="111.5" y="-111.5" font-family="Helvetica,sans-Serif" font-size="10.00"> hash</text>
</g>
<!-- Node4 -->
<g id="node4" class="node"><title>Node4</title>
<g id="a_node4"><a xlink:href="classbase__blob.html" target="_top" xlink:title="base_blob\&lt; 256 \&gt;">
<polygon fill="white" stroke="black" points="-0.5,-196.5 -0.5,-215.5 94.5,-215.5 94.5,-196.5 -0.5,-196.5"/>
<text text-anchor="middle" x="47" y="-203.5" font-family="Helvetica,sans-Serif" font-size="10.00">base_blob&lt; 256 &gt;</text>
</a>
</g>
</g>
<!-- Node4&#45;&gt;Node3 -->
<g id="edge3" class="edge"><title>Node4&#45;&gt;Node3</title>
<path fill="none" stroke="midnightblue" d="M47,-185.953C47,-176.287 47,-165.031 47,-157.505"/>
<polygon fill="midnightblue" stroke="midnightblue" points="43.5001,-186.25 47,-196.25 50.5001,-186.25 43.5001,-186.25"/>
</g>
</g>
</svg>
