<?xml version="1.0" encoding="UTF-8" standalone="no"?>
<!DOCTYPE svg PUBLIC "-//W3C//DTD SVG 1.1//EN"
 "http://www.w3.org/Graphics/SVG/1.1/DTD/svg11.dtd">
<!-- Generated by graphviz version 2.36.0 (20140111.2315)
 -->
<!-- Title: RPCTimerBase Pages: 1 -->
<svg width="211pt" height="84pt"
 viewBox="0.00 0.00 211.00 84.00" xmlns="http://www.w3.org/2000/svg" xmlns:xlink="http://www.w3.org/1999/xlink">
<g id="graph0" class="graph" transform="scale(1 1) rotate(0) translate(4 80)">
<title>RPCTimerBase</title>
<polygon fill="white" stroke="none" points="-4,4 -4,-80 207,-80 207,4 -4,4"/>
<!-- Node0 -->
<g id="node1" class="node"><title>Node0</title>
<polygon fill="#bfbfbf" stroke="black" points="56,-56.5 56,-75.5 142,-75.5 142,-56.5 56,-56.5"/>
<text text-anchor="middle" x="99" y="-63.5" font-family="Helvetica,sans-Serif" font-size="10.00">RPCTimerBase</text>
</g>
<!-- Node1 -->
<g id="node2" class="node"><title>Node1</title>
<g id="a_node2"><a xlink:href="class_h_t_t_p_r_p_c_timer.html" target="_top" xlink:title="Simple one&#45;shot callback timer to be used by the RPC mechanism to e.g. ">
<polygon fill="white" stroke="black" points="-0.5,-0.5 -0.5,-19.5 88.5,-19.5 88.5,-0.5 -0.5,-0.5"/>
<text text-anchor="middle" x="44" y="-7.5" font-family="Helvetica,sans-Serif" font-size="10.00">HTTPRPCTimer</text>
</a>
</g>
</g>
<!-- Node0&#45;&gt;Node1 -->
<g id="edge1" class="edge"><title>Node0&#45;&gt;Node1</title>
<path fill="none" stroke="midnightblue" d="M82.7062,-49.0024C72.9594,-39.4329 60.947,-27.6389 52.9131,-19.7511"/>
<polygon fill="midnightblue" stroke="midnightblue" points="80.3301,-51.5746 89.9179,-56.083 85.2343,-46.5796 80.3301,-51.5746"/>
</g>
<!-- Node2 -->
<g id="node3" class="node"><title>Node2</title>
<g id="a_node3"><a xlink:href="class_qt_r_p_c_timer_base.html" target="_top" xlink:title="Class for handling RPC timers (used for e.g. ">
<polygon fill="white" stroke="black" points="107,-0.5 107,-19.5 203,-19.5 203,-0.5 107,-0.5"/>
<text text-anchor="middle" x="155" y="-7.5" font-family="Helvetica,sans-Serif" font-size="10.00">QtRPCTimerBase</text>
</a>
</g>
</g>
<!-- Node0&#45;&gt;Node2 -->
<g id="edge2" class="edge"><title>Node0&#45;&gt;Node2</title>
<path fill="none" stroke="midnightblue" d="M115.33,-49.2533C125.265,-39.6731 137.588,-27.7906 145.839,-19.8339"/>
<polygon fill="midnightblue" stroke="midnightblue" points="112.766,-46.8631 107.997,-56.324 117.625,-51.902 112.766,-46.8631"/>
</g>
</g>
</svg>
