<?xml version="1.0" encoding="UTF-8" standalone="no"?>
<!DOCTYPE svg PUBLIC "-//W3C//DTD SVG 1.1//EN"
 "http://www.w3.org/Graphics/SVG/1.1/DTD/svg11.dtd">
<!-- Generated by graphviz version 2.36.0 (20140111.2315)
 -->
<!-- Title: CAffectedKeysVisitor Pages: 1 -->
<svg width="221pt" height="304pt"
 viewBox="0.00 0.00 221.00 304.00" xmlns="http://www.w3.org/2000/svg" xmlns:xlink="http://www.w3.org/1999/xlink">
<g id="graph0" class="graph" transform="scale(1 1) rotate(0) translate(4 300)">
<title>CAffectedKeysVisitor</title>
<polygon fill="white" stroke="none" points="-4,4 -4,-300 217,-300 217,4 -4,4"/>
<!-- Node2 -->
<g id="node1" class="node"><title>Node2</title>
<polygon fill="#bfbfbf" stroke="black" points="28.5,-0.5 28.5,-19.5 139.5,-19.5 139.5,-0.5 28.5,-0.5"/>
<text text-anchor="middle" x="84" y="-7.5" font-family="Helvetica,sans-Serif" font-size="10.00">CAffectedKeysVisitor</text>
</g>
<!-- Node3 -->
<g id="node2" class="node"><title>Node3</title>
<polygon fill="white" stroke="#bfbfbf" points="0,-69 0,-99 102,-99 102,-69 0,-69"/>
<text text-anchor="start" x="8" y="-87" font-family="Helvetica,sans-Serif" font-size="10.00">boost::static_visitor</text>
<text text-anchor="middle" x="51" y="-76" font-family="Helvetica,sans-Serif" font-size="10.00">&lt; void &gt;</text>
</g>
<!-- Node3&#45;&gt;Node2 -->
<g id="edge1" class="edge"><title>Node3&#45;&gt;Node2</title>
<path fill="none" stroke="midnightblue" d="M61.7784,-59.4835C68.0117,-45.8836 75.4883,-29.571 79.9855,-19.7589"/>
<polygon fill="midnightblue" stroke="midnightblue" points="58.5046,-58.2261 57.5197,-68.7751 64.8681,-61.1428 58.5046,-58.2261"/>
</g>
<!-- Node4 -->
<g id="node3" class="node"><title>Node4</title>
<g id="a_node3"><a xlink:href="class_c_key_store.html" target="_top" xlink:title="A virtual base class for key stores. ">
<polygon fill="white" stroke="black" points="120.5,-74.5 120.5,-93.5 185.5,-93.5 185.5,-74.5 120.5,-74.5"/>
<text text-anchor="middle" x="153" y="-81.5" font-family="Helvetica,sans-Serif" font-size="10.00">CKeyStore</text>
</a>
</g>
</g>
<!-- Node4&#45;&gt;Node2 -->
<g id="edge2" class="edge"><title>Node4&#45;&gt;Node2</title>
<path fill="none" stroke="#9a32cd" stroke-dasharray="5,2" d="M137.749,-67.0857C123.695,-52.421 103.374,-31.2168 92.1755,-19.531"/>
<polygon fill="#9a32cd" stroke="#9a32cd" points="135.368,-69.6597 144.814,-74.4579 140.422,-64.8163 135.368,-69.6597"/>
<text text-anchor="middle" x="140.5" y="-41.5" font-family="Helvetica,sans-Serif" font-size="10.00"> keystore</text>
</g>
<!-- Node5 -->
<g id="node4" class="node"><title>Node5</title>
<g id="a_node4"><a xlink:href="class_c_critical_section.html" target="_top" xlink:title="Wrapped boost mutex: supports recursive locking, but no waiting TODO: We should move away from using ...">
<polygon fill="white" stroke="black" points="109,-148.5 109,-167.5 197,-167.5 197,-148.5 109,-148.5"/>
<text text-anchor="middle" x="153" y="-155.5" font-family="Helvetica,sans-Serif" font-size="10.00">CCriticalSection</text>
</a>
</g>
</g>
<!-- Node5&#45;&gt;Node4 -->
<g id="edge3" class="edge"><title>Node5&#45;&gt;Node4</title>
<path fill="none" stroke="#9a32cd" stroke-dasharray="5,2" d="M153,-138.156C153,-123.712 153,-104.459 153,-93.531"/>
<polygon fill="#9a32cd" stroke="#9a32cd" points="149.5,-138.458 153,-148.458 156.5,-138.458 149.5,-138.458"/>
<text text-anchor="middle" x="183" y="-121.5" font-family="Helvetica,sans-Serif" font-size="10.00"> cs_KeyStore</text>
</g>
<!-- Node6 -->
<g id="node5" class="node"><title>Node6</title>
<polygon fill="white" stroke="#bfbfbf" points="94.5,-207 94.5,-237 211.5,-237 211.5,-207 94.5,-207"/>
<text text-anchor="start" x="102.5" y="-225" font-family="Helvetica,sans-Serif" font-size="10.00">AnnotatedMixin&lt; boost</text>
<text text-anchor="middle" x="153" y="-214" font-family="Helvetica,sans-Serif" font-size="10.00">::recursive_mutex &gt;</text>
</g>
<!-- Node6&#45;&gt;Node5 -->
<g id="edge4" class="edge"><title>Node6&#45;&gt;Node5</title>
<path fill="none" stroke="midnightblue" d="M153,-196.871C153,-186.663 153,-175.408 153,-167.842"/>
<polygon fill="midnightblue" stroke="midnightblue" points="149.5,-196.931 153,-206.931 156.5,-196.931 149.5,-196.931"/>
</g>
<!-- Node7 -->
<g id="node6" class="node"><title>Node7</title>
<polygon fill="white" stroke="#bfbfbf" points="93.5,-276.5 93.5,-295.5 212.5,-295.5 212.5,-276.5 93.5,-276.5"/>
<text text-anchor="middle" x="153" y="-283.5" font-family="Helvetica,sans-Serif" font-size="10.00">boost::recursive_mutex</text>
</g>
<!-- Node7&#45;&gt;Node6 -->
<g id="edge5" class="edge"><title>Node7&#45;&gt;Node6</title>
<path fill="none" stroke="midnightblue" d="M153,-266.183C153,-256.886 153,-245.851 153,-237.263"/>
<polygon fill="midnightblue" stroke="midnightblue" points="149.5,-266.379 153,-276.379 156.5,-266.379 149.5,-266.379"/>
</g>
</g>
</svg>
