<?xml version="1.0" encoding="UTF-8" standalone="no"?>
<!DOCTYPE svg PUBLIC "-//W3C//DTD SVG 1.1//EN"
 "http://www.w3.org/Graphics/SVG/1.1/DTD/svg11.dtd">
<!-- Generated by graphviz version 2.36.0 (20140111.2315)
 -->
<!-- Title: CGovernanceObject Pages: 1 -->
<svg width="726pt" height="204pt"
 viewBox="0.00 0.00 726.00 204.00" xmlns="http://www.w3.org/2000/svg" xmlns:xlink="http://www.w3.org/1999/xlink">
<g id="graph0" class="graph" transform="scale(1 1) rotate(0) translate(4 200)">
<title>CGovernanceObject</title>
<polygon fill="white" stroke="none" points="-4,4 -4,-200 722,-200 722,4 -4,4"/>
<!-- Node2 -->
<g id="node1" class="node"><title>Node2</title>
<polygon fill="#bfbfbf" stroke="black" points="612.5,-87.5 612.5,-106.5 717.5,-106.5 717.5,-87.5 612.5,-87.5"/>
<text text-anchor="middle" x="665" y="-94.5" font-family="Helvetica,sans-Serif" font-size="10.00">CGovernanceObject</text>
</g>
<!-- Node3 -->
<g id="node2" class="node"><title>Node3</title>
<g id="a_node2"><a xlink:href="class_c_out_point.html" target="_top" xlink:title="An outpoint &#45; a combination of a transaction hash and an index n into its vout. ">
<polygon fill="white" stroke="black" points="379,-125.5 379,-144.5 441,-144.5 441,-125.5 379,-125.5"/>
<text text-anchor="middle" x="410" y="-132.5" font-family="Helvetica,sans-Serif" font-size="10.00">COutPoint</text>
</a>
</g>
</g>
<!-- Node3&#45;&gt;Node2 -->
<g id="edge1" class="edge"><title>Node3&#45;&gt;Node2</title>
<path fill="none" stroke="#9a32cd" stroke-dasharray="5,2" d="M451.144,-130.519C488.297,-126.187 545.02,-119.1 594,-111 601.948,-109.686 610.372,-108.136 618.519,-106.556"/>
<polygon fill="#9a32cd" stroke="#9a32cd" points="450.739,-127.043 441.207,-131.667 451.542,-133.996 450.739,-127.043"/>
<text text-anchor="middle" x="547" y="-128" font-family="Helvetica,sans-Serif" font-size="10.00"> masternodeOutpoint</text>
</g>
<!-- Node4 -->
<g id="node3" class="node"><title>Node4</title>
<g id="a_node3"><a xlink:href="classuint256.html" target="_top" xlink:title="256&#45;bit opaque blob. ">
<polygon fill="white" stroke="black" points="193,-158.5 193,-177.5 241,-177.5 241,-158.5 193,-158.5"/>
<text text-anchor="middle" x="217" y="-165.5" font-family="Helvetica,sans-Serif" font-size="10.00">uint256</text>
</a>
</g>
</g>
<!-- Node4&#45;&gt;Node2 -->
<g id="edge5" class="edge"><title>Node4&#45;&gt;Node2</title>
<path fill="none" stroke="#9a32cd" stroke-dasharray="5,2" d="M251.29,-171.185C318.34,-176.391 473.522,-182.293 594,-140 616.07,-132.252 638.591,-116.784 651.927,-106.667"/>
<polygon fill="#9a32cd" stroke="#9a32cd" points="251.558,-167.695 241.305,-170.363 250.984,-174.671 251.558,-167.695"/>
<text text-anchor="middle" x="410" y="-188" font-family="Helvetica,sans-Serif" font-size="10.00"> nCollateralHash</text>
<text text-anchor="middle" x="410" y="-177" font-family="Helvetica,sans-Serif" font-size="10.00">nHashParent</text>
</g>
<!-- Node4&#45;&gt;Node3 -->
<g id="edge2" class="edge"><title>Node4&#45;&gt;Node3</title>
<path fill="none" stroke="#9a32cd" stroke-dasharray="5,2" d="M251.046,-162.29C287.063,-156.068 344.186,-146.198 378.969,-140.189"/>
<polygon fill="#9a32cd" stroke="#9a32cd" points="250.297,-158.868 241.039,-164.019 251.489,-165.766 250.297,-158.868"/>
<text text-anchor="middle" x="307" y="-157" font-family="Helvetica,sans-Serif" font-size="10.00"> hash</text>
</g>
<!-- Node5 -->
<g id="node4" class="node"><title>Node5</title>
<g id="a_node4"><a xlink:href="classbase__blob.html" target="_top" xlink:title="base_blob\&lt; 256 \&gt;">
<polygon fill="white" stroke="black" points="12.5,-158.5 12.5,-177.5 107.5,-177.5 107.5,-158.5 12.5,-158.5"/>
<text text-anchor="middle" x="60" y="-165.5" font-family="Helvetica,sans-Serif" font-size="10.00">base_blob&lt; 256 &gt;</text>
</a>
</g>
</g>
<!-- Node5&#45;&gt;Node4 -->
<g id="edge3" class="edge"><title>Node5&#45;&gt;Node4</title>
<path fill="none" stroke="midnightblue" d="M117.651,-168C143.653,-168 173.039,-168 192.863,-168"/>
<polygon fill="midnightblue" stroke="midnightblue" points="117.505,-164.5 107.505,-168 117.505,-171.5 117.505,-164.5"/>
</g>
<!-- Node6 -->
<g id="node5" class="node"><title>Node6</title>
<g id="a_node5"><a xlink:href="class_c_governance_object_vote_file.html" target="_top" xlink:title="Represents the collection of votes associated with a given CGovernanceObject Recently received votes ...">
<polygon fill="white" stroke="black" points="339.5,-87.5 339.5,-106.5 480.5,-106.5 480.5,-87.5 339.5,-87.5"/>
<text text-anchor="middle" x="410" y="-94.5" font-family="Helvetica,sans-Serif" font-size="10.00">CGovernanceObjectVoteFile</text>
</a>
</g>
</g>
<!-- Node6&#45;&gt;Node2 -->
<g id="edge4" class="edge"><title>Node6&#45;&gt;Node2</title>
<path fill="none" stroke="#9a32cd" stroke-dasharray="5,2" d="M491.004,-97C530.732,-97 577.568,-97 612.481,-97"/>
<polygon fill="#9a32cd" stroke="#9a32cd" points="490.803,-93.5001 480.803,-97 490.803,-100.5 490.803,-93.5001"/>
<text text-anchor="middle" x="547" y="-100" font-family="Helvetica,sans-Serif" font-size="10.00"> fileVotes</text>
</g>
<!-- Node7 -->
<g id="node6" class="node"><title>Node7</title>
<g id="a_node6"><a xlink:href="class_c_critical_section.html" target="_top" xlink:title="Wrapped boost mutex: supports recursive locking, but no waiting TODO: We should move away from using ...">
<polygon fill="white" stroke="black" points="366,-49.5 366,-68.5 454,-68.5 454,-49.5 366,-49.5"/>
<text text-anchor="middle" x="410" y="-56.5" font-family="Helvetica,sans-Serif" font-size="10.00">CCriticalSection</text>
</a>
</g>
</g>
<!-- Node7&#45;&gt;Node2 -->
<g id="edge6" class="edge"><title>Node7&#45;&gt;Node2</title>
<path fill="none" stroke="#9a32cd" stroke-dasharray="5,2" d="M464.012,-64.4418C500.643,-68.5004 550.426,-74.6073 594,-82 603.19,-83.5592 613.004,-85.4923 622.286,-87.4463"/>
<polygon fill="#9a32cd" stroke="#9a32cd" points="464.366,-60.9597 454.045,-63.352 463.605,-67.9183 464.366,-60.9597"/>
<text text-anchor="middle" x="547" y="-85" font-family="Helvetica,sans-Serif" font-size="10.00"> cs</text>
</g>
<!-- Node8 -->
<g id="node7" class="node"><title>Node8</title>
<polygon fill="white" stroke="#bfbfbf" points="158.5,-44 158.5,-74 275.5,-74 275.5,-44 158.5,-44"/>
<text text-anchor="start" x="166.5" y="-62" font-family="Helvetica,sans-Serif" font-size="10.00">AnnotatedMixin&lt; boost</text>
<text text-anchor="middle" x="217" y="-51" font-family="Helvetica,sans-Serif" font-size="10.00">::recursive_mutex &gt;</text>
</g>
<!-- Node8&#45;&gt;Node7 -->
<g id="edge7" class="edge"><title>Node8&#45;&gt;Node7</title>
<path fill="none" stroke="midnightblue" d="M285.615,-59C312.294,-59 342.156,-59 365.819,-59"/>
<polygon fill="midnightblue" stroke="midnightblue" points="285.565,-55.5001 275.565,-59 285.565,-62.5001 285.565,-55.5001"/>
</g>
<!-- Node9 -->
<g id="node8" class="node"><title>Node9</title>
<polygon fill="white" stroke="#bfbfbf" points="0.5,-49.5 0.5,-68.5 119.5,-68.5 119.5,-49.5 0.5,-49.5"/>
<text text-anchor="middle" x="60" y="-56.5" font-family="Helvetica,sans-Serif" font-size="10.00">boost::recursive_mutex</text>
</g>
<!-- Node9&#45;&gt;Node8 -->
<g id="edge8" class="edge"><title>Node9&#45;&gt;Node8</title>
<path fill="none" stroke="midnightblue" d="M129.834,-59C139.356,-59 149.055,-59 158.346,-59"/>
<polygon fill="midnightblue" stroke="midnightblue" points="129.599,-55.5001 119.599,-59 129.599,-62.5001 129.599,-55.5001"/>
</g>
<!-- Node10 -->
<g id="node9" class="node"><title>Node10</title>
<g id="a_node9"><a xlink:href="class_cache_multi_map.html" target="_top" xlink:title="CacheMultiMap\&lt; COutPoint,\l vote_time_pair_t \&gt;">
<polygon fill="white" stroke="black" points="338.5,-0 338.5,-30 481.5,-30 481.5,-0 338.5,-0"/>
<text text-anchor="start" x="346.5" y="-18" font-family="Helvetica,sans-Serif" font-size="10.00">CacheMultiMap&lt; COutPoint,</text>
<text text-anchor="middle" x="410" y="-7" font-family="Helvetica,sans-Serif" font-size="10.00"> vote_time_pair_t &gt;</text>
</a>
</g>
</g>
<!-- Node10&#45;&gt;Node2 -->
<g id="edge9" class="edge"><title>Node10&#45;&gt;Node2</title>
<path fill="none" stroke="#9a32cd" stroke-dasharray="5,2" d="M491.591,-26.7644C524.108,-33.0036 561.539,-42.117 594,-55 615.077,-63.3648 637.151,-77.6798 650.743,-87.2398"/>
<polygon fill="#9a32cd" stroke="#9a32cd" points="492.139,-23.3064 481.668,-24.9193 490.859,-30.1884 492.139,-23.3064"/>
<text text-anchor="middle" x="547" y="-58" font-family="Helvetica,sans-Serif" font-size="10.00"> cmmapOrphanVotes</text>
</g>
</g>
</svg>
