<?xml version="1.0" encoding="UTF-8" standalone="no"?>
<!DOCTYPE svg PUBLIC "-//W3C//DTD SVG 1.1//EN"
 "http://www.w3.org/Graphics/SVG/1.1/DTD/svg11.dtd">
<!-- Generated by graphviz version 2.36.0 (20140111.2315)
 -->
<!-- Title: TxInUndoSerializer Pages: 1 -->
<svg width="132pt" height="370pt"
 viewBox="0.00 0.00 132.00 370.00" xmlns="http://www.w3.org/2000/svg" xmlns:xlink="http://www.w3.org/1999/xlink">
<g id="graph0" class="graph" transform="scale(1 1) rotate(0) translate(4 366)">
<title>TxInUndoSerializer</title>
<polygon fill="white" stroke="none" points="-4,4 -4,-366 128,-366 128,4 -4,4"/>
<!-- Node1 -->
<g id="node1" class="node"><title>Node1</title>
<polygon fill="#bfbfbf" stroke="black" points="12,-0.5 12,-19.5 112,-19.5 112,-0.5 12,-0.5"/>
<text text-anchor="middle" x="62" y="-7.5" font-family="Helvetica,sans-Serif" font-size="10.00">TxInUndoSerializer</text>
</g>
<!-- Node2 -->
<g id="node2" class="node"><title>Node2</title>
<g id="a_node2"><a xlink:href="class_coin.html" target="_top" xlink:title="A UTXO entry. ">
<polygon fill="white" stroke="black" points="43.5,-68.5 43.5,-87.5 80.5,-87.5 80.5,-68.5 43.5,-68.5"/>
<text text-anchor="middle" x="62" y="-75.5" font-family="Helvetica,sans-Serif" font-size="10.00">Coin</text>
</a>
</g>
</g>
<!-- Node2&#45;&gt;Node1 -->
<g id="edge1" class="edge"><title>Node2&#45;&gt;Node1</title>
<path fill="none" stroke="#9a32cd" stroke-dasharray="5,2" d="M62,-58.0413C62,-45.4724 62,-29.5631 62,-19.8411"/>
<polygon fill="#9a32cd" stroke="#9a32cd" points="58.5001,-58.3716 62,-68.3717 65.5001,-58.3717 58.5001,-58.3716"/>
<text text-anchor="middle" x="74.5" y="-41.5" font-family="Helvetica,sans-Serif" font-size="10.00"> txout</text>
</g>
<!-- Node3 -->
<g id="node3" class="node"><title>Node3</title>
<g id="a_node3"><a xlink:href="class_c_tx_out.html" target="_top" xlink:title="An output of a transaction. ">
<polygon fill="white" stroke="black" points="36.5,-136.5 36.5,-155.5 87.5,-155.5 87.5,-136.5 36.5,-136.5"/>
<text text-anchor="middle" x="62" y="-143.5" font-family="Helvetica,sans-Serif" font-size="10.00">CTxOut</text>
</a>
</g>
</g>
<!-- Node3&#45;&gt;Node2 -->
<g id="edge2" class="edge"><title>Node3&#45;&gt;Node2</title>
<path fill="none" stroke="#9a32cd" stroke-dasharray="5,2" d="M62,-126.041C62,-113.472 62,-97.5631 62,-87.8411"/>
<polygon fill="#9a32cd" stroke="#9a32cd" points="58.5001,-126.372 62,-136.372 65.5001,-126.372 58.5001,-126.372"/>
<text text-anchor="middle" x="70.5" y="-109.5" font-family="Helvetica,sans-Serif" font-size="10.00"> out</text>
</g>
<!-- Node4 -->
<g id="node4" class="node"><title>Node4</title>
<g id="a_node4"><a xlink:href="class_c_script.html" target="_top" xlink:title="Serialized script, used inside transaction inputs and outputs. ">
<polygon fill="white" stroke="black" points="37,-204.5 37,-223.5 87,-223.5 87,-204.5 37,-204.5"/>
<text text-anchor="middle" x="62" y="-211.5" font-family="Helvetica,sans-Serif" font-size="10.00">CScript</text>
</a>
</g>
</g>
<!-- Node4&#45;&gt;Node3 -->
<g id="edge3" class="edge"><title>Node4&#45;&gt;Node3</title>
<path fill="none" stroke="#9a32cd" stroke-dasharray="5,2" d="M62,-194.041C62,-181.472 62,-165.563 62,-155.841"/>
<polygon fill="#9a32cd" stroke="#9a32cd" points="58.5001,-194.372 62,-204.372 65.5001,-194.372 58.5001,-194.372"/>
<text text-anchor="middle" x="93" y="-177.5" font-family="Helvetica,sans-Serif" font-size="10.00"> scriptPubKey</text>
</g>
<!-- Node5 -->
<g id="node5" class="node"><title>Node5</title>
<g id="a_node5"><a xlink:href="classprevector.html" target="_top" xlink:title="Implements a drop&#45;in replacement for std::vector&lt;T&gt; which stores up to N elements directly (without h...">
<polygon fill="white" stroke="black" points="26,-262.5 26,-281.5 98,-281.5 98,-262.5 26,-262.5"/>
<text text-anchor="middle" x="62" y="-269.5" font-family="Helvetica,sans-Serif" font-size="10.00">CScriptBase</text>
</a>
</g>
</g>
<!-- Node5&#45;&gt;Node4 -->
<g id="edge4" class="edge"><title>Node5&#45;&gt;Node4</title>
<path fill="none" stroke="midnightblue" d="M62,-251.953C62,-242.287 62,-231.031 62,-223.505"/>
<polygon fill="midnightblue" stroke="midnightblue" points="58.5001,-252.25 62,-262.25 65.5001,-252.25 58.5001,-252.25"/>
</g>
<!-- Node6 -->
<g id="node6" class="node"><title>Node6</title>
<g id="a_node6"><a xlink:href="unionprevector_1_1direct__or__indirect.html" target="_top" xlink:title="prevector\&lt; N, T, Size,\l Diff \&gt;::direct_or_indirect">
<polygon fill="white" stroke="black" points="-0.5,-331 -0.5,-361 124.5,-361 124.5,-331 -0.5,-331"/>
<text text-anchor="start" x="7.5" y="-349" font-family="Helvetica,sans-Serif" font-size="10.00">prevector&lt; N, T, Size,</text>
<text text-anchor="middle" x="62" y="-338" font-family="Helvetica,sans-Serif" font-size="10.00"> Diff &gt;::direct_or_indirect</text>
</a>
</g>
</g>
<!-- Node6&#45;&gt;Node5 -->
<g id="edge5" class="edge"><title>Node6&#45;&gt;Node5</title>
<path fill="none" stroke="#9a32cd" stroke-dasharray="5,2" d="M62,-320.688C62,-307.253 62,-291.38 62,-281.759"/>
<polygon fill="#9a32cd" stroke="#9a32cd" points="58.5001,-320.775 62,-330.775 65.5001,-320.775 58.5001,-320.775"/>
<text text-anchor="middle" x="78" y="-303.5" font-family="Helvetica,sans-Serif" font-size="10.00"> _union</text>
</g>
</g>
</svg>
