<?xml version="1.0" encoding="UTF-8" standalone="no"?>
<!DOCTYPE svg PUBLIC "-//W3C//DTD SVG 1.1//EN"
 "http://www.w3.org/Graphics/SVG/1.1/DTD/svg11.dtd">
<!-- Generated by graphviz version 2.36.0 (20140111.2315)
 -->
<!-- Title: CPrivateSendBaseSession Pages: 1 -->
<svg width="271pt" height="224pt"
 viewBox="0.00 0.00 271.00 224.00" xmlns="http://www.w3.org/2000/svg" xmlns:xlink="http://www.w3.org/1999/xlink">
<g id="graph0" class="graph" transform="scale(1 1) rotate(0) translate(4 220)">
<title>CPrivateSendBaseSession</title>
<polygon fill="white" stroke="none" points="-4,4 -4,-220 267,-220 267,4 -4,4"/>
<!-- Node3 -->
<g id="node1" class="node"><title>Node3</title>
<polygon fill="#bfbfbf" stroke="black" points="61.5,-0.5 61.5,-19.5 196.5,-19.5 196.5,-0.5 61.5,-0.5"/>
<text text-anchor="middle" x="129" y="-7.5" font-family="Helvetica,sans-Serif" font-size="10.00">CPrivateSendBaseSession</text>
</g>
<!-- Node4 -->
<g id="node2" class="node"><title>Node4</title>
<g id="a_node2"><a xlink:href="class_c_critical_section.html" target="_top" xlink:title="Wrapped boost mutex: supports recursive locking, but no waiting TODO: We should move away from using ...">
<polygon fill="white" stroke="black" points="15,-68.5 15,-87.5 103,-87.5 103,-68.5 15,-68.5"/>
<text text-anchor="middle" x="59" y="-75.5" font-family="Helvetica,sans-Serif" font-size="10.00">CCriticalSection</text>
</a>
</g>
</g>
<!-- Node4&#45;&gt;Node3 -->
<g id="edge1" class="edge"><title>Node4&#45;&gt;Node3</title>
<path fill="none" stroke="#9a32cd" stroke-dasharray="5,2" d="M63.1342,-58.1674C65.4122,-51.1917 68.8593,-43.6208 74,-38 81.466,-29.8367 91.943,-23.85 101.752,-19.6187"/>
<polygon fill="#9a32cd" stroke="#9a32cd" points="59.6341,-57.7095 60.4414,-68.2735 66.3981,-59.5118 59.6341,-57.7095"/>
<text text-anchor="middle" x="109" y="-41.5" font-family="Helvetica,sans-Serif" font-size="10.00"> cs_privatesend</text>
</g>
<!-- Node5 -->
<g id="node3" class="node"><title>Node5</title>
<polygon fill="white" stroke="#bfbfbf" points="0.5,-127 0.5,-157 117.5,-157 117.5,-127 0.5,-127"/>
<text text-anchor="start" x="8.5" y="-145" font-family="Helvetica,sans-Serif" font-size="10.00">AnnotatedMixin&lt; boost</text>
<text text-anchor="middle" x="59" y="-134" font-family="Helvetica,sans-Serif" font-size="10.00">::recursive_mutex &gt;</text>
</g>
<!-- Node5&#45;&gt;Node4 -->
<g id="edge2" class="edge"><title>Node5&#45;&gt;Node4</title>
<path fill="none" stroke="midnightblue" d="M59,-116.871C59,-106.663 59,-95.4077 59,-87.8419"/>
<polygon fill="midnightblue" stroke="midnightblue" points="55.5001,-116.931 59,-126.931 62.5001,-116.931 55.5001,-116.931"/>
</g>
<!-- Node6 -->
<g id="node4" class="node"><title>Node6</title>
<polygon fill="white" stroke="#bfbfbf" points="-0.5,-196.5 -0.5,-215.5 118.5,-215.5 118.5,-196.5 -0.5,-196.5"/>
<text text-anchor="middle" x="59" y="-203.5" font-family="Helvetica,sans-Serif" font-size="10.00">boost::recursive_mutex</text>
</g>
<!-- Node6&#45;&gt;Node5 -->
<g id="edge3" class="edge"><title>Node6&#45;&gt;Node5</title>
<path fill="none" stroke="midnightblue" d="M59,-186.183C59,-176.886 59,-165.851 59,-157.263"/>
<polygon fill="midnightblue" stroke="midnightblue" points="55.5001,-186.379 59,-196.379 62.5001,-186.379 55.5001,-186.379"/>
</g>
<!-- Node7 -->
<g id="node5" class="node"><title>Node7</title>
<g id="a_node5"><a xlink:href="struct_c_mutable_transaction.html" target="_top" xlink:title="A mutable version of CTransaction. ">
<polygon fill="white" stroke="black" points="121,-68.5 121,-87.5 231,-87.5 231,-68.5 121,-68.5"/>
<text text-anchor="middle" x="176" y="-75.5" font-family="Helvetica,sans-Serif" font-size="10.00">CMutableTransaction</text>
</a>
</g>
</g>
<!-- Node7&#45;&gt;Node3 -->
<g id="edge4" class="edge"><title>Node7&#45;&gt;Node3</title>
<path fill="none" stroke="#9a32cd" stroke-dasharray="5,2" d="M163.85,-59.9377C154.716,-47.112 142.572,-30.0591 135.296,-19.8411"/>
<polygon fill="#9a32cd" stroke="#9a32cd" points="161.204,-62.2562 169.856,-68.3717 166.906,-58.1957 161.204,-62.2562"/>
<text text-anchor="middle" x="209.5" y="-41.5" font-family="Helvetica,sans-Serif" font-size="10.00"> finalMutableTransaction</text>
</g>
</g>
</svg>
