<?xml version="1.0" encoding="UTF-8" standalone="no"?>
<!DOCTYPE svg PUBLIC "-//W3C//DTD SVG 1.1//EN"
 "http://www.w3.org/Graphics/SVG/1.1/DTD/svg11.dtd">
<!-- Generated by graphviz version 2.36.0 (20140111.2315)
 -->
<!-- Title: TxViewDelegate Pages: 1 -->
<svg width="221pt" height="96pt"
 viewBox="0.00 0.00 221.00 96.00" xmlns="http://www.w3.org/2000/svg" xmlns:xlink="http://www.w3.org/1999/xlink">
<g id="graph0" class="graph" transform="scale(1 1) rotate(0) translate(4 92)">
<title>TxViewDelegate</title>
<polygon fill="white" stroke="none" points="-4,4 -4,-92 217,-92 217,4 -4,4"/>
<!-- Node2 -->
<g id="node1" class="node"><title>Node2</title>
<polygon fill="#bfbfbf" stroke="black" points="72.5,-0.5 72.5,-19.5 161.5,-19.5 161.5,-0.5 72.5,-0.5"/>
<text text-anchor="middle" x="117" y="-7.5" font-family="Helvetica,sans-Serif" font-size="10.00">TxViewDelegate</text>
</g>
<!-- Node3 -->
<g id="node2" class="node"><title>Node3</title>
<polygon fill="white" stroke="#bfbfbf" points="-0.5,-68.5 -0.5,-87.5 118.5,-87.5 118.5,-68.5 -0.5,-68.5"/>
<text text-anchor="middle" x="59" y="-75.5" font-family="Helvetica,sans-Serif" font-size="10.00">QAbstractItemDelegate</text>
</g>
<!-- Node3&#45;&gt;Node2 -->
<g id="edge1" class="edge"><title>Node3&#45;&gt;Node2</title>
<path fill="none" stroke="midnightblue" d="M73.3418,-60.68C84.681,-47.7768 100.077,-30.2575 109.231,-19.8411"/>
<polygon fill="midnightblue" stroke="midnightblue" points="70.5546,-58.5496 66.5825,-68.3717 75.8128,-63.1704 70.5546,-58.5496"/>
</g>
<!-- Node4 -->
<g id="node3" class="node"><title>Node4</title>
<g id="a_node3"><a xlink:href="class_platform_style.html" target="_top" xlink:title="PlatformStyle">
<polygon fill="white" stroke="black" points="137,-68.5 137,-87.5 213,-87.5 213,-68.5 137,-68.5"/>
<text text-anchor="middle" x="175" y="-75.5" font-family="Helvetica,sans-Serif" font-size="10.00">PlatformStyle</text>
</a>
</g>
</g>
<!-- Node4&#45;&gt;Node2 -->
<g id="edge2" class="edge"><title>Node4&#45;&gt;Node2</title>
<path fill="none" stroke="#9a32cd" stroke-dasharray="5,2" d="M160.658,-60.68C149.319,-47.7768 133.923,-30.2575 124.769,-19.8411"/>
<polygon fill="#9a32cd" stroke="#9a32cd" points="158.187,-63.1704 167.418,-68.3717 163.445,-58.5496 158.187,-63.1704"/>
<text text-anchor="middle" x="182.5" y="-41.5" font-family="Helvetica,sans-Serif" font-size="10.00"> platformStyle</text>
</g>
</g>
</svg>
