<?xml version="1.0" encoding="UTF-8" standalone="no"?>
<!DOCTYPE svg PUBLIC "-//W3C//DTD SVG 1.1//EN"
 "http://www.w3.org/Graphics/SVG/1.1/DTD/svg11.dtd">
<!-- Generated by graphviz version 2.36.0 (20140111.2315)
 -->
<!-- Title: CNodeStats Pages: 1 -->
<svg width="78pt" height="212pt"
 viewBox="0.00 0.00 78.00 212.00" xmlns="http://www.w3.org/2000/svg" xmlns:xlink="http://www.w3.org/1999/xlink">
<g id="graph0" class="graph" transform="scale(1 1) rotate(0) translate(4 208)">
<title>CNodeStats</title>
<polygon fill="white" stroke="none" points="-4,4 -4,-208 74,-208 74,4 -4,4"/>
<!-- Node1 -->
<g id="node1" class="node"><title>Node1</title>
<polygon fill="#bfbfbf" stroke="black" points="-0.5,-0.5 -0.5,-19.5 70.5,-19.5 70.5,-0.5 -0.5,-0.5"/>
<text text-anchor="middle" x="35" y="-7.5" font-family="Helvetica,sans-Serif" font-size="10.00">CNodeStats</text>
</g>
<!-- Node2 -->
<g id="node2" class="node"><title>Node2</title>
<g id="a_node2"><a xlink:href="class_c_address.html" target="_top" xlink:title="A CService with information about it as peer. ">
<polygon fill="white" stroke="black" points="5,-68.5 5,-87.5 65,-87.5 65,-68.5 5,-68.5"/>
<text text-anchor="middle" x="35" y="-75.5" font-family="Helvetica,sans-Serif" font-size="10.00">CAddress</text>
</a>
</g>
</g>
<!-- Node2&#45;&gt;Node1 -->
<g id="edge1" class="edge"><title>Node2&#45;&gt;Node1</title>
<path fill="none" stroke="#9a32cd" stroke-dasharray="5,2" d="M35,-58.0413C35,-45.4724 35,-29.5631 35,-19.8411"/>
<polygon fill="#9a32cd" stroke="#9a32cd" points="31.5001,-58.3716 35,-68.3717 38.5001,-58.3717 31.5001,-58.3716"/>
<text text-anchor="middle" x="46" y="-41.5" font-family="Helvetica,sans-Serif" font-size="10.00"> addr</text>
</g>
<!-- Node3 -->
<g id="node3" class="node"><title>Node3</title>
<g id="a_node3"><a xlink:href="class_c_service.html" target="_top" xlink:title="A combination of a network address (CNetAddr) and a (TCP) port. ">
<polygon fill="white" stroke="black" points="6.5,-126.5 6.5,-145.5 63.5,-145.5 63.5,-126.5 6.5,-126.5"/>
<text text-anchor="middle" x="35" y="-133.5" font-family="Helvetica,sans-Serif" font-size="10.00">CService</text>
</a>
</g>
</g>
<!-- Node3&#45;&gt;Node2 -->
<g id="edge2" class="edge"><title>Node3&#45;&gt;Node2</title>
<path fill="none" stroke="midnightblue" d="M35,-115.953C35,-106.287 35,-95.0312 35,-87.5052"/>
<polygon fill="midnightblue" stroke="midnightblue" points="31.5001,-116.25 35,-126.25 38.5001,-116.25 31.5001,-116.25"/>
</g>
<!-- Node4 -->
<g id="node4" class="node"><title>Node4</title>
<g id="a_node4"><a xlink:href="class_c_net_addr.html" target="_top" xlink:title="IP address (IPv6, or IPv4 using mapped IPv6 range (::FFFF:0:0/96)) ">
<polygon fill="white" stroke="black" points="5,-184.5 5,-203.5 65,-203.5 65,-184.5 5,-184.5"/>
<text text-anchor="middle" x="35" y="-191.5" font-family="Helvetica,sans-Serif" font-size="10.00">CNetAddr</text>
</a>
</g>
</g>
<!-- Node4&#45;&gt;Node3 -->
<g id="edge3" class="edge"><title>Node4&#45;&gt;Node3</title>
<path fill="none" stroke="midnightblue" d="M35,-173.953C35,-164.287 35,-153.031 35,-145.505"/>
<polygon fill="midnightblue" stroke="midnightblue" points="31.5001,-174.25 35,-184.25 38.5001,-174.25 31.5001,-174.25"/>
</g>
</g>
</svg>
