<?xml version="1.0" encoding="UTF-8" standalone="no"?>
<!DOCTYPE svg PUBLIC "-//W3C//DTD SVG 1.1//EN"
 "http://www.w3.org/Graphics/SVG/1.1/DTD/svg11.dtd">
<!-- Generated by graphviz version 2.36.0 (20140111.2315)
 -->
<!-- Title: CNetMessage Pages: 1 -->
<svg width="345pt" height="174pt"
 viewBox="0.00 0.00 345.00 174.00" xmlns="http://www.w3.org/2000/svg" xmlns:xlink="http://www.w3.org/1999/xlink">
<g id="graph0" class="graph" transform="scale(1 1) rotate(0) translate(4 170)">
<title>CNetMessage</title>
<polygon fill="white" stroke="none" points="-4,4 -4,-170 341,-170 341,4 -4,4"/>
<!-- Node1 -->
<g id="node1" class="node"><title>Node1</title>
<polygon fill="#bfbfbf" stroke="black" points="115,-0.5 115,-19.5 195,-19.5 195,-0.5 115,-0.5"/>
<text text-anchor="middle" x="155" y="-7.5" font-family="Helvetica,sans-Serif" font-size="10.00">CNetMessage</text>
</g>
<!-- Node2 -->
<g id="node2" class="node"><title>Node2</title>
<g id="a_node2"><a xlink:href="class_c_data_stream.html" target="_top" xlink:title="Double ended buffer combining vector and stream&#45;like interfaces. ">
<polygon fill="white" stroke="black" points="-0.5,-78.5 -0.5,-97.5 76.5,-97.5 76.5,-78.5 -0.5,-78.5"/>
<text text-anchor="middle" x="38" y="-85.5" font-family="Helvetica,sans-Serif" font-size="10.00">CDataStream</text>
</a>
</g>
</g>
<!-- Node2&#45;&gt;Node1 -->
<g id="edge1" class="edge"><title>Node2&#45;&gt;Node1</title>
<path fill="none" stroke="#9a32cd" stroke-dasharray="5,2" d="M49.6324,-69.8302C57.4516,-59.4016 68.5749,-46.5039 81,-38 92.9627,-29.8126 107.706,-23.7763 120.876,-19.5134"/>
<polygon fill="#9a32cd" stroke="#9a32cd" points="46.6275,-68.0153 43.6618,-78.1866 52.3231,-72.0847 46.6275,-68.0153"/>
<text text-anchor="middle" x="97" y="-52" font-family="Helvetica,sans-Serif" font-size="10.00"> vRecv</text>
<text text-anchor="middle" x="97" y="-41" font-family="Helvetica,sans-Serif" font-size="10.00">hdrbuf</text>
</g>
<!-- Node3 -->
<g id="node3" class="node"><title>Node3</title>
<g id="a_node3"><a xlink:href="classuint256.html" target="_top" xlink:title="256&#45;bit opaque blob. ">
<polygon fill="white" stroke="black" points="95,-78.5 95,-97.5 143,-97.5 143,-78.5 95,-78.5"/>
<text text-anchor="middle" x="119" y="-85.5" font-family="Helvetica,sans-Serif" font-size="10.00">uint256</text>
</a>
</g>
</g>
<!-- Node3&#45;&gt;Node1 -->
<g id="edge2" class="edge"><title>Node3&#45;&gt;Node1</title>
<path fill="none" stroke="#9a32cd" stroke-dasharray="5,2" d="M116.205,-68.4339C115.617,-58.8578 116.287,-47.274 121,-38 124.893,-30.3397 132.061,-24.1477 138.816,-19.6353"/>
<polygon fill="#9a32cd" stroke="#9a32cd" points="112.738,-68.9343 117.305,-78.4943 119.697,-68.1729 112.738,-68.9343"/>
<text text-anchor="middle" x="145.5" y="-46.5" font-family="Helvetica,sans-Serif" font-size="10.00"> data_hash</text>
</g>
<!-- Node4 -->
<g id="node4" class="node"><title>Node4</title>
<g id="a_node4"><a xlink:href="classbase__blob.html" target="_top" xlink:title="base_blob\&lt; 256 \&gt;">
<polygon fill="white" stroke="black" points="60.5,-146.5 60.5,-165.5 155.5,-165.5 155.5,-146.5 60.5,-146.5"/>
<text text-anchor="middle" x="108" y="-153.5" font-family="Helvetica,sans-Serif" font-size="10.00">base_blob&lt; 256 &gt;</text>
</a>
</g>
</g>
<!-- Node4&#45;&gt;Node3 -->
<g id="edge3" class="edge"><title>Node4&#45;&gt;Node3</title>
<path fill="none" stroke="midnightblue" d="M111.096,-136.425C113.2,-123.798 115.89,-107.662 117.526,-97.8411"/>
<polygon fill="midnightblue" stroke="midnightblue" points="107.63,-135.932 109.438,-146.372 114.535,-137.083 107.63,-135.932"/>
</g>
<!-- Node5 -->
<g id="node5" class="node"><title>Node5</title>
<g id="a_node5"><a xlink:href="class_c_hash256.html" target="_top" xlink:title="A hasher class for Bitcoin&#39;s 256&#45;bit hash (double SHA&#45;256). ">
<polygon fill="white" stroke="black" points="161.5,-78.5 161.5,-97.5 224.5,-97.5 224.5,-78.5 161.5,-78.5"/>
<text text-anchor="middle" x="193" y="-85.5" font-family="Helvetica,sans-Serif" font-size="10.00">CHash256</text>
</a>
</g>
</g>
<!-- Node5&#45;&gt;Node1 -->
<g id="edge4" class="edge"><title>Node5&#45;&gt;Node1</title>
<path fill="none" stroke="#9a32cd" stroke-dasharray="5,2" d="M184.838,-68.847C180.566,-59.5487 175.163,-48.0899 170,-38 166.873,-31.8898 163.123,-25.1398 160.155,-19.9173"/>
<polygon fill="#9a32cd" stroke="#9a32cd" points="181.782,-70.5828 189.106,-78.2388 188.155,-67.6868 181.782,-70.5828"/>
<text text-anchor="middle" x="197.5" y="-46.5" font-family="Helvetica,sans-Serif" font-size="10.00"> hasher</text>
</g>
<!-- Node6 -->
<g id="node6" class="node"><title>Node6</title>
<g id="a_node6"><a xlink:href="class_c_s_h_a256.html" target="_top" xlink:title="A hasher class for SHA&#45;256. ">
<polygon fill="white" stroke="black" points="173.5,-146.5 173.5,-165.5 234.5,-165.5 234.5,-146.5 173.5,-146.5"/>
<text text-anchor="middle" x="204" y="-153.5" font-family="Helvetica,sans-Serif" font-size="10.00">CSHA256</text>
</a>
</g>
</g>
<!-- Node6&#45;&gt;Node5 -->
<g id="edge5" class="edge"><title>Node6&#45;&gt;Node5</title>
<path fill="none" stroke="#9a32cd" stroke-dasharray="5,2" d="M200.904,-136.425C198.8,-123.798 196.11,-107.662 194.474,-97.8411"/>
<polygon fill="#9a32cd" stroke="#9a32cd" points="197.465,-137.083 202.562,-146.372 204.37,-135.932 197.465,-137.083"/>
<text text-anchor="middle" x="209.5" y="-119.5" font-family="Helvetica,sans-Serif" font-size="10.00"> sha</text>
</g>
<!-- Node7 -->
<g id="node7" class="node"><title>Node7</title>
<g id="a_node7"><a xlink:href="class_c_message_header.html" target="_top" xlink:title="Message header. ">
<polygon fill="white" stroke="black" points="242.5,-78.5 242.5,-97.5 337.5,-97.5 337.5,-78.5 242.5,-78.5"/>
<text text-anchor="middle" x="290" y="-85.5" font-family="Helvetica,sans-Serif" font-size="10.00">CMessageHeader</text>
</a>
</g>
</g>
<!-- Node7&#45;&gt;Node1 -->
<g id="edge6" class="edge"><title>Node7&#45;&gt;Node1</title>
<path fill="none" stroke="#9a32cd" stroke-dasharray="5,2" d="M270.317,-72.0792C256.203,-61.7653 236.492,-48.1316 218,-38 205.164,-30.9671 190.119,-24.4595 177.951,-19.5958"/>
<polygon fill="#9a32cd" stroke="#9a32cd" points="268.598,-75.1617 278.715,-78.3074 272.768,-69.5392 268.598,-75.1617"/>
<text text-anchor="middle" x="261.5" y="-46.5" font-family="Helvetica,sans-Serif" font-size="10.00"> hdr</text>
</g>
</g>
</svg>
