<?xml version="1.0" encoding="UTF-8" standalone="no"?>
<!DOCTYPE svg PUBLIC "-//W3C//DTD SVG 1.1//EN"
 "http://www.w3.org/Graphics/SVG/1.1/DTD/svg11.dtd">
<!-- Generated by graphviz version 2.36.0 (20140111.2315)
 -->
<!-- Title: CPendingDsaRequest Pages: 1 -->
<svg width="195pt" height="164pt"
 viewBox="0.00 0.00 195.00 164.00" xmlns="http://www.w3.org/2000/svg" xmlns:xlink="http://www.w3.org/1999/xlink">
<g id="graph0" class="graph" transform="scale(1 1) rotate(0) translate(4 160)">
<title>CPendingDsaRequest</title>
<polygon fill="white" stroke="none" points="-4,4 -4,-160 191,-160 191,4 -4,4"/>
<!-- Node1 -->
<g id="node1" class="node"><title>Node1</title>
<polygon fill="#bfbfbf" stroke="black" points="57,-0.5 57,-19.5 171,-19.5 171,-0.5 57,-0.5"/>
<text text-anchor="middle" x="114" y="-7.5" font-family="Helvetica,sans-Serif" font-size="10.00">CPendingDsaRequest</text>
</g>
<!-- Node2 -->
<g id="node2" class="node"><title>Node2</title>
<g id="a_node2"><a xlink:href="class_c_private_send_accept.html" target="_top" xlink:title="CPrivateSendAccept">
<polygon fill="white" stroke="black" points="2,-68.5 2,-87.5 110,-87.5 110,-68.5 2,-68.5"/>
<text text-anchor="middle" x="56" y="-75.5" font-family="Helvetica,sans-Serif" font-size="10.00">CPrivateSendAccept</text>
</a>
</g>
</g>
<!-- Node2&#45;&gt;Node1 -->
<g id="edge1" class="edge"><title>Node2&#45;&gt;Node1</title>
<path fill="none" stroke="#9a32cd" stroke-dasharray="5,2" d="M70.3418,-60.68C81.681,-47.7768 97.0767,-30.2575 106.231,-19.8411"/>
<polygon fill="#9a32cd" stroke="#9a32cd" points="67.5546,-58.5496 63.5825,-68.3717 72.8128,-63.1704 67.5546,-58.5496"/>
<text text-anchor="middle" x="100.5" y="-41.5" font-family="Helvetica,sans-Serif" font-size="10.00"> dsa</text>
</g>
<!-- Node3 -->
<g id="node3" class="node"><title>Node3</title>
<g id="a_node3"><a xlink:href="struct_c_mutable_transaction.html" target="_top" xlink:title="A mutable version of CTransaction. ">
<polygon fill="white" stroke="black" points="0,-136.5 0,-155.5 110,-155.5 110,-136.5 0,-136.5"/>
<text text-anchor="middle" x="55" y="-143.5" font-family="Helvetica,sans-Serif" font-size="10.00">CMutableTransaction</text>
</a>
</g>
</g>
<!-- Node3&#45;&gt;Node2 -->
<g id="edge2" class="edge"><title>Node3&#45;&gt;Node2</title>
<path fill="none" stroke="#9a32cd" stroke-dasharray="5,2" d="M55.2873,-126.041C55.4777,-113.472 55.7187,-97.5631 55.866,-87.8411"/>
<polygon fill="#9a32cd" stroke="#9a32cd" points="51.7827,-126.32 55.1307,-136.372 58.7819,-126.426 51.7827,-126.32"/>
<text text-anchor="middle" x="82.5" y="-109.5" font-family="Helvetica,sans-Serif" font-size="10.00"> txCollateral</text>
</g>
<!-- Node4 -->
<g id="node4" class="node"><title>Node4</title>
<g id="a_node4"><a xlink:href="class_c_service.html" target="_top" xlink:title="A combination of a network address (CNetAddr) and a (TCP) port. ">
<polygon fill="white" stroke="black" points="129.5,-68.5 129.5,-87.5 186.5,-87.5 186.5,-68.5 129.5,-68.5"/>
<text text-anchor="middle" x="158" y="-75.5" font-family="Helvetica,sans-Serif" font-size="10.00">CService</text>
</a>
</g>
</g>
<!-- Node4&#45;&gt;Node1 -->
<g id="edge3" class="edge"><title>Node4&#45;&gt;Node1</title>
<path fill="none" stroke="#9a32cd" stroke-dasharray="5,2" d="M146.625,-59.9377C138.075,-47.112 126.706,-30.0591 119.894,-19.8411"/>
<polygon fill="#9a32cd" stroke="#9a32cd" points="143.789,-61.9926 152.248,-68.3717 149.613,-58.1097 143.789,-61.9926"/>
<text text-anchor="middle" x="151" y="-41.5" font-family="Helvetica,sans-Serif" font-size="10.00"> addr</text>
</g>
<!-- Node5 -->
<g id="node5" class="node"><title>Node5</title>
<g id="a_node5"><a xlink:href="class_c_net_addr.html" target="_top" xlink:title="IP address (IPv6, or IPv4 using mapped IPv6 range (::FFFF:0:0/96)) ">
<polygon fill="white" stroke="black" points="128,-136.5 128,-155.5 188,-155.5 188,-136.5 128,-136.5"/>
<text text-anchor="middle" x="158" y="-143.5" font-family="Helvetica,sans-Serif" font-size="10.00">CNetAddr</text>
</a>
</g>
</g>
<!-- Node5&#45;&gt;Node4 -->
<g id="edge4" class="edge"><title>Node5&#45;&gt;Node4</title>
<path fill="none" stroke="midnightblue" d="M158,-126.041C158,-113.472 158,-97.5631 158,-87.8411"/>
<polygon fill="midnightblue" stroke="midnightblue" points="154.5,-126.372 158,-136.372 161.5,-126.372 154.5,-126.372"/>
</g>
</g>
</svg>
