<?xml version="1.0" encoding="UTF-8" standalone="no"?>
<!DOCTYPE svg PUBLIC "-//W3C//DTD SVG 1.1//EN"
 "http://www.w3.org/Graphics/SVG/1.1/DTD/svg11.dtd">
<!-- Generated by graphviz version 2.36.0 (20140111.2315)
 -->
<!-- Title: CKeyHolder Pages: 1 -->
<svg width="657pt" height="576pt"
 viewBox="0.00 0.00 657.00 576.00" xmlns="http://www.w3.org/2000/svg" xmlns:xlink="http://www.w3.org/1999/xlink">
<g id="graph0" class="graph" transform="scale(1 1) rotate(0) translate(4 572)">
<title>CKeyHolder</title>
<polygon fill="white" stroke="none" points="-4,4 -4,-572 653,-572 653,4 -4,4"/>
<!-- Node1 -->
<g id="node1" class="node"><title>Node1</title>
<polygon fill="#bfbfbf" stroke="black" points="31,-0.5 31,-19.5 101,-19.5 101,-0.5 31,-0.5"/>
<text text-anchor="middle" x="66" y="-7.5" font-family="Helvetica,sans-Serif" font-size="10.00">CKeyHolder</text>
</g>
<!-- Node2 -->
<g id="node2" class="node"><title>Node2</title>
<g id="a_node2"><a xlink:href="class_c_reserve_key.html" target="_top" xlink:title="A key allocated from the key pool. ">
<polygon fill="white" stroke="black" points="99,-68.5 99,-87.5 177,-87.5 177,-68.5 99,-68.5"/>
<text text-anchor="middle" x="138" y="-75.5" font-family="Helvetica,sans-Serif" font-size="10.00">CReserveKey</text>
</a>
</g>
</g>
<!-- Node2&#45;&gt;Node1 -->
<g id="edge1" class="edge"><title>Node2&#45;&gt;Node1</title>
<path fill="none" stroke="#9a32cd" stroke-dasharray="5,2" d="M120.995,-61.4122C106.851,-48.4468 87.2247,-30.4559 75.6449,-19.8411"/>
<polygon fill="#9a32cd" stroke="#9a32cd" points="118.851,-64.1944 128.587,-68.3717 123.581,-59.0343 118.851,-64.1944"/>
<text text-anchor="middle" x="135.5" y="-41.5" font-family="Helvetica,sans-Serif" font-size="10.00"> reserveKey</text>
</g>
<!-- Node3 -->
<g id="node3" class="node"><title>Node3</title>
<g id="a_node3"><a xlink:href="class_c_reserve_script.html" target="_top" xlink:title="CReserveScript">
<polygon fill="white" stroke="black" points="389,-136.5 389,-155.5 475,-155.5 475,-136.5 389,-136.5"/>
<text text-anchor="middle" x="432" y="-143.5" font-family="Helvetica,sans-Serif" font-size="10.00">CReserveScript</text>
</a>
</g>
</g>
<!-- Node3&#45;&gt;Node2 -->
<g id="edge2" class="edge"><title>Node3&#45;&gt;Node2</title>
<path fill="none" stroke="midnightblue" d="M383.832,-134.187C325.724,-121.142 229.234,-99.4812 176.066,-87.5455"/>
<polygon fill="midnightblue" stroke="midnightblue" points="383.342,-137.664 393.866,-136.439 384.876,-130.834 383.342,-137.664"/>
</g>
<!-- Node4 -->
<g id="node4" class="node"><title>Node4</title>
<g id="a_node4"><a xlink:href="class_c_script.html" target="_top" xlink:title="Serialized script, used inside transaction inputs and outputs. ">
<polygon fill="white" stroke="black" points="526,-214.5 526,-233.5 576,-233.5 576,-214.5 526,-214.5"/>
<text text-anchor="middle" x="551" y="-221.5" font-family="Helvetica,sans-Serif" font-size="10.00">CScript</text>
</a>
</g>
</g>
<!-- Node4&#45;&gt;Node3 -->
<g id="edge3" class="edge"><title>Node4&#45;&gt;Node3</title>
<path fill="none" stroke="#9a32cd" stroke-dasharray="5,2" d="M537.431,-206.647C528.068,-196.191 514.85,-182.959 501,-174 488.903,-166.175 474.184,-160.029 461.452,-155.591"/>
<polygon fill="#9a32cd" stroke="#9a32cd" points="534.864,-209.028 544.052,-214.302 540.158,-204.449 534.864,-209.028"/>
<text text-anchor="middle" x="558.5" y="-182.5" font-family="Helvetica,sans-Serif" font-size="10.00"> reserveScript</text>
</g>
<!-- Node5 -->
<g id="node5" class="node"><title>Node5</title>
<g id="a_node5"><a xlink:href="classprevector.html" target="_top" xlink:title="Implements a drop&#45;in replacement for std::vector&lt;T&gt; which stores up to N elements directly (without h...">
<polygon fill="white" stroke="black" points="550,-272.5 550,-291.5 622,-291.5 622,-272.5 550,-272.5"/>
<text text-anchor="middle" x="586" y="-279.5" font-family="Helvetica,sans-Serif" font-size="10.00">CScriptBase</text>
</a>
</g>
</g>
<!-- Node5&#45;&gt;Node4 -->
<g id="edge4" class="edge"><title>Node5&#45;&gt;Node4</title>
<path fill="none" stroke="midnightblue" d="M575.071,-263.514C568.826,-253.522 561.275,-241.44 556.316,-233.505"/>
<polygon fill="midnightblue" stroke="midnightblue" points="572.263,-265.625 580.531,-272.25 578.199,-261.915 572.263,-265.625"/>
</g>
<!-- Node6 -->
<g id="node6" class="node"><title>Node6</title>
<g id="a_node6"><a xlink:href="unionprevector_1_1direct__or__indirect.html" target="_top" xlink:title="prevector\&lt; N, T, Size,\l Diff \&gt;::direct_or_indirect">
<polygon fill="white" stroke="black" points="523.5,-341 523.5,-371 648.5,-371 648.5,-341 523.5,-341"/>
<text text-anchor="start" x="531.5" y="-359" font-family="Helvetica,sans-Serif" font-size="10.00">prevector&lt; N, T, Size,</text>
<text text-anchor="middle" x="586" y="-348" font-family="Helvetica,sans-Serif" font-size="10.00"> Diff &gt;::direct_or_indirect</text>
</a>
</g>
</g>
<!-- Node6&#45;&gt;Node5 -->
<g id="edge5" class="edge"><title>Node6&#45;&gt;Node5</title>
<path fill="none" stroke="#9a32cd" stroke-dasharray="5,2" d="M586,-330.688C586,-317.253 586,-301.38 586,-291.759"/>
<polygon fill="#9a32cd" stroke="#9a32cd" points="582.5,-330.775 586,-340.775 589.5,-330.775 582.5,-330.775"/>
<text text-anchor="middle" x="602" y="-313.5" font-family="Helvetica,sans-Serif" font-size="10.00"> _union</text>
</g>
<!-- Node7 -->
<g id="node7" class="node"><title>Node7</title>
<g id="a_node7"><a xlink:href="class_c_pub_key.html" target="_top" xlink:title="An encapsulated public key. ">
<polygon fill="white" stroke="black" points="-0.5,-214.5 -0.5,-233.5 58.5,-233.5 58.5,-214.5 -0.5,-214.5"/>
<text text-anchor="middle" x="29" y="-221.5" font-family="Helvetica,sans-Serif" font-size="10.00">CPubKey</text>
</a>
</g>
</g>
<!-- Node7&#45;&gt;Node1 -->
<g id="edge25" class="edge"><title>Node7&#45;&gt;Node1</title>
<path fill="none" stroke="#9a32cd" stroke-dasharray="5,2" d="M32.2167,-204.569C39.8577,-160.789 58.8746,-51.8268 64.4441,-19.915"/>
<polygon fill="#9a32cd" stroke="#9a32cd" points="28.7678,-203.974 30.4963,-214.427 35.6635,-205.177 28.7678,-203.974"/>
<text text-anchor="middle" x="68.5" y="-109.5" font-family="Helvetica,sans-Serif" font-size="10.00"> pubKey</text>
</g>
<!-- Node7&#45;&gt;Node2 -->
<g id="edge6" class="edge"><title>Node7&#45;&gt;Node2</title>
<path fill="none" stroke="#9a32cd" stroke-dasharray="5,2" d="M41.5646,-206.401C64.7887,-175.72 113.679,-111.131 131.404,-87.7137"/>
<polygon fill="#9a32cd" stroke="#9a32cd" points="38.7368,-204.338 35.492,-214.423 44.3181,-208.562 38.7368,-204.338"/>
<text text-anchor="middle" x="122" y="-143.5" font-family="Helvetica,sans-Serif" font-size="10.00"> vchPubKey</text>
</g>
<!-- Node8 -->
<g id="node8" class="node"><title>Node8</title>
<g id="a_node8"><a xlink:href="class_c_wallet.html" target="_top" xlink:title="A CWallet is an extension of a keystore, which also maintains a set of transactions and balances...">
<polygon fill="white" stroke="black" points="216,-136.5 216,-155.5 268,-155.5 268,-136.5 216,-136.5"/>
<text text-anchor="middle" x="242" y="-143.5" font-family="Helvetica,sans-Serif" font-size="10.00">CWallet</text>
</a>
</g>
</g>
<!-- Node7&#45;&gt;Node8 -->
<g id="edge21" class="edge"><title>Node7&#45;&gt;Node8</title>
<path fill="none" stroke="#9a32cd" stroke-dasharray="5,2" d="M65.5511,-210.854C76.2874,-206.718 87.863,-201.683 98,-196 112.111,-188.088 112.362,-180.888 127,-174 155.763,-160.466 191.854,-153.423 215.855,-149.972"/>
<polygon fill="#9a32cd" stroke="#9a32cd" points="64.1554,-207.638 55.9925,-214.392 66.5856,-214.203 64.1554,-207.638"/>
<text text-anchor="middle" x="161" y="-182.5" font-family="Helvetica,sans-Serif" font-size="10.00"> vchDefaultKey</text>
</g>
<!-- Node8&#45;&gt;Node2 -->
<g id="edge7" class="edge"><title>Node8&#45;&gt;Node2</title>
<path fill="none" stroke="#9a32cd" stroke-dasharray="5,2" d="M219.921,-130.988C199.231,-117.858 168.963,-98.6498 151.6,-87.6305"/>
<polygon fill="#9a32cd" stroke="#9a32cd" points="218.085,-133.969 228.404,-136.372 221.836,-128.058 218.085,-133.969"/>
<text text-anchor="middle" x="217" y="-109.5" font-family="Helvetica,sans-Serif" font-size="10.00"> pwallet</text>
</g>
<!-- Node9 -->
<g id="node9" class="node"><title>Node9</title>
<g id="a_node9"><a xlink:href="class_c_crypto_key_store.html" target="_top" xlink:title="Keystore which keeps the private keys encrypted. ">
<polygon fill="white" stroke="black" points="77,-214.5 77,-233.5 171,-233.5 171,-214.5 77,-214.5"/>
<text text-anchor="middle" x="124" y="-221.5" font-family="Helvetica,sans-Serif" font-size="10.00">CCryptoKeyStore</text>
</a>
</g>
</g>
<!-- Node9&#45;&gt;Node8 -->
<g id="edge8" class="edge"><title>Node9&#45;&gt;Node8</title>
<path fill="none" stroke="midnightblue" d="M168.478,-211.158C178.99,-207.256 189.806,-202.264 199,-196 215.088,-185.04 228.969,-166.688 236.346,-155.825"/>
<polygon fill="midnightblue" stroke="midnightblue" points="167.276,-207.87 158.964,-214.44 169.559,-214.487 167.276,-207.87"/>
</g>
<!-- Node10 -->
<g id="node10" class="node"><title>Node10</title>
<g id="a_node10"><a xlink:href="class_c_basic_key_store.html" target="_top" xlink:title="Basic key store, that keeps keys in an address&#45;&gt;secret map. ">
<polygon fill="white" stroke="black" points="218.5,-272.5 218.5,-291.5 307.5,-291.5 307.5,-272.5 218.5,-272.5"/>
<text text-anchor="middle" x="263" y="-279.5" font-family="Helvetica,sans-Serif" font-size="10.00">CBasicKeyStore</text>
</a>
</g>
</g>
<!-- Node10&#45;&gt;Node9 -->
<g id="edge9" class="edge"><title>Node10&#45;&gt;Node9</title>
<path fill="none" stroke="midnightblue" d="M232.366,-268.658C205.972,-258.025 168.557,-242.951 145.31,-233.585"/>
<polygon fill="midnightblue" stroke="midnightblue" points="231.305,-272.004 241.889,-272.495 233.921,-265.511 231.305,-272.004"/>
</g>
<!-- Node11 -->
<g id="node11" class="node"><title>Node11</title>
<g id="a_node11"><a xlink:href="class_c_key_store.html" target="_top" xlink:title="A virtual base class for key stores. ">
<polygon fill="white" stroke="black" points="278.5,-346.5 278.5,-365.5 343.5,-365.5 343.5,-346.5 278.5,-346.5"/>
<text text-anchor="middle" x="311" y="-353.5" font-family="Helvetica,sans-Serif" font-size="10.00">CKeyStore</text>
</a>
</g>
</g>
<!-- Node11&#45;&gt;Node10 -->
<g id="edge10" class="edge"><title>Node11&#45;&gt;Node10</title>
<path fill="none" stroke="midnightblue" d="M299.566,-337.849C289.834,-323.25 276.261,-302.892 268.687,-291.531"/>
<polygon fill="midnightblue" stroke="midnightblue" points="296.846,-340.079 305.305,-346.458 302.67,-336.196 296.846,-340.079"/>
</g>
<!-- Node12 -->
<g id="node12" class="node"><title>Node12</title>
<g id="a_node12"><a xlink:href="class_c_critical_section.html" target="_top" xlink:title="Wrapped boost mutex: supports recursive locking, but no waiting TODO: We should move away from using ...">
<polygon fill="white" stroke="black" points="273,-420.5 273,-439.5 361,-439.5 361,-420.5 273,-420.5"/>
<text text-anchor="middle" x="317" y="-427.5" font-family="Helvetica,sans-Serif" font-size="10.00">CCriticalSection</text>
</a>
</g>
</g>
<!-- Node12&#45;&gt;Node8 -->
<g id="edge22" class="edge"><title>Node12&#45;&gt;Node8</title>
<path fill="none" stroke="#9a32cd" stroke-dasharray="5,2" d="M371.246,-427.814C420.999,-423.493 487,-408.126 487,-357 487,-357 487,-357 487,-223 487,-200.351 490.258,-188.668 473,-174 457.617,-160.926 325.279,-151.801 268.117,-148.434"/>
<polygon fill="#9a32cd" stroke="#9a32cd" points="370.935,-424.328 361.222,-428.558 371.453,-431.308 370.935,-424.328"/>
<text text-anchor="middle" x="509.5" y="-279.5" font-family="Helvetica,sans-Serif" font-size="10.00"> cs_wallet</text>
</g>
<!-- Node12&#45;&gt;Node11 -->
<g id="edge11" class="edge"><title>Node12&#45;&gt;Node11</title>
<path fill="none" stroke="#9a32cd" stroke-dasharray="5,2" d="M315.43,-410.156C314.226,-395.712 312.622,-376.459 311.711,-365.531"/>
<polygon fill="#9a32cd" stroke="#9a32cd" points="311.97,-410.783 316.288,-420.458 318.946,-410.202 311.97,-410.783"/>
<text text-anchor="middle" x="345" y="-393.5" font-family="Helvetica,sans-Serif" font-size="10.00"> cs_KeyStore</text>
</g>
<!-- Node15 -->
<g id="node15" class="node"><title>Node15</title>
<g id="a_node15"><a xlink:href="class_c_h_d_chain.html" target="_top" xlink:title="CHDChain">
<polygon fill="white" stroke="black" points="175.5,-346.5 175.5,-365.5 240.5,-365.5 240.5,-346.5 175.5,-346.5"/>
<text text-anchor="middle" x="208" y="-353.5" font-family="Helvetica,sans-Serif" font-size="10.00">CHDChain</text>
</a>
</g>
</g>
<!-- Node12&#45;&gt;Node15 -->
<g id="edge17" class="edge"><title>Node12&#45;&gt;Node15</title>
<path fill="none" stroke="#9a32cd" stroke-dasharray="5,2" d="M279.292,-416.744C269.653,-412.777 259.593,-407.857 251,-402 235.999,-391.776 222.168,-375.591 214.432,-365.672"/>
<polygon fill="#9a32cd" stroke="#9a32cd" points="278.131,-420.048 288.721,-420.394 280.658,-413.52 278.131,-420.048"/>
<text text-anchor="middle" x="280.5" y="-393.5" font-family="Helvetica,sans-Serif" font-size="10.00"> cs_accounts</text>
</g>
<!-- Node13 -->
<g id="node13" class="node"><title>Node13</title>
<polygon fill="white" stroke="#bfbfbf" points="262.5,-479 262.5,-509 379.5,-509 379.5,-479 262.5,-479"/>
<text text-anchor="start" x="270.5" y="-497" font-family="Helvetica,sans-Serif" font-size="10.00">AnnotatedMixin&lt; boost</text>
<text text-anchor="middle" x="321" y="-486" font-family="Helvetica,sans-Serif" font-size="10.00">::recursive_mutex &gt;</text>
</g>
<!-- Node13&#45;&gt;Node12 -->
<g id="edge12" class="edge"><title>Node13&#45;&gt;Node12</title>
<path fill="none" stroke="midnightblue" d="M319.443,-468.871C318.785,-458.663 318.059,-447.408 317.57,-439.842"/>
<polygon fill="midnightblue" stroke="midnightblue" points="315.956,-469.177 320.092,-478.931 322.941,-468.727 315.956,-469.177"/>
</g>
<!-- Node14 -->
<g id="node14" class="node"><title>Node14</title>
<polygon fill="white" stroke="#bfbfbf" points="261.5,-548.5 261.5,-567.5 380.5,-567.5 380.5,-548.5 261.5,-548.5"/>
<text text-anchor="middle" x="321" y="-555.5" font-family="Helvetica,sans-Serif" font-size="10.00">boost::recursive_mutex</text>
</g>
<!-- Node14&#45;&gt;Node13 -->
<g id="edge13" class="edge"><title>Node14&#45;&gt;Node13</title>
<path fill="none" stroke="midnightblue" d="M321,-538.183C321,-528.886 321,-517.851 321,-509.263"/>
<polygon fill="midnightblue" stroke="midnightblue" points="317.5,-538.379 321,-548.379 324.5,-538.379 317.5,-538.379"/>
</g>
<!-- Node15&#45;&gt;Node9 -->
<g id="edge18" class="edge"><title>Node15&#45;&gt;Node9</title>
<path fill="none" stroke="#9a32cd" stroke-dasharray="5,2" d="M183.154,-340.979C166.105,-329.965 144.547,-312.995 133,-292 122.706,-273.284 122.5,-247.316 123.241,-233.867"/>
<polygon fill="#9a32cd" stroke="#9a32cd" points="181.721,-344.207 192.071,-346.474 185.393,-338.248 181.721,-344.207"/>
<text text-anchor="middle" x="171" y="-279.5" font-family="Helvetica,sans-Serif" font-size="10.00"> cryptedHDChain</text>
</g>
<!-- Node15&#45;&gt;Node10 -->
<g id="edge14" class="edge"><title>Node15&#45;&gt;Node10</title>
<path fill="none" stroke="#9a32cd" stroke-dasharray="5,2" d="M218.615,-337.704C224.097,-329.143 231.074,-318.787 238,-310 243.062,-303.578 249.312,-296.828 254.296,-291.683"/>
<polygon fill="#9a32cd" stroke="#9a32cd" points="215.493,-336.096 213.146,-346.428 221.423,-339.815 215.493,-336.096"/>
<text text-anchor="middle" x="258" y="-313.5" font-family="Helvetica,sans-Serif" font-size="10.00"> hdChain</text>
</g>
<!-- Node16 -->
<g id="node16" class="node"><title>Node16</title>
<g id="a_node16"><a xlink:href="classuint256.html" target="_top" xlink:title="256&#45;bit opaque blob. ">
<polygon fill="white" stroke="black" points="173,-420.5 173,-439.5 221,-439.5 221,-420.5 173,-420.5"/>
<text text-anchor="middle" x="197" y="-427.5" font-family="Helvetica,sans-Serif" font-size="10.00">uint256</text>
</a>
</g>
</g>
<!-- Node16&#45;&gt;Node15 -->
<g id="edge15" class="edge"><title>Node16&#45;&gt;Node15</title>
<path fill="none" stroke="#9a32cd" stroke-dasharray="5,2" d="M197.85,-409.935C198.298,-403.57 198.976,-396.455 200,-390 201.33,-381.616 203.695,-372.222 205.51,-365.608"/>
<polygon fill="#9a32cd" stroke="#9a32cd" points="194.336,-410.098 197.269,-420.279 201.325,-410.491 194.336,-410.098"/>
<text text-anchor="middle" x="205.5" y="-393.5" font-family="Helvetica,sans-Serif" font-size="10.00"> id</text>
</g>
<!-- Node17 -->
<g id="node17" class="node"><title>Node17</title>
<g id="a_node17"><a xlink:href="classbase__blob.html" target="_top" xlink:title="base_blob\&lt; 256 \&gt;">
<polygon fill="white" stroke="black" points="149.5,-484.5 149.5,-503.5 244.5,-503.5 244.5,-484.5 149.5,-484.5"/>
<text text-anchor="middle" x="197" y="-491.5" font-family="Helvetica,sans-Serif" font-size="10.00">base_blob&lt; 256 &gt;</text>
</a>
</g>
</g>
<!-- Node17&#45;&gt;Node16 -->
<g id="edge16" class="edge"><title>Node17&#45;&gt;Node16</title>
<path fill="none" stroke="midnightblue" d="M197,-474.037C197,-462.53 197,-448.403 197,-439.548"/>
<polygon fill="midnightblue" stroke="midnightblue" points="193.5,-474.379 197,-484.379 200.5,-474.379 193.5,-474.379"/>
</g>
<!-- Node18 -->
<g id="node18" class="node"><title>Node18</title>
<g id="a_node18"><a xlink:href="class_c_validation_interface.html" target="_top" xlink:title="CValidationInterface">
<polygon fill="white" stroke="black" points="189.5,-214.5 189.5,-233.5 294.5,-233.5 294.5,-214.5 189.5,-214.5"/>
<text text-anchor="middle" x="242" y="-221.5" font-family="Helvetica,sans-Serif" font-size="10.00">CValidationInterface</text>
</a>
</g>
</g>
<!-- Node18&#45;&gt;Node8 -->
<g id="edge19" class="edge"><title>Node18&#45;&gt;Node8</title>
<path fill="none" stroke="midnightblue" d="M242,-204.224C242,-188.697 242,-167.358 242,-155.616"/>
<polygon fill="midnightblue" stroke="midnightblue" points="238.5,-204.282 242,-214.282 245.5,-204.282 238.5,-204.282"/>
</g>
<!-- Node19 -->
<g id="node19" class="node"><title>Node19</title>
<g id="a_node19"><a xlink:href="class_c_fee_rate.html" target="_top" xlink:title="Fee rate in satoshis per kilobyte: CAmount / kB. ">
<polygon fill="white" stroke="black" points="313,-214.5 313,-233.5 375,-233.5 375,-214.5 313,-214.5"/>
<text text-anchor="middle" x="344" y="-221.5" font-family="Helvetica,sans-Serif" font-size="10.00">CFeeRate</text>
</a>
</g>
</g>
<!-- Node19&#45;&gt;Node8 -->
<g id="edge20" class="edge"><title>Node19&#45;&gt;Node8</title>
<path fill="none" stroke="#9a32cd" stroke-dasharray="5,2" d="M324.07,-208.15C303.066,-192.5 270.7,-168.384 253.564,-155.616"/>
<polygon fill="#9a32cd" stroke="#9a32cd" points="322.189,-211.114 332.299,-214.282 326.372,-205.5 322.189,-211.114"/>
<text text-anchor="middle" x="331.5" y="-188" font-family="Helvetica,sans-Serif" font-size="10.00"> minTxFee</text>
<text text-anchor="middle" x="331.5" y="-177" font-family="Helvetica,sans-Serif" font-size="10.00">fallbackFee</text>
</g>
<!-- Node20 -->
<g id="node20" class="node"><title>Node20</title>
<g id="a_node20"><a xlink:href="class_c_wallet_d_b.html" target="_top" xlink:title="Access to the wallet database. ">
<polygon fill="white" stroke="black" points="393,-214.5 393,-233.5 459,-233.5 459,-214.5 393,-214.5"/>
<text text-anchor="middle" x="426" y="-221.5" font-family="Helvetica,sans-Serif" font-size="10.00">CWalletDB</text>
</a>
</g>
</g>
<!-- Node20&#45;&gt;Node8 -->
<g id="edge23" class="edge"><title>Node20&#45;&gt;Node8</title>
<path fill="none" stroke="#9a32cd" stroke-dasharray="5,2" d="M401.019,-208.941C394.638,-205.01 387.913,-200.559 382,-196 370.797,-187.363 371.448,-180.719 359,-174 330.2,-158.453 292.719,-151.82 268.038,-149.015"/>
<polygon fill="#9a32cd" stroke="#9a32cd" points="399.606,-212.173 409.989,-214.28 403.186,-206.157 399.606,-212.173"/>
<text text-anchor="middle" x="427.5" y="-182.5" font-family="Helvetica,sans-Serif" font-size="10.00"> pwalletdbEncryption</text>
</g>
<!-- Node21 -->
<g id="node21" class="node"><title>Node21</title>
<g id="a_node21"><a xlink:href="class_c_d_b.html" target="_top" xlink:title="RAII class that provides access to a Berkeley database. ">
<polygon fill="white" stroke="black" points="407,-272.5 407,-291.5 445,-291.5 445,-272.5 407,-272.5"/>
<text text-anchor="middle" x="426" y="-279.5" font-family="Helvetica,sans-Serif" font-size="10.00">CDB</text>
</a>
</g>
</g>
<!-- Node21&#45;&gt;Node20 -->
<g id="edge24" class="edge"><title>Node21&#45;&gt;Node20</title>
<path fill="none" stroke="midnightblue" d="M426,-261.953C426,-252.287 426,-241.031 426,-233.505"/>
<polygon fill="midnightblue" stroke="midnightblue" points="422.5,-262.25 426,-272.25 429.5,-262.25 422.5,-262.25"/>
</g>
</g>
</svg>
