<?xml version="1.0" encoding="UTF-8" standalone="no"?>
<!DOCTYPE svg PUBLIC "-//W3C//DTD SVG 1.1//EN"
 "http://www.w3.org/Graphics/SVG/1.1/DTD/svg11.dtd">
<!-- Generated by graphviz version 2.36.0 (20140111.2315)
 -->
<!-- Title: BitcoinCore Pages: 1 -->
<svg width="147pt" height="96pt"
 viewBox="0.00 0.00 147.00 96.00" xmlns="http://www.w3.org/2000/svg" xmlns:xlink="http://www.w3.org/1999/xlink">
<g id="graph0" class="graph" transform="scale(1 1) rotate(0) translate(4 92)">
<title>BitcoinCore</title>
<polygon fill="white" stroke="none" points="-4,4 -4,-92 143,-92 143,4 -4,4"/>
<!-- Node2 -->
<g id="node1" class="node"><title>Node2</title>
<polygon fill="#bfbfbf" stroke="black" points="31,-0.5 31,-19.5 99,-19.5 99,-0.5 31,-0.5"/>
<text text-anchor="middle" x="65" y="-7.5" font-family="Helvetica,sans-Serif" font-size="10.00">BitcoinCore</text>
</g>
<!-- Node3 -->
<g id="node2" class="node"><title>Node3</title>
<polygon fill="white" stroke="#bfbfbf" points="-0.5,-68.5 -0.5,-87.5 52.5,-87.5 52.5,-68.5 -0.5,-68.5"/>
<text text-anchor="middle" x="26" y="-75.5" font-family="Helvetica,sans-Serif" font-size="10.00">QObject</text>
</g>
<!-- Node3&#45;&gt;Node2 -->
<g id="edge1" class="edge"><title>Node3&#45;&gt;Node2</title>
<path fill="none" stroke="midnightblue" d="M36.3037,-59.563C43.8564,-46.7815 53.7964,-29.9599 59.7757,-19.8411"/>
<polygon fill="midnightblue" stroke="midnightblue" points="33.1727,-57.9818 31.0986,-68.3717 39.1992,-61.5429 33.1727,-57.9818"/>
</g>
<!-- Node4 -->
<g id="node3" class="node"><title>Node4</title>
<g id="a_node3"><a xlink:href="class_c_scheduler.html" target="_top" xlink:title="CScheduler">
<polygon fill="white" stroke="black" points="71,-68.5 71,-87.5 139,-87.5 139,-68.5 71,-68.5"/>
<text text-anchor="middle" x="105" y="-75.5" font-family="Helvetica,sans-Serif" font-size="10.00">CScheduler</text>
</a>
</g>
</g>
<!-- Node4&#45;&gt;Node2 -->
<g id="edge2" class="edge"><title>Node4&#45;&gt;Node2</title>
<path fill="none" stroke="#9a32cd" stroke-dasharray="5,2" d="M94.4321,-59.563C86.6857,-46.7815 76.4909,-29.9599 70.3583,-19.8411"/>
<polygon fill="#9a32cd" stroke="#9a32cd" points="91.5944,-61.6337 99.7707,-68.3717 97.5808,-58.0056 91.5944,-61.6337"/>
<text text-anchor="middle" x="112" y="-41.5" font-family="Helvetica,sans-Serif" font-size="10.00"> scheduler</text>
</g>
</g>
</svg>
