<?xml version="1.0" encoding="UTF-8" standalone="no"?>
<!DOCTYPE svg PUBLIC "-//W3C//DTD SVG 1.1//EN"
 "http://www.w3.org/Graphics/SVG/1.1/DTD/svg11.dtd">
<!-- Generated by graphviz version 2.36.0 (20140111.2315)
 -->
<!-- Title: CPrivateSendBaseSession Pages: 1 -->
<svg width="270pt" height="84pt"
 viewBox="0.00 0.00 270.00 84.00" xmlns="http://www.w3.org/2000/svg" xmlns:xlink="http://www.w3.org/1999/xlink">
<g id="graph0" class="graph" transform="scale(1 1) rotate(0) translate(4 80)">
<title>CPrivateSendBaseSession</title>
<polygon fill="white" stroke="none" points="-4,4 -4,-80 266,-80 266,4 -4,4"/>
<!-- Node0 -->
<g id="node1" class="node"><title>Node0</title>
<polygon fill="#bfbfbf" stroke="black" points="71.5,-56.5 71.5,-75.5 206.5,-75.5 206.5,-56.5 71.5,-56.5"/>
<text text-anchor="middle" x="139" y="-63.5" font-family="Helvetica,sans-Serif" font-size="10.00">CPrivateSendBaseSession</text>
</g>
<!-- Node1 -->
<g id="node2" class="node"><title>Node1</title>
<g id="a_node2"><a xlink:href="class_c_private_send_client_session.html" target="_top" xlink:title="CPrivateSendClientSession">
<polygon fill="white" stroke="black" points="0,-0.5 0,-19.5 138,-19.5 138,-0.5 0,-0.5"/>
<text text-anchor="middle" x="69" y="-7.5" font-family="Helvetica,sans-Serif" font-size="10.00">CPrivateSendClientSession</text>
</a>
</g>
</g>
<!-- Node0&#45;&gt;Node1 -->
<g id="edge1" class="edge"><title>Node0&#45;&gt;Node1</title>
<path fill="none" stroke="midnightblue" d="M119.686,-50.1008C107.088,-40.3824 91.0719,-28.0269 80.4513,-19.8339"/>
<polygon fill="midnightblue" stroke="midnightblue" points="117.698,-52.9871 127.753,-56.324 121.973,-47.4446 117.698,-52.9871"/>
</g>
<!-- Node2 -->
<g id="node3" class="node"><title>Node2</title>
<g id="a_node3"><a xlink:href="class_c_private_send_server.html" target="_top" xlink:title="Used to keep track of current status of mixing pool. ">
<polygon fill="white" stroke="black" points="156,-0.5 156,-19.5 262,-19.5 262,-0.5 156,-0.5"/>
<text text-anchor="middle" x="209" y="-7.5" font-family="Helvetica,sans-Serif" font-size="10.00">CPrivateSendServer</text>
</a>
</g>
</g>
<!-- Node0&#45;&gt;Node2 -->
<g id="edge2" class="edge"><title>Node0&#45;&gt;Node2</title>
<path fill="none" stroke="midnightblue" d="M158.314,-50.1008C170.912,-40.3824 186.928,-28.0269 197.549,-19.8339"/>
<polygon fill="midnightblue" stroke="midnightblue" points="156.027,-47.4446 150.247,-56.324 160.302,-52.9871 156.027,-47.4446"/>
</g>
</g>
</svg>
