<?xml version="1.0" encoding="UTF-8" standalone="no"?>
<!DOCTYPE svg PUBLIC "-//W3C//DTD SVG 1.1//EN"
 "http://www.w3.org/Graphics/SVG/1.1/DTD/svg11.dtd">
<!-- Generated by graphviz version 2.36.0 (20140111.2315)
 -->
<!-- Title: tinyformat::detail::FormatListN&lt; 0 &gt; Pages: 1 -->
<svg width="125pt" height="178pt"
 viewBox="0.00 0.00 125.00 178.00" xmlns="http://www.w3.org/2000/svg" xmlns:xlink="http://www.w3.org/1999/xlink">
<g id="graph0" class="graph" transform="scale(1 1) rotate(0) translate(4 174)">
<title>tinyformat::detail::FormatListN&lt; 0 &gt;</title>
<polygon fill="white" stroke="none" points="-4,4 -4,-174 121,-174 121,4 -4,4"/>
<!-- Node2 -->
<g id="node1" class="node"><title>Node2</title>
<polygon fill="#bfbfbf" stroke="black" points="6,-1 6,-31 106,-31 106,-1 6,-1"/>
<text text-anchor="start" x="14" y="-19" font-family="Helvetica,sans-Serif" font-size="10.00">tinyformat::detail</text>
<text text-anchor="middle" x="56" y="-8" font-family="Helvetica,sans-Serif" font-size="10.00">::FormatListN&lt; 0 &gt;</text>
</g>
<!-- Node3 -->
<g id="node2" class="node"><title>Node3</title>
<g id="a_node2"><a xlink:href="classtinyformat_1_1_format_list.html" target="_top" xlink:title="List of template arguments format(), held in a type&#45;opaque way. ">
<polygon fill="white" stroke="black" points="-0.5,-70.5 -0.5,-89.5 112.5,-89.5 112.5,-70.5 -0.5,-70.5"/>
<text text-anchor="middle" x="56" y="-77.5" font-family="Helvetica,sans-Serif" font-size="10.00">tinyformat::FormatList</text>
</a>
</g>
</g>
<!-- Node3&#45;&gt;Node2 -->
<g id="edge1" class="edge"><title>Node3&#45;&gt;Node2</title>
<path fill="none" stroke="midnightblue" d="M56,-60.1826C56,-50.8859 56,-39.8507 56,-31.263"/>
<polygon fill="midnightblue" stroke="midnightblue" points="52.5001,-60.3791 56,-70.3792 59.5001,-60.3792 52.5001,-60.3791"/>
</g>
<!-- Node4 -->
<g id="node3" class="node"><title>Node4</title>
<g id="a_node3"><a xlink:href="classtinyformat_1_1detail_1_1_format_arg.html" target="_top" xlink:title="tinyformat::detail\l::FormatArg">
<polygon fill="white" stroke="black" points="11.5,-139 11.5,-169 100.5,-169 100.5,-139 11.5,-139"/>
<text text-anchor="start" x="19.5" y="-157" font-family="Helvetica,sans-Serif" font-size="10.00">tinyformat::detail</text>
<text text-anchor="middle" x="56" y="-146" font-family="Helvetica,sans-Serif" font-size="10.00">::FormatArg</text>
</a>
</g>
</g>
<!-- Node4&#45;&gt;Node3 -->
<g id="edge2" class="edge"><title>Node4&#45;&gt;Node3</title>
<path fill="none" stroke="#9a32cd" stroke-dasharray="5,2" d="M56,-128.688C56,-115.253 56,-99.3805 56,-89.7589"/>
<polygon fill="#9a32cd" stroke="#9a32cd" points="52.5001,-128.775 56,-138.775 59.5001,-128.775 52.5001,-128.775"/>
<text text-anchor="middle" x="86.5" y="-111.5" font-family="Helvetica,sans-Serif" font-size="10.00"> m_formatters</text>
</g>
</g>
</svg>
