<?xml version="1.0" encoding="UTF-8" standalone="no"?>
<!DOCTYPE svg PUBLIC "-//W3C//DTD SVG 1.1//EN"
 "http://www.w3.org/Graphics/SVG/1.1/DTD/svg11.dtd">
<!-- Generated by graphviz version 2.36.0 (20140111.2315)
 -->
<!-- Title: AES128Encrypt Pages: 1 -->
<svg width="94pt" height="164pt"
 viewBox="0.00 0.00 94.00 164.00" xmlns="http://www.w3.org/2000/svg" xmlns:xlink="http://www.w3.org/1999/xlink">
<g id="graph0" class="graph" transform="scale(1 1) rotate(0) translate(4 160)">
<title>AES128Encrypt</title>
<polygon fill="white" stroke="none" points="-4,4 -4,-160 90,-160 90,4 -4,4"/>
<!-- Node1 -->
<g id="node1" class="node"><title>Node1</title>
<polygon fill="#bfbfbf" stroke="black" points="0,-0.5 0,-19.5 86,-19.5 86,-0.5 0,-0.5"/>
<text text-anchor="middle" x="43" y="-7.5" font-family="Helvetica,sans-Serif" font-size="10.00">AES128Encrypt</text>
</g>
<!-- Node2 -->
<g id="node2" class="node"><title>Node2</title>
<g id="a_node2"><a xlink:href="struct_a_e_s128__ctx.html" target="_top" xlink:title="AES128_ctx">
<polygon fill="white" stroke="black" points="7.5,-68.5 7.5,-87.5 78.5,-87.5 78.5,-68.5 7.5,-68.5"/>
<text text-anchor="middle" x="43" y="-75.5" font-family="Helvetica,sans-Serif" font-size="10.00">AES128_ctx</text>
</a>
</g>
</g>
<!-- Node2&#45;&gt;Node1 -->
<g id="edge1" class="edge"><title>Node2&#45;&gt;Node1</title>
<path fill="none" stroke="#9a32cd" stroke-dasharray="5,2" d="M43,-58.0413C43,-45.4724 43,-29.5631 43,-19.8411"/>
<polygon fill="#9a32cd" stroke="#9a32cd" points="39.5001,-58.3716 43,-68.3717 46.5001,-58.3717 39.5001,-58.3716"/>
<text text-anchor="middle" x="51.5" y="-41.5" font-family="Helvetica,sans-Serif" font-size="10.00"> ctx</text>
</g>
<!-- Node3 -->
<g id="node3" class="node"><title>Node3</title>
<g id="a_node3"><a xlink:href="struct_a_e_s__state.html" target="_top" xlink:title="AES_state">
<polygon fill="white" stroke="black" points="11,-136.5 11,-155.5 75,-155.5 75,-136.5 11,-136.5"/>
<text text-anchor="middle" x="43" y="-143.5" font-family="Helvetica,sans-Serif" font-size="10.00">AES_state</text>
</a>
</g>
</g>
<!-- Node3&#45;&gt;Node2 -->
<g id="edge2" class="edge"><title>Node3&#45;&gt;Node2</title>
<path fill="none" stroke="#9a32cd" stroke-dasharray="5,2" d="M43,-126.041C43,-113.472 43,-97.5631 43,-87.8411"/>
<polygon fill="#9a32cd" stroke="#9a32cd" points="39.5001,-126.372 43,-136.372 46.5001,-126.372 39.5001,-126.372"/>
<text text-anchor="middle" x="49" y="-109.5" font-family="Helvetica,sans-Serif" font-size="10.00"> rk</text>
</g>
</g>
</svg>
