<?xml version="1.0" encoding="UTF-8" standalone="no"?>
<!DOCTYPE svg PUBLIC "-//W3C//DTD SVG 1.1//EN"
 "http://www.w3.org/Graphics/SVG/1.1/DTD/svg11.dtd">
<!-- Generated by graphviz version 2.36.0 (20140111.2315)
 -->
<!-- Title: tinyformat::detail::FormatListN&lt; N &gt; Pages: 1 -->
<svg width="224pt" height="178pt"
 viewBox="0.00 0.00 224.00 178.00" xmlns="http://www.w3.org/2000/svg" xmlns:xlink="http://www.w3.org/1999/xlink">
<g id="graph0" class="graph" transform="scale(1 1) rotate(0) translate(4 174)">
<title>tinyformat::detail::FormatListN&lt; N &gt;</title>
<polygon fill="white" stroke="none" points="-4,4 -4,-174 220,-174 220,4 -4,4"/>
<!-- Node2 -->
<g id="node1" class="node"><title>Node2</title>
<polygon fill="#bfbfbf" stroke="black" points="-1,-1 -1,-31 101,-31 101,-1 -1,-1"/>
<text text-anchor="start" x="7" y="-19" font-family="Helvetica,sans-Serif" font-size="10.00">tinyformat::detail</text>
<text text-anchor="middle" x="50" y="-8" font-family="Helvetica,sans-Serif" font-size="10.00">::FormatListN&lt; N &gt;</text>
</g>
<!-- Node3 -->
<g id="node2" class="node"><title>Node3</title>
<g id="a_node2"><a xlink:href="classtinyformat_1_1_format_list.html" target="_top" xlink:title="List of template arguments format(), held in a type&#45;opaque way. ">
<polygon fill="white" stroke="black" points="103.5,-70.5 103.5,-89.5 216.5,-89.5 216.5,-70.5 103.5,-70.5"/>
<text text-anchor="middle" x="160" y="-77.5" font-family="Helvetica,sans-Serif" font-size="10.00">tinyformat::FormatList</text>
</a>
</g>
</g>
<!-- Node3&#45;&gt;Node2 -->
<g id="edge1" class="edge"><title>Node3&#45;&gt;Node2</title>
<path fill="none" stroke="midnightblue" d="M135.921,-65.4282C117.84,-55.2373 93.1559,-41.3242 74.8834,-31.0252"/>
<polygon fill="midnightblue" stroke="midnightblue" points="134.275,-68.518 144.705,-70.3792 137.712,-62.4199 134.275,-68.518"/>
</g>
<!-- Node4 -->
<g id="node3" class="node"><title>Node4</title>
<g id="a_node3"><a xlink:href="classtinyformat_1_1detail_1_1_format_arg.html" target="_top" xlink:title="tinyformat::detail\l::FormatArg">
<polygon fill="white" stroke="black" points="7.5,-139 7.5,-169 96.5,-169 96.5,-139 7.5,-139"/>
<text text-anchor="start" x="15.5" y="-157" font-family="Helvetica,sans-Serif" font-size="10.00">tinyformat::detail</text>
<text text-anchor="middle" x="52" y="-146" font-family="Helvetica,sans-Serif" font-size="10.00">::FormatArg</text>
</a>
</g>
</g>
<!-- Node4&#45;&gt;Node2 -->
<g id="edge3" class="edge"><title>Node4&#45;&gt;Node2</title>
<path fill="none" stroke="#9a32cd" stroke-dasharray="5,2" d="M35.2891,-130.445C27.8105,-118.963 19.8269,-104.411 16,-90 10.2944,-68.5152 24.792,-45.5583 36.5976,-31.2458"/>
<polygon fill="#9a32cd" stroke="#9a32cd" points="32.5581,-132.652 41.0895,-138.935 38.3378,-128.703 32.5581,-132.652"/>
<text text-anchor="middle" x="55.5" y="-77.5" font-family="Helvetica,sans-Serif" font-size="10.00"> m_formatterStore</text>
</g>
<!-- Node4&#45;&gt;Node3 -->
<g id="edge2" class="edge"><title>Node4&#45;&gt;Node3</title>
<path fill="none" stroke="#9a32cd" stroke-dasharray="5,2" d="M81.5327,-133.312C103.001,-118.999 131.013,-100.325 147.104,-89.5972"/>
<polygon fill="#9a32cd" stroke="#9a32cd" points="79.4589,-130.488 73.0799,-138.947 83.3419,-136.312 79.4589,-130.488"/>
<text text-anchor="middle" x="148.5" y="-111.5" font-family="Helvetica,sans-Serif" font-size="10.00"> m_formatters</text>
</g>
</g>
</svg>
