<?xml version="1.0" encoding="UTF-8" standalone="no"?>
<!DOCTYPE svg PUBLIC "-//W3C//DTD SVG 1.1//EN"
 "http://www.w3.org/Graphics/SVG/1.1/DTD/svg11.dtd">
<!-- Generated by graphviz version 2.36.0 (20140111.2315)
 -->
<!-- Title: immer::box&lt; T, MemoryPolicy &gt; Pages: 1 -->
<svg width="164pt" height="166pt"
 viewBox="0.00 0.00 164.00 166.00" xmlns="http://www.w3.org/2000/svg" xmlns:xlink="http://www.w3.org/1999/xlink">
<g id="graph0" class="graph" transform="scale(1 1) rotate(0) translate(4 162)">
<title>immer::box&lt; T, MemoryPolicy &gt;</title>
<polygon fill="white" stroke="none" points="-4,4 -4,-162 160,-162 160,4 -4,4"/>
<!-- Node1 -->
<g id="node1" class="node"><title>Node1</title>
<polygon fill="#bfbfbf" stroke="black" points="-1,-0.5 -1,-19.5 157,-19.5 157,-0.5 -1,-0.5"/>
<text text-anchor="middle" x="78" y="-7.5" font-family="Helvetica,sans-Serif" font-size="10.00">immer::box&lt; T, MemoryPolicy &gt;</text>
</g>
<!-- Node2 -->
<g id="node2" class="node"><title>Node2</title>
<g id="a_node2"><a xlink:href="structimmer_1_1box_1_1holder.html" target="_top" xlink:title="immer::box\&lt; T, MemoryPolicy\l \&gt;::holder">
<polygon fill="white" stroke="black" points="3.5,-69 3.5,-99 152.5,-99 152.5,-69 3.5,-69"/>
<text text-anchor="start" x="11.5" y="-87" font-family="Helvetica,sans-Serif" font-size="10.00">immer::box&lt; T, MemoryPolicy</text>
<text text-anchor="middle" x="78" y="-76" font-family="Helvetica,sans-Serif" font-size="10.00"> &gt;::holder</text>
</a>
</g>
</g>
<!-- Node2&#45;&gt;Node1 -->
<g id="edge1" class="edge"><title>Node2&#45;&gt;Node1</title>
<path fill="none" stroke="#9a32cd" stroke-dasharray="5,2" d="M78,-58.6883C78,-45.2526 78,-29.3805 78,-19.7589"/>
<polygon fill="#9a32cd" stroke="#9a32cd" points="74.5001,-58.7751 78,-68.7751 81.5001,-58.7752 74.5001,-58.7751"/>
<text text-anchor="middle" x="91.5" y="-41.5" font-family="Helvetica,sans-Serif" font-size="10.00"> impl_</text>
</g>
<!-- Node3 -->
<g id="node3" class="node"><title>Node3</title>
<polygon fill="white" stroke="#bfbfbf" points="18,-138.5 18,-157.5 138,-157.5 138,-138.5 18,-138.5"/>
<text text-anchor="middle" x="78" y="-145.5" font-family="Helvetica,sans-Serif" font-size="10.00">MemoryPolicy::refcount</text>
</g>
<!-- Node3&#45;&gt;Node2 -->
<g id="edge2" class="edge"><title>Node3&#45;&gt;Node2</title>
<path fill="none" stroke="midnightblue" d="M78,-128.183C78,-118.886 78,-107.851 78,-99.263"/>
<polygon fill="midnightblue" stroke="midnightblue" points="74.5001,-128.379 78,-138.379 81.5001,-128.379 74.5001,-128.379"/>
</g>
</g>
</svg>
