<?xml version="1.0" encoding="UTF-8" standalone="no"?>
<!DOCTYPE svg PUBLIC "-//W3C//DTD SVG 1.1//EN"
 "http://www.w3.org/Graphics/SVG/1.1/DTD/svg11.dtd">
<!-- Generated by graphviz version 2.36.0 (20140111.2315)
 -->
<!-- Title: CBLSWorkerCache Pages: 1 -->
<svg width="111pt" height="164pt"
 viewBox="0.00 0.00 111.00 164.00" xmlns="http://www.w3.org/2000/svg" xmlns:xlink="http://www.w3.org/1999/xlink">
<g id="graph0" class="graph" transform="scale(1 1) rotate(0) translate(4 160)">
<title>CBLSWorkerCache</title>
<polygon fill="white" stroke="none" points="-4,4 -4,-160 107,-160 107,4 -4,4"/>
<!-- Node1 -->
<g id="node1" class="node"><title>Node1</title>
<polygon fill="#bfbfbf" stroke="black" points="-0.5,-0.5 -0.5,-19.5 102.5,-19.5 102.5,-0.5 -0.5,-0.5"/>
<text text-anchor="middle" x="51" y="-7.5" font-family="Helvetica,sans-Serif" font-size="10.00">CBLSWorkerCache</text>
</g>
<!-- Node2 -->
<g id="node2" class="node"><title>Node2</title>
<g id="a_node2"><a xlink:href="class_c_b_l_s_worker.html" target="_top" xlink:title="CBLSWorker">
<polygon fill="white" stroke="black" points="14,-68.5 14,-87.5 88,-87.5 88,-68.5 14,-68.5"/>
<text text-anchor="middle" x="51" y="-75.5" font-family="Helvetica,sans-Serif" font-size="10.00">CBLSWorker</text>
</a>
</g>
</g>
<!-- Node2&#45;&gt;Node1 -->
<g id="edge1" class="edge"><title>Node2&#45;&gt;Node1</title>
<path fill="none" stroke="#9a32cd" stroke-dasharray="5,2" d="M51,-58.0413C51,-45.4724 51,-29.5631 51,-19.8411"/>
<polygon fill="#9a32cd" stroke="#9a32cd" points="47.5001,-58.3716 51,-68.3717 54.5001,-58.3717 47.5001,-58.3716"/>
<text text-anchor="middle" x="67.5" y="-41.5" font-family="Helvetica,sans-Serif" font-size="10.00"> worker</text>
</g>
<!-- Node3 -->
<g id="node3" class="node"><title>Node3</title>
<g id="a_node3"><a xlink:href="classctpl_1_1thread__pool.html" target="_top" xlink:title="ctpl::thread_pool">
<polygon fill="white" stroke="black" points="6.5,-136.5 6.5,-155.5 95.5,-155.5 95.5,-136.5 6.5,-136.5"/>
<text text-anchor="middle" x="51" y="-143.5" font-family="Helvetica,sans-Serif" font-size="10.00">ctpl::thread_pool</text>
</a>
</g>
</g>
<!-- Node3&#45;&gt;Node2 -->
<g id="edge2" class="edge"><title>Node3&#45;&gt;Node2</title>
<path fill="none" stroke="#9a32cd" stroke-dasharray="5,2" d="M51,-126.041C51,-113.472 51,-97.5631 51,-87.8411"/>
<polygon fill="#9a32cd" stroke="#9a32cd" points="47.5001,-126.372 51,-136.372 54.5001,-126.372 47.5001,-126.372"/>
<text text-anchor="middle" x="77" y="-109.5" font-family="Helvetica,sans-Serif" font-size="10.00"> workerPool</text>
</g>
</g>
</svg>
