<?xml version="1.0" encoding="UTF-8" standalone="no"?>
<!DOCTYPE svg PUBLIC "-//W3C//DTD SVG 1.1//EN"
 "http://www.w3.org/Graphics/SVG/1.1/DTD/svg11.dtd">
<!-- Generated by graphviz version 2.36.0 (20140111.2315)
 -->
<!-- Title: tinyformat::FormatList Pages: 1 -->
<svg width="228pt" height="96pt"
 viewBox="0.00 0.00 228.00 96.00" xmlns="http://www.w3.org/2000/svg" xmlns:xlink="http://www.w3.org/1999/xlink">
<g id="graph0" class="graph" transform="scale(1 1) rotate(0) translate(4 92)">
<title>tinyformat::FormatList</title>
<polygon fill="white" stroke="none" points="-4,4 -4,-92 224,-92 224,4 -4,4"/>
<!-- Node0 -->
<g id="node1" class="node"><title>Node0</title>
<polygon fill="#bfbfbf" stroke="black" points="53.5,-68.5 53.5,-87.5 166.5,-87.5 166.5,-68.5 53.5,-68.5"/>
<text text-anchor="middle" x="110" y="-75.5" font-family="Helvetica,sans-Serif" font-size="10.00">tinyformat::FormatList</text>
</g>
<!-- Node1 -->
<g id="node2" class="node"><title>Node1</title>
<g id="a_node2"><a xlink:href="classtinyformat_1_1detail_1_1_format_list_n.html" target="_top" xlink:title="tinyformat::detail\l::FormatListN\&lt; N \&gt;">
<polygon fill="white" stroke="black" points="0,-1 0,-31 102,-31 102,-1 0,-1"/>
<text text-anchor="start" x="8" y="-19" font-family="Helvetica,sans-Serif" font-size="10.00">tinyformat::detail</text>
<text text-anchor="middle" x="51" y="-8" font-family="Helvetica,sans-Serif" font-size="10.00">::FormatListN&lt; N &gt;</text>
</a>
</g>
</g>
<!-- Node0&#45;&gt;Node1 -->
<g id="edge1" class="edge"><title>Node0&#45;&gt;Node1</title>
<path fill="none" stroke="midnightblue" d="M94.5003,-61.2376C85.3219,-51.9036 73.7893,-40.1755 64.9051,-31.1408"/>
<polygon fill="midnightblue" stroke="midnightblue" points="92.0397,-63.7272 101.547,-68.4035 97.0309,-58.8192 92.0397,-63.7272"/>
</g>
<!-- Node2 -->
<g id="node3" class="node"><title>Node2</title>
<g id="a_node3"><a xlink:href="classtinyformat_1_1detail_1_1_format_list_n_3_010_01_4.html" target="_top" xlink:title="tinyformat::detail\l::FormatListN\&lt; 0 \&gt;">
<polygon fill="white" stroke="black" points="120,-1 120,-31 220,-31 220,-1 120,-1"/>
<text text-anchor="start" x="128" y="-19" font-family="Helvetica,sans-Serif" font-size="10.00">tinyformat::detail</text>
<text text-anchor="middle" x="170" y="-8" font-family="Helvetica,sans-Serif" font-size="10.00">::FormatListN&lt; 0 &gt;</text>
</a>
</g>
</g>
<!-- Node0&#45;&gt;Node2 -->
<g id="edge2" class="edge"><title>Node0&#45;&gt;Node2</title>
<path fill="none" stroke="midnightblue" d="M125.762,-61.2376C135.096,-51.9036 146.824,-40.1755 155.859,-31.1408"/>
<polygon fill="midnightblue" stroke="midnightblue" points="123.193,-58.8575 118.597,-68.4035 128.143,-63.8073 123.193,-58.8575"/>
</g>
</g>
</svg>
