<?xml version="1.0" encoding="UTF-8" standalone="no"?>
<!DOCTYPE svg PUBLIC "-//W3C//DTD SVG 1.1//EN"
 "http://www.w3.org/Graphics/SVG/1.1/DTD/svg11.dtd">
<!-- Generated by graphviz version 2.36.0 (20140111.2315)
 -->
<!-- Title: CBase58Data Pages: 1 -->
<svg width="326pt" height="96pt"
 viewBox="0.00 0.00 326.00 96.00" xmlns="http://www.w3.org/2000/svg" xmlns:xlink="http://www.w3.org/1999/xlink">
<g id="graph0" class="graph" transform="scale(1 1) rotate(0) translate(4 92)">
<title>CBase58Data</title>
<polygon fill="white" stroke="none" points="-4,4 -4,-92 322,-92 322,4 -4,4"/>
<!-- Node0 -->
<g id="node1" class="node"><title>Node0</title>
<polygon fill="#bfbfbf" stroke="black" points="124,-68.5 124,-87.5 202,-87.5 202,-68.5 124,-68.5"/>
<text text-anchor="middle" x="163" y="-75.5" font-family="Helvetica,sans-Serif" font-size="10.00">CBase58Data</text>
</g>
<!-- Node1 -->
<g id="node2" class="node"><title>Node1</title>
<g id="a_node2"><a xlink:href="class_c_bitcoin_address.html" target="_top" xlink:title="base58&#45;encoded Dash addresses. ">
<polygon fill="white" stroke="black" points="0,-6.5 0,-25.5 90,-25.5 90,-6.5 0,-6.5"/>
<text text-anchor="middle" x="45" y="-13.5" font-family="Helvetica,sans-Serif" font-size="10.00">CBitcoinAddress</text>
</a>
</g>
</g>
<!-- Node0&#45;&gt;Node1 -->
<g id="edge1" class="edge"><title>Node0&#45;&gt;Node1</title>
<path fill="none" stroke="midnightblue" d="M136.954,-63.7561C114.084,-52.1274 81.4891,-35.5538 61.8752,-25.5806"/>
<polygon fill="midnightblue" stroke="midnightblue" points="135.593,-66.9908 146.093,-68.4035 138.766,-60.7511 135.593,-66.9908"/>
</g>
<!-- Node2 -->
<g id="node3" class="node"><title>Node2</title>
<g id="a_node3"><a xlink:href="class_c_bitcoin_ext_key_base.html" target="_top" xlink:title="CBitcoinExtKeyBase\l\&lt; K, Size, Type \&gt;">
<polygon fill="white" stroke="black" points="108.5,-1 108.5,-31 217.5,-31 217.5,-1 108.5,-1"/>
<text text-anchor="start" x="116.5" y="-19" font-family="Helvetica,sans-Serif" font-size="10.00">CBitcoinExtKeyBase</text>
<text text-anchor="middle" x="163" y="-8" font-family="Helvetica,sans-Serif" font-size="10.00">&lt; K, Size, Type &gt;</text>
</a>
</g>
</g>
<!-- Node0&#45;&gt;Node2 -->
<g id="edge2" class="edge"><title>Node0&#45;&gt;Node2</title>
<path fill="none" stroke="midnightblue" d="M163,-58.3707C163,-49.5849 163,-39.2721 163,-31.1408"/>
<polygon fill="midnightblue" stroke="midnightblue" points="159.5,-58.4034 163,-68.4035 166.5,-58.4035 159.5,-58.4034"/>
</g>
<!-- Node3 -->
<g id="node4" class="node"><title>Node3</title>
<g id="a_node4"><a xlink:href="class_c_bitcoin_secret.html" target="_top" xlink:title="A base58&#45;encoded secret key. ">
<polygon fill="white" stroke="black" points="235.5,-6.5 235.5,-25.5 318.5,-25.5 318.5,-6.5 235.5,-6.5"/>
<text text-anchor="middle" x="277" y="-13.5" font-family="Helvetica,sans-Serif" font-size="10.00">CBitcoinSecret</text>
</a>
</g>
</g>
<!-- Node0&#45;&gt;Node3 -->
<g id="edge3" class="edge"><title>Node0&#45;&gt;Node3</title>
<path fill="none" stroke="midnightblue" d="M188.46,-63.6001C210.539,-51.9796 241.832,-35.5093 260.697,-25.5806"/>
<polygon fill="midnightblue" stroke="midnightblue" points="186.552,-60.6487 179.333,-68.4035 189.813,-66.8432 186.552,-60.6487"/>
</g>
</g>
</svg>
