<?xml version="1.0" encoding="UTF-8" standalone="no"?>
<!DOCTYPE svg PUBLIC "-//W3C//DTD SVG 1.1//EN"
 "http://www.w3.org/Graphics/SVG/1.1/DTD/svg11.dtd">
<!-- Generated by graphviz version 2.36.0 (20140111.2315)
 -->
<!-- Title: CGovernanceManager Pages: 1 -->
<!--zoomable 213 -->
<svg id="main" version="1.1" xmlns="http://www.w3.org/2000/svg" xmlns:xlink="http://www.w3.org/1999/xlink" xml:space="preserve" onload="init(evt)">
<style type="text/css"><![CDATA[
.edge:hover path { stroke: red; }
.edge:hover polygon { stroke: red; fill: red; }
]]></style>
<script type="text/javascript"><![CDATA[
var edges = document.getElementsByTagName('g');
if (edges && edges.length) {
  for (var i=0;i<edges.length;i++) {
    if (edges[i].id.substr(0,4)=='edge') {
      edges[i].setAttribute('class','edge');
    }
  }
}
]]></script>
        <defs>
                <circle id="rim" cx="0" cy="0" r="7"/>
                <circle id="rim2" cx="0" cy="0" r="3.5"/>
                <g id="zoomPlus">
                        <use xlink:href="#rim" fill="#404040">
                                <set attributeName="fill" to="#808080" begin="zoomplus.mouseover" end="zoomplus.mouseout"/>
                        </use>
                        <path d="M-4,0h8M0,-4v8" fill="none" stroke="white" stroke-width="1.5" pointer-events="none"/>
                </g>
                <g id="zoomMin">
                        <use xlink:href="#rim" fill="#404040">
                                <set attributeName="fill" to="#808080" begin="zoomminus.mouseover" end="zoomminus.mouseout"/>
                        </use>
                        <path d="M-4,0h8" fill="none" stroke="white" stroke-width="1.5" pointer-events="none"/>
                </g>
                <g id="dirArrow">
                        <path fill="none" stroke="white" stroke-width="1.5" d="M0,-3.0v7 M-2.5,-0.5L0,-3.0L2.5,-0.5"/>
                </g>
               <g id="resetDef">
                       <use xlink:href="#rim2" fill="#404040">
                               <set attributeName="fill" to="#808080" begin="reset.mouseover" end="reset.mouseout"/>
                       </use>
               </g>
        </defs>

<script type="text/javascript">
var viewWidth = 1068;
var viewHeight = 213;
var sectionId = 'dynsection-0';
</script>
<script xlink:href="svgpan.js"/>
<svg id="graph" class="graph">
<g id="viewport">
<title>CGovernanceManager</title>
<polygon fill="white" stroke="none" points="-4,4 -4,-209 1064,-209 1064,4 -4,4"/>
<!-- Node1 -->
<g id="node1" class="node"><title>Node1</title>
<polygon fill="#bfbfbf" stroke="black" points="946,-87.5 946,-106.5 1060,-106.5 1060,-87.5 946,-87.5"/>
<text text-anchor="middle" x="1003" y="-94.5" font-family="Helvetica,sans-Serif" font-size="10.00">CGovernanceManager</text>
</g>
<!-- Node2 -->
<g id="node2" class="node"><title>Node2</title>
<g id="a_node2"><a xlink:href="class_cache_map.html" target="_top" xlink:title="CacheMap\&lt; uint256,\l CGovernanceObject * \&gt;">
<polygon fill="white" stroke="black" points="668,-175 668,-205 792,-205 792,-175 668,-175"/>
<text text-anchor="start" x="676" y="-193" font-family="Helvetica,sans-Serif" font-size="10.00">CacheMap&lt; uint256,</text>
<text text-anchor="middle" x="730" y="-182" font-family="Helvetica,sans-Serif" font-size="10.00"> CGovernanceObject * &gt;</text>
</a>
</g>
</g>
<!-- Node2&#45;&gt;Node1 -->
<g id="edge1" class="edge"><title>Node2&#45;&gt;Node1</title>
<path fill="none" stroke="#9a32cd" stroke-dasharray="5,2" d="M802.226,-179.945C840.517,-173.014 887.956,-161.93 928,-145 951.695,-134.982 976.16,-117.441 990.179,-106.565"/>
<polygon fill="#9a32cd" stroke="#9a32cd" points="801.437,-176.53 792.192,-181.705 802.646,-183.425 801.437,-176.53"/>
<text text-anchor="middle" x="870" y="-180" font-family="Helvetica,sans-Serif" font-size="10.00"> cmapVoteToObject</text>
</g>
<!-- Node3 -->
<g id="node3" class="node"><title>Node3</title>
<g id="a_node3"><a xlink:href="class_cache_map.html" target="_top" xlink:title="CacheMap\&lt; uint256,\l CGovernanceVote \&gt;">
<polygon fill="white" stroke="black" points="675.5,-126 675.5,-156 784.5,-156 784.5,-126 675.5,-126"/>
<text text-anchor="start" x="683.5" y="-144" font-family="Helvetica,sans-Serif" font-size="10.00">CacheMap&lt; uint256,</text>
<text text-anchor="middle" x="730" y="-133" font-family="Helvetica,sans-Serif" font-size="10.00"> CGovernanceVote &gt;</text>
</a>
</g>
</g>
<!-- Node3&#45;&gt;Node1 -->
<g id="edge2" class="edge"><title>Node3&#45;&gt;Node1</title>
<path fill="none" stroke="#9a32cd" stroke-dasharray="5,2" d="M794.706,-132.508C833.35,-127.137 883.611,-119.76 928,-112 937.426,-110.352 947.494,-108.424 957.07,-106.51"/>
<polygon fill="#9a32cd" stroke="#9a32cd" points="794.064,-129.063 784.637,-133.899 795.022,-135.997 794.064,-129.063"/>
<text text-anchor="middle" x="870" y="-133" font-family="Helvetica,sans-Serif" font-size="10.00"> cmapInvalidVotes</text>
</g>
<!-- Node4 -->
<g id="node4" class="node"><title>Node4</title>
<g id="a_node4"><a xlink:href="class_c_deterministic_m_n_list.html" target="_top" xlink:title="CDeterministicMNList">
<polygon fill="white" stroke="black" points="673.5,-87.5 673.5,-106.5 786.5,-106.5 786.5,-87.5 673.5,-87.5"/>
<text text-anchor="middle" x="730" y="-94.5" font-family="Helvetica,sans-Serif" font-size="10.00">CDeterministicMNList</text>
</a>
</g>
</g>
<!-- Node4&#45;&gt;Node1 -->
<g id="edge3" class="edge"><title>Node4&#45;&gt;Node1</title>
<path fill="none" stroke="#9a32cd" stroke-dasharray="5,2" d="M796.902,-97C842.476,-97 902.468,-97 945.784,-97"/>
<polygon fill="#9a32cd" stroke="#9a32cd" points="796.823,-93.5001 786.823,-97 796.823,-100.5 796.823,-93.5001"/>
<text text-anchor="middle" x="870" y="-100" font-family="Helvetica,sans-Serif" font-size="10.00"> lastMNListForVotingKeys</text>
</g>
<!-- Node5 -->
<g id="node5" class="node"><title>Node5</title>
<g id="a_node5"><a xlink:href="classimmer_1_1map.html" target="_top" xlink:title="immer::map\&lt; uint256,\l std::pair\&lt; uint256,\l uint32_t \&gt; \&gt;">
<polygon fill="white" stroke="black" points="405,-155.5 405,-196.5 517,-196.5 517,-155.5 405,-155.5"/>
<text text-anchor="start" x="413" y="-184.5" font-family="Helvetica,sans-Serif" font-size="10.00">immer::map&lt; uint256,</text>
<text text-anchor="start" x="413" y="-173.5" font-family="Helvetica,sans-Serif" font-size="10.00"> std::pair&lt; uint256,</text>
<text text-anchor="middle" x="461" y="-162.5" font-family="Helvetica,sans-Serif" font-size="10.00"> uint32_t &gt; &gt;</text>
</a>
</g>
</g>
<!-- Node5&#45;&gt;Node4 -->
<g id="edge4" class="edge"><title>Node5&#45;&gt;Node4</title>
<path fill="none" stroke="#9a32cd" stroke-dasharray="5,2" d="M527.238,-165.778C563.883,-158.515 609.788,-146.826 648,-129 656.943,-124.828 657.154,-120.374 666,-116 673.476,-112.304 681.811,-109.17 689.907,-106.58"/>
<polygon fill="#9a32cd" stroke="#9a32cd" points="526.324,-162.389 517.162,-167.71 527.642,-169.264 526.324,-162.389"/>
<text text-anchor="middle" x="596" y="-165" font-family="Helvetica,sans-Serif" font-size="10.00"> mnUniquePropertyMap</text>
</g>
<!-- Node6 -->
<g id="node6" class="node"><title>Node6</title>
<g id="a_node6"><a xlink:href="structimmer_1_1detail_1_1hamts_1_1champ.html" target="_top" xlink:title="immer::detail::hamts\l::champ\&lt; value_t, hash\l_key, equal_key, default\l_memory_policy, default_bits \&gt;">
<polygon fill="white" stroke="black" points="178.5,-126 178.5,-178 331.5,-178 331.5,-126 178.5,-126"/>
<text text-anchor="start" x="186.5" y="-166" font-family="Helvetica,sans-Serif" font-size="10.00">immer::detail::hamts</text>
<text text-anchor="start" x="186.5" y="-155" font-family="Helvetica,sans-Serif" font-size="10.00">::champ&lt; value_t, hash</text>
<text text-anchor="start" x="186.5" y="-144" font-family="Helvetica,sans-Serif" font-size="10.00">_key, equal_key, default</text>
<text text-anchor="middle" x="255" y="-133" font-family="Helvetica,sans-Serif" font-size="10.00">_memory_policy, default_bits &gt;</text>
</a>
</g>
</g>
<!-- Node6&#45;&gt;Node5 -->
<g id="edge5" class="edge"><title>Node6&#45;&gt;Node5</title>
<path fill="none" stroke="#9a32cd" stroke-dasharray="5,2" d="M341.729,-162.086C363.084,-164.598 385.415,-167.225 404.848,-169.512"/>
<polygon fill="#9a32cd" stroke="#9a32cd" points="342.013,-158.595 331.672,-160.903 341.195,-165.547 342.013,-158.595"/>
<text text-anchor="middle" x="364" y="-169" font-family="Helvetica,sans-Serif" font-size="10.00"> impl_</text>
</g>
<!-- Node10 -->
<g id="node10" class="node"><title>Node10</title>
<g id="a_node10"><a xlink:href="classimmer_1_1map.html" target="_top" xlink:title="immer::map\&lt; uint256,\l CDeterministicMNCPtr \&gt;">
<polygon fill="white" stroke="black" points="396,-107 396,-137 526,-137 526,-107 396,-107"/>
<text text-anchor="start" x="404" y="-125" font-family="Helvetica,sans-Serif" font-size="10.00">immer::map&lt; uint256,</text>
<text text-anchor="middle" x="461" y="-114" font-family="Helvetica,sans-Serif" font-size="10.00"> CDeterministicMNCPtr &gt;</text>
</a>
</g>
</g>
<!-- Node6&#45;&gt;Node10 -->
<g id="edge10" class="edge"><title>Node6&#45;&gt;Node10</title>
<path fill="none" stroke="#9a32cd" stroke-dasharray="5,2" d="M341.661,-139.403C359.8,-136.735 378.647,-133.964 395.826,-131.437"/>
<polygon fill="#9a32cd" stroke="#9a32cd" points="341.057,-135.954 331.672,-140.872 342.075,-142.879 341.057,-135.954"/>
<text text-anchor="middle" x="364" y="-141" font-family="Helvetica,sans-Serif" font-size="10.00"> impl_</text>
</g>
<!-- Node7 -->
<g id="node7" class="node"><title>Node7</title>
<g id="a_node7"><a xlink:href="structimmer_1_1detail_1_1hamts_1_1node.html" target="_top" xlink:title="immer::detail::hamts\l::node\&lt; T, Hash, Equal,\l MemoryPolicy, B \&gt;">
<polygon fill="white" stroke="black" points="0,-131.5 0,-172.5 122,-172.5 122,-131.5 0,-131.5"/>
<text text-anchor="start" x="8" y="-160.5" font-family="Helvetica,sans-Serif" font-size="10.00">immer::detail::hamts</text>
<text text-anchor="start" x="8" y="-149.5" font-family="Helvetica,sans-Serif" font-size="10.00">::node&lt; T, Hash, Equal,</text>
<text text-anchor="middle" x="61" y="-138.5" font-family="Helvetica,sans-Serif" font-size="10.00"> MemoryPolicy, B &gt;</text>
</a>
</g>
</g>
<!-- Node7&#45;&gt;Node6 -->
<g id="edge6" class="edge"><title>Node7&#45;&gt;Node6</title>
<path fill="none" stroke="#9a32cd" stroke-dasharray="5,2" d="M132.427,-152C147.402,-152 163.271,-152 178.429,-152"/>
<polygon fill="#9a32cd" stroke="#9a32cd" points="132.223,-148.5 122.223,-152 132.223,-155.5 132.223,-148.5"/>
<text text-anchor="middle" x="150" y="-155" font-family="Helvetica,sans-Serif" font-size="10.00"> root</text>
</g>
<!-- Node8 -->
<g id="node8" class="node"><title>Node8</title>
<g id="a_node8"><a xlink:href="classuint256.html" target="_top" xlink:title="256&#45;bit opaque blob. ">
<polygon fill="white" stroke="black" points="437,-68.5 437,-87.5 485,-87.5 485,-68.5 437,-68.5"/>
<text text-anchor="middle" x="461" y="-75.5" font-family="Helvetica,sans-Serif" font-size="10.00">uint256</text>
</a>
</g>
</g>
<!-- Node8&#45;&gt;Node4 -->
<g id="edge7" class="edge"><title>Node8&#45;&gt;Node4</title>
<path fill="none" stroke="#9a32cd" stroke-dasharray="5,2" d="M495.532,-78.5147C532.822,-79.3028 594.818,-81.2553 648,-86 656.199,-86.7314 664.84,-87.6961 673.303,-88.7507"/>
<polygon fill="#9a32cd" stroke="#9a32cd" points="495.309,-75.0098 485.243,-78.3137 495.173,-82.0084 495.309,-75.0098"/>
<text text-anchor="middle" x="596" y="-89" font-family="Helvetica,sans-Serif" font-size="10.00"> blockHash</text>
</g>
<!-- Node9 -->
<g id="node9" class="node"><title>Node9</title>
<g id="a_node9"><a xlink:href="classbase__blob.html" target="_top" xlink:title="base_blob\&lt; 256 \&gt;">
<polygon fill="white" stroke="black" points="207.5,-68.5 207.5,-87.5 302.5,-87.5 302.5,-68.5 207.5,-68.5"/>
<text text-anchor="middle" x="255" y="-75.5" font-family="Helvetica,sans-Serif" font-size="10.00">base_blob&lt; 256 &gt;</text>
</a>
</g>
</g>
<!-- Node9&#45;&gt;Node8 -->
<g id="edge8" class="edge"><title>Node9&#45;&gt;Node8</title>
<path fill="none" stroke="midnightblue" d="M312.693,-78C353.733,-78 407.052,-78 436.989,-78"/>
<polygon fill="midnightblue" stroke="midnightblue" points="312.546,-74.5001 302.546,-78 312.546,-81.5001 312.546,-74.5001"/>
</g>
<!-- Node10&#45;&gt;Node4 -->
<g id="edge9" class="edge"><title>Node10&#45;&gt;Node4</title>
<path fill="none" stroke="#9a32cd" stroke-dasharray="5,2" d="M536.517,-115.023C579.914,-110.959 633.719,-105.921 673.401,-102.206"/>
<polygon fill="#9a32cd" stroke="#9a32cd" points="535.923,-111.563 526.293,-115.98 536.576,-118.532 535.923,-111.563"/>
<text text-anchor="middle" x="596" y="-117" font-family="Helvetica,sans-Serif" font-size="10.00"> mnMap</text>
</g>
<!-- Node11 -->
<g id="node11" class="node"><title>Node11</title>
<g id="a_node11"><a xlink:href="class_c_critical_section.html" target="_top" xlink:title="Wrapped boost mutex: supports recursive locking, but no waiting TODO: We should move away from using ...">
<polygon fill="white" stroke="black" points="686,-49.5 686,-68.5 774,-68.5 774,-49.5 686,-49.5"/>
<text text-anchor="middle" x="730" y="-56.5" font-family="Helvetica,sans-Serif" font-size="10.00">CCriticalSection</text>
</a>
</g>
</g>
<!-- Node11&#45;&gt;Node1 -->
<g id="edge11" class="edge"><title>Node11&#45;&gt;Node1</title>
<path fill="none" stroke="#9a32cd" stroke-dasharray="5,2" d="M784.186,-63.9909C823.924,-68.0151 879.514,-74.2694 928,-82 937.709,-83.548 948.08,-85.4764 957.893,-87.4295"/>
<polygon fill="#9a32cd" stroke="#9a32cd" points="784.483,-60.5032 774.184,-62.9911 783.786,-67.4685 784.483,-60.5032"/>
<text text-anchor="middle" x="870" y="-85" font-family="Helvetica,sans-Serif" font-size="10.00"> cs</text>
</g>
<!-- Node12 -->
<g id="node12" class="node"><title>Node12</title>
<polygon fill="white" stroke="#bfbfbf" points="402.5,-19 402.5,-49 519.5,-49 519.5,-19 402.5,-19"/>
<text text-anchor="start" x="410.5" y="-37" font-family="Helvetica,sans-Serif" font-size="10.00">AnnotatedMixin&lt; boost</text>
<text text-anchor="middle" x="461" y="-26" font-family="Helvetica,sans-Serif" font-size="10.00">::recursive_mutex &gt;</text>
</g>
<!-- Node12&#45;&gt;Node11 -->
<g id="edge12" class="edge"><title>Node12&#45;&gt;Node11</title>
<path fill="none" stroke="midnightblue" d="M529.83,-40.3511C578.927,-44.9483 643.806,-51.0231 685.962,-54.9702"/>
<polygon fill="midnightblue" stroke="midnightblue" points="529.889,-36.8414 519.606,-39.3938 529.236,-43.8109 529.889,-36.8414"/>
</g>
<!-- Node13 -->
<g id="node13" class="node"><title>Node13</title>
<polygon fill="white" stroke="#bfbfbf" points="195.5,-24.5 195.5,-43.5 314.5,-43.5 314.5,-24.5 195.5,-24.5"/>
<text text-anchor="middle" x="255" y="-31.5" font-family="Helvetica,sans-Serif" font-size="10.00">boost::recursive_mutex</text>
</g>
<!-- Node13&#45;&gt;Node12 -->
<g id="edge13" class="edge"><title>Node13&#45;&gt;Node12</title>
<path fill="none" stroke="midnightblue" d="M324.946,-34C350.119,-34 378.303,-34 402.386,-34"/>
<polygon fill="midnightblue" stroke="midnightblue" points="324.732,-30.5001 314.732,-34 324.732,-37.5001 324.732,-30.5001"/>
</g>
<!-- Node14 -->
<g id="node14" class="node"><title>Node14</title>
<g id="a_node14"><a xlink:href="class_cache_multi_map.html" target="_top" xlink:title="CacheMultiMap\&lt; uint256,\l vote_time_pair_t \&gt;">
<polygon fill="white" stroke="black" points="666,-0 666,-30 794,-30 794,-0 666,-0"/>
<text text-anchor="start" x="674" y="-18" font-family="Helvetica,sans-Serif" font-size="10.00">CacheMultiMap&lt; uint256,</text>
<text text-anchor="middle" x="730" y="-7" font-family="Helvetica,sans-Serif" font-size="10.00"> vote_time_pair_t &gt;</text>
</a>
</g>
</g>
<!-- Node14&#45;&gt;Node1 -->
<g id="edge14" class="edge"><title>Node14&#45;&gt;Node1</title>
<path fill="none" stroke="#9a32cd" stroke-dasharray="5,2" d="M804.118,-22.9675C841.961,-28.6094 888.402,-37.937 928,-53 950.911,-61.7153 974.837,-77.3217 989.075,-87.4133"/>
<polygon fill="#9a32cd" stroke="#9a32cd" points="804.586,-19.4988 794.19,-21.5418 803.591,-26.4277 804.586,-19.4988"/>
<text text-anchor="middle" x="870" y="-56" font-family="Helvetica,sans-Serif" font-size="10.00"> cmmapOrphanVotes</text>
</g>
</g>
</svg>
        <g id="navigator" transform="translate(0 0)" fill="#404254">
                <rect fill="#f2f5e9" fill-opacity="0.5" stroke="#606060" stroke-width=".5" x="0" y="0" width="60" height="60"/>
                <use id="zoomplus" xlink:href="#zoomPlus" x="17" y="9" onmousedown="handleZoom(evt,'in')"/>
                <use id="zoomminus" xlink:href="#zoomMin" x="42" y="9" onmousedown="handleZoom(evt,'out')"/>
                <use id="reset" xlink:href="#resetDef" x="30" y="36" onmousedown="handleReset()"/>
                <g id="arrowUp" xlink:href="#dirArrow" transform="translate(30 24)" onmousedown="handlePan(0,-1)">
                  <use xlink:href="#rim" fill="#404040">
                        <set attributeName="fill" to="#808080" begin="arrowUp.mouseover" end="arrowUp.mouseout"/>
                  </use>
                  <path fill="none" stroke="white" stroke-width="1.5" d="M0,-3.0v7 M-2.5,-0.5L0,-3.0L2.5,-0.5"/>
                </g>
                <g id="arrowRight" xlink:href="#dirArrow" transform="rotate(90) translate(36 -43)" onmousedown="handlePan(1,0)">
                  <use xlink:href="#rim" fill="#404040">
                        <set attributeName="fill" to="#808080" begin="arrowRight.mouseover" end="arrowRight.mouseout"/>
                  </use>
                  <path fill="none" stroke="white" stroke-width="1.5" d="M0,-3.0v7 M-2.5,-0.5L0,-3.0L2.5,-0.5"/>
                </g>
                <g id="arrowDown" xlink:href="#dirArrow" transform="rotate(180) translate(-30 -48)" onmousedown="handlePan(0,1)">
                  <use xlink:href="#rim" fill="#404040">
                        <set attributeName="fill" to="#808080" begin="arrowDown.mouseover" end="arrowDown.mouseout"/>
                  </use>
                  <path fill="none" stroke="white" stroke-width="1.5" d="M0,-3.0v7 M-2.5,-0.5L0,-3.0L2.5,-0.5"/>
                </g>
                <g id="arrowLeft" xlink:href="#dirArrow" transform="rotate(270) translate(-36 17)" onmousedown="handlePan(-1,0)">
                  <use xlink:href="#rim" fill="#404040">
                        <set attributeName="fill" to="#808080" begin="arrowLeft.mouseover" end="arrowLeft.mouseout"/>
                  </use>
                  <path fill="none" stroke="white" stroke-width="1.5" d="M0,-3.0v7 M-2.5,-0.5L0,-3.0L2.5,-0.5"/>
                </g>
        </g>
        <svg viewBox="0 0 15 15" width="100%" height="30px" preserveAspectRatio="xMaxYMin meet">
         <g id="arrow_out" transform="scale(0.3 0.3)">
          <a xlink:href="class_c_governance_manager__coll__graph_org.svg" target="_base">
           <rect id="button" ry="5" rx="5" y="6" x="6" height="38" width="38"
                fill="#f2f5e9" fill-opacity="0.5" stroke="#606060" stroke-width="1.0"/>
           <path id="arrow"
             d="M 11.500037,31.436501 C 11.940474,20.09759 22.043105,11.32322 32.158766,21.979434 L 37.068811,17.246167 C 37.068811,17.246167 37.088388,32 37.088388,32 L 22.160133,31.978069 C 22.160133,31.978069 26.997745,27.140456 26.997745,27.140456 C 18.528582,18.264221 13.291696,25.230495 11.500037,31.436501 z"
             style="fill:#404040;"/>
          </a>
         </g>
        </svg>
</svg>
