<?xml version="1.0" encoding="UTF-8" standalone="no"?>
<!DOCTYPE svg PUBLIC "-//W3C//DTD SVG 1.1//EN"
 "http://www.w3.org/Graphics/SVG/1.1/DTD/svg11.dtd">
<!-- Generated by graphviz version 2.36.0 (20140111.2315)
 -->
<!-- Title: CBLSIESEncryptedBlob Pages: 1 -->
<svg width="164pt" height="302pt"
 viewBox="0.00 0.00 164.00 302.00" xmlns="http://www.w3.org/2000/svg" xmlns:xlink="http://www.w3.org/1999/xlink">
<g id="graph0" class="graph" transform="scale(1 1) rotate(0) translate(4 298)">
<title>CBLSIESEncryptedBlob</title>
<polygon fill="white" stroke="none" points="-4,4 -4,-298 160,-298 160,4 -4,4"/>
<!-- Node2 -->
<g id="node1" class="node"><title>Node2</title>
<polygon fill="#bfbfbf" stroke="black" points="11.5,-0.5 11.5,-19.5 134.5,-19.5 134.5,-0.5 11.5,-0.5"/>
<text text-anchor="middle" x="73" y="-7.5" font-family="Helvetica,sans-Serif" font-size="10.00">CBLSIESEncryptedBlob</text>
</g>
<!-- Node3 -->
<g id="node2" class="node"><title>Node3</title>
<g id="a_node2"><a xlink:href="class_c_b_l_s_public_key.html" target="_top" xlink:title="CBLSPublicKey">
<polygon fill="white" stroke="black" points="29.5,-68.5 29.5,-87.5 116.5,-87.5 116.5,-68.5 29.5,-68.5"/>
<text text-anchor="middle" x="73" y="-75.5" font-family="Helvetica,sans-Serif" font-size="10.00">CBLSPublicKey</text>
</a>
</g>
</g>
<!-- Node3&#45;&gt;Node2 -->
<g id="edge1" class="edge"><title>Node3&#45;&gt;Node2</title>
<path fill="none" stroke="#9a32cd" stroke-dasharray="5,2" d="M73,-58.0413C73,-45.4724 73,-29.5631 73,-19.8411"/>
<polygon fill="#9a32cd" stroke="#9a32cd" points="69.5001,-58.3716 73,-68.3717 76.5001,-58.3717 69.5001,-58.3716"/>
<text text-anchor="middle" x="114.5" y="-41.5" font-family="Helvetica,sans-Serif" font-size="10.00"> ephemeralPubKey</text>
</g>
<!-- Node4 -->
<g id="node3" class="node"><title>Node4</title>
<g id="a_node3"><a xlink:href="class_c_b_l_s_wrapper.html" target="_top" xlink:title="CBLSWrapper\&lt; bls::Public\lKey, BLS_CURVE_PUBKEY\l_SIZE, CBLSPublicKey \&gt;">
<polygon fill="white" stroke="black" points="0,-126.5 0,-167.5 146,-167.5 146,-126.5 0,-126.5"/>
<text text-anchor="start" x="8" y="-155.5" font-family="Helvetica,sans-Serif" font-size="10.00">CBLSWrapper&lt; bls::Public</text>
<text text-anchor="start" x="8" y="-144.5" font-family="Helvetica,sans-Serif" font-size="10.00">Key, BLS_CURVE_PUBKEY</text>
<text text-anchor="middle" x="73" y="-133.5" font-family="Helvetica,sans-Serif" font-size="10.00">_SIZE, CBLSPublicKey &gt;</text>
</a>
</g>
</g>
<!-- Node4&#45;&gt;Node3 -->
<g id="edge2" class="edge"><title>Node4&#45;&gt;Node3</title>
<path fill="none" stroke="midnightblue" d="M73,-116.189C73,-105.808 73,-94.9496 73,-87.6647"/>
<polygon fill="midnightblue" stroke="midnightblue" points="69.5001,-116.26 73,-126.26 76.5001,-116.26 69.5001,-116.26"/>
</g>
<!-- Node5 -->
<g id="node4" class="node"><title>Node5</title>
<g id="a_node4"><a xlink:href="classuint256.html" target="_top" xlink:title="256&#45;bit opaque blob. ">
<polygon fill="white" stroke="black" points="49,-216.5 49,-235.5 97,-235.5 97,-216.5 49,-216.5"/>
<text text-anchor="middle" x="73" y="-223.5" font-family="Helvetica,sans-Serif" font-size="10.00">uint256</text>
</a>
</g>
</g>
<!-- Node5&#45;&gt;Node4 -->
<g id="edge3" class="edge"><title>Node5&#45;&gt;Node4</title>
<path fill="none" stroke="#9a32cd" stroke-dasharray="5,2" d="M73,-206.149C73,-194.503 73,-179.581 73,-167.768"/>
<polygon fill="#9a32cd" stroke="#9a32cd" points="69.5001,-206.465 73,-216.465 76.5001,-206.465 69.5001,-206.465"/>
<text text-anchor="middle" x="102" y="-189.5" font-family="Helvetica,sans-Serif" font-size="10.00"> cachedHash</text>
</g>
<!-- Node6 -->
<g id="node5" class="node"><title>Node6</title>
<g id="a_node5"><a xlink:href="classbase__blob.html" target="_top" xlink:title="base_blob\&lt; 256 \&gt;">
<polygon fill="white" stroke="black" points="25.5,-274.5 25.5,-293.5 120.5,-293.5 120.5,-274.5 25.5,-274.5"/>
<text text-anchor="middle" x="73" y="-281.5" font-family="Helvetica,sans-Serif" font-size="10.00">base_blob&lt; 256 &gt;</text>
</a>
</g>
</g>
<!-- Node6&#45;&gt;Node5 -->
<g id="edge4" class="edge"><title>Node6&#45;&gt;Node5</title>
<path fill="none" stroke="midnightblue" d="M73,-263.953C73,-254.287 73,-243.031 73,-235.505"/>
<polygon fill="midnightblue" stroke="midnightblue" points="69.5001,-264.25 73,-274.25 76.5001,-264.25 69.5001,-264.25"/>
</g>
</g>
</svg>
