<?xml version="1.0" encoding="UTF-8" standalone="no"?>
<!DOCTYPE svg PUBLIC "-//W3C//DTD SVG 1.1//EN"
 "http://www.w3.org/Graphics/SVG/1.1/DTD/svg11.dtd">
<!-- Generated by graphviz version 2.36.0 (20140111.2315)
 -->
<!-- Title: proxyType Pages: 1 -->
<svg width="68pt" height="154pt"
 viewBox="0.00 0.00 68.00 154.00" xmlns="http://www.w3.org/2000/svg" xmlns:xlink="http://www.w3.org/1999/xlink">
<g id="graph0" class="graph" transform="scale(1 1) rotate(0) translate(4 150)">
<title>proxyType</title>
<polygon fill="white" stroke="none" points="-4,4 -4,-150 64,-150 64,4 -4,4"/>
<!-- Node1 -->
<g id="node1" class="node"><title>Node1</title>
<polygon fill="#bfbfbf" stroke="black" points="-1,-0.5 -1,-19.5 61,-19.5 61,-0.5 -1,-0.5"/>
<text text-anchor="middle" x="30" y="-7.5" font-family="Helvetica,sans-Serif" font-size="10.00">proxyType</text>
</g>
<!-- Node2 -->
<g id="node2" class="node"><title>Node2</title>
<g id="a_node2"><a xlink:href="class_c_service.html" target="_top" xlink:title="A combination of a network address (CNetAddr) and a (TCP) port. ">
<polygon fill="white" stroke="black" points="1.5,-68.5 1.5,-87.5 58.5,-87.5 58.5,-68.5 1.5,-68.5"/>
<text text-anchor="middle" x="30" y="-75.5" font-family="Helvetica,sans-Serif" font-size="10.00">CService</text>
</a>
</g>
</g>
<!-- Node2&#45;&gt;Node1 -->
<g id="edge1" class="edge"><title>Node2&#45;&gt;Node1</title>
<path fill="none" stroke="#9a32cd" stroke-dasharray="5,2" d="M30,-58.0413C30,-45.4724 30,-29.5631 30,-19.8411"/>
<polygon fill="#9a32cd" stroke="#9a32cd" points="26.5001,-58.3716 30,-68.3717 33.5001,-58.3717 26.5001,-58.3716"/>
<text text-anchor="middle" x="44" y="-41.5" font-family="Helvetica,sans-Serif" font-size="10.00"> proxy</text>
</g>
<!-- Node3 -->
<g id="node3" class="node"><title>Node3</title>
<g id="a_node3"><a xlink:href="class_c_net_addr.html" target="_top" xlink:title="IP address (IPv6, or IPv4 using mapped IPv6 range (::FFFF:0:0/96)) ">
<polygon fill="white" stroke="black" points="0,-126.5 0,-145.5 60,-145.5 60,-126.5 0,-126.5"/>
<text text-anchor="middle" x="30" y="-133.5" font-family="Helvetica,sans-Serif" font-size="10.00">CNetAddr</text>
</a>
</g>
</g>
<!-- Node3&#45;&gt;Node2 -->
<g id="edge2" class="edge"><title>Node3&#45;&gt;Node2</title>
<path fill="none" stroke="midnightblue" d="M30,-115.953C30,-106.287 30,-95.0312 30,-87.5052"/>
<polygon fill="midnightblue" stroke="midnightblue" points="26.5001,-116.25 30,-126.25 33.5001,-116.25 26.5001,-116.25"/>
</g>
</g>
</svg>
