<?xml version="1.0" encoding="UTF-8" standalone="no"?>
<!DOCTYPE svg PUBLIC "-//W3C//DTD SVG 1.1//EN"
 "http://www.w3.org/Graphics/SVG/1.1/DTD/svg11.dtd">
<!-- Generated by graphviz version 2.36.0 (20140111.2315)
 -->
<!-- Title: CScript Pages: 1 -->
<svg width="132pt" height="166pt"
 viewBox="0.00 0.00 132.00 166.00" xmlns="http://www.w3.org/2000/svg" xmlns:xlink="http://www.w3.org/1999/xlink">
<g id="graph0" class="graph" transform="scale(1 1) rotate(0) translate(4 162)">
<title>CScript</title>
<polygon fill="white" stroke="none" points="-4,4 -4,-162 128,-162 128,4 -4,4"/>
<!-- Node2 -->
<g id="node1" class="node"><title>Node2</title>
<polygon fill="#bfbfbf" stroke="black" points="37,-0.5 37,-19.5 87,-19.5 87,-0.5 37,-0.5"/>
<text text-anchor="middle" x="62" y="-7.5" font-family="Helvetica,sans-Serif" font-size="10.00">CScript</text>
</g>
<!-- Node3 -->
<g id="node2" class="node"><title>Node3</title>
<g id="a_node2"><a xlink:href="classprevector.html" target="_top" xlink:title="Implements a drop&#45;in replacement for std::vector&lt;T&gt; which stores up to N elements directly (without h...">
<polygon fill="white" stroke="black" points="26,-58.5 26,-77.5 98,-77.5 98,-58.5 26,-58.5"/>
<text text-anchor="middle" x="62" y="-65.5" font-family="Helvetica,sans-Serif" font-size="10.00">CScriptBase</text>
</a>
</g>
</g>
<!-- Node3&#45;&gt;Node2 -->
<g id="edge1" class="edge"><title>Node3&#45;&gt;Node2</title>
<path fill="none" stroke="midnightblue" d="M62,-47.953C62,-38.2875 62,-27.0312 62,-19.5052"/>
<polygon fill="midnightblue" stroke="midnightblue" points="58.5001,-48.25 62,-58.25 65.5001,-48.25 58.5001,-48.25"/>
</g>
<!-- Node4 -->
<g id="node3" class="node"><title>Node4</title>
<g id="a_node3"><a xlink:href="unionprevector_1_1direct__or__indirect.html" target="_top" xlink:title="prevector\&lt; N, T, Size,\l Diff \&gt;::direct_or_indirect">
<polygon fill="white" stroke="black" points="-0.5,-127 -0.5,-157 124.5,-157 124.5,-127 -0.5,-127"/>
<text text-anchor="start" x="7.5" y="-145" font-family="Helvetica,sans-Serif" font-size="10.00">prevector&lt; N, T, Size,</text>
<text text-anchor="middle" x="62" y="-134" font-family="Helvetica,sans-Serif" font-size="10.00"> Diff &gt;::direct_or_indirect</text>
</a>
</g>
</g>
<!-- Node4&#45;&gt;Node3 -->
<g id="edge2" class="edge"><title>Node4&#45;&gt;Node3</title>
<path fill="none" stroke="#9a32cd" stroke-dasharray="5,2" d="M62,-116.688C62,-103.253 62,-87.3805 62,-77.7589"/>
<polygon fill="#9a32cd" stroke="#9a32cd" points="58.5001,-116.775 62,-126.775 65.5001,-116.775 58.5001,-116.775"/>
<text text-anchor="middle" x="78" y="-99.5" font-family="Helvetica,sans-Serif" font-size="10.00"> _union</text>
</g>
</g>
</svg>
