<?xml version="1.0" encoding="UTF-8" standalone="no"?>
<!DOCTYPE svg PUBLIC "-//W3C//DTD SVG 1.1//EN"
 "http://www.w3.org/Graphics/SVG/1.1/DTD/svg11.dtd">
<!-- Generated by graphviz version 2.36.0 (20140111.2315)
 -->
<!-- Title: TransactionView Pages: 1 -->
<svg width="1856pt" height="588pt"
 viewBox="0.00 0.00 1856.00 588.00" xmlns="http://www.w3.org/2000/svg" xmlns:xlink="http://www.w3.org/1999/xlink">
<g id="graph0" class="graph" transform="scale(1 1) rotate(0) translate(4 584)">
<title>TransactionView</title>
<polygon fill="white" stroke="none" points="-4,4 -4,-584 1852,-584 1852,4 -4,4"/>
<!-- Node2 -->
<g id="node1" class="node"><title>Node2</title>
<polygon fill="#bfbfbf" stroke="black" points="1555.5,-499.5 1555.5,-518.5 1644.5,-518.5 1644.5,-499.5 1555.5,-499.5"/>
<text text-anchor="middle" x="1600" y="-506.5" font-family="Helvetica,sans-Serif" font-size="10.00">TransactionView</text>
</g>
<!-- Node3 -->
<g id="node2" class="node"><title>Node3</title>
<polygon fill="white" stroke="#bfbfbf" points="1265.5,-472.5 1265.5,-491.5 1320.5,-491.5 1320.5,-472.5 1265.5,-472.5"/>
<text text-anchor="middle" x="1293" y="-479.5" font-family="Helvetica,sans-Serif" font-size="10.00">QWidget</text>
</g>
<!-- Node3&#45;&gt;Node2 -->
<g id="edge1" class="edge"><title>Node3&#45;&gt;Node2</title>
<path fill="none" stroke="midnightblue" d="M1330.78,-485.256C1387.23,-490.253 1495.02,-499.795 1555.34,-505.135"/>
<polygon fill="midnightblue" stroke="midnightblue" points="1330.8,-481.744 1320.53,-484.349 1330.19,-488.717 1330.8,-481.744"/>
</g>
<!-- Node4 -->
<g id="node3" class="node"><title>Node4</title>
<g id="a_node3"><a xlink:href="class_g_u_i_util_1_1_table_view_last_column_resizing_fixer.html" target="_top" xlink:title="Makes a QTableView last column feel as if it was being resized from its left border. ">
<polygon fill="white" stroke="black" points="1216,-511 1216,-541 1370,-541 1370,-511 1216,-511"/>
<text text-anchor="start" x="1224" y="-529" font-family="Helvetica,sans-Serif" font-size="10.00">GUIUtil::TableViewLastColumn</text>
<text text-anchor="middle" x="1293" y="-518" font-family="Helvetica,sans-Serif" font-size="10.00">ResizingFixer</text>
</a>
</g>
</g>
<!-- Node4&#45;&gt;Node2 -->
<g id="edge2" class="edge"><title>Node4&#45;&gt;Node2</title>
<path fill="none" stroke="#9a32cd" stroke-dasharray="5,2" d="M1380.29,-521.191C1437.38,-518.008 1509.84,-513.97 1555.33,-511.434"/>
<polygon fill="#9a32cd" stroke="#9a32cd" points="1379.97,-517.703 1370.18,-521.754 1380.36,-524.692 1379.97,-517.703"/>
<text text-anchor="middle" x="1450" y="-524" font-family="Helvetica,sans-Serif" font-size="10.00"> columnResizingFixer</text>
</g>
<!-- Node5 -->
<g id="node4" class="node"><title>Node5</title>
<polygon fill="white" stroke="#bfbfbf" points="1033.5,-424.5 1033.5,-443.5 1086.5,-443.5 1086.5,-424.5 1033.5,-424.5"/>
<text text-anchor="middle" x="1060" y="-431.5" font-family="Helvetica,sans-Serif" font-size="10.00">QObject</text>
</g>
<!-- Node5&#45;&gt;Node4 -->
<g id="edge3" class="edge"><title>Node5&#45;&gt;Node4</title>
<path fill="none" stroke="midnightblue" d="M1091.19,-448.011C1122.18,-462.17 1171.98,-484.285 1216,-501 1224.96,-504.402 1234.61,-507.787 1243.93,-510.916"/>
<polygon fill="midnightblue" stroke="midnightblue" points="1092.36,-444.7 1081.81,-443.71 1089.44,-451.062 1092.36,-444.7"/>
</g>
<!-- Node8 -->
<g id="node7" class="node"><title>Node8</title>
<g id="a_node7"><a xlink:href="class_wallet_model.html" target="_top" xlink:title="Interface to Bitcoin wallet from Qt view code. ">
<polygon fill="white" stroke="black" points="1257.5,-355.5 1257.5,-374.5 1328.5,-374.5 1328.5,-355.5 1257.5,-355.5"/>
<text text-anchor="middle" x="1293" y="-362.5" font-family="Helvetica,sans-Serif" font-size="10.00">WalletModel</text>
</a>
</g>
</g>
<!-- Node5&#45;&gt;Node8 -->
<g id="edge7" class="edge"><title>Node5&#45;&gt;Node8</title>
<path fill="none" stroke="midnightblue" d="M1096.43,-423.417C1141.05,-410.088 1217.07,-387.381 1260.01,-374.556"/>
<polygon fill="midnightblue" stroke="midnightblue" points="1095.18,-420.136 1086.6,-426.352 1097.19,-426.844 1095.18,-420.136"/>
</g>
<!-- Node6 -->
<g id="node5" class="node"><title>Node6</title>
<g id="a_node5"><a xlink:href="class_transaction_filter_proxy.html" target="_top" xlink:title="Filter the transaction list according to pre&#45;specified rules. ">
<polygon fill="white" stroke="black" points="1235.5,-560.5 1235.5,-579.5 1350.5,-579.5 1350.5,-560.5 1235.5,-560.5"/>
<text text-anchor="middle" x="1293" y="-567.5" font-family="Helvetica,sans-Serif" font-size="10.00">TransactionFilterProxy</text>
</a>
</g>
</g>
<!-- Node6&#45;&gt;Node2 -->
<g id="edge4" class="edge"><title>Node6&#45;&gt;Node2</title>
<path fill="none" stroke="#9a32cd" stroke-dasharray="5,2" d="M1361.04,-562.123C1404.41,-556.396 1461.91,-547.613 1512,-536 1532.34,-531.285 1554.83,-524.254 1571.85,-518.549"/>
<polygon fill="#9a32cd" stroke="#9a32cd" points="1360.36,-558.682 1350.9,-563.442 1361.26,-565.624 1360.36,-558.682"/>
<text text-anchor="middle" x="1450" y="-562" font-family="Helvetica,sans-Serif" font-size="10.00"> transactionProxyModel</text>
</g>
<!-- Node7 -->
<g id="node6" class="node"><title>Node7</title>
<polygon fill="white" stroke="#bfbfbf" points="1002,-560.5 1002,-579.5 1118,-579.5 1118,-560.5 1002,-560.5"/>
<text text-anchor="middle" x="1060" y="-567.5" font-family="Helvetica,sans-Serif" font-size="10.00">QSortFilterProxyModel</text>
</g>
<!-- Node7&#45;&gt;Node6 -->
<g id="edge5" class="edge"><title>Node7&#45;&gt;Node6</title>
<path fill="none" stroke="midnightblue" d="M1128.38,-570C1162.26,-570 1202.87,-570 1235.16,-570"/>
<polygon fill="midnightblue" stroke="midnightblue" points="1128.1,-566.5 1118.1,-570 1128.1,-573.5 1128.1,-566.5"/>
</g>
<!-- Node8&#45;&gt;Node2 -->
<g id="edge6" class="edge"><title>Node8&#45;&gt;Node2</title>
<path fill="none" stroke="#9a32cd" stroke-dasharray="5,2" d="M1314.52,-380.721C1333.03,-394.412 1361.35,-414.178 1388,-428 1392.35,-430.258 1518.69,-478.427 1573.75,-499.392"/>
<polygon fill="#9a32cd" stroke="#9a32cd" points="1316.61,-377.916 1306.51,-374.721 1312.42,-383.518 1316.61,-377.916"/>
<text text-anchor="middle" x="1450" y="-478" font-family="Helvetica,sans-Serif" font-size="10.00"> model</text>
</g>
<!-- Node9 -->
<g id="node8" class="node"><title>Node9</title>
<g id="a_node8"><a xlink:href="class_transaction_table_model.html" target="_top" xlink:title="UI model for the transaction table of a wallet. ">
<polygon fill="white" stroke="black" points="1541,-99.5 1541,-118.5 1659,-118.5 1659,-99.5 1541,-99.5"/>
<text text-anchor="middle" x="1600" y="-106.5" font-family="Helvetica,sans-Serif" font-size="10.00">TransactionTableModel</text>
</a>
</g>
</g>
<!-- Node8&#45;&gt;Node9 -->
<g id="edge31" class="edge"><title>Node8&#45;&gt;Node9</title>
<path fill="none" stroke="#9a32cd" stroke-dasharray="5,2" d="M1312.47,-348.29C1330.28,-331.029 1356.47,-302.394 1370,-272 1391.4,-223.937 1351.37,-192.77 1388,-155 1427.02,-114.761 1457.31,-144.283 1512,-132 1529.68,-128.029 1549.2,-122.934 1565.27,-118.549"/>
<polygon fill="#9a32cd" stroke="#9a32cd" points="1309.82,-345.977 1304.95,-355.386 1314.62,-351.067 1309.82,-345.977"/>
<text text-anchor="middle" x="1450" y="-158" font-family="Helvetica,sans-Serif" font-size="10.00"> walletModel</text>
</g>
<!-- Node28 -->
<g id="node27" class="node"><title>Node28</title>
<g id="a_node27"><a xlink:href="class_address_table_model.html" target="_top" xlink:title="Qt model of the address book in the core. ">
<polygon fill="white" stroke="black" points="1548.5,-237.5 1548.5,-256.5 1651.5,-256.5 1651.5,-237.5 1548.5,-237.5"/>
<text text-anchor="middle" x="1600" y="-244.5" font-family="Helvetica,sans-Serif" font-size="10.00">AddressTableModel</text>
</a>
</g>
</g>
<!-- Node8&#45;&gt;Node28 -->
<g id="edge38" class="edge"><title>Node8&#45;&gt;Node28</title>
<path fill="none" stroke="#9a32cd" stroke-dasharray="5,2" d="M1314.06,-349.175C1332.3,-335.602 1360.5,-316.605 1388,-306 1440.22,-285.861 1458.35,-299.944 1512,-284 1536.23,-276.8 1562.79,-264.873 1580.11,-256.512"/>
<polygon fill="#9a32cd" stroke="#9a32cd" points="1311.79,-346.503 1305.95,-355.343 1316.03,-352.075 1311.79,-346.503"/>
<text text-anchor="middle" x="1450" y="-309" font-family="Helvetica,sans-Serif" font-size="10.00"> walletModel</text>
</g>
<!-- Node30 -->
<g id="node29" class="node"><title>Node30</title>
<g id="a_node29"><a xlink:href="class_recent_requests_table_model.html" target="_top" xlink:title="Model for list of recently generated payment requests / dash: URIs. ">
<polygon fill="white" stroke="black" points="1530,-389.5 1530,-408.5 1670,-408.5 1670,-389.5 1530,-389.5"/>
<text text-anchor="middle" x="1600" y="-396.5" font-family="Helvetica,sans-Serif" font-size="10.00">RecentRequestsTableModel</text>
</a>
</g>
</g>
<!-- Node8&#45;&gt;Node30 -->
<g id="edge42" class="edge"><title>Node8&#45;&gt;Node30</title>
<path fill="none" stroke="#9a32cd" stroke-dasharray="5,2" d="M1319.56,-379.209C1337.97,-388.597 1363.73,-400.051 1388,-405 1435.94,-414.775 1491.26,-412.724 1533.22,-408.522"/>
<polygon fill="#9a32cd" stroke="#9a32cd" points="1321.13,-376.082 1310.65,-374.533 1317.88,-382.28 1321.13,-376.082"/>
<text text-anchor="middle" x="1450" y="-416" font-family="Helvetica,sans-Serif" font-size="10.00"> walletModel</text>
</g>
<!-- Node9&#45;&gt;Node8 -->
<g id="edge8" class="edge"><title>Node9&#45;&gt;Node8</title>
<path fill="none" stroke="#9a32cd" stroke-dasharray="5,2" d="M1585.45,-126.808C1569.46,-147.011 1541.32,-180.115 1512,-203 1462.46,-241.677 1438.28,-233.288 1388,-271 1352.55,-297.587 1317.4,-337.169 1302.04,-355.298"/>
<polygon fill="#9a32cd" stroke="#9a32cd" points="1588.33,-128.802 1591.72,-118.762 1582.81,-124.502 1588.33,-128.802"/>
<text text-anchor="middle" x="1450" y="-274" font-family="Helvetica,sans-Serif" font-size="10.00"> transactionTableModel</text>
</g>
<!-- Node11 -->
<g id="node10" class="node"><title>Node11</title>
<g id="a_node10"><a xlink:href="class_transaction_table_priv.html" target="_top" xlink:title="TransactionTablePriv">
<polygon fill="white" stroke="black" points="1738.5,-65.5 1738.5,-84.5 1847.5,-84.5 1847.5,-65.5 1738.5,-65.5"/>
<text text-anchor="middle" x="1793" y="-72.5" font-family="Helvetica,sans-Serif" font-size="10.00">TransactionTablePriv</text>
</a>
</g>
</g>
<!-- Node9&#45;&gt;Node11 -->
<g id="edge11" class="edge"><title>Node9&#45;&gt;Node11</title>
<path fill="none" stroke="#9a32cd" stroke-dasharray="5,2" d="M1664.54,-97.69C1688.53,-93.4183 1715.57,-88.6047 1738.55,-84.5138"/>
<polygon fill="#9a32cd" stroke="#9a32cd" points="1663.69,-94.2854 1654.46,-99.4839 1664.92,-101.177 1663.69,-94.2854"/>
<text text-anchor="middle" x="1704" y="-97" font-family="Helvetica,sans-Serif" font-size="10.00"> parent</text>
</g>
<!-- Node10 -->
<g id="node9" class="node"><title>Node10</title>
<polygon fill="white" stroke="#bfbfbf" points="1237.5,-243.5 1237.5,-262.5 1348.5,-262.5 1348.5,-243.5 1237.5,-243.5"/>
<text text-anchor="middle" x="1293" y="-250.5" font-family="Helvetica,sans-Serif" font-size="10.00">QAbstractTableModel</text>
</g>
<!-- Node10&#45;&gt;Node9 -->
<g id="edge9" class="edge"><title>Node10&#45;&gt;Node9</title>
<path fill="none" stroke="midnightblue" d="M1357.73,-239.06C1362.29,-236.287 1366.47,-232.969 1370,-229 1398.27,-197.219 1356.94,-164.06 1388,-135 1409.5,-114.891 1486.11,-109.747 1540.82,-108.726"/>
<polygon fill="midnightblue" stroke="midnightblue" points="1355.88,-236.075 1348.58,-243.75 1359.07,-242.305 1355.88,-236.075"/>
</g>
<!-- Node10&#45;&gt;Node28 -->
<g id="edge34" class="edge"><title>Node10&#45;&gt;Node28</title>
<path fill="none" stroke="midnightblue" d="M1358.81,-251.725C1415.45,-250.611 1496.54,-249.016 1548.49,-247.994"/>
<polygon fill="midnightblue" stroke="midnightblue" points="1358.46,-248.231 1348.53,-251.927 1358.59,-255.23 1358.46,-248.231"/>
</g>
<!-- Node10&#45;&gt;Node30 -->
<g id="edge41" class="edge"><title>Node10&#45;&gt;Node30</title>
<path fill="none" stroke="midnightblue" d="M1312.71,-269.197C1330.8,-284.034 1359.58,-305.529 1388,-318 1439.74,-340.704 1459.63,-324.801 1512,-346 1540.2,-357.414 1569.78,-377.415 1586.15,-389.313"/>
<polygon fill="midnightblue" stroke="midnightblue" points="1314.65,-266.255 1304.73,-262.516 1310.15,-271.621 1314.65,-266.255"/>
</g>
<!-- Node11&#45;&gt;Node9 -->
<g id="edge10" class="edge"><title>Node11&#45;&gt;Node9</title>
<path fill="none" stroke="#9a32cd" stroke-dasharray="5,2" d="M1728.36,-72.0653C1714.94,-72.4349 1700.94,-73.5643 1688,-76 1663.71,-80.5726 1637.38,-91.4669 1620.12,-99.4932"/>
<polygon fill="#9a32cd" stroke="#9a32cd" points="1728.52,-75.5634 1738.47,-71.9218 1728.42,-68.5641 1728.52,-75.5634"/>
<text text-anchor="middle" x="1704" y="-79" font-family="Helvetica,sans-Serif" font-size="10.00"> priv</text>
</g>
<!-- Node12 -->
<g id="node11" class="node"><title>Node12</title>
<g id="a_node11"><a xlink:href="class_c_wallet.html" target="_top" xlink:title="A CWallet is an extension of a keystore, which also maintains a set of transactions and balances...">
<polygon fill="white" stroke="black" points="1034,-158.5 1034,-177.5 1086,-177.5 1086,-158.5 1034,-158.5"/>
<text text-anchor="middle" x="1060" y="-165.5" font-family="Helvetica,sans-Serif" font-size="10.00">CWallet</text>
</a>
</g>
</g>
<!-- Node12&#45;&gt;Node8 -->
<g id="edge45" class="edge"><title>Node12&#45;&gt;Node8</title>
<path fill="none" stroke="#9a32cd" stroke-dasharray="5,2" d="M1079.9,-184.122C1126.12,-223.534 1243.73,-323.835 1280.7,-355.363"/>
<polygon fill="#9a32cd" stroke="#9a32cd" points="1082.02,-181.328 1072.14,-177.502 1077.48,-186.654 1082.02,-181.328"/>
<text text-anchor="middle" x="1167" y="-288" font-family="Helvetica,sans-Serif" font-size="10.00"> wallet</text>
</g>
<!-- Node12&#45;&gt;Node9 -->
<g id="edge32" class="edge"><title>Node12&#45;&gt;Node9</title>
<path fill="none" stroke="#9a32cd" stroke-dasharray="5,2" d="M1096.38,-161.307C1108.89,-158.964 1123.07,-156.336 1136,-154 1247.88,-133.791 1274.75,-120.083 1388,-110 1439.45,-105.419 1498.23,-105.581 1540.66,-106.651"/>
<polygon fill="#9a32cd" stroke="#9a32cd" points="1095.51,-157.91 1086.33,-163.196 1096.8,-164.789 1095.51,-157.91"/>
<text text-anchor="middle" x="1293" y="-141" font-family="Helvetica,sans-Serif" font-size="10.00"> wallet</text>
</g>
<!-- Node12&#45;&gt;Node11 -->
<g id="edge12" class="edge"><title>Node12&#45;&gt;Node11</title>
<path fill="none" stroke="#9a32cd" stroke-dasharray="5,2" d="M1074.8,-150.725C1099.45,-121.434 1154.28,-63.0564 1216,-41 1414.57,29.9602 1676.03,-38.764 1762.7,-65.4349"/>
<polygon fill="#9a32cd" stroke="#9a32cd" points="1072.07,-148.543 1068.41,-158.486 1077.47,-152.995 1072.07,-148.543"/>
<text text-anchor="middle" x="1450" y="-18" font-family="Helvetica,sans-Serif" font-size="10.00"> wallet</text>
</g>
<!-- Node12&#45;&gt;Node28 -->
<g id="edge39" class="edge"><title>Node12&#45;&gt;Node28</title>
<path fill="none" stroke="#9a32cd" stroke-dasharray="5,2" d="M1096.34,-174.936C1108.85,-177.3 1123.03,-179.88 1136,-182 1285.4,-206.418 1462.85,-229.756 1548.19,-240.628"/>
<polygon fill="#9a32cd" stroke="#9a32cd" points="1096.77,-171.455 1086.29,-173.015 1095.46,-178.331 1096.77,-171.455"/>
<text text-anchor="middle" x="1293" y="-220" font-family="Helvetica,sans-Serif" font-size="10.00"> wallet</text>
</g>
<!-- Node29 -->
<g id="node28" class="node"><title>Node29</title>
<g id="a_node28"><a xlink:href="class_address_table_priv.html" target="_top" xlink:title="AddressTablePriv">
<polygon fill="white" stroke="black" points="1746,-211.5 1746,-230.5 1840,-230.5 1840,-211.5 1746,-211.5"/>
<text text-anchor="middle" x="1793" y="-218.5" font-family="Helvetica,sans-Serif" font-size="10.00">AddressTablePriv</text>
</a>
</g>
</g>
<!-- Node12&#45;&gt;Node29 -->
<g id="edge37" class="edge"><title>Node12&#45;&gt;Node29</title>
<path fill="none" stroke="#9a32cd" stroke-dasharray="5,2" d="M1096.28,-170.558C1216.47,-179.272 1609.93,-207.799 1745.55,-217.633"/>
<polygon fill="#9a32cd" stroke="#9a32cd" points="1096.39,-167.057 1086.16,-169.824 1095.88,-174.038 1096.39,-167.057"/>
<text text-anchor="middle" x="1450" y="-204" font-family="Helvetica,sans-Serif" font-size="10.00"> wallet</text>
</g>
<!-- Node13 -->
<g id="node12" class="node"><title>Node13</title>
<g id="a_node12"><a xlink:href="class_c_crypto_key_store.html" target="_top" xlink:title="Keystore which keeps the private keys encrypted. ">
<polygon fill="white" stroke="black" points="774,-52.5 774,-71.5 868,-71.5 868,-52.5 774,-52.5"/>
<text text-anchor="middle" x="821" y="-59.5" font-family="Helvetica,sans-Serif" font-size="10.00">CCryptoKeyStore</text>
</a>
</g>
</g>
<!-- Node13&#45;&gt;Node12 -->
<g id="edge13" class="edge"><title>Node13&#45;&gt;Node12</title>
<path fill="none" stroke="midnightblue" d="M878.505,-66.1023C910.89,-70.3028 951.44,-78.8026 984,-96 1013.69,-111.679 1039.83,-142.583 1051.9,-158.311"/>
<polygon fill="midnightblue" stroke="midnightblue" points="878.642,-62.5939 868.297,-64.884 877.812,-69.5445 878.642,-62.5939"/>
</g>
<!-- Node14 -->
<g id="node13" class="node"><title>Node14</title>
<g id="a_node13"><a xlink:href="class_c_basic_key_store.html" target="_top" xlink:title="Basic key store, that keeps keys in an address&#45;&gt;secret map. ">
<polygon fill="white" stroke="black" points="640.5,-52.5 640.5,-71.5 729.5,-71.5 729.5,-52.5 640.5,-52.5"/>
<text text-anchor="middle" x="685" y="-59.5" font-family="Helvetica,sans-Serif" font-size="10.00">CBasicKeyStore</text>
</a>
</g>
</g>
<!-- Node14&#45;&gt;Node13 -->
<g id="edge14" class="edge"><title>Node14&#45;&gt;Node13</title>
<path fill="none" stroke="midnightblue" d="M739.727,-62C751.061,-62 762.923,-62 773.945,-62"/>
<polygon fill="midnightblue" stroke="midnightblue" points="739.506,-58.5001 729.506,-62 739.506,-65.5001 739.506,-58.5001"/>
</g>
<!-- Node15 -->
<g id="node14" class="node"><title>Node15</title>
<g id="a_node14"><a xlink:href="class_c_key_store.html" target="_top" xlink:title="A virtual base class for key stores. ">
<polygon fill="white" stroke="black" points="498.5,-62.5 498.5,-81.5 563.5,-81.5 563.5,-62.5 498.5,-62.5"/>
<text text-anchor="middle" x="531" y="-69.5" font-family="Helvetica,sans-Serif" font-size="10.00">CKeyStore</text>
</a>
</g>
</g>
<!-- Node15&#45;&gt;Node14 -->
<g id="edge15" class="edge"><title>Node15&#45;&gt;Node14</title>
<path fill="none" stroke="midnightblue" d="M573.931,-69.2414C594.587,-67.8824 619.477,-66.2449 640.359,-64.8711"/>
<polygon fill="midnightblue" stroke="midnightblue" points="573.613,-65.7547 563.864,-69.9037 574.072,-72.7396 573.613,-65.7547"/>
</g>
<!-- Node16 -->
<g id="node15" class="node"><title>Node16</title>
<g id="a_node15"><a xlink:href="class_c_critical_section.html" target="_top" xlink:title="Wrapped boost mutex: supports recursive locking, but no waiting TODO: We should move away from using ...">
<polygon fill="white" stroke="black" points="314,-68.5 314,-87.5 402,-87.5 402,-68.5 314,-68.5"/>
<text text-anchor="middle" x="358" y="-75.5" font-family="Helvetica,sans-Serif" font-size="10.00">CCriticalSection</text>
</a>
</g>
</g>
<!-- Node16&#45;&gt;Node12 -->
<g id="edge27" class="edge"><title>Node16&#45;&gt;Node12</title>
<path fill="none" stroke="#9a32cd" stroke-dasharray="5,2" d="M400.194,-90.1324C434.581,-99.1872 485.055,-110 530,-110 530,-110 530,-110 822,-110 902.484,-110 994.049,-141.949 1035.91,-158.422"/>
<polygon fill="#9a32cd" stroke="#9a32cd" points="401.068,-86.7432 390.501,-87.5144 399.243,-93.501 401.068,-86.7432"/>
<text text-anchor="middle" x="685" y="-113" font-family="Helvetica,sans-Serif" font-size="10.00"> cs_wallet</text>
</g>
<!-- Node16&#45;&gt;Node15 -->
<g id="edge16" class="edge"><title>Node16&#45;&gt;Node15</title>
<path fill="none" stroke="#9a32cd" stroke-dasharray="5,2" d="M412.293,-76.1301C440.574,-75.1378 474.362,-73.9522 498.468,-73.1064"/>
<polygon fill="#9a32cd" stroke="#9a32cd" points="412.022,-72.6373 402.151,-76.4859 412.267,-79.633 412.022,-72.6373"/>
<text text-anchor="middle" x="450" y="-79" font-family="Helvetica,sans-Serif" font-size="10.00"> cs_KeyStore</text>
</g>
<!-- Node19 -->
<g id="node18" class="node"><title>Node19</title>
<g id="a_node18"><a xlink:href="class_c_h_d_chain.html" target="_top" xlink:title="CHDChain">
<polygon fill="white" stroke="black" points="498.5,-16.5 498.5,-35.5 563.5,-35.5 563.5,-16.5 498.5,-16.5"/>
<text text-anchor="middle" x="531" y="-23.5" font-family="Helvetica,sans-Serif" font-size="10.00">CHDChain</text>
</a>
</g>
</g>
<!-- Node16&#45;&gt;Node19 -->
<g id="edge22" class="edge"><title>Node16&#45;&gt;Node19</title>
<path fill="none" stroke="#9a32cd" stroke-dasharray="5,2" d="M399.289,-65.3853C406.194,-63.2421 413.301,-61.0482 420,-59 446.312,-50.9556 476.221,-41.9946 498.203,-35.4429"/>
<polygon fill="#9a32cd" stroke="#9a32cd" points="397.896,-62.1531 389.388,-68.4661 399.976,-68.8371 397.896,-62.1531"/>
<text text-anchor="middle" x="450" y="-62" font-family="Helvetica,sans-Serif" font-size="10.00"> cs_accounts</text>
</g>
<!-- Node17 -->
<g id="node16" class="node"><title>Node17</title>
<polygon fill="white" stroke="#bfbfbf" points="158.5,-63 158.5,-93 275.5,-93 275.5,-63 158.5,-63"/>
<text text-anchor="start" x="166.5" y="-81" font-family="Helvetica,sans-Serif" font-size="10.00">AnnotatedMixin&lt; boost</text>
<text text-anchor="middle" x="217" y="-70" font-family="Helvetica,sans-Serif" font-size="10.00">::recursive_mutex &gt;</text>
</g>
<!-- Node17&#45;&gt;Node16 -->
<g id="edge17" class="edge"><title>Node17&#45;&gt;Node16</title>
<path fill="none" stroke="midnightblue" d="M285.927,-78C295.358,-78 304.827,-78 313.64,-78"/>
<polygon fill="midnightblue" stroke="midnightblue" points="285.741,-74.5001 275.741,-78 285.741,-81.5001 285.741,-74.5001"/>
</g>
<!-- Node18 -->
<g id="node17" class="node"><title>Node18</title>
<polygon fill="white" stroke="#bfbfbf" points="0.5,-68.5 0.5,-87.5 119.5,-87.5 119.5,-68.5 0.5,-68.5"/>
<text text-anchor="middle" x="60" y="-75.5" font-family="Helvetica,sans-Serif" font-size="10.00">boost::recursive_mutex</text>
</g>
<!-- Node18&#45;&gt;Node17 -->
<g id="edge18" class="edge"><title>Node18&#45;&gt;Node17</title>
<path fill="none" stroke="midnightblue" d="M129.834,-78C139.356,-78 149.055,-78 158.346,-78"/>
<polygon fill="midnightblue" stroke="midnightblue" points="129.599,-74.5001 119.599,-78 129.599,-81.5001 129.599,-74.5001"/>
</g>
<!-- Node19&#45;&gt;Node13 -->
<g id="edge23" class="edge"><title>Node19&#45;&gt;Node13</title>
<path fill="none" stroke="#9a32cd" stroke-dasharray="5,2" d="M573.845,-23.7636C614.17,-22.43 676.737,-22.5265 730,-32 753.675,-36.2109 779.619,-45.3764 797.543,-52.4756"/>
<polygon fill="#9a32cd" stroke="#9a32cd" points="573.702,-20.2664 563.841,-24.1392 573.965,-27.2615 573.702,-20.2664"/>
<text text-anchor="middle" x="685" y="-35" font-family="Helvetica,sans-Serif" font-size="10.00"> cryptedHDChain</text>
</g>
<!-- Node19&#45;&gt;Node14 -->
<g id="edge19" class="edge"><title>Node19&#45;&gt;Node14</title>
<path fill="none" stroke="#9a32cd" stroke-dasharray="5,2" d="M573.832,-35.9075C595.643,-41.0733 622.196,-47.3621 643.768,-52.4713"/>
<polygon fill="#9a32cd" stroke="#9a32cd" points="574.402,-32.4457 563.864,-33.5468 572.788,-39.2573 574.402,-32.4457"/>
<text text-anchor="middle" x="602" y="-51" font-family="Helvetica,sans-Serif" font-size="10.00"> hdChain</text>
</g>
<!-- Node20 -->
<g id="node19" class="node"><title>Node20</title>
<g id="a_node19"><a xlink:href="classuint256.html" target="_top" xlink:title="256&#45;bit opaque blob. ">
<polygon fill="white" stroke="black" points="334,-0.5 334,-19.5 382,-19.5 382,-0.5 334,-0.5"/>
<text text-anchor="middle" x="358" y="-7.5" font-family="Helvetica,sans-Serif" font-size="10.00">uint256</text>
</a>
</g>
</g>
<!-- Node20&#45;&gt;Node19 -->
<g id="edge20" class="edge"><title>Node20&#45;&gt;Node19</title>
<path fill="none" stroke="#9a32cd" stroke-dasharray="5,2" d="M392.523,-7.74936C416.923,-6.72364 450.687,-6.57393 480,-11 487.707,-12.1636 495.878,-14.2383 503.332,-16.4805"/>
<polygon fill="#9a32cd" stroke="#9a32cd" points="392.166,-4.2626 382.35,-8.25028 392.51,-11.2541 392.166,-4.2626"/>
<text text-anchor="middle" x="450" y="-14" font-family="Helvetica,sans-Serif" font-size="10.00"> id</text>
</g>
<!-- Node21 -->
<g id="node20" class="node"><title>Node21</title>
<g id="a_node20"><a xlink:href="classbase__blob.html" target="_top" xlink:title="base_blob\&lt; 256 \&gt;">
<polygon fill="white" stroke="black" points="169.5,-0.5 169.5,-19.5 264.5,-19.5 264.5,-0.5 169.5,-0.5"/>
<text text-anchor="middle" x="217" y="-7.5" font-family="Helvetica,sans-Serif" font-size="10.00">base_blob&lt; 256 &gt;</text>
</a>
</g>
</g>
<!-- Node21&#45;&gt;Node20 -->
<g id="edge21" class="edge"><title>Node21&#45;&gt;Node20</title>
<path fill="none" stroke="midnightblue" d="M274.928,-10C295.493,-10 317.576,-10 333.65,-10"/>
<polygon fill="midnightblue" stroke="midnightblue" points="274.672,-6.5001 264.672,-10 274.672,-13.5001 274.672,-6.5001"/>
</g>
<!-- Node22 -->
<g id="node21" class="node"><title>Node22</title>
<g id="a_node21"><a xlink:href="class_c_validation_interface.html" target="_top" xlink:title="CValidationInterface">
<polygon fill="white" stroke="black" points="768.5,-252.5 768.5,-271.5 873.5,-271.5 873.5,-252.5 768.5,-252.5"/>
<text text-anchor="middle" x="821" y="-259.5" font-family="Helvetica,sans-Serif" font-size="10.00">CValidationInterface</text>
</a>
</g>
</g>
<!-- Node22&#45;&gt;Node12 -->
<g id="edge24" class="edge"><title>Node22&#45;&gt;Node12</title>
<path fill="none" stroke="midnightblue" d="M883.989,-263.096C915.326,-261.432 953.147,-255.919 984,-241 1014.75,-226.129 1040.79,-193.731 1052.45,-177.568"/>
<polygon fill="midnightblue" stroke="midnightblue" points="883.478,-259.614 873.629,-263.52 883.764,-266.608 883.478,-259.614"/>
</g>
<!-- Node23 -->
<g id="node22" class="node"><title>Node23</title>
<g id="a_node22"><a xlink:href="class_c_fee_rate.html" target="_top" xlink:title="Fee rate in satoshis per kilobyte: CAmount / kB. ">
<polygon fill="white" stroke="black" points="790,-214.5 790,-233.5 852,-233.5 852,-214.5 790,-214.5"/>
<text text-anchor="middle" x="821" y="-221.5" font-family="Helvetica,sans-Serif" font-size="10.00">CFeeRate</text>
</a>
</g>
</g>
<!-- Node23&#45;&gt;Node12 -->
<g id="edge25" class="edge"><title>Node23&#45;&gt;Node12</title>
<path fill="none" stroke="#9a32cd" stroke-dasharray="5,2" d="M862.409,-219.144C895.46,-214.665 943.228,-207.031 984,-196 1002.11,-191.1 1021.98,-183.581 1036.71,-177.568"/>
<polygon fill="#9a32cd" stroke="#9a32cd" points="861.679,-215.709 852.222,-220.487 862.594,-222.649 861.679,-215.709"/>
<text text-anchor="middle" x="938" y="-229" font-family="Helvetica,sans-Serif" font-size="10.00"> minTxFee</text>
<text text-anchor="middle" x="938" y="-218" font-family="Helvetica,sans-Serif" font-size="10.00">fallbackFee</text>
</g>
<!-- Node24 -->
<g id="node23" class="node"><title>Node24</title>
<g id="a_node23"><a xlink:href="class_c_pub_key.html" target="_top" xlink:title="An encapsulated public key. ">
<polygon fill="white" stroke="black" points="791.5,-176.5 791.5,-195.5 850.5,-195.5 850.5,-176.5 791.5,-176.5"/>
<text text-anchor="middle" x="821" y="-183.5" font-family="Helvetica,sans-Serif" font-size="10.00">CPubKey</text>
</a>
</g>
</g>
<!-- Node24&#45;&gt;Node12 -->
<g id="edge26" class="edge"><title>Node24&#45;&gt;Node12</title>
<path fill="none" stroke="#9a32cd" stroke-dasharray="5,2" d="M860.788,-183.054C909.746,-179.336 992.548,-173.047 1033.91,-169.905"/>
<polygon fill="#9a32cd" stroke="#9a32cd" points="860.294,-179.581 850.588,-183.829 860.824,-186.561 860.294,-179.581"/>
<text text-anchor="middle" x="938" y="-184" font-family="Helvetica,sans-Serif" font-size="10.00"> vchDefaultKey</text>
</g>
<!-- Node25 -->
<g id="node24" class="node"><title>Node25</title>
<g id="a_node24"><a xlink:href="class_c_wallet_d_b.html" target="_top" xlink:title="Access to the wallet database. ">
<polygon fill="white" stroke="black" points="788,-138.5 788,-157.5 854,-157.5 854,-138.5 788,-138.5"/>
<text text-anchor="middle" x="821" y="-145.5" font-family="Helvetica,sans-Serif" font-size="10.00">CWalletDB</text>
</a>
</g>
</g>
<!-- Node25&#45;&gt;Node12 -->
<g id="edge28" class="edge"><title>Node25&#45;&gt;Node12</title>
<path fill="none" stroke="#9a32cd" stroke-dasharray="5,2" d="M864.123,-150.263C896.848,-152.165 943.353,-155.184 984,-159 1000.58,-160.557 1019.17,-162.784 1033.69,-164.633"/>
<polygon fill="#9a32cd" stroke="#9a32cd" points="864.19,-146.761 854.007,-149.685 863.791,-153.749 864.19,-146.761"/>
<text text-anchor="middle" x="938" y="-162" font-family="Helvetica,sans-Serif" font-size="10.00"> pwalletdbEncryption</text>
</g>
<!-- Node26 -->
<g id="node25" class="node"><title>Node26</title>
<g id="a_node25"><a xlink:href="class_c_d_b.html" target="_top" xlink:title="RAII class that provides access to a Berkeley database. ">
<polygon fill="white" stroke="black" points="666,-139.5 666,-158.5 704,-158.5 704,-139.5 666,-139.5"/>
<text text-anchor="middle" x="685" y="-146.5" font-family="Helvetica,sans-Serif" font-size="10.00">CDB</text>
</a>
</g>
</g>
<!-- Node26&#45;&gt;Node25 -->
<g id="edge29" class="edge"><title>Node26&#45;&gt;Node25</title>
<path fill="none" stroke="midnightblue" d="M714.211,-148.789C735.737,-148.629 765.412,-148.407 787.856,-148.24"/>
<polygon fill="midnightblue" stroke="midnightblue" points="714.045,-145.291 704.072,-148.865 714.098,-152.29 714.045,-145.291"/>
</g>
<!-- Node27 -->
<g id="node26" class="node"><title>Node27</title>
<g id="a_node26"><a xlink:href="class_platform_style.html" target="_top" xlink:title="PlatformStyle">
<polygon fill="white" stroke="black" points="1255,-50.5 1255,-69.5 1331,-69.5 1331,-50.5 1255,-50.5"/>
<text text-anchor="middle" x="1293" y="-57.5" font-family="Helvetica,sans-Serif" font-size="10.00">PlatformStyle</text>
</a>
</g>
</g>
<!-- Node27&#45;&gt;Node9 -->
<g id="edge30" class="edge"><title>Node27&#45;&gt;Node9</title>
<path fill="none" stroke="#9a32cd" stroke-dasharray="5,2" d="M1341.47,-57.5253C1386.1,-56.3362 1454.46,-57.4592 1512,-71 1537.51,-77.0029 1564.89,-90.2078 1581.98,-99.3529"/>
<polygon fill="#9a32cd" stroke="#9a32cd" points="1341.09,-54.0353 1331.21,-57.8506 1341.32,-61.0318 1341.09,-54.0353"/>
<text text-anchor="middle" x="1450" y="-74" font-family="Helvetica,sans-Serif" font-size="10.00"> platformStyle</text>
</g>
<!-- Node28&#45;&gt;Node8 -->
<g id="edge33" class="edge"><title>Node28&#45;&gt;Node8</title>
<path fill="none" stroke="#9a32cd" stroke-dasharray="5,2" d="M1583.73,-264.343C1567.63,-281.477 1540.67,-307.082 1512,-321 1451.74,-350.258 1373.03,-360.068 1328.55,-363.352"/>
<polygon fill="#9a32cd" stroke="#9a32cd" points="1586.55,-266.441 1590.72,-256.7 1581.38,-261.717 1586.55,-266.441"/>
<text text-anchor="middle" x="1450" y="-360" font-family="Helvetica,sans-Serif" font-size="10.00"> addressTableModel</text>
</g>
<!-- Node28&#45;&gt;Node29 -->
<g id="edge36" class="edge"><title>Node28&#45;&gt;Node29</title>
<path fill="none" stroke="#9a32cd" stroke-dasharray="5,2" d="M1634.35,-234.065C1650.32,-228.545 1669.87,-222.748 1688,-220 1702.06,-217.868 1705.78,-219.901 1720,-220 1728.38,-220.058 1737.3,-220.154 1745.91,-220.265"/>
<polygon fill="#9a32cd" stroke="#9a32cd" points="1633.16,-230.776 1624.92,-237.437 1635.51,-237.368 1633.16,-230.776"/>
<text text-anchor="middle" x="1704" y="-223" font-family="Helvetica,sans-Serif" font-size="10.00"> parent</text>
</g>
<!-- Node29&#45;&gt;Node28 -->
<g id="edge35" class="edge"><title>Node29&#45;&gt;Node28</title>
<path fill="none" stroke="#9a32cd" stroke-dasharray="5,2" d="M1735.77,-230.639C1730.44,-231.471 1725.12,-232.272 1720,-233 1697.65,-236.175 1672.87,-239.173 1651.74,-241.575"/>
<polygon fill="#9a32cd" stroke="#9a32cd" points="1736.64,-234.045 1745.96,-229.011 1735.53,-227.132 1736.64,-234.045"/>
<text text-anchor="middle" x="1704" y="-240" font-family="Helvetica,sans-Serif" font-size="10.00"> priv</text>
</g>
<!-- Node30&#45;&gt;Node8 -->
<g id="edge40" class="edge"><title>Node30&#45;&gt;Node8</title>
<path fill="none" stroke="#9a32cd" stroke-dasharray="5,2" d="M1519.47,-391.145C1479.92,-387.128 1431.42,-382.034 1388,-377 1368.39,-374.726 1346.51,-371.947 1328.8,-369.637"/>
<polygon fill="#9a32cd" stroke="#9a32cd" points="1519.28,-394.644 1529.58,-392.169 1519.99,-387.68 1519.28,-394.644"/>
<text text-anchor="middle" x="1450" y="-393" font-family="Helvetica,sans-Serif" font-size="10.00"> recentRequestsTableModel</text>
</g>
<!-- Node31 -->
<g id="node30" class="node"><title>Node31</title>
<g id="a_node30"><a xlink:href="class_options_model.html" target="_top" xlink:title="Interface from Qt to configuration data structure for Bitcoin client. ">
<polygon fill="white" stroke="black" points="1021.5,-355.5 1021.5,-374.5 1098.5,-374.5 1098.5,-355.5 1021.5,-355.5"/>
<text text-anchor="middle" x="1060" y="-362.5" font-family="Helvetica,sans-Serif" font-size="10.00">OptionsModel</text>
</a>
</g>
</g>
<!-- Node31&#45;&gt;Node8 -->
<g id="edge43" class="edge"><title>Node31&#45;&gt;Node8</title>
<path fill="none" stroke="#9a32cd" stroke-dasharray="5,2" d="M1108.86,-365C1153.16,-365 1217.94,-365 1257.41,-365"/>
<polygon fill="#9a32cd" stroke="#9a32cd" points="1108.63,-361.5 1098.63,-365 1108.63,-368.5 1108.63,-361.5"/>
<text text-anchor="middle" x="1167" y="-368" font-family="Helvetica,sans-Serif" font-size="10.00"> optionsModel</text>
</g>
<!-- Node32 -->
<g id="node31" class="node"><title>Node32</title>
<polygon fill="white" stroke="#bfbfbf" points="769.5,-355.5 769.5,-374.5 872.5,-374.5 872.5,-355.5 769.5,-355.5"/>
<text text-anchor="middle" x="821" y="-362.5" font-family="Helvetica,sans-Serif" font-size="10.00">QAbstractListModel</text>
</g>
<!-- Node32&#45;&gt;Node31 -->
<g id="edge44" class="edge"><title>Node32&#45;&gt;Node31</title>
<path fill="none" stroke="midnightblue" d="M882.783,-365C926.508,-365 984.105,-365 1021.34,-365"/>
<polygon fill="midnightblue" stroke="midnightblue" points="882.552,-361.5 872.552,-365 882.552,-368.5 882.552,-361.5"/>
</g>
</g>
</svg>
