<?xml version="1.0" encoding="UTF-8" standalone="no"?>
<!DOCTYPE svg PUBLIC "-//W3C//DTD SVG 1.1//EN"
 "http://www.w3.org/Graphics/SVG/1.1/DTD/svg11.dtd">
<!-- Generated by graphviz version 2.36.0 (20140111.2315)
 -->
<!-- Title: CSimplifiedMNListEntry Pages: 1 -->
<!--zoomable 164 -->
<svg id="main" version="1.1" xmlns="http://www.w3.org/2000/svg" xmlns:xlink="http://www.w3.org/1999/xlink" xml:space="preserve" onload="init(evt)">
<style type="text/css"><![CDATA[
.edge:hover path { stroke: red; }
.edge:hover polygon { stroke: red; fill: red; }
]]></style>
<script type="text/javascript"><![CDATA[
var edges = document.getElementsByTagName('g');
if (edges && edges.length) {
  for (var i=0;i<edges.length;i++) {
    if (edges[i].id.substr(0,4)=='edge') {
      edges[i].setAttribute('class','edge');
    }
  }
}
]]></script>
        <defs>
                <circle id="rim" cx="0" cy="0" r="7"/>
                <circle id="rim2" cx="0" cy="0" r="3.5"/>
                <g id="zoomPlus">
                        <use xlink:href="#rim" fill="#404040">
                                <set attributeName="fill" to="#808080" begin="zoomplus.mouseover" end="zoomplus.mouseout"/>
                        </use>
                        <path d="M-4,0h8M0,-4v8" fill="none" stroke="white" stroke-width="1.5" pointer-events="none"/>
                </g>
                <g id="zoomMin">
                        <use xlink:href="#rim" fill="#404040">
                                <set attributeName="fill" to="#808080" begin="zoomminus.mouseover" end="zoomminus.mouseout"/>
                        </use>
                        <path d="M-4,0h8" fill="none" stroke="white" stroke-width="1.5" pointer-events="none"/>
                </g>
                <g id="dirArrow">
                        <path fill="none" stroke="white" stroke-width="1.5" d="M0,-3.0v7 M-2.5,-0.5L0,-3.0L2.5,-0.5"/>
                </g>
               <g id="resetDef">
                       <use xlink:href="#rim2" fill="#404040">
                               <set attributeName="fill" to="#808080" begin="reset.mouseover" end="reset.mouseout"/>
                       </use>
               </g>
        </defs>

<script type="text/javascript">
var viewWidth = 904;
var viewHeight = 164;
var sectionId = 'dynsection-0';
</script>
<script xlink:href="svgpan.js"/>
<svg id="graph" class="graph">
<g id="viewport">
<title>CSimplifiedMNListEntry</title>
<polygon fill="white" stroke="none" points="-4,4 -4,-160 900,-160 900,4 -4,4"/>
<!-- Node1 -->
<g id="node1" class="node"><title>Node1</title>
<polygon fill="#bfbfbf" stroke="black" points="774,-81.5 774,-100.5 896,-100.5 896,-81.5 774,-81.5"/>
<text text-anchor="middle" x="835" y="-88.5" font-family="Helvetica,sans-Serif" font-size="10.00">CSimplifiedMNListEntry</text>
</g>
<!-- Node2 -->
<g id="node2" class="node"><title>Node2</title>
<g id="a_node2"><a xlink:href="class_c_key_i_d.html" target="_top" xlink:title="A reference to a CKey: the Hash160 of its serialized public key. ">
<polygon fill="white" stroke="black" points="594,-136.5 594,-155.5 646,-155.5 646,-136.5 594,-136.5"/>
<text text-anchor="middle" x="620" y="-143.5" font-family="Helvetica,sans-Serif" font-size="10.00">CKeyID</text>
</a>
</g>
</g>
<!-- Node2&#45;&gt;Node1 -->
<g id="edge1" class="edge"><title>Node2&#45;&gt;Node1</title>
<path fill="none" stroke="#9a32cd" stroke-dasharray="5,2" d="M656.132,-141.307C683.619,-137.203 722.641,-130.417 756,-121 775.409,-115.521 796.736,-107.147 812.177,-100.638"/>
<polygon fill="#9a32cd" stroke="#9a32cd" points="655.592,-137.849 646.198,-142.749 656.597,-144.777 655.592,-137.849"/>
<text text-anchor="middle" x="719" y="-139" font-family="Helvetica,sans-Serif" font-size="10.00"> keyIDVoting</text>
</g>
<!-- Node3 -->
<g id="node3" class="node"><title>Node3</title>
<g id="a_node3"><a xlink:href="classuint160.html" target="_top" xlink:title="160&#45;bit opaque blob. ">
<polygon fill="white" stroke="black" points="373,-136.5 373,-155.5 421,-155.5 421,-136.5 373,-136.5"/>
<text text-anchor="middle" x="397" y="-143.5" font-family="Helvetica,sans-Serif" font-size="10.00">uint160</text>
</a>
</g>
</g>
<!-- Node3&#45;&gt;Node2 -->
<g id="edge2" class="edge"><title>Node3&#45;&gt;Node2</title>
<path fill="none" stroke="midnightblue" d="M431.254,-146C475.754,-146 553.699,-146 593.717,-146"/>
<polygon fill="midnightblue" stroke="midnightblue" points="431.233,-142.5 421.233,-146 431.233,-149.5 431.233,-142.5"/>
</g>
<!-- Node4 -->
<g id="node4" class="node"><title>Node4</title>
<g id="a_node4"><a xlink:href="classbase__blob.html" target="_top" xlink:title="base_blob\&lt; 160 \&gt;">
<polygon fill="white" stroke="black" points="134.5,-136.5 134.5,-155.5 229.5,-155.5 229.5,-136.5 134.5,-136.5"/>
<text text-anchor="middle" x="182" y="-143.5" font-family="Helvetica,sans-Serif" font-size="10.00">base_blob&lt; 160 &gt;</text>
</a>
</g>
</g>
<!-- Node4&#45;&gt;Node3 -->
<g id="edge3" class="edge"><title>Node4&#45;&gt;Node3</title>
<path fill="none" stroke="midnightblue" d="M239.931,-146C283.518,-146 341.363,-146 372.966,-146"/>
<polygon fill="midnightblue" stroke="midnightblue" points="239.744,-142.5 229.744,-146 239.744,-149.5 239.744,-142.5"/>
</g>
<!-- Node5 -->
<g id="node5" class="node"><title>Node5</title>
<g id="a_node5"><a xlink:href="classuint256.html" target="_top" xlink:title="256&#45;bit opaque blob. ">
<polygon fill="white" stroke="black" points="158,-80.5 158,-99.5 206,-99.5 206,-80.5 158,-80.5"/>
<text text-anchor="middle" x="182" y="-87.5" font-family="Helvetica,sans-Serif" font-size="10.00">uint256</text>
</a>
</g>
</g>
<!-- Node5&#45;&gt;Node1 -->
<g id="edge4" class="edge"><title>Node5&#45;&gt;Node1</title>
<path fill="none" stroke="#9a32cd" stroke-dasharray="5,2" d="M216.287,-92.443C226.459,-93.0833 237.684,-93.6829 248,-94 473.671,-100.937 530.264,-98.3395 756,-94 761.826,-93.888 767.896,-93.729 773.963,-93.5419"/>
<polygon fill="#9a32cd" stroke="#9a32cd" points="216.358,-88.9401 206.148,-91.7711 215.895,-95.9248 216.358,-88.9401"/>
<text text-anchor="middle" x="523" y="-112" font-family="Helvetica,sans-Serif" font-size="10.00"> proRegTxHash</text>
<text text-anchor="middle" x="523" y="-101" font-family="Helvetica,sans-Serif" font-size="10.00">confirmedHash</text>
</g>
<!-- Node10 -->
<g id="node10" class="node"><title>Node10</title>
<g id="a_node10"><a xlink:href="class_c_b_l_s_wrapper.html" target="_top" xlink:title="CBLSWrapper\&lt; bls::Public\lKey, BLS_CURVE_PUBKEY\l_SIZE, CBLSPublicKey \&gt;">
<polygon fill="white" stroke="black" points="324,-38.5 324,-79.5 470,-79.5 470,-38.5 324,-38.5"/>
<text text-anchor="start" x="332" y="-67.5" font-family="Helvetica,sans-Serif" font-size="10.00">CBLSWrapper&lt; bls::Public</text>
<text text-anchor="start" x="332" y="-56.5" font-family="Helvetica,sans-Serif" font-size="10.00">Key, BLS_CURVE_PUBKEY</text>
<text text-anchor="middle" x="397" y="-45.5" font-family="Helvetica,sans-Serif" font-size="10.00">_SIZE, CBLSPublicKey &gt;</text>
</a>
</g>
</g>
<!-- Node5&#45;&gt;Node10 -->
<g id="edge10" class="edge"><title>Node5&#45;&gt;Node10</title>
<path fill="none" stroke="#9a32cd" stroke-dasharray="5,2" d="M216.097,-85.1831C244.754,-81.0123 287.22,-74.8318 323.698,-69.5229"/>
<polygon fill="#9a32cd" stroke="#9a32cd" points="215.592,-81.7196 206.2,-86.6234 216.6,-88.6466 215.592,-81.7196"/>
<text text-anchor="middle" x="277" y="-82" font-family="Helvetica,sans-Serif" font-size="10.00"> cachedHash</text>
</g>
<!-- Node6 -->
<g id="node6" class="node"><title>Node6</title>
<g id="a_node6"><a xlink:href="classbase__blob.html" target="_top" xlink:title="base_blob\&lt; 256 \&gt;">
<polygon fill="white" stroke="black" points="0.5,-80.5 0.5,-99.5 95.5,-99.5 95.5,-80.5 0.5,-80.5"/>
<text text-anchor="middle" x="48" y="-87.5" font-family="Helvetica,sans-Serif" font-size="10.00">base_blob&lt; 256 &gt;</text>
</a>
</g>
</g>
<!-- Node6&#45;&gt;Node5 -->
<g id="edge5" class="edge"><title>Node6&#45;&gt;Node5</title>
<path fill="none" stroke="midnightblue" d="M105.596,-90C123.949,-90 143.293,-90 157.792,-90"/>
<polygon fill="midnightblue" stroke="midnightblue" points="105.538,-86.5001 95.5383,-90 105.538,-93.5001 105.538,-86.5001"/>
</g>
<!-- Node7 -->
<g id="node7" class="node"><title>Node7</title>
<g id="a_node7"><a xlink:href="class_c_service.html" target="_top" xlink:title="A combination of a network address (CNetAddr) and a (TCP) port. ">
<polygon fill="white" stroke="black" points="591.5,-8.5 591.5,-27.5 648.5,-27.5 648.5,-8.5 591.5,-8.5"/>
<text text-anchor="middle" x="620" y="-15.5" font-family="Helvetica,sans-Serif" font-size="10.00">CService</text>
</a>
</g>
</g>
<!-- Node7&#45;&gt;Node1 -->
<g id="edge6" class="edge"><title>Node7&#45;&gt;Node1</title>
<path fill="none" stroke="#9a32cd" stroke-dasharray="5,2" d="M658.562,-28.3758C685.821,-36.1552 723.467,-47.4154 756,-59 775.304,-65.874 796.822,-74.7999 812.359,-81.4776"/>
<polygon fill="#9a32cd" stroke="#9a32cd" points="659.231,-24.9277 648.655,-25.5713 657.324,-31.663 659.231,-24.9277"/>
<text text-anchor="middle" x="719" y="-62" font-family="Helvetica,sans-Serif" font-size="10.00"> service</text>
</g>
<!-- Node8 -->
<g id="node8" class="node"><title>Node8</title>
<g id="a_node8"><a xlink:href="class_c_net_addr.html" target="_top" xlink:title="IP address (IPv6, or IPv4 using mapped IPv6 range (::FFFF:0:0/96)) ">
<polygon fill="white" stroke="black" points="367,-0.5 367,-19.5 427,-19.5 427,-0.5 367,-0.5"/>
<text text-anchor="middle" x="397" y="-7.5" font-family="Helvetica,sans-Serif" font-size="10.00">CNetAddr</text>
</a>
</g>
</g>
<!-- Node8&#45;&gt;Node7 -->
<g id="edge7" class="edge"><title>Node8&#45;&gt;Node7</title>
<path fill="none" stroke="midnightblue" d="M437.459,-11.4284C481.748,-13.0316 552.468,-15.5916 591.275,-16.9964"/>
<polygon fill="midnightblue" stroke="midnightblue" points="437.467,-7.92648 427.347,-11.0623 437.214,-14.9219 437.467,-7.92648"/>
</g>
<!-- Node9 -->
<g id="node9" class="node"><title>Node9</title>
<g id="a_node9"><a xlink:href="class_c_b_l_s_public_key.html" target="_top" xlink:title="CBLSPublicKey">
<polygon fill="white" stroke="black" points="576.5,-57.5 576.5,-76.5 663.5,-76.5 663.5,-57.5 576.5,-57.5"/>
<text text-anchor="middle" x="620" y="-64.5" font-family="Helvetica,sans-Serif" font-size="10.00">CBLSPublicKey</text>
</a>
</g>
</g>
<!-- Node9&#45;&gt;Node1 -->
<g id="edge8" class="edge"><title>Node9&#45;&gt;Node1</title>
<path fill="none" stroke="#9a32cd" stroke-dasharray="5,2" d="M673.556,-72.9218C703.897,-76.3405 742.175,-80.6535 773.732,-84.2093"/>
<polygon fill="#9a32cd" stroke="#9a32cd" points="673.921,-69.4408 663.592,-71.7991 673.137,-76.3968 673.921,-69.4408"/>
<text text-anchor="middle" x="719" y="-84" font-family="Helvetica,sans-Serif" font-size="10.00"> pubKeyOperator</text>
</g>
<!-- Node10&#45;&gt;Node9 -->
<g id="edge9" class="edge"><title>Node10&#45;&gt;Node9</title>
<path fill="none" stroke="midnightblue" d="M480.084,-61.9714C512.805,-63.1558 549.093,-64.4694 576.372,-65.4569"/>
<polygon fill="midnightblue" stroke="midnightblue" points="480.178,-58.4726 470.058,-61.6084 479.925,-65.468 480.178,-58.4726"/>
</g>
</g>
</svg>
        <g id="navigator" transform="translate(0 0)" fill="#404254">
                <rect fill="#f2f5e9" fill-opacity="0.5" stroke="#606060" stroke-width=".5" x="0" y="0" width="60" height="60"/>
                <use id="zoomplus" xlink:href="#zoomPlus" x="17" y="9" onmousedown="handleZoom(evt,'in')"/>
                <use id="zoomminus" xlink:href="#zoomMin" x="42" y="9" onmousedown="handleZoom(evt,'out')"/>
                <use id="reset" xlink:href="#resetDef" x="30" y="36" onmousedown="handleReset()"/>
                <g id="arrowUp" xlink:href="#dirArrow" transform="translate(30 24)" onmousedown="handlePan(0,-1)">
                  <use xlink:href="#rim" fill="#404040">
                        <set attributeName="fill" to="#808080" begin="arrowUp.mouseover" end="arrowUp.mouseout"/>
                  </use>
                  <path fill="none" stroke="white" stroke-width="1.5" d="M0,-3.0v7 M-2.5,-0.5L0,-3.0L2.5,-0.5"/>
                </g>
                <g id="arrowRight" xlink:href="#dirArrow" transform="rotate(90) translate(36 -43)" onmousedown="handlePan(1,0)">
                  <use xlink:href="#rim" fill="#404040">
                        <set attributeName="fill" to="#808080" begin="arrowRight.mouseover" end="arrowRight.mouseout"/>
                  </use>
                  <path fill="none" stroke="white" stroke-width="1.5" d="M0,-3.0v7 M-2.5,-0.5L0,-3.0L2.5,-0.5"/>
                </g>
                <g id="arrowDown" xlink:href="#dirArrow" transform="rotate(180) translate(-30 -48)" onmousedown="handlePan(0,1)">
                  <use xlink:href="#rim" fill="#404040">
                        <set attributeName="fill" to="#808080" begin="arrowDown.mouseover" end="arrowDown.mouseout"/>
                  </use>
                  <path fill="none" stroke="white" stroke-width="1.5" d="M0,-3.0v7 M-2.5,-0.5L0,-3.0L2.5,-0.5"/>
                </g>
                <g id="arrowLeft" xlink:href="#dirArrow" transform="rotate(270) translate(-36 17)" onmousedown="handlePan(-1,0)">
                  <use xlink:href="#rim" fill="#404040">
                        <set attributeName="fill" to="#808080" begin="arrowLeft.mouseover" end="arrowLeft.mouseout"/>
                  </use>
                  <path fill="none" stroke="white" stroke-width="1.5" d="M0,-3.0v7 M-2.5,-0.5L0,-3.0L2.5,-0.5"/>
                </g>
        </g>
        <svg viewBox="0 0 15 15" width="100%" height="30px" preserveAspectRatio="xMaxYMin meet">
         <g id="arrow_out" transform="scale(0.3 0.3)">
          <a xlink:href="class_c_simplified_m_n_list_entry__coll__graph_org.svg" target="_base">
           <rect id="button" ry="5" rx="5" y="6" x="6" height="38" width="38"
                fill="#f2f5e9" fill-opacity="0.5" stroke="#606060" stroke-width="1.0"/>
           <path id="arrow"
             d="M 11.500037,31.436501 C 11.940474,20.09759 22.043105,11.32322 32.158766,21.979434 L 37.068811,17.246167 C 37.068811,17.246167 37.088388,32 37.088388,32 L 22.160133,31.978069 C 22.160133,31.978069 26.997745,27.140456 26.997745,27.140456 C 18.528582,18.264221 13.291696,25.230495 11.500037,31.436501 z"
             style="fill:#404040;"/>
          </a>
         </g>
        </svg>
</svg>
