<?xml version="1.0" encoding="UTF-8" standalone="no"?>
<!DOCTYPE svg PUBLIC "-//W3C//DTD SVG 1.1//EN"
 "http://www.w3.org/Graphics/SVG/1.1/DTD/svg11.dtd">
<!-- Generated by graphviz version 2.36.0 (20140111.2315)
 -->
<!-- Title: RecentRequestEntry Pages: 1 -->
<svg width="141pt" height="164pt"
 viewBox="0.00 0.00 141.00 164.00" xmlns="http://www.w3.org/2000/svg" xmlns:xlink="http://www.w3.org/1999/xlink">
<g id="graph0" class="graph" transform="scale(1 1) rotate(0) translate(4 160)">
<title>RecentRequestEntry</title>
<polygon fill="white" stroke="none" points="-4,4 -4,-160 137,-160 137,4 -4,4"/>
<!-- Node1 -->
<g id="node1" class="node"><title>Node1</title>
<polygon fill="#bfbfbf" stroke="black" points="1,-0.5 1,-19.5 109,-19.5 109,-0.5 1,-0.5"/>
<text text-anchor="middle" x="55" y="-7.5" font-family="Helvetica,sans-Serif" font-size="10.00">RecentRequestEntry</text>
</g>
<!-- Node2 -->
<g id="node2" class="node"><title>Node2</title>
<g id="a_node2"><a xlink:href="class_send_coins_recipient.html" target="_top" xlink:title="SendCoinsRecipient">
<polygon fill="white" stroke="black" points="2,-68.5 2,-87.5 108,-87.5 108,-68.5 2,-68.5"/>
<text text-anchor="middle" x="55" y="-75.5" font-family="Helvetica,sans-Serif" font-size="10.00">SendCoinsRecipient</text>
</a>
</g>
</g>
<!-- Node2&#45;&gt;Node1 -->
<g id="edge1" class="edge"><title>Node2&#45;&gt;Node1</title>
<path fill="none" stroke="#9a32cd" stroke-dasharray="5,2" d="M55,-58.0413C55,-45.4724 55,-29.5631 55,-19.8411"/>
<polygon fill="#9a32cd" stroke="#9a32cd" points="51.5001,-58.3716 55,-68.3717 58.5001,-58.3717 51.5001,-58.3716"/>
<text text-anchor="middle" x="75" y="-41.5" font-family="Helvetica,sans-Serif" font-size="10.00"> recipient</text>
</g>
<!-- Node3 -->
<g id="node3" class="node"><title>Node3</title>
<g id="a_node3"><a xlink:href="class_payment_request_plus.html" target="_top" xlink:title="PaymentRequestPlus">
<polygon fill="white" stroke="black" points="-1,-136.5 -1,-155.5 111,-155.5 111,-136.5 -1,-136.5"/>
<text text-anchor="middle" x="55" y="-143.5" font-family="Helvetica,sans-Serif" font-size="10.00">PaymentRequestPlus</text>
</a>
</g>
</g>
<!-- Node3&#45;&gt;Node2 -->
<g id="edge2" class="edge"><title>Node3&#45;&gt;Node2</title>
<path fill="none" stroke="#9a32cd" stroke-dasharray="5,2" d="M55,-126.041C55,-113.472 55,-97.5631 55,-87.8411"/>
<polygon fill="#9a32cd" stroke="#9a32cd" points="51.5001,-126.372 55,-136.372 58.5001,-126.372 51.5001,-126.372"/>
<text text-anchor="middle" x="94" y="-109.5" font-family="Helvetica,sans-Serif" font-size="10.00"> paymentRequest</text>
</g>
</g>
</svg>
