<?xml version="1.0" encoding="UTF-8" standalone="no"?>
<!DOCTYPE svg PUBLIC "-//W3C//DTD SVG 1.1//EN"
 "http://www.w3.org/Graphics/SVG/1.1/DTD/svg11.dtd">
<!-- Generated by graphviz version 2.36.0 (20140111.2315)
 -->
<!-- Title: SignVerifyMessageDialog Pages: 1 -->
<svg width="2048pt" height="448pt"
 viewBox="0.00 0.00 2048.00 448.00" xmlns="http://www.w3.org/2000/svg" xmlns:xlink="http://www.w3.org/1999/xlink">
<g id="graph0" class="graph" transform="scale(1 1) rotate(0) translate(4 444)">
<title>SignVerifyMessageDialog</title>
<polygon fill="white" stroke="none" points="-4,4 -4,-444 2044,-444 2044,4 -4,4"/>
<!-- Node2 -->
<g id="node1" class="node"><title>Node2</title>
<polygon fill="#bfbfbf" stroke="black" points="1743.5,-384.5 1743.5,-403.5 1872.5,-403.5 1872.5,-384.5 1743.5,-384.5"/>
<text text-anchor="middle" x="1808" y="-391.5" font-family="Helvetica,sans-Serif" font-size="10.00">SignVerifyMessageDialog</text>
</g>
<!-- Node3 -->
<g id="node2" class="node"><title>Node3</title>
<polygon fill="white" stroke="#bfbfbf" points="1497,-384.5 1497,-403.5 1549,-403.5 1549,-384.5 1497,-384.5"/>
<text text-anchor="middle" x="1523" y="-391.5" font-family="Helvetica,sans-Serif" font-size="10.00">QDialog</text>
</g>
<!-- Node3&#45;&gt;Node2 -->
<g id="edge1" class="edge"><title>Node3&#45;&gt;Node2</title>
<path fill="none" stroke="midnightblue" d="M1559.18,-394C1605.15,-394 1686.47,-394 1743.38,-394"/>
<polygon fill="midnightblue" stroke="midnightblue" points="1559.11,-390.5 1549.11,-394 1559.11,-397.5 1559.11,-390.5"/>
</g>
<!-- Node4 -->
<g id="node3" class="node"><title>Node4</title>
<g id="a_node3"><a xlink:href="class_platform_style.html" target="_top" xlink:title="PlatformStyle">
<polygon fill="white" stroke="black" points="1020,-409.5 1020,-428.5 1096,-428.5 1096,-409.5 1020,-409.5"/>
<text text-anchor="middle" x="1058" y="-416.5" font-family="Helvetica,sans-Serif" font-size="10.00">PlatformStyle</text>
</a>
</g>
</g>
<!-- Node4&#45;&gt;Node2 -->
<g id="edge2" class="edge"><title>Node4&#45;&gt;Node2</title>
<path fill="none" stroke="#9a32cd" stroke-dasharray="5,2" d="M1106.15,-418.828C1197.31,-418.412 1404.08,-417.067 1578,-413 1641.13,-411.524 1657.15,-414.139 1720,-408 1731.11,-406.914 1742.97,-405.309 1754.23,-403.57"/>
<polygon fill="#9a32cd" stroke="#9a32cd" points="1106.12,-415.328 1096.14,-418.872 1106.15,-422.328 1106.12,-415.328"/>
<text text-anchor="middle" x="1399" y="-419" font-family="Helvetica,sans-Serif" font-size="10.00"> platformStyle</text>
</g>
<!-- Node7 -->
<g id="node6" class="node"><title>Node7</title>
<g id="a_node6"><a xlink:href="class_transaction_table_model.html" target="_top" xlink:title="UI model for the transaction table of a wallet. ">
<polygon fill="white" stroke="black" points="1212,-214.5 1212,-233.5 1330,-233.5 1330,-214.5 1212,-214.5"/>
<text text-anchor="middle" x="1271" y="-221.5" font-family="Helvetica,sans-Serif" font-size="10.00">TransactionTableModel</text>
</a>
</g>
</g>
<!-- Node4&#45;&gt;Node7 -->
<g id="edge27" class="edge"><title>Node4&#45;&gt;Node7</title>
<path fill="none" stroke="#9a32cd" stroke-dasharray="5,2" d="M1072.6,-401.169C1097.62,-369.208 1153.73,-301.278 1212,-256 1223.35,-247.179 1237.45,-239.343 1248.9,-233.633"/>
<polygon fill="#9a32cd" stroke="#9a32cd" points="1069.75,-399.133 1066.4,-409.182 1075.29,-403.421 1069.75,-399.133"/>
<text text-anchor="middle" x="1163" y="-335" font-family="Helvetica,sans-Serif" font-size="10.00"> platformStyle</text>
</g>
<!-- Node5 -->
<g id="node4" class="node"><title>Node5</title>
<g id="a_node4"><a xlink:href="class_wallet_model.html" target="_top" xlink:title="Interface to Bitcoin wallet from Qt view code. ">
<polygon fill="white" stroke="black" points="1487.5,-113.5 1487.5,-132.5 1558.5,-132.5 1558.5,-113.5 1487.5,-113.5"/>
<text text-anchor="middle" x="1523" y="-120.5" font-family="Helvetica,sans-Serif" font-size="10.00">WalletModel</text>
</a>
</g>
</g>
<!-- Node5&#45;&gt;Node2 -->
<g id="edge3" class="edge"><title>Node5&#45;&gt;Node2</title>
<path fill="none" stroke="#9a32cd" stroke-dasharray="5,2" d="M1541.43,-139.688C1594.88,-190.875 1755.41,-344.601 1797.05,-384.471"/>
<polygon fill="#9a32cd" stroke="#9a32cd" points="1543.72,-137.033 1534.07,-132.645 1538.87,-142.089 1543.72,-137.033"/>
<text text-anchor="middle" x="1658" y="-310" font-family="Helvetica,sans-Serif" font-size="10.00"> model</text>
</g>
<!-- Node5&#45;&gt;Node7 -->
<g id="edge28" class="edge"><title>Node5&#45;&gt;Node7</title>
<path fill="none" stroke="#9a32cd" stroke-dasharray="5,2" d="M1477.1,-129.947C1429.45,-137.528 1359.44,-149.336 1348,-155 1318.61,-169.543 1292.21,-198.826 1279.68,-214.147"/>
<polygon fill="#9a32cd" stroke="#9a32cd" points="1477.86,-133.37 1487.19,-128.351 1476.77,-126.456 1477.86,-133.37"/>
<text text-anchor="middle" x="1399" y="-158" font-family="Helvetica,sans-Serif" font-size="10.00"> walletModel</text>
</g>
<!-- Node25 -->
<g id="node24" class="node"><title>Node25</title>
<g id="a_node24"><a xlink:href="class_address_table_model.html" target="_top" xlink:title="Qt model of the address book in the core. ">
<polygon fill="white" stroke="black" points="1756.5,-147.5 1756.5,-166.5 1859.5,-166.5 1859.5,-147.5 1756.5,-147.5"/>
<text text-anchor="middle" x="1808" y="-154.5" font-family="Helvetica,sans-Serif" font-size="10.00">AddressTableModel</text>
</a>
</g>
</g>
<!-- Node5&#45;&gt;Node25 -->
<g id="edge35" class="edge"><title>Node5&#45;&gt;Node25</title>
<path fill="none" stroke="#9a32cd" stroke-dasharray="5,2" d="M1568.7,-117.85C1608.73,-114.399 1668.83,-112.093 1720,-122 1744.93,-126.828 1771.79,-138.768 1788.96,-147.36"/>
<polygon fill="#9a32cd" stroke="#9a32cd" points="1568.36,-114.366 1558.72,-118.77 1569,-121.337 1568.36,-114.366"/>
<text text-anchor="middle" x="1658" y="-125" font-family="Helvetica,sans-Serif" font-size="10.00"> walletModel</text>
</g>
<!-- Node27 -->
<g id="node26" class="node"><title>Node27</title>
<g id="a_node26"><a xlink:href="class_recent_requests_table_model.html" target="_top" xlink:title="Model for list of recently generated payment requests / dash: URIs. ">
<polygon fill="white" stroke="black" points="1738,-0.5 1738,-19.5 1878,-19.5 1878,-0.5 1738,-0.5"/>
<text text-anchor="middle" x="1808" y="-7.5" font-family="Helvetica,sans-Serif" font-size="10.00">RecentRequestsTableModel</text>
</a>
</g>
</g>
<!-- Node5&#45;&gt;Node27 -->
<g id="edge39" class="edge"><title>Node5&#45;&gt;Node27</title>
<path fill="none" stroke="#9a32cd" stroke-dasharray="5,2" d="M1562.98,-110.271C1615.82,-92.9541 1705.31,-63.3875 1720,-57 1745.66,-45.8443 1773.92,-29.8404 1791.06,-19.6848"/>
<polygon fill="#9a32cd" stroke="#9a32cd" points="1561.66,-107.019 1553.25,-113.457 1563.84,-113.671 1561.66,-107.019"/>
<text text-anchor="middle" x="1658" y="-102" font-family="Helvetica,sans-Serif" font-size="10.00"> walletModel</text>
</g>
<!-- Node6 -->
<g id="node5" class="node"><title>Node6</title>
<polygon fill="white" stroke="#bfbfbf" points="1244.5,-91.5 1244.5,-110.5 1297.5,-110.5 1297.5,-91.5 1244.5,-91.5"/>
<text text-anchor="middle" x="1271" y="-98.5" font-family="Helvetica,sans-Serif" font-size="10.00">QObject</text>
</g>
<!-- Node6&#45;&gt;Node5 -->
<g id="edge4" class="edge"><title>Node6&#45;&gt;Node5</title>
<path fill="none" stroke="midnightblue" d="M1307.72,-102.263C1343.72,-103.758 1400.83,-106.735 1450,-112 1462.2,-113.306 1475.49,-115.201 1487.29,-117.052"/>
<polygon fill="midnightblue" stroke="midnightblue" points="1307.84,-98.765 1297.71,-101.863 1307.56,-105.759 1307.84,-98.765"/>
</g>
<!-- Node7&#45;&gt;Node5 -->
<g id="edge5" class="edge"><title>Node7&#45;&gt;Node5</title>
<path fill="none" stroke="#9a32cd" stroke-dasharray="5,2" d="M1315.78,-211.61C1360.28,-198.768 1426,-179.058 1450,-168 1471.82,-157.947 1495.05,-142.452 1509.04,-132.521"/>
<polygon fill="#9a32cd" stroke="#9a32cd" points="1314.72,-208.273 1306.07,-214.399 1316.65,-215.001 1314.72,-208.273"/>
<text text-anchor="middle" x="1399" y="-205" font-family="Helvetica,sans-Serif" font-size="10.00"> transactionTableModel</text>
</g>
<!-- Node9 -->
<g id="node8" class="node"><title>Node9</title>
<g id="a_node8"><a xlink:href="class_transaction_table_priv.html" target="_top" xlink:title="TransactionTablePriv">
<polygon fill="white" stroke="black" points="1468.5,-248.5 1468.5,-267.5 1577.5,-267.5 1577.5,-248.5 1468.5,-248.5"/>
<text text-anchor="middle" x="1523" y="-255.5" font-family="Helvetica,sans-Serif" font-size="10.00">TransactionTablePriv</text>
</a>
</g>
</g>
<!-- Node7&#45;&gt;Node9 -->
<g id="edge8" class="edge"><title>Node7&#45;&gt;Node9</title>
<path fill="none" stroke="#9a32cd" stroke-dasharray="5,2" d="M1339.96,-234.837C1342.68,-235.236 1345.36,-235.625 1348,-236 1388.24,-241.72 1433.83,-247.457 1468.25,-251.638"/>
<polygon fill="#9a32cd" stroke="#9a32cd" points="1340.47,-231.374 1330.06,-233.357 1339.44,-238.297 1340.47,-231.374"/>
<text text-anchor="middle" x="1399" y="-253" font-family="Helvetica,sans-Serif" font-size="10.00"> parent</text>
</g>
<!-- Node8 -->
<g id="node7" class="node"><title>Node8</title>
<polygon fill="white" stroke="#bfbfbf" points="1002.5,-15.5 1002.5,-34.5 1113.5,-34.5 1113.5,-15.5 1002.5,-15.5"/>
<text text-anchor="middle" x="1058" y="-22.5" font-family="Helvetica,sans-Serif" font-size="10.00">QAbstractTableModel</text>
</g>
<!-- Node8&#45;&gt;Node7 -->
<g id="edge6" class="edge"><title>Node8&#45;&gt;Node7</title>
<path fill="none" stroke="midnightblue" d="M1105.25,-38.8168C1108.31,-40.3801 1111.26,-42.1034 1114,-44 1170.07,-82.7837 1166.92,-110.863 1212,-162 1228.77,-181.017 1249.18,-202.468 1260.78,-214.497"/>
<polygon fill="midnightblue" stroke="midnightblue" points="1106.41,-35.5009 1095.86,-34.5942 1103.54,-41.8858 1106.41,-35.5009"/>
</g>
<!-- Node8&#45;&gt;Node25 -->
<g id="edge31" class="edge"><title>Node8&#45;&gt;Node25</title>
<path fill="none" stroke="midnightblue" d="M1123.94,-24.7885C1280.08,-24.6994 1667.54,-27.1247 1720,-53 1762.22,-73.8274 1791.57,-125.589 1802.39,-147.237"/>
<polygon fill="midnightblue" stroke="midnightblue" points="1123.54,-21.2887 1113.55,-24.7983 1123.55,-28.2887 1123.54,-21.2887"/>
</g>
<!-- Node8&#45;&gt;Node27 -->
<g id="edge38" class="edge"><title>Node8&#45;&gt;Node27</title>
<path fill="none" stroke="midnightblue" d="M1111.57,-13.7178C1118.41,-12.6024 1125.36,-11.6459 1132,-11 1337.26,8.95088 1389.78,-9.44445 1596,-9 1651.11,-8.88123 1664.89,-8.68329 1720,-9 1725.74,-9.03299 1731.69,-9.07821 1737.67,-9.13132"/>
<polygon fill="midnightblue" stroke="midnightblue" points="1110.9,-10.281 1101.65,-15.4477 1112.11,-17.1768 1110.9,-10.281"/>
</g>
<!-- Node9&#45;&gt;Node7 -->
<g id="edge7" class="edge"><title>Node9&#45;&gt;Node7</title>
<path fill="none" stroke="#9a32cd" stroke-dasharray="5,2" d="M1497.3,-243.512C1483.81,-236.428 1466.53,-228.656 1450,-225 1410.62,-216.29 1365.14,-216.2 1330,-218.206"/>
<polygon fill="#9a32cd" stroke="#9a32cd" points="1495.94,-246.753 1506.39,-248.479 1499.29,-240.611 1495.94,-246.753"/>
<text text-anchor="middle" x="1399" y="-228" font-family="Helvetica,sans-Serif" font-size="10.00"> priv</text>
</g>
<!-- Node10 -->
<g id="node9" class="node"><title>Node10</title>
<g id="a_node9"><a xlink:href="class_c_wallet.html" target="_top" xlink:title="A CWallet is an extension of a keystore, which also maintains a set of transactions and balances...">
<polygon fill="white" stroke="black" points="1032,-268.5 1032,-287.5 1084,-287.5 1084,-268.5 1032,-268.5"/>
<text text-anchor="middle" x="1058" y="-275.5" font-family="Helvetica,sans-Serif" font-size="10.00">CWallet</text>
</a>
</g>
</g>
<!-- Node10&#45;&gt;Node5 -->
<g id="edge42" class="edge"><title>Node10&#45;&gt;Node5</title>
<path fill="none" stroke="#9a32cd" stroke-dasharray="5,2" d="M1081.37,-262.847C1128.29,-232.059 1241.46,-162.912 1348,-137 1395.41,-125.469 1452.01,-122.905 1487.49,-122.589"/>
<polygon fill="#9a32cd" stroke="#9a32cd" points="1079.29,-260.026 1072.89,-268.47 1083.16,-265.86 1079.29,-260.026"/>
<text text-anchor="middle" x="1271" y="-190" font-family="Helvetica,sans-Serif" font-size="10.00"> wallet</text>
</g>
<!-- Node10&#45;&gt;Node7 -->
<g id="edge29" class="edge"><title>Node10&#45;&gt;Node7</title>
<path fill="none" stroke="#9a32cd" stroke-dasharray="5,2" d="M1093.76,-265.122C1105.77,-260.932 1119.39,-256.471 1132,-253 1159.85,-245.335 1191.35,-238.575 1217.21,-233.514"/>
<polygon fill="#9a32cd" stroke="#9a32cd" points="1092.35,-261.907 1084.1,-268.551 1094.69,-268.504 1092.35,-261.907"/>
<text text-anchor="middle" x="1163" y="-256" font-family="Helvetica,sans-Serif" font-size="10.00"> wallet</text>
</g>
<!-- Node10&#45;&gt;Node9 -->
<g id="edge9" class="edge"><title>Node10&#45;&gt;Node9</title>
<path fill="none" stroke="#9a32cd" stroke-dasharray="5,2" d="M1094.44,-277.577C1163.12,-276.59 1319.08,-273.532 1450,-265 1455.89,-264.616 1462.04,-264.137 1468.17,-263.611"/>
<polygon fill="#9a32cd" stroke="#9a32cd" points="1094.14,-274.081 1084.19,-277.718 1094.23,-281.08 1094.14,-274.081"/>
<text text-anchor="middle" x="1271" y="-279" font-family="Helvetica,sans-Serif" font-size="10.00"> wallet</text>
</g>
<!-- Node10&#45;&gt;Node25 -->
<g id="edge36" class="edge"><title>Node10&#45;&gt;Node25</title>
<path fill="none" stroke="#9a32cd" stroke-dasharray="5,2" d="M1094.22,-285.565C1106.16,-287.783 1119.6,-289.905 1132,-291 1329.55,-308.453 1386.84,-329.809 1578,-277 1666.26,-252.618 1759.27,-190.894 1793.42,-166.824"/>
<polygon fill="#9a32cd" stroke="#9a32cd" points="1094.68,-282.088 1084.19,-283.616 1093.34,-288.959 1094.68,-282.088"/>
<text text-anchor="middle" x="1399" y="-314" font-family="Helvetica,sans-Serif" font-size="10.00"> wallet</text>
</g>
<!-- Node26 -->
<g id="node25" class="node"><title>Node26</title>
<g id="a_node25"><a xlink:href="class_address_table_priv.html" target="_top" xlink:title="AddressTablePriv">
<polygon fill="white" stroke="black" points="1946,-181.5 1946,-200.5 2040,-200.5 2040,-181.5 1946,-181.5"/>
<text text-anchor="middle" x="1993" y="-188.5" font-family="Helvetica,sans-Serif" font-size="10.00">AddressTablePriv</text>
</a>
</g>
</g>
<!-- Node10&#45;&gt;Node26 -->
<g id="edge34" class="edge"><title>Node10&#45;&gt;Node26</title>
<path fill="none" stroke="#9a32cd" stroke-dasharray="5,2" d="M1082.71,-292.878C1120.71,-315.259 1198.28,-355 1270,-355 1270,-355 1270,-355 1809,-355 1902,-355 1969.31,-236.074 1987.25,-200.768"/>
<polygon fill="#9a32cd" stroke="#9a32cd" points="1084.3,-289.751 1073.93,-287.596 1080.69,-295.75 1084.3,-289.751"/>
<text text-anchor="middle" x="1523" y="-358" font-family="Helvetica,sans-Serif" font-size="10.00"> wallet</text>
</g>
<!-- Node11 -->
<g id="node10" class="node"><title>Node11</title>
<g id="a_node10"><a xlink:href="class_c_crypto_key_store.html" target="_top" xlink:title="Keystore which keeps the private keys encrypted. ">
<polygon fill="white" stroke="black" points="774,-372.5 774,-391.5 868,-391.5 868,-372.5 774,-372.5"/>
<text text-anchor="middle" x="821" y="-379.5" font-family="Helvetica,sans-Serif" font-size="10.00">CCryptoKeyStore</text>
</a>
</g>
</g>
<!-- Node11&#45;&gt;Node10 -->
<g id="edge10" class="edge"><title>Node11&#45;&gt;Node10</title>
<path fill="none" stroke="midnightblue" d="M878.538,-378.388C910.935,-374.435 951.485,-366.186 984,-349 1013.07,-333.634 1038.44,-303.116 1050.13,-287.576"/>
<polygon fill="midnightblue" stroke="midnightblue" points="877.878,-374.94 868.327,-379.527 878.653,-381.897 877.878,-374.94"/>
</g>
<!-- Node12 -->
<g id="node11" class="node"><title>Node12</title>
<g id="a_node11"><a xlink:href="class_c_basic_key_store.html" target="_top" xlink:title="Basic key store, that keeps keys in an address&#45;&gt;secret map. ">
<polygon fill="white" stroke="black" points="640.5,-411.5 640.5,-430.5 729.5,-430.5 729.5,-411.5 640.5,-411.5"/>
<text text-anchor="middle" x="685" y="-418.5" font-family="Helvetica,sans-Serif" font-size="10.00">CBasicKeyStore</text>
</a>
</g>
</g>
<!-- Node12&#45;&gt;Node11 -->
<g id="edge11" class="edge"><title>Node12&#45;&gt;Node11</title>
<path fill="none" stroke="midnightblue" d="M728.384,-408.664C747.358,-403.142 769.391,-396.73 787.094,-391.577"/>
<polygon fill="midnightblue" stroke="midnightblue" points="727.404,-405.304 718.78,-411.46 729.36,-412.026 727.404,-405.304"/>
</g>
<!-- Node13 -->
<g id="node12" class="node"><title>Node13</title>
<g id="a_node12"><a xlink:href="class_c_key_store.html" target="_top" xlink:title="A virtual base class for key stores. ">
<polygon fill="white" stroke="black" points="498.5,-420.5 498.5,-439.5 563.5,-439.5 563.5,-420.5 498.5,-420.5"/>
<text text-anchor="middle" x="531" y="-427.5" font-family="Helvetica,sans-Serif" font-size="10.00">CKeyStore</text>
</a>
</g>
</g>
<!-- Node13&#45;&gt;Node12 -->
<g id="edge12" class="edge"><title>Node13&#45;&gt;Node12</title>
<path fill="none" stroke="midnightblue" d="M573.811,-429.155C588.996,-428.704 606.282,-428.021 622,-427 627.935,-426.614 634.182,-426.117 640.332,-425.575"/>
<polygon fill="midnightblue" stroke="midnightblue" points="573.58,-425.66 563.679,-429.432 573.771,-432.658 573.58,-425.66"/>
</g>
<!-- Node14 -->
<g id="node13" class="node"><title>Node14</title>
<g id="a_node13"><a xlink:href="class_c_critical_section.html" target="_top" xlink:title="Wrapped boost mutex: supports recursive locking, but no waiting TODO: We should move away from using ...">
<polygon fill="white" stroke="black" points="314,-372.5 314,-391.5 402,-391.5 402,-372.5 314,-372.5"/>
<text text-anchor="middle" x="358" y="-379.5" font-family="Helvetica,sans-Serif" font-size="10.00">CCriticalSection</text>
</a>
</g>
</g>
<!-- Node14&#45;&gt;Node10 -->
<g id="edge24" class="edge"><title>Node14&#45;&gt;Node10</title>
<path fill="none" stroke="#9a32cd" stroke-dasharray="5,2" d="M388.807,-368.569C422.404,-354.679 478.999,-335 530,-335 530,-335 530,-335 822,-335 901.555,-335 992.099,-303.767 1033.77,-287.541"/>
<polygon fill="#9a32cd" stroke="#9a32cd" points="387.4,-365.364 379.558,-372.489 390.131,-371.809 387.4,-365.364"/>
<text text-anchor="middle" x="685" y="-338" font-family="Helvetica,sans-Serif" font-size="10.00"> cs_wallet</text>
</g>
<!-- Node14&#45;&gt;Node13 -->
<g id="edge13" class="edge"><title>Node14&#45;&gt;Node13</title>
<path fill="none" stroke="#9a32cd" stroke-dasharray="5,2" d="M402.951,-394.337C432.823,-402.722 471.635,-413.617 498.461,-421.147"/>
<polygon fill="#9a32cd" stroke="#9a32cd" points="403.767,-390.931 393.193,-391.598 401.875,-397.671 403.767,-390.931"/>
<text text-anchor="middle" x="450" y="-418" font-family="Helvetica,sans-Serif" font-size="10.00"> cs_KeyStore</text>
</g>
<!-- Node17 -->
<g id="node16" class="node"><title>Node17</title>
<g id="a_node16"><a xlink:href="class_c_h_d_chain.html" target="_top" xlink:title="CHDChain">
<polygon fill="white" stroke="black" points="498.5,-372.5 498.5,-391.5 563.5,-391.5 563.5,-372.5 498.5,-372.5"/>
<text text-anchor="middle" x="531" y="-379.5" font-family="Helvetica,sans-Serif" font-size="10.00">CHDChain</text>
</a>
</g>
</g>
<!-- Node14&#45;&gt;Node17 -->
<g id="edge19" class="edge"><title>Node14&#45;&gt;Node17</title>
<path fill="none" stroke="#9a32cd" stroke-dasharray="5,2" d="M412.293,-382C440.574,-382 474.362,-382 498.468,-382"/>
<polygon fill="#9a32cd" stroke="#9a32cd" points="412.151,-378.5 402.151,-382 412.15,-385.5 412.151,-378.5"/>
<text text-anchor="middle" x="450" y="-385" font-family="Helvetica,sans-Serif" font-size="10.00"> cs_accounts</text>
</g>
<!-- Node15 -->
<g id="node14" class="node"><title>Node15</title>
<polygon fill="white" stroke="#bfbfbf" points="158.5,-367 158.5,-397 275.5,-397 275.5,-367 158.5,-367"/>
<text text-anchor="start" x="166.5" y="-385" font-family="Helvetica,sans-Serif" font-size="10.00">AnnotatedMixin&lt; boost</text>
<text text-anchor="middle" x="217" y="-374" font-family="Helvetica,sans-Serif" font-size="10.00">::recursive_mutex &gt;</text>
</g>
<!-- Node15&#45;&gt;Node14 -->
<g id="edge14" class="edge"><title>Node15&#45;&gt;Node14</title>
<path fill="none" stroke="midnightblue" d="M285.927,-382C295.358,-382 304.827,-382 313.64,-382"/>
<polygon fill="midnightblue" stroke="midnightblue" points="285.741,-378.5 275.741,-382 285.741,-385.5 285.741,-378.5"/>
</g>
<!-- Node16 -->
<g id="node15" class="node"><title>Node16</title>
<polygon fill="white" stroke="#bfbfbf" points="0.5,-372.5 0.5,-391.5 119.5,-391.5 119.5,-372.5 0.5,-372.5"/>
<text text-anchor="middle" x="60" y="-379.5" font-family="Helvetica,sans-Serif" font-size="10.00">boost::recursive_mutex</text>
</g>
<!-- Node16&#45;&gt;Node15 -->
<g id="edge15" class="edge"><title>Node16&#45;&gt;Node15</title>
<path fill="none" stroke="midnightblue" d="M129.834,-382C139.356,-382 149.055,-382 158.346,-382"/>
<polygon fill="midnightblue" stroke="midnightblue" points="129.599,-378.5 119.599,-382 129.599,-385.5 129.599,-378.5"/>
</g>
<!-- Node17&#45;&gt;Node11 -->
<g id="edge20" class="edge"><title>Node17&#45;&gt;Node11</title>
<path fill="none" stroke="#9a32cd" stroke-dasharray="5,2" d="M573.75,-382C626.953,-382 718.62,-382 773.849,-382"/>
<polygon fill="#9a32cd" stroke="#9a32cd" points="573.645,-378.5 563.645,-382 573.645,-385.5 573.645,-378.5"/>
<text text-anchor="middle" x="685" y="-385" font-family="Helvetica,sans-Serif" font-size="10.00"> cryptedHDChain</text>
</g>
<!-- Node17&#45;&gt;Node12 -->
<g id="edge16" class="edge"><title>Node17&#45;&gt;Node12</title>
<path fill="none" stroke="#9a32cd" stroke-dasharray="5,2" d="M573.642,-392.684C596.528,-398.557 624.68,-405.78 646.821,-411.461"/>
<polygon fill="#9a32cd" stroke="#9a32cd" points="574.42,-389.271 563.864,-390.176 572.681,-396.051 574.42,-389.271"/>
<text text-anchor="middle" x="602" y="-407" font-family="Helvetica,sans-Serif" font-size="10.00"> hdChain</text>
</g>
<!-- Node18 -->
<g id="node17" class="node"><title>Node18</title>
<g id="a_node17"><a xlink:href="classuint256.html" target="_top" xlink:title="256&#45;bit opaque blob. ">
<polygon fill="white" stroke="black" points="334,-299.5 334,-318.5 382,-318.5 382,-299.5 334,-299.5"/>
<text text-anchor="middle" x="358" y="-306.5" font-family="Helvetica,sans-Serif" font-size="10.00">uint256</text>
</a>
</g>
</g>
<!-- Node18&#45;&gt;Node17 -->
<g id="edge17" class="edge"><title>Node18&#45;&gt;Node17</title>
<path fill="none" stroke="#9a32cd" stroke-dasharray="5,2" d="M390.825,-322.586C424.815,-337.097 477.809,-359.72 507.639,-372.454"/>
<polygon fill="#9a32cd" stroke="#9a32cd" points="391.926,-319.251 381.355,-318.543 389.178,-325.689 391.926,-319.251"/>
<text text-anchor="middle" x="450" y="-364" font-family="Helvetica,sans-Serif" font-size="10.00"> id</text>
</g>
<!-- Node19 -->
<g id="node18" class="node"><title>Node19</title>
<g id="a_node18"><a xlink:href="classbase__blob.html" target="_top" xlink:title="base_blob\&lt; 256 \&gt;">
<polygon fill="white" stroke="black" points="169.5,-299.5 169.5,-318.5 264.5,-318.5 264.5,-299.5 169.5,-299.5"/>
<text text-anchor="middle" x="217" y="-306.5" font-family="Helvetica,sans-Serif" font-size="10.00">base_blob&lt; 256 &gt;</text>
</a>
</g>
</g>
<!-- Node19&#45;&gt;Node18 -->
<g id="edge18" class="edge"><title>Node19&#45;&gt;Node18</title>
<path fill="none" stroke="midnightblue" d="M274.928,-309C295.493,-309 317.576,-309 333.65,-309"/>
<polygon fill="midnightblue" stroke="midnightblue" points="274.672,-305.5 264.672,-309 274.672,-312.5 274.672,-305.5"/>
</g>
<!-- Node20 -->
<g id="node19" class="node"><title>Node20</title>
<g id="a_node19"><a xlink:href="class_c_validation_interface.html" target="_top" xlink:title="CValidationInterface">
<polygon fill="white" stroke="black" points="768.5,-287.5 768.5,-306.5 873.5,-306.5 873.5,-287.5 768.5,-287.5"/>
<text text-anchor="middle" x="821" y="-294.5" font-family="Helvetica,sans-Serif" font-size="10.00">CValidationInterface</text>
</a>
</g>
</g>
<!-- Node20&#45;&gt;Node10 -->
<g id="edge21" class="edge"><title>Node20&#45;&gt;Node10</title>
<path fill="none" stroke="midnightblue" d="M883.626,-292.018C931.989,-288.107 996.815,-282.866 1031.9,-280.029"/>
<polygon fill="midnightblue" stroke="midnightblue" points="883.257,-288.536 873.572,-292.83 883.821,-295.513 883.257,-288.536"/>
</g>
<!-- Node21 -->
<g id="node20" class="node"><title>Node21</title>
<g id="a_node20"><a xlink:href="class_c_fee_rate.html" target="_top" xlink:title="Fee rate in satoshis per kilobyte: CAmount / kB. ">
<polygon fill="white" stroke="black" points="790,-249.5 790,-268.5 852,-268.5 852,-249.5 790,-249.5"/>
<text text-anchor="middle" x="821" y="-256.5" font-family="Helvetica,sans-Serif" font-size="10.00">CFeeRate</text>
</a>
</g>
</g>
<!-- Node21&#45;&gt;Node10 -->
<g id="edge22" class="edge"><title>Node21&#45;&gt;Node10</title>
<path fill="none" stroke="#9a32cd" stroke-dasharray="5,2" d="M862.135,-256.178C895.028,-254.541 942.716,-253.715 984,-259 1000.24,-261.078 1018.02,-265.657 1031.97,-269.799"/>
<polygon fill="#9a32cd" stroke="#9a32cd" points="861.797,-252.691 852.003,-256.731 862.179,-259.68 861.797,-252.691"/>
<text text-anchor="middle" x="938" y="-273" font-family="Helvetica,sans-Serif" font-size="10.00"> minTxFee</text>
<text text-anchor="middle" x="938" y="-262" font-family="Helvetica,sans-Serif" font-size="10.00">fallbackFee</text>
</g>
<!-- Node22 -->
<g id="node21" class="node"><title>Node22</title>
<g id="a_node21"><a xlink:href="class_c_pub_key.html" target="_top" xlink:title="An encapsulated public key. ">
<polygon fill="white" stroke="black" points="791.5,-211.5 791.5,-230.5 850.5,-230.5 850.5,-211.5 791.5,-211.5"/>
<text text-anchor="middle" x="821" y="-218.5" font-family="Helvetica,sans-Serif" font-size="10.00">CPubKey</text>
</a>
</g>
</g>
<!-- Node22&#45;&gt;Node10 -->
<g id="edge23" class="edge"><title>Node22&#45;&gt;Node10</title>
<path fill="none" stroke="#9a32cd" stroke-dasharray="5,2" d="M860.981,-221.633C894.311,-223.097 943.213,-227.457 984,-240 1005.58,-246.636 1028.33,-259.555 1042.58,-268.475"/>
<polygon fill="#9a32cd" stroke="#9a32cd" points="860.859,-218.126 850.736,-221.252 860.599,-225.121 860.859,-218.126"/>
<text text-anchor="middle" x="938" y="-243" font-family="Helvetica,sans-Serif" font-size="10.00"> vchDefaultKey</text>
</g>
<!-- Node23 -->
<g id="node22" class="node"><title>Node23</title>
<g id="a_node22"><a xlink:href="class_c_wallet_d_b.html" target="_top" xlink:title="Access to the wallet database. ">
<polygon fill="white" stroke="black" points="788,-173.5 788,-192.5 854,-192.5 854,-173.5 788,-173.5"/>
<text text-anchor="middle" x="821" y="-180.5" font-family="Helvetica,sans-Serif" font-size="10.00">CWalletDB</text>
</a>
</g>
</g>
<!-- Node23&#45;&gt;Node10 -->
<g id="edge25" class="edge"><title>Node23&#45;&gt;Node10</title>
<path fill="none" stroke="#9a32cd" stroke-dasharray="5,2" d="M864.176,-183.03C898.137,-184.598 946.262,-190.388 984,-209 1012.78,-223.193 1037.9,-252.629 1049.75,-268.064"/>
<polygon fill="#9a32cd" stroke="#9a32cd" points="864.238,-179.53 854.119,-182.67 863.987,-186.526 864.238,-179.53"/>
<text text-anchor="middle" x="938" y="-212" font-family="Helvetica,sans-Serif" font-size="10.00"> pwalletdbEncryption</text>
</g>
<!-- Node24 -->
<g id="node23" class="node"><title>Node24</title>
<g id="a_node23"><a xlink:href="class_c_d_b.html" target="_top" xlink:title="RAII class that provides access to a Berkeley database. ">
<polygon fill="white" stroke="black" points="666,-173.5 666,-192.5 704,-192.5 704,-173.5 666,-173.5"/>
<text text-anchor="middle" x="685" y="-180.5" font-family="Helvetica,sans-Serif" font-size="10.00">CDB</text>
</a>
</g>
</g>
<!-- Node24&#45;&gt;Node23 -->
<g id="edge26" class="edge"><title>Node24&#45;&gt;Node23</title>
<path fill="none" stroke="midnightblue" d="M714.211,-183C735.737,-183 765.412,-183 787.856,-183"/>
<polygon fill="midnightblue" stroke="midnightblue" points="714.072,-179.5 704.072,-183 714.072,-186.5 714.072,-179.5"/>
</g>
<!-- Node25&#45;&gt;Node5 -->
<g id="edge30" class="edge"><title>Node25&#45;&gt;Node5</title>
<path fill="none" stroke="#9a32cd" stroke-dasharray="5,2" d="M1746.04,-151.641C1703.84,-147.686 1646.41,-141.822 1596,-135 1583.82,-133.351 1570.53,-131.229 1558.73,-129.229"/>
<polygon fill="#9a32cd" stroke="#9a32cd" points="1745.88,-155.141 1756.16,-152.58 1746.53,-148.171 1745.88,-155.141"/>
<text text-anchor="middle" x="1658" y="-152" font-family="Helvetica,sans-Serif" font-size="10.00"> addressTableModel</text>
</g>
<!-- Node25&#45;&gt;Node26 -->
<g id="edge33" class="edge"><title>Node25&#45;&gt;Node26</title>
<path fill="none" stroke="#9a32cd" stroke-dasharray="5,2" d="M1870.01,-168.335C1894.8,-172.942 1922.97,-178.175 1945.99,-182.451"/>
<polygon fill="#9a32cd" stroke="#9a32cd" points="1870.45,-164.857 1859.98,-166.471 1869.17,-171.739 1870.45,-164.857"/>
<text text-anchor="middle" x="1912" y="-183" font-family="Helvetica,sans-Serif" font-size="10.00"> parent</text>
</g>
<!-- Node26&#45;&gt;Node25 -->
<g id="edge32" class="edge"><title>Node26&#45;&gt;Node25</title>
<path fill="none" stroke="#9a32cd" stroke-dasharray="5,2" d="M1969.32,-175.991C1957.52,-169.067 1942.56,-161.597 1928,-158 1906.04,-152.573 1881.09,-151.606 1859.73,-152.276"/>
<polygon fill="#9a32cd" stroke="#9a32cd" points="1967.68,-179.091 1978.03,-181.343 1971.34,-173.126 1967.68,-179.091"/>
<text text-anchor="middle" x="1912" y="-161" font-family="Helvetica,sans-Serif" font-size="10.00"> priv</text>
</g>
<!-- Node27&#45;&gt;Node5 -->
<g id="edge37" class="edge"><title>Node27&#45;&gt;Node5</title>
<path fill="none" stroke="#9a32cd" stroke-dasharray="5,2" d="M1727.78,-11.5178C1686.42,-15.191 1636.2,-24.3517 1596,-46 1565.54,-62.4 1540.81,-96.5539 1529.96,-113.308"/>
<polygon fill="#9a32cd" stroke="#9a32cd" points="1728.13,-15.0012 1737.82,-10.7172 1727.57,-8.02331 1728.13,-15.0012"/>
<text text-anchor="middle" x="1658" y="-49" font-family="Helvetica,sans-Serif" font-size="10.00"> recentRequestsTableModel</text>
</g>
<!-- Node28 -->
<g id="node27" class="node"><title>Node28</title>
<g id="a_node27"><a xlink:href="class_options_model.html" target="_top" xlink:title="Interface from Qt to configuration data structure for Bitcoin client. ">
<polygon fill="white" stroke="black" points="1232.5,-53.5 1232.5,-72.5 1309.5,-72.5 1309.5,-53.5 1232.5,-53.5"/>
<text text-anchor="middle" x="1271" y="-60.5" font-family="Helvetica,sans-Serif" font-size="10.00">OptionsModel</text>
</a>
</g>
</g>
<!-- Node28&#45;&gt;Node5 -->
<g id="edge40" class="edge"><title>Node28&#45;&gt;Node5</title>
<path fill="none" stroke="#9a32cd" stroke-dasharray="5,2" d="M1320.13,-66.6368C1356.4,-70.2525 1407.07,-77.1813 1450,-90 1469.5,-95.8222 1490.52,-105.942 1504.78,-113.444"/>
<polygon fill="#9a32cd" stroke="#9a32cd" points="1320.11,-63.1198 1309.83,-65.6604 1319.45,-70.0885 1320.11,-63.1198"/>
<text text-anchor="middle" x="1399" y="-93" font-family="Helvetica,sans-Serif" font-size="10.00"> optionsModel</text>
</g>
<!-- Node29 -->
<g id="node28" class="node"><title>Node29</title>
<polygon fill="white" stroke="#bfbfbf" points="1006.5,-53.5 1006.5,-72.5 1109.5,-72.5 1109.5,-53.5 1006.5,-53.5"/>
<text text-anchor="middle" x="1058" y="-60.5" font-family="Helvetica,sans-Serif" font-size="10.00">QAbstractListModel</text>
</g>
<!-- Node29&#45;&gt;Node28 -->
<g id="edge41" class="edge"><title>Node29&#45;&gt;Node28</title>
<path fill="none" stroke="midnightblue" d="M1119.55,-63C1155.95,-63 1201.13,-63 1232.43,-63"/>
<polygon fill="midnightblue" stroke="midnightblue" points="1119.54,-59.5001 1109.54,-63 1119.54,-66.5001 1119.54,-59.5001"/>
</g>
</g>
</svg>
