<?xml version="1.0" encoding="UTF-8" standalone="no"?>
<!DOCTYPE svg PUBLIC "-//W3C//DTD SVG 1.1//EN"
 "http://www.w3.org/Graphics/SVG/1.1/DTD/svg11.dtd">
<!-- Generated by graphviz version 2.36.0 (20140111.2315)
 -->
<!-- Title: src/support/cleanse.cpp Pages: 1 -->
<svg width="173pt" height="140pt"
 viewBox="0.00 0.00 173.00 140.00" xmlns="http://www.w3.org/2000/svg" xmlns:xlink="http://www.w3.org/1999/xlink">
<g id="graph0" class="graph" transform="scale(1 1) rotate(0) translate(4 136)">
<title>src/support/cleanse.cpp</title>
<polygon fill="white" stroke="none" points="-4,4 -4,-136 169,-136 169,4 -4,4"/>
<!-- Node0 -->
<g id="node1" class="node"><title>Node0</title>
<polygon fill="#bfbfbf" stroke="black" points="14.5,-112.5 14.5,-131.5 135.5,-131.5 135.5,-112.5 14.5,-112.5"/>
<text text-anchor="middle" x="75" y="-119.5" font-family="Helvetica,sans-Serif" font-size="10.00">src/support/cleanse.cpp</text>
</g>
<!-- Node1 -->
<g id="node2" class="node"><title>Node1</title>
<g id="a_node2"><a xlink:href="cleanse_8h.html" target="_top" xlink:title="cleanse.h">
<polygon fill="white" stroke="black" points="-0.5,-56.5 -0.5,-75.5 58.5,-75.5 58.5,-56.5 -0.5,-56.5"/>
<text text-anchor="middle" x="29" y="-63.5" font-family="Helvetica,sans-Serif" font-size="10.00">cleanse.h</text>
</a>
</g>
</g>
<!-- Node0&#45;&gt;Node1 -->
<g id="edge1" class="edge"><title>Node0&#45;&gt;Node1</title>
<path fill="none" stroke="midnightblue" d="M67.404,-112.083C60.7725,-104.298 50.979,-92.8015 42.9419,-83.3665"/>
<polygon fill="midnightblue" stroke="midnightblue" points="45.6037,-81.0939 36.4546,-75.7511 40.275,-85.6332 45.6037,-81.0939"/>
</g>
<!-- Node3 -->
<g id="node4" class="node"><title>Node3</title>
<polygon fill="white" stroke="#bfbfbf" points="76.5,-56.5 76.5,-75.5 165.5,-75.5 165.5,-56.5 76.5,-56.5"/>
<text text-anchor="middle" x="121" y="-63.5" font-family="Helvetica,sans-Serif" font-size="10.00">openssl/crypto.h</text>
</g>
<!-- Node0&#45;&gt;Node3 -->
<g id="edge3" class="edge"><title>Node0&#45;&gt;Node3</title>
<path fill="none" stroke="midnightblue" d="M82.596,-112.083C89.2275,-104.298 99.021,-92.8015 107.058,-83.3665"/>
<polygon fill="midnightblue" stroke="midnightblue" points="109.725,-85.6332 113.545,-75.7511 104.396,-81.0939 109.725,-85.6332"/>
</g>
<!-- Node2 -->
<g id="node3" class="node"><title>Node2</title>
<polygon fill="white" stroke="#bfbfbf" points="5,-0.5 5,-19.5 53,-19.5 53,-0.5 5,-0.5"/>
<text text-anchor="middle" x="29" y="-7.5" font-family="Helvetica,sans-Serif" font-size="10.00">stdlib.h</text>
</g>
<!-- Node1&#45;&gt;Node2 -->
<g id="edge2" class="edge"><title>Node1&#45;&gt;Node2</title>
<path fill="none" stroke="midnightblue" d="M29,-56.083C29,-49.0059 29,-38.8611 29,-29.9865"/>
<polygon fill="midnightblue" stroke="midnightblue" points="32.5001,-29.751 29,-19.7511 25.5001,-29.7511 32.5001,-29.751"/>
</g>
</g>
</svg>
