<?xml version="1.0" encoding="UTF-8" standalone="no"?>
<!DOCTYPE svg PUBLIC "-//W3C//DTD SVG 1.1//EN"
 "http://www.w3.org/Graphics/SVG/1.1/DTD/svg11.dtd">
<!-- Generated by graphviz version 2.36.0 (20140111.2315)
 -->
<!-- Title: src/rpc/client.cpp Pages: 1 -->
<!--zoomable 208 -->
<svg id="main" version="1.1" xmlns="http://www.w3.org/2000/svg" xmlns:xlink="http://www.w3.org/1999/xlink" xml:space="preserve" onload="init(evt)">
<style type="text/css"><![CDATA[
.edge:hover path { stroke: red; }
.edge:hover polygon { stroke: red; fill: red; }
]]></style>
<script type="text/javascript"><![CDATA[
var edges = document.getElementsByTagName('g');
if (edges && edges.length) {
  for (var i=0;i<edges.length;i++) {
    if (edges[i].id.substr(0,4)=='edge') {
      edges[i].setAttribute('class','edge');
    }
  }
}
]]></script>
        <defs>
                <circle id="rim" cx="0" cy="0" r="7"/>
                <circle id="rim2" cx="0" cy="0" r="3.5"/>
                <g id="zoomPlus">
                        <use xlink:href="#rim" fill="#404040">
                                <set attributeName="fill" to="#808080" begin="zoomplus.mouseover" end="zoomplus.mouseout"/>
                        </use>
                        <path d="M-4,0h8M0,-4v8" fill="none" stroke="white" stroke-width="1.5" pointer-events="none"/>
                </g>
                <g id="zoomMin">
                        <use xlink:href="#rim" fill="#404040">
                                <set attributeName="fill" to="#808080" begin="zoomminus.mouseover" end="zoomminus.mouseout"/>
                        </use>
                        <path d="M-4,0h8" fill="none" stroke="white" stroke-width="1.5" pointer-events="none"/>
                </g>
                <g id="dirArrow">
                        <path fill="none" stroke="white" stroke-width="1.5" d="M0,-3.0v7 M-2.5,-0.5L0,-3.0L2.5,-0.5"/>
                </g>
               <g id="resetDef">
                       <use xlink:href="#rim2" fill="#404040">
                               <set attributeName="fill" to="#808080" begin="reset.mouseover" end="reset.mouseout"/>
                       </use>
               </g>
        </defs>

<script type="text/javascript">
var viewWidth = 720;
var viewHeight = 208;
var sectionId = 'dynsection-0';
</script>
<script xlink:href="svgpan.js"/>
<svg id="graph" class="graph">
<g id="viewport">
<title>src/rpc/client.cpp</title>
<polygon fill="white" stroke="none" points="-4,4 -4,-204 716,-204 716,4 -4,4"/>
<!-- Node0 -->
<g id="node1" class="node"><title>Node0</title>
<polygon fill="#bfbfbf" stroke="black" points="424,-180.5 424,-199.5 516,-199.5 516,-180.5 424,-180.5"/>
<text text-anchor="middle" x="470" y="-187.5" font-family="Helvetica,sans-Serif" font-size="10.00">src/rpc/client.cpp</text>
</g>
<!-- Node1 -->
<g id="node2" class="node"><title>Node1</title>
<g id="a_node2"><a xlink:href="client_8h.html" target="_top" xlink:title="rpc/client.h">
<polygon fill="white" stroke="black" points="118.5,-118.5 118.5,-137.5 183.5,-137.5 183.5,-118.5 118.5,-118.5"/>
<text text-anchor="middle" x="151" y="-125.5" font-family="Helvetica,sans-Serif" font-size="10.00">rpc/client.h</text>
</a>
</g>
</g>
<!-- Node0&#45;&gt;Node1 -->
<g id="edge1" class="edge"><title>Node0&#45;&gt;Node1</title>
<path fill="none" stroke="midnightblue" d="M424.634,-180.467C363.006,-168.876 253.641,-148.306 193.523,-136.998"/>
<polygon fill="midnightblue" stroke="midnightblue" points="194.078,-133.541 183.603,-135.132 192.784,-140.42 194.078,-133.541"/>
</g>
<!-- Node2 -->
<g id="node3" class="node"><title>Node2</title>
<g id="a_node3"><a xlink:href="univalue_8h.html" target="_top" xlink:title="univalue.h">
<polygon fill="white" stroke="black" points="94.5,-56.5 94.5,-75.5 155.5,-75.5 155.5,-56.5 94.5,-56.5"/>
<text text-anchor="middle" x="125" y="-63.5" font-family="Helvetica,sans-Serif" font-size="10.00">univalue.h</text>
</a>
</g>
</g>
<!-- Node0&#45;&gt;Node2 -->
<g id="edge21" class="edge"><title>Node0&#45;&gt;Node2</title>
<path fill="none" stroke="midnightblue" d="M434.753,-180.489C401.874,-172.234 351.63,-158.814 309,-144 252.341,-124.311 188.117,-96.0144 152.505,-79.772"/>
<polygon fill="midnightblue" stroke="midnightblue" points="153.798,-76.5146 143.249,-75.5277 150.88,-82.8775 153.798,-76.5146"/>
</g>
<!-- Node3 -->
<g id="node4" class="node"><title>Node3</title>
<polygon fill="white" stroke="#bfbfbf" points="407.5,-0.5 407.5,-19.5 456.5,-19.5 456.5,-0.5 407.5,-0.5"/>
<text text-anchor="middle" x="432" y="-7.5" font-family="Helvetica,sans-Serif" font-size="10.00">stdint.h</text>
</g>
<!-- Node0&#45;&gt;Node3 -->
<g id="edge19" class="edge"><title>Node0&#45;&gt;Node3</title>
<path fill="none" stroke="midnightblue" d="M468.167,-180.415C462.338,-153.11 444.133,-67.8317 435.997,-29.7237"/>
<polygon fill="midnightblue" stroke="midnightblue" points="439.415,-28.9673 433.904,-19.9185 432.569,-30.4289 439.415,-28.9673"/>
</g>
<!-- Node10 -->
<g id="node11" class="node"><title>Node10</title>
<g id="a_node11"><a xlink:href="rpc_2protocol_8h.html" target="_top" xlink:title="rpc/protocol.h">
<polygon fill="white" stroke="black" points="318,-118.5 318,-137.5 394,-137.5 394,-118.5 318,-118.5"/>
<text text-anchor="middle" x="356" y="-125.5" font-family="Helvetica,sans-Serif" font-size="10.00">rpc/protocol.h</text>
</a>
</g>
</g>
<!-- Node0&#45;&gt;Node10 -->
<g id="edge10" class="edge"><title>Node0&#45;&gt;Node10</title>
<path fill="none" stroke="midnightblue" d="M453.667,-180.403C434.789,-170.468 403.493,-153.997 381.424,-142.381"/>
<polygon fill="midnightblue" stroke="midnightblue" points="382.782,-139.141 372.303,-137.581 379.522,-145.335 382.782,-139.141"/>
</g>
<!-- Node13 -->
<g id="node14" class="node"><title>Node13</title>
<polygon fill="white" stroke="#bfbfbf" points="498,-118.5 498,-137.5 536,-137.5 536,-118.5 498,-118.5"/>
<text text-anchor="middle" x="517" y="-125.5" font-family="Helvetica,sans-Serif" font-size="10.00">util.h</text>
</g>
<!-- Node0&#45;&gt;Node13 -->
<g id="edge17" class="edge"><title>Node0&#45;&gt;Node13</title>
<path fill="none" stroke="midnightblue" d="M476.734,-180.403C483.784,-171.403 495.035,-157.041 503.854,-145.782"/>
<polygon fill="midnightblue" stroke="midnightblue" points="506.867,-147.611 510.279,-137.581 501.357,-143.295 506.867,-147.611"/>
</g>
<!-- Node14 -->
<g id="node15" class="node"><title>Node14</title>
<polygon fill="white" stroke="#bfbfbf" points="554,-118.5 554,-137.5 584,-137.5 584,-118.5 554,-118.5"/>
<text text-anchor="middle" x="569" y="-125.5" font-family="Helvetica,sans-Serif" font-size="10.00">set</text>
</g>
<!-- Node0&#45;&gt;Node14 -->
<g id="edge18" class="edge"><title>Node0&#45;&gt;Node14</title>
<path fill="none" stroke="midnightblue" d="M484.425,-180.451C499.561,-171.455 524.022,-156.847 545,-144 545.524,-143.679 546.054,-143.354 546.588,-143.026"/>
<polygon fill="midnightblue" stroke="midnightblue" points="548.666,-145.855 555.32,-137.61 544.977,-139.906 548.666,-145.855"/>
</g>
<!-- Node15 -->
<g id="node16" class="node"><title>Node15</title>
<polygon fill="white" stroke="#bfbfbf" points="602,-113 602,-143 712,-143 712,-113 602,-113"/>
<text text-anchor="start" x="610" y="-131" font-family="Helvetica,sans-Serif" font-size="10.00">boost/algorithm/string</text>
<text text-anchor="middle" x="657" y="-120" font-family="Helvetica,sans-Serif" font-size="10.00">/case_conv.hpp</text>
</g>
<!-- Node0&#45;&gt;Node15 -->
<g id="edge20" class="edge"><title>Node0&#45;&gt;Node15</title>
<path fill="none" stroke="midnightblue" d="M496.793,-180.403C524.578,-171.488 568.764,-157.311 603.7,-146.101"/>
<polygon fill="midnightblue" stroke="midnightblue" points="604.835,-149.413 613.288,-143.025 602.697,-142.748 604.835,-149.413"/>
</g>
<!-- Node1&#45;&gt;Node2 -->
<g id="edge2" class="edge"><title>Node1&#45;&gt;Node2</title>
<path fill="none" stroke="midnightblue" d="M147.275,-118.403C143.491,-109.671 137.519,-95.8893 132.711,-84.7936"/>
<polygon fill="midnightblue" stroke="midnightblue" points="135.906,-83.3645 128.718,-75.5806 129.483,-86.1478 135.906,-83.3645"/>
</g>
<!-- Node2&#45;&gt;Node3 -->
<g id="edge3" class="edge"><title>Node2&#45;&gt;Node3</title>
<path fill="none" stroke="midnightblue" d="M155.612,-57.7119C158.442,-57.1058 161.271,-56.5251 164,-56 266.898,-36.2058 294.357,-41.0733 397,-20 397.104,-19.9787 397.208,-19.9573 397.312,-19.9358"/>
<polygon fill="midnightblue" stroke="midnightblue" points="398.233,-23.3158 407.214,-17.6949 396.688,-16.4885 398.233,-23.3158"/>
</g>
<!-- Node4 -->
<g id="node5" class="node"><title>Node4</title>
<polygon fill="white" stroke="#bfbfbf" points="291.5,-0.5 291.5,-19.5 332.5,-19.5 332.5,-0.5 291.5,-0.5"/>
<text text-anchor="middle" x="312" y="-7.5" font-family="Helvetica,sans-Serif" font-size="10.00">string</text>
</g>
<!-- Node2&#45;&gt;Node4 -->
<g id="edge4" class="edge"><title>Node2&#45;&gt;Node4</title>
<path fill="none" stroke="midnightblue" d="M154.631,-56.4435C189.406,-46.4015 246.76,-29.8394 281.785,-19.7251"/>
<polygon fill="midnightblue" stroke="midnightblue" points="282.826,-23.0678 291.462,-16.9308 280.883,-16.3426 282.826,-23.0678"/>
</g>
<!-- Node5 -->
<g id="node6" class="node"><title>Node5</title>
<polygon fill="white" stroke="#bfbfbf" points="195,-0.5 195,-19.5 239,-19.5 239,-0.5 195,-0.5"/>
<text text-anchor="middle" x="217" y="-7.5" font-family="Helvetica,sans-Serif" font-size="10.00">vector</text>
</g>
<!-- Node2&#45;&gt;Node5 -->
<g id="edge5" class="edge"><title>Node2&#45;&gt;Node5</title>
<path fill="none" stroke="midnightblue" d="M139.781,-56.324C154.267,-47.8215 176.573,-34.7288 193.493,-24.7975"/>
<polygon fill="midnightblue" stroke="midnightblue" points="195.403,-27.735 202.255,-19.6545 191.859,-21.6981 195.403,-27.735"/>
</g>
<!-- Node6 -->
<g id="node7" class="node"><title>Node6</title>
<polygon fill="white" stroke="#bfbfbf" points="353.5,-0.5 353.5,-19.5 388.5,-19.5 388.5,-0.5 353.5,-0.5"/>
<text text-anchor="middle" x="371" y="-7.5" font-family="Helvetica,sans-Serif" font-size="10.00">map</text>
</g>
<!-- Node2&#45;&gt;Node6 -->
<g id="edge6" class="edge"><title>Node2&#45;&gt;Node6</title>
<path fill="none" stroke="midnightblue" d="M155.64,-57.8496C158.464,-57.2146 161.284,-56.5895 164,-56 242.451,-38.973 263.141,-39.5539 341,-20 341.877,-19.7798 342.766,-19.5502 343.663,-19.3135"/>
<polygon fill="midnightblue" stroke="midnightblue" points="344.63,-22.6775 353.307,-16.5984 342.733,-15.9394 344.63,-22.6775"/>
</g>
<!-- Node7 -->
<g id="node8" class="node"><title>Node7</title>
<polygon fill="white" stroke="#bfbfbf" points="-0.5,-0.5 -0.5,-19.5 48.5,-19.5 48.5,-0.5 -0.5,-0.5"/>
<text text-anchor="middle" x="24" y="-7.5" font-family="Helvetica,sans-Serif" font-size="10.00">cassert</text>
</g>
<!-- Node2&#45;&gt;Node7 -->
<g id="edge7" class="edge"><title>Node2&#45;&gt;Node7</title>
<path fill="none" stroke="midnightblue" d="M108.773,-56.324C92.649,-47.7034 67.6998,-34.3643 49.0359,-24.3855"/>
<polygon fill="midnightblue" stroke="midnightblue" points="50.6561,-21.283 40.1871,-19.6545 47.3556,-27.456 50.6561,-21.283"/>
</g>
<!-- Node8 -->
<g id="node9" class="node"><title>Node8</title>
<polygon fill="white" stroke="#bfbfbf" points="67,-0.5 67,-19.5 119,-19.5 119,-0.5 67,-0.5"/>
<text text-anchor="middle" x="93" y="-7.5" font-family="Helvetica,sans-Serif" font-size="10.00">sstream</text>
</g>
<!-- Node2&#45;&gt;Node8 -->
<g id="edge8" class="edge"><title>Node2&#45;&gt;Node8</title>
<path fill="none" stroke="midnightblue" d="M119.716,-56.083C115.289,-48.6127 108.837,-37.7244 103.382,-28.5199"/>
<polygon fill="midnightblue" stroke="midnightblue" points="106.295,-26.5697 98.1858,-19.7511 100.273,-30.1383 106.295,-26.5697"/>
</g>
<!-- Node9 -->
<g id="node10" class="node"><title>Node9</title>
<polygon fill="white" stroke="#bfbfbf" points="137,-0.5 137,-19.5 177,-19.5 177,-0.5 137,-0.5"/>
<text text-anchor="middle" x="157" y="-7.5" font-family="Helvetica,sans-Serif" font-size="10.00">utility</text>
</g>
<!-- Node2&#45;&gt;Node9 -->
<g id="edge9" class="edge"><title>Node2&#45;&gt;Node9</title>
<path fill="none" stroke="midnightblue" d="M130.284,-56.083C134.711,-48.6127 141.163,-37.7244 146.618,-28.5199"/>
<polygon fill="midnightblue" stroke="midnightblue" points="149.727,-30.1383 151.814,-19.7511 143.705,-26.5697 149.727,-30.1383"/>
</g>
<!-- Node10&#45;&gt;Node2 -->
<g id="edge16" class="edge"><title>Node10&#45;&gt;Node2</title>
<path fill="none" stroke="midnightblue" d="M322.903,-118.403C281.469,-107.641 210.514,-89.2113 165.772,-77.5902"/>
<polygon fill="midnightblue" stroke="midnightblue" points="166.379,-74.1318 155.821,-75.0053 164.619,-80.907 166.379,-74.1318"/>
</g>
<!-- Node10&#45;&gt;Node3 -->
<g id="edge13" class="edge"><title>Node10&#45;&gt;Node3</title>
<path fill="none" stroke="midnightblue" d="M361.712,-118.281C374.263,-99.1256 404.429,-53.0828 420.866,-27.9944"/>
<polygon fill="midnightblue" stroke="midnightblue" points="423.875,-29.7875 426.428,-19.5048 418.02,-25.9513 423.875,-29.7875"/>
</g>
<!-- Node10&#45;&gt;Node4 -->
<g id="edge14" class="edge"><title>Node10&#45;&gt;Node4</title>
<path fill="none" stroke="midnightblue" d="M354.23,-118.499C351.276,-104.976 344.79,-77.8625 336,-56 332.243,-46.6553 327.086,-36.7305 322.516,-28.586"/>
<polygon fill="midnightblue" stroke="midnightblue" points="325.405,-26.5919 317.364,-19.6931 319.348,-30.1006 325.405,-26.5919"/>
</g>
<!-- Node10&#45;&gt;Node6 -->
<g id="edge12" class="edge"><title>Node10&#45;&gt;Node6</title>
<path fill="none" stroke="midnightblue" d="M359.054,-118.477C362.474,-108.463 367.822,-91.2708 370,-76 372.194,-60.6179 372.317,-42.9817 371.962,-29.9644"/>
<polygon fill="midnightblue" stroke="midnightblue" points="375.457,-29.7421 371.568,-19.8867 368.462,-30.016 375.457,-29.7421"/>
</g>
<!-- Node11 -->
<g id="node12" class="node"><title>Node11</title>
<polygon fill="white" stroke="#bfbfbf" points="173.5,-56.5 173.5,-75.5 202.5,-75.5 202.5,-56.5 173.5,-56.5"/>
<text text-anchor="middle" x="188" y="-63.5" font-family="Helvetica,sans-Serif" font-size="10.00">list</text>
</g>
<!-- Node10&#45;&gt;Node11 -->
<g id="edge11" class="edge"><title>Node10&#45;&gt;Node11</title>
<path fill="none" stroke="midnightblue" d="M330.757,-118.419C303.566,-109.112 258.82,-93.6097 211.966,-76.2791"/>
<polygon fill="midnightblue" stroke="midnightblue" points="213.164,-72.9907 202.571,-72.7899 210.727,-79.5527 213.164,-72.9907"/>
</g>
<!-- Node12 -->
<g id="node13" class="node"><title>Node12</title>
<polygon fill="white" stroke="#bfbfbf" points="220.5,-56.5 220.5,-75.5 327.5,-75.5 327.5,-56.5 220.5,-56.5"/>
<text text-anchor="middle" x="274" y="-63.5" font-family="Helvetica,sans-Serif" font-size="10.00">boost/filesystem.hpp</text>
</g>
<!-- Node10&#45;&gt;Node12 -->
<g id="edge15" class="edge"><title>Node10&#45;&gt;Node12</title>
<path fill="none" stroke="midnightblue" d="M344.251,-118.403C331.099,-108.78 309.566,-93.0242 293.802,-81.4891"/>
<polygon fill="midnightblue" stroke="midnightblue" points="295.864,-78.6611 285.727,-75.5806 291.73,-84.3103 295.864,-78.6611"/>
</g>
</g>
</svg>
        <g id="navigator" transform="translate(0 0)" fill="#404254">
                <rect fill="#f2f5e9" fill-opacity="0.5" stroke="#606060" stroke-width=".5" x="0" y="0" width="60" height="60"/>
                <use id="zoomplus" xlink:href="#zoomPlus" x="17" y="9" onmousedown="handleZoom(evt,'in')"/>
                <use id="zoomminus" xlink:href="#zoomMin" x="42" y="9" onmousedown="handleZoom(evt,'out')"/>
                <use id="reset" xlink:href="#resetDef" x="30" y="36" onmousedown="handleReset()"/>
                <g id="arrowUp" xlink:href="#dirArrow" transform="translate(30 24)" onmousedown="handlePan(0,-1)">
                  <use xlink:href="#rim" fill="#404040">
                        <set attributeName="fill" to="#808080" begin="arrowUp.mouseover" end="arrowUp.mouseout"/>
                  </use>
                  <path fill="none" stroke="white" stroke-width="1.5" d="M0,-3.0v7 M-2.5,-0.5L0,-3.0L2.5,-0.5"/>
                </g>
                <g id="arrowRight" xlink:href="#dirArrow" transform="rotate(90) translate(36 -43)" onmousedown="handlePan(1,0)">
                  <use xlink:href="#rim" fill="#404040">
                        <set attributeName="fill" to="#808080" begin="arrowRight.mouseover" end="arrowRight.mouseout"/>
                  </use>
                  <path fill="none" stroke="white" stroke-width="1.5" d="M0,-3.0v7 M-2.5,-0.5L0,-3.0L2.5,-0.5"/>
                </g>
                <g id="arrowDown" xlink:href="#dirArrow" transform="rotate(180) translate(-30 -48)" onmousedown="handlePan(0,1)">
                  <use xlink:href="#rim" fill="#404040">
                        <set attributeName="fill" to="#808080" begin="arrowDown.mouseover" end="arrowDown.mouseout"/>
                  </use>
                  <path fill="none" stroke="white" stroke-width="1.5" d="M0,-3.0v7 M-2.5,-0.5L0,-3.0L2.5,-0.5"/>
                </g>
                <g id="arrowLeft" xlink:href="#dirArrow" transform="rotate(270) translate(-36 17)" onmousedown="handlePan(-1,0)">
                  <use xlink:href="#rim" fill="#404040">
                        <set attributeName="fill" to="#808080" begin="arrowLeft.mouseover" end="arrowLeft.mouseout"/>
                  </use>
                  <path fill="none" stroke="white" stroke-width="1.5" d="M0,-3.0v7 M-2.5,-0.5L0,-3.0L2.5,-0.5"/>
                </g>
        </g>
        <svg viewBox="0 0 15 15" width="100%" height="30px" preserveAspectRatio="xMaxYMin meet">
         <g id="arrow_out" transform="scale(0.3 0.3)">
          <a xlink:href="client_8cpp__incl_org.svg" target="_base">
           <rect id="button" ry="5" rx="5" y="6" x="6" height="38" width="38"
                fill="#f2f5e9" fill-opacity="0.5" stroke="#606060" stroke-width="1.0"/>
           <path id="arrow"
             d="M 11.500037,31.436501 C 11.940474,20.09759 22.043105,11.32322 32.158766,21.979434 L 37.068811,17.246167 C 37.068811,17.246167 37.088388,32 37.088388,32 L 22.160133,31.978069 C 22.160133,31.978069 26.997745,27.140456 26.997745,27.140456 C 18.528582,18.264221 13.291696,25.230495 11.500037,31.436501 z"
             style="fill:#404040;"/>
          </a>
         </g>
        </svg>
</svg>
