<?xml version="1.0" encoding="UTF-8" standalone="no"?>
<!DOCTYPE svg PUBLIC "-//W3C//DTD SVG 1.1//EN"
 "http://www.w3.org/Graphics/SVG/1.1/DTD/svg11.dtd">
<!-- Generated by graphviz version 2.36.0 (20140111.2315)
 -->
<!-- Title: src/clientversion.cpp Pages: 1 -->
<svg width="474pt" height="140pt"
 viewBox="0.00 0.00 474.00 140.00" xmlns="http://www.w3.org/2000/svg" xmlns:xlink="http://www.w3.org/1999/xlink">
<g id="graph0" class="graph" transform="scale(1 1) rotate(0) translate(4 136)">
<title>src/clientversion.cpp</title>
<polygon fill="white" stroke="none" points="-4,4 -4,-136 470,-136 470,4 -4,4"/>
<!-- Node0 -->
<g id="node1" class="node"><title>Node0</title>
<polygon fill="#bfbfbf" stroke="black" points="31.5,-112.5 31.5,-131.5 138.5,-131.5 138.5,-112.5 31.5,-112.5"/>
<text text-anchor="middle" x="85" y="-119.5" font-family="Helvetica,sans-Serif" font-size="10.00">src/clientversion.cpp</text>
</g>
<!-- Node1 -->
<g id="node2" class="node"><title>Node1</title>
<g id="a_node2"><a xlink:href="clientversion_8h.html" target="_top" xlink:title="clientversion.h">
<polygon fill="white" stroke="black" points="45,-56.5 45,-75.5 125,-75.5 125,-56.5 45,-56.5"/>
<text text-anchor="middle" x="85" y="-63.5" font-family="Helvetica,sans-Serif" font-size="10.00">clientversion.h</text>
</a>
</g>
</g>
<!-- Node0&#45;&gt;Node1 -->
<g id="edge1" class="edge"><title>Node0&#45;&gt;Node1</title>
<path fill="none" stroke="midnightblue" d="M85,-112.083C85,-105.006 85,-94.8611 85,-85.9865"/>
<polygon fill="midnightblue" stroke="midnightblue" points="88.5001,-85.751 85,-75.7511 81.5001,-85.7511 88.5001,-85.751"/>
</g>
<!-- Node2 -->
<g id="node3" class="node"><title>Node2</title>
<polygon fill="white" stroke="#bfbfbf" points="-0.5,-0.5 -0.5,-19.5 40.5,-19.5 40.5,-0.5 -0.5,-0.5"/>
<text text-anchor="middle" x="20" y="-7.5" font-family="Helvetica,sans-Serif" font-size="10.00">string</text>
</g>
<!-- Node0&#45;&gt;Node2 -->
<g id="edge10" class="edge"><title>Node0&#45;&gt;Node2</title>
<path fill="none" stroke="midnightblue" d="M71.7389,-112.233C60.5425,-104.138 44.9454,-91.1061 36,-76 27.5803,-61.7815 23.5777,-43.3056 21.6829,-29.6878"/>
<polygon fill="midnightblue" stroke="midnightblue" points="25.1424,-29.1328 20.5363,-19.5916 18.1871,-29.9227 25.1424,-29.1328"/>
</g>
<!-- Node4 -->
<g id="node5" class="node"><title>Node4</title>
<g id="a_node5"><a xlink:href="tinyformat_8h.html" target="_top" xlink:title="tinyformat.h">
<polygon fill="white" stroke="black" points="223,-56.5 223,-75.5 291,-75.5 291,-56.5 223,-56.5"/>
<text text-anchor="middle" x="257" y="-63.5" font-family="Helvetica,sans-Serif" font-size="10.00">tinyformat.h</text>
</a>
</g>
</g>
<!-- Node0&#45;&gt;Node4 -->
<g id="edge4" class="edge"><title>Node0&#45;&gt;Node4</title>
<path fill="none" stroke="midnightblue" d="M112.254,-112.444C141.441,-103.28 187.921,-88.6876 220.309,-78.5192"/>
<polygon fill="midnightblue" stroke="midnightblue" points="221.381,-81.8512 229.874,-75.5164 219.284,-75.1726 221.381,-81.8512"/>
</g>
<!-- Node1&#45;&gt;Node2 -->
<g id="edge2" class="edge"><title>Node1&#45;&gt;Node2</title>
<path fill="none" stroke="midnightblue" d="M74.5566,-56.324C64.8538,-48.2631 50.1847,-36.0765 38.5003,-26.3695"/>
<polygon fill="midnightblue" stroke="midnightblue" points="40.5619,-23.532 30.6334,-19.8339 36.0887,-28.9163 40.5619,-23.532"/>
</g>
<!-- Node3 -->
<g id="node4" class="node"><title>Node3</title>
<polygon fill="white" stroke="#bfbfbf" points="61,-0.5 61,-19.5 105,-19.5 105,-0.5 61,-0.5"/>
<text text-anchor="middle" x="83" y="-7.5" font-family="Helvetica,sans-Serif" font-size="10.00">vector</text>
</g>
<!-- Node1&#45;&gt;Node3 -->
<g id="edge3" class="edge"><title>Node1&#45;&gt;Node3</title>
<path fill="none" stroke="midnightblue" d="M84.6697,-56.083C84.4076,-49.0059 84.0319,-38.8611 83.7032,-29.9865"/>
<polygon fill="midnightblue" stroke="midnightblue" points="87.1919,-29.6147 83.3241,-19.7511 80.1967,-29.8738 87.1919,-29.6147"/>
</g>
<!-- Node5 -->
<g id="node6" class="node"><title>Node5</title>
<polygon fill="white" stroke="#bfbfbf" points="123,-0.5 123,-19.5 179,-19.5 179,-0.5 123,-0.5"/>
<text text-anchor="middle" x="151" y="-7.5" font-family="Helvetica,sans-Serif" font-size="10.00">algorithm</text>
</g>
<!-- Node4&#45;&gt;Node5 -->
<g id="edge5" class="edge"><title>Node4&#45;&gt;Node5</title>
<path fill="none" stroke="midnightblue" d="M239.969,-56.324C222.97,-47.6641 196.624,-34.2424 177.007,-24.249"/>
<polygon fill="midnightblue" stroke="midnightblue" points="178.488,-21.0752 167.988,-19.6545 175.31,-27.3125 178.488,-21.0752"/>
</g>
<!-- Node6 -->
<g id="node7" class="node"><title>Node6</title>
<polygon fill="white" stroke="#bfbfbf" points="197.5,-0.5 197.5,-19.5 246.5,-19.5 246.5,-0.5 197.5,-0.5"/>
<text text-anchor="middle" x="222" y="-7.5" font-family="Helvetica,sans-Serif" font-size="10.00">cassert</text>
</g>
<!-- Node4&#45;&gt;Node6 -->
<g id="edge6" class="edge"><title>Node4&#45;&gt;Node6</title>
<path fill="none" stroke="midnightblue" d="M251.22,-56.083C246.328,-48.5341 239.173,-37.4948 233.167,-28.2298"/>
<polygon fill="midnightblue" stroke="midnightblue" points="236.048,-26.239 227.672,-19.7511 230.174,-30.0463 236.048,-26.239"/>
</g>
<!-- Node7 -->
<g id="node8" class="node"><title>Node7</title>
<polygon fill="white" stroke="#bfbfbf" points="265,-0.5 265,-19.5 319,-19.5 319,-0.5 265,-0.5"/>
<text text-anchor="middle" x="292" y="-7.5" font-family="Helvetica,sans-Serif" font-size="10.00">iostream</text>
</g>
<!-- Node4&#45;&gt;Node7 -->
<g id="edge7" class="edge"><title>Node4&#45;&gt;Node7</title>
<path fill="none" stroke="midnightblue" d="M262.78,-56.083C267.672,-48.5341 274.827,-37.4948 280.833,-28.2298"/>
<polygon fill="midnightblue" stroke="midnightblue" points="283.826,-30.0463 286.328,-19.7511 277.952,-26.239 283.826,-30.0463"/>
</g>
<!-- Node8 -->
<g id="node9" class="node"><title>Node8</title>
<polygon fill="white" stroke="#bfbfbf" points="337,-0.5 337,-19.5 389,-19.5 389,-0.5 337,-0.5"/>
<text text-anchor="middle" x="363" y="-7.5" font-family="Helvetica,sans-Serif" font-size="10.00">sstream</text>
</g>
<!-- Node4&#45;&gt;Node8 -->
<g id="edge8" class="edge"><title>Node4&#45;&gt;Node8</title>
<path fill="none" stroke="midnightblue" d="M274.031,-56.324C291.03,-47.6641 317.376,-34.2424 336.993,-24.249"/>
<polygon fill="midnightblue" stroke="midnightblue" points="338.69,-27.3125 346.012,-19.6545 335.512,-21.0752 338.69,-27.3125"/>
</g>
<!-- Node9 -->
<g id="node10" class="node"><title>Node9</title>
<polygon fill="white" stroke="#bfbfbf" points="407.5,-0.5 407.5,-19.5 466.5,-19.5 466.5,-0.5 407.5,-0.5"/>
<text text-anchor="middle" x="437" y="-7.5" font-family="Helvetica,sans-Serif" font-size="10.00">stdexcept</text>
</g>
<!-- Node4&#45;&gt;Node9 -->
<g id="edge9" class="edge"><title>Node4&#45;&gt;Node9</title>
<path fill="none" stroke="midnightblue" d="M285.522,-56.4435C316.066,-47.2801 364.708,-32.6876 398.603,-22.5192"/>
<polygon fill="midnightblue" stroke="midnightblue" points="400.039,-25.7424 408.612,-19.5164 398.028,-19.0376 400.039,-25.7424"/>
</g>
</g>
</svg>
