<?xml version="1.0" encoding="UTF-8" standalone="no"?>
<!DOCTYPE svg PUBLIC "-//W3C//DTD SVG 1.1//EN"
 "http://www.w3.org/Graphics/SVG/1.1/DTD/svg11.dtd">
<!-- Generated by graphviz version 2.36.0 (20140111.2315)
 -->
<!-- Title: src/wallet/coincontrol.h Pages: 1 -->
<svg width="1299pt" height="420pt"
 viewBox="0.00 0.00 1298.89 420.00" xmlns="http://www.w3.org/2000/svg" xmlns:xlink="http://www.w3.org/1999/xlink">
<g id="graph0" class="graph" transform="scale(1 1) rotate(0) translate(4 416)">
<title>src/wallet/coincontrol.h</title>
<polygon fill="white" stroke="none" points="-4,4 -4,-416 1294.89,-416 1294.89,4 -4,4"/>
<!-- Node0 -->
<g id="node1" class="node"><title>Node0</title>
<polygon fill="#bfbfbf" stroke="black" points="560.369,-392.5 560.369,-411.5 677.369,-411.5 677.369,-392.5 560.369,-392.5"/>
<text text-anchor="middle" x="618.869" y="-399.5" font-family="Helvetica,sans-Serif" font-size="10.00">src/wallet/coincontrol.h</text>
</g>
<!-- Node1 -->
<g id="node2" class="node"><title>Node1</title>
<g id="a_node2"><a xlink:href="transaction_8h.html" target="_top" xlink:title="primitives/transaction.h">
<polygon fill="white" stroke="black" points="559.869,-336.5 559.869,-355.5 677.869,-355.5 677.869,-336.5 559.869,-336.5"/>
<text text-anchor="middle" x="618.869" y="-343.5" font-family="Helvetica,sans-Serif" font-size="10.00">primitives/transaction.h</text>
</a>
</g>
</g>
<!-- Node0&#45;&gt;Node1 -->
<g id="edge1" class="edge"><title>Node0&#45;&gt;Node1</title>
<path fill="none" stroke="midnightblue" d="M618.869,-392.083C618.869,-385.006 618.869,-374.861 618.869,-365.986"/>
<polygon fill="midnightblue" stroke="midnightblue" points="622.369,-365.751 618.869,-355.751 615.369,-365.751 622.369,-365.751"/>
</g>
<!-- Node2 -->
<g id="node3" class="node"><title>Node2</title>
<g id="a_node3"><a xlink:href="amount_8h.html" target="_top" xlink:title="amount.h">
<polygon fill="white" stroke="black" points="478.369,-280.5 478.369,-299.5 535.369,-299.5 535.369,-280.5 478.369,-280.5"/>
<text text-anchor="middle" x="506.869" y="-287.5" font-family="Helvetica,sans-Serif" font-size="10.00">amount.h</text>
</a>
</g>
</g>
<!-- Node1&#45;&gt;Node2 -->
<g id="edge2" class="edge"><title>Node1&#45;&gt;Node2</title>
<path fill="none" stroke="midnightblue" d="M600.874,-336.324C582.831,-327.625 554.822,-314.12 534.066,-304.113"/>
<polygon fill="midnightblue" stroke="midnightblue" points="535.347,-300.845 524.819,-299.655 532.306,-307.15 535.347,-300.845"/>
</g>
<!-- Node3 -->
<g id="node4" class="node"><title>Node3</title>
<g id="a_node4"><a xlink:href="serialize_8h.html" target="_top" xlink:title="serialize.h">
<polygon fill="white" stroke="black" points="333.369,-224.5 333.369,-243.5 394.369,-243.5 394.369,-224.5 333.369,-224.5"/>
<text text-anchor="middle" x="363.869" y="-231.5" font-family="Helvetica,sans-Serif" font-size="10.00">serialize.h</text>
</a>
</g>
</g>
<!-- Node1&#45;&gt;Node3 -->
<g id="edge43" class="edge"><title>Node1&#45;&gt;Node3</title>
<path fill="none" stroke="midnightblue" d="M580.582,-336.471C549.664,-328.889 505.439,-316.458 468.869,-300 437.532,-285.898 404.275,-263.974 383.787,-249.551"/>
<polygon fill="midnightblue" stroke="midnightblue" points="385.75,-246.652 375.577,-243.691 381.683,-252.35 385.75,-246.652"/>
</g>
<!-- Node22 -->
<g id="node23" class="node"><title>Node22</title>
<g id="a_node23"><a xlink:href="script_8h.html" target="_top" xlink:title="script/script.h">
<polygon fill="white" stroke="black" points="775.869,-224.5 775.869,-243.5 851.869,-243.5 851.869,-224.5 775.869,-224.5"/>
<text text-anchor="middle" x="813.869" y="-231.5" font-family="Helvetica,sans-Serif" font-size="10.00">script/script.h</text>
</a>
</g>
</g>
<!-- Node1&#45;&gt;Node22 -->
<g id="edge29" class="edge"><title>Node1&#45;&gt;Node22</title>
<path fill="none" stroke="midnightblue" d="M634.17,-336.368C667.988,-317.292 749.302,-271.422 789.927,-248.505"/>
<polygon fill="midnightblue" stroke="midnightblue" points="791.648,-251.553 798.639,-243.591 788.209,-245.456 791.648,-251.553"/>
</g>
<!-- Node26 -->
<g id="node27" class="node"><title>Node26</title>
<g id="a_node27"><a xlink:href="uint256_8h.html" target="_top" xlink:title="uint256.h">
<polygon fill="white" stroke="black" points="1036.87,-224.5 1036.87,-243.5 1092.87,-243.5 1092.87,-224.5 1036.87,-224.5"/>
<text text-anchor="middle" x="1064.87" y="-231.5" font-family="Helvetica,sans-Serif" font-size="10.00">uint256.h</text>
</a>
</g>
</g>
<!-- Node1&#45;&gt;Node26 -->
<g id="edge44" class="edge"><title>Node1&#45;&gt;Node26</title>
<path fill="none" stroke="midnightblue" d="M653.495,-336.46C735.605,-316.208 941.617,-265.398 1026.94,-244.354"/>
<polygon fill="midnightblue" stroke="midnightblue" points="1027.86,-247.732 1036.73,-241.939 1026.19,-240.936 1027.86,-247.732"/>
</g>
<!-- Node2&#45;&gt;Node3 -->
<g id="edge3" class="edge"><title>Node2&#45;&gt;Node3</title>
<path fill="none" stroke="midnightblue" d="M484.21,-280.444C460.467,-271.478 422.96,-257.314 396.13,-247.183"/>
<polygon fill="midnightblue" stroke="midnightblue" points="397.013,-243.775 386.422,-243.516 394.54,-250.324 397.013,-243.775"/>
</g>
<!-- Node15 -->
<g id="node16" class="node"><title>Node15</title>
<polygon fill="white" stroke="#bfbfbf" points="706.369,-168.5 706.369,-187.5 747.369,-187.5 747.369,-168.5 706.369,-168.5"/>
<text text-anchor="middle" x="726.869" y="-175.5" font-family="Helvetica,sans-Serif" font-size="10.00">string</text>
</g>
<!-- Node2&#45;&gt;Node15 -->
<g id="edge28" class="edge"><title>Node2&#45;&gt;Node15</title>
<path fill="none" stroke="midnightblue" d="M524.132,-280.368C562.526,-261.171 655.185,-214.842 700.721,-192.074"/>
<polygon fill="midnightblue" stroke="midnightblue" points="702.307,-195.194 709.686,-187.591 699.176,-188.933 702.307,-195.194"/>
</g>
<!-- Node20 -->
<g id="node21" class="node"><title>Node20</title>
<polygon fill="white" stroke="#bfbfbf" points="397.869,-112.5 397.869,-131.5 445.869,-131.5 445.869,-112.5 397.869,-112.5"/>
<text text-anchor="middle" x="421.869" y="-119.5" font-family="Helvetica,sans-Serif" font-size="10.00">stdlib.h</text>
</g>
<!-- Node2&#45;&gt;Node20 -->
<g id="edge27" class="edge"><title>Node2&#45;&gt;Node20</title>
<path fill="none" stroke="midnightblue" d="M499.917,-280.332C486.705,-263.479 457.78,-224.72 440.869,-188 433.953,-172.983 428.902,-154.85 425.753,-141.557"/>
<polygon fill="midnightblue" stroke="midnightblue" points="429.149,-140.702 423.557,-131.702 422.316,-142.224 429.149,-140.702"/>
</g>
<!-- Node4 -->
<g id="node5" class="node"><title>Node4</title>
<g id="a_node5"><a xlink:href="endian_8h.html" target="_top" xlink:title="compat/endian.h">
<polygon fill="white" stroke="black" points="838.369,-112.5 838.369,-131.5 927.369,-131.5 927.369,-112.5 838.369,-112.5"/>
<text text-anchor="middle" x="882.869" y="-119.5" font-family="Helvetica,sans-Serif" font-size="10.00">compat/endian.h</text>
</a>
</g>
</g>
<!-- Node3&#45;&gt;Node4 -->
<g id="edge4" class="edge"><title>Node3&#45;&gt;Node4</title>
<path fill="none" stroke="midnightblue" d="M394.655,-229.58C439.848,-223.998 526.42,-211.159 596.869,-188 616.51,-181.543 619.201,-174.374 638.869,-168 702.124,-147.5 777.812,-135.361 827.94,-128.953"/>
<polygon fill="midnightblue" stroke="midnightblue" points="828.433,-132.419 837.924,-127.71 827.568,-125.473 828.433,-132.419"/>
</g>
<!-- Node5 -->
<g id="node6" class="node"><title>Node5</title>
<polygon fill="white" stroke="#bfbfbf" points="915.369,-0.5 915.369,-19.5 964.369,-19.5 964.369,-0.5 915.369,-0.5"/>
<text text-anchor="middle" x="939.869" y="-7.5" font-family="Helvetica,sans-Serif" font-size="10.00">stdint.h</text>
</g>
<!-- Node3&#45;&gt;Node5 -->
<g id="edge16" class="edge"><title>Node3&#45;&gt;Node5</title>
<path fill="none" stroke="midnightblue" d="M333.198,-232.473C238.759,-230.298 -38.7024,-219.497 4.86875,-168 123.878,-27.3417 749.809,-12.6291 905.019,-11.1515"/>
<polygon fill="midnightblue" stroke="midnightblue" points="905.396,-14.6486 915.367,-11.0665 905.339,-7.64888 905.396,-14.6486"/>
</g>
<!-- Node7 -->
<g id="node8" class="node"><title>Node7</title>
<polygon fill="white" stroke="#bfbfbf" points="337.869,-168.5 337.869,-187.5 393.869,-187.5 393.869,-168.5 337.869,-168.5"/>
<text text-anchor="middle" x="365.869" y="-175.5" font-family="Helvetica,sans-Serif" font-size="10.00">algorithm</text>
</g>
<!-- Node3&#45;&gt;Node7 -->
<g id="edge8" class="edge"><title>Node3&#45;&gt;Node7</title>
<path fill="none" stroke="midnightblue" d="M364.199,-224.083C364.461,-217.006 364.837,-206.861 365.166,-197.986"/>
<polygon fill="midnightblue" stroke="midnightblue" points="368.672,-197.874 365.545,-187.751 361.677,-197.615 368.672,-197.874"/>
</g>
<!-- Node8 -->
<g id="node9" class="node"><title>Node8</title>
<polygon fill="white" stroke="#bfbfbf" points="624.869,-112.5 624.869,-131.5 676.869,-131.5 676.869,-112.5 624.869,-112.5"/>
<text text-anchor="middle" x="650.869" y="-119.5" font-family="Helvetica,sans-Serif" font-size="10.00">assert.h</text>
</g>
<!-- Node3&#45;&gt;Node8 -->
<g id="edge9" class="edge"><title>Node3&#45;&gt;Node8</title>
<path fill="none" stroke="midnightblue" d="M394.537,-226.295C427.187,-218.716 480.079,-205.167 523.869,-188 543.931,-180.135 595.392,-152.933 626.301,-136.314"/>
<polygon fill="midnightblue" stroke="midnightblue" points="628.035,-139.355 635.176,-131.529 624.713,-133.194 628.035,-139.355"/>
</g>
<!-- Node9 -->
<g id="node10" class="node"><title>Node9</title>
<polygon fill="white" stroke="#bfbfbf" points="14.3687,-168.5 14.3687,-187.5 43.3687,-187.5 43.3687,-168.5 14.3687,-168.5"/>
<text text-anchor="middle" x="28.8687" y="-175.5" font-family="Helvetica,sans-Serif" font-size="10.00">ios</text>
</g>
<!-- Node3&#45;&gt;Node9 -->
<g id="edge10" class="edge"><title>Node3&#45;&gt;Node9</title>
<path fill="none" stroke="midnightblue" d="M333.287,-230.93C278.576,-226.73 160.377,-215.397 53.7478,-188.023"/>
<polygon fill="midnightblue" stroke="midnightblue" points="54.3584,-184.564 43.7975,-185.412 52.5817,-191.335 54.3584,-184.564"/>
</g>
<!-- Node10 -->
<g id="node11" class="node"><title>Node10</title>
<polygon fill="white" stroke="#bfbfbf" points="647.869,-168.5 647.869,-187.5 687.869,-187.5 687.869,-168.5 647.869,-168.5"/>
<text text-anchor="middle" x="667.869" y="-175.5" font-family="Helvetica,sans-Serif" font-size="10.00">limits</text>
</g>
<!-- Node3&#45;&gt;Node10 -->
<g id="edge11" class="edge"><title>Node3&#45;&gt;Node10</title>
<path fill="none" stroke="midnightblue" d="M394.413,-228.861C444.637,-221.842 547.689,-206.545 633.869,-188 635.145,-187.725 636.445,-187.434 637.756,-187.13"/>
<polygon fill="midnightblue" stroke="midnightblue" points="638.941,-190.443 647.808,-184.643 637.26,-183.647 638.941,-190.443"/>
</g>
<!-- Node11 -->
<g id="node12" class="node"><title>Node11</title>
<polygon fill="white" stroke="#bfbfbf" points="61.3687,-168.5 61.3687,-187.5 90.3687,-187.5 90.3687,-168.5 61.3687,-168.5"/>
<text text-anchor="middle" x="75.8687" y="-175.5" font-family="Helvetica,sans-Serif" font-size="10.00">list</text>
</g>
<!-- Node3&#45;&gt;Node11 -->
<g id="edge12" class="edge"><title>Node3&#45;&gt;Node11</title>
<path fill="none" stroke="midnightblue" d="M333.221,-229.861C285.156,-224.496 189.121,-211.997 100.471,-188.023"/>
<polygon fill="midnightblue" stroke="midnightblue" points="101.383,-184.644 90.8126,-185.356 99.5204,-191.391 101.383,-184.644"/>
</g>
<!-- Node12 -->
<g id="node13" class="node"><title>Node12</title>
<polygon fill="white" stroke="#bfbfbf" points="108.369,-168.5 108.369,-187.5 143.369,-187.5 143.369,-168.5 108.369,-168.5"/>
<text text-anchor="middle" x="125.869" y="-175.5" font-family="Helvetica,sans-Serif" font-size="10.00">map</text>
</g>
<!-- Node3&#45;&gt;Node12 -->
<g id="edge13" class="edge"><title>Node3&#45;&gt;Node12</title>
<path fill="none" stroke="midnightblue" d="M333.213,-227.574C293.776,-220.353 223.018,-206.586 153.325,-187.865"/>
<polygon fill="midnightblue" stroke="midnightblue" points="154.069,-184.441 143.501,-185.191 152.231,-191.195 154.069,-184.441"/>
</g>
<!-- Node13 -->
<g id="node14" class="node"><title>Node13</title>
<polygon fill="white" stroke="#bfbfbf" points="161.869,-168.5 161.869,-187.5 213.869,-187.5 213.869,-168.5 161.869,-168.5"/>
<text text-anchor="middle" x="187.869" y="-175.5" font-family="Helvetica,sans-Serif" font-size="10.00">memory</text>
</g>
<!-- Node3&#45;&gt;Node13 -->
<g id="edge14" class="edge"><title>Node3&#45;&gt;Node13</title>
<path fill="none" stroke="midnightblue" d="M335.981,-224.444C305.588,-215.118 256.87,-200.171 223.672,-189.985"/>
<polygon fill="midnightblue" stroke="midnightblue" points="224.492,-186.576 213.905,-186.988 222.438,-193.268 224.492,-186.576"/>
</g>
<!-- Node14 -->
<g id="node15" class="node"><title>Node14</title>
<polygon fill="white" stroke="#bfbfbf" points="231.869,-168.5 231.869,-187.5 261.869,-187.5 261.869,-168.5 231.869,-168.5"/>
<text text-anchor="middle" x="246.869" y="-175.5" font-family="Helvetica,sans-Serif" font-size="10.00">set</text>
</g>
<!-- Node3&#45;&gt;Node14 -->
<g id="edge15" class="edge"><title>Node3&#45;&gt;Node14</title>
<path fill="none" stroke="midnightblue" d="M345.33,-224.444C325.326,-215.211 293.38,-200.467 271.329,-190.289"/>
<polygon fill="midnightblue" stroke="midnightblue" points="272.519,-186.984 261.973,-185.971 269.585,-193.339 272.519,-186.984"/>
</g>
<!-- Node3&#45;&gt;Node15 -->
<g id="edge17" class="edge"><title>Node3&#45;&gt;Node15</title>
<path fill="none" stroke="midnightblue" d="M394.45,-230.488C451.822,-225.428 579.579,-212.521 696.49,-187.745"/>
<polygon fill="midnightblue" stroke="midnightblue" points="697.284,-191.155 706.323,-185.628 695.81,-184.312 697.284,-191.155"/>
</g>
<!-- Node16 -->
<g id="node17" class="node"><title>Node16</title>
<polygon fill="white" stroke="#bfbfbf" points="714.369,-112.5 714.369,-131.5 763.369,-131.5 763.369,-112.5 714.369,-112.5"/>
<text text-anchor="middle" x="738.869" y="-119.5" font-family="Helvetica,sans-Serif" font-size="10.00">string.h</text>
</g>
<!-- Node3&#45;&gt;Node16 -->
<g id="edge18" class="edge"><title>Node3&#45;&gt;Node16</title>
<path fill="none" stroke="midnightblue" d="M394.383,-227.679C433.151,-220.529 501.876,-206.543 558.869,-188 580.456,-180.976 584.657,-176.088 605.869,-168 638.991,-155.37 677.4,-142.569 704.401,-133.865"/>
<polygon fill="midnightblue" stroke="midnightblue" points="705.701,-137.124 714.156,-130.74 703.565,-130.458 705.701,-137.124"/>
</g>
<!-- Node17 -->
<g id="node18" class="node"><title>Node17</title>
<polygon fill="white" stroke="#bfbfbf" points="279.869,-168.5 279.869,-187.5 319.869,-187.5 319.869,-168.5 279.869,-168.5"/>
<text text-anchor="middle" x="299.869" y="-175.5" font-family="Helvetica,sans-Serif" font-size="10.00">utility</text>
</g>
<!-- Node3&#45;&gt;Node17 -->
<g id="edge19" class="edge"><title>Node3&#45;&gt;Node17</title>
<path fill="none" stroke="midnightblue" d="M353.586,-224.324C344.032,-216.263 329.589,-204.077 318.084,-194.369"/>
<polygon fill="midnightblue" stroke="midnightblue" points="320.239,-191.608 310.339,-187.834 315.724,-196.958 320.239,-191.608"/>
</g>
<!-- Node18 -->
<g id="node19" class="node"><title>Node18</title>
<polygon fill="white" stroke="#bfbfbf" points="841.869,-168.5 841.869,-187.5 885.869,-187.5 885.869,-168.5 841.869,-168.5"/>
<text text-anchor="middle" x="863.869" y="-175.5" font-family="Helvetica,sans-Serif" font-size="10.00">vector</text>
</g>
<!-- Node3&#45;&gt;Node18 -->
<g id="edge20" class="edge"><title>Node3&#45;&gt;Node18</title>
<path fill="none" stroke="midnightblue" d="M394.393,-229.703C483.214,-220.111 740.974,-192.273 831.764,-182.467"/>
<polygon fill="midnightblue" stroke="midnightblue" points="832.176,-185.943 841.742,-181.39 831.424,-178.984 832.176,-185.943"/>
</g>
<!-- Node19 -->
<g id="node20" class="node"><title>Node19</title>
<g id="a_node20"><a xlink:href="prevector_8h.html" target="_top" xlink:title="prevector.h">
<polygon fill="white" stroke="black" points="450.369,-168.5 450.369,-187.5 515.369,-187.5 515.369,-168.5 450.369,-168.5"/>
<text text-anchor="middle" x="482.869" y="-175.5" font-family="Helvetica,sans-Serif" font-size="10.00">prevector.h</text>
</a>
</g>
</g>
<!-- Node3&#45;&gt;Node19 -->
<g id="edge21" class="edge"><title>Node3&#45;&gt;Node19</title>
<path fill="none" stroke="midnightblue" d="M382.725,-224.444C402.135,-215.636 432.599,-201.812 454.833,-191.722"/>
<polygon fill="midnightblue" stroke="midnightblue" points="456.441,-194.836 464.101,-187.516 453.548,-188.462 456.441,-194.836"/>
</g>
<!-- Node4&#45;&gt;Node5 -->
<g id="edge5" class="edge"><title>Node4&#45;&gt;Node5</title>
<path fill="none" stroke="midnightblue" d="M891.657,-112.453C899.981,-103.918 912.301,-90.0751 919.869,-76 927.731,-61.3764 932.991,-43.2051 936.134,-29.7964"/>
<polygon fill="midnightblue" stroke="midnightblue" points="939.596,-30.3495 938.288,-19.8356 932.754,-28.87 939.596,-30.3495"/>
</g>
<!-- Node6 -->
<g id="node7" class="node"><title>Node6</title>
<g id="a_node7"><a xlink:href="byteswap_8h.html" target="_top" xlink:title="compat/byteswap.h">
<polygon fill="white" stroke="black" points="809.869,-56.5 809.869,-75.5 911.869,-75.5 911.869,-56.5 809.869,-56.5"/>
<text text-anchor="middle" x="860.869" y="-63.5" font-family="Helvetica,sans-Serif" font-size="10.00">compat/byteswap.h</text>
</a>
</g>
</g>
<!-- Node4&#45;&gt;Node6 -->
<g id="edge6" class="edge"><title>Node4&#45;&gt;Node6</title>
<path fill="none" stroke="midnightblue" d="M879.236,-112.083C876.257,-104.77 871.943,-94.1814 868.244,-85.1034"/>
<polygon fill="midnightblue" stroke="midnightblue" points="871.448,-83.6914 864.434,-75.7511 864.966,-86.3326 871.448,-83.6914"/>
</g>
<!-- Node6&#45;&gt;Node5 -->
<g id="edge7" class="edge"><title>Node6&#45;&gt;Node5</title>
<path fill="none" stroke="midnightblue" d="M873.561,-56.324C885.77,-47.979 904.447,-35.2122 918.872,-25.3524"/>
<polygon fill="midnightblue" stroke="midnightblue" points="920.927,-28.1871 927.208,-19.6545 916.977,-22.4082 920.927,-28.1871"/>
</g>
<!-- Node19&#45;&gt;Node5 -->
<g id="edge24" class="edge"><title>Node19&#45;&gt;Node5</title>
<path fill="none" stroke="midnightblue" d="M498.484,-168.396C522.98,-155.124 572.164,-129.374 615.869,-112 718.866,-71.0544 845.445,-35.7472 905.332,-19.9017"/>
<polygon fill="midnightblue" stroke="midnightblue" points="906.257,-23.2775 915.039,-17.3497 904.477,-16.5075 906.257,-23.2775"/>
</g>
<!-- Node19&#45;&gt;Node8 -->
<g id="edge22" class="edge"><title>Node19&#45;&gt;Node8</title>
<path fill="none" stroke="midnightblue" d="M509.489,-168.444C537.958,-159.293 583.271,-144.728 614.9,-134.561"/>
<polygon fill="midnightblue" stroke="midnightblue" points="616.201,-137.82 624.65,-131.428 614.058,-131.156 616.201,-137.82"/>
</g>
<!-- Node19&#45;&gt;Node16 -->
<g id="edge25" class="edge"><title>Node19&#45;&gt;Node16</title>
<path fill="none" stroke="midnightblue" d="M515.551,-170.106C564.001,-159.886 654.483,-140.8 704.105,-130.333"/>
<polygon fill="midnightblue" stroke="midnightblue" points="704.982,-133.725 714.044,-128.237 703.537,-126.876 704.982,-133.725"/>
</g>
<!-- Node19&#45;&gt;Node20 -->
<g id="edge23" class="edge"><title>Node19&#45;&gt;Node20</title>
<path fill="none" stroke="midnightblue" d="M473.068,-168.324C464.051,-160.341 450.463,-148.313 439.551,-138.653"/>
<polygon fill="midnightblue" stroke="midnightblue" points="441.655,-135.842 431.848,-131.834 437.015,-141.083 441.655,-135.842"/>
</g>
<!-- Node21 -->
<g id="node22" class="node"><title>Node21</title>
<polygon fill="white" stroke="#bfbfbf" points="464.369,-112.5 464.369,-131.5 511.369,-131.5 511.369,-112.5 464.369,-112.5"/>
<text text-anchor="middle" x="487.869" y="-119.5" font-family="Helvetica,sans-Serif" font-size="10.00">iterator</text>
</g>
<!-- Node19&#45;&gt;Node21 -->
<g id="edge26" class="edge"><title>Node19&#45;&gt;Node21</title>
<path fill="none" stroke="midnightblue" d="M483.694,-168.083C484.35,-161.006 485.289,-150.861 486.111,-141.986"/>
<polygon fill="midnightblue" stroke="midnightblue" points="489.621,-142.031 487.058,-131.751 482.651,-141.386 489.621,-142.031"/>
</g>
<!-- Node22&#45;&gt;Node5 -->
<g id="edge39" class="edge"><title>Node22&#45;&gt;Node5</title>
<path fill="none" stroke="midnightblue" d="M852.196,-232.788C886.104,-230.306 933.821,-220.709 957.869,-188 993.186,-139.962 965.009,-63.7334 949.01,-29.1393"/>
<polygon fill="midnightblue" stroke="midnightblue" points="952.013,-27.3077 944.52,-19.8172 945.706,-30.3454 952.013,-27.3077"/>
</g>
<!-- Node22&#45;&gt;Node8 -->
<g id="edge35" class="edge"><title>Node22&#45;&gt;Node8</title>
<path fill="none" stroke="midnightblue" d="M808.047,-224.324C798.539,-210.72 778.46,-184.25 755.869,-168 734.881,-152.903 708.042,-141.513 686.753,-133.969"/>
<polygon fill="midnightblue" stroke="midnightblue" points="687.696,-130.593 677.101,-130.675 685.435,-137.218 687.696,-130.593"/>
</g>
<!-- Node22&#45;&gt;Node10 -->
<g id="edge37" class="edge"><title>Node22&#45;&gt;Node10</title>
<path fill="none" stroke="midnightblue" d="M790.735,-224.444C765.527,-215.12 725.125,-200.177 697.586,-189.991"/>
<polygon fill="midnightblue" stroke="midnightblue" points="698.667,-186.659 688.074,-186.473 696.238,-193.225 698.667,-186.659"/>
</g>
<!-- Node22&#45;&gt;Node15 -->
<g id="edge41" class="edge"><title>Node22&#45;&gt;Node15</title>
<path fill="none" stroke="midnightblue" d="M799.891,-224.324C786.319,-215.9 765.489,-202.971 749.544,-193.074"/>
<polygon fill="midnightblue" stroke="midnightblue" points="751.154,-189.954 740.812,-187.655 747.463,-195.902 751.154,-189.954"/>
</g>
<!-- Node22&#45;&gt;Node16 -->
<g id="edge40" class="edge"><title>Node22&#45;&gt;Node16</title>
<path fill="none" stroke="midnightblue" d="M812.114,-224.373C809.154,-211.294 802.244,-186.06 789.869,-168 781.838,-156.281 770.091,-145.638 759.895,-137.648"/>
<polygon fill="midnightblue" stroke="midnightblue" points="761.913,-134.786 751.811,-131.595 757.718,-140.39 761.913,-134.786"/>
</g>
<!-- Node22&#45;&gt;Node18 -->
<g id="edge42" class="edge"><title>Node22&#45;&gt;Node18</title>
<path fill="none" stroke="midnightblue" d="M822.125,-224.083C829.333,-216.298 839.979,-204.801 848.715,-195.367"/>
<polygon fill="midnightblue" stroke="midnightblue" points="851.54,-197.467 855.766,-187.751 846.404,-192.711 851.54,-197.467"/>
</g>
<!-- Node22&#45;&gt;Node19 -->
<g id="edge34" class="edge"><title>Node22&#45;&gt;Node19</title>
<path fill="none" stroke="midnightblue" d="M775.575,-226.753C713.224,-216.581 590.213,-196.512 525.292,-185.921"/>
<polygon fill="midnightblue" stroke="midnightblue" points="525.823,-182.461 515.39,-184.306 524.696,-189.37 525.823,-182.461"/>
</g>
<!-- Node23 -->
<g id="node24" class="node"><title>Node23</title>
<g id="a_node24"><a xlink:href="common_8h.html" target="_top" xlink:title="crypto/common.h">
<polygon fill="white" stroke="black" points="1121.87,-168.5 1121.87,-187.5 1213.87,-187.5 1213.87,-168.5 1121.87,-168.5"/>
<text text-anchor="middle" x="1167.87" y="-175.5" font-family="Helvetica,sans-Serif" font-size="10.00">crypto/common.h</text>
</a>
</g>
</g>
<!-- Node22&#45;&gt;Node23 -->
<g id="edge30" class="edge"><title>Node22&#45;&gt;Node23</title>
<path fill="none" stroke="midnightblue" d="M852.089,-227.17C914.542,-217.643 1038.77,-198.693 1111.4,-187.613"/>
<polygon fill="midnightblue" stroke="midnightblue" points="1112.37,-191.006 1121.73,-186.038 1111.32,-184.086 1112.37,-191.006"/>
</g>
<!-- Node24 -->
<g id="node25" class="node"><title>Node24</title>
<polygon fill="white" stroke="#bfbfbf" points="904.369,-168.5 904.369,-187.5 949.369,-187.5 949.369,-168.5 904.369,-168.5"/>
<text text-anchor="middle" x="926.869" y="-175.5" font-family="Helvetica,sans-Serif" font-size="10.00">climits</text>
</g>
<!-- Node22&#45;&gt;Node24 -->
<g id="edge36" class="edge"><title>Node22&#45;&gt;Node24</title>
<path fill="none" stroke="midnightblue" d="M831.774,-224.444C850.123,-215.675 878.874,-201.935 899.962,-191.858"/>
<polygon fill="midnightblue" stroke="midnightblue" points="901.534,-194.986 909.047,-187.516 898.516,-188.67 901.534,-194.986"/>
</g>
<!-- Node25 -->
<g id="node26" class="node"><title>Node25</title>
<polygon fill="white" stroke="#bfbfbf" points="1006.37,-168.5 1006.37,-187.5 1065.37,-187.5 1065.37,-168.5 1006.37,-168.5"/>
<text text-anchor="middle" x="1035.87" y="-175.5" font-family="Helvetica,sans-Serif" font-size="10.00">stdexcept</text>
</g>
<!-- Node22&#45;&gt;Node25 -->
<g id="edge38" class="edge"><title>Node22&#45;&gt;Node25</title>
<path fill="none" stroke="midnightblue" d="M849.045,-224.444C889.142,-214.69 954.525,-198.786 996.348,-188.613"/>
<polygon fill="midnightblue" stroke="midnightblue" points="997.296,-191.985 1006.19,-186.22 995.641,-185.183 997.296,-191.985"/>
</g>
<!-- Node23&#45;&gt;Node4 -->
<g id="edge33" class="edge"><title>Node23&#45;&gt;Node4</title>
<path fill="none" stroke="midnightblue" d="M1122.71,-168.444C1072.58,-158.944 991.649,-143.611 937.862,-133.42"/>
<polygon fill="midnightblue" stroke="midnightblue" points="938.293,-129.939 927.817,-131.516 936.99,-136.817 938.293,-129.939"/>
</g>
<!-- Node23&#45;&gt;Node5 -->
<g id="edge31" class="edge"><title>Node23&#45;&gt;Node5</title>
<path fill="none" stroke="midnightblue" d="M1155.93,-168.309C1118.99,-141.416 1006.28,-59.3518 960.013,-25.6665"/>
<polygon fill="midnightblue" stroke="midnightblue" points="961.832,-22.6616 951.688,-19.6051 957.712,-28.3206 961.832,-22.6616"/>
</g>
<!-- Node23&#45;&gt;Node16 -->
<g id="edge32" class="edge"><title>Node23&#45;&gt;Node16</title>
<path fill="none" stroke="midnightblue" d="M1121.7,-169.944C1117.03,-169.269 1112.36,-168.61 1107.87,-168 985.201,-151.323 839.187,-134.373 773.686,-126.922"/>
<polygon fill="midnightblue" stroke="midnightblue" points="773.844,-123.418 763.513,-125.768 773.055,-130.373 773.844,-123.418"/>
</g>
<!-- Node26&#45;&gt;Node5 -->
<g id="edge48" class="edge"><title>Node26&#45;&gt;Node5</title>
<path fill="none" stroke="midnightblue" d="M1092.96,-231.583C1147.09,-228.201 1262.66,-217.607 1286.87,-188 1292.5,-181.119 1291.69,-175.469 1286.87,-168 1215.97,-58.1114 1047.52,-24.3088 974.554,-14.6169"/>
<polygon fill="midnightblue" stroke="midnightblue" points="974.863,-11.1283 964.505,-13.3557 973.991,-18.0738 974.863,-11.1283"/>
</g>
<!-- Node26&#45;&gt;Node8 -->
<g id="edge45" class="edge"><title>Node26&#45;&gt;Node8</title>
<path fill="none" stroke="midnightblue" d="M1069.95,-224.152C1077.14,-210.312 1087.95,-183.525 1073.87,-168 1046.19,-137.49 745.709,-137.389 704.869,-132 699.013,-131.227 692.819,-130.3 686.795,-129.337"/>
<polygon fill="midnightblue" stroke="midnightblue" points="687.344,-125.881 676.908,-127.707 686.205,-132.787 687.344,-125.881"/>
</g>
<!-- Node26&#45;&gt;Node15 -->
<g id="edge49" class="edge"><title>Node26&#45;&gt;Node15</title>
<path fill="none" stroke="midnightblue" d="M1036.63,-228.489C973.809,-218.452 822.893,-194.341 757.711,-183.927"/>
<polygon fill="midnightblue" stroke="midnightblue" points="758.079,-180.442 747.652,-182.32 756.974,-187.354 758.079,-180.442"/>
</g>
<!-- Node26&#45;&gt;Node18 -->
<g id="edge50" class="edge"><title>Node26&#45;&gt;Node18</title>
<path fill="none" stroke="midnightblue" d="M1036.73,-225.635C1003.16,-216.82 945.361,-201.548 895.869,-188 895.768,-187.972 895.667,-187.945 895.566,-187.917"/>
<polygon fill="midnightblue" stroke="midnightblue" points="896.463,-184.534 885.891,-185.237 894.594,-191.28 896.463,-184.534"/>
</g>
<!-- Node26&#45;&gt;Node23 -->
<g id="edge51" class="edge"><title>Node26&#45;&gt;Node23</title>
<path fill="none" stroke="midnightblue" d="M1081.42,-224.324C1097.86,-215.703 1123.3,-202.364 1142.34,-192.386"/>
<polygon fill="midnightblue" stroke="midnightblue" points="1144.13,-195.398 1151.36,-187.655 1140.88,-189.198 1144.13,-195.398"/>
</g>
<!-- Node26&#45;&gt;Node25 -->
<g id="edge47" class="edge"><title>Node26&#45;&gt;Node25</title>
<path fill="none" stroke="midnightblue" d="M1060.08,-224.083C1056.11,-216.691 1050.34,-205.953 1045.43,-196.811"/>
<polygon fill="midnightblue" stroke="midnightblue" points="1048.38,-194.905 1040.57,-187.751 1042.22,-198.217 1048.38,-194.905"/>
</g>
<!-- Node27 -->
<g id="node28" class="node"><title>Node27</title>
<polygon fill="white" stroke="#bfbfbf" points="1231.87,-168.5 1231.87,-187.5 1277.87,-187.5 1277.87,-168.5 1231.87,-168.5"/>
<text text-anchor="middle" x="1254.87" y="-175.5" font-family="Helvetica,sans-Serif" font-size="10.00">cstring</text>
</g>
<!-- Node26&#45;&gt;Node27 -->
<g id="edge46" class="edge"><title>Node26&#45;&gt;Node27</title>
<path fill="none" stroke="midnightblue" d="M1092.9,-225.032C1127.34,-215.244 1185.67,-198.666 1222.13,-188.304"/>
<polygon fill="midnightblue" stroke="midnightblue" points="1223.14,-191.657 1231.8,-185.557 1221.22,-184.924 1223.14,-191.657"/>
</g>
</g>
</svg>
