<?xml version="1.0" encoding="UTF-8" standalone="no"?>
<!DOCTYPE svg PUBLIC "-//W3C//DTD SVG 1.1//EN"
 "http://www.w3.org/Graphics/SVG/1.1/DTD/svg11.dtd">
<!-- Generated by graphviz version 2.36.0 (20140111.2315)
 -->
<!-- Title: src/qt/coincontroltreewidget.cpp Pages: 1 -->
<svg width="1185pt" height="364pt"
 viewBox="0.00 0.00 1185.00 364.00" xmlns="http://www.w3.org/2000/svg" xmlns:xlink="http://www.w3.org/1999/xlink">
<g id="graph0" class="graph" transform="scale(1 1) rotate(0) translate(4 360)">
<title>src/qt/coincontroltreewidget.cpp</title>
<polygon fill="white" stroke="none" points="-4,4 -4,-360 1181,-360 1181,4 -4,4"/>
<!-- Node0 -->
<g id="node1" class="node"><title>Node0</title>
<polygon fill="#bfbfbf" stroke="black" points="201.5,-336.5 201.5,-355.5 356.5,-355.5 356.5,-336.5 201.5,-336.5"/>
<text text-anchor="middle" x="279" y="-343.5" font-family="Helvetica,sans-Serif" font-size="10.00">src/qt/coincontroltreewidget.cpp</text>
</g>
<!-- Node1 -->
<g id="node2" class="node"><title>Node1</title>
<g id="a_node2"><a xlink:href="coincontroltreewidget_8h.html" target="_top" xlink:title="coincontroltreewidget.h">
<polygon fill="white" stroke="black" points="67.5,-280.5 67.5,-299.5 184.5,-299.5 184.5,-280.5 67.5,-280.5"/>
<text text-anchor="middle" x="126" y="-287.5" font-family="Helvetica,sans-Serif" font-size="10.00">coincontroltreewidget.h</text>
</a>
</g>
</g>
<!-- Node0&#45;&gt;Node1 -->
<g id="edge1" class="edge"><title>Node0&#45;&gt;Node1</title>
<path fill="none" stroke="midnightblue" d="M254.757,-336.444C229.129,-327.399 188.515,-313.064 159.762,-302.916"/>
<polygon fill="midnightblue" stroke="midnightblue" points="160.725,-299.544 150.13,-299.516 158.395,-306.145 160.725,-299.544"/>
</g>
<!-- Node4 -->
<g id="node5" class="node"><title>Node4</title>
<g id="a_node5"><a xlink:href="coincontroldialog_8h.html" target="_top" xlink:title="coincontroldialog.h">
<polygon fill="white" stroke="black" points="384,-280.5 384,-299.5 482,-299.5 482,-280.5 384,-280.5"/>
<text text-anchor="middle" x="433" y="-287.5" font-family="Helvetica,sans-Serif" font-size="10.00">coincontroldialog.h</text>
</a>
</g>
</g>
<!-- Node0&#45;&gt;Node4 -->
<g id="edge4" class="edge"><title>Node0&#45;&gt;Node4</title>
<path fill="none" stroke="midnightblue" d="M303.402,-336.444C329.197,-327.399 370.077,-313.064 399.018,-302.916"/>
<polygon fill="midnightblue" stroke="midnightblue" points="400.434,-306.128 408.712,-299.516 398.118,-299.523 400.434,-306.128"/>
</g>
<!-- Node2 -->
<g id="node3" class="node"><title>Node2</title>
<polygon fill="white" stroke="#bfbfbf" points="92.5,-224.5 92.5,-243.5 159.5,-243.5 159.5,-224.5 92.5,-224.5"/>
<text text-anchor="middle" x="126" y="-231.5" font-family="Helvetica,sans-Serif" font-size="10.00">QKeyEvent</text>
</g>
<!-- Node1&#45;&gt;Node2 -->
<g id="edge2" class="edge"><title>Node1&#45;&gt;Node2</title>
<path fill="none" stroke="midnightblue" d="M126,-280.083C126,-273.006 126,-262.861 126,-253.986"/>
<polygon fill="midnightblue" stroke="midnightblue" points="129.5,-253.751 126,-243.751 122.5,-253.751 129.5,-253.751"/>
</g>
<!-- Node3 -->
<g id="node4" class="node"><title>Node3</title>
<polygon fill="white" stroke="#bfbfbf" points="0,-224.5 0,-243.5 74,-243.5 74,-224.5 0,-224.5"/>
<text text-anchor="middle" x="37" y="-231.5" font-family="Helvetica,sans-Serif" font-size="10.00">QTreeWidget</text>
</g>
<!-- Node1&#45;&gt;Node3 -->
<g id="edge3" class="edge"><title>Node1&#45;&gt;Node3</title>
<path fill="none" stroke="midnightblue" d="M111.701,-280.324C97.8171,-271.9 76.5076,-258.971 60.1963,-249.074"/>
<polygon fill="midnightblue" stroke="midnightblue" points="61.6289,-245.85 51.2639,-243.655 57.9978,-251.834 61.6289,-245.85"/>
</g>
<!-- Node5 -->
<g id="node6" class="node"><title>Node5</title>
<g id="a_node6"><a xlink:href="amount_8h.html" target="_top" xlink:title="amount.h">
<polygon fill="white" stroke="black" points="688.5,-224.5 688.5,-243.5 745.5,-243.5 745.5,-224.5 688.5,-224.5"/>
<text text-anchor="middle" x="717" y="-231.5" font-family="Helvetica,sans-Serif" font-size="10.00">amount.h</text>
</a>
</g>
</g>
<!-- Node4&#45;&gt;Node5 -->
<g id="edge5" class="edge"><title>Node4&#45;&gt;Node5</title>
<path fill="none" stroke="midnightblue" d="M482.154,-280.778C529.777,-272.638 604.269,-259.454 678.419,-244.031"/>
<polygon fill="midnightblue" stroke="midnightblue" points="679.331,-247.416 688.402,-241.94 677.896,-240.564 679.331,-247.416"/>
</g>
<!-- Node25 -->
<g id="node26" class="node"><title>Node25</title>
<polygon fill="white" stroke="#bfbfbf" points="763.5,-224.5 763.5,-243.5 852.5,-243.5 852.5,-224.5 763.5,-224.5"/>
<text text-anchor="middle" x="808" y="-231.5" font-family="Helvetica,sans-Serif" font-size="10.00">QAbstractButton</text>
</g>
<!-- Node4&#45;&gt;Node25 -->
<g id="edge32" class="edge"><title>Node4&#45;&gt;Node25</title>
<path fill="none" stroke="midnightblue" d="M482.002,-282.531C543.038,-274.385 650.772,-259.715 753.319,-244.071"/>
<polygon fill="midnightblue" stroke="midnightblue" points="753.87,-247.527 763.225,-242.554 752.811,-240.608 753.87,-247.527"/>
</g>
<!-- Node26 -->
<g id="node27" class="node"><title>Node26</title>
<polygon fill="white" stroke="#bfbfbf" points="178,-224.5 178,-243.5 230,-243.5 230,-224.5 178,-224.5"/>
<text text-anchor="middle" x="204" y="-231.5" font-family="Helvetica,sans-Serif" font-size="10.00">QAction</text>
</g>
<!-- Node4&#45;&gt;Node26 -->
<g id="edge33" class="edge"><title>Node4&#45;&gt;Node26</title>
<path fill="none" stroke="midnightblue" d="M395.02,-280.471C357.928,-272.079 299.629,-258.724 240.275,-244.272"/>
<polygon fill="midnightblue" stroke="midnightblue" points="240.901,-240.822 230.356,-241.849 239.24,-247.622 240.901,-240.822"/>
</g>
<!-- Node27 -->
<g id="node28" class="node"><title>Node27</title>
<polygon fill="white" stroke="#bfbfbf" points="248,-224.5 248,-243.5 300,-243.5 300,-224.5 248,-224.5"/>
<text text-anchor="middle" x="274" y="-231.5" font-family="Helvetica,sans-Serif" font-size="10.00">QDialog</text>
</g>
<!-- Node4&#45;&gt;Node27 -->
<g id="edge34" class="edge"><title>Node4&#45;&gt;Node27</title>
<path fill="none" stroke="midnightblue" d="M407.806,-280.444C381.057,-271.359 338.597,-256.939 308.695,-246.783"/>
<polygon fill="midnightblue" stroke="midnightblue" points="309.671,-243.418 299.076,-243.516 307.419,-250.046 309.671,-243.418"/>
</g>
<!-- Node28 -->
<g id="node29" class="node"><title>Node28</title>
<polygon fill="white" stroke="#bfbfbf" points="318,-224.5 318,-243.5 358,-243.5 358,-224.5 318,-224.5"/>
<text text-anchor="middle" x="338" y="-231.5" font-family="Helvetica,sans-Serif" font-size="10.00">QList</text>
</g>
<!-- Node4&#45;&gt;Node28 -->
<g id="edge35" class="edge"><title>Node4&#45;&gt;Node28</title>
<path fill="none" stroke="midnightblue" d="M417.737,-280.324C402.779,-271.822 379.745,-258.729 362.273,-248.797"/>
<polygon fill="midnightblue" stroke="midnightblue" points="363.649,-245.553 353.226,-243.655 360.19,-251.639 363.649,-245.553"/>
</g>
<!-- Node29 -->
<g id="node30" class="node"><title>Node29</title>
<polygon fill="white" stroke="#bfbfbf" points="376,-224.5 376,-243.5 424,-243.5 424,-224.5 376,-224.5"/>
<text text-anchor="middle" x="400" y="-231.5" font-family="Helvetica,sans-Serif" font-size="10.00">QMenu</text>
</g>
<!-- Node4&#45;&gt;Node29 -->
<g id="edge36" class="edge"><title>Node4&#45;&gt;Node29</title>
<path fill="none" stroke="midnightblue" d="M427.551,-280.083C422.986,-272.613 416.332,-261.724 410.707,-252.52"/>
<polygon fill="midnightblue" stroke="midnightblue" points="413.549,-250.459 405.348,-243.751 407.576,-254.109 413.549,-250.459"/>
</g>
<!-- Node30 -->
<g id="node31" class="node"><title>Node30</title>
<polygon fill="white" stroke="#bfbfbf" points="442.5,-224.5 442.5,-243.5 489.5,-243.5 489.5,-224.5 442.5,-224.5"/>
<text text-anchor="middle" x="466" y="-231.5" font-family="Helvetica,sans-Serif" font-size="10.00">QPoint</text>
</g>
<!-- Node4&#45;&gt;Node30 -->
<g id="edge37" class="edge"><title>Node4&#45;&gt;Node30</title>
<path fill="none" stroke="midnightblue" d="M438.449,-280.083C443.014,-272.613 449.668,-261.724 455.293,-252.52"/>
<polygon fill="midnightblue" stroke="midnightblue" points="458.424,-254.109 460.652,-243.751 452.451,-250.459 458.424,-254.109"/>
</g>
<!-- Node31 -->
<g id="node32" class="node"><title>Node31</title>
<polygon fill="white" stroke="#bfbfbf" points="508,-224.5 508,-243.5 558,-243.5 558,-224.5 508,-224.5"/>
<text text-anchor="middle" x="533" y="-231.5" font-family="Helvetica,sans-Serif" font-size="10.00">QString</text>
</g>
<!-- Node4&#45;&gt;Node31 -->
<g id="edge38" class="edge"><title>Node4&#45;&gt;Node31</title>
<path fill="none" stroke="midnightblue" d="M449.067,-280.324C464.958,-271.743 489.507,-258.486 507.958,-248.522"/>
<polygon fill="midnightblue" stroke="midnightblue" points="509.837,-251.486 516.973,-243.655 506.511,-245.326 509.837,-251.486"/>
</g>
<!-- Node32 -->
<g id="node33" class="node"><title>Node32</title>
<polygon fill="white" stroke="#bfbfbf" points="576,-224.5 576,-243.5 670,-243.5 670,-224.5 576,-224.5"/>
<text text-anchor="middle" x="623" y="-231.5" font-family="Helvetica,sans-Serif" font-size="10.00">QTreeWidgetItem</text>
</g>
<!-- Node4&#45;&gt;Node32 -->
<g id="edge39" class="edge"><title>Node4&#45;&gt;Node32</title>
<path fill="none" stroke="midnightblue" d="M463.106,-280.444C495.626,-271.201 547.579,-256.436 583.391,-246.257"/>
<polygon fill="midnightblue" stroke="midnightblue" points="584.373,-249.617 593.035,-243.516 582.459,-242.884 584.373,-249.617"/>
</g>
<!-- Node6 -->
<g id="node7" class="node"><title>Node6</title>
<g id="a_node7"><a xlink:href="serialize_8h.html" target="_top" xlink:title="serialize.h">
<polygon fill="white" stroke="black" points="686.5,-168.5 686.5,-187.5 747.5,-187.5 747.5,-168.5 686.5,-168.5"/>
<text text-anchor="middle" x="717" y="-175.5" font-family="Helvetica,sans-Serif" font-size="10.00">serialize.h</text>
</a>
</g>
</g>
<!-- Node5&#45;&gt;Node6 -->
<g id="edge6" class="edge"><title>Node5&#45;&gt;Node6</title>
<path fill="none" stroke="midnightblue" d="M717,-224.083C717,-217.006 717,-206.861 717,-197.986"/>
<polygon fill="midnightblue" stroke="midnightblue" points="720.5,-197.751 717,-187.751 713.5,-197.751 720.5,-197.751"/>
</g>
<!-- Node18 -->
<g id="node19" class="node"><title>Node18</title>
<polygon fill="white" stroke="#bfbfbf" points="1136.5,-112.5 1136.5,-131.5 1177.5,-131.5 1177.5,-112.5 1136.5,-112.5"/>
<text text-anchor="middle" x="1157" y="-119.5" font-family="Helvetica,sans-Serif" font-size="10.00">string</text>
</g>
<!-- Node5&#45;&gt;Node18 -->
<g id="edge31" class="edge"><title>Node5&#45;&gt;Node18</title>
<path fill="none" stroke="midnightblue" d="M745.623,-226.146C823.064,-207.573 1036.37,-156.207 1126.52,-132.006"/>
<polygon fill="midnightblue" stroke="midnightblue" points="1127.65,-135.328 1136.38,-129.333 1125.81,-128.572 1127.65,-135.328"/>
</g>
<!-- Node23 -->
<g id="node24" class="node"><title>Node23</title>
<polygon fill="white" stroke="#bfbfbf" points="231,-56.5 231,-75.5 279,-75.5 279,-56.5 231,-56.5"/>
<text text-anchor="middle" x="255" y="-63.5" font-family="Helvetica,sans-Serif" font-size="10.00">stdlib.h</text>
</g>
<!-- Node5&#45;&gt;Node23 -->
<g id="edge30" class="edge"><title>Node5&#45;&gt;Node23</title>
<path fill="none" stroke="midnightblue" d="M688.386,-226.012C600.974,-204.61 342.37,-140.88 326,-132 303.16,-119.61 281.873,-98.2926 268.678,-83.4628"/>
<polygon fill="midnightblue" stroke="midnightblue" points="271.076,-80.8836 261.894,-75.5974 265.775,-85.4557 271.076,-80.8836"/>
</g>
<!-- Node7 -->
<g id="node8" class="node"><title>Node7</title>
<g id="a_node8"><a xlink:href="endian_8h.html" target="_top" xlink:title="compat/endian.h">
<polygon fill="white" stroke="black" points="1029.5,-112.5 1029.5,-131.5 1118.5,-131.5 1118.5,-112.5 1029.5,-112.5"/>
<text text-anchor="middle" x="1074" y="-119.5" font-family="Helvetica,sans-Serif" font-size="10.00">compat/endian.h</text>
</a>
</g>
</g>
<!-- Node6&#45;&gt;Node7 -->
<g id="edge7" class="edge"><title>Node6&#45;&gt;Node7</title>
<path fill="none" stroke="midnightblue" d="M747.89,-172.351C802.009,-164.203 917.489,-146.8 1015,-132 1016.3,-131.803 1017.61,-131.604 1018.93,-131.403"/>
<polygon fill="midnightblue" stroke="midnightblue" points="1019.86,-134.802 1029.22,-129.838 1018.81,-127.881 1019.86,-134.802"/>
</g>
<!-- Node8 -->
<g id="node9" class="node"><title>Node8</title>
<polygon fill="white" stroke="#bfbfbf" points="995.5,-0.5 995.5,-19.5 1044.5,-19.5 1044.5,-0.5 995.5,-0.5"/>
<text text-anchor="middle" x="1020" y="-7.5" font-family="Helvetica,sans-Serif" font-size="10.00">stdint.h</text>
</g>
<!-- Node6&#45;&gt;Node8 -->
<g id="edge19" class="edge"><title>Node6&#45;&gt;Node8</title>
<path fill="none" stroke="midnightblue" d="M747.559,-175.685C809.408,-172.417 946.474,-161.912 981,-132 1011.07,-105.95 1018.13,-56.5969 1019.67,-29.6707"/>
<polygon fill="midnightblue" stroke="midnightblue" points="1023.17,-29.7613 1020.05,-19.6372 1016.18,-29.4992 1023.17,-29.7613"/>
</g>
<!-- Node10 -->
<g id="node11" class="node"><title>Node10</title>
<polygon fill="white" stroke="#bfbfbf" points="473,-112.5 473,-131.5 529,-131.5 529,-112.5 473,-112.5"/>
<text text-anchor="middle" x="501" y="-119.5" font-family="Helvetica,sans-Serif" font-size="10.00">algorithm</text>
</g>
<!-- Node6&#45;&gt;Node10 -->
<g id="edge11" class="edge"><title>Node6&#45;&gt;Node10</title>
<path fill="none" stroke="midnightblue" d="M686.052,-169.263C647.256,-159.564 580.781,-142.945 538.955,-132.489"/>
<polygon fill="midnightblue" stroke="midnightblue" points="539.692,-129.065 529.141,-130.035 537.994,-135.856 539.692,-129.065"/>
</g>
<!-- Node11 -->
<g id="node12" class="node"><title>Node11</title>
<polygon fill="white" stroke="#bfbfbf" points="297,-56.5 297,-75.5 349,-75.5 349,-56.5 297,-56.5"/>
<text text-anchor="middle" x="323" y="-63.5" font-family="Helvetica,sans-Serif" font-size="10.00">assert.h</text>
</g>
<!-- Node6&#45;&gt;Node11 -->
<g id="edge12" class="edge"><title>Node6&#45;&gt;Node11</title>
<path fill="none" stroke="midnightblue" d="M686.445,-177.51C606.491,-178.211 393.717,-175.819 342,-132 328.705,-120.735 324.436,-100.725 323.198,-85.8731"/>
<polygon fill="midnightblue" stroke="midnightblue" points="326.688,-85.5838 322.743,-75.7511 319.695,-85.8983 326.688,-85.5838"/>
</g>
<!-- Node12 -->
<g id="node13" class="node"><title>Node12</title>
<polygon fill="white" stroke="#bfbfbf" points="546.5,-112.5 546.5,-131.5 575.5,-131.5 575.5,-112.5 546.5,-112.5"/>
<text text-anchor="middle" x="561" y="-119.5" font-family="Helvetica,sans-Serif" font-size="10.00">ios</text>
</g>
<!-- Node6&#45;&gt;Node12 -->
<g id="edge13" class="edge"><title>Node6&#45;&gt;Node12</title>
<path fill="none" stroke="midnightblue" d="M691.121,-168.435C666.324,-160.171 627.633,-147.134 585.349,-132.048"/>
<polygon fill="midnightblue" stroke="midnightblue" points="586.292,-128.668 575.697,-128.592 583.932,-135.259 586.292,-128.668"/>
</g>
<!-- Node13 -->
<g id="node14" class="node"><title>Node13</title>
<polygon fill="white" stroke="#bfbfbf" points="594,-112.5 594,-131.5 634,-131.5 634,-112.5 594,-112.5"/>
<text text-anchor="middle" x="614" y="-119.5" font-family="Helvetica,sans-Serif" font-size="10.00">limits</text>
</g>
<!-- Node6&#45;&gt;Node13 -->
<g id="edge14" class="edge"><title>Node6&#45;&gt;Node13</title>
<path fill="none" stroke="midnightblue" d="M700.451,-168.324C684.008,-159.703 658.565,-146.364 639.532,-136.386"/>
<polygon fill="midnightblue" stroke="midnightblue" points="640.989,-133.198 630.508,-131.655 637.739,-139.398 640.989,-133.198"/>
</g>
<!-- Node14 -->
<g id="node15" class="node"><title>Node14</title>
<polygon fill="white" stroke="#bfbfbf" points="652.5,-112.5 652.5,-131.5 681.5,-131.5 681.5,-112.5 652.5,-112.5"/>
<text text-anchor="middle" x="667" y="-119.5" font-family="Helvetica,sans-Serif" font-size="10.00">list</text>
</g>
<!-- Node6&#45;&gt;Node14 -->
<g id="edge15" class="edge"><title>Node6&#45;&gt;Node14</title>
<path fill="none" stroke="midnightblue" d="M708.744,-168.083C701.535,-160.298 690.89,-148.801 682.154,-139.367"/>
<polygon fill="midnightblue" stroke="midnightblue" points="684.465,-136.711 675.103,-131.751 679.329,-141.467 684.465,-136.711"/>
</g>
<!-- Node15 -->
<g id="node16" class="node"><title>Node15</title>
<polygon fill="white" stroke="#bfbfbf" points="699.5,-112.5 699.5,-131.5 734.5,-131.5 734.5,-112.5 699.5,-112.5"/>
<text text-anchor="middle" x="717" y="-119.5" font-family="Helvetica,sans-Serif" font-size="10.00">map</text>
</g>
<!-- Node6&#45;&gt;Node15 -->
<g id="edge16" class="edge"><title>Node6&#45;&gt;Node15</title>
<path fill="none" stroke="midnightblue" d="M717,-168.083C717,-161.006 717,-150.861 717,-141.986"/>
<polygon fill="midnightblue" stroke="midnightblue" points="720.5,-141.751 717,-131.751 713.5,-141.751 720.5,-141.751"/>
</g>
<!-- Node16 -->
<g id="node17" class="node"><title>Node16</title>
<polygon fill="white" stroke="#bfbfbf" points="753,-112.5 753,-131.5 805,-131.5 805,-112.5 753,-112.5"/>
<text text-anchor="middle" x="779" y="-119.5" font-family="Helvetica,sans-Serif" font-size="10.00">memory</text>
</g>
<!-- Node6&#45;&gt;Node16 -->
<g id="edge17" class="edge"><title>Node6&#45;&gt;Node16</title>
<path fill="none" stroke="midnightblue" d="M726.961,-168.324C736.127,-160.341 749.937,-148.313 761.028,-138.653"/>
<polygon fill="midnightblue" stroke="midnightblue" points="763.615,-141.041 768.857,-131.834 759.018,-135.762 763.615,-141.041"/>
</g>
<!-- Node17 -->
<g id="node18" class="node"><title>Node17</title>
<polygon fill="white" stroke="#bfbfbf" points="823,-112.5 823,-131.5 853,-131.5 853,-112.5 823,-112.5"/>
<text text-anchor="middle" x="838" y="-119.5" font-family="Helvetica,sans-Serif" font-size="10.00">set</text>
</g>
<!-- Node6&#45;&gt;Node17 -->
<g id="edge18" class="edge"><title>Node6&#45;&gt;Node17</title>
<path fill="none" stroke="midnightblue" d="M736.173,-168.444C757.07,-159.117 790.568,-144.168 813.392,-133.982"/>
<polygon fill="midnightblue" stroke="midnightblue" points="815.043,-137.078 822.748,-129.807 812.19,-130.686 815.043,-137.078"/>
</g>
<!-- Node6&#45;&gt;Node18 -->
<g id="edge20" class="edge"><title>Node6&#45;&gt;Node18</title>
<path fill="none" stroke="midnightblue" d="M747.64,-175.547C814.669,-171.963 979.38,-160.946 1126.37,-131.739"/>
<polygon fill="midnightblue" stroke="midnightblue" points="1127.36,-135.109 1136.47,-129.697 1125.97,-128.248 1127.36,-135.109"/>
</g>
<!-- Node19 -->
<g id="node20" class="node"><title>Node19</title>
<polygon fill="white" stroke="#bfbfbf" points="471.5,-56.5 471.5,-75.5 520.5,-75.5 520.5,-56.5 471.5,-56.5"/>
<text text-anchor="middle" x="496" y="-63.5" font-family="Helvetica,sans-Serif" font-size="10.00">string.h</text>
</g>
<!-- Node6&#45;&gt;Node19 -->
<g id="edge21" class="edge"><title>Node6&#45;&gt;Node19</title>
<path fill="none" stroke="midnightblue" d="M686.449,-176.266C625.466,-174.087 492.078,-165.513 464,-132 451.71,-117.331 465.33,-97.1405 478.404,-83.1718"/>
<polygon fill="midnightblue" stroke="midnightblue" points="481.231,-85.2955 485.839,-75.7551 476.287,-80.3397 481.231,-85.2955"/>
</g>
<!-- Node20 -->
<g id="node21" class="node"><title>Node20</title>
<polygon fill="white" stroke="#bfbfbf" points="871,-112.5 871,-131.5 911,-131.5 911,-112.5 871,-112.5"/>
<text text-anchor="middle" x="891" y="-119.5" font-family="Helvetica,sans-Serif" font-size="10.00">utility</text>
</g>
<!-- Node6&#45;&gt;Node20 -->
<g id="edge22" class="edge"><title>Node6&#45;&gt;Node20</title>
<path fill="none" stroke="midnightblue" d="M744.571,-168.444C776.305,-158.595 828.246,-142.475 860.979,-132.317"/>
<polygon fill="midnightblue" stroke="midnightblue" points="862.368,-135.551 870.881,-129.244 860.293,-128.865 862.368,-135.551"/>
</g>
<!-- Node21 -->
<g id="node22" class="node"><title>Node21</title>
<polygon fill="white" stroke="#bfbfbf" points="929,-112.5 929,-131.5 973,-131.5 973,-112.5 929,-112.5"/>
<text text-anchor="middle" x="951" y="-119.5" font-family="Helvetica,sans-Serif" font-size="10.00">vector</text>
</g>
<!-- Node6&#45;&gt;Node21 -->
<g id="edge23" class="edge"><title>Node6&#45;&gt;Node21</title>
<path fill="none" stroke="midnightblue" d="M747.754,-170.826C785.778,-163.053 852.672,-148.922 918.929,-132.154"/>
<polygon fill="midnightblue" stroke="midnightblue" points="919.872,-135.526 928.696,-129.661 918.141,-128.743 919.872,-135.526"/>
</g>
<!-- Node22 -->
<g id="node23" class="node"><title>Node22</title>
<g id="a_node23"><a xlink:href="prevector_8h.html" target="_top" xlink:title="prevector.h">
<polygon fill="white" stroke="black" points="351.5,-112.5 351.5,-131.5 416.5,-131.5 416.5,-112.5 351.5,-112.5"/>
<text text-anchor="middle" x="384" y="-119.5" font-family="Helvetica,sans-Serif" font-size="10.00">prevector.h</text>
</a>
</g>
</g>
<!-- Node6&#45;&gt;Node22 -->
<g id="edge24" class="edge"><title>Node6&#45;&gt;Node22</title>
<path fill="none" stroke="midnightblue" d="M686.47,-172.536C634.108,-164.803 523.843,-148.189 431,-132 429.542,-131.746 428.06,-131.483 426.563,-131.215"/>
<polygon fill="midnightblue" stroke="midnightblue" points="427.058,-127.748 416.59,-129.386 425.795,-134.633 427.058,-127.748"/>
</g>
<!-- Node7&#45;&gt;Node8 -->
<g id="edge8" class="edge"><title>Node7&#45;&gt;Node8</title>
<path fill="none" stroke="midnightblue" d="M1069.76,-112.368C1060.93,-94.376 1040.4,-52.5503 1028.65,-28.6267"/>
<polygon fill="midnightblue" stroke="midnightblue" points="1031.77,-27.0257 1024.22,-19.5914 1025.48,-30.1105 1031.77,-27.0257"/>
</g>
<!-- Node9 -->
<g id="node10" class="node"><title>Node9</title>
<g id="a_node10"><a xlink:href="byteswap_8h.html" target="_top" xlink:title="compat/byteswap.h">
<polygon fill="white" stroke="black" points="1067,-56.5 1067,-75.5 1169,-75.5 1169,-56.5 1067,-56.5"/>
<text text-anchor="middle" x="1118" y="-63.5" font-family="Helvetica,sans-Serif" font-size="10.00">compat/byteswap.h</text>
</a>
</g>
</g>
<!-- Node7&#45;&gt;Node9 -->
<g id="edge9" class="edge"><title>Node7&#45;&gt;Node9</title>
<path fill="none" stroke="midnightblue" d="M1081.27,-112.083C1087.54,-104.377 1096.79,-93.0333 1104.43,-83.6531"/>
<polygon fill="midnightblue" stroke="midnightblue" points="1107.27,-85.7143 1110.87,-75.7511 1101.84,-81.2926 1107.27,-85.7143"/>
</g>
<!-- Node9&#45;&gt;Node8 -->
<g id="edge10" class="edge"><title>Node9&#45;&gt;Node8</title>
<path fill="none" stroke="midnightblue" d="M1102.25,-56.324C1086.68,-47.7428 1062.62,-34.486 1044.54,-24.5224"/>
<polygon fill="midnightblue" stroke="midnightblue" points="1046.15,-21.4152 1035.71,-19.6545 1042.78,-27.546 1046.15,-21.4152"/>
</g>
<!-- Node22&#45;&gt;Node8 -->
<g id="edge27" class="edge"><title>Node22&#45;&gt;Node8</title>
<path fill="none" stroke="midnightblue" d="M391.209,-112.329C403.951,-97.7095 432.048,-68.5262 463,-56 558.422,-17.383 878.393,-11.867 985.062,-11.1099"/>
<polygon fill="midnightblue" stroke="midnightblue" points="985.301,-14.6086 995.279,-11.0475 985.258,-7.60869 985.301,-14.6086"/>
</g>
<!-- Node22&#45;&gt;Node11 -->
<g id="edge25" class="edge"><title>Node22&#45;&gt;Node11</title>
<path fill="none" stroke="midnightblue" d="M374.199,-112.324C365.182,-104.341 351.594,-92.3128 340.682,-82.6529"/>
<polygon fill="midnightblue" stroke="midnightblue" points="342.787,-79.8416 332.979,-75.8339 338.147,-85.083 342.787,-79.8416"/>
</g>
<!-- Node22&#45;&gt;Node19 -->
<g id="edge28" class="edge"><title>Node22&#45;&gt;Node19</title>
<path fill="none" stroke="midnightblue" d="M401.995,-112.324C420.038,-103.625 448.047,-90.1202 468.803,-80.113"/>
<polygon fill="midnightblue" stroke="midnightblue" points="470.562,-83.1502 478.05,-75.6545 467.522,-76.8449 470.562,-83.1502"/>
</g>
<!-- Node22&#45;&gt;Node23 -->
<g id="edge26" class="edge"><title>Node22&#45;&gt;Node23</title>
<path fill="none" stroke="midnightblue" d="M363.56,-112.444C342.33,-103.557 308.901,-89.5632 284.745,-79.4514"/>
<polygon fill="midnightblue" stroke="midnightblue" points="285.921,-76.1493 275.345,-75.5164 283.218,-82.6064 285.921,-76.1493"/>
</g>
<!-- Node24 -->
<g id="node25" class="node"><title>Node24</title>
<polygon fill="white" stroke="#bfbfbf" points="367.5,-56.5 367.5,-75.5 414.5,-75.5 414.5,-56.5 367.5,-56.5"/>
<text text-anchor="middle" x="391" y="-63.5" font-family="Helvetica,sans-Serif" font-size="10.00">iterator</text>
</g>
<!-- Node22&#45;&gt;Node24 -->
<g id="edge29" class="edge"><title>Node22&#45;&gt;Node24</title>
<path fill="none" stroke="midnightblue" d="M385.156,-112.083C386.084,-104.927 387.418,-94.6353 388.577,-85.6911"/>
<polygon fill="midnightblue" stroke="midnightblue" points="392.051,-86.1181 389.866,-75.7511 385.109,-85.2181 392.051,-86.1181"/>
</g>
</g>
</svg>
