<?xml version="1.0" encoding="UTF-8" standalone="no"?>
<!DOCTYPE svg PUBLIC "-//W3C//DTD SVG 1.1//EN"
 "http://www.w3.org/Graphics/SVG/1.1/DTD/svg11.dtd">
<!-- Generated by graphviz version 2.36.0 (20140111.2315)
 -->
<!-- Title: src/compressor.h Pages: 1 -->
<!--zoomable 420 -->
<svg id="main" version="1.1" xmlns="http://www.w3.org/2000/svg" xmlns:xlink="http://www.w3.org/1999/xlink" xml:space="preserve" onload="init(evt)">
<style type="text/css"><![CDATA[
.edge:hover path { stroke: red; }
.edge:hover polygon { stroke: red; fill: red; }
]]></style>
<script type="text/javascript"><![CDATA[
var edges = document.getElementsByTagName('g');
if (edges && edges.length) {
  for (var i=0;i<edges.length;i++) {
    if (edges[i].id.substr(0,4)=='edge') {
      edges[i].setAttribute('class','edge');
    }
  }
}
]]></script>
        <defs>
                <circle id="rim" cx="0" cy="0" r="7"/>
                <circle id="rim2" cx="0" cy="0" r="3.5"/>
                <g id="zoomPlus">
                        <use xlink:href="#rim" fill="#404040">
                                <set attributeName="fill" to="#808080" begin="zoomplus.mouseover" end="zoomplus.mouseout"/>
                        </use>
                        <path d="M-4,0h8M0,-4v8" fill="none" stroke="white" stroke-width="1.5" pointer-events="none"/>
                </g>
                <g id="zoomMin">
                        <use xlink:href="#rim" fill="#404040">
                                <set attributeName="fill" to="#808080" begin="zoomminus.mouseover" end="zoomminus.mouseout"/>
                        </use>
                        <path d="M-4,0h8" fill="none" stroke="white" stroke-width="1.5" pointer-events="none"/>
                </g>
                <g id="dirArrow">
                        <path fill="none" stroke="white" stroke-width="1.5" d="M0,-3.0v7 M-2.5,-0.5L0,-3.0L2.5,-0.5"/>
                </g>
               <g id="resetDef">
                       <use xlink:href="#rim2" fill="#404040">
                               <set attributeName="fill" to="#808080" begin="reset.mouseover" end="reset.mouseout"/>
                       </use>
               </g>
        </defs>

<script type="text/javascript">
var viewWidth = 1297;
var viewHeight = 420;
var sectionId = 'dynsection-0';
</script>
<script xlink:href="svgpan.js"/>
<svg id="graph" class="graph">
<g id="viewport">
<title>src/compressor.h</title>
<polygon fill="white" stroke="none" points="-4,4 -4,-416 1293.47,-416 1293.47,4 -4,4"/>
<!-- Node0 -->
<g id="node1" class="node"><title>Node0</title>
<polygon fill="#bfbfbf" stroke="black" points="555.128,-392.5 555.128,-411.5 647.128,-411.5 647.128,-392.5 555.128,-392.5"/>
<text text-anchor="middle" x="601.128" y="-399.5" font-family="Helvetica,sans-Serif" font-size="10.00">src/compressor.h</text>
</g>
<!-- Node1 -->
<g id="node2" class="node"><title>Node1</title>
<g id="a_node2"><a xlink:href="transaction_8h.html" target="_top" xlink:title="primitives/transaction.h">
<polygon fill="white" stroke="black" points="542.128,-336.5 542.128,-355.5 660.128,-355.5 660.128,-336.5 542.128,-336.5"/>
<text text-anchor="middle" x="601.128" y="-343.5" font-family="Helvetica,sans-Serif" font-size="10.00">primitives/transaction.h</text>
</a>
</g>
</g>
<!-- Node0&#45;&gt;Node1 -->
<g id="edge1" class="edge"><title>Node0&#45;&gt;Node1</title>
<path fill="none" stroke="midnightblue" d="M601.128,-392.083C601.128,-385.006 601.128,-374.861 601.128,-365.986"/>
<polygon fill="midnightblue" stroke="midnightblue" points="604.628,-365.751 601.128,-355.751 597.628,-365.751 604.628,-365.751"/>
</g>
<!-- Node3 -->
<g id="node4" class="node"><title>Node3</title>
<g id="a_node4"><a xlink:href="serialize_8h.html" target="_top" xlink:title="serialize.h">
<polygon fill="white" stroke="black" points="769.628,-224.5 769.628,-243.5 830.628,-243.5 830.628,-224.5 769.628,-224.5"/>
<text text-anchor="middle" x="800.128" y="-231.5" font-family="Helvetica,sans-Serif" font-size="10.00">serialize.h</text>
</a>
</g>
</g>
<!-- Node0&#45;&gt;Node3 -->
<g id="edge53" class="edge"><title>Node0&#45;&gt;Node3</title>
<path fill="none" stroke="midnightblue" d="M615.39,-392.498C629.475,-383.887 651.418,-369.892 669.128,-356 713.337,-321.321 760.702,-275 784.529,-250.973"/>
<polygon fill="midnightblue" stroke="midnightblue" points="787.142,-253.307 791.669,-243.728 782.157,-248.394 787.142,-253.307"/>
</g>
<!-- Node22 -->
<g id="node23" class="node"><title>Node22</title>
<g id="a_node23"><a xlink:href="script_8h.html" target="_top" xlink:title="script/script.h">
<polygon fill="white" stroke="black" points="442.128,-224.5 442.128,-243.5 518.128,-243.5 518.128,-224.5 442.128,-224.5"/>
<text text-anchor="middle" x="480.128" y="-231.5" font-family="Helvetica,sans-Serif" font-size="10.00">script/script.h</text>
</a>
</g>
</g>
<!-- Node0&#45;&gt;Node22 -->
<g id="edge52" class="edge"><title>Node0&#45;&gt;Node22</title>
<path fill="none" stroke="midnightblue" d="M582.538,-392.446C567.516,-384.736 546.709,-372.139 533.128,-356 506.888,-324.817 491.539,-278.622 484.605,-253.282"/>
<polygon fill="midnightblue" stroke="midnightblue" points="487.971,-252.318 482.071,-243.518 481.195,-254.077 487.971,-252.318"/>
</g>
<!-- Node2 -->
<g id="node3" class="node"><title>Node2</title>
<g id="a_node3"><a xlink:href="amount_8h.html" target="_top" xlink:title="amount.h">
<polygon fill="white" stroke="black" points="578.628,-280.5 578.628,-299.5 635.628,-299.5 635.628,-280.5 578.628,-280.5"/>
<text text-anchor="middle" x="607.128" y="-287.5" font-family="Helvetica,sans-Serif" font-size="10.00">amount.h</text>
</a>
</g>
</g>
<!-- Node1&#45;&gt;Node2 -->
<g id="edge2" class="edge"><title>Node1&#45;&gt;Node2</title>
<path fill="none" stroke="midnightblue" d="M602.119,-336.083C602.914,-328.927 604.057,-318.635 605.051,-309.691"/>
<polygon fill="midnightblue" stroke="midnightblue" points="608.53,-310.076 606.156,-299.751 601.573,-309.303 608.53,-310.076"/>
</g>
<!-- Node1&#45;&gt;Node3 -->
<g id="edge43" class="edge"><title>Node1&#45;&gt;Node3</title>
<path fill="none" stroke="midnightblue" d="M616.743,-336.368C651.255,-317.292 734.237,-271.422 775.695,-248.505"/>
<polygon fill="midnightblue" stroke="midnightblue" points="777.527,-251.492 784.585,-243.591 774.14,-245.366 777.527,-251.492"/>
</g>
<!-- Node1&#45;&gt;Node22 -->
<g id="edge29" class="edge"><title>Node1&#45;&gt;Node22</title>
<path fill="none" stroke="midnightblue" d="M591.633,-336.368C571.223,-317.814 522.932,-273.913 497.109,-250.438"/>
<polygon fill="midnightblue" stroke="midnightblue" points="499.332,-247.728 489.578,-243.591 494.624,-252.908 499.332,-247.728"/>
</g>
<!-- Node26 -->
<g id="node27" class="node"><title>Node26</title>
<g id="a_node27"><a xlink:href="uint256_8h.html" target="_top" xlink:title="uint256.h">
<polygon fill="white" stroke="black" points="202.128,-224.5 202.128,-243.5 258.128,-243.5 258.128,-224.5 202.128,-224.5"/>
<text text-anchor="middle" x="230.128" y="-231.5" font-family="Helvetica,sans-Serif" font-size="10.00">uint256.h</text>
</a>
</g>
</g>
<!-- Node1&#45;&gt;Node26 -->
<g id="edge44" class="edge"><title>Node1&#45;&gt;Node26</title>
<path fill="none" stroke="midnightblue" d="M572.325,-336.46C505.983,-316.79 342.41,-268.291 268.034,-246.239"/>
<polygon fill="midnightblue" stroke="midnightblue" points="268.733,-242.796 258.151,-243.309 266.744,-249.507 268.733,-242.796"/>
</g>
<!-- Node2&#45;&gt;Node3 -->
<g id="edge3" class="edge"><title>Node2&#45;&gt;Node3</title>
<path fill="none" stroke="midnightblue" d="M636.022,-280.916C668.799,-271.745 722.488,-256.723 759.479,-246.373"/>
<polygon fill="midnightblue" stroke="midnightblue" points="760.752,-249.652 769.439,-243.587 758.866,-242.91 760.752,-249.652"/>
</g>
<!-- Node15 -->
<g id="node16" class="node"><title>Node15</title>
<polygon fill="white" stroke="#bfbfbf" points="543.628,-168.5 543.628,-187.5 584.628,-187.5 584.628,-168.5 543.628,-168.5"/>
<text text-anchor="middle" x="564.128" y="-175.5" font-family="Helvetica,sans-Serif" font-size="10.00">string</text>
</g>
<!-- Node2&#45;&gt;Node15 -->
<g id="edge28" class="edge"><title>Node2&#45;&gt;Node15</title>
<path fill="none" stroke="midnightblue" d="M603.754,-280.368C596.752,-262.456 580.516,-220.923 571.144,-196.948"/>
<polygon fill="midnightblue" stroke="midnightblue" points="574.387,-195.631 567.486,-187.591 567.867,-198.179 574.387,-195.631"/>
</g>
<!-- Node20 -->
<g id="node21" class="node"><title>Node20</title>
<polygon fill="white" stroke="#bfbfbf" points="979.128,-112.5 979.128,-131.5 1027.13,-131.5 1027.13,-112.5 979.128,-112.5"/>
<text text-anchor="middle" x="1003.13" y="-119.5" font-family="Helvetica,sans-Serif" font-size="10.00">stdlib.h</text>
</g>
<!-- Node2&#45;&gt;Node20 -->
<g id="edge27" class="edge"><title>Node2&#45;&gt;Node20</title>
<path fill="none" stroke="midnightblue" d="M635.662,-289.427C753.357,-290.524 1198.97,-287.94 1285.13,-188 1290.93,-181.267 1290.9,-174.763 1285.13,-168 1253.67,-131.123 1105.74,-124.327 1037.62,-123.174"/>
<polygon fill="midnightblue" stroke="midnightblue" points="1037.45,-119.671 1027.41,-123.033 1037.36,-126.67 1037.45,-119.671"/>
</g>
<!-- Node4 -->
<g id="node5" class="node"><title>Node4</title>
<g id="a_node5"><a xlink:href="endian_8h.html" target="_top" xlink:title="compat/endian.h">
<polygon fill="white" stroke="black" points="759.628,-112.5 759.628,-131.5 848.628,-131.5 848.628,-112.5 759.628,-112.5"/>
<text text-anchor="middle" x="804.128" y="-119.5" font-family="Helvetica,sans-Serif" font-size="10.00">compat/endian.h</text>
</a>
</g>
</g>
<!-- Node3&#45;&gt;Node4 -->
<g id="edge4" class="edge"><title>Node3&#45;&gt;Node4</title>
<path fill="none" stroke="midnightblue" d="M802.858,-224.486C805.579,-215.52 809.57,-200.935 811.128,-188 812.996,-172.486 810.831,-154.86 808.43,-141.88"/>
<polygon fill="midnightblue" stroke="midnightblue" points="811.806,-140.924 806.354,-131.839 804.951,-142.341 811.806,-140.924"/>
</g>
<!-- Node5 -->
<g id="node6" class="node"><title>Node5</title>
<polygon fill="white" stroke="#bfbfbf" points="621.628,-0.5 621.628,-19.5 670.628,-19.5 670.628,-0.5 621.628,-0.5"/>
<text text-anchor="middle" x="646.128" y="-7.5" font-family="Helvetica,sans-Serif" font-size="10.00">stdint.h</text>
</g>
<!-- Node3&#45;&gt;Node5 -->
<g id="edge16" class="edge"><title>Node3&#45;&gt;Node5</title>
<path fill="none" stroke="midnightblue" d="M830.878,-233.045C927.047,-232.585 1213.42,-226.355 1174.13,-168 1117.2,-83.4594 789.027,-30.8575 680.766,-15.6174"/>
<polygon fill="midnightblue" stroke="midnightblue" points="681.088,-12.1285 670.701,-14.2194 680.124,-19.0619 681.088,-12.1285"/>
</g>
<!-- Node7 -->
<g id="node8" class="node"><title>Node7</title>
<polygon fill="white" stroke="#bfbfbf" points="1221.13,-168.5 1221.13,-187.5 1277.13,-187.5 1277.13,-168.5 1221.13,-168.5"/>
<text text-anchor="middle" x="1249.13" y="-175.5" font-family="Helvetica,sans-Serif" font-size="10.00">algorithm</text>
</g>
<!-- Node3&#45;&gt;Node7 -->
<g id="edge8" class="edge"><title>Node3&#45;&gt;Node7</title>
<path fill="none" stroke="midnightblue" d="M830.649,-230.686C898.582,-225.303 1067.3,-210.652 1207.13,-188 1208.37,-187.799 1209.63,-187.585 1210.9,-187.361"/>
<polygon fill="midnightblue" stroke="midnightblue" points="1211.57,-190.798 1220.73,-185.49 1210.26,-183.921 1211.57,-190.798"/>
</g>
<!-- Node8 -->
<g id="node9" class="node"><title>Node8</title>
<polygon fill="white" stroke="#bfbfbf" points="408.128,-112.5 408.128,-131.5 460.128,-131.5 460.128,-112.5 408.128,-112.5"/>
<text text-anchor="middle" x="434.128" y="-119.5" font-family="Helvetica,sans-Serif" font-size="10.00">assert.h</text>
</g>
<!-- Node3&#45;&gt;Node8 -->
<g id="edge9" class="edge"><title>Node3&#45;&gt;Node8</title>
<path fill="none" stroke="midnightblue" d="M774.464,-224.388C750.794,-216.112 714.92,-202.721 685.128,-188 669.752,-180.403 668.091,-174.269 652.128,-168 619.417,-155.154 523.152,-137.848 470.147,-128.902"/>
<polygon fill="midnightblue" stroke="midnightblue" points="470.596,-125.429 460.155,-127.229 469.439,-132.333 470.596,-125.429"/>
</g>
<!-- Node9 -->
<g id="node10" class="node"><title>Node9</title>
<polygon fill="white" stroke="#bfbfbf" points="859.628,-168.5 859.628,-187.5 888.628,-187.5 888.628,-168.5 859.628,-168.5"/>
<text text-anchor="middle" x="874.128" y="-175.5" font-family="Helvetica,sans-Serif" font-size="10.00">ios</text>
</g>
<!-- Node3&#45;&gt;Node9 -->
<g id="edge10" class="edge"><title>Node3&#45;&gt;Node9</title>
<path fill="none" stroke="midnightblue" d="M812.017,-224.324C823.278,-216.107 840.414,-203.602 853.837,-193.807"/>
<polygon fill="midnightblue" stroke="midnightblue" points="856.007,-196.556 862.022,-187.834 851.881,-190.901 856.007,-196.556"/>
</g>
<!-- Node10 -->
<g id="node11" class="node"><title>Node10</title>
<polygon fill="white" stroke="#bfbfbf" points="603.128,-168.5 603.128,-187.5 643.128,-187.5 643.128,-168.5 603.128,-168.5"/>
<text text-anchor="middle" x="623.128" y="-175.5" font-family="Helvetica,sans-Serif" font-size="10.00">limits</text>
</g>
<!-- Node3&#45;&gt;Node10 -->
<g id="edge11" class="edge"><title>Node3&#45;&gt;Node10</title>
<path fill="none" stroke="midnightblue" d="M772.082,-224.444C739.572,-214.525 686.216,-198.247 652.964,-188.103"/>
<polygon fill="midnightblue" stroke="midnightblue" points="653.921,-184.735 643.335,-185.165 651.878,-191.431 653.921,-184.735"/>
</g>
<!-- Node11 -->
<g id="node12" class="node"><title>Node11</title>
<polygon fill="white" stroke="#bfbfbf" points="906.628,-168.5 906.628,-187.5 935.628,-187.5 935.628,-168.5 906.628,-168.5"/>
<text text-anchor="middle" x="921.128" y="-175.5" font-family="Helvetica,sans-Serif" font-size="10.00">list</text>
</g>
<!-- Node3&#45;&gt;Node11 -->
<g id="edge12" class="edge"><title>Node3&#45;&gt;Node11</title>
<path fill="none" stroke="midnightblue" d="M819.301,-224.444C840.43,-215.014 874.442,-199.835 897.277,-189.644"/>
<polygon fill="midnightblue" stroke="midnightblue" points="898.897,-192.754 906.602,-185.483 896.044,-186.362 898.897,-192.754"/>
</g>
<!-- Node12 -->
<g id="node13" class="node"><title>Node12</title>
<polygon fill="white" stroke="#bfbfbf" points="953.628,-168.5 953.628,-187.5 988.628,-187.5 988.628,-168.5 953.628,-168.5"/>
<text text-anchor="middle" x="971.128" y="-175.5" font-family="Helvetica,sans-Serif" font-size="10.00">map</text>
</g>
<!-- Node3&#45;&gt;Node12 -->
<g id="edge13" class="edge"><title>Node3&#45;&gt;Node12</title>
<path fill="none" stroke="midnightblue" d="M828.052,-224.445C855.227,-216.081 897.918,-202.844 943.882,-188.036"/>
<polygon fill="midnightblue" stroke="midnightblue" points="944.985,-191.358 953.425,-184.954 942.833,-184.697 944.985,-191.358"/>
</g>
<!-- Node13 -->
<g id="node14" class="node"><title>Node13</title>
<polygon fill="white" stroke="#bfbfbf" points="1007.13,-168.5 1007.13,-187.5 1059.13,-187.5 1059.13,-168.5 1007.13,-168.5"/>
<text text-anchor="middle" x="1033.13" y="-175.5" font-family="Helvetica,sans-Serif" font-size="10.00">memory</text>
</g>
<!-- Node3&#45;&gt;Node13 -->
<g id="edge14" class="edge"><title>Node3&#45;&gt;Node13</title>
<path fill="none" stroke="midnightblue" d="M830.884,-226.179C867.791,-217.948 931.799,-203.533 996.785,-188.042"/>
<polygon fill="midnightblue" stroke="midnightblue" points="997.885,-191.378 1006.8,-185.649 996.257,-184.57 997.885,-191.378"/>
</g>
<!-- Node14 -->
<g id="node15" class="node"><title>Node14</title>
<polygon fill="white" stroke="#bfbfbf" points="1077.13,-168.5 1077.13,-187.5 1107.13,-187.5 1107.13,-168.5 1077.13,-168.5"/>
<text text-anchor="middle" x="1092.13" y="-175.5" font-family="Helvetica,sans-Serif" font-size="10.00">set</text>
</g>
<!-- Node3&#45;&gt;Node14 -->
<g id="edge15" class="edge"><title>Node3&#45;&gt;Node14</title>
<path fill="none" stroke="midnightblue" d="M830.679,-229.81C879.097,-224.338 976.451,-211.65 1067.15,-187.812"/>
<polygon fill="midnightblue" stroke="midnightblue" points="1068.28,-191.132 1077.04,-185.162 1066.47,-184.371 1068.28,-191.132"/>
</g>
<!-- Node3&#45;&gt;Node15 -->
<g id="edge17" class="edge"><title>Node3&#45;&gt;Node15</title>
<path fill="none" stroke="midnightblue" d="M769.589,-227.088C731.111,-219.474 662.765,-205.405 594.755,-187.997"/>
<polygon fill="midnightblue" stroke="midnightblue" points="595.284,-184.519 584.727,-185.405 593.532,-191.297 595.284,-184.519"/>
</g>
<!-- Node16 -->
<g id="node17" class="node"><title>Node16</title>
<polygon fill="white" stroke="#bfbfbf" points="516.628,-112.5 516.628,-131.5 565.628,-131.5 565.628,-112.5 516.628,-112.5"/>
<text text-anchor="middle" x="541.128" y="-119.5" font-family="Helvetica,sans-Serif" font-size="10.00">string.h</text>
</g>
<!-- Node3&#45;&gt;Node16 -->
<g id="edge18" class="edge"><title>Node3&#45;&gt;Node16</title>
<path fill="none" stroke="midnightblue" d="M787.144,-224.447C766.319,-211.012 723.851,-184.769 685.128,-168 648.792,-152.265 605.155,-139.421 575.51,-131.541"/>
<polygon fill="midnightblue" stroke="midnightblue" points="576.203,-128.105 565.643,-128.964 574.434,-134.878 576.203,-128.105"/>
</g>
<!-- Node17 -->
<g id="node18" class="node"><title>Node17</title>
<polygon fill="white" stroke="#bfbfbf" points="1125.13,-168.5 1125.13,-187.5 1165.13,-187.5 1165.13,-168.5 1125.13,-168.5"/>
<text text-anchor="middle" x="1145.13" y="-175.5" font-family="Helvetica,sans-Serif" font-size="10.00">utility</text>
</g>
<!-- Node3&#45;&gt;Node17 -->
<g id="edge19" class="edge"><title>Node3&#45;&gt;Node17</title>
<path fill="none" stroke="midnightblue" d="M830.808,-230.157C887.453,-224.569 1012.08,-210.684 1115.13,-188 1115.23,-187.978 1115.33,-187.956 1115.43,-187.934"/>
<polygon fill="midnightblue" stroke="midnightblue" points="1116.08,-191.38 1124.9,-185.515 1114.35,-184.597 1116.08,-191.38"/>
</g>
<!-- Node18 -->
<g id="node19" class="node"><title>Node18</title>
<polygon fill="white" stroke="#bfbfbf" points="443.128,-168.5 443.128,-187.5 487.128,-187.5 487.128,-168.5 443.128,-168.5"/>
<text text-anchor="middle" x="465.128" y="-175.5" font-family="Helvetica,sans-Serif" font-size="10.00">vector</text>
</g>
<!-- Node3&#45;&gt;Node18 -->
<g id="edge20" class="edge"><title>Node3&#45;&gt;Node18</title>
<path fill="none" stroke="midnightblue" d="M769.511,-228.065C706.321,-217.879 561.983,-194.612 497.402,-184.202"/>
<polygon fill="midnightblue" stroke="midnightblue" points="497.815,-180.724 487.385,-182.588 496.701,-187.635 497.815,-180.724"/>
</g>
<!-- Node19 -->
<g id="node20" class="node"><title>Node19</title>
<g id="a_node20"><a xlink:href="prevector_8h.html" target="_top" xlink:title="prevector.h">
<polygon fill="white" stroke="black" points="737.628,-168.5 737.628,-187.5 802.628,-187.5 802.628,-168.5 737.628,-168.5"/>
<text text-anchor="middle" x="770.128" y="-175.5" font-family="Helvetica,sans-Serif" font-size="10.00">prevector.h</text>
</a>
</g>
</g>
<!-- Node3&#45;&gt;Node19 -->
<g id="edge21" class="edge"><title>Node3&#45;&gt;Node19</title>
<path fill="none" stroke="midnightblue" d="M795.174,-224.083C791.024,-216.613 784.975,-205.724 779.861,-196.52"/>
<polygon fill="midnightblue" stroke="midnightblue" points="782.906,-194.793 774.99,-187.751 776.787,-198.192 782.906,-194.793"/>
</g>
<!-- Node4&#45;&gt;Node5 -->
<g id="edge5" class="edge"><title>Node4&#45;&gt;Node5</title>
<path fill="none" stroke="midnightblue" d="M803.886,-112.143C803.028,-98.2919 799.361,-71.4894 784.128,-56 756.744,-28.1541 711.939,-17.5311 680.842,-13.4833"/>
<polygon fill="midnightblue" stroke="midnightblue" points="681.199,-10.0014 670.867,-12.3472 680.407,-16.9564 681.199,-10.0014"/>
</g>
<!-- Node6 -->
<g id="node7" class="node"><title>Node6</title>
<g id="a_node7"><a xlink:href="byteswap_8h.html" target="_top" xlink:title="compat/byteswap.h">
<polygon fill="white" stroke="black" points="674.128,-56.5 674.128,-75.5 776.128,-75.5 776.128,-56.5 674.128,-56.5"/>
<text text-anchor="middle" x="725.128" y="-63.5" font-family="Helvetica,sans-Serif" font-size="10.00">compat/byteswap.h</text>
</a>
</g>
</g>
<!-- Node4&#45;&gt;Node6 -->
<g id="edge6" class="edge"><title>Node4&#45;&gt;Node6</title>
<path fill="none" stroke="midnightblue" d="M791.435,-112.324C779.227,-103.979 760.549,-91.2122 746.125,-81.3524"/>
<polygon fill="midnightblue" stroke="midnightblue" points="748.02,-78.4082 737.789,-75.6545 744.07,-84.1871 748.02,-78.4082"/>
</g>
<!-- Node6&#45;&gt;Node5 -->
<g id="edge7" class="edge"><title>Node6&#45;&gt;Node5</title>
<path fill="none" stroke="midnightblue" d="M712.435,-56.324C700.227,-47.979 681.549,-35.2122 667.125,-25.3524"/>
<polygon fill="midnightblue" stroke="midnightblue" points="669.02,-22.4082 658.789,-19.6545 665.07,-28.1871 669.02,-22.4082"/>
</g>
<!-- Node19&#45;&gt;Node5 -->
<g id="edge24" class="edge"><title>Node19&#45;&gt;Node5</title>
<path fill="none" stroke="midnightblue" d="M742.611,-168.39C724.071,-161.307 700.317,-149.549 685.128,-132 659.459,-102.345 650.635,-55.5565 647.638,-29.7103"/>
<polygon fill="midnightblue" stroke="midnightblue" points="651.118,-29.3436 646.654,-19.7352 644.152,-30.0304 651.118,-29.3436"/>
</g>
<!-- Node19&#45;&gt;Node8 -->
<g id="edge22" class="edge"><title>Node19&#45;&gt;Node8</title>
<path fill="none" stroke="midnightblue" d="M737.605,-171.773C674.604,-161.648 536.338,-139.427 470.442,-128.836"/>
<polygon fill="midnightblue" stroke="midnightblue" points="470.939,-125.371 460.51,-127.24 469.828,-132.283 470.939,-125.371"/>
</g>
<!-- Node19&#45;&gt;Node16 -->
<g id="edge25" class="edge"><title>Node19&#45;&gt;Node16</title>
<path fill="none" stroke="midnightblue" d="M737.318,-169.263C694.382,-159.139 619.471,-141.474 575.687,-131.149"/>
<polygon fill="midnightblue" stroke="midnightblue" points="576.326,-127.704 565.79,-128.815 574.719,-134.517 576.326,-127.704"/>
</g>
<!-- Node19&#45;&gt;Node20 -->
<g id="edge23" class="edge"><title>Node19&#45;&gt;Node20</title>
<path fill="none" stroke="midnightblue" d="M803.017,-169.378C847.008,-159.182 924.615,-141.196 969.152,-130.874"/>
<polygon fill="midnightblue" stroke="midnightblue" points="969.974,-134.277 978.926,-128.609 968.394,-127.457 969.974,-134.277"/>
</g>
<!-- Node21 -->
<g id="node22" class="node"><title>Node21</title>
<polygon fill="white" stroke="#bfbfbf" points="694.628,-112.5 694.628,-131.5 741.628,-131.5 741.628,-112.5 694.628,-112.5"/>
<text text-anchor="middle" x="718.128" y="-119.5" font-family="Helvetica,sans-Serif" font-size="10.00">iterator</text>
</g>
<!-- Node19&#45;&gt;Node21 -->
<g id="edge26" class="edge"><title>Node19&#45;&gt;Node21</title>
<path fill="none" stroke="midnightblue" d="M761.541,-168.083C753.969,-160.22 742.75,-148.569 733.614,-139.081"/>
<polygon fill="midnightblue" stroke="midnightblue" points="736.012,-136.527 726.555,-131.751 730.97,-141.382 736.012,-136.527"/>
</g>
<!-- Node22&#45;&gt;Node5 -->
<g id="edge39" class="edge"><title>Node22&#45;&gt;Node5</title>
<path fill="none" stroke="midnightblue" d="M441.744,-231.237C382.501,-227.622 273.097,-217.089 249.128,-188 243.475,-181.14 244.475,-175.574 249.128,-168 327.561,-40.321 529.714,-16.3892 611.257,-11.97"/>
<polygon fill="midnightblue" stroke="midnightblue" points="611.666,-15.4547 621.489,-11.4851 611.334,-8.4625 611.666,-15.4547"/>
</g>
<!-- Node22&#45;&gt;Node8 -->
<g id="edge35" class="edge"><title>Node22&#45;&gt;Node8</title>
<path fill="none" stroke="midnightblue" d="M441.699,-230.817C384.851,-226.695 282.621,-215.56 260.128,-188 221.385,-140.531 336.008,-127.719 397.678,-124.268"/>
<polygon fill="midnightblue" stroke="midnightblue" points="397.998,-127.756 407.809,-123.758 397.646,-120.765 397.998,-127.756"/>
</g>
<!-- Node22&#45;&gt;Node10 -->
<g id="edge37" class="edge"><title>Node22&#45;&gt;Node10</title>
<path fill="none" stroke="midnightblue" d="M502.787,-224.444C527.228,-215.214 566.255,-200.476 593.205,-190.299"/>
<polygon fill="midnightblue" stroke="midnightblue" points="594.768,-193.45 602.887,-186.643 592.296,-186.902 594.768,-193.45"/>
</g>
<!-- Node22&#45;&gt;Node15 -->
<g id="edge41" class="edge"><title>Node22&#45;&gt;Node15</title>
<path fill="none" stroke="midnightblue" d="M493.624,-224.324C506.728,-215.9 526.84,-202.971 542.235,-193.074"/>
<polygon fill="midnightblue" stroke="midnightblue" points="544.146,-196.006 550.665,-187.655 540.361,-190.118 544.146,-196.006"/>
</g>
<!-- Node22&#45;&gt;Node16 -->
<g id="edge40" class="edge"><title>Node22&#45;&gt;Node16</title>
<path fill="none" stroke="midnightblue" d="M484.914,-224.368C494.892,-206.376 518.086,-164.55 531.353,-140.627"/>
<polygon fill="midnightblue" stroke="midnightblue" points="534.575,-142.034 536.364,-131.591 528.453,-138.639 534.575,-142.034"/>
</g>
<!-- Node22&#45;&gt;Node18 -->
<g id="edge42" class="edge"><title>Node22&#45;&gt;Node18</title>
<path fill="none" stroke="midnightblue" d="M477.651,-224.083C475.641,-216.849 472.741,-206.409 470.238,-197.397"/>
<polygon fill="midnightblue" stroke="midnightblue" points="473.608,-196.449 467.559,-187.751 466.863,-198.323 473.608,-196.449"/>
</g>
<!-- Node22&#45;&gt;Node19 -->
<g id="edge34" class="edge"><title>Node22&#45;&gt;Node19</title>
<path fill="none" stroke="midnightblue" d="M518.339,-225.885C572.346,-215.828 670.706,-197.513 727.178,-186.997"/>
<polygon fill="midnightblue" stroke="midnightblue" points="728.025,-190.4 737.216,-185.128 726.744,-183.518 728.025,-190.4"/>
</g>
<!-- Node23 -->
<g id="node24" class="node"><title>Node23</title>
<g id="a_node24"><a xlink:href="common_8h.html" target="_top" xlink:title="crypto/common.h">
<polygon fill="white" stroke="black" points="269.128,-168.5 269.128,-187.5 361.128,-187.5 361.128,-168.5 269.128,-168.5"/>
<text text-anchor="middle" x="315.128" y="-175.5" font-family="Helvetica,sans-Serif" font-size="10.00">crypto/common.h</text>
</a>
</g>
</g>
<!-- Node22&#45;&gt;Node23 -->
<g id="edge30" class="edge"><title>Node22&#45;&gt;Node23</title>
<path fill="none" stroke="midnightblue" d="M453.983,-224.444C426.104,-215.32 381.78,-200.813 350.728,-190.651"/>
<polygon fill="midnightblue" stroke="midnightblue" points="351.743,-187.3 341.15,-187.516 349.566,-193.953 351.743,-187.3"/>
</g>
<!-- Node24 -->
<g id="node25" class="node"><title>Node24</title>
<polygon fill="white" stroke="#bfbfbf" points="379.628,-168.5 379.628,-187.5 424.628,-187.5 424.628,-168.5 379.628,-168.5"/>
<text text-anchor="middle" x="402.128" y="-175.5" font-family="Helvetica,sans-Serif" font-size="10.00">climits</text>
</g>
<!-- Node22&#45;&gt;Node24 -->
<g id="edge36" class="edge"><title>Node22&#45;&gt;Node24</title>
<path fill="none" stroke="midnightblue" d="M467.596,-224.324C455.542,-215.979 437.101,-203.212 422.859,-193.352"/>
<polygon fill="midnightblue" stroke="midnightblue" points="424.843,-190.469 414.629,-187.655 420.859,-196.224 424.843,-190.469"/>
</g>
<!-- Node25 -->
<g id="node26" class="node"><title>Node25</title>
<polygon fill="white" stroke="#bfbfbf" points="115.628,-168.5 115.628,-187.5 174.628,-187.5 174.628,-168.5 115.628,-168.5"/>
<text text-anchor="middle" x="145.128" y="-175.5" font-family="Helvetica,sans-Serif" font-size="10.00">stdexcept</text>
</g>
<!-- Node22&#45;&gt;Node25 -->
<g id="edge38" class="edge"><title>Node22&#45;&gt;Node25</title>
<path fill="none" stroke="midnightblue" d="M441.897,-227.689C386.176,-219.812 279.447,-204.211 189.128,-188 187.689,-187.742 186.225,-187.473 184.747,-187.197"/>
<polygon fill="midnightblue" stroke="midnightblue" points="185.395,-183.757 174.912,-185.295 184.066,-190.63 185.395,-183.757"/>
</g>
<!-- Node23&#45;&gt;Node4 -->
<g id="edge33" class="edge"><title>Node23&#45;&gt;Node4</title>
<path fill="none" stroke="midnightblue" d="M361.308,-169.21C364.29,-168.779 367.249,-168.371 370.128,-168 535.174,-146.703 580.207,-153.677 749.381,-132.004"/>
<polygon fill="midnightblue" stroke="midnightblue" points="749.908,-135.465 759.375,-130.709 749.008,-128.523 749.908,-135.465"/>
</g>
<!-- Node23&#45;&gt;Node5 -->
<g id="edge31" class="edge"><title>Node23&#45;&gt;Node5</title>
<path fill="none" stroke="midnightblue" d="M324.35,-168.491C339.203,-155.118 369.741,-128.958 399.128,-112 470.868,-70.6031 562.873,-37.767 611.849,-21.7247"/>
<polygon fill="midnightblue" stroke="midnightblue" points="613.189,-24.9699 621.624,-18.5593 611.032,-18.3104 613.189,-24.9699"/>
</g>
<!-- Node23&#45;&gt;Node16 -->
<g id="edge32" class="edge"><title>Node23&#45;&gt;Node16</title>
<path fill="none" stroke="midnightblue" d="M350.938,-168.444C393.597,-158.251 464.37,-141.34 506.501,-131.274"/>
<polygon fill="midnightblue" stroke="midnightblue" points="507.394,-134.659 516.306,-128.931 505.767,-127.851 507.394,-134.659"/>
</g>
<!-- Node26&#45;&gt;Node5 -->
<g id="edge48" class="edge"><title>Node26&#45;&gt;Node5</title>
<path fill="none" stroke="midnightblue" d="M201.962,-231.689C147.048,-228.48 28.8702,-218.155 4.12789,-188 -1.5105,-181.128 -1.10689,-175.184 4.12789,-168 77.5027,-67.3038 488.402,-24.4681 611.363,-13.7903"/>
<polygon fill="midnightblue" stroke="midnightblue" points="611.698,-17.2745 621.365,-12.938 611.104,-10.2998 611.698,-17.2745"/>
</g>
<!-- Node26&#45;&gt;Node8 -->
<g id="edge45" class="edge"><title>Node26&#45;&gt;Node8</title>
<path fill="none" stroke="midnightblue" d="M201.81,-228.906C156.616,-221.249 76.1722,-202.346 106.128,-168 143.654,-124.974 320.454,-121.626 397.777,-122.286"/>
<polygon fill="midnightblue" stroke="midnightblue" points="397.963,-125.788 408.002,-122.401 398.043,-118.788 397.963,-125.788"/>
</g>
<!-- Node26&#45;&gt;Node15 -->
<g id="edge49" class="edge"><title>Node26&#45;&gt;Node15</title>
<path fill="none" stroke="midnightblue" d="M258.317,-228.443C320.44,-218.399 468.731,-194.423 533.255,-183.991"/>
<polygon fill="midnightblue" stroke="midnightblue" points="533.91,-187.431 543.223,-182.38 532.793,-180.521 533.91,-187.431"/>
</g>
<!-- Node26&#45;&gt;Node18 -->
<g id="edge50" class="edge"><title>Node26&#45;&gt;Node18</title>
<path fill="none" stroke="midnightblue" d="M258.155,-227.306C295.584,-219.589 364.164,-205.059 432.685,-187.991"/>
<polygon fill="midnightblue" stroke="midnightblue" points="433.944,-191.283 442.791,-185.454 432.24,-184.494 433.944,-191.283"/>
</g>
<!-- Node26&#45;&gt;Node23 -->
<g id="edge51" class="edge"><title>Node26&#45;&gt;Node23</title>
<path fill="none" stroke="midnightblue" d="M243.785,-224.324C257.044,-215.9 277.396,-202.971 292.974,-193.074"/>
<polygon fill="midnightblue" stroke="midnightblue" points="294.941,-195.971 301.505,-187.655 291.188,-190.063 294.941,-195.971"/>
</g>
<!-- Node26&#45;&gt;Node25 -->
<g id="edge47" class="edge"><title>Node26&#45;&gt;Node25</title>
<path fill="none" stroke="midnightblue" d="M216.471,-224.324C203.212,-215.9 182.86,-202.971 167.282,-193.074"/>
<polygon fill="midnightblue" stroke="midnightblue" points="169.068,-190.063 158.751,-187.655 165.315,-195.971 169.068,-190.063"/>
</g>
<!-- Node27 -->
<g id="node28" class="node"><title>Node27</title>
<polygon fill="white" stroke="#bfbfbf" points="13.1279,-168.5 13.1279,-187.5 59.1279,-187.5 59.1279,-168.5 13.1279,-168.5"/>
<text text-anchor="middle" x="36.1279" y="-175.5" font-family="Helvetica,sans-Serif" font-size="10.00">cstring</text>
</g>
<!-- Node26&#45;&gt;Node27 -->
<g id="edge46" class="edge"><title>Node26&#45;&gt;Node27</title>
<path fill="none" stroke="midnightblue" d="M201.919,-225.148C166.665,-215.335 106.437,-198.57 69.0937,-188.176"/>
<polygon fill="midnightblue" stroke="midnightblue" points="69.7801,-184.734 59.2078,-185.424 67.9029,-191.478 69.7801,-184.734"/>
</g>
</g>
</svg>
        <g id="navigator" transform="translate(0 0)" fill="#404254">
                <rect fill="#f2f5e9" fill-opacity="0.5" stroke="#606060" stroke-width=".5" x="0" y="0" width="60" height="60"/>
                <use id="zoomplus" xlink:href="#zoomPlus" x="17" y="9" onmousedown="handleZoom(evt,'in')"/>
                <use id="zoomminus" xlink:href="#zoomMin" x="42" y="9" onmousedown="handleZoom(evt,'out')"/>
                <use id="reset" xlink:href="#resetDef" x="30" y="36" onmousedown="handleReset()"/>
                <g id="arrowUp" xlink:href="#dirArrow" transform="translate(30 24)" onmousedown="handlePan(0,-1)">
                  <use xlink:href="#rim" fill="#404040">
                        <set attributeName="fill" to="#808080" begin="arrowUp.mouseover" end="arrowUp.mouseout"/>
                  </use>
                  <path fill="none" stroke="white" stroke-width="1.5" d="M0,-3.0v7 M-2.5,-0.5L0,-3.0L2.5,-0.5"/>
                </g>
                <g id="arrowRight" xlink:href="#dirArrow" transform="rotate(90) translate(36 -43)" onmousedown="handlePan(1,0)">
                  <use xlink:href="#rim" fill="#404040">
                        <set attributeName="fill" to="#808080" begin="arrowRight.mouseover" end="arrowRight.mouseout"/>
                  </use>
                  <path fill="none" stroke="white" stroke-width="1.5" d="M0,-3.0v7 M-2.5,-0.5L0,-3.0L2.5,-0.5"/>
                </g>
                <g id="arrowDown" xlink:href="#dirArrow" transform="rotate(180) translate(-30 -48)" onmousedown="handlePan(0,1)">
                  <use xlink:href="#rim" fill="#404040">
                        <set attributeName="fill" to="#808080" begin="arrowDown.mouseover" end="arrowDown.mouseout"/>
                  </use>
                  <path fill="none" stroke="white" stroke-width="1.5" d="M0,-3.0v7 M-2.5,-0.5L0,-3.0L2.5,-0.5"/>
                </g>
                <g id="arrowLeft" xlink:href="#dirArrow" transform="rotate(270) translate(-36 17)" onmousedown="handlePan(-1,0)">
                  <use xlink:href="#rim" fill="#404040">
                        <set attributeName="fill" to="#808080" begin="arrowLeft.mouseover" end="arrowLeft.mouseout"/>
                  </use>
                  <path fill="none" stroke="white" stroke-width="1.5" d="M0,-3.0v7 M-2.5,-0.5L0,-3.0L2.5,-0.5"/>
                </g>
        </g>
        <svg viewBox="0 0 15 15" width="100%" height="30px" preserveAspectRatio="xMaxYMin meet">
         <g id="arrow_out" transform="scale(0.3 0.3)">
          <a xlink:href="compressor_8h__incl_org.svg" target="_base">
           <rect id="button" ry="5" rx="5" y="6" x="6" height="38" width="38"
                fill="#f2f5e9" fill-opacity="0.5" stroke="#606060" stroke-width="1.0"/>
           <path id="arrow"
             d="M 11.500037,31.436501 C 11.940474,20.09759 22.043105,11.32322 32.158766,21.979434 L 37.068811,17.246167 C 37.068811,17.246167 37.088388,32 37.088388,32 L 22.160133,31.978069 C 22.160133,31.978069 26.997745,27.140456 26.997745,27.140456 C 18.528582,18.264221 13.291696,25.230495 11.500037,31.436501 z"
             style="fill:#404040;"/>
          </a>
         </g>
        </svg>
</svg>
