<?xml version="1.0" encoding="UTF-8" standalone="no"?>
<!DOCTYPE svg PUBLIC "-//W3C//DTD SVG 1.1//EN"
 "http://www.w3.org/Graphics/SVG/1.1/DTD/svg11.dtd">
<!-- Generated by graphviz version 2.36.0 (20140111.2315)
 -->
<!-- Title: src/wallet/crypter.h Pages: 1 -->
<svg width="2810pt" height="276pt"
 viewBox="0.00 0.00 2810.00 276.00" xmlns="http://www.w3.org/2000/svg" xmlns:xlink="http://www.w3.org/1999/xlink">
<g id="graph0" class="graph" transform="scale(1 1) rotate(0) translate(4 272)">
<title>src/wallet/crypter.h</title>
<polygon fill="white" stroke="none" points="-4,4 -4,-272 2806,-272 2806,4 -4,4"/>
<!-- Node65 -->
<g id="node1" class="node"><title>Node65</title>
<polygon fill="#bfbfbf" stroke="black" points="1166,-248.5 1166,-267.5 1266,-267.5 1266,-248.5 1166,-248.5"/>
<text text-anchor="middle" x="1216" y="-255.5" font-family="Helvetica,sans-Serif" font-size="10.00">src/wallet/crypter.h</text>
</g>
<!-- Node66 -->
<g id="node2" class="node"><title>Node66</title>
<g id="a_node2"><a xlink:href="ccoins__caching_8cpp.html" target="_top" xlink:title="src/bench/ccoins_caching.cpp">
<polygon fill="white" stroke="black" points="894.5,-186.5 894.5,-205.5 1043.5,-205.5 1043.5,-186.5 894.5,-186.5"/>
<text text-anchor="middle" x="969" y="-193.5" font-family="Helvetica,sans-Serif" font-size="10.00">src/bench/ccoins_caching.cpp</text>
</a>
</g>
</g>
<!-- Node65&#45;&gt;Node66 -->
<g id="edge1" class="edge"><title>Node65&#45;&gt;Node66</title>
<path fill="none" stroke="midnightblue" d="M1171.05,-246.082C1123.01,-234.41 1047.84,-216.152 1004.01,-205.503"/>
<polygon fill="midnightblue" stroke="midnightblue" points="1170.33,-249.508 1180.87,-248.467 1171.98,-242.706 1170.33,-249.508"/>
</g>
<!-- Node67 -->
<g id="node3" class="node"><title>Node67</title>
<g id="a_node3"><a xlink:href="keepass_8cpp.html" target="_top" xlink:title="src/keepass.cpp">
<polygon fill="white" stroke="black" points="1061.5,-186.5 1061.5,-205.5 1150.5,-205.5 1150.5,-186.5 1061.5,-186.5"/>
<text text-anchor="middle" x="1106" y="-193.5" font-family="Helvetica,sans-Serif" font-size="10.00">src/keepass.cpp</text>
</a>
</g>
</g>
<!-- Node65&#45;&gt;Node67 -->
<g id="edge2" class="edge"><title>Node65&#45;&gt;Node67</title>
<path fill="none" stroke="midnightblue" d="M1191.43,-243.6C1170.13,-231.98 1139.93,-215.509 1121.73,-205.581"/>
<polygon fill="midnightblue" stroke="midnightblue" points="1189.78,-246.688 1200.24,-248.403 1193.14,-240.542 1189.78,-246.688"/>
</g>
<!-- Node68 -->
<g id="node4" class="node"><title>Node68</title>
<g id="a_node4"><a xlink:href="wallet_8h.html" target="_top" xlink:title="src/wallet/wallet.h">
<polygon fill="white" stroke="black" points="1168.5,-186.5 1168.5,-205.5 1263.5,-205.5 1263.5,-186.5 1168.5,-186.5"/>
<text text-anchor="middle" x="1216" y="-193.5" font-family="Helvetica,sans-Serif" font-size="10.00">src/wallet/wallet.h</text>
</a>
</g>
</g>
<!-- Node65&#45;&gt;Node68 -->
<g id="edge3" class="edge"><title>Node65&#45;&gt;Node68</title>
<path fill="none" stroke="midnightblue" d="M1216,-238.16C1216,-227.248 1216,-214.04 1216,-205.581"/>
<polygon fill="midnightblue" stroke="midnightblue" points="1212.5,-238.403 1216,-248.403 1219.5,-238.403 1212.5,-238.403"/>
</g>
<!-- Node93 -->
<g id="node29" class="node"><title>Node93</title>
<g id="a_node29"><a xlink:href="crypter_8cpp.html" target="_top" xlink:title="src/wallet/crypter.cpp">
<polygon fill="white" stroke="black" points="1282,-186.5 1282,-205.5 1392,-205.5 1392,-186.5 1282,-186.5"/>
<text text-anchor="middle" x="1337" y="-193.5" font-family="Helvetica,sans-Serif" font-size="10.00">src/wallet/crypter.cpp</text>
</a>
</g>
</g>
<!-- Node65&#45;&gt;Node93 -->
<g id="edge33" class="edge"><title>Node65&#45;&gt;Node93</title>
<path fill="none" stroke="midnightblue" d="M1242.39,-243.912C1265.86,-232.276 1299.49,-215.598 1319.7,-205.581"/>
<polygon fill="midnightblue" stroke="midnightblue" points="1240.74,-240.825 1233.34,-248.403 1243.85,-247.097 1240.74,-240.825"/>
</g>
<!-- Node94 -->
<g id="node30" class="node"><title>Node94</title>
<g id="a_node30"><a xlink:href="crypto__tests_8cpp.html" target="_top" xlink:title="src/wallet/test/crypto\l_tests.cpp">
<polygon fill="white" stroke="black" points="1410,-181 1410,-211 1518,-211 1518,-181 1410,-181"/>
<text text-anchor="start" x="1418" y="-199" font-family="Helvetica,sans-Serif" font-size="10.00">src/wallet/test/crypto</text>
<text text-anchor="middle" x="1464" y="-188" font-family="Helvetica,sans-Serif" font-size="10.00">_tests.cpp</text>
</a>
</g>
</g>
<!-- Node65&#45;&gt;Node94 -->
<g id="edge34" class="edge"><title>Node65&#45;&gt;Node94</title>
<path fill="none" stroke="midnightblue" d="M1261.17,-246.072C1302.97,-235.959 1365.19,-220.906 1409.68,-210.142"/>
<polygon fill="midnightblue" stroke="midnightblue" points="1260.17,-242.714 1251.27,-248.467 1261.81,-249.517 1260.17,-242.714"/>
</g>
<!-- Node69 -->
<g id="node5" class="node"><title>Node69</title>
<g id="a_node5"><a xlink:href="coin__selection_8cpp.html" target="_top" xlink:title="src/bench/coin_selection.cpp">
<polygon fill="white" stroke="black" points="108.5,-118.5 108.5,-137.5 251.5,-137.5 251.5,-118.5 108.5,-118.5"/>
<text text-anchor="middle" x="180" y="-125.5" font-family="Helvetica,sans-Serif" font-size="10.00">src/bench/coin_selection.cpp</text>
</a>
</g>
</g>
<!-- Node68&#45;&gt;Node69 -->
<g id="edge4" class="edge"><title>Node68&#45;&gt;Node69</title>
<path fill="none" stroke="midnightblue" d="M1178.53,-183.908C1172.06,-182.35 1165.38,-180.956 1159,-180 766.178,-121.11 660.961,-186.218 266,-144 251.683,-142.47 236.149,-140.009 222.273,-137.52"/>
<polygon fill="midnightblue" stroke="midnightblue" points="1177.86,-187.351 1188.42,-186.453 1179.61,-180.572 1177.86,-187.351"/>
</g>
<!-- Node70 -->
<g id="node6" class="node"><title>Node70</title>
<g id="a_node6"><a xlink:href="privatesend-util_8h.html" target="_top" xlink:title="src/privatesend&#45;util.h">
<polygon fill="white" stroke="black" points="449.5,-118.5 449.5,-137.5 556.5,-137.5 556.5,-118.5 449.5,-118.5"/>
<text text-anchor="middle" x="503" y="-125.5" font-family="Helvetica,sans-Serif" font-size="10.00">src/privatesend&#45;util.h</text>
</a>
</g>
</g>
<!-- Node68&#45;&gt;Node70 -->
<g id="edge5" class="edge"><title>Node68&#45;&gt;Node70</title>
<path fill="none" stroke="midnightblue" d="M1178.31,-183.975C1171.91,-182.423 1165.3,-181.013 1159,-180 902.69,-138.769 833.341,-178.211 576,-144 564.072,-142.414 551.177,-140.001 539.591,-137.571"/>
<polygon fill="midnightblue" stroke="midnightblue" points="1177.55,-187.395 1188.11,-186.496 1179.3,-180.616 1177.55,-187.395"/>
</g>
<!-- Node71 -->
<g id="node7" class="node"><title>Node71</title>
<g id="a_node7"><a xlink:href="privatesend-client_8h.html" target="_top" xlink:title="src/privatesend&#45;client.h">
<polygon fill="white" stroke="black" points="308,-56.5 308,-75.5 426,-75.5 426,-56.5 308,-56.5"/>
<text text-anchor="middle" x="367" y="-63.5" font-family="Helvetica,sans-Serif" font-size="10.00">src/privatesend&#45;client.h</text>
</a>
</g>
</g>
<!-- Node68&#45;&gt;Node71 -->
<g id="edge14" class="edge"><title>Node68&#45;&gt;Node71</title>
<path fill="none" stroke="midnightblue" d="M1178.32,-183.912C1171.92,-182.367 1165.3,-180.977 1159,-180 1000.91,-155.512 585.345,-210.842 440,-144 407.532,-129.069 382.351,-92.5481 372.058,-75.7342"/>
<polygon fill="midnightblue" stroke="midnightblue" points="1177.57,-187.332 1188.12,-186.43 1179.31,-180.552 1177.57,-187.332"/>
</g>
<!-- Node73 -->
<g id="node9" class="node"><title>Node73</title>
<g id="a_node9"><a xlink:href="coincontroldialog_8cpp.html" target="_top" xlink:title="src/qt/coincontroldialog.cpp">
<polygon fill="white" stroke="black" points="0,-0.5 0,-19.5 136,-19.5 136,-0.5 0,-0.5"/>
<text text-anchor="middle" x="68" y="-7.5" font-family="Helvetica,sans-Serif" font-size="10.00">src/qt/coincontroldialog.cpp</text>
</a>
</g>
</g>
<!-- Node68&#45;&gt;Node73 -->
<g id="edge16" class="edge"><title>Node68&#45;&gt;Node73</title>
<path fill="none" stroke="midnightblue" d="M1178.52,-183.945C1172.06,-182.382 1165.37,-180.978 1159,-180 823.438,-128.517 727.586,-216.823 396,-144 269.963,-116.32 129.99,-44.5551 83.7568,-19.6583"/>
<polygon fill="midnightblue" stroke="midnightblue" points="1177.86,-187.388 1188.41,-186.492 1179.6,-180.609 1177.86,-187.388"/>
</g>
<!-- Node75 -->
<g id="node11" class="node"><title>Node75</title>
<g id="a_node11"><a xlink:href="walletmodel_8cpp.html" target="_top" xlink:title="src/qt/walletmodel.cpp">
<polygon fill="white" stroke="black" points="441.5,-0.5 441.5,-19.5 556.5,-19.5 556.5,-0.5 441.5,-0.5"/>
<text text-anchor="middle" x="499" y="-7.5" font-family="Helvetica,sans-Serif" font-size="10.00">src/qt/walletmodel.cpp</text>
</a>
</g>
</g>
<!-- Node68&#45;&gt;Node75 -->
<g id="edge24" class="edge"><title>Node68&#45;&gt;Node75</title>
<path fill="none" stroke="midnightblue" d="M1178.1,-183.97C1171.76,-182.431 1165.23,-181.028 1159,-180 1045.81,-161.32 746.073,-196.37 644,-144 598.787,-120.803 609.256,-89.4483 571,-56 553.91,-41.0581 531.327,-27.8087 516.043,-19.6226"/>
<polygon fill="midnightblue" stroke="midnightblue" points="1177.26,-187.367 1187.81,-186.464 1179,-180.587 1177.26,-187.367"/>
</g>
<!-- Node76 -->
<g id="node12" class="node"><title>Node76</title>
<g id="a_node12"><a xlink:href="rpcwallet_8cpp.html" target="_top" xlink:title="src/wallet/rpcwallet.cpp">
<polygon fill="white" stroke="black" points="574.5,-0.5 574.5,-19.5 693.5,-19.5 693.5,-0.5 574.5,-0.5"/>
<text text-anchor="middle" x="634" y="-7.5" font-family="Helvetica,sans-Serif" font-size="10.00">src/wallet/rpcwallet.cpp</text>
</a>
</g>
</g>
<!-- Node68&#45;&gt;Node76 -->
<g id="edge27" class="edge"><title>Node68&#45;&gt;Node76</title>
<path fill="none" stroke="midnightblue" d="M1178.1,-183.99C1171.76,-182.449 1165.23,-181.04 1159,-180 1105.37,-171.044 713.051,-178.463 671,-144 632.257,-112.249 632.113,-43.6942 633.366,-19.5922"/>
<polygon fill="midnightblue" stroke="midnightblue" points="1177.25,-187.388 1187.81,-186.486 1178.99,-180.608 1177.25,-187.388"/>
</g>
<!-- Node77 -->
<g id="node13" class="node"><title>Node77</title>
<g id="a_node13"><a xlink:href="wallet_8cpp.html" target="_top" xlink:title="src/wallet/wallet.cpp">
<polygon fill="white" stroke="black" points="712,-0.5 712,-19.5 818,-19.5 818,-0.5 712,-0.5"/>
<text text-anchor="middle" x="765" y="-7.5" font-family="Helvetica,sans-Serif" font-size="10.00">src/wallet/wallet.cpp</text>
</a>
</g>
</g>
<!-- Node68&#45;&gt;Node77 -->
<g id="edge31" class="edge"><title>Node68&#45;&gt;Node77</title>
<path fill="none" stroke="midnightblue" d="M1178.09,-184.002C1171.76,-182.46 1165.22,-181.047 1159,-180 1106.91,-171.243 720.906,-182.737 685,-144 647.266,-103.291 722.062,-41.9776 752.718,-19.58"/>
<polygon fill="midnightblue" stroke="midnightblue" points="1177.25,-187.399 1187.81,-186.498 1178.99,-180.619 1177.25,-187.399"/>
</g>
<!-- Node79 -->
<g id="node15" class="node"><title>Node79</title>
<g id="a_node15"><a xlink:href="addresstablemodel_8cpp.html" target="_top" xlink:title="src/qt/addresstablemodel.cpp">
<polygon fill="white" stroke="black" points="694.5,-118.5 694.5,-137.5 839.5,-137.5 839.5,-118.5 694.5,-118.5"/>
<text text-anchor="middle" x="767" y="-125.5" font-family="Helvetica,sans-Serif" font-size="10.00">src/qt/addresstablemodel.cpp</text>
</a>
</g>
</g>
<!-- Node68&#45;&gt;Node79 -->
<g id="edge15" class="edge"><title>Node68&#45;&gt;Node79</title>
<path fill="none" stroke="midnightblue" d="M1177.01,-183.956C1171.01,-182.484 1164.86,-181.105 1159,-180 1022.26,-154.229 985.6,-164.68 848,-144 835.696,-142.151 822.4,-139.826 810.207,-137.563"/>
<polygon fill="midnightblue" stroke="midnightblue" points="1176.34,-187.396 1186.89,-186.488 1178.07,-180.615 1176.34,-187.396"/>
</g>
<!-- Node80 -->
<g id="node16" class="node"><title>Node80</title>
<g id="a_node16"><a xlink:href="masternodelist_8cpp.html" target="_top" xlink:title="src/qt/masternodelist.cpp">
<polygon fill="white" stroke="black" points="857.5,-118.5 857.5,-137.5 984.5,-137.5 984.5,-118.5 857.5,-118.5"/>
<text text-anchor="middle" x="921" y="-125.5" font-family="Helvetica,sans-Serif" font-size="10.00">src/qt/masternodelist.cpp</text>
</a>
</g>
</g>
<!-- Node68&#45;&gt;Node80 -->
<g id="edge17" class="edge"><title>Node68&#45;&gt;Node80</title>
<path fill="none" stroke="midnightblue" d="M1174.71,-183.893C1169.43,-182.545 1164.09,-181.216 1159,-180 1122.11,-171.198 1019.94,-149.666 962.174,-137.583"/>
<polygon fill="midnightblue" stroke="midnightblue" points="1174.15,-187.364 1184.71,-186.487 1175.91,-180.588 1174.15,-187.364"/>
</g>
<!-- Node81 -->
<g id="node17" class="node"><title>Node81</title>
<g id="a_node17"><a xlink:href="paymentserver_8cpp.html" target="_top" xlink:title="src/qt/paymentserver.cpp">
<polygon fill="white" stroke="black" points="1003,-118.5 1003,-137.5 1131,-137.5 1131,-118.5 1003,-118.5"/>
<text text-anchor="middle" x="1067" y="-125.5" font-family="Helvetica,sans-Serif" font-size="10.00">src/qt/paymentserver.cpp</text>
</a>
</g>
</g>
<!-- Node68&#45;&gt;Node81 -->
<g id="edge18" class="edge"><title>Node68&#45;&gt;Node81</title>
<path fill="none" stroke="midnightblue" d="M1187.12,-182.206C1157.47,-169.072 1112.14,-148.996 1086.48,-137.63"/>
<polygon fill="midnightblue" stroke="midnightblue" points="1185.96,-185.522 1196.52,-186.372 1188.8,-179.121 1185.96,-185.522"/>
</g>
<!-- Node82 -->
<g id="node18" class="node"><title>Node82</title>
<g id="a_node18"><a xlink:href="sendcoinsdialog_8cpp.html" target="_top" xlink:title="src/qt/sendcoinsdialog.cpp">
<polygon fill="white" stroke="black" points="1149.5,-118.5 1149.5,-137.5 1282.5,-137.5 1282.5,-118.5 1149.5,-118.5"/>
<text text-anchor="middle" x="1216" y="-125.5" font-family="Helvetica,sans-Serif" font-size="10.00">src/qt/sendcoinsdialog.cpp</text>
</a>
</g>
</g>
<!-- Node68&#45;&gt;Node82 -->
<g id="edge19" class="edge"><title>Node68&#45;&gt;Node82</title>
<path fill="none" stroke="midnightblue" d="M1216,-176.041C1216,-163.472 1216,-147.563 1216,-137.841"/>
<polygon fill="midnightblue" stroke="midnightblue" points="1212.5,-176.372 1216,-186.372 1219.5,-176.372 1212.5,-176.372"/>
</g>
<!-- Node83 -->
<g id="node19" class="node"><title>Node83</title>
<g id="a_node19"><a xlink:href="signverifymessagedialog_8cpp.html" target="_top" xlink:title="src/qt/signverifymessagedialog.cpp">
<polygon fill="white" stroke="black" points="1301,-118.5 1301,-137.5 1471,-137.5 1471,-118.5 1301,-118.5"/>
<text text-anchor="middle" x="1386" y="-125.5" font-family="Helvetica,sans-Serif" font-size="10.00">src/qt/signverifymessagedialog.cpp</text>
</a>
</g>
</g>
<!-- Node68&#45;&gt;Node83 -->
<g id="edge20" class="edge"><title>Node68&#45;&gt;Node83</title>
<path fill="none" stroke="midnightblue" d="M1247.67,-182.706C1281.56,-169.547 1334.44,-149.017 1364.04,-137.526"/>
<polygon fill="midnightblue" stroke="midnightblue" points="1246.28,-179.49 1238.22,-186.372 1248.81,-186.015 1246.28,-179.49"/>
</g>
<!-- Node84 -->
<g id="node20" class="node"><title>Node84</title>
<g id="a_node20"><a xlink:href="transactiondesc_8cpp.html" target="_top" xlink:title="src/qt/transactiondesc.cpp">
<polygon fill="white" stroke="black" points="1489,-118.5 1489,-137.5 1621,-137.5 1621,-118.5 1489,-118.5"/>
<text text-anchor="middle" x="1555" y="-125.5" font-family="Helvetica,sans-Serif" font-size="10.00">src/qt/transactiondesc.cpp</text>
</a>
</g>
</g>
<!-- Node68&#45;&gt;Node84 -->
<g id="edge21" class="edge"><title>Node68&#45;&gt;Node84</title>
<path fill="none" stroke="midnightblue" d="M1256.45,-183.901C1262,-182.513 1267.63,-181.172 1273,-180 1364.24,-160.1 1388.21,-161.158 1480,-144 1490.83,-141.975 1502.53,-139.686 1513.38,-137.518"/>
<polygon fill="midnightblue" stroke="midnightblue" points="1255.46,-180.542 1246.65,-186.422 1257.21,-187.321 1255.46,-180.542"/>
</g>
<!-- Node85 -->
<g id="node21" class="node"><title>Node85</title>
<g id="a_node21"><a xlink:href="transactionrecord_8cpp.html" target="_top" xlink:title="src/qt/transactionrecord.cpp">
<polygon fill="white" stroke="black" points="1639,-118.5 1639,-137.5 1777,-137.5 1777,-118.5 1639,-118.5"/>
<text text-anchor="middle" x="1708" y="-125.5" font-family="Helvetica,sans-Serif" font-size="10.00">src/qt/transactionrecord.cpp</text>
</a>
</g>
</g>
<!-- Node68&#45;&gt;Node85 -->
<g id="edge22" class="edge"><title>Node68&#45;&gt;Node85</title>
<path fill="none" stroke="midnightblue" d="M1254.78,-183.927C1260.84,-182.447 1267.07,-181.073 1273,-180 1429.93,-151.621 1472.21,-167.081 1630,-144 1642.14,-142.224 1655.27,-139.869 1667.23,-137.554"/>
<polygon fill="midnightblue" stroke="midnightblue" points="1253.62,-180.61 1244.8,-186.482 1255.36,-187.392 1253.62,-180.61"/>
</g>
<!-- Node86 -->
<g id="node22" class="node"><title>Node86</title>
<g id="a_node22"><a xlink:href="transactiontablemodel_8cpp.html" target="_top" xlink:title="src/qt/transactiontablemodel.cpp">
<polygon fill="white" stroke="black" points="1795,-118.5 1795,-137.5 1953,-137.5 1953,-118.5 1795,-118.5"/>
<text text-anchor="middle" x="1874" y="-125.5" font-family="Helvetica,sans-Serif" font-size="10.00">src/qt/transactiontablemodel.cpp</text>
</a>
</g>
</g>
<!-- Node68&#45;&gt;Node86 -->
<g id="edge23" class="edge"><title>Node68&#45;&gt;Node86</title>
<path fill="none" stroke="midnightblue" d="M1253.9,-183.971C1260.24,-182.433 1266.77,-181.029 1273,-180 1498.51,-142.753 1559.07,-171.236 1786,-144 1800,-142.319 1815.17,-139.938 1828.9,-137.567"/>
<polygon fill="midnightblue" stroke="midnightblue" points="1253,-180.588 1244.19,-186.465 1254.74,-187.368 1253,-180.588"/>
</g>
<!-- Node87 -->
<g id="node23" class="node"><title>Node87</title>
<g id="a_node23"><a xlink:href="walletmodeltransaction_8cpp.html" target="_top" xlink:title="src/qt/walletmodeltransaction.cpp">
<polygon fill="white" stroke="black" points="1971.5,-118.5 1971.5,-137.5 2134.5,-137.5 2134.5,-118.5 1971.5,-118.5"/>
<text text-anchor="middle" x="2053" y="-125.5" font-family="Helvetica,sans-Serif" font-size="10.00">src/qt/walletmodeltransaction.cpp</text>
</a>
</g>
</g>
<!-- Node68&#45;&gt;Node87 -->
<g id="edge25" class="edge"><title>Node68&#45;&gt;Node87</title>
<path fill="none" stroke="midnightblue" d="M1253.68,-183.924C1260.08,-182.378 1266.7,-180.984 1273,-180 1575.53,-132.79 1656.55,-176.685 1961,-144 1975.96,-142.393 1992.2,-139.975 2006.8,-137.546"/>
<polygon fill="midnightblue" stroke="midnightblue" points="1252.7,-180.564 1243.88,-186.442 1254.44,-187.344 1252.7,-180.564"/>
</g>
<!-- Node88 -->
<g id="node24" class="node"><title>Node88</title>
<g id="a_node24"><a xlink:href="rpcdump_8cpp.html" target="_top" xlink:title="src/wallet/rpcdump.cpp">
<polygon fill="white" stroke="black" points="2153,-118.5 2153,-137.5 2271,-137.5 2271,-118.5 2153,-118.5"/>
<text text-anchor="middle" x="2212" y="-125.5" font-family="Helvetica,sans-Serif" font-size="10.00">src/wallet/rpcdump.cpp</text>
</a>
</g>
</g>
<!-- Node68&#45;&gt;Node88 -->
<g id="edge26" class="edge"><title>Node68&#45;&gt;Node88</title>
<path fill="none" stroke="midnightblue" d="M1253.47,-183.914C1259.94,-182.355 1266.63,-180.959 1273,-180 1655.69,-122.42 1759.15,-193.289 2143,-144 2154.55,-142.517 2167.03,-140.069 2178.16,-137.576"/>
<polygon fill="midnightblue" stroke="midnightblue" points="1252.39,-180.577 1243.58,-186.459 1254.14,-187.357 1252.39,-180.577"/>
</g>
<!-- Node89 -->
<g id="node25" class="node"><title>Node89</title>
<g id="a_node25"><a xlink:href="accounting__tests_8cpp.html" target="_top" xlink:title="src/wallet/test/accounting\l_tests.cpp">
<polygon fill="white" stroke="black" points="2289,-113 2289,-143 2417,-143 2417,-113 2289,-113"/>
<text text-anchor="start" x="2297" y="-131" font-family="Helvetica,sans-Serif" font-size="10.00">src/wallet/test/accounting</text>
<text text-anchor="middle" x="2353" y="-120" font-family="Helvetica,sans-Serif" font-size="10.00">_tests.cpp</text>
</a>
</g>
</g>
<!-- Node68&#45;&gt;Node89 -->
<g id="edge28" class="edge"><title>Node68&#45;&gt;Node89</title>
<path fill="none" stroke="midnightblue" d="M1253.47,-183.883C1259.93,-182.328 1266.62,-180.941 1273,-180 1716.04,-114.613 1835.34,-197.255 2280,-144 2282.83,-143.662 2285.71,-143.27 2288.61,-142.838"/>
<polygon fill="midnightblue" stroke="midnightblue" points="1252.39,-180.547 1243.58,-186.427 1254.13,-187.326 1252.39,-180.547"/>
</g>
<!-- Node90 -->
<g id="node26" class="node"><title>Node90</title>
<g id="a_node26"><a xlink:href="wallet__test__fixture_8cpp.html" target="_top" xlink:title="src/wallet/test/wallet\l_test_fixture.cpp">
<polygon fill="white" stroke="black" points="2435.5,-113 2435.5,-143 2542.5,-143 2542.5,-113 2435.5,-113"/>
<text text-anchor="start" x="2443.5" y="-131" font-family="Helvetica,sans-Serif" font-size="10.00">src/wallet/test/wallet</text>
<text text-anchor="middle" x="2489" y="-120" font-family="Helvetica,sans-Serif" font-size="10.00">_test_fixture.cpp</text>
</a>
</g>
</g>
<!-- Node68&#45;&gt;Node90 -->
<g id="edge29" class="edge"><title>Node68&#45;&gt;Node90</title>
<path fill="none" stroke="midnightblue" d="M1253.26,-183.907C1259.79,-182.335 1266.55,-180.936 1273,-180 1780.37,-106.291 1917.8,-211.722 2426,-144 2429.01,-143.599 2432.08,-143.116 2435.18,-142.572"/>
<polygon fill="midnightblue" stroke="midnightblue" points="1252.09,-180.594 1243.28,-186.48 1253.84,-187.372 1252.09,-180.594"/>
</g>
<!-- Node91 -->
<g id="node27" class="node"><title>Node91</title>
<g id="a_node27"><a xlink:href="wallet__tests_8cpp.html" target="_top" xlink:title="src/wallet/test/wallet\l_tests.cpp">
<polygon fill="white" stroke="black" points="2560.5,-113 2560.5,-143 2667.5,-143 2667.5,-113 2560.5,-113"/>
<text text-anchor="start" x="2568.5" y="-131" font-family="Helvetica,sans-Serif" font-size="10.00">src/wallet/test/wallet</text>
<text text-anchor="middle" x="2614" y="-120" font-family="Helvetica,sans-Serif" font-size="10.00">_tests.cpp</text>
</a>
</g>
</g>
<!-- Node68&#45;&gt;Node91 -->
<g id="edge30" class="edge"><title>Node68&#45;&gt;Node91</title>
<path fill="none" stroke="midnightblue" d="M1253.26,-183.89C1259.79,-182.32 1266.55,-180.927 1273,-180 1835.45,-99.1652 1987.64,-218.198 2551,-144 2554.01,-143.604 2557.09,-143.124 2560.18,-142.583"/>
<polygon fill="midnightblue" stroke="midnightblue" points="1252.09,-180.577 1243.28,-186.463 1253.84,-187.356 1252.09,-180.577"/>
</g>
<!-- Node92 -->
<g id="node28" class="node"><title>Node92</title>
<g id="a_node28"><a xlink:href="walletdb_8cpp.html" target="_top" xlink:title="src/wallet/walletdb.cpp">
<polygon fill="white" stroke="black" points="2686,-118.5 2686,-137.5 2802,-137.5 2802,-118.5 2686,-118.5"/>
<text text-anchor="middle" x="2744" y="-125.5" font-family="Helvetica,sans-Serif" font-size="10.00">src/wallet/walletdb.cpp</text>
</a>
</g>
</g>
<!-- Node68&#45;&gt;Node92 -->
<g id="edge32" class="edge"><title>Node68&#45;&gt;Node92</title>
<path fill="none" stroke="midnightblue" d="M1253.26,-183.877C1259.79,-182.308 1266.55,-180.919 1273,-180 1890.53,-92.0391 2056.83,-219.528 2676,-144 2687.64,-142.58 2700.22,-140.083 2711.36,-137.528"/>
<polygon fill="midnightblue" stroke="midnightblue" points="1252.09,-180.564 1243.28,-186.448 1253.84,-187.342 1252.09,-180.564"/>
</g>
<!-- Node70&#45;&gt;Node71 -->
<g id="edge6" class="edge"><title>Node70&#45;&gt;Node71</title>
<path fill="none" stroke="midnightblue" d="M474.034,-114.221C447.631,-102.573 409.358,-85.6874 386.449,-75.5806"/>
<polygon fill="midnightblue" stroke="midnightblue" points="472.953,-117.569 483.515,-118.403 475.778,-111.165 472.953,-117.569"/>
</g>
<!-- Node78 -->
<g id="node14" class="node"><title>Node78</title>
<g id="a_node14"><a xlink:href="privatesend-util_8cpp.html" target="_top" xlink:title="src/privatesend&#45;util.cpp">
<polygon fill="white" stroke="black" points="444,-56.5 444,-75.5 562,-75.5 562,-56.5 444,-56.5"/>
<text text-anchor="middle" x="503" y="-63.5" font-family="Helvetica,sans-Serif" font-size="10.00">src/privatesend&#45;util.cpp</text>
</a>
</g>
</g>
<!-- Node70&#45;&gt;Node78 -->
<g id="edge13" class="edge"><title>Node70&#45;&gt;Node78</title>
<path fill="none" stroke="midnightblue" d="M503,-108.16C503,-97.2482 503,-84.04 503,-75.5806"/>
<polygon fill="midnightblue" stroke="midnightblue" points="499.5,-108.403 503,-118.403 506.5,-108.403 499.5,-108.403"/>
</g>
<!-- Node72 -->
<g id="node8" class="node"><title>Node72</title>
<g id="a_node8"><a xlink:href="privatesend-client_8cpp.html" target="_top" xlink:title="src/privatesend&#45;client.cpp">
<polygon fill="white" stroke="black" points="154,-0.5 154,-19.5 282,-19.5 282,-0.5 154,-0.5"/>
<text text-anchor="middle" x="218" y="-7.5" font-family="Helvetica,sans-Serif" font-size="10.00">src/privatesend&#45;client.cpp</text>
</a>
</g>
</g>
<!-- Node71&#45;&gt;Node72 -->
<g id="edge7" class="edge"><title>Node71&#45;&gt;Node72</title>
<path fill="none" stroke="midnightblue" d="M333.629,-52.9058C305.616,-42.7536 266.304,-28.5063 241.499,-19.5164"/>
<polygon fill="midnightblue" stroke="midnightblue" points="332.796,-56.3267 343.391,-56.4435 335.181,-49.7456 332.796,-56.3267"/>
</g>
<!-- Node71&#45;&gt;Node73 -->
<g id="edge8" class="edge"><title>Node71&#45;&gt;Node73</title>
<path fill="none" stroke="midnightblue" d="M309.77,-54.6642C253.265,-44.4592 167.88,-29.0386 115.156,-19.5164"/>
<polygon fill="midnightblue" stroke="midnightblue" points="309.16,-58.1105 319.623,-56.4435 310.404,-51.2219 309.16,-58.1105"/>
</g>
<!-- Node74 -->
<g id="node10" class="node"><title>Node74</title>
<g id="a_node10"><a xlink:href="overviewpage_8cpp.html" target="_top" xlink:title="src/qt/overviewpage.cpp">
<polygon fill="white" stroke="black" points="300.5,-0.5 300.5,-19.5 423.5,-19.5 423.5,-0.5 300.5,-0.5"/>
<text text-anchor="middle" x="362" y="-7.5" font-family="Helvetica,sans-Serif" font-size="10.00">src/qt/overviewpage.cpp</text>
</a>
</g>
</g>
<!-- Node71&#45;&gt;Node74 -->
<g id="edge9" class="edge"><title>Node71&#45;&gt;Node74</title>
<path fill="none" stroke="midnightblue" d="M365.25,-46.1005C364.42,-37.1357 363.468,-26.8579 362.81,-19.7511"/>
<polygon fill="midnightblue" stroke="midnightblue" points="361.767,-46.4483 366.174,-56.083 368.737,-45.8029 361.767,-46.4483"/>
</g>
<!-- Node71&#45;&gt;Node75 -->
<g id="edge10" class="edge"><title>Node71&#45;&gt;Node75</title>
<path fill="none" stroke="midnightblue" d="M397.219,-52.6377C421.99,-42.504 456.4,-28.4274 478.182,-19.5164"/>
<polygon fill="midnightblue" stroke="midnightblue" points="395.846,-49.4177 387.916,-56.4435 398.497,-55.8966 395.846,-49.4177"/>
</g>
<!-- Node71&#45;&gt;Node76 -->
<g id="edge11" class="edge"><title>Node71&#45;&gt;Node76</title>
<path fill="none" stroke="midnightblue" d="M419.364,-54.4096C469.824,-44.2042 545.199,-28.9597 591.891,-19.5164"/>
<polygon fill="midnightblue" stroke="midnightblue" points="418.415,-51.0306 409.307,-56.4435 419.802,-57.8917 418.415,-51.0306"/>
</g>
<!-- Node71&#45;&gt;Node77 -->
<g id="edge12" class="edge"><title>Node71&#45;&gt;Node77</title>
<path fill="none" stroke="midnightblue" d="M436.322,-55.7576C518.978,-44.7254 652.199,-26.9019 702,-20 705.174,-19.5602 708.437,-19.1045 711.728,-18.6422"/>
<polygon fill="midnightblue" stroke="midnightblue" points="435.703,-52.3092 426.254,-57.1013 436.629,-59.2477 435.703,-52.3092"/>
</g>
</g>
</svg>
