<?xml version="1.0" encoding="UTF-8" standalone="no"?>
<!DOCTYPE svg PUBLIC "-//W3C//DTD SVG 1.1//EN"
 "http://www.w3.org/Graphics/SVG/1.1/DTD/svg11.dtd">
<!-- Generated by graphviz version 2.36.0 (20140111.2315)
 -->
<!-- Title: src/crypto/ctaes/ctaes.c Pages: 1 -->
<svg width="130pt" height="140pt"
 viewBox="0.00 0.00 130.00 140.00" xmlns="http://www.w3.org/2000/svg" xmlns:xlink="http://www.w3.org/1999/xlink">
<g id="graph0" class="graph" transform="scale(1 1) rotate(0) translate(4 136)">
<title>src/crypto/ctaes/ctaes.c</title>
<polygon fill="white" stroke="none" points="-4,4 -4,-136 126,-136 126,4 -4,4"/>
<!-- Node0 -->
<g id="node1" class="node"><title>Node0</title>
<polygon fill="#bfbfbf" stroke="black" points="0,-112.5 0,-131.5 122,-131.5 122,-112.5 0,-112.5"/>
<text text-anchor="middle" x="61" y="-119.5" font-family="Helvetica,sans-Serif" font-size="10.00">src/crypto/ctaes/ctaes.c</text>
</g>
<!-- Node1 -->
<g id="node2" class="node"><title>Node1</title>
<g id="a_node2"><a xlink:href="ctaes_8h.html" target="_top" xlink:title="ctaes.h">
<polygon fill="white" stroke="black" points="36.5,-56.5 36.5,-75.5 85.5,-75.5 85.5,-56.5 36.5,-56.5"/>
<text text-anchor="middle" x="61" y="-63.5" font-family="Helvetica,sans-Serif" font-size="10.00">ctaes.h</text>
</a>
</g>
</g>
<!-- Node0&#45;&gt;Node1 -->
<g id="edge1" class="edge"><title>Node0&#45;&gt;Node1</title>
<path fill="none" stroke="midnightblue" d="M61,-112.083C61,-105.006 61,-94.8611 61,-85.9865"/>
<polygon fill="midnightblue" stroke="midnightblue" points="64.5001,-85.751 61,-75.7511 57.5001,-85.7511 64.5001,-85.751"/>
</g>
<!-- Node2 -->
<g id="node3" class="node"><title>Node2</title>
<polygon fill="white" stroke="#bfbfbf" points="3.5,-0.5 3.5,-19.5 52.5,-19.5 52.5,-0.5 3.5,-0.5"/>
<text text-anchor="middle" x="28" y="-7.5" font-family="Helvetica,sans-Serif" font-size="10.00">stdint.h</text>
</g>
<!-- Node1&#45;&gt;Node2 -->
<g id="edge2" class="edge"><title>Node1&#45;&gt;Node2</title>
<path fill="none" stroke="midnightblue" d="M55.5507,-56.083C50.9855,-48.6127 44.3316,-37.7244 38.7066,-28.5199"/>
<polygon fill="midnightblue" stroke="midnightblue" points="41.5489,-26.4588 33.3479,-19.7511 35.5759,-30.109 41.5489,-26.4588"/>
</g>
<!-- Node3 -->
<g id="node4" class="node"><title>Node3</title>
<polygon fill="white" stroke="#bfbfbf" points="71,-0.5 71,-19.5 119,-19.5 119,-0.5 71,-0.5"/>
<text text-anchor="middle" x="95" y="-7.5" font-family="Helvetica,sans-Serif" font-size="10.00">stdlib.h</text>
</g>
<!-- Node1&#45;&gt;Node3 -->
<g id="edge3" class="edge"><title>Node1&#45;&gt;Node3</title>
<path fill="none" stroke="midnightblue" d="M66.6144,-56.083C71.3674,-48.5341 78.3181,-37.4948 84.1516,-28.2298"/>
<polygon fill="midnightblue" stroke="midnightblue" points="87.1237,-30.0783 89.4901,-19.7511 81.2001,-26.3486 87.1237,-30.0783"/>
</g>
</g>
</svg>
