<?xml version="1.0" encoding="UTF-8" standalone="no"?>
<!DOCTYPE svg PUBLIC "-//W3C//DTD SVG 1.1//EN"
 "http://www.w3.org/Graphics/SVG/1.1/DTD/svg11.dtd">
<!-- Generated by graphviz version 2.36.0 (20140111.2315)
 -->
<!-- Title: src/cuckoocache.h Pages: 1 -->
<svg width="442pt" height="84pt"
 viewBox="0.00 0.00 442.00 84.00" xmlns="http://www.w3.org/2000/svg" xmlns:xlink="http://www.w3.org/1999/xlink">
<g id="graph0" class="graph" transform="scale(1 1) rotate(0) translate(4 80)">
<title>src/cuckoocache.h</title>
<polygon fill="white" stroke="none" points="-4,4 -4,-80 438,-80 438,4 -4,4"/>
<!-- Node0 -->
<g id="node1" class="node"><title>Node0</title>
<polygon fill="#bfbfbf" stroke="black" points="167.5,-56.5 167.5,-75.5 266.5,-75.5 266.5,-56.5 167.5,-56.5"/>
<text text-anchor="middle" x="217" y="-63.5" font-family="Helvetica,sans-Serif" font-size="10.00">src/cuckoocache.h</text>
</g>
<!-- Node1 -->
<g id="node2" class="node"><title>Node1</title>
<polygon fill="white" stroke="#bfbfbf" points="0,-0.5 0,-19.5 38,-19.5 38,-0.5 0,-0.5"/>
<text text-anchor="middle" x="19" y="-7.5" font-family="Helvetica,sans-Serif" font-size="10.00">array</text>
</g>
<!-- Node0&#45;&gt;Node1 -->
<g id="edge1" class="edge"><title>Node0&#45;&gt;Node1</title>
<path fill="none" stroke="midnightblue" d="M182.665,-56.472C150.242,-48.2952 100.05,-35.3196 47.9796,-20.1809"/>
<polygon fill="midnightblue" stroke="midnightblue" points="48.8195,-16.78 38.2389,-17.3297 46.853,-23.4981 48.8195,-16.78"/>
</g>
<!-- Node2 -->
<g id="node3" class="node"><title>Node2</title>
<polygon fill="white" stroke="#bfbfbf" points="56,-0.5 56,-19.5 112,-19.5 112,-0.5 56,-0.5"/>
<text text-anchor="middle" x="84" y="-7.5" font-family="Helvetica,sans-Serif" font-size="10.00">algorithm</text>
</g>
<!-- Node0&#45;&gt;Node2 -->
<g id="edge2" class="edge"><title>Node0&#45;&gt;Node2</title>
<path fill="none" stroke="midnightblue" d="M195.926,-56.4435C173.94,-47.5171 139.266,-33.4387 114.336,-23.3168"/>
<polygon fill="midnightblue" stroke="midnightblue" points="115.558,-20.0355 104.976,-19.5164 112.924,-26.5213 115.558,-20.0355"/>
</g>
<!-- Node3 -->
<g id="node4" class="node"><title>Node3</title>
<polygon fill="white" stroke="#bfbfbf" points="130,-0.5 130,-19.5 176,-19.5 176,-0.5 130,-0.5"/>
<text text-anchor="middle" x="153" y="-7.5" font-family="Helvetica,sans-Serif" font-size="10.00">atomic</text>
</g>
<!-- Node0&#45;&gt;Node3 -->
<g id="edge3" class="edge"><title>Node0&#45;&gt;Node3</title>
<path fill="none" stroke="midnightblue" d="M206.717,-56.324C197.164,-48.2631 182.72,-36.0765 171.216,-26.3695"/>
<polygon fill="midnightblue" stroke="midnightblue" points="173.37,-23.6076 163.47,-19.8339 168.856,-28.9577 173.37,-23.6076"/>
</g>
<!-- Node4 -->
<g id="node5" class="node"><title>Node4</title>
<polygon fill="white" stroke="#bfbfbf" points="194,-0.5 194,-19.5 240,-19.5 240,-0.5 194,-0.5"/>
<text text-anchor="middle" x="217" y="-7.5" font-family="Helvetica,sans-Serif" font-size="10.00">cstring</text>
</g>
<!-- Node0&#45;&gt;Node4 -->
<g id="edge4" class="edge"><title>Node0&#45;&gt;Node4</title>
<path fill="none" stroke="midnightblue" d="M217,-56.083C217,-49.0059 217,-38.8611 217,-29.9865"/>
<polygon fill="midnightblue" stroke="midnightblue" points="220.5,-29.751 217,-19.7511 213.5,-29.7511 220.5,-29.751"/>
</g>
<!-- Node5 -->
<g id="node6" class="node"><title>Node5</title>
<polygon fill="white" stroke="#bfbfbf" points="258,-0.5 258,-19.5 302,-19.5 302,-0.5 258,-0.5"/>
<text text-anchor="middle" x="280" y="-7.5" font-family="Helvetica,sans-Serif" font-size="10.00">cmath</text>
</g>
<!-- Node0&#45;&gt;Node5 -->
<g id="edge5" class="edge"><title>Node0&#45;&gt;Node5</title>
<path fill="none" stroke="midnightblue" d="M227.122,-56.324C236.526,-48.2631 250.744,-36.0765 262.069,-26.3695"/>
<polygon fill="midnightblue" stroke="midnightblue" points="264.379,-28.9993 269.694,-19.8339 259.823,-23.6844 264.379,-28.9993"/>
</g>
<!-- Node6 -->
<g id="node7" class="node"><title>Node6</title>
<polygon fill="white" stroke="#bfbfbf" points="320,-0.5 320,-19.5 372,-19.5 372,-0.5 320,-0.5"/>
<text text-anchor="middle" x="346" y="-7.5" font-family="Helvetica,sans-Serif" font-size="10.00">memory</text>
</g>
<!-- Node0&#45;&gt;Node6 -->
<g id="edge6" class="edge"><title>Node0&#45;&gt;Node6</title>
<path fill="none" stroke="midnightblue" d="M237.44,-56.4435C258.67,-47.5566 292.099,-33.5632 316.255,-23.4514"/>
<polygon fill="midnightblue" stroke="midnightblue" points="317.782,-26.6064 325.655,-19.5164 315.079,-20.1493 317.782,-26.6064"/>
</g>
<!-- Node7 -->
<g id="node8" class="node"><title>Node7</title>
<polygon fill="white" stroke="#bfbfbf" points="390,-0.5 390,-19.5 434,-19.5 434,-0.5 390,-0.5"/>
<text text-anchor="middle" x="412" y="-7.5" font-family="Helvetica,sans-Serif" font-size="10.00">vector</text>
</g>
<!-- Node0&#45;&gt;Node7 -->
<g id="edge7" class="edge"><title>Node0&#45;&gt;Node7</title>
<path fill="none" stroke="midnightblue" d="M248.785,-56.4277C279.915,-47.9991 328.94,-34.6384 380.369,-20.1493"/>
<polygon fill="midnightblue" stroke="midnightblue" points="381.323,-23.5168 389.996,-17.4317 379.421,-16.7801 381.323,-23.5168"/>
</g>
</g>
</svg>
