<?xml version="1.0" encoding="UTF-8" standalone="no"?>
<!DOCTYPE svg PUBLIC "-//W3C//DTD SVG 1.1//EN"
 "http://www.w3.org/Graphics/SVG/1.1/DTD/svg11.dtd">
<!-- Generated by graphviz version 2.36.0 (20140111.2315)
 -->
<!-- Title: src/dash&#45;cli.cpp Pages: 1 -->
<svg width="2287pt" height="196pt"
 viewBox="0.00 0.00 2287.00 196.00" xmlns="http://www.w3.org/2000/svg" xmlns:xlink="http://www.w3.org/1999/xlink">
<g id="graph0" class="graph" transform="scale(1 1) rotate(0) translate(4 192)">
<title>src/dash&#45;cli.cpp</title>
<polygon fill="white" stroke="none" points="-4,4 -4,-192 2283,-192 2283,4 -4,4"/>
<!-- Node0 -->
<g id="node1" class="node"><title>Node0</title>
<polygon fill="#bfbfbf" stroke="black" points="892,-168.5 892,-187.5 978,-187.5 978,-168.5 892,-168.5"/>
<text text-anchor="middle" x="935" y="-175.5" font-family="Helvetica,sans-Serif" font-size="10.00">src/dash&#45;cli.cpp</text>
</g>
<!-- Node1 -->
<g id="node2" class="node"><title>Node1</title>
<g id="a_node2"><a xlink:href="chainparamsbase_8h.html" target="_top" xlink:title="chainparamsbase.h">
<polygon fill="white" stroke="black" points="-0.5,-56.5 -0.5,-75.5 100.5,-75.5 100.5,-56.5 -0.5,-56.5"/>
<text text-anchor="middle" x="50" y="-63.5" font-family="Helvetica,sans-Serif" font-size="10.00">chainparamsbase.h</text>
</a>
</g>
</g>
<!-- Node0&#45;&gt;Node1 -->
<g id="edge1" class="edge"><title>Node0&#45;&gt;Node1</title>
<path fill="none" stroke="midnightblue" d="M891.731,-174.71C801.381,-169.62 586.192,-155.894 407,-132 296.671,-117.288 168.586,-91.9229 99.8049,-77.6165"/>
<polygon fill="midnightblue" stroke="midnightblue" points="100.196,-74.1228 89.6916,-75.5037 98.7645,-80.9748 100.196,-74.1228"/>
</g>
<!-- Node4 -->
<g id="node5" class="node"><title>Node4</title>
<g id="a_node5"><a xlink:href="clientversion_8h.html" target="_top" xlink:title="clientversion.h">
<polygon fill="white" stroke="black" points="119,-56.5 119,-75.5 199,-75.5 199,-56.5 119,-56.5"/>
<text text-anchor="middle" x="159" y="-63.5" font-family="Helvetica,sans-Serif" font-size="10.00">clientversion.h</text>
</a>
</g>
</g>
<!-- Node0&#45;&gt;Node4 -->
<g id="edge4" class="edge"><title>Node0&#45;&gt;Node4</title>
<path fill="none" stroke="midnightblue" d="M891.796,-172.939C818.477,-165.866 665.069,-150.281 536,-132 392.863,-111.726 355.29,-102.234 209.339,-76.2275"/>
<polygon fill="midnightblue" stroke="midnightblue" points="209.562,-72.7124 199.104,-74.4084 208.337,-79.6044 209.562,-72.7124"/>
</g>
<!-- Node5 -->
<g id="node6" class="node"><title>Node5</title>
<g id="a_node6"><a xlink:href="client_8h.html" target="_top" xlink:title="rpc/client.h">
<polygon fill="white" stroke="black" points="867.5,-112.5 867.5,-131.5 932.5,-131.5 932.5,-112.5 867.5,-112.5"/>
<text text-anchor="middle" x="900" y="-119.5" font-family="Helvetica,sans-Serif" font-size="10.00">rpc/client.h</text>
</a>
</g>
</g>
<!-- Node0&#45;&gt;Node5 -->
<g id="edge7" class="edge"><title>Node0&#45;&gt;Node5</title>
<path fill="none" stroke="midnightblue" d="M929.22,-168.083C924.328,-160.534 917.173,-149.495 911.167,-140.23"/>
<polygon fill="midnightblue" stroke="midnightblue" points="914.048,-138.239 905.672,-131.751 908.174,-142.046 914.048,-138.239"/>
</g>
<!-- Node6 -->
<g id="node7" class="node"><title>Node6</title>
<g id="a_node7"><a xlink:href="univalue_8h.html" target="_top" xlink:title="univalue.h">
<polygon fill="white" stroke="black" points="842.5,-56.5 842.5,-75.5 903.5,-75.5 903.5,-56.5 842.5,-56.5"/>
<text text-anchor="middle" x="873" y="-63.5" font-family="Helvetica,sans-Serif" font-size="10.00">univalue.h</text>
</a>
</g>
</g>
<!-- Node0&#45;&gt;Node6 -->
<g id="edge70" class="edge"><title>Node0&#45;&gt;Node6</title>
<path fill="none" stroke="midnightblue" d="M906.628,-168.495C889.248,-161.653 868.404,-150.13 858,-132 849.558,-117.289 855.684,-98.1366 862.473,-84.4392"/>
<polygon fill="midnightblue" stroke="midnightblue" points="865.597,-86.0223 867.335,-75.571 859.459,-82.6573 865.597,-86.0223"/>
</g>
<!-- Node12 -->
<g id="node13" class="node"><title>Node12</title>
<g id="a_node13"><a xlink:href="rpc_2protocol_8h.html" target="_top" xlink:title="rpc/protocol.h">
<polygon fill="white" stroke="black" points="735,-112.5 735,-131.5 811,-131.5 811,-112.5 735,-112.5"/>
<text text-anchor="middle" x="773" y="-119.5" font-family="Helvetica,sans-Serif" font-size="10.00">rpc/protocol.h</text>
</a>
</g>
</g>
<!-- Node0&#45;&gt;Node12 -->
<g id="edge16" class="edge"><title>Node0&#45;&gt;Node12</title>
<path fill="none" stroke="midnightblue" d="M909.331,-168.444C882.077,-159.359 838.816,-144.939 808.349,-134.783"/>
<polygon fill="midnightblue" stroke="midnightblue" points="809.143,-131.358 798.549,-131.516 806.929,-137.999 809.143,-131.358"/>
</g>
<!-- Node15 -->
<g id="node16" class="node"><title>Node15</title>
<g id="a_node16"><a xlink:href="util_8h.html" target="_top" xlink:title="util.h">
<polygon fill="white" stroke="black" points="951,-112.5 951,-131.5 989,-131.5 989,-112.5 951,-112.5"/>
<text text-anchor="middle" x="970" y="-119.5" font-family="Helvetica,sans-Serif" font-size="10.00">util.h</text>
</a>
</g>
</g>
<!-- Node0&#45;&gt;Node15 -->
<g id="edge23" class="edge"><title>Node0&#45;&gt;Node15</title>
<path fill="none" stroke="midnightblue" d="M940.78,-168.083C945.672,-160.534 952.827,-149.495 958.833,-140.23"/>
<polygon fill="midnightblue" stroke="midnightblue" points="961.826,-142.046 964.328,-131.751 955.952,-138.239 961.826,-142.046"/>
</g>
<!-- Node54 -->
<g id="node41" class="node"><title>Node54</title>
<g id="a_node41"><a xlink:href="utilstrencodings_8h.html" target="_top" xlink:title="utilstrencodings.h">
<polygon fill="white" stroke="black" points="217.5,-56.5 217.5,-75.5 310.5,-75.5 310.5,-56.5 217.5,-56.5"/>
<text text-anchor="middle" x="264" y="-63.5" font-family="Helvetica,sans-Serif" font-size="10.00">utilstrencodings.h</text>
</a>
</g>
</g>
<!-- Node0&#45;&gt;Node54 -->
<g id="edge57" class="edge"><title>Node0&#45;&gt;Node54</title>
<path fill="none" stroke="midnightblue" d="M891.748,-169.91C774.781,-150.735 452.188,-97.8505 320.799,-76.3114"/>
<polygon fill="midnightblue" stroke="midnightblue" points="320.988,-72.7956 310.553,-74.6317 319.855,-79.7034 320.988,-72.7956"/>
</g>
<!-- Node55 -->
<g id="node42" class="node"><title>Node55</title>
<polygon fill="white" stroke="#bfbfbf" points="1007.5,-112.5 1007.5,-131.5 1162.5,-131.5 1162.5,-112.5 1007.5,-112.5"/>
<text text-anchor="middle" x="1085" y="-119.5" font-family="Helvetica,sans-Serif" font-size="10.00">boost/filesystem/operations.hpp</text>
</g>
<!-- Node0&#45;&gt;Node55 -->
<g id="edge61" class="edge"><title>Node0&#45;&gt;Node55</title>
<path fill="none" stroke="midnightblue" d="M958.768,-168.444C983.893,-159.399 1023.71,-145.064 1051.9,-134.916"/>
<polygon fill="midnightblue" stroke="midnightblue" points="1053.12,-138.197 1061.34,-131.516 1050.75,-131.611 1053.12,-138.197"/>
</g>
<!-- Node56 -->
<g id="node43" class="node"><title>Node56</title>
<polygon fill="white" stroke="#bfbfbf" points="1181,-112.5 1181,-131.5 1227,-131.5 1227,-112.5 1181,-112.5"/>
<text text-anchor="middle" x="1204" y="-119.5" font-family="Helvetica,sans-Serif" font-size="10.00">stdio.h</text>
</g>
<!-- Node0&#45;&gt;Node56 -->
<g id="edge62" class="edge"><title>Node0&#45;&gt;Node56</title>
<path fill="none" stroke="midnightblue" d="M978.276,-169.79C1025.77,-161.635 1104.15,-147.464 1171,-132 1171.1,-131.977 1171.2,-131.953 1171.3,-131.929"/>
<polygon fill="midnightblue" stroke="midnightblue" points="1172.12,-135.334 1180.98,-129.524 1170.43,-128.54 1172.12,-135.334"/>
</g>
<!-- Node57 -->
<g id="node44" class="node"><title>Node57</title>
<polygon fill="white" stroke="#bfbfbf" points="1245,-112.5 1245,-131.5 1327,-131.5 1327,-112.5 1245,-112.5"/>
<text text-anchor="middle" x="1286" y="-119.5" font-family="Helvetica,sans-Serif" font-size="10.00">event2/buffer.h</text>
</g>
<!-- Node0&#45;&gt;Node57 -->
<g id="edge63" class="edge"><title>Node0&#45;&gt;Node57</title>
<path fill="none" stroke="midnightblue" d="M978.179,-170.956C1034.75,-162.946 1137.28,-148.119 1234.79,-132.161"/>
<polygon fill="midnightblue" stroke="midnightblue" points="1235.52,-135.589 1244.82,-130.513 1234.38,-128.681 1235.52,-135.589"/>
</g>
<!-- Node58 -->
<g id="node45" class="node"><title>Node58</title>
<polygon fill="white" stroke="#bfbfbf" points="1345.5,-112.5 1345.5,-131.5 1466.5,-131.5 1466.5,-112.5 1345.5,-112.5"/>
<text text-anchor="middle" x="1406" y="-119.5" font-family="Helvetica,sans-Serif" font-size="10.00">event2/keyvalq_struct.h</text>
</g>
<!-- Node0&#45;&gt;Node58 -->
<g id="edge64" class="edge"><title>Node0&#45;&gt;Node58</title>
<path fill="none" stroke="midnightblue" d="M978.05,-172.399C1049.71,-164.69 1198.28,-148.495 1335.06,-132.096"/>
<polygon fill="midnightblue" stroke="midnightblue" points="1335.79,-135.533 1345.3,-130.865 1334.95,-128.583 1335.79,-135.533"/>
</g>
<!-- Node59 -->
<g id="node46" class="node"><title>Node59</title>
<g id="a_node46"><a xlink:href="events_8h.html" target="_top" xlink:title="support/events.h">
<polygon fill="white" stroke="black" points="2016.5,-112.5 2016.5,-131.5 2105.5,-131.5 2105.5,-112.5 2016.5,-112.5"/>
<text text-anchor="middle" x="2061" y="-119.5" font-family="Helvetica,sans-Serif" font-size="10.00">support/events.h</text>
</a>
</g>
</g>
<!-- Node0&#45;&gt;Node59 -->
<g id="edge65" class="edge"><title>Node0&#45;&gt;Node59</title>
<path fill="none" stroke="midnightblue" d="M978.107,-174.933C1153.27,-166.532 1811.66,-134.958 2006.41,-125.618"/>
<polygon fill="midnightblue" stroke="midnightblue" points="2006.59,-129.113 2016.41,-125.138 2006.26,-122.121 2006.59,-129.113"/>
</g>
<!-- Node2 -->
<g id="node3" class="node"><title>Node2</title>
<polygon fill="white" stroke="#bfbfbf" points="452.5,-0.5 452.5,-19.5 493.5,-19.5 493.5,-0.5 452.5,-0.5"/>
<text text-anchor="middle" x="473" y="-7.5" font-family="Helvetica,sans-Serif" font-size="10.00">string</text>
</g>
<!-- Node1&#45;&gt;Node2 -->
<g id="edge2" class="edge"><title>Node1&#45;&gt;Node2</title>
<path fill="none" stroke="midnightblue" d="M100.726,-57.298C103.863,-56.8506 106.974,-56.4145 110,-56 232.816,-39.179 379.397,-21.8458 442.088,-14.562"/>
<polygon fill="midnightblue" stroke="midnightblue" points="442.575,-18.0291 452.106,-13.4009 441.769,-11.0757 442.575,-18.0291"/>
</g>
<!-- Node3 -->
<g id="node4" class="node"><title>Node3</title>
<polygon fill="white" stroke="#bfbfbf" points="242,-0.5 242,-19.5 286,-19.5 286,-0.5 242,-0.5"/>
<text text-anchor="middle" x="264" y="-7.5" font-family="Helvetica,sans-Serif" font-size="10.00">vector</text>
</g>
<!-- Node1&#45;&gt;Node3 -->
<g id="edge3" class="edge"><title>Node1&#45;&gt;Node3</title>
<path fill="none" stroke="midnightblue" d="M83.9089,-56.4435C124.566,-46.1843 192.191,-29.12 231.987,-19.078"/>
<polygon fill="midnightblue" stroke="midnightblue" points="232.871,-22.4647 241.711,-16.6243 231.158,-15.6775 232.871,-22.4647"/>
</g>
<!-- Node4&#45;&gt;Node2 -->
<g id="edge5" class="edge"><title>Node4&#45;&gt;Node2</title>
<path fill="none" stroke="midnightblue" d="M199.103,-57.5887C202.113,-57.0464 205.104,-56.5118 208,-56 292.768,-41.0186 392.966,-24.2627 442.345,-16.0681"/>
<polygon fill="midnightblue" stroke="midnightblue" points="443.074,-19.4951 452.367,-14.4067 441.929,-12.5893 443.074,-19.4951"/>
</g>
<!-- Node4&#45;&gt;Node3 -->
<g id="edge6" class="edge"><title>Node4&#45;&gt;Node3</title>
<path fill="none" stroke="midnightblue" d="M175.87,-56.324C192.709,-47.6641 218.807,-34.2424 238.238,-24.249"/>
<polygon fill="midnightblue" stroke="midnightblue" points="239.88,-27.3405 247.172,-19.6545 236.678,-21.1155 239.88,-27.3405"/>
</g>
<!-- Node5&#45;&gt;Node6 -->
<g id="edge8" class="edge"><title>Node5&#45;&gt;Node6</title>
<path fill="none" stroke="midnightblue" d="M895.541,-112.083C891.846,-104.691 886.477,-93.9533 881.906,-84.8111"/>
<polygon fill="midnightblue" stroke="midnightblue" points="884.978,-83.1301 877.376,-75.7511 878.717,-86.2606 884.978,-83.1301"/>
</g>
<!-- Node6&#45;&gt;Node2 -->
<g id="edge10" class="edge"><title>Node6&#45;&gt;Node2</title>
<path fill="none" stroke="midnightblue" d="M842.277,-60.8524C767.823,-50.8012 578.406,-25.2299 503.836,-15.1629"/>
<polygon fill="midnightblue" stroke="midnightblue" points="504.073,-11.6632 493.695,-13.7938 503.137,-18.6003 504.073,-11.6632"/>
</g>
<!-- Node6&#45;&gt;Node3 -->
<g id="edge11" class="edge"><title>Node6&#45;&gt;Node3</title>
<path fill="none" stroke="midnightblue" d="M842.382,-62.2851C738.845,-53.1045 402.37,-23.2693 296.322,-13.866"/>
<polygon fill="midnightblue" stroke="midnightblue" points="296.5,-10.3681 286.229,-12.9711 295.881,-17.3407 296.5,-10.3681"/>
</g>
<!-- Node7 -->
<g id="node8" class="node"><title>Node7</title>
<polygon fill="white" stroke="#bfbfbf" points="687.5,-0.5 687.5,-19.5 736.5,-19.5 736.5,-0.5 687.5,-0.5"/>
<text text-anchor="middle" x="712" y="-7.5" font-family="Helvetica,sans-Serif" font-size="10.00">stdint.h</text>
</g>
<!-- Node6&#45;&gt;Node7 -->
<g id="edge9" class="edge"><title>Node6&#45;&gt;Node7</title>
<path fill="none" stroke="midnightblue" d="M847.489,-56.4435C820.165,-47.2789 776.65,-32.6839 746.333,-22.5153"/>
<polygon fill="midnightblue" stroke="midnightblue" points="747.194,-19.1125 736.6,-19.2508 744.968,-25.7491 747.194,-19.1125"/>
</g>
<!-- Node8 -->
<g id="node9" class="node"><title>Node8</title>
<polygon fill="white" stroke="#bfbfbf" points="754.5,-0.5 754.5,-19.5 789.5,-19.5 789.5,-0.5 754.5,-0.5"/>
<text text-anchor="middle" x="772" y="-7.5" font-family="Helvetica,sans-Serif" font-size="10.00">map</text>
</g>
<!-- Node6&#45;&gt;Node8 -->
<g id="edge12" class="edge"><title>Node6&#45;&gt;Node8</title>
<path fill="none" stroke="midnightblue" d="M856.773,-56.324C840.649,-47.7034 815.7,-34.3643 797.036,-24.3855"/>
<polygon fill="midnightblue" stroke="midnightblue" points="798.656,-21.283 788.187,-19.6545 795.356,-27.456 798.656,-21.283"/>
</g>
<!-- Node9 -->
<g id="node10" class="node"><title>Node9</title>
<polygon fill="white" stroke="#bfbfbf" points="866.5,-0.5 866.5,-19.5 915.5,-19.5 915.5,-0.5 866.5,-0.5"/>
<text text-anchor="middle" x="891" y="-7.5" font-family="Helvetica,sans-Serif" font-size="10.00">cassert</text>
</g>
<!-- Node6&#45;&gt;Node9 -->
<g id="edge13" class="edge"><title>Node6&#45;&gt;Node9</title>
<path fill="none" stroke="midnightblue" d="M875.972,-56.083C878.384,-48.8486 881.864,-38.4087 884.868,-29.3968"/>
<polygon fill="midnightblue" stroke="midnightblue" points="888.241,-30.3447 888.083,-19.7511 881.6,-28.1311 888.241,-30.3447"/>
</g>
<!-- Node10 -->
<g id="node11" class="node"><title>Node10</title>
<polygon fill="white" stroke="#bfbfbf" points="934,-0.5 934,-19.5 986,-19.5 986,-0.5 934,-0.5"/>
<text text-anchor="middle" x="960" y="-7.5" font-family="Helvetica,sans-Serif" font-size="10.00">sstream</text>
</g>
<!-- Node6&#45;&gt;Node10 -->
<g id="edge14" class="edge"><title>Node6&#45;&gt;Node10</title>
<path fill="none" stroke="midnightblue" d="M886.978,-56.324C900.55,-47.9002 921.38,-34.9709 937.325,-25.0741"/>
<polygon fill="midnightblue" stroke="midnightblue" points="939.406,-27.9019 946.057,-19.6545 935.714,-21.9544 939.406,-27.9019"/>
</g>
<!-- Node11 -->
<g id="node12" class="node"><title>Node11</title>
<polygon fill="white" stroke="#bfbfbf" points="808,-0.5 808,-19.5 848,-19.5 848,-0.5 808,-0.5"/>
<text text-anchor="middle" x="828" y="-7.5" font-family="Helvetica,sans-Serif" font-size="10.00">utility</text>
</g>
<!-- Node6&#45;&gt;Node11 -->
<g id="edge15" class="edge"><title>Node6&#45;&gt;Node11</title>
<path fill="none" stroke="midnightblue" d="M865.569,-56.083C859.147,-48.3768 849.694,-37.0333 841.878,-27.6531"/>
<polygon fill="midnightblue" stroke="midnightblue" points="844.383,-25.1927 835.293,-19.7511 839.006,-29.674 844.383,-25.1927"/>
</g>
<!-- Node12&#45;&gt;Node2 -->
<g id="edge20" class="edge"><title>Node12&#45;&gt;Node2</title>
<path fill="none" stroke="midnightblue" d="M734.9,-119.713C637.075,-116.019 382.958,-103.811 358,-76 330.194,-45.0155 399.649,-25.2894 442.41,-16.435"/>
<polygon fill="midnightblue" stroke="midnightblue" points="443.241,-19.8385 452.373,-14.4663 441.884,-12.9713 443.241,-19.8385"/>
</g>
<!-- Node12&#45;&gt;Node6 -->
<g id="edge22" class="edge"><title>Node12&#45;&gt;Node6</title>
<path fill="none" stroke="midnightblue" d="M789.067,-112.324C804.958,-103.743 829.507,-90.486 847.958,-80.5224"/>
<polygon fill="midnightblue" stroke="midnightblue" points="849.837,-83.4857 856.973,-75.6545 846.511,-77.3264 849.837,-83.4857"/>
</g>
<!-- Node12&#45;&gt;Node7 -->
<g id="edge19" class="edge"><title>Node12&#45;&gt;Node7</title>
<path fill="none" stroke="midnightblue" d="M772.181,-112.478C770.637,-99.5343 766.456,-74.4756 756,-56 749.655,-44.7879 739.821,-34.3581 731.058,-26.3683"/>
<polygon fill="midnightblue" stroke="midnightblue" points="733.29,-23.6714 723.442,-19.7643 728.704,-28.96 733.29,-23.6714"/>
</g>
<!-- Node12&#45;&gt;Node8 -->
<g id="edge18" class="edge"><title>Node12&#45;&gt;Node8</title>
<path fill="none" stroke="midnightblue" d="M777.866,-112.252C784.174,-99.8487 793.926,-76.3878 790,-56 788.21,-46.7047 784.517,-36.8887 780.939,-28.8048"/>
<polygon fill="midnightblue" stroke="midnightblue" points="784.056,-27.2089 776.621,-19.6611 777.727,-30.1981 784.056,-27.2089"/>
</g>
<!-- Node13 -->
<g id="node14" class="node"><title>Node13</title>
<polygon fill="white" stroke="#bfbfbf" points="367.5,-56.5 367.5,-75.5 396.5,-75.5 396.5,-56.5 367.5,-56.5"/>
<text text-anchor="middle" x="382" y="-63.5" font-family="Helvetica,sans-Serif" font-size="10.00">list</text>
</g>
<!-- Node12&#45;&gt;Node13 -->
<g id="edge17" class="edge"><title>Node12&#45;&gt;Node13</title>
<path fill="none" stroke="midnightblue" d="M734.811,-119.486C669.099,-116.206 530.507,-106.322 406.922,-75.9712"/>
<polygon fill="midnightblue" stroke="midnightblue" points="407.467,-72.4996 396.916,-73.46 405.763,-79.289 407.467,-72.4996"/>
</g>
<!-- Node14 -->
<g id="node15" class="node"><title>Node14</title>
<polygon fill="white" stroke="#bfbfbf" points="414.5,-56.5 414.5,-75.5 521.5,-75.5 521.5,-56.5 414.5,-56.5"/>
<text text-anchor="middle" x="468" y="-63.5" font-family="Helvetica,sans-Serif" font-size="10.00">boost/filesystem.hpp</text>
</g>
<!-- Node12&#45;&gt;Node14 -->
<g id="edge21" class="edge"><title>Node12&#45;&gt;Node14</title>
<path fill="none" stroke="midnightblue" d="M734.988,-114.27C682.498,-104.977 587.364,-88.1333 525.974,-77.2643"/>
<polygon fill="midnightblue" stroke="midnightblue" points="526.505,-73.804 516.048,-75.5069 525.285,-80.6968 526.505,-73.804"/>
</g>
<!-- Node15&#45;&gt;Node2 -->
<g id="edge52" class="edge"><title>Node15&#45;&gt;Node2</title>
<path fill="none" stroke="midnightblue" d="M950.775,-114.556C947.535,-113.608 944.19,-112.713 941,-112 828.007,-86.7588 793.391,-110.905 683,-76 664.427,-70.1273 662.192,-62.9639 644,-56 596.323,-37.7496 538.43,-24.2211 503.712,-16.981"/>
<polygon fill="midnightblue" stroke="midnightblue" points="504.217,-13.5119 493.718,-14.9378 502.814,-20.37 504.217,-13.5119"/>
</g>
<!-- Node15&#45;&gt;Node3 -->
<g id="edge53" class="edge"><title>Node15&#45;&gt;Node3</title>
<path fill="none" stroke="midnightblue" d="M950.799,-114.439C947.557,-113.506 944.204,-112.645 941,-112 778.162,-79.212 728.398,-122.728 569,-76 550.307,-70.5201 548.486,-62.1409 530,-56 448.459,-28.913 347.186,-17.5388 296.335,-13.2675"/>
<polygon fill="midnightblue" stroke="midnightblue" points="296.522,-9.77137 286.274,-12.4608 295.962,-16.749 296.522,-9.77137"/>
</g>
<!-- Node15&#45;&gt;Node7 -->
<g id="edge51" class="edge"><title>Node15&#45;&gt;Node7</title>
<path fill="none" stroke="midnightblue" d="M964.815,-112.253C955.912,-98.0541 936.31,-70.1551 912,-56 849.077,-19.3614 821.094,-36.4366 746.643,-20.1988"/>
<polygon fill="midnightblue" stroke="midnightblue" points="747.361,-16.7724 736.829,-17.9257 745.781,-23.5919 747.361,-16.7724"/>
</g>
<!-- Node15&#45;&gt;Node8 -->
<g id="edge50" class="edge"><title>Node15&#45;&gt;Node8</title>
<path fill="none" stroke="midnightblue" d="M969.342,-112.42C967.799,-98.4605 962.693,-70.8982 946,-56 898.07,-13.2242 866.555,-36.3314 799.376,-19.731"/>
<polygon fill="midnightblue" stroke="midnightblue" points="800.22,-16.3339 789.654,-17.1141 798.401,-23.0932 800.22,-16.3339"/>
</g>
<!-- Node16 -->
<g id="node17" class="node"><title>Node16</title>
<g id="a_node17"><a xlink:href="compat_8h.html" target="_top" xlink:title="compat.h">
<polygon fill="white" stroke="black" points="1319.5,-56.5 1319.5,-75.5 1376.5,-75.5 1376.5,-56.5 1319.5,-56.5"/>
<text text-anchor="middle" x="1348" y="-63.5" font-family="Helvetica,sans-Serif" font-size="10.00">compat.h</text>
</a>
</g>
</g>
<!-- Node15&#45;&gt;Node16 -->
<g id="edge24" class="edge"><title>Node15&#45;&gt;Node16</title>
<path fill="none" stroke="midnightblue" d="M989.152,-114.333C992.092,-113.459 995.11,-112.645 998,-112 1109.3,-87.1771 1243.78,-74.6613 1308.9,-69.6789"/>
<polygon fill="midnightblue" stroke="midnightblue" points="1309.4,-73.1512 1319.11,-68.916 1308.88,-66.1707 1309.4,-73.1512"/>
</g>
<!-- Node31 -->
<g id="node32" class="node"><title>Node31</title>
<g id="a_node32"><a xlink:href="tinyformat_8h.html" target="_top" xlink:title="tinyformat.h">
<polygon fill="white" stroke="red" points="998,-56.5 998,-75.5 1066,-75.5 1066,-56.5 998,-56.5"/>
<text text-anchor="middle" x="1032" y="-63.5" font-family="Helvetica,sans-Serif" font-size="10.00">tinyformat.h</text>
</a>
</g>
</g>
<!-- Node15&#45;&gt;Node31 -->
<g id="edge39" class="edge"><title>Node15&#45;&gt;Node31</title>
<path fill="none" stroke="midnightblue" d="M979.961,-112.324C989.127,-104.341 1002.94,-92.3128 1014.03,-82.6529"/>
<polygon fill="midnightblue" stroke="midnightblue" points="1016.62,-85.041 1021.86,-75.8339 1012.02,-79.7624 1016.62,-85.041"/>
</g>
<!-- Node35 -->
<g id="node34" class="node"><title>Node35</title>
<g id="a_node34"><a xlink:href="utiltime_8h.html" target="_top" xlink:title="utiltime.h">
<polygon fill="white" stroke="black" points="692,-56.5 692,-75.5 748,-75.5 748,-56.5 692,-56.5"/>
<text text-anchor="middle" x="720" y="-63.5" font-family="Helvetica,sans-Serif" font-size="10.00">utiltime.h</text>
</a>
</g>
</g>
<!-- Node15&#45;&gt;Node35 -->
<g id="edge43" class="edge"><title>Node15&#45;&gt;Node35</title>
<path fill="none" stroke="midnightblue" d="M950.734,-114.726C947.5,-113.758 944.166,-112.811 941,-112 877.443,-95.7105 802.403,-81.4658 758.143,-73.5682"/>
<polygon fill="midnightblue" stroke="midnightblue" points="758.571,-70.0895 748.114,-71.7934 757.351,-76.9824 758.571,-70.0895"/>
</g>
<!-- Node36 -->
<g id="node35" class="node"><title>Node36</title>
<g id="a_node35"><a xlink:href="amount_8h.html" target="_top" xlink:title="amount.h">
<polygon fill="white" stroke="red" points="578.5,-56.5 578.5,-75.5 635.5,-75.5 635.5,-56.5 578.5,-56.5"/>
<text text-anchor="middle" x="607" y="-63.5" font-family="Helvetica,sans-Serif" font-size="10.00">amount.h</text>
</a>
</g>
</g>
<!-- Node15&#45;&gt;Node36 -->
<g id="edge46" class="edge"><title>Node15&#45;&gt;Node36</title>
<path fill="none" stroke="midnightblue" d="M950.784,-114.513C947.544,-113.57 944.195,-112.688 941,-112 813.598,-84.5784 778.556,-97.3673 650,-76 648.542,-75.7577 647.059,-75.5005 645.562,-75.2321"/>
<polygon fill="midnightblue" stroke="midnightblue" points="646.097,-71.7712 635.619,-73.3362 644.786,-78.6473 646.097,-71.7712"/>
</g>
<!-- Node49 -->
<g id="node36" class="node"><title>Node49</title>
<polygon fill="white" stroke="#bfbfbf" points="1395,-56.5 1395,-75.5 1441,-75.5 1441,-56.5 1395,-56.5"/>
<text text-anchor="middle" x="1418" y="-63.5" font-family="Helvetica,sans-Serif" font-size="10.00">atomic</text>
</g>
<!-- Node15&#45;&gt;Node49 -->
<g id="edge48" class="edge"><title>Node15&#45;&gt;Node49</title>
<path fill="none" stroke="midnightblue" d="M989.133,-114.242C992.075,-113.381 995.099,-112.594 998,-112 1164.09,-78.0062 1213.22,-105.77 1384.81,-75.6683"/>
<polygon fill="midnightblue" stroke="midnightblue" points="1385.45,-79.1093 1394.68,-73.8982 1384.22,-72.2193 1385.45,-79.1093"/>
</g>
<!-- Node50 -->
<g id="node37" class="node"><title>Node50</title>
<polygon fill="white" stroke="#bfbfbf" points="1459.5,-56.5 1459.5,-75.5 1518.5,-75.5 1518.5,-56.5 1459.5,-56.5"/>
<text text-anchor="middle" x="1489" y="-63.5" font-family="Helvetica,sans-Serif" font-size="10.00">exception</text>
</g>
<!-- Node15&#45;&gt;Node50 -->
<g id="edge49" class="edge"><title>Node15&#45;&gt;Node50</title>
<path fill="none" stroke="midnightblue" d="M989.126,-114.208C992.069,-113.351 995.095,-112.575 998,-112 1192.51,-73.534 1249.02,-105.669 1449.32,-75.8498"/>
<polygon fill="midnightblue" stroke="midnightblue" points="1449.92,-79.2991 1459.28,-74.3343 1448.86,-72.3788 1449.92,-79.2991"/>
</g>
<!-- Node51 -->
<g id="node38" class="node"><title>Node51</title>
<polygon fill="white" stroke="#bfbfbf" points="1536.5,-56.5 1536.5,-75.5 1665.5,-75.5 1665.5,-56.5 1536.5,-56.5"/>
<text text-anchor="middle" x="1601" y="-63.5" font-family="Helvetica,sans-Serif" font-size="10.00">boost/filesystem/path.hpp</text>
</g>
<!-- Node15&#45;&gt;Node51 -->
<g id="edge54" class="edge"><title>Node15&#45;&gt;Node51</title>
<path fill="none" stroke="midnightblue" d="M989.12,-114.178C992.064,-113.325 995.091,-112.558 998,-112 1226.16,-68.2449 1290.58,-97.3813 1526.19,-76.0081"/>
<polygon fill="midnightblue" stroke="midnightblue" points="1526.81,-79.4651 1536.45,-75.0555 1526.17,-72.4951 1526.81,-79.4651"/>
</g>
<!-- Node52 -->
<g id="node39" class="node"><title>Node52</title>
<polygon fill="white" stroke="#bfbfbf" points="1683.5,-56.5 1683.5,-75.5 1810.5,-75.5 1810.5,-56.5 1683.5,-56.5"/>
<text text-anchor="middle" x="1747" y="-63.5" font-family="Helvetica,sans-Serif" font-size="10.00">boost/signals2/signal.hpp</text>
</g>
<!-- Node15&#45;&gt;Node52 -->
<g id="edge55" class="edge"><title>Node15&#45;&gt;Node52</title>
<path fill="none" stroke="midnightblue" d="M989.113,-114.139C992.057,-113.292 995.087,-112.536 998,-112 1290.57,-58.1254 1372.46,-101.427 1673,-76.0074"/>
<polygon fill="midnightblue" stroke="midnightblue" points="1673.67,-79.463 1683.33,-75.1144 1673.06,-72.4891 1673.67,-79.463"/>
</g>
<!-- Node53 -->
<g id="node40" class="node"><title>Node53</title>
<polygon fill="white" stroke="#bfbfbf" points="1829,-56.5 1829,-75.5 1969,-75.5 1969,-56.5 1829,-56.5"/>
<text text-anchor="middle" x="1899" y="-63.5" font-family="Helvetica,sans-Serif" font-size="10.00">boost/thread/exceptions.hpp</text>
</g>
<!-- Node15&#45;&gt;Node53 -->
<g id="edge56" class="edge"><title>Node15&#45;&gt;Node53</title>
<path fill="none" stroke="midnightblue" d="M989.108,-114.115C992.054,-113.27 995.085,-112.523 998,-112 1354.26,-48.1246 1453.09,-103.415 1818.72,-75.9452"/>
<polygon fill="midnightblue" stroke="midnightblue" points="1819.08,-79.4278 1828.79,-75.1732 1818.55,-72.4483 1819.08,-79.4278"/>
</g>
<!-- Node17 -->
<g id="node18" class="node"><title>Node17</title>
<polygon fill="white" stroke="#bfbfbf" points="1822,-0.5 1822,-19.5 1884,-19.5 1884,-0.5 1822,-0.5"/>
<text text-anchor="middle" x="1853" y="-7.5" font-family="Helvetica,sans-Serif" font-size="10.00">sys/fcntl.h</text>
</g>
<!-- Node16&#45;&gt;Node17 -->
<g id="edge25" class="edge"><title>Node16&#45;&gt;Node17</title>
<path fill="none" stroke="midnightblue" d="M1376.54,-57.7606C1379.72,-57.0978 1382.92,-56.492 1386,-56 1570.42,-26.5347 1622.36,-47.6806 1811.74,-19.8056"/>
<polygon fill="midnightblue" stroke="midnightblue" points="1812.37,-23.25 1821.74,-18.3067 1811.33,-16.3272 1812.37,-23.25"/>
</g>
<!-- Node18 -->
<g id="node19" class="node"><title>Node18</title>
<polygon fill="white" stroke="#bfbfbf" points="1902.5,-0.5 1902.5,-19.5 1973.5,-19.5 1973.5,-0.5 1902.5,-0.5"/>
<text text-anchor="middle" x="1938" y="-7.5" font-family="Helvetica,sans-Serif" font-size="10.00">sys/mman.h</text>
</g>
<!-- Node16&#45;&gt;Node18 -->
<g id="edge26" class="edge"><title>Node16&#45;&gt;Node18</title>
<path fill="none" stroke="midnightblue" d="M1376.54,-57.7193C1379.72,-57.0643 1382.92,-56.4716 1386,-56 1608.86,-21.9087 1668.51,-49.7006 1892,-20 1892.11,-19.9859 1892.21,-19.9718 1892.32,-19.9575"/>
<polygon fill="midnightblue" stroke="midnightblue" points="1893.06,-23.3851 1902.41,-18.4089 1892,-16.4661 1893.06,-23.3851"/>
</g>
<!-- Node19 -->
<g id="node20" class="node"><title>Node19</title>
<polygon fill="white" stroke="#bfbfbf" points="1992,-0.5 1992,-19.5 2062,-19.5 2062,-0.5 1992,-0.5"/>
<text text-anchor="middle" x="2027" y="-7.5" font-family="Helvetica,sans-Serif" font-size="10.00">sys/select.h</text>
</g>
<!-- Node16&#45;&gt;Node19 -->
<g id="edge27" class="edge"><title>Node16&#45;&gt;Node19</title>
<path fill="none" stroke="midnightblue" d="M1376.53,-57.686C1379.71,-57.0372 1382.91,-56.4551 1386,-56 1645.2,-17.7685 1717.01,-53.1791 1981.41,-19.8547"/>
<polygon fill="midnightblue" stroke="midnightblue" points="1982.23,-23.2781 1991.7,-18.5348 1981.34,-16.3349 1982.23,-23.2781"/>
</g>
<!-- Node20 -->
<g id="node21" class="node"><title>Node20</title>
<polygon fill="white" stroke="#bfbfbf" points="2080.5,-0.5 2080.5,-19.5 2153.5,-19.5 2153.5,-0.5 2080.5,-0.5"/>
<text text-anchor="middle" x="2117" y="-7.5" font-family="Helvetica,sans-Serif" font-size="10.00">sys/socket.h</text>
</g>
<!-- Node16&#45;&gt;Node20 -->
<g id="edge28" class="edge"><title>Node16&#45;&gt;Node20</title>
<path fill="none" stroke="midnightblue" d="M1376.53,-57.6616C1379.71,-57.0174 1382.91,-56.443 1386,-56 1684.53,-13.1593 1766.67,-56.4117 2070.44,-19.8588"/>
<polygon fill="midnightblue" stroke="midnightblue" points="2070.91,-23.3271 2080.42,-18.6395 2070.07,-16.3788 2070.91,-23.3271"/>
</g>
<!-- Node21 -->
<g id="node22" class="node"><title>Node21</title>
<polygon fill="white" stroke="#bfbfbf" points="1078,-0.5 1078,-19.5 1146,-19.5 1146,-0.5 1078,-0.5"/>
<text text-anchor="middle" x="1112" y="-7.5" font-family="Helvetica,sans-Serif" font-size="10.00">sys/types.h</text>
</g>
<!-- Node16&#45;&gt;Node21 -->
<g id="edge29" class="edge"><title>Node16&#45;&gt;Node21</title>
<path fill="none" stroke="midnightblue" d="M1319.06,-58.3785C1278.35,-49.0641 1203.84,-32.0137 1156.18,-21.1082"/>
<polygon fill="midnightblue" stroke="midnightblue" points="1156.67,-17.6311 1146.14,-18.8124 1155.11,-24.4548 1156.67,-17.6311"/>
</g>
<!-- Node22 -->
<g id="node23" class="node"><title>Node22</title>
<polygon fill="white" stroke="#bfbfbf" points="1164.5,-0.5 1164.5,-19.5 1211.5,-19.5 1211.5,-0.5 1164.5,-0.5"/>
<text text-anchor="middle" x="1188" y="-7.5" font-family="Helvetica,sans-Serif" font-size="10.00">net/if.h</text>
</g>
<!-- Node16&#45;&gt;Node22 -->
<g id="edge30" class="edge"><title>Node16&#45;&gt;Node22</title>
<path fill="none" stroke="midnightblue" d="M1322.65,-56.4435C1295.26,-47.1988 1251.49,-32.4281 1221.33,-22.2495"/>
<polygon fill="midnightblue" stroke="midnightblue" points="1222.26,-18.8699 1211.67,-18.9883 1220.02,-25.5024 1222.26,-18.8699"/>
</g>
<!-- Node23 -->
<g id="node24" class="node"><title>Node23</title>
<polygon fill="white" stroke="#bfbfbf" points="1229.5,-0.5 1229.5,-19.5 1294.5,-19.5 1294.5,-0.5 1229.5,-0.5"/>
<text text-anchor="middle" x="1262" y="-7.5" font-family="Helvetica,sans-Serif" font-size="10.00">netinet/in.h</text>
</g>
<!-- Node16&#45;&gt;Node23 -->
<g id="edge31" class="edge"><title>Node16&#45;&gt;Node23</title>
<path fill="none" stroke="midnightblue" d="M1334.18,-56.324C1320.77,-47.9002 1300.18,-34.9709 1284.41,-25.0741"/>
<polygon fill="midnightblue" stroke="midnightblue" points="1286.11,-22.0081 1275.78,-19.6545 1282.39,-27.9364 1286.11,-22.0081"/>
</g>
<!-- Node24 -->
<g id="node25" class="node"><title>Node24</title>
<polygon fill="white" stroke="#bfbfbf" points="1312.5,-0.5 1312.5,-19.5 1383.5,-19.5 1383.5,-0.5 1312.5,-0.5"/>
<text text-anchor="middle" x="1348" y="-7.5" font-family="Helvetica,sans-Serif" font-size="10.00">netinet/tcp.h</text>
</g>
<!-- Node16&#45;&gt;Node24 -->
<g id="edge32" class="edge"><title>Node16&#45;&gt;Node24</title>
<path fill="none" stroke="midnightblue" d="M1348,-56.083C1348,-49.0059 1348,-38.8611 1348,-29.9865"/>
<polygon fill="midnightblue" stroke="midnightblue" points="1351.5,-29.751 1348,-19.7511 1344.5,-29.7511 1351.5,-29.751"/>
</g>
<!-- Node25 -->
<g id="node26" class="node"><title>Node25</title>
<polygon fill="white" stroke="#bfbfbf" points="1402,-0.5 1402,-19.5 1464,-19.5 1464,-0.5 1402,-0.5"/>
<text text-anchor="middle" x="1433" y="-7.5" font-family="Helvetica,sans-Serif" font-size="10.00">arpa/inet.h</text>
</g>
<!-- Node16&#45;&gt;Node25 -->
<g id="edge33" class="edge"><title>Node16&#45;&gt;Node25</title>
<path fill="none" stroke="midnightblue" d="M1361.66,-56.324C1374.92,-47.9002 1395.27,-34.9709 1410.85,-25.0741"/>
<polygon fill="midnightblue" stroke="midnightblue" points="1412.81,-27.9711 1419.38,-19.6545 1409.06,-22.0626 1412.81,-27.9711"/>
</g>
<!-- Node26 -->
<g id="node27" class="node"><title>Node26</title>
<polygon fill="white" stroke="#bfbfbf" points="1482,-0.5 1482,-19.5 1536,-19.5 1536,-0.5 1482,-0.5"/>
<text text-anchor="middle" x="1509" y="-7.5" font-family="Helvetica,sans-Serif" font-size="10.00">ifaddrs.h</text>
</g>
<!-- Node16&#45;&gt;Node26 -->
<g id="edge34" class="edge"><title>Node16&#45;&gt;Node26</title>
<path fill="none" stroke="midnightblue" d="M1373.51,-56.4435C1400.6,-47.3591 1443.59,-32.9388 1473.87,-22.7831"/>
<polygon fill="midnightblue" stroke="midnightblue" points="1475.24,-26.0148 1483.61,-19.5164 1473.01,-19.3781 1475.24,-26.0148"/>
</g>
<!-- Node27 -->
<g id="node28" class="node"><title>Node27</title>
<polygon fill="white" stroke="#bfbfbf" points="1554,-0.5 1554,-19.5 1602,-19.5 1602,-0.5 1554,-0.5"/>
<text text-anchor="middle" x="1578" y="-7.5" font-family="Helvetica,sans-Serif" font-size="10.00">limits.h</text>
</g>
<!-- Node16&#45;&gt;Node27 -->
<g id="edge35" class="edge"><title>Node16&#45;&gt;Node27</title>
<path fill="none" stroke="midnightblue" d="M1376.63,-58.188C1379.79,-57.4451 1382.96,-56.7037 1386,-56 1453.55,-40.3531 1473.05,-37.7443 1544,-20.1685"/>
<polygon fill="midnightblue" stroke="midnightblue" points="1545.02,-23.5214 1553.88,-17.7081 1543.33,-16.729 1545.02,-23.5214"/>
</g>
<!-- Node28 -->
<g id="node29" class="node"><title>Node28</title>
<polygon fill="white" stroke="#bfbfbf" points="1620.5,-0.5 1620.5,-19.5 1669.5,-19.5 1669.5,-0.5 1620.5,-0.5"/>
<text text-anchor="middle" x="1645" y="-7.5" font-family="Helvetica,sans-Serif" font-size="10.00">netdb.h</text>
</g>
<!-- Node16&#45;&gt;Node28 -->
<g id="edge36" class="edge"><title>Node16&#45;&gt;Node28</title>
<path fill="none" stroke="midnightblue" d="M1376.58,-57.991C1379.75,-57.2851 1382.94,-56.6061 1386,-56 1482.24,-36.9318 1510.19,-40.7157 1610.27,-19.9619"/>
<polygon fill="midnightblue" stroke="midnightblue" points="1611.12,-23.3598 1620.19,-17.8753 1609.68,-16.5098 1611.12,-23.3598"/>
</g>
<!-- Node29 -->
<g id="node30" class="node"><title>Node29</title>
<polygon fill="white" stroke="#bfbfbf" points="1687.5,-0.5 1687.5,-19.5 1738.5,-19.5 1738.5,-0.5 1687.5,-0.5"/>
<text text-anchor="middle" x="1713" y="-7.5" font-family="Helvetica,sans-Serif" font-size="10.00">unistd.h</text>
</g>
<!-- Node16&#45;&gt;Node29 -->
<g id="edge37" class="edge"><title>Node16&#45;&gt;Node29</title>
<path fill="none" stroke="midnightblue" d="M1376.56,-57.8797C1379.74,-57.1946 1382.93,-56.551 1386,-56 1511.56,-33.4612 1547.77,-43.7952 1677.55,-19.8345"/>
<polygon fill="midnightblue" stroke="midnightblue" points="1678.29,-23.2567 1687.47,-17.9701 1677,-16.3771 1678.29,-23.2567"/>
</g>
<!-- Node30 -->
<g id="node31" class="node"><title>Node30</title>
<polygon fill="white" stroke="#bfbfbf" points="1756.5,-0.5 1756.5,-19.5 1803.5,-19.5 1803.5,-0.5 1756.5,-0.5"/>
<text text-anchor="middle" x="1780" y="-7.5" font-family="Helvetica,sans-Serif" font-size="10.00">errno.h</text>
</g>
<!-- Node16&#45;&gt;Node30 -->
<g id="edge38" class="edge"><title>Node16&#45;&gt;Node30</title>
<path fill="none" stroke="midnightblue" d="M1376.55,-57.8075C1379.73,-57.1359 1382.92,-56.5153 1386,-56 1541.76,-29.9071 1586.62,-48.5157 1746.14,-19.832"/>
<polygon fill="midnightblue" stroke="midnightblue" points="1747.11,-23.213 1756.32,-17.9673 1745.85,-16.3277 1747.11,-23.213"/>
</g>
<!-- Node31&#45;&gt;Node9 -->
<g id="edge41" class="edge"><title>Node31&#45;&gt;Node9</title>
<path fill="none" stroke="midnightblue" d="M1009.66,-56.4435C986.247,-47.4776 949.264,-33.314 922.81,-23.1827"/>
<polygon fill="midnightblue" stroke="midnightblue" points="923.828,-19.8245 913.237,-19.5164 921.324,-26.3615 923.828,-19.8245"/>
</g>
<!-- Node31&#45;&gt;Node10 -->
<g id="edge42" class="edge"><title>Node31&#45;&gt;Node10</title>
<path fill="none" stroke="midnightblue" d="M1020.43,-56.324C1009.58,-48.1849 993.119,-35.8395 980.117,-26.0874"/>
<polygon fill="midnightblue" stroke="midnightblue" points="981.879,-23.0339 971.779,-19.8339 977.679,-28.6339 981.879,-23.0339"/>
</g>
<!-- Node32 -->
<g id="node33" class="node"><title>Node32</title>
<polygon fill="white" stroke="#bfbfbf" points="1004,-0.5 1004,-19.5 1060,-19.5 1060,-0.5 1004,-0.5"/>
<text text-anchor="middle" x="1032" y="-7.5" font-family="Helvetica,sans-Serif" font-size="10.00">algorithm</text>
</g>
<!-- Node31&#45;&gt;Node32 -->
<g id="edge40" class="edge"><title>Node31&#45;&gt;Node32</title>
<path fill="none" stroke="midnightblue" d="M1032,-56.083C1032,-49.0059 1032,-38.8611 1032,-29.9865"/>
<polygon fill="midnightblue" stroke="midnightblue" points="1035.5,-29.751 1032,-19.7511 1028.5,-29.7511 1035.5,-29.751"/>
</g>
<!-- Node35&#45;&gt;Node2 -->
<g id="edge45" class="edge"><title>Node35&#45;&gt;Node2</title>
<path fill="none" stroke="midnightblue" d="M691.666,-58.8055C644.798,-48.5592 551.535,-28.1696 503.364,-17.6384"/>
<polygon fill="midnightblue" stroke="midnightblue" points="504.042,-14.2039 493.525,-15.4873 502.547,-21.0424 504.042,-14.2039"/>
</g>
<!-- Node35&#45;&gt;Node7 -->
<g id="edge44" class="edge"><title>Node35&#45;&gt;Node7</title>
<path fill="none" stroke="midnightblue" d="M718.679,-56.083C717.619,-48.9272 716.094,-38.6353 714.769,-29.6911"/>
<polygon fill="midnightblue" stroke="midnightblue" points="718.224,-29.1302 713.296,-19.7511 711.3,-30.1561 718.224,-29.1302"/>
</g>
<!-- Node36&#45;&gt;Node2 -->
<g id="edge47" class="edge"><title>Node36&#45;&gt;Node2</title>
<path fill="none" stroke="midnightblue" d="M585.767,-56.4435C563.486,-47.4646 528.27,-33.2729 503.122,-23.1386"/>
<polygon fill="midnightblue" stroke="midnightblue" points="504.276,-19.8305 493.693,-19.339 501.66,-26.3231 504.276,-19.8305"/>
</g>
<!-- Node54&#45;&gt;Node2 -->
<g id="edge59" class="edge"><title>Node54&#45;&gt;Node2</title>
<path fill="none" stroke="midnightblue" d="M297.117,-56.4435C336.991,-46.141 403.428,-28.9755 442.227,-18.951"/>
<polygon fill="midnightblue" stroke="midnightblue" points="443.586,-22.2149 452.392,-16.3245 441.834,-15.4375 443.586,-22.2149"/>
</g>
<!-- Node54&#45;&gt;Node3 -->
<g id="edge60" class="edge"><title>Node54&#45;&gt;Node3</title>
<path fill="none" stroke="midnightblue" d="M264,-56.083C264,-49.0059 264,-38.8611 264,-29.9865"/>
<polygon fill="midnightblue" stroke="midnightblue" points="267.5,-29.751 264,-19.7511 260.5,-29.7511 267.5,-29.751"/>
</g>
<!-- Node54&#45;&gt;Node7 -->
<g id="edge58" class="edge"><title>Node54&#45;&gt;Node7</title>
<path fill="none" stroke="midnightblue" d="M310.676,-59.3739C400.972,-48.49 597.68,-24.7797 677.404,-15.17"/>
<polygon fill="midnightblue" stroke="midnightblue" points="677.906,-18.635 687.415,-13.9634 677.068,-11.6853 677.906,-18.635"/>
</g>
<!-- Node41 -->
<g id="node47" class="node"><title>Node41</title>
<polygon fill="white" stroke="#bfbfbf" points="1987.5,-56.5 1987.5,-75.5 2016.5,-75.5 2016.5,-56.5 1987.5,-56.5"/>
<text text-anchor="middle" x="2002" y="-63.5" font-family="Helvetica,sans-Serif" font-size="10.00">ios</text>
</g>
<!-- Node59&#45;&gt;Node41 -->
<g id="edge66" class="edge"><title>Node59&#45;&gt;Node41</title>
<path fill="none" stroke="midnightblue" d="M2051.52,-112.324C2042.8,-104.341 2029.66,-92.3128 2019.1,-82.6529"/>
<polygon fill="midnightblue" stroke="midnightblue" points="2021.39,-80.0036 2011.65,-75.8339 2016.67,-85.1674 2021.39,-80.0036"/>
</g>
<!-- Node43 -->
<g id="node48" class="node"><title>Node43</title>
<polygon fill="white" stroke="#bfbfbf" points="2035,-56.5 2035,-75.5 2087,-75.5 2087,-56.5 2035,-56.5"/>
<text text-anchor="middle" x="2061" y="-63.5" font-family="Helvetica,sans-Serif" font-size="10.00">memory</text>
</g>
<!-- Node59&#45;&gt;Node43 -->
<g id="edge67" class="edge"><title>Node59&#45;&gt;Node43</title>
<path fill="none" stroke="midnightblue" d="M2061,-112.083C2061,-105.006 2061,-94.8611 2061,-85.9865"/>
<polygon fill="midnightblue" stroke="midnightblue" points="2064.5,-85.751 2061,-75.7511 2057.5,-85.7511 2064.5,-85.751"/>
</g>
<!-- Node60 -->
<g id="node49" class="node"><title>Node60</title>
<polygon fill="white" stroke="#bfbfbf" points="2105.5,-56.5 2105.5,-75.5 2186.5,-75.5 2186.5,-56.5 2105.5,-56.5"/>
<text text-anchor="middle" x="2146" y="-63.5" font-family="Helvetica,sans-Serif" font-size="10.00">event2/event.h</text>
</g>
<!-- Node59&#45;&gt;Node60 -->
<g id="edge68" class="edge"><title>Node59&#45;&gt;Node60</title>
<path fill="none" stroke="midnightblue" d="M2074.66,-112.324C2087.92,-103.9 2108.27,-90.9709 2123.85,-81.0741"/>
<polygon fill="midnightblue" stroke="midnightblue" points="2125.81,-83.9711 2132.38,-75.6545 2122.06,-78.0626 2125.81,-83.9711"/>
</g>
<!-- Node61 -->
<g id="node50" class="node"><title>Node61</title>
<polygon fill="white" stroke="#bfbfbf" points="2205,-56.5 2205,-75.5 2279,-75.5 2279,-56.5 2205,-56.5"/>
<text text-anchor="middle" x="2242" y="-63.5" font-family="Helvetica,sans-Serif" font-size="10.00">event2/http.h</text>
</g>
<!-- Node59&#45;&gt;Node61 -->
<g id="edge69" class="edge"><title>Node59&#45;&gt;Node61</title>
<path fill="none" stroke="midnightblue" d="M2089.68,-112.444C2120.53,-103.241 2169.73,-88.5617 2203.83,-78.3879"/>
<polygon fill="midnightblue" stroke="midnightblue" points="2204.87,-81.7293 2213.45,-75.5164 2202.87,-75.0215 2204.87,-81.7293"/>
</g>
</g>
</svg>
