<?xml version="1.0" encoding="UTF-8" standalone="no"?>
<!DOCTYPE svg PUBLIC "-//W3C//DTD SVG 1.1//EN"
 "http://www.w3.org/Graphics/SVG/1.1/DTD/svg11.dtd">
<!-- Generated by graphviz version 2.36.0 (20140111.2315)
 -->
<!-- Title: src/wallet/db.h Pages: 1 -->
<svg width="2745pt" height="320pt"
 viewBox="0.00 0.00 2744.89 320.00" xmlns="http://www.w3.org/2000/svg" xmlns:xlink="http://www.w3.org/1999/xlink">
<g id="graph0" class="graph" transform="scale(1 1) rotate(0) translate(4 316)">
<title>src/wallet/db.h</title>
<polygon fill="white" stroke="none" points="-4,4 -4,-316 2740.89,-316 2740.89,4 -4,4"/>
<!-- Node34 -->
<g id="node1" class="node"><title>Node34</title>
<polygon fill="#bfbfbf" stroke="black" points="1881.89,-292.5 1881.89,-311.5 1961.89,-311.5 1961.89,-292.5 1881.89,-292.5"/>
<text text-anchor="middle" x="1921.89" y="-299.5" font-family="Helvetica,sans-Serif" font-size="10.00">src/wallet/db.h</text>
</g>
<!-- Node35 -->
<g id="node2" class="node"><title>Node35</title>
<g id="a_node2"><a xlink:href="transactiondesc_8cpp.html" target="_top" xlink:title="src/qt/transactiondesc.cpp">
<polygon fill="white" stroke="black" points="24.8932,-118.5 24.8932,-137.5 156.893,-137.5 156.893,-118.5 24.8932,-118.5"/>
<text text-anchor="middle" x="90.8932" y="-125.5" font-family="Helvetica,sans-Serif" font-size="10.00">src/qt/transactiondesc.cpp</text>
</a>
</g>
</g>
<!-- Node34&#45;&gt;Node35 -->
<g id="edge1" class="edge"><title>Node34&#45;&gt;Node35</title>
<path fill="none" stroke="midnightblue" d="M1871.58,-298.586C1693.49,-289.755 1076.46,-256.724 569.893,-200 389.747,-179.828 344.627,-174.233 165.893,-144 154.633,-142.095 142.475,-139.778 131.292,-137.539"/>
<polygon fill="midnightblue" stroke="midnightblue" points="1871.54,-302.088 1881.7,-299.085 1871.88,-295.097 1871.54,-302.088"/>
</g>
<!-- Node36 -->
<g id="node3" class="node"><title>Node36</title>
<g id="a_node3"><a xlink:href="db_8cpp.html" target="_top" xlink:title="src/wallet/db.cpp">
<polygon fill="white" stroke="black" points="2645.39,-236.5 2645.39,-255.5 2736.39,-255.5 2736.39,-236.5 2645.39,-236.5"/>
<text text-anchor="middle" x="2690.89" y="-243.5" font-family="Helvetica,sans-Serif" font-size="10.00">src/wallet/db.cpp</text>
</a>
</g>
</g>
<!-- Node34&#45;&gt;Node36 -->
<g id="edge2" class="edge"><title>Node34&#45;&gt;Node36</title>
<path fill="none" stroke="midnightblue" d="M1971.98,-299.294C2088.08,-295.018 2384.46,-282.255 2630.89,-256 2635.5,-255.509 2640.3,-254.921 2645.08,-254.284"/>
<polygon fill="midnightblue" stroke="midnightblue" points="1971.84,-295.797 1961.97,-299.658 1972.09,-302.792 1971.84,-295.797"/>
</g>
<!-- Node37 -->
<g id="node4" class="node"><title>Node37</title>
<g id="a_node4"><a xlink:href="walletdb_8h.html" target="_top" xlink:title="src/wallet/walletdb.h">
<polygon fill="white" stroke="black" points="1233.89,-236.5 1233.89,-255.5 1339.89,-255.5 1339.89,-236.5 1233.89,-236.5"/>
<text text-anchor="middle" x="1286.89" y="-243.5" font-family="Helvetica,sans-Serif" font-size="10.00">src/wallet/walletdb.h</text>
</a>
</g>
</g>
<!-- Node34&#45;&gt;Node37 -->
<g id="edge3" class="edge"><title>Node34&#45;&gt;Node37</title>
<path fill="none" stroke="midnightblue" d="M1871.5,-296.715C1753.56,-286.685 1460.49,-261.763 1339.96,-251.513"/>
<polygon fill="midnightblue" stroke="midnightblue" points="1871.43,-300.221 1881.69,-297.581 1872.02,-293.246 1871.43,-300.221"/>
</g>
<!-- Node59 -->
<g id="node26" class="node"><title>Node59</title>
<g id="a_node26"><a xlink:href="wallet__test__fixture_8cpp.html" target="_top" xlink:title="src/wallet/test/wallet\l_test_fixture.cpp">
<polygon fill="white" stroke="black" points="2503.39,-113 2503.39,-143 2610.39,-143 2610.39,-113 2503.39,-113"/>
<text text-anchor="start" x="2511.39" y="-131" font-family="Helvetica,sans-Serif" font-size="10.00">src/wallet/test/wallet</text>
<text text-anchor="middle" x="2556.89" y="-120" font-family="Helvetica,sans-Serif" font-size="10.00">_test_fixture.cpp</text>
</a>
</g>
</g>
<!-- Node34&#45;&gt;Node59 -->
<g id="edge37" class="edge"><title>Node34&#45;&gt;Node59</title>
<path fill="none" stroke="midnightblue" d="M1963.25,-289.798C2074.84,-259.572 2381.94,-176.39 2504.95,-143.071"/>
<polygon fill="midnightblue" stroke="midnightblue" points="1962.12,-286.478 1953.38,-292.47 1963.95,-293.234 1962.12,-286.478"/>
</g>
<!-- Node38 -->
<g id="node5" class="node"><title>Node38</title>
<g id="a_node5"><a xlink:href="wallet_8h.html" target="_top" xlink:title="src/wallet/wallet.h">
<polygon fill="white" stroke="black" points="1239.39,-180.5 1239.39,-199.5 1334.39,-199.5 1334.39,-180.5 1239.39,-180.5"/>
<text text-anchor="middle" x="1286.89" y="-187.5" font-family="Helvetica,sans-Serif" font-size="10.00">src/wallet/wallet.h</text>
</a>
</g>
</g>
<!-- Node37&#45;&gt;Node38 -->
<g id="edge4" class="edge"><title>Node37&#45;&gt;Node38</title>
<path fill="none" stroke="midnightblue" d="M1286.89,-225.805C1286.89,-216.91 1286.89,-206.78 1286.89,-199.751"/>
<polygon fill="midnightblue" stroke="midnightblue" points="1283.39,-226.083 1286.89,-236.083 1290.39,-226.083 1283.39,-226.083"/>
</g>
<!-- Node45 -->
<g id="node12" class="node"><title>Node45</title>
<g id="a_node12"><a xlink:href="walletmodel_8cpp.html" target="_top" xlink:title="src/qt/walletmodel.cpp">
<polygon fill="white" stroke="black" points="261.393,-0.5 261.393,-19.5 376.393,-19.5 376.393,-0.5 261.393,-0.5"/>
<text text-anchor="middle" x="318.893" y="-7.5" font-family="Helvetica,sans-Serif" font-size="10.00">src/qt/walletmodel.cpp</text>
</a>
</g>
</g>
<!-- Node37&#45;&gt;Node45 -->
<g id="edge34" class="edge"><title>Node37&#45;&gt;Node45</title>
<path fill="none" stroke="midnightblue" d="M1223.7,-244.929C978.231,-243.999 97.5696,-234.349 15.8932,-144 -58.8464,-61.3246 153.698,-27.5749 261.033,-16.0767"/>
<polygon fill="midnightblue" stroke="midnightblue" points="1223.87,-248.429 1233.88,-244.964 1223.89,-241.429 1223.87,-248.429"/>
</g>
<!-- Node46 -->
<g id="node13" class="node"><title>Node46</title>
<g id="a_node13"><a xlink:href="rpcwallet_8cpp.html" target="_top" xlink:title="src/wallet/rpcwallet.cpp">
<polygon fill="white" stroke="black" points="2415.39,-0.5 2415.39,-19.5 2534.39,-19.5 2534.39,-0.5 2415.39,-0.5"/>
<text text-anchor="middle" x="2474.89" y="-7.5" font-family="Helvetica,sans-Serif" font-size="10.00">src/wallet/rpcwallet.cpp</text>
</a>
</g>
</g>
<!-- Node37&#45;&gt;Node46 -->
<g id="edge35" class="edge"><title>Node37&#45;&gt;Node46</title>
<path fill="none" stroke="midnightblue" d="M1350.11,-245.122C1602.92,-244.961 2531.81,-237.94 2618.89,-144 2665.63,-93.5864 2548.95,-39.9233 2497.65,-19.5274"/>
<polygon fill="midnightblue" stroke="midnightblue" points="1349.99,-241.622 1339.99,-245.125 1349.99,-248.622 1349.99,-241.622"/>
</g>
<!-- Node61 -->
<g id="node28" class="node"><title>Node61</title>
<g id="a_node28"><a xlink:href="walletdb_8cpp.html" target="_top" xlink:title="src/wallet/walletdb.cpp">
<polygon fill="white" stroke="black" points="174.893,-118.5 174.893,-137.5 290.893,-137.5 290.893,-118.5 174.893,-118.5"/>
<text text-anchor="middle" x="232.893" y="-125.5" font-family="Helvetica,sans-Serif" font-size="10.00">src/wallet/walletdb.cpp</text>
</a>
</g>
</g>
<!-- Node37&#45;&gt;Node61 -->
<g id="edge36" class="edge"><title>Node37&#45;&gt;Node61</title>
<path fill="none" stroke="midnightblue" d="M1223.3,-240.738C1066.57,-229.741 649.454,-197.466 304.893,-144 293.538,-142.238 281.267,-139.861 270.129,-137.519"/>
<polygon fill="midnightblue" stroke="midnightblue" points="1223.47,-244.259 1233.69,-241.463 1223.96,-237.275 1223.47,-244.259"/>
</g>
<!-- Node38&#45;&gt;Node35 -->
<g id="edge22" class="edge"><title>Node38&#45;&gt;Node35</title>
<path fill="none" stroke="midnightblue" d="M1229.01,-187.88C1030.03,-183.843 374.897,-168.938 165.893,-144 153.367,-142.505 139.81,-140.054 127.711,-137.563"/>
<polygon fill="midnightblue" stroke="midnightblue" points="1229.18,-191.384 1239.24,-188.087 1229.32,-184.386 1229.18,-191.384"/>
</g>
<!-- Node39 -->
<g id="node6" class="node"><title>Node39</title>
<g id="a_node6"><a xlink:href="coin__selection_8cpp.html" target="_top" xlink:title="src/bench/coin_selection.cpp">
<polygon fill="white" stroke="black" points="2178.39,-118.5 2178.39,-137.5 2321.39,-137.5 2321.39,-118.5 2178.39,-118.5"/>
<text text-anchor="middle" x="2249.89" y="-125.5" font-family="Helvetica,sans-Serif" font-size="10.00">src/bench/coin_selection.cpp</text>
</a>
</g>
</g>
<!-- Node38&#45;&gt;Node39 -->
<g id="edge5" class="edge"><title>Node38&#45;&gt;Node39</title>
<path fill="none" stroke="midnightblue" d="M1344.71,-188.457C1485.38,-186.609 1856.46,-178.569 2163.89,-144 2178.05,-142.408 2193.41,-139.963 2207.17,-137.506"/>
<polygon fill="midnightblue" stroke="midnightblue" points="1344.55,-184.959 1334.59,-188.584 1344.63,-191.958 1344.55,-184.959"/>
</g>
<!-- Node40 -->
<g id="node7" class="node"><title>Node40</title>
<g id="a_node7"><a xlink:href="privatesend-util_8h.html" target="_top" xlink:title="src/privatesend&#45;util.h">
<polygon fill="white" stroke="black" points="2339.39,-118.5 2339.39,-137.5 2446.39,-137.5 2446.39,-118.5 2339.39,-118.5"/>
<text text-anchor="middle" x="2392.89" y="-125.5" font-family="Helvetica,sans-Serif" font-size="10.00">src/privatesend&#45;util.h</text>
</a>
</g>
</g>
<!-- Node38&#45;&gt;Node40 -->
<g id="edge6" class="edge"><title>Node38&#45;&gt;Node40</title>
<path fill="none" stroke="midnightblue" d="M1344.59,-187.959C1534.24,-184.311 2137.21,-170.845 2329.89,-144 2340.58,-142.511 2352.12,-140.029 2362.35,-137.509"/>
<polygon fill="midnightblue" stroke="midnightblue" points="1344.48,-184.461 1334.55,-188.151 1344.61,-191.459 1344.48,-184.461"/>
</g>
<!-- Node41 -->
<g id="node8" class="node"><title>Node41</title>
<g id="a_node8"><a xlink:href="privatesend-client_8h.html" target="_top" xlink:title="src/privatesend&#45;client.h">
<polygon fill="white" stroke="black" points="1420.89,-56.5 1420.89,-75.5 1538.89,-75.5 1538.89,-56.5 1420.89,-56.5"/>
<text text-anchor="middle" x="1479.89" y="-63.5" font-family="Helvetica,sans-Serif" font-size="10.00">src/privatesend&#45;client.h</text>
</a>
</g>
</g>
<!-- Node38&#45;&gt;Node41 -->
<g id="edge15" class="edge"><title>Node38&#45;&gt;Node41</title>
<path fill="none" stroke="midnightblue" d="M1344.82,-188.07C1530.89,-184.804 2102.89,-172.478 2129.89,-144 2139.68,-133.679 2139.6,-122.398 2129.89,-112 2090.05,-69.3051 1691.55,-66.209 1538.93,-66.6079"/>
<polygon fill="midnightblue" stroke="midnightblue" points="1344.62,-184.573 1334.68,-188.246 1344.74,-191.572 1344.62,-184.573"/>
</g>
<!-- Node43 -->
<g id="node10" class="node"><title>Node43</title>
<g id="a_node10"><a xlink:href="coincontroldialog_8cpp.html" target="_top" xlink:title="src/qt/coincontroldialog.cpp">
<polygon fill="white" stroke="black" points="562.893,-0.5 562.893,-19.5 698.893,-19.5 698.893,-0.5 562.893,-0.5"/>
<text text-anchor="middle" x="630.893" y="-7.5" font-family="Helvetica,sans-Serif" font-size="10.00">src/qt/coincontroldialog.cpp</text>
</a>
</g>
</g>
<!-- Node38&#45;&gt;Node43 -->
<g id="edge17" class="edge"><title>Node38&#45;&gt;Node43</title>
<path fill="none" stroke="midnightblue" d="M1228.97,-188.227C1036.59,-185.381 429.448,-174.042 400.893,-144 339.641,-79.5579 501.014,-36.7584 584.494,-19.5432"/>
<polygon fill="midnightblue" stroke="midnightblue" points="1229.11,-191.729 1239.16,-188.376 1229.21,-184.73 1229.11,-191.729"/>
</g>
<!-- Node38&#45;&gt;Node45 -->
<g id="edge25" class="edge"><title>Node38&#45;&gt;Node45</title>
<path fill="none" stroke="midnightblue" d="M1228.99,-187.728C1035.14,-183.258 419.197,-167.282 383.893,-144 339.052,-114.429 324.104,-44.4948 320.127,-19.8126"/>
<polygon fill="midnightblue" stroke="midnightblue" points="1229.17,-191.233 1239.25,-187.962 1229.33,-184.234 1229.17,-191.233"/>
</g>
<!-- Node38&#45;&gt;Node46 -->
<g id="edge28" class="edge"><title>Node38&#45;&gt;Node46</title>
<path fill="none" stroke="midnightblue" d="M1344.91,-188.799C1575.05,-187.743 2413.17,-181.34 2454.89,-144 2491.26,-111.455 2481.58,-43.4029 2476.8,-19.5119"/>
<polygon fill="midnightblue" stroke="midnightblue" points="1344.72,-185.3 1334.74,-188.844 1344.75,-192.3 1344.72,-185.3"/>
</g>
<!-- Node47 -->
<g id="node14" class="node"><title>Node47</title>
<g id="a_node14"><a xlink:href="wallet_8cpp.html" target="_top" xlink:title="src/wallet/wallet.cpp">
<polygon fill="white" stroke="black" points="1051.89,-0.5 1051.89,-19.5 1157.89,-19.5 1157.89,-0.5 1051.89,-0.5"/>
<text text-anchor="middle" x="1104.89" y="-7.5" font-family="Helvetica,sans-Serif" font-size="10.00">src/wallet/wallet.cpp</text>
</a>
</g>
</g>
<!-- Node38&#45;&gt;Node47 -->
<g id="edge32" class="edge"><title>Node38&#45;&gt;Node47</title>
<path fill="none" stroke="midnightblue" d="M1229.17,-188.184C1038.89,-185.218 441.987,-173.579 413.893,-144 323.241,-48.5541 874.868,-19.5536 1051.68,-12.7665"/>
<polygon fill="midnightblue" stroke="midnightblue" points="1229.2,-191.685 1239.25,-188.339 1229.3,-184.686 1229.2,-191.685"/>
</g>
<!-- Node49 -->
<g id="node16" class="node"><title>Node49</title>
<g id="a_node16"><a xlink:href="addresstablemodel_8cpp.html" target="_top" xlink:title="src/qt/addresstablemodel.cpp">
<polygon fill="white" stroke="black" points="423.393,-118.5 423.393,-137.5 568.393,-137.5 568.393,-118.5 423.393,-118.5"/>
<text text-anchor="middle" x="495.893" y="-125.5" font-family="Helvetica,sans-Serif" font-size="10.00">src/qt/addresstablemodel.cpp</text>
</a>
</g>
</g>
<!-- Node38&#45;&gt;Node49 -->
<g id="edge16" class="edge"><title>Node38&#45;&gt;Node49</title>
<path fill="none" stroke="midnightblue" d="M1229.18,-187.684C1107.95,-184.406 818.078,-173.866 576.893,-144 563.694,-142.365 549.394,-139.939 536.537,-137.512"/>
<polygon fill="midnightblue" stroke="midnightblue" points="1229.26,-191.187 1239.35,-187.953 1229.45,-184.19 1229.26,-191.187"/>
</g>
<!-- Node50 -->
<g id="node17" class="node"><title>Node50</title>
<g id="a_node17"><a xlink:href="masternodelist_8cpp.html" target="_top" xlink:title="src/qt/masternodelist.cpp">
<polygon fill="white" stroke="black" points="586.393,-118.5 586.393,-137.5 713.393,-137.5 713.393,-118.5 586.393,-118.5"/>
<text text-anchor="middle" x="649.893" y="-125.5" font-family="Helvetica,sans-Serif" font-size="10.00">src/qt/masternodelist.cpp</text>
</a>
</g>
</g>
<!-- Node38&#45;&gt;Node50 -->
<g id="edge18" class="edge"><title>Node38&#45;&gt;Node50</title>
<path fill="none" stroke="midnightblue" d="M1229,-186.733C1126.54,-182.199 906.706,-170.117 722.893,-144 711.108,-142.326 698.366,-139.917 686.876,-137.519"/>
<polygon fill="midnightblue" stroke="midnightblue" points="1229,-190.236 1239.14,-187.174 1229.3,-183.243 1229,-190.236"/>
</g>
<!-- Node51 -->
<g id="node18" class="node"><title>Node51</title>
<g id="a_node18"><a xlink:href="paymentserver_8cpp.html" target="_top" xlink:title="src/qt/paymentserver.cpp">
<polygon fill="white" stroke="black" points="731.893,-118.5 731.893,-137.5 859.893,-137.5 859.893,-118.5 731.893,-118.5"/>
<text text-anchor="middle" x="795.893" y="-125.5" font-family="Helvetica,sans-Serif" font-size="10.00">src/qt/paymentserver.cpp</text>
</a>
</g>
</g>
<!-- Node38&#45;&gt;Node51 -->
<g id="edge19" class="edge"><title>Node38&#45;&gt;Node51</title>
<path fill="none" stroke="midnightblue" d="M1229.4,-184.558C1148.61,-177.92 997.006,-164.012 868.893,-144 857.516,-142.223 845.226,-139.868 834.034,-137.553"/>
<polygon fill="midnightblue" stroke="midnightblue" points="1229.12,-188.047 1239.37,-185.37 1229.69,-181.07 1229.12,-188.047"/>
</g>
<!-- Node52 -->
<g id="node19" class="node"><title>Node52</title>
<g id="a_node19"><a xlink:href="sendcoinsdialog_8cpp.html" target="_top" xlink:title="src/qt/sendcoinsdialog.cpp">
<polygon fill="white" stroke="black" points="878.393,-118.5 878.393,-137.5 1011.39,-137.5 1011.39,-118.5 878.393,-118.5"/>
<text text-anchor="middle" x="944.893" y="-125.5" font-family="Helvetica,sans-Serif" font-size="10.00">src/qt/sendcoinsdialog.cpp</text>
</a>
</g>
</g>
<!-- Node38&#45;&gt;Node52 -->
<g id="edge20" class="edge"><title>Node38&#45;&gt;Node52</title>
<path fill="none" stroke="midnightblue" d="M1229.2,-179.705C1175.26,-170.906 1092.52,-157.125 1020.89,-144 1009.91,-141.988 998.064,-139.704 987.064,-137.536"/>
<polygon fill="midnightblue" stroke="midnightblue" points="1228.82,-183.19 1239.25,-181.343 1229.95,-176.281 1228.82,-183.19"/>
</g>
<!-- Node53 -->
<g id="node20" class="node"><title>Node53</title>
<g id="a_node20"><a xlink:href="signverifymessagedialog_8cpp.html" target="_top" xlink:title="src/qt/signverifymessagedialog.cpp">
<polygon fill="white" stroke="black" points="1029.89,-118.5 1029.89,-137.5 1199.89,-137.5 1199.89,-118.5 1029.89,-118.5"/>
<text text-anchor="middle" x="1114.89" y="-125.5" font-family="Helvetica,sans-Serif" font-size="10.00">src/qt/signverifymessagedialog.cpp</text>
</a>
</g>
</g>
<!-- Node38&#45;&gt;Node53 -->
<g id="edge21" class="edge"><title>Node38&#45;&gt;Node53</title>
<path fill="none" stroke="midnightblue" d="M1252.44,-176.983C1219.01,-165.32 1169.1,-147.91 1139.49,-137.581"/>
<polygon fill="midnightblue" stroke="midnightblue" points="1251.65,-180.414 1262.25,-180.403 1253.96,-173.805 1251.65,-180.414"/>
</g>
<!-- Node54 -->
<g id="node21" class="node"><title>Node54</title>
<g id="a_node21"><a xlink:href="transactionrecord_8cpp.html" target="_top" xlink:title="src/qt/transactionrecord.cpp">
<polygon fill="white" stroke="black" points="1217.89,-118.5 1217.89,-137.5 1355.89,-137.5 1355.89,-118.5 1217.89,-118.5"/>
<text text-anchor="middle" x="1286.89" y="-125.5" font-family="Helvetica,sans-Serif" font-size="10.00">src/qt/transactionrecord.cpp</text>
</a>
</g>
</g>
<!-- Node38&#45;&gt;Node54 -->
<g id="edge23" class="edge"><title>Node38&#45;&gt;Node54</title>
<path fill="none" stroke="midnightblue" d="M1286.89,-170.16C1286.89,-159.248 1286.89,-146.04 1286.89,-137.581"/>
<polygon fill="midnightblue" stroke="midnightblue" points="1283.39,-170.403 1286.89,-180.403 1290.39,-170.403 1283.39,-170.403"/>
</g>
<!-- Node55 -->
<g id="node22" class="node"><title>Node55</title>
<g id="a_node22"><a xlink:href="transactiontablemodel_8cpp.html" target="_top" xlink:title="src/qt/transactiontablemodel.cpp">
<polygon fill="white" stroke="black" points="1373.89,-118.5 1373.89,-137.5 1531.89,-137.5 1531.89,-118.5 1373.89,-118.5"/>
<text text-anchor="middle" x="1452.89" y="-125.5" font-family="Helvetica,sans-Serif" font-size="10.00">src/qt/transactiontablemodel.cpp</text>
</a>
</g>
</g>
<!-- Node38&#45;&gt;Node55 -->
<g id="edge24" class="edge"><title>Node38&#45;&gt;Node55</title>
<path fill="none" stroke="midnightblue" d="M1320.14,-176.983C1352.41,-165.32 1400.58,-147.91 1429.15,-137.581"/>
<polygon fill="midnightblue" stroke="midnightblue" points="1318.89,-173.713 1310.68,-180.403 1321.27,-180.296 1318.89,-173.713"/>
</g>
<!-- Node56 -->
<g id="node23" class="node"><title>Node56</title>
<g id="a_node23"><a xlink:href="walletmodeltransaction_8cpp.html" target="_top" xlink:title="src/qt/walletmodeltransaction.cpp">
<polygon fill="white" stroke="black" points="1550.39,-118.5 1550.39,-137.5 1713.39,-137.5 1713.39,-118.5 1550.39,-118.5"/>
<text text-anchor="middle" x="1631.89" y="-125.5" font-family="Helvetica,sans-Serif" font-size="10.00">src/qt/walletmodeltransaction.cpp</text>
</a>
</g>
</g>
<!-- Node38&#45;&gt;Node56 -->
<g id="edge26" class="edge"><title>Node38&#45;&gt;Node56</title>
<path fill="none" stroke="midnightblue" d="M1344.43,-178.994C1411.14,-167.392 1519.95,-148.468 1582.82,-137.534"/>
<polygon fill="midnightblue" stroke="midnightblue" points="1343.75,-175.559 1334.5,-180.72 1344.95,-182.455 1343.75,-175.559"/>
</g>
<!-- Node57 -->
<g id="node24" class="node"><title>Node57</title>
<g id="a_node24"><a xlink:href="rpcdump_8cpp.html" target="_top" xlink:title="src/wallet/rpcdump.cpp">
<polygon fill="white" stroke="black" points="1731.89,-118.5 1731.89,-137.5 1849.89,-137.5 1849.89,-118.5 1731.89,-118.5"/>
<text text-anchor="middle" x="1790.89" y="-125.5" font-family="Helvetica,sans-Serif" font-size="10.00">src/wallet/rpcdump.cpp</text>
</a>
</g>
</g>
<!-- Node38&#45;&gt;Node57 -->
<g id="edge27" class="edge"><title>Node38&#45;&gt;Node57</title>
<path fill="none" stroke="midnightblue" d="M1344.48,-185.088C1428,-178.951 1587.49,-165.493 1721.89,-144 1732.79,-142.258 1744.55,-139.887 1755.22,-137.544"/>
<polygon fill="midnightblue" stroke="midnightblue" points="1344.15,-181.603 1334.43,-185.818 1344.66,-188.584 1344.15,-181.603"/>
</g>
<!-- Node58 -->
<g id="node25" class="node"><title>Node58</title>
<g id="a_node25"><a xlink:href="accounting__tests_8cpp.html" target="_top" xlink:title="src/wallet/test/accounting\l_tests.cpp">
<polygon fill="white" stroke="black" points="1867.89,-113 1867.89,-143 1995.89,-143 1995.89,-113 1867.89,-113"/>
<text text-anchor="start" x="1875.89" y="-131" font-family="Helvetica,sans-Serif" font-size="10.00">src/wallet/test/accounting</text>
<text text-anchor="middle" x="1931.89" y="-120" font-family="Helvetica,sans-Serif" font-size="10.00">_tests.cpp</text>
</a>
</g>
</g>
<!-- Node38&#45;&gt;Node58 -->
<g id="edge29" class="edge"><title>Node38&#45;&gt;Node58</title>
<path fill="none" stroke="midnightblue" d="M1344.81,-186.822C1448.38,-182.398 1672,-170.449 1858.89,-144 1861.84,-143.583 1864.85,-143.12 1867.88,-142.622"/>
<polygon fill="midnightblue" stroke="midnightblue" points="1344.41,-183.335 1334.57,-187.251 1344.71,-190.329 1344.41,-183.335"/>
</g>
<!-- Node38&#45;&gt;Node59 -->
<g id="edge30" class="edge"><title>Node38&#45;&gt;Node59</title>
<path fill="none" stroke="midnightblue" d="M1344.77,-188.212C1552.99,-185.161 2263.55,-172.834 2488.89,-144 2493.57,-143.402 2498.4,-142.637 2503.23,-141.772"/>
<polygon fill="midnightblue" stroke="midnightblue" points="1344.61,-184.714 1334.66,-188.358 1344.71,-191.713 1344.61,-184.714"/>
</g>
<!-- Node60 -->
<g id="node27" class="node"><title>Node60</title>
<g id="a_node27"><a xlink:href="wallet__tests_8cpp.html" target="_top" xlink:title="src/wallet/test/wallet\l_tests.cpp">
<polygon fill="white" stroke="black" points="2014.39,-113 2014.39,-143 2121.39,-143 2121.39,-113 2014.39,-113"/>
<text text-anchor="start" x="2022.39" y="-131" font-family="Helvetica,sans-Serif" font-size="10.00">src/wallet/test/wallet</text>
<text text-anchor="middle" x="2067.89" y="-120" font-family="Helvetica,sans-Serif" font-size="10.00">_tests.cpp</text>
</a>
</g>
</g>
<!-- Node38&#45;&gt;Node60 -->
<g id="edge31" class="edge"><title>Node38&#45;&gt;Node60</title>
<path fill="none" stroke="midnightblue" d="M1344.93,-188.719C1467.52,-187.391 1761.53,-180.325 2004.89,-144 2007.9,-143.552 2010.97,-143.031 2014.06,-142.459"/>
<polygon fill="midnightblue" stroke="midnightblue" points="1344.62,-185.222 1334.66,-188.821 1344.69,-192.222 1344.62,-185.222"/>
</g>
<!-- Node38&#45;&gt;Node61 -->
<g id="edge33" class="edge"><title>Node38&#45;&gt;Node61</title>
<path fill="none" stroke="midnightblue" d="M1228.95,-187.56C1046.53,-182.836 485.419,-166.793 304.893,-144 292.859,-142.481 279.841,-140.023 268.227,-137.533"/>
<polygon fill="midnightblue" stroke="midnightblue" points="1229.06,-191.064 1239.14,-187.823 1229.24,-184.067 1229.06,-191.064"/>
</g>
<!-- Node40&#45;&gt;Node41 -->
<g id="edge7" class="edge"><title>Node40&#45;&gt;Node41</title>
<path fill="none" stroke="midnightblue" d="M2352.2,-116.177C2344.82,-114.539 2337.16,-113.049 2329.89,-112 2035.18,-69.4705 1677.8,-66.0124 1538.99,-66.4675"/>
<polygon fill="midnightblue" stroke="midnightblue" points="2351.49,-119.605 2362.03,-118.474 2353.08,-112.789 2351.49,-119.605"/>
</g>
<!-- Node48 -->
<g id="node15" class="node"><title>Node48</title>
<g id="a_node15"><a xlink:href="privatesend-util_8cpp.html" target="_top" xlink:title="src/privatesend&#45;util.cpp">
<polygon fill="white" stroke="black" points="2328.89,-56.5 2328.89,-75.5 2446.89,-75.5 2446.89,-56.5 2328.89,-56.5"/>
<text text-anchor="middle" x="2387.89" y="-63.5" font-family="Helvetica,sans-Serif" font-size="10.00">src/privatesend&#45;util.cpp</text>
</a>
</g>
</g>
<!-- Node40&#45;&gt;Node48 -->
<g id="edge14" class="edge"><title>Node40&#45;&gt;Node48</title>
<path fill="none" stroke="midnightblue" d="M2391.32,-108.16C2390.41,-97.2482 2389.31,-84.04 2388.61,-75.5806"/>
<polygon fill="midnightblue" stroke="midnightblue" points="2387.86,-108.729 2392.18,-118.403 2394.83,-108.147 2387.86,-108.729"/>
</g>
<!-- Node42 -->
<g id="node9" class="node"><title>Node42</title>
<g id="a_node9"><a xlink:href="privatesend-client_8cpp.html" target="_top" xlink:title="src/privatesend&#45;client.cpp">
<polygon fill="white" stroke="black" points="1343.89,-0.5 1343.89,-19.5 1471.89,-19.5 1471.89,-0.5 1343.89,-0.5"/>
<text text-anchor="middle" x="1407.89" y="-7.5" font-family="Helvetica,sans-Serif" font-size="10.00">src/privatesend&#45;client.cpp</text>
</a>
</g>
</g>
<!-- Node41&#45;&gt;Node42 -->
<g id="edge8" class="edge"><title>Node41&#45;&gt;Node42</title>
<path fill="none" stroke="midnightblue" d="M1460.03,-50.1008C1447.07,-40.3824 1430.6,-28.0269 1419.67,-19.8339"/>
<polygon fill="midnightblue" stroke="midnightblue" points="1458.23,-53.1239 1468.33,-56.324 1462.43,-47.5239 1458.23,-53.1239"/>
</g>
<!-- Node41&#45;&gt;Node43 -->
<g id="edge9" class="edge"><title>Node41&#45;&gt;Node43</title>
<path fill="none" stroke="midnightblue" d="M1410.69,-60.5981C1250.92,-50.4362 857.93,-25.4405 699.121,-15.3396"/>
<polygon fill="midnightblue" stroke="midnightblue" points="1410.67,-64.1038 1420.87,-61.2457 1411.11,-57.1179 1410.67,-64.1038"/>
</g>
<!-- Node44 -->
<g id="node11" class="node"><title>Node44</title>
<g id="a_node11"><a xlink:href="overviewpage_8cpp.html" target="_top" xlink:title="src/qt/overviewpage.cpp">
<polygon fill="white" stroke="black" points="1490.39,-0.5 1490.39,-19.5 1613.39,-19.5 1613.39,-0.5 1490.39,-0.5"/>
<text text-anchor="middle" x="1551.89" y="-7.5" font-family="Helvetica,sans-Serif" font-size="10.00">src/qt/overviewpage.cpp</text>
</a>
</g>
</g>
<!-- Node41&#45;&gt;Node44 -->
<g id="edge10" class="edge"><title>Node41&#45;&gt;Node44</title>
<path fill="none" stroke="midnightblue" d="M1499.76,-50.1008C1512.72,-40.3824 1529.19,-28.0269 1540.11,-19.8339"/>
<polygon fill="midnightblue" stroke="midnightblue" points="1497.36,-47.5239 1491.46,-56.324 1501.56,-53.1239 1497.36,-47.5239"/>
</g>
<!-- Node41&#45;&gt;Node45 -->
<g id="edge11" class="edge"><title>Node41&#45;&gt;Node45</title>
<path fill="none" stroke="midnightblue" d="M1410.73,-61.783C1200.36,-51.9985 570.753,-22.7144 376.567,-13.6825"/>
<polygon fill="midnightblue" stroke="midnightblue" points="1410.57,-65.2794 1420.72,-62.2479 1410.9,-58.287 1410.57,-65.2794"/>
</g>
<!-- Node41&#45;&gt;Node46 -->
<g id="edge12" class="edge"><title>Node41&#45;&gt;Node46</title>
<path fill="none" stroke="midnightblue" d="M1549.35,-61.2307C1735.18,-51.1454 2241.43,-23.6705 2415.31,-14.2334"/>
<polygon fill="midnightblue" stroke="midnightblue" points="1548.95,-57.7469 1539.16,-61.7838 1549.33,-64.7366 1548.95,-57.7469"/>
</g>
<!-- Node41&#45;&gt;Node47 -->
<g id="edge13" class="edge"><title>Node41&#45;&gt;Node47</title>
<path fill="none" stroke="midnightblue" d="M1410.87,-55.0608C1337.92,-44.5552 1224.42,-28.2119 1158.1,-18.6614"/>
<polygon fill="midnightblue" stroke="midnightblue" points="1410.49,-58.542 1420.89,-56.5031 1411.49,-51.6134 1410.49,-58.542"/>
</g>
</g>
</svg>
