<?xml version="1.0" encoding="UTF-8" standalone="no"?>
<!DOCTYPE svg PUBLIC "-//W3C//DTD SVG 1.1//EN"
 "http://www.w3.org/Graphics/SVG/1.1/DTD/svg11.dtd">
<!-- Generated by graphviz version 2.36.0 (20140111.2315)
 -->
<!-- Title: src/immer/heap/debug_size_heap.hpp Pages: 1 -->
<svg width="286pt" height="164pt"
 viewBox="0.00 0.00 286.00 164.00" xmlns="http://www.w3.org/2000/svg" xmlns:xlink="http://www.w3.org/1999/xlink">
<g id="graph0" class="graph" transform="scale(1 1) rotate(0) translate(4 160)">
<title>src/immer/heap/debug_size_heap.hpp</title>
<polygon fill="white" stroke="none" points="-4,4 -4,-160 282,-160 282,4 -4,4"/>
<!-- Node0 -->
<g id="node1" class="node"><title>Node0</title>
<polygon fill="#bfbfbf" stroke="black" points="104.5,-125 104.5,-155 217.5,-155 217.5,-125 104.5,-125"/>
<text text-anchor="start" x="112.5" y="-143" font-family="Helvetica,sans-Serif" font-size="10.00">src/immer/heap/debug</text>
<text text-anchor="middle" x="161" y="-132" font-family="Helvetica,sans-Serif" font-size="10.00">_size_heap.hpp</text>
</g>
<!-- Node1 -->
<g id="node2" class="node"><title>Node1</title>
<g id="a_node2"><a xlink:href="config_8hpp.html" target="_top" xlink:title="immer/config.hpp">
<polygon fill="white" stroke="black" points="0,-62.5 0,-81.5 92,-81.5 92,-62.5 0,-62.5"/>
<text text-anchor="middle" x="46" y="-69.5" font-family="Helvetica,sans-Serif" font-size="10.00">immer/config.hpp</text>
</a>
</g>
</g>
<!-- Node0&#45;&gt;Node1 -->
<g id="edge1" class="edge"><title>Node0&#45;&gt;Node1</title>
<path fill="none" stroke="midnightblue" d="M136.33,-124.841C116.706,-113.579 89.4094,-97.9132 69.9708,-86.7572"/>
<polygon fill="midnightblue" stroke="midnightblue" points="71.5429,-83.624 61.1275,-81.6819 68.0585,-89.6952 71.5429,-83.624"/>
</g>
<!-- Node2 -->
<g id="node3" class="node"><title>Node2</title>
<g id="a_node3"><a xlink:href="identity__heap_8hpp.html" target="_top" xlink:title="immer/heap/identity\l_heap.hpp">
<polygon fill="white" stroke="black" points="110,-57 110,-87 212,-87 212,-57 110,-57"/>
<text text-anchor="start" x="118" y="-75" font-family="Helvetica,sans-Serif" font-size="10.00">immer/heap/identity</text>
<text text-anchor="middle" x="161" y="-64" font-family="Helvetica,sans-Serif" font-size="10.00">_heap.hpp</text>
</a>
</g>
</g>
<!-- Node0&#45;&gt;Node2 -->
<g id="edge2" class="edge"><title>Node0&#45;&gt;Node2</title>
<path fill="none" stroke="midnightblue" d="M161,-124.679C161,-116.722 161,-106.605 161,-97.4356"/>
<polygon fill="midnightblue" stroke="midnightblue" points="164.5,-97.293 161,-87.2931 157.5,-97.2931 164.5,-97.293"/>
</g>
<!-- Node4 -->
<g id="node5" class="node"><title>Node4</title>
<polygon fill="white" stroke="#bfbfbf" points="229.5,-62.5 229.5,-81.5 278.5,-81.5 278.5,-62.5 229.5,-62.5"/>
<text text-anchor="middle" x="254" y="-69.5" font-family="Helvetica,sans-Serif" font-size="10.00">cassert</text>
</g>
<!-- Node0&#45;&gt;Node4 -->
<g id="edge4" class="edge"><title>Node0&#45;&gt;Node4</title>
<path fill="none" stroke="midnightblue" d="M181.18,-124.679C196.631,-113.713 217.864,-98.645 233.415,-87.6085"/>
<polygon fill="midnightblue" stroke="midnightblue" points="235.699,-90.2797 241.828,-81.6379 231.648,-84.5711 235.699,-90.2797"/>
</g>
<!-- Node3 -->
<g id="node4" class="node"><title>Node3</title>
<polygon fill="white" stroke="#bfbfbf" points="138.5,-0.5 138.5,-19.5 183.5,-19.5 183.5,-0.5 138.5,-0.5"/>
<text text-anchor="middle" x="161" y="-7.5" font-family="Helvetica,sans-Serif" font-size="10.00">cstdlib</text>
</g>
<!-- Node2&#45;&gt;Node3 -->
<g id="edge3" class="edge"><title>Node2&#45;&gt;Node3</title>
<path fill="none" stroke="midnightblue" d="M161,-56.7808C161,-48.7812 161,-38.6887 161,-30.0168"/>
<polygon fill="midnightblue" stroke="midnightblue" points="164.5,-29.7305 161,-19.7305 157.5,-29.7306 164.5,-29.7305"/>
</g>
</g>
</svg>
