<?xml version="1.0" encoding="UTF-8" standalone="no"?>
<!DOCTYPE svg PUBLIC "-//W3C//DTD SVG 1.1//EN"
 "http://www.w3.org/Graphics/SVG/1.1/DTD/svg11.dtd">
<!-- Generated by graphviz version 2.36.0 (20140111.2315)
 -->
<!-- Title: src/immer Pages: 1 -->
<svg width="280pt" height="255pt"
 viewBox="0.00 0.00 280.00 255.00" xmlns="http://www.w3.org/2000/svg" xmlns:xlink="http://www.w3.org/1999/xlink">
<g id="graph0" class="graph" transform="scale(1 1) rotate(0) translate(4 251)">
<title>src/immer</title>
<polygon fill="white" stroke="none" points="-4,4 -4,-251 276,-251 276,4 -4,4"/>
<g id="clust1" class="cluster"><title>clusterdir_68267d1309a1af8e8297ef4c3efbcdba</title>
<g id="a_clust1"><a xlink:href="dir_68267d1309a1af8e8297ef4c3efbcdba.html" target="_top" xlink:title="src">
<polygon fill="#ddddee" stroke="black" points="8,-8 8,-239 264,-239 264,-8 8,-8"/>
<text text-anchor="middle" x="136" y="-227" font-family="Helvetica,sans-Serif" font-size="10.00">src</text>
</a>
</g>
</g>
<g id="clust2" class="cluster"><title>clusterdir_635199930b67186d29b95fa9d498b895</title>
<g id="a_clust2"><a xlink:href="dir_635199930b67186d29b95fa9d498b895.html" target="_top">
<polygon fill="#eeeeff" stroke="black" points="16,-16 16,-212 256,-212 256,-16 16,-16"/>
</a>
</g>
</g>
<!-- dir_635199930b67186d29b95fa9d498b895 -->
<g id="node1" class="node"><title>dir_635199930b67186d29b95fa9d498b895</title>
<text text-anchor="middle" x="183" y="-183.5" font-family="Helvetica,sans-Serif" font-size="10.00">immer</text>
</g>
<!-- dir_f95640276858f878d012c58fdbd1be4d -->
<g id="node2" class="node"><title>dir_f95640276858f878d012c58fdbd1be4d</title>
<g id="a_node2"><a xlink:href="dir_f95640276858f878d012c58fdbd1be4d.html" target="_top" xlink:title="detail">
<polygon fill="white" stroke="red" points="248,-132 194,-132 194,-96 248,-96 248,-132"/>
<text text-anchor="middle" x="221" y="-111.5" font-family="Helvetica,sans-Serif" font-size="10.00">detail</text>
</a>
</g>
</g>
<!-- dir_635199930b67186d29b95fa9d498b895&#45;&gt;dir_f95640276858f878d012c58fdbd1be4d -->
<g id="edge4" class="edge"><title>dir_635199930b67186d29b95fa9d498b895&#45;&gt;dir_f95640276858f878d012c58fdbd1be4d</title>
<path fill="none" stroke="black" d="M192.393,-167.697C196.765,-159.644 202.057,-149.894 206.895,-140.982"/>
<polygon fill="black" stroke="black" points="210.02,-142.563 211.715,-132.104 203.868,-139.223 210.02,-142.563"/>
<g id="a_edge4&#45;headlabel"><a xlink:href="dir_000012_000013.html" target="_top" xlink:title="17">
<text text-anchor="middle" x="210.8" y="-144.576" font-family="Helvetica,sans-Serif" font-size="10.00">17</text>
</a>
</g>
</g>
<!-- dir_5444904fa15bacdb2fc6555627447a3e -->
<g id="node6" class="node"><title>dir_5444904fa15bacdb2fc6555627447a3e</title>
<g id="a_node6"><a xlink:href="dir_5444904fa15bacdb2fc6555627447a3e.html" target="_top" xlink:title="transience">
<polygon fill="white" stroke="black" points="175.5,-132 114.5,-132 114.5,-96 175.5,-96 175.5,-132"/>
<text text-anchor="middle" x="145" y="-111.5" font-family="Helvetica,sans-Serif" font-size="10.00">transience</text>
</a>
</g>
</g>
<!-- dir_635199930b67186d29b95fa9d498b895&#45;&gt;dir_5444904fa15bacdb2fc6555627447a3e -->
<g id="edge3" class="edge"><title>dir_635199930b67186d29b95fa9d498b895&#45;&gt;dir_5444904fa15bacdb2fc6555627447a3e</title>
<path fill="none" stroke="black" d="M173.607,-167.697C169.235,-159.644 163.943,-149.894 159.105,-140.982"/>
<polygon fill="black" stroke="black" points="162.132,-139.223 154.285,-132.104 155.98,-142.563 162.132,-139.223"/>
<g id="a_edge3&#45;headlabel"><a xlink:href="dir_000012_000021.html" target="_top" xlink:title="2">
<text text-anchor="middle" x="166.342" y="-138.528" font-family="Helvetica,sans-Serif" font-size="10.00">2</text>
</a>
</g>
</g>
<!-- dir_c1402ce4ff1320a0edee95f97370770d -->
<g id="node4" class="node"><title>dir_c1402ce4ff1320a0edee95f97370770d</title>
<g id="a_node4"><a xlink:href="dir_c1402ce4ff1320a0edee95f97370770d.html" target="_top" xlink:title="heap">
<polygon fill="white" stroke="black" points="172,-60 118,-60 118,-24 172,-24 172,-60"/>
<text text-anchor="middle" x="145" y="-39.5" font-family="Helvetica,sans-Serif" font-size="10.00">heap</text>
</a>
</g>
</g>
<!-- dir_f95640276858f878d012c58fdbd1be4d&#45;&gt;dir_c1402ce4ff1320a0edee95f97370770d -->
<g id="edge6" class="edge"><title>dir_f95640276858f878d012c58fdbd1be4d&#45;&gt;dir_c1402ce4ff1320a0edee95f97370770d</title>
<path fill="none" stroke="black" d="M202.213,-95.6966C192.826,-87.0503 181.316,-76.4486 171.087,-67.027"/>
<polygon fill="black" stroke="black" points="173.297,-64.3047 163.57,-60.1043 168.555,-69.4535 173.297,-64.3047"/>
<g id="a_edge6&#45;headlabel"><a xlink:href="dir_000013_000019.html" target="_top" xlink:title="2">
<text text-anchor="middle" x="177.865" y="-62.1515" font-family="Helvetica,sans-Serif" font-size="10.00">2</text>
</a>
</g>
</g>
<!-- dir_234c2897c1011960f46e261ec982ce95 -->
<g id="node3" class="node"><title>dir_234c2897c1011960f46e261ec982ce95</title>
<g id="a_node3"><a xlink:href="dir_234c2897c1011960f46e261ec982ce95.html" target="_top" xlink:title="experimental">
<polygon fill="white" stroke="red" points="96,-132 24,-132 24,-96 96,-96 96,-132"/>
<text text-anchor="middle" x="60" y="-111.5" font-family="Helvetica,sans-Serif" font-size="10.00">experimental</text>
</a>
</g>
</g>
<!-- dir_234c2897c1011960f46e261ec982ce95&#45;&gt;dir_c1402ce4ff1320a0edee95f97370770d -->
<g id="edge1" class="edge"><title>dir_234c2897c1011960f46e261ec982ce95&#45;&gt;dir_c1402ce4ff1320a0edee95f97370770d</title>
<path fill="none" stroke="black" d="M81.0112,-95.6966C91.7163,-86.8807 104.89,-76.0321 116.496,-66.4742"/>
<polygon fill="black" stroke="black" points="118.736,-69.1632 124.23,-60.1043 114.286,-63.7597 118.736,-69.1632"/>
<g id="a_edge1&#45;headlabel"><a xlink:href="dir_000017_000019.html" target="_top" xlink:title="1">
<text text-anchor="middle" x="117.766" y="-71.14" font-family="Helvetica,sans-Serif" font-size="10.00">1</text>
</a>
</g>
</g>
<!-- dir_91de750af2dae94756d51ee3ed1f92c9 -->
<g id="node5" class="node"><title>dir_91de750af2dae94756d51ee3ed1f92c9</title>
<g id="a_node5"><a xlink:href="dir_91de750af2dae94756d51ee3ed1f92c9.html" target="_top" xlink:title="refcount">
<polygon fill="white" stroke="black" points="87,-60 33,-60 33,-24 87,-24 87,-60"/>
<text text-anchor="middle" x="60" y="-39.5" font-family="Helvetica,sans-Serif" font-size="10.00">refcount</text>
</a>
</g>
</g>
<!-- dir_234c2897c1011960f46e261ec982ce95&#45;&gt;dir_91de750af2dae94756d51ee3ed1f92c9 -->
<g id="edge2" class="edge"><title>dir_234c2897c1011960f46e261ec982ce95&#45;&gt;dir_91de750af2dae94756d51ee3ed1f92c9</title>
<path fill="none" stroke="black" d="M60,-95.6966C60,-87.9827 60,-78.7125 60,-70.1124"/>
<polygon fill="black" stroke="black" points="63.5001,-70.1043 60,-60.1043 56.5001,-70.1044 63.5001,-70.1043"/>
<g id="a_edge2&#45;headlabel"><a xlink:href="dir_000017_000020.html" target="_top" xlink:title="2">
<text text-anchor="middle" x="66.3393" y="-71.199" font-family="Helvetica,sans-Serif" font-size="10.00">2</text>
</a>
</g>
</g>
<!-- dir_5444904fa15bacdb2fc6555627447a3e&#45;&gt;dir_c1402ce4ff1320a0edee95f97370770d -->
<g id="edge5" class="edge"><title>dir_5444904fa15bacdb2fc6555627447a3e&#45;&gt;dir_c1402ce4ff1320a0edee95f97370770d</title>
<path fill="none" stroke="black" d="M145,-95.6966C145,-87.9827 145,-78.7125 145,-70.1124"/>
<polygon fill="black" stroke="black" points="148.5,-70.1043 145,-60.1043 141.5,-70.1044 148.5,-70.1043"/>
<g id="a_edge5&#45;headlabel"><a xlink:href="dir_000021_000019.html" target="_top" xlink:title="1">
<text text-anchor="middle" x="151.339" y="-71.199" font-family="Helvetica,sans-Serif" font-size="10.00">1</text>
</a>
</g>
</g>
</g>
</svg>
