<?xml version="1.0" encoding="UTF-8" standalone="no"?>
<!DOCTYPE svg PUBLIC "-//W3C//DTD SVG 1.1//EN"
 "http://www.w3.org/Graphics/SVG/1.1/DTD/svg11.dtd">
<!-- Generated by graphviz version 2.36.0 (20140111.2315)
 -->
<!-- Title: src/evo Pages: 1 -->
<svg width="379pt" height="295pt"
 viewBox="0.00 0.00 379.43 295.00" xmlns="http://www.w3.org/2000/svg" xmlns:xlink="http://www.w3.org/1999/xlink">
<g id="graph0" class="graph" transform="scale(1 1) rotate(0) translate(4 291)">
<title>src/evo</title>
<polygon fill="white" stroke="none" points="-4,4 -4,-291 375.429,-291 375.429,4 -4,4"/>
<g id="clust1" class="cluster"><title>clusterdir_68267d1309a1af8e8297ef4c3efbcdba</title>
<g id="a_clust1"><a xlink:href="dir_68267d1309a1af8e8297ef4c3efbcdba.html" target="_top" xlink:title="src">
<polygon fill="#ddddee" stroke="black" points="188.429,-208 188.429,-279 258.429,-279 258.429,-208 188.429,-208"/>
<text text-anchor="middle" x="223.429" y="-267" font-family="Helvetica,sans-Serif" font-size="10.00">src</text>
</a>
</g>
</g>
<!-- dir_36876b7ffc1b8d7705e5db98fca0d4e9 -->
<g id="node1" class="node"><title>dir_36876b7ffc1b8d7705e5db98fca0d4e9</title>
<g id="a_node1"><a xlink:href="dir_36876b7ffc1b8d7705e5db98fca0d4e9.html" target="_top" xlink:title="evo">
<polygon fill="#eeeeff" stroke="black" points="250.429,-252 196.429,-252 196.429,-216 250.429,-216 250.429,-252"/>
<text text-anchor="middle" x="223.429" y="-231.5" font-family="Helvetica,sans-Serif" font-size="10.00">evo</text>
</a>
</g>
</g>
<!-- dir_6330efc4ea07ccf3cc823ae31c630b06 -->
<g id="node2" class="node"><title>dir_6330efc4ea07ccf3cc823ae31c630b06</title>
<g id="a_node2"><a xlink:href="dir_6330efc4ea07ccf3cc823ae31c630b06.html" target="_top" xlink:title="univalue">
<polygon fill="white" stroke="red" points="69.4286,-180 15.4286,-180 15.4286,-144 69.4286,-144 69.4286,-180"/>
<text text-anchor="middle" x="42.4286" y="-159.5" font-family="Helvetica,sans-Serif" font-size="10.00">univalue</text>
</a>
</g>
</g>
<!-- dir_36876b7ffc1b8d7705e5db98fca0d4e9&#45;&gt;dir_6330efc4ea07ccf3cc823ae31c630b06 -->
<g id="edge2" class="edge"><title>dir_36876b7ffc1b8d7705e5db98fca0d4e9&#45;&gt;dir_6330efc4ea07ccf3cc823ae31c630b06</title>
<path fill="none" stroke="black" d="M196.422,-223.951C168.921,-214.558 124.926,-199.043 78.7063,-179.943"/>
<polygon fill="black" stroke="black" points="80.0137,-176.696 69.437,-176.076 77.3184,-183.156 80.0137,-176.696"/>
<g id="a_edge2&#45;headlabel"><a xlink:href="dir_000010_000036.html" target="_top" xlink:title="4">
<text text-anchor="middle" x="84.4244" y="-172.96" font-family="Helvetica,sans-Serif" font-size="10.00">4</text>
</a>
</g>
</g>
<!-- dir_d6a657711c95f5acdb9d883c88587590 -->
<g id="node3" class="node"><title>dir_d6a657711c95f5acdb9d883c88587590</title>
<g id="a_node3"><a xlink:href="dir_d6a657711c95f5acdb9d883c88587590.html" target="_top" xlink:title="bls">
<polygon fill="none" stroke="black" points="223.429,-180 169.429,-180 169.429,-144 223.429,-144 223.429,-180"/>
<text text-anchor="middle" x="196.429" y="-159.5" font-family="Helvetica,sans-Serif" font-size="10.00">bls</text>
</a>
</g>
</g>
<!-- dir_36876b7ffc1b8d7705e5db98fca0d4e9&#45;&gt;dir_d6a657711c95f5acdb9d883c88587590 -->
<g id="edge3" class="edge"><title>dir_36876b7ffc1b8d7705e5db98fca0d4e9&#45;&gt;dir_d6a657711c95f5acdb9d883c88587590</title>
<path fill="none" stroke="black" d="M216.754,-215.697C213.714,-207.813 210.046,-198.304 206.668,-189.546"/>
<polygon fill="black" stroke="black" points="209.89,-188.175 203.026,-180.104 203.359,-190.694 209.89,-188.175"/>
<g id="a_edge3&#45;headlabel"><a xlink:href="dir_000010_000004.html" target="_top" xlink:title="3">
<text text-anchor="middle" x="213.833" y="-188.007" font-family="Helvetica,sans-Serif" font-size="10.00">3</text>
</a>
</g>
</g>
<!-- dir_fe414d616bd0c4668e6515f48824338f -->
<g id="node4" class="node"><title>dir_fe414d616bd0c4668e6515f48824338f</title>
<g id="a_node4"><a xlink:href="dir_fe414d616bd0c4668e6515f48824338f.html" target="_top" xlink:title="script">
<polygon fill="none" stroke="black" points="202.429,-36 148.429,-36 148.429,-0 202.429,-0 202.429,-36"/>
<text text-anchor="middle" x="175.429" y="-15.5" font-family="Helvetica,sans-Serif" font-size="10.00">script</text>
</a>
</g>
</g>
<!-- dir_36876b7ffc1b8d7705e5db98fca0d4e9&#45;&gt;dir_fe414d616bd0c4668e6515f48824338f -->
<g id="edge4" class="edge"><title>dir_36876b7ffc1b8d7705e5db98fca0d4e9&#45;&gt;dir_fe414d616bd0c4668e6515f48824338f</title>
<path fill="none" stroke="black" d="M234.054,-215.556C239.526,-205.543 245.626,-192.509 248.429,-180 251.926,-164.387 252.018,-159.592 248.429,-144 239.693,-106.047 214.783,-68.238 196.482,-44.3062"/>
<polygon fill="black" stroke="black" points="199.005,-41.8522 190.081,-36.1425 193.497,-46.1715 199.005,-41.8522"/>
<g id="a_edge4&#45;headlabel"><a xlink:href="dir_000010_000026.html" target="_top" xlink:title="2">
<text text-anchor="middle" x="203.458" y="-40.4289" font-family="Helvetica,sans-Serif" font-size="10.00">2</text>
</a>
</g>
</g>
<!-- dir_635199930b67186d29b95fa9d498b895 -->
<g id="node5" class="node"><title>dir_635199930b67186d29b95fa9d498b895</title>
<g id="a_node5"><a xlink:href="dir_635199930b67186d29b95fa9d498b895.html" target="_top" xlink:title="immer">
<polygon fill="white" stroke="red" points="371.429,-180 317.429,-180 317.429,-144 371.429,-144 371.429,-180"/>
<text text-anchor="middle" x="344.429" y="-159.5" font-family="Helvetica,sans-Serif" font-size="10.00">immer</text>
</a>
</g>
</g>
<!-- dir_36876b7ffc1b8d7705e5db98fca0d4e9&#45;&gt;dir_635199930b67186d29b95fa9d498b895 -->
<g id="edge5" class="edge"><title>dir_36876b7ffc1b8d7705e5db98fca0d4e9&#45;&gt;dir_635199930b67186d29b95fa9d498b895</title>
<path fill="none" stroke="black" d="M250.583,-217.291C267.709,-207.383 290.018,-194.477 308.588,-183.734"/>
<polygon fill="black" stroke="black" points="310.461,-186.694 317.364,-178.657 306.956,-180.635 310.461,-186.694"/>
<g id="a_edge5&#45;headlabel"><a xlink:href="dir_000010_000012.html" target="_top" xlink:title="2">
<text text-anchor="middle" x="308.772" y="-188.452" font-family="Helvetica,sans-Serif" font-size="10.00">2</text>
</a>
</g>
</g>
<!-- dir_d64e1e37ea25a388c63a5ce90918affc -->
<g id="node6" class="node"><title>dir_d64e1e37ea25a388c63a5ce90918affc</title>
<g id="a_node6"><a xlink:href="dir_d64e1e37ea25a388c63a5ce90918affc.html" target="_top" xlink:title="llmq">
<polygon fill="none" stroke="black" points="107.429,-252 53.4286,-252 53.4286,-216 107.429,-216 107.429,-252"/>
<text text-anchor="middle" x="80.4286" y="-231.5" font-family="Helvetica,sans-Serif" font-size="10.00">llmq</text>
</a>
</g>
</g>
<!-- dir_36876b7ffc1b8d7705e5db98fca0d4e9&#45;&gt;dir_d64e1e37ea25a388c63a5ce90918affc -->
<g id="edge6" class="edge"><title>dir_36876b7ffc1b8d7705e5db98fca0d4e9&#45;&gt;dir_d64e1e37ea25a388c63a5ce90918affc</title>
<path fill="none" stroke="black" d="M196.263,-234C170.033,-234 143.803,-234 117.573,-234"/>
<polygon fill="black" stroke="black" points="117.52,-230.5 107.52,-234 117.52,-237.5 117.52,-230.5"/>
<g id="a_edge6&#45;headlabel"><a xlink:href="dir_000010_000022.html" target="_top" xlink:title="4">
<text text-anchor="middle" x="121.115" y="-225.161" font-family="Helvetica,sans-Serif" font-size="10.00">4</text>
</a>
</g>
</g>
<!-- dir_bbf56bce9985720f86fc476f3812db24 -->
<g id="node7" class="node"><title>dir_bbf56bce9985720f86fc476f3812db24</title>
<g id="a_node7"><a xlink:href="dir_bbf56bce9985720f86fc476f3812db24.html" target="_top" xlink:title="primitives">
<polygon fill="none" stroke="black" points="204.679,-108 146.179,-108 146.179,-72 204.679,-72 204.679,-108"/>
<text text-anchor="middle" x="175.429" y="-87.5" font-family="Helvetica,sans-Serif" font-size="10.00">primitives</text>
</a>
</g>
</g>
<!-- dir_36876b7ffc1b8d7705e5db98fca0d4e9&#45;&gt;dir_bbf56bce9985720f86fc476f3812db24 -->
<g id="edge7" class="edge"><title>dir_36876b7ffc1b8d7705e5db98fca0d4e9&#45;&gt;dir_bbf56bce9985720f86fc476f3812db24</title>
<path fill="none" stroke="black" d="M230.022,-215.825C236.047,-197.308 242.601,-167.35 232.429,-144 227.495,-132.677 218.818,-122.682 209.699,-114.512"/>
<polygon fill="black" stroke="black" points="211.927,-111.812 202.008,-108.088 207.44,-117.185 211.927,-111.812"/>
<g id="a_edge7&#45;headlabel"><a xlink:href="dir_000010_000024.html" target="_top" xlink:title="5">
<text text-anchor="middle" x="216.506" y="-109.437" font-family="Helvetica,sans-Serif" font-size="10.00">5</text>
</a>
</g>
</g>
<!-- dir_dee301ab18d354d094fb7852349ef839 -->
<g id="node8" class="node"><title>dir_dee301ab18d354d094fb7852349ef839</title>
<g id="a_node8"><a xlink:href="dir_dee301ab18d354d094fb7852349ef839.html" target="_top" xlink:title="consensus">
<polygon fill="none" stroke="black" points="151.429,-180 87.4286,-180 87.4286,-144 151.429,-144 151.429,-180"/>
<text text-anchor="middle" x="119.429" y="-159.5" font-family="Helvetica,sans-Serif" font-size="10.00">consensus</text>
</a>
</g>
</g>
<!-- dir_36876b7ffc1b8d7705e5db98fca0d4e9&#45;&gt;dir_dee301ab18d354d094fb7852349ef839 -->
<g id="edge8" class="edge"><title>dir_36876b7ffc1b8d7705e5db98fca0d4e9&#45;&gt;dir_dee301ab18d354d094fb7852349ef839</title>
<path fill="none" stroke="black" d="M197.987,-215.876C184.641,-206.893 168.104,-195.763 153.651,-186.034"/>
<polygon fill="black" stroke="black" points="155.218,-182.87 144.968,-180.19 151.309,-188.677 155.218,-182.87"/>
<g id="a_edge8&#45;headlabel"><a xlink:href="dir_000010_000007.html" target="_top" xlink:title="4">
<text text-anchor="middle" x="159.785" y="-180.022" font-family="Helvetica,sans-Serif" font-size="10.00">4</text>
</a>
</g>
</g>
<!-- dir_fe414d616bd0c4668e6515f48824338f&#45;&gt;dir_bbf56bce9985720f86fc476f3812db24 -->
<g id="edge1" class="edge"><title>dir_fe414d616bd0c4668e6515f48824338f&#45;&gt;dir_bbf56bce9985720f86fc476f3812db24</title>
<path fill="none" stroke="black" d="M181.324,-36.1043C182.129,-43.7913 182.365,-53.0537 182.033,-61.6651"/>
<polygon fill="black" stroke="black" points="178.537,-61.4805 181.344,-71.6966 185.521,-61.9597 178.537,-61.4805"/>
<g id="a_edge1&#45;headlabel"><a xlink:href="dir_000026_000024.html" target="_top" xlink:title="4">
<text text-anchor="middle" x="175.95" y="-55.2" font-family="Helvetica,sans-Serif" font-size="10.00">4</text>
</a>
</g>
</g>
<!-- dir_d64e1e37ea25a388c63a5ce90918affc&#45;&gt;dir_36876b7ffc1b8d7705e5db98fca0d4e9 -->
<g id="edge11" class="edge"><title>dir_d64e1e37ea25a388c63a5ce90918affc&#45;&gt;dir_36876b7ffc1b8d7705e5db98fca0d4e9</title>
<path fill="none" stroke="black" d="M107.52,-234C133.75,-234 159.98,-234 186.21,-234"/>
<polygon fill="black" stroke="black" points="186.263,-237.5 196.263,-234 186.263,-230.5 186.263,-237.5"/>
<g id="a_edge11&#45;headlabel"><a xlink:href="dir_000022_000010.html" target="_top" xlink:title="5">
<text text-anchor="middle" x="182.668" y="-237.839" font-family="Helvetica,sans-Serif" font-size="10.00">5</text>
</a>
</g>
</g>
<!-- dir_d64e1e37ea25a388c63a5ce90918affc&#45;&gt;dir_6330efc4ea07ccf3cc823ae31c630b06 -->
<g id="edge9" class="edge"><title>dir_d64e1e37ea25a388c63a5ce90918affc&#45;&gt;dir_6330efc4ea07ccf3cc823ae31c630b06</title>
<path fill="none" stroke="black" d="M71.0353,-215.697C66.6637,-207.644 61.3713,-197.894 56.5333,-188.982"/>
<polygon fill="black" stroke="black" points="59.5607,-187.223 51.7138,-180.104 53.4088,-190.563 59.5607,-187.223"/>
<g id="a_edge9&#45;headlabel"><a xlink:href="dir_000022_000036.html" target="_top" xlink:title="1">
<text text-anchor="middle" x="63.771" y="-186.528" font-family="Helvetica,sans-Serif" font-size="10.00">1</text>
</a>
</g>
</g>
<!-- dir_d64e1e37ea25a388c63a5ce90918affc&#45;&gt;dir_d6a657711c95f5acdb9d883c88587590 -->
<g id="edge10" class="edge"><title>dir_d64e1e37ea25a388c63a5ce90918affc&#45;&gt;dir_d6a657711c95f5acdb9d883c88587590</title>
<path fill="none" stroke="black" d="M107.625,-216.588C123.478,-207.022 143.656,-194.845 160.771,-184.518"/>
<polygon fill="black" stroke="black" points="162.649,-187.472 169.402,-179.309 159.032,-181.479 162.649,-187.472"/>
<g id="a_edge10&#45;headlabel"><a xlink:href="dir_000022_000004.html" target="_top" xlink:title="2">
<text text-anchor="middle" x="161.038" y="-189.261" font-family="Helvetica,sans-Serif" font-size="10.00">2</text>
</a>
</g>
</g>
<!-- dir_d64e1e37ea25a388c63a5ce90918affc&#45;&gt;dir_bbf56bce9985720f86fc476f3812db24 -->
<g id="edge12" class="edge"><title>dir_d64e1e37ea25a388c63a5ce90918affc&#45;&gt;dir_bbf56bce9985720f86fc476f3812db24</title>
<path fill="none" stroke="black" d="M53.3672,-221.582C36.5213,-212.879 16.2504,-199.116 6.42857,-180 -0.883645,-165.769 -3.0423,-156.896 6.42857,-144 35.9187,-103.845 95.7747,-93.2885 135.747,-90.9492"/>
<polygon fill="black" stroke="black" points="136.113,-94.4366 145.951,-90.5036 135.808,-87.4433 136.113,-94.4366"/>
<g id="a_edge12&#45;headlabel"><a xlink:href="dir_000022_000024.html" target="_top" xlink:title="4">
<text text-anchor="middle" x="132.646" y="-94.9299" font-family="Helvetica,sans-Serif" font-size="10.00">4</text>
</a>
</g>
</g>
<!-- dir_d64e1e37ea25a388c63a5ce90918affc&#45;&gt;dir_dee301ab18d354d094fb7852349ef839 -->
<g id="edge13" class="edge"><title>dir_d64e1e37ea25a388c63a5ce90918affc&#45;&gt;dir_dee301ab18d354d094fb7852349ef839</title>
<path fill="none" stroke="black" d="M90.069,-215.697C94.5557,-207.644 99.9874,-197.894 104.953,-188.982"/>
<polygon fill="black" stroke="black" points="108.089,-190.544 109.899,-180.104 101.974,-187.137 108.089,-190.544"/>
<g id="a_edge13&#45;headlabel"><a xlink:href="dir_000022_000007.html" target="_top" xlink:title="6">
<text text-anchor="middle" x="108.82" y="-192.565" font-family="Helvetica,sans-Serif" font-size="10.00">6</text>
</a>
</g>
</g>
<!-- dir_bbf56bce9985720f86fc476f3812db24&#45;&gt;dir_fe414d616bd0c4668e6515f48824338f -->
<g id="edge14" class="edge"><title>dir_bbf56bce9985720f86fc476f3812db24&#45;&gt;dir_fe414d616bd0c4668e6515f48824338f</title>
<path fill="none" stroke="black" d="M169.513,-71.6966C168.717,-63.9827 168.491,-54.7125 168.833,-46.1124"/>
<polygon fill="black" stroke="black" points="172.327,-46.3243 169.534,-36.1043 165.344,-45.8356 172.327,-46.3243"/>
<g id="a_edge14&#45;headlabel"><a xlink:href="dir_000024_000026.html" target="_top" xlink:title="1">
<text text-anchor="middle" x="174.908" y="-47.6083" font-family="Helvetica,sans-Serif" font-size="10.00">1</text>
</a>
</g>
</g>
<!-- dir_dee301ab18d354d094fb7852349ef839&#45;&gt;dir_bbf56bce9985720f86fc476f3812db24 -->
<g id="edge15" class="edge"><title>dir_dee301ab18d354d094fb7852349ef839&#45;&gt;dir_bbf56bce9985720f86fc476f3812db24</title>
<path fill="none" stroke="black" d="M133.271,-143.697C139.917,-135.389 148.007,-125.277 155.316,-116.141"/>
<polygon fill="black" stroke="black" points="158.231,-118.099 161.745,-108.104 152.765,-113.727 158.231,-118.099"/>
<g id="a_edge15&#45;headlabel"><a xlink:href="dir_000007_000024.html" target="_top" xlink:title="2">
<text text-anchor="middle" x="158.203" y="-120.18" font-family="Helvetica,sans-Serif" font-size="10.00">2</text>
</a>
</g>
</g>
</g>
</svg>
