<?xml version="1.0" encoding="UTF-8" standalone="no"?>
<!DOCTYPE svg PUBLIC "-//W3C//DTD SVG 1.1//EN"
 "http://www.w3.org/Graphics/SVG/1.1/DTD/svg11.dtd">
<!-- Generated by graphviz version 2.36.0 (20140111.2315)
 -->
<!-- Title: src/dsnotificationinterface.h Pages: 1 -->
<svg width="331pt" height="140pt"
 viewBox="0.00 0.00 331.00 140.00" xmlns="http://www.w3.org/2000/svg" xmlns:xlink="http://www.w3.org/1999/xlink">
<g id="graph0" class="graph" transform="scale(1 1) rotate(0) translate(4 136)">
<title>src/dsnotificationinterface.h</title>
<polygon fill="white" stroke="none" points="-4,4 -4,-136 327,-136 327,4 -4,4"/>
<!-- Node0 -->
<g id="node1" class="node"><title>Node0</title>
<polygon fill="#bfbfbf" stroke="black" points="130.5,-112.5 130.5,-131.5 267.5,-131.5 267.5,-112.5 130.5,-112.5"/>
<text text-anchor="middle" x="199" y="-119.5" font-family="Helvetica,sans-Serif" font-size="10.00">src/dsnotificationinterface.h</text>
</g>
<!-- Node1 -->
<g id="node2" class="node"><title>Node1</title>
<g id="a_node2"><a xlink:href="validationinterface_8h.html" target="_top" xlink:title="validationinterface.h">
<polygon fill="white" stroke="black" points="147,-56.5 147,-75.5 251,-75.5 251,-56.5 147,-56.5"/>
<text text-anchor="middle" x="199" y="-63.5" font-family="Helvetica,sans-Serif" font-size="10.00">validationinterface.h</text>
</a>
</g>
</g>
<!-- Node0&#45;&gt;Node1 -->
<g id="edge1" class="edge"><title>Node0&#45;&gt;Node1</title>
<path fill="none" stroke="midnightblue" d="M199,-112.083C199,-105.006 199,-94.8611 199,-85.9865"/>
<polygon fill="midnightblue" stroke="midnightblue" points="202.5,-85.751 199,-75.7511 195.5,-85.7511 202.5,-85.751"/>
</g>
<!-- Node2 -->
<g id="node3" class="node"><title>Node2</title>
<polygon fill="white" stroke="#bfbfbf" points="-0.5,-0.5 -0.5,-19.5 126.5,-19.5 126.5,-0.5 -0.5,-0.5"/>
<text text-anchor="middle" x="63" y="-7.5" font-family="Helvetica,sans-Serif" font-size="10.00">boost/signals2/signal.hpp</text>
</g>
<!-- Node1&#45;&gt;Node2 -->
<g id="edge2" class="edge"><title>Node1&#45;&gt;Node2</title>
<path fill="none" stroke="midnightblue" d="M177.45,-56.4435C154.969,-47.5171 119.512,-33.4387 94.0201,-23.3168"/>
<polygon fill="midnightblue" stroke="midnightblue" points="95.0346,-19.9539 84.4488,-19.5164 92.4513,-26.4598 95.0346,-19.9539"/>
</g>
<!-- Node3 -->
<g id="node4" class="node"><title>Node3</title>
<polygon fill="white" stroke="#bfbfbf" points="145,-0.5 145,-19.5 253,-19.5 253,-0.5 145,-0.5"/>
<text text-anchor="middle" x="199" y="-7.5" font-family="Helvetica,sans-Serif" font-size="10.00">boost/shared_ptr.hpp</text>
</g>
<!-- Node1&#45;&gt;Node3 -->
<g id="edge3" class="edge"><title>Node1&#45;&gt;Node3</title>
<path fill="none" stroke="midnightblue" d="M199,-56.083C199,-49.0059 199,-38.8611 199,-29.9865"/>
<polygon fill="midnightblue" stroke="midnightblue" points="202.5,-29.751 199,-19.7511 195.5,-29.7511 202.5,-29.751"/>
</g>
<!-- Node4 -->
<g id="node5" class="node"><title>Node4</title>
<polygon fill="white" stroke="#bfbfbf" points="271,-0.5 271,-19.5 323,-19.5 323,-0.5 271,-0.5"/>
<text text-anchor="middle" x="297" y="-7.5" font-family="Helvetica,sans-Serif" font-size="10.00">memory</text>
</g>
<!-- Node1&#45;&gt;Node4 -->
<g id="edge4" class="edge"><title>Node1&#45;&gt;Node4</title>
<path fill="none" stroke="midnightblue" d="M214.745,-56.324C230.319,-47.7428 254.377,-34.486 272.459,-24.5224"/>
<polygon fill="midnightblue" stroke="midnightblue" points="274.224,-27.546 281.294,-19.6545 270.846,-21.4152 274.224,-27.546"/>
</g>
</g>
</svg>
