<?xml version="1.0" encoding="UTF-8" standalone="no"?>
<!DOCTYPE svg PUBLIC "-//W3C//DTD SVG 1.1//EN"
 "http://www.w3.org/Graphics/SVG/1.1/DTD/svg11.dtd">
<!-- Generated by graphviz version 2.36.0 (20140111.2315)
 -->
<!-- Title: src/immer/experimental/detail/dvektor_impl.hpp Pages: 1 -->
<!--zoomable 424 -->
<svg id="main" version="1.1" xmlns="http://www.w3.org/2000/svg" xmlns:xlink="http://www.w3.org/1999/xlink" xml:space="preserve" onload="init(evt)">
<style type="text/css"><![CDATA[
.edge:hover path { stroke: red; }
.edge:hover polygon { stroke: red; fill: red; }
]]></style>
<script type="text/javascript"><![CDATA[
var edges = document.getElementsByTagName('g');
if (edges && edges.length) {
  for (var i=0;i<edges.length;i++) {
    if (edges[i].id.substr(0,4)=='edge') {
      edges[i].setAttribute('class','edge');
    }
  }
}
]]></script>
        <defs>
                <circle id="rim" cx="0" cy="0" r="7"/>
                <circle id="rim2" cx="0" cy="0" r="3.5"/>
                <g id="zoomPlus">
                        <use xlink:href="#rim" fill="#404040">
                                <set attributeName="fill" to="#808080" begin="zoomplus.mouseover" end="zoomplus.mouseout"/>
                        </use>
                        <path d="M-4,0h8M0,-4v8" fill="none" stroke="white" stroke-width="1.5" pointer-events="none"/>
                </g>
                <g id="zoomMin">
                        <use xlink:href="#rim" fill="#404040">
                                <set attributeName="fill" to="#808080" begin="zoomminus.mouseover" end="zoomminus.mouseout"/>
                        </use>
                        <path d="M-4,0h8" fill="none" stroke="white" stroke-width="1.5" pointer-events="none"/>
                </g>
                <g id="dirArrow">
                        <path fill="none" stroke="white" stroke-width="1.5" d="M0,-3.0v7 M-2.5,-0.5L0,-3.0L2.5,-0.5"/>
                </g>
               <g id="resetDef">
                       <use xlink:href="#rim2" fill="#404040">
                               <set attributeName="fill" to="#808080" begin="reset.mouseover" end="reset.mouseout"/>
                       </use>
               </g>
        </defs>

<script type="text/javascript">
var viewWidth = 1334;
var viewHeight = 424;
var sectionId = 'dynsection-0';
</script>
<script xlink:href="svgpan.js"/>
<svg id="graph" class="graph">
<g id="viewport">
<title>src/immer/experimental/detail/dvektor_impl.hpp</title>
<polygon fill="white" stroke="none" points="-4,4 -4,-420 1329.73,-420 1329.73,4 -4,4"/>
<!-- Node0 -->
<g id="node1" class="node"><title>Node0</title>
<polygon fill="#bfbfbf" stroke="black" points="812.728,-385 812.728,-415 932.728,-415 932.728,-385 812.728,-385"/>
<text text-anchor="start" x="820.728" y="-403" font-family="Helvetica,sans-Serif" font-size="10.00">src/immer/experimental</text>
<text text-anchor="middle" x="872.728" y="-392" font-family="Helvetica,sans-Serif" font-size="10.00">/detail/dvektor_impl.hpp</text>
</g>
<!-- Node1 -->
<g id="node2" class="node"><title>Node1</title>
<g id="a_node2"><a xlink:href="heap__policy_8hpp.html" target="_top" xlink:title="immer/heap/heap_policy.hpp">
<polygon fill="white" stroke="black" points="227.228,-322.5 227.228,-341.5 368.228,-341.5 368.228,-322.5 227.228,-322.5"/>
<text text-anchor="middle" x="297.728" y="-329.5" font-family="Helvetica,sans-Serif" font-size="10.00">immer/heap/heap_policy.hpp</text>
</a>
</g>
</g>
<!-- Node0&#45;&gt;Node1 -->
<g id="edge1" class="edge"><title>Node0&#45;&gt;Node1</title>
<path fill="none" stroke="midnightblue" d="M812.55,-392.093C708.592,-380.16 495.316,-355.68 378.544,-342.276"/>
<polygon fill="midnightblue" stroke="midnightblue" points="378.919,-338.796 368.585,-341.133 378.12,-345.751 378.919,-338.796"/>
</g>
<!-- Node6 -->
<g id="node7" class="node"><title>Node6</title>
<polygon fill="white" stroke="#bfbfbf" points="546.228,-118.5 546.228,-137.5 595.228,-137.5 595.228,-118.5 546.228,-118.5"/>
<text text-anchor="middle" x="570.728" y="-125.5" font-family="Helvetica,sans-Serif" font-size="10.00">cassert</text>
</g>
<!-- Node0&#45;&gt;Node6 -->
<g id="edge35" class="edge"><title>Node0&#45;&gt;Node6</title>
<path fill="none" stroke="midnightblue" d="M812.468,-395.525C742.147,-390.158 631.876,-377.233 603.728,-348 576.38,-319.598 571.671,-196.146 570.88,-148.169"/>
<polygon fill="midnightblue" stroke="midnightblue" points="574.377,-147.892 570.753,-137.936 567.377,-147.978 574.377,-147.892"/>
</g>
<!-- Node16 -->
<g id="node17" class="node"><title>Node16</title>
<g id="a_node17"><a xlink:href="enable__intrusive__ptr_8hpp.html" target="_top" xlink:title="immer/refcount/enable\l_intrusive_ptr.hpp">
<polygon fill="white" stroke="black" points="613.228,-317 613.228,-347 726.228,-347 726.228,-317 613.228,-317"/>
<text text-anchor="start" x="621.228" y="-335" font-family="Helvetica,sans-Serif" font-size="10.00">immer/refcount/enable</text>
<text text-anchor="middle" x="669.728" y="-324" font-family="Helvetica,sans-Serif" font-size="10.00">_intrusive_ptr.hpp</text>
</a>
</g>
</g>
<!-- Node0&#45;&gt;Node16 -->
<g id="edge25" class="edge"><title>Node0&#45;&gt;Node16</title>
<path fill="none" stroke="midnightblue" d="M829.18,-384.841C797.9,-374.672 755.577,-360.911 722.396,-350.123"/>
<polygon fill="midnightblue" stroke="midnightblue" points="723.448,-346.785 712.856,-347.022 721.284,-353.442 723.448,-346.785"/>
</g>
<!-- Node18 -->
<g id="node19" class="node"><title>Node18</title>
<g id="a_node19"><a xlink:href="refcount__policy_8hpp.html" target="_top" xlink:title="immer/refcount/refcount\l_policy.hpp">
<polygon fill="white" stroke="black" points="744.728,-317 744.728,-347 864.728,-347 864.728,-317 744.728,-317"/>
<text text-anchor="start" x="752.728" y="-335" font-family="Helvetica,sans-Serif" font-size="10.00">immer/refcount/refcount</text>
<text text-anchor="middle" x="804.728" y="-324" font-family="Helvetica,sans-Serif" font-size="10.00">_policy.hpp</text>
</a>
</g>
</g>
<!-- Node0&#45;&gt;Node18 -->
<g id="edge27" class="edge"><title>Node0&#45;&gt;Node18</title>
<path fill="none" stroke="midnightblue" d="M857.973,-384.679C848.884,-375.857 837.059,-364.38 826.862,-354.483"/>
<polygon fill="midnightblue" stroke="midnightblue" points="829.068,-351.746 819.454,-347.293 824.192,-356.769 829.068,-351.746"/>
</g>
<!-- Node20 -->
<g id="node21" class="node"><title>Node20</title>
<polygon fill="white" stroke="#bfbfbf" points="882.728,-322.5 882.728,-341.5 998.728,-341.5 998.728,-322.5 882.728,-322.5"/>
<text text-anchor="middle" x="940.728" y="-329.5" font-family="Helvetica,sans-Serif" font-size="10.00">boost/intrusive_ptr.hpp</text>
</g>
<!-- Node0&#45;&gt;Node20 -->
<g id="edge32" class="edge"><title>Node0&#45;&gt;Node20</title>
<path fill="none" stroke="midnightblue" d="M887.483,-384.679C898.296,-374.184 912.98,-359.932 924.19,-349.052"/>
<polygon fill="midnightblue" stroke="midnightblue" points="926.894,-351.305 931.632,-341.828 922.019,-346.282 926.894,-351.305"/>
</g>
<!-- Node21 -->
<g id="node22" class="node"><title>Node21</title>
<polygon fill="white" stroke="#bfbfbf" points="1017.23,-317 1017.23,-347 1124.23,-347 1124.23,-317 1017.23,-317"/>
<text text-anchor="start" x="1025.23" y="-335" font-family="Helvetica,sans-Serif" font-size="10.00">boost/iterator/iterator</text>
<text text-anchor="middle" x="1070.73" y="-324" font-family="Helvetica,sans-Serif" font-size="10.00">_facade.hpp</text>
</g>
<!-- Node0&#45;&gt;Node21 -->
<g id="edge33" class="edge"><title>Node0&#45;&gt;Node21</title>
<path fill="none" stroke="midnightblue" d="M915.204,-384.841C945.583,-374.715 986.64,-361.03 1018.94,-350.262"/>
<polygon fill="midnightblue" stroke="midnightblue" points="1020.28,-353.505 1028.66,-347.022 1018.07,-346.864 1020.28,-353.505"/>
</g>
<!-- Node22 -->
<g id="node23" class="node"><title>Node22</title>
<polygon fill="white" stroke="#bfbfbf" points="1142.23,-317 1142.23,-347 1267.23,-347 1267.23,-317 1142.23,-317"/>
<text text-anchor="start" x="1150.23" y="-335" font-family="Helvetica,sans-Serif" font-size="10.00">boost/smart_ptr/intrusive</text>
<text text-anchor="middle" x="1204.73" y="-324" font-family="Helvetica,sans-Serif" font-size="10.00">_ref_counter.hpp</text>
</g>
<!-- Node0&#45;&gt;Node22 -->
<g id="edge34" class="edge"><title>Node0&#45;&gt;Node22</title>
<path fill="none" stroke="midnightblue" d="M932.923,-387.399C983.38,-377.628 1057.6,-363.147 1131.9,-348.155"/>
<polygon fill="midnightblue" stroke="midnightblue" points="1132.8,-351.544 1141.91,-346.133 1131.41,-344.683 1132.8,-351.544"/>
</g>
<!-- Node23 -->
<g id="node24" class="node"><title>Node23</title>
<polygon fill="white" stroke="#bfbfbf" points="1285.73,-322.5 1285.73,-341.5 1325.73,-341.5 1325.73,-322.5 1285.73,-322.5"/>
<text text-anchor="middle" x="1305.73" y="-329.5" font-family="Helvetica,sans-Serif" font-size="10.00">limits</text>
</g>
<!-- Node0&#45;&gt;Node23 -->
<g id="edge36" class="edge"><title>Node0&#45;&gt;Node23</title>
<path fill="none" stroke="midnightblue" d="M932.766,-397.682C1012.68,-394.521 1157.64,-383.854 1275.73,-348 1277.69,-347.404 1279.68,-346.687 1281.66,-345.895"/>
<polygon fill="midnightblue" stroke="midnightblue" points="1283.57,-348.87 1291.18,-341.508 1280.64,-342.512 1283.57,-348.87"/>
</g>
<!-- Node2 -->
<g id="node3" class="node"><title>Node2</title>
<g id="a_node3"><a xlink:href="debug__size__heap_8hpp.html" target="_top" xlink:title="immer/heap/debug_size\l_heap.hpp">
<polygon fill="white" stroke="black" points="167.728,-249 167.728,-279 287.728,-279 287.728,-249 167.728,-249"/>
<text text-anchor="start" x="175.728" y="-267" font-family="Helvetica,sans-Serif" font-size="10.00">immer/heap/debug_size</text>
<text text-anchor="middle" x="227.728" y="-256" font-family="Helvetica,sans-Serif" font-size="10.00">_heap.hpp</text>
</a>
</g>
</g>
<!-- Node1&#45;&gt;Node2 -->
<g id="edge2" class="edge"><title>Node1&#45;&gt;Node2</title>
<path fill="none" stroke="midnightblue" d="M288.577,-322.372C278.849,-313.2 263.103,-298.354 250.066,-286.062"/>
<polygon fill="midnightblue" stroke="midnightblue" points="252.446,-283.495 242.769,-279.181 247.644,-288.588 252.446,-283.495"/>
</g>
<!-- Node3 -->
<g id="node4" class="node"><title>Node3</title>
<g id="a_node4"><a xlink:href="config_8hpp.html" target="_top" xlink:title="immer/config.hpp">
<polygon fill="white" stroke="black" points="198.728,-118.5 198.728,-137.5 290.728,-137.5 290.728,-118.5 198.728,-118.5"/>
<text text-anchor="middle" x="244.728" y="-125.5" font-family="Helvetica,sans-Serif" font-size="10.00">immer/config.hpp</text>
</a>
</g>
</g>
<!-- Node1&#45;&gt;Node3 -->
<g id="edge22" class="edge"><title>Node1&#45;&gt;Node3</title>
<path fill="none" stroke="midnightblue" d="M257.129,-322.464C227.76,-314.849 188.218,-301.51 158.728,-280 127.771,-257.419 118.182,-248.237 105.728,-212 101.106,-198.55 97.5857,-191.661 105.728,-180 124.437,-153.207 158.843,-140.448 188.742,-134.391"/>
<polygon fill="midnightblue" stroke="midnightblue" points="189.467,-137.817 198.68,-132.584 188.215,-130.93 189.467,-137.817"/>
</g>
<!-- Node5 -->
<g id="node6" class="node"><title>Node5</title>
<polygon fill="white" stroke="#bfbfbf" points="53.2281,-118.5 53.2281,-137.5 98.2281,-137.5 98.2281,-118.5 53.2281,-118.5"/>
<text text-anchor="middle" x="75.7281" y="-125.5" font-family="Helvetica,sans-Serif" font-size="10.00">cstdlib</text>
</g>
<!-- Node1&#45;&gt;Node5 -->
<g id="edge23" class="edge"><title>Node1&#45;&gt;Node5</title>
<path fill="none" stroke="midnightblue" d="M227.185,-328.462C151.558,-324.082 38.6864,-312.191 11.7281,-280 -23.1954,-238.298 29.6447,-174.746 58.7103,-145.179"/>
<polygon fill="midnightblue" stroke="midnightblue" points="61.5358,-147.307 66.1851,-137.787 56.6136,-142.33 61.5358,-147.307"/>
</g>
<!-- Node7 -->
<g id="node8" class="node"><title>Node7</title>
<g id="a_node8"><a xlink:href="free__list__heap_8hpp.html" target="_top" xlink:title="immer/heap/free_list\l_heap.hpp">
<polygon fill="white" stroke="black" points="451.228,-181 451.228,-211 556.228,-211 556.228,-181 451.228,-181"/>
<text text-anchor="start" x="459.228" y="-199" font-family="Helvetica,sans-Serif" font-size="10.00">immer/heap/free_list</text>
<text text-anchor="middle" x="503.728" y="-188" font-family="Helvetica,sans-Serif" font-size="10.00">_heap.hpp</text>
</a>
</g>
</g>
<!-- Node1&#45;&gt;Node7 -->
<g id="edge7" class="edge"><title>Node1&#45;&gt;Node7</title>
<path fill="none" stroke="midnightblue" d="M338.557,-322.438C368.107,-314.811 407.922,-301.468 437.728,-280 460.093,-263.892 478.871,-238.239 490.609,-219.714"/>
<polygon fill="midnightblue" stroke="midnightblue" points="493.699,-221.37 495.939,-211.015 487.73,-217.713 493.699,-221.37"/>
</g>
<!-- Node12 -->
<g id="node13" class="node"><title>Node12</title>
<g id="a_node13"><a xlink:href="split__heap_8hpp.html" target="_top" xlink:title="immer/heap/split_heap.hpp">
<polygon fill="white" stroke="black" points="612.728,-186.5 612.728,-205.5 746.728,-205.5 746.728,-186.5 612.728,-186.5"/>
<text text-anchor="middle" x="679.728" y="-193.5" font-family="Helvetica,sans-Serif" font-size="10.00">immer/heap/split_heap.hpp</text>
</a>
</g>
</g>
<!-- Node1&#45;&gt;Node12 -->
<g id="edge14" class="edge"><title>Node1&#45;&gt;Node12</title>
<path fill="none" stroke="midnightblue" d="M328.993,-322.449C363.282,-312.879 419.813,-296.536 467.728,-280 533.656,-257.248 609.418,-226.428 650.137,-209.471"/>
<polygon fill="midnightblue" stroke="midnightblue" points="651.591,-212.657 659.469,-205.572 648.893,-206.198 651.591,-212.657"/>
</g>
<!-- Node13 -->
<g id="node14" class="node"><title>Node13</title>
<g id="a_node14"><a xlink:href="thread__local__free__list__heap_8hpp.html" target="_top" xlink:title="immer/heap/thread_local\l_free_list_heap.hpp">
<polygon fill="white" stroke="black" points="306.228,-249 306.228,-279 429.228,-279 429.228,-249 306.228,-249"/>
<text text-anchor="start" x="314.228" y="-267" font-family="Helvetica,sans-Serif" font-size="10.00">immer/heap/thread_local</text>
<text text-anchor="middle" x="367.728" y="-256" font-family="Helvetica,sans-Serif" font-size="10.00">_free_list_heap.hpp</text>
</a>
</g>
</g>
<!-- Node1&#45;&gt;Node13 -->
<g id="edge17" class="edge"><title>Node1&#45;&gt;Node13</title>
<path fill="none" stroke="midnightblue" d="M306.879,-322.372C316.607,-313.2 332.353,-298.354 345.39,-286.062"/>
<polygon fill="midnightblue" stroke="midnightblue" points="347.812,-288.588 352.687,-279.181 343.01,-283.495 347.812,-288.588"/>
</g>
<!-- Node15 -->
<g id="node16" class="node"><title>Node15</title>
<polygon fill="white" stroke="#bfbfbf" points="20.7281,-254.5 20.7281,-273.5 76.7281,-273.5 76.7281,-254.5 20.7281,-254.5"/>
<text text-anchor="middle" x="48.7281" y="-261.5" font-family="Helvetica,sans-Serif" font-size="10.00">algorithm</text>
</g>
<!-- Node1&#45;&gt;Node15 -->
<g id="edge24" class="edge"><title>Node1&#45;&gt;Node15</title>
<path fill="none" stroke="midnightblue" d="M258.108,-322.495C216.205,-313.209 148.322,-297.331 90.7281,-280 87.54,-279.041 84.2379,-277.98 80.95,-276.88"/>
<polygon fill="midnightblue" stroke="midnightblue" points="81.8524,-273.489 71.2577,-273.521 79.5599,-280.103 81.8524,-273.489"/>
</g>
<!-- Node2&#45;&gt;Node3 -->
<g id="edge3" class="edge"><title>Node2&#45;&gt;Node3</title>
<path fill="none" stroke="midnightblue" d="M229.547,-248.66C232.635,-224.32 238.901,-174.933 242.338,-147.837"/>
<polygon fill="midnightblue" stroke="midnightblue" points="245.834,-148.089 243.621,-137.728 238.89,-147.207 245.834,-148.089"/>
</g>
<!-- Node4 -->
<g id="node5" class="node"><title>Node4</title>
<g id="a_node5"><a xlink:href="identity__heap_8hpp.html" target="_top" xlink:title="immer/heap/identity\l_heap.hpp">
<polygon fill="white" stroke="black" points="114.728,-181 114.728,-211 216.728,-211 216.728,-181 114.728,-181"/>
<text text-anchor="start" x="122.728" y="-199" font-family="Helvetica,sans-Serif" font-size="10.00">immer/heap/identity</text>
<text text-anchor="middle" x="165.728" y="-188" font-family="Helvetica,sans-Serif" font-size="10.00">_heap.hpp</text>
</a>
</g>
</g>
<!-- Node2&#45;&gt;Node4 -->
<g id="edge4" class="edge"><title>Node2&#45;&gt;Node4</title>
<path fill="none" stroke="midnightblue" d="M214.275,-248.679C206.069,-239.944 195.418,-228.605 186.183,-218.775"/>
<polygon fill="midnightblue" stroke="midnightblue" points="188.553,-216.185 179.155,-211.293 183.451,-220.978 188.553,-216.185"/>
</g>
<!-- Node2&#45;&gt;Node6 -->
<g id="edge6" class="edge"><title>Node2&#45;&gt;Node6</title>
<path fill="none" stroke="midnightblue" d="M285.944,-248.908C328.883,-237.998 383.248,-222.949 403.728,-212 423.2,-201.59 422.77,-191.318 441.728,-180 471.799,-162.049 509.332,-148.035 536.147,-139.278"/>
<polygon fill="midnightblue" stroke="midnightblue" points="537.396,-142.553 545.861,-136.182 535.27,-135.884 537.396,-142.553"/>
</g>
<!-- Node4&#45;&gt;Node5 -->
<g id="edge5" class="edge"><title>Node4&#45;&gt;Node5</title>
<path fill="none" stroke="midnightblue" d="M146.199,-180.679C131.246,-169.713 110.699,-154.645 95.6489,-143.609"/>
<polygon fill="midnightblue" stroke="midnightblue" points="97.6409,-140.729 87.5071,-137.638 93.5014,-146.374 97.6409,-140.729"/>
</g>
<!-- Node7&#45;&gt;Node6 -->
<g id="edge13" class="edge"><title>Node7&#45;&gt;Node6</title>
<path fill="none" stroke="midnightblue" d="M518.266,-180.679C528.92,-170.184 543.388,-155.932 554.433,-145.052"/>
<polygon fill="midnightblue" stroke="midnightblue" points="557.098,-147.339 561.766,-137.828 552.186,-142.353 557.098,-147.339"/>
</g>
<!-- Node8 -->
<g id="node9" class="node"><title>Node8</title>
<g id="a_node9"><a xlink:href="with__data_8hpp.html" target="_top" xlink:title="immer/heap/with_data.hpp">
<polygon fill="white" stroke="black" points="397.228,-56.5 397.228,-75.5 528.228,-75.5 528.228,-56.5 397.228,-56.5"/>
<text text-anchor="middle" x="462.728" y="-63.5" font-family="Helvetica,sans-Serif" font-size="10.00">immer/heap/with_data.hpp</text>
</a>
</g>
</g>
<!-- Node7&#45;&gt;Node8 -->
<g id="edge8" class="edge"><title>Node7&#45;&gt;Node8</title>
<path fill="none" stroke="midnightblue" d="M501.235,-180.95C498.067,-164.243 492,-135.644 483.728,-112 480.49,-102.743 475.983,-92.8283 471.975,-84.6675"/>
<polygon fill="midnightblue" stroke="midnightblue" points="475.095,-83.0817 467.451,-75.7453 468.851,-86.2472 475.095,-83.0817"/>
</g>
<!-- Node10 -->
<g id="node11" class="node"><title>Node10</title>
<g id="a_node11"><a xlink:href="free__list__node_8hpp.html" target="_top" xlink:title="immer/heap/free_list\l_node.hpp">
<polygon fill="white" stroke="black" points="370.228,-113 370.228,-143 475.228,-143 475.228,-113 370.228,-113"/>
<text text-anchor="start" x="378.228" y="-131" font-family="Helvetica,sans-Serif" font-size="10.00">immer/heap/free_list</text>
<text text-anchor="middle" x="422.728" y="-120" font-family="Helvetica,sans-Serif" font-size="10.00">_node.hpp</text>
</a>
</g>
</g>
<!-- Node7&#45;&gt;Node10 -->
<g id="edge10" class="edge"><title>Node7&#45;&gt;Node10</title>
<path fill="none" stroke="midnightblue" d="M486.152,-180.679C474.931,-171.536 460.209,-159.54 447.773,-149.407"/>
<polygon fill="midnightblue" stroke="midnightblue" points="449.955,-146.67 439.991,-143.066 445.533,-152.096 449.955,-146.67"/>
</g>
<!-- Node11 -->
<g id="node12" class="node"><title>Node11</title>
<polygon fill="white" stroke="#bfbfbf" points="656.728,-118.5 656.728,-137.5 702.728,-137.5 702.728,-118.5 656.728,-118.5"/>
<text text-anchor="middle" x="679.728" y="-125.5" font-family="Helvetica,sans-Serif" font-size="10.00">atomic</text>
</g>
<!-- Node7&#45;&gt;Node11 -->
<g id="edge12" class="edge"><title>Node7&#45;&gt;Node11</title>
<path fill="none" stroke="midnightblue" d="M541.485,-180.841C572.974,-169.033 617.371,-152.384 647.281,-141.168"/>
<polygon fill="midnightblue" stroke="midnightblue" points="648.696,-144.375 656.83,-137.587 646.238,-137.821 648.696,-144.375"/>
</g>
<!-- Node9 -->
<g id="node10" class="node"><title>Node9</title>
<polygon fill="white" stroke="#bfbfbf" points="441.228,-0.5 441.228,-19.5 484.228,-19.5 484.228,-0.5 441.228,-0.5"/>
<text text-anchor="middle" x="462.728" y="-7.5" font-family="Helvetica,sans-Serif" font-size="10.00">cstdio</text>
</g>
<!-- Node8&#45;&gt;Node9 -->
<g id="edge9" class="edge"><title>Node8&#45;&gt;Node9</title>
<path fill="none" stroke="midnightblue" d="M462.728,-56.083C462.728,-49.0059 462.728,-38.8611 462.728,-29.9865"/>
<polygon fill="midnightblue" stroke="midnightblue" points="466.228,-29.751 462.728,-19.7511 459.228,-29.7511 466.228,-29.751"/>
</g>
<!-- Node10&#45;&gt;Node8 -->
<g id="edge11" class="edge"><title>Node10&#45;&gt;Node8</title>
<path fill="none" stroke="midnightblue" d="M432.208,-112.781C437.9,-104.242 445.183,-93.3184 451.206,-84.2834"/>
<polygon fill="midnightblue" stroke="midnightblue" points="454.273,-85.9925 456.908,-75.7305 448.449,-82.1096 454.273,-85.9925"/>
</g>
<!-- Node12&#45;&gt;Node6 -->
<g id="edge16" class="edge"><title>Node12&#45;&gt;Node6</title>
<path fill="none" stroke="midnightblue" d="M665.478,-186.372C647.2,-175.304 615.274,-155.972 593.582,-142.838"/>
<polygon fill="midnightblue" stroke="midnightblue" points="595.348,-139.816 584.981,-137.63 591.723,-145.804 595.348,-139.816"/>
</g>
<!-- Node12&#45;&gt;Node11 -->
<g id="edge15" class="edge"><title>Node12&#45;&gt;Node11</title>
<path fill="none" stroke="midnightblue" d="M679.728,-186.372C679.728,-176.643 679.728,-160.528 679.728,-147.85"/>
<polygon fill="midnightblue" stroke="midnightblue" points="683.228,-147.841 679.728,-137.841 676.228,-147.841 683.228,-147.841"/>
</g>
<!-- Node14 -->
<g id="node15" class="node"><title>Node14</title>
<g id="a_node15"><a xlink:href="unsafe__free__list__heap_8hpp.html" target="_top" xlink:title="immer/heap/unsafe_free\l_list_heap.hpp">
<polygon fill="white" stroke="black" points="272.728,-181 272.728,-211 394.728,-211 394.728,-181 272.728,-181"/>
<text text-anchor="start" x="280.728" y="-199" font-family="Helvetica,sans-Serif" font-size="10.00">immer/heap/unsafe_free</text>
<text text-anchor="middle" x="333.728" y="-188" font-family="Helvetica,sans-Serif" font-size="10.00">_list_heap.hpp</text>
</a>
</g>
</g>
<!-- Node13&#45;&gt;Node14 -->
<g id="edge18" class="edge"><title>Node13&#45;&gt;Node14</title>
<path fill="none" stroke="midnightblue" d="M360.351,-248.679C356.073,-240.376 350.584,-229.721 345.703,-220.245"/>
<polygon fill="midnightblue" stroke="midnightblue" points="348.782,-218.58 341.091,-211.293 342.559,-221.786 348.782,-218.58"/>
</g>
<!-- Node14&#45;&gt;Node3 -->
<g id="edge19" class="edge"><title>Node14&#45;&gt;Node3</title>
<path fill="none" stroke="midnightblue" d="M314.416,-180.679C299.63,-169.713 279.31,-154.645 264.428,-143.609"/>
<polygon fill="midnightblue" stroke="midnightblue" points="266.493,-140.783 256.376,-137.638 262.324,-146.406 266.493,-140.783"/>
</g>
<!-- Node14&#45;&gt;Node6 -->
<g id="edge21" class="edge"><title>Node14&#45;&gt;Node6</title>
<path fill="none" stroke="midnightblue" d="M384.28,-180.922C430.052,-168.176 496.252,-149.74 536.219,-138.61"/>
<polygon fill="midnightblue" stroke="midnightblue" points="537.335,-141.933 546.03,-135.878 535.457,-135.189 537.335,-141.933"/>
</g>
<!-- Node14&#45;&gt;Node10 -->
<g id="edge20" class="edge"><title>Node14&#45;&gt;Node10</title>
<path fill="none" stroke="midnightblue" d="M353.04,-180.679C365.487,-171.449 381.854,-159.311 395.599,-149.118"/>
<polygon fill="midnightblue" stroke="midnightblue" points="397.812,-151.834 403.76,-143.066 393.643,-146.212 397.812,-151.834"/>
</g>
<!-- Node17 -->
<g id="node18" class="node"><title>Node17</title>
<g id="a_node18"><a xlink:href="no__refcount__policy_8hpp.html" target="_top" xlink:title="immer/refcount/no_refcount\l_policy.hpp">
<polygon fill="white" stroke="black" points="612.728,-249 612.728,-279 748.728,-279 748.728,-249 612.728,-249"/>
<text text-anchor="start" x="620.728" y="-267" font-family="Helvetica,sans-Serif" font-size="10.00">immer/refcount/no_refcount</text>
<text text-anchor="middle" x="680.728" y="-256" font-family="Helvetica,sans-Serif" font-size="10.00">_policy.hpp</text>
</a>
</g>
</g>
<!-- Node16&#45;&gt;Node17 -->
<g id="edge26" class="edge"><title>Node16&#45;&gt;Node17</title>
<path fill="none" stroke="midnightblue" d="M672.115,-316.679C673.441,-308.722 675.127,-298.605 676.656,-289.436"/>
<polygon fill="midnightblue" stroke="midnightblue" points="680.154,-289.732 678.346,-279.293 673.25,-288.582 680.154,-289.732"/>
</g>
<!-- Node18&#45;&gt;Node6 -->
<g id="edge31" class="edge"><title>Node18&#45;&gt;Node6</title>
<path fill="none" stroke="midnightblue" d="M804.373,-316.615C802.833,-286.715 794.971,-217.523 755.728,-180 744.746,-169.499 655.467,-148.065 605.061,-136.613"/>
<polygon fill="midnightblue" stroke="midnightblue" points="605.76,-133.183 595.235,-134.395 604.219,-140.011 605.76,-133.183"/>
</g>
<!-- Node18&#45;&gt;Node11 -->
<g id="edge29" class="edge"><title>Node18&#45;&gt;Node11</title>
<path fill="none" stroke="midnightblue" d="M807.697,-316.944C812.916,-288.252 820.554,-222.109 790.728,-180 772.628,-154.446 738.481,-141.404 712.819,-134.941"/>
<polygon fill="midnightblue" stroke="midnightblue" points="713.289,-131.458 702.759,-132.629 711.721,-138.28 713.289,-131.458"/>
</g>
<!-- Node18&#45;&gt;Node17 -->
<g id="edge28" class="edge"><title>Node18&#45;&gt;Node17</title>
<path fill="none" stroke="midnightblue" d="M778.127,-316.841C760.066,-307.228 735.977,-294.407 716.275,-283.92"/>
<polygon fill="midnightblue" stroke="midnightblue" points="717.757,-280.744 707.285,-279.135 714.468,-286.923 717.757,-280.744"/>
</g>
<!-- Node19 -->
<g id="node20" class="node"><title>Node19</title>
<polygon fill="white" stroke="#bfbfbf" points="842.728,-254.5 842.728,-273.5 882.728,-273.5 882.728,-254.5 842.728,-254.5"/>
<text text-anchor="middle" x="862.728" y="-261.5" font-family="Helvetica,sans-Serif" font-size="10.00">utility</text>
</g>
<!-- Node18&#45;&gt;Node19 -->
<g id="edge30" class="edge"><title>Node18&#45;&gt;Node19</title>
<path fill="none" stroke="midnightblue" d="M817.313,-316.679C826.446,-306.286 838.818,-292.208 848.342,-281.37"/>
<polygon fill="midnightblue" stroke="midnightblue" points="850.998,-283.65 854.97,-273.828 845.74,-279.03 850.998,-283.65"/>
</g>
</g>
</svg>
        <g id="navigator" transform="translate(0 0)" fill="#404254">
                <rect fill="#f2f5e9" fill-opacity="0.5" stroke="#606060" stroke-width=".5" x="0" y="0" width="60" height="60"/>
                <use id="zoomplus" xlink:href="#zoomPlus" x="17" y="9" onmousedown="handleZoom(evt,'in')"/>
                <use id="zoomminus" xlink:href="#zoomMin" x="42" y="9" onmousedown="handleZoom(evt,'out')"/>
                <use id="reset" xlink:href="#resetDef" x="30" y="36" onmousedown="handleReset()"/>
                <g id="arrowUp" xlink:href="#dirArrow" transform="translate(30 24)" onmousedown="handlePan(0,-1)">
                  <use xlink:href="#rim" fill="#404040">
                        <set attributeName="fill" to="#808080" begin="arrowUp.mouseover" end="arrowUp.mouseout"/>
                  </use>
                  <path fill="none" stroke="white" stroke-width="1.5" d="M0,-3.0v7 M-2.5,-0.5L0,-3.0L2.5,-0.5"/>
                </g>
                <g id="arrowRight" xlink:href="#dirArrow" transform="rotate(90) translate(36 -43)" onmousedown="handlePan(1,0)">
                  <use xlink:href="#rim" fill="#404040">
                        <set attributeName="fill" to="#808080" begin="arrowRight.mouseover" end="arrowRight.mouseout"/>
                  </use>
                  <path fill="none" stroke="white" stroke-width="1.5" d="M0,-3.0v7 M-2.5,-0.5L0,-3.0L2.5,-0.5"/>
                </g>
                <g id="arrowDown" xlink:href="#dirArrow" transform="rotate(180) translate(-30 -48)" onmousedown="handlePan(0,1)">
                  <use xlink:href="#rim" fill="#404040">
                        <set attributeName="fill" to="#808080" begin="arrowDown.mouseover" end="arrowDown.mouseout"/>
                  </use>
                  <path fill="none" stroke="white" stroke-width="1.5" d="M0,-3.0v7 M-2.5,-0.5L0,-3.0L2.5,-0.5"/>
                </g>
                <g id="arrowLeft" xlink:href="#dirArrow" transform="rotate(270) translate(-36 17)" onmousedown="handlePan(-1,0)">
                  <use xlink:href="#rim" fill="#404040">
                        <set attributeName="fill" to="#808080" begin="arrowLeft.mouseover" end="arrowLeft.mouseout"/>
                  </use>
                  <path fill="none" stroke="white" stroke-width="1.5" d="M0,-3.0v7 M-2.5,-0.5L0,-3.0L2.5,-0.5"/>
                </g>
        </g>
        <svg viewBox="0 0 15 15" width="100%" height="30px" preserveAspectRatio="xMaxYMin meet">
         <g id="arrow_out" transform="scale(0.3 0.3)">
          <a xlink:href="dvektor__impl_8hpp__incl_org.svg" target="_base">
           <rect id="button" ry="5" rx="5" y="6" x="6" height="38" width="38"
                fill="#f2f5e9" fill-opacity="0.5" stroke="#606060" stroke-width="1.0"/>
           <path id="arrow"
             d="M 11.500037,31.436501 C 11.940474,20.09759 22.043105,11.32322 32.158766,21.979434 L 37.068811,17.246167 C 37.068811,17.246167 37.088388,32 37.088388,32 L 22.160133,31.978069 C 22.160133,31.978069 26.997745,27.140456 26.997745,27.140456 C 18.528582,18.264221 13.291696,25.230495 11.500037,31.436501 z"
             style="fill:#404040;"/>
          </a>
         </g>
        </svg>
</svg>
