<?xml version="1.0" encoding="UTF-8" standalone="no"?>
<!DOCTYPE svg PUBLIC "-//W3C//DTD SVG 1.1//EN"
 "http://www.w3.org/Graphics/SVG/1.1/DTD/svg11.dtd">
<!-- Generated by graphviz version 2.36.0 (20140111.2315)
 -->
<!-- Title: src/immer/experimental/dvektor.hpp Pages: 1 -->
<svg width="1728pt" height="492pt"
 viewBox="0.00 0.00 1728.00 492.00" xmlns="http://www.w3.org/2000/svg" xmlns:xlink="http://www.w3.org/1999/xlink">
<g id="graph0" class="graph" transform="scale(1 1) rotate(0) translate(4 488)">
<title>src/immer/experimental/dvektor.hpp</title>
<polygon fill="white" stroke="none" points="-4,4 -4,-488 1724,-488 1724,4 -4,4"/>
<!-- Node0 -->
<g id="node1" class="node"><title>Node0</title>
<polygon fill="#bfbfbf" stroke="black" points="758.5,-453 758.5,-483 877.5,-483 877.5,-453 758.5,-453"/>
<text text-anchor="start" x="766.5" y="-471" font-family="Helvetica,sans-Serif" font-size="10.00">src/immer/experimental</text>
<text text-anchor="middle" x="818" y="-460" font-family="Helvetica,sans-Serif" font-size="10.00">/dvektor.hpp</text>
</g>
<!-- Node1 -->
<g id="node2" class="node"><title>Node1</title>
<g id="a_node2"><a xlink:href="dvektor__impl_8hpp.html" target="_top" xlink:title="immer/experimental\l/detail/dvektor_impl.hpp">
<polygon fill="white" stroke="black" points="411,-385 411,-415 531,-415 531,-385 411,-385"/>
<text text-anchor="start" x="419" y="-403" font-family="Helvetica,sans-Serif" font-size="10.00">immer/experimental</text>
<text text-anchor="middle" x="471" y="-392" font-family="Helvetica,sans-Serif" font-size="10.00">/detail/dvektor_impl.hpp</text>
</a>
</g>
</g>
<!-- Node0&#45;&gt;Node1 -->
<g id="edge1" class="edge"><title>Node0&#45;&gt;Node1</title>
<path fill="none" stroke="midnightblue" d="M758.349,-455.654C698.018,-444.179 604.806,-426.45 541.011,-414.316"/>
<polygon fill="midnightblue" stroke="midnightblue" points="541.512,-410.849 531.034,-412.419 540.204,-417.726 541.512,-410.849"/>
</g>
<!-- Node25 -->
<g id="node26" class="node"><title>Node25</title>
<g id="a_node26"><a xlink:href="memory__policy_8hpp.html" target="_top" xlink:title="immer/memory_policy.hpp">
<polygon fill="white" stroke="black" points="1100.5,-390.5 1100.5,-409.5 1231.5,-409.5 1231.5,-390.5 1100.5,-390.5"/>
<text text-anchor="middle" x="1166" y="-397.5" font-family="Helvetica,sans-Serif" font-size="10.00">immer/memory_policy.hpp</text>
</a>
</g>
</g>
<!-- Node0&#45;&gt;Node25 -->
<g id="edge38" class="edge"><title>Node0&#45;&gt;Node25</title>
<path fill="none" stroke="midnightblue" d="M877.823,-455.654C943.4,-443.217 1047.72,-423.433 1111.22,-411.389"/>
<polygon fill="midnightblue" stroke="midnightblue" points="1111.88,-414.827 1121.05,-409.525 1110.57,-407.95 1111.88,-414.827"/>
</g>
<!-- Node2 -->
<g id="node3" class="node"><title>Node2</title>
<g id="a_node3"><a xlink:href="heap__policy_8hpp.html" target="_top" xlink:title="immer/heap/heap_policy.hpp">
<polygon fill="white" stroke="black" points="505.5,-322.5 505.5,-341.5 646.5,-341.5 646.5,-322.5 505.5,-322.5"/>
<text text-anchor="middle" x="576" y="-329.5" font-family="Helvetica,sans-Serif" font-size="10.00">immer/heap/heap_policy.hpp</text>
</a>
</g>
</g>
<!-- Node1&#45;&gt;Node2 -->
<g id="edge2" class="edge"><title>Node1&#45;&gt;Node2</title>
<path fill="none" stroke="midnightblue" d="M493.525,-384.841C511.28,-373.681 535.913,-358.198 553.628,-347.063"/>
<polygon fill="midnightblue" stroke="midnightblue" points="555.584,-349.967 562.188,-341.682 551.859,-344.04 555.584,-349.967"/>
</g>
<!-- Node7 -->
<g id="node8" class="node"><title>Node7</title>
<polygon fill="white" stroke="#bfbfbf" points="743.5,-118.5 743.5,-137.5 792.5,-137.5 792.5,-118.5 743.5,-118.5"/>
<text text-anchor="middle" x="768" y="-125.5" font-family="Helvetica,sans-Serif" font-size="10.00">cassert</text>
</g>
<!-- Node1&#45;&gt;Node7 -->
<g id="edge36" class="edge"><title>Node1&#45;&gt;Node7</title>
<path fill="none" stroke="midnightblue" d="M467.481,-384.73C461.211,-355.646 451.523,-288.816 483,-248 512.614,-209.599 541.112,-230.349 586,-212 616.918,-199.362 623.643,-193.932 654,-180 682.968,-166.706 716.257,-151.863 739.353,-141.634"/>
<polygon fill="midnightblue" stroke="midnightblue" points="740.855,-144.796 748.585,-137.55 738.024,-138.395 740.855,-144.796"/>
</g>
<!-- Node17 -->
<g id="node18" class="node"><title>Node17</title>
<g id="a_node18"><a xlink:href="enable__intrusive__ptr_8hpp.html" target="_top" xlink:title="immer/refcount/enable\l_intrusive_ptr.hpp">
<polygon fill="white" stroke="black" points="732.5,-317 732.5,-347 845.5,-347 845.5,-317 732.5,-317"/>
<text text-anchor="start" x="740.5" y="-335" font-family="Helvetica,sans-Serif" font-size="10.00">immer/refcount/enable</text>
<text text-anchor="middle" x="789" y="-324" font-family="Helvetica,sans-Serif" font-size="10.00">_intrusive_ptr.hpp</text>
</a>
</g>
</g>
<!-- Node1&#45;&gt;Node17 -->
<g id="edge26" class="edge"><title>Node1&#45;&gt;Node17</title>
<path fill="none" stroke="midnightblue" d="M531.187,-386.508C585.713,-375.192 665.925,-358.544 722.366,-346.83"/>
<polygon fill="midnightblue" stroke="midnightblue" points="723.185,-350.234 732.265,-344.775 721.762,-343.381 723.185,-350.234"/>
</g>
<!-- Node19 -->
<g id="node20" class="node"><title>Node19</title>
<g id="a_node20"><a xlink:href="refcount__policy_8hpp.html" target="_top" xlink:title="immer/refcount/refcount\l_policy.hpp">
<polygon fill="white" stroke="black" points="933,-317 933,-347 1053,-347 1053,-317 933,-317"/>
<text text-anchor="start" x="941" y="-335" font-family="Helvetica,sans-Serif" font-size="10.00">immer/refcount/refcount</text>
<text text-anchor="middle" x="993" y="-324" font-family="Helvetica,sans-Serif" font-size="10.00">_policy.hpp</text>
</a>
</g>
</g>
<!-- Node1&#45;&gt;Node19 -->
<g id="edge28" class="edge"><title>Node1&#45;&gt;Node19</title>
<path fill="none" stroke="midnightblue" d="M531.135,-391.397C628.297,-379.112 819.336,-354.958 922.659,-341.894"/>
<polygon fill="midnightblue" stroke="midnightblue" points="923.201,-345.353 932.683,-340.626 922.323,-338.408 923.201,-345.353"/>
</g>
<!-- Node21 -->
<g id="node22" class="node"><title>Node21</title>
<polygon fill="white" stroke="#bfbfbf" points="0,-322.5 0,-341.5 116,-341.5 116,-322.5 0,-322.5"/>
<text text-anchor="middle" x="58" y="-329.5" font-family="Helvetica,sans-Serif" font-size="10.00">boost/intrusive_ptr.hpp</text>
</g>
<!-- Node1&#45;&gt;Node21 -->
<g id="edge33" class="edge"><title>Node1&#45;&gt;Node21</title>
<path fill="none" stroke="midnightblue" d="M410.771,-391.495C341.565,-382.554 224.701,-366.482 125,-348 118.149,-346.73 110.934,-345.258 103.877,-343.742"/>
<polygon fill="midnightblue" stroke="midnightblue" points="104.232,-340.237 93.714,-341.509 102.73,-347.074 104.232,-340.237"/>
</g>
<!-- Node22 -->
<g id="node23" class="node"><title>Node22</title>
<polygon fill="white" stroke="#bfbfbf" points="134.5,-317 134.5,-347 241.5,-347 241.5,-317 134.5,-317"/>
<text text-anchor="start" x="142.5" y="-335" font-family="Helvetica,sans-Serif" font-size="10.00">boost/iterator/iterator</text>
<text text-anchor="middle" x="188" y="-324" font-family="Helvetica,sans-Serif" font-size="10.00">_facade.hpp</text>
</g>
<!-- Node1&#45;&gt;Node22 -->
<g id="edge34" class="edge"><title>Node1&#45;&gt;Node22</title>
<path fill="none" stroke="midnightblue" d="M410.929,-385.318C368.806,-375.682 310.91,-362.356 251.665,-348.382"/>
<polygon fill="midnightblue" stroke="midnightblue" points="252.297,-344.936 241.76,-346.043 250.688,-351.748 252.297,-344.936"/>
</g>
<!-- Node23 -->
<g id="node24" class="node"><title>Node23</title>
<polygon fill="white" stroke="#bfbfbf" points="259.5,-317 259.5,-347 384.5,-347 384.5,-317 259.5,-317"/>
<text text-anchor="start" x="267.5" y="-335" font-family="Helvetica,sans-Serif" font-size="10.00">boost/smart_ptr/intrusive</text>
<text text-anchor="middle" x="322" y="-324" font-family="Helvetica,sans-Serif" font-size="10.00">_ref_counter.hpp</text>
</g>
<!-- Node1&#45;&gt;Node23 -->
<g id="edge35" class="edge"><title>Node1&#45;&gt;Node23</title>
<path fill="none" stroke="midnightblue" d="M439.036,-384.841C416.766,-374.977 386.872,-361.735 362.87,-351.104"/>
<polygon fill="midnightblue" stroke="midnightblue" points="364.216,-347.872 353.655,-347.022 361.381,-354.272 364.216,-347.872"/>
</g>
<!-- Node24 -->
<g id="node25" class="node"><title>Node24</title>
<polygon fill="white" stroke="#bfbfbf" points="403,-322.5 403,-341.5 443,-341.5 443,-322.5 403,-322.5"/>
<text text-anchor="middle" x="423" y="-329.5" font-family="Helvetica,sans-Serif" font-size="10.00">limits</text>
</g>
<!-- Node1&#45;&gt;Node24 -->
<g id="edge37" class="edge"><title>Node1&#45;&gt;Node24</title>
<path fill="none" stroke="midnightblue" d="M460.585,-384.679C453.175,-374.49 443.188,-360.759 435.372,-350.011"/>
<polygon fill="midnightblue" stroke="midnightblue" points="438.133,-347.857 429.421,-341.828 432.472,-351.974 438.133,-347.857"/>
</g>
<!-- Node3 -->
<g id="node4" class="node"><title>Node3</title>
<g id="a_node4"><a xlink:href="debug__size__heap_8hpp.html" target="_top" xlink:title="immer/heap/debug_size\l_heap.hpp">
<polygon fill="white" stroke="black" points="316,-249 316,-279 436,-279 436,-249 316,-249"/>
<text text-anchor="start" x="324" y="-267" font-family="Helvetica,sans-Serif" font-size="10.00">immer/heap/debug_size</text>
<text text-anchor="middle" x="376" y="-256" font-family="Helvetica,sans-Serif" font-size="10.00">_heap.hpp</text>
</a>
</g>
</g>
<!-- Node2&#45;&gt;Node3 -->
<g id="edge3" class="edge"><title>Node2&#45;&gt;Node3</title>
<path fill="none" stroke="midnightblue" d="M549.853,-322.372C519.106,-312.225 467.311,-295.133 428.235,-282.237"/>
<polygon fill="midnightblue" stroke="midnightblue" points="429.188,-278.866 418.595,-279.056 426.994,-285.514 429.188,-278.866"/>
</g>
<!-- Node4 -->
<g id="node5" class="node"><title>Node4</title>
<g id="a_node5"><a xlink:href="config_8hpp.html" target="_top" xlink:title="immer/config.hpp">
<polygon fill="white" stroke="black" points="513,-118.5 513,-137.5 605,-137.5 605,-118.5 513,-118.5"/>
<text text-anchor="middle" x="559" y="-125.5" font-family="Helvetica,sans-Serif" font-size="10.00">immer/config.hpp</text>
</a>
</g>
</g>
<!-- Node2&#45;&gt;Node4 -->
<g id="edge23" class="edge"><title>Node2&#45;&gt;Node4</title>
<path fill="none" stroke="midnightblue" d="M575.27,-322.32C572.72,-292.022 564.176,-190.498 560.597,-147.981"/>
<polygon fill="midnightblue" stroke="midnightblue" points="564.073,-147.546 559.747,-137.875 557.098,-148.133 564.073,-147.546"/>
</g>
<!-- Node6 -->
<g id="node7" class="node"><title>Node6</title>
<polygon fill="white" stroke="#bfbfbf" points="307.5,-118.5 307.5,-137.5 352.5,-137.5 352.5,-118.5 307.5,-118.5"/>
<text text-anchor="middle" x="330" y="-125.5" font-family="Helvetica,sans-Serif" font-size="10.00">cstdlib</text>
</g>
<!-- Node2&#45;&gt;Node6 -->
<g id="edge24" class="edge"><title>Node2&#45;&gt;Node6</title>
<path fill="none" stroke="midnightblue" d="M506.672,-322.47C431.271,-312.483 319.715,-295.352 307,-280 274.948,-241.301 302.948,-177.159 319.66,-146.443"/>
<polygon fill="midnightblue" stroke="midnightblue" points="322.717,-148.146 324.598,-137.72 316.626,-144.698 322.717,-148.146"/>
</g>
<!-- Node8 -->
<g id="node9" class="node"><title>Node8</title>
<g id="a_node9"><a xlink:href="free__list__heap_8hpp.html" target="_top" xlink:title="immer/heap/free_list\l_heap.hpp">
<polygon fill="white" stroke="black" points="936.5,-249 936.5,-279 1041.5,-279 1041.5,-249 936.5,-249"/>
<text text-anchor="start" x="944.5" y="-267" font-family="Helvetica,sans-Serif" font-size="10.00">immer/heap/free_list</text>
<text text-anchor="middle" x="989" y="-256" font-family="Helvetica,sans-Serif" font-size="10.00">_heap.hpp</text>
</a>
</g>
</g>
<!-- Node2&#45;&gt;Node8 -->
<g id="edge8" class="edge"><title>Node2&#45;&gt;Node8</title>
<path fill="none" stroke="midnightblue" d="M629.569,-322.439C705.756,-310.264 845.129,-287.991 926.117,-275.049"/>
<polygon fill="midnightblue" stroke="midnightblue" points="926.856,-278.475 936.179,-273.441 925.751,-271.563 926.856,-278.475"/>
</g>
<!-- Node13 -->
<g id="node14" class="node"><title>Node13</title>
<g id="a_node14"><a xlink:href="split__heap_8hpp.html" target="_top" xlink:title="immer/heap/split_heap.hpp">
<polygon fill="white" stroke="black" points="746,-254.5 746,-273.5 880,-273.5 880,-254.5 746,-254.5"/>
<text text-anchor="middle" x="813" y="-261.5" font-family="Helvetica,sans-Serif" font-size="10.00">immer/heap/split_heap.hpp</text>
</a>
</g>
</g>
<!-- Node2&#45;&gt;Node13 -->
<g id="edge15" class="edge"><title>Node2&#45;&gt;Node13</title>
<path fill="none" stroke="midnightblue" d="M606.984,-322.372C649.416,-310.555 725.676,-289.318 772.563,-276.261"/>
<polygon fill="midnightblue" stroke="midnightblue" points="773.69,-279.58 782.384,-273.526 771.812,-272.837 773.69,-279.58"/>
</g>
<!-- Node14 -->
<g id="node15" class="node"><title>Node14</title>
<g id="a_node15"><a xlink:href="thread__local__free__list__heap_8hpp.html" target="_top" xlink:title="immer/heap/thread_local\l_free_list_heap.hpp">
<polygon fill="white" stroke="black" points="604.5,-249 604.5,-279 727.5,-279 727.5,-249 604.5,-249"/>
<text text-anchor="start" x="612.5" y="-267" font-family="Helvetica,sans-Serif" font-size="10.00">immer/heap/thread_local</text>
<text text-anchor="middle" x="666" y="-256" font-family="Helvetica,sans-Serif" font-size="10.00">_free_list_heap.hpp</text>
</a>
</g>
</g>
<!-- Node2&#45;&gt;Node14 -->
<g id="edge18" class="edge"><title>Node2&#45;&gt;Node14</title>
<path fill="none" stroke="midnightblue" d="M587.766,-322.372C600.506,-313.029 621.277,-297.797 638.216,-285.375"/>
<polygon fill="midnightblue" stroke="midnightblue" points="640.667,-287.918 646.662,-279.181 636.528,-282.273 640.667,-287.918"/>
</g>
<!-- Node16 -->
<g id="node17" class="node"><title>Node16</title>
<polygon fill="white" stroke="#bfbfbf" points="492,-254.5 492,-273.5 548,-273.5 548,-254.5 492,-254.5"/>
<text text-anchor="middle" x="520" y="-261.5" font-family="Helvetica,sans-Serif" font-size="10.00">algorithm</text>
</g>
<!-- Node2&#45;&gt;Node16 -->
<g id="edge25" class="edge"><title>Node2&#45;&gt;Node16</title>
<path fill="none" stroke="midnightblue" d="M568.679,-322.372C559.924,-312.053 545.074,-294.551 534.072,-281.585"/>
<polygon fill="midnightblue" stroke="midnightblue" points="536.64,-279.202 527.502,-273.841 531.303,-283.731 536.64,-279.202"/>
</g>
<!-- Node3&#45;&gt;Node4 -->
<g id="edge4" class="edge"><title>Node3&#45;&gt;Node4</title>
<path fill="none" stroke="midnightblue" d="M395.238,-248.913C430.092,-223.391 503.353,-169.747 538.859,-143.748"/>
<polygon fill="midnightblue" stroke="midnightblue" points="541.025,-146.5 547.026,-137.768 536.89,-140.852 541.025,-146.5"/>
</g>
<!-- Node5 -->
<g id="node6" class="node"><title>Node5</title>
<g id="a_node6"><a xlink:href="identity__heap_8hpp.html" target="_top" xlink:title="immer/heap/identity\l_heap.hpp">
<polygon fill="white" stroke="black" points="321,-181 321,-211 423,-211 423,-181 321,-181"/>
<text text-anchor="start" x="329" y="-199" font-family="Helvetica,sans-Serif" font-size="10.00">immer/heap/identity</text>
<text text-anchor="middle" x="372" y="-188" font-family="Helvetica,sans-Serif" font-size="10.00">_heap.hpp</text>
</a>
</g>
</g>
<!-- Node3&#45;&gt;Node5 -->
<g id="edge5" class="edge"><title>Node3&#45;&gt;Node5</title>
<path fill="none" stroke="midnightblue" d="M375.132,-248.679C374.65,-240.722 374.037,-230.605 373.481,-221.436"/>
<polygon fill="midnightblue" stroke="midnightblue" points="376.965,-221.063 372.866,-211.293 369.978,-221.487 376.965,-221.063"/>
</g>
<!-- Node3&#45;&gt;Node7 -->
<g id="edge7" class="edge"><title>Node3&#45;&gt;Node7</title>
<path fill="none" stroke="midnightblue" d="M417.21,-248.913C494.935,-222.344 661.822,-165.296 733.802,-140.69"/>
<polygon fill="midnightblue" stroke="midnightblue" points="734.979,-143.987 743.309,-137.44 732.715,-137.363 734.979,-143.987"/>
</g>
<!-- Node5&#45;&gt;Node6 -->
<g id="edge6" class="edge"><title>Node5&#45;&gt;Node6</title>
<path fill="none" stroke="midnightblue" d="M362.887,-180.679C356.468,-170.592 347.839,-157.033 341.031,-146.335"/>
<polygon fill="midnightblue" stroke="midnightblue" points="343.94,-144.386 335.618,-137.828 338.034,-148.144 343.94,-144.386"/>
</g>
<!-- Node8&#45;&gt;Node7 -->
<g id="edge14" class="edge"><title>Node8&#45;&gt;Node7</title>
<path fill="none" stroke="midnightblue" d="M981.124,-248.872C970.168,-230.462 948.642,-198.452 922,-180 885.543,-154.75 835.673,-141.267 802.682,-134.629"/>
<polygon fill="midnightblue" stroke="midnightblue" points="803.081,-131.142 792.602,-132.708 801.77,-138.018 803.081,-131.142"/>
</g>
<!-- Node9 -->
<g id="node10" class="node"><title>Node9</title>
<g id="a_node10"><a xlink:href="with__data_8hpp.html" target="_top" xlink:title="immer/heap/with_data.hpp">
<polygon fill="white" stroke="black" points="915.5,-56.5 915.5,-75.5 1046.5,-75.5 1046.5,-56.5 915.5,-56.5"/>
<text text-anchor="middle" x="981" y="-63.5" font-family="Helvetica,sans-Serif" font-size="10.00">immer/heap/with_data.hpp</text>
</a>
</g>
</g>
<!-- Node8&#45;&gt;Node9 -->
<g id="edge9" class="edge"><title>Node8&#45;&gt;Node9</title>
<path fill="none" stroke="midnightblue" d="M993.083,-248.654C1000.16,-221.598 1012.94,-161.32 1002,-112 999.876,-102.426 995.493,-92.4756 991.279,-84.3735"/>
<polygon fill="midnightblue" stroke="midnightblue" points="994.298,-82.6012 986.384,-75.557 988.178,-85.9989 994.298,-82.6012"/>
</g>
<!-- Node11 -->
<g id="node12" class="node"><title>Node11</title>
<g id="a_node12"><a xlink:href="free__list__node_8hpp.html" target="_top" xlink:title="immer/heap/free_list\l_node.hpp">
<polygon fill="white" stroke="black" points="888.5,-113 888.5,-143 993.5,-143 993.5,-113 888.5,-113"/>
<text text-anchor="start" x="896.5" y="-131" font-family="Helvetica,sans-Serif" font-size="10.00">immer/heap/free_list</text>
<text text-anchor="middle" x="941" y="-120" font-family="Helvetica,sans-Serif" font-size="10.00">_node.hpp</text>
</a>
</g>
</g>
<!-- Node8&#45;&gt;Node11 -->
<g id="edge11" class="edge"><title>Node8&#45;&gt;Node11</title>
<path fill="none" stroke="midnightblue" d="M984.162,-248.87C978.474,-232.328 968.706,-204.12 960,-180 956.772,-171.057 953.146,-161.265 949.934,-152.673"/>
<polygon fill="midnightblue" stroke="midnightblue" points="953.192,-151.393 946.402,-143.26 946.639,-153.853 953.192,-151.393"/>
</g>
<!-- Node12 -->
<g id="node13" class="node"><title>Node12</title>
<polygon fill="white" stroke="#bfbfbf" points="1050,-186.5 1050,-205.5 1096,-205.5 1096,-186.5 1050,-186.5"/>
<text text-anchor="middle" x="1073" y="-193.5" font-family="Helvetica,sans-Serif" font-size="10.00">atomic</text>
</g>
<!-- Node8&#45;&gt;Node12 -->
<g id="edge13" class="edge"><title>Node8&#45;&gt;Node12</title>
<path fill="none" stroke="midnightblue" d="M1007.23,-248.679C1020.97,-237.879 1039.78,-223.098 1053.77,-212.11"/>
<polygon fill="midnightblue" stroke="midnightblue" points="1056.06,-214.759 1061.76,-205.828 1051.74,-209.254 1056.06,-214.759"/>
</g>
<!-- Node10 -->
<g id="node11" class="node"><title>Node10</title>
<polygon fill="white" stroke="#bfbfbf" points="959.5,-0.5 959.5,-19.5 1002.5,-19.5 1002.5,-0.5 959.5,-0.5"/>
<text text-anchor="middle" x="981" y="-7.5" font-family="Helvetica,sans-Serif" font-size="10.00">cstdio</text>
</g>
<!-- Node9&#45;&gt;Node10 -->
<g id="edge10" class="edge"><title>Node9&#45;&gt;Node10</title>
<path fill="none" stroke="midnightblue" d="M981,-56.083C981,-49.0059 981,-38.8611 981,-29.9865"/>
<polygon fill="midnightblue" stroke="midnightblue" points="984.5,-29.751 981,-19.7511 977.5,-29.7511 984.5,-29.751"/>
</g>
<!-- Node11&#45;&gt;Node9 -->
<g id="edge12" class="edge"><title>Node11&#45;&gt;Node9</title>
<path fill="none" stroke="midnightblue" d="M950.479,-112.781C956.172,-104.242 963.454,-93.3184 969.478,-84.2834"/>
<polygon fill="midnightblue" stroke="midnightblue" points="972.545,-85.9925 975.18,-75.7305 966.72,-82.1096 972.545,-85.9925"/>
</g>
<!-- Node13&#45;&gt;Node7 -->
<g id="edge17" class="edge"><title>Node13&#45;&gt;Node7</title>
<path fill="none" stroke="midnightblue" d="M811.698,-254.072C809.285,-238.64 803.484,-206.123 794,-180 789.822,-168.491 783.643,-156.247 778.357,-146.642"/>
<polygon fill="midnightblue" stroke="midnightblue" points="781.276,-144.694 773.294,-137.728 775.19,-148.152 781.276,-144.694"/>
</g>
<!-- Node13&#45;&gt;Node12 -->
<g id="edge16" class="edge"><title>Node13&#45;&gt;Node12</title>
<path fill="none" stroke="midnightblue" d="M846.724,-254.439C896.752,-241.74 990.058,-218.055 1039.79,-205.431"/>
<polygon fill="midnightblue" stroke="midnightblue" points="1040.88,-208.766 1049.71,-202.913 1039.15,-201.981 1040.88,-208.766"/>
</g>
<!-- Node15 -->
<g id="node16" class="node"><title>Node15</title>
<g id="a_node16"><a xlink:href="unsafe__free__list__heap_8hpp.html" target="_top" xlink:title="immer/heap/unsafe_free\l_list_heap.hpp">
<polygon fill="white" stroke="black" points="663,-181 663,-211 785,-211 785,-181 663,-181"/>
<text text-anchor="start" x="671" y="-199" font-family="Helvetica,sans-Serif" font-size="10.00">immer/heap/unsafe_free</text>
<text text-anchor="middle" x="724" y="-188" font-family="Helvetica,sans-Serif" font-size="10.00">_list_heap.hpp</text>
</a>
</g>
</g>
<!-- Node14&#45;&gt;Node15 -->
<g id="edge19" class="edge"><title>Node14&#45;&gt;Node15</title>
<path fill="none" stroke="midnightblue" d="M678.585,-248.679C686.186,-240.03 696.029,-228.829 704.608,-219.067"/>
<polygon fill="midnightblue" stroke="midnightblue" points="707.467,-221.115 711.439,-211.293 702.209,-216.494 707.467,-221.115"/>
</g>
<!-- Node15&#45;&gt;Node4 -->
<g id="edge20" class="edge"><title>Node15&#45;&gt;Node4</title>
<path fill="none" stroke="midnightblue" d="M688.603,-180.841C659.295,-169.118 618.06,-152.624 590.028,-141.411"/>
<polygon fill="midnightblue" stroke="midnightblue" points="591.289,-138.146 580.705,-137.682 588.69,-144.646 591.289,-138.146"/>
</g>
<!-- Node15&#45;&gt;Node7 -->
<g id="edge22" class="edge"><title>Node15&#45;&gt;Node7</title>
<path fill="none" stroke="midnightblue" d="M733.547,-180.679C740.272,-170.592 749.311,-157.033 756.444,-146.335"/>
<polygon fill="midnightblue" stroke="midnightblue" points="759.48,-148.09 762.114,-137.828 753.655,-144.207 759.48,-148.09"/>
</g>
<!-- Node15&#45;&gt;Node11 -->
<g id="edge21" class="edge"><title>Node15&#45;&gt;Node11</title>
<path fill="none" stroke="midnightblue" d="M770.286,-180.922C803.85,-170.714 849.411,-156.857 885.023,-146.025"/>
<polygon fill="midnightblue" stroke="midnightblue" points="886.237,-149.315 894.785,-143.056 884.2,-142.617 886.237,-149.315"/>
</g>
<!-- Node18 -->
<g id="node19" class="node"><title>Node18</title>
<g id="a_node19"><a xlink:href="no__refcount__policy_8hpp.html" target="_top" xlink:title="immer/refcount/no_refcount\l_policy.hpp">
<polygon fill="white" stroke="black" points="1098,-249 1098,-279 1234,-279 1234,-249 1098,-249"/>
<text text-anchor="start" x="1106" y="-267" font-family="Helvetica,sans-Serif" font-size="10.00">immer/refcount/no_refcount</text>
<text text-anchor="middle" x="1166" y="-256" font-family="Helvetica,sans-Serif" font-size="10.00">_policy.hpp</text>
</a>
</g>
</g>
<!-- Node17&#45;&gt;Node18 -->
<g id="edge27" class="edge"><title>Node17&#45;&gt;Node18</title>
<path fill="none" stroke="midnightblue" d="M845.849,-321.048C910.288,-309.767 1015.72,-291.308 1087.87,-278.679"/>
<polygon fill="midnightblue" stroke="midnightblue" points="1088.57,-282.109 1097.82,-276.937 1087.36,-275.214 1088.57,-282.109"/>
</g>
<!-- Node19&#45;&gt;Node7 -->
<g id="edge32" class="edge"><title>Node19&#45;&gt;Node7</title>
<path fill="none" stroke="midnightblue" d="M974.147,-316.931C960.973,-306.927 943.109,-293.009 928,-280 873.47,-233.046 812.543,-173.419 784.17,-145.204"/>
<polygon fill="midnightblue" stroke="midnightblue" points="786.308,-142.393 776.756,-137.808 781.364,-147.349 786.308,-142.393"/>
</g>
<!-- Node19&#45;&gt;Node12 -->
<g id="edge30" class="edge"><title>Node19&#45;&gt;Node12</title>
<path fill="none" stroke="midnightblue" d="M1013.94,-316.967C1026.11,-307.787 1040.82,-294.778 1050,-280 1062.36,-260.096 1068.2,-233.466 1070.88,-215.798"/>
<polygon fill="midnightblue" stroke="midnightblue" points="1074.38,-216.014 1072.22,-205.643 1067.44,-215.1 1074.38,-216.014"/>
</g>
<!-- Node19&#45;&gt;Node18 -->
<g id="edge29" class="edge"><title>Node19&#45;&gt;Node18</title>
<path fill="none" stroke="midnightblue" d="M1030.11,-316.841C1056.31,-306.846 1091.6,-293.383 1119.65,-282.682"/>
<polygon fill="midnightblue" stroke="midnightblue" points="1121.15,-285.856 1129.25,-279.022 1118.66,-279.316 1121.15,-285.856"/>
</g>
<!-- Node20 -->
<g id="node21" class="node"><title>Node20</title>
<polygon fill="white" stroke="#bfbfbf" points="1252,-254.5 1252,-273.5 1292,-273.5 1292,-254.5 1252,-254.5"/>
<text text-anchor="middle" x="1272" y="-261.5" font-family="Helvetica,sans-Serif" font-size="10.00">utility</text>
</g>
<!-- Node19&#45;&gt;Node20 -->
<g id="edge31" class="edge"><title>Node19&#45;&gt;Node20</title>
<path fill="none" stroke="midnightblue" d="M1053.09,-323.497C1104.53,-315.96 1180.03,-302.225 1243,-280 1244.65,-279.416 1246.33,-278.755 1248,-278.042"/>
<polygon fill="midnightblue" stroke="midnightblue" points="1249.79,-281.069 1257.3,-273.6 1246.77,-274.753 1249.79,-281.069"/>
</g>
<!-- Node25&#45;&gt;Node2 -->
<g id="edge41" class="edge"><title>Node25&#45;&gt;Node2</title>
<path fill="none" stroke="midnightblue" d="M1100.32,-391.653C991.604,-379.491 774.566,-355.212 656.69,-342.026"/>
<polygon fill="midnightblue" stroke="midnightblue" points="656.969,-338.536 646.641,-340.902 656.19,-345.492 656.969,-338.536"/>
</g>
<!-- Node25&#45;&gt;Node18 -->
<g id="edge47" class="edge"><title>Node25&#45;&gt;Node18</title>
<path fill="none" stroke="midnightblue" d="M1146.98,-390.37C1131.15,-382.032 1109.7,-367.757 1100,-348 1093.73,-335.234 1093.73,-328.766 1100,-316 1106.26,-303.26 1117.4,-292.799 1128.76,-284.74"/>
<polygon fill="midnightblue" stroke="midnightblue" points="1130.99,-287.465 1137.42,-279.048 1127.15,-281.616 1130.99,-287.465"/>
</g>
<!-- Node25&#45;&gt;Node19 -->
<g id="edge42" class="edge"><title>Node25&#45;&gt;Node19</title>
<path fill="none" stroke="midnightblue" d="M1143.38,-390.372C1117.12,-380.354 1073.12,-363.566 1039.48,-350.731"/>
<polygon fill="midnightblue" stroke="midnightblue" points="1040.44,-347.351 1029.84,-347.056 1037.94,-353.891 1040.44,-347.351"/>
</g>
<!-- Node26 -->
<g id="node27" class="node"><title>Node26</title>
<g id="a_node27"><a xlink:href="cpp__heap_8hpp.html" target="_top" xlink:title="immer/heap/cpp_heap.hpp">
<polygon fill="white" stroke="black" points="1589.5,-322.5 1589.5,-341.5 1720.5,-341.5 1720.5,-322.5 1589.5,-322.5"/>
<text text-anchor="middle" x="1655" y="-329.5" font-family="Helvetica,sans-Serif" font-size="10.00">immer/heap/cpp_heap.hpp</text>
</a>
</g>
</g>
<!-- Node25&#45;&gt;Node26 -->
<g id="edge39" class="edge"><title>Node25&#45;&gt;Node26</title>
<path fill="none" stroke="midnightblue" d="M1231.66,-392.368C1313.3,-383.781 1456.84,-367.572 1579,-348 1587.3,-346.67 1596.09,-345.094 1604.62,-343.473"/>
<polygon fill="midnightblue" stroke="midnightblue" points="1605.32,-346.901 1614.47,-341.56 1603.99,-340.03 1605.32,-346.901"/>
</g>
<!-- Node28 -->
<g id="node29" class="node"><title>Node28</title>
<g id="a_node29"><a xlink:href="unsafe__refcount__policy_8hpp.html" target="_top" xlink:title="immer/refcount/unsafe\l_refcount_policy.hpp">
<polygon fill="white" stroke="black" points="1109,-317 1109,-347 1223,-347 1223,-317 1109,-317"/>
<text text-anchor="start" x="1117" y="-335" font-family="Helvetica,sans-Serif" font-size="10.00">immer/refcount/unsafe</text>
<text text-anchor="middle" x="1166" y="-324" font-family="Helvetica,sans-Serif" font-size="10.00">_refcount_policy.hpp</text>
</a>
</g>
</g>
<!-- Node25&#45;&gt;Node28 -->
<g id="edge43" class="edge"><title>Node25&#45;&gt;Node28</title>
<path fill="none" stroke="midnightblue" d="M1166,-390.372C1166,-381.971 1166,-368.811 1166,-357.213"/>
<polygon fill="midnightblue" stroke="midnightblue" points="1169.5,-357.181 1166,-347.181 1162.5,-357.181 1169.5,-357.181"/>
</g>
<!-- Node29 -->
<g id="node30" class="node"><title>Node29</title>
<g id="a_node30"><a xlink:href="no__transience__policy_8hpp.html" target="_top" xlink:title="immer/transience/no\l_transience_policy.hpp">
<polygon fill="white" stroke="black" points="1241,-317 1241,-347 1357,-347 1357,-317 1241,-317"/>
<text text-anchor="start" x="1249" y="-335" font-family="Helvetica,sans-Serif" font-size="10.00">immer/transience/no</text>
<text text-anchor="middle" x="1299" y="-324" font-family="Helvetica,sans-Serif" font-size="10.00">_transience_policy.hpp</text>
</a>
</g>
</g>
<!-- Node25&#45;&gt;Node29 -->
<g id="edge48" class="edge"><title>Node25&#45;&gt;Node29</title>
<path fill="none" stroke="midnightblue" d="M1183.39,-390.372C1203.14,-380.569 1235.96,-364.283 1261.59,-351.563"/>
<polygon fill="midnightblue" stroke="midnightblue" points="1263.27,-354.637 1270.67,-347.056 1260.16,-348.366 1263.27,-354.637"/>
</g>
<!-- Node30 -->
<g id="node31" class="node"><title>Node30</title>
<g id="a_node31"><a xlink:href="gc__transience__policy_8hpp.html" target="_top" xlink:title="immer/transience/gc\l_transience_policy.hpp">
<polygon fill="white" stroke="black" points="1455,-317 1455,-347 1571,-347 1571,-317 1455,-317"/>
<text text-anchor="start" x="1463" y="-335" font-family="Helvetica,sans-Serif" font-size="10.00">immer/transience/gc</text>
<text text-anchor="middle" x="1513" y="-324" font-family="Helvetica,sans-Serif" font-size="10.00">_transience_policy.hpp</text>
</a>
</g>
</g>
<!-- Node25&#45;&gt;Node30 -->
<g id="edge49" class="edge"><title>Node25&#45;&gt;Node30</title>
<path fill="none" stroke="midnightblue" d="M1215.75,-390.468C1269.56,-381.114 1358.12,-365.355 1444.78,-347.999"/>
<polygon fill="midnightblue" stroke="midnightblue" points="1445.68,-351.389 1454.79,-345.986 1444.3,-344.527 1445.68,-351.389"/>
</g>
<!-- Node32 -->
<g id="node33" class="node"><title>Node32</title>
<polygon fill="white" stroke="#bfbfbf" points="1375,-322.5 1375,-341.5 1437,-341.5 1437,-322.5 1375,-322.5"/>
<text text-anchor="middle" x="1406" y="-329.5" font-family="Helvetica,sans-Serif" font-size="10.00">type_traits</text>
</g>
<!-- Node25&#45;&gt;Node32 -->
<g id="edge54" class="edge"><title>Node25&#45;&gt;Node32</title>
<path fill="none" stroke="midnightblue" d="M1204.09,-390.432C1244.38,-381.093 1309.65,-365.172 1365,-348 1368.11,-347.034 1371.34,-345.97 1374.55,-344.867"/>
<polygon fill="midnightblue" stroke="midnightblue" points="1375.76,-348.151 1384.01,-341.504 1373.41,-341.555 1375.76,-348.151"/>
</g>
<!-- Node27 -->
<g id="node28" class="node"><title>Node27</title>
<polygon fill="white" stroke="#bfbfbf" points="1607,-254.5 1607,-273.5 1659,-273.5 1659,-254.5 1607,-254.5"/>
<text text-anchor="middle" x="1633" y="-261.5" font-family="Helvetica,sans-Serif" font-size="10.00">memory</text>
</g>
<!-- Node26&#45;&gt;Node27 -->
<g id="edge40" class="edge"><title>Node26&#45;&gt;Node27</title>
<path fill="none" stroke="midnightblue" d="M1652.12,-322.372C1648.85,-312.544 1643.4,-296.202 1639.16,-283.467"/>
<polygon fill="midnightblue" stroke="midnightblue" points="1642.43,-282.221 1635.95,-273.841 1635.79,-284.435 1642.43,-282.221"/>
</g>
<!-- Node28&#45;&gt;Node12 -->
<g id="edge45" class="edge"><title>Node28&#45;&gt;Node12</title>
<path fill="none" stroke="midnightblue" d="M1223.07,-318.488C1271.11,-305.292 1328,-281.713 1301,-248 1276.95,-217.974 1163.35,-204.444 1106.12,-199.449"/>
<polygon fill="midnightblue" stroke="midnightblue" points="1106.38,-195.959 1096.13,-198.614 1105.8,-202.934 1106.38,-195.959"/>
</g>
<!-- Node28&#45;&gt;Node18 -->
<g id="edge44" class="edge"><title>Node28&#45;&gt;Node18</title>
<path fill="none" stroke="midnightblue" d="M1166,-316.679C1166,-308.722 1166,-298.605 1166,-289.436"/>
<polygon fill="midnightblue" stroke="midnightblue" points="1169.5,-289.293 1166,-279.293 1162.5,-289.293 1169.5,-289.293"/>
</g>
<!-- Node28&#45;&gt;Node20 -->
<g id="edge46" class="edge"><title>Node28&#45;&gt;Node20</title>
<path fill="none" stroke="midnightblue" d="M1188.74,-316.841C1206.66,-305.681 1231.53,-290.198 1249.41,-279.063"/>
<polygon fill="midnightblue" stroke="midnightblue" points="1251.42,-281.939 1258.06,-273.682 1247.72,-275.996 1251.42,-281.939"/>
</g>
<!-- Node30&#45;&gt;Node12 -->
<g id="edge53" class="edge"><title>Node30&#45;&gt;Node12</title>
<path fill="none" stroke="midnightblue" d="M1484.92,-316.96C1447.61,-298.795 1379.26,-267.208 1318,-248 1243.81,-224.738 1153.61,-209.076 1106.05,-201.756"/>
<polygon fill="midnightblue" stroke="midnightblue" points="1106.42,-198.273 1096.01,-200.239 1105.38,-205.194 1106.42,-198.273"/>
</g>
<!-- Node30&#45;&gt;Node20 -->
<g id="edge52" class="edge"><title>Node30&#45;&gt;Node20</title>
<path fill="none" stroke="midnightblue" d="M1461.6,-316.922C1413.02,-303.618 1341.81,-284.118 1301.92,-273.193"/>
<polygon fill="midnightblue" stroke="midnightblue" points="1302.82,-269.811 1292.25,-270.545 1300.97,-276.562 1302.82,-269.811"/>
</g>
<!-- Node30&#45;&gt;Node27 -->
<g id="edge51" class="edge"><title>Node30&#45;&gt;Node27</title>
<path fill="none" stroke="midnightblue" d="M1538.74,-316.841C1559.31,-305.528 1587.96,-289.771 1608.26,-278.605"/>
<polygon fill="midnightblue" stroke="midnightblue" points="1610.14,-281.568 1617.21,-273.682 1606.77,-275.434 1610.14,-281.568"/>
</g>
<!-- Node31 -->
<g id="node32" class="node"><title>Node31</title>
<g id="a_node32"><a xlink:href="tags_8hpp.html" target="_top" xlink:title="immer/heap/tags.hpp">
<polygon fill="white" stroke="black" points="1459,-254.5 1459,-273.5 1567,-273.5 1567,-254.5 1459,-254.5"/>
<text text-anchor="middle" x="1513" y="-261.5" font-family="Helvetica,sans-Serif" font-size="10.00">immer/heap/tags.hpp</text>
</a>
</g>
</g>
<!-- Node30&#45;&gt;Node31 -->
<g id="edge50" class="edge"><title>Node30&#45;&gt;Node31</title>
<path fill="none" stroke="midnightblue" d="M1513,-316.679C1513,-307.101 1513,-294.394 1513,-283.977"/>
<polygon fill="midnightblue" stroke="midnightblue" points="1516.5,-283.828 1513,-273.828 1509.5,-283.828 1516.5,-283.828"/>
</g>
</g>
</svg>
