<?xml version="1.0" encoding="UTF-8" standalone="no"?>
<!DOCTYPE svg PUBLIC "-//W3C//DTD SVG 1.1//EN"
 "http://www.w3.org/Graphics/SVG/1.1/DTD/svg11.dtd">
<!-- Generated by graphviz version 2.36.0 (20140111.2315)
 -->
<!-- Title: src/secp256k1/src/eckey.h Pages: 1 -->
<svg width="276pt" height="308pt"
 viewBox="0.00 0.00 276.14 308.00" xmlns="http://www.w3.org/2000/svg" xmlns:xlink="http://www.w3.org/1999/xlink">
<g id="graph0" class="graph" transform="scale(1 1) rotate(0) translate(4 304)">
<title>src/secp256k1/src/eckey.h</title>
<polygon fill="white" stroke="none" points="-4,4 -4,-304 272.14,-304 272.14,4 -4,4"/>
<!-- Node0 -->
<g id="node1" class="node"><title>Node0</title>
<polygon fill="#bfbfbf" stroke="black" points="68,-280.5 68,-299.5 202,-299.5 202,-280.5 68,-280.5"/>
<text text-anchor="middle" x="135" y="-287.5" font-family="Helvetica,sans-Serif" font-size="10.00">src/secp256k1/src/eckey.h</text>
</g>
<!-- Node1 -->
<g id="node2" class="node"><title>Node1</title>
<polygon fill="white" stroke="#bfbfbf" points="0,-224.5 0,-243.5 52,-243.5 52,-224.5 0,-224.5"/>
<text text-anchor="middle" x="26" y="-231.5" font-family="Helvetica,sans-Serif" font-size="10.00">stddef.h</text>
</g>
<!-- Node0&#45;&gt;Node1 -->
<g id="edge1" class="edge"><title>Node0&#45;&gt;Node1</title>
<path fill="none" stroke="midnightblue" d="M117.487,-280.324C99.9276,-271.625 72.6686,-258.12 52.4688,-248.113"/>
<polygon fill="midnightblue" stroke="midnightblue" points="53.9837,-244.958 43.4693,-243.655 50.8762,-251.23 53.9837,-244.958"/>
</g>
<!-- Node2 -->
<g id="node3" class="node"><title>Node2</title>
<g id="a_node3"><a xlink:href="group_8h.html" target="_top" xlink:title="group.h">
<polygon fill="white" stroke="black" points="98.5,-168.5 98.5,-187.5 147.5,-187.5 147.5,-168.5 98.5,-168.5"/>
<text text-anchor="middle" x="123" y="-175.5" font-family="Helvetica,sans-Serif" font-size="10.00">group.h</text>
</a>
</g>
</g>
<!-- Node0&#45;&gt;Node2 -->
<g id="edge2" class="edge"><title>Node0&#45;&gt;Node2</title>
<path fill="none" stroke="midnightblue" d="M124.838,-280.185C116.092,-271.87 104.1,-258.539 99,-244 93.2967,-227.741 101.489,-209.328 109.812,-196.261"/>
<polygon fill="midnightblue" stroke="midnightblue" points="112.862,-198.006 115.7,-187.798 107.116,-194.008 112.862,-198.006"/>
</g>
<!-- Node9 -->
<g id="node10" class="node"><title>Node9</title>
<g id="a_node10"><a xlink:href="scalar_8h.html" target="_top" xlink:title="scalar.h">
<polygon fill="white" stroke="black" points="204.5,-168.5 204.5,-187.5 255.5,-187.5 255.5,-168.5 204.5,-168.5"/>
<text text-anchor="middle" x="230" y="-175.5" font-family="Helvetica,sans-Serif" font-size="10.00">scalar.h</text>
</a>
</g>
</g>
<!-- Node0&#45;&gt;Node9 -->
<g id="edge9" class="edge"><title>Node0&#45;&gt;Node9</title>
<path fill="none" stroke="midnightblue" d="M202.321,-281.516C225.747,-275.309 249.716,-264.112 264,-244 275.096,-228.377 261.403,-208.664 248.227,-195.066"/>
<polygon fill="midnightblue" stroke="midnightblue" points="250.353,-192.255 240.72,-187.843 245.5,-197.299 250.353,-192.255"/>
</g>
<!-- Node10 -->
<g id="node11" class="node"><title>Node10</title>
<g id="a_node11"><a xlink:href="ecmult_8h.html" target="_top" xlink:title="ecmult.h">
<polygon fill="white" stroke="black" points="108,-224.5 108,-243.5 162,-243.5 162,-224.5 108,-224.5"/>
<text text-anchor="middle" x="135" y="-231.5" font-family="Helvetica,sans-Serif" font-size="10.00">ecmult.h</text>
</a>
</g>
</g>
<!-- Node0&#45;&gt;Node10 -->
<g id="edge11" class="edge"><title>Node0&#45;&gt;Node10</title>
<path fill="none" stroke="midnightblue" d="M135,-280.083C135,-273.006 135,-262.861 135,-253.986"/>
<polygon fill="midnightblue" stroke="midnightblue" points="138.5,-253.751 135,-243.751 131.5,-253.751 138.5,-253.751"/>
</g>
<!-- Node11 -->
<g id="node12" class="node"><title>Node11</title>
<g id="a_node12"><a xlink:href="ecmult__gen_8h.html" target="_top" xlink:title="ecmult_gen.h">
<polygon fill="white" stroke="black" points="180.5,-224.5 180.5,-243.5 255.5,-243.5 255.5,-224.5 180.5,-224.5"/>
<text text-anchor="middle" x="218" y="-231.5" font-family="Helvetica,sans-Serif" font-size="10.00">ecmult_gen.h</text>
</a>
</g>
</g>
<!-- Node0&#45;&gt;Node11 -->
<g id="edge14" class="edge"><title>Node0&#45;&gt;Node11</title>
<path fill="none" stroke="midnightblue" d="M148.335,-280.324C161.162,-271.979 180.785,-259.212 195.94,-249.352"/>
<polygon fill="midnightblue" stroke="midnightblue" points="198.224,-252.042 204.698,-243.655 194.407,-246.174 198.224,-252.042"/>
</g>
<!-- Node3 -->
<g id="node4" class="node"><title>Node3</title>
<g id="a_node4"><a xlink:href="num_8h.html" target="_top" xlink:title="num.h">
<polygon fill="white" stroke="black" points="159,-112.5 159,-131.5 203,-131.5 203,-112.5 159,-112.5"/>
<text text-anchor="middle" x="181" y="-119.5" font-family="Helvetica,sans-Serif" font-size="10.00">num.h</text>
</a>
</g>
</g>
<!-- Node2&#45;&gt;Node3 -->
<g id="edge3" class="edge"><title>Node2&#45;&gt;Node3</title>
<path fill="none" stroke="midnightblue" d="M132.319,-168.324C140.893,-160.341 153.812,-148.313 164.188,-138.653"/>
<polygon fill="midnightblue" stroke="midnightblue" points="166.578,-141.21 171.512,-131.834 161.808,-136.086 166.578,-141.21"/>
</g>
<!-- Node4 -->
<g id="node5" class="node"><title>Node4</title>
<g id="a_node5"><a xlink:href="field_8h.html" target="_top" xlink:title="field.h">
<polygon fill="white" stroke="black" points="97.5,-112.5 97.5,-131.5 140.5,-131.5 140.5,-112.5 97.5,-112.5"/>
<text text-anchor="middle" x="119" y="-119.5" font-family="Helvetica,sans-Serif" font-size="10.00">field.h</text>
</a>
</g>
</g>
<!-- Node2&#45;&gt;Node4 -->
<g id="edge4" class="edge"><title>Node2&#45;&gt;Node4</title>
<path fill="none" stroke="midnightblue" d="M122.339,-168.083C121.815,-161.006 121.064,-150.861 120.406,-141.986"/>
<polygon fill="midnightblue" stroke="midnightblue" points="123.877,-141.465 119.648,-131.751 116.897,-141.982 123.877,-141.465"/>
</g>
<!-- Node5 -->
<g id="node6" class="node"><title>Node5</title>
<g id="a_node6"><a xlink:href="secp256k1_2src_2util_8h.html" target="_top" xlink:title="util.h">
<polygon fill="white" stroke="black" points="100,-56.5 100,-75.5 138,-75.5 138,-56.5 100,-56.5"/>
<text text-anchor="middle" x="119" y="-63.5" font-family="Helvetica,sans-Serif" font-size="10.00">util.h</text>
</a>
</g>
</g>
<!-- Node4&#45;&gt;Node5 -->
<g id="edge5" class="edge"><title>Node4&#45;&gt;Node5</title>
<path fill="none" stroke="midnightblue" d="M119,-112.083C119,-105.006 119,-94.8611 119,-85.9865"/>
<polygon fill="midnightblue" stroke="midnightblue" points="122.5,-85.751 119,-75.7511 115.5,-85.7511 122.5,-85.751"/>
</g>
<!-- Node6 -->
<g id="node7" class="node"><title>Node6</title>
<polygon fill="white" stroke="#bfbfbf" points="28,-0.5 28,-19.5 76,-19.5 76,-0.5 28,-0.5"/>
<text text-anchor="middle" x="52" y="-7.5" font-family="Helvetica,sans-Serif" font-size="10.00">stdlib.h</text>
</g>
<!-- Node5&#45;&gt;Node6 -->
<g id="edge6" class="edge"><title>Node5&#45;&gt;Node6</title>
<path fill="none" stroke="midnightblue" d="M108.235,-56.324C98.2339,-48.2631 83.1135,-36.0765 71.0695,-26.3695"/>
<polygon fill="midnightblue" stroke="midnightblue" points="72.9429,-23.3841 62.9606,-19.8339 68.5502,-28.8343 72.9429,-23.3841"/>
</g>
<!-- Node7 -->
<g id="node8" class="node"><title>Node7</title>
<polygon fill="white" stroke="#bfbfbf" points="94.5,-0.5 94.5,-19.5 143.5,-19.5 143.5,-0.5 94.5,-0.5"/>
<text text-anchor="middle" x="119" y="-7.5" font-family="Helvetica,sans-Serif" font-size="10.00">stdint.h</text>
</g>
<!-- Node5&#45;&gt;Node7 -->
<g id="edge7" class="edge"><title>Node5&#45;&gt;Node7</title>
<path fill="none" stroke="midnightblue" d="M119,-56.083C119,-49.0059 119,-38.8611 119,-29.9865"/>
<polygon fill="midnightblue" stroke="midnightblue" points="122.5,-29.751 119,-19.7511 115.5,-29.7511 122.5,-29.751"/>
</g>
<!-- Node8 -->
<g id="node9" class="node"><title>Node8</title>
<polygon fill="white" stroke="#bfbfbf" points="162,-0.5 162,-19.5 208,-19.5 208,-0.5 162,-0.5"/>
<text text-anchor="middle" x="185" y="-7.5" font-family="Helvetica,sans-Serif" font-size="10.00">stdio.h</text>
</g>
<!-- Node5&#45;&gt;Node8 -->
<g id="edge8" class="edge"><title>Node5&#45;&gt;Node8</title>
<path fill="none" stroke="midnightblue" d="M129.604,-56.324C139.456,-48.2631 154.351,-36.0765 166.215,-26.3695"/>
<polygon fill="midnightblue" stroke="midnightblue" points="168.68,-28.8752 174.203,-19.8339 164.247,-23.4575 168.68,-28.8752"/>
</g>
<!-- Node9&#45;&gt;Node3 -->
<g id="edge10" class="edge"><title>Node9&#45;&gt;Node3</title>
<path fill="none" stroke="midnightblue" d="M221.909,-168.083C214.845,-160.298 204.412,-148.801 195.851,-139.367"/>
<polygon fill="midnightblue" stroke="midnightblue" points="198.253,-136.805 188.941,-131.751 193.069,-141.509 198.253,-136.805"/>
</g>
<!-- Node10&#45;&gt;Node2 -->
<g id="edge13" class="edge"><title>Node10&#45;&gt;Node2</title>
<path fill="none" stroke="midnightblue" d="M133.018,-224.083C131.428,-216.927 129.141,-206.635 127.154,-197.691"/>
<polygon fill="midnightblue" stroke="midnightblue" points="130.531,-196.754 124.945,-187.751 123.697,-198.272 130.531,-196.754"/>
</g>
<!-- Node10&#45;&gt;Node3 -->
<g id="edge12" class="edge"><title>Node10&#45;&gt;Node3</title>
<path fill="none" stroke="midnightblue" d="M139.205,-224.453C143.578,-215.46 150.537,-200.854 156,-188 162.577,-172.526 169.386,-154.683 174.233,-141.611"/>
<polygon fill="midnightblue" stroke="midnightblue" points="177.634,-142.503 177.796,-131.909 171.063,-140.09 177.634,-142.503"/>
</g>
<!-- Node11&#45;&gt;Node2 -->
<g id="edge16" class="edge"><title>Node11&#45;&gt;Node2</title>
<path fill="none" stroke="midnightblue" d="M202.737,-224.324C187.779,-215.822 164.745,-202.729 147.273,-192.797"/>
<polygon fill="midnightblue" stroke="midnightblue" points="148.649,-189.553 138.226,-187.655 145.19,-195.639 148.649,-189.553"/>
</g>
<!-- Node11&#45;&gt;Node9 -->
<g id="edge15" class="edge"><title>Node11&#45;&gt;Node9</title>
<path fill="none" stroke="midnightblue" d="M219.982,-224.083C221.572,-216.927 223.859,-206.635 225.846,-197.691"/>
<polygon fill="midnightblue" stroke="midnightblue" points="229.303,-198.272 228.055,-187.751 222.469,-196.754 229.303,-198.272"/>
</g>
</g>
</svg>
