<?xml version="1.0" encoding="UTF-8" standalone="no"?>
<!DOCTYPE svg PUBLIC "-//W3C//DTD SVG 1.1//EN"
 "http://www.w3.org/Graphics/SVG/1.1/DTD/svg11.dtd">
<!-- Generated by graphviz version 2.36.0 (20140111.2315)
 -->
<!-- Title: src/secp256k1/src/ecmult.h Pages: 1 -->
<svg width="201pt" height="252pt"
 viewBox="0.00 0.00 201.00 252.00" xmlns="http://www.w3.org/2000/svg" xmlns:xlink="http://www.w3.org/1999/xlink">
<g id="graph0" class="graph" transform="scale(1 1) rotate(0) translate(4 248)">
<title>src/secp256k1/src/ecmult.h</title>
<polygon fill="white" stroke="none" points="-4,4 -4,-248 197,-248 197,4 -4,4"/>
<!-- Node0 -->
<g id="node1" class="node"><title>Node0</title>
<polygon fill="#bfbfbf" stroke="black" points="-0.5,-224.5 -0.5,-243.5 136.5,-243.5 136.5,-224.5 -0.5,-224.5"/>
<text text-anchor="middle" x="68" y="-231.5" font-family="Helvetica,sans-Serif" font-size="10.00">src/secp256k1/src/ecmult.h</text>
</g>
<!-- Node1 -->
<g id="node2" class="node"><title>Node1</title>
<g id="a_node2"><a xlink:href="num_8h.html" target="_top" xlink:title="num.h">
<polygon fill="white" stroke="black" points="20,-112.5 20,-131.5 64,-131.5 64,-112.5 20,-112.5"/>
<text text-anchor="middle" x="42" y="-119.5" font-family="Helvetica,sans-Serif" font-size="10.00">num.h</text>
</a>
</g>
</g>
<!-- Node0&#45;&gt;Node1 -->
<g id="edge1" class="edge"><title>Node0&#45;&gt;Node1</title>
<path fill="none" stroke="midnightblue" d="M65.9598,-224.368C61.764,-206.617 52.0848,-165.666 46.3958,-141.597"/>
<polygon fill="midnightblue" stroke="midnightblue" points="49.7372,-140.518 44.0307,-131.591 42.9249,-142.128 49.7372,-140.518"/>
</g>
<!-- Node2 -->
<g id="node3" class="node"><title>Node2</title>
<g id="a_node3"><a xlink:href="group_8h.html" target="_top" xlink:title="group.h">
<polygon fill="white" stroke="black" points="70.5,-168.5 70.5,-187.5 119.5,-187.5 119.5,-168.5 70.5,-168.5"/>
<text text-anchor="middle" x="95" y="-175.5" font-family="Helvetica,sans-Serif" font-size="10.00">group.h</text>
</a>
</g>
</g>
<!-- Node0&#45;&gt;Node2 -->
<g id="edge2" class="edge"><title>Node0&#45;&gt;Node2</title>
<path fill="none" stroke="midnightblue" d="M72.4585,-224.083C76.1543,-216.691 81.5234,-205.953 86.0945,-196.811"/>
<polygon fill="midnightblue" stroke="midnightblue" points="89.2828,-198.261 90.6245,-187.751 83.0218,-195.13 89.2828,-198.261"/>
</g>
<!-- Node2&#45;&gt;Node1 -->
<g id="edge3" class="edge"><title>Node2&#45;&gt;Node1</title>
<path fill="none" stroke="midnightblue" d="M86.2481,-168.083C78.5303,-160.22 67.0953,-148.569 57.7835,-139.081"/>
<polygon fill="midnightblue" stroke="midnightblue" points="60.0916,-136.436 50.589,-131.751 55.0958,-141.34 60.0916,-136.436"/>
</g>
<!-- Node3 -->
<g id="node4" class="node"><title>Node3</title>
<g id="a_node4"><a xlink:href="field_8h.html" target="_top" xlink:title="field.h">
<polygon fill="white" stroke="black" points="82.5,-112.5 82.5,-131.5 125.5,-131.5 125.5,-112.5 82.5,-112.5"/>
<text text-anchor="middle" x="104" y="-119.5" font-family="Helvetica,sans-Serif" font-size="10.00">field.h</text>
</a>
</g>
</g>
<!-- Node2&#45;&gt;Node3 -->
<g id="edge4" class="edge"><title>Node2&#45;&gt;Node3</title>
<path fill="none" stroke="midnightblue" d="M96.4862,-168.083C97.6788,-160.927 99.3941,-150.635 100.885,-141.691"/>
<polygon fill="midnightblue" stroke="midnightblue" points="104.35,-142.19 102.541,-131.751 97.445,-141.04 104.35,-142.19"/>
</g>
<!-- Node4 -->
<g id="node5" class="node"><title>Node4</title>
<g id="a_node5"><a xlink:href="secp256k1_2src_2util_8h.html" target="_top" xlink:title="util.h">
<polygon fill="white" stroke="black" points="85,-56.5 85,-75.5 123,-75.5 123,-56.5 85,-56.5"/>
<text text-anchor="middle" x="104" y="-63.5" font-family="Helvetica,sans-Serif" font-size="10.00">util.h</text>
</a>
</g>
</g>
<!-- Node3&#45;&gt;Node4 -->
<g id="edge5" class="edge"><title>Node3&#45;&gt;Node4</title>
<path fill="none" stroke="midnightblue" d="M104,-112.083C104,-105.006 104,-94.8611 104,-85.9865"/>
<polygon fill="midnightblue" stroke="midnightblue" points="107.5,-85.751 104,-75.7511 100.5,-85.7511 107.5,-85.751"/>
</g>
<!-- Node5 -->
<g id="node6" class="node"><title>Node5</title>
<polygon fill="white" stroke="#bfbfbf" points="13,-0.5 13,-19.5 61,-19.5 61,-0.5 13,-0.5"/>
<text text-anchor="middle" x="37" y="-7.5" font-family="Helvetica,sans-Serif" font-size="10.00">stdlib.h</text>
</g>
<!-- Node4&#45;&gt;Node5 -->
<g id="edge6" class="edge"><title>Node4&#45;&gt;Node5</title>
<path fill="none" stroke="midnightblue" d="M93.2353,-56.324C83.2339,-48.2631 68.1135,-36.0765 56.0695,-26.3695"/>
<polygon fill="midnightblue" stroke="midnightblue" points="57.9429,-23.3841 47.9606,-19.8339 53.5502,-28.8343 57.9429,-23.3841"/>
</g>
<!-- Node6 -->
<g id="node7" class="node"><title>Node6</title>
<polygon fill="white" stroke="#bfbfbf" points="79.5,-0.5 79.5,-19.5 128.5,-19.5 128.5,-0.5 79.5,-0.5"/>
<text text-anchor="middle" x="104" y="-7.5" font-family="Helvetica,sans-Serif" font-size="10.00">stdint.h</text>
</g>
<!-- Node4&#45;&gt;Node6 -->
<g id="edge7" class="edge"><title>Node4&#45;&gt;Node6</title>
<path fill="none" stroke="midnightblue" d="M104,-56.083C104,-49.0059 104,-38.8611 104,-29.9865"/>
<polygon fill="midnightblue" stroke="midnightblue" points="107.5,-29.751 104,-19.7511 100.5,-29.7511 107.5,-29.751"/>
</g>
<!-- Node7 -->
<g id="node8" class="node"><title>Node7</title>
<polygon fill="white" stroke="#bfbfbf" points="147,-0.5 147,-19.5 193,-19.5 193,-0.5 147,-0.5"/>
<text text-anchor="middle" x="170" y="-7.5" font-family="Helvetica,sans-Serif" font-size="10.00">stdio.h</text>
</g>
<!-- Node4&#45;&gt;Node7 -->
<g id="edge8" class="edge"><title>Node4&#45;&gt;Node7</title>
<path fill="none" stroke="midnightblue" d="M114.604,-56.324C124.456,-48.2631 139.351,-36.0765 151.215,-26.3695"/>
<polygon fill="midnightblue" stroke="midnightblue" points="153.68,-28.8752 159.203,-19.8339 149.247,-23.4575 153.68,-28.8752"/>
</g>
</g>
</svg>
