<?xml version="1.0" encoding="UTF-8" standalone="no"?>
<!DOCTYPE svg PUBLIC "-//W3C//DTD SVG 1.1//EN"
 "http://www.w3.org/Graphics/SVG/1.1/DTD/svg11.dtd">
<!-- Generated by graphviz version 2.36.0 (20140111.2315)
 -->
<!-- Title: src/secp256k1/src/ecmult_gen.h Pages: 1 -->
<svg width="195pt" height="264pt"
 viewBox="0.00 0.00 195.00 264.00" xmlns="http://www.w3.org/2000/svg" xmlns:xlink="http://www.w3.org/1999/xlink">
<g id="graph0" class="graph" transform="scale(1 1) rotate(0) translate(4 260)">
<title>src/secp256k1/src/ecmult_gen.h</title>
<polygon fill="white" stroke="none" points="-4,4 -4,-260 191,-260 191,4 -4,4"/>
<!-- Node0 -->
<g id="node1" class="node"><title>Node0</title>
<polygon fill="#bfbfbf" stroke="black" points="-0.5,-225 -0.5,-255 128.5,-255 128.5,-225 -0.5,-225"/>
<text text-anchor="start" x="7.5" y="-243" font-family="Helvetica,sans-Serif" font-size="10.00">src/secp256k1/src/ecmult</text>
<text text-anchor="middle" x="64" y="-232" font-family="Helvetica,sans-Serif" font-size="10.00">_gen.h</text>
</g>
<!-- Node1 -->
<g id="node2" class="node"><title>Node1</title>
<g id="a_node2"><a xlink:href="scalar_8h.html" target="_top" xlink:title="scalar.h">
<polygon fill="white" stroke="black" points="4.5,-168.5 4.5,-187.5 55.5,-187.5 55.5,-168.5 4.5,-168.5"/>
<text text-anchor="middle" x="30" y="-175.5" font-family="Helvetica,sans-Serif" font-size="10.00">scalar.h</text>
</a>
</g>
</g>
<!-- Node0&#45;&gt;Node1 -->
<g id="edge1" class="edge"><title>Node0&#45;&gt;Node1</title>
<path fill="none" stroke="midnightblue" d="M55.9425,-224.781C51.1547,-216.332 45.0439,-205.548 39.9559,-196.569"/>
<polygon fill="midnightblue" stroke="midnightblue" points="42.9226,-194.705 34.9473,-187.731 36.8324,-198.156 42.9226,-194.705"/>
</g>
<!-- Node3 -->
<g id="node4" class="node"><title>Node3</title>
<g id="a_node4"><a xlink:href="group_8h.html" target="_top" xlink:title="group.h">
<polygon fill="white" stroke="black" points="73.5,-168.5 73.5,-187.5 122.5,-187.5 122.5,-168.5 73.5,-168.5"/>
<text text-anchor="middle" x="98" y="-175.5" font-family="Helvetica,sans-Serif" font-size="10.00">group.h</text>
</a>
</g>
</g>
<!-- Node0&#45;&gt;Node3 -->
<g id="edge3" class="edge"><title>Node0&#45;&gt;Node3</title>
<path fill="none" stroke="midnightblue" d="M72.0575,-224.781C76.8453,-216.332 82.9561,-205.548 88.0441,-196.569"/>
<polygon fill="midnightblue" stroke="midnightblue" points="91.1676,-198.156 93.0527,-187.731 85.0774,-194.705 91.1676,-198.156"/>
</g>
<!-- Node2 -->
<g id="node3" class="node"><title>Node2</title>
<g id="a_node3"><a xlink:href="num_8h.html" target="_top" xlink:title="num.h">
<polygon fill="white" stroke="black" points="11,-112.5 11,-131.5 55,-131.5 55,-112.5 11,-112.5"/>
<text text-anchor="middle" x="33" y="-119.5" font-family="Helvetica,sans-Serif" font-size="10.00">num.h</text>
</a>
</g>
</g>
<!-- Node1&#45;&gt;Node2 -->
<g id="edge2" class="edge"><title>Node1&#45;&gt;Node2</title>
<path fill="none" stroke="midnightblue" d="M30.4954,-168.083C30.8886,-161.006 31.4522,-150.861 31.9452,-141.986"/>
<polygon fill="midnightblue" stroke="midnightblue" points="35.4536,-141.93 32.5138,-131.751 28.4644,-141.542 35.4536,-141.93"/>
</g>
<!-- Node3&#45;&gt;Node2 -->
<g id="edge4" class="edge"><title>Node3&#45;&gt;Node2</title>
<path fill="none" stroke="midnightblue" d="M87.5566,-168.324C77.8538,-160.263 63.1847,-148.077 51.5003,-138.369"/>
<polygon fill="midnightblue" stroke="midnightblue" points="53.5619,-135.532 43.6334,-131.834 49.0887,-140.916 53.5619,-135.532"/>
</g>
<!-- Node4 -->
<g id="node5" class="node"><title>Node4</title>
<g id="a_node5"><a xlink:href="field_8h.html" target="_top" xlink:title="field.h">
<polygon fill="white" stroke="black" points="76.5,-112.5 76.5,-131.5 119.5,-131.5 119.5,-112.5 76.5,-112.5"/>
<text text-anchor="middle" x="98" y="-119.5" font-family="Helvetica,sans-Serif" font-size="10.00">field.h</text>
</a>
</g>
</g>
<!-- Node3&#45;&gt;Node4 -->
<g id="edge5" class="edge"><title>Node3&#45;&gt;Node4</title>
<path fill="none" stroke="midnightblue" d="M98,-168.083C98,-161.006 98,-150.861 98,-141.986"/>
<polygon fill="midnightblue" stroke="midnightblue" points="101.5,-141.751 98,-131.751 94.5001,-141.751 101.5,-141.751"/>
</g>
<!-- Node5 -->
<g id="node6" class="node"><title>Node5</title>
<g id="a_node6"><a xlink:href="secp256k1_2src_2util_8h.html" target="_top" xlink:title="util.h">
<polygon fill="white" stroke="black" points="79,-56.5 79,-75.5 117,-75.5 117,-56.5 79,-56.5"/>
<text text-anchor="middle" x="98" y="-63.5" font-family="Helvetica,sans-Serif" font-size="10.00">util.h</text>
</a>
</g>
</g>
<!-- Node4&#45;&gt;Node5 -->
<g id="edge6" class="edge"><title>Node4&#45;&gt;Node5</title>
<path fill="none" stroke="midnightblue" d="M98,-112.083C98,-105.006 98,-94.8611 98,-85.9865"/>
<polygon fill="midnightblue" stroke="midnightblue" points="101.5,-85.751 98,-75.7511 94.5001,-85.7511 101.5,-85.751"/>
</g>
<!-- Node6 -->
<g id="node7" class="node"><title>Node6</title>
<polygon fill="white" stroke="#bfbfbf" points="7,-0.5 7,-19.5 55,-19.5 55,-0.5 7,-0.5"/>
<text text-anchor="middle" x="31" y="-7.5" font-family="Helvetica,sans-Serif" font-size="10.00">stdlib.h</text>
</g>
<!-- Node5&#45;&gt;Node6 -->
<g id="edge7" class="edge"><title>Node5&#45;&gt;Node6</title>
<path fill="none" stroke="midnightblue" d="M87.2353,-56.324C77.2339,-48.2631 62.1135,-36.0765 50.0695,-26.3695"/>
<polygon fill="midnightblue" stroke="midnightblue" points="51.9429,-23.3841 41.9606,-19.8339 47.5502,-28.8343 51.9429,-23.3841"/>
</g>
<!-- Node7 -->
<g id="node8" class="node"><title>Node7</title>
<polygon fill="white" stroke="#bfbfbf" points="73.5,-0.5 73.5,-19.5 122.5,-19.5 122.5,-0.5 73.5,-0.5"/>
<text text-anchor="middle" x="98" y="-7.5" font-family="Helvetica,sans-Serif" font-size="10.00">stdint.h</text>
</g>
<!-- Node5&#45;&gt;Node7 -->
<g id="edge8" class="edge"><title>Node5&#45;&gt;Node7</title>
<path fill="none" stroke="midnightblue" d="M98,-56.083C98,-49.0059 98,-38.8611 98,-29.9865"/>
<polygon fill="midnightblue" stroke="midnightblue" points="101.5,-29.751 98,-19.7511 94.5001,-29.7511 101.5,-29.751"/>
</g>
<!-- Node8 -->
<g id="node9" class="node"><title>Node8</title>
<polygon fill="white" stroke="#bfbfbf" points="141,-0.5 141,-19.5 187,-19.5 187,-0.5 141,-0.5"/>
<text text-anchor="middle" x="164" y="-7.5" font-family="Helvetica,sans-Serif" font-size="10.00">stdio.h</text>
</g>
<!-- Node5&#45;&gt;Node8 -->
<g id="edge9" class="edge"><title>Node5&#45;&gt;Node8</title>
<path fill="none" stroke="midnightblue" d="M108.604,-56.324C118.456,-48.2631 133.351,-36.0765 145.215,-26.3695"/>
<polygon fill="midnightblue" stroke="midnightblue" points="147.68,-28.8752 153.203,-19.8339 143.247,-23.4575 147.68,-28.8752"/>
</g>
</g>
</svg>
