<?xml version="1.0" encoding="UTF-8" standalone="no"?>
<!DOCTYPE svg PUBLIC "-//W3C//DTD SVG 1.1//EN"
 "http://www.w3.org/Graphics/SVG/1.1/DTD/svg11.dtd">
<!-- Generated by graphviz version 2.36.0 (20140111.2315)
 -->
<!-- Title: src/secp256k1/src/ecmult_const_impl.h Pages: 1 -->
<svg width="285pt" height="376pt"
 viewBox="0.00 0.00 285.16 376.00" xmlns="http://www.w3.org/2000/svg" xmlns:xlink="http://www.w3.org/1999/xlink">
<g id="graph0" class="graph" transform="scale(1 1) rotate(0) translate(4 372)">
<title>src/secp256k1/src/ecmult_const_impl.h</title>
<polygon fill="white" stroke="none" points="-4,4 -4,-372 281.157,-372 281.157,4 -4,4"/>
<!-- Node0 -->
<g id="node1" class="node"><title>Node0</title>
<polygon fill="#bfbfbf" stroke="black" points="69.5,-337 69.5,-367 198.5,-367 198.5,-337 69.5,-337"/>
<text text-anchor="start" x="77.5" y="-355" font-family="Helvetica,sans-Serif" font-size="10.00">src/secp256k1/src/ecmult</text>
<text text-anchor="middle" x="134" y="-344" font-family="Helvetica,sans-Serif" font-size="10.00">_const_impl.h</text>
</g>
<!-- Node1 -->
<g id="node2" class="node"><title>Node1</title>
<g id="a_node2"><a xlink:href="scalar_8h.html" target="_top" xlink:title="scalar.h">
<polygon fill="white" stroke="black" points="-0.5,-224.5 -0.5,-243.5 50.5,-243.5 50.5,-224.5 -0.5,-224.5"/>
<text text-anchor="middle" x="25" y="-231.5" font-family="Helvetica,sans-Serif" font-size="10.00">scalar.h</text>
</a>
</g>
</g>
<!-- Node0&#45;&gt;Node1 -->
<g id="edge1" class="edge"><title>Node0&#45;&gt;Node1</title>
<path fill="none" stroke="midnightblue" d="M85.1304,-336.985C66.2716,-329.124 46.3147,-317.309 34,-300 24.6094,-286.801 22.8738,-268.212 23.1867,-254.292"/>
<polygon fill="midnightblue" stroke="midnightblue" points="26.7038,-254.11 23.8082,-243.919 19.7163,-253.691 26.7038,-254.11"/>
</g>
<!-- Node3 -->
<g id="node4" class="node"><title>Node3</title>
<g id="a_node4"><a xlink:href="group_8h.html" target="_top" xlink:title="group.h">
<polygon fill="white" stroke="black" points="136.5,-168.5 136.5,-187.5 185.5,-187.5 185.5,-168.5 136.5,-168.5"/>
<text text-anchor="middle" x="161" y="-175.5" font-family="Helvetica,sans-Serif" font-size="10.00">group.h</text>
</a>
</g>
</g>
<!-- Node0&#45;&gt;Node3 -->
<g id="edge3" class="edge"><title>Node0&#45;&gt;Node3</title>
<path fill="none" stroke="midnightblue" d="M171.389,-336.861C207.359,-320.769 258.624,-290.523 275,-244 287.792,-207.66 233.943,-190.967 195.911,-183.822"/>
<polygon fill="midnightblue" stroke="midnightblue" points="196.122,-180.307 185.672,-182.052 194.929,-187.205 196.122,-180.307"/>
</g>
<!-- Node9 -->
<g id="node10" class="node"><title>Node9</title>
<g id="a_node10"><a xlink:href="ecmult__const_8h.html" target="_top" xlink:title="ecmult_const.h">
<polygon fill="white" stroke="black" points="43.5,-280.5 43.5,-299.5 126.5,-299.5 126.5,-280.5 43.5,-280.5"/>
<text text-anchor="middle" x="85" y="-287.5" font-family="Helvetica,sans-Serif" font-size="10.00">ecmult_const.h</text>
</a>
</g>
</g>
<!-- Node0&#45;&gt;Node9 -->
<g id="edge10" class="edge"><title>Node0&#45;&gt;Node9</title>
<path fill="none" stroke="midnightblue" d="M122.388,-336.781C115.267,-328.062 106.117,-316.857 98.6508,-307.715"/>
<polygon fill="midnightblue" stroke="midnightblue" points="101.166,-305.262 92.1299,-299.731 95.7444,-309.69 101.166,-305.262"/>
</g>
<!-- Node10 -->
<g id="node11" class="node"><title>Node10</title>
<g id="a_node11"><a xlink:href="ecmult__impl_8h.html" target="_top" xlink:title="ecmult_impl.h">
<polygon fill="white" stroke="black" points="144.5,-280.5 144.5,-299.5 221.5,-299.5 221.5,-280.5 144.5,-280.5"/>
<text text-anchor="middle" x="183" y="-287.5" font-family="Helvetica,sans-Serif" font-size="10.00">ecmult_impl.h</text>
</a>
</g>
</g>
<!-- Node0&#45;&gt;Node10 -->
<g id="edge13" class="edge"><title>Node0&#45;&gt;Node10</title>
<path fill="none" stroke="midnightblue" d="M145.612,-336.781C152.733,-328.062 161.883,-316.857 169.349,-307.715"/>
<polygon fill="midnightblue" stroke="midnightblue" points="172.256,-309.69 175.87,-299.731 166.834,-305.262 172.256,-309.69"/>
</g>
<!-- Node2 -->
<g id="node3" class="node"><title>Node2</title>
<g id="a_node3"><a xlink:href="num_8h.html" target="_top" xlink:title="num.h">
<polygon fill="white" stroke="black" points="81,-112.5 81,-131.5 125,-131.5 125,-112.5 81,-112.5"/>
<text text-anchor="middle" x="103" y="-119.5" font-family="Helvetica,sans-Serif" font-size="10.00">num.h</text>
</a>
</g>
</g>
<!-- Node1&#45;&gt;Node2 -->
<g id="edge2" class="edge"><title>Node1&#45;&gt;Node2</title>
<path fill="none" stroke="midnightblue" d="M31.1205,-224.368C43.9928,-206.215 74.068,-163.802 90.9524,-139.99"/>
<polygon fill="midnightblue" stroke="midnightblue" points="93.9786,-141.773 96.9079,-131.591 88.2685,-137.724 93.9786,-141.773"/>
</g>
<!-- Node3&#45;&gt;Node2 -->
<g id="edge4" class="edge"><title>Node3&#45;&gt;Node2</title>
<path fill="none" stroke="midnightblue" d="M151.681,-168.324C143.107,-160.341 130.188,-148.313 119.812,-138.653"/>
<polygon fill="midnightblue" stroke="midnightblue" points="122.192,-136.086 112.488,-131.834 117.422,-141.21 122.192,-136.086"/>
</g>
<!-- Node4 -->
<g id="node5" class="node"><title>Node4</title>
<g id="a_node5"><a xlink:href="field_8h.html" target="_top" xlink:title="field.h">
<polygon fill="white" stroke="black" points="143.5,-112.5 143.5,-131.5 186.5,-131.5 186.5,-112.5 143.5,-112.5"/>
<text text-anchor="middle" x="165" y="-119.5" font-family="Helvetica,sans-Serif" font-size="10.00">field.h</text>
</a>
</g>
</g>
<!-- Node3&#45;&gt;Node4 -->
<g id="edge5" class="edge"><title>Node3&#45;&gt;Node4</title>
<path fill="none" stroke="midnightblue" d="M161.661,-168.083C162.185,-161.006 162.936,-150.861 163.594,-141.986"/>
<polygon fill="midnightblue" stroke="midnightblue" points="167.103,-141.982 164.352,-131.751 160.123,-141.465 167.103,-141.982"/>
</g>
<!-- Node5 -->
<g id="node6" class="node"><title>Node5</title>
<g id="a_node6"><a xlink:href="secp256k1_2src_2util_8h.html" target="_top" xlink:title="util.h">
<polygon fill="white" stroke="black" points="146,-56.5 146,-75.5 184,-75.5 184,-56.5 146,-56.5"/>
<text text-anchor="middle" x="165" y="-63.5" font-family="Helvetica,sans-Serif" font-size="10.00">util.h</text>
</a>
</g>
</g>
<!-- Node4&#45;&gt;Node5 -->
<g id="edge6" class="edge"><title>Node4&#45;&gt;Node5</title>
<path fill="none" stroke="midnightblue" d="M165,-112.083C165,-105.006 165,-94.8611 165,-85.9865"/>
<polygon fill="midnightblue" stroke="midnightblue" points="168.5,-85.751 165,-75.7511 161.5,-85.7511 168.5,-85.751"/>
</g>
<!-- Node6 -->
<g id="node7" class="node"><title>Node6</title>
<polygon fill="white" stroke="#bfbfbf" points="74,-0.5 74,-19.5 122,-19.5 122,-0.5 74,-0.5"/>
<text text-anchor="middle" x="98" y="-7.5" font-family="Helvetica,sans-Serif" font-size="10.00">stdlib.h</text>
</g>
<!-- Node5&#45;&gt;Node6 -->
<g id="edge7" class="edge"><title>Node5&#45;&gt;Node6</title>
<path fill="none" stroke="midnightblue" d="M154.235,-56.324C144.234,-48.2631 129.113,-36.0765 117.07,-26.3695"/>
<polygon fill="midnightblue" stroke="midnightblue" points="118.943,-23.3841 108.961,-19.8339 114.55,-28.8343 118.943,-23.3841"/>
</g>
<!-- Node7 -->
<g id="node8" class="node"><title>Node7</title>
<polygon fill="white" stroke="#bfbfbf" points="140.5,-0.5 140.5,-19.5 189.5,-19.5 189.5,-0.5 140.5,-0.5"/>
<text text-anchor="middle" x="165" y="-7.5" font-family="Helvetica,sans-Serif" font-size="10.00">stdint.h</text>
</g>
<!-- Node5&#45;&gt;Node7 -->
<g id="edge8" class="edge"><title>Node5&#45;&gt;Node7</title>
<path fill="none" stroke="midnightblue" d="M165,-56.083C165,-49.0059 165,-38.8611 165,-29.9865"/>
<polygon fill="midnightblue" stroke="midnightblue" points="168.5,-29.751 165,-19.7511 161.5,-29.7511 168.5,-29.751"/>
</g>
<!-- Node8 -->
<g id="node9" class="node"><title>Node8</title>
<polygon fill="white" stroke="#bfbfbf" points="208,-0.5 208,-19.5 254,-19.5 254,-0.5 208,-0.5"/>
<text text-anchor="middle" x="231" y="-7.5" font-family="Helvetica,sans-Serif" font-size="10.00">stdio.h</text>
</g>
<!-- Node5&#45;&gt;Node8 -->
<g id="edge9" class="edge"><title>Node5&#45;&gt;Node8</title>
<path fill="none" stroke="midnightblue" d="M175.604,-56.324C185.456,-48.2631 200.351,-36.0765 212.215,-26.3695"/>
<polygon fill="midnightblue" stroke="midnightblue" points="214.68,-28.8752 220.203,-19.8339 210.247,-23.4575 214.68,-28.8752"/>
</g>
<!-- Node9&#45;&gt;Node1 -->
<g id="edge11" class="edge"><title>Node9&#45;&gt;Node1</title>
<path fill="none" stroke="midnightblue" d="M75.36,-280.324C66.4904,-272.341 53.1253,-260.313 42.3921,-250.653"/>
<polygon fill="midnightblue" stroke="midnightblue" points="44.5898,-247.922 34.8154,-243.834 39.907,-253.125 44.5898,-247.922"/>
</g>
<!-- Node9&#45;&gt;Node3 -->
<g id="edge12" class="edge"><title>Node9&#45;&gt;Node3</title>
<path fill="none" stroke="midnightblue" d="M84.78,-280.255C84.8547,-267.021 86.6275,-241.589 98,-224 106.633,-210.648 120.739,-200.028 133.417,-192.465"/>
<polygon fill="midnightblue" stroke="midnightblue" points="135.274,-195.436 142.297,-187.503 131.86,-189.325 135.274,-195.436"/>
</g>
<!-- Node10&#45;&gt;Node1 -->
<g id="edge16" class="edge"><title>Node10&#45;&gt;Node1</title>
<path fill="none" stroke="midnightblue" d="M157.964,-280.444C131.384,-271.359 89.1912,-256.939 59.4766,-246.783"/>
<polygon fill="midnightblue" stroke="midnightblue" points="60.513,-243.439 49.9184,-243.516 58.2491,-250.062 60.513,-243.439"/>
</g>
<!-- Node10&#45;&gt;Node3 -->
<g id="edge15" class="edge"><title>Node10&#45;&gt;Node3</title>
<path fill="none" stroke="midnightblue" d="M181.274,-280.368C177.723,-262.617 169.533,-221.666 164.719,-197.597"/>
<polygon fill="midnightblue" stroke="midnightblue" points="168.112,-196.711 162.718,-187.591 161.247,-198.084 168.112,-196.711"/>
</g>
<!-- Node11 -->
<g id="node12" class="node"><title>Node11</title>
<polygon fill="white" stroke="#bfbfbf" points="217.5,-224.5 217.5,-243.5 266.5,-243.5 266.5,-224.5 217.5,-224.5"/>
<text text-anchor="middle" x="242" y="-231.5" font-family="Helvetica,sans-Serif" font-size="10.00">string.h</text>
</g>
<!-- Node10&#45;&gt;Node11 -->
<g id="edge14" class="edge"><title>Node10&#45;&gt;Node11</title>
<path fill="none" stroke="midnightblue" d="M192.479,-280.324C201.201,-272.341 214.343,-260.313 224.898,-250.653"/>
<polygon fill="midnightblue" stroke="midnightblue" points="227.334,-253.167 232.348,-243.834 222.608,-248.004 227.334,-253.167"/>
</g>
<!-- Node12 -->
<g id="node13" class="node"><title>Node12</title>
<g id="a_node13"><a xlink:href="ecmult_8h.html" target="_top" xlink:title="ecmult.h">
<polygon fill="white" stroke="black" points="107,-224.5 107,-243.5 161,-243.5 161,-224.5 107,-224.5"/>
<text text-anchor="middle" x="134" y="-231.5" font-family="Helvetica,sans-Serif" font-size="10.00">ecmult.h</text>
</a>
</g>
</g>
<!-- Node10&#45;&gt;Node12 -->
<g id="edge17" class="edge"><title>Node10&#45;&gt;Node12</title>
<path fill="none" stroke="midnightblue" d="M174.909,-280.083C167.845,-272.298 157.412,-260.801 148.851,-251.367"/>
<polygon fill="midnightblue" stroke="midnightblue" points="151.253,-248.805 141.941,-243.751 146.069,-253.509 151.253,-248.805"/>
</g>
<!-- Node12&#45;&gt;Node2 -->
<g id="edge18" class="edge"><title>Node12&#45;&gt;Node2</title>
<path fill="none" stroke="midnightblue" d="M131.567,-224.368C126.542,-206.537 114.92,-165.295 108.149,-141.272"/>
<polygon fill="midnightblue" stroke="midnightblue" points="111.503,-140.267 105.421,-131.591 104.765,-142.166 111.503,-140.267"/>
</g>
<!-- Node12&#45;&gt;Node3 -->
<g id="edge19" class="edge"><title>Node12&#45;&gt;Node3</title>
<path fill="none" stroke="midnightblue" d="M138.459,-224.083C142.154,-216.691 147.523,-205.953 152.094,-196.811"/>
<polygon fill="midnightblue" stroke="midnightblue" points="155.283,-198.261 156.624,-187.751 149.022,-195.13 155.283,-198.261"/>
</g>
</g>
</svg>
