<?xml version="1.0" encoding="UTF-8" standalone="no"?>
<!DOCTYPE svg PUBLIC "-//W3C//DTD SVG 1.1//EN"
 "http://www.w3.org/Graphics/SVG/1.1/DTD/svg11.dtd">
<!-- Generated by graphviz version 2.36.0 (20140111.2315)
 -->
<!-- Title: src/qt/editaddressdialog.cpp Pages: 1 -->
<svg width="1383pt" height="364pt"
 viewBox="0.00 0.00 1383.00 364.00" xmlns="http://www.w3.org/2000/svg" xmlns:xlink="http://www.w3.org/1999/xlink">
<g id="graph0" class="graph" transform="scale(1 1) rotate(0) translate(4 360)">
<title>src/qt/editaddressdialog.cpp</title>
<polygon fill="white" stroke="none" points="-4,4 -4,-360 1379,-360 1379,4 -4,4"/>
<!-- Node0 -->
<g id="node1" class="node"><title>Node0</title>
<polygon fill="#bfbfbf" stroke="black" points="274.5,-336.5 274.5,-355.5 413.5,-355.5 413.5,-336.5 274.5,-336.5"/>
<text text-anchor="middle" x="344" y="-343.5" font-family="Helvetica,sans-Serif" font-size="10.00">src/qt/editaddressdialog.cpp</text>
</g>
<!-- Node1 -->
<g id="node2" class="node"><title>Node1</title>
<g id="a_node2"><a xlink:href="editaddressdialog_8h.html" target="_top" xlink:title="editaddressdialog.h">
<polygon fill="white" stroke="black" points="-0.5,-280.5 -0.5,-299.5 100.5,-299.5 100.5,-280.5 -0.5,-280.5"/>
<text text-anchor="middle" x="50" y="-287.5" font-family="Helvetica,sans-Serif" font-size="10.00">editaddressdialog.h</text>
</a>
</g>
</g>
<!-- Node0&#45;&gt;Node1 -->
<g id="edge1" class="edge"><title>Node0&#45;&gt;Node1</title>
<path fill="none" stroke="midnightblue" d="M297.415,-336.444C245.59,-326.925 161.868,-311.547 106.385,-301.356"/>
<polygon fill="midnightblue" stroke="midnightblue" points="106.835,-297.881 96.3672,-299.516 105.57,-304.765 106.835,-297.881"/>
</g>
<!-- Node3 -->
<g id="node4" class="node"><title>Node3</title>
<polygon fill="white" stroke="#bfbfbf" points="118.5,-280.5 118.5,-299.5 231.5,-299.5 231.5,-280.5 118.5,-280.5"/>
<text text-anchor="middle" x="175" y="-287.5" font-family="Helvetica,sans-Serif" font-size="10.00">ui_editaddressdialog.h</text>
</g>
<!-- Node0&#45;&gt;Node3 -->
<g id="edge3" class="edge"><title>Node0&#45;&gt;Node3</title>
<path fill="none" stroke="midnightblue" d="M317.221,-336.444C288.667,-327.32 243.267,-312.813 211.463,-302.651"/>
<polygon fill="midnightblue" stroke="midnightblue" points="212.244,-299.226 201.653,-299.516 210.114,-305.894 212.244,-299.226"/>
</g>
<!-- Node4 -->
<g id="node5" class="node"><title>Node4</title>
<g id="a_node5"><a xlink:href="addresstablemodel_8h.html" target="_top" xlink:title="addresstablemodel.h">
<polygon fill="white" stroke="black" points="249.5,-280.5 249.5,-299.5 356.5,-299.5 356.5,-280.5 249.5,-280.5"/>
<text text-anchor="middle" x="303" y="-287.5" font-family="Helvetica,sans-Serif" font-size="10.00">addresstablemodel.h</text>
</a>
</g>
</g>
<!-- Node0&#45;&gt;Node4 -->
<g id="edge4" class="edge"><title>Node0&#45;&gt;Node4</title>
<path fill="none" stroke="midnightblue" d="M337.23,-336.083C331.438,-328.455 322.942,-317.264 315.862,-307.941"/>
<polygon fill="midnightblue" stroke="midnightblue" points="318.479,-305.599 309.644,-299.751 312.904,-309.832 318.479,-305.599"/>
</g>
<!-- Node7 -->
<g id="node8" class="node"><title>Node7</title>
<g id="a_node8"><a xlink:href="guiutil_8h.html" target="_top" xlink:title="guiutil.h">
<polygon fill="white" stroke="black" points="656,-280.5 656,-299.5 706,-299.5 706,-280.5 656,-280.5"/>
<text text-anchor="middle" x="681" y="-287.5" font-family="Helvetica,sans-Serif" font-size="10.00">guiutil.h</text>
</a>
</g>
</g>
<!-- Node0&#45;&gt;Node7 -->
<g id="edge7" class="edge"><title>Node0&#45;&gt;Node7</title>
<path fill="none" stroke="midnightblue" d="M397.399,-336.444C466.907,-325.306 586.47,-306.147 645.67,-296.661"/>
<polygon fill="midnightblue" stroke="midnightblue" points="646.336,-300.099 655.656,-295.061 645.228,-293.187 646.336,-300.099"/>
</g>
<!-- Node30 -->
<g id="node31" class="node"><title>Node30</title>
<polygon fill="white" stroke="#bfbfbf" points="344.5,-224.5 344.5,-243.5 425.5,-243.5 425.5,-224.5 344.5,-224.5"/>
<text text-anchor="middle" x="385" y="-231.5" font-family="Helvetica,sans-Serif" font-size="10.00">QMessageBox</text>
</g>
<!-- Node0&#45;&gt;Node30 -->
<g id="edge45" class="edge"><title>Node0&#45;&gt;Node30</title>
<path fill="none" stroke="midnightblue" d="M348.553,-336.192C353.079,-327.233 360.043,-312.873 365,-300 370.966,-284.506 376.413,-266.42 380.11,-253.266"/>
<polygon fill="midnightblue" stroke="midnightblue" points="383.508,-254.111 382.778,-243.541 376.757,-252.259 383.508,-254.111"/>
</g>
<!-- Node37 -->
<g id="node38" class="node"><title>Node37</title>
<polygon fill="white" stroke="#bfbfbf" points="724,-280.5 724,-299.5 832,-299.5 832,-280.5 724,-280.5"/>
<text text-anchor="middle" x="778" y="-287.5" font-family="Helvetica,sans-Serif" font-size="10.00">QDataWidgetMapper</text>
</g>
<!-- Node0&#45;&gt;Node37 -->
<g id="edge44" class="edge"><title>Node0&#45;&gt;Node37</title>
<path fill="none" stroke="midnightblue" d="M413.801,-336.98C486.229,-328.558 603.06,-314.688 713.713,-300.148"/>
<polygon fill="midnightblue" stroke="midnightblue" points="714.257,-303.607 723.714,-298.83 713.342,-296.667 714.257,-303.607"/>
</g>
<!-- Node2 -->
<g id="node3" class="node"><title>Node2</title>
<polygon fill="white" stroke="#bfbfbf" points="24,-224.5 24,-243.5 76,-243.5 76,-224.5 24,-224.5"/>
<text text-anchor="middle" x="50" y="-231.5" font-family="Helvetica,sans-Serif" font-size="10.00">QDialog</text>
</g>
<!-- Node1&#45;&gt;Node2 -->
<g id="edge2" class="edge"><title>Node1&#45;&gt;Node2</title>
<path fill="none" stroke="midnightblue" d="M50,-280.083C50,-273.006 50,-262.861 50,-253.986"/>
<polygon fill="midnightblue" stroke="midnightblue" points="53.5001,-253.751 50,-243.751 46.5001,-253.751 53.5001,-253.751"/>
</g>
<!-- Node5 -->
<g id="node6" class="node"><title>Node5</title>
<polygon fill="white" stroke="#bfbfbf" points="215.5,-224.5 215.5,-243.5 326.5,-243.5 326.5,-224.5 215.5,-224.5"/>
<text text-anchor="middle" x="271" y="-231.5" font-family="Helvetica,sans-Serif" font-size="10.00">QAbstractTableModel</text>
</g>
<!-- Node4&#45;&gt;Node5 -->
<g id="edge5" class="edge"><title>Node4&#45;&gt;Node5</title>
<path fill="none" stroke="midnightblue" d="M297.716,-280.083C293.289,-272.613 286.837,-261.724 281.382,-252.52"/>
<polygon fill="midnightblue" stroke="midnightblue" points="284.295,-250.57 276.186,-243.751 278.273,-254.138 284.295,-250.57"/>
</g>
<!-- Node6 -->
<g id="node7" class="node"><title>Node6</title>
<polygon fill="white" stroke="#bfbfbf" points="132.5,-224.5 132.5,-243.5 197.5,-243.5 197.5,-224.5 132.5,-224.5"/>
<text text-anchor="middle" x="165" y="-231.5" font-family="Helvetica,sans-Serif" font-size="10.00">QStringList</text>
</g>
<!-- Node4&#45;&gt;Node6 -->
<g id="edge6" class="edge"><title>Node4&#45;&gt;Node6</title>
<path fill="none" stroke="midnightblue" d="M281.133,-280.444C258.221,-271.478 222.025,-257.314 196.134,-247.183"/>
<polygon fill="midnightblue" stroke="midnightblue" points="197.352,-243.901 186.764,-243.516 194.801,-250.42 197.352,-243.901"/>
</g>
<!-- Node8 -->
<g id="node9" class="node"><title>Node8</title>
<g id="a_node9"><a xlink:href="amount_8h.html" target="_top" xlink:title="amount.h">
<polygon fill="white" stroke="black" points="886.5,-224.5 886.5,-243.5 943.5,-243.5 943.5,-224.5 886.5,-224.5"/>
<text text-anchor="middle" x="915" y="-231.5" font-family="Helvetica,sans-Serif" font-size="10.00">amount.h</text>
</a>
</g>
</g>
<!-- Node7&#45;&gt;Node8 -->
<g id="edge8" class="edge"><title>Node7&#45;&gt;Node8</title>
<path fill="none" stroke="midnightblue" d="M706.222,-282.203C709.177,-281.443 712.152,-280.693 715,-280 783.585,-263.309 803.429,-260.705 876.239,-244.142"/>
<polygon fill="midnightblue" stroke="midnightblue" points="877.408,-247.465 886.376,-241.824 875.847,-240.642 877.408,-247.465"/>
</g>
<!-- Node28 -->
<g id="node29" class="node"><title>Node28</title>
<polygon fill="white" stroke="#bfbfbf" points="962,-224.5 962,-243.5 1012,-243.5 1012,-224.5 962,-224.5"/>
<text text-anchor="middle" x="987" y="-231.5" font-family="Helvetica,sans-Serif" font-size="10.00">QEvent</text>
</g>
<!-- Node7&#45;&gt;Node28 -->
<g id="edge35" class="edge"><title>Node7&#45;&gt;Node28</title>
<path fill="none" stroke="midnightblue" d="M706.179,-282.011C709.141,-281.285 712.13,-280.596 715,-280 819.316,-258.337 847.608,-265.294 952,-244 952.1,-243.98 952.2,-243.959 952.3,-243.939"/>
<polygon fill="midnightblue" stroke="midnightblue" points="952.847,-247.403 961.835,-241.795 951.311,-240.574 952.847,-247.403"/>
</g>
<!-- Node29 -->
<g id="node30" class="node"><title>Node29</title>
<polygon fill="white" stroke="#bfbfbf" points="1030.5,-224.5 1030.5,-243.5 1107.5,-243.5 1107.5,-224.5 1030.5,-224.5"/>
<text text-anchor="middle" x="1069" y="-231.5" font-family="Helvetica,sans-Serif" font-size="10.00">QHeaderView</text>
</g>
<!-- Node7&#45;&gt;Node29 -->
<g id="edge36" class="edge"><title>Node7&#45;&gt;Node29</title>
<path fill="none" stroke="midnightblue" d="M706.16,-281.915C709.126,-281.206 712.121,-280.548 715,-280 846.374,-255.015 883.879,-264.171 1020.27,-244.001"/>
<polygon fill="midnightblue" stroke="midnightblue" points="1020.9,-247.446 1030.27,-242.497 1019.86,-240.524 1020.9,-247.446"/>
</g>
<!-- Node7&#45;&gt;Node30 -->
<g id="edge37" class="edge"><title>Node7&#45;&gt;Node30</title>
<path fill="none" stroke="midnightblue" d="M655.763,-284.396C607.06,-275.511 499.284,-255.849 435.369,-244.189"/>
<polygon fill="midnightblue" stroke="midnightblue" points="435.969,-240.741 425.503,-242.389 434.713,-247.627 435.969,-240.741"/>
</g>
<!-- Node31 -->
<g id="node32" class="node"><title>Node31</title>
<polygon fill="white" stroke="#bfbfbf" points="1125.5,-224.5 1125.5,-243.5 1178.5,-243.5 1178.5,-224.5 1125.5,-224.5"/>
<text text-anchor="middle" x="1152" y="-231.5" font-family="Helvetica,sans-Serif" font-size="10.00">QObject</text>
</g>
<!-- Node7&#45;&gt;Node31 -->
<g id="edge38" class="edge"><title>Node7&#45;&gt;Node31</title>
<path fill="none" stroke="midnightblue" d="M706.146,-281.836C709.114,-281.142 712.113,-280.508 715,-280 888.048,-249.555 937.77,-272.912 1115.42,-243.81"/>
<polygon fill="midnightblue" stroke="midnightblue" points="1116.07,-247.25 1125.36,-242.15 1114.92,-240.346 1116.07,-247.25"/>
</g>
<!-- Node32 -->
<g id="node33" class="node"><title>Node32</title>
<polygon fill="white" stroke="#bfbfbf" points="444,-224.5 444,-243.5 522,-243.5 522,-224.5 444,-224.5"/>
<text text-anchor="middle" x="483" y="-231.5" font-family="Helvetica,sans-Serif" font-size="10.00">QProgressBar</text>
</g>
<!-- Node7&#45;&gt;Node32 -->
<g id="edge39" class="edge"><title>Node7&#45;&gt;Node32</title>
<path fill="none" stroke="midnightblue" d="M655.923,-282.161C622.731,-273.108 563.782,-257.031 524.051,-246.196"/>
<polygon fill="midnightblue" stroke="midnightblue" points="524.959,-242.816 514.391,-243.561 523.117,-249.569 524.959,-242.816"/>
</g>
<!-- Node33 -->
<g id="node34" class="node"><title>Node33</title>
<polygon fill="white" stroke="#bfbfbf" points="540,-224.5 540,-243.5 590,-243.5 590,-224.5 540,-224.5"/>
<text text-anchor="middle" x="565" y="-231.5" font-family="Helvetica,sans-Serif" font-size="10.00">QString</text>
</g>
<!-- Node7&#45;&gt;Node33 -->
<g id="edge40" class="edge"><title>Node7&#45;&gt;Node33</title>
<path fill="none" stroke="midnightblue" d="M662.619,-280.444C643.784,-271.675 614.269,-257.935 592.621,-247.858"/>
<polygon fill="midnightblue" stroke="midnightblue" points="593.838,-244.564 583.295,-243.516 590.883,-250.91 593.838,-244.564"/>
</g>
<!-- Node34 -->
<g id="node35" class="node"><title>Node34</title>
<polygon fill="white" stroke="#bfbfbf" points="608,-224.5 608,-243.5 678,-243.5 678,-224.5 608,-224.5"/>
<text text-anchor="middle" x="643" y="-231.5" font-family="Helvetica,sans-Serif" font-size="10.00">QTableView</text>
</g>
<!-- Node7&#45;&gt;Node34 -->
<g id="edge41" class="edge"><title>Node7&#45;&gt;Node34</title>
<path fill="none" stroke="midnightblue" d="M674.725,-280.083C669.358,-272.455 661.482,-261.264 654.921,-251.941"/>
<polygon fill="midnightblue" stroke="midnightblue" points="657.775,-249.915 649.158,-243.751 652.051,-253.943 657.775,-249.915"/>
</g>
<!-- Node35 -->
<g id="node36" class="node"><title>Node35</title>
<polygon fill="white" stroke="#bfbfbf" points="696.5,-224.5 696.5,-243.5 743.5,-243.5 743.5,-224.5 696.5,-224.5"/>
<text text-anchor="middle" x="720" y="-231.5" font-family="Helvetica,sans-Serif" font-size="10.00">QLabel</text>
</g>
<!-- Node7&#45;&gt;Node35 -->
<g id="edge42" class="edge"><title>Node7&#45;&gt;Node35</title>
<path fill="none" stroke="midnightblue" d="M687.44,-280.083C692.949,-272.455 701.031,-261.264 707.765,-251.941"/>
<polygon fill="midnightblue" stroke="midnightblue" points="710.662,-253.907 713.68,-243.751 704.987,-249.809 710.662,-253.907"/>
</g>
<!-- Node36 -->
<g id="node37" class="node"><title>Node36</title>
<polygon fill="white" stroke="#bfbfbf" points="761.5,-224.5 761.5,-243.5 868.5,-243.5 868.5,-224.5 761.5,-224.5"/>
<text text-anchor="middle" x="815" y="-231.5" font-family="Helvetica,sans-Serif" font-size="10.00">boost/filesystem.hpp</text>
</g>
<!-- Node7&#45;&gt;Node36 -->
<g id="edge43" class="edge"><title>Node7&#45;&gt;Node36</title>
<path fill="none" stroke="midnightblue" d="M702.233,-280.444C724.384,-271.517 759.319,-257.439 784.436,-247.317"/>
<polygon fill="midnightblue" stroke="midnightblue" points="785.9,-250.501 793.867,-243.516 783.283,-244.008 785.9,-250.501"/>
</g>
<!-- Node9 -->
<g id="node10" class="node"><title>Node9</title>
<g id="a_node10"><a xlink:href="serialize_8h.html" target="_top" xlink:title="serialize.h">
<polygon fill="white" stroke="black" points="884.5,-168.5 884.5,-187.5 945.5,-187.5 945.5,-168.5 884.5,-168.5"/>
<text text-anchor="middle" x="915" y="-175.5" font-family="Helvetica,sans-Serif" font-size="10.00">serialize.h</text>
</a>
</g>
</g>
<!-- Node8&#45;&gt;Node9 -->
<g id="edge9" class="edge"><title>Node8&#45;&gt;Node9</title>
<path fill="none" stroke="midnightblue" d="M915,-224.083C915,-217.006 915,-206.861 915,-197.986"/>
<polygon fill="midnightblue" stroke="midnightblue" points="918.5,-197.751 915,-187.751 911.5,-197.751 918.5,-197.751"/>
</g>
<!-- Node21 -->
<g id="node22" class="node"><title>Node21</title>
<polygon fill="white" stroke="#bfbfbf" points="1334.5,-112.5 1334.5,-131.5 1375.5,-131.5 1375.5,-112.5 1334.5,-112.5"/>
<text text-anchor="middle" x="1355" y="-119.5" font-family="Helvetica,sans-Serif" font-size="10.00">string</text>
</g>
<!-- Node8&#45;&gt;Node21 -->
<g id="edge34" class="edge"><title>Node8&#45;&gt;Node21</title>
<path fill="none" stroke="midnightblue" d="M943.623,-226.146C1021.06,-207.573 1234.37,-156.207 1324.52,-132.006"/>
<polygon fill="midnightblue" stroke="midnightblue" points="1325.65,-135.328 1334.38,-129.333 1323.81,-128.572 1325.65,-135.328"/>
</g>
<!-- Node26 -->
<g id="node27" class="node"><title>Node26</title>
<polygon fill="white" stroke="#bfbfbf" points="429,-56.5 429,-75.5 477,-75.5 477,-56.5 429,-56.5"/>
<text text-anchor="middle" x="453" y="-63.5" font-family="Helvetica,sans-Serif" font-size="10.00">stdlib.h</text>
</g>
<!-- Node8&#45;&gt;Node26 -->
<g id="edge33" class="edge"><title>Node8&#45;&gt;Node26</title>
<path fill="none" stroke="midnightblue" d="M886.31,-226.018C798.666,-204.635 539.38,-140.954 523,-132 500.374,-119.631 479.41,-98.3096 466.436,-83.4728"/>
<polygon fill="midnightblue" stroke="midnightblue" points="468.903,-80.9701 459.768,-75.6032 463.562,-85.4953 468.903,-80.9701"/>
</g>
<!-- Node10 -->
<g id="node11" class="node"><title>Node10</title>
<g id="a_node11"><a xlink:href="endian_8h.html" target="_top" xlink:title="compat/endian.h">
<polygon fill="white" stroke="black" points="1227.5,-112.5 1227.5,-131.5 1316.5,-131.5 1316.5,-112.5 1227.5,-112.5"/>
<text text-anchor="middle" x="1272" y="-119.5" font-family="Helvetica,sans-Serif" font-size="10.00">compat/endian.h</text>
</a>
</g>
</g>
<!-- Node9&#45;&gt;Node10 -->
<g id="edge10" class="edge"><title>Node9&#45;&gt;Node10</title>
<path fill="none" stroke="midnightblue" d="M945.89,-172.351C1000.01,-164.203 1115.49,-146.8 1213,-132 1214.3,-131.803 1215.61,-131.604 1216.93,-131.403"/>
<polygon fill="midnightblue" stroke="midnightblue" points="1217.86,-134.802 1227.22,-129.838 1216.81,-127.881 1217.86,-134.802"/>
</g>
<!-- Node11 -->
<g id="node12" class="node"><title>Node11</title>
<polygon fill="white" stroke="#bfbfbf" points="1193.5,-0.5 1193.5,-19.5 1242.5,-19.5 1242.5,-0.5 1193.5,-0.5"/>
<text text-anchor="middle" x="1218" y="-7.5" font-family="Helvetica,sans-Serif" font-size="10.00">stdint.h</text>
</g>
<!-- Node9&#45;&gt;Node11 -->
<g id="edge22" class="edge"><title>Node9&#45;&gt;Node11</title>
<path fill="none" stroke="midnightblue" d="M945.559,-175.685C1007.41,-172.417 1144.47,-161.912 1179,-132 1209.07,-105.95 1216.13,-56.5969 1217.67,-29.6707"/>
<polygon fill="midnightblue" stroke="midnightblue" points="1221.17,-29.7613 1218.05,-19.6372 1214.18,-29.4992 1221.17,-29.7613"/>
</g>
<!-- Node13 -->
<g id="node14" class="node"><title>Node13</title>
<polygon fill="white" stroke="#bfbfbf" points="671,-112.5 671,-131.5 727,-131.5 727,-112.5 671,-112.5"/>
<text text-anchor="middle" x="699" y="-119.5" font-family="Helvetica,sans-Serif" font-size="10.00">algorithm</text>
</g>
<!-- Node9&#45;&gt;Node13 -->
<g id="edge14" class="edge"><title>Node9&#45;&gt;Node13</title>
<path fill="none" stroke="midnightblue" d="M884.052,-169.263C845.256,-159.564 778.781,-142.945 736.955,-132.489"/>
<polygon fill="midnightblue" stroke="midnightblue" points="737.692,-129.065 727.141,-130.035 735.994,-135.856 737.692,-129.065"/>
</g>
<!-- Node14 -->
<g id="node15" class="node"><title>Node14</title>
<polygon fill="white" stroke="#bfbfbf" points="495,-56.5 495,-75.5 547,-75.5 547,-56.5 495,-56.5"/>
<text text-anchor="middle" x="521" y="-63.5" font-family="Helvetica,sans-Serif" font-size="10.00">assert.h</text>
</g>
<!-- Node9&#45;&gt;Node14 -->
<g id="edge15" class="edge"><title>Node9&#45;&gt;Node14</title>
<path fill="none" stroke="midnightblue" d="M884.27,-177.459C804.389,-178.023 592.818,-175.295 541,-132 527.571,-120.78 522.988,-100.763 521.509,-85.8968"/>
<polygon fill="midnightblue" stroke="midnightblue" points="524.993,-85.531 520.888,-75.7637 518.006,-85.959 524.993,-85.531"/>
</g>
<!-- Node15 -->
<g id="node16" class="node"><title>Node15</title>
<polygon fill="white" stroke="#bfbfbf" points="744.5,-112.5 744.5,-131.5 773.5,-131.5 773.5,-112.5 744.5,-112.5"/>
<text text-anchor="middle" x="759" y="-119.5" font-family="Helvetica,sans-Serif" font-size="10.00">ios</text>
</g>
<!-- Node9&#45;&gt;Node15 -->
<g id="edge16" class="edge"><title>Node9&#45;&gt;Node15</title>
<path fill="none" stroke="midnightblue" d="M889.121,-168.435C864.324,-160.171 825.633,-147.134 783.349,-132.048"/>
<polygon fill="midnightblue" stroke="midnightblue" points="784.292,-128.668 773.697,-128.592 781.932,-135.259 784.292,-128.668"/>
</g>
<!-- Node16 -->
<g id="node17" class="node"><title>Node16</title>
<polygon fill="white" stroke="#bfbfbf" points="792,-112.5 792,-131.5 832,-131.5 832,-112.5 792,-112.5"/>
<text text-anchor="middle" x="812" y="-119.5" font-family="Helvetica,sans-Serif" font-size="10.00">limits</text>
</g>
<!-- Node9&#45;&gt;Node16 -->
<g id="edge17" class="edge"><title>Node9&#45;&gt;Node16</title>
<path fill="none" stroke="midnightblue" d="M898.451,-168.324C882.008,-159.703 856.565,-146.364 837.532,-136.386"/>
<polygon fill="midnightblue" stroke="midnightblue" points="838.989,-133.198 828.508,-131.655 835.739,-139.398 838.989,-133.198"/>
</g>
<!-- Node17 -->
<g id="node18" class="node"><title>Node17</title>
<polygon fill="white" stroke="#bfbfbf" points="850.5,-112.5 850.5,-131.5 879.5,-131.5 879.5,-112.5 850.5,-112.5"/>
<text text-anchor="middle" x="865" y="-119.5" font-family="Helvetica,sans-Serif" font-size="10.00">list</text>
</g>
<!-- Node9&#45;&gt;Node17 -->
<g id="edge18" class="edge"><title>Node9&#45;&gt;Node17</title>
<path fill="none" stroke="midnightblue" d="M906.744,-168.083C899.535,-160.298 888.89,-148.801 880.154,-139.367"/>
<polygon fill="midnightblue" stroke="midnightblue" points="882.465,-136.711 873.103,-131.751 877.329,-141.467 882.465,-136.711"/>
</g>
<!-- Node18 -->
<g id="node19" class="node"><title>Node18</title>
<polygon fill="white" stroke="#bfbfbf" points="897.5,-112.5 897.5,-131.5 932.5,-131.5 932.5,-112.5 897.5,-112.5"/>
<text text-anchor="middle" x="915" y="-119.5" font-family="Helvetica,sans-Serif" font-size="10.00">map</text>
</g>
<!-- Node9&#45;&gt;Node18 -->
<g id="edge19" class="edge"><title>Node9&#45;&gt;Node18</title>
<path fill="none" stroke="midnightblue" d="M915,-168.083C915,-161.006 915,-150.861 915,-141.986"/>
<polygon fill="midnightblue" stroke="midnightblue" points="918.5,-141.751 915,-131.751 911.5,-141.751 918.5,-141.751"/>
</g>
<!-- Node19 -->
<g id="node20" class="node"><title>Node19</title>
<polygon fill="white" stroke="#bfbfbf" points="951,-112.5 951,-131.5 1003,-131.5 1003,-112.5 951,-112.5"/>
<text text-anchor="middle" x="977" y="-119.5" font-family="Helvetica,sans-Serif" font-size="10.00">memory</text>
</g>
<!-- Node9&#45;&gt;Node19 -->
<g id="edge20" class="edge"><title>Node9&#45;&gt;Node19</title>
<path fill="none" stroke="midnightblue" d="M924.961,-168.324C934.127,-160.341 947.937,-148.313 959.028,-138.653"/>
<polygon fill="midnightblue" stroke="midnightblue" points="961.615,-141.041 966.857,-131.834 957.018,-135.762 961.615,-141.041"/>
</g>
<!-- Node20 -->
<g id="node21" class="node"><title>Node20</title>
<polygon fill="white" stroke="#bfbfbf" points="1021,-112.5 1021,-131.5 1051,-131.5 1051,-112.5 1021,-112.5"/>
<text text-anchor="middle" x="1036" y="-119.5" font-family="Helvetica,sans-Serif" font-size="10.00">set</text>
</g>
<!-- Node9&#45;&gt;Node20 -->
<g id="edge21" class="edge"><title>Node9&#45;&gt;Node20</title>
<path fill="none" stroke="midnightblue" d="M934.173,-168.444C955.07,-159.117 988.568,-144.168 1011.39,-133.982"/>
<polygon fill="midnightblue" stroke="midnightblue" points="1013.04,-137.078 1020.75,-129.807 1010.19,-130.686 1013.04,-137.078"/>
</g>
<!-- Node9&#45;&gt;Node21 -->
<g id="edge23" class="edge"><title>Node9&#45;&gt;Node21</title>
<path fill="none" stroke="midnightblue" d="M945.64,-175.547C1012.67,-171.963 1177.38,-160.946 1324.37,-131.739"/>
<polygon fill="midnightblue" stroke="midnightblue" points="1325.36,-135.109 1334.47,-129.697 1323.97,-128.248 1325.36,-135.109"/>
</g>
<!-- Node22 -->
<g id="node23" class="node"><title>Node22</title>
<polygon fill="white" stroke="#bfbfbf" points="669.5,-56.5 669.5,-75.5 718.5,-75.5 718.5,-56.5 669.5,-56.5"/>
<text text-anchor="middle" x="694" y="-63.5" font-family="Helvetica,sans-Serif" font-size="10.00">string.h</text>
</g>
<!-- Node9&#45;&gt;Node22 -->
<g id="edge24" class="edge"><title>Node9&#45;&gt;Node22</title>
<path fill="none" stroke="midnightblue" d="M884.449,-176.266C823.466,-174.087 690.078,-165.513 662,-132 649.71,-117.331 663.33,-97.1405 676.404,-83.1718"/>
<polygon fill="midnightblue" stroke="midnightblue" points="679.231,-85.2955 683.839,-75.7551 674.287,-80.3397 679.231,-85.2955"/>
</g>
<!-- Node23 -->
<g id="node24" class="node"><title>Node23</title>
<polygon fill="white" stroke="#bfbfbf" points="1069,-112.5 1069,-131.5 1109,-131.5 1109,-112.5 1069,-112.5"/>
<text text-anchor="middle" x="1089" y="-119.5" font-family="Helvetica,sans-Serif" font-size="10.00">utility</text>
</g>
<!-- Node9&#45;&gt;Node23 -->
<g id="edge25" class="edge"><title>Node9&#45;&gt;Node23</title>
<path fill="none" stroke="midnightblue" d="M942.571,-168.444C974.305,-158.595 1026.25,-142.475 1058.98,-132.317"/>
<polygon fill="midnightblue" stroke="midnightblue" points="1060.37,-135.551 1068.88,-129.244 1058.29,-128.865 1060.37,-135.551"/>
</g>
<!-- Node24 -->
<g id="node25" class="node"><title>Node24</title>
<polygon fill="white" stroke="#bfbfbf" points="1127,-112.5 1127,-131.5 1171,-131.5 1171,-112.5 1127,-112.5"/>
<text text-anchor="middle" x="1149" y="-119.5" font-family="Helvetica,sans-Serif" font-size="10.00">vector</text>
</g>
<!-- Node9&#45;&gt;Node24 -->
<g id="edge26" class="edge"><title>Node9&#45;&gt;Node24</title>
<path fill="none" stroke="midnightblue" d="M945.754,-170.826C983.778,-163.053 1050.67,-148.922 1116.93,-132.154"/>
<polygon fill="midnightblue" stroke="midnightblue" points="1117.87,-135.526 1126.7,-129.661 1116.14,-128.743 1117.87,-135.526"/>
</g>
<!-- Node25 -->
<g id="node26" class="node"><title>Node25</title>
<g id="a_node26"><a xlink:href="prevector_8h.html" target="_top" xlink:title="prevector.h">
<polygon fill="white" stroke="black" points="549.5,-112.5 549.5,-131.5 614.5,-131.5 614.5,-112.5 549.5,-112.5"/>
<text text-anchor="middle" x="582" y="-119.5" font-family="Helvetica,sans-Serif" font-size="10.00">prevector.h</text>
</a>
</g>
</g>
<!-- Node9&#45;&gt;Node25 -->
<g id="edge27" class="edge"><title>Node9&#45;&gt;Node25</title>
<path fill="none" stroke="midnightblue" d="M884.47,-172.536C832.108,-164.803 721.843,-148.189 629,-132 627.542,-131.746 626.06,-131.483 624.563,-131.215"/>
<polygon fill="midnightblue" stroke="midnightblue" points="625.058,-127.748 614.59,-129.386 623.795,-134.633 625.058,-127.748"/>
</g>
<!-- Node10&#45;&gt;Node11 -->
<g id="edge11" class="edge"><title>Node10&#45;&gt;Node11</title>
<path fill="none" stroke="midnightblue" d="M1267.76,-112.368C1258.93,-94.376 1238.4,-52.5503 1226.65,-28.6267"/>
<polygon fill="midnightblue" stroke="midnightblue" points="1229.77,-27.0257 1222.22,-19.5914 1223.48,-30.1105 1229.77,-27.0257"/>
</g>
<!-- Node12 -->
<g id="node13" class="node"><title>Node12</title>
<g id="a_node13"><a xlink:href="byteswap_8h.html" target="_top" xlink:title="compat/byteswap.h">
<polygon fill="white" stroke="black" points="1265,-56.5 1265,-75.5 1367,-75.5 1367,-56.5 1265,-56.5"/>
<text text-anchor="middle" x="1316" y="-63.5" font-family="Helvetica,sans-Serif" font-size="10.00">compat/byteswap.h</text>
</a>
</g>
</g>
<!-- Node10&#45;&gt;Node12 -->
<g id="edge12" class="edge"><title>Node10&#45;&gt;Node12</title>
<path fill="none" stroke="midnightblue" d="M1279.27,-112.083C1285.54,-104.377 1294.79,-93.0333 1302.43,-83.6531"/>
<polygon fill="midnightblue" stroke="midnightblue" points="1305.27,-85.7143 1308.87,-75.7511 1299.84,-81.2926 1305.27,-85.7143"/>
</g>
<!-- Node12&#45;&gt;Node11 -->
<g id="edge13" class="edge"><title>Node12&#45;&gt;Node11</title>
<path fill="none" stroke="midnightblue" d="M1300.25,-56.324C1284.68,-47.7428 1260.62,-34.486 1242.54,-24.5224"/>
<polygon fill="midnightblue" stroke="midnightblue" points="1244.15,-21.4152 1233.71,-19.6545 1240.78,-27.546 1244.15,-21.4152"/>
</g>
<!-- Node25&#45;&gt;Node11 -->
<g id="edge30" class="edge"><title>Node25&#45;&gt;Node11</title>
<path fill="none" stroke="midnightblue" d="M589.209,-112.329C601.951,-97.7095 630.048,-68.5262 661,-56 756.422,-17.383 1076.39,-11.867 1183.06,-11.1099"/>
<polygon fill="midnightblue" stroke="midnightblue" points="1183.3,-14.6086 1193.28,-11.0475 1183.26,-7.60869 1183.3,-14.6086"/>
</g>
<!-- Node25&#45;&gt;Node14 -->
<g id="edge28" class="edge"><title>Node25&#45;&gt;Node14</title>
<path fill="none" stroke="midnightblue" d="M572.199,-112.324C563.182,-104.341 549.594,-92.3128 538.682,-82.6529"/>
<polygon fill="midnightblue" stroke="midnightblue" points="540.787,-79.8416 530.979,-75.8339 536.147,-85.083 540.787,-79.8416"/>
</g>
<!-- Node25&#45;&gt;Node22 -->
<g id="edge31" class="edge"><title>Node25&#45;&gt;Node22</title>
<path fill="none" stroke="midnightblue" d="M599.995,-112.324C618.038,-103.625 646.047,-90.1202 666.803,-80.113"/>
<polygon fill="midnightblue" stroke="midnightblue" points="668.562,-83.1502 676.05,-75.6545 665.522,-76.8449 668.562,-83.1502"/>
</g>
<!-- Node25&#45;&gt;Node26 -->
<g id="edge29" class="edge"><title>Node25&#45;&gt;Node26</title>
<path fill="none" stroke="midnightblue" d="M561.56,-112.444C540.33,-103.557 506.901,-89.5632 482.745,-79.4514"/>
<polygon fill="midnightblue" stroke="midnightblue" points="483.921,-76.1493 473.345,-75.5164 481.218,-82.6064 483.921,-76.1493"/>
</g>
<!-- Node27 -->
<g id="node28" class="node"><title>Node27</title>
<polygon fill="white" stroke="#bfbfbf" points="565.5,-56.5 565.5,-75.5 612.5,-75.5 612.5,-56.5 565.5,-56.5"/>
<text text-anchor="middle" x="589" y="-63.5" font-family="Helvetica,sans-Serif" font-size="10.00">iterator</text>
</g>
<!-- Node25&#45;&gt;Node27 -->
<g id="edge32" class="edge"><title>Node25&#45;&gt;Node27</title>
<path fill="none" stroke="midnightblue" d="M583.156,-112.083C584.084,-104.927 585.418,-94.6353 586.577,-85.6911"/>
<polygon fill="midnightblue" stroke="midnightblue" points="590.051,-86.1181 587.866,-75.7511 583.109,-85.2181 590.051,-86.1181"/>
</g>
</g>
</svg>
