<?xml version="1.0" encoding="UTF-8" standalone="no"?>
<!DOCTYPE svg PUBLIC "-//W3C//DTD SVG 1.1//EN"
 "http://www.w3.org/Graphics/SVG/1.1/DTD/svg11.dtd">
<!-- Generated by graphviz version 2.36.0 (20140111.2315)
 -->
<!-- Title: src/immer/refcount/enable_intrusive_ptr.hpp Pages: 1 -->
<svg width="132pt" height="176pt"
 viewBox="0.00 0.00 132.00 176.00" xmlns="http://www.w3.org/2000/svg" xmlns:xlink="http://www.w3.org/1999/xlink">
<g id="graph0" class="graph" transform="scale(1 1) rotate(0) translate(4 172)">
<title>src/immer/refcount/enable_intrusive_ptr.hpp</title>
<polygon fill="white" stroke="none" points="-4,4 -4,-172 128,-172 128,4 -4,4"/>
<!-- Node2 -->
<g id="node1" class="node"><title>Node2</title>
<polygon fill="#bfbfbf" stroke="black" points="-0.5,-137 -0.5,-167 124.5,-167 124.5,-137 -0.5,-137"/>
<text text-anchor="start" x="7.5" y="-155" font-family="Helvetica,sans-Serif" font-size="10.00">src/immer/refcount</text>
<text text-anchor="middle" x="62" y="-144" font-family="Helvetica,sans-Serif" font-size="10.00">/enable_intrusive_ptr.hpp</text>
</g>
<!-- Node3 -->
<g id="node2" class="node"><title>Node3</title>
<g id="a_node2"><a xlink:href="dvektor__impl_8hpp.html" target="_top" xlink:title="src/immer/experimental\l/detail/dvektor_impl.hpp">
<polygon fill="white" stroke="black" points="2,-69 2,-99 122,-99 122,-69 2,-69"/>
<text text-anchor="start" x="10" y="-87" font-family="Helvetica,sans-Serif" font-size="10.00">src/immer/experimental</text>
<text text-anchor="middle" x="62" y="-76" font-family="Helvetica,sans-Serif" font-size="10.00">/detail/dvektor_impl.hpp</text>
</a>
</g>
</g>
<!-- Node2&#45;&gt;Node3 -->
<g id="edge1" class="edge"><title>Node2&#45;&gt;Node3</title>
<path fill="none" stroke="midnightblue" d="M62,-126.532C62,-117.361 62,-107.245 62,-99.2931"/>
<polygon fill="midnightblue" stroke="midnightblue" points="58.5001,-126.679 62,-136.679 65.5001,-126.679 58.5001,-126.679"/>
</g>
<!-- Node4 -->
<g id="node3" class="node"><title>Node4</title>
<g id="a_node3"><a xlink:href="dvektor_8hpp.html" target="_top" xlink:title="src/immer/experimental\l/dvektor.hpp">
<polygon fill="white" stroke="black" points="2.5,-1 2.5,-31 121.5,-31 121.5,-1 2.5,-1"/>
<text text-anchor="start" x="10.5" y="-19" font-family="Helvetica,sans-Serif" font-size="10.00">src/immer/experimental</text>
<text text-anchor="middle" x="62" y="-8" font-family="Helvetica,sans-Serif" font-size="10.00">/dvektor.hpp</text>
</a>
</g>
</g>
<!-- Node3&#45;&gt;Node4 -->
<g id="edge2" class="edge"><title>Node3&#45;&gt;Node4</title>
<path fill="none" stroke="midnightblue" d="M62,-58.5322C62,-49.3606 62,-39.2449 62,-31.2931"/>
<polygon fill="midnightblue" stroke="midnightblue" points="58.5001,-58.6789 62,-68.679 65.5001,-58.679 58.5001,-58.6789"/>
</g>
</g>
</svg>
