<?xml version="1.0" encoding="UTF-8" standalone="no"?>
<!DOCTYPE svg PUBLIC "-//W3C//DTD SVG 1.1//EN"
 "http://www.w3.org/Graphics/SVG/1.1/DTD/svg11.dtd">
<!-- Generated by graphviz version 2.36.0 (20140111.2315)
 -->
<!-- Title: src/immer/refcount/enable_intrusive_ptr.hpp Pages: 1 -->
<svg width="144pt" height="108pt"
 viewBox="0.00 0.00 144.00 108.00" xmlns="http://www.w3.org/2000/svg" xmlns:xlink="http://www.w3.org/1999/xlink">
<g id="graph0" class="graph" transform="scale(1 1) rotate(0) translate(4 104)">
<title>src/immer/refcount/enable_intrusive_ptr.hpp</title>
<polygon fill="white" stroke="none" points="-4,4 -4,-104 140,-104 140,4 -4,4"/>
<!-- Node0 -->
<g id="node1" class="node"><title>Node0</title>
<polygon fill="#bfbfbf" stroke="black" points="5.5,-69 5.5,-99 130.5,-99 130.5,-69 5.5,-69"/>
<text text-anchor="start" x="13.5" y="-87" font-family="Helvetica,sans-Serif" font-size="10.00">src/immer/refcount</text>
<text text-anchor="middle" x="68" y="-76" font-family="Helvetica,sans-Serif" font-size="10.00">/enable_intrusive_ptr.hpp</text>
</g>
<!-- Node1 -->
<g id="node2" class="node"><title>Node1</title>
<g id="a_node2"><a xlink:href="no__refcount__policy_8hpp.html" target="_top" xlink:title="immer/refcount/no_refcount\l_policy.hpp">
<polygon fill="white" stroke="black" points="0,-1 0,-31 136,-31 136,-1 0,-1"/>
<text text-anchor="start" x="8" y="-19" font-family="Helvetica,sans-Serif" font-size="10.00">immer/refcount/no_refcount</text>
<text text-anchor="middle" x="68" y="-8" font-family="Helvetica,sans-Serif" font-size="10.00">_policy.hpp</text>
</a>
</g>
</g>
<!-- Node0&#45;&gt;Node1 -->
<g id="edge1" class="edge"><title>Node0&#45;&gt;Node1</title>
<path fill="none" stroke="midnightblue" d="M68,-68.679C68,-60.7221 68,-50.605 68,-41.4356"/>
<polygon fill="midnightblue" stroke="midnightblue" points="71.5001,-41.293 68,-31.2931 64.5001,-41.2931 71.5001,-41.293"/>
</g>
</g>
</svg>
