<?xml version="1.0" encoding="UTF-8" standalone="no"?>
<!DOCTYPE svg PUBLIC "-//W3C//DTD SVG 1.1//EN"
 "http://www.w3.org/Graphics/SVG/1.1/DTD/svg11.dtd">
<!-- Generated by graphviz version 2.36.0 (20140111.2315)
 -->
<!-- Title: src/compat/endian.h Pages: 1 -->
<svg width="151pt" height="140pt"
 viewBox="0.00 0.00 151.00 140.00" xmlns="http://www.w3.org/2000/svg" xmlns:xlink="http://www.w3.org/1999/xlink">
<g id="graph0" class="graph" transform="scale(1 1) rotate(0) translate(4 136)">
<title>src/compat/endian.h</title>
<polygon fill="white" stroke="none" points="-4,4 -4,-136 147,-136 147,4 -4,4"/>
<!-- Node0 -->
<g id="node1" class="node"><title>Node0</title>
<polygon fill="#bfbfbf" stroke="black" points="-0.5,-112.5 -0.5,-131.5 104.5,-131.5 104.5,-112.5 -0.5,-112.5"/>
<text text-anchor="middle" x="52" y="-119.5" font-family="Helvetica,sans-Serif" font-size="10.00">src/compat/endian.h</text>
</g>
<!-- Node1 -->
<g id="node2" class="node"><title>Node1</title>
<polygon fill="white" stroke="#bfbfbf" points="27.5,-0.5 27.5,-19.5 76.5,-19.5 76.5,-0.5 27.5,-0.5"/>
<text text-anchor="middle" x="52" y="-7.5" font-family="Helvetica,sans-Serif" font-size="10.00">stdint.h</text>
</g>
<!-- Node0&#45;&gt;Node1 -->
<g id="edge1" class="edge"><title>Node0&#45;&gt;Node1</title>
<path fill="none" stroke="midnightblue" d="M46.8698,-112.407C41.9422,-103.614 34.8396,-89.381 32,-76 28.5234,-59.6176 35.0395,-41.4343 41.5421,-28.4752"/>
<polygon fill="midnightblue" stroke="midnightblue" points="44.6141,-30.1523 46.3463,-19.7 38.474,-26.7907 44.6141,-30.1523"/>
</g>
<!-- Node2 -->
<g id="node3" class="node"><title>Node2</title>
<g id="a_node3"><a xlink:href="byteswap_8h.html" target="_top" xlink:title="compat/byteswap.h">
<polygon fill="white" stroke="black" points="41,-56.5 41,-75.5 143,-75.5 143,-56.5 41,-56.5"/>
<text text-anchor="middle" x="92" y="-63.5" font-family="Helvetica,sans-Serif" font-size="10.00">compat/byteswap.h</text>
</a>
</g>
</g>
<!-- Node0&#45;&gt;Node2 -->
<g id="edge2" class="edge"><title>Node0&#45;&gt;Node2</title>
<path fill="none" stroke="midnightblue" d="M58.6052,-112.083C64.2552,-104.455 72.5448,-93.2645 79.4512,-83.9408"/>
<polygon fill="midnightblue" stroke="midnightblue" points="82.3779,-85.87 85.5177,-75.7511 76.7529,-81.7034 82.3779,-85.87"/>
</g>
<!-- Node2&#45;&gt;Node1 -->
<g id="edge3" class="edge"><title>Node2&#45;&gt;Node1</title>
<path fill="none" stroke="midnightblue" d="M85.3948,-56.083C79.7448,-48.4554 71.4552,-37.2645 64.5488,-27.9408"/>
<polygon fill="midnightblue" stroke="midnightblue" points="67.2471,-25.7034 58.4823,-19.7511 61.6221,-29.87 67.2471,-25.7034"/>
</g>
</g>
</svg>
