<?xml version="1.0" encoding="UTF-8" standalone="no"?>
<!DOCTYPE svg PUBLIC "-//W3C//DTD SVG 1.1//EN"
 "http://www.w3.org/Graphics/SVG/1.1/DTD/svg11.dtd">
<!-- Generated by graphviz version 2.36.0 (20140111.2315)
 -->
<!-- Title: src/support/events.h Pages: 1 -->
<svg width="299pt" height="84pt"
 viewBox="0.00 0.00 299.00 84.00" xmlns="http://www.w3.org/2000/svg" xmlns:xlink="http://www.w3.org/1999/xlink">
<g id="graph0" class="graph" transform="scale(1 1) rotate(0) translate(4 80)">
<title>src/support/events.h</title>
<polygon fill="white" stroke="none" points="-4,4 -4,-80 295,-80 295,4 -4,4"/>
<!-- Node0 -->
<g id="node1" class="node"><title>Node0</title>
<polygon fill="#bfbfbf" stroke="black" points="62,-56.5 62,-75.5 168,-75.5 168,-56.5 62,-56.5"/>
<text text-anchor="middle" x="115" y="-63.5" font-family="Helvetica,sans-Serif" font-size="10.00">src/support/events.h</text>
</g>
<!-- Node1 -->
<g id="node2" class="node"><title>Node1</title>
<polygon fill="white" stroke="#bfbfbf" points="-0.5,-0.5 -0.5,-19.5 28.5,-19.5 28.5,-0.5 -0.5,-0.5"/>
<text text-anchor="middle" x="14" y="-7.5" font-family="Helvetica,sans-Serif" font-size="10.00">ios</text>
</g>
<!-- Node0&#45;&gt;Node1 -->
<g id="edge1" class="edge"><title>Node0&#45;&gt;Node1</title>
<path fill="none" stroke="midnightblue" d="M98.7726,-56.324C82.172,-47.4484 56.2158,-33.5708 37.3962,-23.5089"/>
<polygon fill="midnightblue" stroke="midnightblue" points="39.0171,-20.4067 28.5481,-18.7782 35.7166,-26.5797 39.0171,-20.4067"/>
</g>
<!-- Node2 -->
<g id="node3" class="node"><title>Node2</title>
<polygon fill="white" stroke="#bfbfbf" points="47,-0.5 47,-19.5 99,-19.5 99,-0.5 47,-0.5"/>
<text text-anchor="middle" x="73" y="-7.5" font-family="Helvetica,sans-Serif" font-size="10.00">memory</text>
</g>
<!-- Node0&#45;&gt;Node2 -->
<g id="edge2" class="edge"><title>Node0&#45;&gt;Node2</title>
<path fill="none" stroke="midnightblue" d="M108.065,-56.083C102.071,-48.3768 93.2482,-37.0333 85.9524,-27.6531"/>
<polygon fill="midnightblue" stroke="midnightblue" points="88.7086,-25.4958 79.8064,-19.7511 83.1831,-29.7934 88.7086,-25.4958"/>
</g>
<!-- Node3 -->
<g id="node4" class="node"><title>Node3</title>
<polygon fill="white" stroke="#bfbfbf" points="117.5,-0.5 117.5,-19.5 198.5,-19.5 198.5,-0.5 117.5,-0.5"/>
<text text-anchor="middle" x="158" y="-7.5" font-family="Helvetica,sans-Serif" font-size="10.00">event2/event.h</text>
</g>
<!-- Node0&#45;&gt;Node3 -->
<g id="edge3" class="edge"><title>Node0&#45;&gt;Node3</title>
<path fill="none" stroke="midnightblue" d="M122.101,-56.083C128.237,-48.3768 137.27,-37.0333 144.739,-27.6531"/>
<polygon fill="midnightblue" stroke="midnightblue" points="147.54,-29.7542 151.032,-19.7511 142.064,-25.3936 147.54,-29.7542"/>
</g>
<!-- Node4 -->
<g id="node5" class="node"><title>Node4</title>
<polygon fill="white" stroke="#bfbfbf" points="217,-0.5 217,-19.5 291,-19.5 291,-0.5 217,-0.5"/>
<text text-anchor="middle" x="254" y="-7.5" font-family="Helvetica,sans-Serif" font-size="10.00">event2/http.h</text>
</g>
<!-- Node0&#45;&gt;Node4 -->
<g id="edge4" class="edge"><title>Node0&#45;&gt;Node4</title>
<path fill="none" stroke="midnightblue" d="M137.025,-56.4435C160.104,-47.4776 196.562,-33.314 222.641,-23.1827"/>
<polygon fill="midnightblue" stroke="midnightblue" points="224.024,-26.4002 232.078,-19.5164 221.489,-19.8753 224.024,-26.4002"/>
</g>
</g>
</svg>
