<?xml version="1.0" encoding="UTF-8" standalone="no"?>
<!DOCTYPE svg PUBLIC "-//W3C//DTD SVG 1.1//EN"
 "http://www.w3.org/Graphics/SVG/1.1/DTD/svg11.dtd">
<!-- Generated by graphviz version 2.36.0 (20140111.2315)
 -->
<!-- Title: src/policy/fees.h Pages: 1 -->
<svg width="1193pt" height="364pt"
 viewBox="0.00 0.00 1193.00 364.00" xmlns="http://www.w3.org/2000/svg" xmlns:xlink="http://www.w3.org/1999/xlink">
<g id="graph0" class="graph" transform="scale(1 1) rotate(0) translate(4 360)">
<title>src/policy/fees.h</title>
<polygon fill="white" stroke="none" points="-4,4 -4,-360 1189,-360 1189,4 -4,4"/>
<!-- Node0 -->
<g id="node1" class="node"><title>Node0</title>
<polygon fill="#bfbfbf" stroke="black" points="358.5,-336.5 358.5,-355.5 447.5,-355.5 447.5,-336.5 358.5,-336.5"/>
<text text-anchor="middle" x="403" y="-343.5" font-family="Helvetica,sans-Serif" font-size="10.00">src/policy/fees.h</text>
</g>
<!-- Node1 -->
<g id="node2" class="node"><title>Node1</title>
<g id="a_node2"><a xlink:href="amount_8h.html" target="_top" xlink:title="amount.h">
<polygon fill="white" stroke="black" points="621.5,-280.5 621.5,-299.5 678.5,-299.5 678.5,-280.5 621.5,-280.5"/>
<text text-anchor="middle" x="650" y="-287.5" font-family="Helvetica,sans-Serif" font-size="10.00">amount.h</text>
</a>
</g>
</g>
<!-- Node0&#45;&gt;Node1 -->
<g id="edge1" class="edge"><title>Node0&#45;&gt;Node1</title>
<path fill="none" stroke="midnightblue" d="M442.138,-336.444C488.551,-326.297 565.413,-309.493 611.531,-299.41"/>
<polygon fill="midnightblue" stroke="midnightblue" points="612.419,-302.799 621.441,-297.244 610.924,-295.96 612.419,-302.799"/>
</g>
<!-- Node11 -->
<g id="node12" class="node"><title>Node11</title>
<polygon fill="white" stroke="#bfbfbf" points="1117.5,-168.5 1117.5,-187.5 1152.5,-187.5 1152.5,-168.5 1117.5,-168.5"/>
<text text-anchor="middle" x="1135" y="-175.5" font-family="Helvetica,sans-Serif" font-size="10.00">map</text>
</g>
<!-- Node0&#45;&gt;Node11 -->
<g id="edge42" class="edge"><title>Node0&#45;&gt;Node11</title>
<path fill="none" stroke="midnightblue" d="M447.541,-339.428C503.689,-332.064 603.024,-317.905 687,-300 848.134,-265.644 1037.72,-208.963 1107.47,-187.549"/>
<polygon fill="midnightblue" stroke="midnightblue" points="1108.72,-190.826 1117.24,-184.537 1106.66,-184.137 1108.72,-190.826"/>
</g>
<!-- Node14 -->
<g id="node15" class="node"><title>Node14</title>
<polygon fill="white" stroke="#bfbfbf" points="418.5,-168.5 418.5,-187.5 459.5,-187.5 459.5,-168.5 418.5,-168.5"/>
<text text-anchor="middle" x="439" y="-175.5" font-family="Helvetica,sans-Serif" font-size="10.00">string</text>
</g>
<!-- Node0&#45;&gt;Node14 -->
<g id="edge43" class="edge"><title>Node0&#45;&gt;Node14</title>
<path fill="none" stroke="midnightblue" d="M404.936,-336.075C410.602,-309.945 427.243,-233.211 434.971,-197.577"/>
<polygon fill="midnightblue" stroke="midnightblue" points="438.443,-198.083 437.142,-187.568 431.602,-196.599 438.443,-198.083"/>
</g>
<!-- Node17 -->
<g id="node18" class="node"><title>Node17</title>
<polygon fill="white" stroke="#bfbfbf" points="356,-168.5 356,-187.5 400,-187.5 400,-168.5 356,-168.5"/>
<text text-anchor="middle" x="378" y="-175.5" font-family="Helvetica,sans-Serif" font-size="10.00">vector</text>
</g>
<!-- Node0&#45;&gt;Node17 -->
<g id="edge44" class="edge"><title>Node0&#45;&gt;Node17</title>
<path fill="none" stroke="midnightblue" d="M401.656,-336.075C397.721,-309.945 386.164,-233.211 380.798,-197.577"/>
<polygon fill="midnightblue" stroke="midnightblue" points="384.241,-196.935 379.29,-187.568 377.319,-197.978 384.241,-196.935"/>
</g>
<!-- Node21 -->
<g id="node22" class="node"><title>Node21</title>
<g id="a_node22"><a xlink:href="uint256_8h.html" target="_top" xlink:title="uint256.h">
<polygon fill="white" stroke="black" points="233,-224.5 233,-243.5 289,-243.5 289,-224.5 233,-224.5"/>
<text text-anchor="middle" x="261" y="-231.5" font-family="Helvetica,sans-Serif" font-size="10.00">uint256.h</text>
</a>
</g>
</g>
<!-- Node0&#45;&gt;Node21 -->
<g id="edge28" class="edge"><title>Node0&#45;&gt;Node21</title>
<path fill="none" stroke="midnightblue" d="M391.857,-336.368C367.698,-317.653 310.249,-273.151 280.147,-249.832"/>
<polygon fill="midnightblue" stroke="midnightblue" points="282.14,-246.949 272.091,-243.591 277.853,-252.482 282.14,-246.949"/>
</g>
<!-- Node25 -->
<g id="node26" class="node"><title>Node25</title>
<g id="a_node26"><a xlink:href="random_8h.html" target="_top" xlink:title="random.h">
<polygon fill="white" stroke="black" points="232.5,-280.5 232.5,-299.5 289.5,-299.5 289.5,-280.5 232.5,-280.5"/>
<text text-anchor="middle" x="261" y="-287.5" font-family="Helvetica,sans-Serif" font-size="10.00">random.h</text>
</a>
</g>
</g>
<!-- Node0&#45;&gt;Node25 -->
<g id="edge39" class="edge"><title>Node0&#45;&gt;Node25</title>
<path fill="none" stroke="midnightblue" d="M380.5,-336.444C356.923,-327.478 319.678,-313.314 293.036,-303.183"/>
<polygon fill="midnightblue" stroke="midnightblue" points="293.986,-299.8 283.395,-299.516 291.498,-306.342 293.986,-299.8"/>
</g>
<!-- Node2 -->
<g id="node3" class="node"><title>Node2</title>
<g id="a_node3"><a xlink:href="serialize_8h.html" target="_top" xlink:title="serialize.h">
<polygon fill="white" stroke="black" points="684.5,-224.5 684.5,-243.5 745.5,-243.5 745.5,-224.5 684.5,-224.5"/>
<text text-anchor="middle" x="715" y="-231.5" font-family="Helvetica,sans-Serif" font-size="10.00">serialize.h</text>
</a>
</g>
</g>
<!-- Node1&#45;&gt;Node2 -->
<g id="edge2" class="edge"><title>Node1&#45;&gt;Node2</title>
<path fill="none" stroke="midnightblue" d="M660.443,-280.324C670.146,-272.263 684.815,-260.077 696.5,-250.369"/>
<polygon fill="midnightblue" stroke="midnightblue" points="698.911,-252.916 704.367,-243.834 694.438,-247.532 698.911,-252.916"/>
</g>
<!-- Node1&#45;&gt;Node14 -->
<g id="edge27" class="edge"><title>Node1&#45;&gt;Node14</title>
<path fill="none" stroke="midnightblue" d="M633.443,-280.368C596.696,-261.211 508.123,-215.036 464.353,-192.217"/>
<polygon fill="midnightblue" stroke="midnightblue" points="465.965,-189.111 455.48,-187.591 462.729,-195.318 465.965,-189.111"/>
</g>
<!-- Node19 -->
<g id="node20" class="node"><title>Node19</title>
<polygon fill="white" stroke="#bfbfbf" points="1137,-112.5 1137,-131.5 1185,-131.5 1185,-112.5 1137,-112.5"/>
<text text-anchor="middle" x="1161" y="-119.5" font-family="Helvetica,sans-Serif" font-size="10.00">stdlib.h</text>
</g>
<!-- Node1&#45;&gt;Node19 -->
<g id="edge26" class="edge"><title>Node1&#45;&gt;Node19</title>
<path fill="none" stroke="midnightblue" d="M678.644,-287.915C777.092,-283.531 1098.92,-263.547 1161,-188 1171.5,-175.216 1169.98,-155.753 1166.75,-141.456"/>
<polygon fill="midnightblue" stroke="midnightblue" points="1170.11,-140.469 1164.13,-131.726 1163.35,-142.292 1170.11,-140.469"/>
</g>
<!-- Node3 -->
<g id="node4" class="node"><title>Node3</title>
<g id="a_node4"><a xlink:href="endian_8h.html" target="_top" xlink:title="compat/endian.h">
<polygon fill="white" stroke="black" points="327.5,-112.5 327.5,-131.5 416.5,-131.5 416.5,-112.5 327.5,-112.5"/>
<text text-anchor="middle" x="372" y="-119.5" font-family="Helvetica,sans-Serif" font-size="10.00">compat/endian.h</text>
</a>
</g>
</g>
<!-- Node2&#45;&gt;Node3 -->
<g id="edge3" class="edge"><title>Node2&#45;&gt;Node3</title>
<path fill="none" stroke="midnightblue" d="M684.312,-227.1C647.103,-219.599 582.701,-205.496 529,-188 482.429,-172.827 430.227,-149.995 399.288,-135.82"/>
<polygon fill="midnightblue" stroke="midnightblue" points="400.57,-132.557 390.024,-131.542 397.635,-138.912 400.57,-132.557"/>
</g>
<!-- Node4 -->
<g id="node5" class="node"><title>Node4</title>
<polygon fill="white" stroke="#bfbfbf" points="308.5,-0.5 308.5,-19.5 357.5,-19.5 357.5,-0.5 308.5,-0.5"/>
<text text-anchor="middle" x="333" y="-7.5" font-family="Helvetica,sans-Serif" font-size="10.00">stdint.h</text>
</g>
<!-- Node2&#45;&gt;Node4 -->
<g id="edge15" class="edge"><title>Node2&#45;&gt;Node4</title>
<path fill="none" stroke="midnightblue" d="M745.719,-231.38C827.849,-226.737 1047.73,-212.144 1069,-188 1074.88,-181.33 1073.6,-175.604 1069,-168 994.564,-45.0291 504.331,-17.4621 368.079,-12.144"/>
<polygon fill="midnightblue" stroke="midnightblue" points="367.928,-8.63596 357.804,-11.7594 367.666,-15.6311 367.928,-8.63596"/>
</g>
<!-- Node6 -->
<g id="node7" class="node"><title>Node6</title>
<polygon fill="white" stroke="#bfbfbf" points="958,-168.5 958,-187.5 1014,-187.5 1014,-168.5 958,-168.5"/>
<text text-anchor="middle" x="986" y="-175.5" font-family="Helvetica,sans-Serif" font-size="10.00">algorithm</text>
</g>
<!-- Node2&#45;&gt;Node6 -->
<g id="edge7" class="edge"><title>Node2&#45;&gt;Node6</title>
<path fill="none" stroke="midnightblue" d="M745.615,-227.509C790.236,-219.41 875.698,-203.537 948,-188 948.099,-187.979 948.199,-187.957 948.299,-187.936"/>
<polygon fill="midnightblue" stroke="midnightblue" points="948.809,-191.408 957.808,-185.815 947.286,-184.576 948.809,-191.408"/>
</g>
<!-- Node7 -->
<g id="node8" class="node"><title>Node7</title>
<polygon fill="white" stroke="#bfbfbf" points="798,-112.5 798,-131.5 850,-131.5 850,-112.5 798,-112.5"/>
<text text-anchor="middle" x="824" y="-119.5" font-family="Helvetica,sans-Serif" font-size="10.00">assert.h</text>
</g>
<!-- Node2&#45;&gt;Node7 -->
<g id="edge8" class="edge"><title>Node2&#45;&gt;Node7</title>
<path fill="none" stroke="midnightblue" d="M745.565,-229.995C772.069,-225.59 808.928,-214.737 827,-188 836.085,-174.559 834.033,-155.743 830.48,-141.813"/>
<polygon fill="midnightblue" stroke="midnightblue" points="833.726,-140.452 827.493,-131.884 827.022,-142.468 833.726,-140.452"/>
</g>
<!-- Node8 -->
<g id="node9" class="node"><title>Node8</title>
<polygon fill="white" stroke="#bfbfbf" points="1031.5,-168.5 1031.5,-187.5 1060.5,-187.5 1060.5,-168.5 1031.5,-168.5"/>
<text text-anchor="middle" x="1046" y="-175.5" font-family="Helvetica,sans-Serif" font-size="10.00">ios</text>
</g>
<!-- Node2&#45;&gt;Node8 -->
<g id="edge9" class="edge"><title>Node2&#45;&gt;Node8</title>
<path fill="none" stroke="midnightblue" d="M745.932,-230.661C800.095,-226.097 915.615,-214.28 1021.55,-187.571"/>
<polygon fill="midnightblue" stroke="midnightblue" points="1022.62,-190.908 1031.44,-185.026 1020.88,-184.128 1022.62,-190.908"/>
</g>
<!-- Node9 -->
<g id="node10" class="node"><title>Node9</title>
<polygon fill="white" stroke="#bfbfbf" points="554,-168.5 554,-187.5 594,-187.5 594,-168.5 554,-168.5"/>
<text text-anchor="middle" x="574" y="-175.5" font-family="Helvetica,sans-Serif" font-size="10.00">limits</text>
</g>
<!-- Node2&#45;&gt;Node9 -->
<g id="edge10" class="edge"><title>Node2&#45;&gt;Node9</title>
<path fill="none" stroke="midnightblue" d="M692.658,-224.444C668.696,-215.267 630.517,-200.645 603.961,-190.474"/>
<polygon fill="midnightblue" stroke="midnightblue" points="604.996,-187.123 594.406,-186.815 602.493,-193.66 604.996,-187.123"/>
</g>
<!-- Node10 -->
<g id="node11" class="node"><title>Node10</title>
<polygon fill="white" stroke="#bfbfbf" points="612.5,-168.5 612.5,-187.5 641.5,-187.5 641.5,-168.5 612.5,-168.5"/>
<text text-anchor="middle" x="627" y="-175.5" font-family="Helvetica,sans-Serif" font-size="10.00">list</text>
</g>
<!-- Node2&#45;&gt;Node10 -->
<g id="edge11" class="edge"><title>Node2&#45;&gt;Node10</title>
<path fill="none" stroke="midnightblue" d="M700.861,-224.324C687.134,-215.9 666.064,-202.971 649.936,-193.074"/>
<polygon fill="midnightblue" stroke="midnightblue" points="651.457,-189.902 641.104,-187.655 647.796,-195.868 651.457,-189.902"/>
</g>
<!-- Node2&#45;&gt;Node11 -->
<g id="edge12" class="edge"><title>Node2&#45;&gt;Node11</title>
<path fill="none" stroke="midnightblue" d="M745.689,-231.103C811.611,-226.665 971.437,-213.96 1103,-188 1104.45,-187.714 1105.93,-187.395 1107.42,-187.052"/>
<polygon fill="midnightblue" stroke="midnightblue" points="1108.36,-190.424 1117.18,-184.552 1106.63,-183.643 1108.36,-190.424"/>
</g>
<!-- Node12 -->
<g id="node13" class="node"><title>Node12</title>
<polygon fill="white" stroke="#bfbfbf" points="660,-168.5 660,-187.5 712,-187.5 712,-168.5 660,-168.5"/>
<text text-anchor="middle" x="686" y="-175.5" font-family="Helvetica,sans-Serif" font-size="10.00">memory</text>
</g>
<!-- Node2&#45;&gt;Node12 -->
<g id="edge13" class="edge"><title>Node2&#45;&gt;Node12</title>
<path fill="none" stroke="midnightblue" d="M710.211,-224.083C706.242,-216.691 700.475,-205.953 695.565,-196.811"/>
<polygon fill="midnightblue" stroke="midnightblue" points="698.514,-194.905 690.7,-187.751 692.347,-198.217 698.514,-194.905"/>
</g>
<!-- Node13 -->
<g id="node14" class="node"><title>Node13</title>
<polygon fill="white" stroke="#bfbfbf" points="730,-168.5 730,-187.5 760,-187.5 760,-168.5 730,-168.5"/>
<text text-anchor="middle" x="745" y="-175.5" font-family="Helvetica,sans-Serif" font-size="10.00">set</text>
</g>
<!-- Node2&#45;&gt;Node13 -->
<g id="edge14" class="edge"><title>Node2&#45;&gt;Node13</title>
<path fill="none" stroke="midnightblue" d="M719.954,-224.083C724.104,-216.613 730.153,-205.724 735.267,-196.52"/>
<polygon fill="midnightblue" stroke="midnightblue" points="738.341,-198.192 740.138,-187.751 732.222,-194.793 738.341,-198.192"/>
</g>
<!-- Node2&#45;&gt;Node14 -->
<g id="edge16" class="edge"><title>Node2&#45;&gt;Node14</title>
<path fill="none" stroke="midnightblue" d="M684.432,-227.969C638.545,-220.264 549.214,-204.673 474,-188 472.545,-187.678 471.059,-187.337 469.56,-186.986"/>
<polygon fill="midnightblue" stroke="midnightblue" points="470.219,-183.544 459.673,-184.561 468.551,-190.342 470.219,-183.544"/>
</g>
<!-- Node15 -->
<g id="node16" class="node"><title>Node15</title>
<polygon fill="white" stroke="#bfbfbf" points="501.5,-112.5 501.5,-131.5 550.5,-131.5 550.5,-112.5 501.5,-112.5"/>
<text text-anchor="middle" x="526" y="-119.5" font-family="Helvetica,sans-Serif" font-size="10.00">string.h</text>
</g>
<!-- Node2&#45;&gt;Node15 -->
<g id="edge17" class="edge"><title>Node2&#45;&gt;Node15</title>
<path fill="none" stroke="midnightblue" d="M684.248,-233.484C646.419,-232.367 582.604,-224.653 545,-188 532.776,-176.086 528.306,-156.778 526.727,-142.296"/>
<polygon fill="midnightblue" stroke="midnightblue" points="530.192,-141.674 525.987,-131.949 523.209,-142.174 530.192,-141.674"/>
</g>
<!-- Node16 -->
<g id="node17" class="node"><title>Node16</title>
<polygon fill="white" stroke="#bfbfbf" points="778,-168.5 778,-187.5 818,-187.5 818,-168.5 778,-168.5"/>
<text text-anchor="middle" x="798" y="-175.5" font-family="Helvetica,sans-Serif" font-size="10.00">utility</text>
</g>
<!-- Node2&#45;&gt;Node16 -->
<g id="edge18" class="edge"><title>Node2&#45;&gt;Node16</title>
<path fill="none" stroke="midnightblue" d="M728.335,-224.324C741.162,-215.979 760.785,-203.212 775.94,-193.352"/>
<polygon fill="midnightblue" stroke="midnightblue" points="778.224,-196.042 784.698,-187.655 774.407,-190.174 778.224,-196.042"/>
</g>
<!-- Node2&#45;&gt;Node17 -->
<g id="edge19" class="edge"><title>Node2&#45;&gt;Node17</title>
<path fill="none" stroke="midnightblue" d="M684.349,-229.895C630.637,-224.154 515.912,-210.552 410.136,-187.995"/>
<polygon fill="midnightblue" stroke="midnightblue" points="410.772,-184.552 400.258,-185.856 409.291,-191.393 410.772,-184.552"/>
</g>
<!-- Node18 -->
<g id="node19" class="node"><title>Node18</title>
<g id="a_node19"><a xlink:href="prevector_8h.html" target="_top" xlink:title="prevector.h">
<polygon fill="white" stroke="black" points="874.5,-168.5 874.5,-187.5 939.5,-187.5 939.5,-168.5 874.5,-168.5"/>
<text text-anchor="middle" x="907" y="-175.5" font-family="Helvetica,sans-Serif" font-size="10.00">prevector.h</text>
</a>
</g>
</g>
<!-- Node2&#45;&gt;Node18 -->
<g id="edge20" class="edge"><title>Node2&#45;&gt;Node18</title>
<path fill="none" stroke="midnightblue" d="M745.423,-224.444C778.285,-215.201 830.785,-200.436 866.974,-190.257"/>
<polygon fill="midnightblue" stroke="midnightblue" points="868.04,-193.593 876.719,-187.516 866.145,-186.855 868.04,-193.593"/>
</g>
<!-- Node3&#45;&gt;Node4 -->
<g id="edge4" class="edge"><title>Node3&#45;&gt;Node4</title>
<path fill="none" stroke="midnightblue" d="M378.734,-112.251C387.71,-99.4441 401.427,-75.0469 392,-56 385.397,-42.6595 372.735,-32.1941 360.829,-24.7262"/>
<polygon fill="midnightblue" stroke="midnightblue" points="362.391,-21.5866 351.984,-19.6018 358.882,-27.6435 362.391,-21.5866"/>
</g>
<!-- Node5 -->
<g id="node6" class="node"><title>Node5</title>
<g id="a_node6"><a xlink:href="byteswap_8h.html" target="_top" xlink:title="compat/byteswap.h">
<polygon fill="white" stroke="black" points="282,-56.5 282,-75.5 384,-75.5 384,-56.5 282,-56.5"/>
<text text-anchor="middle" x="333" y="-63.5" font-family="Helvetica,sans-Serif" font-size="10.00">compat/byteswap.h</text>
</a>
</g>
</g>
<!-- Node3&#45;&gt;Node5 -->
<g id="edge5" class="edge"><title>Node3&#45;&gt;Node5</title>
<path fill="none" stroke="midnightblue" d="M365.56,-112.083C360.051,-104.455 351.969,-93.2645 345.235,-83.9408"/>
<polygon fill="midnightblue" stroke="midnightblue" points="348.013,-81.8087 339.32,-75.7511 342.338,-85.9071 348.013,-81.8087"/>
</g>
<!-- Node5&#45;&gt;Node4 -->
<g id="edge6" class="edge"><title>Node5&#45;&gt;Node4</title>
<path fill="none" stroke="midnightblue" d="M333,-56.083C333,-49.0059 333,-38.8611 333,-29.9865"/>
<polygon fill="midnightblue" stroke="midnightblue" points="336.5,-29.751 333,-19.7511 329.5,-29.7511 336.5,-29.751"/>
</g>
<!-- Node18&#45;&gt;Node4 -->
<g id="edge23" class="edge"><title>Node18&#45;&gt;Node4</title>
<path fill="none" stroke="midnightblue" d="M903.148,-168.198C896.412,-153.919 881.076,-125.909 859,-112 775.891,-59.638 471.702,-24.9125 367.947,-14.3767"/>
<polygon fill="midnightblue" stroke="midnightblue" points="368.003,-10.8648 357.704,-13.3494 367.304,-17.8299 368.003,-10.8648"/>
</g>
<!-- Node18&#45;&gt;Node7 -->
<g id="edge21" class="edge"><title>Node18&#45;&gt;Node7</title>
<path fill="none" stroke="midnightblue" d="M893.665,-168.324C880.838,-159.979 861.215,-147.212 846.06,-137.352"/>
<polygon fill="midnightblue" stroke="midnightblue" points="847.593,-134.174 837.302,-131.655 843.776,-140.042 847.593,-134.174"/>
</g>
<!-- Node18&#45;&gt;Node15 -->
<g id="edge24" class="edge"><title>Node18&#45;&gt;Node15</title>
<path fill="none" stroke="midnightblue" d="M874.186,-172.349C802.79,-162.23 633.898,-138.293 560.763,-127.927"/>
<polygon fill="midnightblue" stroke="midnightblue" points="561.083,-124.437 550.691,-126.499 560.1,-131.368 561.083,-124.437"/>
</g>
<!-- Node18&#45;&gt;Node19 -->
<g id="edge22" class="edge"><title>Node18&#45;&gt;Node19</title>
<path fill="none" stroke="midnightblue" d="M939.558,-170.017C942.748,-169.334 945.937,-168.653 949,-168 1011.76,-154.615 1084.99,-139.092 1126.88,-130.221"/>
<polygon fill="midnightblue" stroke="midnightblue" points="1127.78,-133.609 1136.83,-128.114 1126.33,-126.761 1127.78,-133.609"/>
</g>
<!-- Node20 -->
<g id="node21" class="node"><title>Node20</title>
<polygon fill="white" stroke="#bfbfbf" points="906.5,-112.5 906.5,-131.5 953.5,-131.5 953.5,-112.5 906.5,-112.5"/>
<text text-anchor="middle" x="930" y="-119.5" font-family="Helvetica,sans-Serif" font-size="10.00">iterator</text>
</g>
<!-- Node18&#45;&gt;Node20 -->
<g id="edge25" class="edge"><title>Node18&#45;&gt;Node20</title>
<path fill="none" stroke="midnightblue" d="M910.798,-168.083C913.913,-160.77 918.423,-150.181 922.289,-141.103"/>
<polygon fill="midnightblue" stroke="midnightblue" points="925.574,-142.323 926.273,-131.751 919.134,-139.58 925.574,-142.323"/>
</g>
<!-- Node21&#45;&gt;Node4 -->
<g id="edge32" class="edge"><title>Node21&#45;&gt;Node4</title>
<path fill="none" stroke="midnightblue" d="M240.777,-224.495C226.229,-217.168 207.699,-205.063 199,-188 194.963,-180.081 196.806,-176.614 199,-168 212.988,-113.071 221.01,-97.1417 260,-56 272.517,-42.7918 289.723,-31.938 304.286,-24.2013"/>
<polygon fill="midnightblue" stroke="midnightblue" points="306.067,-27.2223 313.399,-19.5739 302.898,-20.9809 306.067,-27.2223"/>
</g>
<!-- Node21&#45;&gt;Node7 -->
<g id="edge29" class="edge"><title>Node21&#45;&gt;Node7</title>
<path fill="none" stroke="midnightblue" d="M269.038,-224.375C283.197,-209.825 314.204,-180.744 347,-168 427.429,-136.746 690.791,-126.594 787.748,-123.869"/>
<polygon fill="midnightblue" stroke="midnightblue" points="788.03,-127.362 797.932,-123.593 787.841,-120.365 788.03,-127.362"/>
</g>
<!-- Node21&#45;&gt;Node14 -->
<g id="edge33" class="edge"><title>Node21&#45;&gt;Node14</title>
<path fill="none" stroke="midnightblue" d="M289.205,-224.444C321.809,-214.552 375.264,-198.336 408.722,-188.185"/>
<polygon fill="midnightblue" stroke="midnightblue" points="409.866,-191.496 418.419,-185.244 407.833,-184.798 409.866,-191.496"/>
</g>
<!-- Node21&#45;&gt;Node17 -->
<g id="edge34" class="edge"><title>Node21&#45;&gt;Node17</title>
<path fill="none" stroke="midnightblue" d="M279.539,-224.444C298.623,-215.636 328.575,-201.812 350.436,-191.722"/>
<polygon fill="midnightblue" stroke="midnightblue" points="351.935,-194.885 359.548,-187.516 349.001,-188.529 351.935,-194.885"/>
</g>
<!-- Node22 -->
<g id="node23" class="node"><title>Node22</title>
<polygon fill="white" stroke="#bfbfbf" points="28,-168.5 28,-187.5 74,-187.5 74,-168.5 28,-168.5"/>
<text text-anchor="middle" x="51" y="-175.5" font-family="Helvetica,sans-Serif" font-size="10.00">cstring</text>
</g>
<!-- Node21&#45;&gt;Node22 -->
<g id="edge30" class="edge"><title>Node21&#45;&gt;Node22</title>
<path fill="none" stroke="midnightblue" d="M232.886,-226.137C199.605,-217.96 142.274,-203.706 83.8207,-188.168"/>
<polygon fill="midnightblue" stroke="midnightblue" points="84.6162,-184.758 74.052,-185.562 82.8118,-191.522 84.6162,-184.758"/>
</g>
<!-- Node23 -->
<g id="node24" class="node"><title>Node23</title>
<polygon fill="white" stroke="#bfbfbf" points="92.5,-168.5 92.5,-187.5 151.5,-187.5 151.5,-168.5 92.5,-168.5"/>
<text text-anchor="middle" x="122" y="-175.5" font-family="Helvetica,sans-Serif" font-size="10.00">stdexcept</text>
</g>
<!-- Node21&#45;&gt;Node23 -->
<g id="edge31" class="edge"><title>Node21&#45;&gt;Node23</title>
<path fill="none" stroke="midnightblue" d="M238.975,-224.444C215.896,-215.478 179.438,-201.314 153.359,-191.183"/>
<polygon fill="midnightblue" stroke="midnightblue" points="154.511,-187.875 143.922,-187.516 151.976,-194.4 154.511,-187.875"/>
</g>
<!-- Node24 -->
<g id="node25" class="node"><title>Node24</title>
<g id="a_node25"><a xlink:href="common_8h.html" target="_top" xlink:title="crypto/common.h">
<polygon fill="white" stroke="black" points="208,-168.5 208,-187.5 300,-187.5 300,-168.5 208,-168.5"/>
<text text-anchor="middle" x="254" y="-175.5" font-family="Helvetica,sans-Serif" font-size="10.00">crypto/common.h</text>
</a>
</g>
</g>
<!-- Node21&#45;&gt;Node24 -->
<g id="edge35" class="edge"><title>Node21&#45;&gt;Node24</title>
<path fill="none" stroke="midnightblue" d="M259.844,-224.083C258.916,-216.927 257.582,-206.635 256.423,-197.691"/>
<polygon fill="midnightblue" stroke="midnightblue" points="259.891,-197.218 255.134,-187.751 252.949,-198.118 259.891,-197.218"/>
</g>
<!-- Node24&#45;&gt;Node3 -->
<g id="edge38" class="edge"><title>Node24&#45;&gt;Node3</title>
<path fill="none" stroke="midnightblue" d="M272.697,-168.444C291.944,-159.636 322.152,-145.812 344.2,-135.722"/>
<polygon fill="midnightblue" stroke="midnightblue" points="345.753,-138.86 353.39,-131.516 342.84,-132.495 345.753,-138.86"/>
</g>
<!-- Node24&#45;&gt;Node4 -->
<g id="edge36" class="edge"><title>Node24&#45;&gt;Node4</title>
<path fill="none" stroke="midnightblue" d="M253.245,-168.345C251.84,-147.401 250.75,-92.9905 273,-56 280.862,-42.9296 294.092,-32.3986 306.131,-24.8198"/>
<polygon fill="midnightblue" stroke="midnightblue" points="308.15,-27.6925 314.996,-19.6065 304.602,-21.6584 308.15,-27.6925"/>
</g>
<!-- Node24&#45;&gt;Node15 -->
<g id="edge37" class="edge"><title>Node24&#45;&gt;Node15</title>
<path fill="none" stroke="midnightblue" d="M297.099,-168.444C350.942,-157.754 441.997,-139.677 491.481,-129.853"/>
<polygon fill="midnightblue" stroke="midnightblue" points="492.254,-133.268 501.381,-127.888 490.891,-126.402 492.254,-133.268"/>
</g>
<!-- Node25&#45;&gt;Node4 -->
<g id="edge41" class="edge"><title>Node25&#45;&gt;Node4</title>
<path fill="none" stroke="midnightblue" d="M232.322,-289.644C164.521,-289.526 0,-278.943 0,-179 0,-179 0,-179 0,-121 0,-58.6806 212.936,-25.6899 298.258,-14.9723"/>
<polygon fill="midnightblue" stroke="midnightblue" points="298.744,-18.439 308.243,-13.747 297.891,-11.4911 298.744,-18.439"/>
</g>
<!-- Node25&#45;&gt;Node21 -->
<g id="edge40" class="edge"><title>Node25&#45;&gt;Node21</title>
<path fill="none" stroke="midnightblue" d="M261,-280.083C261,-273.006 261,-262.861 261,-253.986"/>
<polygon fill="midnightblue" stroke="midnightblue" points="264.5,-253.751 261,-243.751 257.5,-253.751 264.5,-253.751"/>
</g>
</g>
</svg>
