<?xml version="1.0" encoding="UTF-8" standalone="no"?>
<!DOCTYPE svg PUBLIC "-//W3C//DTD SVG 1.1//EN"
 "http://www.w3.org/Graphics/SVG/1.1/DTD/svg11.dtd">
<!-- Generated by graphviz version 2.36.0 (20140111.2315)
 -->
<!-- Title: src/secp256k1/src/field.h Pages: 1 -->
<!--zoomable 436 -->
<svg id="main" version="1.1" xmlns="http://www.w3.org/2000/svg" xmlns:xlink="http://www.w3.org/1999/xlink" xml:space="preserve" onload="init(evt)">
<style type="text/css"><![CDATA[
.edge:hover path { stroke: red; }
.edge:hover polygon { stroke: red; fill: red; }
]]></style>
<script type="text/javascript"><![CDATA[
var edges = document.getElementsByTagName('g');
if (edges && edges.length) {
  for (var i=0;i<edges.length;i++) {
    if (edges[i].id.substr(0,4)=='edge') {
      edges[i].setAttribute('class','edge');
    }
  }
}
]]></script>
        <defs>
                <circle id="rim" cx="0" cy="0" r="7"/>
                <circle id="rim2" cx="0" cy="0" r="3.5"/>
                <g id="zoomPlus">
                        <use xlink:href="#rim" fill="#404040">
                                <set attributeName="fill" to="#808080" begin="zoomplus.mouseover" end="zoomplus.mouseout"/>
                        </use>
                        <path d="M-4,0h8M0,-4v8" fill="none" stroke="white" stroke-width="1.5" pointer-events="none"/>
                </g>
                <g id="zoomMin">
                        <use xlink:href="#rim" fill="#404040">
                                <set attributeName="fill" to="#808080" begin="zoomminus.mouseover" end="zoomminus.mouseout"/>
                        </use>
                        <path d="M-4,0h8" fill="none" stroke="white" stroke-width="1.5" pointer-events="none"/>
                </g>
                <g id="dirArrow">
                        <path fill="none" stroke="white" stroke-width="1.5" d="M0,-3.0v7 M-2.5,-0.5L0,-3.0L2.5,-0.5"/>
                </g>
               <g id="resetDef">
                       <use xlink:href="#rim2" fill="#404040">
                               <set attributeName="fill" to="#808080" begin="reset.mouseover" end="reset.mouseout"/>
                       </use>
               </g>
        </defs>

<script type="text/javascript">
var viewWidth = 1280;
var viewHeight = 436;
var sectionId = 'dynsection-1';
</script>
<script xlink:href="svgpan.js"/>
<svg id="graph" class="graph">
<g id="viewport">
<title>src/secp256k1/src/field.h</title>
<polygon fill="white" stroke="none" points="-4,4 -4,-432 1275.93,-432 1275.93,4 -4,4"/>
<!-- Node5 -->
<g id="node1" class="node"><title>Node5</title>
<polygon fill="#bfbfbf" stroke="black" points="799.8,-408.5 799.8,-427.5 925.8,-427.5 925.8,-408.5 799.8,-408.5"/>
<text text-anchor="middle" x="862.8" y="-415.5" font-family="Helvetica,sans-Serif" font-size="10.00">src/secp256k1/src/field.h</text>
</g>
<!-- Node6 -->
<g id="node2" class="node"><title>Node6</title>
<g id="a_node2"><a xlink:href="group__impl_8h.html" target="_top" xlink:title="src/secp256k1/src/group\l_impl.h">
<polygon fill="white" stroke="black" points="14.7996,-205 14.7996,-235 138.8,-235 138.8,-205 14.7996,-205"/>
<text text-anchor="start" x="22.7996" y="-223" font-family="Helvetica,sans-Serif" font-size="10.00">src/secp256k1/src/group</text>
<text text-anchor="middle" x="76.7996" y="-212" font-family="Helvetica,sans-Serif" font-size="10.00">_impl.h</text>
</a>
</g>
</g>
<!-- Node5&#45;&gt;Node6 -->
<g id="edge1" class="edge"><title>Node5&#45;&gt;Node6</title>
<path fill="none" stroke="midnightblue" d="M789.365,-414.987C621.363,-408.987 215.437,-386.149 110.8,-304 89.2427,-287.076 81.2562,-254.192 78.3698,-235.292"/>
<polygon fill="midnightblue" stroke="midnightblue" points="789.485,-418.493 799.6,-415.342 789.727,-411.497 789.485,-418.493"/>
</g>
<!-- Node12 -->
<g id="node8" class="node"><title>Node12</title>
<g id="a_node8"><a xlink:href="group_8h.html" target="_top" xlink:title="src/secp256k1/src/group.h">
<polygon fill="white" stroke="black" points="706.8,-346.5 706.8,-365.5 838.8,-365.5 838.8,-346.5 706.8,-346.5"/>
<text text-anchor="middle" x="772.8" y="-353.5" font-family="Helvetica,sans-Serif" font-size="10.00">src/secp256k1/src/group.h</text>
</a>
</g>
</g>
<!-- Node5&#45;&gt;Node12 -->
<g id="edge8" class="edge"><title>Node5&#45;&gt;Node12</title>
<path fill="none" stroke="midnightblue" d="M841.516,-402.811C824.166,-391.244 800.23,-375.287 785.67,-365.581"/>
<polygon fill="midnightblue" stroke="midnightblue" points="839.643,-405.769 849.905,-408.403 843.526,-399.944 839.643,-405.769"/>
</g>
<!-- Node19 -->
<g id="node15" class="node"><title>Node19</title>
<g id="a_node15"><a xlink:href="ecdsa__impl_8h.html" target="_top" xlink:title="src/secp256k1/src/ecdsa\l_impl.h">
<polygon fill="white" stroke="black" points="742.8,-137 742.8,-167 868.8,-167 868.8,-137 742.8,-137"/>
<text text-anchor="start" x="750.8" y="-155" font-family="Helvetica,sans-Serif" font-size="10.00">src/secp256k1/src/ecdsa</text>
<text text-anchor="middle" x="805.8" y="-144" font-family="Helvetica,sans-Serif" font-size="10.00">_impl.h</text>
</a>
</g>
</g>
<!-- Node5&#45;&gt;Node19 -->
<g id="edge46" class="edge"><title>Node5&#45;&gt;Node19</title>
<path fill="none" stroke="midnightblue" d="M875.085,-399.603C900.486,-361.291 953.169,-267.962 912.8,-204 901.651,-186.337 882.523,-174.663 863.495,-167.005"/>
<polygon fill="midnightblue" stroke="midnightblue" points="872.028,-397.872 869.288,-408.106 877.812,-401.815 872.028,-397.872"/>
</g>
<!-- Node22 -->
<g id="node18" class="node"><title>Node22</title>
<g id="a_node18"><a xlink:href="eckey__impl_8h.html" target="_top" xlink:title="src/secp256k1/src/eckey\l_impl.h">
<polygon fill="white" stroke="black" points="198.8,-137 198.8,-167 324.8,-167 324.8,-137 198.8,-137"/>
<text text-anchor="start" x="206.8" y="-155" font-family="Helvetica,sans-Serif" font-size="10.00">src/secp256k1/src/eckey</text>
<text text-anchor="middle" x="261.8" y="-144" font-family="Helvetica,sans-Serif" font-size="10.00">_impl.h</text>
</a>
</g>
</g>
<!-- Node5&#45;&gt;Node22 -->
<g id="edge47" class="edge"><title>Node5&#45;&gt;Node22</title>
<path fill="none" stroke="midnightblue" d="M789.54,-416.68C639.07,-415.276 300.162,-408.075 190.8,-372 93.8868,-340.032 48.345,-328.757 5.79957,-236 -0.129838,-223.073 -3.2213,-214.995 5.79957,-204 29.7291,-174.833 130.822,-162.033 198.583,-156.647"/>
<polygon fill="midnightblue" stroke="midnightblue" points="789.579,-420.18 799.609,-416.768 789.64,-413.18 789.579,-420.18"/>
</g>
<!-- Node25 -->
<g id="node21" class="node"><title>Node25</title>
<g id="a_node21"><a xlink:href="field__10x26__impl_8h.html" target="_top" xlink:title="src/secp256k1/src/field\l_10x26_impl.h">
<polygon fill="white" stroke="black" points="980.8,-341 980.8,-371 1098.8,-371 1098.8,-341 980.8,-341"/>
<text text-anchor="start" x="988.8" y="-359" font-family="Helvetica,sans-Serif" font-size="10.00">src/secp256k1/src/field</text>
<text text-anchor="middle" x="1039.8" y="-348" font-family="Helvetica,sans-Serif" font-size="10.00">_10x26_impl.h</text>
</a>
</g>
</g>
<!-- Node5&#45;&gt;Node25 -->
<g id="edge48" class="edge"><title>Node5&#45;&gt;Node25</title>
<path fill="none" stroke="midnightblue" d="M897.846,-405.12C926.773,-395.314 967.884,-381.378 998.425,-371.025"/>
<polygon fill="midnightblue" stroke="midnightblue" points="896.506,-401.878 888.159,-408.403 898.754,-408.508 896.506,-401.878"/>
</g>
<!-- Node26 -->
<g id="node22" class="node"><title>Node26</title>
<g id="a_node22"><a xlink:href="field__5x52__impl_8h.html" target="_top" xlink:title="src/secp256k1/src/field\l_5x52_impl.h">
<polygon fill="white" stroke="black" points="1116.8,-341 1116.8,-371 1234.8,-371 1234.8,-341 1116.8,-341"/>
<text text-anchor="start" x="1124.8" y="-359" font-family="Helvetica,sans-Serif" font-size="10.00">src/secp256k1/src/field</text>
<text text-anchor="middle" x="1175.8" y="-348" font-family="Helvetica,sans-Serif" font-size="10.00">_5x52_impl.h</text>
</a>
</g>
</g>
<!-- Node5&#45;&gt;Node26 -->
<g id="edge49" class="edge"><title>Node5&#45;&gt;Node26</title>
<path fill="none" stroke="midnightblue" d="M922.102,-406.715C971.791,-397.952 1044.55,-384.781 1107.8,-372 1110.64,-371.425 1113.55,-370.827 1116.49,-370.213"/>
<polygon fill="midnightblue" stroke="midnightblue" points="921.414,-403.282 912.171,-408.462 922.626,-410.176 921.414,-403.282"/>
</g>
<!-- Node7 -->
<g id="node3" class="node"><title>Node7</title>
<g id="a_node3"><a xlink:href="bench__internal_8c.html" target="_top" xlink:title="src/secp256k1/src/bench\l_internal.c">
<polygon fill="white" stroke="black" points="671.8,-1 671.8,-31 797.8,-31 797.8,-1 671.8,-1"/>
<text text-anchor="start" x="679.8" y="-19" font-family="Helvetica,sans-Serif" font-size="10.00">src/secp256k1/src/bench</text>
<text text-anchor="middle" x="734.8" y="-8" font-family="Helvetica,sans-Serif" font-size="10.00">_internal.c</text>
</a>
</g>
</g>
<!-- Node6&#45;&gt;Node7 -->
<g id="edge2" class="edge"><title>Node6&#45;&gt;Node7</title>
<path fill="none" stroke="midnightblue" d="M86.4975,-195.457C95.6033,-176.385 111.087,-150.397 132.8,-136 332.863,-3.34393 427.517,-79.5913 662.8,-32 665.678,-31.4178 668.62,-30.8191 671.592,-30.2116"/>
<polygon fill="midnightblue" stroke="midnightblue" points="83.2481,-194.149 82.3178,-204.703 89.6265,-197.032 83.2481,-194.149"/>
</g>
<!-- Node8 -->
<g id="node4" class="node"><title>Node8</title>
<g id="a_node4"><a xlink:href="secp256k1_8c.html" target="_top" xlink:title="src/secp256k1/src/secp256k1.c">
<polygon fill="white" stroke="black" points="531.3,-74.5 531.3,-93.5 686.3,-93.5 686.3,-74.5 531.3,-74.5"/>
<text text-anchor="middle" x="608.8" y="-81.5" font-family="Helvetica,sans-Serif" font-size="10.00">src/secp256k1/src/secp256k1.c</text>
</a>
</g>
</g>
<!-- Node6&#45;&gt;Node8 -->
<g id="edge3" class="edge"><title>Node6&#45;&gt;Node8</title>
<path fill="none" stroke="midnightblue" d="M98.5079,-197.66C119.842,-178.089 154.283,-150.075 189.8,-136 250.09,-112.106 427.31,-96.873 530.946,-89.7465"/>
<polygon fill="midnightblue" stroke="midnightblue" points="95.8995,-195.308 90.9981,-204.701 100.687,-200.415 95.8995,-195.308"/>
</g>
<!-- Node11 -->
<g id="node7" class="node"><title>Node11</title>
<g id="a_node7"><a xlink:href="gen__context_8c.html" target="_top" xlink:title="src/secp256k1/src/gen\l_context.c">
<polygon fill="white" stroke="black" points="464.8,-137 464.8,-167 580.8,-167 580.8,-137 464.8,-137"/>
<text text-anchor="start" x="472.8" y="-155" font-family="Helvetica,sans-Serif" font-size="10.00">src/secp256k1/src/gen</text>
<text text-anchor="middle" x="522.8" y="-144" font-family="Helvetica,sans-Serif" font-size="10.00">_context.c</text>
</a>
</g>
</g>
<!-- Node6&#45;&gt;Node11 -->
<g id="edge7" class="edge"><title>Node6&#45;&gt;Node11</title>
<path fill="none" stroke="midnightblue" d="M148.965,-208.321C236.815,-195.321 383.451,-173.621 464.5,-161.627"/>
<polygon fill="midnightblue" stroke="midnightblue" points="148.194,-204.897 138.814,-209.823 149.219,-211.821 148.194,-204.897"/>
</g>
<!-- Node8&#45;&gt;Node7 -->
<g id="edge4" class="edge"><title>Node8&#45;&gt;Node7</title>
<path fill="none" stroke="midnightblue" d="M634.375,-69.6034C655.699,-58.4338 685.995,-42.5642 707.726,-31.1815"/>
<polygon fill="midnightblue" stroke="midnightblue" points="632.506,-66.6311 625.272,-74.3717 635.754,-72.8319 632.506,-66.6311"/>
</g>
<!-- Node9 -->
<g id="node5" class="node"><title>Node9</title>
<g id="a_node5"><a xlink:href="tests_8c.html" target="_top" xlink:title="src/secp256k1/src/tests.c">
<polygon fill="white" stroke="black" points="523.8,-6.5 523.8,-25.5 653.8,-25.5 653.8,-6.5 523.8,-6.5"/>
<text text-anchor="middle" x="588.8" y="-13.5" font-family="Helvetica,sans-Serif" font-size="10.00">src/secp256k1/src/tests.c</text>
</a>
</g>
</g>
<!-- Node8&#45;&gt;Node9 -->
<g id="edge5" class="edge"><title>Node8&#45;&gt;Node9</title>
<path fill="none" stroke="midnightblue" d="M603.171,-64.425C599.344,-51.7978 594.455,-35.6623 591.479,-25.8411"/>
<polygon fill="midnightblue" stroke="midnightblue" points="599.935,-65.8165 606.185,-74.3717 606.634,-63.7864 599.935,-65.8165"/>
</g>
<!-- Node10 -->
<g id="node6" class="node"><title>Node10</title>
<g id="a_node6"><a xlink:href="tests__exhaustive_8c.html" target="_top" xlink:title="src/secp256k1/src/tests\l_exhaustive.c">
<polygon fill="white" stroke="black" points="1011.8,-1 1011.8,-31 1133.8,-31 1133.8,-1 1011.8,-1"/>
<text text-anchor="start" x="1019.8" y="-19" font-family="Helvetica,sans-Serif" font-size="10.00">src/secp256k1/src/tests</text>
<text text-anchor="middle" x="1072.8" y="-8" font-family="Helvetica,sans-Serif" font-size="10.00">_exhaustive.c</text>
</a>
</g>
</g>
<!-- Node8&#45;&gt;Node10 -->
<g id="edge6" class="edge"><title>Node8&#45;&gt;Node10</title>
<path fill="none" stroke="midnightblue" d="M679.159,-72.992C769.752,-60.1059 925.714,-37.9216 1011.62,-25.7029"/>
<polygon fill="midnightblue" stroke="midnightblue" points="678.391,-69.5659 668.984,-74.4393 679.377,-76.4961 678.391,-69.5659"/>
</g>
<!-- Node12&#45;&gt;Node6 -->
<g id="edge9" class="edge"><title>Node12&#45;&gt;Node6</title>
<path fill="none" stroke="midnightblue" d="M696.716,-355.588C552.776,-355.592 246.618,-349.985 152.8,-304 121.571,-288.694 97.027,-254.546 84.9693,-235.158"/>
<polygon fill="midnightblue" stroke="midnightblue" points="696.797,-359.088 706.794,-355.579 696.79,-352.088 696.797,-359.088"/>
</g>
<!-- Node12&#45;&gt;Node10 -->
<g id="edge45" class="edge"><title>Node12&#45;&gt;Node10</title>
<path fill="none" stroke="midnightblue" d="M849.005,-349.148C979.907,-338.777 1234.95,-317.036 1249.8,-304 1278.32,-278.968 1269.8,-258.945 1269.8,-221 1269.8,-221 1269.8,-221 1269.8,-151 1269.8,-84.3013 1191.64,-48.4625 1133.78,-31.0702"/>
<polygon fill="midnightblue" stroke="midnightblue" points="848.727,-345.659 839.033,-349.936 849.278,-352.638 848.727,-345.659"/>
</g>
<!-- Node13 -->
<g id="node9" class="node"><title>Node13</title>
<g id="a_node9"><a xlink:href="scalar__impl_8h.html" target="_top" xlink:title="src/secp256k1/src/scalar\l_impl.h">
<polygon fill="white" stroke="black" points="532.8,-205 532.8,-235 658.8,-235 658.8,-205 532.8,-205"/>
<text text-anchor="start" x="540.8" y="-223" font-family="Helvetica,sans-Serif" font-size="10.00">src/secp256k1/src/scalar</text>
<text text-anchor="middle" x="595.8" y="-212" font-family="Helvetica,sans-Serif" font-size="10.00">_impl.h</text>
</a>
</g>
</g>
<!-- Node12&#45;&gt;Node13 -->
<g id="edge10" class="edge"><title>Node12&#45;&gt;Node13</title>
<path fill="none" stroke="midnightblue" d="M725.226,-343.556C699.848,-335.643 669.305,-323.041 646.8,-304 624.334,-284.992 608.847,-253.479 601.23,-235.241"/>
<polygon fill="midnightblue" stroke="midnightblue" points="724.446,-346.975 735.028,-346.463 726.437,-340.264 724.446,-346.975"/>
</g>
<!-- Node14 -->
<g id="node10" class="node"><title>Node14</title>
<g id="a_node10"><a xlink:href="ecmult__const__impl_8h.html" target="_top" xlink:title="src/secp256k1/src/ecmult\l_const_impl.h">
<polygon fill="white" stroke="black" points="986.3,-137 986.3,-167 1115.3,-167 1115.3,-137 986.3,-137"/>
<text text-anchor="start" x="994.3" y="-155" font-family="Helvetica,sans-Serif" font-size="10.00">src/secp256k1/src/ecmult</text>
<text text-anchor="middle" x="1050.8" y="-144" font-family="Helvetica,sans-Serif" font-size="10.00">_const_impl.h</text>
</a>
</g>
</g>
<!-- Node12&#45;&gt;Node14 -->
<g id="edge14" class="edge"><title>Node12&#45;&gt;Node14</title>
<path fill="none" stroke="midnightblue" d="M848.968,-354.111C932.21,-348.461 1061.37,-324.853 1118.8,-236 1126.52,-224.056 1125.16,-216.721 1118.8,-204 1110.75,-187.897 1094.93,-175.56 1080.57,-167.056"/>
<polygon fill="midnightblue" stroke="midnightblue" points="848.57,-350.629 838.8,-354.728 848.994,-357.616 848.57,-350.629"/>
</g>
<!-- Node16 -->
<g id="node12" class="node"><title>Node16</title>
<g id="a_node12"><a xlink:href="ecmult__const_8h.html" target="_top" xlink:title="src/secp256k1/src/ecmult\l_const.h">
<polygon fill="white" stroke="black" points="1112.3,-273 1112.3,-303 1241.3,-303 1241.3,-273 1112.3,-273"/>
<text text-anchor="start" x="1120.3" y="-291" font-family="Helvetica,sans-Serif" font-size="10.00">src/secp256k1/src/ecmult</text>
<text text-anchor="middle" x="1176.8" y="-280" font-family="Helvetica,sans-Serif" font-size="10.00">_const.h</text>
</a>
</g>
</g>
<!-- Node12&#45;&gt;Node16 -->
<g id="edge18" class="edge"><title>Node12&#45;&gt;Node16</title>
<path fill="none" stroke="midnightblue" d="M840.962,-344.952C906.795,-335.094 1009.26,-319.348 1097.8,-304 1102.48,-303.189 1107.3,-302.329 1112.16,-301.447"/>
<polygon fill="midnightblue" stroke="midnightblue" points="840.092,-341.543 830.719,-346.483 841.126,-348.466 840.092,-341.543"/>
</g>
<!-- Node17 -->
<g id="node13" class="node"><title>Node17</title>
<g id="a_node13"><a xlink:href="ecmult__impl_8h.html" target="_top" xlink:title="src/secp256k1/src/ecmult\l_impl.h">
<polygon fill="white" stroke="black" points="981.3,-205 981.3,-235 1110.3,-235 1110.3,-205 981.3,-205"/>
<text text-anchor="start" x="989.3" y="-223" font-family="Helvetica,sans-Serif" font-size="10.00">src/secp256k1/src/ecmult</text>
<text text-anchor="middle" x="1045.8" y="-212" font-family="Helvetica,sans-Serif" font-size="10.00">_impl.h</text>
</a>
</g>
</g>
<!-- Node12&#45;&gt;Node17 -->
<g id="edge20" class="edge"><title>Node12&#45;&gt;Node17</title>
<path fill="none" stroke="midnightblue" d="M818.94,-343.85C850.777,-335.223 893.55,-321.75 928.8,-304 967.503,-284.51 1007.65,-253.171 1029.39,-235.093"/>
<polygon fill="midnightblue" stroke="midnightblue" points="817.782,-340.536 809.012,-346.48 819.574,-347.303 817.782,-340.536"/>
</g>
<!-- Node18 -->
<g id="node14" class="node"><title>Node18</title>
<g id="a_node14"><a xlink:href="ecmult_8h.html" target="_top" xlink:title="src/secp256k1/src/ecmult.h">
<polygon fill="white" stroke="black" points="656.3,-278.5 656.3,-297.5 793.3,-297.5 793.3,-278.5 656.3,-278.5"/>
<text text-anchor="middle" x="724.8" y="-285.5" font-family="Helvetica,sans-Serif" font-size="10.00">src/secp256k1/src/ecmult.h</text>
</a>
</g>
</g>
<!-- Node12&#45;&gt;Node18 -->
<g id="edge24" class="edge"><title>Node12&#45;&gt;Node18</title>
<path fill="none" stroke="midnightblue" d="M760.391,-337.938C751.063,-325.112 738.661,-308.059 731.229,-297.841"/>
<polygon fill="midnightblue" stroke="midnightblue" points="757.812,-340.343 766.524,-346.372 763.473,-336.226 757.812,-340.343"/>
</g>
<!-- Node12&#45;&gt;Node19 -->
<g id="edge41" class="edge"><title>Node12&#45;&gt;Node19</title>
<path fill="none" stroke="midnightblue" d="M796.363,-340.844C826.05,-321.468 875.621,-283.599 895.8,-236 901.351,-222.906 902.96,-216.288 895.8,-204 885.853,-186.931 867.838,-175.115 850.524,-167.188"/>
<polygon fill="midnightblue" stroke="midnightblue" points="794.409,-337.939 787.843,-346.254 798.162,-343.849 794.409,-337.939"/>
</g>
<!-- Node20 -->
<g id="node16" class="node"><title>Node20</title>
<g id="a_node16"><a xlink:href="ecdsa_8h.html" target="_top" xlink:title="src/secp256k1/src/ecdsa.h">
<polygon fill="white" stroke="black" points="752.8,-210.5 752.8,-229.5 886.8,-229.5 886.8,-210.5 752.8,-210.5"/>
<text text-anchor="middle" x="819.8" y="-217.5" font-family="Helvetica,sans-Serif" font-size="10.00">src/secp256k1/src/ecdsa.h</text>
</a>
</g>
</g>
<!-- Node12&#45;&gt;Node20 -->
<g id="edge42" class="edge"><title>Node12&#45;&gt;Node20</title>
<path fill="none" stroke="midnightblue" d="M784.308,-337.83C790.287,-328.23 797.27,-315.844 801.8,-304 811.702,-278.109 816.768,-245.483 818.76,-229.977"/>
<polygon fill="midnightblue" stroke="midnightblue" points="781.274,-336.077 778.793,-346.377 787.156,-339.873 781.274,-336.077"/>
</g>
<!-- Node21 -->
<g id="node17" class="node"><title>Node21</title>
<g id="a_node17"><a xlink:href="eckey_8h.html" target="_top" xlink:title="src/secp256k1/src/eckey.h">
<polygon fill="white" stroke="black" points="194.8,-210.5 194.8,-229.5 328.8,-229.5 328.8,-210.5 194.8,-210.5"/>
<text text-anchor="middle" x="261.8" y="-217.5" font-family="Helvetica,sans-Serif" font-size="10.00">src/secp256k1/src/eckey.h</text>
</a>
</g>
</g>
<!-- Node12&#45;&gt;Node21 -->
<g id="edge43" class="edge"><title>Node12&#45;&gt;Node21</title>
<path fill="none" stroke="midnightblue" d="M696.592,-349.733C598.085,-342.148 432.472,-326.54 375.8,-304 331.213,-286.267 288.075,-247.034 270.303,-229.618"/>
<polygon fill="midnightblue" stroke="midnightblue" points="696.554,-353.24 706.791,-350.508 697.085,-346.26 696.554,-353.24"/>
</g>
<!-- Node12&#45;&gt;Node22 -->
<g id="edge44" class="edge"><title>Node12&#45;&gt;Node22</title>
<path fill="none" stroke="midnightblue" d="M696.65,-354.739C605.088,-352.549 447.645,-342.765 318.8,-304 255.225,-284.873 220.448,-292.63 185.8,-236 178.377,-223.868 179.108,-216.55 185.8,-204 194.622,-187.455 211.458,-175.327 227.047,-167.059"/>
<polygon fill="midnightblue" stroke="midnightblue" points="696.592,-358.238 706.665,-354.954 696.742,-351.24 696.592,-358.238"/>
</g>
<!-- Node23 -->
<g id="node19" class="node"><title>Node23</title>
<g id="a_node19"><a xlink:href="ecmult__gen__impl_8h.html" target="_top" xlink:title="src/secp256k1/src/ecmult\l_gen_impl.h">
<polygon fill="white" stroke="black" points="385.3,-205 385.3,-235 514.3,-235 514.3,-205 385.3,-205"/>
<text text-anchor="start" x="393.3" y="-223" font-family="Helvetica,sans-Serif" font-size="10.00">src/secp256k1/src/ecmult</text>
<text text-anchor="middle" x="449.8" y="-212" font-family="Helvetica,sans-Serif" font-size="10.00">_gen_impl.h</text>
</a>
</g>
</g>
<!-- Node12&#45;&gt;Node23 -->
<g id="edge33" class="edge"><title>Node12&#45;&gt;Node23</title>
<path fill="none" stroke="midnightblue" d="M732.859,-343.554C701.222,-334.083 656.127,-319.682 617.8,-304 566.012,-282.811 507.976,-252.627 475.466,-235.1"/>
<polygon fill="midnightblue" stroke="midnightblue" points="732.05,-346.964 742.633,-346.451 734.04,-340.253 732.05,-346.964"/>
</g>
<!-- Node24 -->
<g id="node20" class="node"><title>Node24</title>
<g id="a_node20"><a xlink:href="ecmult__gen_8h.html" target="_top" xlink:title="src/secp256k1/src/ecmult\l_gen.h">
<polygon fill="white" stroke="black" points="385.3,-273 385.3,-303 514.3,-303 514.3,-273 385.3,-273"/>
<text text-anchor="start" x="393.3" y="-291" font-family="Helvetica,sans-Serif" font-size="10.00">src/secp256k1/src/ecmult</text>
<text text-anchor="middle" x="449.8" y="-280" font-family="Helvetica,sans-Serif" font-size="10.00">_gen.h</text>
</a>
</g>
</g>
<!-- Node12&#45;&gt;Node24 -->
<g id="edge36" class="edge"><title>Node12&#45;&gt;Node24</title>
<path fill="none" stroke="midnightblue" d="M720.824,-344.38C664.683,-332.908 575.152,-314.614 514.495,-302.219"/>
<polygon fill="midnightblue" stroke="midnightblue" points="720.406,-347.866 730.904,-346.439 721.807,-341.008 720.406,-347.866"/>
</g>
<!-- Node13&#45;&gt;Node7 -->
<g id="edge11" class="edge"><title>Node13&#45;&gt;Node7</title>
<path fill="none" stroke="midnightblue" d="M616.551,-197.423C637.898,-174.503 671.264,-136.598 694.8,-100 709.508,-77.1283 722.321,-48.0318 729.27,-31.0638"/>
<polygon fill="midnightblue" stroke="midnightblue" points="613.841,-195.196 609.538,-204.878 618.939,-199.993 613.841,-195.196"/>
</g>
<!-- Node13&#45;&gt;Node8 -->
<g id="edge12" class="edge"><title>Node13&#45;&gt;Node8</title>
<path fill="none" stroke="midnightblue" d="M598.181,-194.451C601.13,-164.056 606.002,-113.841 607.953,-93.7275"/>
<polygon fill="midnightblue" stroke="midnightblue" points="594.673,-194.368 597.191,-204.66 601.64,-195.044 594.673,-194.368"/>
</g>
<!-- Node13&#45;&gt;Node11 -->
<g id="edge13" class="edge"><title>Node13&#45;&gt;Node11</title>
<path fill="none" stroke="midnightblue" d="M572.27,-197.727C561.166,-187.687 548.22,-175.983 538.358,-167.066"/>
<polygon fill="midnightblue" stroke="midnightblue" points="570.195,-200.569 579.96,-204.679 574.889,-195.376 570.195,-200.569"/>
</g>
<!-- Node14&#45;&gt;Node7 -->
<g id="edge15" class="edge"><title>Node14&#45;&gt;Node7</title>
<path fill="none" stroke="midnightblue" d="M1027.44,-129.921C1002.91,-108.179 965.629,-76.3069 948.8,-68 901.194,-44.5026 842.195,-31.4863 798.209,-24.4967"/>
<polygon fill="midnightblue" stroke="midnightblue" points="1025.42,-132.815 1035.22,-136.857 1030.08,-127.59 1025.42,-132.815"/>
</g>
<!-- Node14&#45;&gt;Node8 -->
<g id="edge16" class="edge"><title>Node14&#45;&gt;Node8</title>
<path fill="none" stroke="midnightblue" d="M975.917,-139.818C888.298,-126.735 745.157,-105.361 665.982,-93.5385"/>
<polygon fill="midnightblue" stroke="midnightblue" points="975.648,-143.317 986.056,-141.332 976.682,-136.394 975.648,-143.317"/>
</g>
<!-- Node15 -->
<g id="node11" class="node"><title>Node15</title>
<g id="a_node11"><a xlink:href="ecdh_2main__impl_8h.html" target="_top" xlink:title="src/secp256k1/src/modules\l/ecdh/main_impl.h">
<polygon fill="white" stroke="black" points="1001.3,-69 1001.3,-99 1138.3,-99 1138.3,-69 1001.3,-69"/>
<text text-anchor="start" x="1009.3" y="-87" font-family="Helvetica,sans-Serif" font-size="10.00">src/secp256k1/src/modules</text>
<text text-anchor="middle" x="1069.8" y="-76" font-family="Helvetica,sans-Serif" font-size="10.00">/ecdh/main_impl.h</text>
</a>
</g>
</g>
<!-- Node14&#45;&gt;Node15 -->
<g id="edge17" class="edge"><title>Node14&#45;&gt;Node15</title>
<path fill="none" stroke="midnightblue" d="M1057.76,-126.831C1060.42,-117.581 1063.37,-107.331 1065.68,-99.2931"/>
<polygon fill="midnightblue" stroke="midnightblue" points="1054.33,-126.101 1054.92,-136.679 1061.05,-128.038 1054.33,-126.101"/>
</g>
<!-- Node16&#45;&gt;Node14 -->
<g id="edge19" class="edge"><title>Node16&#45;&gt;Node14</title>
<path fill="none" stroke="midnightblue" d="M1174.97,-262.751C1172.48,-244.767 1166.61,-220.593 1152.8,-204 1138.61,-186.959 1117.31,-175.067 1097.84,-167.081"/>
<polygon fill="midnightblue" stroke="midnightblue" points="1171.5,-263.228 1176.1,-272.772 1178.46,-262.442 1171.5,-263.228"/>
</g>
<!-- Node17&#45;&gt;Node7 -->
<g id="edge22" class="edge"><title>Node17&#45;&gt;Node7</title>
<path fill="none" stroke="midnightblue" d="M1015.29,-199.182C952.685,-158.521 811.044,-66.5222 756.644,-31.1886"/>
<polygon fill="midnightblue" stroke="midnightblue" points="1013.64,-202.284 1023.93,-204.796 1017.45,-196.413 1013.64,-202.284"/>
</g>
<!-- Node17&#45;&gt;Node8 -->
<g id="edge23" class="edge"><title>Node17&#45;&gt;Node8</title>
<path fill="none" stroke="midnightblue" d="M994.415,-201.392C971.286,-192.626 944.021,-181.098 920.8,-168 900.05,-156.296 899.614,-145.574 877.8,-136 816.646,-109.161 741.592,-96.4199 686.315,-90.3866"/>
<polygon fill="midnightblue" stroke="midnightblue" points="993.458,-204.77 1004.05,-204.977 995.899,-198.21 993.458,-204.77"/>
</g>
<!-- Node17&#45;&gt;Node14 -->
<g id="edge21" class="edge"><title>Node17&#45;&gt;Node14</title>
<path fill="none" stroke="midnightblue" d="M1047.65,-194.532C1048.35,-185.361 1049.11,-175.245 1049.72,-167.293"/>
<polygon fill="midnightblue" stroke="midnightblue" points="1044.15,-194.443 1046.88,-204.679 1051.13,-194.972 1044.15,-194.443"/>
</g>
<!-- Node18&#45;&gt;Node17 -->
<g id="edge25" class="edge"><title>Node18&#45;&gt;Node17</title>
<path fill="none" stroke="midnightblue" d="M776.437,-276.383C832.137,-264.931 920.924,-246.675 981.207,-234.281"/>
<polygon fill="midnightblue" stroke="midnightblue" points="775.526,-272.997 766.436,-278.439 776.936,-279.854 775.526,-272.997"/>
</g>
<!-- Node18&#45;&gt;Node19 -->
<g id="edge26" class="edge"><title>Node18&#45;&gt;Node19</title>
<path fill="none" stroke="midnightblue" d="M725.66,-268.11C727.232,-250.376 731.62,-223.7 743.8,-204 753.181,-188.826 768.681,-176.076 781.836,-167.119"/>
<polygon fill="midnightblue" stroke="midnightblue" points="722.153,-268.099 724.981,-278.309 729.138,-268.564 722.153,-268.099"/>
</g>
<!-- Node18&#45;&gt;Node20 -->
<g id="edge28" class="edge"><title>Node18&#45;&gt;Node20</title>
<path fill="none" stroke="midnightblue" d="M745.479,-272.634C764.362,-259.515 791.658,-240.551 807.377,-229.63"/>
<polygon fill="midnightblue" stroke="midnightblue" points="743.435,-269.792 737.219,-278.372 747.429,-275.54 743.435,-269.792"/>
</g>
<!-- Node18&#45;&gt;Node21 -->
<g id="edge30" class="edge"><title>Node18&#45;&gt;Node21</title>
<path fill="none" stroke="midnightblue" d="M654.824,-277.025C564.072,-264.088 407.298,-241.741 321.748,-229.546"/>
<polygon fill="midnightblue" stroke="midnightblue" points="654.351,-280.493 664.745,-278.439 655.339,-273.563 654.351,-280.493"/>
</g>
<!-- Node19&#45;&gt;Node8 -->
<g id="edge27" class="edge"><title>Node19&#45;&gt;Node8</title>
<path fill="none" stroke="midnightblue" d="M754.036,-133.658C715.53,-120.757 664.619,-103.701 634.43,-93.5868"/>
<polygon fill="midnightblue" stroke="midnightblue" points="752.944,-136.983 763.538,-136.841 755.168,-130.346 752.944,-136.983"/>
</g>
<!-- Node20&#45;&gt;Node19 -->
<g id="edge29" class="edge"><title>Node20&#45;&gt;Node19</title>
<path fill="none" stroke="midnightblue" d="M815.877,-200.508C813.638,-189.952 810.874,-176.923 808.808,-167.181"/>
<polygon fill="midnightblue" stroke="midnightblue" points="812.47,-201.316 817.969,-210.372 819.318,-199.863 812.47,-201.316"/>
</g>
<!-- Node21&#45;&gt;Node22 -->
<g id="edge31" class="edge"><title>Node21&#45;&gt;Node22</title>
<path fill="none" stroke="midnightblue" d="M261.8,-200.174C261.8,-189.678 261.8,-176.821 261.8,-167.181"/>
<polygon fill="midnightblue" stroke="midnightblue" points="258.3,-200.372 261.8,-210.372 265.3,-200.372 258.3,-200.372"/>
</g>
<!-- Node22&#45;&gt;Node8 -->
<g id="edge32" class="edge"><title>Node22&#45;&gt;Node8</title>
<path fill="none" stroke="midnightblue" d="M335.012,-137.075C404.252,-123.905 505.943,-104.564 563.923,-93.5357"/>
<polygon fill="midnightblue" stroke="midnightblue" points="334.211,-133.664 325.041,-138.971 335.519,-140.541 334.211,-133.664"/>
</g>
<!-- Node23&#45;&gt;Node8 -->
<g id="edge34" class="edge"><title>Node23&#45;&gt;Node8</title>
<path fill="none" stroke="midnightblue" d="M444.907,-194.652C442.732,-176.616 443.039,-152.421 455.8,-136 473.925,-112.675 503.095,-99.9135 531.129,-92.9701"/>
<polygon fill="midnightblue" stroke="midnightblue" points="441.474,-195.352 446.446,-204.707 448.393,-194.292 441.474,-195.352"/>
</g>
<!-- Node23&#45;&gt;Node11 -->
<g id="edge35" class="edge"><title>Node23&#45;&gt;Node11</title>
<path fill="none" stroke="midnightblue" d="M473.329,-197.727C484.434,-187.687 497.379,-175.983 507.241,-167.066"/>
<polygon fill="midnightblue" stroke="midnightblue" points="470.71,-195.376 465.639,-204.679 475.405,-200.569 470.71,-195.376"/>
</g>
<!-- Node24&#45;&gt;Node19 -->
<g id="edge38" class="edge"><title>Node24&#45;&gt;Node19</title>
<path fill="none" stroke="midnightblue" d="M524.47,-275.49C567.407,-267.417 621.788,-254.679 667.8,-236 691.502,-226.377 751.836,-188.099 784.317,-167.051"/>
<polygon fill="midnightblue" stroke="midnightblue" points="523.578,-272.095 514.374,-277.343 524.841,-278.98 523.578,-272.095"/>
</g>
<!-- Node24&#45;&gt;Node21 -->
<g id="edge39" class="edge"><title>Node24&#45;&gt;Node21</title>
<path fill="none" stroke="midnightblue" d="M399.933,-269.494C363.242,-256.613 314.947,-239.658 286.259,-229.587"/>
<polygon fill="midnightblue" stroke="midnightblue" points="398.874,-272.831 409.469,-272.841 401.193,-266.226 398.874,-272.831"/>
</g>
<!-- Node24&#45;&gt;Node22 -->
<g id="edge40" class="edge"><title>Node24&#45;&gt;Node22</title>
<path fill="none" stroke="midnightblue" d="M419.521,-267.097C405.936,-257.924 389.843,-246.713 375.8,-236 358.245,-222.609 355.437,-217.282 337.8,-204 320.283,-190.809 299.567,-177.019 284.191,-167.11"/>
<polygon fill="midnightblue" stroke="midnightblue" points="417.783,-270.146 428.038,-272.806 421.68,-264.331 417.783,-270.146"/>
</g>
<!-- Node24&#45;&gt;Node23 -->
<g id="edge37" class="edge"><title>Node24&#45;&gt;Node23</title>
<path fill="none" stroke="midnightblue" d="M449.8,-262.532C449.8,-253.361 449.8,-243.245 449.8,-235.293"/>
<polygon fill="midnightblue" stroke="midnightblue" points="446.3,-262.679 449.8,-272.679 453.3,-262.679 446.3,-262.679"/>
</g>
</g>
</svg>
        <g id="navigator" transform="translate(0 0)" fill="#404254">
                <rect fill="#f2f5e9" fill-opacity="0.5" stroke="#606060" stroke-width=".5" x="0" y="0" width="60" height="60"/>
                <use id="zoomplus" xlink:href="#zoomPlus" x="17" y="9" onmousedown="handleZoom(evt,'in')"/>
                <use id="zoomminus" xlink:href="#zoomMin" x="42" y="9" onmousedown="handleZoom(evt,'out')"/>
                <use id="reset" xlink:href="#resetDef" x="30" y="36" onmousedown="handleReset()"/>
                <g id="arrowUp" xlink:href="#dirArrow" transform="translate(30 24)" onmousedown="handlePan(0,-1)">
                  <use xlink:href="#rim" fill="#404040">
                        <set attributeName="fill" to="#808080" begin="arrowUp.mouseover" end="arrowUp.mouseout"/>
                  </use>
                  <path fill="none" stroke="white" stroke-width="1.5" d="M0,-3.0v7 M-2.5,-0.5L0,-3.0L2.5,-0.5"/>
                </g>
                <g id="arrowRight" xlink:href="#dirArrow" transform="rotate(90) translate(36 -43)" onmousedown="handlePan(1,0)">
                  <use xlink:href="#rim" fill="#404040">
                        <set attributeName="fill" to="#808080" begin="arrowRight.mouseover" end="arrowRight.mouseout"/>
                  </use>
                  <path fill="none" stroke="white" stroke-width="1.5" d="M0,-3.0v7 M-2.5,-0.5L0,-3.0L2.5,-0.5"/>
                </g>
                <g id="arrowDown" xlink:href="#dirArrow" transform="rotate(180) translate(-30 -48)" onmousedown="handlePan(0,1)">
                  <use xlink:href="#rim" fill="#404040">
                        <set attributeName="fill" to="#808080" begin="arrowDown.mouseover" end="arrowDown.mouseout"/>
                  </use>
                  <path fill="none" stroke="white" stroke-width="1.5" d="M0,-3.0v7 M-2.5,-0.5L0,-3.0L2.5,-0.5"/>
                </g>
                <g id="arrowLeft" xlink:href="#dirArrow" transform="rotate(270) translate(-36 17)" onmousedown="handlePan(-1,0)">
                  <use xlink:href="#rim" fill="#404040">
                        <set attributeName="fill" to="#808080" begin="arrowLeft.mouseover" end="arrowLeft.mouseout"/>
                  </use>
                  <path fill="none" stroke="white" stroke-width="1.5" d="M0,-3.0v7 M-2.5,-0.5L0,-3.0L2.5,-0.5"/>
                </g>
        </g>
        <svg viewBox="0 0 15 15" width="100%" height="30px" preserveAspectRatio="xMaxYMin meet">
         <g id="arrow_out" transform="scale(0.3 0.3)">
          <a xlink:href="field_8h__dep__incl_org.svg" target="_base">
           <rect id="button" ry="5" rx="5" y="6" x="6" height="38" width="38"
                fill="#f2f5e9" fill-opacity="0.5" stroke="#606060" stroke-width="1.0"/>
           <path id="arrow"
             d="M 11.500037,31.436501 C 11.940474,20.09759 22.043105,11.32322 32.158766,21.979434 L 37.068811,17.246167 C 37.068811,17.246167 37.088388,32 37.088388,32 L 22.160133,31.978069 C 22.160133,31.978069 26.997745,27.140456 26.997745,27.140456 C 18.528582,18.264221 13.291696,25.230495 11.500037,31.436501 z"
             style="fill:#404040;"/>
          </a>
         </g>
        </svg>
</svg>
