<?xml version="1.0" encoding="UTF-8" standalone="no"?>
<!DOCTYPE svg PUBLIC "-//W3C//DTD SVG 1.1//EN"
 "http://www.w3.org/Graphics/SVG/1.1/DTD/svg11.dtd">
<!-- Generated by graphviz version 2.36.0 (20140111.2315)
 -->
<!-- Title: src/univalue/gen/gen.cpp Pages: 1 -->
<svg width="427pt" height="140pt"
 viewBox="0.00 0.00 427.00 140.00" xmlns="http://www.w3.org/2000/svg" xmlns:xlink="http://www.w3.org/1999/xlink">
<g id="graph0" class="graph" transform="scale(1 1) rotate(0) translate(4 136)">
<title>src/univalue/gen/gen.cpp</title>
<polygon fill="white" stroke="none" points="-4,4 -4,-136 423,-136 423,4 -4,4"/>
<!-- Node0 -->
<g id="node1" class="node"><title>Node0</title>
<polygon fill="#bfbfbf" stroke="black" points="70.5,-112.5 70.5,-131.5 195.5,-131.5 195.5,-112.5 70.5,-112.5"/>
<text text-anchor="middle" x="133" y="-119.5" font-family="Helvetica,sans-Serif" font-size="10.00">src/univalue/gen/gen.cpp</text>
</g>
<!-- Node1 -->
<g id="node2" class="node"><title>Node1</title>
<polygon fill="white" stroke="#bfbfbf" points="44,-56.5 44,-75.5 90,-75.5 90,-56.5 44,-56.5"/>
<text text-anchor="middle" x="67" y="-63.5" font-family="Helvetica,sans-Serif" font-size="10.00">stdio.h</text>
</g>
<!-- Node0&#45;&gt;Node1 -->
<g id="edge1" class="edge"><title>Node0&#45;&gt;Node1</title>
<path fill="none" stroke="midnightblue" d="M122.396,-112.324C112.544,-104.263 97.6491,-92.0765 85.7849,-82.3695"/>
<polygon fill="midnightblue" stroke="midnightblue" points="87.7529,-79.4575 77.797,-75.8339 83.3202,-84.8752 87.7529,-79.4575"/>
</g>
<!-- Node2 -->
<g id="node3" class="node"><title>Node2</title>
<polygon fill="white" stroke="#bfbfbf" points="108.5,-56.5 108.5,-75.5 157.5,-75.5 157.5,-56.5 108.5,-56.5"/>
<text text-anchor="middle" x="133" y="-63.5" font-family="Helvetica,sans-Serif" font-size="10.00">string.h</text>
</g>
<!-- Node0&#45;&gt;Node2 -->
<g id="edge2" class="edge"><title>Node0&#45;&gt;Node2</title>
<path fill="none" stroke="midnightblue" d="M133,-112.083C133,-105.006 133,-94.8611 133,-85.9865"/>
<polygon fill="midnightblue" stroke="midnightblue" points="136.5,-85.751 133,-75.7511 129.5,-85.7511 136.5,-85.751"/>
</g>
<!-- Node3 -->
<g id="node4" class="node"><title>Node3</title>
<g id="a_node4"><a xlink:href="univalue_8h.html" target="_top" xlink:title="univalue.h">
<polygon fill="white" stroke="black" points="175.5,-56.5 175.5,-75.5 236.5,-75.5 236.5,-56.5 175.5,-56.5"/>
<text text-anchor="middle" x="206" y="-63.5" font-family="Helvetica,sans-Serif" font-size="10.00">univalue.h</text>
</a>
</g>
</g>
<!-- Node0&#45;&gt;Node3 -->
<g id="edge3" class="edge"><title>Node0&#45;&gt;Node3</title>
<path fill="none" stroke="midnightblue" d="M144.729,-112.324C155.837,-104.107 172.742,-91.6017 185.983,-81.8069"/>
<polygon fill="midnightblue" stroke="midnightblue" points="188.1,-84.5948 194.058,-75.8339 183.937,-78.9671 188.1,-84.5948"/>
</g>
<!-- Node4 -->
<g id="node5" class="node"><title>Node4</title>
<polygon fill="white" stroke="#bfbfbf" points="-0.5,-0.5 -0.5,-19.5 48.5,-19.5 48.5,-0.5 -0.5,-0.5"/>
<text text-anchor="middle" x="24" y="-7.5" font-family="Helvetica,sans-Serif" font-size="10.00">stdint.h</text>
</g>
<!-- Node3&#45;&gt;Node4 -->
<g id="edge4" class="edge"><title>Node3&#45;&gt;Node4</title>
<path fill="none" stroke="midnightblue" d="M177.162,-56.4435C144.867,-46.8617 92.5652,-31.3435 58.2255,-21.1548"/>
<polygon fill="midnightblue" stroke="midnightblue" points="59.2003,-17.7933 48.6178,-18.3042 57.2091,-24.5041 59.2003,-17.7933"/>
</g>
<!-- Node5 -->
<g id="node6" class="node"><title>Node5</title>
<polygon fill="white" stroke="#bfbfbf" points="66.5,-0.5 66.5,-19.5 107.5,-19.5 107.5,-0.5 66.5,-0.5"/>
<text text-anchor="middle" x="87" y="-7.5" font-family="Helvetica,sans-Serif" font-size="10.00">string</text>
</g>
<!-- Node3&#45;&gt;Node5 -->
<g id="edge5" class="edge"><title>Node3&#45;&gt;Node5</title>
<path fill="none" stroke="midnightblue" d="M187.144,-56.4435C167.734,-47.6356 137.27,-33.8116 115.035,-23.722"/>
<polygon fill="midnightblue" stroke="midnightblue" points="116.32,-20.4615 105.768,-19.5164 113.428,-26.836 116.32,-20.4615"/>
</g>
<!-- Node6 -->
<g id="node7" class="node"><title>Node6</title>
<polygon fill="white" stroke="#bfbfbf" points="126,-0.5 126,-19.5 170,-19.5 170,-0.5 126,-0.5"/>
<text text-anchor="middle" x="148" y="-7.5" font-family="Helvetica,sans-Serif" font-size="10.00">vector</text>
</g>
<!-- Node3&#45;&gt;Node6 -->
<g id="edge6" class="edge"><title>Node3&#45;&gt;Node6</title>
<path fill="none" stroke="midnightblue" d="M196.681,-56.324C188.107,-48.3414 175.188,-36.3128 164.812,-26.6529"/>
<polygon fill="midnightblue" stroke="midnightblue" points="167.192,-24.0865 157.488,-19.8339 162.422,-29.2098 167.192,-24.0865"/>
</g>
<!-- Node7 -->
<g id="node8" class="node"><title>Node7</title>
<polygon fill="white" stroke="#bfbfbf" points="188.5,-0.5 188.5,-19.5 223.5,-19.5 223.5,-0.5 188.5,-0.5"/>
<text text-anchor="middle" x="206" y="-7.5" font-family="Helvetica,sans-Serif" font-size="10.00">map</text>
</g>
<!-- Node3&#45;&gt;Node7 -->
<g id="edge7" class="edge"><title>Node3&#45;&gt;Node7</title>
<path fill="none" stroke="midnightblue" d="M206,-56.083C206,-49.0059 206,-38.8611 206,-29.9865"/>
<polygon fill="midnightblue" stroke="midnightblue" points="209.5,-29.751 206,-19.7511 202.5,-29.7511 209.5,-29.751"/>
</g>
<!-- Node8 -->
<g id="node9" class="node"><title>Node8</title>
<polygon fill="white" stroke="#bfbfbf" points="241.5,-0.5 241.5,-19.5 290.5,-19.5 290.5,-0.5 241.5,-0.5"/>
<text text-anchor="middle" x="266" y="-7.5" font-family="Helvetica,sans-Serif" font-size="10.00">cassert</text>
</g>
<!-- Node3&#45;&gt;Node8 -->
<g id="edge8" class="edge"><title>Node3&#45;&gt;Node8</title>
<path fill="none" stroke="midnightblue" d="M215.64,-56.324C224.51,-48.3414 237.875,-36.3128 248.608,-26.6529"/>
<polygon fill="midnightblue" stroke="midnightblue" points="251.093,-29.1251 256.185,-19.8339 246.41,-23.922 251.093,-29.1251"/>
</g>
<!-- Node9 -->
<g id="node10" class="node"><title>Node9</title>
<polygon fill="white" stroke="#bfbfbf" points="309,-0.5 309,-19.5 361,-19.5 361,-0.5 309,-0.5"/>
<text text-anchor="middle" x="335" y="-7.5" font-family="Helvetica,sans-Serif" font-size="10.00">sstream</text>
</g>
<!-- Node3&#45;&gt;Node9 -->
<g id="edge9" class="edge"><title>Node3&#45;&gt;Node9</title>
<path fill="none" stroke="midnightblue" d="M226.44,-56.4435C247.67,-47.5566 281.099,-33.5632 305.255,-23.4514"/>
<polygon fill="midnightblue" stroke="midnightblue" points="306.782,-26.6064 314.655,-19.5164 304.079,-20.1493 306.782,-26.6064"/>
</g>
<!-- Node10 -->
<g id="node11" class="node"><title>Node10</title>
<polygon fill="white" stroke="#bfbfbf" points="379,-0.5 379,-19.5 419,-19.5 419,-0.5 379,-0.5"/>
<text text-anchor="middle" x="399" y="-7.5" font-family="Helvetica,sans-Serif" font-size="10.00">utility</text>
</g>
<!-- Node3&#45;&gt;Node10 -->
<g id="edge10" class="edge"><title>Node3&#45;&gt;Node10</title>
<path fill="none" stroke="midnightblue" d="M236.613,-56.9246C267.686,-48.6568 317.405,-35.2335 369.077,-20.2041"/>
<polygon fill="midnightblue" stroke="midnightblue" points="370.127,-23.5438 378.744,-17.38 368.164,-16.8246 370.127,-23.5438"/>
</g>
</g>
</svg>
