<?xml version="1.0" encoding="UTF-8" standalone="no"?>
<!DOCTYPE svg PUBLIC "-//W3C//DTD SVG 1.1//EN"
 "http://www.w3.org/Graphics/SVG/1.1/DTD/svg11.dtd">
<!-- Generated by graphviz version 2.36.0 (20140111.2315)
 -->
<!-- Title: src/secp256k1/src/gen_context.c Pages: 1 -->
<svg width="587pt" height="376pt"
 viewBox="0.00 0.00 586.86 376.00" xmlns="http://www.w3.org/2000/svg" xmlns:xlink="http://www.w3.org/1999/xlink">
<g id="graph0" class="graph" transform="scale(1 1) rotate(0) translate(4 372)">
<title>src/secp256k1/src/gen_context.c</title>
<polygon fill="white" stroke="none" points="-4,4 -4,-372 582.864,-372 582.864,4 -4,4"/>
<!-- Node0 -->
<g id="node1" class="node"><title>Node0</title>
<polygon fill="#bfbfbf" stroke="black" points="196,-337 196,-367 312,-367 312,-337 196,-337"/>
<text text-anchor="start" x="204" y="-355" font-family="Helvetica,sans-Serif" font-size="10.00">src/secp256k1/src/gen</text>
<text text-anchor="middle" x="254" y="-344" font-family="Helvetica,sans-Serif" font-size="10.00">_context.c</text>
</g>
<!-- Node1 -->
<g id="node2" class="node"><title>Node1</title>
<g id="a_node2"><a xlink:href="basic-config_8h.html" target="_top" xlink:title="basic&#45;config.h">
<polygon fill="white" stroke="black" points="-0.5,-280.5 -0.5,-299.5 76.5,-299.5 76.5,-280.5 -0.5,-280.5"/>
<text text-anchor="middle" x="38" y="-287.5" font-family="Helvetica,sans-Serif" font-size="10.00">basic&#45;config.h</text>
</a>
</g>
</g>
<!-- Node0&#45;&gt;Node1 -->
<g id="edge1" class="edge"><title>Node0&#45;&gt;Node1</title>
<path fill="none" stroke="midnightblue" d="M203.358,-336.933C165.338,-326.372 113.959,-312.1 78.6153,-302.282"/>
<polygon fill="midnightblue" stroke="midnightblue" points="79.2177,-298.817 68.6457,-299.513 77.3441,-305.562 79.2177,-298.817"/>
</g>
<!-- Node2 -->
<g id="node3" class="node"><title>Node2</title>
<g id="a_node3"><a xlink:href="secp256k1_8h.html" target="_top" xlink:title="include/secp256k1.h">
<polygon fill="white" stroke="black" points="95,-280.5 95,-299.5 201,-299.5 201,-280.5 95,-280.5"/>
<text text-anchor="middle" x="148" y="-287.5" font-family="Helvetica,sans-Serif" font-size="10.00">include/secp256k1.h</text>
</a>
</g>
</g>
<!-- Node0&#45;&gt;Node2 -->
<g id="edge2" class="edge"><title>Node0&#45;&gt;Node2</title>
<path fill="none" stroke="midnightblue" d="M229.148,-336.933C211.903,-327.171 189.058,-314.24 172.001,-304.586"/>
<polygon fill="midnightblue" stroke="midnightblue" points="173.62,-301.48 163.193,-299.6 170.172,-307.572 173.62,-301.48"/>
</g>
<!-- Node4 -->
<g id="node5" class="node"><title>Node4</title>
<g id="a_node5"><a xlink:href="field__impl_8h.html" target="_top" xlink:title="field_impl.h">
<polygon fill="white" stroke="black" points="198,-168.5 198,-187.5 264,-187.5 264,-168.5 198,-168.5"/>
<text text-anchor="middle" x="231" y="-175.5" font-family="Helvetica,sans-Serif" font-size="10.00">field_impl.h</text>
</a>
</g>
</g>
<!-- Node0&#45;&gt;Node4 -->
<g id="edge4" class="edge"><title>Node0&#45;&gt;Node4</title>
<path fill="none" stroke="midnightblue" d="M252.118,-336.925C247.992,-306.073 238.152,-232.484 233.508,-197.755"/>
<polygon fill="midnightblue" stroke="midnightblue" points="236.943,-197.033 232.148,-187.585 230.004,-197.96 236.943,-197.033"/>
</g>
<!-- Node9 -->
<g id="node10" class="node"><title>Node9</title>
<g id="a_node10"><a xlink:href="scalar__impl_8h.html" target="_top" xlink:title="scalar_impl.h">
<polygon fill="white" stroke="black" points="347,-224.5 347,-243.5 421,-243.5 421,-224.5 347,-224.5"/>
<text text-anchor="middle" x="384" y="-231.5" font-family="Helvetica,sans-Serif" font-size="10.00">scalar_impl.h</text>
</a>
</g>
</g>
<!-- Node0&#45;&gt;Node9 -->
<g id="edge9" class="edge"><title>Node0&#45;&gt;Node9</title>
<path fill="none" stroke="midnightblue" d="M269.941,-336.776C294.428,-314.926 341.125,-273.258 366.512,-250.604"/>
<polygon fill="midnightblue" stroke="midnightblue" points="369.111,-252.976 374.242,-243.707 364.45,-247.753 369.111,-252.976"/>
</g>
<!-- Node14 -->
<g id="node15" class="node"><title>Node14</title>
<g id="a_node15"><a xlink:href="group__impl_8h.html" target="_top" xlink:title="group_impl.h">
<polygon fill="white" stroke="black" points="257,-224.5 257,-243.5 329,-243.5 329,-224.5 257,-224.5"/>
<text text-anchor="middle" x="293" y="-231.5" font-family="Helvetica,sans-Serif" font-size="10.00">group_impl.h</text>
</a>
</g>
</g>
<!-- Node0&#45;&gt;Node14 -->
<g id="edge16" class="edge"><title>Node0&#45;&gt;Node14</title>
<path fill="none" stroke="midnightblue" d="M258.782,-336.776C265.841,-315.781 279.051,-276.488 286.831,-253.349"/>
<polygon fill="midnightblue" stroke="midnightblue" points="290.203,-254.301 290.073,-243.707 283.568,-252.07 290.203,-254.301"/>
</g>
<!-- Node15 -->
<g id="node16" class="node"><title>Node15</title>
<g id="a_node16"><a xlink:href="ecmult__gen__impl_8h.html" target="_top" xlink:title="ecmult_gen_impl.h">
<polygon fill="white" stroke="black" points="466,-280.5 466,-299.5 564,-299.5 564,-280.5 466,-280.5"/>
<text text-anchor="middle" x="515" y="-287.5" font-family="Helvetica,sans-Serif" font-size="10.00">ecmult_gen_impl.h</text>
</a>
</g>
</g>
<!-- Node0&#45;&gt;Node15 -->
<g id="edge20" class="edge"><title>Node0&#45;&gt;Node15</title>
<path fill="none" stroke="midnightblue" d="M312.249,-337.61C359.22,-326.811 424.428,-311.821 468.086,-301.785"/>
<polygon fill="midnightblue" stroke="midnightblue" points="468.916,-305.185 477.877,-299.534 467.347,-298.363 468.916,-305.185"/>
</g>
<!-- Node3 -->
<g id="node4" class="node"><title>Node3</title>
<polygon fill="white" stroke="#bfbfbf" points="122,-224.5 122,-243.5 174,-243.5 174,-224.5 122,-224.5"/>
<text text-anchor="middle" x="148" y="-231.5" font-family="Helvetica,sans-Serif" font-size="10.00">stddef.h</text>
</g>
<!-- Node2&#45;&gt;Node3 -->
<g id="edge3" class="edge"><title>Node2&#45;&gt;Node3</title>
<path fill="none" stroke="midnightblue" d="M148,-280.083C148,-273.006 148,-262.861 148,-253.986"/>
<polygon fill="midnightblue" stroke="midnightblue" points="151.5,-253.751 148,-243.751 144.5,-253.751 151.5,-253.751"/>
</g>
<!-- Node5 -->
<g id="node6" class="node"><title>Node5</title>
<g id="a_node6"><a xlink:href="secp256k1_2src_2util_8h.html" target="_top" xlink:title="util.h">
<polygon fill="white" stroke="black" points="288,-56.5 288,-75.5 326,-75.5 326,-56.5 288,-56.5"/>
<text text-anchor="middle" x="307" y="-63.5" font-family="Helvetica,sans-Serif" font-size="10.00">util.h</text>
</a>
</g>
</g>
<!-- Node4&#45;&gt;Node5 -->
<g id="edge5" class="edge"><title>Node4&#45;&gt;Node5</title>
<path fill="none" stroke="midnightblue" d="M236.964,-168.368C249.506,-150.215 278.81,-107.802 295.261,-83.9902"/>
<polygon fill="midnightblue" stroke="midnightblue" points="298.259,-85.8083 301.064,-75.5914 292.5,-81.8292 298.259,-85.8083"/>
</g>
<!-- Node6 -->
<g id="node7" class="node"><title>Node6</title>
<polygon fill="white" stroke="#bfbfbf" points="457,-0.5 457,-19.5 505,-19.5 505,-0.5 457,-0.5"/>
<text text-anchor="middle" x="481" y="-7.5" font-family="Helvetica,sans-Serif" font-size="10.00">stdlib.h</text>
</g>
<!-- Node5&#45;&gt;Node6 -->
<g id="edge6" class="edge"><title>Node5&#45;&gt;Node6</title>
<path fill="none" stroke="midnightblue" d="M326.286,-59.0147C355.483,-49.9535 411.308,-32.6285 447.311,-21.4551"/>
<polygon fill="midnightblue" stroke="midnightblue" points="448.389,-24.7856 456.902,-18.4788 446.314,-18.1001 448.389,-24.7856"/>
</g>
<!-- Node7 -->
<g id="node8" class="node"><title>Node7</title>
<polygon fill="white" stroke="#bfbfbf" points="389.5,-0.5 389.5,-19.5 438.5,-19.5 438.5,-0.5 389.5,-0.5"/>
<text text-anchor="middle" x="414" y="-7.5" font-family="Helvetica,sans-Serif" font-size="10.00">stdint.h</text>
</g>
<!-- Node5&#45;&gt;Node7 -->
<g id="edge7" class="edge"><title>Node5&#45;&gt;Node7</title>
<path fill="none" stroke="midnightblue" d="M324.191,-56.324C341.351,-47.6641 367.946,-34.2424 387.747,-24.249"/>
<polygon fill="midnightblue" stroke="midnightblue" points="389.501,-27.2847 396.851,-19.6545 386.347,-21.0354 389.501,-27.2847"/>
</g>
<!-- Node8 -->
<g id="node9" class="node"><title>Node8</title>
<polygon fill="white" stroke="#bfbfbf" points="284,-0.5 284,-19.5 330,-19.5 330,-0.5 284,-0.5"/>
<text text-anchor="middle" x="307" y="-7.5" font-family="Helvetica,sans-Serif" font-size="10.00">stdio.h</text>
</g>
<!-- Node5&#45;&gt;Node8 -->
<g id="edge8" class="edge"><title>Node5&#45;&gt;Node8</title>
<path fill="none" stroke="midnightblue" d="M307,-56.083C307,-49.0059 307,-38.8611 307,-29.9865"/>
<polygon fill="midnightblue" stroke="midnightblue" points="310.5,-29.751 307,-19.7511 303.5,-29.7511 310.5,-29.751"/>
</g>
<!-- Node10 -->
<g id="node11" class="node"><title>Node10</title>
<g id="a_node11"><a xlink:href="group_8h.html" target="_top" xlink:title="group.h">
<polygon fill="white" stroke="black" points="359.5,-168.5 359.5,-187.5 408.5,-187.5 408.5,-168.5 359.5,-168.5"/>
<text text-anchor="middle" x="384" y="-175.5" font-family="Helvetica,sans-Serif" font-size="10.00">group.h</text>
</a>
</g>
</g>
<!-- Node9&#45;&gt;Node10 -->
<g id="edge10" class="edge"><title>Node9&#45;&gt;Node10</title>
<path fill="none" stroke="midnightblue" d="M384,-224.083C384,-217.006 384,-206.861 384,-197.986"/>
<polygon fill="midnightblue" stroke="midnightblue" points="387.5,-197.751 384,-187.751 380.5,-197.751 387.5,-197.751"/>
</g>
<!-- Node13 -->
<g id="node14" class="node"><title>Node13</title>
<g id="a_node14"><a xlink:href="scalar_8h.html" target="_top" xlink:title="scalar.h">
<polygon fill="white" stroke="black" points="458.5,-168.5 458.5,-187.5 509.5,-187.5 509.5,-168.5 458.5,-168.5"/>
<text text-anchor="middle" x="484" y="-175.5" font-family="Helvetica,sans-Serif" font-size="10.00">scalar.h</text>
</a>
</g>
</g>
<!-- Node9&#45;&gt;Node13 -->
<g id="edge14" class="edge"><title>Node9&#45;&gt;Node13</title>
<path fill="none" stroke="midnightblue" d="M400.067,-224.324C415.958,-215.743 440.507,-202.486 458.958,-192.522"/>
<polygon fill="midnightblue" stroke="midnightblue" points="460.837,-195.486 467.973,-187.655 457.511,-189.326 460.837,-195.486"/>
</g>
<!-- Node11 -->
<g id="node12" class="node"><title>Node11</title>
<g id="a_node12"><a xlink:href="num_8h.html" target="_top" xlink:title="num.h">
<polygon fill="white" stroke="black" points="362,-112.5 362,-131.5 406,-131.5 406,-112.5 362,-112.5"/>
<text text-anchor="middle" x="384" y="-119.5" font-family="Helvetica,sans-Serif" font-size="10.00">num.h</text>
</a>
</g>
</g>
<!-- Node10&#45;&gt;Node11 -->
<g id="edge11" class="edge"><title>Node10&#45;&gt;Node11</title>
<path fill="none" stroke="midnightblue" d="M384,-168.083C384,-161.006 384,-150.861 384,-141.986"/>
<polygon fill="midnightblue" stroke="midnightblue" points="387.5,-141.751 384,-131.751 380.5,-141.751 387.5,-141.751"/>
</g>
<!-- Node12 -->
<g id="node13" class="node"><title>Node12</title>
<g id="a_node13"><a xlink:href="field_8h.html" target="_top" xlink:title="field.h">
<polygon fill="white" stroke="black" points="285.5,-112.5 285.5,-131.5 328.5,-131.5 328.5,-112.5 285.5,-112.5"/>
<text text-anchor="middle" x="307" y="-119.5" font-family="Helvetica,sans-Serif" font-size="10.00">field.h</text>
</a>
</g>
</g>
<!-- Node10&#45;&gt;Node12 -->
<g id="edge12" class="edge"><title>Node10&#45;&gt;Node12</title>
<path fill="none" stroke="midnightblue" d="M371.629,-168.324C359.842,-160.058 341.868,-147.453 327.864,-137.632"/>
<polygon fill="midnightblue" stroke="midnightblue" points="329.538,-134.531 319.341,-131.655 325.518,-140.262 329.538,-134.531"/>
</g>
<!-- Node12&#45;&gt;Node5 -->
<g id="edge13" class="edge"><title>Node12&#45;&gt;Node5</title>
<path fill="none" stroke="midnightblue" d="M307,-112.083C307,-105.006 307,-94.8611 307,-85.9865"/>
<polygon fill="midnightblue" stroke="midnightblue" points="310.5,-85.751 307,-75.7511 303.5,-85.7511 310.5,-85.751"/>
</g>
<!-- Node13&#45;&gt;Node11 -->
<g id="edge15" class="edge"><title>Node13&#45;&gt;Node11</title>
<path fill="none" stroke="midnightblue" d="M467.933,-168.324C452.042,-159.743 427.493,-146.486 409.042,-136.522"/>
<polygon fill="midnightblue" stroke="midnightblue" points="410.489,-133.326 400.027,-131.655 407.163,-139.486 410.489,-133.326"/>
</g>
<!-- Node14&#45;&gt;Node10 -->
<g id="edge19" class="edge"><title>Node14&#45;&gt;Node10</title>
<path fill="none" stroke="midnightblue" d="M307.621,-224.324C321.949,-215.822 344.013,-202.729 360.749,-192.797"/>
<polygon fill="midnightblue" stroke="midnightblue" points="362.602,-195.768 369.416,-187.655 359.03,-189.748 362.602,-195.768"/>
</g>
<!-- Node14&#45;&gt;Node11 -->
<g id="edge17" class="edge"><title>Node14&#45;&gt;Node11</title>
<path fill="none" stroke="midnightblue" d="M300.141,-224.368C315.291,-206.055 350.869,-163.049 370.464,-139.362"/>
<polygon fill="midnightblue" stroke="midnightblue" points="373.215,-141.528 376.893,-131.591 367.821,-137.066 373.215,-141.528"/>
</g>
<!-- Node14&#45;&gt;Node12 -->
<g id="edge18" class="edge"><title>Node14&#45;&gt;Node12</title>
<path fill="none" stroke="midnightblue" d="M294.099,-224.368C296.358,-206.617 301.57,-165.666 304.633,-141.597"/>
<polygon fill="midnightblue" stroke="midnightblue" points="308.116,-141.953 305.907,-131.591 301.172,-141.069 308.116,-141.953"/>
</g>
<!-- Node15&#45;&gt;Node10 -->
<g id="edge22" class="edge"><title>Node15&#45;&gt;Node10</title>
<path fill="none" stroke="midnightblue" d="M504.721,-280.368C482.528,-261.733 429.889,-217.532 402.023,-194.134"/>
<polygon fill="midnightblue" stroke="midnightblue" points="404.141,-191.342 394.232,-187.591 399.639,-196.702 404.141,-191.342"/>
</g>
<!-- Node15&#45;&gt;Node13 -->
<g id="edge21" class="edge"><title>Node15&#45;&gt;Node13</title>
<path fill="none" stroke="midnightblue" d="M528.917,-280.314C546.527,-268.172 573.179,-245.224 561,-224 551.938,-208.208 534.954,-197.429 519.238,-190.389"/>
<polygon fill="midnightblue" stroke="midnightblue" points="520.279,-187.034 509.699,-186.478 517.624,-193.51 520.279,-187.034"/>
</g>
<!-- Node16 -->
<g id="node17" class="node"><title>Node16</title>
<g id="a_node17"><a xlink:href="ecmult__gen_8h.html" target="_top" xlink:title="ecmult_gen.h">
<polygon fill="white" stroke="black" points="477.5,-224.5 477.5,-243.5 552.5,-243.5 552.5,-224.5 477.5,-224.5"/>
<text text-anchor="middle" x="515" y="-231.5" font-family="Helvetica,sans-Serif" font-size="10.00">ecmult_gen.h</text>
</a>
</g>
</g>
<!-- Node15&#45;&gt;Node16 -->
<g id="edge23" class="edge"><title>Node15&#45;&gt;Node16</title>
<path fill="none" stroke="midnightblue" d="M515,-280.083C515,-273.006 515,-262.861 515,-253.986"/>
<polygon fill="midnightblue" stroke="midnightblue" points="518.5,-253.751 515,-243.751 511.5,-253.751 518.5,-253.751"/>
</g>
<!-- Node17 -->
<g id="node18" class="node"><title>Node17</title>
<g id="a_node18"><a xlink:href="hash__impl_8h.html" target="_top" xlink:title="hash_impl.h">
<polygon fill="white" stroke="black" points="438.5,-112.5 438.5,-131.5 507.5,-131.5 507.5,-112.5 438.5,-112.5"/>
<text text-anchor="middle" x="473" y="-119.5" font-family="Helvetica,sans-Serif" font-size="10.00">hash_impl.h</text>
</a>
</g>
</g>
<!-- Node15&#45;&gt;Node17 -->
<g id="edge26" class="edge"><title>Node15&#45;&gt;Node17</title>
<path fill="none" stroke="midnightblue" d="M534.906,-280.41C549.225,-273.04 567.458,-260.916 576,-244 580.007,-236.065 579.442,-232.195 576,-224 559.849,-185.543 521.119,-154.376 496.024,-137.291"/>
<polygon fill="midnightblue" stroke="midnightblue" points="497.737,-134.229 487.462,-131.646 493.884,-140.073 497.737,-134.229"/>
</g>
<!-- Node16&#45;&gt;Node10 -->
<g id="edge25" class="edge"><title>Node16&#45;&gt;Node10</title>
<path fill="none" stroke="midnightblue" d="M494.243,-224.444C472.684,-215.557 438.737,-201.563 414.206,-191.451"/>
<polygon fill="midnightblue" stroke="midnightblue" points="415.239,-188.092 404.66,-187.516 412.572,-194.563 415.239,-188.092"/>
</g>
<!-- Node16&#45;&gt;Node13 -->
<g id="edge24" class="edge"><title>Node16&#45;&gt;Node13</title>
<path fill="none" stroke="midnightblue" d="M509.881,-224.083C505.592,-216.613 499.342,-205.724 494.058,-196.52"/>
<polygon fill="midnightblue" stroke="midnightblue" points="497.038,-194.681 489.024,-187.751 490.967,-198.166 497.038,-194.681"/>
</g>
<!-- Node17&#45;&gt;Node6 -->
<g id="edge30" class="edge"><title>Node17&#45;&gt;Node6</title>
<path fill="none" stroke="midnightblue" d="M481.751,-112.286C489.563,-103.84 500.451,-90.2462 505,-76 510.241,-59.5862 502.104,-41.1915 493.919,-28.1708"/>
<polygon fill="midnightblue" stroke="midnightblue" points="496.682,-26.0125 488.14,-19.7448 490.909,-29.9714 496.682,-26.0125"/>
</g>
<!-- Node17&#45;&gt;Node7 -->
<g id="edge31" class="edge"><title>Node17&#45;&gt;Node7</title>
<path fill="none" stroke="midnightblue" d="M466.011,-112.422C459.075,-103.641 448.433,-89.4168 441,-76 432.589,-60.8186 425.2,-42.4749 420.288,-29.1508"/>
<polygon fill="midnightblue" stroke="midnightblue" points="423.571,-27.9352 416.908,-19.6977 416.979,-30.2923 423.571,-27.9352"/>
</g>
<!-- Node18 -->
<g id="node19" class="node"><title>Node18</title>
<g id="a_node19"><a xlink:href="secp256k1_2src_2hash_8h.html" target="_top" xlink:title="hash.h">
<polygon fill="white" stroke="black" points="450,-56.5 450,-75.5 496,-75.5 496,-56.5 450,-56.5"/>
<text text-anchor="middle" x="473" y="-63.5" font-family="Helvetica,sans-Serif" font-size="10.00">hash.h</text>
</a>
</g>
</g>
<!-- Node17&#45;&gt;Node18 -->
<g id="edge27" class="edge"><title>Node17&#45;&gt;Node18</title>
<path fill="none" stroke="midnightblue" d="M473,-112.083C473,-105.006 473,-94.8611 473,-85.9865"/>
<polygon fill="midnightblue" stroke="midnightblue" points="476.5,-85.751 473,-75.7511 469.5,-85.7511 476.5,-85.751"/>
</g>
<!-- Node19 -->
<g id="node20" class="node"><title>Node19</title>
<polygon fill="white" stroke="#bfbfbf" points="344.5,-56.5 344.5,-75.5 393.5,-75.5 393.5,-56.5 344.5,-56.5"/>
<text text-anchor="middle" x="369" y="-63.5" font-family="Helvetica,sans-Serif" font-size="10.00">string.h</text>
</g>
<!-- Node17&#45;&gt;Node19 -->
<g id="edge32" class="edge"><title>Node17&#45;&gt;Node19</title>
<path fill="none" stroke="midnightblue" d="M456.291,-112.324C439.688,-103.703 413.998,-90.3643 394.78,-80.3855"/>
<polygon fill="midnightblue" stroke="midnightblue" points="396.156,-77.1565 385.668,-75.6545 392.93,-83.3689 396.156,-77.1565"/>
</g>
<!-- Node18&#45;&gt;Node6 -->
<g id="edge28" class="edge"><title>Node18&#45;&gt;Node6</title>
<path fill="none" stroke="midnightblue" d="M474.321,-56.083C475.381,-48.9272 476.906,-38.6353 478.231,-29.6911"/>
<polygon fill="midnightblue" stroke="midnightblue" points="481.7,-30.1561 479.704,-19.7511 474.776,-29.1302 481.7,-30.1561"/>
</g>
<!-- Node18&#45;&gt;Node7 -->
<g id="edge29" class="edge"><title>Node18&#45;&gt;Node7</title>
<path fill="none" stroke="midnightblue" d="M463.521,-56.324C454.799,-48.3414 441.657,-36.3128 431.102,-26.6529"/>
<polygon fill="midnightblue" stroke="midnightblue" points="433.392,-24.0036 423.652,-19.8339 428.666,-29.1674 433.392,-24.0036"/>
</g>
</g>
</svg>
