<?xml version="1.0" encoding="UTF-8" standalone="no"?>
<!DOCTYPE svg PUBLIC "-//W3C//DTD SVG 1.1//EN"
 "http://www.w3.org/Graphics/SVG/1.1/DTD/svg11.dtd">
<!-- Generated by graphviz version 2.36.0 (20140111.2315)
 -->
<!-- Title: src/compat/glibcxx_sanity.cpp Pages: 1 -->
<svg width="173pt" height="96pt"
 viewBox="0.00 0.00 173.00 96.00" xmlns="http://www.w3.org/2000/svg" xmlns:xlink="http://www.w3.org/1999/xlink">
<g id="graph0" class="graph" transform="scale(1 1) rotate(0) translate(4 92)">
<title>src/compat/glibcxx_sanity.cpp</title>
<polygon fill="white" stroke="none" points="-4,4 -4,-92 169,-92 169,4 -4,4"/>
<!-- Node0 -->
<g id="node1" class="node"><title>Node0</title>
<polygon fill="#bfbfbf" stroke="black" points="17.5,-57 17.5,-87 116.5,-87 116.5,-57 17.5,-57"/>
<text text-anchor="start" x="25.5" y="-75" font-family="Helvetica,sans-Serif" font-size="10.00">src/compat/glibcxx</text>
<text text-anchor="middle" x="67" y="-64" font-family="Helvetica,sans-Serif" font-size="10.00">_sanity.cpp</text>
</g>
<!-- Node1 -->
<g id="node2" class="node"><title>Node1</title>
<polygon fill="white" stroke="#bfbfbf" points="-0.5,-0.5 -0.5,-19.5 28.5,-19.5 28.5,-0.5 -0.5,-0.5"/>
<text text-anchor="middle" x="14" y="-7.5" font-family="Helvetica,sans-Serif" font-size="10.00">list</text>
</g>
<!-- Node0&#45;&gt;Node1 -->
<g id="edge1" class="edge"><title>Node0&#45;&gt;Node1</title>
<path fill="none" stroke="midnightblue" d="M54.4397,-56.7808C46.6588,-47.9722 36.6364,-36.6262 28.516,-27.4332"/>
<polygon fill="midnightblue" stroke="midnightblue" points="30.9555,-24.9082 21.712,-19.7305 25.7092,-29.5424 30.9555,-24.9082"/>
</g>
<!-- Node2 -->
<g id="node3" class="node"><title>Node2</title>
<polygon fill="white" stroke="#bfbfbf" points="46,-0.5 46,-19.5 88,-19.5 88,-0.5 46,-0.5"/>
<text text-anchor="middle" x="67" y="-7.5" font-family="Helvetica,sans-Serif" font-size="10.00">locale</text>
</g>
<!-- Node0&#45;&gt;Node2 -->
<g id="edge2" class="edge"><title>Node0&#45;&gt;Node2</title>
<path fill="none" stroke="midnightblue" d="M67,-56.7808C67,-48.7812 67,-38.6887 67,-30.0168"/>
<polygon fill="midnightblue" stroke="midnightblue" points="70.5001,-29.7305 67,-19.7305 63.5001,-29.7306 70.5001,-29.7305"/>
</g>
<!-- Node3 -->
<g id="node4" class="node"><title>Node3</title>
<polygon fill="white" stroke="#bfbfbf" points="106.5,-0.5 106.5,-19.5 165.5,-19.5 165.5,-0.5 106.5,-0.5"/>
<text text-anchor="middle" x="136" y="-7.5" font-family="Helvetica,sans-Serif" font-size="10.00">stdexcept</text>
</g>
<!-- Node0&#45;&gt;Node3 -->
<g id="edge3" class="edge"><title>Node0&#45;&gt;Node3</title>
<path fill="none" stroke="midnightblue" d="M83.352,-56.7808C93.8954,-47.6127 107.6,-35.6957 118.384,-26.3186"/>
<polygon fill="midnightblue" stroke="midnightblue" points="120.71,-28.9335 125.96,-19.7305 116.117,-23.6512 120.71,-28.9335"/>
</g>
</g>
</svg>
