<?xml version="1.0" encoding="UTF-8" standalone="no"?>
<!DOCTYPE svg PUBLIC "-//W3C//DTD SVG 1.1//EN"
 "http://www.w3.org/Graphics/SVG/1.1/DTD/svg11.dtd">
<!-- Generated by graphviz version 2.36.0 (20140111.2315)
 -->
<!-- Title: src/governance&#45;validators.h Pages: 1 -->
<svg width="561pt" height="84pt"
 viewBox="0.00 0.00 561.00 84.00" xmlns="http://www.w3.org/2000/svg" xmlns:xlink="http://www.w3.org/1999/xlink">
<g id="graph0" class="graph" transform="scale(1 1) rotate(0) translate(4 80)">
<title>src/governance&#45;validators.h</title>
<polygon fill="white" stroke="none" points="-4,4 -4,-80 557,-80 557,4 -4,4"/>
<!-- Node9 -->
<g id="node1" class="node"><title>Node9</title>
<polygon fill="#bfbfbf" stroke="black" points="224.5,-56.5 224.5,-75.5 361.5,-75.5 361.5,-56.5 224.5,-56.5"/>
<text text-anchor="middle" x="293" y="-63.5" font-family="Helvetica,sans-Serif" font-size="10.00">src/governance&#45;validators.h</text>
</g>
<!-- Node10 -->
<g id="node2" class="node"><title>Node10</title>
<g id="a_node2"><a xlink:href="governance-object_8cpp.html" target="_top" xlink:title="src/governance&#45;object.cpp">
<polygon fill="white" stroke="black" points="-0.5,-0.5 -0.5,-19.5 130.5,-19.5 130.5,-0.5 -0.5,-0.5"/>
<text text-anchor="middle" x="65" y="-7.5" font-family="Helvetica,sans-Serif" font-size="10.00">src/governance&#45;object.cpp</text>
</a>
</g>
</g>
<!-- Node9&#45;&gt;Node10 -->
<g id="edge1" class="edge"><title>Node9&#45;&gt;Node10</title>
<path fill="none" stroke="midnightblue" d="M246.929,-54.0884C203.854,-43.8865 140.414,-28.8612 100.958,-19.5164"/>
<polygon fill="midnightblue" stroke="midnightblue" points="246.335,-57.5446 256.873,-56.4435 247.949,-50.733 246.335,-57.5446"/>
</g>
<!-- Node11 -->
<g id="node3" class="node"><title>Node11</title>
<g id="a_node3"><a xlink:href="governance-validators_8cpp.html" target="_top" xlink:title="src/governance&#45;validators.cpp">
<polygon fill="white" stroke="black" points="148.5,-0.5 148.5,-19.5 295.5,-19.5 295.5,-0.5 148.5,-0.5"/>
<text text-anchor="middle" x="222" y="-7.5" font-family="Helvetica,sans-Serif" font-size="10.00">src/governance&#45;validators.cpp</text>
</a>
</g>
</g>
<!-- Node9&#45;&gt;Node11 -->
<g id="edge2" class="edge"><title>Node9&#45;&gt;Node11</title>
<path fill="none" stroke="midnightblue" d="M273.41,-50.1008C260.632,-40.3824 244.387,-28.0269 233.615,-19.8339"/>
<polygon fill="midnightblue" stroke="midnightblue" points="271.514,-53.0561 281.593,-56.324 275.752,-47.4844 271.514,-53.0561"/>
</g>
<!-- Node12 -->
<g id="node4" class="node"><title>Node12</title>
<g id="a_node4"><a xlink:href="governance_8cpp.html" target="_top" xlink:title="src/governance.cpp">
<polygon fill="white" stroke="black" points="314,-0.5 314,-19.5 416,-19.5 416,-0.5 314,-0.5"/>
<text text-anchor="middle" x="365" y="-7.5" font-family="Helvetica,sans-Serif" font-size="10.00">src/governance.cpp</text>
</a>
</g>
</g>
<!-- Node9&#45;&gt;Node12 -->
<g id="edge3" class="edge"><title>Node9&#45;&gt;Node12</title>
<path fill="none" stroke="midnightblue" d="M312.866,-50.1008C325.823,-40.3824 342.297,-28.0269 353.221,-19.8339"/>
<polygon fill="midnightblue" stroke="midnightblue" points="310.468,-47.5239 304.568,-56.324 314.668,-53.1239 310.468,-47.5239"/>
</g>
<!-- Node13 -->
<g id="node5" class="node"><title>Node13</title>
<g id="a_node5"><a xlink:href="rpc_2governance_8cpp.html" target="_top" xlink:title="src/rpc/governance.cpp">
<polygon fill="white" stroke="black" points="434.5,-0.5 434.5,-19.5 553.5,-19.5 553.5,-0.5 434.5,-0.5"/>
<text text-anchor="middle" x="494" y="-7.5" font-family="Helvetica,sans-Serif" font-size="10.00">src/rpc/governance.cpp</text>
</a>
</g>
</g>
<!-- Node9&#45;&gt;Node13 -->
<g id="edge4" class="edge"><title>Node9&#45;&gt;Node13</title>
<path fill="none" stroke="midnightblue" d="M334.581,-53.8291C372.531,-43.6333 427.81,-28.7823 462.3,-19.5164"/>
<polygon fill="midnightblue" stroke="midnightblue" points="333.598,-50.4688 324.849,-56.4435 335.415,-57.229 333.598,-50.4688"/>
</g>
</g>
</svg>
