<?xml version="1.0" encoding="UTF-8" standalone="no"?>
<!DOCTYPE svg PUBLIC "-//W3C//DTD SVG 1.1//EN"
 "http://www.w3.org/Graphics/SVG/1.1/DTD/svg11.dtd">
<!-- Generated by graphviz version 2.36.0 (20140111.2315)
 -->
<!-- Title: src/governance.h Pages: 1 -->
<svg width="1078pt" height="140pt"
 viewBox="0.00 0.00 1078.00 140.00" xmlns="http://www.w3.org/2000/svg" xmlns:xlink="http://www.w3.org/1999/xlink">
<g id="graph0" class="graph" transform="scale(1 1) rotate(0) translate(4 136)">
<title>src/governance.h</title>
<polygon fill="white" stroke="none" points="-4,4 -4,-136 1074,-136 1074,4 -4,4"/>
<!-- Node166 -->
<g id="node1" class="node"><title>Node166</title>
<polygon fill="#bfbfbf" stroke="black" points="415,-112.5 415,-131.5 507,-131.5 507,-112.5 415,-112.5"/>
<text text-anchor="middle" x="461" y="-119.5" font-family="Helvetica,sans-Serif" font-size="10.00">src/governance.h</text>
</g>
<!-- Node167 -->
<g id="node2" class="node"><title>Node167</title>
<g id="a_node2"><a xlink:href="dsnotificationinterface_8cpp.html" target="_top" xlink:title="src/dsnotificationinterface.cpp">
<polygon fill="white" stroke="black" points="33.5,-56.5 33.5,-75.5 180.5,-75.5 180.5,-56.5 33.5,-56.5"/>
<text text-anchor="middle" x="107" y="-63.5" font-family="Helvetica,sans-Serif" font-size="10.00">src/dsnotificationinterface.cpp</text>
</a>
</g>
</g>
<!-- Node166&#45;&gt;Node167 -->
<g id="edge1" class="edge"><title>Node166&#45;&gt;Node167</title>
<path fill="none" stroke="midnightblue" d="M404.461,-112.375C338.161,-102.262 228.95,-85.6026 162.918,-75.5299"/>
<polygon fill="midnightblue" stroke="midnightblue" points="404.307,-115.892 414.721,-113.94 405.363,-108.972 404.307,-115.892"/>
</g>
<!-- Node168 -->
<g id="node3" class="node"><title>Node168</title>
<g id="a_node3"><a xlink:href="governance-classes_8h.html" target="_top" xlink:title="src/governance&#45;classes.h">
<polygon fill="white" stroke="black" points="275,-56.5 275,-75.5 403,-75.5 403,-56.5 275,-56.5"/>
<text text-anchor="middle" x="339" y="-63.5" font-family="Helvetica,sans-Serif" font-size="10.00">src/governance&#45;classes.h</text>
</a>
</g>
</g>
<!-- Node166&#45;&gt;Node168 -->
<g id="edge2" class="edge"><title>Node166&#45;&gt;Node168</title>
<path fill="none" stroke="midnightblue" d="M432.461,-108.368C409.614,-98.2553 378.195,-84.3486 358.241,-75.5164"/>
<polygon fill="midnightblue" stroke="midnightblue" points="431.108,-111.597 441.669,-112.444 433.941,-105.196 431.108,-111.597"/>
</g>
<!-- Node170 -->
<g id="node5" class="node"><title>Node170</title>
<g id="a_node5"><a xlink:href="governance-object_8cpp.html" target="_top" xlink:title="src/governance&#45;object.cpp">
<polygon fill="white" stroke="black" points="-0.5,-0.5 -0.5,-19.5 130.5,-19.5 130.5,-0.5 -0.5,-0.5"/>
<text text-anchor="middle" x="65" y="-7.5" font-family="Helvetica,sans-Serif" font-size="10.00">src/governance&#45;object.cpp</text>
</a>
</g>
</g>
<!-- Node166&#45;&gt;Node170 -->
<g id="edge9" class="edge"><title>Node166&#45;&gt;Node170</title>
<path fill="none" stroke="midnightblue" d="M404.56,-113.002C358.566,-105.704 292.258,-93.394 236,-76 214.311,-69.2943 210.122,-64.3196 189,-56 154.907,-42.5713 114.993,-28.3503 89.8513,-19.573"/>
<polygon fill="midnightblue" stroke="midnightblue" points="404.214,-116.491 414.634,-114.572 405.292,-109.574 404.214,-116.491"/>
</g>
<!-- Node171 -->
<g id="node6" class="node"><title>Node171</title>
<g id="a_node6"><a xlink:href="governance_8cpp.html" target="_top" xlink:title="src/governance.cpp">
<polygon fill="white" stroke="black" points="149,-0.5 149,-19.5 251,-19.5 251,-0.5 149,-0.5"/>
<text text-anchor="middle" x="200" y="-7.5" font-family="Helvetica,sans-Serif" font-size="10.00">src/governance.cpp</text>
</a>
</g>
</g>
<!-- Node166&#45;&gt;Node171 -->
<g id="edge10" class="edge"><title>Node166&#45;&gt;Node171</title>
<path fill="none" stroke="midnightblue" d="M404.735,-116.251C364.127,-110.921 309.093,-99.6695 266,-76 239.782,-61.5991 216.821,-33.8115 206.225,-19.6918"/>
<polygon fill="midnightblue" stroke="midnightblue" points="404.379,-119.734 414.732,-117.483 405.235,-112.787 404.379,-119.734"/>
</g>
<!-- Node173 -->
<g id="node8" class="node"><title>Node173</title>
<g id="a_node8"><a xlink:href="rpc_2governance_8cpp.html" target="_top" xlink:title="src/rpc/governance.cpp">
<polygon fill="white" stroke="black" points="708.5,-0.5 708.5,-19.5 827.5,-19.5 827.5,-0.5 708.5,-0.5"/>
<text text-anchor="middle" x="768" y="-7.5" font-family="Helvetica,sans-Serif" font-size="10.00">src/rpc/governance.cpp</text>
</a>
</g>
</g>
<!-- Node166&#45;&gt;Node173 -->
<g id="edge15" class="edge"><title>Node166&#45;&gt;Node173</title>
<path fill="none" stroke="midnightblue" d="M451.256,-102.887C445,-88.5083 439.918,-68.7661 451,-56 453.104,-53.5765 617.271,-31.214 708.491,-18.9539"/>
<polygon fill="midnightblue" stroke="midnightblue" points="448.281,-104.772 455.804,-112.232 454.575,-101.709 448.281,-104.772"/>
</g>
<!-- Node175 -->
<g id="node10" class="node"><title>Node175</title>
<g id="a_node10"><a xlink:href="init_8cpp.html" target="_top" xlink:title="src/init.cpp">
<polygon fill="white" stroke="black" points="459.5,-56.5 459.5,-75.5 524.5,-75.5 524.5,-56.5 459.5,-56.5"/>
<text text-anchor="middle" x="492" y="-63.5" font-family="Helvetica,sans-Serif" font-size="10.00">src/init.cpp</text>
</a>
</g>
</g>
<!-- Node166&#45;&gt;Node175 -->
<g id="edge11" class="edge"><title>Node166&#45;&gt;Node175</title>
<path fill="none" stroke="midnightblue" d="M471.176,-103.275C476.474,-94.0454 482.717,-83.1703 486.976,-75.7511"/>
<polygon fill="midnightblue" stroke="midnightblue" points="468.062,-101.668 466.119,-112.083 474.133,-105.153 468.062,-101.668"/>
</g>
<!-- Node176 -->
<g id="node11" class="node"><title>Node176</title>
<g id="a_node11"><a xlink:href="masternode-sync_8cpp.html" target="_top" xlink:title="src/masternode&#45;sync.cpp">
<polygon fill="white" stroke="black" points="542.5,-56.5 542.5,-75.5 669.5,-75.5 669.5,-56.5 542.5,-56.5"/>
<text text-anchor="middle" x="606" y="-63.5" font-family="Helvetica,sans-Serif" font-size="10.00">src/masternode&#45;sync.cpp</text>
</a>
</g>
</g>
<!-- Node166&#45;&gt;Node176 -->
<g id="edge12" class="edge"><title>Node166&#45;&gt;Node176</title>
<path fill="none" stroke="midnightblue" d="M493.475,-108.906C520.736,-98.7536 558.992,-84.5063 583.132,-75.5164"/>
<polygon fill="midnightblue" stroke="midnightblue" points="492.125,-105.674 483.976,-112.444 494.568,-112.233 492.125,-105.674"/>
</g>
<!-- Node177 -->
<g id="node12" class="node"><title>Node177</title>
<g id="a_node12"><a xlink:href="masternodeman_8cpp.html" target="_top" xlink:title="src/masternodeman.cpp">
<polygon fill="white" stroke="black" points="688,-56.5 688,-75.5 810,-75.5 810,-56.5 688,-56.5"/>
<text text-anchor="middle" x="749" y="-63.5" font-family="Helvetica,sans-Serif" font-size="10.00">src/masternodeman.cpp</text>
</a>
</g>
</g>
<!-- Node166&#45;&gt;Node177 -->
<g id="edge13" class="edge"><title>Node166&#45;&gt;Node177</title>
<path fill="none" stroke="midnightblue" d="M516.802,-110.537C571.232,-100.332 653.004,-84.9992 703.579,-75.5164"/>
<polygon fill="midnightblue" stroke="midnightblue" points="515.818,-107.161 506.634,-112.444 517.108,-114.041 515.818,-107.161"/>
</g>
<!-- Node178 -->
<g id="node13" class="node"><title>Node178</title>
<g id="a_node13"><a xlink:href="net__processing_8cpp.html" target="_top" xlink:title="src/net_processing.cpp">
<polygon fill="white" stroke="black" points="828,-56.5 828,-75.5 946,-75.5 946,-56.5 828,-56.5"/>
<text text-anchor="middle" x="887" y="-63.5" font-family="Helvetica,sans-Serif" font-size="10.00">src/net_processing.cpp</text>
</a>
</g>
</g>
<!-- Node166&#45;&gt;Node178 -->
<g id="edge14" class="edge"><title>Node166&#45;&gt;Node178</title>
<path fill="none" stroke="midnightblue" d="M517.069,-114.067C587.557,-105.326 712.266,-89.7713 819,-76 821.835,-75.6343 824.735,-75.258 827.665,-74.8764"/>
<polygon fill="midnightblue" stroke="midnightblue" points="516.564,-110.603 507.071,-115.307 517.425,-117.55 516.564,-110.603"/>
</g>
<!-- Node179 -->
<g id="node14" class="node"><title>Node179</title>
<g id="a_node14"><a xlink:href="wallet_8cpp.html" target="_top" xlink:title="src/wallet/wallet.cpp">
<polygon fill="white" stroke="black" points="964,-56.5 964,-75.5 1070,-75.5 1070,-56.5 964,-56.5"/>
<text text-anchor="middle" x="1017" y="-63.5" font-family="Helvetica,sans-Serif" font-size="10.00">src/wallet/wallet.cpp</text>
</a>
</g>
</g>
<!-- Node166&#45;&gt;Node179 -->
<g id="edge16" class="edge"><title>Node166&#45;&gt;Node179</title>
<path fill="none" stroke="midnightblue" d="M517.234,-116.859C609.019,-109.879 796.679,-94.6885 955,-76 957.916,-75.6557 960.907,-75.284 963.925,-74.8943"/>
<polygon fill="midnightblue" stroke="midnightblue" points="516.764,-113.384 507.057,-117.629 517.292,-120.364 516.764,-113.384"/>
</g>
<!-- Node169 -->
<g id="node4" class="node"><title>Node169</title>
<g id="a_node4"><a xlink:href="governance-classes_8cpp.html" target="_top" xlink:title="src/governance&#45;classes.cpp">
<polygon fill="white" stroke="black" points="269.5,-0.5 269.5,-19.5 408.5,-19.5 408.5,-0.5 269.5,-0.5"/>
<text text-anchor="middle" x="339" y="-7.5" font-family="Helvetica,sans-Serif" font-size="10.00">src/governance&#45;classes.cpp</text>
</a>
</g>
</g>
<!-- Node168&#45;&gt;Node169 -->
<g id="edge3" class="edge"><title>Node168&#45;&gt;Node169</title>
<path fill="none" stroke="midnightblue" d="M339,-45.8045C339,-36.9102 339,-26.7798 339,-19.7511"/>
<polygon fill="midnightblue" stroke="midnightblue" points="335.5,-46.083 339,-56.083 342.5,-46.083 335.5,-46.083"/>
</g>
<!-- Node168&#45;&gt;Node170 -->
<g id="edge4" class="edge"><title>Node168&#45;&gt;Node170</title>
<path fill="none" stroke="midnightblue" d="M285.587,-54.4734C233.803,-44.2678 156.229,-28.9794 108.213,-19.5164"/>
<polygon fill="midnightblue" stroke="midnightblue" points="285.096,-57.9438 295.584,-56.4435 286.449,-51.0759 285.096,-57.9438"/>
</g>
<!-- Node168&#45;&gt;Node171 -->
<g id="edge5" class="edge"><title>Node168&#45;&gt;Node171</title>
<path fill="none" stroke="midnightblue" d="M307.524,-52.772C281.415,-42.6287 244.961,-28.4669 221.922,-19.5164"/>
<polygon fill="midnightblue" stroke="midnightblue" points="306.386,-56.0847 316.975,-56.4435 308.921,-49.5598 306.386,-56.0847"/>
</g>
<!-- Node172 -->
<g id="node7" class="node"><title>Node172</title>
<g id="a_node7"><a xlink:href="masternode-payments_8cpp.html" target="_top" xlink:title="src/masternode&#45;payments.cpp">
<polygon fill="white" stroke="black" points="426.5,-0.5 426.5,-19.5 575.5,-19.5 575.5,-0.5 426.5,-0.5"/>
<text text-anchor="middle" x="501" y="-7.5" font-family="Helvetica,sans-Serif" font-size="10.00">src/masternode&#45;payments.cpp</text>
</a>
</g>
</g>
<!-- Node168&#45;&gt;Node172 -->
<g id="edge6" class="edge"><title>Node168&#45;&gt;Node172</title>
<path fill="none" stroke="midnightblue" d="M374.484,-53.172C404.988,-43.0039 448.245,-28.5852 475.451,-19.5164"/>
<polygon fill="midnightblue" stroke="midnightblue" points="373.049,-49.9608 364.669,-56.4435 375.263,-56.6016 373.049,-49.9608"/>
</g>
<!-- Node168&#45;&gt;Node173 -->
<g id="edge7" class="edge"><title>Node168&#45;&gt;Node173</title>
<path fill="none" stroke="midnightblue" d="M413.058,-55.8601C485.85,-46.8489 600.093,-32.632 699,-20 701.996,-19.6174 705.065,-19.2237 708.163,-18.8247"/>
<polygon fill="midnightblue" stroke="midnightblue" points="412.562,-52.3947 403.068,-57.0964 413.422,-59.3417 412.562,-52.3947"/>
</g>
<!-- Node174 -->
<g id="node9" class="node"><title>Node174</title>
<g id="a_node9"><a xlink:href="mining_8cpp.html" target="_top" xlink:title="src/rpc/mining.cpp">
<polygon fill="white" stroke="black" points="593.5,-0.5 593.5,-19.5 690.5,-19.5 690.5,-0.5 593.5,-0.5"/>
<text text-anchor="middle" x="642" y="-7.5" font-family="Helvetica,sans-Serif" font-size="10.00">src/rpc/mining.cpp</text>
</a>
</g>
</g>
<!-- Node168&#45;&gt;Node174 -->
<g id="edge8" class="edge"><title>Node168&#45;&gt;Node174</title>
<path fill="none" stroke="midnightblue" d="M396.995,-54.6642C454.257,-44.4592 540.783,-29.0386 594.213,-19.5164"/>
<polygon fill="midnightblue" stroke="midnightblue" points="396.242,-51.2432 387.011,-56.4435 397.47,-58.1346 396.242,-51.2432"/>
</g>
</g>
</svg>
