<?xml version="1.0" encoding="UTF-8" standalone="no"?>
<!DOCTYPE svg PUBLIC "-//W3C//DTD SVG 1.1//EN"
 "http://www.w3.org/Graphics/SVG/1.1/DTD/svg11.dtd">
<!-- Generated by graphviz version 2.36.0 (20140111.2315)
 -->
<!-- Title: src/secp256k1/src/group_impl.h Pages: 1 -->
<svg width="203pt" height="264pt"
 viewBox="0.00 0.00 203.00 264.00" xmlns="http://www.w3.org/2000/svg" xmlns:xlink="http://www.w3.org/1999/xlink">
<g id="graph0" class="graph" transform="scale(1 1) rotate(0) translate(4 260)">
<title>src/secp256k1/src/group_impl.h</title>
<polygon fill="white" stroke="none" points="-4,4 -4,-260 199,-260 199,4 -4,4"/>
<!-- Node0 -->
<g id="node1" class="node"><title>Node0</title>
<polygon fill="#bfbfbf" stroke="black" points="2,-225 2,-255 126,-255 126,-225 2,-225"/>
<text text-anchor="start" x="10" y="-243" font-family="Helvetica,sans-Serif" font-size="10.00">src/secp256k1/src/group</text>
<text text-anchor="middle" x="64" y="-232" font-family="Helvetica,sans-Serif" font-size="10.00">_impl.h</text>
</g>
<!-- Node1 -->
<g id="node2" class="node"><title>Node1</title>
<g id="a_node2"><a xlink:href="num_8h.html" target="_top" xlink:title="num.h">
<polygon fill="white" stroke="black" points="0,-112.5 0,-131.5 44,-131.5 44,-112.5 0,-112.5"/>
<text text-anchor="middle" x="22" y="-119.5" font-family="Helvetica,sans-Serif" font-size="10.00">num.h</text>
</a>
</g>
</g>
<!-- Node0&#45;&gt;Node1 -->
<g id="edge1" class="edge"><title>Node0&#45;&gt;Node1</title>
<path fill="none" stroke="midnightblue" d="M51.9097,-224.832C44.3147,-215.114 35.0336,-201.569 30,-188 24.4946,-173.159 22.6111,-155.237 22.0385,-141.973"/>
<polygon fill="midnightblue" stroke="midnightblue" points="25.532,-141.633 21.8145,-131.711 18.5336,-141.785 25.532,-141.633"/>
</g>
<!-- Node2 -->
<g id="node3" class="node"><title>Node2</title>
<g id="a_node3"><a xlink:href="field_8h.html" target="_top" xlink:title="field.h">
<polygon fill="white" stroke="black" points="84.5,-112.5 84.5,-131.5 127.5,-131.5 127.5,-112.5 84.5,-112.5"/>
<text text-anchor="middle" x="106" y="-119.5" font-family="Helvetica,sans-Serif" font-size="10.00">field.h</text>
</a>
</g>
</g>
<!-- Node0&#45;&gt;Node2 -->
<g id="edge2" class="edge"><title>Node0&#45;&gt;Node2</title>
<path fill="none" stroke="midnightblue" d="M75.6605,-224.749C83.0008,-214.997 92.0019,-201.444 97,-188 102.527,-173.134 104.704,-155.213 105.541,-141.957"/>
<polygon fill="midnightblue" stroke="midnightblue" points="109.049,-141.844 105.981,-131.703 102.055,-141.543 109.049,-141.844"/>
</g>
<!-- Node7 -->
<g id="node8" class="node"><title>Node7</title>
<g id="a_node8"><a xlink:href="group_8h.html" target="_top" xlink:title="group.h">
<polygon fill="white" stroke="black" points="39.5,-168.5 39.5,-187.5 88.5,-187.5 88.5,-168.5 39.5,-168.5"/>
<text text-anchor="middle" x="64" y="-175.5" font-family="Helvetica,sans-Serif" font-size="10.00">group.h</text>
</a>
</g>
</g>
<!-- Node0&#45;&gt;Node7 -->
<g id="edge7" class="edge"><title>Node0&#45;&gt;Node7</title>
<path fill="none" stroke="midnightblue" d="M64,-224.781C64,-216.781 64,-206.689 64,-198.017"/>
<polygon fill="midnightblue" stroke="midnightblue" points="67.5001,-197.73 64,-187.731 60.5001,-197.731 67.5001,-197.73"/>
</g>
<!-- Node3 -->
<g id="node4" class="node"><title>Node3</title>
<g id="a_node4"><a xlink:href="secp256k1_2src_2util_8h.html" target="_top" xlink:title="util.h">
<polygon fill="white" stroke="black" points="87,-56.5 87,-75.5 125,-75.5 125,-56.5 87,-56.5"/>
<text text-anchor="middle" x="106" y="-63.5" font-family="Helvetica,sans-Serif" font-size="10.00">util.h</text>
</a>
</g>
</g>
<!-- Node2&#45;&gt;Node3 -->
<g id="edge3" class="edge"><title>Node2&#45;&gt;Node3</title>
<path fill="none" stroke="midnightblue" d="M106,-112.083C106,-105.006 106,-94.8611 106,-85.9865"/>
<polygon fill="midnightblue" stroke="midnightblue" points="109.5,-85.751 106,-75.7511 102.5,-85.7511 109.5,-85.751"/>
</g>
<!-- Node4 -->
<g id="node5" class="node"><title>Node4</title>
<polygon fill="white" stroke="#bfbfbf" points="15,-0.5 15,-19.5 63,-19.5 63,-0.5 15,-0.5"/>
<text text-anchor="middle" x="39" y="-7.5" font-family="Helvetica,sans-Serif" font-size="10.00">stdlib.h</text>
</g>
<!-- Node3&#45;&gt;Node4 -->
<g id="edge4" class="edge"><title>Node3&#45;&gt;Node4</title>
<path fill="none" stroke="midnightblue" d="M95.2353,-56.324C85.2339,-48.2631 70.1135,-36.0765 58.0695,-26.3695"/>
<polygon fill="midnightblue" stroke="midnightblue" points="59.9429,-23.3841 49.9606,-19.8339 55.5502,-28.8343 59.9429,-23.3841"/>
</g>
<!-- Node5 -->
<g id="node6" class="node"><title>Node5</title>
<polygon fill="white" stroke="#bfbfbf" points="81.5,-0.5 81.5,-19.5 130.5,-19.5 130.5,-0.5 81.5,-0.5"/>
<text text-anchor="middle" x="106" y="-7.5" font-family="Helvetica,sans-Serif" font-size="10.00">stdint.h</text>
</g>
<!-- Node3&#45;&gt;Node5 -->
<g id="edge5" class="edge"><title>Node3&#45;&gt;Node5</title>
<path fill="none" stroke="midnightblue" d="M106,-56.083C106,-49.0059 106,-38.8611 106,-29.9865"/>
<polygon fill="midnightblue" stroke="midnightblue" points="109.5,-29.751 106,-19.7511 102.5,-29.7511 109.5,-29.751"/>
</g>
<!-- Node6 -->
<g id="node7" class="node"><title>Node6</title>
<polygon fill="white" stroke="#bfbfbf" points="149,-0.5 149,-19.5 195,-19.5 195,-0.5 149,-0.5"/>
<text text-anchor="middle" x="172" y="-7.5" font-family="Helvetica,sans-Serif" font-size="10.00">stdio.h</text>
</g>
<!-- Node3&#45;&gt;Node6 -->
<g id="edge6" class="edge"><title>Node3&#45;&gt;Node6</title>
<path fill="none" stroke="midnightblue" d="M116.604,-56.324C126.456,-48.2631 141.351,-36.0765 153.215,-26.3695"/>
<polygon fill="midnightblue" stroke="midnightblue" points="155.68,-28.8752 161.203,-19.8339 151.247,-23.4575 155.68,-28.8752"/>
</g>
<!-- Node7&#45;&gt;Node1 -->
<g id="edge8" class="edge"><title>Node7&#45;&gt;Node1</title>
<path fill="none" stroke="midnightblue" d="M57.0646,-168.083C51.0708,-160.377 42.2482,-149.033 34.9524,-139.653"/>
<polygon fill="midnightblue" stroke="midnightblue" points="37.7086,-137.496 28.8064,-131.751 32.1831,-141.793 37.7086,-137.496"/>
</g>
<!-- Node7&#45;&gt;Node2 -->
<g id="edge9" class="edge"><title>Node7&#45;&gt;Node2</title>
<path fill="none" stroke="midnightblue" d="M70.9354,-168.083C76.9292,-160.377 85.7518,-149.033 93.0476,-139.653"/>
<polygon fill="midnightblue" stroke="midnightblue" points="95.8169,-141.793 99.1936,-131.751 90.2914,-137.496 95.8169,-141.793"/>
</g>
</g>
</svg>
