<?xml version="1.0" encoding="UTF-8" standalone="no"?>
<!DOCTYPE svg PUBLIC "-//W3C//DTD SVG 1.1//EN"
 "http://www.w3.org/Graphics/SVG/1.1/DTD/svg11.dtd">
<!-- Generated by graphviz version 2.36.0 (20140111.2315)
 -->
<!-- Title: src/qt/guiutil.h Pages: 1 -->
<svg width="4951pt" height="140pt"
 viewBox="0.00 0.00 4951.00 140.00" xmlns="http://www.w3.org/2000/svg" xmlns:xlink="http://www.w3.org/1999/xlink">
<g id="graph0" class="graph" transform="scale(1 1) rotate(0) translate(4 136)">
<title>src/qt/guiutil.h</title>
<polygon fill="white" stroke="none" points="-4,4 -4,-136 4947,-136 4947,4 -4,4"/>
<!-- Node30 -->
<g id="node1" class="node"><title>Node30</title>
<polygon fill="#bfbfbf" stroke="black" points="2345,-112.5 2345,-131.5 2423,-131.5 2423,-112.5 2345,-112.5"/>
<text text-anchor="middle" x="2384" y="-119.5" font-family="Helvetica,sans-Serif" font-size="10.00">src/qt/guiutil.h</text>
</g>
<!-- Node31 -->
<g id="node2" class="node"><title>Node31</title>
<g id="a_node2"><a xlink:href="addressbookpage_8cpp.html" target="_top" xlink:title="src/qt/addressbookpage.cpp">
<polygon fill="white" stroke="black" points="0,-56.5 0,-75.5 140,-75.5 140,-56.5 0,-56.5"/>
<text text-anchor="middle" x="70" y="-63.5" font-family="Helvetica,sans-Serif" font-size="10.00">src/qt/addressbookpage.cpp</text>
</a>
</g>
</g>
<!-- Node30&#45;&gt;Node31 -->
<g id="edge1" class="edge"><title>Node30&#45;&gt;Node31</title>
<path fill="none" stroke="midnightblue" d="M2334.81,-120.635C2048.6,-118.417 595.099,-105.836 149,-76 146.108,-75.8066 143.158,-75.5843 140.18,-75.3392"/>
<polygon fill="midnightblue" stroke="midnightblue" points="2334.86,-124.136 2344.88,-120.713 2334.91,-117.136 2334.86,-124.136"/>
</g>
<!-- Node32 -->
<g id="node3" class="node"><title>Node32</title>
<g id="a_node3"><a xlink:href="addresstablemodel_8cpp.html" target="_top" xlink:title="src/qt/addresstablemodel.cpp">
<polygon fill="white" stroke="black" points="158.5,-56.5 158.5,-75.5 303.5,-75.5 303.5,-56.5 158.5,-56.5"/>
<text text-anchor="middle" x="231" y="-63.5" font-family="Helvetica,sans-Serif" font-size="10.00">src/qt/addresstablemodel.cpp</text>
</a>
</g>
</g>
<!-- Node30&#45;&gt;Node32 -->
<g id="edge2" class="edge"><title>Node30&#45;&gt;Node32</title>
<path fill="none" stroke="midnightblue" d="M2334.99,-120.519C2061.81,-117.75 724.659,-103.011 313,-76 309.999,-75.8031 306.938,-75.5779 303.848,-75.3304"/>
<polygon fill="midnightblue" stroke="midnightblue" points="2334.96,-124.019 2345,-120.62 2335.03,-117.019 2334.96,-124.019"/>
</g>
<!-- Node33 -->
<g id="node4" class="node"><title>Node33</title>
<g id="a_node4"><a xlink:href="bantablemodel_8cpp.html" target="_top" xlink:title="src/qt/bantablemodel.cpp">
<polygon fill="white" stroke="black" points="322,-56.5 322,-75.5 448,-75.5 448,-56.5 322,-56.5"/>
<text text-anchor="middle" x="385" y="-63.5" font-family="Helvetica,sans-Serif" font-size="10.00">src/qt/bantablemodel.cpp</text>
</a>
</g>
</g>
<!-- Node30&#45;&gt;Node33 -->
<g id="edge3" class="edge"><title>Node30&#45;&gt;Node33</title>
<path fill="none" stroke="midnightblue" d="M2334.41,-120.464C2071.87,-117.534 841.924,-102.593 462,-76 457.569,-75.6899 453.001,-75.3101 448.405,-74.8839"/>
<polygon fill="midnightblue" stroke="midnightblue" points="2334.72,-123.968 2344.76,-120.579 2334.8,-116.969 2334.72,-123.968"/>
</g>
<!-- Node34 -->
<g id="node5" class="node"><title>Node34</title>
<g id="a_node5"><a xlink:href="bitcoingui_8cpp.html" target="_top" xlink:title="src/qt/bitcoingui.cpp">
<polygon fill="white" stroke="black" points="432,-0.5 432,-19.5 536,-19.5 536,-0.5 432,-0.5"/>
<text text-anchor="middle" x="484" y="-7.5" font-family="Helvetica,sans-Serif" font-size="10.00">src/qt/bitcoingui.cpp</text>
</a>
</g>
</g>
<!-- Node30&#45;&gt;Node34 -->
<g id="edge4" class="edge"><title>Node30&#45;&gt;Node34</title>
<path fill="none" stroke="midnightblue" d="M2334.58,-120.684C2040.33,-118.696 530.812,-106.999 495,-76 478.904,-62.0676 480.391,-34.0676 482.407,-19.7969"/>
<polygon fill="midnightblue" stroke="midnightblue" points="2334.9,-124.186 2344.92,-120.753 2334.95,-117.186 2334.9,-124.186"/>
</g>
<!-- Node35 -->
<g id="node6" class="node"><title>Node35</title>
<g id="a_node6"><a xlink:href="rpcconsole_8h.html" target="_top" xlink:title="src/qt/rpcconsole.h">
<polygon fill="white" stroke="black" points="504,-56.5 504,-75.5 604,-75.5 604,-56.5 504,-56.5"/>
<text text-anchor="middle" x="554" y="-63.5" font-family="Helvetica,sans-Serif" font-size="10.00">src/qt/rpcconsole.h</text>
</a>
</g>
</g>
<!-- Node30&#45;&gt;Node35 -->
<g id="edge5" class="edge"><title>Node30&#45;&gt;Node35</title>
<path fill="none" stroke="midnightblue" d="M2334.47,-120.504C2085.05,-117.887 964.898,-104.716 618,-76 613.527,-75.6297 608.89,-75.1554 604.248,-74.6187"/>
<polygon fill="midnightblue" stroke="midnightblue" points="2334.64,-124.005 2344.67,-120.61 2334.71,-117.006 2334.64,-124.005"/>
</g>
<!-- Node36 -->
<g id="node7" class="node"><title>Node36</title>
<g id="a_node7"><a xlink:href="rpcconsole_8cpp.html" target="_top" xlink:title="src/qt/rpcconsole.cpp">
<polygon fill="white" stroke="black" points="569,-0.5 569,-19.5 679,-19.5 679,-0.5 569,-0.5"/>
<text text-anchor="middle" x="624" y="-7.5" font-family="Helvetica,sans-Serif" font-size="10.00">src/qt/rpcconsole.cpp</text>
</a>
</g>
</g>
<!-- Node30&#45;&gt;Node36 -->
<g id="edge30" class="edge"><title>Node30&#45;&gt;Node36</title>
<path fill="none" stroke="midnightblue" d="M2334.6,-121.223C2059.09,-122.28 722.2,-124.871 651,-76 632.06,-62.9996 626.377,-34.0386 624.694,-19.5703"/>
<polygon fill="midnightblue" stroke="midnightblue" points="2334.71,-124.723 2344.69,-121.183 2334.68,-117.723 2334.71,-124.723"/>
</g>
<!-- Node37 -->
<g id="node8" class="node"><title>Node37</title>
<g id="a_node8"><a xlink:href="clientmodel_8cpp.html" target="_top" xlink:title="src/qt/clientmodel.cpp">
<polygon fill="white" stroke="black" points="660.5,-56.5 660.5,-75.5 773.5,-75.5 773.5,-56.5 660.5,-56.5"/>
<text text-anchor="middle" x="717" y="-63.5" font-family="Helvetica,sans-Serif" font-size="10.00">src/qt/clientmodel.cpp</text>
</a>
</g>
</g>
<!-- Node30&#45;&gt;Node37 -->
<g id="edge8" class="edge"><title>Node30&#45;&gt;Node37</title>
<path fill="none" stroke="midnightblue" d="M2334.65,-120.328C2099.99,-117.026 1095.51,-101.625 783,-76 780.003,-75.7543 776.935,-75.4656 773.839,-75.1453"/>
<polygon fill="midnightblue" stroke="midnightblue" points="2334.87,-123.832 2344.92,-120.472 2334.97,-116.832 2334.87,-123.832"/>
</g>
<!-- Node38 -->
<g id="node9" class="node"><title>Node38</title>
<g id="a_node9"><a xlink:href="coincontroldialog_8cpp.html" target="_top" xlink:title="src/qt/coincontroldialog.cpp">
<polygon fill="white" stroke="black" points="792,-56.5 792,-75.5 928,-75.5 928,-56.5 792,-56.5"/>
<text text-anchor="middle" x="860" y="-63.5" font-family="Helvetica,sans-Serif" font-size="10.00">src/qt/coincontroldialog.cpp</text>
</a>
</g>
</g>
<!-- Node30&#45;&gt;Node38 -->
<g id="edge9" class="edge"><title>Node30&#45;&gt;Node38</title>
<path fill="none" stroke="midnightblue" d="M2334.61,-120.989C2150.13,-120.623 1484.08,-116.405 937,-76 934.181,-75.7918 931.307,-75.5572 928.405,-75.302"/>
<polygon fill="midnightblue" stroke="midnightblue" points="2334.79,-124.489 2344.8,-121.006 2334.81,-117.489 2334.79,-124.489"/>
</g>
<!-- Node39 -->
<g id="node10" class="node"><title>Node39</title>
<g id="a_node10"><a xlink:href="dash_8cpp.html" target="_top" xlink:title="src/qt/dash.cpp">
<polygon fill="white" stroke="black" points="946,-56.5 946,-75.5 1030,-75.5 1030,-56.5 946,-56.5"/>
<text text-anchor="middle" x="988" y="-63.5" font-family="Helvetica,sans-Serif" font-size="10.00">src/qt/dash.cpp</text>
</a>
</g>
</g>
<!-- Node30&#45;&gt;Node39 -->
<g id="edge10" class="edge"><title>Node30&#45;&gt;Node39</title>
<path fill="none" stroke="midnightblue" d="M2334.55,-120.282C2123.55,-117.074 1297.65,-103.012 1039,-76 1036.14,-75.7012 1033.2,-75.3364 1030.24,-74.9269"/>
<polygon fill="midnightblue" stroke="midnightblue" points="2334.65,-123.784 2344.7,-120.435 2334.75,-116.785 2334.65,-123.784"/>
</g>
<!-- Node40 -->
<g id="node11" class="node"><title>Node40</title>
<g id="a_node11"><a xlink:href="editaddressdialog_8cpp.html" target="_top" xlink:title="src/qt/editaddressdialog.cpp">
<polygon fill="white" stroke="black" points="1048.5,-56.5 1048.5,-75.5 1187.5,-75.5 1187.5,-56.5 1048.5,-56.5"/>
<text text-anchor="middle" x="1118" y="-63.5" font-family="Helvetica,sans-Serif" font-size="10.00">src/qt/editaddressdialog.cpp</text>
</a>
</g>
</g>
<!-- Node30&#45;&gt;Node40 -->
<g id="edge11" class="edge"><title>Node30&#45;&gt;Node40</title>
<path fill="none" stroke="midnightblue" d="M2334.8,-120.493C2172.14,-118.527 1637.01,-109.745 1196,-76 1193.28,-75.792 1190.51,-75.5616 1187.72,-75.3135"/>
<polygon fill="midnightblue" stroke="midnightblue" points="2334.93,-123.995 2344.97,-120.613 2335.01,-116.995 2334.93,-123.995"/>
</g>
<!-- Node41 -->
<g id="node12" class="node"><title>Node41</title>
<g id="a_node12"><a xlink:href="guiutil_8cpp.html" target="_top" xlink:title="src/qt/guiutil.cpp">
<polygon fill="white" stroke="black" points="1205.5,-56.5 1205.5,-75.5 1294.5,-75.5 1294.5,-56.5 1205.5,-56.5"/>
<text text-anchor="middle" x="1250" y="-63.5" font-family="Helvetica,sans-Serif" font-size="10.00">src/qt/guiutil.cpp</text>
</a>
</g>
</g>
<!-- Node30&#45;&gt;Node41 -->
<g id="edge12" class="edge"><title>Node30&#45;&gt;Node41</title>
<path fill="none" stroke="midnightblue" d="M2334.6,-121.108C2181.25,-120.98 1699.96,-117.087 1304,-76 1300.97,-75.6861 1297.86,-75.31 1294.73,-74.8923"/>
<polygon fill="midnightblue" stroke="midnightblue" points="2334.64,-124.608 2344.64,-121.111 2334.64,-117.608 2334.64,-124.608"/>
</g>
<!-- Node42 -->
<g id="node13" class="node"><title>Node42</title>
<g id="a_node13"><a xlink:href="intro_8cpp.html" target="_top" xlink:title="src/qt/intro.cpp">
<polygon fill="white" stroke="black" points="1313,-56.5 1313,-75.5 1395,-75.5 1395,-56.5 1313,-56.5"/>
<text text-anchor="middle" x="1354" y="-63.5" font-family="Helvetica,sans-Serif" font-size="10.00">src/qt/intro.cpp</text>
</a>
</g>
</g>
<!-- Node30&#45;&gt;Node42 -->
<g id="edge13" class="edge"><title>Node30&#45;&gt;Node42</title>
<path fill="none" stroke="midnightblue" d="M2334.36,-121.034C2190.16,-120.635 1759.01,-115.924 1404,-76 1401.11,-75.6747 1398.13,-75.2838 1395.14,-74.8494"/>
<polygon fill="midnightblue" stroke="midnightblue" points="2334.63,-124.534 2344.64,-121.056 2334.65,-117.534 2334.63,-124.534"/>
</g>
<!-- Node43 -->
<g id="node14" class="node"><title>Node43</title>
<g id="a_node14"><a xlink:href="masternodelist_8cpp.html" target="_top" xlink:title="src/qt/masternodelist.cpp">
<polygon fill="white" stroke="black" points="1413.5,-56.5 1413.5,-75.5 1540.5,-75.5 1540.5,-56.5 1413.5,-56.5"/>
<text text-anchor="middle" x="1477" y="-63.5" font-family="Helvetica,sans-Serif" font-size="10.00">src/qt/masternodelist.cpp</text>
</a>
</g>
</g>
<!-- Node30&#45;&gt;Node43 -->
<g id="edge14" class="edge"><title>Node30&#45;&gt;Node43</title>
<path fill="none" stroke="midnightblue" d="M2334.44,-119.549C2205.05,-115.498 1846.47,-102.574 1549,-76 1546.24,-75.7534 1543.42,-75.4827 1540.58,-75.1939"/>
<polygon fill="midnightblue" stroke="midnightblue" points="2334.7,-123.059 2344.8,-119.87 2334.92,-116.062 2334.7,-123.059"/>
</g>
<!-- Node44 -->
<g id="node15" class="node"><title>Node44</title>
<g id="a_node15"><a xlink:href="modaloverlay_8cpp.html" target="_top" xlink:title="src/qt/modaloverlay.cpp">
<polygon fill="white" stroke="black" points="1558.5,-56.5 1558.5,-75.5 1679.5,-75.5 1679.5,-56.5 1558.5,-56.5"/>
<text text-anchor="middle" x="1619" y="-63.5" font-family="Helvetica,sans-Serif" font-size="10.00">src/qt/modaloverlay.cpp</text>
</a>
</g>
</g>
<!-- Node30&#45;&gt;Node44 -->
<g id="edge15" class="edge"><title>Node30&#45;&gt;Node44</title>
<path fill="none" stroke="midnightblue" d="M2334.52,-118.91C2220.38,-113.845 1929.91,-99.5722 1688,-76 1685.23,-75.7305 1682.41,-75.4368 1679.56,-75.1254"/>
<polygon fill="midnightblue" stroke="midnightblue" points="2334.54,-122.414 2344.68,-119.357 2334.85,-115.421 2334.54,-122.414"/>
</g>
<!-- Node45 -->
<g id="node16" class="node"><title>Node45</title>
<g id="a_node16"><a xlink:href="networkstyle_8cpp.html" target="_top" xlink:title="src/qt/networkstyle.cpp">
<polygon fill="white" stroke="black" points="1697.5,-56.5 1697.5,-75.5 1816.5,-75.5 1816.5,-56.5 1697.5,-56.5"/>
<text text-anchor="middle" x="1757" y="-63.5" font-family="Helvetica,sans-Serif" font-size="10.00">src/qt/networkstyle.cpp</text>
</a>
</g>
</g>
<!-- Node30&#45;&gt;Node45 -->
<g id="edge16" class="edge"><title>Node30&#45;&gt;Node45</title>
<path fill="none" stroke="midnightblue" d="M2334.56,-117.834C2237.12,-111.412 2013.44,-95.7706 1826,-76 1823,-75.6832 1819.92,-75.3425 1816.82,-74.9854"/>
<polygon fill="midnightblue" stroke="midnightblue" points="2334.49,-121.337 2344.7,-118.499 2334.95,-114.352 2334.49,-121.337"/>
</g>
<!-- Node46 -->
<g id="node17" class="node"><title>Node46</title>
<g id="a_node17"><a xlink:href="openuridialog_8cpp.html" target="_top" xlink:title="src/qt/openuridialog.cpp">
<polygon fill="white" stroke="black" points="1835,-56.5 1835,-75.5 1955,-75.5 1955,-56.5 1835,-56.5"/>
<text text-anchor="middle" x="1895" y="-63.5" font-family="Helvetica,sans-Serif" font-size="10.00">src/qt/openuridialog.cpp</text>
</a>
</g>
</g>
<!-- Node30&#45;&gt;Node46 -->
<g id="edge17" class="edge"><title>Node30&#45;&gt;Node46</title>
<path fill="none" stroke="midnightblue" d="M2334.8,-116.099C2256.33,-108.197 2097.98,-91.9138 1964,-76 1961.12,-75.658 1958.18,-75.3011 1955.2,-74.935"/>
<polygon fill="midnightblue" stroke="midnightblue" points="2334.58,-119.594 2344.88,-117.112 2335.28,-112.629 2334.58,-119.594"/>
</g>
<!-- Node47 -->
<g id="node18" class="node"><title>Node47</title>
<g id="a_node18"><a xlink:href="optionsdialog_8cpp.html" target="_top" xlink:title="src/qt/optionsdialog.cpp">
<polygon fill="white" stroke="black" points="1973,-56.5 1973,-75.5 2093,-75.5 2093,-56.5 1973,-56.5"/>
<text text-anchor="middle" x="2033" y="-63.5" font-family="Helvetica,sans-Serif" font-size="10.00">src/qt/optionsdialog.cpp</text>
</a>
</g>
</g>
<!-- Node30&#45;&gt;Node47 -->
<g id="edge18" class="edge"><title>Node30&#45;&gt;Node47</title>
<path fill="none" stroke="midnightblue" d="M2334.78,-113.428C2269.93,-103.451 2156.18,-85.95 2088.38,-75.5206"/>
<polygon fill="midnightblue" stroke="midnightblue" points="2334.34,-116.901 2344.76,-114.963 2335.41,-109.983 2334.34,-116.901"/>
</g>
<!-- Node48 -->
<g id="node19" class="node"><title>Node48</title>
<g id="a_node19"><a xlink:href="optionsmodel_8cpp.html" target="_top" xlink:title="src/qt/optionsmodel.cpp">
<polygon fill="white" stroke="black" points="2111.5,-56.5 2111.5,-75.5 2232.5,-75.5 2232.5,-56.5 2111.5,-56.5"/>
<text text-anchor="middle" x="2172" y="-63.5" font-family="Helvetica,sans-Serif" font-size="10.00">src/qt/optionsmodel.cpp</text>
</a>
</g>
</g>
<!-- Node30&#45;&gt;Node48 -->
<g id="edge19" class="edge"><title>Node30&#45;&gt;Node48</title>
<path fill="none" stroke="midnightblue" d="M2340.65,-109.959C2300.61,-99.7598 2241.97,-84.8217 2205.43,-75.5164"/>
<polygon fill="midnightblue" stroke="midnightblue" points="2339.85,-113.367 2350.41,-112.444 2341.58,-106.583 2339.85,-113.367"/>
</g>
<!-- Node49 -->
<g id="node20" class="node"><title>Node49</title>
<g id="a_node20"><a xlink:href="overviewpage_8cpp.html" target="_top" xlink:title="src/qt/overviewpage.cpp">
<polygon fill="white" stroke="black" points="2250.5,-56.5 2250.5,-75.5 2373.5,-75.5 2373.5,-56.5 2250.5,-56.5"/>
<text text-anchor="middle" x="2312" y="-63.5" font-family="Helvetica,sans-Serif" font-size="10.00">src/qt/overviewpage.cpp</text>
</a>
</g>
</g>
<!-- Node30&#45;&gt;Node49 -->
<g id="edge20" class="edge"><title>Node30&#45;&gt;Node49</title>
<path fill="none" stroke="midnightblue" d="M2364.13,-106.101C2351.18,-96.3824 2334.7,-84.0269 2323.78,-75.8339"/>
<polygon fill="midnightblue" stroke="midnightblue" points="2362.33,-109.124 2372.43,-112.324 2366.53,-103.524 2362.33,-109.124"/>
</g>
<!-- Node50 -->
<g id="node21" class="node"><title>Node50</title>
<g id="a_node21"><a xlink:href="paymentserver_8cpp.html" target="_top" xlink:title="src/qt/paymentserver.cpp">
<polygon fill="white" stroke="black" points="2392,-56.5 2392,-75.5 2520,-75.5 2520,-56.5 2392,-56.5"/>
<text text-anchor="middle" x="2456" y="-63.5" font-family="Helvetica,sans-Serif" font-size="10.00">src/qt/paymentserver.cpp</text>
</a>
</g>
</g>
<!-- Node30&#45;&gt;Node50 -->
<g id="edge21" class="edge"><title>Node30&#45;&gt;Node50</title>
<path fill="none" stroke="midnightblue" d="M2403.87,-106.101C2416.82,-96.3824 2433.3,-84.0269 2444.22,-75.8339"/>
<polygon fill="midnightblue" stroke="midnightblue" points="2401.47,-103.524 2395.57,-112.324 2405.67,-109.124 2401.47,-103.524"/>
</g>
<!-- Node51 -->
<g id="node22" class="node"><title>Node51</title>
<g id="a_node22"><a xlink:href="peertablemodel_8cpp.html" target="_top" xlink:title="src/qt/peertablemodel.cpp">
<polygon fill="white" stroke="black" points="2538.5,-56.5 2538.5,-75.5 2667.5,-75.5 2667.5,-56.5 2538.5,-56.5"/>
<text text-anchor="middle" x="2603" y="-63.5" font-family="Helvetica,sans-Serif" font-size="10.00">src/qt/peertablemodel.cpp</text>
</a>
</g>
</g>
<!-- Node30&#45;&gt;Node51 -->
<g id="edge22" class="edge"><title>Node30&#45;&gt;Node51</title>
<path fill="none" stroke="midnightblue" d="M2428.51,-110.024C2469.88,-99.8232 2530.64,-84.8414 2568.46,-75.5164"/>
<polygon fill="midnightblue" stroke="midnightblue" points="2427.57,-106.651 2418.7,-112.444 2429.25,-113.448 2427.57,-106.651"/>
</g>
<!-- Node52 -->
<g id="node23" class="node"><title>Node52</title>
<g id="a_node23"><a xlink:href="qrdialog_8cpp.html" target="_top" xlink:title="src/qt/qrdialog.cpp">
<polygon fill="white" stroke="black" points="2685.5,-56.5 2685.5,-75.5 2782.5,-75.5 2782.5,-56.5 2685.5,-56.5"/>
<text text-anchor="middle" x="2734" y="-63.5" font-family="Helvetica,sans-Serif" font-size="10.00">src/qt/qrdialog.cpp</text>
</a>
</g>
</g>
<!-- Node30&#45;&gt;Node52 -->
<g id="edge23" class="edge"><title>Node30&#45;&gt;Node52</title>
<path fill="none" stroke="midnightblue" d="M2433.2,-113.434C2491.24,-104.505 2590.64,-89.1997 2676,-76 2679.02,-75.5328 2682.13,-75.0515 2685.27,-74.5659"/>
<polygon fill="midnightblue" stroke="midnightblue" points="2432.55,-109.992 2423.2,-114.972 2433.62,-116.91 2432.55,-109.992"/>
</g>
<!-- Node53 -->
<g id="node24" class="node"><title>Node53</title>
<g id="a_node24"><a xlink:href="receivecoinsdialog_8h.html" target="_top" xlink:title="src/qt/receivecoinsdialog.h">
<polygon fill="white" stroke="black" points="2839.5,-56.5 2839.5,-75.5 2972.5,-75.5 2972.5,-56.5 2839.5,-56.5"/>
<text text-anchor="middle" x="2906" y="-63.5" font-family="Helvetica,sans-Serif" font-size="10.00">src/qt/receivecoinsdialog.h</text>
</a>
</g>
</g>
<!-- Node30&#45;&gt;Node53 -->
<g id="edge24" class="edge"><title>Node30&#45;&gt;Node53</title>
<path fill="none" stroke="midnightblue" d="M2433.22,-116.123C2514.71,-108.015 2682.81,-91.1536 2825,-76 2829.64,-75.5052 2834.43,-74.9884 2839.26,-74.4635"/>
<polygon fill="midnightblue" stroke="midnightblue" points="2432.85,-112.642 2423.24,-117.115 2433.54,-119.608 2432.85,-112.642"/>
</g>
<!-- Node54 -->
<g id="node25" class="node"><title>Node54</title>
<g id="a_node25"><a xlink:href="receivecoinsdialog_8cpp.html" target="_top" xlink:title="src/qt/receivecoinsdialog.cpp">
<polygon fill="white" stroke="black" points="2762.5,-0.5 2762.5,-19.5 2905.5,-19.5 2905.5,-0.5 2762.5,-0.5"/>
<text text-anchor="middle" x="2834" y="-7.5" font-family="Helvetica,sans-Serif" font-size="10.00">src/qt/receivecoinsdialog.cpp</text>
</a>
</g>
</g>
<!-- Node30&#45;&gt;Node54 -->
<g id="edge27" class="edge"><title>Node30&#45;&gt;Node54</title>
<path fill="none" stroke="midnightblue" d="M2433.38,-120.689C2528.3,-119.267 2732.08,-111.98 2791,-76 2812.71,-62.7425 2825.72,-33.902 2831.11,-19.5159"/>
<polygon fill="midnightblue" stroke="midnightblue" points="2433.13,-117.192 2423.17,-120.825 2433.22,-124.191 2433.13,-117.192"/>
</g>
<!-- Node55 -->
<g id="node26" class="node"><title>Node55</title>
<g id="a_node26"><a xlink:href="walletview_8cpp.html" target="_top" xlink:title="src/qt/walletview.cpp">
<polygon fill="white" stroke="black" points="2946.5,-0.5 2946.5,-19.5 3055.5,-19.5 3055.5,-0.5 2946.5,-0.5"/>
<text text-anchor="middle" x="3001" y="-7.5" font-family="Helvetica,sans-Serif" font-size="10.00">src/qt/walletview.cpp</text>
</a>
</g>
</g>
<!-- Node30&#45;&gt;Node55 -->
<g id="edge44" class="edge"><title>Node30&#45;&gt;Node55</title>
<path fill="none" stroke="midnightblue" d="M2433.53,-120.42C2569.04,-118.4 2938.65,-109.815 2981,-76 2998.16,-62.298 3000.94,-34.1937 3001.18,-19.8486"/>
<polygon fill="midnightblue" stroke="midnightblue" points="2433.37,-116.922 2423.43,-120.565 2433.47,-123.922 2433.37,-116.922"/>
</g>
<!-- Node56 -->
<g id="node27" class="node"><title>Node56</title>
<g id="a_node27"><a xlink:href="receiverequestdialog_8cpp.html" target="_top" xlink:title="src/qt/receiverequestdialog.cpp">
<polygon fill="white" stroke="black" points="3029,-56.5 3029,-75.5 3181,-75.5 3181,-56.5 3029,-56.5"/>
<text text-anchor="middle" x="3105" y="-63.5" font-family="Helvetica,sans-Serif" font-size="10.00">src/qt/receiverequestdialog.cpp</text>
</a>
</g>
</g>
<!-- Node30&#45;&gt;Node56 -->
<g id="edge28" class="edge"><title>Node30&#45;&gt;Node56</title>
<path fill="none" stroke="midnightblue" d="M2433.27,-117.965C2539.59,-111.312 2798.43,-94.5467 3015,-76 3019.54,-75.6114 3024.2,-75.1954 3028.91,-74.7631"/>
<polygon fill="midnightblue" stroke="midnightblue" points="2432.93,-114.48 2423.17,-118.596 2433.37,-121.466 2432.93,-114.48"/>
</g>
<!-- Node57 -->
<g id="node28" class="node"><title>Node57</title>
<g id="a_node28"><a xlink:href="recentrequeststablemodel_8cpp.html" target="_top" xlink:title="src/qt/recentrequeststablemodel.cpp">
<polygon fill="white" stroke="black" points="3199.5,-56.5 3199.5,-75.5 3374.5,-75.5 3374.5,-56.5 3199.5,-56.5"/>
<text text-anchor="middle" x="3287" y="-63.5" font-family="Helvetica,sans-Serif" font-size="10.00">src/qt/recentrequeststablemodel.cpp</text>
</a>
</g>
</g>
<!-- Node30&#45;&gt;Node57 -->
<g id="edge29" class="edge"><title>Node30&#45;&gt;Node57</title>
<path fill="none" stroke="midnightblue" d="M2433.13,-118.887C2559.04,-113.334 2903.5,-97.2816 3190,-76 3193.04,-75.7745 3196.12,-75.5362 3199.24,-75.288"/>
<polygon fill="midnightblue" stroke="midnightblue" points="2432.87,-115.395 2423.04,-119.33 2433.18,-122.388 2432.87,-115.395"/>
</g>
<!-- Node58 -->
<g id="node29" class="node"><title>Node58</title>
<g id="a_node29"><a xlink:href="sendcoinsdialog_8cpp.html" target="_top" xlink:title="src/qt/sendcoinsdialog.cpp">
<polygon fill="white" stroke="black" points="3392.5,-56.5 3392.5,-75.5 3525.5,-75.5 3525.5,-56.5 3392.5,-56.5"/>
<text text-anchor="middle" x="3459" y="-63.5" font-family="Helvetica,sans-Serif" font-size="10.00">src/qt/sendcoinsdialog.cpp</text>
</a>
</g>
</g>
<!-- Node30&#45;&gt;Node58 -->
<g id="edge31" class="edge"><title>Node30&#45;&gt;Node58</title>
<path fill="none" stroke="midnightblue" d="M2433.48,-120.047C2579.17,-116.966 3019.21,-105.694 3383,-76 3386.05,-75.7514 3389.16,-75.4748 3392.3,-75.1773"/>
<polygon fill="midnightblue" stroke="midnightblue" points="2433.02,-116.555 2423.1,-120.263 2433.17,-123.554 2433.02,-116.555"/>
</g>
<!-- Node59 -->
<g id="node30" class="node"><title>Node59</title>
<g id="a_node30"><a xlink:href="sendcoinsentry_8cpp.html" target="_top" xlink:title="src/qt/sendcoinsentry.cpp">
<polygon fill="white" stroke="black" points="3543.5,-56.5 3543.5,-75.5 3672.5,-75.5 3672.5,-56.5 3543.5,-56.5"/>
<text text-anchor="middle" x="3608" y="-63.5" font-family="Helvetica,sans-Serif" font-size="10.00">src/qt/sendcoinsentry.cpp</text>
</a>
</g>
</g>
<!-- Node30&#45;&gt;Node59 -->
<g id="edge32" class="edge"><title>Node30&#45;&gt;Node59</title>
<path fill="none" stroke="midnightblue" d="M2433.47,-120.511C2593.1,-118.625 3108.84,-110.115 3534,-76 3537.1,-75.7516 3540.26,-75.4706 3543.46,-75.1654"/>
<polygon fill="midnightblue" stroke="midnightblue" points="2433,-117.017 2423.04,-120.631 2433.08,-124.016 2433,-117.017"/>
</g>
<!-- Node60 -->
<g id="node31" class="node"><title>Node60</title>
<g id="a_node31"><a xlink:href="signverifymessagedialog_8cpp.html" target="_top" xlink:title="src/qt/signverifymessagedialog.cpp">
<polygon fill="white" stroke="black" points="3691,-56.5 3691,-75.5 3861,-75.5 3861,-56.5 3691,-56.5"/>
<text text-anchor="middle" x="3776" y="-63.5" font-family="Helvetica,sans-Serif" font-size="10.00">src/qt/signverifymessagedialog.cpp</text>
</a>
</g>
</g>
<!-- Node30&#45;&gt;Node60 -->
<g id="edge33" class="edge"><title>Node30&#45;&gt;Node60</title>
<path fill="none" stroke="midnightblue" d="M2433.29,-120.351C2605.33,-117.859 3195.12,-107.416 3681,-76 3684.22,-75.7916 3687.51,-75.5626 3690.82,-75.3176"/>
<polygon fill="midnightblue" stroke="midnightblue" points="2432.99,-116.855 2423.04,-120.497 2433.09,-123.854 2432.99,-116.855"/>
</g>
<!-- Node61 -->
<g id="node32" class="node"><title>Node61</title>
<g id="a_node32"><a xlink:href="splashscreen_8cpp.html" target="_top" xlink:title="src/qt/splashscreen.cpp">
<polygon fill="white" stroke="black" points="3879.5,-56.5 3879.5,-75.5 4000.5,-75.5 4000.5,-56.5 3879.5,-56.5"/>
<text text-anchor="middle" x="3940" y="-63.5" font-family="Helvetica,sans-Serif" font-size="10.00">src/qt/splashscreen.cpp</text>
</a>
</g>
</g>
<!-- Node30&#45;&gt;Node61 -->
<g id="edge34" class="edge"><title>Node30&#45;&gt;Node61</title>
<path fill="none" stroke="midnightblue" d="M2433.19,-121.251C2620.49,-121.837 3306.87,-120.621 3870,-76 3873.05,-75.758 3876.18,-75.4775 3879.33,-75.1682"/>
<polygon fill="midnightblue" stroke="midnightblue" points="2433.12,-117.751 2423.11,-121.216 2433.1,-124.751 2433.12,-117.751"/>
</g>
<!-- Node62 -->
<g id="node33" class="node"><title>Node62</title>
<g id="a_node33"><a xlink:href="transactiondesc_8cpp.html" target="_top" xlink:title="src/qt/transactiondesc.cpp">
<polygon fill="white" stroke="black" points="4019,-56.5 4019,-75.5 4151,-75.5 4151,-56.5 4019,-56.5"/>
<text text-anchor="middle" x="4085" y="-63.5" font-family="Helvetica,sans-Serif" font-size="10.00">src/qt/transactiondesc.cpp</text>
</a>
</g>
</g>
<!-- Node30&#45;&gt;Node62 -->
<g id="edge35" class="edge"><title>Node30&#45;&gt;Node62</title>
<path fill="none" stroke="midnightblue" d="M2433.13,-121.254C2630.93,-121.935 3388.19,-121.262 4009,-76 4012.18,-75.7681 4015.43,-75.5006 4018.71,-75.2062"/>
<polygon fill="midnightblue" stroke="midnightblue" points="2433.07,-117.754 2423.05,-121.216 2433.04,-124.754 2433.07,-117.754"/>
</g>
<!-- Node63 -->
<g id="node34" class="node"><title>Node63</title>
<g id="a_node34"><a xlink:href="transactiondescdialog_8cpp.html" target="_top" xlink:title="src/qt/transactiondescdialog.cpp">
<polygon fill="white" stroke="black" points="4169,-56.5 4169,-75.5 4327,-75.5 4327,-56.5 4169,-56.5"/>
<text text-anchor="middle" x="4248" y="-63.5" font-family="Helvetica,sans-Serif" font-size="10.00">src/qt/transactiondescdialog.cpp</text>
</a>
</g>
</g>
<!-- Node30&#45;&gt;Node63 -->
<g id="edge36" class="edge"><title>Node30&#45;&gt;Node63</title>
<path fill="none" stroke="midnightblue" d="M2433.15,-121.133C2641.97,-121.407 3476.28,-119.561 4160,-76 4162.91,-75.8145 4165.88,-75.6069 4168.87,-75.3816"/>
<polygon fill="midnightblue" stroke="midnightblue" points="2433.11,-117.633 2423.11,-121.117 2433.1,-124.633 2433.11,-117.633"/>
</g>
<!-- Node64 -->
<g id="node35" class="node"><title>Node64</title>
<g id="a_node35"><a xlink:href="transactiontablemodel_8cpp.html" target="_top" xlink:title="src/qt/transactiontablemodel.cpp">
<polygon fill="white" stroke="black" points="4345,-56.5 4345,-75.5 4503,-75.5 4503,-56.5 4345,-56.5"/>
<text text-anchor="middle" x="4424" y="-63.5" font-family="Helvetica,sans-Serif" font-size="10.00">src/qt/transactiontablemodel.cpp</text>
</a>
</g>
</g>
<!-- Node30&#45;&gt;Node64 -->
<g id="edge37" class="edge"><title>Node30&#45;&gt;Node64</title>
<path fill="none" stroke="midnightblue" d="M2433.54,-121.273C2655.3,-122.197 3578.92,-122.877 4335,-76 4338.26,-75.7982 4341.58,-75.5689 4344.93,-75.3181"/>
<polygon fill="midnightblue" stroke="midnightblue" points="2433.23,-117.772 2423.22,-121.228 2433.2,-124.772 2433.23,-117.772"/>
</g>
<!-- Node65 -->
<g id="node36" class="node"><title>Node65</title>
<g id="a_node36"><a xlink:href="transactionview_8h.html" target="_top" xlink:title="src/qt/transactionview.h">
<polygon fill="white" stroke="black" points="4520.5,-56.5 4520.5,-75.5 4641.5,-75.5 4641.5,-56.5 4520.5,-56.5"/>
<text text-anchor="middle" x="4581" y="-63.5" font-family="Helvetica,sans-Serif" font-size="10.00">src/qt/transactionview.h</text>
</a>
</g>
</g>
<!-- Node30&#45;&gt;Node65 -->
<g id="edge38" class="edge"><title>Node30&#45;&gt;Node65</title>
<path fill="none" stroke="midnightblue" d="M2433.44,-120.672C2712,-118.715 4088.03,-107.575 4511,-76 4514.05,-75.772 4517.18,-75.5026 4520.33,-75.2023"/>
<polygon fill="midnightblue" stroke="midnightblue" points="2433.22,-117.173 2423.25,-120.743 2433.27,-124.173 2433.22,-117.173"/>
</g>
<!-- Node66 -->
<g id="node37" class="node"><title>Node66</title>
<g id="a_node37"><a xlink:href="transactionview_8cpp.html" target="_top" xlink:title="src/qt/transactionview.cpp">
<polygon fill="white" stroke="black" points="4559.5,-0.5 4559.5,-19.5 4690.5,-19.5 4690.5,-0.5 4559.5,-0.5"/>
<text text-anchor="middle" x="4625" y="-7.5" font-family="Helvetica,sans-Serif" font-size="10.00">src/qt/transactionview.cpp</text>
</a>
</g>
</g>
<!-- Node30&#45;&gt;Node66 -->
<g id="edge41" class="edge"><title>Node30&#45;&gt;Node66</title>
<path fill="none" stroke="midnightblue" d="M2433.17,-120.968C2760.27,-120.641 4609.83,-116.978 4650,-76 4665.57,-60.1138 4645.85,-33.4849 4633.52,-19.7628"/>
<polygon fill="midnightblue" stroke="midnightblue" points="2433.05,-117.468 2423.06,-120.977 2433.06,-124.468 2433.05,-117.468"/>
</g>
<!-- Node67 -->
<g id="node38" class="node"><title>Node67</title>
<g id="a_node38"><a xlink:href="utilitydialog_8cpp.html" target="_top" xlink:title="src/qt/utilitydialog.cpp">
<polygon fill="white" stroke="black" points="4698,-56.5 4698,-75.5 4810,-75.5 4810,-56.5 4698,-56.5"/>
<text text-anchor="middle" x="4754" y="-63.5" font-family="Helvetica,sans-Serif" font-size="10.00">src/qt/utilitydialog.cpp</text>
</a>
</g>
</g>
<!-- Node30&#45;&gt;Node67 -->
<g id="edge42" class="edge"><title>Node30&#45;&gt;Node67</title>
<path fill="none" stroke="midnightblue" d="M2433.68,-120.762C2725.99,-119.247 4224.66,-109.922 4684,-76 4688.52,-75.6661 4693.2,-75.2407 4697.89,-74.7573"/>
<polygon fill="midnightblue" stroke="midnightblue" points="2433.38,-117.263 2423.4,-120.814 2433.42,-124.263 2433.38,-117.263"/>
</g>
<!-- Node68 -->
<g id="node39" class="node"><title>Node68</title>
<g id="a_node39"><a xlink:href="walletmodel_8cpp.html" target="_top" xlink:title="src/qt/walletmodel.cpp">
<polygon fill="white" stroke="black" points="4828.5,-56.5 4828.5,-75.5 4943.5,-75.5 4943.5,-56.5 4828.5,-56.5"/>
<text text-anchor="middle" x="4886" y="-63.5" font-family="Helvetica,sans-Serif" font-size="10.00">src/qt/walletmodel.cpp</text>
</a>
</g>
</g>
<!-- Node30&#45;&gt;Node68 -->
<g id="edge43" class="edge"><title>Node30&#45;&gt;Node68</title>
<path fill="none" stroke="midnightblue" d="M2433.19,-120.85C2734.15,-119.819 4330.16,-112.675 4818,-76 4821.32,-75.75 4824.74,-75.4471 4828.17,-75.1057"/>
<polygon fill="midnightblue" stroke="midnightblue" points="2433.02,-117.351 2423.03,-120.884 2433.05,-124.351 2433.02,-117.351"/>
</g>
<!-- Node35&#45;&gt;Node34 -->
<g id="edge6" class="edge"><title>Node35&#45;&gt;Node34</title>
<path fill="none" stroke="midnightblue" d="M534.686,-50.1008C522.088,-40.3824 506.072,-28.0269 495.451,-19.8339"/>
<polygon fill="midnightblue" stroke="midnightblue" points="532.698,-52.9871 542.753,-56.324 536.973,-47.4446 532.698,-52.9871"/>
</g>
<!-- Node35&#45;&gt;Node36 -->
<g id="edge7" class="edge"><title>Node35&#45;&gt;Node36</title>
<path fill="none" stroke="midnightblue" d="M573.314,-50.1008C585.912,-40.3824 601.928,-28.0269 612.549,-19.8339"/>
<polygon fill="midnightblue" stroke="midnightblue" points="571.027,-47.4446 565.247,-56.324 575.302,-52.9871 571.027,-47.4446"/>
</g>
<!-- Node53&#45;&gt;Node54 -->
<g id="edge25" class="edge"><title>Node53&#45;&gt;Node54</title>
<path fill="none" stroke="midnightblue" d="M2886.13,-50.1008C2873.18,-40.3824 2856.7,-28.0269 2845.78,-19.8339"/>
<polygon fill="midnightblue" stroke="midnightblue" points="2884.33,-53.1239 2894.43,-56.324 2888.53,-47.5239 2884.33,-53.1239"/>
</g>
<!-- Node53&#45;&gt;Node55 -->
<g id="edge26" class="edge"><title>Node53&#45;&gt;Node55</title>
<path fill="none" stroke="midnightblue" d="M2930.32,-51.1774C2947.8,-41.2407 2970.83,-28.1492 2985.77,-19.6545"/>
<polygon fill="midnightblue" stroke="midnightblue" points="2928.23,-48.3395 2921.26,-56.324 2931.69,-54.425 2928.23,-48.3395"/>
</g>
<!-- Node65&#45;&gt;Node55 -->
<g id="edge40" class="edge"><title>Node65&#45;&gt;Node55</title>
<path fill="none" stroke="midnightblue" d="M4510.18,-56.0317C3935.24,-11.1425 3251.22,-10.0137 3055.61,-10.6956"/>
<polygon fill="midnightblue" stroke="midnightblue" points="4510.09,-59.5354 4520.33,-56.83 4510.64,-52.5569 4510.09,-59.5354"/>
</g>
<!-- Node65&#45;&gt;Node66 -->
<g id="edge39" class="edge"><title>Node65&#45;&gt;Node66</title>
<path fill="none" stroke="midnightblue" d="M4594.73,-48.144C4602.4,-38.7357 4611.63,-27.4046 4617.87,-19.7511"/>
<polygon fill="midnightblue" stroke="midnightblue" points="4591.87,-46.1198 4588.27,-56.083 4597.3,-50.5415 4591.87,-46.1198"/>
</g>
</g>
</svg>
