<?xml version="1.0" encoding="UTF-8" standalone="no"?>
<!DOCTYPE svg PUBLIC "-//W3C//DTD SVG 1.1//EN"
 "http://www.w3.org/Graphics/SVG/1.1/DTD/svg11.dtd">
<!-- Generated by graphviz version 2.36.0 (20140111.2315)
 -->
<!-- Title: src/secp256k1/src/hash_impl.h Pages: 1 -->
<svg width="422pt" height="244pt"
 viewBox="0.00 0.00 422.00 244.00" xmlns="http://www.w3.org/2000/svg" xmlns:xlink="http://www.w3.org/1999/xlink">
<g id="graph0" class="graph" transform="scale(1 1) rotate(0) translate(4 240)">
<title>src/secp256k1/src/hash_impl.h</title>
<polygon fill="white" stroke="none" points="-4,4 -4,-240 418,-240 418,4 -4,4"/>
<!-- Node5 -->
<g id="node1" class="node"><title>Node5</title>
<polygon fill="#bfbfbf" stroke="black" points="84.5,-205 84.5,-235 205.5,-235 205.5,-205 84.5,-205"/>
<text text-anchor="start" x="92.5" y="-223" font-family="Helvetica,sans-Serif" font-size="10.00">src/secp256k1/src/hash</text>
<text text-anchor="middle" x="145" y="-212" font-family="Helvetica,sans-Serif" font-size="10.00">_impl.h</text>
</g>
<!-- Node6 -->
<g id="node2" class="node"><title>Node6</title>
<g id="a_node2"><a xlink:href="bench__internal_8c.html" target="_top" xlink:title="src/secp256k1/src/bench\l_internal.c">
<polygon fill="white" stroke="black" points="0,-1 0,-31 126,-31 126,-1 0,-1"/>
<text text-anchor="start" x="8" y="-19" font-family="Helvetica,sans-Serif" font-size="10.00">src/secp256k1/src/bench</text>
<text text-anchor="middle" x="63" y="-8" font-family="Helvetica,sans-Serif" font-size="10.00">_internal.c</text>
</a>
</g>
</g>
<!-- Node5&#45;&gt;Node6 -->
<g id="edge1" class="edge"><title>Node5&#45;&gt;Node6</title>
<path fill="none" stroke="midnightblue" d="M135.375,-195.29C118.175,-152.919 82.6622,-65.4361 68.7597,-31.1886"/>
<polygon fill="midnightblue" stroke="midnightblue" points="132.23,-196.847 139.234,-204.796 138.716,-194.214 132.23,-196.847"/>
</g>
<!-- Node7 -->
<g id="node3" class="node"><title>Node7</title>
<g id="a_node3"><a xlink:href="ecmult__gen__impl_8h.html" target="_top" xlink:title="src/secp256k1/src/ecmult\l_gen_impl.h">
<polygon fill="white" stroke="black" points="173.5,-137 173.5,-167 302.5,-167 302.5,-137 173.5,-137"/>
<text text-anchor="start" x="181.5" y="-155" font-family="Helvetica,sans-Serif" font-size="10.00">src/secp256k1/src/ecmult</text>
<text text-anchor="middle" x="238" y="-144" font-family="Helvetica,sans-Serif" font-size="10.00">_gen_impl.h</text>
</a>
</g>
</g>
<!-- Node5&#45;&gt;Node7 -->
<g id="edge2" class="edge"><title>Node5&#45;&gt;Node7</title>
<path fill="none" stroke="midnightblue" d="M173.339,-198.888C187.836,-188.6 205.127,-176.329 218.179,-167.066"/>
<polygon fill="midnightblue" stroke="midnightblue" points="171.309,-196.037 165.18,-204.679 175.36,-201.746 171.309,-196.037"/>
</g>
<!-- Node8 -->
<g id="node4" class="node"><title>Node8</title>
<g id="a_node4"><a xlink:href="secp256k1_8c.html" target="_top" xlink:title="src/secp256k1/src/secp256k1.c">
<polygon fill="white" stroke="black" points="121.5,-74.5 121.5,-93.5 276.5,-93.5 276.5,-74.5 121.5,-74.5"/>
<text text-anchor="middle" x="199" y="-81.5" font-family="Helvetica,sans-Serif" font-size="10.00">src/secp256k1/src/secp256k1.c</text>
</a>
</g>
</g>
<!-- Node5&#45;&gt;Node8 -->
<g id="edge8" class="edge"><title>Node5&#45;&gt;Node8</title>
<path fill="none" stroke="midnightblue" d="M148.081,-194.794C150.824,-177.819 155.721,-154.879 164,-136 171.072,-119.871 183.447,-103.477 191.428,-93.7767"/>
<polygon fill="midnightblue" stroke="midnightblue" points="144.575,-194.58 146.575,-204.985 151.499,-195.604 144.575,-194.58"/>
</g>
<!-- Node7&#45;&gt;Node8 -->
<g id="edge3" class="edge"><title>Node7&#45;&gt;Node8</title>
<path fill="none" stroke="midnightblue" d="M224.279,-127.78C217.34,-116.037 209.328,-102.479 204.217,-93.8283"/>
<polygon fill="midnightblue" stroke="midnightblue" points="221.437,-129.85 229.538,-136.679 227.463,-126.289 221.437,-129.85"/>
</g>
<!-- Node11 -->
<g id="node7" class="node"><title>Node11</title>
<g id="a_node7"><a xlink:href="gen__context_8c.html" target="_top" xlink:title="src/secp256k1/src/gen\l_context.c">
<polygon fill="white" stroke="black" points="295,-69 295,-99 411,-99 411,-69 295,-69"/>
<text text-anchor="start" x="303" y="-87" font-family="Helvetica,sans-Serif" font-size="10.00">src/secp256k1/src/gen</text>
<text text-anchor="middle" x="353" y="-76" font-family="Helvetica,sans-Serif" font-size="10.00">_context.c</text>
</a>
</g>
</g>
<!-- Node7&#45;&gt;Node11 -->
<g id="edge7" class="edge"><title>Node7&#45;&gt;Node11</title>
<path fill="none" stroke="midnightblue" d="M271.758,-131.626C289.895,-121.217 311.856,-108.613 328.37,-99.1352"/>
<polygon fill="midnightblue" stroke="midnightblue" points="269.601,-128.828 262.67,-136.841 273.086,-134.899 269.601,-128.828"/>
</g>
<!-- Node8&#45;&gt;Node6 -->
<g id="edge4" class="edge"><title>Node8&#45;&gt;Node6</title>
<path fill="none" stroke="midnightblue" d="M171.983,-69.8889C148.855,-58.6648 115.637,-42.5446 91.9643,-31.0562"/>
<polygon fill="midnightblue" stroke="midnightblue" points="170.696,-73.1544 181.22,-74.3717 173.752,-66.8568 170.696,-73.1544"/>
</g>
<!-- Node9 -->
<g id="node5" class="node"><title>Node9</title>
<g id="a_node5"><a xlink:href="tests_8c.html" target="_top" xlink:title="src/secp256k1/src/tests.c">
<polygon fill="white" stroke="black" points="144,-6.5 144,-25.5 274,-25.5 274,-6.5 144,-6.5"/>
<text text-anchor="middle" x="209" y="-13.5" font-family="Helvetica,sans-Serif" font-size="10.00">src/secp256k1/src/tests.c</text>
</a>
</g>
</g>
<!-- Node8&#45;&gt;Node9 -->
<g id="edge5" class="edge"><title>Node8&#45;&gt;Node9</title>
<path fill="none" stroke="midnightblue" d="M201.814,-64.425C203.728,-51.7978 206.172,-35.6623 207.66,-25.8411"/>
<polygon fill="midnightblue" stroke="midnightblue" points="198.345,-63.9601 200.307,-74.3717 205.266,-65.0088 198.345,-63.9601"/>
</g>
<!-- Node10 -->
<g id="node6" class="node"><title>Node10</title>
<g id="a_node6"><a xlink:href="tests__exhaustive_8c.html" target="_top" xlink:title="src/secp256k1/src/tests\l_exhaustive.c">
<polygon fill="white" stroke="black" points="292,-1 292,-31 414,-31 414,-1 292,-1"/>
<text text-anchor="start" x="300" y="-19" font-family="Helvetica,sans-Serif" font-size="10.00">src/secp256k1/src/tests</text>
<text text-anchor="middle" x="353" y="-8" font-family="Helvetica,sans-Serif" font-size="10.00">_exhaustive.c</text>
</a>
</g>
</g>
<!-- Node8&#45;&gt;Node10 -->
<g id="edge6" class="edge"><title>Node8&#45;&gt;Node10</title>
<path fill="none" stroke="midnightblue" d="M228.547,-70.3372C254.773,-59.0974 293.037,-42.6985 320.202,-31.0562"/>
<polygon fill="midnightblue" stroke="midnightblue" points="226.946,-67.2154 219.133,-74.3717 229.703,-73.6494 226.946,-67.2154"/>
</g>
</g>
</svg>
