<?xml version="1.0" encoding="UTF-8" standalone="no"?>
<!DOCTYPE svg PUBLIC "-//W3C//DTD SVG 1.1//EN"
 "http://www.w3.org/Graphics/SVG/1.1/DTD/svg11.dtd">
<!-- Generated by graphviz version 2.36.0 (20140111.2315)
 -->
<!-- Title: src/hdchain.h Pages: 1 -->
<!--zoomable 388 -->
<svg id="main" version="1.1" xmlns="http://www.w3.org/2000/svg" xmlns:xlink="http://www.w3.org/1999/xlink" xml:space="preserve" onload="init(evt)">
<style type="text/css"><![CDATA[
.edge:hover path { stroke: red; }
.edge:hover polygon { stroke: red; fill: red; }
]]></style>
<script type="text/javascript"><![CDATA[
var edges = document.getElementsByTagName('g');
if (edges && edges.length) {
  for (var i=0;i<edges.length;i++) {
    if (edges[i].id.substr(0,4)=='edge') {
      edges[i].setAttribute('class','edge');
    }
  }
}
]]></script>
        <defs>
                <circle id="rim" cx="0" cy="0" r="7"/>
                <circle id="rim2" cx="0" cy="0" r="3.5"/>
                <g id="zoomPlus">
                        <use xlink:href="#rim" fill="#404040">
                                <set attributeName="fill" to="#808080" begin="zoomplus.mouseover" end="zoomplus.mouseout"/>
                        </use>
                        <path d="M-4,0h8M0,-4v8" fill="none" stroke="white" stroke-width="1.5" pointer-events="none"/>
                </g>
                <g id="zoomMin">
                        <use xlink:href="#rim" fill="#404040">
                                <set attributeName="fill" to="#808080" begin="zoomminus.mouseover" end="zoomminus.mouseout"/>
                        </use>
                        <path d="M-4,0h8" fill="none" stroke="white" stroke-width="1.5" pointer-events="none"/>
                </g>
                <g id="dirArrow">
                        <path fill="none" stroke="white" stroke-width="1.5" d="M0,-3.0v7 M-2.5,-0.5L0,-3.0L2.5,-0.5"/>
                </g>
               <g id="resetDef">
                       <use xlink:href="#rim2" fill="#404040">
                               <set attributeName="fill" to="#808080" begin="reset.mouseover" end="reset.mouseout"/>
                       </use>
               </g>
        </defs>

<script type="text/javascript">
var viewWidth = 3335;
var viewHeight = 388;
var sectionId = 'dynsection-1';
</script>
<script xlink:href="svgpan.js"/>
<svg id="graph" class="graph">
<g id="viewport">
<title>src/hdchain.h</title>
<polygon fill="white" stroke="none" points="-4,4 -4,-384 3331,-384 3331,4 -4,4"/>
<!-- Node54 -->
<g id="node1" class="node"><title>Node54</title>
<polygon fill="#bfbfbf" stroke="black" points="2752.5,-360.5 2752.5,-379.5 2827.5,-379.5 2827.5,-360.5 2752.5,-360.5"/>
<text text-anchor="middle" x="2790" y="-367.5" font-family="Helvetica,sans-Serif" font-size="10.00">src/hdchain.h</text>
</g>
<!-- Node55 -->
<g id="node2" class="node"><title>Node55</title>
<g id="a_node2"><a xlink:href="keystore_8h.html" target="_top" xlink:title="src/keystore.h">
<polygon fill="white" stroke="black" points="2750.5,-304.5 2750.5,-323.5 2829.5,-323.5 2829.5,-304.5 2750.5,-304.5"/>
<text text-anchor="middle" x="2790" y="-311.5" font-family="Helvetica,sans-Serif" font-size="10.00">src/keystore.h</text>
</a>
</g>
</g>
<!-- Node54&#45;&gt;Node55 -->
<g id="edge1" class="edge"><title>Node54&#45;&gt;Node55</title>
<path fill="none" stroke="midnightblue" d="M2790,-349.805C2790,-340.91 2790,-330.78 2790,-323.751"/>
<polygon fill="midnightblue" stroke="midnightblue" points="2786.5,-350.083 2790,-360.083 2793.5,-350.083 2786.5,-350.083"/>
</g>
<!-- Node91 -->
<g id="node38" class="node"><title>Node91</title>
<g id="a_node38"><a xlink:href="hdchain_8cpp.html" target="_top" xlink:title="src/hdchain.cpp">
<polygon fill="white" stroke="black" points="2848,-304.5 2848,-323.5 2934,-323.5 2934,-304.5 2848,-304.5"/>
<text text-anchor="middle" x="2891" y="-311.5" font-family="Helvetica,sans-Serif" font-size="10.00">src/hdchain.cpp</text>
</a>
</g>
</g>
<!-- Node54&#45;&gt;Node91 -->
<g id="edge44" class="edge"><title>Node54&#45;&gt;Node91</title>
<path fill="none" stroke="midnightblue" d="M2815.08,-355.59C2833.76,-345.605 2858.7,-332.267 2874.81,-323.655"/>
<polygon fill="midnightblue" stroke="midnightblue" points="2813.4,-352.522 2806.23,-360.324 2816.7,-358.696 2813.4,-352.522"/>
</g>
<!-- Node92 -->
<g id="node39" class="node"><title>Node92</title>
<g id="a_node39"><a xlink:href="walletdb_8h.html" target="_top" xlink:title="src/wallet/walletdb.h">
<polygon fill="white" stroke="black" points="109,-248.5 109,-267.5 215,-267.5 215,-248.5 109,-248.5"/>
<text text-anchor="middle" x="162" y="-255.5" font-family="Helvetica,sans-Serif" font-size="10.00">src/wallet/walletdb.h</text>
</a>
</g>
</g>
<!-- Node54&#45;&gt;Node92 -->
<g id="edge45" class="edge"><title>Node54&#45;&gt;Node92</title>
<path fill="none" stroke="midnightblue" d="M2741.9,-366.987C2417.8,-353.421 555.245,-275.46 215.265,-261.23"/>
<polygon fill="midnightblue" stroke="midnightblue" points="2742.21,-370.503 2752.34,-367.424 2742.5,-363.509 2742.21,-370.503"/>
</g>
<!-- Node56 -->
<g id="node3" class="node"><title>Node56</title>
<g id="a_node3"><a xlink:href="dash-tx_8cpp.html" target="_top" xlink:title="src/dash&#45;tx.cpp">
<polygon fill="white" stroke="black" points="3243,-248.5 3243,-267.5 3327,-267.5 3327,-248.5 3243,-248.5"/>
<text text-anchor="middle" x="3285" y="-255.5" font-family="Helvetica,sans-Serif" font-size="10.00">src/dash&#45;tx.cpp</text>
</a>
</g>
</g>
<!-- Node55&#45;&gt;Node56 -->
<g id="edge2" class="edge"><title>Node55&#45;&gt;Node56</title>
<path fill="none" stroke="midnightblue" d="M2839.64,-304.046C3015.39,-280.459 3062.51,-290.905 3234,-268 3236.85,-267.619 3239.79,-267.193 3242.74,-266.738"/>
<polygon fill="midnightblue" stroke="midnightblue" points="2838.97,-300.605 2829.53,-305.421 2839.91,-307.541 2838.97,-300.605"/>
</g>
<!-- Node57 -->
<g id="node4" class="node"><title>Node57</title>
<g id="a_node4"><a xlink:href="crypter_8h.html" target="_top" xlink:title="src/wallet/crypter.h">
<polygon fill="white" stroke="black" points="2010,-248.5 2010,-267.5 2110,-267.5 2110,-248.5 2010,-248.5"/>
<text text-anchor="middle" x="2060" y="-255.5" font-family="Helvetica,sans-Serif" font-size="10.00">src/wallet/crypter.h</text>
</a>
</g>
</g>
<!-- Node55&#45;&gt;Node57 -->
<g id="edge3" class="edge"><title>Node55&#45;&gt;Node57</title>
<path fill="none" stroke="midnightblue" d="M2740.19,-309.315C2607.02,-299.464 2243.82,-272.598 2110.2,-262.714"/>
<polygon fill="midnightblue" stroke="midnightblue" points="2740.26,-312.83 2750.49,-310.078 2740.78,-305.849 2740.26,-312.83"/>
</g>
<!-- Node67 -->
<g id="node14" class="node"><title>Node67</title>
<g id="a_node14"><a xlink:href="walletmodel_8cpp.html" target="_top" xlink:title="src/qt/walletmodel.cpp">
<polygon fill="white" stroke="black" points="36.5,-0.5 36.5,-19.5 151.5,-19.5 151.5,-0.5 36.5,-0.5"/>
<text text-anchor="middle" x="94" y="-7.5" font-family="Helvetica,sans-Serif" font-size="10.00">src/qt/walletmodel.cpp</text>
</a>
</g>
</g>
<!-- Node55&#45;&gt;Node67 -->
<g id="edge39" class="edge"><title>Node55&#45;&gt;Node67</title>
<path fill="none" stroke="midnightblue" d="M2740.17,-313.005C2383.6,-312.934 230.228,-310.732 100,-268 48.2095,-251.006 0,-251.507 0,-197 0,-197 0,-197 0,-127 0,-76.9724 53.4272,-36.4456 79.7234,-19.5286"/>
<polygon fill="midnightblue" stroke="midnightblue" points="2740.43,-316.505 2750.43,-313.006 2740.43,-309.505 2740.43,-316.505"/>
</g>
<!-- Node69 -->
<g id="node16" class="node"><title>Node69</title>
<g id="a_node16"><a xlink:href="wallet_8cpp.html" target="_top" xlink:title="src/wallet/wallet.cpp">
<polygon fill="white" stroke="black" points="2626,-0.5 2626,-19.5 2732,-19.5 2732,-0.5 2626,-0.5"/>
<text text-anchor="middle" x="2679" y="-7.5" font-family="Helvetica,sans-Serif" font-size="10.00">src/wallet/wallet.cpp</text>
</a>
</g>
</g>
<!-- Node55&#45;&gt;Node69 -->
<g id="edge43" class="edge"><title>Node55&#45;&gt;Node69</title>
<path fill="none" stroke="midnightblue" d="M2767.31,-298.467C2756.71,-290.617 2744.74,-280.062 2737,-268 2719.29,-240.412 2717,-229.784 2717,-197 2717,-197 2717,-197 2717,-127 2717,-85.04 2694.27,-38.595 2683.97,-19.7035"/>
<polygon fill="midnightblue" stroke="midnightblue" points="2765.58,-301.525 2775.77,-304.398 2769.59,-295.793 2765.58,-301.525"/>
</g>
<!-- Node87 -->
<g id="node34" class="node"><title>Node87</title>
<g id="a_node34"><a xlink:href="keystore_8cpp.html" target="_top" xlink:title="src/keystore.cpp">
<polygon fill="white" stroke="black" points="2745.5,-248.5 2745.5,-267.5 2834.5,-267.5 2834.5,-248.5 2745.5,-248.5"/>
<text text-anchor="middle" x="2790" y="-255.5" font-family="Helvetica,sans-Serif" font-size="10.00">src/keystore.cpp</text>
</a>
</g>
</g>
<!-- Node55&#45;&gt;Node87 -->
<g id="edge38" class="edge"><title>Node55&#45;&gt;Node87</title>
<path fill="none" stroke="midnightblue" d="M2790,-293.805C2790,-284.91 2790,-274.78 2790,-267.751"/>
<polygon fill="midnightblue" stroke="midnightblue" points="2786.5,-294.083 2790,-304.083 2793.5,-294.083 2786.5,-294.083"/>
</g>
<!-- Node88 -->
<g id="node35" class="node"><title>Node88</title>
<g id="a_node35"><a xlink:href="rawtransaction_8cpp.html" target="_top" xlink:title="src/rpc/rawtransaction.cpp">
<polygon fill="white" stroke="black" points="2853,-248.5 2853,-267.5 2985,-267.5 2985,-248.5 2853,-248.5"/>
<text text-anchor="middle" x="2919" y="-255.5" font-family="Helvetica,sans-Serif" font-size="10.00">src/rpc/rawtransaction.cpp</text>
</a>
</g>
</g>
<!-- Node55&#45;&gt;Node88 -->
<g id="edge40" class="edge"><title>Node55&#45;&gt;Node88</title>
<path fill="none" stroke="midnightblue" d="M2819.85,-300.503C2844.04,-290.38 2877.46,-276.388 2898.66,-267.516"/>
<polygon fill="midnightblue" stroke="midnightblue" points="2818.31,-297.354 2810.44,-304.444 2821.02,-303.811 2818.31,-297.354"/>
</g>
<!-- Node89 -->
<g id="node36" class="node"><title>Node89</title>
<g id="a_node36"><a xlink:href="ismine_8cpp.html" target="_top" xlink:title="src/script/ismine.cpp">
<polygon fill="white" stroke="black" points="3003.5,-248.5 3003.5,-267.5 3110.5,-267.5 3110.5,-248.5 3003.5,-248.5"/>
<text text-anchor="middle" x="3057" y="-255.5" font-family="Helvetica,sans-Serif" font-size="10.00">src/script/ismine.cpp</text>
</a>
</g>
</g>
<!-- Node55&#45;&gt;Node89 -->
<g id="edge41" class="edge"><title>Node55&#45;&gt;Node89</title>
<path fill="none" stroke="midnightblue" d="M2839.71,-302.946C2890.15,-292.745 2967.37,-277.127 3014.89,-267.516"/>
<polygon fill="midnightblue" stroke="midnightblue" points="2838.79,-299.561 2829.68,-304.974 2840.18,-306.422 2838.79,-299.561"/>
</g>
<!-- Node90 -->
<g id="node37" class="node"><title>Node90</title>
<g id="a_node37"><a xlink:href="sign_8cpp.html" target="_top" xlink:title="src/script/sign.cpp">
<polygon fill="white" stroke="black" points="3128.5,-248.5 3128.5,-267.5 3225.5,-267.5 3225.5,-248.5 3128.5,-248.5"/>
<text text-anchor="middle" x="3177" y="-255.5" font-family="Helvetica,sans-Serif" font-size="10.00">src/script/sign.cpp</text>
</a>
</g>
</g>
<!-- Node55&#45;&gt;Node90 -->
<g id="edge42" class="edge"><title>Node55&#45;&gt;Node90</title>
<path fill="none" stroke="midnightblue" d="M2839.52,-303.998C2964.64,-284.697 2997.93,-285.174 3119,-268 3122.03,-267.571 3125.14,-267.118 3128.28,-266.654"/>
<polygon fill="midnightblue" stroke="midnightblue" points="2838.89,-300.553 2829.55,-305.547 2839.97,-307.47 2838.89,-300.553"/>
</g>
<!-- Node58 -->
<g id="node5" class="node"><title>Node58</title>
<g id="a_node5"><a xlink:href="ccoins__caching_8cpp.html" target="_top" xlink:title="src/bench/ccoins_caching.cpp">
<polygon fill="white" stroke="black" points="2059.5,-186.5 2059.5,-205.5 2208.5,-205.5 2208.5,-186.5 2059.5,-186.5"/>
<text text-anchor="middle" x="2134" y="-193.5" font-family="Helvetica,sans-Serif" font-size="10.00">src/bench/ccoins_caching.cpp</text>
</a>
</g>
</g>
<!-- Node57&#45;&gt;Node58 -->
<g id="edge4" class="edge"><title>Node57&#45;&gt;Node58</title>
<path fill="none" stroke="midnightblue" d="M2078.69,-241.846C2092.84,-230.371 2111.78,-215.02 2123.42,-205.581"/>
<polygon fill="midnightblue" stroke="midnightblue" points="2076.17,-239.387 2070.6,-248.403 2080.57,-244.824 2076.17,-239.387"/>
</g>
<!-- Node59 -->
<g id="node6" class="node"><title>Node59</title>
<g id="a_node6"><a xlink:href="keepass_8cpp.html" target="_top" xlink:title="src/keepass.cpp">
<polygon fill="white" stroke="black" points="2226.5,-186.5 2226.5,-205.5 2315.5,-205.5 2315.5,-186.5 2226.5,-186.5"/>
<text text-anchor="middle" x="2271" y="-193.5" font-family="Helvetica,sans-Serif" font-size="10.00">src/keepass.cpp</text>
</a>
</g>
</g>
<!-- Node57&#45;&gt;Node59 -->
<g id="edge5" class="edge"><title>Node57&#45;&gt;Node59</title>
<path fill="none" stroke="midnightblue" d="M2099.9,-245.655C2140.89,-233.998 2203.8,-216.11 2240.82,-205.581"/>
<polygon fill="midnightblue" stroke="midnightblue" points="2098.89,-242.302 2090.23,-248.403 2100.81,-249.035 2098.89,-242.302"/>
</g>
<!-- Node60 -->
<g id="node7" class="node"><title>Node60</title>
<g id="a_node7"><a xlink:href="wallet_8h.html" target="_top" xlink:title="src/wallet/wallet.h">
<polygon fill="white" stroke="black" points="1318.5,-186.5 1318.5,-205.5 1413.5,-205.5 1413.5,-186.5 1318.5,-186.5"/>
<text text-anchor="middle" x="1366" y="-193.5" font-family="Helvetica,sans-Serif" font-size="10.00">src/wallet/wallet.h</text>
</a>
</g>
</g>
<!-- Node57&#45;&gt;Node60 -->
<g id="edge6" class="edge"><title>Node57&#45;&gt;Node60</title>
<path fill="none" stroke="midnightblue" d="M1999.59,-251.777C1863.71,-240.03 1536.33,-211.726 1413.56,-201.112"/>
<polygon fill="midnightblue" stroke="midnightblue" points="1999.55,-255.286 2009.81,-252.661 2000.15,-248.312 1999.55,-255.286"/>
</g>
<!-- Node85 -->
<g id="node32" class="node"><title>Node85</title>
<g id="a_node32"><a xlink:href="crypter_8cpp.html" target="_top" xlink:title="src/wallet/crypter.cpp">
<polygon fill="white" stroke="black" points="1805,-186.5 1805,-205.5 1915,-205.5 1915,-186.5 1805,-186.5"/>
<text text-anchor="middle" x="1860" y="-193.5" font-family="Helvetica,sans-Serif" font-size="10.00">src/wallet/crypter.cpp</text>
</a>
</g>
</g>
<!-- Node57&#45;&gt;Node85 -->
<g id="edge36" class="edge"><title>Node57&#45;&gt;Node85</title>
<path fill="none" stroke="midnightblue" d="M2021.44,-245.432C1982.57,-233.771 1923.48,-216.044 1888.6,-205.581"/>
<polygon fill="midnightblue" stroke="midnightblue" points="2020.76,-248.882 2031.34,-248.403 2022.77,-242.178 2020.76,-248.882"/>
</g>
<!-- Node86 -->
<g id="node33" class="node"><title>Node86</title>
<g id="a_node33"><a xlink:href="crypto__tests_8cpp.html" target="_top" xlink:title="src/wallet/test/crypto\l_tests.cpp">
<polygon fill="white" stroke="black" points="1933,-181 1933,-211 2041,-211 2041,-181 1933,-181"/>
<text text-anchor="start" x="1941" y="-199" font-family="Helvetica,sans-Serif" font-size="10.00">src/wallet/test/crypto</text>
<text text-anchor="middle" x="1987" y="-188" font-family="Helvetica,sans-Serif" font-size="10.00">_tests.cpp</text>
</a>
</g>
</g>
<!-- Node57&#45;&gt;Node86 -->
<g id="edge37" class="edge"><title>Node57&#45;&gt;Node86</title>
<path fill="none" stroke="midnightblue" d="M2041.5,-241.795C2030.04,-232.374 2015.42,-220.356 2004.2,-211.141"/>
<polygon fill="midnightblue" stroke="midnightblue" points="2039.59,-244.758 2049.54,-248.403 2044.04,-239.35 2039.59,-244.758"/>
</g>
<!-- Node61 -->
<g id="node8" class="node"><title>Node61</title>
<g id="a_node8"><a xlink:href="coin__selection_8cpp.html" target="_top" xlink:title="src/bench/coin_selection.cpp">
<polygon fill="white" stroke="black" points="2382.5,-118.5 2382.5,-137.5 2525.5,-137.5 2525.5,-118.5 2382.5,-118.5"/>
<text text-anchor="middle" x="2454" y="-125.5" font-family="Helvetica,sans-Serif" font-size="10.00">src/bench/coin_selection.cpp</text>
</a>
</g>
</g>
<!-- Node60&#45;&gt;Node61 -->
<g id="edge7" class="edge"><title>Node60&#45;&gt;Node61</title>
<path fill="none" stroke="midnightblue" d="M1423.54,-192.995C1607.94,-186.425 2182.93,-164.771 2368,-144 2382.16,-142.411 2397.51,-139.967 2411.28,-137.509"/>
<polygon fill="midnightblue" stroke="midnightblue" points="1423.37,-189.499 1413.5,-193.352 1423.62,-196.495 1423.37,-189.499"/>
</g>
<!-- Node62 -->
<g id="node9" class="node"><title>Node62</title>
<g id="a_node9"><a xlink:href="privatesend-util_8h.html" target="_top" xlink:title="src/privatesend&#45;util.h">
<polygon fill="white" stroke="black" points="2543.5,-118.5 2543.5,-137.5 2650.5,-137.5 2650.5,-118.5 2543.5,-118.5"/>
<text text-anchor="middle" x="2597" y="-125.5" font-family="Helvetica,sans-Serif" font-size="10.00">src/privatesend&#45;util.h</text>
</a>
</g>
</g>
<!-- Node60&#45;&gt;Node62 -->
<g id="edge8" class="edge"><title>Node60&#45;&gt;Node62</title>
<path fill="none" stroke="midnightblue" d="M1423.62,-192.789C1651.29,-184.013 2478.57,-151.738 2534,-144 2544.69,-142.508 2556.22,-140.025 2566.46,-137.505"/>
<polygon fill="midnightblue" stroke="midnightblue" points="1423.41,-189.294 1413.55,-193.177 1423.68,-196.289 1423.41,-189.294"/>
</g>
<!-- Node63 -->
<g id="node10" class="node"><title>Node63</title>
<g id="a_node10"><a xlink:href="privatesend-client_8h.html" target="_top" xlink:title="src/privatesend&#45;client.h">
<polygon fill="white" stroke="black" points="1409,-56.5 1409,-75.5 1527,-75.5 1527,-56.5 1409,-56.5"/>
<text text-anchor="middle" x="1468" y="-63.5" font-family="Helvetica,sans-Serif" font-size="10.00">src/privatesend&#45;client.h</text>
</a>
</g>
</g>
<!-- Node60&#45;&gt;Node63 -->
<g id="edge17" class="edge"><title>Node60&#45;&gt;Node63</title>
<path fill="none" stroke="midnightblue" d="M1423.81,-193.02C1630.04,-185.823 2318.25,-160.602 2334,-144 2343.79,-133.682 2343.79,-122.314 2334,-112 2306.22,-82.7426 1717.69,-70.9297 1527.04,-67.8617"/>
<polygon fill="midnightblue" stroke="midnightblue" points="1423.65,-189.523 1413.78,-193.369 1423.9,-196.519 1423.65,-189.523"/>
</g>
<!-- Node65 -->
<g id="node12" class="node"><title>Node65</title>
<g id="a_node12"><a xlink:href="coincontroldialog_8cpp.html" target="_top" xlink:title="src/qt/coincontroldialog.cpp">
<polygon fill="white" stroke="black" points="735,-0.5 735,-19.5 871,-19.5 871,-0.5 735,-0.5"/>
<text text-anchor="middle" x="803" y="-7.5" font-family="Helvetica,sans-Serif" font-size="10.00">src/qt/coincontroldialog.cpp</text>
</a>
</g>
</g>
<!-- Node60&#45;&gt;Node65 -->
<g id="edge19" class="edge"><title>Node60&#45;&gt;Node65</title>
<path fill="none" stroke="midnightblue" d="M1308.19,-194.295C1096.83,-191.441 376.449,-179.158 343,-144 227.252,-22.3374 580.574,-9.86519 734.782,-10.0168"/>
<polygon fill="midnightblue" stroke="midnightblue" points="1308.41,-197.799 1318.46,-194.432 1308.51,-190.799 1308.41,-197.799"/>
</g>
<!-- Node60&#45;&gt;Node67 -->
<g id="edge27" class="edge"><title>Node60&#45;&gt;Node67</title>
<path fill="none" stroke="midnightblue" d="M1308.32,-194.062C1099.4,-190.42 389.509,-175.803 293,-144 250.968,-130.149 141.117,-47.2742 105.4,-19.8243"/>
<polygon fill="midnightblue" stroke="midnightblue" points="1308.41,-197.564 1318.46,-194.238 1308.53,-190.565 1308.41,-197.564"/>
</g>
<!-- Node68 -->
<g id="node15" class="node"><title>Node68</title>
<g id="a_node15"><a xlink:href="rpcwallet_8cpp.html" target="_top" xlink:title="src/wallet/rpcwallet.cpp">
<polygon fill="white" stroke="black" points="226.5,-0.5 226.5,-19.5 345.5,-19.5 345.5,-0.5 226.5,-0.5"/>
<text text-anchor="middle" x="286" y="-7.5" font-family="Helvetica,sans-Serif" font-size="10.00">src/wallet/rpcwallet.cpp</text>
</a>
</g>
</g>
<!-- Node60&#45;&gt;Node68 -->
<g id="edge30" class="edge"><title>Node60&#45;&gt;Node68</title>
<path fill="none" stroke="midnightblue" d="M1308.15,-194.078C1094.11,-190.424 357.424,-175.592 319,-144 280.593,-112.422 282.902,-43.7579 285.045,-19.6097"/>
<polygon fill="midnightblue" stroke="midnightblue" points="1308.18,-197.579 1318.24,-194.249 1308.3,-190.58 1308.18,-197.579"/>
</g>
<!-- Node60&#45;&gt;Node69 -->
<g id="edge34" class="edge"><title>Node60&#45;&gt;Node69</title>
<path fill="none" stroke="midnightblue" d="M1424.05,-192.957C1674.88,-184.099 2653.17,-149.227 2659,-144 2695.35,-111.438 2685.68,-43.3968 2680.9,-19.5102"/>
<polygon fill="midnightblue" stroke="midnightblue" points="1423.57,-189.471 1413.7,-193.322 1423.82,-196.467 1423.57,-189.471"/>
</g>
<!-- Node71 -->
<g id="node18" class="node"><title>Node71</title>
<g id="a_node18"><a xlink:href="addresstablemodel_8cpp.html" target="_top" xlink:title="src/qt/addresstablemodel.cpp">
<polygon fill="white" stroke="black" points="352.5,-118.5 352.5,-137.5 497.5,-137.5 497.5,-118.5 352.5,-118.5"/>
<text text-anchor="middle" x="425" y="-125.5" font-family="Helvetica,sans-Serif" font-size="10.00">src/qt/addresstablemodel.cpp</text>
</a>
</g>
</g>
<!-- Node60&#45;&gt;Node71 -->
<g id="edge18" class="edge"><title>Node60&#45;&gt;Node71</title>
<path fill="none" stroke="midnightblue" d="M1307.86,-194.034C1168.81,-191.185 806.255,-180.562 506,-144 492.797,-142.392 478.497,-139.973 465.639,-137.544"/>
<polygon fill="midnightblue" stroke="midnightblue" points="1308.2,-197.542 1318.27,-194.241 1308.34,-190.543 1308.2,-197.542"/>
</g>
<!-- Node72 -->
<g id="node19" class="node"><title>Node72</title>
<g id="a_node19"><a xlink:href="masternodelist_8cpp.html" target="_top" xlink:title="src/qt/masternodelist.cpp">
<polygon fill="white" stroke="black" points="515.5,-118.5 515.5,-137.5 642.5,-137.5 642.5,-118.5 515.5,-118.5"/>
<text text-anchor="middle" x="579" y="-125.5" font-family="Helvetica,sans-Serif" font-size="10.00">src/qt/masternodelist.cpp</text>
</a>
</g>
</g>
<!-- Node60&#45;&gt;Node72 -->
<g id="edge20" class="edge"><title>Node60&#45;&gt;Node72</title>
<path fill="none" stroke="midnightblue" d="M1307.92,-193.435C1185.91,-189.582 894.238,-177.392 652,-144 640.08,-142.357 627.187,-139.928 615.6,-137.501"/>
<polygon fill="midnightblue" stroke="midnightblue" points="1308.04,-196.941 1318.15,-193.751 1308.26,-189.944 1308.04,-196.941"/>
</g>
<!-- Node73 -->
<g id="node20" class="node"><title>Node73</title>
<g id="a_node20"><a xlink:href="paymentserver_8cpp.html" target="_top" xlink:title="src/qt/paymentserver.cpp">
<polygon fill="white" stroke="black" points="661,-118.5 661,-137.5 789,-137.5 789,-118.5 661,-118.5"/>
<text text-anchor="middle" x="725" y="-125.5" font-family="Helvetica,sans-Serif" font-size="10.00">src/qt/paymentserver.cpp</text>
</a>
</g>
</g>
<!-- Node60&#45;&gt;Node73 -->
<g id="edge21" class="edge"><title>Node60&#45;&gt;Node73</title>
<path fill="none" stroke="midnightblue" d="M1308.1,-191.97C1205.09,-186.097 983.376,-171.279 798,-144 786.352,-142.286 773.76,-139.895 762.368,-137.525"/>
<polygon fill="midnightblue" stroke="midnightblue" points="1308.11,-195.476 1318.29,-192.544 1308.5,-188.487 1308.11,-195.476"/>
</g>
<!-- Node74 -->
<g id="node21" class="node"><title>Node74</title>
<g id="a_node21"><a xlink:href="sendcoinsdialog_8cpp.html" target="_top" xlink:title="src/qt/sendcoinsdialog.cpp">
<polygon fill="white" stroke="black" points="807.5,-118.5 807.5,-137.5 940.5,-137.5 940.5,-118.5 807.5,-118.5"/>
<text text-anchor="middle" x="874" y="-125.5" font-family="Helvetica,sans-Serif" font-size="10.00">src/qt/sendcoinsdialog.cpp</text>
</a>
</g>
</g>
<!-- Node60&#45;&gt;Node74 -->
<g id="edge22" class="edge"><title>Node60&#45;&gt;Node74</title>
<path fill="none" stroke="midnightblue" d="M1308.01,-189.239C1227.44,-180.93 1077.21,-164.324 950,-144 938.446,-142.154 925.967,-139.83 914.527,-137.567"/>
<polygon fill="midnightblue" stroke="midnightblue" points="1308.12,-192.769 1318.43,-190.308 1308.84,-185.806 1308.12,-192.769"/>
</g>
<!-- Node75 -->
<g id="node22" class="node"><title>Node75</title>
<g id="a_node22"><a xlink:href="signverifymessagedialog_8cpp.html" target="_top" xlink:title="src/qt/signverifymessagedialog.cpp">
<polygon fill="white" stroke="black" points="959,-118.5 959,-137.5 1129,-137.5 1129,-118.5 959,-118.5"/>
<text text-anchor="middle" x="1044" y="-125.5" font-family="Helvetica,sans-Serif" font-size="10.00">src/qt/signverifymessagedialog.cpp</text>
</a>
</g>
</g>
<!-- Node60&#45;&gt;Node75 -->
<g id="edge23" class="edge"><title>Node60&#45;&gt;Node75</title>
<path fill="none" stroke="midnightblue" d="M1314.43,-184.429C1250.92,-171.412 1144.29,-149.555 1085.69,-137.546"/>
<polygon fill="midnightblue" stroke="midnightblue" points="1313.74,-187.86 1324.23,-186.439 1315.14,-181.003 1313.74,-187.86"/>
</g>
<!-- Node76 -->
<g id="node23" class="node"><title>Node76</title>
<g id="a_node23"><a xlink:href="transactiondesc_8cpp.html" target="_top" xlink:title="src/qt/transactiondesc.cpp">
<polygon fill="white" stroke="black" points="1147,-118.5 1147,-137.5 1279,-137.5 1279,-118.5 1147,-118.5"/>
<text text-anchor="middle" x="1213" y="-125.5" font-family="Helvetica,sans-Serif" font-size="10.00">src/qt/transactiondesc.cpp</text>
</a>
</g>
</g>
<!-- Node60&#45;&gt;Node76 -->
<g id="edge24" class="edge"><title>Node60&#45;&gt;Node76</title>
<path fill="none" stroke="midnightblue" d="M1336.74,-182.377C1306.3,-169.247 1259.47,-149.045 1233.01,-137.63"/>
<polygon fill="midnightblue" stroke="midnightblue" points="1335.43,-185.624 1346,-186.372 1338.2,-179.197 1335.43,-185.624"/>
</g>
<!-- Node77 -->
<g id="node24" class="node"><title>Node77</title>
<g id="a_node24"><a xlink:href="transactionrecord_8cpp.html" target="_top" xlink:title="src/qt/transactionrecord.cpp">
<polygon fill="white" stroke="black" points="1297,-118.5 1297,-137.5 1435,-137.5 1435,-118.5 1297,-118.5"/>
<text text-anchor="middle" x="1366" y="-125.5" font-family="Helvetica,sans-Serif" font-size="10.00">src/qt/transactionrecord.cpp</text>
</a>
</g>
</g>
<!-- Node60&#45;&gt;Node77 -->
<g id="edge25" class="edge"><title>Node60&#45;&gt;Node77</title>
<path fill="none" stroke="midnightblue" d="M1366,-176.041C1366,-163.472 1366,-147.563 1366,-137.841"/>
<polygon fill="midnightblue" stroke="midnightblue" points="1362.5,-176.372 1366,-186.372 1369.5,-176.372 1362.5,-176.372"/>
</g>
<!-- Node78 -->
<g id="node25" class="node"><title>Node78</title>
<g id="a_node25"><a xlink:href="transactiontablemodel_8cpp.html" target="_top" xlink:title="src/qt/transactiontablemodel.cpp">
<polygon fill="white" stroke="black" points="1453,-118.5 1453,-137.5 1611,-137.5 1611,-118.5 1453,-118.5"/>
<text text-anchor="middle" x="1532" y="-125.5" font-family="Helvetica,sans-Serif" font-size="10.00">src/qt/transactiontablemodel.cpp</text>
</a>
</g>
</g>
<!-- Node60&#45;&gt;Node78 -->
<g id="edge26" class="edge"><title>Node60&#45;&gt;Node78</title>
<path fill="none" stroke="midnightblue" d="M1397.35,-182.536C1430.46,-169.371 1481.78,-148.967 1510.56,-137.526"/>
<polygon fill="midnightblue" stroke="midnightblue" points="1395.7,-179.425 1387.7,-186.372 1398.29,-185.929 1395.7,-179.425"/>
</g>
<!-- Node79 -->
<g id="node26" class="node"><title>Node79</title>
<g id="a_node26"><a xlink:href="walletmodeltransaction_8cpp.html" target="_top" xlink:title="src/qt/walletmodeltransaction.cpp">
<polygon fill="white" stroke="black" points="1629.5,-118.5 1629.5,-137.5 1792.5,-137.5 1792.5,-118.5 1629.5,-118.5"/>
<text text-anchor="middle" x="1711" y="-125.5" font-family="Helvetica,sans-Serif" font-size="10.00">src/qt/walletmodeltransaction.cpp</text>
</a>
</g>
</g>
<!-- Node60&#45;&gt;Node79 -->
<g id="edge28" class="edge"><title>Node60&#45;&gt;Node79</title>
<path fill="none" stroke="midnightblue" d="M1420.84,-184.509C1488.83,-171.502 1603.42,-149.58 1666.33,-137.546"/>
<polygon fill="midnightblue" stroke="midnightblue" points="1419.91,-181.123 1410.75,-186.439 1421.23,-187.998 1419.91,-181.123"/>
</g>
<!-- Node80 -->
<g id="node27" class="node"><title>Node80</title>
<g id="a_node27"><a xlink:href="rpcdump_8cpp.html" target="_top" xlink:title="src/wallet/rpcdump.cpp">
<polygon fill="white" stroke="black" points="1811,-118.5 1811,-137.5 1929,-137.5 1929,-118.5 1811,-118.5"/>
<text text-anchor="middle" x="1870" y="-125.5" font-family="Helvetica,sans-Serif" font-size="10.00">src/wallet/rpcdump.cpp</text>
</a>
</g>
</g>
<!-- Node60&#45;&gt;Node80 -->
<g id="edge29" class="edge"><title>Node60&#45;&gt;Node80</title>
<path fill="none" stroke="midnightblue" d="M1423.57,-190.05C1507.08,-182.463 1666.54,-166.442 1801,-144 1811.76,-142.204 1823.38,-139.844 1833.96,-137.529"/>
<polygon fill="midnightblue" stroke="midnightblue" points="1423.17,-186.572 1413.52,-190.955 1423.8,-193.544 1423.17,-186.572"/>
</g>
<!-- Node81 -->
<g id="node28" class="node"><title>Node81</title>
<g id="a_node28"><a xlink:href="accounting__tests_8cpp.html" target="_top" xlink:title="src/wallet/test/accounting\l_tests.cpp">
<polygon fill="white" stroke="black" points="1947,-113 1947,-143 2075,-143 2075,-113 1947,-113"/>
<text text-anchor="start" x="1955" y="-131" font-family="Helvetica,sans-Serif" font-size="10.00">src/wallet/test/accounting</text>
<text text-anchor="middle" x="2011" y="-120" font-family="Helvetica,sans-Serif" font-size="10.00">_tests.cpp</text>
</a>
</g>
</g>
<!-- Node60&#45;&gt;Node81 -->
<g id="edge31" class="edge"><title>Node60&#45;&gt;Node81</title>
<path fill="none" stroke="midnightblue" d="M1423.91,-192.019C1527.48,-186.204 1751.08,-171.446 1938,-144 1940.94,-143.568 1943.95,-143.092 1946.98,-142.584"/>
<polygon fill="midnightblue" stroke="midnightblue" points="1423.46,-188.539 1413.67,-192.587 1423.85,-195.528 1423.46,-188.539"/>
</g>
<!-- Node82 -->
<g id="node29" class="node"><title>Node82</title>
<g id="a_node29"><a xlink:href="wallet__test__fixture_8cpp.html" target="_top" xlink:title="src/wallet/test/wallet\l_test_fixture.cpp">
<polygon fill="white" stroke="black" points="2093.5,-113 2093.5,-143 2200.5,-143 2200.5,-113 2093.5,-113"/>
<text text-anchor="start" x="2101.5" y="-131" font-family="Helvetica,sans-Serif" font-size="10.00">src/wallet/test/wallet</text>
<text text-anchor="middle" x="2147" y="-120" font-family="Helvetica,sans-Serif" font-size="10.00">_test_fixture.cpp</text>
</a>
</g>
</g>
<!-- Node60&#45;&gt;Node82 -->
<g id="edge32" class="edge"><title>Node60&#45;&gt;Node82</title>
<path fill="none" stroke="midnightblue" d="M1424.04,-194.075C1546.63,-191.421 1840.66,-181.357 2084,-144 2087,-143.539 2090.07,-143.009 2093.16,-142.429"/>
<polygon fill="midnightblue" stroke="midnightblue" points="1423.69,-190.581 1413.77,-194.288 1423.84,-197.58 1423.69,-190.581"/>
</g>
<!-- Node83 -->
<g id="node30" class="node"><title>Node83</title>
<g id="a_node30"><a xlink:href="wallet__tests_8cpp.html" target="_top" xlink:title="src/wallet/test/wallet\l_tests.cpp">
<polygon fill="white" stroke="black" points="2218.5,-113 2218.5,-143 2325.5,-143 2325.5,-113 2218.5,-113"/>
<text text-anchor="start" x="2226.5" y="-131" font-family="Helvetica,sans-Serif" font-size="10.00">src/wallet/test/wallet</text>
<text text-anchor="middle" x="2272" y="-120" font-family="Helvetica,sans-Serif" font-size="10.00">_tests.cpp</text>
</a>
</g>
</g>
<!-- Node60&#45;&gt;Node83 -->
<g id="edge33" class="edge"><title>Node60&#45;&gt;Node83</title>
<path fill="none" stroke="midnightblue" d="M1423.95,-192.805C1588.58,-186.36 2056.97,-166.524 2209,-144 2212,-143.555 2215.07,-143.037 2218.16,-142.467"/>
<polygon fill="midnightblue" stroke="midnightblue" points="1423.41,-189.323 1413.55,-193.21 1423.68,-196.318 1423.41,-189.323"/>
</g>
<!-- Node84 -->
<g id="node31" class="node"><title>Node84</title>
<g id="a_node31"><a xlink:href="walletdb_8cpp.html" target="_top" xlink:title="src/wallet/walletdb.cpp">
<polygon fill="white" stroke="black" points="104,-118.5 104,-137.5 220,-137.5 220,-118.5 104,-118.5"/>
<text text-anchor="middle" x="162" y="-125.5" font-family="Helvetica,sans-Serif" font-size="10.00">src/wallet/walletdb.cpp</text>
</a>
</g>
</g>
<!-- Node60&#45;&gt;Node84 -->
<g id="edge35" class="edge"><title>Node60&#45;&gt;Node84</title>
<path fill="none" stroke="midnightblue" d="M1308.26,-195.656C1141.19,-196.855 643.134,-195.497 234,-144 221.965,-142.485 208.947,-140.029 197.333,-137.539"/>
<polygon fill="midnightblue" stroke="midnightblue" points="1308.35,-199.155 1318.32,-195.578 1308.29,-192.156 1308.35,-199.155"/>
</g>
<!-- Node62&#45;&gt;Node63 -->
<g id="edge9" class="edge"><title>Node62&#45;&gt;Node63</title>
<path fill="none" stroke="midnightblue" d="M2556.55,-116.163C2549.1,-114.512 2541.35,-113.021 2534,-112 2337.11,-84.6621 1721.09,-71.5337 1527.11,-68.0041"/>
<polygon fill="midnightblue" stroke="midnightblue" points="2555.93,-119.612 2566.46,-118.486 2557.52,-112.797 2555.93,-119.612"/>
</g>
<!-- Node70 -->
<g id="node17" class="node"><title>Node70</title>
<g id="a_node17"><a xlink:href="privatesend-util_8cpp.html" target="_top" xlink:title="src/privatesend&#45;util.cpp">
<polygon fill="white" stroke="black" points="2533,-56.5 2533,-75.5 2651,-75.5 2651,-56.5 2533,-56.5"/>
<text text-anchor="middle" x="2592" y="-63.5" font-family="Helvetica,sans-Serif" font-size="10.00">src/privatesend&#45;util.cpp</text>
</a>
</g>
</g>
<!-- Node62&#45;&gt;Node70 -->
<g id="edge16" class="edge"><title>Node62&#45;&gt;Node70</title>
<path fill="none" stroke="midnightblue" d="M2595.43,-108.16C2594.52,-97.2482 2593.42,-84.04 2592.72,-75.5806"/>
<polygon fill="midnightblue" stroke="midnightblue" points="2591.97,-108.729 2596.28,-118.403 2598.94,-108.147 2591.97,-108.729"/>
</g>
<!-- Node64 -->
<g id="node11" class="node"><title>Node64</title>
<g id="a_node11"><a xlink:href="privatesend-client_8cpp.html" target="_top" xlink:title="src/privatesend&#45;client.cpp">
<polygon fill="white" stroke="black" points="1332,-0.5 1332,-19.5 1460,-19.5 1460,-0.5 1332,-0.5"/>
<text text-anchor="middle" x="1396" y="-7.5" font-family="Helvetica,sans-Serif" font-size="10.00">src/privatesend&#45;client.cpp</text>
</a>
</g>
</g>
<!-- Node63&#45;&gt;Node64 -->
<g id="edge10" class="edge"><title>Node63&#45;&gt;Node64</title>
<path fill="none" stroke="midnightblue" d="M1448.13,-50.1008C1435.18,-40.3824 1418.7,-28.0269 1407.78,-19.8339"/>
<polygon fill="midnightblue" stroke="midnightblue" points="1446.33,-53.1239 1456.43,-56.324 1450.53,-47.5239 1446.33,-53.1239"/>
</g>
<!-- Node63&#45;&gt;Node65 -->
<g id="edge11" class="edge"><title>Node63&#45;&gt;Node65</title>
<path fill="none" stroke="midnightblue" d="M1398.91,-59.3899C1270.95,-48.9988 998.525,-26.8773 871.218,-16.5395"/>
<polygon fill="midnightblue" stroke="midnightblue" points="1398.74,-62.8869 1408.99,-60.2079 1399.3,-55.9099 1398.74,-62.8869"/>
</g>
<!-- Node66 -->
<g id="node13" class="node"><title>Node66</title>
<g id="a_node13"><a xlink:href="overviewpage_8cpp.html" target="_top" xlink:title="src/qt/overviewpage.cpp">
<polygon fill="white" stroke="black" points="1478.5,-0.5 1478.5,-19.5 1601.5,-19.5 1601.5,-0.5 1478.5,-0.5"/>
<text text-anchor="middle" x="1540" y="-7.5" font-family="Helvetica,sans-Serif" font-size="10.00">src/qt/overviewpage.cpp</text>
</a>
</g>
</g>
<!-- Node63&#45;&gt;Node66 -->
<g id="edge12" class="edge"><title>Node63&#45;&gt;Node66</title>
<path fill="none" stroke="midnightblue" d="M1487.87,-50.1008C1500.82,-40.3824 1517.3,-28.0269 1528.22,-19.8339"/>
<polygon fill="midnightblue" stroke="midnightblue" points="1485.47,-47.5239 1479.57,-56.324 1489.67,-53.1239 1485.47,-47.5239"/>
</g>
<!-- Node63&#45;&gt;Node67 -->
<g id="edge13" class="edge"><title>Node63&#45;&gt;Node67</title>
<path fill="none" stroke="midnightblue" d="M1398.61,-63.4071C1209.16,-58.8627 667.142,-44.5562 217,-20 195.621,-18.8337 172.175,-17.2053 151.541,-15.6537"/>
<polygon fill="midnightblue" stroke="midnightblue" points="1398.63,-66.9084 1408.71,-63.6481 1398.8,-59.9104 1398.63,-66.9084"/>
</g>
<!-- Node63&#45;&gt;Node68 -->
<g id="edge14" class="edge"><title>Node63&#45;&gt;Node68</title>
<path fill="none" stroke="midnightblue" d="M1398.89,-61.8425C1186.34,-52.1323 544.739,-22.8206 345.608,-13.7232"/>
<polygon fill="midnightblue" stroke="midnightblue" points="1398.83,-65.3435 1408.98,-62.3037 1399.15,-58.3508 1398.83,-65.3435"/>
</g>
<!-- Node63&#45;&gt;Node69 -->
<g id="edge15" class="edge"><title>Node63&#45;&gt;Node69</title>
<path fill="none" stroke="midnightblue" d="M1537.31,-61.9092C1756.4,-52.1399 2430.96,-22.0603 2625.8,-13.3724"/>
<polygon fill="midnightblue" stroke="midnightblue" points="1537.06,-58.4168 1527.23,-62.3589 1537.37,-65.4099 1537.06,-58.4168"/>
</g>
<!-- Node92&#45;&gt;Node60 -->
<g id="edge46" class="edge"><title>Node92&#45;&gt;Node60</title>
<path fill="none" stroke="midnightblue" d="M225.399,-253.841C439.097,-243.191 1130.14,-208.754 1318.31,-199.377"/>
<polygon fill="midnightblue" stroke="midnightblue" points="225.101,-250.351 215.288,-254.344 225.45,-257.342 225.101,-250.351"/>
</g>
<!-- Node92&#45;&gt;Node67 -->
<g id="edge47" class="edge"><title>Node92&#45;&gt;Node67</title>
<path fill="none" stroke="midnightblue" d="M107.585,-245.126C89.9995,-238.435 72.379,-228.052 62,-212 24.354,-153.777 40.9105,-122.048 62,-56 66.5489,-41.7538 77.4366,-28.16 85.2486,-19.7136"/>
<polygon fill="midnightblue" stroke="midnightblue" points="106.709,-248.527 117.304,-248.476 108.99,-241.909 106.709,-248.527"/>
</g>
<!-- Node92&#45;&gt;Node68 -->
<g id="edge48" class="edge"><title>Node92&#45;&gt;Node68</title>
<path fill="none" stroke="midnightblue" d="M144.409,-240.974C116.579,-213.614 68.1707,-156.537 95,-112 127.421,-58.181 199.184,-31.5507 244.927,-19.5702"/>
<polygon fill="midnightblue" stroke="midnightblue" points="142.303,-243.802 151.957,-248.167 147.133,-238.734 142.303,-243.802"/>
</g>
<!-- Node92&#45;&gt;Node84 -->
<g id="edge49" class="edge"><title>Node92&#45;&gt;Node84</title>
<path fill="none" stroke="midnightblue" d="M162,-238.029C162,-209.803 162,-157.892 162,-137.522"/>
<polygon fill="midnightblue" stroke="midnightblue" points="158.5,-238.202 162,-248.202 165.5,-238.202 158.5,-238.202"/>
</g>
</g>
</svg>
        <g id="navigator" transform="translate(0 0)" fill="#404254">
                <rect fill="#f2f5e9" fill-opacity="0.5" stroke="#606060" stroke-width=".5" x="0" y="0" width="60" height="60"/>
                <use id="zoomplus" xlink:href="#zoomPlus" x="17" y="9" onmousedown="handleZoom(evt,'in')"/>
                <use id="zoomminus" xlink:href="#zoomMin" x="42" y="9" onmousedown="handleZoom(evt,'out')"/>
                <use id="reset" xlink:href="#resetDef" x="30" y="36" onmousedown="handleReset()"/>
                <g id="arrowUp" xlink:href="#dirArrow" transform="translate(30 24)" onmousedown="handlePan(0,-1)">
                  <use xlink:href="#rim" fill="#404040">
                        <set attributeName="fill" to="#808080" begin="arrowUp.mouseover" end="arrowUp.mouseout"/>
                  </use>
                  <path fill="none" stroke="white" stroke-width="1.5" d="M0,-3.0v7 M-2.5,-0.5L0,-3.0L2.5,-0.5"/>
                </g>
                <g id="arrowRight" xlink:href="#dirArrow" transform="rotate(90) translate(36 -43)" onmousedown="handlePan(1,0)">
                  <use xlink:href="#rim" fill="#404040">
                        <set attributeName="fill" to="#808080" begin="arrowRight.mouseover" end="arrowRight.mouseout"/>
                  </use>
                  <path fill="none" stroke="white" stroke-width="1.5" d="M0,-3.0v7 M-2.5,-0.5L0,-3.0L2.5,-0.5"/>
                </g>
                <g id="arrowDown" xlink:href="#dirArrow" transform="rotate(180) translate(-30 -48)" onmousedown="handlePan(0,1)">
                  <use xlink:href="#rim" fill="#404040">
                        <set attributeName="fill" to="#808080" begin="arrowDown.mouseover" end="arrowDown.mouseout"/>
                  </use>
                  <path fill="none" stroke="white" stroke-width="1.5" d="M0,-3.0v7 M-2.5,-0.5L0,-3.0L2.5,-0.5"/>
                </g>
                <g id="arrowLeft" xlink:href="#dirArrow" transform="rotate(270) translate(-36 17)" onmousedown="handlePan(-1,0)">
                  <use xlink:href="#rim" fill="#404040">
                        <set attributeName="fill" to="#808080" begin="arrowLeft.mouseover" end="arrowLeft.mouseout"/>
                  </use>
                  <path fill="none" stroke="white" stroke-width="1.5" d="M0,-3.0v7 M-2.5,-0.5L0,-3.0L2.5,-0.5"/>
                </g>
        </g>
        <svg viewBox="0 0 15 15" width="100%" height="30px" preserveAspectRatio="xMaxYMin meet">
         <g id="arrow_out" transform="scale(0.3 0.3)">
          <a xlink:href="hdchain_8h__dep__incl_org.svg" target="_base">
           <rect id="button" ry="5" rx="5" y="6" x="6" height="38" width="38"
                fill="#f2f5e9" fill-opacity="0.5" stroke="#606060" stroke-width="1.0"/>
           <path id="arrow"
             d="M 11.500037,31.436501 C 11.940474,20.09759 22.043105,11.32322 32.158766,21.979434 L 37.068811,17.246167 C 37.068811,17.246167 37.088388,32 37.088388,32 L 22.160133,31.978069 C 22.160133,31.978069 26.997745,27.140456 26.997745,27.140456 C 18.528582,18.264221 13.291696,25.230495 11.500037,31.436501 z"
             style="fill:#404040;"/>
          </a>
         </g>
        </svg>
</svg>
