<?xml version="1.0" encoding="UTF-8" standalone="no"?>
<!DOCTYPE svg PUBLIC "-//W3C//DTD SVG 1.1//EN"
 "http://www.w3.org/Graphics/SVG/1.1/DTD/svg11.dtd">
<!-- Generated by graphviz version 2.36.0 (20140111.2315)
 -->
<!-- Title: src/immer/heap/heap_policy.hpp Pages: 1 -->
<svg width="635pt" height="356pt"
 viewBox="0.00 0.00 635.00 356.00" xmlns="http://www.w3.org/2000/svg" xmlns:xlink="http://www.w3.org/1999/xlink">
<g id="graph0" class="graph" transform="scale(1 1) rotate(0) translate(4 352)">
<title>src/immer/heap/heap_policy.hpp</title>
<polygon fill="white" stroke="none" points="-4,4 -4,-352 631,-352 631,4 -4,4"/>
<!-- Node0 -->
<g id="node1" class="node"><title>Node0</title>
<polygon fill="#bfbfbf" stroke="black" points="223,-317 223,-347 331,-347 331,-317 223,-317"/>
<text text-anchor="start" x="231" y="-335" font-family="Helvetica,sans-Serif" font-size="10.00">src/immer/heap/heap</text>
<text text-anchor="middle" x="277" y="-324" font-family="Helvetica,sans-Serif" font-size="10.00">_policy.hpp</text>
</g>
<!-- Node1 -->
<g id="node2" class="node"><title>Node1</title>
<g id="a_node2"><a xlink:href="debug__size__heap_8hpp.html" target="_top" xlink:title="immer/heap/debug_size\l_heap.hpp">
<polygon fill="white" stroke="black" points="77,-249 77,-279 197,-279 197,-249 77,-249"/>
<text text-anchor="start" x="85" y="-267" font-family="Helvetica,sans-Serif" font-size="10.00">immer/heap/debug_size</text>
<text text-anchor="middle" x="137" y="-256" font-family="Helvetica,sans-Serif" font-size="10.00">_heap.hpp</text>
</a>
</g>
</g>
<!-- Node0&#45;&gt;Node1 -->
<g id="edge1" class="edge"><title>Node0&#45;&gt;Node1</title>
<path fill="none" stroke="midnightblue" d="M246.966,-316.841C226.298,-307.098 198.638,-294.058 176.23,-283.494"/>
<polygon fill="midnightblue" stroke="midnightblue" points="177.522,-280.234 166.984,-279.135 174.537,-286.565 177.522,-280.234"/>
</g>
<!-- Node2 -->
<g id="node3" class="node"><title>Node2</title>
<g id="a_node3"><a xlink:href="config_8hpp.html" target="_top" xlink:title="immer/config.hpp">
<polygon fill="white" stroke="black" points="114,-118.5 114,-137.5 206,-137.5 206,-118.5 114,-118.5"/>
<text text-anchor="middle" x="160" y="-125.5" font-family="Helvetica,sans-Serif" font-size="10.00">immer/config.hpp</text>
</a>
</g>
</g>
<!-- Node0&#45;&gt;Node2 -->
<g id="edge21" class="edge"><title>Node0&#45;&gt;Node2</title>
<path fill="none" stroke="midnightblue" d="M222.663,-328.703C177.57,-324.388 113.665,-312.457 68,-280 38.6591,-259.145 34.1952,-246.523 24,-212 19.9719,-198.36 15.8991,-191.69 24,-180 41.9878,-154.044 74.9231,-141.278 103.877,-135.009"/>
<polygon fill="midnightblue" stroke="midnightblue" points="104.775,-138.4 113.921,-133.051 103.436,-131.529 104.775,-138.4"/>
</g>
<!-- Node4 -->
<g id="node5" class="node"><title>Node4</title>
<polygon fill="white" stroke="#bfbfbf" points="-0.5,-118.5 -0.5,-137.5 44.5,-137.5 44.5,-118.5 -0.5,-118.5"/>
<text text-anchor="middle" x="22" y="-125.5" font-family="Helvetica,sans-Serif" font-size="10.00">cstdlib</text>
</g>
<!-- Node0&#45;&gt;Node4 -->
<g id="edge22" class="edge"><title>Node0&#45;&gt;Node4</title>
<path fill="none" stroke="midnightblue" d="M222.985,-326.23C159.881,-319.565 60.6896,-305.339 34,-280 -1.997,-245.824 8.56327,-179.96 16.5963,-147.713"/>
<polygon fill="midnightblue" stroke="midnightblue" points="20.0407,-148.381 19.2518,-137.815 13.2799,-146.567 20.0407,-148.381"/>
</g>
<!-- Node6 -->
<g id="node7" class="node"><title>Node6</title>
<g id="a_node7"><a xlink:href="free__list__heap_8hpp.html" target="_top" xlink:title="immer/heap/free_list\l_heap.hpp">
<polygon fill="white" stroke="black" points="369.5,-181 369.5,-211 474.5,-211 474.5,-181 369.5,-181"/>
<text text-anchor="start" x="377.5" y="-199" font-family="Helvetica,sans-Serif" font-size="10.00">immer/heap/free_list</text>
<text text-anchor="middle" x="422" y="-188" font-family="Helvetica,sans-Serif" font-size="10.00">_heap.hpp</text>
</a>
</g>
</g>
<!-- Node0&#45;&gt;Node6 -->
<g id="edge6" class="edge"><title>Node0&#45;&gt;Node6</title>
<path fill="none" stroke="midnightblue" d="M298.704,-316.905C312.994,-307.218 331.8,-293.68 347,-280 368.214,-260.908 389.786,-236.385 404.315,-218.957"/>
<polygon fill="midnightblue" stroke="midnightblue" points="407.192,-220.97 410.85,-211.027 401.79,-216.519 407.192,-220.97"/>
</g>
<!-- Node11 -->
<g id="node12" class="node"><title>Node11</title>
<g id="a_node12"><a xlink:href="split__heap_8hpp.html" target="_top" xlink:title="immer/heap/split_heap.hpp">
<polygon fill="white" stroke="black" points="493,-186.5 493,-205.5 627,-205.5 627,-186.5 493,-186.5"/>
<text text-anchor="middle" x="560" y="-193.5" font-family="Helvetica,sans-Serif" font-size="10.00">immer/heap/split_heap.hpp</text>
</a>
</g>
</g>
<!-- Node0&#45;&gt;Node11 -->
<g id="edge13" class="edge"><title>Node0&#45;&gt;Node11</title>
<path fill="none" stroke="midnightblue" d="M307.286,-316.79C327.397,-307.055 354.195,-293.506 377,-280 398.744,-267.123 401.565,-259.631 424,-248 455.603,-231.617 493.706,-217.794 521.531,-208.69"/>
<polygon fill="midnightblue" stroke="midnightblue" points="522.837,-211.947 531.286,-205.553 520.694,-205.283 522.837,-211.947"/>
</g>
<!-- Node12 -->
<g id="node13" class="node"><title>Node12</title>
<g id="a_node13"><a xlink:href="thread__local__free__list__heap_8hpp.html" target="_top" xlink:title="immer/heap/thread_local\l_free_list_heap.hpp">
<polygon fill="white" stroke="black" points="215.5,-249 215.5,-279 338.5,-279 338.5,-249 215.5,-249"/>
<text text-anchor="start" x="223.5" y="-267" font-family="Helvetica,sans-Serif" font-size="10.00">immer/heap/thread_local</text>
<text text-anchor="middle" x="277" y="-256" font-family="Helvetica,sans-Serif" font-size="10.00">_free_list_heap.hpp</text>
</a>
</g>
</g>
<!-- Node0&#45;&gt;Node12 -->
<g id="edge16" class="edge"><title>Node0&#45;&gt;Node12</title>
<path fill="none" stroke="midnightblue" d="M277,-316.679C277,-308.722 277,-298.605 277,-289.436"/>
<polygon fill="midnightblue" stroke="midnightblue" points="280.5,-289.293 277,-279.293 273.5,-289.293 280.5,-289.293"/>
</g>
<!-- Node14 -->
<g id="node15" class="node"><title>Node14</title>
<polygon fill="white" stroke="#bfbfbf" points="433,-254.5 433,-273.5 489,-273.5 489,-254.5 433,-254.5"/>
<text text-anchor="middle" x="461" y="-261.5" font-family="Helvetica,sans-Serif" font-size="10.00">algorithm</text>
</g>
<!-- Node0&#45;&gt;Node14 -->
<g id="edge23" class="edge"><title>Node0&#45;&gt;Node14</title>
<path fill="none" stroke="midnightblue" d="M316.473,-316.841C349.536,-304.982 396.212,-288.239 427.485,-277.022"/>
<polygon fill="midnightblue" stroke="midnightblue" points="428.83,-280.258 437.061,-273.587 426.466,-273.669 428.83,-280.258"/>
</g>
<!-- Node1&#45;&gt;Node2 -->
<g id="edge2" class="edge"><title>Node1&#45;&gt;Node2</title>
<path fill="none" stroke="midnightblue" d="M139.461,-248.66C143.639,-224.32 152.116,-174.933 156.767,-147.837"/>
<polygon fill="midnightblue" stroke="midnightblue" points="160.26,-148.176 158.502,-137.728 153.361,-146.991 160.26,-148.176"/>
</g>
<!-- Node3 -->
<g id="node4" class="node"><title>Node3</title>
<g id="a_node4"><a xlink:href="identity__heap_8hpp.html" target="_top" xlink:title="immer/heap/identity\l_heap.hpp">
<polygon fill="white" stroke="black" points="33,-181 33,-211 135,-211 135,-181 33,-181"/>
<text text-anchor="start" x="41" y="-199" font-family="Helvetica,sans-Serif" font-size="10.00">immer/heap/identity</text>
<text text-anchor="middle" x="84" y="-188" font-family="Helvetica,sans-Serif" font-size="10.00">_heap.hpp</text>
</a>
</g>
</g>
<!-- Node1&#45;&gt;Node3 -->
<g id="edge3" class="edge"><title>Node1&#45;&gt;Node3</title>
<path fill="none" stroke="midnightblue" d="M125.5,-248.679C118.624,-240.117 109.739,-229.053 101.956,-219.36"/>
<polygon fill="midnightblue" stroke="midnightblue" points="104.468,-216.899 95.4778,-211.293 99.0101,-221.282 104.468,-216.899"/>
</g>
<!-- Node5 -->
<g id="node6" class="node"><title>Node5</title>
<polygon fill="white" stroke="#bfbfbf" points="347.5,-118.5 347.5,-137.5 396.5,-137.5 396.5,-118.5 347.5,-118.5"/>
<text text-anchor="middle" x="372" y="-125.5" font-family="Helvetica,sans-Serif" font-size="10.00">cassert</text>
</g>
<!-- Node1&#45;&gt;Node5 -->
<g id="edge5" class="edge"><title>Node1&#45;&gt;Node5</title>
<path fill="none" stroke="midnightblue" d="M196.349,-248.973C246.486,-236.741 311.746,-219.775 322,-212 343.952,-195.353 358.28,-166.038 365.755,-147.075"/>
<polygon fill="midnightblue" stroke="midnightblue" points="369.104,-148.109 369.288,-137.516 362.538,-145.682 369.104,-148.109"/>
</g>
<!-- Node3&#45;&gt;Node4 -->
<g id="edge4" class="edge"><title>Node3&#45;&gt;Node4</title>
<path fill="none" stroke="midnightblue" d="M70.5469,-180.679C60.7841,-170.286 47.5591,-156.208 37.3779,-145.37"/>
<polygon fill="midnightblue" stroke="midnightblue" points="39.691,-142.72 30.2932,-137.828 34.5891,-147.513 39.691,-142.72"/>
</g>
<!-- Node6&#45;&gt;Node5 -->
<g id="edge12" class="edge"><title>Node6&#45;&gt;Node5</title>
<path fill="none" stroke="midnightblue" d="M411.151,-180.679C403.432,-170.49 393.029,-156.759 384.887,-146.011"/>
<polygon fill="midnightblue" stroke="midnightblue" points="387.517,-143.686 378.688,-137.828 381.937,-147.913 387.517,-143.686"/>
</g>
<!-- Node7 -->
<g id="node8" class="node"><title>Node7</title>
<g id="a_node8"><a xlink:href="with__data_8hpp.html" target="_top" xlink:title="immer/heap/with_data.hpp">
<polygon fill="white" stroke="black" points="285.5,-56.5 285.5,-75.5 416.5,-75.5 416.5,-56.5 285.5,-56.5"/>
<text text-anchor="middle" x="351" y="-63.5" font-family="Helvetica,sans-Serif" font-size="10.00">immer/heap/with_data.hpp</text>
</a>
</g>
</g>
<!-- Node6&#45;&gt;Node7 -->
<g id="edge7" class="edge"><title>Node6&#45;&gt;Node7</title>
<path fill="none" stroke="midnightblue" d="M421.892,-180.765C421.159,-163.367 417.911,-133.586 405,-112 397.586,-99.6041 385.484,-89.0513 374.615,-81.2871"/>
<polygon fill="midnightblue" stroke="midnightblue" points="376.525,-78.3543 366.275,-75.6762 372.618,-84.1622 376.525,-78.3543"/>
</g>
<!-- Node9 -->
<g id="node10" class="node"><title>Node9</title>
<g id="a_node10"><a xlink:href="free__list__node_8hpp.html" target="_top" xlink:title="immer/heap/free_list\l_node.hpp">
<polygon fill="white" stroke="black" points="224.5,-113 224.5,-143 329.5,-143 329.5,-113 224.5,-113"/>
<text text-anchor="start" x="232.5" y="-131" font-family="Helvetica,sans-Serif" font-size="10.00">immer/heap/free_list</text>
<text text-anchor="middle" x="277" y="-120" font-family="Helvetica,sans-Serif" font-size="10.00">_node.hpp</text>
</a>
</g>
</g>
<!-- Node6&#45;&gt;Node9 -->
<g id="edge9" class="edge"><title>Node6&#45;&gt;Node9</title>
<path fill="none" stroke="midnightblue" d="M390.894,-180.841C369.318,-171.021 340.387,-157.852 317.083,-147.245"/>
<polygon fill="midnightblue" stroke="midnightblue" points="318.357,-143.979 307.806,-143.022 315.457,-150.35 318.357,-143.979"/>
</g>
<!-- Node10 -->
<g id="node11" class="node"><title>Node10</title>
<polygon fill="white" stroke="#bfbfbf" points="496,-118.5 496,-137.5 542,-137.5 542,-118.5 496,-118.5"/>
<text text-anchor="middle" x="519" y="-125.5" font-family="Helvetica,sans-Serif" font-size="10.00">atomic</text>
</g>
<!-- Node6&#45;&gt;Node10 -->
<g id="edge11" class="edge"><title>Node6&#45;&gt;Node10</title>
<path fill="none" stroke="midnightblue" d="M443.048,-180.679C459.314,-169.611 481.724,-154.363 497.983,-143.3"/>
<polygon fill="midnightblue" stroke="midnightblue" points="500.006,-146.157 506.305,-137.638 496.068,-140.37 500.006,-146.157"/>
</g>
<!-- Node8 -->
<g id="node9" class="node"><title>Node8</title>
<polygon fill="white" stroke="#bfbfbf" points="329.5,-0.5 329.5,-19.5 372.5,-19.5 372.5,-0.5 329.5,-0.5"/>
<text text-anchor="middle" x="351" y="-7.5" font-family="Helvetica,sans-Serif" font-size="10.00">cstdio</text>
</g>
<!-- Node7&#45;&gt;Node8 -->
<g id="edge8" class="edge"><title>Node7&#45;&gt;Node8</title>
<path fill="none" stroke="midnightblue" d="M351,-56.083C351,-49.0059 351,-38.8611 351,-29.9865"/>
<polygon fill="midnightblue" stroke="midnightblue" points="354.5,-29.751 351,-19.7511 347.5,-29.7511 354.5,-29.751"/>
</g>
<!-- Node9&#45;&gt;Node7 -->
<g id="edge10" class="edge"><title>Node9&#45;&gt;Node7</title>
<path fill="none" stroke="midnightblue" d="M294.537,-112.781C305.955,-103.523 320.83,-91.4618 332.446,-82.0435"/>
<polygon fill="midnightblue" stroke="midnightblue" points="334.669,-84.7472 340.232,-75.7305 330.26,-79.3099 334.669,-84.7472"/>
</g>
<!-- Node11&#45;&gt;Node5 -->
<g id="edge15" class="edge"><title>Node11&#45;&gt;Node5</title>
<path fill="none" stroke="midnightblue" d="M535.422,-186.372C502.256,-174.728 443.04,-153.939 405.729,-140.841"/>
<polygon fill="midnightblue" stroke="midnightblue" points="406.881,-137.536 396.286,-137.526 404.562,-144.141 406.881,-137.536"/>
</g>
<!-- Node11&#45;&gt;Node10 -->
<g id="edge14" class="edge"><title>Node11&#45;&gt;Node10</title>
<path fill="none" stroke="midnightblue" d="M554.64,-186.372C548.413,-176.348 537.975,-159.546 530,-146.708"/>
<polygon fill="midnightblue" stroke="midnightblue" points="532.742,-144.489 524.492,-137.841 526.796,-148.182 532.742,-144.489"/>
</g>
<!-- Node13 -->
<g id="node14" class="node"><title>Node13</title>
<g id="a_node14"><a xlink:href="unsafe__free__list__heap_8hpp.html" target="_top" xlink:title="immer/heap/unsafe_free\l_list_heap.hpp">
<polygon fill="white" stroke="black" points="191,-181 191,-211 313,-211 313,-181 191,-181"/>
<text text-anchor="start" x="199" y="-199" font-family="Helvetica,sans-Serif" font-size="10.00">immer/heap/unsafe_free</text>
<text text-anchor="middle" x="252" y="-188" font-family="Helvetica,sans-Serif" font-size="10.00">_list_heap.hpp</text>
</a>
</g>
</g>
<!-- Node12&#45;&gt;Node13 -->
<g id="edge17" class="edge"><title>Node12&#45;&gt;Node13</title>
<path fill="none" stroke="midnightblue" d="M271.575,-248.679C268.496,-240.549 264.562,-230.164 261.03,-220.839"/>
<polygon fill="midnightblue" stroke="midnightblue" points="264.229,-219.405 257.414,-211.293 257.683,-221.884 264.229,-219.405"/>
</g>
<!-- Node13&#45;&gt;Node2 -->
<g id="edge18" class="edge"><title>Node13&#45;&gt;Node2</title>
<path fill="none" stroke="midnightblue" d="M232.037,-180.679C216.752,-169.713 195.748,-154.645 180.363,-143.609"/>
<polygon fill="midnightblue" stroke="midnightblue" points="182.206,-140.623 172.041,-137.638 178.126,-146.311 182.206,-140.623"/>
</g>
<!-- Node13&#45;&gt;Node5 -->
<g id="edge20" class="edge"><title>Node13&#45;&gt;Node5</title>
<path fill="none" stroke="midnightblue" d="M277.743,-180.841C298.313,-169.528 326.962,-153.771 347.263,-142.605"/>
<polygon fill="midnightblue" stroke="midnightblue" points="349.139,-145.568 356.215,-137.682 345.766,-139.434 349.139,-145.568"/>
</g>
<!-- Node13&#45;&gt;Node9 -->
<g id="edge19" class="edge"><title>Node13&#45;&gt;Node9</title>
<path fill="none" stroke="midnightblue" d="M257.425,-180.679C260.504,-172.549 264.438,-162.164 267.97,-152.839"/>
<polygon fill="midnightblue" stroke="midnightblue" points="271.317,-153.884 271.586,-143.293 264.771,-151.405 271.317,-153.884"/>
</g>
</g>
</svg>
