<?xml version="1.0" encoding="UTF-8" standalone="no"?>
<!DOCTYPE svg PUBLIC "-//W3C//DTD SVG 1.1//EN"
 "http://www.w3.org/Graphics/SVG/1.1/DTD/svg11.dtd">
<!-- Generated by graphviz version 2.36.0 (20140111.2315)
 -->
<!-- Title: src/httprpc.h Pages: 1 -->
<svg width="101pt" height="84pt"
 viewBox="0.00 0.00 101.00 84.00" xmlns="http://www.w3.org/2000/svg" xmlns:xlink="http://www.w3.org/1999/xlink">
<g id="graph0" class="graph" transform="scale(1 1) rotate(0) translate(4 80)">
<title>src/httprpc.h</title>
<polygon fill="white" stroke="none" points="-4,4 -4,-80 97,-80 97,4 -4,4"/>
<!-- Node0 -->
<g id="node1" class="node"><title>Node0</title>
<polygon fill="#bfbfbf" stroke="black" points="12.5,-56.5 12.5,-75.5 83.5,-75.5 83.5,-56.5 12.5,-56.5"/>
<text text-anchor="middle" x="48" y="-63.5" font-family="Helvetica,sans-Serif" font-size="10.00">src/httprpc.h</text>
</g>
<!-- Node1 -->
<g id="node2" class="node"><title>Node1</title>
<polygon fill="white" stroke="#bfbfbf" points="-0.5,-0.5 -0.5,-19.5 40.5,-19.5 40.5,-0.5 -0.5,-0.5"/>
<text text-anchor="middle" x="20" y="-7.5" font-family="Helvetica,sans-Serif" font-size="10.00">string</text>
</g>
<!-- Node0&#45;&gt;Node1 -->
<g id="edge1" class="edge"><title>Node0&#45;&gt;Node1</title>
<path fill="none" stroke="midnightblue" d="M43.3764,-56.083C39.5437,-48.6913 33.9758,-37.9533 29.2354,-28.8111"/>
<polygon fill="midnightblue" stroke="midnightblue" points="32.248,-27.0175 24.5376,-19.7511 26.0337,-30.2398 32.248,-27.0175"/>
</g>
<!-- Node2 -->
<g id="node3" class="node"><title>Node2</title>
<polygon fill="white" stroke="#bfbfbf" points="58.5,-0.5 58.5,-19.5 93.5,-19.5 93.5,-0.5 58.5,-0.5"/>
<text text-anchor="middle" x="76" y="-7.5" font-family="Helvetica,sans-Serif" font-size="10.00">map</text>
</g>
<!-- Node0&#45;&gt;Node2 -->
<g id="edge2" class="edge"><title>Node0&#45;&gt;Node2</title>
<path fill="none" stroke="midnightblue" d="M52.6236,-56.083C56.4563,-48.6913 62.0242,-37.9533 66.7646,-28.8111"/>
<polygon fill="midnightblue" stroke="midnightblue" points="69.9663,-30.2398 71.4624,-19.7511 63.752,-27.0175 69.9663,-30.2398"/>
</g>
</g>
</svg>
