<?xml version="1.0" encoding="UTF-8" standalone="no"?>
<!DOCTYPE svg PUBLIC "-//W3C//DTD SVG 1.1//EN"
 "http://www.w3.org/Graphics/SVG/1.1/DTD/svg11.dtd">
<!-- Generated by graphviz version 2.36.0 (20140111.2315)
 -->
<!-- Title: Graphical Class Hierarchy Pages: 1 -->
<svg width="290pt" height="87pt"
 viewBox="0.00 0.00 290.00 87.00" xmlns="http://www.w3.org/2000/svg" xmlns:xlink="http://www.w3.org/1999/xlink">
<g id="graph0" class="graph" transform="scale(1 1) rotate(0) translate(4 83)">
<title>Graphical Class Hierarchy</title>
<polygon fill="white" stroke="none" points="-4,4 -4,-83 286,-83 286,4 -4,4"/>
<!-- Node353 -->
<g id="node1" class="node"><title>Node353</title>
<polygon fill="white" stroke="#bfbfbf" points="0.5,-29.5 0.5,-48.5 91.5,-48.5 91.5,-29.5 0.5,-29.5"/>
<text text-anchor="middle" x="46" y="-36.5" font-family="Helvetica,sans-Serif" font-size="10.00">integral_constant</text>
</g>
<!-- Node0 -->
<g id="node2" class="node"><title>Node0</title>
<g id="a_node2"><a xlink:href="structimmer_1_1get__prefer__fewer__bigger__objects.html" target="_top" xlink:title="immer::get_prefer_fewer\l_bigger_objects\&lt; HeapPolicy \&gt;">
<polygon fill="white" stroke="black" points="128.5,-49 128.5,-79 281.5,-79 281.5,-49 128.5,-49"/>
<text text-anchor="start" x="136.5" y="-67" font-family="Helvetica,sans-Serif" font-size="10.00">immer::get_prefer_fewer</text>
<text text-anchor="middle" x="205" y="-56" font-family="Helvetica,sans-Serif" font-size="10.00">_bigger_objects&lt; HeapPolicy &gt;</text>
</a>
</g>
</g>
<!-- Node353&#45;&gt;Node0 -->
<g id="edge1" class="edge"><title>Node353&#45;&gt;Node0</title>
<path fill="none" stroke="midnightblue" d="M101.541,-47.6849C110.23,-49.0685 119.351,-50.5209 128.421,-51.9651"/>
<polygon fill="midnightblue" stroke="midnightblue" points="101.996,-44.2133 91.5699,-46.0971 100.895,-51.1262 101.996,-44.2133"/>
</g>
<!-- Node355 -->
<g id="node3" class="node"><title>Node355</title>
<g id="a_node3"><a xlink:href="structimmer_1_1get__use__transient__rvalues.html" target="_top" xlink:title="immer::get_use_transient\l_rvalues\&lt; RefcountPolicy \&gt;">
<polygon fill="white" stroke="black" points="136,-0 136,-30 274,-30 274,-0 136,-0"/>
<text text-anchor="start" x="144" y="-18" font-family="Helvetica,sans-Serif" font-size="10.00">immer::get_use_transient</text>
<text text-anchor="middle" x="205" y="-7" font-family="Helvetica,sans-Serif" font-size="10.00">_rvalues&lt; RefcountPolicy &gt;</text>
</a>
</g>
</g>
<!-- Node353&#45;&gt;Node355 -->
<g id="edge2" class="edge"><title>Node353&#45;&gt;Node355</title>
<path fill="none" stroke="midnightblue" d="M101.515,-30.6666C112.59,-28.9734 124.371,-27.1726 135.851,-25.4177"/>
<polygon fill="midnightblue" stroke="midnightblue" points="100.926,-27.2158 91.5699,-32.1868 101.984,-34.1354 100.926,-27.2158"/>
</g>
</g>
</svg>
