<?xml version="1.0" encoding="UTF-8" standalone="no"?>
<!DOCTYPE svg PUBLIC "-//W3C//DTD SVG 1.1//EN"
 "http://www.w3.org/Graphics/SVG/1.1/DTD/svg11.dtd">
<!-- Generated by graphviz version 2.36.0 (20140111.2315)
 -->
<!-- Title: Graphical Class Hierarchy Pages: 1 -->
<svg width="384pt" height="104pt"
 viewBox="0.00 0.00 384.00 104.00" xmlns="http://www.w3.org/2000/svg" xmlns:xlink="http://www.w3.org/1999/xlink">
<g id="graph0" class="graph" transform="scale(1 1) rotate(0) translate(4 100)">
<title>Graphical Class Hierarchy</title>
<polygon fill="white" stroke="none" points="-4,4 -4,-100 380,-100 380,4 -4,4"/>
<!-- Node0 -->
<g id="node1" class="node"><title>Node0</title>
<g id="a_node1"><a xlink:href="class_c_coins_view.html" target="_top" xlink:title="Abstract view on the open txout dataset. ">
<polygon fill="white" stroke="black" points="0.5,-19.5 0.5,-38.5 71.5,-38.5 71.5,-19.5 0.5,-19.5"/>
<text text-anchor="middle" x="36" y="-26.5" font-family="Helvetica,sans-Serif" font-size="10.00">CCoinsView</text>
</a>
</g>
</g>
<!-- Node1 -->
<g id="node2" class="node"><title>Node1</title>
<g id="a_node2"><a xlink:href="class_c_coins_view_backed.html" target="_top" xlink:title="CCoinsView backed by another CCoinsView. ">
<polygon fill="white" stroke="black" points="108,-38.5 108,-57.5 212,-57.5 212,-38.5 108,-38.5"/>
<text text-anchor="middle" x="160" y="-45.5" font-family="Helvetica,sans-Serif" font-size="10.00">CCoinsViewBacked</text>
</a>
</g>
</g>
<!-- Node0&#45;&gt;Node1 -->
<g id="edge1" class="edge"><title>Node0&#45;&gt;Node1</title>
<path fill="none" stroke="midnightblue" d="M81.7322,-35.9665C90.2361,-37.2909 99.1951,-38.6861 107.88,-40.0386"/>
<polygon fill="midnightblue" stroke="midnightblue" points="82.0535,-32.4744 71.634,-34.3938 80.9762,-39.391 82.0535,-32.4744"/>
</g>
<!-- Node5 -->
<g id="node6" class="node"><title>Node5</title>
<g id="a_node6"><a xlink:href="class_c_coins_view_d_b.html" target="_top" xlink:title="CCoinsView backed by the coin database (chainstate/) ">
<polygon fill="white" stroke="black" points="117,-0.5 117,-19.5 203,-19.5 203,-0.5 117,-0.5"/>
<text text-anchor="middle" x="160" y="-7.5" font-family="Helvetica,sans-Serif" font-size="10.00">CCoinsViewDB</text>
</a>
</g>
</g>
<!-- Node0&#45;&gt;Node5 -->
<g id="edge5" class="edge"><title>Node0&#45;&gt;Node5</title>
<path fill="none" stroke="midnightblue" d="M81.522,-22.0662C93.0761,-20.2668 105.483,-18.3346 116.908,-16.5553"/>
<polygon fill="midnightblue" stroke="midnightblue" points="80.9762,-18.609 71.634,-23.6062 82.0535,-25.5256 80.9762,-18.609"/>
</g>
<!-- Node2 -->
<g id="node3" class="node"><title>Node2</title>
<g id="a_node3"><a xlink:href="class_c_coins_view_cache.html" target="_top" xlink:title="CCoinsView that adds a memory cache for transactions to another CCoinsView. ">
<polygon fill="white" stroke="black" points="262,-76.5 262,-95.5 362,-95.5 362,-76.5 262,-76.5"/>
<text text-anchor="middle" x="312" y="-83.5" font-family="Helvetica,sans-Serif" font-size="10.00">CCoinsViewCache</text>
</a>
</g>
</g>
<!-- Node1&#45;&gt;Node2 -->
<g id="edge2" class="edge"><title>Node1&#45;&gt;Node2</title>
<path fill="none" stroke="midnightblue" d="M208.811,-60.1121C229.702,-65.4044 253.847,-71.5213 273.421,-76.4799"/>
<polygon fill="midnightblue" stroke="midnightblue" points="209.405,-56.652 198.851,-57.589 207.686,-63.4377 209.405,-56.652"/>
</g>
<!-- Node3 -->
<g id="node4" class="node"><title>Node3</title>
<g id="a_node4"><a xlink:href="class_c_coins_view_error_catcher.html" target="_top" xlink:title="This is a minimally invasive approach to shutdown on LevelDB read errors from the chainstate...">
<polygon fill="white" stroke="black" points="248.5,-38.5 248.5,-57.5 375.5,-57.5 375.5,-38.5 248.5,-38.5"/>
<text text-anchor="middle" x="312" y="-45.5" font-family="Helvetica,sans-Serif" font-size="10.00">CCoinsViewErrorCatcher</text>
</a>
</g>
</g>
<!-- Node1&#45;&gt;Node3 -->
<g id="edge3" class="edge"><title>Node1&#45;&gt;Node3</title>
<path fill="none" stroke="midnightblue" d="M222.467,-48C231.007,-48 239.789,-48 248.35,-48"/>
<polygon fill="midnightblue" stroke="midnightblue" points="222.202,-44.5001 212.202,-48 222.202,-51.5001 222.202,-44.5001"/>
</g>
<!-- Node4 -->
<g id="node5" class="node"><title>Node4</title>
<g id="a_node5"><a xlink:href="class_c_coins_view_mem_pool.html" target="_top" xlink:title="CCoinsView that brings transactions from a memorypool into view. ">
<polygon fill="white" stroke="black" points="255.5,-0.5 255.5,-19.5 368.5,-19.5 368.5,-0.5 255.5,-0.5"/>
<text text-anchor="middle" x="312" y="-7.5" font-family="Helvetica,sans-Serif" font-size="10.00">CCoinsViewMemPool</text>
</a>
</g>
</g>
<!-- Node1&#45;&gt;Node4 -->
<g id="edge4" class="edge"><title>Node1&#45;&gt;Node4</title>
<path fill="none" stroke="midnightblue" d="M208.811,-35.8879C229.702,-30.5956 253.847,-24.4787 273.421,-19.5201"/>
<polygon fill="midnightblue" stroke="midnightblue" points="207.686,-32.5623 198.851,-38.411 209.405,-39.348 207.686,-32.5623"/>
</g>
</g>
</svg>
