<?xml version="1.0" encoding="UTF-8" standalone="no"?>
<!DOCTYPE svg PUBLIC "-//W3C//DTD SVG 1.1//EN"
 "http://www.w3.org/Graphics/SVG/1.1/DTD/svg11.dtd">
<!-- Generated by graphviz version 2.36.0 (20140111.2315)
 -->
<!-- Title: Graphical Class Hierarchy Pages: 1 -->
<svg width="300pt" height="66pt"
 viewBox="0.00 0.00 300.00 66.00" xmlns="http://www.w3.org/2000/svg" xmlns:xlink="http://www.w3.org/1999/xlink">
<g id="graph0" class="graph" transform="scale(1 1) rotate(0) translate(4 62)">
<title>Graphical Class Hierarchy</title>
<polygon fill="white" stroke="none" points="-4,4 -4,-62 296,-62 296,4 -4,4"/>
<!-- Node0 -->
<g id="node1" class="node"><title>Node0</title>
<g id="a_node1"><a xlink:href="class_base_signature_creator.html" target="_top" xlink:title="Virtual base class for signature creators. ">
<polygon fill="white" stroke="black" points="0.5,-19.5 0.5,-38.5 113.5,-38.5 113.5,-19.5 0.5,-19.5"/>
<text text-anchor="middle" x="57" y="-26.5" font-family="Helvetica,sans-Serif" font-size="10.00">BaseSignatureCreator</text>
</a>
</g>
</g>
<!-- Node1 -->
<g id="node2" class="node"><title>Node1</title>
<g id="a_node2"><a xlink:href="class_dummy_signature_creator.html" target="_top" xlink:title="A signature creator that just produces 72&#45;byte empty signatures. ">
<polygon fill="white" stroke="black" points="158.5,-38.5 158.5,-57.5 283.5,-57.5 283.5,-38.5 158.5,-38.5"/>
<text text-anchor="middle" x="221" y="-45.5" font-family="Helvetica,sans-Serif" font-size="10.00">DummySignatureCreator</text>
</a>
</g>
</g>
<!-- Node0&#45;&gt;Node1 -->
<g id="edge1" class="edge"><title>Node0&#45;&gt;Node1</title>
<path fill="none" stroke="midnightblue" d="M124.022,-36.7433C135.359,-38.073 147.102,-39.4502 158.32,-40.7659"/>
<polygon fill="midnightblue" stroke="midnightblue" points="124.091,-33.2275 113.751,-35.5387 123.275,-40.1798 124.091,-33.2275"/>
</g>
<!-- Node2 -->
<g id="node3" class="node"><title>Node2</title>
<g id="a_node3"><a xlink:href="class_transaction_signature_creator.html" target="_top" xlink:title="A signature creator for transactions. ">
<polygon fill="white" stroke="black" points="150.5,-0.5 150.5,-19.5 291.5,-19.5 291.5,-0.5 150.5,-0.5"/>
<text text-anchor="middle" x="221" y="-7.5" font-family="Helvetica,sans-Serif" font-size="10.00">TransactionSignatureCreator</text>
</a>
</g>
</g>
<!-- Node0&#45;&gt;Node2 -->
<g id="edge2" class="edge"><title>Node0&#45;&gt;Node2</title>
<path fill="none" stroke="midnightblue" d="M123.876,-21.2738C132.618,-20.2485 141.604,-19.1946 150.407,-18.1622"/>
<polygon fill="midnightblue" stroke="midnightblue" points="123.275,-17.8202 113.751,-22.4613 124.091,-24.7725 123.275,-17.8202"/>
</g>
</g>
</svg>
