<?xml version="1.0" encoding="UTF-8" standalone="no"?>
<!DOCTYPE svg PUBLIC "-//W3C//DTD SVG 1.1//EN"
 "http://www.w3.org/Graphics/SVG/1.1/DTD/svg11.dtd">
<!-- Generated by graphviz version 2.36.0 (20140111.2315)
 -->
<!-- Title: Graphical Class Hierarchy Pages: 1 -->
<svg width="296pt" height="180pt"
 viewBox="0.00 0.00 296.00 180.00" xmlns="http://www.w3.org/2000/svg" xmlns:xlink="http://www.w3.org/1999/xlink">
<g id="graph0" class="graph" transform="scale(1 1) rotate(0) translate(4 176)">
<title>Graphical Class Hierarchy</title>
<polygon fill="white" stroke="none" points="-4,4 -4,-176 292,-176 292,4 -4,4"/>
<!-- Node235 -->
<g id="node1" class="node"><title>Node235</title>
<polygon fill="white" stroke="#bfbfbf" points="0.5,-76.5 0.5,-95.5 111.5,-95.5 111.5,-76.5 0.5,-76.5"/>
<text text-anchor="middle" x="56" y="-83.5" font-family="Helvetica,sans-Serif" font-size="10.00">QAbstractTableModel</text>
</g>
<!-- Node0 -->
<g id="node2" class="node"><title>Node0</title>
<g id="a_node2"><a xlink:href="class_address_table_model.html" target="_top" xlink:title="Qt model of the address book in the core. ">
<polygon fill="white" stroke="black" points="166.5,-152.5 166.5,-171.5 269.5,-171.5 269.5,-152.5 166.5,-152.5"/>
<text text-anchor="middle" x="218" y="-159.5" font-family="Helvetica,sans-Serif" font-size="10.00">AddressTableModel</text>
</a>
</g>
</g>
<!-- Node235&#45;&gt;Node0 -->
<g id="edge1" class="edge"><title>Node235&#45;&gt;Node0</title>
<path fill="none" stroke="midnightblue" d="M78.0679,-101.685C95.9079,-114.341 122.568,-131.821 148,-143 156.417,-146.7 165.734,-149.848 174.726,-152.455"/>
<polygon fill="midnightblue" stroke="midnightblue" points="79.7517,-98.5839 69.596,-95.5654 75.6527,-104.258 79.7517,-98.5839"/>
</g>
<!-- Node237 -->
<g id="node3" class="node"><title>Node237</title>
<g id="a_node3"><a xlink:href="class_ban_table_model.html" target="_top" xlink:title="Qt model providing information about connected peers, similar to the &quot;getpeerinfo&quot; RPC call...">
<polygon fill="white" stroke="black" points="176,-114.5 176,-133.5 260,-133.5 260,-114.5 176,-114.5"/>
<text text-anchor="middle" x="218" y="-121.5" font-family="Helvetica,sans-Serif" font-size="10.00">BanTableModel</text>
</a>
</g>
</g>
<!-- Node235&#45;&gt;Node237 -->
<g id="edge2" class="edge"><title>Node235&#45;&gt;Node237</title>
<path fill="none" stroke="midnightblue" d="M107.392,-97.968C129.813,-103.293 155.847,-109.476 176.916,-114.48"/>
<polygon fill="midnightblue" stroke="midnightblue" points="107.913,-94.4945 97.3748,-95.589 106.295,-101.305 107.913,-94.4945"/>
</g>
<!-- Node238 -->
<g id="node4" class="node"><title>Node238</title>
<g id="a_node4"><a xlink:href="class_peer_table_model.html" target="_top" xlink:title="Qt model providing information about connected peers, similar to the &quot;getpeerinfo&quot; RPC call...">
<polygon fill="white" stroke="black" points="174.5,-76.5 174.5,-95.5 261.5,-95.5 261.5,-76.5 174.5,-76.5"/>
<text text-anchor="middle" x="218" y="-83.5" font-family="Helvetica,sans-Serif" font-size="10.00">PeerTableModel</text>
</a>
</g>
</g>
<!-- Node235&#45;&gt;Node238 -->
<g id="edge3" class="edge"><title>Node235&#45;&gt;Node238</title>
<path fill="none" stroke="midnightblue" d="M121.904,-86C139.625,-86 158.373,-86 174.495,-86"/>
<polygon fill="midnightblue" stroke="midnightblue" points="121.615,-82.5001 111.615,-86 121.615,-89.5001 121.615,-82.5001"/>
</g>
<!-- Node239 -->
<g id="node5" class="node"><title>Node239</title>
<g id="a_node5"><a xlink:href="class_recent_requests_table_model.html" target="_top" xlink:title="Model for list of recently generated payment requests / dash: URIs. ">
<polygon fill="white" stroke="black" points="148,-38.5 148,-57.5 288,-57.5 288,-38.5 148,-38.5"/>
<text text-anchor="middle" x="218" y="-45.5" font-family="Helvetica,sans-Serif" font-size="10.00">RecentRequestsTableModel</text>
</a>
</g>
</g>
<!-- Node235&#45;&gt;Node239 -->
<g id="edge4" class="edge"><title>Node235&#45;&gt;Node239</title>
<path fill="none" stroke="midnightblue" d="M107.392,-74.032C129.813,-68.7069 155.847,-62.5238 176.916,-57.5201"/>
<polygon fill="midnightblue" stroke="midnightblue" points="106.295,-70.6949 97.3748,-76.411 107.913,-77.5055 106.295,-70.6949"/>
</g>
<!-- Node240 -->
<g id="node6" class="node"><title>Node240</title>
<g id="a_node6"><a xlink:href="class_transaction_table_model.html" target="_top" xlink:title="UI model for the transaction table of a wallet. ">
<polygon fill="white" stroke="black" points="159,-0.5 159,-19.5 277,-19.5 277,-0.5 159,-0.5"/>
<text text-anchor="middle" x="218" y="-7.5" font-family="Helvetica,sans-Serif" font-size="10.00">TransactionTableModel</text>
</a>
</g>
</g>
<!-- Node235&#45;&gt;Node240 -->
<g id="edge5" class="edge"><title>Node235&#45;&gt;Node240</title>
<path fill="none" stroke="midnightblue" d="M78.0679,-70.3148C95.9079,-57.6585 122.568,-40.1792 148,-29 156.417,-25.3001 165.734,-22.1516 174.726,-19.5449"/>
<polygon fill="midnightblue" stroke="midnightblue" points="75.6527,-67.7417 69.596,-76.4346 79.7517,-73.4161 75.6527,-67.7417"/>
</g>
</g>
</svg>
