<?xml version="1.0" encoding="UTF-8" standalone="no"?>
<!DOCTYPE svg PUBLIC "-//W3C//DTD SVG 1.1//EN"
 "http://www.w3.org/Graphics/SVG/1.1/DTD/svg11.dtd">
<!-- Generated by graphviz version 2.36.0 (20140111.2315)
 -->
<!-- Title: Graphical Class Hierarchy Pages: 1 -->
<svg width="224pt" height="66pt"
 viewBox="0.00 0.00 224.00 66.00" xmlns="http://www.w3.org/2000/svg" xmlns:xlink="http://www.w3.org/1999/xlink">
<g id="graph0" class="graph" transform="scale(1 1) rotate(0) translate(4 62)">
<title>Graphical Class Hierarchy</title>
<polygon fill="white" stroke="none" points="-4,4 -4,-62 220,-62 220,4 -4,4"/>
<!-- Node182 -->
<g id="node1" class="node"><title>Node182</title>
<polygon fill="white" stroke="#bfbfbf" points="0.5,-19.5 0.5,-38.5 91.5,-38.5 91.5,-19.5 0.5,-19.5"/>
<text text-anchor="middle" x="46" y="-26.5" font-family="Helvetica,sans-Serif" font-size="10.00">QStackedWidget</text>
</g>
<!-- Node0 -->
<g id="node2" class="node"><title>Node0</title>
<g id="a_node2"><a xlink:href="class_send_coins_entry.html" target="_top" xlink:title="A single entry in the dialog for sending bitcoins. ">
<polygon fill="white" stroke="black" points="128,-38.5 128,-57.5 216,-57.5 216,-38.5 128,-38.5"/>
<text text-anchor="middle" x="172" y="-45.5" font-family="Helvetica,sans-Serif" font-size="10.00">SendCoinsEntry</text>
</a>
</g>
</g>
<!-- Node182&#45;&gt;Node0 -->
<g id="edge1" class="edge"><title>Node182&#45;&gt;Node0</title>
<path fill="none" stroke="midnightblue" d="M101.89,-37.4105C110.623,-38.7487 119.548,-40.1162 127.957,-41.4047"/>
<polygon fill="midnightblue" stroke="midnightblue" points="102.182,-33.9145 91.7668,-35.8594 101.121,-40.8337 102.182,-33.9145"/>
</g>
<!-- Node184 -->
<g id="node3" class="node"><title>Node184</title>
<g id="a_node3"><a xlink:href="class_wallet_view.html" target="_top" xlink:title="WalletView">
<polygon fill="white" stroke="black" points="139,-0.5 139,-19.5 205,-19.5 205,-0.5 139,-0.5"/>
<text text-anchor="middle" x="172" y="-7.5" font-family="Helvetica,sans-Serif" font-size="10.00">WalletView</text>
</a>
</g>
</g>
<!-- Node182&#45;&gt;Node184 -->
<g id="edge2" class="edge"><title>Node182&#45;&gt;Node184</title>
<path fill="none" stroke="midnightblue" d="M101.769,-20.608C114.4,-18.6726 127.437,-16.675 138.744,-14.9424"/>
<polygon fill="midnightblue" stroke="midnightblue" points="101.121,-17.1663 91.7668,-22.1406 102.182,-24.0855 101.121,-17.1663"/>
</g>
</g>
</svg>
