<?xml version="1.0" encoding="UTF-8" standalone="no"?>
<!DOCTYPE svg PUBLIC "-//W3C//DTD SVG 1.1//EN"
 "http://www.w3.org/Graphics/SVG/1.1/DTD/svg11.dtd">
<!-- Generated by graphviz version 2.36.0 (20140111.2315)
 -->
<!-- Title: Graphical Class Hierarchy Pages: 1 -->
<svg width="490pt" height="87pt"
 viewBox="0.00 0.00 490.00 87.00" xmlns="http://www.w3.org/2000/svg" xmlns:xlink="http://www.w3.org/1999/xlink">
<g id="graph0" class="graph" transform="scale(1 1) rotate(0) translate(4 83)">
<title>Graphical Class Hierarchy</title>
<polygon fill="white" stroke="none" points="-4,4 -4,-83 486,-83 486,4 -4,4"/>
<!-- Node0 -->
<g id="node1" class="node"><title>Node0</title>
<g id="a_node1"><a xlink:href="class_base_signature_checker.html" target="_top" xlink:title="BaseSignatureChecker">
<polygon fill="white" stroke="black" points="0.5,-29.5 0.5,-48.5 117.5,-48.5 117.5,-29.5 0.5,-29.5"/>
<text text-anchor="middle" x="59" y="-36.5" font-family="Helvetica,sans-Serif" font-size="10.00">BaseSignatureChecker</text>
</a>
</g>
</g>
<!-- Node1 -->
<g id="node2" class="node"><title>Node1</title>
<g id="a_node2"><a xlink:href="class_transaction_signature_checker.html" target="_top" xlink:title="TransactionSignatureChecker">
<polygon fill="white" stroke="black" points="154,-29.5 154,-48.5 300,-48.5 300,-29.5 154,-29.5"/>
<text text-anchor="middle" x="227" y="-36.5" font-family="Helvetica,sans-Serif" font-size="10.00">TransactionSignatureChecker</text>
</a>
</g>
</g>
<!-- Node0&#45;&gt;Node1 -->
<g id="edge1" class="edge"><title>Node0&#45;&gt;Node1</title>
<path fill="none" stroke="midnightblue" d="M127.623,-39C136.277,-39 145.163,-39 153.885,-39"/>
<polygon fill="midnightblue" stroke="midnightblue" points="127.593,-35.5001 117.593,-39 127.593,-42.5001 127.593,-35.5001"/>
</g>
<!-- Node2 -->
<g id="node3" class="node"><title>Node2</title>
<g id="a_node3"><a xlink:href="class_caching_transaction_signature_checker.html" target="_top" xlink:title="CachingTransactionSignature\lChecker">
<polygon fill="white" stroke="black" points="336.5,-49 336.5,-79 481.5,-79 481.5,-49 336.5,-49"/>
<text text-anchor="start" x="344.5" y="-67" font-family="Helvetica,sans-Serif" font-size="10.00">CachingTransactionSignature</text>
<text text-anchor="middle" x="409" y="-56" font-family="Helvetica,sans-Serif" font-size="10.00">Checker</text>
</a>
</g>
</g>
<!-- Node1&#45;&gt;Node2 -->
<g id="edge2" class="edge"><title>Node1&#45;&gt;Node2</title>
<path fill="none" stroke="midnightblue" d="M306.737,-49.9356C316.581,-51.3029 326.608,-52.6956 336.337,-54.0468"/>
<polygon fill="midnightblue" stroke="midnightblue" points="306.95,-46.4318 296.564,-48.5227 305.987,-53.3652 306.95,-46.4318"/>
</g>
<!-- Node3 -->
<g id="node4" class="node"><title>Node3</title>
<g id="a_node4"><a xlink:href="class_mutable_transaction_signature_checker.html" target="_top" xlink:title="MutableTransactionSignature\lChecker">
<polygon fill="white" stroke="black" points="337.5,-0 337.5,-30 480.5,-30 480.5,-0 337.5,-0"/>
<text text-anchor="start" x="345.5" y="-18" font-family="Helvetica,sans-Serif" font-size="10.00">MutableTransactionSignature</text>
<text text-anchor="middle" x="409" y="-7" font-family="Helvetica,sans-Serif" font-size="10.00">Checker</text>
</a>
</g>
</g>
<!-- Node1&#45;&gt;Node3 -->
<g id="edge3" class="edge"><title>Node1&#45;&gt;Node3</title>
<path fill="none" stroke="midnightblue" d="M309.419,-28.1441C318.715,-26.9046 328.135,-25.6487 337.276,-24.4299"/>
<polygon fill="midnightblue" stroke="midnightblue" points="308.849,-24.6891 299.399,-29.4801 309.774,-31.6277 308.849,-24.6891"/>
</g>
</g>
</svg>
