<?xml version="1.0" encoding="UTF-8" standalone="no"?>
<!DOCTYPE svg PUBLIC "-//W3C//DTD SVG 1.1//EN"
 "http://www.w3.org/Graphics/SVG/1.1/DTD/svg11.dtd">
<!-- Generated by graphviz version 2.36.0 (20140111.2315)
 -->
<!-- Title: Graphical Class Hierarchy Pages: 1 -->
<svg width="226pt" height="522pt"
 viewBox="0.00 0.00 226.00 522.00" xmlns="http://www.w3.org/2000/svg" xmlns:xlink="http://www.w3.org/1999/xlink">
<g id="graph0" class="graph" transform="scale(1 1) rotate(0) translate(4 518)">
<title>Graphical Class Hierarchy</title>
<polygon fill="white" stroke="none" points="-4,4 -4,-518 222,-518 222,4 -4,4"/>
<!-- Node216 -->
<g id="node1" class="node"><title>Node216</title>
<polygon fill="white" stroke="#bfbfbf" points="0,-247.5 0,-266.5 52,-266.5 52,-247.5 0,-247.5"/>
<text text-anchor="middle" x="26" y="-254.5" font-family="Helvetica,sans-Serif" font-size="10.00">QDialog</text>
</g>
<!-- Node0 -->
<g id="node2" class="node"><title>Node0</title>
<g id="a_node2"><a xlink:href="class_address_book_page.html" target="_top" xlink:title="Widget that shows a list of sending or receiving addresses. ">
<polygon fill="white" stroke="black" points="104,-494.5 104,-513.5 202,-513.5 202,-494.5 104,-494.5"/>
<text text-anchor="middle" x="153" y="-501.5" font-family="Helvetica,sans-Serif" font-size="10.00">AddressBookPage</text>
</a>
</g>
</g>
<!-- Node216&#45;&gt;Node0 -->
<g id="edge1" class="edge"><title>Node216&#45;&gt;Node0</title>
<path fill="none" stroke="midnightblue" d="M26.2689,-277.053C25.8045,-320.995 31.0731,-426.505 88,-485 92.446,-489.568 97.9357,-493.051 103.815,-495.703"/>
<polygon fill="midnightblue" stroke="midnightblue" points="29.7731,-276.902 26.498,-266.826 22.7749,-276.745 29.7731,-276.902"/>
</g>
<!-- Node218 -->
<g id="node3" class="node"><title>Node218</title>
<g id="a_node3"><a xlink:href="class_ask_passphrase_dialog.html" target="_top" xlink:title="Multifunctional dialog to ask for passphrases. ">
<polygon fill="white" stroke="black" points="96.5,-456.5 96.5,-475.5 209.5,-475.5 209.5,-456.5 96.5,-456.5"/>
<text text-anchor="middle" x="153" y="-463.5" font-family="Helvetica,sans-Serif" font-size="10.00">AskPassphraseDialog</text>
</a>
</g>
</g>
<!-- Node216&#45;&gt;Node218 -->
<g id="edge2" class="edge"><title>Node216&#45;&gt;Node218</title>
<path fill="none" stroke="midnightblue" d="M27.5791,-277.343C29.7999,-315.969 40.1936,-400.237 88,-447 91.9771,-450.89 96.7128,-453.99 101.783,-456.458"/>
<polygon fill="midnightblue" stroke="midnightblue" points="31.0565,-276.75 27.12,-266.913 24.0633,-277.058 31.0565,-276.75"/>
</g>
<!-- Node219 -->
<g id="node4" class="node"><title>Node219</title>
<g id="a_node4"><a xlink:href="class_coin_control_dialog.html" target="_top" xlink:title="CoinControlDialog">
<polygon fill="white" stroke="black" points="105,-418.5 105,-437.5 201,-437.5 201,-418.5 105,-418.5"/>
<text text-anchor="middle" x="153" y="-425.5" font-family="Helvetica,sans-Serif" font-size="10.00">CoinControlDialog</text>
</a>
</g>
</g>
<!-- Node216&#45;&gt;Node219 -->
<g id="edge3" class="edge"><title>Node216&#45;&gt;Node219</title>
<path fill="none" stroke="midnightblue" d="M29.4138,-276.857C34.4078,-309.239 48.8902,-373.37 88,-409 92.8837,-413.449 98.7655,-416.859 104.959,-419.472"/>
<polygon fill="midnightblue" stroke="midnightblue" points="32.8629,-276.249 28.0182,-266.826 25.9297,-277.213 32.8629,-276.249"/>
</g>
<!-- Node220 -->
<g id="node5" class="node"><title>Node220</title>
<g id="a_node5"><a xlink:href="class_edit_address_dialog.html" target="_top" xlink:title="Dialog for editing an address and associated information. ">
<polygon fill="white" stroke="black" points="104,-380.5 104,-399.5 202,-399.5 202,-380.5 104,-380.5"/>
<text text-anchor="middle" x="153" y="-387.5" font-family="Helvetica,sans-Serif" font-size="10.00">EditAddressDialog</text>
</a>
</g>
</g>
<!-- Node216&#45;&gt;Node220 -->
<g id="edge4" class="edge"><title>Node216&#45;&gt;Node220</title>
<path fill="none" stroke="midnightblue" d="M32.1943,-276.181C40.0558,-301.577 57.4029,-346.053 88,-371 92.761,-374.882 98.2937,-377.971 104.075,-380.429"/>
<polygon fill="midnightblue" stroke="midnightblue" points="35.5536,-275.198 29.3949,-266.577 28.8333,-277.157 35.5536,-275.198"/>
</g>
<!-- Node221 -->
<g id="node6" class="node"><title>Node221</title>
<g id="a_node6"><a xlink:href="class_help_message_dialog.html" target="_top" xlink:title="&quot;Help message&quot; dialog box ">
<polygon fill="white" stroke="black" points="101,-342.5 101,-361.5 205,-361.5 205,-342.5 101,-342.5"/>
<text text-anchor="middle" x="153" y="-349.5" font-family="Helvetica,sans-Serif" font-size="10.00">HelpMessageDialog</text>
</a>
</g>
</g>
<!-- Node216&#45;&gt;Node221 -->
<g id="edge5" class="edge"><title>Node216&#45;&gt;Node221</title>
<path fill="none" stroke="midnightblue" d="M37.2621,-275.404C47.8247,-292.708 65.8408,-318.114 88,-333 93.7727,-336.878 100.355,-339.982 107.05,-342.461"/>
<polygon fill="midnightblue" stroke="midnightblue" points="40.2602,-273.597 32.1818,-266.742 34.2221,-277.139 40.2602,-273.597"/>
</g>
<!-- Node222 -->
<g id="node7" class="node"><title>Node222</title>
<g id="a_node7"><a xlink:href="class_intro.html" target="_top" xlink:title="Introduction screen (pre&#45;GUI startup). ">
<polygon fill="white" stroke="black" points="135,-304.5 135,-323.5 171,-323.5 171,-304.5 135,-304.5"/>
<text text-anchor="middle" x="153" y="-311.5" font-family="Helvetica,sans-Serif" font-size="10.00">Intro</text>
</a>
</g>
</g>
<!-- Node216&#45;&gt;Node222 -->
<g id="edge6" class="edge"><title>Node216&#45;&gt;Node222</title>
<path fill="none" stroke="midnightblue" d="M48.3688,-272.291C59.7294,-279.901 74.1738,-288.778 88,-295 103.326,-301.897 121.823,-307.076 134.981,-310.271"/>
<polygon fill="midnightblue" stroke="midnightblue" points="50.214,-269.313 39.9897,-266.535 46.2504,-275.082 50.214,-269.313"/>
</g>
<!-- Node223 -->
<g id="node8" class="node"><title>Node223</title>
<g id="a_node8"><a xlink:href="class_open_u_r_i_dialog.html" target="_top" xlink:title="OpenURIDialog">
<polygon fill="white" stroke="black" points="110,-266.5 110,-285.5 196,-285.5 196,-266.5 110,-266.5"/>
<text text-anchor="middle" x="153" y="-273.5" font-family="Helvetica,sans-Serif" font-size="10.00">OpenURIDialog</text>
</a>
</g>
</g>
<!-- Node216&#45;&gt;Node223 -->
<g id="edge7" class="edge"><title>Node216&#45;&gt;Node223</title>
<path fill="none" stroke="midnightblue" d="M62.4645,-262.391C77.1084,-264.616 94.2052,-267.215 109.512,-269.542"/>
<polygon fill="midnightblue" stroke="midnightblue" points="62.708,-258.887 52.2956,-260.845 61.6561,-265.808 62.708,-258.887"/>
</g>
<!-- Node224 -->
<g id="node9" class="node"><title>Node224</title>
<g id="a_node9"><a xlink:href="class_options_dialog.html" target="_top" xlink:title="Preferences dialog. ">
<polygon fill="white" stroke="black" points="114,-228.5 114,-247.5 192,-247.5 192,-228.5 114,-228.5"/>
<text text-anchor="middle" x="153" y="-235.5" font-family="Helvetica,sans-Serif" font-size="10.00">OptionsDialog</text>
</a>
</g>
</g>
<!-- Node216&#45;&gt;Node224 -->
<g id="edge8" class="edge"><title>Node216&#45;&gt;Node224</title>
<path fill="none" stroke="midnightblue" d="M62.3792,-251.622C78.4653,-249.177 97.525,-246.28 113.923,-243.788"/>
<polygon fill="midnightblue" stroke="midnightblue" points="61.6561,-248.192 52.2956,-253.155 62.708,-255.112 61.6561,-248.192"/>
</g>
<!-- Node225 -->
<g id="node10" class="node"><title>Node225</title>
<g id="a_node10"><a xlink:href="class_q_r_dialog.html" target="_top" xlink:title="QRDialog">
<polygon fill="white" stroke="black" points="123.5,-190.5 123.5,-209.5 182.5,-209.5 182.5,-190.5 123.5,-190.5"/>
<text text-anchor="middle" x="153" y="-197.5" font-family="Helvetica,sans-Serif" font-size="10.00">QRDialog</text>
</a>
</g>
</g>
<!-- Node216&#45;&gt;Node225 -->
<g id="edge9" class="edge"><title>Node216&#45;&gt;Node225</title>
<path fill="none" stroke="midnightblue" d="M48.3688,-241.709C59.7294,-234.099 74.1738,-225.222 88,-219 99.2037,-213.958 112.102,-209.834 123.371,-206.732"/>
<polygon fill="midnightblue" stroke="midnightblue" points="46.2504,-238.918 39.9897,-247.465 50.214,-244.687 46.2504,-238.918"/>
</g>
<!-- Node226 -->
<g id="node11" class="node"><title>Node226</title>
<g id="a_node11"><a xlink:href="class_receive_coins_dialog.html" target="_top" xlink:title="Dialog for requesting payment of bitcoins. ">
<polygon fill="white" stroke="black" points="100,-152.5 100,-171.5 206,-171.5 206,-152.5 100,-152.5"/>
<text text-anchor="middle" x="153" y="-159.5" font-family="Helvetica,sans-Serif" font-size="10.00">ReceiveCoinsDialog</text>
</a>
</g>
</g>
<!-- Node216&#45;&gt;Node226 -->
<g id="edge10" class="edge"><title>Node216&#45;&gt;Node226</title>
<path fill="none" stroke="midnightblue" d="M37.2621,-238.596C47.8247,-221.292 65.8408,-195.886 88,-181 93.7727,-177.122 100.355,-174.018 107.05,-171.539"/>
<polygon fill="midnightblue" stroke="midnightblue" points="34.2221,-236.861 32.1818,-247.258 40.2602,-240.403 34.2221,-236.861"/>
</g>
<!-- Node227 -->
<g id="node12" class="node"><title>Node227</title>
<g id="a_node12"><a xlink:href="class_receive_request_dialog.html" target="_top" xlink:title="ReceiveRequestDialog">
<polygon fill="white" stroke="black" points="94.5,-114.5 94.5,-133.5 211.5,-133.5 211.5,-114.5 94.5,-114.5"/>
<text text-anchor="middle" x="153" y="-121.5" font-family="Helvetica,sans-Serif" font-size="10.00">ReceiveRequestDialog</text>
</a>
</g>
</g>
<!-- Node216&#45;&gt;Node227 -->
<g id="edge11" class="edge"><title>Node216&#45;&gt;Node227</title>
<path fill="none" stroke="midnightblue" d="M32.1943,-237.819C40.0558,-212.423 57.4029,-167.947 88,-143 92.761,-139.118 98.2937,-136.029 104.075,-133.571"/>
<polygon fill="midnightblue" stroke="midnightblue" points="28.8333,-236.843 29.3949,-247.423 35.5536,-238.802 28.8333,-236.843"/>
</g>
<!-- Node228 -->
<g id="node13" class="node"><title>Node228</title>
<g id="a_node13"><a xlink:href="class_send_coins_dialog.html" target="_top" xlink:title="Dialog for sending bitcoins. ">
<polygon fill="white" stroke="black" points="107,-76.5 107,-95.5 199,-95.5 199,-76.5 107,-76.5"/>
<text text-anchor="middle" x="153" y="-83.5" font-family="Helvetica,sans-Serif" font-size="10.00">SendCoinsDialog</text>
</a>
</g>
</g>
<!-- Node216&#45;&gt;Node228 -->
<g id="edge12" class="edge"><title>Node216&#45;&gt;Node228</title>
<path fill="none" stroke="midnightblue" d="M29.4138,-237.143C34.4078,-204.761 48.8902,-140.63 88,-105 93.3978,-100.082 100.015,-96.4346 106.924,-93.7293"/>
<polygon fill="midnightblue" stroke="midnightblue" points="25.9297,-236.787 28.0182,-247.174 32.8629,-237.751 25.9297,-236.787"/>
</g>
<!-- Node229 -->
<g id="node14" class="node"><title>Node229</title>
<g id="a_node14"><a xlink:href="class_sign_verify_message_dialog.html" target="_top" xlink:title="SignVerifyMessageDialog">
<polygon fill="white" stroke="black" points="88.5,-38.5 88.5,-57.5 217.5,-57.5 217.5,-38.5 88.5,-38.5"/>
<text text-anchor="middle" x="153" y="-45.5" font-family="Helvetica,sans-Serif" font-size="10.00">SignVerifyMessageDialog</text>
</a>
</g>
</g>
<!-- Node216&#45;&gt;Node229 -->
<g id="edge13" class="edge"><title>Node216&#45;&gt;Node229</title>
<path fill="none" stroke="midnightblue" d="M27.5791,-236.657C29.7999,-198.031 40.1936,-113.763 88,-67 91.9771,-63.1097 96.7128,-60.0103 101.783,-57.542"/>
<polygon fill="midnightblue" stroke="midnightblue" points="24.0633,-236.942 27.12,-247.087 31.0565,-237.25 24.0633,-236.942"/>
</g>
<!-- Node230 -->
<g id="node15" class="node"><title>Node230</title>
<g id="a_node15"><a xlink:href="class_transaction_desc_dialog.html" target="_top" xlink:title="Dialog showing transaction details. ">
<polygon fill="white" stroke="black" points="93.5,-0.5 93.5,-19.5 212.5,-19.5 212.5,-0.5 93.5,-0.5"/>
<text text-anchor="middle" x="153" y="-7.5" font-family="Helvetica,sans-Serif" font-size="10.00">TransactionDescDialog</text>
</a>
</g>
</g>
<!-- Node216&#45;&gt;Node230 -->
<g id="edge14" class="edge"><title>Node216&#45;&gt;Node230</title>
<path fill="none" stroke="midnightblue" d="M26.2689,-236.947C25.8045,-193.005 31.0731,-87.4948 88,-29 91.7993,-25.0961 96.3607,-21.9852 101.276,-19.5078"/>
<polygon fill="midnightblue" stroke="midnightblue" points="22.7749,-237.255 26.498,-247.174 29.7731,-237.098 22.7749,-237.255"/>
</g>
</g>
</svg>
