<?xml version="1.0" encoding="UTF-8" standalone="no"?>
<!DOCTYPE svg PUBLIC "-//W3C//DTD SVG 1.1//EN"
 "http://www.w3.org/Graphics/SVG/1.1/DTD/svg11.dtd">
<!-- Generated by graphviz version 2.36.0 (20140111.2315)
 -->
<!-- Title: Graphical Class Hierarchy Pages: 1 -->
<svg width="284pt" height="583pt"
 viewBox="0.00 0.00 284.00 583.00" xmlns="http://www.w3.org/2000/svg" xmlns:xlink="http://www.w3.org/1999/xlink">
<g id="graph0" class="graph" transform="scale(1 1) rotate(0) translate(4 579)">
<title>Graphical Class Hierarchy</title>
<polygon fill="white" stroke="none" points="-4,4 -4,-579 280,-579 280,4 -4,4"/>
<!-- Node189 -->
<g id="node1" class="node"><title>Node189</title>
<polygon fill="white" stroke="#bfbfbf" points="16.5,-285.5 16.5,-304.5 69.5,-304.5 69.5,-285.5 16.5,-285.5"/>
<text text-anchor="middle" x="43" y="-292.5" font-family="Helvetica,sans-Serif" font-size="10.00">QObject</text>
</g>
<!-- Node190 -->
<g id="node2" class="node"><title>Node190</title>
<g id="a_node2"><a xlink:href="class_bitcoin_core.html" target="_top" xlink:title="Class encapsulating Dash Core startup and shutdown. ">
<polygon fill="white" stroke="black" points="165,-555.5 165,-574.5 233,-574.5 233,-555.5 165,-555.5"/>
<text text-anchor="middle" x="199" y="-562.5" font-family="Helvetica,sans-Serif" font-size="10.00">BitcoinCore</text>
</a>
</g>
</g>
<!-- Node189&#45;&gt;Node190 -->
<g id="edge1" class="edge"><title>Node189&#45;&gt;Node190</title>
<path fill="none" stroke="midnightblue" d="M43.9926,-314.792C45.1,-362.085 54.7533,-482.438 122,-546 133.465,-556.837 150.145,-561.754 164.959,-563.891"/>
<polygon fill="midnightblue" stroke="midnightblue" points="47.4907,-314.612 43.8655,-304.656 40.4913,-314.7 47.4907,-314.612"/>
</g>
<!-- Node191 -->
<g id="node3" class="node"><title>Node191</title>
<g id="a_node3"><a xlink:href="class_client_model.html" target="_top" xlink:title="Model for Dash network client. ">
<polygon fill="white" stroke="black" points="165,-517.5 165,-536.5 233,-536.5 233,-517.5 165,-517.5"/>
<text text-anchor="middle" x="199" y="-524.5" font-family="Helvetica,sans-Serif" font-size="10.00">ClientModel</text>
</a>
</g>
</g>
<!-- Node189&#45;&gt;Node191 -->
<g id="edge2" class="edge"><title>Node189&#45;&gt;Node191</title>
<path fill="none" stroke="midnightblue" d="M45.2767,-314.907C49.0888,-357.099 64.0607,-455.901 122,-508 133.63,-518.458 150.148,-523.354 164.815,-525.575"/>
<polygon fill="midnightblue" stroke="midnightblue" points="48.7561,-314.506 44.4851,-304.81 41.7775,-315.053 48.7561,-314.506"/>
</g>
<!-- Node192 -->
<g id="node4" class="node"><title>Node192</title>
<g id="a_node4"><a xlink:href="class_c_s_v_model_writer.html" target="_top" xlink:title="Export a Qt table model to a CSV file. ">
<polygon fill="white" stroke="black" points="154,-479.5 154,-498.5 244,-498.5 244,-479.5 154,-479.5"/>
<text text-anchor="middle" x="199" y="-486.5" font-family="Helvetica,sans-Serif" font-size="10.00">CSVModelWriter</text>
</a>
</g>
</g>
<!-- Node189&#45;&gt;Node192 -->
<g id="edge3" class="edge"><title>Node189&#45;&gt;Node192</title>
<path fill="none" stroke="midnightblue" d="M47.0022,-314.574C53.6402,-350.932 73.0492,-428.916 122,-470 130.959,-477.519 142.476,-482.131 153.82,-484.94"/>
<polygon fill="midnightblue" stroke="midnightblue" points="50.4532,-313.99 45.3336,-304.714 43.5513,-315.158 50.4532,-313.99"/>
</g>
<!-- Node193 -->
<g id="node5" class="node"><title>Node193</title>
<g id="a_node5"><a xlink:href="class_freespace_checker.html" target="_top" xlink:title="FreespaceChecker">
<polygon fill="white" stroke="black" points="149.5,-441.5 149.5,-460.5 248.5,-460.5 248.5,-441.5 149.5,-441.5"/>
<text text-anchor="middle" x="199" y="-448.5" font-family="Helvetica,sans-Serif" font-size="10.00">FreespaceChecker</text>
</a>
</g>
</g>
<!-- Node189&#45;&gt;Node193 -->
<g id="edge4" class="edge"><title>Node189&#45;&gt;Node193</title>
<path fill="none" stroke="midnightblue" d="M49.6892,-314.252C59.4738,-343.939 82.3572,-400.632 122,-431 129.907,-437.057 139.484,-441.286 149.136,-444.237"/>
<polygon fill="midnightblue" stroke="midnightblue" points="53.0048,-313.128 46.6702,-304.635 46.3261,-315.224 53.0048,-313.128"/>
</g>
<!-- Node194 -->
<g id="node6" class="node"><title>Node194</title>
<g id="a_node6"><a xlink:href="class_g_u_i_util_1_1_table_view_last_column_resizing_fixer.html" target="_top" xlink:title="Makes a QTableView last column feel as if it was being resized from its left border. ">
<polygon fill="white" stroke="black" points="122,-392 122,-422 276,-422 276,-392 122,-392"/>
<text text-anchor="start" x="130" y="-410" font-family="Helvetica,sans-Serif" font-size="10.00">GUIUtil::TableViewLastColumn</text>
<text text-anchor="middle" x="199" y="-399" font-family="Helvetica,sans-Serif" font-size="10.00">ResizingFixer</text>
</a>
</g>
</g>
<!-- Node189&#45;&gt;Node194 -->
<g id="edge5" class="edge"><title>Node189&#45;&gt;Node194</title>
<path fill="none" stroke="midnightblue" d="M55.7529,-312.956C69.4567,-332.56 93.8538,-363.606 122,-382 127.814,-385.799 134.255,-389.068 140.858,-391.869"/>
<polygon fill="midnightblue" stroke="midnightblue" points="58.5894,-310.903 50.0743,-304.599 52.7995,-314.837 58.5894,-310.903"/>
</g>
<!-- Node195 -->
<g id="node7" class="node"><title>Node195</title>
<g id="a_node7"><a xlink:href="class_g_u_i_util_1_1_tool_tip_to_rich_text_filter.html" target="_top" xlink:title="Qt event filter that intercepts ToolTipChange events, and replaces the tooltip with a rich text repre...">
<polygon fill="white" stroke="black" points="129.5,-343 129.5,-373 268.5,-373 268.5,-343 129.5,-343"/>
<text text-anchor="start" x="137.5" y="-361" font-family="Helvetica,sans-Serif" font-size="10.00">GUIUtil::ToolTipToRichText</text>
<text text-anchor="middle" x="199" y="-350" font-family="Helvetica,sans-Serif" font-size="10.00">Filter</text>
</a>
</g>
</g>
<!-- Node189&#45;&gt;Node195 -->
<g id="edge6" class="edge"><title>Node189&#45;&gt;Node195</title>
<path fill="none" stroke="midnightblue" d="M71.0709,-309.312C85.8921,-316.86 104.711,-325.983 122,-333 130.623,-336.5 139.938,-339.88 148.993,-342.964"/>
<polygon fill="midnightblue" stroke="midnightblue" points="72.457,-306.089 61.9649,-304.617 69.2492,-312.31 72.457,-306.089"/>
</g>
<!-- Node196 -->
<g id="node8" class="node"><title>Node196</title>
<g id="a_node8"><a xlink:href="class_mac_dock_icon_handler.html" target="_top" xlink:title="Macintosh&#45;specific dock icon handler. ">
<polygon fill="white" stroke="black" points="143.5,-304.5 143.5,-323.5 254.5,-323.5 254.5,-304.5 143.5,-304.5"/>
<text text-anchor="middle" x="199" y="-311.5" font-family="Helvetica,sans-Serif" font-size="10.00">MacDockIconHandler</text>
</a>
</g>
</g>
<!-- Node189&#45;&gt;Node196 -->
<g id="edge7" class="edge"><title>Node189&#45;&gt;Node196</title>
<path fill="none" stroke="midnightblue" d="M79.7429,-299.41C98.6358,-301.741 122.231,-304.652 143.365,-307.259"/>
<polygon fill="midnightblue" stroke="midnightblue" points="80.1295,-295.931 69.7761,-298.18 79.2723,-302.878 80.1295,-295.931"/>
</g>
<!-- Node197 -->
<g id="node9" class="node"><title>Node197</title>
<g id="a_node9"><a xlink:href="class_mac_notification_handler.html" target="_top" xlink:title="Macintosh&#45;specific notification handler (supports UserNotificationCenter and Growl). ">
<polygon fill="white" stroke="black" points="139.5,-266.5 139.5,-285.5 258.5,-285.5 258.5,-266.5 139.5,-266.5"/>
<text text-anchor="middle" x="199" y="-273.5" font-family="Helvetica,sans-Serif" font-size="10.00">MacNotificationHandler</text>
</a>
</g>
</g>
<!-- Node189&#45;&gt;Node197 -->
<g id="edge8" class="edge"><title>Node189&#45;&gt;Node197</title>
<path fill="none" stroke="midnightblue" d="M79.7025,-290.595C97.4543,-288.405 119.365,-285.702 139.486,-283.219"/>
<polygon fill="midnightblue" stroke="midnightblue" points="79.2723,-287.122 69.7761,-291.82 80.1295,-294.069 79.2723,-287.122"/>
</g>
<!-- Node198 -->
<g id="node10" class="node"><title>Node198</title>
<g id="a_node10"><a xlink:href="class_notificator.html" target="_top" xlink:title="Cross&#45;platform desktop notification client. ">
<polygon fill="white" stroke="black" points="168,-228.5 168,-247.5 230,-247.5 230,-228.5 168,-228.5"/>
<text text-anchor="middle" x="199" y="-235.5" font-family="Helvetica,sans-Serif" font-size="10.00">Notificator</text>
</a>
</g>
</g>
<!-- Node189&#45;&gt;Node198 -->
<g id="edge9" class="edge"><title>Node189&#45;&gt;Node198</title>
<path fill="none" stroke="midnightblue" d="M70.0008,-280.639C84.8917,-272.848 104.119,-263.51 122,-257 136.825,-251.603 153.819,-247.196 167.973,-243.989"/>
<polygon fill="midnightblue" stroke="midnightblue" points="68.0783,-277.697 60.8993,-285.489 71.3705,-283.875 68.0783,-277.697"/>
</g>
<!-- Node199 -->
<g id="node11" class="node"><title>Node199</title>
<g id="a_node11"><a xlink:href="class_payment_server.html" target="_top" xlink:title="PaymentServer">
<polygon fill="white" stroke="black" points="157,-190.5 157,-209.5 241,-209.5 241,-190.5 157,-190.5"/>
<text text-anchor="middle" x="199" y="-197.5" font-family="Helvetica,sans-Serif" font-size="10.00">PaymentServer</text>
</a>
</g>
</g>
<!-- Node189&#45;&gt;Node199 -->
<g id="edge10" class="edge"><title>Node189&#45;&gt;Node199</title>
<path fill="none" stroke="midnightblue" d="M57.5086,-277.199C71.6878,-259.768 95.5639,-233.742 122,-219 132.572,-213.105 144.979,-209.012 156.667,-206.181"/>
<polygon fill="midnightblue" stroke="midnightblue" points="54.4635,-275.408 51.0154,-285.426 59.9583,-279.745 54.4635,-275.408"/>
</g>
<!-- Node2 -->
<g id="node12" class="node"><title>Node2</title>
<g id="a_node12"><a xlink:href="class_qt_r_p_c_timer_base.html" target="_top" xlink:title="Class for handling RPC timers (used for e.g. ">
<polygon fill="white" stroke="black" points="151,-38.5 151,-57.5 247,-57.5 247,-38.5 151,-38.5"/>
<text text-anchor="middle" x="199" y="-45.5" font-family="Helvetica,sans-Serif" font-size="10.00">QtRPCTimerBase</text>
</a>
</g>
</g>
<!-- Node189&#45;&gt;Node2 -->
<g id="edge11" class="edge"><title>Node189&#45;&gt;Node2</title>
<path fill="none" stroke="midnightblue" d="M44.7145,-275.247C47.421,-231.052 60.3491,-123.641 122,-67 130.012,-59.6388 140.439,-55.0229 150.988,-52.1553"/>
<polygon fill="midnightblue" stroke="midnightblue" points="41.2058,-275.338 44.2063,-285.499 48.1972,-275.685 41.2058,-275.338"/>
</g>
<!-- Node200 -->
<g id="node13" class="node"><title>Node200</title>
<g id="a_node13"><a xlink:href="class_r_p_c_executor.html" target="_top" xlink:title="RPCExecutor">
<polygon fill="white" stroke="black" points="160.5,-152.5 160.5,-171.5 237.5,-171.5 237.5,-152.5 160.5,-152.5"/>
<text text-anchor="middle" x="199" y="-159.5" font-family="Helvetica,sans-Serif" font-size="10.00">RPCExecutor</text>
</a>
</g>
</g>
<!-- Node189&#45;&gt;Node200 -->
<g id="edge12" class="edge"><title>Node189&#45;&gt;Node200</title>
<path fill="none" stroke="midnightblue" d="M51.8113,-275.91C63.3001,-250.285 87.224,-205.195 122,-181 133.164,-173.233 147.203,-168.634 160.167,-165.914"/>
<polygon fill="midnightblue" stroke="midnightblue" points="48.5138,-274.718 47.7749,-285.287 54.9434,-277.486 48.5138,-274.718"/>
</g>
<!-- Node201 -->
<g id="node14" class="node"><title>Node201</title>
<g id="a_node14"><a xlink:href="class_transaction_desc.html" target="_top" xlink:title="Provide a human&#45;readable extended HTML description of a transaction. ">
<polygon fill="white" stroke="black" points="153.5,-114.5 153.5,-133.5 244.5,-133.5 244.5,-114.5 153.5,-114.5"/>
<text text-anchor="middle" x="199" y="-121.5" font-family="Helvetica,sans-Serif" font-size="10.00">TransactionDesc</text>
</a>
</g>
</g>
<!-- Node189&#45;&gt;Node201 -->
<g id="edge13" class="edge"><title>Node189&#45;&gt;Node201</title>
<path fill="none" stroke="midnightblue" d="M48.4819,-275.317C56.97,-242.661 78.5636,-177.471 122,-143 130.949,-135.898 142.208,-131.411 153.297,-128.588"/>
<polygon fill="midnightblue" stroke="midnightblue" points="44.9901,-274.862 46.0118,-285.408 51.7893,-276.527 44.9901,-274.862"/>
</g>
<!-- Node202 -->
<g id="node15" class="node"><title>Node202</title>
<g id="a_node15"><a xlink:href="class_wallet_model.html" target="_top" xlink:title="Interface to Bitcoin wallet from Qt view code. ">
<polygon fill="white" stroke="black" points="163.5,-76.5 163.5,-95.5 234.5,-95.5 234.5,-76.5 163.5,-76.5"/>
<text text-anchor="middle" x="199" y="-83.5" font-family="Helvetica,sans-Serif" font-size="10.00">WalletModel</text>
</a>
</g>
</g>
<!-- Node189&#45;&gt;Node202 -->
<g id="edge14" class="edge"><title>Node189&#45;&gt;Node202</title>
<path fill="none" stroke="midnightblue" d="M46.2369,-275.391C51.7224,-236.718 69.4719,-150.435 122,-105 133.418,-95.1239 149.223,-90.2402 163.463,-87.8763"/>
<polygon fill="midnightblue" stroke="midnightblue" points="42.7583,-275.001 44.9492,-285.367 49.7007,-275.897 42.7583,-275.001"/>
</g>
<!-- Node0 -->
<g id="node16" class="node"><title>Node0</title>
<g id="a_node16"><a xlink:href="class_r_p_c_timer_base.html" target="_top" xlink:title="Opaque base class for timers returned by NewTimerFunc. ">
<polygon fill="white" stroke="black" points="0,-19.5 0,-38.5 86,-38.5 86,-19.5 0,-19.5"/>
<text text-anchor="middle" x="43" y="-26.5" font-family="Helvetica,sans-Serif" font-size="10.00">RPCTimerBase</text>
</a>
</g>
</g>
<!-- Node0&#45;&gt;Node2 -->
<g id="edge16" class="edge"><title>Node0&#45;&gt;Node2</title>
<path fill="none" stroke="midnightblue" d="M96.234,-35.4445C113.916,-37.626 133.548,-40.0481 150.814,-42.1783"/>
<polygon fill="midnightblue" stroke="midnightblue" points="96.4345,-31.9427 86.0812,-34.1918 95.5773,-38.8901 96.4345,-31.9427"/>
</g>
<!-- Node1 -->
<g id="node17" class="node"><title>Node1</title>
<g id="a_node17"><a xlink:href="class_h_t_t_p_r_p_c_timer.html" target="_top" xlink:title="Simple one&#45;shot callback timer to be used by the RPC mechanism to e.g. ">
<polygon fill="white" stroke="black" points="154.5,-0.5 154.5,-19.5 243.5,-19.5 243.5,-0.5 154.5,-0.5"/>
<text text-anchor="middle" x="199" y="-7.5" font-family="Helvetica,sans-Serif" font-size="10.00">HTTPRPCTimer</text>
</a>
</g>
</g>
<!-- Node0&#45;&gt;Node1 -->
<g id="edge15" class="edge"><title>Node0&#45;&gt;Node1</title>
<path fill="none" stroke="midnightblue" d="M96.049,-22.5784C115,-20.2403 136.212,-17.6232 154.359,-15.3843"/>
<polygon fill="midnightblue" stroke="midnightblue" points="95.5773,-19.1099 86.0812,-23.8082 96.4345,-26.0573 95.5773,-19.1099"/>
</g>
</g>
</svg>
