<?xml version="1.0" encoding="UTF-8" standalone="no"?>
<!DOCTYPE svg PUBLIC "-//W3C//DTD SVG 1.1//EN"
 "http://www.w3.org/Graphics/SVG/1.1/DTD/svg11.dtd">
<!-- Generated by graphviz version 2.36.0 (20140111.2315)
 -->
<!-- Title: Graphical Class Hierarchy Pages: 1 -->
<svg width="224pt" height="142pt"
 viewBox="0.00 0.00 224.00 142.00" xmlns="http://www.w3.org/2000/svg" xmlns:xlink="http://www.w3.org/1999/xlink">
<g id="graph0" class="graph" transform="scale(1 1) rotate(0) translate(4 138)">
<title>Graphical Class Hierarchy</title>
<polygon fill="white" stroke="none" points="-4,4 -4,-138 220,-138 220,4 -4,4"/>
<!-- Node0 -->
<g id="node1" class="node"><title>Node0</title>
<g id="a_node1"><a xlink:href="class_c_chain_params.html" target="_top" xlink:title="CChainParams defines various tweakable parameters of a given instance of the Dash system...">
<polygon fill="white" stroke="black" points="0.5,-57.5 0.5,-76.5 83.5,-76.5 83.5,-57.5 0.5,-57.5"/>
<text text-anchor="middle" x="42" y="-64.5" font-family="Helvetica,sans-Serif" font-size="10.00">CChainParams</text>
</a>
</g>
</g>
<!-- Node1 -->
<g id="node2" class="node"><title>Node1</title>
<g id="a_node2"><a xlink:href="class_c_dev_net_params.html" target="_top" xlink:title="Devnet. ">
<polygon fill="white" stroke="black" points="122,-114.5 122,-133.5 214,-133.5 214,-114.5 122,-114.5"/>
<text text-anchor="middle" x="168" y="-121.5" font-family="Helvetica,sans-Serif" font-size="10.00">CDevNetParams</text>
</a>
</g>
</g>
<!-- Node0&#45;&gt;Node1 -->
<g id="edge1" class="edge"><title>Node0&#45;&gt;Node1</title>
<path fill="none" stroke="midnightblue" d="M70.4821,-81.1806C85.07,-88.5502 103.373,-97.5486 120,-105 127.228,-108.239 135.183,-111.549 142.461,-114.48"/>
<polygon fill="midnightblue" stroke="midnightblue" points="71.9873,-78.0195 61.4872,-76.6055 68.8138,-84.2588 71.9873,-78.0195"/>
</g>
<!-- Node2 -->
<g id="node3" class="node"><title>Node2</title>
<g id="a_node3"><a xlink:href="class_c_main_params.html" target="_top" xlink:title="Main network. ">
<polygon fill="white" stroke="black" points="128.5,-76.5 128.5,-95.5 207.5,-95.5 207.5,-76.5 128.5,-76.5"/>
<text text-anchor="middle" x="168" y="-83.5" font-family="Helvetica,sans-Serif" font-size="10.00">CMainParams</text>
</a>
</g>
</g>
<!-- Node0&#45;&gt;Node2 -->
<g id="edge2" class="edge"><title>Node0&#45;&gt;Node2</title>
<path fill="none" stroke="midnightblue" d="M93.6236,-74.7568C105.237,-76.5364 117.403,-78.4004 128.414,-80.0876"/>
<polygon fill="midnightblue" stroke="midnightblue" points="94.017,-71.2764 83.6022,-73.2213 92.9567,-78.1956 94.017,-71.2764"/>
</g>
<!-- Node3 -->
<g id="node4" class="node"><title>Node3</title>
<g id="a_node4"><a xlink:href="class_c_reg_test_params.html" target="_top" xlink:title="Regression test. ">
<polygon fill="white" stroke="black" points="120.5,-38.5 120.5,-57.5 215.5,-57.5 215.5,-38.5 120.5,-38.5"/>
<text text-anchor="middle" x="168" y="-45.5" font-family="Helvetica,sans-Serif" font-size="10.00">CRegTestParams</text>
</a>
</g>
</g>
<!-- Node0&#45;&gt;Node3 -->
<g id="edge3" class="edge"><title>Node0&#45;&gt;Node3</title>
<path fill="none" stroke="midnightblue" d="M93.7271,-59.2273C102.512,-57.8812 111.609,-56.4873 120.281,-55.1585"/>
<polygon fill="midnightblue" stroke="midnightblue" points="92.9567,-55.8044 83.6022,-60.7787 94.017,-62.7236 92.9567,-55.8044"/>
</g>
<!-- Node4 -->
<g id="node5" class="node"><title>Node4</title>
<g id="a_node5"><a xlink:href="class_c_test_net_params.html" target="_top" xlink:title="Testnet (v3) ">
<polygon fill="white" stroke="black" points="121.5,-0.5 121.5,-19.5 214.5,-19.5 214.5,-0.5 121.5,-0.5"/>
<text text-anchor="middle" x="168" y="-7.5" font-family="Helvetica,sans-Serif" font-size="10.00">CTestNetParams</text>
</a>
</g>
</g>
<!-- Node0&#45;&gt;Node4 -->
<g id="edge4" class="edge"><title>Node0&#45;&gt;Node4</title>
<path fill="none" stroke="midnightblue" d="M70.4821,-52.8194C85.07,-45.4498 103.373,-36.4514 120,-29 127.228,-25.7606 135.183,-22.4506 142.461,-19.52"/>
<polygon fill="midnightblue" stroke="midnightblue" points="68.8138,-49.7412 61.4872,-57.3945 71.9873,-55.9805 68.8138,-49.7412"/>
</g>
</g>
</svg>
