<?xml version="1.0" encoding="UTF-8" standalone="no"?>
<!DOCTYPE svg PUBLIC "-//W3C//DTD SVG 1.1//EN"
 "http://www.w3.org/Graphics/SVG/1.1/DTD/svg11.dtd">
<!-- Generated by graphviz version 2.36.0 (20140111.2315)
 -->
<!-- Title: Graphical Class Hierarchy Pages: 1 -->
<svg width="202pt" height="332pt"
 viewBox="0.00 0.00 202.00 332.00" xmlns="http://www.w3.org/2000/svg" xmlns:xlink="http://www.w3.org/1999/xlink">
<g id="graph0" class="graph" transform="scale(1 1) rotate(0) translate(4 328)">
<title>Graphical Class Hierarchy</title>
<polygon fill="white" stroke="none" points="-4,4 -4,-328 198,-328 198,4 -4,4"/>
<!-- Node164 -->
<g id="node1" class="node"><title>Node164</title>
<polygon fill="white" stroke="#bfbfbf" points="0.5,-152.5 0.5,-171.5 55.5,-171.5 55.5,-152.5 0.5,-152.5"/>
<text text-anchor="middle" x="28" y="-159.5" font-family="Helvetica,sans-Serif" font-size="10.00">QWidget</text>
</g>
<!-- Node0 -->
<g id="node2" class="node"><title>Node0</title>
<g id="a_node2"><a xlink:href="class_bitcoin_amount_field.html" target="_top" xlink:title="Widget for entering bitcoin amounts. ">
<polygon fill="white" stroke="black" points="92.5,-304.5 92.5,-323.5 193.5,-323.5 193.5,-304.5 92.5,-304.5"/>
<text text-anchor="middle" x="143" y="-311.5" font-family="Helvetica,sans-Serif" font-size="10.00">BitcoinAmountField</text>
</a>
</g>
</g>
<!-- Node164&#45;&gt;Node0 -->
<g id="edge1" class="edge"><title>Node164&#45;&gt;Node0</title>
<path fill="none" stroke="midnightblue" d="M33.3096,-181.489C40.6072,-210.142 58.0348,-263.625 92,-295 96.1609,-298.844 101.178,-301.934 106.406,-304.413"/>
<polygon fill="midnightblue" stroke="midnightblue" points="36.6514,-180.414 30.924,-171.501 29.8429,-182.04 36.6514,-180.414"/>
</g>
<!-- Node166 -->
<g id="node3" class="node"><title>Node166</title>
<g id="a_node3"><a xlink:href="class_masternode_list.html" target="_top" xlink:title="Masternode Manager page widget. ">
<polygon fill="white" stroke="black" points="101.5,-266.5 101.5,-285.5 184.5,-285.5 184.5,-266.5 101.5,-266.5"/>
<text text-anchor="middle" x="143" y="-273.5" font-family="Helvetica,sans-Serif" font-size="10.00">MasternodeList</text>
</a>
</g>
</g>
<!-- Node164&#45;&gt;Node166 -->
<g id="edge2" class="edge"><title>Node164&#45;&gt;Node166</title>
<path fill="none" stroke="midnightblue" d="M37.0832,-180.762C47.107,-201.991 66.0918,-236.297 92,-257 96.788,-260.826 102.43,-263.942 108.169,-266.46"/>
<polygon fill="midnightblue" stroke="midnightblue" points="40.2057,-179.172 32.8912,-171.508 33.8294,-182.061 40.2057,-179.172"/>
</g>
<!-- Node167 -->
<g id="node4" class="node"><title>Node167</title>
<g id="a_node4"><a xlink:href="class_modal_overlay.html" target="_top" xlink:title="Modal overlay to display information about the chain&#45;sync state. ">
<polygon fill="white" stroke="black" points="104.5,-228.5 104.5,-247.5 181.5,-247.5 181.5,-228.5 104.5,-228.5"/>
<text text-anchor="middle" x="143" y="-235.5" font-family="Helvetica,sans-Serif" font-size="10.00">ModalOverlay</text>
</a>
</g>
</g>
<!-- Node164&#45;&gt;Node167 -->
<g id="edge3" class="edge"><title>Node164&#45;&gt;Node167</title>
<path fill="none" stroke="midnightblue" d="M44.54,-179.146C56.5262,-191.554 74.044,-208.009 92,-219 98.0193,-222.685 104.871,-225.856 111.531,-228.494"/>
<polygon fill="midnightblue" stroke="midnightblue" points="46.9135,-176.561 37.513,-171.674 41.8143,-181.356 46.9135,-176.561"/>
</g>
<!-- Node168 -->
<g id="node5" class="node"><title>Node168</title>
<g id="a_node5"><a xlink:href="class_overview_page.html" target="_top" xlink:title="Overview (&quot;home&quot;) page widget. ">
<polygon fill="white" stroke="black" points="103,-190.5 103,-209.5 183,-209.5 183,-190.5 103,-190.5"/>
<text text-anchor="middle" x="143" y="-197.5" font-family="Helvetica,sans-Serif" font-size="10.00">OverviewPage</text>
</a>
</g>
</g>
<!-- Node164&#45;&gt;Node168 -->
<g id="edge4" class="edge"><title>Node164&#45;&gt;Node168</title>
<path fill="none" stroke="midnightblue" d="M65.586,-174.303C81.1017,-179.521 98.9149,-185.511 113.437,-190.395"/>
<polygon fill="midnightblue" stroke="midnightblue" points="66.3735,-170.876 55.7794,-171.005 64.1422,-177.51 66.3735,-170.876"/>
</g>
<!-- Node169 -->
<g id="node6" class="node"><title>Node169</title>
<g id="a_node6"><a xlink:href="class_r_p_c_console.html" target="_top" xlink:title="Local Bitcoin RPC console. ">
<polygon fill="white" stroke="black" points="106,-152.5 106,-171.5 180,-171.5 180,-152.5 106,-152.5"/>
<text text-anchor="middle" x="143" y="-159.5" font-family="Helvetica,sans-Serif" font-size="10.00">RPCConsole</text>
</a>
</g>
</g>
<!-- Node164&#45;&gt;Node169 -->
<g id="edge5" class="edge"><title>Node164&#45;&gt;Node169</title>
<path fill="none" stroke="midnightblue" d="M66.0299,-162C78.7311,-162 92.9279,-162 105.58,-162"/>
<polygon fill="midnightblue" stroke="midnightblue" points="65.7795,-158.5 55.7794,-162 65.7794,-165.5 65.7795,-158.5"/>
</g>
<!-- Node170 -->
<g id="node7" class="node"><title>Node170</title>
<g id="a_node7"><a xlink:href="class_shutdown_window.html" target="_top" xlink:title="&quot;Shutdown&quot; window ">
<polygon fill="white" stroke="black" points="95.5,-114.5 95.5,-133.5 190.5,-133.5 190.5,-114.5 95.5,-114.5"/>
<text text-anchor="middle" x="143" y="-121.5" font-family="Helvetica,sans-Serif" font-size="10.00">ShutdownWindow</text>
</a>
</g>
</g>
<!-- Node164&#45;&gt;Node170 -->
<g id="edge6" class="edge"><title>Node164&#45;&gt;Node170</title>
<path fill="none" stroke="midnightblue" d="M65.586,-149.697C81.1017,-144.479 98.9149,-138.489 113.437,-133.605"/>
<polygon fill="midnightblue" stroke="midnightblue" points="64.1422,-146.49 55.7794,-152.995 66.3735,-153.124 64.1422,-146.49"/>
</g>
<!-- Node171 -->
<g id="node8" class="node"><title>Node171</title>
<g id="a_node8"><a xlink:href="class_splash_screen.html" target="_top" xlink:title="Class for the splashscreen with information of the running client. ">
<polygon fill="white" stroke="black" points="104.5,-76.5 104.5,-95.5 181.5,-95.5 181.5,-76.5 104.5,-76.5"/>
<text text-anchor="middle" x="143" y="-83.5" font-family="Helvetica,sans-Serif" font-size="10.00">SplashScreen</text>
</a>
</g>
</g>
<!-- Node164&#45;&gt;Node171 -->
<g id="edge7" class="edge"><title>Node164&#45;&gt;Node171</title>
<path fill="none" stroke="midnightblue" d="M44.54,-144.854C56.5262,-132.446 74.044,-115.991 92,-105 98.0193,-101.315 104.871,-98.144 111.531,-95.5058"/>
<polygon fill="midnightblue" stroke="midnightblue" points="41.8143,-142.644 37.513,-152.326 46.9135,-147.439 41.8143,-142.644"/>
</g>
<!-- Node172 -->
<g id="node9" class="node"><title>Node172</title>
<g id="a_node9"><a xlink:href="class_traffic_graph_widget.html" target="_top" xlink:title="TrafficGraphWidget">
<polygon fill="white" stroke="black" points="92.5,-38.5 92.5,-57.5 193.5,-57.5 193.5,-38.5 92.5,-38.5"/>
<text text-anchor="middle" x="143" y="-45.5" font-family="Helvetica,sans-Serif" font-size="10.00">TrafficGraphWidget</text>
</a>
</g>
</g>
<!-- Node164&#45;&gt;Node172 -->
<g id="edge8" class="edge"><title>Node164&#45;&gt;Node172</title>
<path fill="none" stroke="midnightblue" d="M37.0832,-143.238C47.107,-122.009 66.0918,-87.703 92,-67 96.788,-63.174 102.43,-60.0579 108.169,-57.5399"/>
<polygon fill="midnightblue" stroke="midnightblue" points="33.8294,-141.939 32.8912,-152.492 40.2057,-144.828 33.8294,-141.939"/>
</g>
<!-- Node173 -->
<g id="node10" class="node"><title>Node173</title>
<g id="a_node10"><a xlink:href="class_transaction_view.html" target="_top" xlink:title="Widget showing the transaction list for a wallet, including a filter row. ">
<polygon fill="white" stroke="black" points="98.5,-0.5 98.5,-19.5 187.5,-19.5 187.5,-0.5 98.5,-0.5"/>
<text text-anchor="middle" x="143" y="-7.5" font-family="Helvetica,sans-Serif" font-size="10.00">TransactionView</text>
</a>
</g>
</g>
<!-- Node164&#45;&gt;Node173 -->
<g id="edge9" class="edge"><title>Node164&#45;&gt;Node173</title>
<path fill="none" stroke="midnightblue" d="M33.3096,-142.511C40.6072,-113.858 58.0348,-60.3754 92,-29 96.1609,-25.1563 101.178,-22.0656 106.406,-19.5873"/>
<polygon fill="midnightblue" stroke="midnightblue" points="29.8429,-141.96 30.924,-152.499 36.6514,-143.586 29.8429,-141.96"/>
</g>
</g>
</svg>
