<?xml version="1.0" encoding="UTF-8" standalone="no"?>
<!DOCTYPE svg PUBLIC "-//W3C//DTD SVG 1.1//EN"
 "http://www.w3.org/Graphics/SVG/1.1/DTD/svg11.dtd">
<!-- Generated by graphviz version 2.36.0 (20140111.2315)
 -->
<!-- Title: Graphical Class Hierarchy Pages: 1 -->
<svg width="380pt" height="48pt"
 viewBox="0.00 0.00 380.00 48.00" xmlns="http://www.w3.org/2000/svg" xmlns:xlink="http://www.w3.org/1999/xlink">
<g id="graph0" class="graph" transform="scale(1 1) rotate(0) translate(4 44)">
<title>Graphical Class Hierarchy</title>
<polygon fill="white" stroke="none" points="-4,4 -4,-44 376,-44 376,4 -4,4"/>
<!-- Node0 -->
<g id="node1" class="node"><title>Node0</title>
<g id="a_node1"><a xlink:href="struct_c_d_b_transaction_1_1_key_value_holder.html" target="_top" xlink:title="CDBTransaction\&lt; Parent,\l CommitTarget \&gt;::KeyValueHolder">
<polygon fill="white" stroke="black" points="0.5,-5 0.5,-35 167.5,-35 167.5,-5 0.5,-5"/>
<text text-anchor="start" x="8.5" y="-23" font-family="Helvetica,sans-Serif" font-size="10.00">CDBTransaction&lt; Parent,</text>
<text text-anchor="middle" x="84" y="-12" font-family="Helvetica,sans-Serif" font-size="10.00"> CommitTarget &gt;::KeyValueHolder</text>
</a>
</g>
</g>
<!-- Node1 -->
<g id="node2" class="node"><title>Node1</title>
<g id="a_node2"><a xlink:href="struct_c_d_b_transaction_1_1_key_value_holder_impl.html" target="_top" xlink:title="CDBTransaction\&lt; Parent,\l CommitTarget \&gt;::KeyValueHolder\lImpl\&lt; K, V \&gt;">
<polygon fill="white" stroke="black" points="204.5,0.5 204.5,-40.5 371.5,-40.5 371.5,0.5 204.5,0.5"/>
<text text-anchor="start" x="212.5" y="-28.5" font-family="Helvetica,sans-Serif" font-size="10.00">CDBTransaction&lt; Parent,</text>
<text text-anchor="start" x="212.5" y="-17.5" font-family="Helvetica,sans-Serif" font-size="10.00"> CommitTarget &gt;::KeyValueHolder</text>
<text text-anchor="middle" x="288" y="-6.5" font-family="Helvetica,sans-Serif" font-size="10.00">Impl&lt; K, V &gt;</text>
</a>
</g>
</g>
<!-- Node0&#45;&gt;Node1 -->
<g id="edge1" class="edge"><title>Node0&#45;&gt;Node1</title>
<path fill="none" stroke="midnightblue" d="M178.018,-20C186.815,-20 195.694,-20 204.385,-20"/>
<polygon fill="midnightblue" stroke="midnightblue" points="177.744,-16.5001 167.744,-20 177.744,-23.5001 177.744,-16.5001"/>
</g>
</g>
</svg>
