<?xml version="1.0" encoding="UTF-8" standalone="no"?>
<!DOCTYPE svg PUBLIC "-//W3C//DTD SVG 1.1//EN"
 "http://www.w3.org/Graphics/SVG/1.1/DTD/svg11.dtd">
<!-- Generated by graphviz version 2.36.0 (20140111.2315)
 -->
<!-- Title: src/init.h Pages: 1 -->
<!--zoomable 84 -->
<svg id="main" version="1.1" xmlns="http://www.w3.org/2000/svg" xmlns:xlink="http://www.w3.org/1999/xlink" xml:space="preserve" onload="init(evt)">
<style type="text/css"><![CDATA[
.edge:hover path { stroke: red; }
.edge:hover polygon { stroke: red; fill: red; }
]]></style>
<script type="text/javascript"><![CDATA[
var edges = document.getElementsByTagName('g');
if (edges && edges.length) {
  for (var i=0;i<edges.length;i++) {
    if (edges[i].id.substr(0,4)=='edge') {
      edges[i].setAttribute('class','edge');
    }
  }
}
]]></script>
        <defs>
                <circle id="rim" cx="0" cy="0" r="7"/>
                <circle id="rim2" cx="0" cy="0" r="3.5"/>
                <g id="zoomPlus">
                        <use xlink:href="#rim" fill="#404040">
                                <set attributeName="fill" to="#808080" begin="zoomplus.mouseover" end="zoomplus.mouseout"/>
                        </use>
                        <path d="M-4,0h8M0,-4v8" fill="none" stroke="white" stroke-width="1.5" pointer-events="none"/>
                </g>
                <g id="zoomMin">
                        <use xlink:href="#rim" fill="#404040">
                                <set attributeName="fill" to="#808080" begin="zoomminus.mouseover" end="zoomminus.mouseout"/>
                        </use>
                        <path d="M-4,0h8" fill="none" stroke="white" stroke-width="1.5" pointer-events="none"/>
                </g>
                <g id="dirArrow">
                        <path fill="none" stroke="white" stroke-width="1.5" d="M0,-3.0v7 M-2.5,-0.5L0,-3.0L2.5,-0.5"/>
                </g>
               <g id="resetDef">
                       <use xlink:href="#rim2" fill="#404040">
                               <set attributeName="fill" to="#808080" begin="reset.mouseover" end="reset.mouseout"/>
                       </use>
               </g>
        </defs>

<script type="text/javascript">
var viewWidth = 4668;
var viewHeight = 84;
var sectionId = 'dynsection-1';
</script>
<script xlink:href="svgpan.js"/>
<svg id="graph" class="graph">
<g id="viewport">
<title>src/init.h</title>
<polygon fill="white" stroke="none" points="-4,4 -4,-80 4664,-80 4664,4 -4,4"/>
<!-- Node2 -->
<g id="node1" class="node"><title>Node2</title>
<polygon fill="#bfbfbf" stroke="black" points="2307,-56.5 2307,-75.5 2361,-75.5 2361,-56.5 2307,-56.5"/>
<text text-anchor="middle" x="2334" y="-63.5" font-family="Helvetica,sans-Serif" font-size="10.00">src/init.h</text>
</g>
<!-- Node3 -->
<g id="node2" class="node"><title>Node3</title>
<g id="a_node2"><a xlink:href="activemasternode_8cpp.html" target="_top" xlink:title="src/activemasternode.cpp">
<polygon fill="white" stroke="black" points="-0.5,-0.5 -0.5,-19.5 128.5,-19.5 128.5,-0.5 -0.5,-0.5"/>
<text text-anchor="middle" x="64" y="-7.5" font-family="Helvetica,sans-Serif" font-size="10.00">src/activemasternode.cpp</text>
</a>
</g>
</g>
<!-- Node2&#45;&gt;Node3 -->
<g id="edge1" class="edge"><title>Node2&#45;&gt;Node3</title>
<path fill="none" stroke="midnightblue" d="M2296.85,-64.751C2044.81,-62.9844 582.363,-51.4948 138,-20 134.902,-19.7804 131.734,-19.5229 128.537,-19.2365"/>
<polygon fill="midnightblue" stroke="midnightblue" points="2296.93,-68.2515 2306.95,-64.8211 2296.98,-61.2517 2296.93,-68.2515"/>
</g>
<!-- Node4 -->
<g id="node3" class="node"><title>Node4</title>
<g id="a_node3"><a xlink:href="dashd_8cpp.html" target="_top" xlink:title="src/dashd.cpp">
<polygon fill="white" stroke="black" points="147,-0.5 147,-19.5 225,-19.5 225,-0.5 147,-0.5"/>
<text text-anchor="middle" x="186" y="-7.5" font-family="Helvetica,sans-Serif" font-size="10.00">src/dashd.cpp</text>
</a>
</g>
</g>
<!-- Node2&#45;&gt;Node4 -->
<g id="edge2" class="edge"><title>Node2&#45;&gt;Node4</title>
<path fill="none" stroke="midnightblue" d="M2296.54,-65.0372C2049.96,-65.156 656.633,-63.851 234,-20 231.133,-19.7025 228.18,-19.3253 225.216,-18.8947"/>
<polygon fill="midnightblue" stroke="midnightblue" points="2296.77,-68.5372 2306.77,-65.0311 2296.77,-61.5372 2296.77,-68.5372"/>
</g>
<!-- Node5 -->
<g id="node4" class="node"><title>Node5</title>
<g id="a_node4"><a xlink:href="governance-classes_8cpp.html" target="_top" xlink:title="src/governance&#45;classes.cpp">
<polygon fill="white" stroke="black" points="243.5,-0.5 243.5,-19.5 382.5,-19.5 382.5,-0.5 243.5,-0.5"/>
<text text-anchor="middle" x="313" y="-7.5" font-family="Helvetica,sans-Serif" font-size="10.00">src/governance&#45;classes.cpp</text>
</a>
</g>
</g>
<!-- Node2&#45;&gt;Node5 -->
<g id="edge3" class="edge"><title>Node2&#45;&gt;Node5</title>
<path fill="none" stroke="midnightblue" d="M2296.84,-64.5978C2062.12,-61.9879 782.595,-46.7198 392,-20 388.97,-19.7927 385.878,-19.5546 382.756,-19.2925"/>
<polygon fill="midnightblue" stroke="midnightblue" points="2296.88,-68.0983 2306.91,-64.7091 2296.95,-61.0987 2296.88,-68.0983"/>
</g>
<!-- Node6 -->
<g id="node5" class="node"><title>Node6</title>
<g id="a_node5"><a xlink:href="governance_8cpp.html" target="_top" xlink:title="src/governance.cpp">
<polygon fill="white" stroke="black" points="401,-0.5 401,-19.5 503,-19.5 503,-0.5 401,-0.5"/>
<text text-anchor="middle" x="452" y="-7.5" font-family="Helvetica,sans-Serif" font-size="10.00">src/governance.cpp</text>
</a>
</g>
</g>
<!-- Node2&#45;&gt;Node6 -->
<g id="edge4" class="edge"><title>Node2&#45;&gt;Node6</title>
<path fill="none" stroke="midnightblue" d="M2296.65,-64.7106C2070.01,-62.859 876.602,-51.7241 512,-20 509.062,-19.7443 506.049,-19.437 503.012,-19.0922"/>
<polygon fill="midnightblue" stroke="midnightblue" points="2296.68,-68.2109 2306.71,-64.7918 2296.74,-61.2111 2296.68,-68.2109"/>
</g>
<!-- Node7 -->
<g id="node6" class="node"><title>Node7</title>
<g id="a_node6"><a xlink:href="init_8cpp.html" target="_top" xlink:title="src/init.cpp">
<polygon fill="white" stroke="black" points="521.5,-0.5 521.5,-19.5 586.5,-19.5 586.5,-0.5 521.5,-0.5"/>
<text text-anchor="middle" x="554" y="-7.5" font-family="Helvetica,sans-Serif" font-size="10.00">src/init.cpp</text>
</a>
</g>
</g>
<!-- Node2&#45;&gt;Node7 -->
<g id="edge5" class="edge"><title>Node2&#45;&gt;Node7</title>
<path fill="none" stroke="midnightblue" d="M2296.62,-64.9744C2075.99,-64.6808 941.76,-61.1618 596,-20 593.038,-19.6474 589.976,-19.1852 586.918,-18.6564"/>
<polygon fill="midnightblue" stroke="midnightblue" points="2296.71,-68.4744 2306.72,-64.9864 2296.72,-61.4744 2296.71,-68.4744"/>
</g>
<!-- Node8 -->
<g id="node7" class="node"><title>Node8</title>
<g id="a_node7"><a xlink:href="instantx_8cpp.html" target="_top" xlink:title="src/instantx.cpp">
<polygon fill="white" stroke="black" points="605,-0.5 605,-19.5 691,-19.5 691,-0.5 605,-0.5"/>
<text text-anchor="middle" x="648" y="-7.5" font-family="Helvetica,sans-Serif" font-size="10.00">src/instantx.cpp</text>
</a>
</g>
</g>
<!-- Node2&#45;&gt;Node8 -->
<g id="edge6" class="edge"><title>Node2&#45;&gt;Node8</title>
<path fill="none" stroke="midnightblue" d="M2296.89,-64.7043C2084.84,-62.905 1024.73,-52.4035 700,-20 697.083,-19.7089 694.082,-19.3499 691.065,-18.9446"/>
<polygon fill="midnightblue" stroke="midnightblue" points="2296.87,-68.2042 2306.89,-64.7881 2296.92,-61.2044 2296.87,-68.2042"/>
</g>
<!-- Node9 -->
<g id="node8" class="node"><title>Node9</title>
<g id="a_node8"><a xlink:href="masternode-payments_8cpp.html" target="_top" xlink:title="src/masternode&#45;payments.cpp">
<polygon fill="white" stroke="black" points="709.5,-0.5 709.5,-19.5 858.5,-19.5 858.5,-0.5 709.5,-0.5"/>
<text text-anchor="middle" x="784" y="-7.5" font-family="Helvetica,sans-Serif" font-size="10.00">src/masternode&#45;payments.cpp</text>
</a>
</g>
</g>
<!-- Node2&#45;&gt;Node9 -->
<g id="edge7" class="edge"><title>Node2&#45;&gt;Node9</title>
<path fill="none" stroke="midnightblue" d="M2296.75,-64.9168C2129.98,-64.3216 1435.36,-59.4723 867,-20 864.253,-19.8092 861.456,-19.5971 858.632,-19.368"/>
<polygon fill="midnightblue" stroke="midnightblue" points="2296.95,-68.4174 2306.96,-64.9502 2296.97,-61.4175 2296.95,-68.4174"/>
</g>
<!-- Node10 -->
<g id="node9" class="node"><title>Node10</title>
<g id="a_node9"><a xlink:href="masternode-sync_8cpp.html" target="_top" xlink:title="src/masternode&#45;sync.cpp">
<polygon fill="white" stroke="black" points="876.5,-0.5 876.5,-19.5 1003.5,-19.5 1003.5,-0.5 876.5,-0.5"/>
<text text-anchor="middle" x="940" y="-7.5" font-family="Helvetica,sans-Serif" font-size="10.00">src/masternode&#45;sync.cpp</text>
</a>
</g>
</g>
<!-- Node2&#45;&gt;Node10 -->
<g id="edge8" class="edge"><title>Node2&#45;&gt;Node10</title>
<path fill="none" stroke="midnightblue" d="M2296.92,-64.9632C2140.61,-64.5497 1519.99,-60.3125 1012,-20 1009.24,-19.7808 1006.42,-19.5327 1003.57,-19.2625"/>
<polygon fill="midnightblue" stroke="midnightblue" points="2296.95,-68.4632 2306.96,-64.986 2296.96,-61.4632 2296.95,-68.4632"/>
</g>
<!-- Node11 -->
<g id="node10" class="node"><title>Node11</title>
<g id="a_node10"><a xlink:href="masternode_8cpp.html" target="_top" xlink:title="src/masternode.cpp">
<polygon fill="white" stroke="black" points="1021.5,-0.5 1021.5,-19.5 1124.5,-19.5 1124.5,-0.5 1021.5,-0.5"/>
<text text-anchor="middle" x="1073" y="-7.5" font-family="Helvetica,sans-Serif" font-size="10.00">src/masternode.cpp</text>
</a>
</g>
</g>
<!-- Node2&#45;&gt;Node11 -->
<g id="edge9" class="edge"><title>Node2&#45;&gt;Node11</title>
<path fill="none" stroke="midnightblue" d="M2296.57,-65.08C2148.65,-65.0823 1590.71,-62.1282 1134,-20 1130.91,-19.7148 1127.73,-19.3788 1124.54,-19.0071"/>
<polygon fill="midnightblue" stroke="midnightblue" points="2296.9,-68.5799 2306.89,-65.0748 2296.89,-61.5799 2296.9,-68.5799"/>
</g>
<!-- Node12 -->
<g id="node11" class="node"><title>Node12</title>
<g id="a_node11"><a xlink:href="masternodeman_8cpp.html" target="_top" xlink:title="src/masternodeman.cpp">
<polygon fill="white" stroke="black" points="1143,-0.5 1143,-19.5 1265,-19.5 1265,-0.5 1143,-0.5"/>
<text text-anchor="middle" x="1204" y="-7.5" font-family="Helvetica,sans-Serif" font-size="10.00">src/masternodeman.cpp</text>
</a>
</g>
</g>
<!-- Node2&#45;&gt;Node12 -->
<g id="edge10" class="edge"><title>Node2&#45;&gt;Node12</title>
<path fill="none" stroke="midnightblue" d="M2296.57,-64.5673C2159.69,-62.7391 1673.37,-54.0879 1274,-20 1271.07,-19.7499 1268.07,-19.4676 1265.05,-19.1613"/>
<polygon fill="midnightblue" stroke="midnightblue" points="2296.87,-68.0714 2306.92,-64.7012 2296.96,-61.0719 2296.87,-68.0714"/>
</g>
<!-- Node13 -->
<g id="node12" class="node"><title>Node13</title>
<g id="a_node12"><a xlink:href="net__processing_8cpp.html" target="_top" xlink:title="src/net_processing.cpp">
<polygon fill="white" stroke="black" points="1283,-0.5 1283,-19.5 1401,-19.5 1401,-0.5 1283,-0.5"/>
<text text-anchor="middle" x="1342" y="-7.5" font-family="Helvetica,sans-Serif" font-size="10.00">src/net_processing.cpp</text>
</a>
</g>
</g>
<!-- Node2&#45;&gt;Node13 -->
<g id="edge11" class="edge"><title>Node2&#45;&gt;Node13</title>
<path fill="none" stroke="midnightblue" d="M2296.5,-64.289C2170.88,-61.6695 1753.49,-51.0412 1410,-20 1407.15,-19.7428 1404.24,-19.4547 1401.31,-19.1437"/>
<polygon fill="midnightblue" stroke="midnightblue" points="2296.66,-67.793 2306.73,-64.498 2296.8,-60.7944 2296.66,-67.793"/>
</g>
<!-- Node14 -->
<g id="node13" class="node"><title>Node14</title>
<g id="a_node13"><a xlink:href="netfulfilledman_8cpp.html" target="_top" xlink:title="src/netfulfilledman.cpp">
<polygon fill="white" stroke="black" points="1419.5,-0.5 1419.5,-19.5 1534.5,-19.5 1534.5,-0.5 1419.5,-0.5"/>
<text text-anchor="middle" x="1477" y="-7.5" font-family="Helvetica,sans-Serif" font-size="10.00">src/netfulfilledman.cpp</text>
</a>
</g>
</g>
<!-- Node2&#45;&gt;Node14 -->
<g id="edge12" class="edge"><title>Node2&#45;&gt;Node14</title>
<path fill="none" stroke="midnightblue" d="M2296.4,-63.8816C2182.74,-60.2809 1832.8,-47.5819 1544,-20 1540.96,-19.7099 1537.85,-19.3859 1534.71,-19.0378"/>
<polygon fill="midnightblue" stroke="midnightblue" points="2296.55,-67.3878 2306.65,-64.2018 2296.77,-60.3912 2296.55,-67.3878"/>
</g>
<!-- Node15 -->
<g id="node14" class="node"><title>Node15</title>
<g id="a_node14"><a xlink:href="privatesend-client_8cpp.html" target="_top" xlink:title="src/privatesend&#45;client.cpp">
<polygon fill="white" stroke="black" points="1553,-0.5 1553,-19.5 1681,-19.5 1681,-0.5 1553,-0.5"/>
<text text-anchor="middle" x="1617" y="-7.5" font-family="Helvetica,sans-Serif" font-size="10.00">src/privatesend&#45;client.cpp</text>
</a>
</g>
</g>
<!-- Node2&#45;&gt;Node15 -->
<g id="edge13" class="edge"><title>Node2&#45;&gt;Node15</title>
<path fill="none" stroke="midnightblue" d="M2296.88,-63.0953C2198.06,-57.8748 1920.34,-42.2314 1690,-20 1687.08,-19.7179 1684.09,-19.4138 1681.07,-19.0939"/>
<polygon fill="midnightblue" stroke="midnightblue" points="2296.79,-66.5953 2306.96,-63.6243 2297.16,-59.6049 2296.79,-66.5953"/>
</g>
<!-- Node16 -->
<g id="node15" class="node"><title>Node16</title>
<g id="a_node15"><a xlink:href="privatesend-server_8cpp.html" target="_top" xlink:title="src/privatesend&#45;server.cpp">
<polygon fill="white" stroke="black" points="1699,-0.5 1699,-19.5 1831,-19.5 1831,-0.5 1699,-0.5"/>
<text text-anchor="middle" x="1765" y="-7.5" font-family="Helvetica,sans-Serif" font-size="10.00">src/privatesend&#45;server.cpp</text>
</a>
</g>
</g>
<!-- Node2&#45;&gt;Node16 -->
<g id="edge14" class="edge"><title>Node2&#45;&gt;Node16</title>
<path fill="none" stroke="midnightblue" d="M2296.81,-61.9782C2214.45,-55.2052 2010.45,-37.987 1840,-20 1837.13,-19.6972 1834.2,-19.38 1831.24,-19.0531"/>
<polygon fill="midnightblue" stroke="midnightblue" points="2296.68,-65.4787 2306.93,-62.8078 2297.25,-58.5021 2296.68,-65.4787"/>
</g>
<!-- Node17 -->
<g id="node16" class="node"><title>Node17</title>
<g id="a_node16"><a xlink:href="bitcoingui_8cpp.html" target="_top" xlink:title="src/qt/bitcoingui.cpp">
<polygon fill="white" stroke="black" points="1849,-0.5 1849,-19.5 1953,-19.5 1953,-0.5 1849,-0.5"/>
<text text-anchor="middle" x="1901" y="-7.5" font-family="Helvetica,sans-Serif" font-size="10.00">src/qt/bitcoingui.cpp</text>
</a>
</g>
</g>
<!-- Node2&#45;&gt;Node17 -->
<g id="edge15" class="edge"><title>Node2&#45;&gt;Node17</title>
<path fill="none" stroke="midnightblue" d="M2296.83,-60.8294C2229.84,-53.2391 2084.4,-36.4303 1962,-20 1959.14,-19.6155 1956.2,-19.212 1953.23,-18.7977"/>
<polygon fill="midnightblue" stroke="midnightblue" points="2296.57,-64.3214 2306.9,-61.967 2297.35,-57.3657 2296.57,-64.3214"/>
</g>
<!-- Node18 -->
<g id="node17" class="node"><title>Node18</title>
<g id="a_node17"><a xlink:href="coincontroldialog_8cpp.html" target="_top" xlink:title="src/qt/coincontroldialog.cpp">
<polygon fill="white" stroke="black" points="1971,-0.5 1971,-19.5 2107,-19.5 2107,-0.5 1971,-0.5"/>
<text text-anchor="middle" x="2039" y="-7.5" font-family="Helvetica,sans-Serif" font-size="10.00">src/qt/coincontroldialog.cpp</text>
</a>
</g>
</g>
<!-- Node2&#45;&gt;Node18 -->
<g id="edge16" class="edge"><title>Node2&#45;&gt;Node18</title>
<path fill="none" stroke="midnightblue" d="M2296.67,-58.1662C2242.98,-48.3385 2144.02,-30.2233 2085.6,-19.5304"/>
<polygon fill="midnightblue" stroke="midnightblue" points="2296.31,-61.6587 2306.78,-60.0166 2297.57,-54.7731 2296.31,-61.6587"/>
</g>
<!-- Node19 -->
<g id="node18" class="node"><title>Node19</title>
<g id="a_node18"><a xlink:href="dash_8cpp.html" target="_top" xlink:title="src/qt/dash.cpp">
<polygon fill="white" stroke="black" points="2125,-0.5 2125,-19.5 2209,-19.5 2209,-0.5 2125,-0.5"/>
<text text-anchor="middle" x="2167" y="-7.5" font-family="Helvetica,sans-Serif" font-size="10.00">src/qt/dash.cpp</text>
</a>
</g>
</g>
<!-- Node2&#45;&gt;Node19 -->
<g id="edge17" class="edge"><title>Node2&#45;&gt;Node19</title>
<path fill="none" stroke="midnightblue" d="M2297.83,-53.3044C2266.36,-43.1294 2221.51,-28.6246 2193.34,-19.5164"/>
<polygon fill="midnightblue" stroke="midnightblue" points="2296.95,-56.697 2307.54,-56.4435 2299.1,-50.0366 2296.95,-56.697"/>
</g>
<!-- Node20 -->
<g id="node19" class="node"><title>Node20</title>
<g id="a_node19"><a xlink:href="guiutil_8cpp.html" target="_top" xlink:title="src/qt/guiutil.cpp">
<polygon fill="white" stroke="black" points="2226.5,-0.5 2226.5,-19.5 2315.5,-19.5 2315.5,-0.5 2226.5,-0.5"/>
<text text-anchor="middle" x="2271" y="-7.5" font-family="Helvetica,sans-Serif" font-size="10.00">src/qt/guiutil.cpp</text>
</a>
</g>
</g>
<!-- Node2&#45;&gt;Node20 -->
<g id="edge18" class="edge"><title>Node2&#45;&gt;Node20</title>
<path fill="none" stroke="midnightblue" d="M2315.96,-49.5372C2304.73,-39.9087 2290.68,-27.8694 2281.31,-19.8339"/>
<polygon fill="midnightblue" stroke="midnightblue" points="2314.01,-52.4734 2323.88,-56.324 2318.56,-47.1586 2314.01,-52.4734"/>
</g>
<!-- Node21 -->
<g id="node20" class="node"><title>Node21</title>
<g id="a_node20"><a xlink:href="masternodelist_8cpp.html" target="_top" xlink:title="src/qt/masternodelist.cpp">
<polygon fill="white" stroke="black" points="2333.5,-0.5 2333.5,-19.5 2460.5,-19.5 2460.5,-0.5 2333.5,-0.5"/>
<text text-anchor="middle" x="2397" y="-7.5" font-family="Helvetica,sans-Serif" font-size="10.00">src/qt/masternodelist.cpp</text>
</a>
</g>
</g>
<!-- Node2&#45;&gt;Node21 -->
<g id="edge19" class="edge"><title>Node2&#45;&gt;Node21</title>
<path fill="none" stroke="midnightblue" d="M2352.04,-49.5372C2363.27,-39.9087 2377.32,-27.8694 2386.69,-19.8339"/>
<polygon fill="midnightblue" stroke="midnightblue" points="2349.44,-47.1586 2344.12,-56.324 2353.99,-52.4734 2349.44,-47.1586"/>
</g>
<!-- Node22 -->
<g id="node21" class="node"><title>Node22</title>
<g id="a_node21"><a xlink:href="optionsmodel_8cpp.html" target="_top" xlink:title="src/qt/optionsmodel.cpp">
<polygon fill="white" stroke="black" points="2478.5,-0.5 2478.5,-19.5 2599.5,-19.5 2599.5,-0.5 2478.5,-0.5"/>
<text text-anchor="middle" x="2539" y="-7.5" font-family="Helvetica,sans-Serif" font-size="10.00">src/qt/optionsmodel.cpp</text>
</a>
</g>
</g>
<!-- Node2&#45;&gt;Node22 -->
<g id="edge20" class="edge"><title>Node2&#45;&gt;Node22</title>
<path fill="none" stroke="midnightblue" d="M2371.04,-55.2418C2409.71,-45.0563 2469.75,-29.2426 2506.59,-19.5371"/>
<polygon fill="midnightblue" stroke="midnightblue" points="2370,-51.8973 2361.22,-57.8292 2371.78,-58.6664 2370,-51.8973"/>
</g>
<!-- Node23 -->
<g id="node22" class="node"><title>Node23</title>
<g id="a_node22"><a xlink:href="overviewpage_8cpp.html" target="_top" xlink:title="src/qt/overviewpage.cpp">
<polygon fill="white" stroke="black" points="2617.5,-0.5 2617.5,-19.5 2740.5,-19.5 2740.5,-0.5 2617.5,-0.5"/>
<text text-anchor="middle" x="2679" y="-7.5" font-family="Helvetica,sans-Serif" font-size="10.00">src/qt/overviewpage.cpp</text>
</a>
</g>
</g>
<!-- Node2&#45;&gt;Node23 -->
<g id="edge21" class="edge"><title>Node2&#45;&gt;Node23</title>
<path fill="none" stroke="midnightblue" d="M2371.02,-59.2062C2431.96,-49.6675 2553.7,-30.6117 2624.51,-19.5295"/>
<polygon fill="midnightblue" stroke="midnightblue" points="2370.41,-55.7583 2361.07,-60.7627 2371.49,-62.6741 2370.41,-55.7583"/>
</g>
<!-- Node24 -->
<g id="node23" class="node"><title>Node24</title>
<g id="a_node23"><a xlink:href="signverifymessagedialog_8cpp.html" target="_top" xlink:title="src/qt/signverifymessagedialog.cpp">
<polygon fill="white" stroke="black" points="2759,-0.5 2759,-19.5 2929,-19.5 2929,-0.5 2759,-0.5"/>
<text text-anchor="middle" x="2844" y="-7.5" font-family="Helvetica,sans-Serif" font-size="10.00">src/qt/signverifymessagedialog.cpp</text>
</a>
</g>
</g>
<!-- Node2&#45;&gt;Node24 -->
<g id="edge22" class="edge"><title>Node2&#45;&gt;Node24</title>
<path fill="none" stroke="midnightblue" d="M2371.17,-61.0645C2453.27,-52.3718 2651.65,-31.3667 2763.61,-19.5115"/>
<polygon fill="midnightblue" stroke="midnightblue" points="2370.64,-57.6013 2361.06,-62.1349 2371.37,-64.5624 2370.64,-57.6013"/>
</g>
<!-- Node25 -->
<g id="node24" class="node"><title>Node25</title>
<g id="a_node24"><a xlink:href="splashscreen_8cpp.html" target="_top" xlink:title="src/qt/splashscreen.cpp">
<polygon fill="white" stroke="black" points="2947.5,-0.5 2947.5,-19.5 3068.5,-19.5 3068.5,-0.5 2947.5,-0.5"/>
<text text-anchor="middle" x="3008" y="-7.5" font-family="Helvetica,sans-Serif" font-size="10.00">src/qt/splashscreen.cpp</text>
</a>
</g>
</g>
<!-- Node2&#45;&gt;Node25 -->
<g id="edge23" class="edge"><title>Node2&#45;&gt;Node25</title>
<path fill="none" stroke="midnightblue" d="M2371.36,-62.9138C2466.21,-57.4669 2723.94,-41.719 2938,-20 2941.05,-19.6908 2944.17,-19.3561 2947.32,-19.004"/>
<polygon fill="midnightblue" stroke="midnightblue" points="2370.92,-59.4334 2361.14,-63.4975 2371.32,-66.422 2370.92,-59.4334"/>
</g>
<!-- Node26 -->
<g id="node25" class="node"><title>Node26</title>
<g id="a_node25"><a xlink:href="utilitydialog_8cpp.html" target="_top" xlink:title="src/qt/utilitydialog.cpp">
<polygon fill="white" stroke="black" points="3087,-0.5 3087,-19.5 3199,-19.5 3199,-0.5 3087,-0.5"/>
<text text-anchor="middle" x="3143" y="-7.5" font-family="Helvetica,sans-Serif" font-size="10.00">src/qt/utilitydialog.cpp</text>
</a>
</g>
</g>
<!-- Node2&#45;&gt;Node26 -->
<g id="edge24" class="edge"><title>Node2&#45;&gt;Node26</title>
<path fill="none" stroke="midnightblue" d="M2371.18,-63.7359C2479.94,-59.8253 2806.91,-46.5563 3077,-20 3080.22,-19.6832 3083.53,-19.3279 3086.86,-18.9466"/>
<polygon fill="midnightblue" stroke="midnightblue" points="2370.92,-60.2429 2361.05,-64.0956 2371.16,-67.2385 2370.92,-60.2429"/>
</g>
<!-- Node27 -->
<g id="node26" class="node"><title>Node27</title>
<g id="a_node26"><a xlink:href="rpc_2governance_8cpp.html" target="_top" xlink:title="src/rpc/governance.cpp">
<polygon fill="white" stroke="black" points="3217.5,-0.5 3217.5,-19.5 3336.5,-19.5 3336.5,-0.5 3217.5,-0.5"/>
<text text-anchor="middle" x="3277" y="-7.5" font-family="Helvetica,sans-Serif" font-size="10.00">src/rpc/governance.cpp</text>
</a>
</g>
</g>
<!-- Node2&#45;&gt;Node27 -->
<g id="edge25" class="edge"><title>Node2&#45;&gt;Node27</title>
<path fill="none" stroke="midnightblue" d="M2371.42,-64.093C2492.45,-60.9407 2884.2,-49.0279 3207,-20 3210.42,-19.6927 3213.92,-19.345 3217.46,-18.9693"/>
<polygon fill="midnightblue" stroke="midnightblue" points="2371.12,-60.5995 2361.21,-64.3547 2371.29,-67.5972 2371.12,-60.5995"/>
</g>
<!-- Node28 -->
<g id="node27" class="node"><title>Node28</title>
<g id="a_node27"><a xlink:href="rpc_2masternode_8cpp.html" target="_top" xlink:title="src/rpc/masternode.cpp">
<polygon fill="white" stroke="black" points="3354.5,-0.5 3354.5,-19.5 3473.5,-19.5 3473.5,-0.5 3354.5,-0.5"/>
<text text-anchor="middle" x="3414" y="-7.5" font-family="Helvetica,sans-Serif" font-size="10.00">src/rpc/masternode.cpp</text>
</a>
</g>
</g>
<!-- Node2&#45;&gt;Node28 -->
<g id="edge26" class="edge"><title>Node2&#45;&gt;Node28</title>
<path fill="none" stroke="midnightblue" d="M2371.02,-64.4905C2503.38,-62.4271 2965.4,-53.1436 3345,-20 3348.01,-19.7373 3351.09,-19.4401 3354.19,-19.1176"/>
<polygon fill="midnightblue" stroke="midnightblue" points="2370.95,-60.9911 2361,-64.6426 2371.06,-67.9903 2370.95,-60.9911"/>
</g>
<!-- Node29 -->
<g id="node28" class="node"><title>Node29</title>
<g id="a_node28"><a xlink:href="mining_8cpp.html" target="_top" xlink:title="src/rpc/mining.cpp">
<polygon fill="white" stroke="black" points="3491.5,-0.5 3491.5,-19.5 3588.5,-19.5 3588.5,-0.5 3491.5,-0.5"/>
<text text-anchor="middle" x="3540" y="-7.5" font-family="Helvetica,sans-Serif" font-size="10.00">src/rpc/mining.cpp</text>
</a>
</g>
</g>
<!-- Node2&#45;&gt;Node29 -->
<g id="edge27" class="edge"><title>Node2&#45;&gt;Node29</title>
<path fill="none" stroke="midnightblue" d="M2371.25,-65.0908C2514.91,-65.1129 3046.7,-62.1645 3482,-20 3485.04,-19.7053 3488.17,-19.356 3491.32,-18.9691"/>
<polygon fill="midnightblue" stroke="midnightblue" points="2371.2,-61.5909 2361.2,-65.0841 2371.19,-68.5909 2371.2,-61.5909"/>
</g>
<!-- Node30 -->
<g id="node29" class="node"><title>Node30</title>
<g id="a_node29"><a xlink:href="misc_8cpp.html" target="_top" xlink:title="src/rpc/misc.cpp">
<polygon fill="white" stroke="black" points="3606.5,-0.5 3606.5,-19.5 3695.5,-19.5 3695.5,-0.5 3606.5,-0.5"/>
<text text-anchor="middle" x="3651" y="-7.5" font-family="Helvetica,sans-Serif" font-size="10.00">src/rpc/misc.cpp</text>
</a>
</g>
</g>
<!-- Node2&#45;&gt;Node30 -->
<g id="edge28" class="edge"><title>Node2&#45;&gt;Node30</title>
<path fill="none" stroke="midnightblue" d="M2371.42,-65.4325C2524.1,-66.8244 3114.66,-68.5813 3597,-20 3600.03,-19.6952 3603.14,-19.326 3606.27,-18.9132"/>
<polygon fill="midnightblue" stroke="midnightblue" points="2371.23,-61.9305 2361.2,-65.3336 2371.16,-68.9302 2371.23,-61.9305"/>
</g>
<!-- Node31 -->
<g id="node30" class="node"><title>Node31</title>
<g id="a_node30"><a xlink:href="rawtransaction_8cpp.html" target="_top" xlink:title="src/rpc/rawtransaction.cpp">
<polygon fill="white" stroke="black" points="3714,-0.5 3714,-19.5 3846,-19.5 3846,-0.5 3714,-0.5"/>
<text text-anchor="middle" x="3780" y="-7.5" font-family="Helvetica,sans-Serif" font-size="10.00">src/rpc/rawtransaction.cpp</text>
</a>
</g>
</g>
<!-- Node2&#45;&gt;Node31 -->
<g id="edge29" class="edge"><title>Node2&#45;&gt;Node31</title>
<path fill="none" stroke="midnightblue" d="M2371.35,-64.9369C2531.55,-64.4213 3176.27,-59.8419 3704,-20 3707.18,-19.7599 3710.43,-19.4858 3713.71,-19.1861"/>
<polygon fill="midnightblue" stroke="midnightblue" points="2371.08,-61.4376 2361.09,-64.9664 2371.1,-68.4376 2371.08,-61.4376"/>
</g>
<!-- Node32 -->
<g id="node31" class="node"><title>Node32</title>
<g id="a_node31"><a xlink:href="rpcevo_8cpp.html" target="_top" xlink:title="src/rpc/rpcevo.cpp">
<polygon fill="white" stroke="black" points="3864,-0.5 3864,-19.5 3962,-19.5 3962,-0.5 3864,-0.5"/>
<text text-anchor="middle" x="3913" y="-7.5" font-family="Helvetica,sans-Serif" font-size="10.00">src/rpc/rpcevo.cpp</text>
</a>
</g>
</g>
<!-- Node2&#45;&gt;Node32 -->
<g id="edge30" class="edge"><title>Node2&#45;&gt;Node32</title>
<path fill="none" stroke="midnightblue" d="M2371.39,-64.5255C2575.2,-61.8432 3553.91,-47.7057 3855,-20 3857.84,-19.7386 3860.75,-19.4266 3863.69,-19.0784"/>
<polygon fill="midnightblue" stroke="midnightblue" points="2371.16,-61.0281 2361.2,-64.6585 2371.25,-68.0275 2371.16,-61.0281"/>
</g>
<!-- Node33 -->
<g id="node32" class="node"><title>Node33</title>
<g id="a_node32"><a xlink:href="server_8cpp.html" target="_top" xlink:title="src/rpc/server.cpp">
<polygon fill="white" stroke="black" points="3980.5,-0.5 3980.5,-19.5 4075.5,-19.5 4075.5,-0.5 3980.5,-0.5"/>
<text text-anchor="middle" x="4028" y="-7.5" font-family="Helvetica,sans-Serif" font-size="10.00">src/rpc/server.cpp</text>
</a>
</g>
</g>
<!-- Node2&#45;&gt;Node33 -->
<g id="edge31" class="edge"><title>Node2&#45;&gt;Node33</title>
<path fill="none" stroke="midnightblue" d="M2371.15,-64.6176C2583.41,-62.3359 3644.6,-49.6022 3970,-20 3973.35,-19.6953 3976.8,-19.3197 3980.27,-18.8964"/>
<polygon fill="midnightblue" stroke="midnightblue" points="2371.1,-61.1179 2361.13,-64.7243 2371.17,-68.1175 2371.1,-61.1179"/>
</g>
<!-- Node34 -->
<g id="node33" class="node"><title>Node34</title>
<g id="a_node33"><a xlink:href="sendalert_8cpp.html" target="_top" xlink:title="src/sendalert.cpp">
<polygon fill="white" stroke="black" points="4094,-0.5 4094,-19.5 4186,-19.5 4186,-0.5 4094,-0.5"/>
<text text-anchor="middle" x="4140" y="-7.5" font-family="Helvetica,sans-Serif" font-size="10.00">src/sendalert.cpp</text>
</a>
</g>
</g>
<!-- Node2&#45;&gt;Node34 -->
<g id="edge32" class="edge"><title>Node2&#45;&gt;Node34</title>
<path fill="none" stroke="midnightblue" d="M2371.25,-64.7208C2592.38,-62.9607 3734.71,-52.4124 4084,-20 4087.24,-19.6998 4090.57,-19.3274 4093.92,-18.9064"/>
<polygon fill="midnightblue" stroke="midnightblue" points="2371.11,-61.2217 2361.14,-64.8002 2371.17,-68.2215 2371.11,-61.2217"/>
</g>
<!-- Node35 -->
<g id="node34" class="node"><title>Node35</title>
<g id="a_node34"><a xlink:href="txdb_8cpp.html" target="_top" xlink:title="src/txdb.cpp">
<polygon fill="white" stroke="black" points="4204.5,-0.5 4204.5,-19.5 4275.5,-19.5 4275.5,-0.5 4204.5,-0.5"/>
<text text-anchor="middle" x="4240" y="-7.5" font-family="Helvetica,sans-Serif" font-size="10.00">src/txdb.cpp</text>
</a>
</g>
</g>
<!-- Node2&#45;&gt;Node35 -->
<g id="edge33" class="edge"><title>Node2&#45;&gt;Node35</title>
<path fill="none" stroke="midnightblue" d="M2371.44,-64.9791C2601.22,-64.7173 3823.09,-61.3719 4195,-20 4198.01,-19.6653 4201.12,-19.2316 4204.23,-18.7358"/>
<polygon fill="midnightblue" stroke="midnightblue" points="2371.25,-61.4792 2361.25,-64.9894 2371.25,-68.4792 2371.25,-61.4792"/>
</g>
<!-- Node36 -->
<g id="node35" class="node"><title>Node36</title>
<g id="a_node35"><a xlink:href="validation_8cpp.html" target="_top" xlink:title="src/validation.cpp">
<polygon fill="white" stroke="black" points="4293.5,-0.5 4293.5,-19.5 4386.5,-19.5 4386.5,-0.5 4293.5,-0.5"/>
<text text-anchor="middle" x="4340" y="-7.5" font-family="Helvetica,sans-Serif" font-size="10.00">src/validation.cpp</text>
</a>
</g>
</g>
<!-- Node2&#45;&gt;Node36 -->
<g id="edge34" class="edge"><title>Node2&#45;&gt;Node36</title>
<path fill="none" stroke="midnightblue" d="M2371.33,-64.8338C2607.13,-63.679 3892.51,-55.8077 4284,-20 4287.04,-19.722 4290.16,-19.3793 4293.31,-18.9917"/>
<polygon fill="midnightblue" stroke="midnightblue" points="2371.19,-61.3343 2361.21,-64.8823 2371.23,-68.3342 2371.19,-61.3343"/>
</g>
<!-- Node37 -->
<g id="node36" class="node"><title>Node37</title>
<g id="a_node36"><a xlink:href="rpcdump_8cpp.html" target="_top" xlink:title="src/wallet/rpcdump.cpp">
<polygon fill="white" stroke="black" points="4405,-0.5 4405,-19.5 4523,-19.5 4523,-0.5 4405,-0.5"/>
<text text-anchor="middle" x="4464" y="-7.5" font-family="Helvetica,sans-Serif" font-size="10.00">src/wallet/rpcdump.cpp</text>
</a>
</g>
</g>
<!-- Node2&#45;&gt;Node37 -->
<g id="edge35" class="edge"><title>Node2&#45;&gt;Node37</title>
<path fill="none" stroke="midnightblue" d="M2371.12,-64.7378C2614.02,-62.9398 3979.4,-51.5489 4395,-20 4398.25,-19.7531 4401.59,-19.4582 4404.95,-19.1281"/>
<polygon fill="midnightblue" stroke="midnightblue" points="2371.02,-61.2384 2361.04,-64.8117 2371.07,-68.2382 2371.02,-61.2384"/>
</g>
<!-- Node38 -->
<g id="node37" class="node"><title>Node38</title>
<g id="a_node37"><a xlink:href="rpcwallet_8cpp.html" target="_top" xlink:title="src/wallet/rpcwallet.cpp">
<polygon fill="white" stroke="black" points="4541.5,-0.5 4541.5,-19.5 4660.5,-19.5 4660.5,-0.5 4541.5,-0.5"/>
<text text-anchor="middle" x="4601" y="-7.5" font-family="Helvetica,sans-Serif" font-size="10.00">src/wallet/rpcwallet.cpp</text>
</a>
</g>
</g>
<!-- Node2&#45;&gt;Node38 -->
<g id="edge36" class="edge"><title>Node2&#45;&gt;Node38</title>
<path fill="none" stroke="midnightblue" d="M2371.19,-64.7957C2623.47,-63.3256 4087.37,-53.4483 4532,-20 4535.01,-19.7734 4538.09,-19.5053 4541.2,-19.2059"/>
<polygon fill="midnightblue" stroke="midnightblue" points="2371.05,-61.2963 2361.07,-64.8538 2371.09,-68.2962 2371.05,-61.2963"/>
</g>
</g>
</svg>
        <g id="navigator" transform="translate(0 0)" fill="#404254">
                <rect fill="#f2f5e9" fill-opacity="0.5" stroke="#606060" stroke-width=".5" x="0" y="0" width="60" height="60"/>
                <use id="zoomplus" xlink:href="#zoomPlus" x="17" y="9" onmousedown="handleZoom(evt,'in')"/>
                <use id="zoomminus" xlink:href="#zoomMin" x="42" y="9" onmousedown="handleZoom(evt,'out')"/>
                <use id="reset" xlink:href="#resetDef" x="30" y="36" onmousedown="handleReset()"/>
                <g id="arrowUp" xlink:href="#dirArrow" transform="translate(30 24)" onmousedown="handlePan(0,-1)">
                  <use xlink:href="#rim" fill="#404040">
                        <set attributeName="fill" to="#808080" begin="arrowUp.mouseover" end="arrowUp.mouseout"/>
                  </use>
                  <path fill="none" stroke="white" stroke-width="1.5" d="M0,-3.0v7 M-2.5,-0.5L0,-3.0L2.5,-0.5"/>
                </g>
                <g id="arrowRight" xlink:href="#dirArrow" transform="rotate(90) translate(36 -43)" onmousedown="handlePan(1,0)">
                  <use xlink:href="#rim" fill="#404040">
                        <set attributeName="fill" to="#808080" begin="arrowRight.mouseover" end="arrowRight.mouseout"/>
                  </use>
                  <path fill="none" stroke="white" stroke-width="1.5" d="M0,-3.0v7 M-2.5,-0.5L0,-3.0L2.5,-0.5"/>
                </g>
                <g id="arrowDown" xlink:href="#dirArrow" transform="rotate(180) translate(-30 -48)" onmousedown="handlePan(0,1)">
                  <use xlink:href="#rim" fill="#404040">
                        <set attributeName="fill" to="#808080" begin="arrowDown.mouseover" end="arrowDown.mouseout"/>
                  </use>
                  <path fill="none" stroke="white" stroke-width="1.5" d="M0,-3.0v7 M-2.5,-0.5L0,-3.0L2.5,-0.5"/>
                </g>
                <g id="arrowLeft" xlink:href="#dirArrow" transform="rotate(270) translate(-36 17)" onmousedown="handlePan(-1,0)">
                  <use xlink:href="#rim" fill="#404040">
                        <set attributeName="fill" to="#808080" begin="arrowLeft.mouseover" end="arrowLeft.mouseout"/>
                  </use>
                  <path fill="none" stroke="white" stroke-width="1.5" d="M0,-3.0v7 M-2.5,-0.5L0,-3.0L2.5,-0.5"/>
                </g>
        </g>
        <svg viewBox="0 0 15 15" width="100%" height="30px" preserveAspectRatio="xMaxYMin meet">
         <g id="arrow_out" transform="scale(0.3 0.3)">
          <a xlink:href="init_8h__dep__incl_org.svg" target="_base">
           <rect id="button" ry="5" rx="5" y="6" x="6" height="38" width="38"
                fill="#f2f5e9" fill-opacity="0.5" stroke="#606060" stroke-width="1.0"/>
           <path id="arrow"
             d="M 11.500037,31.436501 C 11.940474,20.09759 22.043105,11.32322 32.158766,21.979434 L 37.068811,17.246167 C 37.068811,17.246167 37.088388,32 37.088388,32 L 22.160133,31.978069 C 22.160133,31.978069 26.997745,27.140456 26.997745,27.140456 C 18.528582,18.264221 13.291696,25.230495 11.500037,31.436501 z"
             style="fill:#404040;"/>
          </a>
         </g>
        </svg>
</svg>
