<?xml version="1.0" encoding="UTF-8" standalone="no"?>
<!DOCTYPE svg PUBLIC "-//W3C//DTD SVG 1.1//EN"
 "http://www.w3.org/Graphics/SVG/1.1/DTD/svg11.dtd">
<!-- Generated by graphviz version 2.36.0 (20140111.2315)
 -->
<!-- Title: src/script/ismine.h Pages: 1 -->
<svg width="1441pt" height="532pt"
 viewBox="0.00 0.00 1441.00 532.00" xmlns="http://www.w3.org/2000/svg" xmlns:xlink="http://www.w3.org/1999/xlink">
<g id="graph0" class="graph" transform="scale(1 1) rotate(0) translate(4 528)">
<title>src/script/ismine.h</title>
<polygon fill="white" stroke="none" points="-4,4 -4,-528 1437,-528 1437,4 -4,4"/>
<!-- Node0 -->
<g id="node1" class="node"><title>Node0</title>
<polygon fill="#bfbfbf" stroke="black" points="482.5,-504.5 482.5,-523.5 579.5,-523.5 579.5,-504.5 482.5,-504.5"/>
<text text-anchor="middle" x="531" y="-511.5" font-family="Helvetica,sans-Serif" font-size="10.00">src/script/ismine.h</text>
</g>
<!-- Node1 -->
<g id="node2" class="node"><title>Node1</title>
<g id="a_node2"><a xlink:href="standard_8h.html" target="_top" xlink:title="script/standard.h">
<polygon fill="white" stroke="black" points="1018.5,-448.5 1018.5,-467.5 1107.5,-467.5 1107.5,-448.5 1018.5,-448.5"/>
<text text-anchor="middle" x="1063" y="-455.5" font-family="Helvetica,sans-Serif" font-size="10.00">script/standard.h</text>
</a>
</g>
</g>
<!-- Node0&#45;&gt;Node1 -->
<g id="edge1" class="edge"><title>Node0&#45;&gt;Node1</title>
<path fill="none" stroke="midnightblue" d="M579.622,-508.065C678.917,-497.986 904.385,-475.1 1008.47,-464.535"/>
<polygon fill="midnightblue" stroke="midnightblue" points="1008.86,-468.013 1018.46,-463.521 1008.15,-461.049 1008.86,-468.013"/>
</g>
<!-- Node8 -->
<g id="node9" class="node"><title>Node8</title>
<polygon fill="white" stroke="#bfbfbf" points="902.5,-0.5 902.5,-19.5 951.5,-19.5 951.5,-0.5 902.5,-0.5"/>
<text text-anchor="middle" x="927" y="-7.5" font-family="Helvetica,sans-Serif" font-size="10.00">stdint.h</text>
</g>
<!-- Node0&#45;&gt;Node8 -->
<g id="edge61" class="edge"><title>Node0&#45;&gt;Node8</title>
<path fill="none" stroke="midnightblue" d="M482.47,-513.178C351.386,-512.361 0,-501.028 0,-403 0,-403 0,-403 0,-121 0,-29.3716 723.424,-13.7888 892.129,-11.4006"/>
<polygon fill="midnightblue" stroke="midnightblue" points="892.253,-14.8993 902.205,-11.2645 892.159,-7.89995 892.253,-14.8993"/>
</g>
<!-- Node2 -->
<g id="node3" class="node"><title>Node2</title>
<g id="a_node3"><a xlink:href="interpreter_8h.html" target="_top" xlink:title="script/interpreter.h">
<polygon fill="white" stroke="black" points="877.5,-392.5 877.5,-411.5 972.5,-411.5 972.5,-392.5 877.5,-392.5"/>
<text text-anchor="middle" x="925" y="-399.5" font-family="Helvetica,sans-Serif" font-size="10.00">script/interpreter.h</text>
</a>
</g>
</g>
<!-- Node1&#45;&gt;Node2 -->
<g id="edge2" class="edge"><title>Node1&#45;&gt;Node2</title>
<path fill="none" stroke="midnightblue" d="M1041.13,-448.444C1018.22,-439.478 982.025,-425.314 956.134,-415.183"/>
<polygon fill="midnightblue" stroke="midnightblue" points="957.352,-411.901 946.764,-411.516 954.801,-418.42 957.352,-411.901"/>
</g>
<!-- Node1&#45;&gt;Node8 -->
<g id="edge60" class="edge"><title>Node1&#45;&gt;Node8</title>
<path fill="none" stroke="midnightblue" d="M1107.63,-453.204C1206.04,-443.605 1433,-414.182 1433,-347 1433,-347 1433,-347 1433,-121 1433,-24.4393 1076.7,-12.4774 962.067,-11.1275"/>
<polygon fill="midnightblue" stroke="midnightblue" points="961.781,-7.62471 951.748,-11.0276 961.714,-14.6244 961.781,-7.62471"/>
</g>
<!-- Node29 -->
<g id="node30" class="node"><title>Node29</title>
<g id="a_node30"><a xlink:href="uint256_8h.html" target="_top" xlink:title="uint256.h">
<polygon fill="white" stroke="black" points="1059,-224.5 1059,-243.5 1115,-243.5 1115,-224.5 1059,-224.5"/>
<text text-anchor="middle" x="1087" y="-231.5" font-family="Helvetica,sans-Serif" font-size="10.00">uint256.h</text>
</a>
</g>
</g>
<!-- Node1&#45;&gt;Node29 -->
<g id="edge58" class="edge"><title>Node1&#45;&gt;Node29</title>
<path fill="none" stroke="midnightblue" d="M1063.94,-448.297C1067.47,-415.633 1079.99,-299.866 1084.95,-253.957"/>
<polygon fill="midnightblue" stroke="midnightblue" points="1088.44,-254.202 1086.04,-243.884 1081.48,-253.45 1088.44,-254.202"/>
</g>
<!-- Node31 -->
<g id="node32" class="node"><title>Node31</title>
<polygon fill="white" stroke="#bfbfbf" points="1091,-392.5 1091,-411.5 1183,-411.5 1183,-392.5 1091,-392.5"/>
<text text-anchor="middle" x="1137" y="-399.5" font-family="Helvetica,sans-Serif" font-size="10.00">boost/variant.hpp</text>
</g>
<!-- Node1&#45;&gt;Node31 -->
<g id="edge59" class="edge"><title>Node1&#45;&gt;Node31</title>
<path fill="none" stroke="midnightblue" d="M1074.89,-448.324C1086.15,-440.107 1103.29,-427.602 1116.71,-417.807"/>
<polygon fill="midnightblue" stroke="midnightblue" points="1118.88,-420.556 1124.89,-411.834 1114.75,-414.901 1118.88,-420.556"/>
</g>
<!-- Node3 -->
<g id="node4" class="node"><title>Node3</title>
<g id="a_node4"><a xlink:href="script__error_8h.html" target="_top" xlink:title="script_error.h">
<polygon fill="white" stroke="black" points="761,-336.5 761,-355.5 835,-355.5 835,-336.5 761,-336.5"/>
<text text-anchor="middle" x="798" y="-343.5" font-family="Helvetica,sans-Serif" font-size="10.00">script_error.h</text>
</a>
</g>
</g>
<!-- Node2&#45;&gt;Node3 -->
<g id="edge3" class="edge"><title>Node2&#45;&gt;Node3</title>
<path fill="none" stroke="midnightblue" d="M904.876,-392.444C883.976,-383.557 851.065,-369.563 827.284,-359.451"/>
<polygon fill="midnightblue" stroke="midnightblue" points="828.602,-356.208 818.029,-355.516 825.862,-362.65 828.602,-356.208"/>
</g>
<!-- Node4 -->
<g id="node5" class="node"><title>Node4</title>
<g id="a_node5"><a xlink:href="transaction_8h.html" target="_top" xlink:title="primitives/transaction.h">
<polygon fill="white" stroke="black" points="625,-336.5 625,-355.5 743,-355.5 743,-336.5 625,-336.5"/>
<text text-anchor="middle" x="684" y="-343.5" font-family="Helvetica,sans-Serif" font-size="10.00">primitives/transaction.h</text>
</a>
</g>
</g>
<!-- Node2&#45;&gt;Node4 -->
<g id="edge4" class="edge"><title>Node2&#45;&gt;Node4</title>
<path fill="none" stroke="midnightblue" d="M886.813,-392.444C844.859,-383.043 777.406,-367.929 731.929,-357.739"/>
<polygon fill="midnightblue" stroke="midnightblue" points="732.532,-354.288 722.009,-355.516 731.001,-361.118 732.532,-354.288"/>
</g>
<!-- Node2&#45;&gt;Node8 -->
<g id="edge56" class="edge"><title>Node2&#45;&gt;Node8</title>
<path fill="none" stroke="midnightblue" d="M972.653,-394.873C1092.14,-378.868 1395,-334.053 1395,-291 1395,-291 1395,-291 1395,-121 1395,-31.9462 1069.81,-14.9253 961.574,-11.7264"/>
<polygon fill="midnightblue" stroke="midnightblue" points="961.595,-8.22573 951.503,-11.4506 961.403,-15.2231 961.595,-8.22573"/>
</g>
<!-- Node18 -->
<g id="node19" class="node"><title>Node18</title>
<polygon fill="white" stroke="#bfbfbf" points="757.5,-168.5 757.5,-187.5 798.5,-187.5 798.5,-168.5 757.5,-168.5"/>
<text text-anchor="middle" x="778" y="-175.5" font-family="Helvetica,sans-Serif" font-size="10.00">string</text>
</g>
<!-- Node2&#45;&gt;Node18 -->
<g id="edge57" class="edge"><title>Node2&#45;&gt;Node18</title>
<path fill="none" stroke="midnightblue" d="M919.237,-392.297C897.333,-359.217 818.994,-240.909 789.416,-196.241"/>
<polygon fill="midnightblue" stroke="midnightblue" points="792.322,-194.289 783.882,-187.884 786.485,-198.154 792.322,-194.289"/>
</g>
<!-- Node21 -->
<g id="node22" class="node"><title>Node21</title>
<polygon fill="white" stroke="#bfbfbf" points="995,-168.5 995,-187.5 1039,-187.5 1039,-168.5 995,-168.5"/>
<text text-anchor="middle" x="1017" y="-175.5" font-family="Helvetica,sans-Serif" font-size="10.00">vector</text>
</g>
<!-- Node2&#45;&gt;Node21 -->
<g id="edge55" class="edge"><title>Node2&#45;&gt;Node21</title>
<path fill="none" stroke="midnightblue" d="M928.607,-392.297C942.201,-359.494 990.526,-242.884 1009.38,-197.377"/>
<polygon fill="midnightblue" stroke="midnightblue" points="1012.72,-198.462 1013.32,-187.884 1006.26,-195.782 1012.72,-198.462"/>
</g>
<!-- Node5 -->
<g id="node6" class="node"><title>Node5</title>
<g id="a_node6"><a xlink:href="amount_8h.html" target="_top" xlink:title="amount.h">
<polygon fill="white" stroke="black" points="631.5,-280.5 631.5,-299.5 688.5,-299.5 688.5,-280.5 631.5,-280.5"/>
<text text-anchor="middle" x="660" y="-287.5" font-family="Helvetica,sans-Serif" font-size="10.00">amount.h</text>
</a>
</g>
</g>
<!-- Node4&#45;&gt;Node5 -->
<g id="edge5" class="edge"><title>Node4&#45;&gt;Node5</title>
<path fill="none" stroke="midnightblue" d="M680.037,-336.083C676.787,-328.77 672.081,-318.181 668.046,-309.103"/>
<polygon fill="midnightblue" stroke="midnightblue" points="671.149,-307.468 663.889,-299.751 664.752,-310.311 671.149,-307.468"/>
</g>
<!-- Node6 -->
<g id="node7" class="node"><title>Node6</title>
<g id="a_node7"><a xlink:href="serialize_8h.html" target="_top" xlink:title="serialize.h">
<polygon fill="white" stroke="black" points="503.5,-224.5 503.5,-243.5 564.5,-243.5 564.5,-224.5 503.5,-224.5"/>
<text text-anchor="middle" x="534" y="-231.5" font-family="Helvetica,sans-Serif" font-size="10.00">serialize.h</text>
</a>
</g>
</g>
<!-- Node4&#45;&gt;Node6 -->
<g id="edge46" class="edge"><title>Node4&#45;&gt;Node6</title>
<path fill="none" stroke="midnightblue" d="M672.093,-336.403C659.595,-327.368 639.384,-312.729 622,-300 598.641,-282.896 571.9,-263.116 554.086,-249.91"/>
<polygon fill="midnightblue" stroke="midnightblue" points="555.767,-246.799 545.65,-243.653 551.596,-252.421 555.767,-246.799"/>
</g>
<!-- Node25 -->
<g id="node26" class="node"><title>Node25</title>
<g id="a_node26"><a xlink:href="script_8h.html" target="_top" xlink:title="script/script.h">
<polygon fill="white" stroke="black" points="891,-224.5 891,-243.5 967,-243.5 967,-224.5 891,-224.5"/>
<text text-anchor="middle" x="929" y="-231.5" font-family="Helvetica,sans-Serif" font-size="10.00">script/script.h</text>
</a>
</g>
</g>
<!-- Node4&#45;&gt;Node25 -->
<g id="edge32" class="edge"><title>Node4&#45;&gt;Node25</title>
<path fill="none" stroke="midnightblue" d="M703.225,-336.368C746.161,-317.091 850.035,-270.454 900.514,-247.789"/>
<polygon fill="midnightblue" stroke="midnightblue" points="902.175,-250.88 909.865,-243.591 899.308,-244.494 902.175,-250.88"/>
</g>
<!-- Node4&#45;&gt;Node29 -->
<g id="edge47" class="edge"><title>Node4&#45;&gt;Node29</title>
<path fill="none" stroke="midnightblue" d="M715.287,-336.46C788.295,-316.532 969.706,-267.016 1048.95,-245.386"/>
<polygon fill="midnightblue" stroke="midnightblue" points="1050.26,-248.657 1058.98,-242.647 1048.42,-241.904 1050.26,-248.657"/>
</g>
<!-- Node5&#45;&gt;Node6 -->
<g id="edge6" class="edge"><title>Node5&#45;&gt;Node6</title>
<path fill="none" stroke="midnightblue" d="M640.035,-280.444C619.391,-271.596 586.937,-257.687 563.368,-247.586"/>
<polygon fill="midnightblue" stroke="midnightblue" points="564.442,-244.239 553.872,-243.516 561.684,-250.673 564.442,-244.239"/>
</g>
<!-- Node5&#45;&gt;Node18 -->
<g id="edge31" class="edge"><title>Node5&#45;&gt;Node18</title>
<path fill="none" stroke="midnightblue" d="M669.259,-280.368C689.163,-261.814 736.257,-217.913 761.44,-194.438"/>
<polygon fill="midnightblue" stroke="midnightblue" points="763.856,-196.97 768.784,-187.591 759.082,-191.85 763.856,-196.97"/>
</g>
<!-- Node23 -->
<g id="node24" class="node"><title>Node23</title>
<polygon fill="white" stroke="#bfbfbf" points="262,-112.5 262,-131.5 310,-131.5 310,-112.5 262,-112.5"/>
<text text-anchor="middle" x="286" y="-119.5" font-family="Helvetica,sans-Serif" font-size="10.00">stdlib.h</text>
</g>
<!-- Node5&#45;&gt;Node23 -->
<g id="edge30" class="edge"><title>Node5&#45;&gt;Node23</title>
<path fill="none" stroke="midnightblue" d="M631.319,-288.498C526.24,-286 164.797,-271.38 95,-188 51.1265,-135.588 185.115,-125.312 251.306,-123.388"/>
<polygon fill="midnightblue" stroke="midnightblue" points="251.774,-126.877 261.687,-123.138 251.606,-119.879 251.774,-126.877"/>
</g>
<!-- Node7 -->
<g id="node8" class="node"><title>Node7</title>
<g id="a_node8"><a xlink:href="endian_8h.html" target="_top" xlink:title="compat/endian.h">
<polygon fill="white" stroke="black" points="833.5,-112.5 833.5,-131.5 922.5,-131.5 922.5,-112.5 833.5,-112.5"/>
<text text-anchor="middle" x="878" y="-119.5" font-family="Helvetica,sans-Serif" font-size="10.00">compat/endian.h</text>
</a>
</g>
</g>
<!-- Node6&#45;&gt;Node7 -->
<g id="edge7" class="edge"><title>Node6&#45;&gt;Node7</title>
<path fill="none" stroke="midnightblue" d="M559.474,-224.481C583.847,-216.07 621.458,-202.41 653,-188 670.003,-180.232 672.54,-174.677 690,-168 733.595,-151.329 785.307,-139.491 823.451,-132.154"/>
<polygon fill="midnightblue" stroke="midnightblue" points="824.155,-135.583 833.336,-130.295 822.861,-128.704 824.155,-135.583"/>
</g>
<!-- Node6&#45;&gt;Node8 -->
<g id="edge19" class="edge"><title>Node6&#45;&gt;Node8</title>
<path fill="none" stroke="midnightblue" d="M503.318,-232.181C408.093,-229.326 122.338,-218.283 95,-188 89.0437,-181.402 89.8708,-175.26 95,-168 189.231,-34.6274 746.636,-14.5025 892.227,-11.513"/>
<polygon fill="midnightblue" stroke="midnightblue" points="892.438,-15.0097 902.37,-11.3193 892.305,-8.011 892.438,-15.0097"/>
</g>
<!-- Node10 -->
<g id="node11" class="node"><title>Node10</title>
<polygon fill="white" stroke="#bfbfbf" points="104,-168.5 104,-187.5 160,-187.5 160,-168.5 104,-168.5"/>
<text text-anchor="middle" x="132" y="-175.5" font-family="Helvetica,sans-Serif" font-size="10.00">algorithm</text>
</g>
<!-- Node6&#45;&gt;Node10 -->
<g id="edge11" class="edge"><title>Node6&#45;&gt;Node10</title>
<path fill="none" stroke="midnightblue" d="M503.44,-230.519C441.973,-225.257 298.88,-211.632 170.249,-188.252"/>
<polygon fill="midnightblue" stroke="midnightblue" points="170.696,-184.775 160.227,-186.404 169.427,-191.659 170.696,-184.775"/>
</g>
<!-- Node11 -->
<g id="node12" class="node"><title>Node11</title>
<polygon fill="white" stroke="#bfbfbf" points="638,-112.5 638,-131.5 690,-131.5 690,-112.5 638,-112.5"/>
<text text-anchor="middle" x="664" y="-119.5" font-family="Helvetica,sans-Serif" font-size="10.00">assert.h</text>
</g>
<!-- Node6&#45;&gt;Node11 -->
<g id="edge12" class="edge"><title>Node6&#45;&gt;Node11</title>
<path fill="none" stroke="midnightblue" d="M544.201,-224.368C566.224,-205.733 618.462,-161.532 646.115,-138.134"/>
<polygon fill="midnightblue" stroke="midnightblue" points="648.473,-140.723 653.847,-131.591 643.952,-135.379 648.473,-140.723"/>
</g>
<!-- Node12 -->
<g id="node13" class="node"><title>Node12</title>
<polygon fill="white" stroke="#bfbfbf" points="177.5,-168.5 177.5,-187.5 206.5,-187.5 206.5,-168.5 177.5,-168.5"/>
<text text-anchor="middle" x="192" y="-175.5" font-family="Helvetica,sans-Serif" font-size="10.00">ios</text>
</g>
<!-- Node6&#45;&gt;Node12 -->
<g id="edge13" class="edge"><title>Node6&#45;&gt;Node12</title>
<path fill="none" stroke="midnightblue" d="M503.183,-231.046C447.393,-226.999 325.989,-215.858 216.78,-187.988"/>
<polygon fill="midnightblue" stroke="midnightblue" points="217.487,-184.555 206.927,-185.419 215.72,-191.329 217.487,-184.555"/>
</g>
<!-- Node13 -->
<g id="node14" class="node"><title>Node13</title>
<polygon fill="white" stroke="#bfbfbf" points="699,-168.5 699,-187.5 739,-187.5 739,-168.5 699,-168.5"/>
<text text-anchor="middle" x="719" y="-175.5" font-family="Helvetica,sans-Serif" font-size="10.00">limits</text>
</g>
<!-- Node6&#45;&gt;Node13 -->
<g id="edge14" class="edge"><title>Node6&#45;&gt;Node13</title>
<path fill="none" stroke="midnightblue" d="M563.314,-224.444C597.662,-214.418 654.275,-197.893 688.941,-187.774"/>
<polygon fill="midnightblue" stroke="midnightblue" points="690.327,-191.015 698.946,-184.854 688.366,-184.296 690.327,-191.015"/>
</g>
<!-- Node14 -->
<g id="node15" class="node"><title>Node14</title>
<polygon fill="white" stroke="#bfbfbf" points="224.5,-168.5 224.5,-187.5 253.5,-187.5 253.5,-168.5 224.5,-168.5"/>
<text text-anchor="middle" x="239" y="-175.5" font-family="Helvetica,sans-Serif" font-size="10.00">list</text>
</g>
<!-- Node6&#45;&gt;Node14 -->
<g id="edge15" class="edge"><title>Node6&#45;&gt;Node14</title>
<path fill="none" stroke="midnightblue" d="M503.365,-230.043C454.267,-224.853 354.932,-212.499 263.605,-188.011"/>
<polygon fill="midnightblue" stroke="midnightblue" points="264.511,-184.63 253.941,-185.365 262.662,-191.382 264.511,-184.63"/>
</g>
<!-- Node15 -->
<g id="node16" class="node"><title>Node15</title>
<polygon fill="white" stroke="#bfbfbf" points="271.5,-168.5 271.5,-187.5 306.5,-187.5 306.5,-168.5 271.5,-168.5"/>
<text text-anchor="middle" x="289" y="-175.5" font-family="Helvetica,sans-Serif" font-size="10.00">map</text>
</g>
<!-- Node6&#45;&gt;Node15 -->
<g id="edge16" class="edge"><title>Node6&#45;&gt;Node15</title>
<path fill="none" stroke="midnightblue" d="M503.404,-227.863C462.805,-220.791 388.771,-207.011 316.367,-187.825"/>
<polygon fill="midnightblue" stroke="midnightblue" points="317.194,-184.423 306.628,-185.208 315.377,-191.183 317.194,-184.423"/>
</g>
<!-- Node16 -->
<g id="node17" class="node"><title>Node16</title>
<polygon fill="white" stroke="#bfbfbf" points="325,-168.5 325,-187.5 377,-187.5 377,-168.5 325,-168.5"/>
<text text-anchor="middle" x="351" y="-175.5" font-family="Helvetica,sans-Serif" font-size="10.00">memory</text>
</g>
<!-- Node6&#45;&gt;Node16 -->
<g id="edge17" class="edge"><title>Node6&#45;&gt;Node16</title>
<path fill="none" stroke="midnightblue" d="M505.003,-224.444C472.99,-214.997 421.424,-199.781 386.887,-189.59"/>
<polygon fill="midnightblue" stroke="midnightblue" points="387.775,-186.202 377.193,-186.729 385.793,-192.916 387.775,-186.202"/>
</g>
<!-- Node17 -->
<g id="node18" class="node"><title>Node17</title>
<polygon fill="white" stroke="#bfbfbf" points="395,-168.5 395,-187.5 425,-187.5 425,-168.5 395,-168.5"/>
<text text-anchor="middle" x="410" y="-175.5" font-family="Helvetica,sans-Serif" font-size="10.00">set</text>
</g>
<!-- Node6&#45;&gt;Node17 -->
<g id="edge18" class="edge"><title>Node6&#45;&gt;Node17</title>
<path fill="none" stroke="midnightblue" d="M514.352,-224.444C492.721,-215.024 457.915,-199.866 434.515,-189.676"/>
<polygon fill="midnightblue" stroke="midnightblue" points="435.822,-186.428 425.256,-185.644 433.027,-192.846 435.822,-186.428"/>
</g>
<!-- Node6&#45;&gt;Node18 -->
<g id="edge20" class="edge"><title>Node6&#45;&gt;Node18</title>
<path fill="none" stroke="midnightblue" d="M564.663,-227.394C604.507,-219.927 676.413,-205.83 747.4,-187.971"/>
<polygon fill="midnightblue" stroke="midnightblue" points="748.578,-191.283 757.407,-185.427 746.853,-184.499 748.578,-191.283"/>
</g>
<!-- Node19 -->
<g id="node20" class="node"><title>Node19</title>
<polygon fill="white" stroke="#bfbfbf" points="747.5,-112.5 747.5,-131.5 796.5,-131.5 796.5,-112.5 747.5,-112.5"/>
<text text-anchor="middle" x="772" y="-119.5" font-family="Helvetica,sans-Serif" font-size="10.00">string.h</text>
</g>
<!-- Node6&#45;&gt;Node19 -->
<g id="edge21" class="edge"><title>Node6&#45;&gt;Node19</title>
<path fill="none" stroke="midnightblue" d="M548.873,-224.435C571.728,-211.437 617.036,-186.307 657,-168 683.827,-155.711 715.048,-143.629 738.184,-135.083"/>
<polygon fill="midnightblue" stroke="midnightblue" points="739.697,-138.257 747.884,-131.532 737.29,-131.683 739.697,-138.257"/>
</g>
<!-- Node20 -->
<g id="node21" class="node"><title>Node20</title>
<polygon fill="white" stroke="#bfbfbf" points="443,-168.5 443,-187.5 483,-187.5 483,-168.5 443,-168.5"/>
<text text-anchor="middle" x="463" y="-175.5" font-family="Helvetica,sans-Serif" font-size="10.00">utility</text>
</g>
<!-- Node6&#45;&gt;Node20 -->
<g id="edge22" class="edge"><title>Node6&#45;&gt;Node20</title>
<path fill="none" stroke="midnightblue" d="M522.593,-224.324C511.891,-216.185 495.659,-203.839 482.837,-194.087"/>
<polygon fill="midnightblue" stroke="midnightblue" points="484.693,-191.102 474.615,-187.834 480.456,-196.673 484.693,-191.102"/>
</g>
<!-- Node6&#45;&gt;Node21 -->
<g id="edge23" class="edge"><title>Node6&#45;&gt;Node21</title>
<path fill="none" stroke="midnightblue" d="M564.58,-229.581C651.063,-219.912 896.83,-192.435 985.014,-182.576"/>
<polygon fill="midnightblue" stroke="midnightblue" points="985.416,-186.053 994.965,-181.464 984.638,-179.096 985.416,-186.053"/>
</g>
<!-- Node22 -->
<g id="node23" class="node"><title>Node22</title>
<g id="a_node23"><a xlink:href="prevector_8h.html" target="_top" xlink:title="prevector.h">
<polygon fill="white" stroke="black" points="501.5,-168.5 501.5,-187.5 566.5,-187.5 566.5,-168.5 501.5,-168.5"/>
<text text-anchor="middle" x="534" y="-175.5" font-family="Helvetica,sans-Serif" font-size="10.00">prevector.h</text>
</a>
</g>
</g>
<!-- Node6&#45;&gt;Node22 -->
<g id="edge24" class="edge"><title>Node6&#45;&gt;Node22</title>
<path fill="none" stroke="midnightblue" d="M534,-224.083C534,-217.006 534,-206.861 534,-197.986"/>
<polygon fill="midnightblue" stroke="midnightblue" points="537.5,-197.751 534,-187.751 530.5,-197.751 537.5,-197.751"/>
</g>
<!-- Node7&#45;&gt;Node8 -->
<g id="edge8" class="edge"><title>Node7&#45;&gt;Node8</title>
<path fill="none" stroke="midnightblue" d="M862.757,-112.304C843.482,-100.149 814.357,-77.1873 828,-56 842.093,-34.113 869.725,-22.7486 892.222,-16.9211"/>
<polygon fill="midnightblue" stroke="midnightblue" points="893.184,-20.2908 902.131,-14.6153 891.598,-13.473 893.184,-20.2908"/>
</g>
<!-- Node9 -->
<g id="node10" class="node"><title>Node9</title>
<g id="a_node10"><a xlink:href="byteswap_8h.html" target="_top" xlink:title="compat/byteswap.h">
<polygon fill="white" stroke="black" points="837,-56.5 837,-75.5 939,-75.5 939,-56.5 837,-56.5"/>
<text text-anchor="middle" x="888" y="-63.5" font-family="Helvetica,sans-Serif" font-size="10.00">compat/byteswap.h</text>
</a>
</g>
</g>
<!-- Node7&#45;&gt;Node9 -->
<g id="edge9" class="edge"><title>Node7&#45;&gt;Node9</title>
<path fill="none" stroke="midnightblue" d="M879.651,-112.083C880.976,-104.927 882.882,-94.6353 884.539,-85.6911"/>
<polygon fill="midnightblue" stroke="midnightblue" points="888,-86.2212 886.379,-75.7511 881.117,-84.9466 888,-86.2212"/>
</g>
<!-- Node9&#45;&gt;Node8 -->
<g id="edge10" class="edge"><title>Node9&#45;&gt;Node8</title>
<path fill="none" stroke="midnightblue" d="M894.44,-56.083C899.949,-48.4554 908.031,-37.2645 914.765,-27.9408"/>
<polygon fill="midnightblue" stroke="midnightblue" points="917.662,-29.9071 920.68,-19.7511 911.987,-25.8087 917.662,-29.9071"/>
</g>
<!-- Node22&#45;&gt;Node8 -->
<g id="edge27" class="edge"><title>Node22&#45;&gt;Node8</title>
<path fill="none" stroke="midnightblue" d="M533.996,-168.06C534.492,-154.094 537.546,-127.138 553,-112 601.897,-64.1013 809.472,-28.5208 892.486,-15.9507"/>
<polygon fill="midnightblue" stroke="midnightblue" points="893.058,-19.4041 902.432,-14.4649 892.024,-12.4809 893.058,-19.4041"/>
</g>
<!-- Node22&#45;&gt;Node11 -->
<g id="edge25" class="edge"><title>Node22&#45;&gt;Node11</title>
<path fill="none" stroke="midnightblue" d="M554.599,-168.444C575.993,-159.557 609.681,-145.563 634.024,-135.451"/>
<polygon fill="midnightblue" stroke="midnightblue" points="635.605,-138.585 643.497,-131.516 632.92,-132.12 635.605,-138.585"/>
</g>
<!-- Node22&#45;&gt;Node19 -->
<g id="edge28" class="edge"><title>Node22&#45;&gt;Node19</title>
<path fill="none" stroke="midnightblue" d="M566.594,-169.605C611.451,-159.427 691.849,-141.186 737.625,-130.799"/>
<polygon fill="midnightblue" stroke="midnightblue" points="738.409,-134.21 747.387,-128.584 736.861,-127.384 738.409,-134.21"/>
</g>
<!-- Node22&#45;&gt;Node23 -->
<g id="edge26" class="edge"><title>Node22&#45;&gt;Node23</title>
<path fill="none" stroke="midnightblue" d="M501.323,-169.885C454.269,-159.639 367.845,-140.821 320.042,-130.412"/>
<polygon fill="midnightblue" stroke="midnightblue" points="320.69,-126.972 310.174,-128.264 319.201,-133.811 320.69,-126.972"/>
</g>
<!-- Node24 -->
<g id="node25" class="node"><title>Node24</title>
<polygon fill="white" stroke="#bfbfbf" points="562.5,-112.5 562.5,-131.5 609.5,-131.5 609.5,-112.5 562.5,-112.5"/>
<text text-anchor="middle" x="586" y="-119.5" font-family="Helvetica,sans-Serif" font-size="10.00">iterator</text>
</g>
<!-- Node22&#45;&gt;Node24 -->
<g id="edge29" class="edge"><title>Node22&#45;&gt;Node24</title>
<path fill="none" stroke="midnightblue" d="M542.587,-168.083C550.159,-160.22 561.378,-148.569 570.514,-139.081"/>
<polygon fill="midnightblue" stroke="midnightblue" points="573.158,-141.382 577.573,-131.751 568.115,-136.527 573.158,-141.382"/>
</g>
<!-- Node25&#45;&gt;Node8 -->
<g id="edge42" class="edge"><title>Node25&#45;&gt;Node8</title>
<path fill="none" stroke="midnightblue" d="M931.727,-224.425C939.528,-198.656 960.529,-119.753 947,-56 945.003,-46.5915 940.899,-36.7618 936.925,-28.6981"/>
<polygon fill="midnightblue" stroke="midnightblue" points="939.887,-26.8101 932.13,-19.5932 933.693,-30.0721 939.887,-26.8101"/>
</g>
<!-- Node25&#45;&gt;Node11 -->
<g id="edge38" class="edge"><title>Node25&#45;&gt;Node11</title>
<path fill="none" stroke="midnightblue" d="M913.358,-224.458C882.928,-207.871 817.789,-172.526 807,-168 771.469,-153.095 729.209,-140.379 699.886,-132.306"/>
<polygon fill="midnightblue" stroke="midnightblue" points="700.654,-128.888 690.086,-129.648 698.821,-135.644 700.654,-128.888"/>
</g>
<!-- Node25&#45;&gt;Node13 -->
<g id="edge40" class="edge"><title>Node25&#45;&gt;Node13</title>
<path fill="none" stroke="midnightblue" d="M892.092,-224.478C857.478,-216.341 804.069,-203.416 749.144,-188.206"/>
<polygon fill="midnightblue" stroke="midnightblue" points="749.81,-184.759 739.238,-185.443 747.929,-191.501 749.81,-184.759"/>
</g>
<!-- Node25&#45;&gt;Node18 -->
<g id="edge44" class="edge"><title>Node25&#45;&gt;Node18</title>
<path fill="none" stroke="midnightblue" d="M905.074,-224.444C878.889,-215.079 836.85,-200.046 808.36,-189.857"/>
<polygon fill="midnightblue" stroke="midnightblue" points="809.491,-186.545 798.897,-186.473 807.134,-193.136 809.491,-186.545"/>
</g>
<!-- Node25&#45;&gt;Node19 -->
<g id="edge43" class="edge"><title>Node25&#45;&gt;Node19</title>
<path fill="none" stroke="midnightblue" d="M928.755,-224.147C927.891,-210.301 924.216,-183.506 909,-168 894.597,-153.322 842.26,-138.951 806.608,-130.538"/>
<polygon fill="midnightblue" stroke="midnightblue" points="807.121,-127.064 796.59,-128.226 805.547,-133.885 807.121,-127.064"/>
</g>
<!-- Node25&#45;&gt;Node21 -->
<g id="edge45" class="edge"><title>Node25&#45;&gt;Node21</title>
<path fill="none" stroke="midnightblue" d="M943.139,-224.324C956.866,-215.9 977.936,-202.971 994.064,-193.074"/>
<polygon fill="midnightblue" stroke="midnightblue" points="996.204,-195.868 1002.9,-187.655 992.543,-189.902 996.204,-195.868"/>
</g>
<!-- Node25&#45;&gt;Node22 -->
<g id="edge37" class="edge"><title>Node25&#45;&gt;Node22</title>
<path fill="none" stroke="midnightblue" d="M890.767,-227.773C816.801,-217.661 654.586,-195.485 576.997,-184.878"/>
<polygon fill="midnightblue" stroke="midnightblue" points="577.011,-181.347 566.629,-183.461 576.063,-188.283 577.011,-181.347"/>
</g>
<!-- Node26 -->
<g id="node27" class="node"><title>Node26</title>
<g id="a_node27"><a xlink:href="common_8h.html" target="_top" xlink:title="crypto/common.h">
<polygon fill="white" stroke="black" points="1173,-168.5 1173,-187.5 1265,-187.5 1265,-168.5 1173,-168.5"/>
<text text-anchor="middle" x="1219" y="-175.5" font-family="Helvetica,sans-Serif" font-size="10.00">crypto/common.h</text>
</a>
</g>
</g>
<!-- Node25&#45;&gt;Node26 -->
<g id="edge33" class="edge"><title>Node25&#45;&gt;Node26</title>
<path fill="none" stroke="midnightblue" d="M967.211,-225.885C1017.27,-216.564 1105.43,-200.148 1163.02,-189.424"/>
<polygon fill="midnightblue" stroke="midnightblue" points="1163.86,-192.828 1173.05,-187.557 1162.58,-185.946 1163.86,-192.828"/>
</g>
<!-- Node27 -->
<g id="node28" class="node"><title>Node27</title>
<polygon fill="white" stroke="#bfbfbf" points="855.5,-168.5 855.5,-187.5 900.5,-187.5 900.5,-168.5 855.5,-168.5"/>
<text text-anchor="middle" x="878" y="-175.5" font-family="Helvetica,sans-Serif" font-size="10.00">climits</text>
</g>
<!-- Node25&#45;&gt;Node27 -->
<g id="edge39" class="edge"><title>Node25&#45;&gt;Node27</title>
<path fill="none" stroke="midnightblue" d="M920.578,-224.083C913.152,-216.22 902.148,-204.569 893.188,-195.081"/>
<polygon fill="midnightblue" stroke="midnightblue" points="895.676,-192.618 886.265,-187.751 890.587,-197.424 895.676,-192.618"/>
</g>
<!-- Node28 -->
<g id="node29" class="node"><title>Node28</title>
<polygon fill="white" stroke="#bfbfbf" points="1057.5,-168.5 1057.5,-187.5 1116.5,-187.5 1116.5,-168.5 1057.5,-168.5"/>
<text text-anchor="middle" x="1087" y="-175.5" font-family="Helvetica,sans-Serif" font-size="10.00">stdexcept</text>
</g>
<!-- Node25&#45;&gt;Node28 -->
<g id="edge41" class="edge"><title>Node25&#45;&gt;Node28</title>
<path fill="none" stroke="midnightblue" d="M954.036,-224.444C980.616,-215.359 1022.81,-200.939 1052.52,-190.783"/>
<polygon fill="midnightblue" stroke="midnightblue" points="1053.75,-194.062 1062.08,-187.516 1051.49,-187.439 1053.75,-194.062"/>
</g>
<!-- Node26&#45;&gt;Node7 -->
<g id="edge36" class="edge"><title>Node26&#45;&gt;Node7</title>
<path fill="none" stroke="midnightblue" d="M1172.66,-169.661C1110.26,-159.78 999.397,-142.224 932.894,-131.693"/>
<polygon fill="midnightblue" stroke="midnightblue" points="933.04,-128.173 922.616,-130.065 931.946,-135.086 933.04,-128.173"/>
</g>
<!-- Node26&#45;&gt;Node8 -->
<g id="edge34" class="edge"><title>Node26&#45;&gt;Node8</title>
<path fill="none" stroke="midnightblue" d="M1203.71,-168.309C1155.91,-141.136 1009.03,-57.6362 950.975,-24.6297"/>
<polygon fill="midnightblue" stroke="midnightblue" points="952.56,-21.5046 942.137,-19.6051 949.1,-27.59 952.56,-21.5046"/>
</g>
<!-- Node26&#45;&gt;Node19 -->
<g id="edge35" class="edge"><title>Node26&#45;&gt;Node19</title>
<path fill="none" stroke="midnightblue" d="M1172.84,-169.877C1168.17,-169.216 1163.49,-168.578 1159,-168 1010.48,-148.889 972.297,-152.78 824,-132 818.386,-131.213 812.448,-130.281 806.67,-129.32"/>
<polygon fill="midnightblue" stroke="midnightblue" points="806.997,-125.825 796.549,-127.583 805.813,-132.724 806.997,-125.825"/>
</g>
<!-- Node29&#45;&gt;Node8 -->
<g id="edge51" class="edge"><title>Node29&#45;&gt;Node8</title>
<path fill="none" stroke="midnightblue" d="M1115.03,-232.31C1174.43,-230.194 1309.8,-221.7 1338,-188 1343.7,-181.183 1343.04,-175.321 1338,-168 1250.24,-40.5246 1043.93,-16.4865 961.711,-12.0043"/>
<polygon fill="midnightblue" stroke="midnightblue" points="961.791,-8.50424 951.635,-11.5206 961.455,-15.4962 961.791,-8.50424"/>
</g>
<!-- Node29&#45;&gt;Node11 -->
<g id="edge48" class="edge"><title>Node29&#45;&gt;Node11</title>
<path fill="none" stroke="midnightblue" d="M1098.44,-224.471C1114.77,-211.299 1141.11,-185.681 1125,-168 1095.91,-136.08 780.939,-136.607 738,-132 725.659,-130.676 712.178,-129.081 700.145,-127.603"/>
<polygon fill="midnightblue" stroke="midnightblue" points="700.362,-124.104 690.007,-126.345 699.5,-131.05 700.362,-124.104"/>
</g>
<!-- Node29&#45;&gt;Node18 -->
<g id="edge52" class="edge"><title>Node29&#45;&gt;Node18</title>
<path fill="none" stroke="midnightblue" d="M1058.76,-228.065C1000.71,-217.921 868.435,-194.804 808.51,-184.332"/>
<polygon fill="midnightblue" stroke="midnightblue" points="808.983,-180.862 798.53,-182.588 807.778,-187.757 808.983,-180.862"/>
</g>
<!-- Node29&#45;&gt;Node21 -->
<g id="edge53" class="edge"><title>Node29&#45;&gt;Node21</title>
<path fill="none" stroke="midnightblue" d="M1075.75,-224.324C1065.2,-216.185 1049.2,-203.839 1036.56,-194.087"/>
<polygon fill="midnightblue" stroke="midnightblue" points="1038.51,-191.171 1028.45,-187.834 1034.23,-196.713 1038.51,-191.171"/>
</g>
<!-- Node29&#45;&gt;Node26 -->
<g id="edge54" class="edge"><title>Node29&#45;&gt;Node26</title>
<path fill="none" stroke="midnightblue" d="M1107.92,-224.444C1129.74,-215.517 1164.15,-201.439 1188.89,-191.317"/>
<polygon fill="midnightblue" stroke="midnightblue" points="1190.25,-194.542 1198.18,-187.516 1187.6,-188.063 1190.25,-194.542"/>
</g>
<!-- Node29&#45;&gt;Node28 -->
<g id="edge50" class="edge"><title>Node29&#45;&gt;Node28</title>
<path fill="none" stroke="midnightblue" d="M1087,-224.083C1087,-217.006 1087,-206.861 1087,-197.986"/>
<polygon fill="midnightblue" stroke="midnightblue" points="1090.5,-197.751 1087,-187.751 1083.5,-197.751 1090.5,-197.751"/>
</g>
<!-- Node30 -->
<g id="node31" class="node"><title>Node30</title>
<polygon fill="white" stroke="#bfbfbf" points="1283,-168.5 1283,-187.5 1329,-187.5 1329,-168.5 1283,-168.5"/>
<text text-anchor="middle" x="1306" y="-175.5" font-family="Helvetica,sans-Serif" font-size="10.00">cstring</text>
</g>
<!-- Node29&#45;&gt;Node30 -->
<g id="edge49" class="edge"><title>Node29&#45;&gt;Node30</title>
<path fill="none" stroke="midnightblue" d="M1115.28,-226.548C1150.11,-218.524 1211.32,-204.176 1273.05,-188.175"/>
<polygon fill="midnightblue" stroke="midnightblue" points="1274.16,-191.502 1282.96,-185.594 1272.4,-184.728 1274.16,-191.502"/>
</g>
</g>
</svg>
