<?xml version="1.0" encoding="UTF-8" standalone="no"?>
<!DOCTYPE svg PUBLIC "-//W3C//DTD SVG 1.1//EN"
 "http://www.w3.org/Graphics/SVG/1.1/DTD/svg11.dtd">
<!-- Generated by graphviz version 2.36.0 (20140111.2315)
 -->
<!-- Title: src/keystore.h Pages: 1 -->
<!--zoomable 332 -->
<svg id="main" version="1.1" xmlns="http://www.w3.org/2000/svg" xmlns:xlink="http://www.w3.org/1999/xlink" xml:space="preserve" onload="init(evt)">
<style type="text/css"><![CDATA[
.edge:hover path { stroke: red; }
.edge:hover polygon { stroke: red; fill: red; }
]]></style>
<script type="text/javascript"><![CDATA[
var edges = document.getElementsByTagName('g');
if (edges && edges.length) {
  for (var i=0;i<edges.length;i++) {
    if (edges[i].id.substr(0,4)=='edge') {
      edges[i].setAttribute('class','edge');
    }
  }
}
]]></script>
        <defs>
                <circle id="rim" cx="0" cy="0" r="7"/>
                <circle id="rim2" cx="0" cy="0" r="3.5"/>
                <g id="zoomPlus">
                        <use xlink:href="#rim" fill="#404040">
                                <set attributeName="fill" to="#808080" begin="zoomplus.mouseover" end="zoomplus.mouseout"/>
                        </use>
                        <path d="M-4,0h8M0,-4v8" fill="none" stroke="white" stroke-width="1.5" pointer-events="none"/>
                </g>
                <g id="zoomMin">
                        <use xlink:href="#rim" fill="#404040">
                                <set attributeName="fill" to="#808080" begin="zoomminus.mouseover" end="zoomminus.mouseout"/>
                        </use>
                        <path d="M-4,0h8" fill="none" stroke="white" stroke-width="1.5" pointer-events="none"/>
                </g>
                <g id="dirArrow">
                        <path fill="none" stroke="white" stroke-width="1.5" d="M0,-3.0v7 M-2.5,-0.5L0,-3.0L2.5,-0.5"/>
                </g>
               <g id="resetDef">
                       <use xlink:href="#rim2" fill="#404040">
                               <set attributeName="fill" to="#808080" begin="reset.mouseover" end="reset.mouseout"/>
                       </use>
               </g>
        </defs>

<script type="text/javascript">
var viewWidth = 3269;
var viewHeight = 332;
var sectionId = 'dynsection-1';
</script>
<script xlink:href="svgpan.js"/>
<svg id="graph" class="graph">
<g id="viewport">
<title>src/keystore.h</title>
<polygon fill="white" stroke="none" points="-4,4 -4,-328 3265,-328 3265,4 -4,4"/>
<!-- Node64 -->
<g id="node1" class="node"><title>Node64</title>
<polygon fill="#bfbfbf" stroke="black" points="2749.5,-304.5 2749.5,-323.5 2828.5,-323.5 2828.5,-304.5 2749.5,-304.5"/>
<text text-anchor="middle" x="2789" y="-311.5" font-family="Helvetica,sans-Serif" font-size="10.00">src/keystore.h</text>
</g>
<!-- Node65 -->
<g id="node2" class="node"><title>Node65</title>
<g id="a_node2"><a xlink:href="dash-tx_8cpp.html" target="_top" xlink:title="src/dash&#45;tx.cpp">
<polygon fill="white" stroke="black" points="0,-248.5 0,-267.5 84,-267.5 84,-248.5 0,-248.5"/>
<text text-anchor="middle" x="42" y="-255.5" font-family="Helvetica,sans-Serif" font-size="10.00">src/dash&#45;tx.cpp</text>
</a>
</g>
</g>
<!-- Node64&#45;&gt;Node65 -->
<g id="edge1" class="edge"><title>Node64&#45;&gt;Node65</title>
<path fill="none" stroke="midnightblue" d="M2738.75,-313.139C2416.73,-313.886 639.042,-315.755 98,-268 93.4879,-267.602 88.7893,-267.056 84.1168,-266.429"/>
<polygon fill="midnightblue" stroke="midnightblue" points="2739.16,-316.639 2749.15,-313.115 2739.15,-309.639 2739.16,-316.639"/>
</g>
<!-- Node66 -->
<g id="node3" class="node"><title>Node66</title>
<g id="a_node3"><a xlink:href="crypter_8h.html" target="_top" xlink:title="src/wallet/crypter.h">
<polygon fill="white" stroke="black" points="1665,-248.5 1665,-267.5 1765,-267.5 1765,-248.5 1665,-248.5"/>
<text text-anchor="middle" x="1715" y="-255.5" font-family="Helvetica,sans-Serif" font-size="10.00">src/wallet/crypter.h</text>
</a>
</g>
</g>
<!-- Node64&#45;&gt;Node66 -->
<g id="edge2" class="edge"><title>Node64&#45;&gt;Node66</title>
<path fill="none" stroke="midnightblue" d="M2738.94,-310.483C2558.85,-301.428 1945.06,-270.567 1765.02,-261.515"/>
<polygon fill="midnightblue" stroke="midnightblue" points="2739.02,-313.991 2749.18,-310.998 2739.37,-307 2739.02,-313.991"/>
</g>
<!-- Node76 -->
<g id="node13" class="node"><title>Node76</title>
<g id="a_node13"><a xlink:href="walletmodel_8cpp.html" target="_top" xlink:title="src/qt/walletmodel.cpp">
<polygon fill="white" stroke="black" points="92.5,-0.5 92.5,-19.5 207.5,-19.5 207.5,-0.5 92.5,-0.5"/>
<text text-anchor="middle" x="150" y="-7.5" font-family="Helvetica,sans-Serif" font-size="10.00">src/qt/walletmodel.cpp</text>
</a>
</g>
</g>
<!-- Node64&#45;&gt;Node76 -->
<g id="edge38" class="edge"><title>Node64&#45;&gt;Node76</title>
<path fill="none" stroke="midnightblue" d="M2739.32,-312.189C2373.59,-306.063 112,-265.413 112,-197 112,-197 112,-197 112,-127 112,-85.04 134.732,-38.595 145.032,-19.7035"/>
<polygon fill="midnightblue" stroke="midnightblue" points="2739.29,-315.689 2749.34,-312.356 2739.4,-308.69 2739.29,-315.689"/>
</g>
<!-- Node78 -->
<g id="node15" class="node"><title>Node78</title>
<g id="a_node15"><a xlink:href="wallet_8cpp.html" target="_top" xlink:title="src/wallet/wallet.cpp">
<polygon fill="white" stroke="black" points="2700,-0.5 2700,-19.5 2806,-19.5 2806,-0.5 2700,-0.5"/>
<text text-anchor="middle" x="2753" y="-7.5" font-family="Helvetica,sans-Serif" font-size="10.00">src/wallet/wallet.cpp</text>
</a>
</g>
</g>
<!-- Node64&#45;&gt;Node78 -->
<g id="edge42" class="edge"><title>Node64&#45;&gt;Node78</title>
<path fill="none" stroke="midnightblue" d="M2779.72,-295.025C2769.05,-272.669 2753,-233.043 2753,-197 2753,-197 2753,-197 2753,-127 2753,-86.9236 2753,-39.0589 2753,-19.731"/>
<polygon fill="midnightblue" stroke="midnightblue" points="2776.72,-296.858 2784.29,-304.264 2782.99,-293.75 2776.72,-296.858"/>
</g>
<!-- Node96 -->
<g id="node33" class="node"><title>Node96</title>
<g id="a_node33"><a xlink:href="keystore_8cpp.html" target="_top" xlink:title="src/keystore.cpp">
<polygon fill="white" stroke="black" points="2781.5,-248.5 2781.5,-267.5 2870.5,-267.5 2870.5,-248.5 2781.5,-248.5"/>
<text text-anchor="middle" x="2826" y="-255.5" font-family="Helvetica,sans-Serif" font-size="10.00">src/keystore.cpp</text>
</a>
</g>
</g>
<!-- Node64&#45;&gt;Node96 -->
<g id="edge37" class="edge"><title>Node64&#45;&gt;Node96</title>
<path fill="none" stroke="midnightblue" d="M2800.95,-295.566C2807.31,-286.275 2814.87,-275.248 2820,-267.751"/>
<polygon fill="midnightblue" stroke="midnightblue" points="2797.87,-293.855 2795.11,-304.083 2803.65,-297.812 2797.87,-293.855"/>
</g>
<!-- Node97 -->
<g id="node34" class="node"><title>Node97</title>
<g id="a_node34"><a xlink:href="rawtransaction_8cpp.html" target="_top" xlink:title="src/rpc/rawtransaction.cpp">
<polygon fill="white" stroke="black" points="2889,-248.5 2889,-267.5 3021,-267.5 3021,-248.5 2889,-248.5"/>
<text text-anchor="middle" x="2955" y="-255.5" font-family="Helvetica,sans-Serif" font-size="10.00">src/rpc/rawtransaction.cpp</text>
</a>
</g>
</g>
<!-- Node64&#45;&gt;Node97 -->
<g id="edge39" class="edge"><title>Node64&#45;&gt;Node97</title>
<path fill="none" stroke="midnightblue" d="M2824.95,-301.304C2856.23,-291.129 2900.82,-276.625 2928.82,-267.516"/>
<polygon fill="midnightblue" stroke="midnightblue" points="2823.73,-298.022 2815.3,-304.444 2825.9,-304.678 2823.73,-298.022"/>
</g>
<!-- Node98 -->
<g id="node35" class="node"><title>Node98</title>
<g id="a_node35"><a xlink:href="ismine_8cpp.html" target="_top" xlink:title="src/script/ismine.cpp">
<polygon fill="white" stroke="black" points="3039.5,-248.5 3039.5,-267.5 3146.5,-267.5 3146.5,-248.5 3039.5,-248.5"/>
<text text-anchor="middle" x="3093" y="-255.5" font-family="Helvetica,sans-Serif" font-size="10.00">src/script/ismine.cpp</text>
</a>
</g>
</g>
<!-- Node64&#45;&gt;Node98 -->
<g id="edge40" class="edge"><title>Node64&#45;&gt;Node98</title>
<path fill="none" stroke="midnightblue" d="M2838.61,-304.187C2895.65,-294.056 2988.62,-277.54 3044.98,-267.53"/>
<polygon fill="midnightblue" stroke="midnightblue" points="2837.98,-300.745 2828.74,-305.94 2839.2,-307.637 2837.98,-300.745"/>
</g>
<!-- Node99 -->
<g id="node36" class="node"><title>Node99</title>
<g id="a_node36"><a xlink:href="sign_8cpp.html" target="_top" xlink:title="src/script/sign.cpp">
<polygon fill="white" stroke="black" points="3164.5,-248.5 3164.5,-267.5 3261.5,-267.5 3261.5,-248.5 3164.5,-248.5"/>
<text text-anchor="middle" x="3213" y="-255.5" font-family="Helvetica,sans-Serif" font-size="10.00">src/script/sign.cpp</text>
</a>
</g>
</g>
<!-- Node64&#45;&gt;Node99 -->
<g id="edge41" class="edge"><title>Node64&#45;&gt;Node99</title>
<path fill="none" stroke="midnightblue" d="M2838.95,-307.365C2909.47,-299.295 3042.21,-283.68 3155,-268 3158.03,-267.579 3161.14,-267.133 3164.28,-266.674"/>
<polygon fill="midnightblue" stroke="midnightblue" points="2838.13,-303.936 2828.59,-308.548 2838.92,-310.891 2838.13,-303.936"/>
</g>
<!-- Node67 -->
<g id="node4" class="node"><title>Node67</title>
<g id="a_node4"><a xlink:href="ccoins__caching_8cpp.html" target="_top" xlink:title="src/bench/ccoins_caching.cpp">
<polygon fill="white" stroke="black" points="1332.5,-186.5 1332.5,-205.5 1481.5,-205.5 1481.5,-186.5 1332.5,-186.5"/>
<text text-anchor="middle" x="1407" y="-193.5" font-family="Helvetica,sans-Serif" font-size="10.00">src/bench/ccoins_caching.cpp</text>
</a>
</g>
</g>
<!-- Node66&#45;&gt;Node67 -->
<g id="edge3" class="edge"><title>Node66&#45;&gt;Node67</title>
<path fill="none" stroke="midnightblue" d="M1661.19,-246.518C1601.4,-234.87 1506,-216.285 1450.65,-205.503"/>
<polygon fill="midnightblue" stroke="midnightblue" points="1660.71,-249.99 1671.2,-248.467 1662.05,-243.12 1660.71,-249.99"/>
</g>
<!-- Node68 -->
<g id="node5" class="node"><title>Node68</title>
<g id="a_node5"><a xlink:href="keepass_8cpp.html" target="_top" xlink:title="src/keepass.cpp">
<polygon fill="white" stroke="black" points="1499.5,-186.5 1499.5,-205.5 1588.5,-205.5 1588.5,-186.5 1499.5,-186.5"/>
<text text-anchor="middle" x="1544" y="-193.5" font-family="Helvetica,sans-Serif" font-size="10.00">src/keepass.cpp</text>
</a>
</g>
</g>
<!-- Node66&#45;&gt;Node68 -->
<g id="edge4" class="edge"><title>Node66&#45;&gt;Node68</title>
<path fill="none" stroke="midnightblue" d="M1680.75,-244.983C1647.51,-233.32 1597.89,-215.91 1568.45,-205.581"/>
<polygon fill="midnightblue" stroke="midnightblue" points="1679.91,-248.395 1690.5,-248.403 1682.22,-241.79 1679.91,-248.395"/>
</g>
<!-- Node69 -->
<g id="node6" class="node"><title>Node69</title>
<g id="a_node6"><a xlink:href="wallet_8h.html" target="_top" xlink:title="src/wallet/wallet.h">
<polygon fill="white" stroke="black" points="1606.5,-186.5 1606.5,-205.5 1701.5,-205.5 1701.5,-186.5 1606.5,-186.5"/>
<text text-anchor="middle" x="1654" y="-193.5" font-family="Helvetica,sans-Serif" font-size="10.00">src/wallet/wallet.h</text>
</a>
</g>
</g>
<!-- Node66&#45;&gt;Node69 -->
<g id="edge5" class="edge"><title>Node66&#45;&gt;Node69</title>
<path fill="none" stroke="midnightblue" d="M1698.93,-241.193C1687.34,-229.793 1672.14,-214.841 1662.72,-205.581"/>
<polygon fill="midnightblue" stroke="midnightblue" points="1696.68,-243.886 1706.26,-248.403 1701.59,-238.896 1696.68,-243.886"/>
</g>
<!-- Node94 -->
<g id="node31" class="node"><title>Node94</title>
<g id="a_node31"><a xlink:href="crypter_8cpp.html" target="_top" xlink:title="src/wallet/crypter.cpp">
<polygon fill="white" stroke="black" points="1720,-186.5 1720,-205.5 1830,-205.5 1830,-186.5 1720,-186.5"/>
<text text-anchor="middle" x="1775" y="-193.5" font-family="Helvetica,sans-Serif" font-size="10.00">src/wallet/crypter.cpp</text>
</a>
</g>
</g>
<!-- Node66&#45;&gt;Node94 -->
<g id="edge35" class="edge"><title>Node66&#45;&gt;Node94</title>
<path fill="none" stroke="midnightblue" d="M1730.81,-241.193C1742.21,-229.793 1757.16,-214.841 1766.42,-205.581"/>
<polygon fill="midnightblue" stroke="midnightblue" points="1728.19,-238.857 1723.6,-248.403 1733.14,-243.807 1728.19,-238.857"/>
</g>
<!-- Node95 -->
<g id="node32" class="node"><title>Node95</title>
<g id="a_node32"><a xlink:href="crypto__tests_8cpp.html" target="_top" xlink:title="src/wallet/test/crypto\l_tests.cpp">
<polygon fill="white" stroke="black" points="1848,-181 1848,-211 1956,-211 1956,-181 1848,-181"/>
<text text-anchor="start" x="1856" y="-199" font-family="Helvetica,sans-Serif" font-size="10.00">src/wallet/test/crypto</text>
<text text-anchor="middle" x="1902" y="-188" font-family="Helvetica,sans-Serif" font-size="10.00">_tests.cpp</text>
</a>
</g>
</g>
<!-- Node66&#45;&gt;Node95 -->
<g id="edge36" class="edge"><title>Node66&#45;&gt;Node95</title>
<path fill="none" stroke="midnightblue" d="M1751.63,-245.248C1782.21,-235.436 1825.88,-221.423 1858.29,-211.025"/>
<polygon fill="midnightblue" stroke="midnightblue" points="1750.25,-242.016 1741.79,-248.403 1752.38,-248.681 1750.25,-242.016"/>
</g>
<!-- Node70 -->
<g id="node7" class="node"><title>Node70</title>
<g id="a_node7"><a xlink:href="coin__selection_8cpp.html" target="_top" xlink:title="src/bench/coin_selection.cpp">
<polygon fill="white" stroke="black" points="2342.5,-118.5 2342.5,-137.5 2485.5,-137.5 2485.5,-118.5 2342.5,-118.5"/>
<text text-anchor="middle" x="2414" y="-125.5" font-family="Helvetica,sans-Serif" font-size="10.00">src/bench/coin_selection.cpp</text>
</a>
</g>
</g>
<!-- Node69&#45;&gt;Node70 -->
<g id="edge6" class="edge"><title>Node69&#45;&gt;Node70</title>
<path fill="none" stroke="midnightblue" d="M1691.69,-183.955C1698.09,-182.405 1704.7,-181.001 1711,-180 1984.04,-136.605 2057.51,-176.936 2332,-144 2345.36,-142.397 2359.84,-139.979 2372.86,-137.549"/>
<polygon fill="midnightblue" stroke="midnightblue" points="1690.7,-180.595 1681.89,-186.474 1692.44,-187.375 1690.7,-180.595"/>
</g>
<!-- Node71 -->
<g id="node8" class="node"><title>Node71</title>
<g id="a_node8"><a xlink:href="privatesend-util_8h.html" target="_top" xlink:title="src/privatesend&#45;util.h">
<polygon fill="white" stroke="black" points="2503.5,-118.5 2503.5,-137.5 2610.5,-137.5 2610.5,-118.5 2503.5,-118.5"/>
<text text-anchor="middle" x="2557" y="-125.5" font-family="Helvetica,sans-Serif" font-size="10.00">src/privatesend&#45;util.h</text>
</a>
</g>
</g>
<!-- Node69&#45;&gt;Node71 -->
<g id="edge7" class="edge"><title>Node69&#45;&gt;Node71</title>
<path fill="none" stroke="midnightblue" d="M1691.48,-183.939C1697.94,-182.377 1704.63,-180.974 1711,-180 2055.37,-127.378 2149.03,-192.558 2494,-144 2504.58,-142.511 2515.98,-140.062 2526.14,-137.57"/>
<polygon fill="midnightblue" stroke="midnightblue" points="1690.4,-180.602 1681.59,-186.485 1692.14,-187.381 1690.4,-180.602"/>
</g>
<!-- Node72 -->
<g id="node9" class="node"><title>Node72</title>
<g id="a_node9"><a xlink:href="privatesend-client_8h.html" target="_top" xlink:title="src/privatesend&#45;client.h">
<polygon fill="white" stroke="black" points="2498,-56.5 2498,-75.5 2616,-75.5 2616,-56.5 2498,-56.5"/>
<text text-anchor="middle" x="2557" y="-63.5" font-family="Helvetica,sans-Serif" font-size="10.00">src/privatesend&#45;client.h</text>
</a>
</g>
</g>
<!-- Node69&#45;&gt;Node72 -->
<g id="edge16" class="edge"><title>Node69&#45;&gt;Node72</title>
<path fill="none" stroke="midnightblue" d="M1691.47,-183.904C1697.93,-182.346 1704.62,-180.954 1711,-180 1760.93,-172.532 2584.02,-180.398 2619,-144 2628.86,-133.746 2625.46,-124.671 2619,-112 2610.3,-94.9372 2591.77,-82.8318 2577.22,-75.5055"/>
<polygon fill="midnightblue" stroke="midnightblue" points="1690.39,-180.568 1681.58,-186.449 1692.14,-187.347 1690.39,-180.568"/>
</g>
<!-- Node74 -->
<g id="node11" class="node"><title>Node74</title>
<g id="a_node11"><a xlink:href="coincontroldialog_8cpp.html" target="_top" xlink:title="src/qt/coincontroldialog.cpp">
<polygon fill="white" stroke="black" points="2546,-0.5 2546,-19.5 2682,-19.5 2682,-0.5 2546,-0.5"/>
<text text-anchor="middle" x="2614" y="-7.5" font-family="Helvetica,sans-Serif" font-size="10.00">src/qt/coincontroldialog.cpp</text>
</a>
</g>
</g>
<!-- Node69&#45;&gt;Node74 -->
<g id="edge18" class="edge"><title>Node69&#45;&gt;Node74</title>
<path fill="none" stroke="midnightblue" d="M1691.47,-183.9C1697.93,-182.343 1704.62,-180.951 1711,-180 1761.92,-172.404 2601.31,-181.105 2637,-144 2670.79,-108.872 2634.49,-43.0263 2619.69,-19.569"/>
<polygon fill="midnightblue" stroke="midnightblue" points="1690.39,-180.564 1681.58,-186.445 1692.14,-187.343 1690.39,-180.564"/>
</g>
<!-- Node69&#45;&gt;Node76 -->
<g id="edge26" class="edge"><title>Node69&#45;&gt;Node76</title>
<path fill="none" stroke="midnightblue" d="M1616.74,-183.877C1610.21,-182.308 1603.45,-180.919 1597,-180 1519.92,-169.019 258.832,-189.98 196,-144 154.792,-113.844 150.209,-44.28 149.915,-19.7535"/>
<polygon fill="midnightblue" stroke="midnightblue" points="1616.16,-187.342 1626.72,-186.449 1617.91,-180.564 1616.16,-187.342"/>
</g>
<!-- Node77 -->
<g id="node14" class="node"><title>Node77</title>
<g id="a_node14"><a xlink:href="rpcwallet_8cpp.html" target="_top" xlink:title="src/wallet/rpcwallet.cpp">
<polygon fill="white" stroke="black" points="1173.5,-0.5 1173.5,-19.5 1292.5,-19.5 1292.5,-0.5 1173.5,-0.5"/>
<text text-anchor="middle" x="1233" y="-7.5" font-family="Helvetica,sans-Serif" font-size="10.00">src/wallet/rpcwallet.cpp</text>
</a>
</g>
</g>
<!-- Node69&#45;&gt;Node77 -->
<g id="edge29" class="edge"><title>Node69&#45;&gt;Node77</title>
<path fill="none" stroke="midnightblue" d="M1616.74,-183.878C1610.21,-182.309 1603.45,-180.919 1597,-180 1520.53,-169.098 260.911,-199.325 207,-144 197.074,-133.814 197.449,-122.538 207,-112 272.21,-40.0554 964.071,-17.5087 1173.36,-12.3088"/>
<polygon fill="midnightblue" stroke="midnightblue" points="1616.16,-187.343 1626.72,-186.45 1617.91,-180.565 1616.16,-187.343"/>
</g>
<!-- Node69&#45;&gt;Node78 -->
<g id="edge33" class="edge"><title>Node69&#45;&gt;Node78</title>
<path fill="none" stroke="midnightblue" d="M1691.47,-183.895C1697.93,-182.339 1704.62,-180.948 1711,-180 1815.15,-164.508 2565.3,-193.952 2658,-144 2710.46,-115.732 2740.78,-44.3436 2749.98,-19.6013"/>
<polygon fill="midnightblue" stroke="midnightblue" points="1690.39,-180.559 1681.58,-186.44 1692.13,-187.338 1690.39,-180.559"/>
</g>
<!-- Node80 -->
<g id="node17" class="node"><title>Node80</title>
<g id="a_node17"><a xlink:href="addresstablemodel_8cpp.html" target="_top" xlink:title="src/qt/addresstablemodel.cpp">
<polygon fill="white" stroke="black" points="216.5,-118.5 216.5,-137.5 361.5,-137.5 361.5,-118.5 216.5,-118.5"/>
<text text-anchor="middle" x="289" y="-125.5" font-family="Helvetica,sans-Serif" font-size="10.00">src/qt/addresstablemodel.cpp</text>
</a>
</g>
</g>
<!-- Node69&#45;&gt;Node80 -->
<g id="edge17" class="edge"><title>Node69&#45;&gt;Node80</title>
<path fill="none" stroke="midnightblue" d="M1616.74,-183.897C1610.21,-182.326 1603.45,-180.93 1597,-180 1057.03,-102.073 912.493,-201.842 370,-144 356.348,-142.544 341.544,-140.071 328.372,-137.548"/>
<polygon fill="midnightblue" stroke="midnightblue" points="1616.16,-187.362 1626.72,-186.469 1617.91,-180.584 1616.16,-187.362"/>
</g>
<!-- Node81 -->
<g id="node18" class="node"><title>Node81</title>
<g id="a_node18"><a xlink:href="masternodelist_8cpp.html" target="_top" xlink:title="src/qt/masternodelist.cpp">
<polygon fill="white" stroke="black" points="379.5,-118.5 379.5,-137.5 506.5,-137.5 506.5,-118.5 379.5,-118.5"/>
<text text-anchor="middle" x="443" y="-125.5" font-family="Helvetica,sans-Serif" font-size="10.00">src/qt/masternodelist.cpp</text>
</a>
</g>
</g>
<!-- Node69&#45;&gt;Node81 -->
<g id="edge19" class="edge"><title>Node69&#45;&gt;Node81</title>
<path fill="none" stroke="midnightblue" d="M1616.74,-183.918C1610.21,-182.345 1603.45,-180.943 1597,-180 1121.36,-110.395 993.369,-200.58 516,-144 503.665,-142.538 490.316,-140.063 478.448,-137.541"/>
<polygon fill="midnightblue" stroke="midnightblue" points="1616.16,-187.384 1626.71,-186.492 1617.91,-180.606 1616.16,-187.384"/>
</g>
<!-- Node82 -->
<g id="node19" class="node"><title>Node82</title>
<g id="a_node19"><a xlink:href="paymentserver_8cpp.html" target="_top" xlink:title="src/qt/paymentserver.cpp">
<polygon fill="white" stroke="black" points="525,-118.5 525,-137.5 653,-137.5 653,-118.5 525,-118.5"/>
<text text-anchor="middle" x="589" y="-125.5" font-family="Helvetica,sans-Serif" font-size="10.00">src/qt/paymentserver.cpp</text>
</a>
</g>
</g>
<!-- Node69&#45;&gt;Node82 -->
<g id="edge20" class="edge"><title>Node69&#45;&gt;Node82</title>
<path fill="none" stroke="midnightblue" d="M1616.53,-183.898C1610.07,-182.341 1603.38,-180.95 1597,-180 1185.68,-118.716 1074.84,-194.02 662,-144 649.669,-142.506 636.321,-140.023 624.452,-137.503"/>
<polygon fill="midnightblue" stroke="midnightblue" points="1615.86,-187.341 1626.42,-186.443 1617.61,-180.562 1615.86,-187.341"/>
</g>
<!-- Node83 -->
<g id="node20" class="node"><title>Node83</title>
<g id="a_node20"><a xlink:href="sendcoinsdialog_8cpp.html" target="_top" xlink:title="src/qt/sendcoinsdialog.cpp">
<polygon fill="white" stroke="black" points="671.5,-118.5 671.5,-137.5 804.5,-137.5 804.5,-118.5 671.5,-118.5"/>
<text text-anchor="middle" x="738" y="-125.5" font-family="Helvetica,sans-Serif" font-size="10.00">src/qt/sendcoinsdialog.cpp</text>
</a>
</g>
</g>
<!-- Node69&#45;&gt;Node83 -->
<g id="edge21" class="edge"><title>Node69&#45;&gt;Node83</title>
<path fill="none" stroke="midnightblue" d="M1616.52,-183.939C1610.06,-182.377 1603.37,-180.974 1597,-180 1252.63,-127.378 1159.85,-185.844 814,-144 801.316,-142.465 787.58,-140.004 775.319,-137.515"/>
<polygon fill="midnightblue" stroke="midnightblue" points="1615.86,-187.381 1626.41,-186.485 1617.6,-180.602 1615.86,-187.381"/>
</g>
<!-- Node84 -->
<g id="node21" class="node"><title>Node84</title>
<g id="a_node21"><a xlink:href="signverifymessagedialog_8cpp.html" target="_top" xlink:title="src/qt/signverifymessagedialog.cpp">
<polygon fill="white" stroke="black" points="823,-118.5 823,-137.5 993,-137.5 993,-118.5 823,-118.5"/>
<text text-anchor="middle" x="908" y="-125.5" font-family="Helvetica,sans-Serif" font-size="10.00">src/qt/signverifymessagedialog.cpp</text>
</a>
</g>
</g>
<!-- Node69&#45;&gt;Node84 -->
<g id="edge22" class="edge"><title>Node69&#45;&gt;Node84</title>
<path fill="none" stroke="midnightblue" d="M1616.31,-183.968C1609.91,-182.417 1603.3,-181.009 1597,-180 1335.41,-138.086 1265.35,-172.908 1002,-144 986.887,-142.341 970.496,-139.937 955.698,-137.538"/>
<polygon fill="midnightblue" stroke="midnightblue" points="1615.56,-187.388 1626.11,-186.489 1617.3,-180.609 1615.56,-187.388"/>
</g>
<!-- Node85 -->
<g id="node22" class="node"><title>Node85</title>
<g id="a_node22"><a xlink:href="transactiondesc_8cpp.html" target="_top" xlink:title="src/qt/transactiondesc.cpp">
<polygon fill="white" stroke="black" points="1011,-118.5 1011,-137.5 1143,-137.5 1143,-118.5 1011,-118.5"/>
<text text-anchor="middle" x="1077" y="-125.5" font-family="Helvetica,sans-Serif" font-size="10.00">src/qt/transactiondesc.cpp</text>
</a>
</g>
</g>
<!-- Node69&#45;&gt;Node85 -->
<g id="edge23" class="edge"><title>Node69&#45;&gt;Node85</title>
<path fill="none" stroke="midnightblue" d="M1615.44,-183.87C1609.31,-182.386 1603.01,-181.026 1597,-180 1401.4,-146.621 1348.51,-171.504 1152,-144 1140.03,-142.325 1127.1,-139.946 1115.39,-137.574"/>
<polygon fill="midnightblue" stroke="midnightblue" points="1614.96,-187.36 1625.51,-186.448 1616.69,-180.578 1614.96,-187.36"/>
</g>
<!-- Node86 -->
<g id="node23" class="node"><title>Node86</title>
<g id="a_node23"><a xlink:href="transactionrecord_8cpp.html" target="_top" xlink:title="src/qt/transactionrecord.cpp">
<polygon fill="white" stroke="black" points="1161,-118.5 1161,-137.5 1299,-137.5 1299,-118.5 1161,-118.5"/>
<text text-anchor="middle" x="1230" y="-125.5" font-family="Helvetica,sans-Serif" font-size="10.00">src/qt/transactionrecord.cpp</text>
</a>
</g>
</g>
<!-- Node69&#45;&gt;Node86 -->
<g id="edge24" class="edge"><title>Node69&#45;&gt;Node86</title>
<path fill="none" stroke="midnightblue" d="M1614.8,-183.953C1608.87,-182.493 1602.79,-181.118 1597,-180 1469.91,-155.475 1435.85,-164.233 1308,-144 1296.15,-142.125 1283.35,-139.792 1271.6,-137.528"/>
<polygon fill="midnightblue" stroke="midnightblue" points="1614.03,-187.368 1624.59,-186.459 1615.77,-180.587 1614.03,-187.368"/>
</g>
<!-- Node87 -->
<g id="node24" class="node"><title>Node87</title>
<g id="a_node24"><a xlink:href="transactiontablemodel_8cpp.html" target="_top" xlink:title="src/qt/transactiontablemodel.cpp">
<polygon fill="white" stroke="black" points="1317,-118.5 1317,-137.5 1475,-137.5 1475,-118.5 1317,-118.5"/>
<text text-anchor="middle" x="1396" y="-125.5" font-family="Helvetica,sans-Serif" font-size="10.00">src/qt/transactiontablemodel.cpp</text>
</a>
</g>
</g>
<!-- Node69&#45;&gt;Node87 -->
<g id="edge25" class="edge"><title>Node69&#45;&gt;Node87</title>
<path fill="none" stroke="midnightblue" d="M1611.71,-183.826C1606.75,-182.53 1601.76,-181.231 1597,-180 1538.44,-164.866 1470.18,-147.632 1430.17,-137.571"/>
<polygon fill="midnightblue" stroke="midnightblue" points="1611.2,-187.31 1621.76,-186.462 1612.97,-180.54 1611.2,-187.31"/>
</g>
<!-- Node88 -->
<g id="node25" class="node"><title>Node88</title>
<g id="a_node25"><a xlink:href="walletmodeltransaction_8cpp.html" target="_top" xlink:title="src/qt/walletmodeltransaction.cpp">
<polygon fill="white" stroke="black" points="1493.5,-118.5 1493.5,-137.5 1656.5,-137.5 1656.5,-118.5 1493.5,-118.5"/>
<text text-anchor="middle" x="1575" y="-125.5" font-family="Helvetica,sans-Serif" font-size="10.00">src/qt/walletmodeltransaction.cpp</text>
</a>
</g>
</g>
<!-- Node69&#45;&gt;Node88 -->
<g id="edge27" class="edge"><title>Node69&#45;&gt;Node88</title>
<path fill="none" stroke="midnightblue" d="M1635.73,-179.734C1620.08,-166.661 1598.11,-148.304 1585.33,-137.63"/>
<polygon fill="midnightblue" stroke="midnightblue" points="1633.75,-182.646 1643.67,-186.372 1638.24,-177.274 1633.75,-182.646"/>
</g>
<!-- Node89 -->
<g id="node26" class="node"><title>Node89</title>
<g id="a_node26"><a xlink:href="rpcdump_8cpp.html" target="_top" xlink:title="src/wallet/rpcdump.cpp">
<polygon fill="white" stroke="black" points="1675,-118.5 1675,-137.5 1793,-137.5 1793,-118.5 1675,-118.5"/>
<text text-anchor="middle" x="1734" y="-125.5" font-family="Helvetica,sans-Serif" font-size="10.00">src/wallet/rpcdump.cpp</text>
</a>
</g>
</g>
<!-- Node69&#45;&gt;Node89 -->
<g id="edge28" class="edge"><title>Node69&#45;&gt;Node89</title>
<path fill="none" stroke="midnightblue" d="M1672.5,-179.734C1688.35,-166.661 1710.6,-148.304 1723.54,-137.63"/>
<polygon fill="midnightblue" stroke="midnightblue" points="1669.95,-177.308 1664.46,-186.372 1674.4,-182.708 1669.95,-177.308"/>
</g>
<!-- Node90 -->
<g id="node27" class="node"><title>Node90</title>
<g id="a_node27"><a xlink:href="accounting__tests_8cpp.html" target="_top" xlink:title="src/wallet/test/accounting\l_tests.cpp">
<polygon fill="white" stroke="black" points="1811,-113 1811,-143 1939,-143 1939,-113 1811,-113"/>
<text text-anchor="start" x="1819" y="-131" font-family="Helvetica,sans-Serif" font-size="10.00">src/wallet/test/accounting</text>
<text text-anchor="middle" x="1875" y="-120" font-family="Helvetica,sans-Serif" font-size="10.00">_tests.cpp</text>
</a>
</g>
</g>
<!-- Node69&#45;&gt;Node90 -->
<g id="edge30" class="edge"><title>Node69&#45;&gt;Node90</title>
<path fill="none" stroke="midnightblue" d="M1692.49,-183.506C1730.15,-172.259 1787.58,-155.109 1827.93,-143.056"/>
<polygon fill="midnightblue" stroke="midnightblue" points="1691.47,-180.156 1682.89,-186.372 1693.48,-186.864 1691.47,-180.156"/>
</g>
<!-- Node91 -->
<g id="node28" class="node"><title>Node91</title>
<g id="a_node28"><a xlink:href="wallet__test__fixture_8cpp.html" target="_top" xlink:title="src/wallet/test/wallet\l_test_fixture.cpp">
<polygon fill="white" stroke="black" points="1957.5,-113 1957.5,-143 2064.5,-143 2064.5,-113 1957.5,-113"/>
<text text-anchor="start" x="1965.5" y="-131" font-family="Helvetica,sans-Serif" font-size="10.00">src/wallet/test/wallet</text>
<text text-anchor="middle" x="2011" y="-120" font-family="Helvetica,sans-Serif" font-size="10.00">_test_fixture.cpp</text>
</a>
</g>
</g>
<!-- Node69&#45;&gt;Node91 -->
<g id="edge31" class="edge"><title>Node69&#45;&gt;Node91</title>
<path fill="none" stroke="midnightblue" d="M1694.04,-183.889C1699.71,-182.483 1705.49,-181.14 1711,-180 1815.33,-158.412 1843.42,-164.356 1948,-144 1951.09,-143.399 1954.26,-142.749 1957.45,-142.07"/>
<polygon fill="midnightblue" stroke="midnightblue" points="1692.85,-180.582 1684.03,-186.456 1694.59,-187.363 1692.85,-180.582"/>
</g>
<!-- Node92 -->
<g id="node29" class="node"><title>Node92</title>
<g id="a_node29"><a xlink:href="wallet__tests_8cpp.html" target="_top" xlink:title="src/wallet/test/wallet\l_tests.cpp">
<polygon fill="white" stroke="black" points="2082.5,-113 2082.5,-143 2189.5,-143 2189.5,-113 2082.5,-113"/>
<text text-anchor="start" x="2090.5" y="-131" font-family="Helvetica,sans-Serif" font-size="10.00">src/wallet/test/wallet</text>
<text text-anchor="middle" x="2136" y="-120" font-family="Helvetica,sans-Serif" font-size="10.00">_tests.cpp</text>
</a>
</g>
</g>
<!-- Node69&#45;&gt;Node92 -->
<g id="edge32" class="edge"><title>Node69&#45;&gt;Node92</title>
<path fill="none" stroke="midnightblue" d="M1692.78,-183.92C1698.84,-182.441 1705.06,-181.069 1711,-180 1870.12,-151.337 1913.55,-170.785 2073,-144 2076.1,-143.478 2079.28,-142.892 2082.48,-142.26"/>
<polygon fill="midnightblue" stroke="midnightblue" points="1691.62,-180.603 1682.8,-186.474 1693.35,-187.384 1691.62,-180.603"/>
</g>
<!-- Node93 -->
<g id="node30" class="node"><title>Node93</title>
<g id="a_node30"><a xlink:href="walletdb_8cpp.html" target="_top" xlink:title="src/wallet/walletdb.cpp">
<polygon fill="white" stroke="black" points="2208,-118.5 2208,-137.5 2324,-137.5 2324,-118.5 2208,-118.5"/>
<text text-anchor="middle" x="2266" y="-125.5" font-family="Helvetica,sans-Serif" font-size="10.00">src/wallet/walletdb.cpp</text>
</a>
</g>
</g>
<!-- Node69&#45;&gt;Node93 -->
<g id="edge34" class="edge"><title>Node69&#45;&gt;Node93</title>
<path fill="none" stroke="midnightblue" d="M1691.9,-183.991C1698.24,-182.45 1704.77,-181.04 1711,-180 1925.07,-144.233 1983.26,-175.456 2198,-144 2209.12,-142.37 2221.14,-139.945 2231.93,-137.518"/>
<polygon fill="midnightblue" stroke="midnightblue" points="1691.01,-180.608 1682.19,-186.486 1692.75,-187.388 1691.01,-180.608"/>
</g>
<!-- Node71&#45;&gt;Node72 -->
<g id="edge8" class="edge"><title>Node71&#45;&gt;Node72</title>
<path fill="none" stroke="midnightblue" d="M2557,-108.16C2557,-97.2482 2557,-84.04 2557,-75.5806"/>
<polygon fill="midnightblue" stroke="midnightblue" points="2553.5,-108.403 2557,-118.403 2560.5,-108.403 2553.5,-108.403"/>
</g>
<!-- Node79 -->
<g id="node16" class="node"><title>Node79</title>
<g id="a_node16"><a xlink:href="privatesend-util_8cpp.html" target="_top" xlink:title="src/privatesend&#45;util.cpp">
<polygon fill="white" stroke="black" points="2362,-56.5 2362,-75.5 2480,-75.5 2480,-56.5 2362,-56.5"/>
<text text-anchor="middle" x="2421" y="-63.5" font-family="Helvetica,sans-Serif" font-size="10.00">src/privatesend&#45;util.cpp</text>
</a>
</g>
</g>
<!-- Node71&#45;&gt;Node79 -->
<g id="edge15" class="edge"><title>Node71&#45;&gt;Node79</title>
<path fill="none" stroke="midnightblue" d="M2528.03,-114.221C2501.63,-102.573 2463.36,-85.6874 2440.45,-75.5806"/>
<polygon fill="midnightblue" stroke="midnightblue" points="2526.95,-117.569 2537.51,-118.403 2529.78,-111.165 2526.95,-117.569"/>
</g>
<!-- Node73 -->
<g id="node10" class="node"><title>Node73</title>
<g id="a_node10"><a xlink:href="privatesend-client_8cpp.html" target="_top" xlink:title="src/privatesend&#45;client.cpp">
<polygon fill="white" stroke="black" points="2400,-0.5 2400,-19.5 2528,-19.5 2528,-0.5 2400,-0.5"/>
<text text-anchor="middle" x="2464" y="-7.5" font-family="Helvetica,sans-Serif" font-size="10.00">src/privatesend&#45;client.cpp</text>
</a>
</g>
</g>
<!-- Node72&#45;&gt;Node73 -->
<g id="edge9" class="edge"><title>Node72&#45;&gt;Node73</title>
<path fill="none" stroke="midnightblue" d="M2533.19,-51.1774C2516.08,-41.2407 2493.53,-28.1492 2478.9,-19.6545"/>
<polygon fill="midnightblue" stroke="midnightblue" points="2531.65,-54.3293 2542.06,-56.324 2535.17,-48.2758 2531.65,-54.3293"/>
</g>
<!-- Node72&#45;&gt;Node74 -->
<g id="edge10" class="edge"><title>Node72&#45;&gt;Node74</title>
<path fill="none" stroke="midnightblue" d="M2573.62,-49.2533C2583.73,-39.6731 2596.28,-27.7906 2604.68,-19.8339"/>
<polygon fill="midnightblue" stroke="midnightblue" points="2571.01,-46.9056 2566.16,-56.324 2575.82,-51.9873 2571.01,-46.9056"/>
</g>
<!-- Node75 -->
<g id="node12" class="node"><title>Node75</title>
<g id="a_node12"><a xlink:href="overviewpage_8cpp.html" target="_top" xlink:title="src/qt/overviewpage.cpp">
<polygon fill="white" stroke="black" points="2258.5,-0.5 2258.5,-19.5 2381.5,-19.5 2381.5,-0.5 2258.5,-0.5"/>
<text text-anchor="middle" x="2320" y="-7.5" font-family="Helvetica,sans-Serif" font-size="10.00">src/qt/overviewpage.cpp</text>
</a>
</g>
</g>
<!-- Node72&#45;&gt;Node75 -->
<g id="edge11" class="edge"><title>Node72&#45;&gt;Node75</title>
<path fill="none" stroke="midnightblue" d="M2509.68,-54.2172C2464.89,-44.0134 2398.56,-28.9006 2357.38,-19.5164"/>
<polygon fill="midnightblue" stroke="midnightblue" points="2508.92,-57.6345 2519.45,-56.4435 2510.47,-50.8094 2508.92,-57.6345"/>
</g>
<!-- Node72&#45;&gt;Node76 -->
<g id="edge12" class="edge"><title>Node72&#45;&gt;Node76</title>
<path fill="none" stroke="midnightblue" d="M2487.36,-56.0234C2210.62,-37.7704 539.975,-15.925 207.504,-11.7187"/>
<polygon fill="midnightblue" stroke="midnightblue" points="2487.48,-59.5403 2497.7,-56.753 2487.97,-52.5577 2487.48,-59.5403"/>
</g>
<!-- Node72&#45;&gt;Node77 -->
<g id="edge13" class="edge"><title>Node72&#45;&gt;Node77</title>
<path fill="none" stroke="midnightblue" d="M2487.4,-55.9521C2021.54,-17.3829 1471.82,-11.8793 1292.61,-11.1119"/>
<polygon fill="midnightblue" stroke="midnightblue" points="2487.44,-59.4676 2497.7,-56.8112 2488.02,-52.4918 2487.44,-59.4676"/>
</g>
<!-- Node72&#45;&gt;Node78 -->
<g id="edge14" class="edge"><title>Node72&#45;&gt;Node78</title>
<path fill="none" stroke="midnightblue" d="M2598.02,-53.6986C2635.01,-43.507 2688.6,-28.7429 2722.09,-19.5164"/>
<polygon fill="midnightblue" stroke="midnightblue" points="2596.77,-50.4131 2588.06,-56.4435 2598.63,-57.1616 2596.77,-50.4131"/>
</g>
</g>
</svg>
        <g id="navigator" transform="translate(0 0)" fill="#404254">
                <rect fill="#f2f5e9" fill-opacity="0.5" stroke="#606060" stroke-width=".5" x="0" y="0" width="60" height="60"/>
                <use id="zoomplus" xlink:href="#zoomPlus" x="17" y="9" onmousedown="handleZoom(evt,'in')"/>
                <use id="zoomminus" xlink:href="#zoomMin" x="42" y="9" onmousedown="handleZoom(evt,'out')"/>
                <use id="reset" xlink:href="#resetDef" x="30" y="36" onmousedown="handleReset()"/>
                <g id="arrowUp" xlink:href="#dirArrow" transform="translate(30 24)" onmousedown="handlePan(0,-1)">
                  <use xlink:href="#rim" fill="#404040">
                        <set attributeName="fill" to="#808080" begin="arrowUp.mouseover" end="arrowUp.mouseout"/>
                  </use>
                  <path fill="none" stroke="white" stroke-width="1.5" d="M0,-3.0v7 M-2.5,-0.5L0,-3.0L2.5,-0.5"/>
                </g>
                <g id="arrowRight" xlink:href="#dirArrow" transform="rotate(90) translate(36 -43)" onmousedown="handlePan(1,0)">
                  <use xlink:href="#rim" fill="#404040">
                        <set attributeName="fill" to="#808080" begin="arrowRight.mouseover" end="arrowRight.mouseout"/>
                  </use>
                  <path fill="none" stroke="white" stroke-width="1.5" d="M0,-3.0v7 M-2.5,-0.5L0,-3.0L2.5,-0.5"/>
                </g>
                <g id="arrowDown" xlink:href="#dirArrow" transform="rotate(180) translate(-30 -48)" onmousedown="handlePan(0,1)">
                  <use xlink:href="#rim" fill="#404040">
                        <set attributeName="fill" to="#808080" begin="arrowDown.mouseover" end="arrowDown.mouseout"/>
                  </use>
                  <path fill="none" stroke="white" stroke-width="1.5" d="M0,-3.0v7 M-2.5,-0.5L0,-3.0L2.5,-0.5"/>
                </g>
                <g id="arrowLeft" xlink:href="#dirArrow" transform="rotate(270) translate(-36 17)" onmousedown="handlePan(-1,0)">
                  <use xlink:href="#rim" fill="#404040">
                        <set attributeName="fill" to="#808080" begin="arrowLeft.mouseover" end="arrowLeft.mouseout"/>
                  </use>
                  <path fill="none" stroke="white" stroke-width="1.5" d="M0,-3.0v7 M-2.5,-0.5L0,-3.0L2.5,-0.5"/>
                </g>
        </g>
        <svg viewBox="0 0 15 15" width="100%" height="30px" preserveAspectRatio="xMaxYMin meet">
         <g id="arrow_out" transform="scale(0.3 0.3)">
          <a xlink:href="keystore_8h__dep__incl_org.svg" target="_base">
           <rect id="button" ry="5" rx="5" y="6" x="6" height="38" width="38"
                fill="#f2f5e9" fill-opacity="0.5" stroke="#606060" stroke-width="1.0"/>
           <path id="arrow"
             d="M 11.500037,31.436501 C 11.940474,20.09759 22.043105,11.32322 32.158766,21.979434 L 37.068811,17.246167 C 37.068811,17.246167 37.088388,32 37.088388,32 L 22.160133,31.978069 C 22.160133,31.978069 26.997745,27.140456 26.997745,27.140456 C 18.528582,18.264221 13.291696,25.230495 11.500037,31.436501 z"
             style="fill:#404040;"/>
          </a>
         </g>
        </svg>
</svg>
