<?xml version="1.0" encoding="UTF-8" standalone="no"?>
<!DOCTYPE svg PUBLIC "-//W3C//DTD SVG 1.1//EN"
 "http://www.w3.org/Graphics/SVG/1.1/DTD/svg11.dtd">
<!-- Generated by graphviz version 2.36.0 (20140111.2315)
 -->
<!-- Title: src/secp256k1/contrib/lax_der_privatekey_parsing.h Pages: 1 -->
<svg width="154pt" height="164pt"
 viewBox="0.00 0.00 154.00 164.00" xmlns="http://www.w3.org/2000/svg" xmlns:xlink="http://www.w3.org/1999/xlink">
<g id="graph0" class="graph" transform="scale(1 1) rotate(0) translate(4 160)">
<title>src/secp256k1/contrib/lax_der_privatekey_parsing.h</title>
<polygon fill="white" stroke="none" points="-4,4 -4,-160 150,-160 150,4 -4,4"/>
<!-- Node3 -->
<g id="node1" class="node"><title>Node3</title>
<polygon fill="#bfbfbf" stroke="black" points="0,-125 0,-155 146,-155 146,-125 0,-125"/>
<text text-anchor="start" x="8" y="-143" font-family="Helvetica,sans-Serif" font-size="10.00">src/secp256k1/contrib</text>
<text text-anchor="middle" x="73" y="-132" font-family="Helvetica,sans-Serif" font-size="10.00">/lax_der_privatekey_parsing.h</text>
</g>
<!-- Node4 -->
<g id="node2" class="node"><title>Node4</title>
<g id="a_node2"><a xlink:href="lax__der__privatekey__parsing_8c.html" target="_top" xlink:title="src/secp256k1/contrib\l/lax_der_privatekey_parsing.c">
<polygon fill="white" stroke="black" points="0,-57 0,-87 146,-87 146,-57 0,-57"/>
<text text-anchor="start" x="8" y="-75" font-family="Helvetica,sans-Serif" font-size="10.00">src/secp256k1/contrib</text>
<text text-anchor="middle" x="73" y="-64" font-family="Helvetica,sans-Serif" font-size="10.00">/lax_der_privatekey_parsing.c</text>
</a>
</g>
</g>
<!-- Node3&#45;&gt;Node4 -->
<g id="edge1" class="edge"><title>Node3&#45;&gt;Node4</title>
<path fill="none" stroke="midnightblue" d="M73,-114.532C73,-105.361 73,-95.2449 73,-87.2931"/>
<polygon fill="midnightblue" stroke="midnightblue" points="69.5001,-114.679 73,-124.679 76.5001,-114.679 69.5001,-114.679"/>
</g>
<!-- Node5 -->
<g id="node3" class="node"><title>Node5</title>
<g id="a_node3"><a xlink:href="tests_8c.html" target="_top" xlink:title="src/secp256k1/src/tests.c">
<polygon fill="white" stroke="black" points="8,-0.5 8,-19.5 138,-19.5 138,-0.5 8,-0.5"/>
<text text-anchor="middle" x="73" y="-7.5" font-family="Helvetica,sans-Serif" font-size="10.00">src/secp256k1/src/tests.c</text>
</a>
</g>
</g>
<!-- Node4&#45;&gt;Node5 -->
<g id="edge2" class="edge"><title>Node4&#45;&gt;Node5</title>
<path fill="none" stroke="midnightblue" d="M73,-46.5858C73,-37.0743 73,-26.7864 73,-19.7305"/>
<polygon fill="midnightblue" stroke="midnightblue" points="69.5001,-46.7808 73,-56.7808 76.5001,-46.7809 69.5001,-46.7808"/>
</g>
</g>
</svg>
