<?xml version="1.0" encoding="UTF-8" standalone="no"?>
<!DOCTYPE svg PUBLIC "-//W3C//DTD SVG 1.1//EN"
 "http://www.w3.org/Graphics/SVG/1.1/DTD/svg11.dtd">
<!-- Generated by graphviz version 2.36.0 (20140111.2315)
 -->
<!-- Title: src/secp256k1/contrib/lax_der_privatekey_parsing.h Pages: 1 -->
<svg width="154pt" height="152pt"
 viewBox="0.00 0.00 154.00 152.00" xmlns="http://www.w3.org/2000/svg" xmlns:xlink="http://www.w3.org/1999/xlink">
<g id="graph0" class="graph" transform="scale(1 1) rotate(0) translate(4 148)">
<title>src/secp256k1/contrib/lax_der_privatekey_parsing.h</title>
<polygon fill="white" stroke="none" points="-4,4 -4,-148 150,-148 150,4 -4,4"/>
<!-- Node0 -->
<g id="node1" class="node"><title>Node0</title>
<polygon fill="#bfbfbf" stroke="black" points="0,-113 0,-143 146,-143 146,-113 0,-113"/>
<text text-anchor="start" x="8" y="-131" font-family="Helvetica,sans-Serif" font-size="10.00">src/secp256k1/contrib</text>
<text text-anchor="middle" x="73" y="-120" font-family="Helvetica,sans-Serif" font-size="10.00">/lax_der_privatekey_parsing.h</text>
</g>
<!-- Node1 -->
<g id="node2" class="node"><title>Node1</title>
<g id="a_node2"><a xlink:href="secp256k1_8h.html" target="_top" xlink:title="secp256k1.h">
<polygon fill="white" stroke="black" points="37,-56.5 37,-75.5 109,-75.5 109,-56.5 37,-56.5"/>
<text text-anchor="middle" x="73" y="-63.5" font-family="Helvetica,sans-Serif" font-size="10.00">secp256k1.h</text>
</a>
</g>
</g>
<!-- Node0&#45;&gt;Node1 -->
<g id="edge1" class="edge"><title>Node0&#45;&gt;Node1</title>
<path fill="none" stroke="midnightblue" d="M73,-112.781C73,-104.781 73,-94.6887 73,-86.0168"/>
<polygon fill="midnightblue" stroke="midnightblue" points="76.5001,-85.7305 73,-75.7305 69.5001,-85.7306 76.5001,-85.7305"/>
</g>
<!-- Node2 -->
<g id="node3" class="node"><title>Node2</title>
<polygon fill="white" stroke="#bfbfbf" points="47,-0.5 47,-19.5 99,-19.5 99,-0.5 47,-0.5"/>
<text text-anchor="middle" x="73" y="-7.5" font-family="Helvetica,sans-Serif" font-size="10.00">stddef.h</text>
</g>
<!-- Node1&#45;&gt;Node2 -->
<g id="edge2" class="edge"><title>Node1&#45;&gt;Node2</title>
<path fill="none" stroke="midnightblue" d="M73,-56.083C73,-49.0059 73,-38.8611 73,-29.9865"/>
<polygon fill="midnightblue" stroke="midnightblue" points="76.5001,-29.751 73,-19.7511 69.5001,-29.7511 76.5001,-29.751"/>
</g>
</g>
</svg>
