<?xml version="1.0" encoding="UTF-8" standalone="no"?>
<!DOCTYPE svg PUBLIC "-//W3C//DTD SVG 1.1//EN"
 "http://www.w3.org/Graphics/SVG/1.1/DTD/svg11.dtd">
<!-- Generated by graphviz version 2.36.0 (20140111.2315)
 -->
<!-- Title: src/secp256k1/contrib/lax_der_privatekey_parsing.c Pages: 1 -->
<svg width="211pt" height="220pt"
 viewBox="0.00 0.00 211.00 220.00" xmlns="http://www.w3.org/2000/svg" xmlns:xlink="http://www.w3.org/1999/xlink">
<g id="graph0" class="graph" transform="scale(1 1) rotate(0) translate(4 216)">
<title>src/secp256k1/contrib/lax_der_privatekey_parsing.c</title>
<polygon fill="white" stroke="none" points="-4,4 -4,-216 207,-216 207,4 -4,4"/>
<!-- Node0 -->
<g id="node1" class="node"><title>Node0</title>
<polygon fill="#bfbfbf" stroke="black" points="4,-181 4,-211 150,-211 150,-181 4,-181"/>
<text text-anchor="start" x="12" y="-199" font-family="Helvetica,sans-Serif" font-size="10.00">src/secp256k1/contrib</text>
<text text-anchor="middle" x="77" y="-188" font-family="Helvetica,sans-Serif" font-size="10.00">/lax_der_privatekey_parsing.c</text>
</g>
<!-- Node1 -->
<g id="node2" class="node"><title>Node1</title>
<polygon fill="white" stroke="#bfbfbf" points="-0.5,-118.5 -0.5,-137.5 48.5,-137.5 48.5,-118.5 -0.5,-118.5"/>
<text text-anchor="middle" x="24" y="-125.5" font-family="Helvetica,sans-Serif" font-size="10.00">string.h</text>
</g>
<!-- Node0&#45;&gt;Node1 -->
<g id="edge1" class="edge"><title>Node0&#45;&gt;Node1</title>
<path fill="none" stroke="midnightblue" d="M65.4998,-180.679C57.2359,-170.388 46.0703,-156.484 37.4023,-145.69"/>
<polygon fill="midnightblue" stroke="midnightblue" points="40.0798,-143.434 31.0894,-137.828 34.6218,-147.817 40.0798,-143.434"/>
</g>
<!-- Node2 -->
<g id="node3" class="node"><title>Node2</title>
<g id="a_node3"><a xlink:href="secp256k1_8h.html" target="_top" xlink:title="secp256k1.h">
<polygon fill="white" stroke="black" points="79,-56.5 79,-75.5 151,-75.5 151,-56.5 79,-56.5"/>
<text text-anchor="middle" x="115" y="-63.5" font-family="Helvetica,sans-Serif" font-size="10.00">secp256k1.h</text>
</a>
</g>
</g>
<!-- Node0&#45;&gt;Node2 -->
<g id="edge2" class="edge"><title>Node0&#45;&gt;Node2</title>
<path fill="none" stroke="midnightblue" d="M79.4323,-180.995C82.5029,-164.331 88.3248,-135.774 96,-112 98.9311,-102.921 102.955,-93.1313 106.546,-85.0088"/>
<polygon fill="midnightblue" stroke="midnightblue" points="109.784,-86.3419 110.747,-75.7909 103.415,-83.4389 109.784,-86.3419"/>
</g>
<!-- Node4 -->
<g id="node5" class="node"><title>Node4</title>
<g id="a_node5"><a xlink:href="lax__der__privatekey__parsing_8h.html" target="_top" xlink:title="lax_der_privatekey\l_parsing.h">
<polygon fill="white" stroke="black" points="105,-113 105,-143 203,-143 203,-113 105,-113"/>
<text text-anchor="start" x="113" y="-131" font-family="Helvetica,sans-Serif" font-size="10.00">lax_der_privatekey</text>
<text text-anchor="middle" x="154" y="-120" font-family="Helvetica,sans-Serif" font-size="10.00">_parsing.h</text>
</a>
</g>
</g>
<!-- Node0&#45;&gt;Node4 -->
<g id="edge4" class="edge"><title>Node0&#45;&gt;Node4</title>
<path fill="none" stroke="midnightblue" d="M93.7079,-180.679C104.274,-171.623 118.104,-159.768 129.853,-149.697"/>
<polygon fill="midnightblue" stroke="midnightblue" points="132.274,-152.232 137.589,-143.066 127.719,-146.917 132.274,-152.232"/>
</g>
<!-- Node3 -->
<g id="node4" class="node"><title>Node3</title>
<polygon fill="white" stroke="#bfbfbf" points="89,-0.5 89,-19.5 141,-19.5 141,-0.5 89,-0.5"/>
<text text-anchor="middle" x="115" y="-7.5" font-family="Helvetica,sans-Serif" font-size="10.00">stddef.h</text>
</g>
<!-- Node2&#45;&gt;Node3 -->
<g id="edge3" class="edge"><title>Node2&#45;&gt;Node3</title>
<path fill="none" stroke="midnightblue" d="M115,-56.083C115,-49.0059 115,-38.8611 115,-29.9865"/>
<polygon fill="midnightblue" stroke="midnightblue" points="118.5,-29.751 115,-19.7511 111.5,-29.7511 118.5,-29.751"/>
</g>
<!-- Node4&#45;&gt;Node2 -->
<g id="edge5" class="edge"><title>Node4&#45;&gt;Node2</title>
<path fill="none" stroke="midnightblue" d="M144.758,-112.781C139.207,-104.242 132.107,-93.3184 126.234,-84.2834"/>
<polygon fill="midnightblue" stroke="midnightblue" points="129.059,-82.2075 120.675,-75.7305 123.19,-86.0225 129.059,-82.2075"/>
</g>
</g>
</svg>
