<?xml version="1.0" encoding="UTF-8" standalone="no"?>
<!DOCTYPE svg PUBLIC "-//W3C//DTD SVG 1.1//EN"
 "http://www.w3.org/Graphics/SVG/1.1/DTD/svg11.dtd">
<!-- Generated by graphviz version 2.36.0 (20140111.2315)
 -->
<!-- Title: src/support/lockedpool.h Pages: 1 -->
<svg width="289pt" height="84pt"
 viewBox="0.00 0.00 289.00 84.00" xmlns="http://www.w3.org/2000/svg" xmlns:xlink="http://www.w3.org/1999/xlink">
<g id="graph0" class="graph" transform="scale(1 1) rotate(0) translate(4 80)">
<title>src/support/lockedpool.h</title>
<polygon fill="white" stroke="none" points="-4,4 -4,-80 285,-80 285,4 -4,4"/>
<!-- Node0 -->
<g id="node1" class="node"><title>Node0</title>
<polygon fill="#bfbfbf" stroke="black" points="69.5,-56.5 69.5,-75.5 192.5,-75.5 192.5,-56.5 69.5,-56.5"/>
<text text-anchor="middle" x="131" y="-63.5" font-family="Helvetica,sans-Serif" font-size="10.00">src/support/lockedpool.h</text>
</g>
<!-- Node1 -->
<g id="node2" class="node"><title>Node1</title>
<polygon fill="white" stroke="#bfbfbf" points="-0.5,-0.5 -0.5,-19.5 48.5,-19.5 48.5,-0.5 -0.5,-0.5"/>
<text text-anchor="middle" x="24" y="-7.5" font-family="Helvetica,sans-Serif" font-size="10.00">stdint.h</text>
</g>
<!-- Node0&#45;&gt;Node1 -->
<g id="edge1" class="edge"><title>Node0&#45;&gt;Node1</title>
<path fill="none" stroke="midnightblue" d="M113.809,-56.324C96.6491,-47.6641 70.0543,-34.2424 50.2527,-24.249"/>
<polygon fill="midnightblue" stroke="midnightblue" points="51.6532,-21.0354 41.1487,-19.6545 48.4993,-27.2847 51.6532,-21.0354"/>
</g>
<!-- Node2 -->
<g id="node3" class="node"><title>Node2</title>
<polygon fill="white" stroke="#bfbfbf" points="66.5,-0.5 66.5,-19.5 95.5,-19.5 95.5,-0.5 66.5,-0.5"/>
<text text-anchor="middle" x="81" y="-7.5" font-family="Helvetica,sans-Serif" font-size="10.00">list</text>
</g>
<!-- Node0&#45;&gt;Node2 -->
<g id="edge2" class="edge"><title>Node0&#45;&gt;Node2</title>
<path fill="none" stroke="midnightblue" d="M122.744,-56.083C115.535,-48.2982 104.89,-36.8015 96.1542,-27.3665"/>
<polygon fill="midnightblue" stroke="midnightblue" points="98.4651,-24.7108 89.1028,-19.7511 93.3288,-29.4666 98.4651,-24.7108"/>
</g>
<!-- Node3 -->
<g id="node4" class="node"><title>Node3</title>
<polygon fill="white" stroke="#bfbfbf" points="113.5,-0.5 113.5,-19.5 148.5,-19.5 148.5,-0.5 113.5,-0.5"/>
<text text-anchor="middle" x="131" y="-7.5" font-family="Helvetica,sans-Serif" font-size="10.00">map</text>
</g>
<!-- Node0&#45;&gt;Node3 -->
<g id="edge3" class="edge"><title>Node0&#45;&gt;Node3</title>
<path fill="none" stroke="midnightblue" d="M131,-56.083C131,-49.0059 131,-38.8611 131,-29.9865"/>
<polygon fill="midnightblue" stroke="midnightblue" points="134.5,-29.751 131,-19.7511 127.5,-29.7511 134.5,-29.751"/>
</g>
<!-- Node4 -->
<g id="node5" class="node"><title>Node4</title>
<polygon fill="white" stroke="#bfbfbf" points="167,-0.5 167,-19.5 211,-19.5 211,-0.5 167,-0.5"/>
<text text-anchor="middle" x="189" y="-7.5" font-family="Helvetica,sans-Serif" font-size="10.00">mutex</text>
</g>
<!-- Node0&#45;&gt;Node4 -->
<g id="edge4" class="edge"><title>Node0&#45;&gt;Node4</title>
<path fill="none" stroke="midnightblue" d="M140.319,-56.324C148.893,-48.3414 161.812,-36.3128 172.188,-26.6529"/>
<polygon fill="midnightblue" stroke="midnightblue" points="174.578,-29.2098 179.512,-19.8339 169.808,-24.0865 174.578,-29.2098"/>
</g>
<!-- Node5 -->
<g id="node6" class="node"><title>Node5</title>
<polygon fill="white" stroke="#bfbfbf" points="229,-0.5 229,-19.5 281,-19.5 281,-0.5 229,-0.5"/>
<text text-anchor="middle" x="255" y="-7.5" font-family="Helvetica,sans-Serif" font-size="10.00">memory</text>
</g>
<!-- Node0&#45;&gt;Node5 -->
<g id="edge5" class="edge"><title>Node0&#45;&gt;Node5</title>
<path fill="none" stroke="midnightblue" d="M150.648,-56.4435C170.965,-47.5961 202.903,-33.6875 226.098,-23.5865"/>
<polygon fill="midnightblue" stroke="midnightblue" points="227.673,-26.7181 235.444,-19.5164 224.878,-20.3002 227.673,-26.7181"/>
</g>
</g>
</svg>
