<?xml version="1.0" encoding="UTF-8" standalone="no"?>
<!DOCTYPE svg PUBLIC "-//W3C//DTD SVG 1.1//EN"
 "http://www.w3.org/Graphics/SVG/1.1/DTD/svg11.dtd">
<!-- Generated by graphviz version 2.36.0 (20140111.2315)
 -->
<!-- Title: src/masternode.h Pages: 1 -->
<svg width="3673pt" height="140pt"
 viewBox="0.00 0.00 3673.00 140.00" xmlns="http://www.w3.org/2000/svg" xmlns:xlink="http://www.w3.org/1999/xlink">
<g id="graph0" class="graph" transform="scale(1 1) rotate(0) translate(4 136)">
<title>src/masternode.h</title>
<polygon fill="white" stroke="none" points="-4,4 -4,-136 3669,-136 3669,4 -4,4"/>
<!-- Node173 -->
<g id="node1" class="node"><title>Node173</title>
<polygon fill="#bfbfbf" stroke="black" points="1342,-112.5 1342,-131.5 1434,-131.5 1434,-112.5 1342,-112.5"/>
<text text-anchor="middle" x="1388" y="-119.5" font-family="Helvetica,sans-Serif" font-size="10.00">src/masternode.h</text>
</g>
<!-- Node174 -->
<g id="node2" class="node"><title>Node174</title>
<g id="a_node2"><a xlink:href="activemasternode_8cpp.html" target="_top" xlink:title="src/activemasternode.cpp">
<polygon fill="white" stroke="black" points="-0.5,-0.5 -0.5,-19.5 128.5,-19.5 128.5,-0.5 -0.5,-0.5"/>
<text text-anchor="middle" x="64" y="-7.5" font-family="Helvetica,sans-Serif" font-size="10.00">src/activemasternode.cpp</text>
</a>
</g>
</g>
<!-- Node173&#45;&gt;Node174 -->
<g id="edge1" class="edge"><title>Node173&#45;&gt;Node174</title>
<path fill="none" stroke="midnightblue" d="M1331.85,-119.061C1202.1,-114.308 871.463,-100.628 596,-76 423.85,-60.609 221.435,-33.3321 123.307,-19.5208"/>
<polygon fill="midnightblue" stroke="midnightblue" points="1331.83,-122.563 1341.95,-119.428 1332.08,-115.567 1331.83,-122.563"/>
</g>
<!-- Node175 -->
<g id="node3" class="node"><title>Node175</title>
<g id="a_node3"><a xlink:href="masternodeman_8h.html" target="_top" xlink:title="src/masternodeman.h">
<polygon fill="white" stroke="black" points="1332.5,-56.5 1332.5,-75.5 1443.5,-75.5 1443.5,-56.5 1332.5,-56.5"/>
<text text-anchor="middle" x="1388" y="-63.5" font-family="Helvetica,sans-Serif" font-size="10.00">src/masternodeman.h</text>
</a>
</g>
</g>
<!-- Node173&#45;&gt;Node175 -->
<g id="edge2" class="edge"><title>Node173&#45;&gt;Node175</title>
<path fill="none" stroke="midnightblue" d="M1388,-101.805C1388,-92.9102 1388,-82.7798 1388,-75.7511"/>
<polygon fill="midnightblue" stroke="midnightblue" points="1384.5,-102.083 1388,-112.083 1391.5,-102.083 1384.5,-102.083"/>
</g>
<!-- Node179 -->
<g id="node7" class="node"><title>Node179</title>
<g id="a_node7"><a xlink:href="governance_8cpp.html" target="_top" xlink:title="src/governance.cpp">
<polygon fill="white" stroke="black" points="147,-0.5 147,-19.5 249,-19.5 249,-0.5 147,-0.5"/>
<text text-anchor="middle" x="198" y="-7.5" font-family="Helvetica,sans-Serif" font-size="10.00">src/governance.cpp</text>
</a>
</g>
</g>
<!-- Node173&#45;&gt;Node179 -->
<g id="edge39" class="edge"><title>Node173&#45;&gt;Node179</title>
<path fill="none" stroke="midnightblue" d="M1331.47,-117.148C1166.05,-105.619 668.723,-69.115 258,-20 255.072,-19.6498 252.066,-19.2686 249.035,-18.8672"/>
<polygon fill="midnightblue" stroke="midnightblue" points="1331.66,-120.67 1341.88,-117.871 1332.15,-113.687 1331.66,-120.67"/>
</g>
<!-- Node184 -->
<g id="node12" class="node"><title>Node184</title>
<g id="a_node12"><a xlink:href="masternode_8cpp.html" target="_top" xlink:title="src/masternode.cpp">
<polygon fill="white" stroke="black" points="642.5,-0.5 642.5,-19.5 745.5,-19.5 745.5,-0.5 642.5,-0.5"/>
<text text-anchor="middle" x="694" y="-7.5" font-family="Helvetica,sans-Serif" font-size="10.00">src/masternode.cpp</text>
</a>
</g>
</g>
<!-- Node173&#45;&gt;Node184 -->
<g id="edge40" class="edge"><title>Node173&#45;&gt;Node184</title>
<path fill="none" stroke="midnightblue" d="M1332.05,-112.132C1200.45,-91.2727 872.843,-39.3469 745.643,-19.1855"/>
<polygon fill="midnightblue" stroke="midnightblue" points="1331.5,-115.589 1341.93,-113.697 1332.6,-108.675 1331.5,-115.589"/>
</g>
<!-- Node193 -->
<g id="node21" class="node"><title>Node193</title>
<g id="a_node21"><a xlink:href="rpc_2governance_8cpp.html" target="_top" xlink:title="src/rpc/governance.cpp">
<polygon fill="white" stroke="black" points="2710.5,-0.5 2710.5,-19.5 2829.5,-19.5 2829.5,-0.5 2710.5,-0.5"/>
<text text-anchor="middle" x="2770" y="-7.5" font-family="Helvetica,sans-Serif" font-size="10.00">src/rpc/governance.cpp</text>
</a>
</g>
</g>
<!-- Node173&#45;&gt;Node193 -->
<g id="edge48" class="edge"><title>Node173&#45;&gt;Node193</title>
<path fill="none" stroke="midnightblue" d="M1444.14,-117.796C1626.01,-107.178 2215.31,-70.905 2701,-20 2704,-19.6852 2707.08,-19.346 2710.18,-18.9903"/>
<polygon fill="midnightblue" stroke="midnightblue" points="1443.8,-114.31 1434.02,-118.385 1444.2,-121.298 1443.8,-114.31"/>
</g>
<!-- Node196 -->
<g id="node24" class="node"><title>Node196</title>
<g id="a_node24"><a xlink:href="masternode-payments_8h.html" target="_top" xlink:title="src/masternode&#45;payments.h">
<polygon fill="white" stroke="black" points="1848,-56.5 1848,-75.5 1986,-75.5 1986,-56.5 1848,-56.5"/>
<text text-anchor="middle" x="1917" y="-63.5" font-family="Helvetica,sans-Serif" font-size="10.00">src/masternode&#45;payments.h</text>
</a>
</g>
</g>
<!-- Node173&#45;&gt;Node196 -->
<g id="edge24" class="edge"><title>Node173&#45;&gt;Node196</title>
<path fill="none" stroke="midnightblue" d="M1444.26,-115.257C1541.73,-105.308 1741.7,-84.8948 1847.62,-74.0825"/>
<polygon fill="midnightblue" stroke="midnightblue" points="1443.61,-111.805 1434.02,-116.302 1444.32,-118.769 1443.61,-111.805"/>
</g>
<!-- Node199 -->
<g id="node27" class="node"><title>Node199</title>
<g id="a_node27"><a xlink:href="privatesend-client_8h.html" target="_top" xlink:title="src/privatesend&#45;client.h">
<polygon fill="white" stroke="black" points="3127,-56.5 3127,-75.5 3245,-75.5 3245,-56.5 3127,-56.5"/>
<text text-anchor="middle" x="3186" y="-63.5" font-family="Helvetica,sans-Serif" font-size="10.00">src/privatesend&#45;client.h</text>
</a>
</g>
</g>
<!-- Node173&#45;&gt;Node199 -->
<g id="edge41" class="edge"><title>Node173&#45;&gt;Node199</title>
<path fill="none" stroke="midnightblue" d="M1444.52,-119.302C1712.52,-111.254 2853.58,-76.9836 3126.97,-68.773"/>
<polygon fill="midnightblue" stroke="midnightblue" points="1444.14,-115.812 1434.25,-119.611 1444.35,-122.809 1444.14,-115.812"/>
</g>
<!-- Node175&#45;&gt;Node174 -->
<g id="edge3" class="edge"><title>Node175&#45;&gt;Node174</title>
<path fill="none" stroke="midnightblue" d="M1322.3,-64.6014C1136.25,-63.0487 590.027,-55.5599 138,-20 134.904,-19.7564 131.737,-19.4794 128.541,-19.1773"/>
<polygon fill="midnightblue" stroke="midnightblue" points="1322.43,-68.1025 1332.46,-64.6832 1322.49,-61.1027 1322.43,-68.1025"/>
</g>
<!-- Node176 -->
<g id="node4" class="node"><title>Node176</title>
<g id="a_node4"><a xlink:href="dsnotificationinterface_8cpp.html" target="_top" xlink:title="src/dsnotificationinterface.cpp">
<polygon fill="white" stroke="black" points="1190.5,-0.5 1190.5,-19.5 1337.5,-19.5 1337.5,-0.5 1190.5,-0.5"/>
<text text-anchor="middle" x="1264" y="-7.5" font-family="Helvetica,sans-Serif" font-size="10.00">src/dsnotificationinterface.cpp</text>
</a>
</g>
</g>
<!-- Node175&#45;&gt;Node176 -->
<g id="edge4" class="edge"><title>Node175&#45;&gt;Node176</title>
<path fill="none" stroke="midnightblue" d="M1358.99,-52.3678C1335.77,-42.2553 1303.84,-28.3486 1283.56,-19.5164"/>
<polygon fill="midnightblue" stroke="midnightblue" points="1357.79,-55.6597 1368.35,-56.4435 1360.58,-49.2419 1357.79,-55.6597"/>
</g>
<!-- Node177 -->
<g id="node5" class="node"><title>Node177</title>
<g id="a_node5"><a xlink:href="governance-object_8cpp.html" target="_top" xlink:title="src/governance&#45;object.cpp">
<polygon fill="white" stroke="black" points="267.5,-0.5 267.5,-19.5 398.5,-19.5 398.5,-0.5 267.5,-0.5"/>
<text text-anchor="middle" x="333" y="-7.5" font-family="Helvetica,sans-Serif" font-size="10.00">src/governance&#45;object.cpp</text>
</a>
</g>
</g>
<!-- Node175&#45;&gt;Node177 -->
<g id="edge5" class="edge"><title>Node175&#45;&gt;Node177</title>
<path fill="none" stroke="midnightblue" d="M1322.36,-63.6527C1164.57,-60.0507 751.599,-48.4659 408,-20 404.994,-19.751 401.923,-19.474 398.822,-19.1762"/>
<polygon fill="midnightblue" stroke="midnightblue" points="1322.3,-67.1522 1332.38,-63.8785 1322.46,-60.154 1322.3,-67.1522"/>
</g>
<!-- Node178 -->
<g id="node6" class="node"><title>Node178</title>
<g id="a_node6"><a xlink:href="governance-vote_8cpp.html" target="_top" xlink:title="src/governance&#45;vote.cpp">
<polygon fill="white" stroke="black" points="417,-0.5 417,-19.5 541,-19.5 541,-0.5 417,-0.5"/>
<text text-anchor="middle" x="479" y="-7.5" font-family="Helvetica,sans-Serif" font-size="10.00">src/governance&#45;vote.cpp</text>
</a>
</g>
</g>
<!-- Node175&#45;&gt;Node178 -->
<g id="edge6" class="edge"><title>Node175&#45;&gt;Node178</title>
<path fill="none" stroke="midnightblue" d="M1322.26,-63.0904C1180.79,-58.6249 837.023,-45.8639 550,-20 547.154,-19.7435 544.246,-19.4605 541.31,-19.1577"/>
<polygon fill="midnightblue" stroke="midnightblue" points="1322.39,-66.5961 1332.5,-63.4101 1322.61,-59.5995 1322.39,-66.5961"/>
</g>
<!-- Node175&#45;&gt;Node179 -->
<g id="edge7" class="edge"><title>Node175&#45;&gt;Node179</title>
<path fill="none" stroke="midnightblue" d="M1322.28,-64.8844C1148.24,-64.0373 661.174,-58.1511 258,-20 255.064,-19.7222 252.052,-19.3974 249.017,-19.0394"/>
<polygon fill="midnightblue" stroke="midnightblue" points="1322.28,-68.3844 1332.3,-64.9293 1322.32,-61.3845 1322.28,-68.3844"/>
</g>
<!-- Node180 -->
<g id="node8" class="node"><title>Node180</title>
<g id="a_node8"><a xlink:href="init_8cpp.html" target="_top" xlink:title="src/init.cpp">
<polygon fill="white" stroke="black" points="1355.5,-0.5 1355.5,-19.5 1420.5,-19.5 1420.5,-0.5 1355.5,-0.5"/>
<text text-anchor="middle" x="1388" y="-7.5" font-family="Helvetica,sans-Serif" font-size="10.00">src/init.cpp</text>
</a>
</g>
</g>
<!-- Node175&#45;&gt;Node180 -->
<g id="edge8" class="edge"><title>Node175&#45;&gt;Node180</title>
<path fill="none" stroke="midnightblue" d="M1388,-45.8045C1388,-36.9102 1388,-26.7798 1388,-19.7511"/>
<polygon fill="midnightblue" stroke="midnightblue" points="1384.5,-46.083 1388,-56.083 1391.5,-46.083 1384.5,-46.083"/>
</g>
<!-- Node181 -->
<g id="node9" class="node"><title>Node181</title>
<g id="a_node9"><a xlink:href="instantx_8cpp.html" target="_top" xlink:title="src/instantx.cpp">
<polygon fill="white" stroke="black" points="1439,-0.5 1439,-19.5 1525,-19.5 1525,-0.5 1439,-0.5"/>
<text text-anchor="middle" x="1482" y="-7.5" font-family="Helvetica,sans-Serif" font-size="10.00">src/instantx.cpp</text>
</a>
</g>
</g>
<!-- Node175&#45;&gt;Node181 -->
<g id="edge9" class="edge"><title>Node175&#45;&gt;Node181</title>
<path fill="none" stroke="midnightblue" d="M1412.06,-51.1774C1429.36,-41.2407 1452.15,-28.1492 1466.93,-19.6545"/>
<polygon fill="midnightblue" stroke="midnightblue" points="1410.03,-48.3078 1403.1,-56.324 1413.52,-54.3775 1410.03,-48.3078"/>
</g>
<!-- Node182 -->
<g id="node10" class="node"><title>Node182</title>
<g id="a_node10"><a xlink:href="masternode-payments_8cpp.html" target="_top" xlink:title="src/masternode&#45;payments.cpp">
<polygon fill="white" stroke="black" points="1543.5,-0.5 1543.5,-19.5 1692.5,-19.5 1692.5,-0.5 1543.5,-0.5"/>
<text text-anchor="middle" x="1618" y="-7.5" font-family="Helvetica,sans-Serif" font-size="10.00">src/masternode&#45;payments.cpp</text>
</a>
</g>
</g>
<!-- Node175&#45;&gt;Node182 -->
<g id="edge10" class="edge"><title>Node175&#45;&gt;Node182</title>
<path fill="none" stroke="midnightblue" d="M1434.2,-54.1529C1477.66,-43.95 1541.84,-28.8809 1581.73,-19.5164"/>
<polygon fill="midnightblue" stroke="midnightblue" points="1433.38,-50.7504 1424.44,-56.4435 1434.98,-57.5651 1433.38,-50.7504"/>
</g>
<!-- Node183 -->
<g id="node11" class="node"><title>Node183</title>
<g id="a_node11"><a xlink:href="masternode-sync_8cpp.html" target="_top" xlink:title="src/masternode&#45;sync.cpp">
<polygon fill="white" stroke="black" points="1710.5,-0.5 1710.5,-19.5 1837.5,-19.5 1837.5,-0.5 1710.5,-0.5"/>
<text text-anchor="middle" x="1774" y="-7.5" font-family="Helvetica,sans-Serif" font-size="10.00">src/masternode&#45;sync.cpp</text>
</a>
</g>
</g>
<!-- Node175&#45;&gt;Node183 -->
<g id="edge11" class="edge"><title>Node175&#45;&gt;Node183</title>
<path fill="none" stroke="midnightblue" d="M1453.67,-55.8125C1526.36,-45.6443 1642.54,-29.3902 1713.21,-19.5047"/>
<polygon fill="midnightblue" stroke="midnightblue" points="1453.13,-52.3538 1443.72,-57.2056 1454.1,-59.2863 1453.13,-52.3538"/>
</g>
<!-- Node175&#45;&gt;Node184 -->
<g id="edge12" class="edge"><title>Node175&#45;&gt;Node184</title>
<path fill="none" stroke="midnightblue" d="M1322.35,-61.9698C1207.22,-56.2907 961.515,-42.5427 755,-20 751.914,-19.6631 748.744,-19.2871 745.549,-18.8851"/>
<polygon fill="midnightblue" stroke="midnightblue" points="1322.25,-65.4692 1332.41,-62.462 1322.6,-58.4775 1322.25,-65.4692"/>
</g>
<!-- Node185 -->
<g id="node13" class="node"><title>Node185</title>
<g id="a_node13"><a xlink:href="masternodeman_8cpp.html" target="_top" xlink:title="src/masternodeman.cpp">
<polygon fill="white" stroke="black" points="1856,-0.5 1856,-19.5 1978,-19.5 1978,-0.5 1856,-0.5"/>
<text text-anchor="middle" x="1917" y="-7.5" font-family="Helvetica,sans-Serif" font-size="10.00">src/masternodeman.cpp</text>
</a>
</g>
</g>
<!-- Node175&#45;&gt;Node185 -->
<g id="edge13" class="edge"><title>Node175&#45;&gt;Node185</title>
<path fill="none" stroke="midnightblue" d="M1453.97,-59.1058C1543.03,-51.0147 1706.62,-35.678 1846,-20 1849.21,-19.6389 1852.5,-19.2583 1855.82,-18.8659"/>
<polygon fill="midnightblue" stroke="midnightblue" points="1453.39,-55.6438 1443.75,-60.0323 1454.02,-62.6152 1453.39,-55.6438"/>
</g>
<!-- Node186 -->
<g id="node14" class="node"><title>Node186</title>
<g id="a_node14"><a xlink:href="net_8cpp.html" target="_top" xlink:title="src/net.cpp">
<polygon fill="white" stroke="black" points="559.5,-0.5 559.5,-19.5 624.5,-19.5 624.5,-0.5 559.5,-0.5"/>
<text text-anchor="middle" x="592" y="-7.5" font-family="Helvetica,sans-Serif" font-size="10.00">src/net.cpp</text>
</a>
</g>
</g>
<!-- Node175&#45;&gt;Node186 -->
<g id="edge14" class="edge"><title>Node175&#45;&gt;Node186</title>
<path fill="none" stroke="midnightblue" d="M1321.98,-64.5306C1190.31,-62.8316 885.953,-55.0814 633,-20 630.257,-19.6196 627.425,-19.1538 624.591,-18.6364"/>
<polygon fill="midnightblue" stroke="midnightblue" points="1322.25,-68.0341 1332.29,-64.6558 1322.34,-61.0346 1322.25,-68.0341"/>
</g>
<!-- Node187 -->
<g id="node15" class="node"><title>Node187</title>
<g id="a_node15"><a xlink:href="net__processing_8cpp.html" target="_top" xlink:title="src/net_processing.cpp">
<polygon fill="white" stroke="black" points="1996,-0.5 1996,-19.5 2114,-19.5 2114,-0.5 1996,-0.5"/>
<text text-anchor="middle" x="2055" y="-7.5" font-family="Helvetica,sans-Serif" font-size="10.00">src/net_processing.cpp</text>
</a>
</g>
</g>
<!-- Node175&#45;&gt;Node187 -->
<g id="edge15" class="edge"><title>Node175&#45;&gt;Node187</title>
<path fill="none" stroke="midnightblue" d="M1453.82,-61.2774C1564.22,-54.7601 1793.62,-40.0453 1987,-20 1989.84,-19.7053 1992.75,-19.3868 1995.69,-19.0515"/>
<polygon fill="midnightblue" stroke="midnightblue" points="1453.61,-57.7836 1443.84,-61.8637 1454.02,-64.7715 1453.61,-57.7836"/>
</g>
<!-- Node188 -->
<g id="node16" class="node"><title>Node188</title>
<g id="a_node16"><a xlink:href="privatesend-client_8cpp.html" target="_top" xlink:title="src/privatesend&#45;client.cpp">
<polygon fill="white" stroke="black" points="2848,-0.5 2848,-19.5 2976,-19.5 2976,-0.5 2848,-0.5"/>
<text text-anchor="middle" x="2912" y="-7.5" font-family="Helvetica,sans-Serif" font-size="10.00">src/privatesend&#45;client.cpp</text>
</a>
</g>
</g>
<!-- Node175&#45;&gt;Node188 -->
<g id="edge16" class="edge"><title>Node175&#45;&gt;Node188</title>
<path fill="none" stroke="midnightblue" d="M1453.78,-63.7468C1699.47,-58.9431 2563.35,-40.921 2838,-20 2841.23,-19.7543 2844.53,-19.4707 2847.86,-19.159"/>
<polygon fill="midnightblue" stroke="midnightblue" points="1453.51,-60.2513 1443.58,-63.9456 1453.64,-67.25 1453.51,-60.2513"/>
</g>
<!-- Node189 -->
<g id="node17" class="node"><title>Node189</title>
<g id="a_node17"><a xlink:href="privatesend-server_8cpp.html" target="_top" xlink:title="src/privatesend&#45;server.cpp">
<polygon fill="white" stroke="black" points="764,-0.5 764,-19.5 896,-19.5 896,-0.5 764,-0.5"/>
<text text-anchor="middle" x="830" y="-7.5" font-family="Helvetica,sans-Serif" font-size="10.00">src/privatesend&#45;server.cpp</text>
</a>
</g>
</g>
<!-- Node175&#45;&gt;Node189 -->
<g id="edge17" class="edge"><title>Node175&#45;&gt;Node189</title>
<path fill="none" stroke="midnightblue" d="M1322.06,-59.4146C1229.02,-51.4064 1053.92,-35.87 905,-20 902.131,-19.6943 899.201,-19.3746 896.243,-19.0457"/>
<polygon fill="midnightblue" stroke="midnightblue" points="1321.91,-62.9144 1332.17,-60.283 1322.51,-55.9401 1321.91,-62.9144"/>
</g>
<!-- Node190 -->
<g id="node18" class="node"><title>Node190</title>
<g id="a_node18"><a xlink:href="privatesend_8cpp.html" target="_top" xlink:title="src/privatesend.cpp">
<polygon fill="white" stroke="black" points="2132,-0.5 2132,-19.5 2234,-19.5 2234,-0.5 2132,-0.5"/>
<text text-anchor="middle" x="2183" y="-7.5" font-family="Helvetica,sans-Serif" font-size="10.00">src/privatesend.cpp</text>
</a>
</g>
</g>
<!-- Node175&#45;&gt;Node190 -->
<g id="edge18" class="edge"><title>Node175&#45;&gt;Node190</title>
<path fill="none" stroke="midnightblue" d="M1454.03,-62.9006C1582.92,-58.3726 1876.97,-45.9328 2123,-20 2125.93,-19.6908 2128.94,-19.3416 2131.98,-18.9649"/>
<polygon fill="midnightblue" stroke="midnightblue" points="1453.8,-59.4065 1443.92,-63.2512 1454.04,-66.4023 1453.8,-59.4065"/>
</g>
<!-- Node191 -->
<g id="node19" class="node"><title>Node191</title>
<g id="a_node19"><a xlink:href="clientmodel_8cpp.html" target="_top" xlink:title="src/qt/clientmodel.cpp">
<polygon fill="white" stroke="black" points="914.5,-0.5 914.5,-19.5 1027.5,-19.5 1027.5,-0.5 914.5,-0.5"/>
<text text-anchor="middle" x="971" y="-7.5" font-family="Helvetica,sans-Serif" font-size="10.00">src/qt/clientmodel.cpp</text>
</a>
</g>
</g>
<!-- Node175&#45;&gt;Node191 -->
<g id="edge19" class="edge"><title>Node175&#45;&gt;Node191</title>
<path fill="none" stroke="midnightblue" d="M1322.4,-56.8211C1251.68,-47.956 1135.82,-33.2914 1036,-20 1033.29,-19.6391 1030.52,-19.2668 1027.72,-18.8884"/>
<polygon fill="midnightblue" stroke="midnightblue" points="1322.14,-60.316 1332.5,-58.0862 1323.01,-53.3703 1322.14,-60.316"/>
</g>
<!-- Node192 -->
<g id="node20" class="node"><title>Node192</title>
<g id="a_node20"><a xlink:href="masternodelist_8cpp.html" target="_top" xlink:title="src/qt/masternodelist.cpp">
<polygon fill="white" stroke="black" points="1045.5,-0.5 1045.5,-19.5 1172.5,-19.5 1172.5,-0.5 1045.5,-0.5"/>
<text text-anchor="middle" x="1109" y="-7.5" font-family="Helvetica,sans-Serif" font-size="10.00">src/qt/masternodelist.cpp</text>
</a>
</g>
</g>
<!-- Node175&#45;&gt;Node192 -->
<g id="edge20" class="edge"><title>Node175&#45;&gt;Node192</title>
<path fill="none" stroke="midnightblue" d="M1333.94,-54.5371C1281.21,-44.3316 1202,-28.9992 1153,-19.5164"/>
<polygon fill="midnightblue" stroke="midnightblue" points="1333.31,-57.9795 1343.79,-56.4435 1334.64,-51.107 1333.31,-57.9795"/>
</g>
<!-- Node175&#45;&gt;Node193 -->
<g id="edge21" class="edge"><title>Node175&#45;&gt;Node193</title>
<path fill="none" stroke="midnightblue" d="M1454.01,-63.5727C1684.78,-58.4525 2454.73,-40.2345 2701,-20 2704.01,-19.7527 2707.09,-19.4678 2710.2,-19.1552"/>
<polygon fill="midnightblue" stroke="midnightblue" points="1453.68,-60.0792 1443.76,-63.7995 1453.83,-67.0775 1453.68,-60.0792"/>
</g>
<!-- Node194 -->
<g id="node22" class="node"><title>Node194</title>
<g id="a_node22"><a xlink:href="rpc_2masternode_8cpp.html" target="_top" xlink:title="src/rpc/masternode.cpp">
<polygon fill="white" stroke="black" points="2252.5,-0.5 2252.5,-19.5 2371.5,-19.5 2371.5,-0.5 2252.5,-0.5"/>
<text text-anchor="middle" x="2312" y="-7.5" font-family="Helvetica,sans-Serif" font-size="10.00">src/rpc/masternode.cpp</text>
</a>
</g>
</g>
<!-- Node175&#45;&gt;Node194 -->
<g id="edge22" class="edge"><title>Node175&#45;&gt;Node194</title>
<path fill="none" stroke="midnightblue" d="M1453.93,-63.2159C1597.45,-58.9618 1948.8,-46.5354 2242,-20 2245.42,-19.6908 2248.92,-19.3415 2252.46,-18.9647"/>
<polygon fill="midnightblue" stroke="midnightblue" points="1453.45,-59.7286 1443.55,-63.52 1453.65,-66.7256 1453.45,-59.7286"/>
</g>
<!-- Node195 -->
<g id="node23" class="node"><title>Node195</title>
<g id="a_node23"><a xlink:href="validation_8cpp.html" target="_top" xlink:title="src/validation.cpp">
<polygon fill="white" stroke="black" points="2389.5,-0.5 2389.5,-19.5 2482.5,-19.5 2482.5,-0.5 2389.5,-0.5"/>
<text text-anchor="middle" x="2436" y="-7.5" font-family="Helvetica,sans-Serif" font-size="10.00">src/validation.cpp</text>
</a>
</g>
</g>
<!-- Node175&#45;&gt;Node195 -->
<g id="edge23" class="edge"><title>Node175&#45;&gt;Node195</title>
<path fill="none" stroke="midnightblue" d="M1453.66,-64.6052C1612.92,-63.0857 2032.21,-55.7184 2380,-20 2383.04,-19.6881 2386.16,-19.3198 2389.3,-18.9133"/>
<polygon fill="midnightblue" stroke="midnightblue" points="1453.52,-61.1063 1443.55,-64.6971 1453.58,-68.106 1453.52,-61.1063"/>
</g>
<!-- Node196&#45;&gt;Node176 -->
<g id="edge25" class="edge"><title>Node196&#45;&gt;Node176</title>
<path fill="none" stroke="midnightblue" d="M1837.9,-59.5364C1727.62,-51.7435 1521.45,-36.5376 1346,-20 1343.29,-19.7446 1340.53,-19.4776 1337.75,-19.202"/>
<polygon fill="midnightblue" stroke="midnightblue" points="1837.72,-63.0325 1847.94,-60.2444 1838.21,-56.0498 1837.72,-63.0325"/>
</g>
<!-- Node196&#45;&gt;Node180 -->
<g id="edge26" class="edge"><title>Node196&#45;&gt;Node180</title>
<path fill="none" stroke="midnightblue" d="M1837.74,-60.582C1741.07,-54.5256 1572.88,-41.8304 1430,-20 1427.05,-19.5495 1424,-19.02 1420.95,-18.4473"/>
<polygon fill="midnightblue" stroke="midnightblue" points="1837.53,-64.0758 1847.73,-61.2002 1837.97,-57.0892 1837.53,-64.0758"/>
</g>
<!-- Node196&#45;&gt;Node181 -->
<g id="edge27" class="edge"><title>Node196&#45;&gt;Node181</title>
<path fill="none" stroke="midnightblue" d="M1837.48,-56.9328C1759.9,-48.7616 1638.62,-35.1889 1534,-20 1531.1,-19.5788 1528.11,-19.1222 1525.1,-18.6458"/>
<polygon fill="midnightblue" stroke="midnightblue" points="1837.35,-60.4382 1847.66,-58.0004 1838.08,-53.4763 1837.35,-60.4382"/>
</g>
<!-- Node196&#45;&gt;Node182 -->
<g id="edge28" class="edge"><title>Node196&#45;&gt;Node182</title>
<path fill="none" stroke="midnightblue" d="M1859.77,-54.6642C1803.26,-44.4592 1717.88,-29.0386 1665.16,-19.5164"/>
<polygon fill="midnightblue" stroke="midnightblue" points="1859.16,-58.1105 1869.62,-56.4435 1860.4,-51.2219 1859.16,-58.1105"/>
</g>
<!-- Node196&#45;&gt;Node183 -->
<g id="edge29" class="edge"><title>Node196&#45;&gt;Node183</title>
<path fill="none" stroke="midnightblue" d="M1884.97,-52.9058C1858.09,-42.7536 1820.36,-28.5063 1796.55,-19.5164"/>
<polygon fill="midnightblue" stroke="midnightblue" points="1883.75,-56.1851 1894.34,-56.4435 1886.22,-49.6364 1883.75,-56.1851"/>
</g>
<!-- Node196&#45;&gt;Node184 -->
<g id="edge30" class="edge"><title>Node196&#45;&gt;Node184</title>
<path fill="none" stroke="midnightblue" d="M1837.65,-63.0435C1611.4,-57.2872 965.848,-39.5796 755,-20 751.909,-19.713 748.735,-19.3754 745.538,-19.0026"/>
<polygon fill="midnightblue" stroke="midnightblue" points="1837.7,-66.5457 1847.78,-63.3004 1837.87,-59.5479 1837.7,-66.5457"/>
</g>
<!-- Node196&#45;&gt;Node185 -->
<g id="edge31" class="edge"><title>Node196&#45;&gt;Node185</title>
<path fill="none" stroke="midnightblue" d="M1917,-45.8045C1917,-36.9102 1917,-26.7798 1917,-19.7511"/>
<polygon fill="midnightblue" stroke="midnightblue" points="1913.5,-46.083 1917,-56.083 1920.5,-46.083 1913.5,-46.083"/>
</g>
<!-- Node196&#45;&gt;Node187 -->
<g id="edge33" class="edge"><title>Node196&#45;&gt;Node187</title>
<path fill="none" stroke="midnightblue" d="M1948.25,-52.772C1974.17,-42.6287 2010.36,-28.4669 2033.24,-19.5164"/>
<polygon fill="midnightblue" stroke="midnightblue" points="1946.9,-49.5401 1938.87,-56.4435 1949.45,-56.0588 1946.9,-49.5401"/>
</g>
<!-- Node196&#45;&gt;Node188 -->
<g id="edge34" class="edge"><title>Node196&#45;&gt;Node188</title>
<path fill="none" stroke="midnightblue" d="M1996.35,-63.0526C2155.97,-58.7093 2527.2,-46.458 2838,-20 2841.22,-19.7256 2844.52,-19.4189 2847.85,-19.0889"/>
<polygon fill="midnightblue" stroke="midnightblue" points="1996.05,-59.5594 1986.15,-63.3273 1996.24,-66.5569 1996.05,-59.5594"/>
</g>
<!-- Node196&#45;&gt;Node190 -->
<g id="edge35" class="edge"><title>Node196&#45;&gt;Node190</title>
<path fill="none" stroke="midnightblue" d="M1969.17,-54.4096C2019.44,-44.2042 2094.53,-28.9597 2141.05,-19.5164"/>
<polygon fill="midnightblue" stroke="midnightblue" points="1968.25,-51.0239 1959.15,-56.4435 1969.64,-57.884 1968.25,-51.0239"/>
</g>
<!-- Node196&#45;&gt;Node194 -->
<g id="edge36" class="edge"><title>Node196&#45;&gt;Node194</title>
<path fill="none" stroke="midnightblue" d="M1989.5,-55.0884C2065.01,-44.7653 2181.91,-28.784 2252.29,-19.1629"/>
<polygon fill="midnightblue" stroke="midnightblue" points="1989.02,-51.6212 1979.59,-56.4435 1989.97,-58.5567 1989.02,-51.6212"/>
</g>
<!-- Node196&#45;&gt;Node195 -->
<g id="edge38" class="edge"><title>Node196&#45;&gt;Node195</title>
<path fill="none" stroke="midnightblue" d="M1996.29,-58.8101C2088.63,-51.2503 2245.66,-37.3059 2380,-20 2383.03,-19.61 2386.14,-19.1824 2389.28,-18.7322"/>
<polygon fill="midnightblue" stroke="midnightblue" points="1995.86,-55.333 1986.18,-59.6332 1996.43,-62.3099 1995.86,-55.333"/>
</g>
<!-- Node197 -->
<g id="node25" class="node"><title>Node197</title>
<g id="a_node25"><a xlink:href="miner_8cpp.html" target="_top" xlink:title="src/miner.cpp">
<polygon fill="white" stroke="black" points="2501,-0.5 2501,-19.5 2577,-19.5 2577,-0.5 2501,-0.5"/>
<text text-anchor="middle" x="2539" y="-7.5" font-family="Helvetica,sans-Serif" font-size="10.00">src/miner.cpp</text>
</a>
</g>
</g>
<!-- Node196&#45;&gt;Node197 -->
<g id="edge32" class="edge"><title>Node196&#45;&gt;Node197</title>
<path fill="none" stroke="midnightblue" d="M1996.28,-61.4744C2107.28,-55.9271 2315.15,-43.3106 2491,-20 2494.19,-19.5766 2497.5,-19.0806 2500.81,-18.5429"/>
<polygon fill="midnightblue" stroke="midnightblue" points="1995.98,-57.9846 1986.17,-61.9734 1996.33,-64.976 1995.98,-57.9846"/>
</g>
<!-- Node198 -->
<g id="node26" class="node"><title>Node198</title>
<g id="a_node26"><a xlink:href="mining_8cpp.html" target="_top" xlink:title="src/rpc/mining.cpp">
<polygon fill="white" stroke="black" points="2595.5,-0.5 2595.5,-19.5 2692.5,-19.5 2692.5,-0.5 2595.5,-0.5"/>
<text text-anchor="middle" x="2644" y="-7.5" font-family="Helvetica,sans-Serif" font-size="10.00">src/rpc/mining.cpp</text>
</a>
</g>
</g>
<!-- Node196&#45;&gt;Node198 -->
<g id="edge37" class="edge"><title>Node196&#45;&gt;Node198</title>
<path fill="none" stroke="midnightblue" d="M1996.31,-61.8952C2121.77,-56.4821 2373.59,-43.5787 2586,-20 2589.04,-19.6627 2592.16,-19.2809 2595.31,-18.8696"/>
<polygon fill="midnightblue" stroke="midnightblue" points="1995.88,-58.4105 1986.03,-62.334 1996.17,-65.4041 1995.88,-58.4105"/>
</g>
<!-- Node199&#45;&gt;Node188 -->
<g id="edge42" class="edge"><title>Node199&#45;&gt;Node188</title>
<path fill="none" stroke="midnightblue" d="M3132.59,-54.4734C3080.8,-44.2678 3003.23,-28.9794 2955.21,-19.5164"/>
<polygon fill="midnightblue" stroke="midnightblue" points="3132.1,-57.9438 3142.58,-56.4435 3133.45,-51.0759 3132.1,-57.9438"/>
</g>
<!-- Node200 -->
<g id="node28" class="node"><title>Node200</title>
<g id="a_node28"><a xlink:href="coincontroldialog_8cpp.html" target="_top" xlink:title="src/qt/coincontroldialog.cpp">
<polygon fill="white" stroke="black" points="3118,-0.5 3118,-19.5 3254,-19.5 3254,-0.5 3118,-0.5"/>
<text text-anchor="middle" x="3186" y="-7.5" font-family="Helvetica,sans-Serif" font-size="10.00">src/qt/coincontroldialog.cpp</text>
</a>
</g>
</g>
<!-- Node199&#45;&gt;Node200 -->
<g id="edge43" class="edge"><title>Node199&#45;&gt;Node200</title>
<path fill="none" stroke="midnightblue" d="M3186,-45.8045C3186,-36.9102 3186,-26.7798 3186,-19.7511"/>
<polygon fill="midnightblue" stroke="midnightblue" points="3182.5,-46.083 3186,-56.083 3189.5,-46.083 3182.5,-46.083"/>
</g>
<!-- Node201 -->
<g id="node29" class="node"><title>Node201</title>
<g id="a_node29"><a xlink:href="overviewpage_8cpp.html" target="_top" xlink:title="src/qt/overviewpage.cpp">
<polygon fill="white" stroke="black" points="3272.5,-0.5 3272.5,-19.5 3395.5,-19.5 3395.5,-0.5 3272.5,-0.5"/>
<text text-anchor="middle" x="3334" y="-7.5" font-family="Helvetica,sans-Serif" font-size="10.00">src/qt/overviewpage.cpp</text>
</a>
</g>
</g>
<!-- Node199&#45;&gt;Node201 -->
<g id="edge44" class="edge"><title>Node199&#45;&gt;Node201</title>
<path fill="none" stroke="midnightblue" d="M3219.15,-52.9058C3246.97,-42.7536 3286.02,-28.5063 3310.66,-19.5164"/>
<polygon fill="midnightblue" stroke="midnightblue" points="3217.65,-49.7279 3209.45,-56.4435 3220.04,-56.3038 3217.65,-49.7279"/>
</g>
<!-- Node202 -->
<g id="node30" class="node"><title>Node202</title>
<g id="a_node30"><a xlink:href="walletmodel_8cpp.html" target="_top" xlink:title="src/qt/walletmodel.cpp">
<polygon fill="white" stroke="black" points="3413.5,-0.5 3413.5,-19.5 3528.5,-19.5 3528.5,-0.5 3413.5,-0.5"/>
<text text-anchor="middle" x="3471" y="-7.5" font-family="Helvetica,sans-Serif" font-size="10.00">src/qt/walletmodel.cpp</text>
</a>
</g>
</g>
<!-- Node199&#45;&gt;Node202 -->
<g id="edge45" class="edge"><title>Node199&#45;&gt;Node202</title>
<path fill="none" stroke="midnightblue" d="M3241.22,-54.5371C3295.08,-44.3316 3376,-28.9992 3426.05,-19.5164"/>
<polygon fill="midnightblue" stroke="midnightblue" points="3240.33,-51.143 3231.16,-56.4435 3241.64,-58.0207 3240.33,-51.143"/>
</g>
<!-- Node203 -->
<g id="node31" class="node"><title>Node203</title>
<g id="a_node31"><a xlink:href="rpcwallet_8cpp.html" target="_top" xlink:title="src/wallet/rpcwallet.cpp">
<polygon fill="white" stroke="black" points="3546.5,-0.5 3546.5,-19.5 3665.5,-19.5 3665.5,-0.5 3546.5,-0.5"/>
<text text-anchor="middle" x="3606" y="-7.5" font-family="Helvetica,sans-Serif" font-size="10.00">src/wallet/rpcwallet.cpp</text>
</a>
</g>
</g>
<!-- Node199&#45;&gt;Node203 -->
<g id="edge46" class="edge"><title>Node199&#45;&gt;Node203</title>
<path fill="none" stroke="midnightblue" d="M3255.13,-56.1821C3325.93,-47.1418 3439.15,-32.6543 3537,-20 3540,-19.6127 3543.06,-19.2151 3546.16,-18.8131"/>
<polygon fill="midnightblue" stroke="midnightblue" points="3254.48,-52.7371 3245,-57.4755 3255.37,-59.6807 3254.48,-52.7371"/>
</g>
<!-- Node204 -->
<g id="node32" class="node"><title>Node204</title>
<g id="a_node32"><a xlink:href="wallet_8cpp.html" target="_top" xlink:title="src/wallet/wallet.cpp">
<polygon fill="white" stroke="black" points="2994,-0.5 2994,-19.5 3100,-19.5 3100,-0.5 2994,-0.5"/>
<text text-anchor="middle" x="3047" y="-7.5" font-family="Helvetica,sans-Serif" font-size="10.00">src/wallet/wallet.cpp</text>
</a>
</g>
</g>
<!-- Node199&#45;&gt;Node204 -->
<g id="edge47" class="edge"><title>Node199&#45;&gt;Node204</title>
<path fill="none" stroke="midnightblue" d="M3154.52,-52.772C3128.41,-42.6287 3091.96,-28.4669 3068.92,-19.5164"/>
<polygon fill="midnightblue" stroke="midnightblue" points="3153.39,-56.0847 3163.98,-56.4435 3155.92,-49.5598 3153.39,-56.0847"/>
</g>
</g>
</svg>
