<?xml version="1.0" encoding="UTF-8" standalone="no"?>
<!DOCTYPE svg PUBLIC "-//W3C//DTD SVG 1.1//EN"
 "http://www.w3.org/Graphics/SVG/1.1/DTD/svg11.dtd">
<!-- Generated by graphviz version 2.36.0 (20140111.2315)
 -->
<!-- Title: src/masternode&#45;sync.h Pages: 1 -->
<svg width="3240pt" height="84pt"
 viewBox="0.00 0.00 3240.00 84.00" xmlns="http://www.w3.org/2000/svg" xmlns:xlink="http://www.w3.org/1999/xlink">
<g id="graph0" class="graph" transform="scale(1 1) rotate(0) translate(4 80)">
<title>src/masternode&#45;sync.h</title>
<polygon fill="white" stroke="none" points="-4,4 -4,-80 3236,-80 3236,4 -4,4"/>
<!-- Node102 -->
<g id="node1" class="node"><title>Node102</title>
<polygon fill="#bfbfbf" stroke="black" points="1554,-56.5 1554,-75.5 1670,-75.5 1670,-56.5 1554,-56.5"/>
<text text-anchor="middle" x="1612" y="-63.5" font-family="Helvetica,sans-Serif" font-size="10.00">src/masternode&#45;sync.h</text>
</g>
<!-- Node103 -->
<g id="node2" class="node"><title>Node103</title>
<g id="a_node2"><a xlink:href="activemasternode_8cpp.html" target="_top" xlink:title="src/activemasternode.cpp">
<polygon fill="white" stroke="black" points="-0.5,-0.5 -0.5,-19.5 128.5,-19.5 128.5,-0.5 -0.5,-0.5"/>
<text text-anchor="middle" x="64" y="-7.5" font-family="Helvetica,sans-Serif" font-size="10.00">src/activemasternode.cpp</text>
</a>
</g>
</g>
<!-- Node102&#45;&gt;Node103 -->
<g id="edge1" class="edge"><title>Node102&#45;&gt;Node103</title>
<path fill="none" stroke="midnightblue" d="M1543.66,-65.1516C1333.46,-65.1382 678.03,-61.5154 137,-20 134.326,-19.7948 131.6,-19.5628 128.848,-19.3096"/>
<polygon fill="midnightblue" stroke="midnightblue" points="1543.92,-68.6516 1553.92,-65.1494 1543.92,-61.6516 1543.92,-68.6516"/>
</g>
<!-- Node104 -->
<g id="node3" class="node"><title>Node104</title>
<g id="a_node3"><a xlink:href="dsnotificationinterface_8cpp.html" target="_top" xlink:title="src/dsnotificationinterface.cpp">
<polygon fill="white" stroke="black" points="146.5,-0.5 146.5,-19.5 293.5,-19.5 293.5,-0.5 146.5,-0.5"/>
<text text-anchor="middle" x="220" y="-7.5" font-family="Helvetica,sans-Serif" font-size="10.00">src/dsnotificationinterface.cpp</text>
</a>
</g>
</g>
<!-- Node102&#45;&gt;Node104 -->
<g id="edge2" class="edge"><title>Node102&#45;&gt;Node104</title>
<path fill="none" stroke="midnightblue" d="M1543.74,-64.4583C1349.38,-62.5273 776.407,-54.1345 302,-20 299.286,-19.8047 296.523,-19.5888 293.733,-19.3565"/>
<polygon fill="midnightblue" stroke="midnightblue" points="1543.78,-67.9587 1553.81,-64.5559 1543.85,-60.9591 1543.78,-67.9587"/>
</g>
<!-- Node105 -->
<g id="node4" class="node"><title>Node105</title>
<g id="a_node4"><a xlink:href="governance-object_8cpp.html" target="_top" xlink:title="src/governance&#45;object.cpp">
<polygon fill="white" stroke="black" points="311.5,-0.5 311.5,-19.5 442.5,-19.5 442.5,-0.5 311.5,-0.5"/>
<text text-anchor="middle" x="377" y="-7.5" font-family="Helvetica,sans-Serif" font-size="10.00">src/governance&#45;object.cpp</text>
</a>
</g>
</g>
<!-- Node102&#45;&gt;Node105 -->
<g id="edge3" class="edge"><title>Node102&#45;&gt;Node105</title>
<path fill="none" stroke="midnightblue" d="M1543.9,-64.2751C1364.8,-61.9536 865.877,-52.8067 452,-20 448.993,-19.7617 445.921,-19.4935 442.82,-19.2028"/>
<polygon fill="midnightblue" stroke="midnightblue" points="1543.92,-67.7756 1553.97,-64.4028 1544.01,-60.7762 1543.92,-67.7756"/>
</g>
<!-- Node106 -->
<g id="node5" class="node"><title>Node106</title>
<g id="a_node5"><a xlink:href="governance-vote_8cpp.html" target="_top" xlink:title="src/governance&#45;vote.cpp">
<polygon fill="white" stroke="black" points="461,-0.5 461,-19.5 585,-19.5 585,-0.5 461,-0.5"/>
<text text-anchor="middle" x="523" y="-7.5" font-family="Helvetica,sans-Serif" font-size="10.00">src/governance&#45;vote.cpp</text>
</a>
</g>
</g>
<!-- Node102&#45;&gt;Node106 -->
<g id="edge4" class="edge"><title>Node102&#45;&gt;Node106</title>
<path fill="none" stroke="midnightblue" d="M1543.5,-63.9079C1379.35,-60.8686 950.604,-50.4319 594,-20 591.153,-19.757 588.244,-19.485 585.307,-19.1912"/>
<polygon fill="midnightblue" stroke="midnightblue" points="1543.87,-67.415 1553.93,-64.0975 1543.99,-60.4161 1543.87,-67.415"/>
</g>
<!-- Node107 -->
<g id="node6" class="node"><title>Node107</title>
<g id="a_node6"><a xlink:href="governance_8cpp.html" target="_top" xlink:title="src/governance.cpp">
<polygon fill="white" stroke="black" points="603,-0.5 603,-19.5 705,-19.5 705,-0.5 603,-0.5"/>
<text text-anchor="middle" x="654" y="-7.5" font-family="Helvetica,sans-Serif" font-size="10.00">src/governance.cpp</text>
</a>
</g>
</g>
<!-- Node102&#45;&gt;Node107 -->
<g id="edge5" class="edge"><title>Node102&#45;&gt;Node107</title>
<path fill="none" stroke="midnightblue" d="M1543.8,-63.8805C1393.55,-60.9106 1022.8,-50.8211 714,-20 711.065,-19.7071 708.055,-19.3706 705.02,-19.0035"/>
<polygon fill="midnightblue" stroke="midnightblue" points="1543.74,-67.3798 1553.81,-64.0741 1543.88,-60.3812 1543.74,-67.3798"/>
</g>
<!-- Node108 -->
<g id="node7" class="node"><title>Node108</title>
<g id="a_node7"><a xlink:href="init_8cpp.html" target="_top" xlink:title="src/init.cpp">
<polygon fill="white" stroke="black" points="723.5,-0.5 723.5,-19.5 788.5,-19.5 788.5,-0.5 723.5,-0.5"/>
<text text-anchor="middle" x="756" y="-7.5" font-family="Helvetica,sans-Serif" font-size="10.00">src/init.cpp</text>
</a>
</g>
</g>
<!-- Node102&#45;&gt;Node108 -->
<g id="edge6" class="edge"><title>Node102&#45;&gt;Node108</title>
<path fill="none" stroke="midnightblue" d="M1543.8,-64.8097C1403.53,-63.632 1072.74,-56.8023 798,-20 795.044,-19.604 791.986,-19.112 788.93,-18.5637"/>
<polygon fill="midnightblue" stroke="midnightblue" points="1543.95,-68.3108 1553.97,-64.8879 1544,-61.311 1543.95,-68.3108"/>
</g>
<!-- Node109 -->
<g id="node8" class="node"><title>Node109</title>
<g id="a_node8"><a xlink:href="instantx_8cpp.html" target="_top" xlink:title="src/instantx.cpp">
<polygon fill="white" stroke="black" points="807,-0.5 807,-19.5 893,-19.5 893,-0.5 807,-0.5"/>
<text text-anchor="middle" x="850" y="-7.5" font-family="Helvetica,sans-Serif" font-size="10.00">src/instantx.cpp</text>
</a>
</g>
</g>
<!-- Node102&#45;&gt;Node109 -->
<g id="edge7" class="edge"><title>Node102&#45;&gt;Node109</title>
<path fill="none" stroke="midnightblue" d="M1543.49,-63.1193C1416.57,-59.0891 1136.44,-47.6355 902,-20 899.088,-19.6568 896.092,-19.2587 893.078,-18.8249"/>
<polygon fill="midnightblue" stroke="midnightblue" points="1543.72,-66.6282 1553.83,-63.4418 1543.94,-59.6316 1543.72,-66.6282"/>
</g>
<!-- Node110 -->
<g id="node9" class="node"><title>Node110</title>
<g id="a_node9"><a xlink:href="masternode-payments_8cpp.html" target="_top" xlink:title="src/masternode&#45;payments.cpp">
<polygon fill="white" stroke="black" points="911.5,-0.5 911.5,-19.5 1060.5,-19.5 1060.5,-0.5 911.5,-0.5"/>
<text text-anchor="middle" x="986" y="-7.5" font-family="Helvetica,sans-Serif" font-size="10.00">src/masternode&#45;payments.cpp</text>
</a>
</g>
</g>
<!-- Node102&#45;&gt;Node110 -->
<g id="edge8" class="edge"><title>Node102&#45;&gt;Node110</title>
<path fill="none" stroke="midnightblue" d="M1543.43,-59.8774C1440.38,-52.0518 1239.47,-36.3032 1069,-20 1066.26,-19.7378 1063.47,-19.465 1060.65,-19.1845"/>
<polygon fill="midnightblue" stroke="midnightblue" points="1543.46,-63.3896 1553.7,-60.6553 1543.99,-56.4096 1543.46,-63.3896"/>
</g>
<!-- Node111 -->
<g id="node10" class="node"><title>Node111</title>
<g id="a_node10"><a xlink:href="masternode-sync_8cpp.html" target="_top" xlink:title="src/masternode&#45;sync.cpp">
<polygon fill="white" stroke="black" points="1078.5,-0.5 1078.5,-19.5 1205.5,-19.5 1205.5,-0.5 1078.5,-0.5"/>
<text text-anchor="middle" x="1142" y="-7.5" font-family="Helvetica,sans-Serif" font-size="10.00">src/masternode&#45;sync.cpp</text>
</a>
</g>
</g>
<!-- Node102&#45;&gt;Node111 -->
<g id="edge9" class="edge"><title>Node102&#45;&gt;Node111</title>
<path fill="none" stroke="midnightblue" d="M1543.63,-57.5172C1464.32,-48.7796 1329.65,-33.7651 1214,-20 1211.25,-19.6724 1208.44,-19.3347 1205.6,-18.991"/>
<polygon fill="midnightblue" stroke="midnightblue" points="1543.65,-61.0402 1553.97,-58.6554 1544.41,-54.0822 1543.65,-61.0402"/>
</g>
<!-- Node112 -->
<g id="node11" class="node"><title>Node112</title>
<g id="a_node11"><a xlink:href="masternode_8cpp.html" target="_top" xlink:title="src/masternode.cpp">
<polygon fill="white" stroke="black" points="1223.5,-0.5 1223.5,-19.5 1326.5,-19.5 1326.5,-0.5 1223.5,-0.5"/>
<text text-anchor="middle" x="1275" y="-7.5" font-family="Helvetica,sans-Serif" font-size="10.00">src/masternode.cpp</text>
</a>
</g>
</g>
<!-- Node102&#45;&gt;Node112 -->
<g id="edge10" class="edge"><title>Node102&#45;&gt;Node112</title>
<path fill="none" stroke="midnightblue" d="M1548.6,-54.8417C1484.44,-44.5596 1386.41,-28.8527 1326.77,-19.2948"/>
<polygon fill="midnightblue" stroke="midnightblue" points="1548.17,-58.3172 1558.6,-56.4435 1549.28,-51.4054 1548.17,-58.3172"/>
</g>
<!-- Node113 -->
<g id="node12" class="node"><title>Node113</title>
<g id="a_node12"><a xlink:href="masternodeman_8cpp.html" target="_top" xlink:title="src/masternodeman.cpp">
<polygon fill="white" stroke="black" points="1345,-0.5 1345,-19.5 1467,-19.5 1467,-0.5 1345,-0.5"/>
<text text-anchor="middle" x="1406" y="-7.5" font-family="Helvetica,sans-Serif" font-size="10.00">src/masternodeman.cpp</text>
</a>
</g>
</g>
<!-- Node102&#45;&gt;Node113 -->
<g id="edge11" class="edge"><title>Node102&#45;&gt;Node113</title>
<path fill="none" stroke="midnightblue" d="M1569.38,-53.8291C1530.49,-43.6333 1473.84,-28.7823 1438.49,-19.5164"/>
<polygon fill="midnightblue" stroke="midnightblue" points="1568.8,-57.2934 1579.36,-56.4435 1570.57,-50.5222 1568.8,-57.2934"/>
</g>
<!-- Node114 -->
<g id="node13" class="node"><title>Node114</title>
<g id="a_node13"><a xlink:href="miner_8cpp.html" target="_top" xlink:title="src/miner.cpp">
<polygon fill="white" stroke="black" points="1485,-0.5 1485,-19.5 1561,-19.5 1561,-0.5 1485,-0.5"/>
<text text-anchor="middle" x="1523" y="-7.5" font-family="Helvetica,sans-Serif" font-size="10.00">src/miner.cpp</text>
</a>
</g>
</g>
<!-- Node102&#45;&gt;Node114 -->
<g id="edge12" class="edge"><title>Node102&#45;&gt;Node114</title>
<path fill="none" stroke="midnightblue" d="M1588.76,-50.9005C1572.44,-40.9986 1551.13,-28.0705 1537.26,-19.6545"/>
<polygon fill="midnightblue" stroke="midnightblue" points="1587.34,-54.1289 1597.7,-56.324 1590.97,-48.1444 1587.34,-54.1289"/>
</g>
<!-- Node115 -->
<g id="node14" class="node"><title>Node115</title>
<g id="a_node14"><a xlink:href="net_8cpp.html" target="_top" xlink:title="src/net.cpp">
<polygon fill="white" stroke="black" points="1579.5,-0.5 1579.5,-19.5 1644.5,-19.5 1644.5,-0.5 1579.5,-0.5"/>
<text text-anchor="middle" x="1612" y="-7.5" font-family="Helvetica,sans-Serif" font-size="10.00">src/net.cpp</text>
</a>
</g>
</g>
<!-- Node102&#45;&gt;Node115 -->
<g id="edge13" class="edge"><title>Node102&#45;&gt;Node115</title>
<path fill="none" stroke="midnightblue" d="M1612,-45.8045C1612,-36.9102 1612,-26.7798 1612,-19.7511"/>
<polygon fill="midnightblue" stroke="midnightblue" points="1608.5,-46.083 1612,-56.083 1615.5,-46.083 1608.5,-46.083"/>
</g>
<!-- Node116 -->
<g id="node15" class="node"><title>Node116</title>
<g id="a_node15"><a xlink:href="net__processing_8cpp.html" target="_top" xlink:title="src/net_processing.cpp">
<polygon fill="white" stroke="black" points="1663,-0.5 1663,-19.5 1781,-19.5 1781,-0.5 1663,-0.5"/>
<text text-anchor="middle" x="1722" y="-7.5" font-family="Helvetica,sans-Serif" font-size="10.00">src/net_processing.cpp</text>
</a>
</g>
</g>
<!-- Node102&#45;&gt;Node116 -->
<g id="edge14" class="edge"><title>Node102&#45;&gt;Node116</title>
<path fill="none" stroke="midnightblue" d="M1638.76,-51.8622C1659.16,-41.8492 1686.67,-28.3458 1704.37,-19.6545"/>
<polygon fill="midnightblue" stroke="midnightblue" points="1637.11,-48.7753 1629.67,-56.324 1640.19,-55.059 1637.11,-48.7753"/>
</g>
<!-- Node117 -->
<g id="node16" class="node"><title>Node117</title>
<g id="a_node16"><a xlink:href="privatesend-client_8cpp.html" target="_top" xlink:title="src/privatesend&#45;client.cpp">
<polygon fill="white" stroke="black" points="1799,-0.5 1799,-19.5 1927,-19.5 1927,-0.5 1799,-0.5"/>
<text text-anchor="middle" x="1863" y="-7.5" font-family="Helvetica,sans-Serif" font-size="10.00">src/privatesend&#45;client.cpp</text>
</a>
</g>
</g>
<!-- Node102&#45;&gt;Node117 -->
<g id="edge15" class="edge"><title>Node102&#45;&gt;Node117</title>
<path fill="none" stroke="midnightblue" d="M1661.82,-54.2815C1709.25,-44.0769 1779.7,-28.9203 1823.41,-19.5164"/>
<polygon fill="midnightblue" stroke="midnightblue" points="1660.81,-50.9185 1651.77,-56.4435 1662.28,-57.7619 1660.81,-50.9185"/>
</g>
<!-- Node118 -->
<g id="node17" class="node"><title>Node118</title>
<g id="a_node17"><a xlink:href="privatesend-server_8cpp.html" target="_top" xlink:title="src/privatesend&#45;server.cpp">
<polygon fill="white" stroke="black" points="1945,-0.5 1945,-19.5 2077,-19.5 2077,-0.5 1945,-0.5"/>
<text text-anchor="middle" x="2011" y="-7.5" font-family="Helvetica,sans-Serif" font-size="10.00">src/privatesend&#45;server.cpp</text>
</a>
</g>
</g>
<!-- Node102&#45;&gt;Node118 -->
<g id="edge16" class="edge"><title>Node102&#45;&gt;Node118</title>
<path fill="none" stroke="midnightblue" d="M1680.31,-55.7552C1755.4,-45.5921 1875.05,-29.3997 1947.97,-19.5303"/>
<polygon fill="midnightblue" stroke="midnightblue" points="1679.46,-52.3383 1670.02,-57.1479 1680.4,-59.2751 1679.46,-52.3383"/>
</g>
<!-- Node119 -->
<g id="node18" class="node"><title>Node119</title>
<g id="a_node18"><a xlink:href="privatesend_8cpp.html" target="_top" xlink:title="src/privatesend.cpp">
<polygon fill="white" stroke="black" points="2095,-0.5 2095,-19.5 2197,-19.5 2197,-0.5 2095,-0.5"/>
<text text-anchor="middle" x="2146" y="-7.5" font-family="Helvetica,sans-Serif" font-size="10.00">src/privatesend.cpp</text>
</a>
</g>
</g>
<!-- Node102&#45;&gt;Node119 -->
<g id="edge17" class="edge"><title>Node102&#45;&gt;Node119</title>
<path fill="none" stroke="midnightblue" d="M1680.16,-59.6979C1772.35,-52.2588 1941.87,-37.6385 2086,-20 2088.93,-19.6417 2091.93,-19.2542 2094.96,-18.848"/>
<polygon fill="midnightblue" stroke="midnightblue" points="1679.81,-56.2146 1670.12,-60.504 1680.37,-63.1921 1679.81,-56.2146"/>
</g>
<!-- Node120 -->
<g id="node19" class="node"><title>Node120</title>
<g id="a_node19"><a xlink:href="bitcoingui_8cpp.html" target="_top" xlink:title="src/qt/bitcoingui.cpp">
<polygon fill="white" stroke="black" points="2215,-0.5 2215,-19.5 2319,-19.5 2319,-0.5 2215,-0.5"/>
<text text-anchor="middle" x="2267" y="-7.5" font-family="Helvetica,sans-Serif" font-size="10.00">src/qt/bitcoingui.cpp</text>
</a>
</g>
</g>
<!-- Node102&#45;&gt;Node120 -->
<g id="edge18" class="edge"><title>Node102&#45;&gt;Node120</title>
<path fill="none" stroke="midnightblue" d="M1680.21,-61.3451C1790.66,-55.0849 2015.42,-40.9282 2205,-20 2208.24,-19.642 2211.58,-19.2442 2214.94,-18.8211"/>
<polygon fill="midnightblue" stroke="midnightblue" points="1679.99,-57.8517 1670.2,-61.9083 1680.38,-64.8407 1679.99,-57.8517"/>
</g>
<!-- Node121 -->
<g id="node20" class="node"><title>Node121</title>
<g id="a_node20"><a xlink:href="clientmodel_8cpp.html" target="_top" xlink:title="src/qt/clientmodel.cpp">
<polygon fill="white" stroke="black" points="2337.5,-0.5 2337.5,-19.5 2450.5,-19.5 2450.5,-0.5 2337.5,-0.5"/>
<text text-anchor="middle" x="2394" y="-7.5" font-family="Helvetica,sans-Serif" font-size="10.00">src/qt/clientmodel.cpp</text>
</a>
</g>
</g>
<!-- Node102&#45;&gt;Node121 -->
<g id="edge19" class="edge"><title>Node102&#45;&gt;Node121</title>
<path fill="none" stroke="midnightblue" d="M1680.13,-62.371C1807.56,-57.0865 2090.58,-43.617 2328,-20 2330.99,-19.7024 2334.06,-19.3724 2337.15,-19.0196"/>
<polygon fill="midnightblue" stroke="midnightblue" points="1679.97,-58.8744 1670.12,-62.7823 1680.26,-65.8685 1679.97,-58.8744"/>
</g>
<!-- Node122 -->
<g id="node21" class="node"><title>Node122</title>
<g id="a_node21"><a xlink:href="masternodelist_8cpp.html" target="_top" xlink:title="src/qt/masternodelist.cpp">
<polygon fill="white" stroke="black" points="2468.5,-0.5 2468.5,-19.5 2595.5,-19.5 2595.5,-0.5 2468.5,-0.5"/>
<text text-anchor="middle" x="2532" y="-7.5" font-family="Helvetica,sans-Serif" font-size="10.00">src/qt/masternodelist.cpp</text>
</a>
</g>
</g>
<!-- Node102&#45;&gt;Node122 -->
<g id="edge20" class="edge"><title>Node102&#45;&gt;Node122</title>
<path fill="none" stroke="midnightblue" d="M1680.14,-62.9894C1824.15,-58.3858 2169.99,-45.4616 2459,-20 2462.05,-19.731 2465.17,-19.4334 2468.33,-19.1148"/>
<polygon fill="midnightblue" stroke="midnightblue" points="1680,-59.4918 1670.12,-63.3066 1680.22,-66.4883 1680,-59.4918"/>
</g>
<!-- Node123 -->
<g id="node22" class="node"><title>Node123</title>
<g id="a_node22"><a xlink:href="overviewpage_8cpp.html" target="_top" xlink:title="src/qt/overviewpage.cpp">
<polygon fill="white" stroke="black" points="2613.5,-0.5 2613.5,-19.5 2736.5,-19.5 2736.5,-0.5 2613.5,-0.5"/>
<text text-anchor="middle" x="2675" y="-7.5" font-family="Helvetica,sans-Serif" font-size="10.00">src/qt/overviewpage.cpp</text>
</a>
</g>
</g>
<!-- Node102&#45;&gt;Node123 -->
<g id="edge21" class="edge"><title>Node102&#45;&gt;Node123</title>
<path fill="none" stroke="midnightblue" d="M1680.5,-63.7968C1841.74,-60.5491 2257.76,-49.7488 2604,-20 2607.09,-19.7341 2610.26,-19.4343 2613.46,-19.1097"/>
<polygon fill="midnightblue" stroke="midnightblue" points="1680.18,-60.3024 1670.25,-63.9999 1680.32,-67.301 1680.18,-60.3024"/>
</g>
<!-- Node124 -->
<g id="node23" class="node"><title>Node124</title>
<g id="a_node23"><a xlink:href="rpc_2governance_8cpp.html" target="_top" xlink:title="src/rpc/governance.cpp">
<polygon fill="white" stroke="black" points="2754.5,-0.5 2754.5,-19.5 2873.5,-19.5 2873.5,-0.5 2754.5,-0.5"/>
<text text-anchor="middle" x="2814" y="-7.5" font-family="Helvetica,sans-Serif" font-size="10.00">src/rpc/governance.cpp</text>
</a>
</g>
</g>
<!-- Node102&#45;&gt;Node124 -->
<g id="edge22" class="edge"><title>Node102&#45;&gt;Node124</title>
<path fill="none" stroke="midnightblue" d="M1680.37,-64.4267C1856.9,-62.4821 2342.33,-54.1877 2745,-20 2748.01,-19.7445 2751.09,-19.4531 2754.2,-19.1352"/>
<polygon fill="midnightblue" stroke="midnightblue" points="1680.15,-60.9288 1670.19,-64.5355 1680.23,-67.9284 1680.15,-60.9288"/>
</g>
<!-- Node125 -->
<g id="node24" class="node"><title>Node125</title>
<g id="a_node24"><a xlink:href="rpc_2masternode_8cpp.html" target="_top" xlink:title="src/rpc/masternode.cpp">
<polygon fill="white" stroke="black" points="2891.5,-0.5 2891.5,-19.5 3010.5,-19.5 3010.5,-0.5 2891.5,-0.5"/>
<text text-anchor="middle" x="2951" y="-7.5" font-family="Helvetica,sans-Serif" font-size="10.00">src/rpc/masternode.cpp</text>
</a>
</g>
</g>
<!-- Node102&#45;&gt;Node125 -->
<g id="edge23" class="edge"><title>Node102&#45;&gt;Node125</title>
<path fill="none" stroke="midnightblue" d="M1680.16,-64.8424C1870.55,-63.9155 2424.02,-57.8971 2882,-20 2885.01,-19.7509 2888.09,-19.4647 2891.2,-19.1509"/>
<polygon fill="midnightblue" stroke="midnightblue" points="1680.01,-61.343 1670.03,-64.8886 1680.04,-68.3429 1680.01,-61.343"/>
</g>
<!-- Node126 -->
<g id="node25" class="node"><title>Node126</title>
<g id="a_node25"><a xlink:href="mining_8cpp.html" target="_top" xlink:title="src/rpc/mining.cpp">
<polygon fill="white" stroke="black" points="3028.5,-0.5 3028.5,-19.5 3125.5,-19.5 3125.5,-0.5 3028.5,-0.5"/>
<text text-anchor="middle" x="3077" y="-7.5" font-family="Helvetica,sans-Serif" font-size="10.00">src/rpc/mining.cpp</text>
</a>
</g>
</g>
<!-- Node102&#45;&gt;Node126 -->
<g id="edge24" class="edge"><title>Node102&#45;&gt;Node126</title>
<path fill="none" stroke="midnightblue" d="M1680.35,-63.92C1924.71,-59.886 2754.52,-44.6571 3019,-20 3022.04,-19.7162 3025.17,-19.3754 3028.32,-18.9947"/>
<polygon fill="midnightblue" stroke="midnightblue" points="1680.13,-60.4231 1670.19,-64.0869 1680.24,-67.4221 1680.13,-60.4231"/>
</g>
<!-- Node127 -->
<g id="node26" class="node"><title>Node127</title>
<g id="a_node26"><a xlink:href="misc_8cpp.html" target="_top" xlink:title="src/rpc/misc.cpp">
<polygon fill="white" stroke="black" points="3143.5,-0.5 3143.5,-19.5 3232.5,-19.5 3232.5,-0.5 3143.5,-0.5"/>
<text text-anchor="middle" x="3188" y="-7.5" font-family="Helvetica,sans-Serif" font-size="10.00">src/rpc/misc.cpp</text>
</a>
</g>
</g>
<!-- Node102&#45;&gt;Node127 -->
<g id="edge25" class="edge"><title>Node102&#45;&gt;Node127</title>
<path fill="none" stroke="midnightblue" d="M1680.69,-64.208C1938.2,-61.0465 2846.11,-48.1155 3134,-20 3137.03,-19.7044 3140.14,-19.342 3143.27,-18.9343"/>
<polygon fill="midnightblue" stroke="midnightblue" points="1680.32,-60.7122 1670.36,-64.3339 1680.41,-67.7117 1680.32,-60.7122"/>
</g>
</g>
</svg>
