<?xml version="1.0" encoding="UTF-8" standalone="no"?>
<!DOCTYPE svg PUBLIC "-//W3C//DTD SVG 1.1//EN"
 "http://www.w3.org/Graphics/SVG/1.1/DTD/svg11.dtd">
<!-- Generated by graphviz version 2.36.0 (20140111.2315)
 -->
<!-- Title: src/masternode&#45;payments.h Pages: 1 -->
<svg width="1775pt" height="84pt"
 viewBox="0.00 0.00 1775.00 84.00" xmlns="http://www.w3.org/2000/svg" xmlns:xlink="http://www.w3.org/1999/xlink">
<g id="graph0" class="graph" transform="scale(1 1) rotate(0) translate(4 80)">
<title>src/masternode&#45;payments.h</title>
<polygon fill="white" stroke="none" points="-4,4 -4,-80 1771,-80 1771,4 -4,4"/>
<!-- Node178 -->
<g id="node1" class="node"><title>Node178</title>
<polygon fill="#bfbfbf" stroke="black" points="836,-56.5 836,-75.5 974,-75.5 974,-56.5 836,-56.5"/>
<text text-anchor="middle" x="905" y="-63.5" font-family="Helvetica,sans-Serif" font-size="10.00">src/masternode&#45;payments.h</text>
</g>
<!-- Node179 -->
<g id="node2" class="node"><title>Node179</title>
<g id="a_node2"><a xlink:href="dsnotificationinterface_8cpp.html" target="_top" xlink:title="src/dsnotificationinterface.cpp">
<polygon fill="white" stroke="black" points="-0.5,-0.5 -0.5,-19.5 146.5,-19.5 146.5,-0.5 -0.5,-0.5"/>
<text text-anchor="middle" x="73" y="-7.5" font-family="Helvetica,sans-Serif" font-size="10.00">src/dsnotificationinterface.cpp</text>
</a>
</g>
</g>
<!-- Node178&#45;&gt;Node179 -->
<g id="edge1" class="edge"><title>Node178&#45;&gt;Node179</title>
<path fill="none" stroke="midnightblue" d="M825.501,-61.5224C688.473,-55.2392 399.009,-40.6983 155,-20 152.289,-19.77 149.528,-19.5246 146.74,-19.2673"/>
<polygon fill="midnightblue" stroke="midnightblue" points="825.748,-65.0372 835.897,-61.9966 826.067,-58.0444 825.748,-65.0372"/>
</g>
<!-- Node180 -->
<g id="node3" class="node"><title>Node180</title>
<g id="a_node3"><a xlink:href="init_8cpp.html" target="_top" xlink:title="src/init.cpp">
<polygon fill="white" stroke="black" points="164.5,-0.5 164.5,-19.5 229.5,-19.5 229.5,-0.5 164.5,-0.5"/>
<text text-anchor="middle" x="197" y="-7.5" font-family="Helvetica,sans-Serif" font-size="10.00">src/init.cpp</text>
</a>
</g>
</g>
<!-- Node178&#45;&gt;Node180 -->
<g id="edge2" class="edge"><title>Node178&#45;&gt;Node180</title>
<path fill="none" stroke="midnightblue" d="M825.363,-63.3115C700.051,-59.8254 449.419,-49.498 239,-20 236.046,-19.5859 232.99,-19.0815 229.935,-18.5251"/>
<polygon fill="midnightblue" stroke="midnightblue" points="825.54,-66.8175 835.631,-63.5895 825.73,-59.82 825.54,-66.8175"/>
</g>
<!-- Node181 -->
<g id="node4" class="node"><title>Node181</title>
<g id="a_node4"><a xlink:href="instantx_8cpp.html" target="_top" xlink:title="src/instantx.cpp">
<polygon fill="white" stroke="black" points="248,-0.5 248,-19.5 334,-19.5 334,-0.5 248,-0.5"/>
<text text-anchor="middle" x="291" y="-7.5" font-family="Helvetica,sans-Serif" font-size="10.00">src/instantx.cpp</text>
</a>
</g>
</g>
<!-- Node178&#45;&gt;Node181 -->
<g id="edge3" class="edge"><title>Node178&#45;&gt;Node181</title>
<path fill="none" stroke="midnightblue" d="M825.307,-60.92C716.17,-54.8084 514.217,-41.6256 343,-20 340.091,-19.6326 337.097,-19.2164 334.085,-18.7694"/>
<polygon fill="midnightblue" stroke="midnightblue" points="825.396,-64.4302 835.575,-61.4894 825.784,-57.4409 825.396,-64.4302"/>
</g>
<!-- Node182 -->
<g id="node5" class="node"><title>Node182</title>
<g id="a_node5"><a xlink:href="masternode-payments_8cpp.html" target="_top" xlink:title="src/masternode&#45;payments.cpp">
<polygon fill="white" stroke="black" points="352.5,-0.5 352.5,-19.5 501.5,-19.5 501.5,-0.5 352.5,-0.5"/>
<text text-anchor="middle" x="427" y="-7.5" font-family="Helvetica,sans-Serif" font-size="10.00">src/masternode&#45;payments.cpp</text>
</a>
</g>
</g>
<!-- Node178&#45;&gt;Node182 -->
<g id="edge4" class="edge"><title>Node178&#45;&gt;Node182</title>
<path fill="none" stroke="midnightblue" d="M825.595,-56.0295C735.56,-45.8582 589.877,-29.4003 501.795,-19.4497"/>
<polygon fill="midnightblue" stroke="midnightblue" points="825.42,-59.532 835.75,-57.1768 826.206,-52.5763 825.42,-59.532"/>
</g>
<!-- Node183 -->
<g id="node6" class="node"><title>Node183</title>
<g id="a_node6"><a xlink:href="masternode-sync_8cpp.html" target="_top" xlink:title="src/masternode&#45;sync.cpp">
<polygon fill="white" stroke="black" points="519.5,-0.5 519.5,-19.5 646.5,-19.5 646.5,-0.5 519.5,-0.5"/>
<text text-anchor="middle" x="583" y="-7.5" font-family="Helvetica,sans-Serif" font-size="10.00">src/masternode&#45;sync.cpp</text>
</a>
</g>
</g>
<!-- Node178&#45;&gt;Node183 -->
<g id="edge5" class="edge"><title>Node178&#45;&gt;Node183</title>
<path fill="none" stroke="midnightblue" d="M843.745,-54.7275C782.897,-44.523 690.681,-29.0583 633.783,-19.5164"/>
<polygon fill="midnightblue" stroke="midnightblue" points="843.537,-58.2413 853.978,-56.4435 844.695,-51.3377 843.537,-58.2413"/>
</g>
<!-- Node184 -->
<g id="node7" class="node"><title>Node184</title>
<g id="a_node7"><a xlink:href="masternode_8cpp.html" target="_top" xlink:title="src/masternode.cpp">
<polygon fill="white" stroke="black" points="664.5,-0.5 664.5,-19.5 767.5,-19.5 767.5,-0.5 664.5,-0.5"/>
<text text-anchor="middle" x="716" y="-7.5" font-family="Helvetica,sans-Serif" font-size="10.00">src/masternode.cpp</text>
</a>
</g>
</g>
<!-- Node178&#45;&gt;Node184 -->
<g id="edge6" class="edge"><title>Node178&#45;&gt;Node184</title>
<path fill="none" stroke="midnightblue" d="M864.987,-53.5677C829.333,-43.381 777.962,-28.7034 745.808,-19.5164"/>
<polygon fill="midnightblue" stroke="midnightblue" points="864.476,-57.0616 875.052,-56.4435 866.399,-50.3309 864.476,-57.0616"/>
</g>
<!-- Node185 -->
<g id="node8" class="node"><title>Node185</title>
<g id="a_node8"><a xlink:href="masternodeman_8cpp.html" target="_top" xlink:title="src/masternodeman.cpp">
<polygon fill="white" stroke="black" points="786,-0.5 786,-19.5 908,-19.5 908,-0.5 786,-0.5"/>
<text text-anchor="middle" x="847" y="-7.5" font-family="Helvetica,sans-Serif" font-size="10.00">src/masternodeman.cpp</text>
</a>
</g>
</g>
<!-- Node178&#45;&gt;Node185 -->
<g id="edge7" class="edge"><title>Node178&#45;&gt;Node185</title>
<path fill="none" stroke="midnightblue" d="M888.087,-49.2533C877.797,-39.6731 865.034,-27.7906 856.488,-19.8339"/>
<polygon fill="midnightblue" stroke="midnightblue" points="885.977,-52.0714 895.681,-56.324 890.747,-46.9481 885.977,-52.0714"/>
</g>
<!-- Node186 -->
<g id="node9" class="node"><title>Node186</title>
<g id="a_node9"><a xlink:href="miner_8cpp.html" target="_top" xlink:title="src/miner.cpp">
<polygon fill="white" stroke="black" points="926,-0.5 926,-19.5 1002,-19.5 1002,-0.5 926,-0.5"/>
<text text-anchor="middle" x="964" y="-7.5" font-family="Helvetica,sans-Serif" font-size="10.00">src/miner.cpp</text>
</a>
</g>
</g>
<!-- Node178&#45;&gt;Node186 -->
<g id="edge8" class="edge"><title>Node178&#45;&gt;Node186</title>
<path fill="none" stroke="midnightblue" d="M921.895,-49.5372C932.415,-39.9087 945.569,-27.8694 954.348,-19.8339"/>
<polygon fill="midnightblue" stroke="midnightblue" points="919.493,-46.9905 914.479,-56.324 924.219,-52.1542 919.493,-46.9905"/>
</g>
<!-- Node187 -->
<g id="node10" class="node"><title>Node187</title>
<g id="a_node10"><a xlink:href="net__processing_8cpp.html" target="_top" xlink:title="src/net_processing.cpp">
<polygon fill="white" stroke="black" points="1020,-0.5 1020,-19.5 1138,-19.5 1138,-0.5 1020,-0.5"/>
<text text-anchor="middle" x="1079" y="-7.5" font-family="Helvetica,sans-Serif" font-size="10.00">src/net_processing.cpp</text>
</a>
</g>
</g>
<!-- Node178&#45;&gt;Node187 -->
<g id="edge9" class="edge"><title>Node178&#45;&gt;Node187</title>
<path fill="none" stroke="midnightblue" d="M942.261,-53.4363C975.067,-43.2551 1022.08,-28.664 1051.56,-19.5164"/>
<polygon fill="midnightblue" stroke="midnightblue" points="941.084,-50.1368 932.571,-56.4435 943.159,-56.8222 941.084,-50.1368"/>
</g>
<!-- Node188 -->
<g id="node11" class="node"><title>Node188</title>
<g id="a_node11"><a xlink:href="privatesend-client_8cpp.html" target="_top" xlink:title="src/privatesend&#45;client.cpp">
<polygon fill="white" stroke="black" points="1156,-0.5 1156,-19.5 1284,-19.5 1284,-0.5 1156,-0.5"/>
<text text-anchor="middle" x="1220" y="-7.5" font-family="Helvetica,sans-Serif" font-size="10.00">src/privatesend&#45;client.cpp</text>
</a>
</g>
</g>
<!-- Node178&#45;&gt;Node188 -->
<g id="edge10" class="edge"><title>Node178&#45;&gt;Node188</title>
<path fill="none" stroke="midnightblue" d="M964.923,-54.7275C1024.45,-44.523 1114.66,-29.0583 1170.32,-19.5164"/>
<polygon fill="midnightblue" stroke="midnightblue" points="964.178,-51.3041 954.913,-56.4435 965.36,-58.2035 964.178,-51.3041"/>
</g>
<!-- Node189 -->
<g id="node12" class="node"><title>Node189</title>
<g id="a_node12"><a xlink:href="privatesend_8cpp.html" target="_top" xlink:title="src/privatesend.cpp">
<polygon fill="white" stroke="black" points="1302,-0.5 1302,-19.5 1404,-19.5 1404,-0.5 1302,-0.5"/>
<text text-anchor="middle" x="1353" y="-7.5" font-family="Helvetica,sans-Serif" font-size="10.00">src/privatesend.cpp</text>
</a>
</g>
</g>
<!-- Node178&#45;&gt;Node189 -->
<g id="edge11" class="edge"><title>Node178&#45;&gt;Node189</title>
<path fill="none" stroke="midnightblue" d="M984.418,-56.5746C1062.91,-48.0625 1186.37,-34.1769 1293,-20 1295.92,-19.6113 1298.93,-19.2 1301.95,-18.7756"/>
<polygon fill="midnightblue" stroke="midnightblue" points="983.689,-53.133 974.123,-57.6882 984.442,-60.0924 983.689,-53.133"/>
</g>
<!-- Node190 -->
<g id="node13" class="node"><title>Node190</title>
<g id="a_node13"><a xlink:href="rpc_2masternode_8cpp.html" target="_top" xlink:title="src/rpc/masternode.cpp">
<polygon fill="white" stroke="black" points="1422.5,-0.5 1422.5,-19.5 1541.5,-19.5 1541.5,-0.5 1422.5,-0.5"/>
<text text-anchor="middle" x="1482" y="-7.5" font-family="Helvetica,sans-Serif" font-size="10.00">src/rpc/masternode.cpp</text>
</a>
</g>
</g>
<!-- Node178&#45;&gt;Node190 -->
<g id="edge12" class="edge"><title>Node178&#45;&gt;Node190</title>
<path fill="none" stroke="midnightblue" d="M984.396,-58.9251C1084.28,-51.0588 1261.03,-36.3985 1412,-20 1415.41,-19.6295 1418.91,-19.2324 1422.45,-18.8189"/>
<polygon fill="midnightblue" stroke="midnightblue" points="984.076,-55.4394 974.381,-59.7114 984.624,-62.4179 984.076,-55.4394"/>
</g>
<!-- Node191 -->
<g id="node14" class="node"><title>Node191</title>
<g id="a_node14"><a xlink:href="mining_8cpp.html" target="_top" xlink:title="src/rpc/mining.cpp">
<polygon fill="white" stroke="black" points="1559.5,-0.5 1559.5,-19.5 1656.5,-19.5 1656.5,-0.5 1559.5,-0.5"/>
<text text-anchor="middle" x="1608" y="-7.5" font-family="Helvetica,sans-Serif" font-size="10.00">src/rpc/mining.cpp</text>
</a>
</g>
</g>
<!-- Node178&#45;&gt;Node191 -->
<g id="edge13" class="edge"><title>Node178&#45;&gt;Node191</title>
<path fill="none" stroke="midnightblue" d="M984.373,-61.6192C1106.28,-55.9403 1346.83,-42.8091 1550,-20 1553.04,-19.6589 1556.16,-19.2742 1559.31,-18.8608"/>
<polygon fill="midnightblue" stroke="midnightblue" points="984.204,-58.1232 974.376,-62.0806 984.527,-65.1158 984.204,-58.1232"/>
</g>
<!-- Node192 -->
<g id="node15" class="node"><title>Node192</title>
<g id="a_node15"><a xlink:href="validation_8cpp.html" target="_top" xlink:title="src/validation.cpp">
<polygon fill="white" stroke="black" points="1674.5,-0.5 1674.5,-19.5 1767.5,-19.5 1767.5,-0.5 1674.5,-0.5"/>
<text text-anchor="middle" x="1721" y="-7.5" font-family="Helvetica,sans-Serif" font-size="10.00">src/validation.cpp</text>
</a>
</g>
</g>
<!-- Node178&#45;&gt;Node192 -->
<g id="edge14" class="edge"><title>Node178&#45;&gt;Node192</title>
<path fill="none" stroke="midnightblue" d="M984.192,-62.9239C1122.62,-58.7122 1417.45,-47.1518 1665,-20 1668.03,-19.6672 1671.16,-19.283 1674.3,-18.8648"/>
<polygon fill="midnightblue" stroke="midnightblue" points="983.987,-59.4284 974.096,-63.2264 984.196,-66.4252 983.987,-59.4284"/>
</g>
</g>
</svg>
