<?xml version="1.0" encoding="UTF-8" standalone="no"?>
<!DOCTYPE svg PUBLIC "-//W3C//DTD SVG 1.1//EN"
 "http://www.w3.org/Graphics/SVG/1.1/DTD/svg11.dtd">
<!-- Generated by graphviz version 2.36.0 (20140111.2315)
 -->
<!-- Title: src/memusage.h Pages: 1 -->
<svg width="5531pt" height="308pt"
 viewBox="0.00 0.00 5531.00 308.00" xmlns="http://www.w3.org/2000/svg" xmlns:xlink="http://www.w3.org/1999/xlink">
<g id="graph0" class="graph" transform="scale(1 1) rotate(0) translate(4 304)">
<title>src/memusage.h</title>
<polygon fill="white" stroke="none" points="-4,4 -4,-304 5527,-304 5527,4 -4,4"/>
<!-- Node11 -->
<g id="node1" class="node"><title>Node11</title>
<polygon fill="#bfbfbf" stroke="black" points="923.5,-280.5 923.5,-299.5 1012.5,-299.5 1012.5,-280.5 923.5,-280.5"/>
<text text-anchor="middle" x="968" y="-287.5" font-family="Helvetica,sans-Serif" font-size="10.00">src/memusage.h</text>
</g>
<!-- Node12 -->
<g id="node2" class="node"><title>Node12</title>
<g id="a_node2"><a xlink:href="core__memusage_8h.html" target="_top" xlink:title="src/core_memusage.h">
<polygon fill="white" stroke="black" points="807.5,-224.5 807.5,-243.5 920.5,-243.5 920.5,-224.5 807.5,-224.5"/>
<text text-anchor="middle" x="864" y="-231.5" font-family="Helvetica,sans-Serif" font-size="10.00">src/core_memusage.h</text>
</a>
</g>
</g>
<!-- Node11&#45;&gt;Node12 -->
<g id="edge1" class="edge"><title>Node11&#45;&gt;Node12</title>
<path fill="none" stroke="midnightblue" d="M942.172,-275.59C922.943,-265.605 897.255,-252.267 880.668,-243.655"/>
<polygon fill="midnightblue" stroke="midnightblue" points="940.803,-278.822 951.291,-280.324 944.029,-272.61 940.803,-278.822"/>
</g>
<!-- Node13 -->
<g id="node3" class="node"><title>Node13</title>
<g id="a_node3"><a xlink:href="coins_8h.html" target="_top" xlink:title="src/coins.h">
<polygon fill="white" stroke="black" points="831.5,-168.5 831.5,-187.5 896.5,-187.5 896.5,-168.5 831.5,-168.5"/>
<text text-anchor="middle" x="864" y="-175.5" font-family="Helvetica,sans-Serif" font-size="10.00">src/coins.h</text>
</a>
</g>
</g>
<!-- Node11&#45;&gt;Node13 -->
<g id="edge69" class="edge"><title>Node11&#45;&gt;Node13</title>
<path fill="none" stroke="midnightblue" d="M959.725,-270.8C952.83,-256.937 942.05,-237.928 929,-224 914.642,-208.676 894.229,-195.595 880.127,-187.55"/>
<polygon fill="midnightblue" stroke="midnightblue" points="956.754,-272.703 964.213,-280.228 963.075,-269.694 956.754,-272.703"/>
</g>
<!-- Node91 -->
<g id="node47" class="node"><title>Node91</title>
<g id="a_node47"><a xlink:href="coins_8cpp.html" target="_top" xlink:title="src/coins.cpp">
<polygon fill="white" stroke="black" points="2612.5,-112.5 2612.5,-131.5 2687.5,-131.5 2687.5,-112.5 2612.5,-112.5"/>
<text text-anchor="middle" x="2650" y="-119.5" font-family="Helvetica,sans-Serif" font-size="10.00">src/coins.cpp</text>
</a>
</g>
</g>
<!-- Node11&#45;&gt;Node91 -->
<g id="edge70" class="edge"><title>Node11&#45;&gt;Node91</title>
<path fill="none" stroke="midnightblue" d="M973.409,-270.455C978.935,-255.15 989.138,-234.33 1006,-224 1157.56,-131.151 2426.61,-153.872 2603,-132 2606.05,-131.622 2609.2,-131.165 2612.36,-130.66"/>
<polygon fill="midnightblue" stroke="midnightblue" points="969.941,-269.803 970.184,-280.395 976.599,-271.964 969.941,-269.803"/>
</g>
<!-- Node95 -->
<g id="node50" class="node"><title>Node95</title>
<g id="a_node50"><a xlink:href="sigcache_8cpp.html" target="_top" xlink:title="src/script/sigcache.cpp">
<polygon fill="white" stroke="black" points="1015,-224.5 1015,-243.5 1133,-243.5 1133,-224.5 1015,-224.5"/>
<text text-anchor="middle" x="1074" y="-231.5" font-family="Helvetica,sans-Serif" font-size="10.00">src/script/sigcache.cpp</text>
</a>
</g>
</g>
<!-- Node11&#45;&gt;Node95 -->
<g id="edge71" class="edge"><title>Node11&#45;&gt;Node95</title>
<path fill="none" stroke="midnightblue" d="M994.056,-275.726C1013.68,-265.727 1040.03,-252.307 1057.01,-243.655"/>
<polygon fill="midnightblue" stroke="midnightblue" points="992.352,-272.666 985.031,-280.324 995.53,-278.903 992.352,-272.666"/>
</g>
<!-- Node12&#45;&gt;Node13 -->
<g id="edge2" class="edge"><title>Node12&#45;&gt;Node13</title>
<path fill="none" stroke="midnightblue" d="M864,-213.805C864,-204.91 864,-194.78 864,-187.751"/>
<polygon fill="midnightblue" stroke="midnightblue" points="860.5,-214.083 864,-224.083 867.5,-214.083 860.5,-214.083"/>
</g>
<!-- Node14 -->
<g id="node4" class="node"><title>Node14</title>
<g id="a_node4"><a xlink:href="validation_8h.html" target="_top" xlink:title="src/validation.h">
<polygon fill="white" stroke="red" points="2511.5,-112.5 2511.5,-131.5 2594.5,-131.5 2594.5,-112.5 2511.5,-112.5"/>
<text text-anchor="middle" x="2553" y="-119.5" font-family="Helvetica,sans-Serif" font-size="10.00">src/validation.h</text>
</a>
</g>
</g>
<!-- Node13&#45;&gt;Node14 -->
<g id="edge3" class="edge"><title>Node13&#45;&gt;Node14</title>
<path fill="none" stroke="midnightblue" d="M906.952,-172.916C927.004,-171.147 951.205,-169.209 973,-168 1584.01,-134.098 2329.44,-125.114 2511.46,-123.36"/>
<polygon fill="midnightblue" stroke="midnightblue" points="906.527,-169.44 896.88,-173.821 907.153,-176.412 906.527,-169.44"/>
</g>
<!-- Node39 -->
<g id="node27" class="node"><title>Node39</title>
<g id="a_node27"><a xlink:href="miner_8cpp.html" target="_top" xlink:title="src/miner.cpp">
<polygon fill="white" stroke="black" points="0,-56.5 0,-75.5 76,-75.5 76,-56.5 0,-56.5"/>
<text text-anchor="middle" x="38" y="-63.5" font-family="Helvetica,sans-Serif" font-size="10.00">src/miner.cpp</text>
</a>
</g>
</g>
<!-- Node13&#45;&gt;Node39 -->
<g id="edge66" class="edge"><title>Node13&#45;&gt;Node39</title>
<path fill="none" stroke="midnightblue" d="M821.219,-174.412C736.512,-168.982 541.566,-154.97 379,-132 247.292,-113.39 215.654,-100.953 85,-76 82.1438,-75.4545 79.1901,-74.89 76.2189,-74.3218"/>
<polygon fill="midnightblue" stroke="midnightblue" points="821.031,-177.907 831.233,-175.046 821.474,-170.921 821.031,-177.907"/>
</g>
<!-- Node74 -->
<g id="node42" class="node"><title>Node74</title>
<g id="a_node42"><a xlink:href="blockchain_8cpp.html" target="_top" xlink:title="src/rpc/blockchain.cpp">
<polygon fill="white" stroke="black" points="244.5,-56.5 244.5,-75.5 359.5,-75.5 359.5,-56.5 244.5,-56.5"/>
<text text-anchor="middle" x="302" y="-63.5" font-family="Helvetica,sans-Serif" font-size="10.00">src/rpc/blockchain.cpp</text>
</a>
</g>
</g>
<!-- Node13&#45;&gt;Node74 -->
<g id="edge67" class="edge"><title>Node13&#45;&gt;Node74</title>
<path fill="none" stroke="midnightblue" d="M820.893,-170.683C766.972,-162.6 671.892,-147.75 591,-132 498.876,-114.063 391.227,-88.6664 337.007,-75.5617"/>
<polygon fill="midnightblue" stroke="midnightblue" points="820.705,-174.194 831.112,-172.208 821.738,-167.27 820.705,-174.194"/>
</g>
<!-- Node77 -->
<g id="node44" class="node"><title>Node77</title>
<g id="a_node44"><a xlink:href="rawtransaction_8cpp.html" target="_top" xlink:title="src/rpc/rawtransaction.cpp">
<polygon fill="white" stroke="black" points="94,-56.5 94,-75.5 226,-75.5 226,-56.5 94,-56.5"/>
<text text-anchor="middle" x="160" y="-63.5" font-family="Helvetica,sans-Serif" font-size="10.00">src/rpc/rawtransaction.cpp</text>
</a>
</g>
</g>
<!-- Node13&#45;&gt;Node77 -->
<g id="edge68" class="edge"><title>Node13&#45;&gt;Node77</title>
<path fill="none" stroke="midnightblue" d="M820.928,-172.821C751.485,-165.852 610.569,-150.753 492,-132 385.258,-115.118 260.446,-88.9246 198.683,-75.5264"/>
<polygon fill="midnightblue" stroke="midnightblue" points="820.747,-176.32 831.045,-173.829 821.442,-169.355 820.747,-176.32"/>
</g>
<!-- Node86 -->
<g id="node45" class="node"><title>Node86</title>
<g id="a_node45"><a xlink:href="ccoins__caching_8cpp.html" target="_top" xlink:title="src/bench/ccoins_caching.cpp">
<polygon fill="white" stroke="black" points="600.5,-112.5 600.5,-131.5 749.5,-131.5 749.5,-112.5 600.5,-112.5"/>
<text text-anchor="middle" x="675" y="-119.5" font-family="Helvetica,sans-Serif" font-size="10.00">src/bench/ccoins_caching.cpp</text>
</a>
</g>
</g>
<!-- Node13&#45;&gt;Node86 -->
<g id="edge45" class="edge"><title>Node13&#45;&gt;Node86</title>
<path fill="none" stroke="midnightblue" d="M823.987,-165.568C788.333,-155.381 736.962,-140.703 704.808,-131.516"/>
<polygon fill="midnightblue" stroke="midnightblue" points="823.476,-169.062 834.052,-168.444 825.399,-162.331 823.476,-169.062"/>
</g>
<!-- Node87 -->
<g id="node46" class="node"><title>Node87</title>
<g id="a_node46"><a xlink:href="txmempool_8h.html" target="_top" xlink:title="src/txmempool.h">
<polygon fill="white" stroke="red" points="767.5,-112.5 767.5,-131.5 856.5,-131.5 856.5,-112.5 767.5,-112.5"/>
<text text-anchor="middle" x="812" y="-119.5" font-family="Helvetica,sans-Serif" font-size="10.00">src/txmempool.h</text>
</a>
</g>
</g>
<!-- Node13&#45;&gt;Node87 -->
<g id="edge46" class="edge"><title>Node13&#45;&gt;Node87</title>
<path fill="none" stroke="midnightblue" d="M848.321,-160.718C839.155,-151.2 827.947,-139.561 820.427,-131.751"/>
<polygon fill="midnightblue" stroke="midnightblue" points="845.956,-163.308 855.413,-168.083 850.998,-158.452 845.956,-163.308"/>
</g>
<!-- Node13&#45;&gt;Node91 -->
<g id="edge59" class="edge"><title>Node13&#45;&gt;Node91</title>
<path fill="none" stroke="midnightblue" d="M906.949,-172.853C926.999,-171.071 951.201,-169.14 973,-168 1696.63,-130.169 1882.42,-208.407 2603,-132 2606.06,-131.676 2609.21,-131.257 2612.37,-130.779"/>
<polygon fill="midnightblue" stroke="midnightblue" points="906.52,-169.377 896.877,-173.766 907.152,-176.348 906.52,-169.377"/>
</g>
<!-- Node92 -->
<g id="node48" class="node"><title>Node92</title>
<g id="a_node48"><a xlink:href="dash-tx_8cpp.html" target="_top" xlink:title="src/dash&#45;tx.cpp">
<polygon fill="white" stroke="black" points="874,-112.5 874,-131.5 958,-131.5 958,-112.5 874,-112.5"/>
<text text-anchor="middle" x="916" y="-119.5" font-family="Helvetica,sans-Serif" font-size="10.00">src/dash&#45;tx.cpp</text>
</a>
</g>
</g>
<!-- Node13&#45;&gt;Node92 -->
<g id="edge60" class="edge"><title>Node13&#45;&gt;Node92</title>
<path fill="none" stroke="midnightblue" d="M879.679,-160.718C888.845,-151.2 900.053,-139.561 907.573,-131.751"/>
<polygon fill="midnightblue" stroke="midnightblue" points="877.002,-158.452 872.587,-168.083 882.044,-163.308 877.002,-158.452"/>
</g>
<!-- Node93 -->
<g id="node49" class="node"><title>Node93</title>
<g id="a_node49"><a xlink:href="txdb_8h.html" target="_top" xlink:title="src/txdb.h">
<polygon fill="white" stroke="red" points="1195,-112.5 1195,-131.5 1255,-131.5 1255,-112.5 1195,-112.5"/>
<text text-anchor="middle" x="1225" y="-119.5" font-family="Helvetica,sans-Serif" font-size="10.00">src/txdb.h</text>
</a>
</g>
</g>
<!-- Node13&#45;&gt;Node93 -->
<g id="edge61" class="edge"><title>Node13&#45;&gt;Node93</title>
<path fill="none" stroke="midnightblue" d="M906.569,-170.632C980.403,-159.588 1130.46,-137.141 1194.71,-127.531"/>
<polygon fill="midnightblue" stroke="midnightblue" points="906.045,-167.172 896.673,-172.113 907.081,-174.095 906.045,-167.172"/>
</g>
<!-- Node15 -->
<g id="node5" class="node"><title>Node15</title>
<g id="a_node5"><a xlink:href="masternode_8h.html" target="_top" xlink:title="src/masternode.h">
<polygon fill="white" stroke="red" points="3705,-56.5 3705,-75.5 3797,-75.5 3797,-56.5 3705,-56.5"/>
<text text-anchor="middle" x="3751" y="-63.5" font-family="Helvetica,sans-Serif" font-size="10.00">src/masternode.h</text>
</a>
</g>
</g>
<!-- Node14&#45;&gt;Node15 -->
<g id="edge4" class="edge"><title>Node14&#45;&gt;Node15</title>
<path fill="none" stroke="midnightblue" d="M2604.7,-111.977C3087.63,-61.6923 3214.95,-122.301 3695,-76 3698.23,-75.688 3701.57,-75.3069 3704.91,-74.8797"/>
<polygon fill="midnightblue" stroke="midnightblue" points="2604.26,-108.504 2594.68,-113.031 2604.99,-115.466 2604.26,-108.504"/>
</g>
<!-- Node35 -->
<g id="node6" class="node"><title>Node35</title>
<g id="a_node6"><a xlink:href="rpc_2governance_8cpp.html" target="_top" xlink:title="src/rpc/governance.cpp">
<polygon fill="white" stroke="black" points="3728.5,-0.5 3728.5,-19.5 3847.5,-19.5 3847.5,-0.5 3728.5,-0.5"/>
<text text-anchor="middle" x="3788" y="-7.5" font-family="Helvetica,sans-Serif" font-size="10.00">src/rpc/governance.cpp</text>
</a>
</g>
</g>
<!-- Node14&#45;&gt;Node35 -->
<g id="edge42" class="edge"><title>Node14&#45;&gt;Node35</title>
<path fill="none" stroke="midnightblue" d="M2605,-112.333C2738.67,-106.209 3760.93,-122.435 3806,-76 3821.01,-60.539 3805.14,-33.7241 3795.03,-19.8637"/>
<polygon fill="midnightblue" stroke="midnightblue" points="2604.42,-108.864 2594.68,-113.022 2604.89,-115.848 2604.42,-108.864"/>
</g>
<!-- Node47 -->
<g id="node7" class="node"><title>Node47</title>
<g id="a_node7"><a xlink:href="bench_2base58_8cpp.html" target="_top" xlink:title="src/bench/base58.cpp">
<polygon fill="white" stroke="black" points="3853.5,-56.5 3853.5,-75.5 3966.5,-75.5 3966.5,-56.5 3853.5,-56.5"/>
<text text-anchor="middle" x="3910" y="-63.5" font-family="Helvetica,sans-Serif" font-size="10.00">src/bench/base58.cpp</text>
</a>
</g>
</g>
<!-- Node14&#45;&gt;Node47 -->
<g id="edge6" class="edge"><title>Node14&#45;&gt;Node47</title>
<path fill="none" stroke="midnightblue" d="M2604.79,-111.973C3151.36,-55.9342 3294.43,-118.345 3839,-76 3843.71,-75.634 3848.58,-75.1783 3853.47,-74.6677"/>
<polygon fill="midnightblue" stroke="midnightblue" points="2604.26,-108.509 2594.68,-113.019 2604.98,-115.472 2604.26,-108.509"/>
</g>
<!-- Node48 -->
<g id="node8" class="node"><title>Node48</title>
<g id="a_node8"><a xlink:href="bench__dash_8cpp.html" target="_top" xlink:title="src/bench/bench_dash.cpp">
<polygon fill="white" stroke="black" points="3985,-56.5 3985,-75.5 4119,-75.5 4119,-56.5 3985,-56.5"/>
<text text-anchor="middle" x="4052" y="-63.5" font-family="Helvetica,sans-Serif" font-size="10.00">src/bench/bench_dash.cpp</text>
</a>
</g>
</g>
<!-- Node14&#45;&gt;Node48 -->
<g id="edge7" class="edge"><title>Node14&#45;&gt;Node48</title>
<path fill="none" stroke="midnightblue" d="M2604.99,-111.958C3211.58,-50.5689 3369.98,-119.208 3975,-76 3978.22,-75.7699 3981.52,-75.5038 3984.84,-75.2106"/>
<polygon fill="midnightblue" stroke="midnightblue" points="2604.27,-108.514 2594.67,-113.01 2604.98,-115.477 2604.27,-108.514"/>
</g>
<!-- Node49 -->
<g id="node9" class="node"><title>Node49</title>
<g id="a_node9"><a xlink:href="checkblock_8cpp.html" target="_top" xlink:title="src/bench/checkblock.cpp">
<polygon fill="white" stroke="black" points="4137.5,-56.5 4137.5,-75.5 4268.5,-75.5 4268.5,-56.5 4137.5,-56.5"/>
<text text-anchor="middle" x="4203" y="-63.5" font-family="Helvetica,sans-Serif" font-size="10.00">src/bench/checkblock.cpp</text>
</a>
</g>
</g>
<!-- Node14&#45;&gt;Node49 -->
<g id="edge8" class="edge"><title>Node14&#45;&gt;Node49</title>
<path fill="none" stroke="midnightblue" d="M2604.64,-111.998C3279.24,-44.5296 3455.07,-124.207 4128,-76 4131.01,-75.7845 4134.08,-75.535 4137.18,-75.2595"/>
<polygon fill="midnightblue" stroke="midnightblue" points="2604.27,-108.517 2594.67,-113.002 2604.97,-115.482 2604.27,-108.517"/>
</g>
<!-- Node50 -->
<g id="node10" class="node"><title>Node50</title>
<g id="a_node10"><a xlink:href="checkqueue_8cpp.html" target="_top" xlink:title="src/bench/checkqueue.cpp">
<polygon fill="white" stroke="black" points="4287,-56.5 4287,-75.5 4421,-75.5 4421,-56.5 4287,-56.5"/>
<text text-anchor="middle" x="4354" y="-63.5" font-family="Helvetica,sans-Serif" font-size="10.00">src/bench/checkqueue.cpp</text>
</a>
</g>
</g>
<!-- Node14&#45;&gt;Node50 -->
<g id="edge9" class="edge"><title>Node14&#45;&gt;Node50</title>
<path fill="none" stroke="midnightblue" d="M2604.79,-111.987C3345.21,-38.6614 3537.95,-127.023 4277,-76 4280.22,-75.7775 4283.52,-75.5177 4286.84,-75.2294"/>
<polygon fill="midnightblue" stroke="midnightblue" points="2604.28,-108.52 2594.67,-112.995 2604.97,-115.486 2604.28,-108.52"/>
</g>
<!-- Node51 -->
<g id="node11" class="node"><title>Node51</title>
<g id="a_node11"><a xlink:href="_examples_8cpp.html" target="_top" xlink:title="src/bench/Examples.cpp">
<polygon fill="white" stroke="black" points="4439.5,-56.5 4439.5,-75.5 4564.5,-75.5 4564.5,-56.5 4439.5,-56.5"/>
<text text-anchor="middle" x="4502" y="-63.5" font-family="Helvetica,sans-Serif" font-size="10.00">src/bench/Examples.cpp</text>
</a>
</g>
</g>
<!-- Node14&#45;&gt;Node51 -->
<g id="edge10" class="edge"><title>Node14&#45;&gt;Node51</title>
<path fill="none" stroke="midnightblue" d="M2604.81,-111.988C3412.93,-32.6598 3623.31,-134.205 4430,-76 4433.02,-75.7824 4436.1,-75.5265 4439.21,-75.2414"/>
<polygon fill="midnightblue" stroke="midnightblue" points="2604.28,-108.523 2594.67,-112.99 2604.97,-115.489 2604.28,-108.523"/>
</g>
<!-- Node52 -->
<g id="node12" class="node"><title>Node52</title>
<g id="a_node12"><a xlink:href="blockencodings_8cpp.html" target="_top" xlink:title="src/blockencodings.cpp">
<polygon fill="white" stroke="black" points="377.5,-56.5 377.5,-75.5 496.5,-75.5 496.5,-56.5 377.5,-56.5"/>
<text text-anchor="middle" x="437" y="-63.5" font-family="Helvetica,sans-Serif" font-size="10.00">src/blockencodings.cpp</text>
</a>
</g>
</g>
<!-- Node14&#45;&gt;Node52 -->
<g id="edge11" class="edge"><title>Node14&#45;&gt;Node52</title>
<path fill="none" stroke="midnightblue" d="M2501,-120.617C2223.12,-118.456 910.844,-106.763 506,-76 502.989,-75.7712 499.907,-75.5012 496.798,-75.2003"/>
<polygon fill="midnightblue" stroke="midnightblue" points="2501.18,-124.119 2511.2,-120.696 2501.23,-117.119 2501.18,-124.119"/>
</g>
<!-- Node53 -->
<g id="node13" class="node"><title>Node53</title>
<g id="a_node13"><a xlink:href="checkpoints_8cpp.html" target="_top" xlink:title="src/checkpoints.cpp">
<polygon fill="white" stroke="black" points="4583,-56.5 4583,-75.5 4687,-75.5 4687,-56.5 4583,-56.5"/>
<text text-anchor="middle" x="4635" y="-63.5" font-family="Helvetica,sans-Serif" font-size="10.00">src/checkpoints.cpp</text>
</a>
</g>
</g>
<!-- Node14&#45;&gt;Node53 -->
<g id="edge12" class="edge"><title>Node14&#45;&gt;Node53</title>
<path fill="none" stroke="midnightblue" d="M2604.63,-112.008C3476.2,-27.0716 3703.49,-146.772 4573,-76 4576.25,-75.7353 4579.59,-75.409 4582.96,-75.0393"/>
<polygon fill="midnightblue" stroke="midnightblue" points="2604.28,-108.526 2594.67,-112.985 2604.97,-115.492 2604.28,-108.526"/>
</g>
<!-- Node54 -->
<g id="node14" class="node"><title>Node54</title>
<g id="a_node14"><a xlink:href="cbtx_8cpp.html" target="_top" xlink:title="src/evo/cbtx.cpp">
<polygon fill="white" stroke="black" points="4705.5,-56.5 4705.5,-75.5 4794.5,-75.5 4794.5,-56.5 4705.5,-56.5"/>
<text text-anchor="middle" x="4750" y="-63.5" font-family="Helvetica,sans-Serif" font-size="10.00">src/evo/cbtx.cpp</text>
</a>
</g>
</g>
<!-- Node14&#45;&gt;Node54 -->
<g id="edge13" class="edge"><title>Node14&#45;&gt;Node54</title>
<path fill="none" stroke="midnightblue" d="M2604.91,-111.984C3530.7,-22.3167 3772.9,-160.397 4696,-76 4699.03,-75.7231 4702.14,-75.3748 4705.28,-74.9773"/>
<polygon fill="midnightblue" stroke="midnightblue" points="2604.28,-108.528 2594.67,-112.982 2604.96,-115.495 2604.28,-108.528"/>
</g>
<!-- Node55 -->
<g id="node15" class="node"><title>Node55</title>
<g id="a_node15"><a xlink:href="deterministicmns_8cpp.html" target="_top" xlink:title="src/evo/deterministicmns.cpp">
<polygon fill="white" stroke="black" points="4812.5,-56.5 4812.5,-75.5 4957.5,-75.5 4957.5,-56.5 4812.5,-56.5"/>
<text text-anchor="middle" x="4885" y="-63.5" font-family="Helvetica,sans-Serif" font-size="10.00">src/evo/deterministicmns.cpp</text>
</a>
</g>
</g>
<!-- Node14&#45;&gt;Node55 -->
<g id="edge14" class="edge"><title>Node14&#45;&gt;Node55</title>
<path fill="none" stroke="midnightblue" d="M2604.92,-111.998C3106.36,-65.1082 4318.35,-106.496 4803,-76 4806,-75.8111 4809.06,-75.5927 4812.15,-75.3508"/>
<polygon fill="midnightblue" stroke="midnightblue" points="2604.29,-108.543 2594.67,-112.979 2604.96,-115.511 2604.29,-108.543"/>
</g>
<!-- Node56 -->
<g id="node16" class="node"><title>Node56</title>
<g id="a_node16"><a xlink:href="providertx_8cpp.html" target="_top" xlink:title="src/evo/providertx.cpp">
<polygon fill="white" stroke="black" points="4975.5,-56.5 4975.5,-75.5 5088.5,-75.5 5088.5,-56.5 4975.5,-56.5"/>
<text text-anchor="middle" x="5032" y="-63.5" font-family="Helvetica,sans-Serif" font-size="10.00">src/evo/providertx.cpp</text>
</a>
</g>
</g>
<!-- Node14&#45;&gt;Node56 -->
<g id="edge15" class="edge"><title>Node14&#45;&gt;Node56</title>
<path fill="none" stroke="midnightblue" d="M2604.88,-112.004C3142.4,-61.9989 4445.64,-115.299 4966,-76 4969,-75.7736 4972.07,-75.5003 4975.16,-75.192"/>
<polygon fill="midnightblue" stroke="midnightblue" points="2604.29,-108.544 2594.67,-112.975 2604.96,-115.513 2604.29,-108.544"/>
</g>
<!-- Node57 -->
<g id="node17" class="node"><title>Node57</title>
<g id="a_node17"><a xlink:href="simplifiedmns_8cpp.html" target="_top" xlink:title="src/evo/simplifiedmns.cpp">
<polygon fill="white" stroke="black" points="5106.5,-56.5 5106.5,-75.5 5237.5,-75.5 5237.5,-56.5 5106.5,-56.5"/>
<text text-anchor="middle" x="5172" y="-63.5" font-family="Helvetica,sans-Serif" font-size="10.00">src/evo/simplifiedmns.cpp</text>
</a>
</g>
</g>
<!-- Node14&#45;&gt;Node57 -->
<g id="edge16" class="edge"><title>Node14&#45;&gt;Node57</title>
<path fill="none" stroke="midnightblue" d="M2605.02,-111.992C3171.64,-59.3855 4547.34,-112.845 5097,-76 5100.01,-75.7983 5103.08,-75.5601 5106.19,-75.2938"/>
<polygon fill="midnightblue" stroke="midnightblue" points="2604.3,-108.544 2594.67,-112.973 2604.96,-115.513 2604.3,-108.544"/>
</g>
<!-- Node58 -->
<g id="node18" class="node"><title>Node58</title>
<g id="a_node18"><a xlink:href="specialtx_8cpp.html" target="_top" xlink:title="src/evo/specialtx.cpp">
<polygon fill="white" stroke="black" points="5256,-56.5 5256,-75.5 5366,-75.5 5366,-56.5 5256,-56.5"/>
<text text-anchor="middle" x="5311" y="-63.5" font-family="Helvetica,sans-Serif" font-size="10.00">src/evo/specialtx.cpp</text>
</a>
</g>
</g>
<!-- Node14&#45;&gt;Node58 -->
<g id="edge17" class="edge"><title>Node14&#45;&gt;Node58</title>
<path fill="none" stroke="midnightblue" d="M2604.74,-112.018C3204.2,-56.5031 4663.58,-120.117 5246,-76 5249.18,-75.7591 5252.44,-75.4632 5255.73,-75.1272"/>
<polygon fill="midnightblue" stroke="midnightblue" points="2604.3,-108.545 2594.67,-112.97 2604.96,-115.514 2604.3,-108.545"/>
</g>
<!-- Node59 -->
<g id="node19" class="node"><title>Node59</title>
<g id="a_node19"><a xlink:href="governance-classes_8cpp.html" target="_top" xlink:title="src/governance&#45;classes.cpp">
<polygon fill="white" stroke="black" points="5384.5,-56.5 5384.5,-75.5 5523.5,-75.5 5523.5,-56.5 5384.5,-56.5"/>
<text text-anchor="middle" x="5454" y="-63.5" font-family="Helvetica,sans-Serif" font-size="10.00">src/governance&#45;classes.cpp</text>
</a>
</g>
</g>
<!-- Node14&#45;&gt;Node59 -->
<g id="edge18" class="edge"><title>Node14&#45;&gt;Node59</title>
<path fill="none" stroke="midnightblue" d="M2604.77,-112.016C3232.8,-53.8918 4763.48,-114.706 5375,-76 5378.03,-75.8082 5381.12,-75.5828 5384.25,-75.3312"/>
<polygon fill="midnightblue" stroke="midnightblue" points="2604.3,-108.545 2594.67,-112.968 2604.96,-115.514 2604.3,-108.545"/>
</g>
<!-- Node22 -->
<g id="node20" class="node"><title>Node22</title>
<g id="a_node20"><a xlink:href="init_8cpp.html" target="_top" xlink:title="src/init.cpp">
<polygon fill="white" stroke="black" points="1192.5,-56.5 1192.5,-75.5 1257.5,-75.5 1257.5,-56.5 1192.5,-56.5"/>
<text text-anchor="middle" x="1225" y="-63.5" font-family="Helvetica,sans-Serif" font-size="10.00">src/init.cpp</text>
</a>
</g>
</g>
<!-- Node14&#45;&gt;Node22 -->
<g id="edge19" class="edge"><title>Node14&#45;&gt;Node22</title>
<path fill="none" stroke="midnightblue" d="M2501.25,-120.406C2292.52,-117.822 1512.01,-106.298 1267,-76 1264.04,-75.6339 1260.98,-75.1625 1257.92,-74.6276"/>
<polygon fill="midnightblue" stroke="midnightblue" points="2501.29,-123.907 2511.33,-120.529 2501.37,-116.907 2501.29,-123.907"/>
</g>
<!-- Node23 -->
<g id="node21" class="node"><title>Node23</title>
<g id="a_node21"><a xlink:href="instantx_8cpp.html" target="_top" xlink:title="src/instantx.cpp">
<polygon fill="white" stroke="black" points="515,-56.5 515,-75.5 601,-75.5 601,-56.5 515,-56.5"/>
<text text-anchor="middle" x="558" y="-63.5" font-family="Helvetica,sans-Serif" font-size="10.00">src/instantx.cpp</text>
</a>
</g>
</g>
<!-- Node14&#45;&gt;Node23 -->
<g id="edge20" class="edge"><title>Node14&#45;&gt;Node23</title>
<path fill="none" stroke="midnightblue" d="M2501.06,-120.84C2231.78,-119.849 992.347,-113.308 610,-76 607.082,-75.7153 604.081,-75.3611 601.063,-74.9593"/>
<polygon fill="midnightblue" stroke="midnightblue" points="2501.32,-124.34 2511.33,-120.876 2501.34,-117.341 2501.32,-124.34"/>
</g>
<!-- Node60 -->
<g id="node22" class="node"><title>Node60</title>
<g id="a_node22"><a xlink:href="quorums__blockprocessor_8cpp.html" target="_top" xlink:title="src/llmq/quorums_blockprocessor.cpp">
<polygon fill="white" stroke="black" points="1778,-56.5 1778,-75.5 1960,-75.5 1960,-56.5 1778,-56.5"/>
<text text-anchor="middle" x="1869" y="-63.5" font-family="Helvetica,sans-Serif" font-size="10.00">src/llmq/quorums_blockprocessor.cpp</text>
</a>
</g>
</g>
<!-- Node14&#45;&gt;Node60 -->
<g id="edge21" class="edge"><title>Node14&#45;&gt;Node60</title>
<path fill="none" stroke="midnightblue" d="M2501.17,-117.231C2399.22,-109.768 2165.43,-92.4069 1969,-76 1966.05,-75.7534 1963.05,-75.4998 1960.01,-75.2413"/>
<polygon fill="midnightblue" stroke="midnightblue" points="2500.98,-120.726 2511.2,-117.965 2501.49,-113.745 2500.98,-120.726"/>
</g>
<!-- Node61 -->
<g id="node23" class="node"><title>Node61</title>
<g id="a_node23"><a xlink:href="quorums__commitment_8cpp.html" target="_top" xlink:title="src/llmq/quorums_commitment.cpp">
<polygon fill="white" stroke="black" points="1978,-56.5 1978,-75.5 2148,-75.5 2148,-56.5 1978,-56.5"/>
<text text-anchor="middle" x="2063" y="-63.5" font-family="Helvetica,sans-Serif" font-size="10.00">src/llmq/quorums_commitment.cpp</text>
</a>
</g>
</g>
<!-- Node14&#45;&gt;Node61 -->
<g id="edge22" class="edge"><title>Node14&#45;&gt;Node61</title>
<path fill="none" stroke="midnightblue" d="M2501.14,-115.285C2414.83,-105.773 2241.25,-86.6444 2140.41,-75.5313"/>
<polygon fill="midnightblue" stroke="midnightblue" points="2500.9,-118.779 2511.22,-116.396 2501.67,-111.822 2500.9,-118.779"/>
</g>
<!-- Node62 -->
<g id="node24" class="node"><title>Node62</title>
<g id="a_node24"><a xlink:href="quorums__dummydkg_8cpp.html" target="_top" xlink:title="src/llmq/quorums_dummydkg.cpp">
<polygon fill="white" stroke="black" points="2166,-56.5 2166,-75.5 2330,-75.5 2330,-56.5 2166,-56.5"/>
<text text-anchor="middle" x="2248" y="-63.5" font-family="Helvetica,sans-Serif" font-size="10.00">src/llmq/quorums_dummydkg.cpp</text>
</a>
</g>
</g>
<!-- Node14&#45;&gt;Node62 -->
<g id="edge23" class="edge"><title>Node14&#45;&gt;Node62</title>
<path fill="none" stroke="midnightblue" d="M2501.28,-111.842C2443.86,-101.676 2351.93,-85.4004 2296.04,-75.5052"/>
<polygon fill="midnightblue" stroke="midnightblue" points="2500.77,-115.308 2511.23,-113.605 2501.99,-108.415 2500.77,-115.308"/>
</g>
<!-- Node25 -->
<g id="node25" class="node"><title>Node25</title>
<g id="a_node25"><a xlink:href="masternode-sync_8cpp.html" target="_top" xlink:title="src/masternode&#45;sync.cpp">
<polygon fill="white" stroke="black" points="2348.5,-56.5 2348.5,-75.5 2475.5,-75.5 2475.5,-56.5 2348.5,-56.5"/>
<text text-anchor="middle" x="2412" y="-63.5" font-family="Helvetica,sans-Serif" font-size="10.00">src/masternode&#45;sync.cpp</text>
</a>
</g>
</g>
<!-- Node14&#45;&gt;Node25 -->
<g id="edge24" class="edge"><title>Node14&#45;&gt;Node25</title>
<path fill="none" stroke="midnightblue" d="M2521.07,-108.772C2494.59,-98.6287 2457.61,-84.4669 2434.24,-75.5164"/>
<polygon fill="midnightblue" stroke="midnightblue" points="2520.07,-112.136 2530.66,-112.444 2522.57,-105.599 2520.07,-112.136"/>
</g>
<!-- Node63 -->
<g id="node26" class="node"><title>Node63</title>
<g id="a_node26"><a xlink:href="messagesigner_8cpp.html" target="_top" xlink:title="src/messagesigner.cpp">
<polygon fill="white" stroke="black" points="2494,-56.5 2494,-75.5 2612,-75.5 2612,-56.5 2494,-56.5"/>
<text text-anchor="middle" x="2553" y="-63.5" font-family="Helvetica,sans-Serif" font-size="10.00">src/messagesigner.cpp</text>
</a>
</g>
</g>
<!-- Node14&#45;&gt;Node63 -->
<g id="edge25" class="edge"><title>Node14&#45;&gt;Node63</title>
<path fill="none" stroke="midnightblue" d="M2553,-101.805C2553,-92.9102 2553,-82.7798 2553,-75.7511"/>
<polygon fill="midnightblue" stroke="midnightblue" points="2549.5,-102.083 2553,-112.083 2556.5,-102.083 2549.5,-102.083"/>
</g>
<!-- Node14&#45;&gt;Node39 -->
<g id="edge26" class="edge"><title>Node14&#45;&gt;Node39</title>
<path fill="none" stroke="midnightblue" d="M2501.12,-120.587C2167.74,-117.866 332.858,-101.799 85,-76 82.1078,-75.699 79.128,-75.312 76.1384,-74.8683"/>
<polygon fill="midnightblue" stroke="midnightblue" points="2501.41,-124.09 2511.44,-120.671 2501.47,-117.09 2501.41,-124.09"/>
</g>
<!-- Node29 -->
<g id="node28" class="node"><title>Node29</title>
<g id="a_node28"><a xlink:href="net__processing_8cpp.html" target="_top" xlink:title="src/net_processing.cpp">
<polygon fill="white" stroke="black" points="619,-56.5 619,-75.5 737,-75.5 737,-56.5 619,-56.5"/>
<text text-anchor="middle" x="678" y="-63.5" font-family="Helvetica,sans-Serif" font-size="10.00">src/net_processing.cpp</text>
</a>
</g>
</g>
<!-- Node14&#45;&gt;Node29 -->
<g id="edge27" class="edge"><title>Node14&#45;&gt;Node29</title>
<path fill="none" stroke="midnightblue" d="M2501.03,-120.456C2243.29,-117.642 1100.48,-103.792 746,-76 743.151,-75.7766 740.238,-75.516 737.299,-75.2271"/>
<polygon fill="midnightblue" stroke="midnightblue" points="2501.2,-123.958 2511.23,-120.566 2501.27,-116.958 2501.2,-123.958"/>
</g>
<!-- Node64 -->
<g id="node29" class="node"><title>Node64</title>
<g id="a_node29"><a xlink:href="policy_8cpp.html" target="_top" xlink:title="src/policy/policy.cpp">
<polygon fill="white" stroke="black" points="2630,-56.5 2630,-75.5 2736,-75.5 2736,-56.5 2630,-56.5"/>
<text text-anchor="middle" x="2683" y="-63.5" font-family="Helvetica,sans-Serif" font-size="10.00">src/policy/policy.cpp</text>
</a>
</g>
</g>
<!-- Node14&#45;&gt;Node64 -->
<g id="edge28" class="edge"><title>Node14&#45;&gt;Node64</title>
<path fill="none" stroke="midnightblue" d="M2583.09,-108.503C2607.46,-98.3795 2641.14,-84.388 2662.5,-75.5164"/>
<polygon fill="midnightblue" stroke="midnightblue" points="2581.49,-105.375 2573.6,-112.444 2584.18,-111.84 2581.49,-105.375"/>
</g>
<!-- Node33 -->
<g id="node30" class="node"><title>Node33</title>
<g id="a_node30"><a xlink:href="clientmodel_8cpp.html" target="_top" xlink:title="src/qt/clientmodel.cpp">
<polygon fill="white" stroke="black" points="755.5,-56.5 755.5,-75.5 868.5,-75.5 868.5,-56.5 755.5,-56.5"/>
<text text-anchor="middle" x="812" y="-63.5" font-family="Helvetica,sans-Serif" font-size="10.00">src/qt/clientmodel.cpp</text>
</a>
</g>
</g>
<!-- Node14&#45;&gt;Node33 -->
<g id="edge29" class="edge"><title>Node14&#45;&gt;Node33</title>
<path fill="none" stroke="midnightblue" d="M2501.29,-120.369C2255.65,-117.256 1204.93,-102.603 878,-76 875.003,-75.7561 871.934,-75.469 868.839,-75.1498"/>
<polygon fill="midnightblue" stroke="midnightblue" points="2501.33,-123.87 2511.38,-120.496 2501.42,-116.87 2501.33,-123.87"/>
</g>
<!-- Node42 -->
<g id="node31" class="node"><title>Node42</title>
<g id="a_node31"><a xlink:href="coincontroldialog_8cpp.html" target="_top" xlink:title="src/qt/coincontroldialog.cpp">
<polygon fill="white" stroke="black" points="887,-56.5 887,-75.5 1023,-75.5 1023,-56.5 887,-56.5"/>
<text text-anchor="middle" x="955" y="-63.5" font-family="Helvetica,sans-Serif" font-size="10.00">src/qt/coincontroldialog.cpp</text>
</a>
</g>
</g>
<!-- Node14&#45;&gt;Node42 -->
<g id="edge30" class="edge"><title>Node14&#45;&gt;Node42</title>
<path fill="none" stroke="midnightblue" d="M2501.33,-121.095C2307.78,-121.106 1607.32,-118.053 1032,-76 1029.18,-75.794 1026.31,-75.5611 1023.4,-75.3074"/>
<polygon fill="midnightblue" stroke="midnightblue" points="2501.5,-124.595 2511.5,-121.091 2501.49,-117.595 2501.5,-124.595"/>
</g>
<!-- Node65 -->
<g id="node32" class="node"><title>Node65</title>
<g id="a_node32"><a xlink:href="optionsdialog_8cpp.html" target="_top" xlink:title="src/qt/optionsdialog.cpp">
<polygon fill="white" stroke="black" points="1500,-56.5 1500,-75.5 1620,-75.5 1620,-56.5 1500,-56.5"/>
<text text-anchor="middle" x="1560" y="-63.5" font-family="Helvetica,sans-Serif" font-size="10.00">src/qt/optionsdialog.cpp</text>
</a>
</g>
</g>
<!-- Node14&#45;&gt;Node65 -->
<g id="edge31" class="edge"><title>Node14&#45;&gt;Node65</title>
<path fill="none" stroke="midnightblue" d="M2501.43,-119.954C2361.1,-116.791 1960.63,-105.655 1629,-76 1626.11,-75.7418 1623.16,-75.4529 1620.18,-75.1413"/>
<polygon fill="midnightblue" stroke="midnightblue" points="2501.4,-123.454 2511.47,-120.177 2501.55,-116.456 2501.4,-123.454"/>
</g>
<!-- Node66 -->
<g id="node33" class="node"><title>Node66</title>
<g id="a_node33"><a xlink:href="optionsmodel_8cpp.html" target="_top" xlink:title="src/qt/optionsmodel.cpp">
<polygon fill="white" stroke="black" points="1638.5,-56.5 1638.5,-75.5 1759.5,-75.5 1759.5,-56.5 1638.5,-56.5"/>
<text text-anchor="middle" x="1699" y="-63.5" font-family="Helvetica,sans-Serif" font-size="10.00">src/qt/optionsmodel.cpp</text>
</a>
</g>
</g>
<!-- Node14&#45;&gt;Node66 -->
<g id="edge32" class="edge"><title>Node14&#45;&gt;Node66</title>
<path fill="none" stroke="midnightblue" d="M2501.16,-119.29C2375.43,-114.866 2044.3,-101.567 1769,-76 1765.95,-75.7167 1762.83,-75.403 1759.68,-75.0674"/>
<polygon fill="midnightblue" stroke="midnightblue" points="2501.16,-122.792 2511.28,-119.642 2501.4,-115.796 2501.16,-122.792"/>
</g>
<!-- Node67 -->
<g id="node34" class="node"><title>Node67</title>
<g id="a_node34"><a xlink:href="peertablemodel_8cpp.html" target="_top" xlink:title="src/qt/peertablemodel.cpp">
<polygon fill="white" stroke="black" points="2754.5,-56.5 2754.5,-75.5 2883.5,-75.5 2883.5,-56.5 2754.5,-56.5"/>
<text text-anchor="middle" x="2819" y="-63.5" font-family="Helvetica,sans-Serif" font-size="10.00">src/qt/peertablemodel.cpp</text>
</a>
</g>
</g>
<!-- Node14&#45;&gt;Node67 -->
<g id="edge33" class="edge"><title>Node14&#45;&gt;Node67</title>
<path fill="none" stroke="midnightblue" d="M2604.56,-110.532C2654.76,-100.341 2730.13,-85.0408 2776.85,-75.5565"/>
<polygon fill="midnightblue" stroke="midnightblue" points="2603.67,-107.143 2594.56,-112.562 2605.06,-114.003 2603.67,-107.143"/>
</g>
<!-- Node68 -->
<g id="node35" class="node"><title>Node68</title>
<g id="a_node35"><a xlink:href="sendcoinsdialog_8cpp.html" target="_top" xlink:title="src/qt/sendcoinsdialog.cpp">
<polygon fill="white" stroke="black" points="1041.5,-56.5 1041.5,-75.5 1174.5,-75.5 1174.5,-56.5 1041.5,-56.5"/>
<text text-anchor="middle" x="1108" y="-63.5" font-family="Helvetica,sans-Serif" font-size="10.00">src/qt/sendcoinsdialog.cpp</text>
</a>
</g>
</g>
<!-- Node14&#45;&gt;Node68 -->
<g id="edge34" class="edge"><title>Node14&#45;&gt;Node68</title>
<path fill="none" stroke="midnightblue" d="M2501.41,-120.914C2320.23,-120.268 1696.25,-115.151 1183,-76 1180.25,-75.7905 1177.45,-75.5549 1174.63,-75.2987"/>
<polygon fill="midnightblue" stroke="midnightblue" points="2501.44,-124.414 2511.46,-120.946 2501.47,-117.414 2501.44,-124.414"/>
</g>
<!-- Node69 -->
<g id="node36" class="node"><title>Node69</title>
<g id="a_node36"><a xlink:href="signverifymessagedialog_8cpp.html" target="_top" xlink:title="src/qt/signverifymessagedialog.cpp">
<polygon fill="white" stroke="black" points="2902,-56.5 2902,-75.5 3072,-75.5 3072,-56.5 2902,-56.5"/>
<text text-anchor="middle" x="2987" y="-63.5" font-family="Helvetica,sans-Serif" font-size="10.00">src/qt/signverifymessagedialog.cpp</text>
</a>
</g>
</g>
<!-- Node14&#45;&gt;Node69 -->
<g id="edge35" class="edge"><title>Node14&#45;&gt;Node69</title>
<path fill="none" stroke="midnightblue" d="M2604.78,-111.805C2712.55,-96.0008 2826.18,-83.3316 2901.77,-75.4703"/>
<polygon fill="midnightblue" stroke="midnightblue" points="2604.09,-108.37 2594.71,-113.294 2605.11,-115.294 2604.09,-108.37"/>
</g>
<!-- Node70 -->
<g id="node37" class="node"><title>Node70</title>
<g id="a_node37"><a xlink:href="transactiondesc_8cpp.html" target="_top" xlink:title="src/qt/transactiondesc.cpp">
<polygon fill="white" stroke="black" points="3090,-56.5 3090,-75.5 3222,-75.5 3222,-56.5 3090,-56.5"/>
<text text-anchor="middle" x="3156" y="-63.5" font-family="Helvetica,sans-Serif" font-size="10.00">src/qt/transactiondesc.cpp</text>
</a>
</g>
</g>
<!-- Node14&#45;&gt;Node70 -->
<g id="edge36" class="edge"><title>Node14&#45;&gt;Node70</title>
<path fill="none" stroke="midnightblue" d="M2604.87,-111.877C2816.09,-85.4482 2872.27,-96.3734 3081,-76 3083.87,-75.7197 3086.8,-75.4211 3089.76,-75.1095"/>
<polygon fill="midnightblue" stroke="midnightblue" points="2604.17,-108.437 2594.69,-113.164 2605.05,-115.382 2604.17,-108.437"/>
</g>
<!-- Node71 -->
<g id="node38" class="node"><title>Node71</title>
<g id="a_node38"><a xlink:href="transactionrecord_8cpp.html" target="_top" xlink:title="src/qt/transactionrecord.cpp">
<polygon fill="white" stroke="black" points="3240,-56.5 3240,-75.5 3378,-75.5 3378,-56.5 3240,-56.5"/>
<text text-anchor="middle" x="3309" y="-63.5" font-family="Helvetica,sans-Serif" font-size="10.00">src/qt/transactionrecord.cpp</text>
</a>
</g>
</g>
<!-- Node14&#45;&gt;Node71 -->
<g id="edge37" class="edge"><title>Node14&#45;&gt;Node71</title>
<path fill="none" stroke="midnightblue" d="M2604.65,-111.937C2882.35,-79.6595 2955.73,-99.751 3231,-76 3233.85,-75.7539 3236.76,-75.4877 3239.7,-75.2062"/>
<polygon fill="midnightblue" stroke="midnightblue" points="2604.21,-108.465 2594.69,-113.108 2605.03,-115.417 2604.21,-108.465"/>
</g>
<!-- Node72 -->
<g id="node39" class="node"><title>Node72</title>
<g id="a_node39"><a xlink:href="transactiontablemodel_8cpp.html" target="_top" xlink:title="src/qt/transactiontablemodel.cpp">
<polygon fill="white" stroke="black" points="3396,-56.5 3396,-75.5 3554,-75.5 3554,-56.5 3396,-56.5"/>
<text text-anchor="middle" x="3475" y="-63.5" font-family="Helvetica,sans-Serif" font-size="10.00">src/qt/transactiontablemodel.cpp</text>
</a>
</g>
</g>
<!-- Node14&#45;&gt;Node72 -->
<g id="edge38" class="edge"><title>Node14&#45;&gt;Node72</title>
<path fill="none" stroke="midnightblue" d="M2604.75,-111.947C2951.35,-73.5606 3042.45,-101.509 3387,-76 3389.91,-75.7846 3392.87,-75.5515 3395.86,-75.3047"/>
<polygon fill="midnightblue" stroke="midnightblue" points="2604.23,-108.483 2594.68,-113.072 2605.01,-115.439 2604.23,-108.483"/>
</g>
<!-- Node44 -->
<g id="node40" class="node"><title>Node44</title>
<g id="a_node40"><a xlink:href="walletmodel_8cpp.html" target="_top" xlink:title="src/qt/walletmodel.cpp">
<polygon fill="white" stroke="black" points="3571.5,-56.5 3571.5,-75.5 3686.5,-75.5 3686.5,-56.5 3571.5,-56.5"/>
<text text-anchor="middle" x="3629" y="-63.5" font-family="Helvetica,sans-Serif" font-size="10.00">src/qt/walletmodel.cpp</text>
</a>
</g>
</g>
<!-- Node14&#45;&gt;Node44 -->
<g id="edge39" class="edge"><title>Node14&#45;&gt;Node44</title>
<path fill="none" stroke="midnightblue" d="M2604.75,-111.963C3028.78,-66.8256 3140.36,-112.149 3562,-76 3565.04,-75.7393 3568.15,-75.4388 3571.3,-75.1091"/>
<polygon fill="midnightblue" stroke="midnightblue" points="2604.25,-108.497 2594.68,-113.046 2605,-115.457 2604.25,-108.497"/>
</g>
<!-- Node73 -->
<g id="node41" class="node"><title>Node73</title>
<g id="a_node41"><a xlink:href="rest_8cpp.html" target="_top" xlink:title="src/rest.cpp">
<polygon fill="white" stroke="black" points="1276,-56.5 1276,-75.5 1344,-75.5 1344,-56.5 1276,-56.5"/>
<text text-anchor="middle" x="1310" y="-63.5" font-family="Helvetica,sans-Serif" font-size="10.00">src/rest.cpp</text>
</a>
</g>
</g>
<!-- Node14&#45;&gt;Node73 -->
<g id="edge40" class="edge"><title>Node14&#45;&gt;Node73</title>
<path fill="none" stroke="midnightblue" d="M2501.15,-120.222C2301.24,-117.04 1580.31,-103.848 1353,-76 1350.12,-75.6476 1347.15,-75.2015 1344.18,-74.6972"/>
<polygon fill="midnightblue" stroke="midnightblue" points="2501.33,-123.725 2511.38,-120.383 2501.44,-116.726 2501.33,-123.725"/>
</g>
<!-- Node14&#45;&gt;Node74 -->
<g id="edge41" class="edge"><title>Node14&#45;&gt;Node74</title>
<path fill="none" stroke="midnightblue" d="M2501.24,-120.743C2212.87,-119.188 801.899,-109.939 368,-76 365.233,-75.7836 362.405,-75.5286 359.551,-75.2443"/>
<polygon fill="midnightblue" stroke="midnightblue" points="2501.39,-124.244 2511.41,-120.797 2501.43,-117.244 2501.39,-124.244"/>
</g>
<!-- Node36 -->
<g id="node43" class="node"><title>Node36</title>
<g id="a_node43"><a xlink:href="rpc_2masternode_8cpp.html" target="_top" xlink:title="src/rpc/masternode.cpp">
<polygon fill="white" stroke="black" points="1362.5,-56.5 1362.5,-75.5 1481.5,-75.5 1481.5,-56.5 1362.5,-56.5"/>
<text text-anchor="middle" x="1422" y="-63.5" font-family="Helvetica,sans-Serif" font-size="10.00">src/rpc/masternode.cpp</text>
</a>
</g>
</g>
<!-- Node14&#45;&gt;Node36 -->
<g id="edge43" class="edge"><title>Node14&#45;&gt;Node36</title>
<path fill="none" stroke="midnightblue" d="M2501.31,-120.409C2347.33,-118.303 1878.31,-109.401 1491,-76 1487.99,-75.7405 1484.91,-75.4459 1481.8,-75.1254"/>
<polygon fill="midnightblue" stroke="midnightblue" points="2501.37,-123.91 2511.42,-120.543 2501.47,-116.91 2501.37,-123.91"/>
</g>
<!-- Node14&#45;&gt;Node77 -->
<g id="edge44" class="edge"><title>Node14&#45;&gt;Node77</title>
<path fill="none" stroke="midnightblue" d="M2500.99,-120.699C2201.77,-118.859 697.061,-108.128 235,-76 232.122,-75.7999 229.184,-75.5677 226.219,-75.3104"/>
<polygon fill="midnightblue" stroke="midnightblue" points="2501.1,-124.199 2511.12,-120.761 2501.14,-117.2 2501.1,-124.199"/>
</g>
<!-- Node15&#45;&gt;Node35 -->
<g id="edge5" class="edge"><title>Node15&#45;&gt;Node35</title>
<path fill="none" stroke="midnightblue" d="M3762.95,-47.5656C3769.31,-38.2747 3776.87,-27.2484 3782,-19.7511"/>
<polygon fill="midnightblue" stroke="midnightblue" points="3759.87,-45.8553 3757.11,-56.083 3765.65,-49.812 3759.87,-45.8553"/>
</g>
<!-- Node87&#45;&gt;Node52 -->
<g id="edge47" class="edge"><title>Node87&#45;&gt;Node52</title>
<path fill="none" stroke="midnightblue" d="M757.217,-111.913C659.93,-97.0707 558.877,-83.2314 496.525,-74.8758"/>
<polygon fill="midnightblue" stroke="midnightblue" points="756.811,-115.392 767.225,-113.446 757.87,-108.473 756.811,-115.392"/>
</g>
<!-- Node87&#45;&gt;Node22 -->
<g id="edge48" class="edge"><title>Node87&#45;&gt;Node22</title>
<path fill="none" stroke="midnightblue" d="M866.822,-111.815C1007.62,-92.3905 1045.91,-98.3916 1183,-76 1185.94,-75.5191 1188.99,-74.9688 1192.04,-74.3825"/>
<polygon fill="midnightblue" stroke="midnightblue" points="865.924,-108.407 856.505,-113.258 866.894,-115.339 865.924,-108.407"/>
</g>
<!-- Node87&#45;&gt;Node23 -->
<g id="edge49" class="edge"><title>Node87&#45;&gt;Node23</title>
<path fill="none" stroke="midnightblue" d="M761.885,-110.346C713.883,-100.141 642.385,-84.94 598.059,-75.5164"/>
<polygon fill="midnightblue" stroke="midnightblue" points="761.244,-113.787 771.753,-112.444 762.699,-106.94 761.244,-113.787"/>
</g>
<!-- Node87&#45;&gt;Node39 -->
<g id="edge50" class="edge"><title>Node87&#45;&gt;Node39</title>
<path fill="none" stroke="midnightblue" d="M757.007,-112.034C458.471,-80.0579 378.998,-111.844 85,-76 82.1136,-75.6481 79.1379,-75.2242 76.1513,-74.7545"/>
<polygon fill="midnightblue" stroke="midnightblue" points="756.945,-115.548 767.264,-113.149 757.701,-108.589 756.945,-115.548"/>
</g>
<!-- Node87&#45;&gt;Node29 -->
<g id="edge51" class="edge"><title>Node87&#45;&gt;Node29</title>
<path fill="none" stroke="midnightblue" d="M781.323,-108.638C756.177,-98.504 721.246,-84.4274 699.133,-75.5164"/>
<polygon fill="midnightblue" stroke="midnightblue" points="780.184,-111.952 790.767,-112.444 782.8,-105.459 780.184,-111.952"/>
</g>
<!-- Node87&#45;&gt;Node33 -->
<g id="edge52" class="edge"><title>Node87&#45;&gt;Node33</title>
<path fill="none" stroke="midnightblue" d="M812,-101.805C812,-92.9102 812,-82.7798 812,-75.7511"/>
<polygon fill="midnightblue" stroke="midnightblue" points="808.5,-102.083 812,-112.083 815.5,-102.083 808.5,-102.083"/>
</g>
<!-- Node87&#45;&gt;Node42 -->
<g id="edge53" class="edge"><title>Node87&#45;&gt;Node42</title>
<path fill="none" stroke="midnightblue" d="M844.027,-108.906C870.912,-98.7536 908.641,-84.5063 932.447,-75.5164"/>
<polygon fill="midnightblue" stroke="midnightblue" points="842.778,-105.636 834.659,-112.444 845.25,-112.185 842.778,-105.636"/>
</g>
<!-- Node87&#45;&gt;Node68 -->
<g id="edge54" class="edge"><title>Node87&#45;&gt;Node68</title>
<path fill="none" stroke="midnightblue" d="M866.693,-111.022C922.504,-100.841 1008.21,-85.205 1061.04,-75.5666"/>
<polygon fill="midnightblue" stroke="midnightblue" points="865.844,-107.619 856.635,-112.857 867.1,-114.506 865.844,-107.619"/>
</g>
<!-- Node87&#45;&gt;Node73 -->
<g id="edge55" class="edge"><title>Node87&#45;&gt;Node73</title>
<path fill="none" stroke="midnightblue" d="M866.711,-111.868C1044.18,-89.4595 1092.15,-101.501 1266,-76 1269.24,-75.5247 1272.6,-74.9631 1275.96,-74.3564"/>
<polygon fill="midnightblue" stroke="midnightblue" points="866.256,-108.398 856.782,-113.141 867.146,-115.341 866.256,-108.398"/>
</g>
<!-- Node87&#45;&gt;Node74 -->
<g id="edge56" class="edge"><title>Node87&#45;&gt;Node74</title>
<path fill="none" stroke="midnightblue" d="M757.264,-111.999C583.674,-89.8936 537.736,-95.3975 368,-76 365.242,-75.6849 362.422,-75.3497 359.574,-75.0011"/>
<polygon fill="midnightblue" stroke="midnightblue" points="756.884,-115.479 767.248,-113.283 757.776,-108.536 756.884,-115.479"/>
</g>
<!-- Node87&#45;&gt;Node36 -->
<g id="edge57" class="edge"><title>Node87&#45;&gt;Node36</title>
<path fill="none" stroke="midnightblue" d="M866.838,-111.877C1082.61,-86.1308 1139.92,-97.7388 1353,-76 1356,-75.6935 1359.08,-75.361 1362.18,-75.0105"/>
<polygon fill="midnightblue" stroke="midnightblue" points="866.285,-108.418 856.776,-113.09 867.123,-115.368 866.285,-108.418"/>
</g>
<!-- Node87&#45;&gt;Node77 -->
<g id="edge58" class="edge"><title>Node87&#45;&gt;Node77</title>
<path fill="none" stroke="midnightblue" d="M757.143,-112.021C524.873,-85.1795 463.68,-97.5772 235,-76 232.128,-75.729 229.195,-75.4381 226.234,-75.1327"/>
<polygon fill="midnightblue" stroke="midnightblue" points="756.92,-115.518 767.258,-113.202 757.732,-108.566 756.92,-115.518"/>
</g>
<!-- Node93&#45;&gt;Node22 -->
<g id="edge62" class="edge"><title>Node93&#45;&gt;Node22</title>
<path fill="none" stroke="midnightblue" d="M1225,-101.805C1225,-92.9102 1225,-82.7798 1225,-75.7511"/>
<polygon fill="midnightblue" stroke="midnightblue" points="1221.5,-102.083 1225,-112.083 1228.5,-102.083 1221.5,-102.083"/>
</g>
<!-- Node93&#45;&gt;Node65 -->
<g id="edge63" class="edge"><title>Node93&#45;&gt;Node65</title>
<path fill="none" stroke="midnightblue" d="M1264.93,-114.563C1325.28,-104.835 1439.79,-86.3765 1507.04,-75.5371"/>
<polygon fill="midnightblue" stroke="midnightblue" points="1264.34,-111.113 1255.02,-116.16 1265.45,-118.024 1264.34,-111.113"/>
</g>
<!-- Node93&#45;&gt;Node66 -->
<g id="edge64" class="edge"><title>Node93&#45;&gt;Node66</title>
<path fill="none" stroke="midnightblue" d="M1265.17,-116.715C1337.67,-108.935 1495.24,-91.8253 1628,-76 1631.33,-75.6029 1634.75,-75.1895 1638.2,-74.7675"/>
<polygon fill="midnightblue" stroke="midnightblue" points="1264.67,-113.248 1255.1,-117.794 1265.41,-120.209 1264.67,-113.248"/>
</g>
<!-- Node93&#45;&gt;Node74 -->
<g id="edge65" class="edge"><title>Node93&#45;&gt;Node74</title>
<path fill="none" stroke="midnightblue" d="M1184.24,-119.31C1036.53,-113.117 529.533,-91.2281 368,-76 365.237,-75.7395 362.412,-75.4488 359.56,-75.1357"/>
<polygon fill="midnightblue" stroke="midnightblue" points="1184.5,-122.824 1194.64,-119.745 1184.8,-115.83 1184.5,-122.824"/>
</g>
</g>
</svg>
