<?xml version="1.0" encoding="UTF-8" standalone="no"?>
<!DOCTYPE svg PUBLIC "-//W3C//DTD SVG 1.1//EN"
 "http://www.w3.org/Graphics/SVG/1.1/DTD/svg11.dtd">
<!-- Generated by graphviz version 2.36.0 (20140111.2315)
 -->
<!-- Title: src/merkleblock.h Pages: 1 -->
<svg width="1273pt" height="476pt"
 viewBox="0.00 0.00 1273.02 476.00" xmlns="http://www.w3.org/2000/svg" xmlns:xlink="http://www.w3.org/1999/xlink">
<g id="graph0" class="graph" transform="scale(1 1) rotate(0) translate(4 472)">
<title>src/merkleblock.h</title>
<polygon fill="white" stroke="none" points="-4,4 -4,-472 1269.02,-472 1269.02,4 -4,4"/>
<!-- Node0 -->
<g id="node1" class="node"><title>Node0</title>
<polygon fill="#bfbfbf" stroke="black" points="904.024,-448.5 904.024,-467.5 998.024,-467.5 998.024,-448.5 904.024,-448.5"/>
<text text-anchor="middle" x="951.024" y="-455.5" font-family="Helvetica,sans-Serif" font-size="10.00">src/merkleblock.h</text>
</g>
<!-- Node1 -->
<g id="node2" class="node"><title>Node1</title>
<g id="a_node2"><a xlink:href="serialize_8h.html" target="_top" xlink:title="serialize.h">
<polygon fill="white" stroke="black" points="454.524,-224.5 454.524,-243.5 515.524,-243.5 515.524,-224.5 454.524,-224.5"/>
<text text-anchor="middle" x="485.024" y="-231.5" font-family="Helvetica,sans-Serif" font-size="10.00">serialize.h</text>
</a>
</g>
</g>
<!-- Node0&#45;&gt;Node1 -->
<g id="edge1" class="edge"><title>Node0&#45;&gt;Node1</title>
<path fill="none" stroke="midnightblue" d="M944.342,-448.235C926.983,-426.067 878.035,-367.312 824.024,-336 725.685,-278.989 592.328,-251.619 526.002,-240.831"/>
<polygon fill="midnightblue" stroke="midnightblue" points="526.372,-237.347 515.948,-239.24 525.278,-244.261 526.372,-237.347"/>
</g>
<!-- Node16 -->
<g id="node17" class="node"><title>Node16</title>
<polygon fill="white" stroke="#bfbfbf" points="1221.02,-168.5 1221.02,-187.5 1265.02,-187.5 1265.02,-168.5 1221.02,-168.5"/>
<text text-anchor="middle" x="1243.02" y="-175.5" font-family="Helvetica,sans-Serif" font-size="10.00">vector</text>
</g>
<!-- Node0&#45;&gt;Node16 -->
<g id="edge60" class="edge"><title>Node0&#45;&gt;Node16</title>
<path fill="none" stroke="midnightblue" d="M995.774,-448.454C1072.75,-432.465 1222.02,-395.238 1222.02,-347 1222.02,-347 1222.02,-347 1222.02,-289 1222.02,-256.384 1231.04,-219.278 1237.26,-197.573"/>
<polygon fill="midnightblue" stroke="midnightblue" points="1240.69,-198.315 1240.19,-187.732 1233.98,-196.316 1240.69,-198.315"/>
</g>
<!-- Node20 -->
<g id="node21" class="node"><title>Node20</title>
<g id="a_node21"><a xlink:href="uint256_8h.html" target="_top" xlink:title="uint256.h">
<polygon fill="white" stroke="black" points="1001.02,-224.5 1001.02,-243.5 1057.02,-243.5 1057.02,-224.5 1001.02,-224.5"/>
<text text-anchor="middle" x="1029.02" y="-231.5" font-family="Helvetica,sans-Serif" font-size="10.00">uint256.h</text>
</a>
</g>
</g>
<!-- Node0&#45;&gt;Node20 -->
<g id="edge25" class="edge"><title>Node0&#45;&gt;Node20</title>
<path fill="none" stroke="midnightblue" d="M954.082,-448.297C965.607,-415.494 1006.58,-298.884 1022.57,-253.377"/>
<polygon fill="midnightblue" stroke="midnightblue" points="1025.89,-254.479 1025.9,-243.884 1019.29,-252.158 1025.89,-254.479"/>
</g>
<!-- Node24 -->
<g id="node25" class="node"><title>Node24</title>
<g id="a_node25"><a xlink:href="block_8h.html" target="_top" xlink:title="primitives/block.h">
<polygon fill="white" stroke="black" points="734.524,-392.5 734.524,-411.5 827.524,-411.5 827.524,-392.5 734.524,-392.5"/>
<text text-anchor="middle" x="781.024" y="-399.5" font-family="Helvetica,sans-Serif" font-size="10.00">primitives/block.h</text>
</a>
</g>
</g>
<!-- Node0&#45;&gt;Node24 -->
<g id="edge36" class="edge"><title>Node0&#45;&gt;Node24</title>
<path fill="none" stroke="midnightblue" d="M924.087,-448.444C895.364,-439.32 849.696,-424.813 817.703,-414.651"/>
<polygon fill="midnightblue" stroke="midnightblue" points="818.426,-411.208 807.835,-411.516 816.306,-417.88 818.426,-411.208"/>
</g>
<!-- Node29 -->
<g id="node30" class="node"><title>Node29</title>
<g id="a_node30"><a xlink:href="bloom_8h.html" target="_top" xlink:title="bloom.h">
<polygon fill="white" stroke="black" points="925.524,-280.5 925.524,-299.5 976.524,-299.5 976.524,-280.5 925.524,-280.5"/>
<text text-anchor="middle" x="951.024" y="-287.5" font-family="Helvetica,sans-Serif" font-size="10.00">bloom.h</text>
</a>
</g>
</g>
<!-- Node0&#45;&gt;Node29 -->
<g id="edge57" class="edge"><title>Node0&#45;&gt;Node29</title>
<path fill="none" stroke="midnightblue" d="M951.024,-448.075C951.024,-421.945 951.024,-345.211 951.024,-309.577"/>
<polygon fill="midnightblue" stroke="midnightblue" points="954.524,-309.568 951.024,-299.568 947.524,-309.568 954.524,-309.568"/>
</g>
<!-- Node2 -->
<g id="node3" class="node"><title>Node2</title>
<g id="a_node3"><a xlink:href="endian_8h.html" target="_top" xlink:title="compat/endian.h">
<polygon fill="white" stroke="black" points="341.524,-112.5 341.524,-131.5 430.524,-131.5 430.524,-112.5 341.524,-112.5"/>
<text text-anchor="middle" x="386.024" y="-119.5" font-family="Helvetica,sans-Serif" font-size="10.00">compat/endian.h</text>
</a>
</g>
</g>
<!-- Node1&#45;&gt;Node2 -->
<g id="edge2" class="edge"><title>Node1&#45;&gt;Node2</title>
<path fill="none" stroke="midnightblue" d="M454.33,-232.291C356.914,-229.727 59.4387,-219.37 31.0243,-188 -10.3356,-142.338 221.339,-128.473 330.972,-124.498"/>
<polygon fill="midnightblue" stroke="midnightblue" points="331.314,-127.988 341.187,-124.144 331.071,-120.993 331.314,-127.988"/>
</g>
<!-- Node3 -->
<g id="node4" class="node"><title>Node3</title>
<polygon fill="white" stroke="#bfbfbf" points="456.524,-0.5 456.524,-19.5 505.524,-19.5 505.524,-0.5 456.524,-0.5"/>
<text text-anchor="middle" x="481.024" y="-7.5" font-family="Helvetica,sans-Serif" font-size="10.00">stdint.h</text>
</g>
<!-- Node1&#45;&gt;Node3 -->
<g id="edge14" class="edge"><title>Node1&#45;&gt;Node3</title>
<path fill="none" stroke="midnightblue" d="M454.483,-232.351C356.081,-229.946 52.0293,-219.967 23.0243,-188 -102.069,-50.13 319.56,-18.6777 446.164,-12.4114"/>
<polygon fill="midnightblue" stroke="midnightblue" points="446.637,-15.8931 456.461,-11.9257 446.307,-8.90086 446.637,-15.8931"/>
</g>
<!-- Node5 -->
<g id="node6" class="node"><title>Node5</title>
<polygon fill="white" stroke="#bfbfbf" points="40.0243,-168.5 40.0243,-187.5 96.0243,-187.5 96.0243,-168.5 40.0243,-168.5"/>
<text text-anchor="middle" x="68.0243" y="-175.5" font-family="Helvetica,sans-Serif" font-size="10.00">algorithm</text>
</g>
<!-- Node1&#45;&gt;Node5 -->
<g id="edge6" class="edge"><title>Node1&#45;&gt;Node5</title>
<path fill="none" stroke="midnightblue" d="M454.207,-230.701C390.723,-225.677 240.653,-212.329 106.304,-188.246"/>
<polygon fill="midnightblue" stroke="midnightblue" points="106.714,-184.763 96.2487,-186.417 105.461,-191.65 106.714,-184.763"/>
</g>
<!-- Node6 -->
<g id="node7" class="node"><title>Node6</title>
<polygon fill="white" stroke="#bfbfbf" points="587.024,-112.5 587.024,-131.5 639.024,-131.5 639.024,-112.5 587.024,-112.5"/>
<text text-anchor="middle" x="613.024" y="-119.5" font-family="Helvetica,sans-Serif" font-size="10.00">assert.h</text>
</g>
<!-- Node1&#45;&gt;Node6 -->
<g id="edge7" class="edge"><title>Node1&#45;&gt;Node6</title>
<path fill="none" stroke="midnightblue" d="M493.854,-224.325C506.908,-211.609 532.272,-187.325 555.024,-168 567.409,-157.481 581.845,-146.277 593.216,-137.681"/>
<polygon fill="midnightblue" stroke="midnightblue" points="595.33,-140.47 601.23,-131.669 591.13,-134.87 595.33,-140.47"/>
</g>
<!-- Node7 -->
<g id="node8" class="node"><title>Node7</title>
<polygon fill="white" stroke="#bfbfbf" points="113.524,-168.5 113.524,-187.5 142.524,-187.5 142.524,-168.5 113.524,-168.5"/>
<text text-anchor="middle" x="128.024" y="-175.5" font-family="Helvetica,sans-Serif" font-size="10.00">ios</text>
</g>
<!-- Node1&#45;&gt;Node7 -->
<g id="edge8" class="edge"><title>Node1&#45;&gt;Node7</title>
<path fill="none" stroke="midnightblue" d="M454.158,-231.31C396.351,-227.621 267.889,-216.944 152.96,-188.009"/>
<polygon fill="midnightblue" stroke="midnightblue" points="153.504,-184.535 142.948,-185.433 151.76,-191.315 153.504,-184.535"/>
</g>
<!-- Node8 -->
<g id="node9" class="node"><title>Node8</title>
<polygon fill="white" stroke="#bfbfbf" points="597.024,-168.5 597.024,-187.5 637.024,-187.5 637.024,-168.5 597.024,-168.5"/>
<text text-anchor="middle" x="617.024" y="-175.5" font-family="Helvetica,sans-Serif" font-size="10.00">limits</text>
</g>
<!-- Node1&#45;&gt;Node8 -->
<g id="edge9" class="edge"><title>Node1&#45;&gt;Node8</title>
<path fill="none" stroke="midnightblue" d="M505.94,-224.444C527.889,-215.465 562.579,-201.273 587.352,-191.139"/>
<polygon fill="midnightblue" stroke="midnightblue" points="588.71,-194.365 596.64,-187.339 586.059,-187.886 588.71,-194.365"/>
</g>
<!-- Node9 -->
<g id="node10" class="node"><title>Node9</title>
<polygon fill="white" stroke="#bfbfbf" points="160.524,-168.5 160.524,-187.5 189.524,-187.5 189.524,-168.5 160.524,-168.5"/>
<text text-anchor="middle" x="175.024" y="-175.5" font-family="Helvetica,sans-Serif" font-size="10.00">list</text>
</g>
<!-- Node1&#45;&gt;Node9 -->
<g id="edge10" class="edge"><title>Node1&#45;&gt;Node9</title>
<path fill="none" stroke="midnightblue" d="M454.406,-230.404C403.136,-225.586 296.701,-213.574 199.625,-187.986"/>
<polygon fill="midnightblue" stroke="midnightblue" points="200.526,-184.604 189.96,-185.384 198.707,-191.363 200.526,-184.604"/>
</g>
<!-- Node10 -->
<g id="node11" class="node"><title>Node10</title>
<polygon fill="white" stroke="#bfbfbf" points="207.524,-168.5 207.524,-187.5 242.524,-187.5 242.524,-168.5 207.524,-168.5"/>
<text text-anchor="middle" x="225.024" y="-175.5" font-family="Helvetica,sans-Serif" font-size="10.00">map</text>
</g>
<!-- Node1&#45;&gt;Node10 -->
<g id="edge11" class="edge"><title>Node1&#45;&gt;Node10</title>
<path fill="none" stroke="midnightblue" d="M454.204,-228.368C411.172,-221.616 330.528,-207.928 252.621,-187.852"/>
<polygon fill="midnightblue" stroke="midnightblue" points="253.204,-184.387 242.643,-185.241 251.432,-191.159 253.204,-184.387"/>
</g>
<!-- Node11 -->
<g id="node12" class="node"><title>Node11</title>
<polygon fill="white" stroke="#bfbfbf" points="261.024,-168.5 261.024,-187.5 313.024,-187.5 313.024,-168.5 261.024,-168.5"/>
<text text-anchor="middle" x="287.024" y="-175.5" font-family="Helvetica,sans-Serif" font-size="10.00">memory</text>
</g>
<!-- Node1&#45;&gt;Node11 -->
<g id="edge12" class="edge"><title>Node1&#45;&gt;Node11</title>
<path fill="none" stroke="midnightblue" d="M454.521,-224.681C419.122,-215.027 360.807,-199.123 323.167,-188.857"/>
<polygon fill="midnightblue" stroke="midnightblue" points="323.703,-185.376 313.134,-186.121 321.861,-192.129 323.703,-185.376"/>
</g>
<!-- Node12 -->
<g id="node13" class="node"><title>Node12</title>
<polygon fill="white" stroke="#bfbfbf" points="331.024,-168.5 331.024,-187.5 361.024,-187.5 361.024,-168.5 331.024,-168.5"/>
<text text-anchor="middle" x="346.024" y="-175.5" font-family="Helvetica,sans-Serif" font-size="10.00">set</text>
</g>
<!-- Node1&#45;&gt;Node12 -->
<g id="edge13" class="edge"><title>Node1&#45;&gt;Node12</title>
<path fill="none" stroke="midnightblue" d="M462.999,-224.444C437.859,-214.677 396.844,-198.743 370.662,-188.572"/>
<polygon fill="midnightblue" stroke="midnightblue" points="371.681,-185.212 361.092,-184.854 369.146,-191.737 371.681,-185.212"/>
</g>
<!-- Node13 -->
<g id="node14" class="node"><title>Node13</title>
<polygon fill="white" stroke="#bfbfbf" points="655.524,-168.5 655.524,-187.5 696.524,-187.5 696.524,-168.5 655.524,-168.5"/>
<text text-anchor="middle" x="676.024" y="-175.5" font-family="Helvetica,sans-Serif" font-size="10.00">string</text>
</g>
<!-- Node1&#45;&gt;Node13 -->
<g id="edge15" class="edge"><title>Node1&#45;&gt;Node13</title>
<path fill="none" stroke="midnightblue" d="M515.638,-224.629C546.1,-216.258 594.423,-202.871 645.481,-188.117"/>
<polygon fill="midnightblue" stroke="midnightblue" points="646.752,-191.393 655.383,-185.248 644.804,-184.669 646.752,-191.393"/>
</g>
<!-- Node14 -->
<g id="node15" class="node"><title>Node14</title>
<polygon fill="white" stroke="#bfbfbf" points="701.524,-112.5 701.524,-131.5 750.524,-131.5 750.524,-112.5 701.524,-112.5"/>
<text text-anchor="middle" x="726.024" y="-119.5" font-family="Helvetica,sans-Serif" font-size="10.00">string.h</text>
</g>
<!-- Node1&#45;&gt;Node14 -->
<g id="edge16" class="edge"><title>Node1&#45;&gt;Node14</title>
<path fill="none" stroke="midnightblue" d="M498.573,-224.325C525.45,-207.134 583.335,-170.202 588.024,-168 621.95,-152.066 663.037,-139.458 691.512,-131.689"/>
<polygon fill="midnightblue" stroke="midnightblue" points="692.638,-135.011 701.396,-129.048 690.831,-128.248 692.638,-135.011"/>
</g>
<!-- Node15 -->
<g id="node16" class="node"><title>Node15</title>
<polygon fill="white" stroke="#bfbfbf" points="379.024,-168.5 379.024,-187.5 419.024,-187.5 419.024,-168.5 379.024,-168.5"/>
<text text-anchor="middle" x="399.024" y="-175.5" font-family="Helvetica,sans-Serif" font-size="10.00">utility</text>
</g>
<!-- Node1&#45;&gt;Node15 -->
<g id="edge17" class="edge"><title>Node1&#45;&gt;Node15</title>
<path fill="none" stroke="midnightblue" d="M471.207,-224.324C457.791,-215.9 437.2,-202.971 421.439,-193.074"/>
<polygon fill="midnightblue" stroke="midnightblue" points="423.138,-190.008 412.807,-187.655 419.415,-195.936 423.138,-190.008"/>
</g>
<!-- Node1&#45;&gt;Node16 -->
<g id="edge18" class="edge"><title>Node1&#45;&gt;Node16</title>
<path fill="none" stroke="midnightblue" d="M515.643,-231.706C612.402,-227.464 920.205,-212.816 1174.02,-188 1186.08,-186.821 1199.28,-185.184 1210.88,-183.63"/>
<polygon fill="midnightblue" stroke="midnightblue" points="1211.57,-187.068 1221,-182.24 1210.62,-180.133 1211.57,-187.068"/>
</g>
<!-- Node17 -->
<g id="node18" class="node"><title>Node17</title>
<g id="a_node18"><a xlink:href="prevector_8h.html" target="_top" xlink:title="prevector.h">
<polygon fill="white" stroke="black" points="437.524,-168.5 437.524,-187.5 502.524,-187.5 502.524,-168.5 437.524,-168.5"/>
<text text-anchor="middle" x="470.024" y="-175.5" font-family="Helvetica,sans-Serif" font-size="10.00">prevector.h</text>
</a>
</g>
</g>
<!-- Node1&#45;&gt;Node17 -->
<g id="edge19" class="edge"><title>Node1&#45;&gt;Node17</title>
<path fill="none" stroke="midnightblue" d="M482.547,-224.083C480.538,-216.849 477.638,-206.409 475.135,-197.397"/>
<polygon fill="midnightblue" stroke="midnightblue" points="478.504,-196.449 472.455,-187.751 471.759,-198.323 478.504,-196.449"/>
</g>
<!-- Node2&#45;&gt;Node3 -->
<g id="edge3" class="edge"><title>Node2&#45;&gt;Node3</title>
<path fill="none" stroke="midnightblue" d="M393.479,-112.368C409.295,-94.0547 446.437,-51.0489 466.893,-27.3624"/>
<polygon fill="midnightblue" stroke="midnightblue" points="469.717,-29.4474 473.604,-19.5914 464.419,-24.872 469.717,-29.4474"/>
</g>
<!-- Node4 -->
<g id="node5" class="node"><title>Node4</title>
<g id="a_node5"><a xlink:href="byteswap_8h.html" target="_top" xlink:title="compat/byteswap.h">
<polygon fill="white" stroke="black" points="313.024,-56.5 313.024,-75.5 415.024,-75.5 415.024,-56.5 313.024,-56.5"/>
<text text-anchor="middle" x="364.024" y="-63.5" font-family="Helvetica,sans-Serif" font-size="10.00">compat/byteswap.h</text>
</a>
</g>
</g>
<!-- Node2&#45;&gt;Node4 -->
<g id="edge4" class="edge"><title>Node2&#45;&gt;Node4</title>
<path fill="none" stroke="midnightblue" d="M382.391,-112.083C379.412,-104.77 375.098,-94.1814 371.4,-85.1034"/>
<polygon fill="midnightblue" stroke="midnightblue" points="374.604,-83.6914 367.59,-75.7511 368.121,-86.3326 374.604,-83.6914"/>
</g>
<!-- Node4&#45;&gt;Node3 -->
<g id="edge5" class="edge"><title>Node4&#45;&gt;Node3</title>
<path fill="none" stroke="midnightblue" d="M382.563,-56.4435C401.647,-47.6356 431.599,-33.8116 453.46,-23.722"/>
<polygon fill="midnightblue" stroke="midnightblue" points="454.959,-26.8849 462.572,-19.5164 452.026,-20.5292 454.959,-26.8849"/>
</g>
<!-- Node17&#45;&gt;Node3 -->
<g id="edge22" class="edge"><title>Node17&#45;&gt;Node3</title>
<path fill="none" stroke="midnightblue" d="M470.616,-168.075C472.347,-141.945 477.432,-65.2106 479.793,-29.577"/>
<polygon fill="midnightblue" stroke="midnightblue" points="483.288,-29.7777 480.457,-19.5681 476.303,-29.3148 483.288,-29.7777"/>
</g>
<!-- Node17&#45;&gt;Node6 -->
<g id="edge20" class="edge"><title>Node17&#45;&gt;Node6</title>
<path fill="none" stroke="midnightblue" d="M492.683,-168.444C516.426,-159.478 553.933,-145.314 580.763,-135.183"/>
<polygon fill="midnightblue" stroke="midnightblue" points="582.353,-138.324 590.472,-131.516 579.88,-131.775 582.353,-138.324"/>
</g>
<!-- Node17&#45;&gt;Node14 -->
<g id="edge23" class="edge"><title>Node17&#45;&gt;Node14</title>
<path fill="none" stroke="midnightblue" d="M502.707,-170.106C551.156,-159.886 641.639,-140.8 691.261,-130.333"/>
<polygon fill="midnightblue" stroke="midnightblue" points="692.137,-133.725 701.199,-128.237 690.692,-126.876 692.137,-133.725"/>
</g>
<!-- Node18 -->
<g id="node19" class="node"><title>Node18</title>
<polygon fill="white" stroke="#bfbfbf" points="133.024,-112.5 133.024,-131.5 181.024,-131.5 181.024,-112.5 133.024,-112.5"/>
<text text-anchor="middle" x="157.024" y="-119.5" font-family="Helvetica,sans-Serif" font-size="10.00">stdlib.h</text>
</g>
<!-- Node17&#45;&gt;Node18 -->
<g id="edge21" class="edge"><title>Node17&#45;&gt;Node18</title>
<path fill="none" stroke="midnightblue" d="M437.495,-169.873C434.299,-169.22 431.101,-168.585 428.024,-168 343.205,-151.879 242.831,-136.055 191.315,-128.17"/>
<polygon fill="midnightblue" stroke="midnightblue" points="191.797,-124.703 181.384,-126.656 190.742,-131.623 191.797,-124.703"/>
</g>
<!-- Node19 -->
<g id="node20" class="node"><title>Node19</title>
<polygon fill="white" stroke="#bfbfbf" points="509.524,-112.5 509.524,-131.5 556.524,-131.5 556.524,-112.5 509.524,-112.5"/>
<text text-anchor="middle" x="533.024" y="-119.5" font-family="Helvetica,sans-Serif" font-size="10.00">iterator</text>
</g>
<!-- Node17&#45;&gt;Node19 -->
<g id="edge24" class="edge"><title>Node17&#45;&gt;Node19</title>
<path fill="none" stroke="midnightblue" d="M480.146,-168.324C489.551,-160.263 503.768,-148.077 515.093,-138.369"/>
<polygon fill="midnightblue" stroke="midnightblue" points="517.403,-140.999 522.718,-131.834 512.848,-135.684 517.403,-140.999"/>
</g>
<!-- Node20&#45;&gt;Node3 -->
<g id="edge29" class="edge"><title>Node20&#45;&gt;Node3</title>
<path fill="none" stroke="midnightblue" d="M1057.25,-226.149C1097.39,-216.122 1166.95,-197.603 1174.02,-188 1179.3,-180.843 1179.2,-175.228 1174.02,-168 1095.53,-58.3642 645.767,-21.4875 516.042,-13.0533"/>
<polygon fill="midnightblue" stroke="midnightblue" points="516.077,-9.54854 505.875,-12.4084 515.634,-16.5345 516.077,-9.54854"/>
</g>
<!-- Node20&#45;&gt;Node6 -->
<g id="edge26" class="edge"><title>Node20&#45;&gt;Node6</title>
<path fill="none" stroke="midnightblue" d="M1041.65,-224.381C1059.31,-211.311 1087.48,-186.09 1071.02,-168 1042.56,-136.707 734.096,-136.394 692.024,-132 678.158,-130.552 662.936,-128.845 649.587,-127.31"/>
<polygon fill="midnightblue" stroke="midnightblue" points="649.681,-123.797 639.344,-126.123 648.875,-130.751 649.681,-123.797"/>
</g>
<!-- Node20&#45;&gt;Node13 -->
<g id="edge30" class="edge"><title>Node20&#45;&gt;Node13</title>
<path fill="none" stroke="midnightblue" d="M1000.73,-228.672C935.354,-218.671 774.222,-194.022 706.638,-183.683"/>
<polygon fill="midnightblue" stroke="midnightblue" points="707.037,-180.204 696.623,-182.151 705.979,-187.123 707.037,-180.204"/>
</g>
<!-- Node20&#45;&gt;Node16 -->
<g id="edge31" class="edge"><title>Node20&#45;&gt;Node16</title>
<path fill="none" stroke="midnightblue" d="M1057.44,-225.829C1097.27,-215.779 1169.48,-197.559 1211.11,-187.054"/>
<polygon fill="midnightblue" stroke="midnightblue" points="1212.15,-190.399 1220.99,-184.559 1210.44,-183.612 1212.15,-190.399"/>
</g>
<!-- Node21 -->
<g id="node22" class="node"><title>Node21</title>
<polygon fill="white" stroke="#bfbfbf" points="1119.02,-168.5 1119.02,-187.5 1165.02,-187.5 1165.02,-168.5 1119.02,-168.5"/>
<text text-anchor="middle" x="1142.02" y="-175.5" font-family="Helvetica,sans-Serif" font-size="10.00">cstring</text>
</g>
<!-- Node20&#45;&gt;Node21 -->
<g id="edge27" class="edge"><title>Node20&#45;&gt;Node21</title>
<path fill="none" stroke="midnightblue" d="M1046.93,-224.444C1065.28,-215.675 1094.03,-201.935 1115.12,-191.858"/>
<polygon fill="midnightblue" stroke="midnightblue" points="1116.69,-194.986 1124.2,-187.516 1113.67,-188.67 1116.69,-194.986"/>
</g>
<!-- Node22 -->
<g id="node23" class="node"><title>Node22</title>
<polygon fill="white" stroke="#bfbfbf" points="1003.52,-168.5 1003.52,-187.5 1062.52,-187.5 1062.52,-168.5 1003.52,-168.5"/>
<text text-anchor="middle" x="1033.02" y="-175.5" font-family="Helvetica,sans-Serif" font-size="10.00">stdexcept</text>
</g>
<!-- Node20&#45;&gt;Node22 -->
<g id="edge28" class="edge"><title>Node20&#45;&gt;Node22</title>
<path fill="none" stroke="midnightblue" d="M1029.68,-224.083C1030.21,-217.006 1030.96,-206.861 1031.62,-197.986"/>
<polygon fill="midnightblue" stroke="midnightblue" points="1035.13,-197.982 1032.38,-187.751 1028.15,-197.465 1035.13,-197.982"/>
</g>
<!-- Node23 -->
<g id="node24" class="node"><title>Node23</title>
<g id="a_node24"><a xlink:href="common_8h.html" target="_top" xlink:title="crypto/common.h">
<polygon fill="white" stroke="black" points="893.024,-168.5 893.024,-187.5 985.024,-187.5 985.024,-168.5 893.024,-168.5"/>
<text text-anchor="middle" x="939.024" y="-175.5" font-family="Helvetica,sans-Serif" font-size="10.00">crypto/common.h</text>
</a>
</g>
</g>
<!-- Node20&#45;&gt;Node23 -->
<g id="edge32" class="edge"><title>Node20&#45;&gt;Node23</title>
<path fill="none" stroke="midnightblue" d="M1014.56,-224.324C1000.52,-215.9 978.976,-202.971 962.481,-193.074"/>
<polygon fill="midnightblue" stroke="midnightblue" points="963.824,-189.798 953.448,-187.655 960.223,-195.801 963.824,-189.798"/>
</g>
<!-- Node23&#45;&gt;Node2 -->
<g id="edge35" class="edge"><title>Node23&#45;&gt;Node2</title>
<path fill="none" stroke="midnightblue" d="M892.916,-169.331C889.572,-168.854 886.249,-168.405 883.024,-168 798.706,-157.42 551.77,-136.63 440.955,-127.491"/>
<polygon fill="midnightblue" stroke="midnightblue" points="440.92,-123.976 430.666,-126.644 440.345,-130.953 440.92,-123.976"/>
</g>
<!-- Node23&#45;&gt;Node3 -->
<g id="edge33" class="edge"><title>Node23&#45;&gt;Node3</title>
<path fill="none" stroke="midnightblue" d="M933.286,-168.396C917.524,-145.556 870.993,-83.2806 815.024,-56 762.764,-30.5271 590.371,-17.485 515.85,-12.9243"/>
<polygon fill="midnightblue" stroke="midnightblue" points="515.781,-9.41413 505.591,-12.3125 515.365,-16.4017 515.781,-9.41413"/>
</g>
<!-- Node23&#45;&gt;Node14 -->
<g id="edge34" class="edge"><title>Node23&#45;&gt;Node14</title>
<path fill="none" stroke="midnightblue" d="M905.274,-168.444C865.67,-158.403 800.357,-141.845 760.46,-131.73"/>
<polygon fill="midnightblue" stroke="midnightblue" points="761.206,-128.309 750.652,-129.244 759.486,-135.094 761.206,-128.309"/>
</g>
<!-- Node24&#45;&gt;Node1 -->
<g id="edge55" class="edge"><title>Node24&#45;&gt;Node1</title>
<path fill="none" stroke="midnightblue" d="M734.127,-393.343C677.233,-381.914 581.231,-355.491 519.024,-300 505.09,-287.57 495.964,-268.055 490.709,-253.65"/>
<polygon fill="midnightblue" stroke="midnightblue" points="493.918,-252.207 487.43,-243.831 487.278,-254.425 493.918,-252.207"/>
</g>
<!-- Node24&#45;&gt;Node20 -->
<g id="edge56" class="edge"><title>Node24&#45;&gt;Node20</title>
<path fill="none" stroke="midnightblue" d="M789.814,-392.37C815.086,-367.679 887.935,-297.411 916.024,-280 939.476,-265.464 968.426,-254.043 991.152,-246.345"/>
<polygon fill="midnightblue" stroke="midnightblue" points="992.389,-249.622 1000.79,-243.173 990.202,-242.973 992.389,-249.622"/>
</g>
<!-- Node25 -->
<g id="node26" class="node"><title>Node25</title>
<g id="a_node26"><a xlink:href="transaction_8h.html" target="_top" xlink:title="primitives/transaction.h">
<polygon fill="white" stroke="black" points="697.024,-336.5 697.024,-355.5 815.024,-355.5 815.024,-336.5 697.024,-336.5"/>
<text text-anchor="middle" x="756.024" y="-343.5" font-family="Helvetica,sans-Serif" font-size="10.00">primitives/transaction.h</text>
</a>
</g>
</g>
<!-- Node24&#45;&gt;Node25 -->
<g id="edge37" class="edge"><title>Node24&#45;&gt;Node25</title>
<path fill="none" stroke="midnightblue" d="M776.896,-392.083C773.51,-384.77 768.608,-374.181 764.406,-365.103"/>
<polygon fill="midnightblue" stroke="midnightblue" points="767.453,-363.355 760.076,-355.751 761.101,-366.296 767.453,-363.355"/>
</g>
<!-- Node25&#45;&gt;Node1 -->
<g id="edge53" class="edge"><title>Node25&#45;&gt;Node1</title>
<path fill="none" stroke="midnightblue" d="M734.759,-336.368C686.969,-316.97 570.93,-269.87 515.493,-247.367"/>
<polygon fill="midnightblue" stroke="midnightblue" points="516.773,-244.109 506.19,-243.591 514.14,-250.596 516.773,-244.109"/>
</g>
<!-- Node25&#45;&gt;Node20 -->
<g id="edge54" class="edge"><title>Node25&#45;&gt;Node20</title>
<path fill="none" stroke="midnightblue" d="M763.116,-336.312C775.133,-322.198 800.947,-294.418 829.024,-280 881.268,-253.172 949.26,-242.233 990.99,-237.846"/>
<polygon fill="midnightblue" stroke="midnightblue" points="991.397,-241.323 1001.01,-236.866 990.715,-234.356 991.397,-241.323"/>
</g>
<!-- Node26 -->
<g id="node27" class="node"><title>Node26</title>
<g id="a_node27"><a xlink:href="amount_8h.html" target="_top" xlink:title="amount.h">
<polygon fill="white" stroke="black" points="528.524,-280.5 528.524,-299.5 585.524,-299.5 585.524,-280.5 528.524,-280.5"/>
<text text-anchor="middle" x="557.024" y="-287.5" font-family="Helvetica,sans-Serif" font-size="10.00">amount.h</text>
</a>
</g>
</g>
<!-- Node25&#45;&gt;Node26 -->
<g id="edge38" class="edge"><title>Node25&#45;&gt;Node26</title>
<path fill="none" stroke="midnightblue" d="M724.492,-336.444C689.631,-326.984 633.446,-311.738 595.89,-301.546"/>
<polygon fill="midnightblue" stroke="midnightblue" points="596.392,-298.056 585.824,-298.815 594.559,-304.812 596.392,-298.056"/>
</g>
<!-- Node27 -->
<g id="node28" class="node"><title>Node27</title>
<g id="a_node28"><a xlink:href="script_8h.html" target="_top" xlink:title="script/script.h">
<polygon fill="white" stroke="black" points="729.024,-224.5 729.024,-243.5 805.024,-243.5 805.024,-224.5 729.024,-224.5"/>
<text text-anchor="middle" x="767.024" y="-231.5" font-family="Helvetica,sans-Serif" font-size="10.00">script/script.h</text>
</a>
</g>
</g>
<!-- Node25&#45;&gt;Node27 -->
<g id="edge42" class="edge"><title>Node25&#45;&gt;Node27</title>
<path fill="none" stroke="midnightblue" d="M756.887,-336.368C758.663,-318.617 762.758,-277.666 765.165,-253.597"/>
<polygon fill="midnightblue" stroke="midnightblue" points="768.653,-253.89 766.165,-243.591 761.687,-253.193 768.653,-253.89"/>
</g>
<!-- Node26&#45;&gt;Node1 -->
<g id="edge39" class="edge"><title>Node26&#45;&gt;Node1</title>
<path fill="none" stroke="midnightblue" d="M545.456,-280.324C534.604,-272.185 518.144,-259.839 505.141,-250.087"/>
<polygon fill="midnightblue" stroke="midnightblue" points="506.903,-247.034 496.803,-243.834 502.703,-252.634 506.903,-247.034"/>
</g>
<!-- Node26&#45;&gt;Node13 -->
<g id="edge41" class="edge"><title>Node26&#45;&gt;Node13</title>
<path fill="none" stroke="midnightblue" d="M566.362,-280.368C586.435,-261.814 633.928,-217.913 659.324,-194.438"/>
<polygon fill="midnightblue" stroke="midnightblue" points="661.762,-196.95 666.73,-187.591 657.011,-191.809 661.762,-196.95"/>
</g>
<!-- Node26&#45;&gt;Node18 -->
<g id="edge40" class="edge"><title>Node26&#45;&gt;Node18</title>
<path fill="none" stroke="midnightblue" d="M528.518,-288.183C427.395,-284.629 88.4156,-266.919 23.0243,-188 -7.02276,-151.737 73.5142,-134.172 122.491,-127.055"/>
<polygon fill="midnightblue" stroke="midnightblue" points="123.274,-130.48 132.706,-125.653 122.323,-123.545 123.274,-130.48"/>
</g>
<!-- Node27&#45;&gt;Node3 -->
<g id="edge49" class="edge"><title>Node27&#45;&gt;Node3</title>
<path fill="none" stroke="midnightblue" d="M769.361,-224.302C774.582,-202.787 784.816,-146.341 759.024,-112 700.697,-34.338 576.802,-16.3012 516.068,-12.1772"/>
<polygon fill="midnightblue" stroke="midnightblue" points="516.028,-8.66885 505.839,-11.5749 515.616,-15.6567 516.028,-8.66885"/>
</g>
<!-- Node27&#45;&gt;Node6 -->
<g id="edge45" class="edge"><title>Node27&#45;&gt;Node6</title>
<path fill="none" stroke="midnightblue" d="M760.564,-224.49C750.077,-211.114 728.177,-184.951 705.024,-168 686.783,-154.645 663.967,-143.455 645.62,-135.575"/>
<polygon fill="midnightblue" stroke="midnightblue" points="646.79,-132.27 636.213,-131.653 644.096,-138.731 646.79,-132.27"/>
</g>
<!-- Node27&#45;&gt;Node8 -->
<g id="edge47" class="edge"><title>Node27&#45;&gt;Node8</title>
<path fill="none" stroke="midnightblue" d="M743.256,-224.444C717.211,-215.067 675.377,-200.007 647.074,-189.818"/>
<polygon fill="midnightblue" stroke="midnightblue" points="647.908,-186.398 637.314,-186.304 645.537,-192.985 647.908,-186.398"/>
</g>
<!-- Node27&#45;&gt;Node13 -->
<g id="edge51" class="edge"><title>Node27&#45;&gt;Node13</title>
<path fill="none" stroke="midnightblue" d="M752.404,-224.324C738.075,-215.822 716.012,-202.729 699.276,-192.797"/>
<polygon fill="midnightblue" stroke="midnightblue" points="700.995,-189.748 690.609,-187.655 697.422,-195.768 700.995,-189.748"/>
</g>
<!-- Node27&#45;&gt;Node14 -->
<g id="edge50" class="edge"><title>Node27&#45;&gt;Node14</title>
<path fill="none" stroke="midnightblue" d="M763.807,-224.368C757.161,-206.537 741.789,-165.295 732.835,-141.272"/>
<polygon fill="midnightblue" stroke="midnightblue" points="735.999,-139.739 729.227,-131.591 729.44,-142.184 735.999,-139.739"/>
</g>
<!-- Node27&#45;&gt;Node16 -->
<g id="edge52" class="edge"><title>Node27&#45;&gt;Node16</title>
<path fill="none" stroke="midnightblue" d="M805.209,-229.03C877.33,-221.476 1038.51,-204.328 1174.02,-188 1186.05,-186.551 1199.25,-184.855 1210.85,-183.33"/>
<polygon fill="midnightblue" stroke="midnightblue" points="1211.52,-186.771 1220.98,-181.988 1210.6,-179.832 1211.52,-186.771"/>
</g>
<!-- Node27&#45;&gt;Node17 -->
<g id="edge44" class="edge"><title>Node27&#45;&gt;Node17</title>
<path fill="none" stroke="midnightblue" d="M728.805,-226.051C673.233,-215.947 570.459,-197.261 512.556,-186.733"/>
<polygon fill="midnightblue" stroke="midnightblue" points="513.096,-183.274 502.631,-184.929 511.844,-190.161 513.096,-183.274"/>
</g>
<!-- Node27&#45;&gt;Node22 -->
<g id="edge48" class="edge"><title>Node27&#45;&gt;Node22</title>
<path fill="none" stroke="midnightblue" d="M805.255,-225.797C848.402,-217.585 920.943,-203.53 993.064,-188.153"/>
<polygon fill="midnightblue" stroke="midnightblue" points="994.19,-191.491 1003.24,-185.975 992.724,-184.647 994.19,-191.491"/>
</g>
<!-- Node27&#45;&gt;Node23 -->
<g id="edge43" class="edge"><title>Node27&#45;&gt;Node23</title>
<path fill="none" stroke="midnightblue" d="M794.278,-224.444C823.465,-215.28 869.945,-200.688 902.334,-190.519"/>
<polygon fill="midnightblue" stroke="midnightblue" points="903.405,-193.851 911.898,-187.516 901.309,-187.173 903.405,-193.851"/>
</g>
<!-- Node28 -->
<g id="node29" class="node"><title>Node28</title>
<polygon fill="white" stroke="#bfbfbf" points="829.524,-168.5 829.524,-187.5 874.524,-187.5 874.524,-168.5 829.524,-168.5"/>
<text text-anchor="middle" x="852.024" y="-175.5" font-family="Helvetica,sans-Serif" font-size="10.00">climits</text>
</g>
<!-- Node27&#45;&gt;Node28 -->
<g id="edge46" class="edge"><title>Node27&#45;&gt;Node28</title>
<path fill="none" stroke="midnightblue" d="M780.681,-224.324C793.941,-215.9 814.292,-202.971 829.871,-193.074"/>
<polygon fill="midnightblue" stroke="midnightblue" points="831.838,-195.971 838.401,-187.655 828.084,-190.063 831.838,-195.971"/>
</g>
<!-- Node29&#45;&gt;Node1 -->
<g id="edge58" class="edge"><title>Node29&#45;&gt;Node1</title>
<path fill="none" stroke="midnightblue" d="M925.306,-286.02C848.34,-277.101 619.364,-250.567 525.673,-239.71"/>
<polygon fill="midnightblue" stroke="midnightblue" points="526.058,-236.232 515.722,-238.557 525.252,-243.185 526.058,-236.232"/>
</g>
<!-- Node29&#45;&gt;Node16 -->
<g id="edge59" class="edge"><title>Node29&#45;&gt;Node16</title>
<path fill="none" stroke="midnightblue" d="M973.937,-280.368C1025.79,-260.834 1152.22,-213.208 1211.44,-190.898"/>
<polygon fill="midnightblue" stroke="midnightblue" points="1212.89,-194.091 1221.02,-187.29 1210.43,-187.54 1212.89,-194.091"/>
</g>
</g>
</svg>
