<?xml version="1.0" encoding="UTF-8" standalone="no"?>
<!DOCTYPE svg PUBLIC "-//W3C//DTD SVG 1.1//EN"
 "http://www.w3.org/Graphics/SVG/1.1/DTD/svg11.dtd">
<!-- Generated by graphviz version 2.36.0 (20140111.2315)
 -->
<!-- Title: src/consensus/merkle.h Pages: 1 -->
<svg width="618pt" height="84pt"
 viewBox="0.00 0.00 618.00 84.00" xmlns="http://www.w3.org/2000/svg" xmlns:xlink="http://www.w3.org/1999/xlink">
<g id="graph0" class="graph" transform="scale(1 1) rotate(0) translate(4 80)">
<title>src/consensus/merkle.h</title>
<polygon fill="white" stroke="none" points="-4,4 -4,-80 614,-80 614,4 -4,4"/>
<!-- Node29 -->
<g id="node1" class="node"><title>Node29</title>
<polygon fill="#bfbfbf" stroke="black" points="278.5,-56.5 278.5,-75.5 399.5,-75.5 399.5,-56.5 278.5,-56.5"/>
<text text-anchor="middle" x="339" y="-63.5" font-family="Helvetica,sans-Serif" font-size="10.00">src/consensus/merkle.h</text>
</g>
<!-- Node30 -->
<g id="node2" class="node"><title>Node30</title>
<g id="a_node2"><a xlink:href="chainparams_8cpp.html" target="_top" xlink:title="src/chainparams.cpp">
<polygon fill="white" stroke="black" points="-0.5,-0.5 -0.5,-19.5 106.5,-19.5 106.5,-0.5 -0.5,-0.5"/>
<text text-anchor="middle" x="53" y="-7.5" font-family="Helvetica,sans-Serif" font-size="10.00">src/chainparams.cpp</text>
</a>
</g>
</g>
<!-- Node29&#45;&gt;Node30 -->
<g id="edge1" class="edge"><title>Node29&#45;&gt;Node30</title>
<path fill="none" stroke="midnightblue" d="M283.586,-54.5371C229.534,-44.3316 148.329,-28.9992 98.1055,-19.5164"/>
<polygon fill="midnightblue" stroke="midnightblue" points="283.207,-58.0274 293.682,-56.4435 284.505,-51.1489 283.207,-58.0274"/>
</g>
<!-- Node31 -->
<g id="node3" class="node"><title>Node31</title>
<g id="a_node3"><a xlink:href="merkle_8cpp.html" target="_top" xlink:title="src/consensus/merkle.cpp">
<polygon fill="white" stroke="black" points="124.5,-0.5 124.5,-19.5 255.5,-19.5 255.5,-0.5 124.5,-0.5"/>
<text text-anchor="middle" x="190" y="-7.5" font-family="Helvetica,sans-Serif" font-size="10.00">src/consensus/merkle.cpp</text>
</a>
</g>
</g>
<!-- Node29&#45;&gt;Node31 -->
<g id="edge2" class="edge"><title>Node29&#45;&gt;Node31</title>
<path fill="none" stroke="midnightblue" d="M305.629,-52.9058C277.616,-42.7536 238.304,-28.5063 213.499,-19.5164"/>
<polygon fill="midnightblue" stroke="midnightblue" points="304.796,-56.3267 315.391,-56.4435 307.181,-49.7456 304.796,-56.3267"/>
</g>
<!-- Node32 -->
<g id="node4" class="node"><title>Node32</title>
<g id="a_node4"><a xlink:href="simplifiedmns_8cpp.html" target="_top" xlink:title="src/evo/simplifiedmns.cpp">
<polygon fill="white" stroke="black" points="273.5,-0.5 273.5,-19.5 404.5,-19.5 404.5,-0.5 273.5,-0.5"/>
<text text-anchor="middle" x="339" y="-7.5" font-family="Helvetica,sans-Serif" font-size="10.00">src/evo/simplifiedmns.cpp</text>
</a>
</g>
</g>
<!-- Node29&#45;&gt;Node32 -->
<g id="edge3" class="edge"><title>Node29&#45;&gt;Node32</title>
<path fill="none" stroke="midnightblue" d="M339,-45.8045C339,-36.9102 339,-26.7798 339,-19.7511"/>
<polygon fill="midnightblue" stroke="midnightblue" points="335.5,-46.083 339,-56.083 342.5,-46.083 335.5,-46.083"/>
</g>
<!-- Node33 -->
<g id="node5" class="node"><title>Node33</title>
<g id="a_node5"><a xlink:href="miner_8cpp.html" target="_top" xlink:title="src/miner.cpp">
<polygon fill="white" stroke="black" points="423,-0.5 423,-19.5 499,-19.5 499,-0.5 423,-0.5"/>
<text text-anchor="middle" x="461" y="-7.5" font-family="Helvetica,sans-Serif" font-size="10.00">src/miner.cpp</text>
</a>
</g>
</g>
<!-- Node29&#45;&gt;Node33 -->
<g id="edge4" class="edge"><title>Node29&#45;&gt;Node33</title>
<path fill="none" stroke="midnightblue" d="M367.539,-52.3678C390.386,-42.2553 421.805,-28.3486 441.759,-19.5164"/>
<polygon fill="midnightblue" stroke="midnightblue" points="366.059,-49.1955 358.331,-56.4435 368.892,-55.5965 366.059,-49.1955"/>
</g>
<!-- Node34 -->
<g id="node6" class="node"><title>Node34</title>
<g id="a_node6"><a xlink:href="validation_8cpp.html" target="_top" xlink:title="src/validation.cpp">
<polygon fill="white" stroke="black" points="517.5,-0.5 517.5,-19.5 610.5,-19.5 610.5,-0.5 517.5,-0.5"/>
<text text-anchor="middle" x="564" y="-7.5" font-family="Helvetica,sans-Serif" font-size="10.00">src/validation.cpp</text>
</a>
</g>
</g>
<!-- Node29&#45;&gt;Node34 -->
<g id="edge5" class="edge"><title>Node29&#45;&gt;Node34</title>
<path fill="none" stroke="midnightblue" d="M384.465,-54.0884C426.973,-43.8865 489.579,-28.8612 528.515,-19.5164"/>
<polygon fill="midnightblue" stroke="midnightblue" points="383.559,-50.7064 374.652,-56.4435 385.193,-57.5131 383.559,-50.7064"/>
</g>
</g>
</svg>
