<?xml version="1.0" encoding="UTF-8" standalone="no"?>
<!DOCTYPE svg PUBLIC "-//W3C//DTD SVG 1.1//EN"
 "http://www.w3.org/Graphics/SVG/1.1/DTD/svg11.dtd">
<!-- Generated by graphviz version 2.36.0 (20140111.2315)
 -->
<!-- Title: src/consensus/merkle.h Pages: 1 -->
<!--zoomable 476 -->
<svg id="main" version="1.1" xmlns="http://www.w3.org/2000/svg" xmlns:xlink="http://www.w3.org/1999/xlink" xml:space="preserve" onload="init(evt)">
<style type="text/css"><![CDATA[
.edge:hover path { stroke: red; }
.edge:hover polygon { stroke: red; fill: red; }
]]></style>
<script type="text/javascript"><![CDATA[
var edges = document.getElementsByTagName('g');
if (edges && edges.length) {
  for (var i=0;i<edges.length;i++) {
    if (edges[i].id.substr(0,4)=='edge') {
      edges[i].setAttribute('class','edge');
    }
  }
}
]]></script>
        <defs>
                <circle id="rim" cx="0" cy="0" r="7"/>
                <circle id="rim2" cx="0" cy="0" r="3.5"/>
                <g id="zoomPlus">
                        <use xlink:href="#rim" fill="#404040">
                                <set attributeName="fill" to="#808080" begin="zoomplus.mouseover" end="zoomplus.mouseout"/>
                        </use>
                        <path d="M-4,0h8M0,-4v8" fill="none" stroke="white" stroke-width="1.5" pointer-events="none"/>
                </g>
                <g id="zoomMin">
                        <use xlink:href="#rim" fill="#404040">
                                <set attributeName="fill" to="#808080" begin="zoomminus.mouseover" end="zoomminus.mouseout"/>
                        </use>
                        <path d="M-4,0h8" fill="none" stroke="white" stroke-width="1.5" pointer-events="none"/>
                </g>
                <g id="dirArrow">
                        <path fill="none" stroke="white" stroke-width="1.5" d="M0,-3.0v7 M-2.5,-0.5L0,-3.0L2.5,-0.5"/>
                </g>
               <g id="resetDef">
                       <use xlink:href="#rim2" fill="#404040">
                               <set attributeName="fill" to="#808080" begin="reset.mouseover" end="reset.mouseout"/>
                       </use>
               </g>
        </defs>

<script type="text/javascript">
var viewWidth = 1388;
var viewHeight = 476;
var sectionId = 'dynsection-0';
</script>
<script xlink:href="svgpan.js"/>
<svg id="graph" class="graph">
<g id="viewport">
<title>src/consensus/merkle.h</title>
<polygon fill="white" stroke="none" points="-4,4 -4,-472 1384,-472 1384,4 -4,4"/>
<!-- Node0 -->
<g id="node1" class="node"><title>Node0</title>
<polygon fill="#bfbfbf" stroke="black" points="855.5,-448.5 855.5,-467.5 976.5,-467.5 976.5,-448.5 855.5,-448.5"/>
<text text-anchor="middle" x="916" y="-455.5" font-family="Helvetica,sans-Serif" font-size="10.00">src/consensus/merkle.h</text>
</g>
<!-- Node1 -->
<g id="node2" class="node"><title>Node1</title>
<polygon fill="white" stroke="#bfbfbf" points="925.5,-0.5 925.5,-19.5 974.5,-19.5 974.5,-0.5 925.5,-0.5"/>
<text text-anchor="middle" x="950" y="-7.5" font-family="Helvetica,sans-Serif" font-size="10.00">stdint.h</text>
</g>
<!-- Node0&#45;&gt;Node1 -->
<g id="edge1" class="edge"><title>Node0&#45;&gt;Node1</title>
<path fill="none" stroke="midnightblue" d="M855.189,-456.104C650.605,-452.296 0,-433.392 0,-347 0,-347 0,-347 0,-121 0,-27.0278 742.978,-13.236 914.823,-11.3028"/>
<polygon fill="midnightblue" stroke="midnightblue" points="915.116,-14.8 925.078,-11.1941 915.042,-7.80039 915.116,-14.8"/>
</g>
<!-- Node2 -->
<g id="node3" class="node"><title>Node2</title>
<polygon fill="white" stroke="#bfbfbf" points="970,-168.5 970,-187.5 1014,-187.5 1014,-168.5 970,-168.5"/>
<text text-anchor="middle" x="992" y="-175.5" font-family="Helvetica,sans-Serif" font-size="10.00">vector</text>
</g>
<!-- Node0&#45;&gt;Node2 -->
<g id="edge2" class="edge"><title>Node0&#45;&gt;Node2</title>
<path fill="none" stroke="midnightblue" d="M930.623,-448.423C943.022,-440.45 960.43,-427.49 971,-412 988.111,-386.923 992,-377.359 992,-347 992,-347 992,-347 992,-289 992,-256.948 992,-219.643 992,-197.749"/>
<polygon fill="midnightblue" stroke="midnightblue" points="995.5,-197.558 992,-187.558 988.5,-197.558 995.5,-197.558"/>
</g>
<!-- Node3 -->
<g id="node4" class="node"><title>Node3</title>
<g id="a_node4"><a xlink:href="transaction_8h.html" target="_top" xlink:title="primitives/transaction.h">
<polygon fill="white" stroke="black" points="770,-336.5 770,-355.5 888,-355.5 888,-336.5 770,-336.5"/>
<text text-anchor="middle" x="829" y="-343.5" font-family="Helvetica,sans-Serif" font-size="10.00">primitives/transaction.h</text>
</a>
</g>
</g>
<!-- Node0&#45;&gt;Node3 -->
<g id="edge3" class="edge"><title>Node0&#45;&gt;Node3</title>
<path fill="none" stroke="midnightblue" d="M902.09,-448.434C889.763,-440.287 871.919,-427.062 860,-412 848.858,-397.921 840.461,-379.183 835.236,-365.443"/>
<polygon fill="midnightblue" stroke="midnightblue" points="838.405,-363.912 831.734,-355.681 831.816,-366.275 838.405,-363.912"/>
</g>
<!-- Node26 -->
<g id="node27" class="node"><title>Node26</title>
<g id="a_node27"><a xlink:href="uint256_8h.html" target="_top" xlink:title="uint256.h">
<polygon fill="white" stroke="black" points="1035,-224.5 1035,-243.5 1091,-243.5 1091,-224.5 1035,-224.5"/>
<text text-anchor="middle" x="1063" y="-231.5" font-family="Helvetica,sans-Serif" font-size="10.00">uint256.h</text>
</a>
</g>
</g>
<!-- Node0&#45;&gt;Node26 -->
<g id="edge58" class="edge"><title>Node0&#45;&gt;Node26</title>
<path fill="none" stroke="midnightblue" d="M946.586,-448.49C966.092,-441.601 990.525,-430.027 1006,-412 1046.24,-365.122 1058.17,-289.422 1061.63,-254.186"/>
<polygon fill="midnightblue" stroke="midnightblue" points="1065.15,-254.148 1062.51,-243.888 1058.17,-253.554 1065.15,-254.148"/>
</g>
<!-- Node28 -->
<g id="node29" class="node"><title>Node28</title>
<g id="a_node29"><a xlink:href="block_8h.html" target="_top" xlink:title="primitives/block.h">
<polygon fill="white" stroke="black" points="869.5,-392.5 869.5,-411.5 962.5,-411.5 962.5,-392.5 869.5,-392.5"/>
<text text-anchor="middle" x="916" y="-399.5" font-family="Helvetica,sans-Serif" font-size="10.00">primitives/block.h</text>
</a>
</g>
</g>
<!-- Node0&#45;&gt;Node28 -->
<g id="edge54" class="edge"><title>Node0&#45;&gt;Node28</title>
<path fill="none" stroke="midnightblue" d="M916,-448.083C916,-441.006 916,-430.861 916,-421.986"/>
<polygon fill="midnightblue" stroke="midnightblue" points="919.5,-421.751 916,-411.751 912.5,-421.751 919.5,-421.751"/>
</g>
<!-- Node4 -->
<g id="node5" class="node"><title>Node4</title>
<g id="a_node5"><a xlink:href="amount_8h.html" target="_top" xlink:title="amount.h">
<polygon fill="white" stroke="black" points="586.5,-280.5 586.5,-299.5 643.5,-299.5 643.5,-280.5 586.5,-280.5"/>
<text text-anchor="middle" x="615" y="-287.5" font-family="Helvetica,sans-Serif" font-size="10.00">amount.h</text>
</a>
</g>
</g>
<!-- Node3&#45;&gt;Node4 -->
<g id="edge4" class="edge"><title>Node3&#45;&gt;Node4</title>
<path fill="none" stroke="midnightblue" d="M795.091,-336.444C756.521,-326.711 693.679,-310.854 653.353,-300.678"/>
<polygon fill="midnightblue" stroke="midnightblue" points="654.166,-297.273 643.614,-298.22 652.454,-304.061 654.166,-297.273"/>
</g>
<!-- Node5 -->
<g id="node6" class="node"><title>Node5</title>
<g id="a_node6"><a xlink:href="serialize_8h.html" target="_top" xlink:title="serialize.h">
<polygon fill="white" stroke="black" points="539.5,-224.5 539.5,-243.5 600.5,-243.5 600.5,-224.5 539.5,-224.5"/>
<text text-anchor="middle" x="570" y="-231.5" font-family="Helvetica,sans-Serif" font-size="10.00">serialize.h</text>
</a>
</g>
</g>
<!-- Node3&#45;&gt;Node5 -->
<g id="edge45" class="edge"><title>Node3&#45;&gt;Node5</title>
<path fill="none" stroke="midnightblue" d="M808.677,-336.368C763.097,-317.01 652.561,-270.065 599.449,-247.507"/>
<polygon fill="midnightblue" stroke="midnightblue" points="600.801,-244.279 590.229,-243.591 598.065,-250.722 600.801,-244.279"/>
</g>
<!-- Node22 -->
<g id="node23" class="node"><title>Node22</title>
<g id="a_node23"><a xlink:href="script_8h.html" target="_top" xlink:title="script/script.h">
<polygon fill="white" stroke="black" points="853,-224.5 853,-243.5 929,-243.5 929,-224.5 853,-224.5"/>
<text text-anchor="middle" x="891" y="-231.5" font-family="Helvetica,sans-Serif" font-size="10.00">script/script.h</text>
</a>
</g>
</g>
<!-- Node3&#45;&gt;Node22 -->
<g id="edge31" class="edge"><title>Node3&#45;&gt;Node22</title>
<path fill="none" stroke="midnightblue" d="M832.798,-336.402C838.468,-323.783 849.697,-299.617 861,-280 866.449,-270.542 873.136,-260.395 878.812,-252.134"/>
<polygon fill="midnightblue" stroke="midnightblue" points="881.814,-253.949 884.672,-243.747 876.076,-249.94 881.814,-253.949"/>
</g>
<!-- Node3&#45;&gt;Node26 -->
<g id="edge46" class="edge"><title>Node3&#45;&gt;Node26</title>
<path fill="none" stroke="midnightblue" d="M841.911,-336.407C862.194,-323.148 903.03,-297.416 940,-280 967.842,-266.884 1000.63,-255.058 1025.34,-246.824"/>
<polygon fill="midnightblue" stroke="midnightblue" points="1026.66,-250.077 1035.07,-243.632 1024.47,-243.426 1026.66,-250.077"/>
</g>
<!-- Node4&#45;&gt;Node5 -->
<g id="edge5" class="edge"><title>Node4&#45;&gt;Node5</title>
<path fill="none" stroke="midnightblue" d="M607.569,-280.083C601.147,-272.377 591.694,-261.033 583.878,-251.653"/>
<polygon fill="midnightblue" stroke="midnightblue" points="586.383,-249.193 577.293,-243.751 581.006,-253.674 586.383,-249.193"/>
</g>
<!-- Node16 -->
<g id="node17" class="node"><title>Node16</title>
<polygon fill="white" stroke="#bfbfbf" points="770.5,-168.5 770.5,-187.5 811.5,-187.5 811.5,-168.5 770.5,-168.5"/>
<text text-anchor="middle" x="791" y="-175.5" font-family="Helvetica,sans-Serif" font-size="10.00">string</text>
</g>
<!-- Node4&#45;&gt;Node16 -->
<g id="edge30" class="edge"><title>Node4&#45;&gt;Node16</title>
<path fill="none" stroke="midnightblue" d="M628.81,-280.368C659.141,-261.412 731.799,-216.001 768.692,-192.942"/>
<polygon fill="midnightblue" stroke="midnightblue" points="770.629,-195.859 777.254,-187.591 766.919,-189.923 770.629,-195.859"/>
</g>
<!-- Node20 -->
<g id="node21" class="node"><title>Node20</title>
<polygon fill="white" stroke="#bfbfbf" points="28,-112.5 28,-131.5 76,-131.5 76,-112.5 28,-112.5"/>
<text text-anchor="middle" x="52" y="-119.5" font-family="Helvetica,sans-Serif" font-size="10.00">stdlib.h</text>
</g>
<!-- Node4&#45;&gt;Node20 -->
<g id="edge29" class="edge"><title>Node4&#45;&gt;Node20</title>
<path fill="none" stroke="midnightblue" d="M586.434,-287.299C486.566,-280.814 154.838,-254.561 76,-188 62.3764,-176.498 56.4832,-156.526 53.9357,-141.747"/>
<polygon fill="midnightblue" stroke="midnightblue" points="57.3829,-141.121 52.5672,-131.684 50.4468,-142.065 57.3829,-141.121"/>
</g>
<!-- Node5&#45;&gt;Node1 -->
<g id="edge18" class="edge"><title>Node5&#45;&gt;Node1</title>
<path fill="none" stroke="midnightblue" d="M539.18,-232.337C440.628,-229.901 137.906,-219.865 109,-188 103.028,-181.416 103.321,-174.838 109,-168 214.43,-41.0661 770.374,-16.2032 915.383,-11.85"/>
<polygon fill="midnightblue" stroke="midnightblue" points="915.589,-15.3456 925.485,-11.5604 915.388,-8.34847 915.589,-15.3456"/>
</g>
<!-- Node5&#45;&gt;Node2 -->
<g id="edge22" class="edge"><title>Node5&#45;&gt;Node2</title>
<path fill="none" stroke="midnightblue" d="M600.605,-229.095C661.704,-221.297 803.144,-203.238 922,-188 934.408,-186.409 948.052,-184.656 959.973,-183.123"/>
<polygon fill="midnightblue" stroke="midnightblue" points="960.46,-186.589 969.932,-181.841 959.567,-179.646 960.46,-186.589"/>
</g>
<!-- Node6 -->
<g id="node7" class="node"><title>Node6</title>
<g id="a_node7"><a xlink:href="endian_8h.html" target="_top" xlink:title="compat/endian.h">
<polygon fill="white" stroke="black" points="942.5,-112.5 942.5,-131.5 1031.5,-131.5 1031.5,-112.5 942.5,-112.5"/>
<text text-anchor="middle" x="987" y="-119.5" font-family="Helvetica,sans-Serif" font-size="10.00">compat/endian.h</text>
</a>
</g>
</g>
<!-- Node5&#45;&gt;Node6 -->
<g id="edge6" class="edge"><title>Node5&#45;&gt;Node6</title>
<path fill="none" stroke="midnightblue" d="M590.144,-224.375C610.133,-215.672 641.525,-201.609 668,-188 683.934,-179.809 686.098,-173.943 703,-168 724.183,-160.551 855.874,-141.345 932.275,-130.587"/>
<polygon fill="midnightblue" stroke="midnightblue" points="932.8,-134.048 942.216,-129.191 931.826,-127.116 932.8,-134.048"/>
</g>
<!-- Node8 -->
<g id="node9" class="node"><title>Node8</title>
<polygon fill="white" stroke="#bfbfbf" points="294,-168.5 294,-187.5 350,-187.5 350,-168.5 294,-168.5"/>
<text text-anchor="middle" x="322" y="-175.5" font-family="Helvetica,sans-Serif" font-size="10.00">algorithm</text>
</g>
<!-- Node5&#45;&gt;Node8 -->
<g id="edge10" class="edge"><title>Node5&#45;&gt;Node8</title>
<path fill="none" stroke="midnightblue" d="M539.381,-226.859C500.032,-218.89 429.365,-204.315 360.43,-188.511"/>
<polygon fill="midnightblue" stroke="midnightblue" points="360.806,-185.006 350.276,-186.17 359.234,-191.827 360.806,-185.006"/>
</g>
<!-- Node9 -->
<g id="node10" class="node"><title>Node9</title>
<polygon fill="white" stroke="#bfbfbf" points="860,-112.5 860,-131.5 912,-131.5 912,-112.5 860,-112.5"/>
<text text-anchor="middle" x="886" y="-119.5" font-family="Helvetica,sans-Serif" font-size="10.00">assert.h</text>
</g>
<!-- Node5&#45;&gt;Node9 -->
<g id="edge11" class="edge"><title>Node5&#45;&gt;Node9</title>
<path fill="none" stroke="midnightblue" d="M582.179,-224.264C604.561,-208.349 651.621,-175.574 670,-168 702.123,-154.762 797.182,-137.689 849.852,-128.864"/>
<polygon fill="midnightblue" stroke="midnightblue" points="850.499,-132.304 859.79,-127.212 849.351,-125.399 850.499,-132.304"/>
</g>
<!-- Node10 -->
<g id="node11" class="node"><title>Node10</title>
<polygon fill="white" stroke="#bfbfbf" points="367.5,-168.5 367.5,-187.5 396.5,-187.5 396.5,-168.5 367.5,-168.5"/>
<text text-anchor="middle" x="382" y="-175.5" font-family="Helvetica,sans-Serif" font-size="10.00">ios</text>
</g>
<!-- Node5&#45;&gt;Node10 -->
<g id="edge12" class="edge"><title>Node5&#45;&gt;Node10</title>
<path fill="none" stroke="midnightblue" d="M539.298,-225.67C507.897,-217.946 457.567,-204.94 406.129,-188.132"/>
<polygon fill="midnightblue" stroke="midnightblue" points="407.108,-184.77 396.515,-184.95 404.909,-191.415 407.108,-184.77"/>
</g>
<!-- Node11 -->
<g id="node12" class="node"><title>Node11</title>
<polygon fill="white" stroke="#bfbfbf" points="712,-168.5 712,-187.5 752,-187.5 752,-168.5 712,-168.5"/>
<text text-anchor="middle" x="732" y="-175.5" font-family="Helvetica,sans-Serif" font-size="10.00">limits</text>
</g>
<!-- Node5&#45;&gt;Node11 -->
<g id="edge13" class="edge"><title>Node5&#45;&gt;Node11</title>
<path fill="none" stroke="midnightblue" d="M595.669,-224.444C624.526,-214.825 671.329,-199.224 701.888,-189.037"/>
<polygon fill="midnightblue" stroke="midnightblue" points="703.2,-192.289 711.58,-185.807 700.986,-185.649 703.2,-192.289"/>
</g>
<!-- Node12 -->
<g id="node13" class="node"><title>Node12</title>
<polygon fill="white" stroke="#bfbfbf" points="414.5,-168.5 414.5,-187.5 443.5,-187.5 443.5,-168.5 414.5,-168.5"/>
<text text-anchor="middle" x="429" y="-175.5" font-family="Helvetica,sans-Serif" font-size="10.00">list</text>
</g>
<!-- Node5&#45;&gt;Node12 -->
<g id="edge14" class="edge"><title>Node5&#45;&gt;Node12</title>
<path fill="none" stroke="midnightblue" d="M547.356,-224.431C525.442,-216.124 491.051,-203.05 453.267,-188.47"/>
<polygon fill="midnightblue" stroke="midnightblue" points="454.183,-185.071 443.593,-184.732 451.66,-191.601 454.183,-185.071"/>
</g>
<!-- Node13 -->
<g id="node14" class="node"><title>Node13</title>
<polygon fill="white" stroke="#bfbfbf" points="461.5,-168.5 461.5,-187.5 496.5,-187.5 496.5,-168.5 461.5,-168.5"/>
<text text-anchor="middle" x="479" y="-175.5" font-family="Helvetica,sans-Serif" font-size="10.00">map</text>
</g>
<!-- Node5&#45;&gt;Node13 -->
<g id="edge15" class="edge"><title>Node5&#45;&gt;Node13</title>
<path fill="none" stroke="midnightblue" d="M555.379,-224.324C541.051,-215.822 518.987,-202.729 502.251,-192.797"/>
<polygon fill="midnightblue" stroke="midnightblue" points="503.97,-189.748 493.584,-187.655 500.398,-195.768 503.97,-189.748"/>
</g>
<!-- Node14 -->
<g id="node15" class="node"><title>Node14</title>
<polygon fill="white" stroke="#bfbfbf" points="118,-168.5 118,-187.5 170,-187.5 170,-168.5 118,-168.5"/>
<text text-anchor="middle" x="144" y="-175.5" font-family="Helvetica,sans-Serif" font-size="10.00">memory</text>
</g>
<!-- Node5&#45;&gt;Node14 -->
<g id="edge16" class="edge"><title>Node5&#45;&gt;Node14</title>
<path fill="none" stroke="midnightblue" d="M539.369,-230.911C474.729,-226.197 319.533,-213.265 180.284,-188.011"/>
<polygon fill="midnightblue" stroke="midnightblue" points="180.755,-184.539 170.287,-186.172 179.489,-191.424 180.755,-184.539"/>
</g>
<!-- Node15 -->
<g id="node16" class="node"><title>Node15</title>
<polygon fill="white" stroke="#bfbfbf" points="188,-168.5 188,-187.5 218,-187.5 218,-168.5 188,-168.5"/>
<text text-anchor="middle" x="203" y="-175.5" font-family="Helvetica,sans-Serif" font-size="10.00">set</text>
</g>
<!-- Node5&#45;&gt;Node15 -->
<g id="edge17" class="edge"><title>Node5&#45;&gt;Node15</title>
<path fill="none" stroke="midnightblue" d="M539.281,-231.325C480.39,-227.615 347.572,-216.829 228.111,-187.743"/>
<polygon fill="midnightblue" stroke="midnightblue" points="228.619,-184.263 218.069,-185.247 226.929,-191.056 228.619,-184.263"/>
</g>
<!-- Node5&#45;&gt;Node16 -->
<g id="edge19" class="edge"><title>Node5&#45;&gt;Node16</title>
<path fill="none" stroke="midnightblue" d="M600.575,-226.391C636.487,-218.499 698.062,-204.564 760.385,-188.035"/>
<polygon fill="midnightblue" stroke="midnightblue" points="761.633,-191.325 770.39,-185.361 759.825,-184.562 761.633,-191.325"/>
</g>
<!-- Node17 -->
<g id="node18" class="node"><title>Node17</title>
<polygon fill="white" stroke="#bfbfbf" points="768.5,-112.5 768.5,-131.5 817.5,-131.5 817.5,-112.5 768.5,-112.5"/>
<text text-anchor="middle" x="793" y="-119.5" font-family="Helvetica,sans-Serif" font-size="10.00">string.h</text>
</g>
<!-- Node5&#45;&gt;Node17 -->
<g id="edge20" class="edge"><title>Node5&#45;&gt;Node17</title>
<path fill="none" stroke="midnightblue" d="M575.794,-224.428C585.671,-210.479 607.132,-182.933 632,-168 671.686,-144.169 724.417,-132.565 758.533,-127.203"/>
<polygon fill="midnightblue" stroke="midnightblue" points="759.107,-130.657 768.488,-125.733 758.084,-123.732 759.107,-130.657"/>
</g>
<!-- Node18 -->
<g id="node19" class="node"><title>Node18</title>
<polygon fill="white" stroke="#bfbfbf" points="236,-168.5 236,-187.5 276,-187.5 276,-168.5 236,-168.5"/>
<text text-anchor="middle" x="256" y="-175.5" font-family="Helvetica,sans-Serif" font-size="10.00">utility</text>
</g>
<!-- Node5&#45;&gt;Node18 -->
<g id="edge21" class="edge"><title>Node5&#45;&gt;Node18</title>
<path fill="none" stroke="midnightblue" d="M539.352,-229.633C488.583,-223.741 383.741,-210.236 286.201,-187.993"/>
<polygon fill="midnightblue" stroke="midnightblue" points="286.711,-184.519 276.179,-185.671 285.131,-191.338 286.711,-184.519"/>
</g>
<!-- Node19 -->
<g id="node20" class="node"><title>Node19</title>
<g id="a_node20"><a xlink:href="prevector_8h.html" target="_top" xlink:title="prevector.h">
<polygon fill="white" stroke="black" points="514.5,-168.5 514.5,-187.5 579.5,-187.5 579.5,-168.5 514.5,-168.5"/>
<text text-anchor="middle" x="547" y="-175.5" font-family="Helvetica,sans-Serif" font-size="10.00">prevector.h</text>
</a>
</g>
</g>
<!-- Node5&#45;&gt;Node19 -->
<g id="edge23" class="edge"><title>Node5&#45;&gt;Node19</title>
<path fill="none" stroke="midnightblue" d="M566.202,-224.083C563.087,-216.77 558.577,-206.181 554.711,-197.103"/>
<polygon fill="midnightblue" stroke="midnightblue" points="557.866,-195.58 550.727,-187.751 551.426,-198.323 557.866,-195.58"/>
</g>
<!-- Node6&#45;&gt;Node1 -->
<g id="edge7" class="edge"><title>Node6&#45;&gt;Node1</title>
<path fill="none" stroke="midnightblue" d="M968.918,-112.39C955.438,-104.872 938.028,-92.5651 930,-76 922.542,-60.6104 929.926,-41.8274 937.744,-28.4176"/>
<polygon fill="midnightblue" stroke="midnightblue" points="940.863,-30.0371 943.308,-19.7281 934.968,-26.2625 940.863,-30.0371"/>
</g>
<!-- Node7 -->
<g id="node8" class="node"><title>Node7</title>
<g id="a_node8"><a xlink:href="byteswap_8h.html" target="_top" xlink:title="compat/byteswap.h">
<polygon fill="white" stroke="black" points="939,-56.5 939,-75.5 1041,-75.5 1041,-56.5 939,-56.5"/>
<text text-anchor="middle" x="990" y="-63.5" font-family="Helvetica,sans-Serif" font-size="10.00">compat/byteswap.h</text>
</a>
</g>
</g>
<!-- Node6&#45;&gt;Node7 -->
<g id="edge8" class="edge"><title>Node6&#45;&gt;Node7</title>
<path fill="none" stroke="midnightblue" d="M987.495,-112.083C987.889,-105.006 988.452,-94.8611 988.945,-85.9865"/>
<polygon fill="midnightblue" stroke="midnightblue" points="992.454,-85.9299 989.514,-75.7511 985.464,-85.5415 992.454,-85.9299"/>
</g>
<!-- Node7&#45;&gt;Node1 -->
<g id="edge9" class="edge"><title>Node7&#45;&gt;Node1</title>
<path fill="none" stroke="midnightblue" d="M983.395,-56.083C977.745,-48.4554 969.455,-37.2645 962.549,-27.9408"/>
<polygon fill="midnightblue" stroke="midnightblue" points="965.247,-25.7034 956.482,-19.7511 959.622,-29.87 965.247,-25.7034"/>
</g>
<!-- Node19&#45;&gt;Node1 -->
<g id="edge26" class="edge"><title>Node19&#45;&gt;Node1</title>
<path fill="none" stroke="midnightblue" d="M567.818,-168.425C634.282,-141.047 841.594,-55.6535 919.764,-23.4545"/>
<polygon fill="midnightblue" stroke="midnightblue" points="921.151,-26.6686 929.064,-19.6237 918.485,-20.1962 921.151,-26.6686"/>
</g>
<!-- Node19&#45;&gt;Node9 -->
<g id="edge24" class="edge"><title>Node19&#45;&gt;Node9</title>
<path fill="none" stroke="midnightblue" d="M579.505,-171.822C643.056,-161.699 783.349,-139.351 849.774,-128.77"/>
<polygon fill="midnightblue" stroke="midnightblue" points="850.453,-132.207 859.778,-127.177 849.352,-125.294 850.453,-132.207"/>
</g>
<!-- Node19&#45;&gt;Node17 -->
<g id="edge27" class="edge"><title>Node19&#45;&gt;Node17</title>
<path fill="none" stroke="midnightblue" d="M579.667,-169.829C626.18,-159.619 711.104,-140.977 758.567,-130.558"/>
<polygon fill="midnightblue" stroke="midnightblue" points="759.363,-133.967 768.38,-128.404 757.862,-127.13 759.363,-133.967"/>
</g>
<!-- Node19&#45;&gt;Node20 -->
<g id="edge25" class="edge"><title>Node19&#45;&gt;Node20</title>
<path fill="none" stroke="midnightblue" d="M514.05,-169.574C510.999,-168.997 507.947,-168.461 505,-168 349.825,-143.745 162.587,-130.03 86.5753,-125.107"/>
<polygon fill="midnightblue" stroke="midnightblue" points="86.3871,-121.588 76.1845,-124.444 85.9414,-128.574 86.3871,-121.588"/>
</g>
<!-- Node21 -->
<g id="node22" class="node"><title>Node21</title>
<polygon fill="white" stroke="#bfbfbf" points="523.5,-112.5 523.5,-131.5 570.5,-131.5 570.5,-112.5 523.5,-112.5"/>
<text text-anchor="middle" x="547" y="-119.5" font-family="Helvetica,sans-Serif" font-size="10.00">iterator</text>
</g>
<!-- Node19&#45;&gt;Node21 -->
<g id="edge28" class="edge"><title>Node19&#45;&gt;Node21</title>
<path fill="none" stroke="midnightblue" d="M547,-168.083C547,-161.006 547,-150.861 547,-141.986"/>
<polygon fill="midnightblue" stroke="midnightblue" points="550.5,-141.751 547,-131.751 543.5,-141.751 550.5,-141.751"/>
</g>
<!-- Node22&#45;&gt;Node1 -->
<g id="edge41" class="edge"><title>Node22&#45;&gt;Node1</title>
<path fill="none" stroke="midnightblue" d="M929.192,-231.627C990.731,-228.523 1107.53,-218.646 1133,-188 1167.78,-146.16 1203.56,-170.863 1069,-56 1044.93,-35.456 1010.54,-23.8128 984.906,-17.5422"/>
<polygon fill="midnightblue" stroke="midnightblue" points="985.391,-14.0627 974.862,-15.247 983.831,-20.8868 985.391,-14.0627"/>
</g>
<!-- Node22&#45;&gt;Node2 -->
<g id="edge44" class="edge"><title>Node22&#45;&gt;Node2</title>
<path fill="none" stroke="midnightblue" d="M907.227,-224.324C923.351,-215.703 948.3,-202.364 966.964,-192.386"/>
<polygon fill="midnightblue" stroke="midnightblue" points="968.644,-195.456 975.813,-187.655 965.344,-189.283 968.644,-195.456"/>
</g>
<!-- Node22&#45;&gt;Node9 -->
<g id="edge37" class="edge"><title>Node22&#45;&gt;Node9</title>
<path fill="none" stroke="midnightblue" d="M899.931,-224.423C911.502,-212.222 929.366,-189 922,-168 918.215,-157.209 910.633,-147.084 903.4,-139.181"/>
<polygon fill="midnightblue" stroke="midnightblue" points="905.667,-136.494 896.162,-131.815 900.674,-141.4 905.667,-136.494"/>
</g>
<!-- Node22&#45;&gt;Node11 -->
<g id="edge39" class="edge"><title>Node22&#45;&gt;Node11</title>
<path fill="none" stroke="midnightblue" d="M865.806,-224.444C837.484,-214.825 791.548,-199.224 761.554,-189.037"/>
<polygon fill="midnightblue" stroke="midnightblue" points="762.636,-185.708 752.042,-185.807 760.385,-192.337 762.636,-185.708"/>
</g>
<!-- Node22&#45;&gt;Node16 -->
<g id="edge43" class="edge"><title>Node22&#45;&gt;Node16</title>
<path fill="none" stroke="midnightblue" d="M874.933,-224.324C859.042,-215.743 834.493,-202.486 816.042,-192.522"/>
<polygon fill="midnightblue" stroke="midnightblue" points="817.489,-189.326 807.027,-187.655 814.163,-195.486 817.489,-189.326"/>
</g>
<!-- Node22&#45;&gt;Node17 -->
<g id="edge42" class="edge"><title>Node22&#45;&gt;Node17</title>
<path fill="none" stroke="midnightblue" d="M883.31,-224.368C866.994,-206.055 828.68,-163.049 807.577,-139.362"/>
<polygon fill="midnightblue" stroke="midnightblue" points="809.92,-136.73 800.654,-131.591 804.693,-141.386 809.92,-136.73"/>
</g>
<!-- Node22&#45;&gt;Node19 -->
<g id="edge36" class="edge"><title>Node22&#45;&gt;Node19</title>
<path fill="none" stroke="midnightblue" d="M852.872,-227.015C788.146,-216.854 657.23,-196.303 589.593,-185.686"/>
<polygon fill="midnightblue" stroke="midnightblue" points="590.116,-182.226 579.695,-184.132 589.031,-189.141 590.116,-182.226"/>
</g>
<!-- Node23 -->
<g id="node24" class="node"><title>Node23</title>
<g id="a_node24"><a xlink:href="common_8h.html" target="_top" xlink:title="crypto/common.h">
<polygon fill="white" stroke="black" points="1032,-168.5 1032,-187.5 1124,-187.5 1124,-168.5 1032,-168.5"/>
<text text-anchor="middle" x="1078" y="-175.5" font-family="Helvetica,sans-Serif" font-size="10.00">crypto/common.h</text>
</a>
</g>
</g>
<!-- Node22&#45;&gt;Node23 -->
<g id="edge32" class="edge"><title>Node22&#45;&gt;Node23</title>
<path fill="none" stroke="midnightblue" d="M920.631,-224.444C952.5,-215.241 1003.33,-200.562 1038.56,-190.388"/>
<polygon fill="midnightblue" stroke="midnightblue" points="1039.87,-193.653 1048.51,-187.516 1037.93,-186.928 1039.87,-193.653"/>
</g>
<!-- Node24 -->
<g id="node25" class="node"><title>Node24</title>
<polygon fill="white" stroke="#bfbfbf" points="868.5,-168.5 868.5,-187.5 913.5,-187.5 913.5,-168.5 868.5,-168.5"/>
<text text-anchor="middle" x="891" y="-175.5" font-family="Helvetica,sans-Serif" font-size="10.00">climits</text>
</g>
<!-- Node22&#45;&gt;Node24 -->
<g id="edge38" class="edge"><title>Node22&#45;&gt;Node24</title>
<path fill="none" stroke="midnightblue" d="M891,-224.083C891,-217.006 891,-206.861 891,-197.986"/>
<polygon fill="midnightblue" stroke="midnightblue" points="894.5,-197.751 891,-187.751 887.5,-197.751 894.5,-197.751"/>
</g>
<!-- Node25 -->
<g id="node26" class="node"><title>Node25</title>
<polygon fill="white" stroke="#bfbfbf" points="1180.5,-168.5 1180.5,-187.5 1239.5,-187.5 1239.5,-168.5 1180.5,-168.5"/>
<text text-anchor="middle" x="1210" y="-175.5" font-family="Helvetica,sans-Serif" font-size="10.00">stdexcept</text>
</g>
<!-- Node22&#45;&gt;Node25 -->
<g id="edge40" class="edge"><title>Node22&#45;&gt;Node25</title>
<path fill="none" stroke="midnightblue" d="M929.342,-227.216C982.562,-219.076 1081.78,-203.497 1166,-188 1167.44,-187.735 1168.9,-187.461 1170.38,-187.181"/>
<polygon fill="midnightblue" stroke="midnightblue" points="1171.07,-190.612 1180.21,-185.26 1169.72,-183.742 1171.07,-190.612"/>
</g>
<!-- Node23&#45;&gt;Node1 -->
<g id="edge33" class="edge"><title>Node23&#45;&gt;Node1</title>
<path fill="none" stroke="midnightblue" d="M1078.37,-168.259C1078.81,-146.647 1077.04,-89.9955 1049,-56 1032.72,-36.2599 1005.93,-24.8085 984.318,-18.4022"/>
<polygon fill="midnightblue" stroke="midnightblue" points="985.072,-14.9802 974.504,-15.7253 983.23,-21.7335 985.072,-14.9802"/>
</g>
<!-- Node23&#45;&gt;Node6 -->
<g id="edge35" class="edge"><title>Node23&#45;&gt;Node6</title>
<path fill="none" stroke="midnightblue" d="M1063.38,-168.324C1049.05,-159.822 1026.99,-146.729 1010.25,-136.797"/>
<polygon fill="midnightblue" stroke="midnightblue" points="1011.97,-133.748 1001.58,-131.655 1008.4,-139.768 1011.97,-133.748"/>
</g>
<!-- Node23&#45;&gt;Node17 -->
<g id="edge34" class="edge"><title>Node23&#45;&gt;Node17</title>
<path fill="none" stroke="midnightblue" d="M1032.84,-168.444C975.867,-157.648 879.125,-139.318 827.642,-129.564"/>
<polygon fill="midnightblue" stroke="midnightblue" points="828.15,-126.098 817.673,-127.675 826.847,-132.975 828.15,-126.098"/>
</g>
<!-- Node26&#45;&gt;Node1 -->
<g id="edge50" class="edge"><title>Node26&#45;&gt;Node1</title>
<path fill="none" stroke="midnightblue" d="M1091.18,-231.025C1141.89,-226.822 1245.25,-215.071 1267,-188 1272.57,-181.071 1271.25,-175.809 1267,-168 1209.51,-62.2866 1054.31,-26.423 984.662,-15.4138"/>
<polygon fill="midnightblue" stroke="midnightblue" points="985.045,-11.9322 974.637,-13.9088 984.006,-18.8546 985.045,-11.9322"/>
</g>
<!-- Node26&#45;&gt;Node2 -->
<g id="edge52" class="edge"><title>Node26&#45;&gt;Node2</title>
<path fill="none" stroke="midnightblue" d="M1051.59,-224.324C1040.89,-216.185 1024.66,-203.839 1011.84,-194.087"/>
<polygon fill="midnightblue" stroke="midnightblue" points="1013.69,-191.102 1003.61,-187.834 1009.46,-196.673 1013.69,-191.102"/>
</g>
<!-- Node26&#45;&gt;Node9 -->
<g id="edge47" class="edge"><title>Node26&#45;&gt;Node9</title>
<path fill="none" stroke="midnightblue" d="M1091.26,-232.359C1153.53,-230.009 1293.55,-219.058 1248,-168 1201.09,-115.428 1002.65,-142.633 933,-132 929.528,-131.47 925.92,-130.869 922.317,-130.236"/>
<polygon fill="midnightblue" stroke="midnightblue" points="922.757,-126.758 912.289,-128.396 921.493,-133.644 922.757,-126.758"/>
</g>
<!-- Node26&#45;&gt;Node16 -->
<g id="edge51" class="edge"><title>Node26&#45;&gt;Node16</title>
<path fill="none" stroke="midnightblue" d="M1034.92,-227.424C983.507,-217.218 874.68,-195.613 821.517,-185.059"/>
<polygon fill="midnightblue" stroke="midnightblue" points="822.151,-181.616 811.66,-183.102 820.787,-188.482 822.151,-181.616"/>
</g>
<!-- Node26&#45;&gt;Node23 -->
<g id="edge53" class="edge"><title>Node26&#45;&gt;Node23</title>
<path fill="none" stroke="midnightblue" d="M1065.48,-224.083C1067.49,-216.849 1070.39,-206.409 1072.89,-197.397"/>
<polygon fill="midnightblue" stroke="midnightblue" points="1076.26,-198.323 1075.57,-187.751 1069.52,-196.449 1076.26,-198.323"/>
</g>
<!-- Node26&#45;&gt;Node25 -->
<g id="edge49" class="edge"><title>Node26&#45;&gt;Node25</title>
<path fill="none" stroke="midnightblue" d="M1086.29,-224.444C1110.81,-215.438 1149.6,-201.189 1177.2,-191.049"/>
<polygon fill="midnightblue" stroke="midnightblue" points="1178.64,-194.25 1186.82,-187.516 1176.22,-187.679 1178.64,-194.25"/>
</g>
<!-- Node27 -->
<g id="node28" class="node"><title>Node27</title>
<polygon fill="white" stroke="#bfbfbf" points="1334,-168.5 1334,-187.5 1380,-187.5 1380,-168.5 1334,-168.5"/>
<text text-anchor="middle" x="1357" y="-175.5" font-family="Helvetica,sans-Serif" font-size="10.00">cstring</text>
</g>
<!-- Node26&#45;&gt;Node27 -->
<g id="edge48" class="edge"><title>Node26&#45;&gt;Node27</title>
<path fill="none" stroke="midnightblue" d="M1091.26,-228.671C1138.7,-221.264 1237.31,-205.278 1320,-188 1321.27,-187.734 1322.57,-187.455 1323.88,-187.168"/>
<polygon fill="midnightblue" stroke="midnightblue" points="1325,-190.502 1333.96,-184.85 1323.43,-183.68 1325,-190.502"/>
</g>
<!-- Node28&#45;&gt;Node3 -->
<g id="edge55" class="edge"><title>Node28&#45;&gt;Node3</title>
<path fill="none" stroke="midnightblue" d="M902.022,-392.324C888.45,-383.9 867.62,-370.971 851.675,-361.074"/>
<polygon fill="midnightblue" stroke="midnightblue" points="853.286,-357.954 842.943,-355.655 849.594,-363.902 853.286,-357.954"/>
</g>
<!-- Node28&#45;&gt;Node5 -->
<g id="edge56" class="edge"><title>Node28&#45;&gt;Node5</title>
<path fill="none" stroke="midnightblue" d="M915.939,-392.125C915.354,-378.249 912.18,-351.412 897,-336 818.675,-256.476 679.218,-239.277 610.525,-235.755"/>
<polygon fill="midnightblue" stroke="midnightblue" points="610.667,-232.258 600.523,-235.314 610.359,-239.251 610.667,-232.258"/>
</g>
<!-- Node28&#45;&gt;Node26 -->
<g id="edge57" class="edge"><title>Node28&#45;&gt;Node26</title>
<path fill="none" stroke="midnightblue" d="M923.903,-392.075C947.543,-365.38 1017.96,-285.865 1048.55,-251.322"/>
<polygon fill="midnightblue" stroke="midnightblue" points="1051.4,-253.375 1055.41,-243.568 1046.16,-248.734 1051.4,-253.375"/>
</g>
</g>
</svg>
        <g id="navigator" transform="translate(0 0)" fill="#404254">
                <rect fill="#f2f5e9" fill-opacity="0.5" stroke="#606060" stroke-width=".5" x="0" y="0" width="60" height="60"/>
                <use id="zoomplus" xlink:href="#zoomPlus" x="17" y="9" onmousedown="handleZoom(evt,'in')"/>
                <use id="zoomminus" xlink:href="#zoomMin" x="42" y="9" onmousedown="handleZoom(evt,'out')"/>
                <use id="reset" xlink:href="#resetDef" x="30" y="36" onmousedown="handleReset()"/>
                <g id="arrowUp" xlink:href="#dirArrow" transform="translate(30 24)" onmousedown="handlePan(0,-1)">
                  <use xlink:href="#rim" fill="#404040">
                        <set attributeName="fill" to="#808080" begin="arrowUp.mouseover" end="arrowUp.mouseout"/>
                  </use>
                  <path fill="none" stroke="white" stroke-width="1.5" d="M0,-3.0v7 M-2.5,-0.5L0,-3.0L2.5,-0.5"/>
                </g>
                <g id="arrowRight" xlink:href="#dirArrow" transform="rotate(90) translate(36 -43)" onmousedown="handlePan(1,0)">
                  <use xlink:href="#rim" fill="#404040">
                        <set attributeName="fill" to="#808080" begin="arrowRight.mouseover" end="arrowRight.mouseout"/>
                  </use>
                  <path fill="none" stroke="white" stroke-width="1.5" d="M0,-3.0v7 M-2.5,-0.5L0,-3.0L2.5,-0.5"/>
                </g>
                <g id="arrowDown" xlink:href="#dirArrow" transform="rotate(180) translate(-30 -48)" onmousedown="handlePan(0,1)">
                  <use xlink:href="#rim" fill="#404040">
                        <set attributeName="fill" to="#808080" begin="arrowDown.mouseover" end="arrowDown.mouseout"/>
                  </use>
                  <path fill="none" stroke="white" stroke-width="1.5" d="M0,-3.0v7 M-2.5,-0.5L0,-3.0L2.5,-0.5"/>
                </g>
                <g id="arrowLeft" xlink:href="#dirArrow" transform="rotate(270) translate(-36 17)" onmousedown="handlePan(-1,0)">
                  <use xlink:href="#rim" fill="#404040">
                        <set attributeName="fill" to="#808080" begin="arrowLeft.mouseover" end="arrowLeft.mouseout"/>
                  </use>
                  <path fill="none" stroke="white" stroke-width="1.5" d="M0,-3.0v7 M-2.5,-0.5L0,-3.0L2.5,-0.5"/>
                </g>
        </g>
        <svg viewBox="0 0 15 15" width="100%" height="30px" preserveAspectRatio="xMaxYMin meet">
         <g id="arrow_out" transform="scale(0.3 0.3)">
          <a xlink:href="merkle_8h__incl_org.svg" target="_base">
           <rect id="button" ry="5" rx="5" y="6" x="6" height="38" width="38"
                fill="#f2f5e9" fill-opacity="0.5" stroke="#606060" stroke-width="1.0"/>
           <path id="arrow"
             d="M 11.500037,31.436501 C 11.940474,20.09759 22.043105,11.32322 32.158766,21.979434 L 37.068811,17.246167 C 37.068811,17.246167 37.088388,32 37.088388,32 L 22.160133,31.978069 C 22.160133,31.978069 26.997745,27.140456 26.997745,27.140456 C 18.528582,18.264221 13.291696,25.230495 11.500037,31.436501 z"
             style="fill:#404040;"/>
          </a>
         </g>
        </svg>
</svg>
