<?xml version="1.0" encoding="UTF-8" standalone="no"?>
<!DOCTYPE svg PUBLIC "-//W3C//DTD SVG 1.1//EN"
 "http://www.w3.org/Graphics/SVG/1.1/DTD/svg11.dtd">
<!-- Generated by graphviz version 2.36.0 (20140111.2315)
 -->
<!-- Title: src/messagesigner.h Pages: 1 -->
<svg width="1753pt" height="84pt"
 viewBox="0.00 0.00 1753.00 84.00" xmlns="http://www.w3.org/2000/svg" xmlns:xlink="http://www.w3.org/1999/xlink">
<g id="graph0" class="graph" transform="scale(1 1) rotate(0) translate(4 80)">
<title>src/messagesigner.h</title>
<polygon fill="white" stroke="none" points="-4,4 -4,-80 1749,-80 1749,4 -4,4"/>
<!-- Node48 -->
<g id="node1" class="node"><title>Node48</title>
<polygon fill="#bfbfbf" stroke="black" points="823.5,-56.5 823.5,-75.5 930.5,-75.5 930.5,-56.5 823.5,-56.5"/>
<text text-anchor="middle" x="877" y="-63.5" font-family="Helvetica,sans-Serif" font-size="10.00">src/messagesigner.h</text>
</g>
<!-- Node49 -->
<g id="node2" class="node"><title>Node49</title>
<g id="a_node2"><a xlink:href="providertx_8cpp.html" target="_top" xlink:title="src/evo/providertx.cpp">
<polygon fill="white" stroke="black" points="-0.5,-0.5 -0.5,-19.5 112.5,-19.5 112.5,-0.5 -0.5,-0.5"/>
<text text-anchor="middle" x="56" y="-7.5" font-family="Helvetica,sans-Serif" font-size="10.00">src/evo/providertx.cpp</text>
</a>
</g>
</g>
<!-- Node48&#45;&gt;Node49 -->
<g id="edge1" class="edge"><title>Node48&#45;&gt;Node49</title>
<path fill="none" stroke="midnightblue" d="M813.061,-62.8812C682.666,-58.1884 376.745,-45.2779 121,-20 118.279,-19.7311 115.497,-19.4335 112.689,-19.1149"/>
<polygon fill="midnightblue" stroke="midnightblue" points="813.146,-66.3864 823.264,-63.2445 813.395,-59.3908 813.146,-66.3864"/>
</g>
<!-- Node50 -->
<g id="node3" class="node"><title>Node50</title>
<g id="a_node3"><a xlink:href="governance-object_8cpp.html" target="_top" xlink:title="src/governance&#45;object.cpp">
<polygon fill="white" stroke="black" points="130.5,-0.5 130.5,-19.5 261.5,-19.5 261.5,-0.5 130.5,-0.5"/>
<text text-anchor="middle" x="196" y="-7.5" font-family="Helvetica,sans-Serif" font-size="10.00">src/governance&#45;object.cpp</text>
</a>
</g>
</g>
<!-- Node48&#45;&gt;Node50 -->
<g id="edge2" class="edge"><title>Node48&#45;&gt;Node50</title>
<path fill="none" stroke="midnightblue" d="M813.118,-61.2113C702.537,-54.4395 468.343,-39.1577 271,-20 267.998,-19.7086 264.93,-19.3968 261.832,-19.0708"/>
<polygon fill="midnightblue" stroke="midnightblue" points="813.234,-64.7248 823.428,-61.8399 813.66,-57.7377 813.234,-64.7248"/>
</g>
<!-- Node51 -->
<g id="node4" class="node"><title>Node51</title>
<g id="a_node4"><a xlink:href="governance-vote_8cpp.html" target="_top" xlink:title="src/governance&#45;vote.cpp">
<polygon fill="white" stroke="black" points="280,-0.5 280,-19.5 404,-19.5 404,-0.5 280,-0.5"/>
<text text-anchor="middle" x="342" y="-7.5" font-family="Helvetica,sans-Serif" font-size="10.00">src/governance&#45;vote.cpp</text>
</a>
</g>
</g>
<!-- Node48&#45;&gt;Node51 -->
<g id="edge3" class="edge"><title>Node48&#45;&gt;Node51</title>
<path fill="none" stroke="midnightblue" d="M813.374,-59.4261C723.913,-51.4532 555.89,-35.9819 413,-20 410.16,-19.6823 407.257,-19.3491 404.326,-19.0057"/>
<polygon fill="midnightblue" stroke="midnightblue" points="813.09,-62.9147 823.361,-60.3141 813.71,-55.9422 813.09,-62.9147"/>
</g>
<!-- Node52 -->
<g id="node5" class="node"><title>Node52</title>
<g id="a_node5"><a xlink:href="governance_8cpp.html" target="_top" xlink:title="src/governance.cpp">
<polygon fill="white" stroke="black" points="422,-0.5 422,-19.5 524,-19.5 524,-0.5 422,-0.5"/>
<text text-anchor="middle" x="473" y="-7.5" font-family="Helvetica,sans-Serif" font-size="10.00">src/governance.cpp</text>
</a>
</g>
</g>
<!-- Node48&#45;&gt;Node52 -->
<g id="edge4" class="edge"><title>Node48&#45;&gt;Node52</title>
<path fill="none" stroke="midnightblue" d="M813.045,-56.9992C743.933,-48.2679 630.582,-33.6999 533,-20 530.079,-19.59 527.08,-19.1619 524.054,-18.7248"/>
<polygon fill="midnightblue" stroke="midnightblue" points="812.972,-60.5176 823.331,-58.2968 813.848,-53.5726 812.972,-60.5176"/>
</g>
<!-- Node53 -->
<g id="node6" class="node"><title>Node53</title>
<g id="a_node6"><a xlink:href="init_8cpp.html" target="_top" xlink:title="src/init.cpp">
<polygon fill="white" stroke="black" points="542.5,-0.5 542.5,-19.5 607.5,-19.5 607.5,-0.5 542.5,-0.5"/>
<text text-anchor="middle" x="575" y="-7.5" font-family="Helvetica,sans-Serif" font-size="10.00">src/init.cpp</text>
</a>
</g>
</g>
<!-- Node48&#45;&gt;Node53 -->
<g id="edge5" class="edge"><title>Node48&#45;&gt;Node53</title>
<path fill="none" stroke="midnightblue" d="M814.222,-54.8521C761.482,-46.1552 684.18,-33.0063 617,-20 613.925,-19.4047 610.729,-18.7625 607.533,-18.1047"/>
<polygon fill="midnightblue" stroke="midnightblue" points="813.668,-58.308 824.103,-56.477 814.804,-51.4008 813.668,-58.308"/>
</g>
<!-- Node54 -->
<g id="node7" class="node"><title>Node54</title>
<g id="a_node7"><a xlink:href="instantx_8cpp.html" target="_top" xlink:title="src/instantx.cpp">
<polygon fill="white" stroke="black" points="626,-0.5 626,-19.5 712,-19.5 712,-0.5 626,-0.5"/>
<text text-anchor="middle" x="669" y="-7.5" font-family="Helvetica,sans-Serif" font-size="10.00">src/instantx.cpp</text>
</a>
</g>
</g>
<!-- Node48&#45;&gt;Node54 -->
<g id="edge6" class="edge"><title>Node48&#45;&gt;Node54</title>
<path fill="none" stroke="midnightblue" d="M834.222,-53.8941C794.942,-43.6966 737.571,-28.802 701.804,-19.5164"/>
<polygon fill="midnightblue" stroke="midnightblue" points="833.483,-57.3183 844.042,-56.4435 835.242,-50.5429 833.483,-57.3183"/>
</g>
<!-- Node55 -->
<g id="node8" class="node"><title>Node55</title>
<g id="a_node8"><a xlink:href="masternode-payments_8cpp.html" target="_top" xlink:title="src/masternode&#45;payments.cpp">
<polygon fill="white" stroke="black" points="730.5,-0.5 730.5,-19.5 879.5,-19.5 879.5,-0.5 730.5,-0.5"/>
<text text-anchor="middle" x="805" y="-7.5" font-family="Helvetica,sans-Serif" font-size="10.00">src/masternode&#45;payments.cpp</text>
</a>
</g>
</g>
<!-- Node48&#45;&gt;Node55 -->
<g id="edge7" class="edge"><title>Node48&#45;&gt;Node55</title>
<path fill="none" stroke="midnightblue" d="M857.134,-50.1008C844.177,-40.3824 827.703,-28.0269 816.779,-19.8339"/>
<polygon fill="midnightblue" stroke="midnightblue" points="855.332,-53.1239 865.432,-56.324 859.532,-47.5239 855.332,-53.1239"/>
</g>
<!-- Node56 -->
<g id="node9" class="node"><title>Node56</title>
<g id="a_node9"><a xlink:href="masternode_8cpp.html" target="_top" xlink:title="src/masternode.cpp">
<polygon fill="white" stroke="black" points="897.5,-0.5 897.5,-19.5 1000.5,-19.5 1000.5,-0.5 897.5,-0.5"/>
<text text-anchor="middle" x="949" y="-7.5" font-family="Helvetica,sans-Serif" font-size="10.00">src/masternode.cpp</text>
</a>
</g>
</g>
<!-- Node48&#45;&gt;Node56 -->
<g id="edge8" class="edge"><title>Node48&#45;&gt;Node56</title>
<path fill="none" stroke="midnightblue" d="M896.866,-50.1008C909.823,-40.3824 926.297,-28.0269 937.221,-19.8339"/>
<polygon fill="midnightblue" stroke="midnightblue" points="894.468,-47.5239 888.568,-56.324 898.668,-53.1239 894.468,-47.5239"/>
</g>
<!-- Node57 -->
<g id="node10" class="node"><title>Node57</title>
<g id="a_node10"><a xlink:href="masternodeman_8cpp.html" target="_top" xlink:title="src/masternodeman.cpp">
<polygon fill="white" stroke="black" points="1019,-0.5 1019,-19.5 1141,-19.5 1141,-0.5 1019,-0.5"/>
<text text-anchor="middle" x="1080" y="-7.5" font-family="Helvetica,sans-Serif" font-size="10.00">src/masternodeman.cpp</text>
</a>
</g>
</g>
<!-- Node48&#45;&gt;Node57 -->
<g id="edge9" class="edge"><title>Node48&#45;&gt;Node57</title>
<path fill="none" stroke="midnightblue" d="M918.994,-53.8291C957.323,-43.6333 1013.15,-28.7823 1047.98,-19.5164"/>
<polygon fill="midnightblue" stroke="midnightblue" points="917.93,-50.4904 909.166,-56.4435 919.73,-57.2551 917.93,-50.4904"/>
</g>
<!-- Node58 -->
<g id="node11" class="node"><title>Node58</title>
<g id="a_node11"><a xlink:href="messagesigner_8cpp.html" target="_top" xlink:title="src/messagesigner.cpp">
<polygon fill="white" stroke="black" points="1159,-0.5 1159,-19.5 1277,-19.5 1277,-0.5 1159,-0.5"/>
<text text-anchor="middle" x="1218" y="-7.5" font-family="Helvetica,sans-Serif" font-size="10.00">src/messagesigner.cpp</text>
</a>
</g>
</g>
<!-- Node48&#45;&gt;Node58 -->
<g id="edge10" class="edge"><title>Node48&#45;&gt;Node58</title>
<path fill="none" stroke="midnightblue" d="M940.685,-54.9149C1005.06,-44.7203 1103.46,-29.1386 1164.09,-19.5364"/>
<polygon fill="midnightblue" stroke="midnightblue" points="939.986,-51.482 930.656,-56.5031 941.081,-58.3958 939.986,-51.482"/>
</g>
<!-- Node59 -->
<g id="node12" class="node"><title>Node59</title>
<g id="a_node12"><a xlink:href="privatesend_8cpp.html" target="_top" xlink:title="src/privatesend.cpp">
<polygon fill="white" stroke="black" points="1295,-0.5 1295,-19.5 1397,-19.5 1397,-0.5 1295,-0.5"/>
<text text-anchor="middle" x="1346" y="-7.5" font-family="Helvetica,sans-Serif" font-size="10.00">src/privatesend.cpp</text>
</a>
</g>
</g>
<!-- Node48&#45;&gt;Node59 -->
<g id="edge11" class="edge"><title>Node48&#45;&gt;Node59</title>
<path fill="none" stroke="midnightblue" d="M940.659,-58.7786C1021.18,-50.7293 1164.06,-35.8477 1286,-20 1288.92,-19.6199 1291.93,-19.2153 1294.96,-18.7961"/>
<polygon fill="midnightblue" stroke="midnightblue" points="940.28,-55.299 930.676,-59.7735 940.974,-62.2645 940.28,-55.299"/>
</g>
<!-- Node60 -->
<g id="node13" class="node"><title>Node60</title>
<g id="a_node13"><a xlink:href="rpc_2governance_8cpp.html" target="_top" xlink:title="src/rpc/governance.cpp">
<polygon fill="white" stroke="black" points="1415.5,-0.5 1415.5,-19.5 1534.5,-19.5 1534.5,-0.5 1415.5,-0.5"/>
<text text-anchor="middle" x="1475" y="-7.5" font-family="Helvetica,sans-Serif" font-size="10.00">src/rpc/governance.cpp</text>
</a>
</g>
</g>
<!-- Node48&#45;&gt;Node60 -->
<g id="edge12" class="edge"><title>Node48&#45;&gt;Node60</title>
<path fill="none" stroke="midnightblue" d="M940.835,-60.4468C1040.19,-53.1598 1237.79,-37.8658 1405,-20 1408.41,-19.6355 1411.91,-19.2431 1415.45,-18.8332"/>
<polygon fill="midnightblue" stroke="midnightblue" points="940.379,-56.9706 930.661,-61.1901 940.889,-63.952 940.379,-56.9706"/>
</g>
<!-- Node61 -->
<g id="node14" class="node"><title>Node61</title>
<g id="a_node14"><a xlink:href="rpcevo_8cpp.html" target="_top" xlink:title="src/rpc/rpcevo.cpp">
<polygon fill="white" stroke="black" points="1553,-0.5 1553,-19.5 1651,-19.5 1651,-0.5 1553,-0.5"/>
<text text-anchor="middle" x="1602" y="-7.5" font-family="Helvetica,sans-Serif" font-size="10.00">src/rpc/rpcevo.cpp</text>
</a>
</g>
</g>
<!-- Node48&#45;&gt;Node61 -->
<g id="edge13" class="edge"><title>Node48&#45;&gt;Node61</title>
<path fill="none" stroke="midnightblue" d="M940.666,-62.4786C1059.38,-57.3821 1322.49,-44.2248 1543,-20 1546.19,-19.6492 1549.48,-19.2514 1552.79,-18.8232"/>
<polygon fill="midnightblue" stroke="midnightblue" points="940.501,-58.9824 930.658,-62.9038 940.798,-65.9761 940.501,-58.9824"/>
</g>
<!-- Node62 -->
<g id="node15" class="node"><title>Node62</title>
<g id="a_node15"><a xlink:href="spork_8cpp.html" target="_top" xlink:title="src/spork.cpp">
<polygon fill="white" stroke="black" points="1669,-0.5 1669,-19.5 1745,-19.5 1745,-0.5 1669,-0.5"/>
<text text-anchor="middle" x="1707" y="-7.5" font-family="Helvetica,sans-Serif" font-size="10.00">src/spork.cpp</text>
</a>
</g>
</g>
<!-- Node48&#45;&gt;Node62 -->
<g id="edge14" class="edge"><title>Node48&#45;&gt;Node62</title>
<path fill="none" stroke="midnightblue" d="M940.847,-64.0872C1074.55,-61.5693 1393.58,-52.3854 1659,-20 1662.2,-19.6098 1665.5,-19.1371 1668.82,-18.615"/>
<polygon fill="midnightblue" stroke="midnightblue" points="940.714,-60.5889 930.779,-64.2707 940.841,-67.5878 940.714,-60.5889"/>
</g>
</g>
</svg>
