<?xml version="1.0" encoding="UTF-8" standalone="no"?>
<!DOCTYPE svg PUBLIC "-//W3C//DTD SVG 1.1//EN"
 "http://www.w3.org/Graphics/SVG/1.1/DTD/svg11.dtd">
<!-- Generated by graphviz version 2.36.0 (20140111.2315)
 -->
<!-- Title: src/miner.h Pages: 1 -->
<svg width="282pt" height="84pt"
 viewBox="0.00 0.00 282.00 84.00" xmlns="http://www.w3.org/2000/svg" xmlns:xlink="http://www.w3.org/1999/xlink">
<g id="graph0" class="graph" transform="scale(1 1) rotate(0) translate(4 80)">
<title>src/miner.h</title>
<polygon fill="white" stroke="none" points="-4,4 -4,-80 278,-80 278,4 -4,4"/>
<!-- Node94 -->
<g id="node1" class="node"><title>Node94</title>
<polygon fill="#bfbfbf" stroke="black" points="88.5,-56.5 88.5,-75.5 153.5,-75.5 153.5,-56.5 88.5,-56.5"/>
<text text-anchor="middle" x="121" y="-63.5" font-family="Helvetica,sans-Serif" font-size="10.00">src/miner.h</text>
</g>
<!-- Node95 -->
<g id="node2" class="node"><title>Node95</title>
<g id="a_node2"><a xlink:href="init_8cpp.html" target="_top" xlink:title="src/init.cpp">
<polygon fill="white" stroke="black" points="-0.5,-0.5 -0.5,-19.5 64.5,-19.5 64.5,-0.5 -0.5,-0.5"/>
<text text-anchor="middle" x="32" y="-7.5" font-family="Helvetica,sans-Serif" font-size="10.00">src/init.cpp</text>
</a>
</g>
</g>
<!-- Node94&#45;&gt;Node95 -->
<g id="edge1" class="edge"><title>Node94&#45;&gt;Node95</title>
<path fill="none" stroke="midnightblue" d="M97.762,-50.9005C81.4422,-40.9986 60.1348,-28.0705 46.2639,-19.6545"/>
<polygon fill="midnightblue" stroke="midnightblue" points="96.3356,-54.1289 106.701,-56.324 99.9668,-48.1444 96.3356,-54.1289"/>
</g>
<!-- Node96 -->
<g id="node3" class="node"><title>Node96</title>
<g id="a_node3"><a xlink:href="miner_8cpp.html" target="_top" xlink:title="src/miner.cpp">
<polygon fill="white" stroke="black" points="83,-0.5 83,-19.5 159,-19.5 159,-0.5 83,-0.5"/>
<text text-anchor="middle" x="121" y="-7.5" font-family="Helvetica,sans-Serif" font-size="10.00">src/miner.cpp</text>
</a>
</g>
</g>
<!-- Node94&#45;&gt;Node96 -->
<g id="edge2" class="edge"><title>Node94&#45;&gt;Node96</title>
<path fill="none" stroke="midnightblue" d="M121,-45.8045C121,-36.9102 121,-26.7798 121,-19.7511"/>
<polygon fill="midnightblue" stroke="midnightblue" points="117.5,-46.083 121,-56.083 124.5,-46.083 117.5,-46.083"/>
</g>
<!-- Node97 -->
<g id="node4" class="node"><title>Node97</title>
<g id="a_node4"><a xlink:href="mining_8cpp.html" target="_top" xlink:title="src/rpc/mining.cpp">
<polygon fill="white" stroke="black" points="177.5,-0.5 177.5,-19.5 274.5,-19.5 274.5,-0.5 177.5,-0.5"/>
<text text-anchor="middle" x="226" y="-7.5" font-family="Helvetica,sans-Serif" font-size="10.00">src/rpc/mining.cpp</text>
</a>
</g>
</g>
<!-- Node94&#45;&gt;Node97 -->
<g id="edge3" class="edge"><title>Node94&#45;&gt;Node97</title>
<path fill="none" stroke="midnightblue" d="M146.81,-51.7261C166.253,-41.7271 192.348,-28.3065 209.172,-19.6545"/>
<polygon fill="midnightblue" stroke="midnightblue" points="145.162,-48.6379 137.87,-56.324 148.364,-54.8629 145.162,-48.6379"/>
</g>
</g>
</svg>
