<?xml version="1.0" encoding="UTF-8" standalone="no"?>
<!DOCTYPE svg PUBLIC "-//W3C//DTD SVG 1.1//EN"
 "http://www.w3.org/Graphics/SVG/1.1/DTD/svg11.dtd">
<!-- Generated by graphviz version 2.36.0 (20140111.2315)
 -->
<!-- Title: src/net_processing.h Pages: 1 -->
<!--zoomable 196 -->
<svg id="main" version="1.1" xmlns="http://www.w3.org/2000/svg" xmlns:xlink="http://www.w3.org/1999/xlink" xml:space="preserve" onload="init(evt)">
<style type="text/css"><![CDATA[
.edge:hover path { stroke: red; }
.edge:hover polygon { stroke: red; fill: red; }
]]></style>
<script type="text/javascript"><![CDATA[
var edges = document.getElementsByTagName('g');
if (edges && edges.length) {
  for (var i=0;i<edges.length;i++) {
    if (edges[i].id.substr(0,4)=='edge') {
      edges[i].setAttribute('class','edge');
    }
  }
}
]]></script>
        <defs>
                <circle id="rim" cx="0" cy="0" r="7"/>
                <circle id="rim2" cx="0" cy="0" r="3.5"/>
                <g id="zoomPlus">
                        <use xlink:href="#rim" fill="#404040">
                                <set attributeName="fill" to="#808080" begin="zoomplus.mouseover" end="zoomplus.mouseout"/>
                        </use>
                        <path d="M-4,0h8M0,-4v8" fill="none" stroke="white" stroke-width="1.5" pointer-events="none"/>
                </g>
                <g id="zoomMin">
                        <use xlink:href="#rim" fill="#404040">
                                <set attributeName="fill" to="#808080" begin="zoomminus.mouseover" end="zoomminus.mouseout"/>
                        </use>
                        <path d="M-4,0h8" fill="none" stroke="white" stroke-width="1.5" pointer-events="none"/>
                </g>
                <g id="dirArrow">
                        <path fill="none" stroke="white" stroke-width="1.5" d="M0,-3.0v7 M-2.5,-0.5L0,-3.0L2.5,-0.5"/>
                </g>
               <g id="resetDef">
                       <use xlink:href="#rim2" fill="#404040">
                               <set attributeName="fill" to="#808080" begin="reset.mouseover" end="reset.mouseout"/>
                       </use>
               </g>
        </defs>

<script type="text/javascript">
var viewWidth = 2172;
var viewHeight = 196;
var sectionId = 'dynsection-1';
</script>
<script xlink:href="svgpan.js"/>
<svg id="graph" class="graph">
<g id="viewport">
<title>src/net_processing.h</title>
<polygon fill="white" stroke="none" points="-4,4 -4,-192 2168,-192 2168,4 -4,4"/>
<!-- Node96 -->
<g id="node1" class="node"><title>Node96</title>
<polygon fill="#bfbfbf" stroke="black" points="1493.5,-168.5 1493.5,-187.5 1600.5,-187.5 1600.5,-168.5 1493.5,-168.5"/>
<text text-anchor="middle" x="1547" y="-175.5" font-family="Helvetica,sans-Serif" font-size="10.00">src/net_processing.h</text>
</g>
<!-- Node97 -->
<g id="node2" class="node"><title>Node97</title>
<g id="a_node2"><a xlink:href="masternode-payments_8h.html" target="_top" xlink:title="src/masternode&#45;payments.h">
<polygon fill="white" stroke="black" points="895,-112.5 895,-131.5 1033,-131.5 1033,-112.5 895,-112.5"/>
<text text-anchor="middle" x="964" y="-119.5" font-family="Helvetica,sans-Serif" font-size="10.00">src/masternode&#45;payments.h</text>
</a>
</g>
</g>
<!-- Node96&#45;&gt;Node97 -->
<g id="edge1" class="edge"><title>Node96&#45;&gt;Node97</title>
<path fill="none" stroke="midnightblue" d="M1483.48,-171.117C1373.27,-160.908 1147.5,-139.996 1033.35,-129.424"/>
<polygon fill="midnightblue" stroke="midnightblue" points="1483.18,-174.603 1493.46,-172.041 1483.82,-167.633 1483.18,-174.603"/>
</g>
<!-- Node99 -->
<g id="node4" class="node"><title>Node99</title>
<g id="a_node4"><a xlink:href="init_8cpp.html" target="_top" xlink:title="src/init.cpp">
<polygon fill="white" stroke="black" points="-0.5,-56.5 -0.5,-75.5 64.5,-75.5 64.5,-56.5 -0.5,-56.5"/>
<text text-anchor="middle" x="32" y="-63.5" font-family="Helvetica,sans-Serif" font-size="10.00">src/init.cpp</text>
</a>
</g>
</g>
<!-- Node96&#45;&gt;Node99 -->
<g id="edge17" class="edge"><title>Node96&#45;&gt;Node99</title>
<path fill="none" stroke="midnightblue" d="M1483.16,-172.671C1365.21,-164.669 1105.16,-147.008 886,-132 524.657,-107.255 431.522,-127.412 73,-76 70.2588,-75.6069 67.428,-75.1322 64.5946,-74.6088"/>
<polygon fill="midnightblue" stroke="midnightblue" points="1483.24,-176.184 1493.45,-173.369 1483.71,-169.2 1483.24,-176.184"/>
</g>
<!-- Node106 -->
<g id="node11" class="node"><title>Node106</title>
<g id="a_node11"><a xlink:href="net__processing_8cpp.html" target="_top" xlink:title="src/net_processing.cpp">
<polygon fill="white" stroke="black" points="1650,-56.5 1650,-75.5 1768,-75.5 1768,-56.5 1650,-56.5"/>
<text text-anchor="middle" x="1709" y="-63.5" font-family="Helvetica,sans-Serif" font-size="10.00">src/net_processing.cpp</text>
</a>
</g>
</g>
<!-- Node96&#45;&gt;Node106 -->
<g id="edge20" class="edge"><title>Node96&#45;&gt;Node106</title>
<path fill="none" stroke="midnightblue" d="M1483.26,-177.274C1402.79,-175.509 1280.17,-164.526 1327,-112 1373.59,-59.7406 1570.51,-84.528 1640,-76 1643.24,-75.6027 1646.56,-75.1891 1649.91,-74.767"/>
<polygon fill="midnightblue" stroke="midnightblue" points="1483.27,-180.774 1493.33,-177.452 1483.4,-173.775 1483.27,-180.774"/>
</g>
<!-- Node112 -->
<g id="node17" class="node"><title>Node112</title>
<g id="a_node17"><a xlink:href="governance_8cpp.html" target="_top" xlink:title="src/governance.cpp">
<polygon fill="white" stroke="black" points="1336,-112.5 1336,-131.5 1438,-131.5 1438,-112.5 1336,-112.5"/>
<text text-anchor="middle" x="1387" y="-119.5" font-family="Helvetica,sans-Serif" font-size="10.00">src/governance.cpp</text>
</a>
</g>
</g>
<!-- Node96&#45;&gt;Node112 -->
<g id="edge16" class="edge"><title>Node96&#45;&gt;Node112</title>
<path fill="none" stroke="midnightblue" d="M1511.95,-165.172C1481.83,-155.004 1439.1,-140.585 1412.23,-131.516"/>
<polygon fill="midnightblue" stroke="midnightblue" points="1511.05,-168.562 1521.65,-168.444 1513.29,-161.929 1511.05,-168.562"/>
</g>
<!-- Node113 -->
<g id="node18" class="node"><title>Node113</title>
<g id="a_node18"><a xlink:href="quorums__blockprocessor_8cpp.html" target="_top" xlink:title="src/llmq/quorums_blockprocessor.cpp">
<polygon fill="white" stroke="black" points="1456,-112.5 1456,-131.5 1638,-131.5 1638,-112.5 1456,-112.5"/>
<text text-anchor="middle" x="1547" y="-119.5" font-family="Helvetica,sans-Serif" font-size="10.00">src/llmq/quorums_blockprocessor.cpp</text>
</a>
</g>
</g>
<!-- Node96&#45;&gt;Node113 -->
<g id="edge18" class="edge"><title>Node96&#45;&gt;Node113</title>
<path fill="none" stroke="midnightblue" d="M1547,-157.805C1547,-148.91 1547,-138.78 1547,-131.751"/>
<polygon fill="midnightblue" stroke="midnightblue" points="1543.5,-158.083 1547,-168.083 1550.5,-158.083 1543.5,-158.083"/>
</g>
<!-- Node114 -->
<g id="node19" class="node"><title>Node114</title>
<g id="a_node19"><a xlink:href="quorums__dummydkg_8cpp.html" target="_top" xlink:title="src/llmq/quorums_dummydkg.cpp">
<polygon fill="white" stroke="black" points="1656,-112.5 1656,-131.5 1820,-131.5 1820,-112.5 1656,-112.5"/>
<text text-anchor="middle" x="1738" y="-119.5" font-family="Helvetica,sans-Serif" font-size="10.00">src/llmq/quorums_dummydkg.cpp</text>
</a>
</g>
</g>
<!-- Node96&#45;&gt;Node114 -->
<g id="edge19" class="edge"><title>Node96&#45;&gt;Node114</title>
<path fill="none" stroke="midnightblue" d="M1586.97,-165.699C1623.02,-155.507 1675.24,-140.743 1707.88,-131.516"/>
<polygon fill="midnightblue" stroke="midnightblue" points="1585.94,-162.355 1577.26,-168.444 1587.84,-169.091 1585.94,-162.355"/>
</g>
<!-- Node115 -->
<g id="node20" class="node"><title>Node115</title>
<g id="a_node20"><a xlink:href="peertablemodel_8h.html" target="_top" xlink:title="src/qt/peertablemodel.h">
<polygon fill="white" stroke="black" points="1838.5,-112.5 1838.5,-131.5 1957.5,-131.5 1957.5,-112.5 1838.5,-112.5"/>
<text text-anchor="middle" x="1898" y="-119.5" font-family="Helvetica,sans-Serif" font-size="10.00">src/qt/peertablemodel.h</text>
</a>
</g>
</g>
<!-- Node96&#45;&gt;Node115 -->
<g id="edge21" class="edge"><title>Node96&#45;&gt;Node115</title>
<path fill="none" stroke="midnightblue" d="M1610.59,-167.216C1676.83,-157.026 1779.55,-141.223 1842.58,-131.527"/>
<polygon fill="midnightblue" stroke="midnightblue" points="1610.04,-163.76 1600.69,-168.74 1611.11,-170.678 1610.04,-163.76"/>
</g>
<!-- Node121 -->
<g id="node26" class="node"><title>Node121</title>
<g id="a_node26"><a xlink:href="rpc_2net_8cpp.html" target="_top" xlink:title="src/rpc/net.cpp">
<polygon fill="white" stroke="black" points="1976,-112.5 1976,-131.5 2058,-131.5 2058,-112.5 1976,-112.5"/>
<text text-anchor="middle" x="2017" y="-119.5" font-family="Helvetica,sans-Serif" font-size="10.00">src/rpc/net.cpp</text>
</a>
</g>
</g>
<!-- Node96&#45;&gt;Node121 -->
<g id="edge27" class="edge"><title>Node96&#45;&gt;Node121</title>
<path fill="none" stroke="midnightblue" d="M1610.92,-171.491C1693.23,-164.087 1840.61,-149.776 1966,-132 1969.2,-131.546 1972.52,-131.041 1975.84,-130.51"/>
<polygon fill="midnightblue" stroke="midnightblue" points="1610.37,-168.026 1600.72,-172.403 1610.99,-174.999 1610.37,-168.026"/>
</g>
<!-- Node122 -->
<g id="node27" class="node"><title>Node122</title>
<g id="a_node27"><a xlink:href="spork_8cpp.html" target="_top" xlink:title="src/spork.cpp">
<polygon fill="white" stroke="black" points="2076,-112.5 2076,-131.5 2152,-131.5 2152,-112.5 2076,-112.5"/>
<text text-anchor="middle" x="2114" y="-119.5" font-family="Helvetica,sans-Serif" font-size="10.00">src/spork.cpp</text>
</a>
</g>
</g>
<!-- Node96&#45;&gt;Node122 -->
<g id="edge28" class="edge"><title>Node96&#45;&gt;Node122</title>
<path fill="none" stroke="midnightblue" d="M1610.8,-173.599C1709.1,-167.881 1903.37,-154.685 2067,-132 2069.88,-131.601 2072.85,-131.142 2075.83,-130.649"/>
<polygon fill="midnightblue" stroke="midnightblue" points="1610.51,-170.11 1600.73,-174.178 1610.91,-177.098 1610.51,-170.11"/>
</g>
<!-- Node98 -->
<g id="node3" class="node"><title>Node98</title>
<g id="a_node3"><a xlink:href="dsnotificationinterface_8cpp.html" target="_top" xlink:title="src/dsnotificationinterface.cpp">
<polygon fill="white" stroke="black" points="82.5,-56.5 82.5,-75.5 229.5,-75.5 229.5,-56.5 82.5,-56.5"/>
<text text-anchor="middle" x="156" y="-63.5" font-family="Helvetica,sans-Serif" font-size="10.00">src/dsnotificationinterface.cpp</text>
</a>
</g>
</g>
<!-- Node97&#45;&gt;Node98 -->
<g id="edge2" class="edge"><title>Node97&#45;&gt;Node98</title>
<path fill="none" stroke="midnightblue" d="M884.82,-117.28C751.436,-110.747 473.52,-95.9824 239,-76 235.967,-75.7416 232.873,-75.465 229.749,-75.175"/>
<polygon fill="midnightblue" stroke="midnightblue" points="884.789,-120.783 894.947,-117.774 885.13,-113.791 884.789,-120.783"/>
</g>
<!-- Node97&#45;&gt;Node99 -->
<g id="edge3" class="edge"><title>Node97&#45;&gt;Node99</title>
<path fill="none" stroke="midnightblue" d="M884.444,-121.385C728.187,-121.171 370.5,-115.885 73,-76 70.2553,-75.632 67.422,-75.175 64.587,-74.6634"/>
<polygon fill="midnightblue" stroke="midnightblue" points="884.89,-124.885 894.893,-121.392 884.895,-117.885 884.89,-124.885"/>
</g>
<!-- Node100 -->
<g id="node5" class="node"><title>Node100</title>
<g id="a_node5"><a xlink:href="instantx_8cpp.html" target="_top" xlink:title="src/instantx.cpp">
<polygon fill="white" stroke="black" points="248,-56.5 248,-75.5 334,-75.5 334,-56.5 248,-56.5"/>
<text text-anchor="middle" x="291" y="-63.5" font-family="Helvetica,sans-Serif" font-size="10.00">src/instantx.cpp</text>
</a>
</g>
</g>
<!-- Node97&#45;&gt;Node100 -->
<g id="edge4" class="edge"><title>Node97&#45;&gt;Node100</title>
<path fill="none" stroke="midnightblue" d="M884.809,-117.776C766.544,-112.393 536.914,-99.7477 343,-76 340.09,-75.6436 337.095,-75.2357 334.081,-74.7947"/>
<polygon fill="midnightblue" stroke="midnightblue" points="884.715,-121.275 894.863,-118.228 885.03,-114.282 884.715,-121.275"/>
</g>
<!-- Node101 -->
<g id="node6" class="node"><title>Node101</title>
<g id="a_node6"><a xlink:href="masternode-payments_8cpp.html" target="_top" xlink:title="src/masternode&#45;payments.cpp">
<polygon fill="white" stroke="black" points="352.5,-56.5 352.5,-75.5 501.5,-75.5 501.5,-56.5 352.5,-56.5"/>
<text text-anchor="middle" x="427" y="-63.5" font-family="Helvetica,sans-Serif" font-size="10.00">src/masternode&#45;payments.cpp</text>
</a>
</g>
</g>
<!-- Node97&#45;&gt;Node101 -->
<g id="edge5" class="edge"><title>Node97&#45;&gt;Node101</title>
<path fill="none" stroke="midnightblue" d="M884.557,-113.349C793.911,-104.568 641.236,-89.6189 510,-76 507.261,-75.7157 504.471,-75.4241 501.653,-75.1277"/>
<polygon fill="midnightblue" stroke="midnightblue" points="884.465,-116.857 894.756,-114.337 885.14,-109.889 884.465,-116.857"/>
</g>
<!-- Node102 -->
<g id="node7" class="node"><title>Node102</title>
<g id="a_node7"><a xlink:href="masternode-sync_8cpp.html" target="_top" xlink:title="src/masternode&#45;sync.cpp">
<polygon fill="white" stroke="black" points="519.5,-56.5 519.5,-75.5 646.5,-75.5 646.5,-56.5 519.5,-56.5"/>
<text text-anchor="middle" x="583" y="-63.5" font-family="Helvetica,sans-Serif" font-size="10.00">src/masternode&#45;sync.cpp</text>
</a>
</g>
</g>
<!-- Node97&#45;&gt;Node102 -->
<g id="edge6" class="edge"><title>Node97&#45;&gt;Node102</title>
<path fill="none" stroke="midnightblue" d="M893.299,-110.979C821.33,-100.779 710.968,-85.1372 643.088,-75.5164"/>
<polygon fill="midnightblue" stroke="midnightblue" points="893.237,-114.506 903.629,-112.444 894.22,-107.575 893.237,-114.506"/>
</g>
<!-- Node103 -->
<g id="node8" class="node"><title>Node103</title>
<g id="a_node8"><a xlink:href="masternode_8cpp.html" target="_top" xlink:title="src/masternode.cpp">
<polygon fill="white" stroke="black" points="664.5,-56.5 664.5,-75.5 767.5,-75.5 767.5,-56.5 664.5,-56.5"/>
<text text-anchor="middle" x="716" y="-63.5" font-family="Helvetica,sans-Serif" font-size="10.00">src/masternode.cpp</text>
</a>
</g>
</g>
<!-- Node97&#45;&gt;Node103 -->
<g id="edge7" class="edge"><title>Node97&#45;&gt;Node103</title>
<path fill="none" stroke="midnightblue" d="M914.774,-110.281C867.909,-100.077 798.301,-84.9203 755.112,-75.5164"/>
<polygon fill="midnightblue" stroke="midnightblue" points="914.188,-113.736 924.704,-112.444 915.677,-106.896 914.188,-113.736"/>
</g>
<!-- Node104 -->
<g id="node9" class="node"><title>Node104</title>
<g id="a_node9"><a xlink:href="masternodeman_8cpp.html" target="_top" xlink:title="src/masternodeman.cpp">
<polygon fill="white" stroke="black" points="786,-56.5 786,-75.5 908,-75.5 908,-56.5 786,-56.5"/>
<text text-anchor="middle" x="847" y="-63.5" font-family="Helvetica,sans-Serif" font-size="10.00">src/masternodeman.cpp</text>
</a>
</g>
</g>
<!-- Node97&#45;&gt;Node104 -->
<g id="edge8" class="edge"><title>Node97&#45;&gt;Node104</title>
<path fill="none" stroke="midnightblue" d="M936.336,-108.232C914.451,-98.1312 884.503,-84.3091 865.452,-75.5164"/>
<polygon fill="midnightblue" stroke="midnightblue" points="934.915,-111.431 945.461,-112.444 937.848,-105.075 934.915,-111.431"/>
</g>
<!-- Node105 -->
<g id="node10" class="node"><title>Node105</title>
<g id="a_node10"><a xlink:href="miner_8cpp.html" target="_top" xlink:title="src/miner.cpp">
<polygon fill="white" stroke="black" points="926,-56.5 926,-75.5 1002,-75.5 1002,-56.5 926,-56.5"/>
<text text-anchor="middle" x="964" y="-63.5" font-family="Helvetica,sans-Serif" font-size="10.00">src/miner.cpp</text>
</a>
</g>
</g>
<!-- Node97&#45;&gt;Node105 -->
<g id="edge9" class="edge"><title>Node97&#45;&gt;Node105</title>
<path fill="none" stroke="midnightblue" d="M964,-101.805C964,-92.9102 964,-82.7798 964,-75.7511"/>
<polygon fill="midnightblue" stroke="midnightblue" points="960.5,-102.083 964,-112.083 967.5,-102.083 960.5,-102.083"/>
</g>
<!-- Node97&#45;&gt;Node106 -->
<g id="edge10" class="edge"><title>Node97&#45;&gt;Node106</title>
<path fill="none" stroke="midnightblue" d="M1043.57,-117.336C1170.09,-111.143 1424.81,-97.1747 1640,-76 1643.25,-75.6806 1646.57,-75.3284 1649.93,-74.954"/>
<polygon fill="midnightblue" stroke="midnightblue" points="1043.03,-113.858 1033.21,-117.84 1043.37,-120.85 1043.03,-113.858"/>
</g>
<!-- Node107 -->
<g id="node12" class="node"><title>Node107</title>
<g id="a_node12"><a xlink:href="privatesend-client_8cpp.html" target="_top" xlink:title="src/privatesend&#45;client.cpp">
<polygon fill="white" stroke="black" points="1020,-56.5 1020,-75.5 1148,-75.5 1148,-56.5 1020,-56.5"/>
<text text-anchor="middle" x="1084" y="-63.5" font-family="Helvetica,sans-Serif" font-size="10.00">src/privatesend&#45;client.cpp</text>
</a>
</g>
</g>
<!-- Node97&#45;&gt;Node107 -->
<g id="edge11" class="edge"><title>Node97&#45;&gt;Node107</title>
<path fill="none" stroke="midnightblue" d="M992.373,-108.232C1014.82,-98.1312 1045.54,-84.3091 1065.07,-75.5164"/>
<polygon fill="midnightblue" stroke="midnightblue" points="990.697,-105.148 983.014,-112.444 993.57,-111.532 990.697,-105.148"/>
</g>
<!-- Node108 -->
<g id="node13" class="node"><title>Node108</title>
<g id="a_node13"><a xlink:href="privatesend_8cpp.html" target="_top" xlink:title="src/privatesend.cpp">
<polygon fill="white" stroke="black" points="1166,-56.5 1166,-75.5 1268,-75.5 1268,-56.5 1166,-56.5"/>
<text text-anchor="middle" x="1217" y="-63.5" font-family="Helvetica,sans-Serif" font-size="10.00">src/privatesend.cpp</text>
</a>
</g>
</g>
<!-- Node97&#45;&gt;Node108 -->
<g id="edge12" class="edge"><title>Node97&#45;&gt;Node108</title>
<path fill="none" stroke="midnightblue" d="M1013.92,-110.346C1061.73,-100.141 1132.95,-84.94 1177.1,-75.5164"/>
<polygon fill="midnightblue" stroke="midnightblue" points="1013.14,-106.933 1004.09,-112.444 1014.6,-113.779 1013.14,-106.933"/>
</g>
<!-- Node109 -->
<g id="node14" class="node"><title>Node109</title>
<g id="a_node14"><a xlink:href="rpc_2masternode_8cpp.html" target="_top" xlink:title="src/rpc/masternode.cpp">
<polygon fill="white" stroke="black" points="1286.5,-56.5 1286.5,-75.5 1405.5,-75.5 1405.5,-56.5 1286.5,-56.5"/>
<text text-anchor="middle" x="1346" y="-63.5" font-family="Helvetica,sans-Serif" font-size="10.00">src/rpc/masternode.cpp</text>
</a>
</g>
</g>
<!-- Node97&#45;&gt;Node109 -->
<g id="edge13" class="edge"><title>Node97&#45;&gt;Node109</title>
<path fill="none" stroke="midnightblue" d="M1034.47,-111.038C1106.84,-100.807 1218.25,-85.0589 1286.38,-75.4275"/>
<polygon fill="midnightblue" stroke="midnightblue" points="1033.94,-107.578 1024.53,-112.444 1034.92,-114.509 1033.94,-107.578"/>
</g>
<!-- Node110 -->
<g id="node15" class="node"><title>Node110</title>
<g id="a_node15"><a xlink:href="mining_8cpp.html" target="_top" xlink:title="src/rpc/mining.cpp">
<polygon fill="white" stroke="black" points="1423.5,-56.5 1423.5,-75.5 1520.5,-75.5 1520.5,-56.5 1423.5,-56.5"/>
<text text-anchor="middle" x="1472" y="-63.5" font-family="Helvetica,sans-Serif" font-size="10.00">src/rpc/mining.cpp</text>
</a>
</g>
</g>
<!-- Node97&#45;&gt;Node110 -->
<g id="edge14" class="edge"><title>Node97&#45;&gt;Node110</title>
<path fill="none" stroke="midnightblue" d="M1043.26,-114.385C1133.27,-106.568 1284.45,-92.5167 1414,-76 1417.03,-75.6134 1420.15,-75.1938 1423.29,-74.7543"/>
<polygon fill="midnightblue" stroke="midnightblue" points="1042.79,-110.912 1033.13,-115.261 1043.39,-117.886 1042.79,-110.912"/>
</g>
<!-- Node111 -->
<g id="node16" class="node"><title>Node111</title>
<g id="a_node16"><a xlink:href="validation_8cpp.html" target="_top" xlink:title="src/validation.cpp">
<polygon fill="white" stroke="black" points="1538.5,-56.5 1538.5,-75.5 1631.5,-75.5 1631.5,-56.5 1538.5,-56.5"/>
<text text-anchor="middle" x="1585" y="-63.5" font-family="Helvetica,sans-Serif" font-size="10.00">src/validation.cpp</text>
</a>
</g>
</g>
<!-- Node97&#45;&gt;Node111 -->
<g id="edge15" class="edge"><title>Node97&#45;&gt;Node111</title>
<path fill="none" stroke="midnightblue" d="M1043.63,-116.668C1153.2,-110.25 1356.51,-96.6969 1529,-76 1532.03,-75.6363 1535.15,-75.2288 1538.29,-74.7933"/>
<polygon fill="midnightblue" stroke="midnightblue" points="1043.1,-113.193 1033.32,-117.267 1043.51,-120.181 1043.1,-113.193"/>
</g>
<!-- Node116 -->
<g id="node21" class="node"><title>Node116</title>
<g id="a_node21"><a xlink:href="rpcconsole_8h.html" target="_top" xlink:title="src/qt/rpcconsole.h">
<polygon fill="white" stroke="black" points="1786,-56.5 1786,-75.5 1886,-75.5 1886,-56.5 1786,-56.5"/>
<text text-anchor="middle" x="1836" y="-63.5" font-family="Helvetica,sans-Serif" font-size="10.00">src/qt/rpcconsole.h</text>
</a>
</g>
</g>
<!-- Node115&#45;&gt;Node116 -->
<g id="edge22" class="edge"><title>Node115&#45;&gt;Node116</title>
<path fill="none" stroke="midnightblue" d="M1880.25,-105.537C1869.19,-95.9087 1855.37,-83.8694 1846.14,-75.8339"/>
<polygon fill="midnightblue" stroke="midnightblue" points="1878.2,-108.395 1888.04,-112.324 1882.8,-103.117 1878.2,-108.395"/>
</g>
<!-- Node119 -->
<g id="node24" class="node"><title>Node119</title>
<g id="a_node24"><a xlink:href="clientmodel_8cpp.html" target="_top" xlink:title="src/qt/clientmodel.cpp">
<polygon fill="white" stroke="black" points="1904.5,-56.5 1904.5,-75.5 2017.5,-75.5 2017.5,-56.5 1904.5,-56.5"/>
<text text-anchor="middle" x="1961" y="-63.5" font-family="Helvetica,sans-Serif" font-size="10.00">src/qt/clientmodel.cpp</text>
</a>
</g>
</g>
<!-- Node115&#45;&gt;Node119 -->
<g id="edge25" class="edge"><title>Node115&#45;&gt;Node119</title>
<path fill="none" stroke="midnightblue" d="M1916.04,-105.537C1927.27,-95.9087 1941.32,-83.8694 1950.69,-75.8339"/>
<polygon fill="midnightblue" stroke="midnightblue" points="1913.44,-103.159 1908.12,-112.324 1917.99,-108.473 1913.44,-103.159"/>
</g>
<!-- Node120 -->
<g id="node25" class="node"><title>Node120</title>
<g id="a_node25"><a xlink:href="peertablemodel_8cpp.html" target="_top" xlink:title="src/qt/peertablemodel.cpp">
<polygon fill="white" stroke="black" points="2035.5,-56.5 2035.5,-75.5 2164.5,-75.5 2164.5,-56.5 2035.5,-56.5"/>
<text text-anchor="middle" x="2100" y="-63.5" font-family="Helvetica,sans-Serif" font-size="10.00">src/qt/peertablemodel.cpp</text>
</a>
</g>
</g>
<!-- Node115&#45;&gt;Node120 -->
<g id="edge26" class="edge"><title>Node115&#45;&gt;Node120</title>
<path fill="none" stroke="midnightblue" d="M1939.79,-109.829C1977.93,-99.6333 2033.48,-84.7823 2068.14,-75.5164"/>
<polygon fill="midnightblue" stroke="midnightblue" points="1938.76,-106.48 1930.01,-112.444 1940.57,-113.242 1938.76,-106.48"/>
</g>
<!-- Node117 -->
<g id="node22" class="node"><title>Node117</title>
<g id="a_node22"><a xlink:href="bitcoingui_8cpp.html" target="_top" xlink:title="src/qt/bitcoingui.cpp">
<polygon fill="white" stroke="black" points="1721,-0.5 1721,-19.5 1825,-19.5 1825,-0.5 1721,-0.5"/>
<text text-anchor="middle" x="1773" y="-7.5" font-family="Helvetica,sans-Serif" font-size="10.00">src/qt/bitcoingui.cpp</text>
</a>
</g>
</g>
<!-- Node116&#45;&gt;Node117 -->
<g id="edge23" class="edge"><title>Node116&#45;&gt;Node117</title>
<path fill="none" stroke="midnightblue" d="M1817.96,-49.5372C1806.73,-39.9087 1792.68,-27.8694 1783.31,-19.8339"/>
<polygon fill="midnightblue" stroke="midnightblue" points="1816.01,-52.4734 1825.88,-56.324 1820.56,-47.1586 1816.01,-52.4734"/>
</g>
<!-- Node118 -->
<g id="node23" class="node"><title>Node118</title>
<g id="a_node23"><a xlink:href="rpcconsole_8cpp.html" target="_top" xlink:title="src/qt/rpcconsole.cpp">
<polygon fill="white" stroke="black" points="1843,-0.5 1843,-19.5 1953,-19.5 1953,-0.5 1843,-0.5"/>
<text text-anchor="middle" x="1898" y="-7.5" font-family="Helvetica,sans-Serif" font-size="10.00">src/qt/rpcconsole.cpp</text>
</a>
</g>
</g>
<!-- Node116&#45;&gt;Node118 -->
<g id="edge24" class="edge"><title>Node116&#45;&gt;Node118</title>
<path fill="none" stroke="midnightblue" d="M1853.75,-49.5372C1864.81,-39.9087 1878.63,-27.8694 1887.86,-19.8339"/>
<polygon fill="midnightblue" stroke="midnightblue" points="1851.2,-47.1168 1845.96,-56.324 1855.8,-52.3954 1851.2,-47.1168"/>
</g>
</g>
</svg>
        <g id="navigator" transform="translate(0 0)" fill="#404254">
                <rect fill="#f2f5e9" fill-opacity="0.5" stroke="#606060" stroke-width=".5" x="0" y="0" width="60" height="60"/>
                <use id="zoomplus" xlink:href="#zoomPlus" x="17" y="9" onmousedown="handleZoom(evt,'in')"/>
                <use id="zoomminus" xlink:href="#zoomMin" x="42" y="9" onmousedown="handleZoom(evt,'out')"/>
                <use id="reset" xlink:href="#resetDef" x="30" y="36" onmousedown="handleReset()"/>
                <g id="arrowUp" xlink:href="#dirArrow" transform="translate(30 24)" onmousedown="handlePan(0,-1)">
                  <use xlink:href="#rim" fill="#404040">
                        <set attributeName="fill" to="#808080" begin="arrowUp.mouseover" end="arrowUp.mouseout"/>
                  </use>
                  <path fill="none" stroke="white" stroke-width="1.5" d="M0,-3.0v7 M-2.5,-0.5L0,-3.0L2.5,-0.5"/>
                </g>
                <g id="arrowRight" xlink:href="#dirArrow" transform="rotate(90) translate(36 -43)" onmousedown="handlePan(1,0)">
                  <use xlink:href="#rim" fill="#404040">
                        <set attributeName="fill" to="#808080" begin="arrowRight.mouseover" end="arrowRight.mouseout"/>
                  </use>
                  <path fill="none" stroke="white" stroke-width="1.5" d="M0,-3.0v7 M-2.5,-0.5L0,-3.0L2.5,-0.5"/>
                </g>
                <g id="arrowDown" xlink:href="#dirArrow" transform="rotate(180) translate(-30 -48)" onmousedown="handlePan(0,1)">
                  <use xlink:href="#rim" fill="#404040">
                        <set attributeName="fill" to="#808080" begin="arrowDown.mouseover" end="arrowDown.mouseout"/>
                  </use>
                  <path fill="none" stroke="white" stroke-width="1.5" d="M0,-3.0v7 M-2.5,-0.5L0,-3.0L2.5,-0.5"/>
                </g>
                <g id="arrowLeft" xlink:href="#dirArrow" transform="rotate(270) translate(-36 17)" onmousedown="handlePan(-1,0)">
                  <use xlink:href="#rim" fill="#404040">
                        <set attributeName="fill" to="#808080" begin="arrowLeft.mouseover" end="arrowLeft.mouseout"/>
                  </use>
                  <path fill="none" stroke="white" stroke-width="1.5" d="M0,-3.0v7 M-2.5,-0.5L0,-3.0L2.5,-0.5"/>
                </g>
        </g>
        <svg viewBox="0 0 15 15" width="100%" height="30px" preserveAspectRatio="xMaxYMin meet">
         <g id="arrow_out" transform="scale(0.3 0.3)">
          <a xlink:href="net__processing_8h__dep__incl_org.svg" target="_base">
           <rect id="button" ry="5" rx="5" y="6" x="6" height="38" width="38"
                fill="#f2f5e9" fill-opacity="0.5" stroke="#606060" stroke-width="1.0"/>
           <path id="arrow"
             d="M 11.500037,31.436501 C 11.940474,20.09759 22.043105,11.32322 32.158766,21.979434 L 37.068811,17.246167 C 37.068811,17.246167 37.088388,32 37.088388,32 L 22.160133,31.978069 C 22.160133,31.978069 26.997745,27.140456 26.997745,27.140456 C 18.528582,18.264221 13.291696,25.230495 11.500037,31.436501 z"
             style="fill:#404040;"/>
          </a>
         </g>
        </svg>
</svg>
