<?xml version="1.0" encoding="UTF-8" standalone="no"?>
<!DOCTYPE svg PUBLIC "-//W3C//DTD SVG 1.1//EN"
 "http://www.w3.org/Graphics/SVG/1.1/DTD/svg11.dtd">
<!-- Generated by graphviz version 2.36.0 (20140111.2315)
 -->
<!-- Title: src/netaddress.cpp Pages: 1 -->
<svg width="3342pt" height="308pt"
 viewBox="0.00 0.00 3342.43 308.00" xmlns="http://www.w3.org/2000/svg" xmlns:xlink="http://www.w3.org/1999/xlink">
<g id="graph0" class="graph" transform="scale(1 1) rotate(0) translate(4 304)">
<title>src/netaddress.cpp</title>
<polygon fill="white" stroke="none" points="-4,4 -4,-304 3338.43,-304 3338.43,4 -4,4"/>
<!-- Node0 -->
<g id="node1" class="node"><title>Node0</title>
<polygon fill="#bfbfbf" stroke="black" points="1277.43,-280.5 1277.43,-299.5 1377.43,-299.5 1377.43,-280.5 1277.43,-280.5"/>
<text text-anchor="middle" x="1327.43" y="-287.5" font-family="Helvetica,sans-Serif" font-size="10.00">src/netaddress.cpp</text>
</g>
<!-- Node1 -->
<g id="node2" class="node"><title>Node1</title>
<g id="a_node2"><a xlink:href="netaddress_8h.html" target="_top" xlink:title="netaddress.h">
<polygon fill="white" stroke="black" points="1258.93,-168.5 1258.93,-187.5 1331.93,-187.5 1331.93,-168.5 1258.93,-168.5"/>
<text text-anchor="middle" x="1295.43" y="-175.5" font-family="Helvetica,sans-Serif" font-size="10.00">netaddress.h</text>
</a>
</g>
</g>
<!-- Node0&#45;&gt;Node1 -->
<g id="edge1" class="edge"><title>Node0&#45;&gt;Node1</title>
<path fill="none" stroke="midnightblue" d="M1324.92,-280.368C1319.73,-262.537 1307.74,-221.295 1300.75,-197.272"/>
<polygon fill="midnightblue" stroke="midnightblue" points="1304.09,-196.216 1297.93,-187.591 1297.36,-198.171 1304.09,-196.216"/>
</g>
<!-- Node36 -->
<g id="node28" class="node"><title>Node36</title>
<g id="a_node28"><a xlink:href="netbase_8h.html" target="_top" xlink:title="netbase.h">
<polygon fill="white" stroke="black" points="1239.93,-224.5 1239.93,-243.5 1298.93,-243.5 1298.93,-224.5 1239.93,-224.5"/>
<text text-anchor="middle" x="1269.43" y="-231.5" font-family="Helvetica,sans-Serif" font-size="10.00">netbase.h</text>
</a>
</g>
</g>
<!-- Node0&#45;&gt;Node36 -->
<g id="edge33" class="edge"><title>Node0&#45;&gt;Node36</title>
<path fill="none" stroke="midnightblue" d="M1318.11,-280.324C1309.54,-272.341 1296.62,-260.313 1286.24,-250.653"/>
<polygon fill="midnightblue" stroke="midnightblue" points="1288.62,-248.086 1278.92,-243.834 1283.85,-253.21 1288.62,-248.086"/>
</g>
<!-- Node37 -->
<g id="node29" class="node"><title>Node37</title>
<g id="a_node29"><a xlink:href="hash_8h.html" target="_top" xlink:title="hash.h">
<polygon fill="white" stroke="black" points="2240.43,-168.5 2240.43,-187.5 2286.43,-187.5 2286.43,-168.5 2240.43,-168.5"/>
<text text-anchor="middle" x="2263.43" y="-175.5" font-family="Helvetica,sans-Serif" font-size="10.00">hash.h</text>
</a>
</g>
</g>
<!-- Node0&#45;&gt;Node37 -->
<g id="edge40" class="edge"><title>Node0&#45;&gt;Node37</title>
<path fill="none" stroke="midnightblue" d="M1377.76,-283.086C1546.51,-263.253 2089.61,-199.428 2230.04,-182.925"/>
<polygon fill="midnightblue" stroke="midnightblue" points="2230.66,-186.376 2240.18,-181.733 2229.84,-179.424 2230.66,-186.376"/>
</g>
<!-- Node58 -->
<g id="node46" class="node"><title>Node58</title>
<g id="a_node46"><a xlink:href="utilstrencodings_8h.html" target="_top" xlink:title="utilstrencodings.h">
<polygon fill="white" stroke="black" points="1108.93,-112.5 1108.93,-131.5 1201.93,-131.5 1201.93,-112.5 1108.93,-112.5"/>
<text text-anchor="middle" x="1155.43" y="-119.5" font-family="Helvetica,sans-Serif" font-size="10.00">utilstrencodings.h</text>
</a>
</g>
</g>
<!-- Node0&#45;&gt;Node58 -->
<g id="edge66" class="edge"><title>Node0&#45;&gt;Node58</title>
<path fill="none" stroke="midnightblue" d="M1298.16,-280.426C1277.46,-273.249 1250.02,-261.361 1230.43,-244 1197.27,-214.61 1173.77,-167.034 1162.66,-141.163"/>
<polygon fill="midnightblue" stroke="midnightblue" points="1165.85,-139.708 1158.79,-131.81 1159.38,-142.388 1165.85,-139.708"/>
</g>
<!-- Node59 -->
<g id="node47" class="node"><title>Node59</title>
<g id="a_node47"><a xlink:href="tinyformat_8h.html" target="_top" xlink:title="tinyformat.h">
<polygon fill="white" stroke="black" points="3203.43,-112.5 3203.43,-131.5 3271.43,-131.5 3271.43,-112.5 3203.43,-112.5"/>
<text text-anchor="middle" x="3237.43" y="-119.5" font-family="Helvetica,sans-Serif" font-size="10.00">tinyformat.h</text>
</a>
</g>
</g>
<!-- Node0&#45;&gt;Node59 -->
<g id="edge70" class="edge"><title>Node0&#45;&gt;Node59</title>
<path fill="none" stroke="midnightblue" d="M1377.78,-286.944C1595.47,-277.598 2477.04,-235.039 3193.43,-132 3193.53,-131.985 3193.64,-131.971 3193.74,-131.956"/>
<polygon fill="midnightblue" stroke="midnightblue" points="3194.09,-135.445 3203.39,-130.375 3192.96,-128.537 3194.09,-135.445"/>
</g>
<!-- Node2 -->
<g id="node3" class="node"><title>Node2</title>
<g id="a_node3"><a xlink:href="compat_8h.html" target="_top" xlink:title="compat.h">
<polygon fill="white" stroke="black" points="586.932,-112.5 586.932,-131.5 643.932,-131.5 643.932,-112.5 586.932,-112.5"/>
<text text-anchor="middle" x="615.432" y="-119.5" font-family="Helvetica,sans-Serif" font-size="10.00">compat.h</text>
</a>
</g>
</g>
<!-- Node1&#45;&gt;Node2 -->
<g id="edge2" class="edge"><title>Node1&#45;&gt;Node2</title>
<path fill="none" stroke="midnightblue" d="M1258.87,-174.097C1141.58,-164.783 775.39,-135.702 654.555,-126.107"/>
<polygon fill="midnightblue" stroke="midnightblue" points="654.544,-122.595 644.298,-125.292 653.989,-129.573 654.544,-122.595"/>
</g>
<!-- Node17 -->
<g id="node18" class="node"><title>Node17</title>
<g id="a_node18"><a xlink:href="serialize_8h.html" target="_top" xlink:title="serialize.h">
<polygon fill="white" stroke="red" points="1296.93,-112.5 1296.93,-131.5 1357.93,-131.5 1357.93,-112.5 1296.93,-112.5"/>
<text text-anchor="middle" x="1327.43" y="-119.5" font-family="Helvetica,sans-Serif" font-size="10.00">serialize.h</text>
</a>
</g>
</g>
<!-- Node1&#45;&gt;Node17 -->
<g id="edge17" class="edge"><title>Node1&#45;&gt;Node17</title>
<path fill="none" stroke="midnightblue" d="M1300.72,-168.083C1305.14,-160.613 1311.6,-149.724 1317.05,-140.52"/>
<polygon fill="midnightblue" stroke="midnightblue" points="1320.16,-142.138 1322.25,-131.751 1314.14,-138.57 1320.16,-142.138"/>
</g>
<!-- Node19 -->
<g id="node20" class="node"><title>Node19</title>
<polygon fill="white" stroke="#bfbfbf" points="1302.93,-0.5 1302.93,-19.5 1351.93,-19.5 1351.93,-0.5 1302.93,-0.5"/>
<text text-anchor="middle" x="1327.43" y="-7.5" font-family="Helvetica,sans-Serif" font-size="10.00">stdint.h</text>
</g>
<!-- Node1&#45;&gt;Node19 -->
<g id="edge30" class="edge"><title>Node1&#45;&gt;Node19</title>
<path fill="none" stroke="midnightblue" d="M1258.61,-173.913C1207.46,-168.773 1118.95,-156.511 1099.43,-132 1093.89,-125.047 1095.89,-120.152 1099.43,-112 1131.53,-38.1416 1237.36,-18.2915 1292.82,-12.9582"/>
<polygon fill="midnightblue" stroke="midnightblue" points="1293.22,-16.4371 1302.89,-12.0974 1292.62,-9.46253 1293.22,-16.4371"/>
</g>
<!-- Node29 -->
<g id="node25" class="node"><title>Node29</title>
<polygon fill="white" stroke="#bfbfbf" points="1184.93,-56.5 1184.93,-75.5 1225.93,-75.5 1225.93,-56.5 1184.93,-56.5"/>
<text text-anchor="middle" x="1205.43" y="-63.5" font-family="Helvetica,sans-Serif" font-size="10.00">string</text>
</g>
<!-- Node1&#45;&gt;Node29 -->
<g id="edge31" class="edge"><title>Node1&#45;&gt;Node29</title>
<path fill="none" stroke="midnightblue" d="M1288.96,-168.481C1279.4,-155.961 1260.86,-131.918 1244.43,-112 1236.44,-102.31 1227.25,-91.6814 1219.8,-83.188"/>
<polygon fill="midnightblue" stroke="midnightblue" points="1222.27,-80.7049 1213.04,-75.5201 1217.02,-85.3351 1222.27,-80.7049"/>
</g>
<!-- Node32 -->
<g id="node26" class="node"><title>Node32</title>
<polygon fill="white" stroke="#bfbfbf" points="1534.43,-56.5 1534.43,-75.5 1578.43,-75.5 1578.43,-56.5 1534.43,-56.5"/>
<text text-anchor="middle" x="1556.43" y="-63.5" font-family="Helvetica,sans-Serif" font-size="10.00">vector</text>
</g>
<!-- Node1&#45;&gt;Node32 -->
<g id="edge32" class="edge"><title>Node1&#45;&gt;Node32</title>
<path fill="none" stroke="midnightblue" d="M1308.41,-168.429C1329.22,-154.969 1371.68,-128.693 1410.43,-112 1431.03,-103.128 1488.12,-86.3422 1524.5,-75.9685"/>
<polygon fill="midnightblue" stroke="midnightblue" points="1525.51,-79.3224 1534.17,-73.2245 1523.59,-72.5885 1525.51,-79.3224"/>
</g>
<!-- Node3 -->
<g id="node4" class="node"><title>Node3</title>
<polygon fill="white" stroke="#bfbfbf" points="758.432,-56.5 758.432,-75.5 820.432,-75.5 820.432,-56.5 758.432,-56.5"/>
<text text-anchor="middle" x="789.432" y="-63.5" font-family="Helvetica,sans-Serif" font-size="10.00">sys/fcntl.h</text>
</g>
<!-- Node2&#45;&gt;Node3 -->
<g id="edge3" class="edge"><title>Node2&#45;&gt;Node3</title>
<path fill="none" stroke="midnightblue" d="M643.003,-112.444C672.53,-103.28 719.55,-88.6876 752.315,-78.5192"/>
<polygon fill="midnightblue" stroke="midnightblue" points="753.477,-81.8232 761.99,-75.5164 751.402,-75.1378 753.477,-81.8232"/>
</g>
<!-- Node4 -->
<g id="node5" class="node"><title>Node4</title>
<polygon fill="white" stroke="#bfbfbf" points="838.932,-56.5 838.932,-75.5 909.932,-75.5 909.932,-56.5 838.932,-56.5"/>
<text text-anchor="middle" x="874.432" y="-63.5" font-family="Helvetica,sans-Serif" font-size="10.00">sys/mman.h</text>
</g>
<!-- Node2&#45;&gt;Node4 -->
<g id="edge4" class="edge"><title>Node2&#45;&gt;Node4</title>
<path fill="none" stroke="midnightblue" d="M644.139,-115.015C688.807,-105.702 775.343,-87.6596 828.683,-76.5386"/>
<polygon fill="midnightblue" stroke="midnightblue" points="829.487,-79.9462 838.562,-74.4788 828.058,-73.0936 829.487,-79.9462"/>
</g>
<!-- Node5 -->
<g id="node6" class="node"><title>Node5</title>
<polygon fill="white" stroke="#bfbfbf" points="928.432,-56.5 928.432,-75.5 998.432,-75.5 998.432,-56.5 928.432,-56.5"/>
<text text-anchor="middle" x="963.432" y="-63.5" font-family="Helvetica,sans-Serif" font-size="10.00">sys/select.h</text>
</g>
<!-- Node2&#45;&gt;Node5 -->
<g id="edge5" class="edge"><title>Node2&#45;&gt;Node5</title>
<path fill="none" stroke="midnightblue" d="M644.336,-117.197C696.689,-110.204 810.909,-94.4636 918.076,-75.9806"/>
<polygon fill="midnightblue" stroke="midnightblue" points="918.837,-79.4011 928.09,-74.2418 917.639,-72.5043 918.837,-79.4011"/>
</g>
<!-- Node6 -->
<g id="node7" class="node"><title>Node6</title>
<polygon fill="white" stroke="#bfbfbf" points="1016.93,-56.5 1016.93,-75.5 1089.93,-75.5 1089.93,-56.5 1016.93,-56.5"/>
<text text-anchor="middle" x="1053.43" y="-63.5" font-family="Helvetica,sans-Serif" font-size="10.00">sys/socket.h</text>
</g>
<!-- Node2&#45;&gt;Node6 -->
<g id="edge6" class="edge"><title>Node2&#45;&gt;Node6</title>
<path fill="none" stroke="midnightblue" d="M644.064,-118.494C707.421,-112.783 864.452,-97.7109 1006.61,-76.0078"/>
<polygon fill="midnightblue" stroke="midnightblue" points="1007.47,-79.4168 1016.82,-74.4337 1006.4,-72.4986 1007.47,-79.4168"/>
</g>
<!-- Node7 -->
<g id="node8" class="node"><title>Node7</title>
<polygon fill="white" stroke="#bfbfbf" points="14.4323,-56.5 14.4323,-75.5 82.4323,-75.5 82.4323,-56.5 14.4323,-56.5"/>
<text text-anchor="middle" x="48.4323" y="-63.5" font-family="Helvetica,sans-Serif" font-size="10.00">sys/types.h</text>
</g>
<!-- Node2&#45;&gt;Node7 -->
<g id="edge7" class="edge"><title>Node2&#45;&gt;Node7</title>
<path fill="none" stroke="midnightblue" d="M586.892,-119.761C509.167,-116.131 287.097,-104.052 92.7447,-76.0232"/>
<polygon fill="midnightblue" stroke="midnightblue" points="93.034,-72.5284 82.6332,-74.5467 92.0225,-79.4549 93.034,-72.5284"/>
</g>
<!-- Node8 -->
<g id="node9" class="node"><title>Node8</title>
<polygon fill="white" stroke="#bfbfbf" points="100.932,-56.5 100.932,-75.5 147.932,-75.5 147.932,-56.5 100.932,-56.5"/>
<text text-anchor="middle" x="124.432" y="-63.5" font-family="Helvetica,sans-Serif" font-size="10.00">net/if.h</text>
</g>
<!-- Node2&#45;&gt;Node8 -->
<g id="edge8" class="edge"><title>Node2&#45;&gt;Node8</title>
<path fill="none" stroke="midnightblue" d="M586.716,-119.945C515.496,-116.955 324.989,-106.684 158.036,-76.0125"/>
<polygon fill="midnightblue" stroke="midnightblue" points="158.56,-72.55 148.088,-74.1552 157.275,-79.4311 158.56,-72.55"/>
</g>
<!-- Node9 -->
<g id="node10" class="node"><title>Node9</title>
<polygon fill="white" stroke="#bfbfbf" points="165.932,-56.5 165.932,-75.5 230.932,-75.5 230.932,-56.5 165.932,-56.5"/>
<text text-anchor="middle" x="198.432" y="-63.5" font-family="Helvetica,sans-Serif" font-size="10.00">netinet/in.h</text>
</g>
<!-- Node2&#45;&gt;Node9 -->
<g id="edge9" class="edge"><title>Node2&#45;&gt;Node9</title>
<path fill="none" stroke="midnightblue" d="M586.521,-118.504C524.841,-112.973 375.628,-98.4997 241.119,-76.1515"/>
<polygon fill="midnightblue" stroke="midnightblue" points="241.492,-72.6652 231.05,-74.459 240.332,-79.5684 241.492,-72.6652"/>
</g>
<!-- Node10 -->
<g id="node11" class="node"><title>Node10</title>
<polygon fill="white" stroke="#bfbfbf" points="248.932,-56.5 248.932,-75.5 319.932,-75.5 319.932,-56.5 248.932,-56.5"/>
<text text-anchor="middle" x="284.432" y="-63.5" font-family="Helvetica,sans-Serif" font-size="10.00">netinet/tcp.h</text>
</g>
<!-- Node2&#45;&gt;Node10 -->
<g id="edge10" class="edge"><title>Node2&#45;&gt;Node10</title>
<path fill="none" stroke="midnightblue" d="M586.544,-116.858C536.525,-109.599 430.333,-93.8071 330.245,-76.0828"/>
<polygon fill="midnightblue" stroke="midnightblue" points="330.727,-72.6138 320.268,-74.306 329.5,-79.5053 330.727,-72.6138"/>
</g>
<!-- Node11 -->
<g id="node12" class="node"><title>Node11</title>
<polygon fill="white" stroke="#bfbfbf" points="338.432,-56.5 338.432,-75.5 400.432,-75.5 400.432,-56.5 338.432,-56.5"/>
<text text-anchor="middle" x="369.432" y="-63.5" font-family="Helvetica,sans-Serif" font-size="10.00">arpa/inet.h</text>
</g>
<!-- Node2&#45;&gt;Node11 -->
<g id="edge11" class="edge"><title>Node2&#45;&gt;Node11</title>
<path fill="none" stroke="midnightblue" d="M586.76,-114.796C548.818,-106.573 479.577,-91.5226 410.607,-76.2502"/>
<polygon fill="midnightblue" stroke="midnightblue" points="410.957,-72.743 400.437,-73.9961 409.443,-79.5771 410.957,-72.743"/>
</g>
<!-- Node12 -->
<g id="node13" class="node"><title>Node12</title>
<polygon fill="white" stroke="#bfbfbf" points="418.432,-56.5 418.432,-75.5 472.432,-75.5 472.432,-56.5 418.432,-56.5"/>
<text text-anchor="middle" x="445.432" y="-63.5" font-family="Helvetica,sans-Serif" font-size="10.00">ifaddrs.h</text>
</g>
<!-- Node2&#45;&gt;Node12 -->
<g id="edge12" class="edge"><title>Node2&#45;&gt;Node12</title>
<path fill="none" stroke="midnightblue" d="M588.495,-112.444C559.772,-103.32 514.104,-88.8133 482.111,-78.6509"/>
<polygon fill="midnightblue" stroke="midnightblue" points="482.834,-75.2081 472.243,-75.5164 480.714,-81.8797 482.834,-75.2081"/>
</g>
<!-- Node13 -->
<g id="node14" class="node"><title>Node13</title>
<polygon fill="white" stroke="#bfbfbf" points="490.432,-56.5 490.432,-75.5 538.432,-75.5 538.432,-56.5 490.432,-56.5"/>
<text text-anchor="middle" x="514.432" y="-63.5" font-family="Helvetica,sans-Serif" font-size="10.00">limits.h</text>
</g>
<!-- Node2&#45;&gt;Node13 -->
<g id="edge13" class="edge"><title>Node2&#45;&gt;Node13</title>
<path fill="none" stroke="midnightblue" d="M599.205,-112.324C583.081,-103.703 558.132,-90.3643 539.468,-80.3855"/>
<polygon fill="midnightblue" stroke="midnightblue" points="541.088,-77.283 530.619,-75.6545 537.788,-83.456 541.088,-77.283"/>
</g>
<!-- Node14 -->
<g id="node15" class="node"><title>Node14</title>
<polygon fill="white" stroke="#bfbfbf" points="556.932,-56.5 556.932,-75.5 605.932,-75.5 605.932,-56.5 556.932,-56.5"/>
<text text-anchor="middle" x="581.432" y="-63.5" font-family="Helvetica,sans-Serif" font-size="10.00">netdb.h</text>
</g>
<!-- Node2&#45;&gt;Node14 -->
<g id="edge14" class="edge"><title>Node2&#45;&gt;Node14</title>
<path fill="none" stroke="midnightblue" d="M609.818,-112.083C605.065,-104.534 598.114,-93.4948 592.281,-84.2298"/>
<polygon fill="midnightblue" stroke="midnightblue" points="595.232,-82.3486 586.942,-75.7511 589.309,-86.0783 595.232,-82.3486"/>
</g>
<!-- Node15 -->
<g id="node16" class="node"><title>Node15</title>
<polygon fill="white" stroke="#bfbfbf" points="623.932,-56.5 623.932,-75.5 674.932,-75.5 674.932,-56.5 623.932,-56.5"/>
<text text-anchor="middle" x="649.432" y="-63.5" font-family="Helvetica,sans-Serif" font-size="10.00">unistd.h</text>
</g>
<!-- Node2&#45;&gt;Node15 -->
<g id="edge15" class="edge"><title>Node2&#45;&gt;Node15</title>
<path fill="none" stroke="midnightblue" d="M621.047,-112.083C625.8,-104.534 632.75,-93.4948 638.584,-84.2298"/>
<polygon fill="midnightblue" stroke="midnightblue" points="641.556,-86.0783 643.922,-75.7511 635.632,-82.3486 641.556,-86.0783"/>
</g>
<!-- Node16 -->
<g id="node17" class="node"><title>Node16</title>
<polygon fill="white" stroke="#bfbfbf" points="692.932,-56.5 692.932,-75.5 739.932,-75.5 739.932,-56.5 692.932,-56.5"/>
<text text-anchor="middle" x="716.432" y="-63.5" font-family="Helvetica,sans-Serif" font-size="10.00">errno.h</text>
</g>
<!-- Node2&#45;&gt;Node16 -->
<g id="edge16" class="edge"><title>Node2&#45;&gt;Node16</title>
<path fill="none" stroke="midnightblue" d="M631.66,-112.324C647.783,-103.703 672.732,-90.3643 691.396,-80.3855"/>
<polygon fill="midnightblue" stroke="midnightblue" points="693.077,-83.456 700.245,-75.6545 689.776,-77.283 693.077,-83.456"/>
</g>
<!-- Node18 -->
<g id="node19" class="node"><title>Node18</title>
<g id="a_node19"><a xlink:href="endian_8h.html" target="_top" xlink:title="compat/endian.h">
<polygon fill="white" stroke="red" points="1282.93,-56.5 1282.93,-75.5 1371.93,-75.5 1371.93,-56.5 1282.93,-56.5"/>
<text text-anchor="middle" x="1327.43" y="-63.5" font-family="Helvetica,sans-Serif" font-size="10.00">compat/endian.h</text>
</a>
</g>
</g>
<!-- Node17&#45;&gt;Node18 -->
<g id="edge18" class="edge"><title>Node17&#45;&gt;Node18</title>
<path fill="none" stroke="midnightblue" d="M1327.43,-112.083C1327.43,-105.006 1327.43,-94.8611 1327.43,-85.9865"/>
<polygon fill="midnightblue" stroke="midnightblue" points="1330.93,-85.751 1327.43,-75.7511 1323.93,-85.7511 1330.93,-85.751"/>
</g>
<!-- Node17&#45;&gt;Node19 -->
<g id="edge24" class="edge"><title>Node17&#45;&gt;Node19</title>
<path fill="none" stroke="midnightblue" d="M1310.8,-112.464C1297.94,-104.841 1281.09,-92.356 1273.43,-76 1264.13,-56.1335 1284.12,-37.2986 1302.35,-25.0682"/>
<polygon fill="midnightblue" stroke="midnightblue" points="1304.42,-27.902 1311.03,-19.6192 1300.7,-21.9742 1304.42,-27.902"/>
</g>
<!-- Node21 -->
<g id="node21" class="node"><title>Node21</title>
<polygon fill="white" stroke="#bfbfbf" points="2822.43,-56.5 2822.43,-75.5 2878.43,-75.5 2878.43,-56.5 2822.43,-56.5"/>
<text text-anchor="middle" x="2850.43" y="-63.5" font-family="Helvetica,sans-Serif" font-size="10.00">algorithm</text>
</g>
<!-- Node17&#45;&gt;Node21 -->
<g id="edge20" class="edge"><title>Node17&#45;&gt;Node21</title>
<path fill="none" stroke="midnightblue" d="M1358.1,-118.977C1389.17,-116.981 1438.63,-113.954 1481.43,-112 2007.99,-87.9634 2649.04,-71.8147 2811.56,-67.9145"/>
<polygon fill="midnightblue" stroke="midnightblue" points="2812.08,-71.4031 2822,-67.6651 2811.92,-64.4051 2812.08,-71.4031"/>
</g>
<!-- Node22 -->
<g id="node22" class="node"><title>Node22</title>
<polygon fill="white" stroke="#bfbfbf" points="1679.43,-0.5 1679.43,-19.5 1731.43,-19.5 1731.43,-0.5 1679.43,-0.5"/>
<text text-anchor="middle" x="1705.43" y="-7.5" font-family="Helvetica,sans-Serif" font-size="10.00">assert.h</text>
</g>
<!-- Node17&#45;&gt;Node22 -->
<g id="edge21" class="edge"><title>Node17&#45;&gt;Node22</title>
<path fill="none" stroke="midnightblue" d="M1358.1,-113.096C1397.35,-102.844 1463.07,-85.1903 1486.43,-76 1504.56,-68.8682 1507.2,-62.8515 1525.43,-56 1573.73,-37.8512 1632.07,-24.7956 1668.96,-17.5653"/>
<polygon fill="midnightblue" stroke="midnightblue" points="1670.07,-20.9166 1679.23,-15.5951 1668.75,-14.042 1670.07,-20.9166"/>
</g>
<!-- Node23 -->
<g id="node23" class="node"><title>Node23</title>
<polygon fill="white" stroke="#bfbfbf" points="1448.93,-56.5 1448.93,-75.5 1477.93,-75.5 1477.93,-56.5 1448.93,-56.5"/>
<text text-anchor="middle" x="1463.43" y="-63.5" font-family="Helvetica,sans-Serif" font-size="10.00">ios</text>
</g>
<!-- Node17&#45;&gt;Node23 -->
<g id="edge22" class="edge"><title>Node17&#45;&gt;Node23</title>
<path fill="none" stroke="midnightblue" d="M1348.98,-112.444C1373.58,-102.677 1413.71,-86.743 1439.33,-76.5716"/>
<polygon fill="midnightblue" stroke="midnightblue" points="1440.69,-79.7969 1448.69,-72.8536 1438.1,-73.291 1440.69,-79.7969"/>
</g>
<!-- Node24 -->
<g id="node24" class="node"><title>Node24</title>
<polygon fill="white" stroke="#bfbfbf" points="1390.43,-56.5 1390.43,-75.5 1430.43,-75.5 1430.43,-56.5 1390.43,-56.5"/>
<text text-anchor="middle" x="1410.43" y="-63.5" font-family="Helvetica,sans-Serif" font-size="10.00">limits</text>
</g>
<!-- Node17&#45;&gt;Node24 -->
<g id="edge23" class="edge"><title>Node17&#45;&gt;Node24</title>
<path fill="none" stroke="midnightblue" d="M1340.77,-112.324C1353.59,-103.979 1373.22,-91.2122 1388.37,-81.3524"/>
<polygon fill="midnightblue" stroke="midnightblue" points="1390.66,-84.0417 1397.13,-75.6545 1386.84,-78.1742 1390.66,-84.0417"/>
</g>
<!-- Node17&#45;&gt;Node29 -->
<g id="edge25" class="edge"><title>Node17&#45;&gt;Node29</title>
<path fill="none" stroke="midnightblue" d="M1308.1,-112.444C1288.11,-103.596 1256.69,-89.6875 1233.87,-79.5865"/>
<polygon fill="midnightblue" stroke="midnightblue" points="1235.23,-76.3635 1224.67,-75.5164 1232.4,-82.7645 1235.23,-76.3635"/>
</g>
<!-- Node17&#45;&gt;Node32 -->
<g id="edge26" class="edge"><title>Node17&#45;&gt;Node32</title>
<path fill="none" stroke="midnightblue" d="M1358.22,-113.98C1396.34,-105.252 1463.24,-89.8148 1520.43,-76 1521.7,-75.6937 1522.99,-75.3795 1524.3,-75.0606"/>
<polygon fill="midnightblue" stroke="midnightblue" points="1525.49,-78.3713 1534.36,-72.5767 1523.81,-71.5753 1525.49,-78.3713"/>
</g>
<!-- Node33 -->
<g id="node27" class="node"><title>Node33</title>
<g id="a_node27"><a xlink:href="prevector_8h.html" target="_top" xlink:title="prevector.h">
<polygon fill="white" stroke="red" points="1672.93,-56.5 1672.93,-75.5 1737.93,-75.5 1737.93,-56.5 1672.93,-56.5"/>
<text text-anchor="middle" x="1705.43" y="-63.5" font-family="Helvetica,sans-Serif" font-size="10.00">prevector.h</text>
</a>
</g>
</g>
<!-- Node17&#45;&gt;Node33 -->
<g id="edge27" class="edge"><title>Node17&#45;&gt;Node33</title>
<path fill="none" stroke="midnightblue" d="M1358.05,-116.627C1425.19,-107.034 1585.54,-84.1273 1662.62,-73.1157"/>
<polygon fill="midnightblue" stroke="midnightblue" points="1663.52,-76.5226 1672.93,-71.6434 1662.53,-69.5929 1663.52,-76.5226"/>
</g>
<!-- Node18&#45;&gt;Node19 -->
<g id="edge19" class="edge"><title>Node18&#45;&gt;Node19</title>
<path fill="none" stroke="midnightblue" d="M1327.43,-56.083C1327.43,-49.0059 1327.43,-38.8611 1327.43,-29.9865"/>
<polygon fill="midnightblue" stroke="midnightblue" points="1330.93,-29.751 1327.43,-19.7511 1323.93,-29.7511 1330.93,-29.751"/>
</g>
<!-- Node33&#45;&gt;Node19 -->
<g id="edge29" class="edge"><title>Node33&#45;&gt;Node19</title>
<path fill="none" stroke="midnightblue" d="M1672.86,-58.5258C1668.03,-57.6348 1663.11,-56.7646 1658.43,-56 1550.72,-38.3784 1422.49,-22.3456 1362.12,-15.0892"/>
<polygon fill="midnightblue" stroke="midnightblue" points="1362.34,-11.5912 1352,-13.8787 1361.51,-18.5417 1362.34,-11.5912"/>
</g>
<!-- Node33&#45;&gt;Node22 -->
<g id="edge28" class="edge"><title>Node33&#45;&gt;Node22</title>
<path fill="none" stroke="midnightblue" d="M1705.43,-56.083C1705.43,-49.0059 1705.43,-38.8611 1705.43,-29.9865"/>
<polygon fill="midnightblue" stroke="midnightblue" points="1708.93,-29.751 1705.43,-19.7511 1701.93,-29.7511 1708.93,-29.751"/>
</g>
<!-- Node36&#45;&gt;Node1 -->
<g id="edge35" class="edge"><title>Node36&#45;&gt;Node1</title>
<path fill="none" stroke="midnightblue" d="M1273.73,-224.083C1277.28,-216.691 1282.45,-205.953 1286.86,-196.811"/>
<polygon fill="midnightblue" stroke="midnightblue" points="1290.03,-198.279 1291.22,-187.751 1283.73,-195.243 1290.03,-198.279"/>
</g>
<!-- Node36&#45;&gt;Node2 -->
<g id="edge34" class="edge"><title>Node36&#45;&gt;Node2</title>
<path fill="none" stroke="midnightblue" d="M1239.63,-227.988C1133.51,-210.138 773.985,-149.668 654.444,-129.562"/>
<polygon fill="midnightblue" stroke="midnightblue" points="654.732,-126.061 644.29,-127.854 653.571,-132.964 654.732,-126.061"/>
</g>
<!-- Node36&#45;&gt;Node17 -->
<g id="edge36" class="edge"><title>Node36&#45;&gt;Node17</title>
<path fill="none" stroke="midnightblue" d="M1294.59,-224.378C1310.85,-217.343 1330.73,-205.645 1340.43,-188 1348.48,-173.376 1343.23,-154.46 1337.18,-140.809"/>
<polygon fill="midnightblue" stroke="midnightblue" points="1340.17,-138.961 1332.59,-131.554 1333.9,-142.068 1340.17,-138.961"/>
</g>
<!-- Node36&#45;&gt;Node19 -->
<g id="edge37" class="edge"><title>Node36&#45;&gt;Node19</title>
<path fill="none" stroke="midnightblue" d="M1239.77,-231.294C1041.21,-219.603 -84.4631,-149.007 5.43232,-56 51.4659,-8.37284 1088.56,-10.0438 1292.72,-10.8369"/>
<polygon fill="midnightblue" stroke="midnightblue" points="1292.85,-14.3374 1302.87,-10.8784 1292.88,-7.33745 1292.85,-14.3374"/>
</g>
<!-- Node36&#45;&gt;Node29 -->
<g id="edge38" class="edge"><title>Node36&#45;&gt;Node29</title>
<path fill="none" stroke="midnightblue" d="M1265.42,-224.449C1261.25,-215.453 1254.61,-200.844 1249.43,-188 1234.85,-151.868 1219.73,-108.844 1211.56,-85.0639"/>
<polygon fill="midnightblue" stroke="midnightblue" points="1214.87,-83.9182 1208.32,-75.5859 1208.24,-86.1804 1214.87,-83.9182"/>
</g>
<!-- Node36&#45;&gt;Node32 -->
<g id="edge39" class="edge"><title>Node36&#45;&gt;Node32</title>
<path fill="none" stroke="midnightblue" d="M1287.61,-224.438C1305.63,-215.782 1333.87,-201.754 1357.43,-188 1410.34,-157.117 1419.82,-143.387 1472.43,-112 1491.44,-100.663 1513.51,-88.8891 1530.26,-80.2291"/>
<polygon fill="midnightblue" stroke="midnightblue" points="1532.15,-83.1962 1539.44,-75.517 1528.95,-76.9683 1532.15,-83.1962"/>
</g>
<!-- Node37&#45;&gt;Node17 -->
<g id="edge46" class="edge"><title>Node37&#45;&gt;Node17</title>
<path fill="none" stroke="midnightblue" d="M2240.41,-175.89C2143.85,-171.201 1762.01,-152.317 1448.43,-132 1421.73,-130.27 1391.73,-128.04 1368.28,-126.233"/>
<polygon fill="midnightblue" stroke="midnightblue" points="1368.25,-122.72 1358,-125.436 1367.7,-129.699 1368.25,-122.72"/>
</g>
<!-- Node37&#45;&gt;Node32 -->
<g id="edge65" class="edge"><title>Node37&#45;&gt;Node32</title>
<path fill="none" stroke="midnightblue" d="M2240.06,-176.548C2112.81,-173.979 1508.16,-160.305 1481.43,-132 1462.41,-111.851 1496.89,-91.3658 1525.15,-78.9183"/>
<polygon fill="midnightblue" stroke="midnightblue" points="1526.55,-82.1248 1534.41,-75.0173 1523.84,-75.6737 1526.55,-82.1248"/>
</g>
<!-- Node37&#45;&gt;Node33 -->
<g id="edge45" class="edge"><title>Node37&#45;&gt;Node33</title>
<path fill="none" stroke="midnightblue" d="M2286.8,-176.37C2405.09,-173.073 2933.01,-156.989 2956.43,-132 2962.51,-125.514 2962.61,-118.394 2956.43,-112 2916.42,-70.5764 1977.98,-78.2043 1920.43,-76 1860.77,-73.7146 1791.8,-70.775 1748.41,-68.8887"/>
<polygon fill="midnightblue" stroke="midnightblue" points="1748.35,-65.3833 1738.21,-68.4446 1748.05,-72.3766 1748.35,-65.3833"/>
</g>
<!-- Node38 -->
<g id="node30" class="node"><title>Node38</title>
<g id="a_node30"><a xlink:href="ripemd160_8h.html" target="_top" xlink:title="crypto/ripemd160.h">
<polygon fill="white" stroke="red" points="2213.43,-112.5 2213.43,-131.5 2313.43,-131.5 2313.43,-112.5 2213.43,-112.5"/>
<text text-anchor="middle" x="2263.43" y="-119.5" font-family="Helvetica,sans-Serif" font-size="10.00">crypto/ripemd160.h</text>
</a>
</g>
</g>
<!-- Node37&#45;&gt;Node38 -->
<g id="edge41" class="edge"><title>Node37&#45;&gt;Node38</title>
<path fill="none" stroke="midnightblue" d="M2263.43,-168.083C2263.43,-161.006 2263.43,-150.861 2263.43,-141.986"/>
<polygon fill="midnightblue" stroke="midnightblue" points="2266.93,-141.751 2263.43,-131.751 2259.93,-141.751 2266.93,-141.751"/>
</g>
<!-- Node39 -->
<g id="node31" class="node"><title>Node39</title>
<g id="a_node31"><a xlink:href="sha256_8h.html" target="_top" xlink:title="crypto/sha256.h">
<polygon fill="white" stroke="red" points="2331.43,-112.5 2331.43,-131.5 2417.43,-131.5 2417.43,-112.5 2331.43,-112.5"/>
<text text-anchor="middle" x="2374.43" y="-119.5" font-family="Helvetica,sans-Serif" font-size="10.00">crypto/sha256.h</text>
</a>
</g>
</g>
<!-- Node37&#45;&gt;Node39 -->
<g id="edge43" class="edge"><title>Node37&#45;&gt;Node39</title>
<path fill="none" stroke="midnightblue" d="M2281.27,-168.324C2299.15,-159.625 2326.91,-146.12 2347.48,-136.113"/>
<polygon fill="midnightblue" stroke="midnightblue" points="2349.18,-139.177 2356.64,-131.655 2346.12,-132.882 2349.18,-139.177"/>
</g>
<!-- Node40 -->
<g id="node32" class="node"><title>Node40</title>
<g id="a_node32"><a xlink:href="uint256_8h.html" target="_top" xlink:title="uint256.h">
<polygon fill="white" stroke="red" points="3004.43,-112.5 3004.43,-131.5 3060.43,-131.5 3060.43,-112.5 3004.43,-112.5"/>
<text text-anchor="middle" x="3032.43" y="-119.5" font-family="Helvetica,sans-Serif" font-size="10.00">uint256.h</text>
</a>
</g>
</g>
<!-- Node37&#45;&gt;Node40 -->
<g id="edge47" class="edge"><title>Node37&#45;&gt;Node40</title>
<path fill="none" stroke="midnightblue" d="M2286.47,-176.823C2376.78,-175.864 2715.13,-169.802 2990.43,-132 2991.68,-131.829 2992.94,-131.641 2994.22,-131.44"/>
<polygon fill="midnightblue" stroke="midnightblue" points="2994.84,-134.884 3004.07,-129.678 2993.61,-127.994 2994.84,-134.884"/>
</g>
<!-- Node44 -->
<g id="node34" class="node"><title>Node44</title>
<g id="a_node34"><a xlink:href="version_8h.html" target="_top" xlink:title="version.h">
<polygon fill="white" stroke="black" points="2435.43,-112.5 2435.43,-131.5 2491.43,-131.5 2491.43,-112.5 2435.43,-112.5"/>
<text text-anchor="middle" x="2463.43" y="-119.5" font-family="Helvetica,sans-Serif" font-size="10.00">version.h</text>
</a>
</g>
</g>
<!-- Node37&#45;&gt;Node44 -->
<g id="edge53" class="edge"><title>Node37&#45;&gt;Node44</title>
<path fill="none" stroke="midnightblue" d="M2286.77,-170.7C2320.77,-161.518 2384.34,-144.354 2425.23,-133.313"/>
<polygon fill="midnightblue" stroke="midnightblue" points="2426.37,-136.633 2435.11,-130.647 2424.54,-129.875 2426.37,-136.633"/>
</g>
<!-- Node45 -->
<g id="node35" class="node"><title>Node45</title>
<g id="a_node35"><a xlink:href="sph__blake_8h.html" target="_top" xlink:title="BLAKE interface. ">
<polygon fill="white" stroke="red" points="2509.93,-112.5 2509.93,-131.5 2608.93,-131.5 2608.93,-112.5 2509.93,-112.5"/>
<text text-anchor="middle" x="2559.43" y="-119.5" font-family="Helvetica,sans-Serif" font-size="10.00">crypto/sph_blake.h</text>
</a>
</g>
</g>
<!-- Node37&#45;&gt;Node45 -->
<g id="edge54" class="edge"><title>Node37&#45;&gt;Node45</title>
<path fill="none" stroke="midnightblue" d="M2286.66,-172.763C2332.78,-164.349 2437.09,-145.319 2502.52,-133.382"/>
<polygon fill="midnightblue" stroke="midnightblue" points="2503.47,-136.767 2512.68,-131.529 2502.21,-129.881 2503.47,-136.767"/>
</g>
<!-- Node48 -->
<g id="node36" class="node"><title>Node48</title>
<g id="a_node36"><a xlink:href="sph__bmw_8h.html" target="_top" xlink:title="BMW interface. ">
<polygon fill="white" stroke="red" points="2626.93,-112.5 2626.93,-131.5 2723.93,-131.5 2723.93,-112.5 2626.93,-112.5"/>
<text text-anchor="middle" x="2675.43" y="-119.5" font-family="Helvetica,sans-Serif" font-size="10.00">crypto/sph_bmw.h</text>
</a>
</g>
</g>
<!-- Node37&#45;&gt;Node48 -->
<g id="edge55" class="edge"><title>Node37&#45;&gt;Node48</title>
<path fill="none" stroke="midnightblue" d="M2286.66,-174.272C2341.84,-167.743 2485.36,-150.48 2616.49,-132.098"/>
<polygon fill="midnightblue" stroke="midnightblue" points="2617.3,-135.519 2626.71,-130.659 2616.32,-128.588 2617.3,-135.519"/>
</g>
<!-- Node49 -->
<g id="node37" class="node"><title>Node49</title>
<g id="a_node37"><a xlink:href="sph__groestl_8h.html" target="_top" xlink:title="Groestl interface. ">
<polygon fill="white" stroke="red" points="2741.93,-112.5 2741.93,-131.5 2846.93,-131.5 2846.93,-112.5 2741.93,-112.5"/>
<text text-anchor="middle" x="2794.43" y="-119.5" font-family="Helvetica,sans-Serif" font-size="10.00">crypto/sph_groestl.h</text>
</a>
</g>
</g>
<!-- Node37&#45;&gt;Node49 -->
<g id="edge56" class="edge"><title>Node37&#45;&gt;Node49</title>
<path fill="none" stroke="midnightblue" d="M2286.9,-175.154C2354.27,-169.767 2554.28,-153.179 2731.66,-132.038"/>
<polygon fill="midnightblue" stroke="midnightblue" points="2732.18,-135.5 2741.69,-130.834 2731.34,-128.55 2732.18,-135.5"/>
</g>
<!-- Node50 -->
<g id="node38" class="node"><title>Node50</title>
<g id="a_node38"><a xlink:href="sph__jh_8h.html" target="_top" xlink:title="JH interface. ">
<polygon fill="white" stroke="red" points="2864.93,-112.5 2864.93,-131.5 2947.93,-131.5 2947.93,-112.5 2864.93,-112.5"/>
<text text-anchor="middle" x="2906.43" y="-119.5" font-family="Helvetica,sans-Serif" font-size="10.00">crypto/sph_jh.h</text>
</a>
</g>
</g>
<!-- Node37&#45;&gt;Node50 -->
<g id="edge57" class="edge"><title>Node37&#45;&gt;Node50</title>
<path fill="none" stroke="midnightblue" d="M2286.65,-176.061C2365.03,-172.719 2627.21,-160.129 2854.62,-131.97"/>
<polygon fill="midnightblue" stroke="midnightblue" points="2855.25,-135.419 2864.73,-130.704 2854.38,-128.473 2855.25,-135.419"/>
</g>
<!-- Node51 -->
<g id="node39" class="node"><title>Node51</title>
<g id="a_node39"><a xlink:href="sph__keccak_8h.html" target="_top" xlink:title="Keccak interface. ">
<polygon fill="white" stroke="red" points="3077.93,-112.5 3077.93,-131.5 3184.93,-131.5 3184.93,-112.5 3077.93,-112.5"/>
<text text-anchor="middle" x="3131.43" y="-119.5" font-family="Helvetica,sans-Serif" font-size="10.00">crypto/sph_keccak.h</text>
</a>
</g>
</g>
<!-- Node37&#45;&gt;Node51 -->
<g id="edge58" class="edge"><title>Node37&#45;&gt;Node51</title>
<path fill="none" stroke="midnightblue" d="M2286.54,-176.436C2381.59,-173.964 2751.83,-162.847 3067.59,-131.986"/>
<polygon fill="midnightblue" stroke="midnightblue" points="3068.25,-135.438 3077.85,-130.974 3067.56,-128.472 3068.25,-135.438"/>
</g>
<!-- Node52 -->
<g id="node40" class="node"><title>Node52</title>
<g id="a_node40"><a xlink:href="sph__skein_8h.html" target="_top" xlink:title="Skein interface. ">
<polygon fill="white" stroke="red" points="1490.93,-112.5 1490.93,-131.5 1589.93,-131.5 1589.93,-112.5 1490.93,-112.5"/>
<text text-anchor="middle" x="1540.43" y="-119.5" font-family="Helvetica,sans-Serif" font-size="10.00">crypto/sph_skein.h</text>
</a>
</g>
</g>
<!-- Node37&#45;&gt;Node52 -->
<g id="edge59" class="edge"><title>Node37&#45;&gt;Node52</title>
<path fill="none" stroke="midnightblue" d="M2240.4,-176.163C2156.22,-172.953 1857.17,-160.224 1600.34,-132.125"/>
<polygon fill="midnightblue" stroke="midnightblue" points="1600.39,-128.61 1590.07,-130.991 1599.62,-135.568 1600.39,-128.61"/>
</g>
<!-- Node53 -->
<g id="node41" class="node"><title>Node53</title>
<g id="a_node41"><a xlink:href="sph__luffa_8h.html" target="_top" xlink:title="Luffa interface. ">
<polygon fill="white" stroke="red" points="1607.93,-112.5 1607.93,-131.5 1702.93,-131.5 1702.93,-112.5 1607.93,-112.5"/>
<text text-anchor="middle" x="1655.43" y="-119.5" font-family="Helvetica,sans-Serif" font-size="10.00">crypto/sph_luffa.h</text>
</a>
</g>
</g>
<!-- Node37&#45;&gt;Node53 -->
<g id="edge60" class="edge"><title>Node37&#45;&gt;Node53</title>
<path fill="none" stroke="midnightblue" d="M2240.27,-175.733C2165.57,-171.517 1924.08,-156.861 1713.01,-131.974"/>
<polygon fill="midnightblue" stroke="midnightblue" points="1713.32,-128.487 1702.98,-130.781 1712.5,-135.438 1713.32,-128.487"/>
</g>
<!-- Node54 -->
<g id="node42" class="node"><title>Node54</title>
<g id="a_node42"><a xlink:href="sph__cubehash_8h.html" target="_top" xlink:title="CubeHash interface. ">
<polygon fill="white" stroke="red" points="1721.43,-112.5 1721.43,-131.5 1839.43,-131.5 1839.43,-112.5 1721.43,-112.5"/>
<text text-anchor="middle" x="1780.43" y="-119.5" font-family="Helvetica,sans-Serif" font-size="10.00">crypto/sph_cubehash.h</text>
</a>
</g>
</g>
<!-- Node37&#45;&gt;Node54 -->
<g id="edge61" class="edge"><title>Node37&#45;&gt;Node54</title>
<path fill="none" stroke="midnightblue" d="M2240.01,-174.656C2178.14,-168.422 2005.03,-150.712 1849.95,-132.159"/>
<polygon fill="midnightblue" stroke="midnightblue" points="1850.11,-128.653 1839.76,-130.936 1849.27,-135.603 1850.11,-128.653"/>
</g>
<!-- Node55 -->
<g id="node43" class="node"><title>Node55</title>
<g id="a_node43"><a xlink:href="sph__shavite_8h.html" target="_top" xlink:title="SHAvite&#45;3 interface. ">
<polygon fill="white" stroke="red" points="1857.93,-112.5 1857.93,-131.5 1964.93,-131.5 1964.93,-112.5 1857.93,-112.5"/>
<text text-anchor="middle" x="1911.43" y="-119.5" font-family="Helvetica,sans-Serif" font-size="10.00">crypto/sph_shavite.h</text>
</a>
</g>
</g>
<!-- Node37&#45;&gt;Node55 -->
<g id="edge62" class="edge"><title>Node37&#45;&gt;Node55</title>
<path fill="none" stroke="midnightblue" d="M2240.34,-173.457C2187.17,-165.3 2054.57,-144.959 1974.92,-132.74"/>
<polygon fill="midnightblue" stroke="midnightblue" points="1975.42,-129.275 1965,-131.218 1974.35,-136.194 1975.42,-129.275"/>
</g>
<!-- Node56 -->
<g id="node44" class="node"><title>Node56</title>
<g id="a_node44"><a xlink:href="sph__simd_8h.html" target="_top" xlink:title="SIMD interface. ">
<polygon fill="white" stroke="red" points="1982.93,-112.5 1982.93,-131.5 2079.93,-131.5 2079.93,-112.5 1982.93,-112.5"/>
<text text-anchor="middle" x="2031.43" y="-119.5" font-family="Helvetica,sans-Serif" font-size="10.00">crypto/sph_simd.h</text>
</a>
</g>
</g>
<!-- Node37&#45;&gt;Node56 -->
<g id="edge63" class="edge"><title>Node37&#45;&gt;Node56</title>
<path fill="none" stroke="midnightblue" d="M2240.34,-171.625C2202.6,-162.84 2126.98,-145.24 2077.83,-133.799"/>
<polygon fill="midnightblue" stroke="midnightblue" points="2078.6,-130.385 2068.07,-131.527 2077.01,-137.203 2078.6,-130.385"/>
</g>
<!-- Node57 -->
<g id="node45" class="node"><title>Node57</title>
<g id="a_node45"><a xlink:href="sph__echo_8h.html" target="_top" xlink:title="ECHO interface. ">
<polygon fill="white" stroke="red" points="2097.93,-112.5 2097.93,-131.5 2194.93,-131.5 2194.93,-112.5 2097.93,-112.5"/>
<text text-anchor="middle" x="2146.43" y="-119.5" font-family="Helvetica,sans-Serif" font-size="10.00">crypto/sph_echo.h</text>
</a>
</g>
</g>
<!-- Node37&#45;&gt;Node57 -->
<g id="edge64" class="edge"><title>Node37&#45;&gt;Node57</title>
<path fill="none" stroke="midnightblue" d="M2244.89,-168.444C2225.81,-159.636 2195.86,-145.812 2174,-135.722"/>
<polygon fill="midnightblue" stroke="midnightblue" points="2175.43,-132.529 2164.88,-131.516 2172.5,-138.885 2175.43,-132.529"/>
</g>
<!-- Node38&#45;&gt;Node19 -->
<g id="edge42" class="edge"><title>Node38&#45;&gt;Node19</title>
<path fill="none" stroke="midnightblue" d="M2213.38,-113.163C2210.02,-112.738 2206.68,-112.345 2203.43,-112 1949.69,-85.0491 1878,-137.815 1630.43,-76 1609.59,-70.7962 1606.96,-62.3343 1586.43,-56 1508.26,-31.8767 1412.58,-19.4731 1362.23,-14.2041"/>
<polygon fill="midnightblue" stroke="midnightblue" points="1362.5,-10.7136 1352.2,-13.1864 1361.8,-17.6779 1362.5,-10.7136"/>
</g>
<!-- Node39&#45;&gt;Node19 -->
<g id="edge44" class="edge"><title>Node39&#45;&gt;Node19</title>
<path fill="none" stroke="midnightblue" d="M2331.36,-113.146C2328.34,-112.719 2325.35,-112.331 2322.43,-112 2030.98,-78.9315 1947.33,-149.765 1663.43,-76 1643.81,-70.9013 1641.79,-62.0421 1622.43,-56 1531.14,-27.4986 1418.11,-16.7025 1362.17,-12.8975"/>
<polygon fill="midnightblue" stroke="midnightblue" points="1362.29,-9.39811 1352.08,-12.2461 1361.84,-16.3835 1362.29,-9.39811"/>
</g>
<!-- Node40&#45;&gt;Node19 -->
<g id="edge50" class="edge"><title>Node40&#45;&gt;Node19</title>
<path fill="none" stroke="midnightblue" d="M3004.42,-116.273C2994.35,-114.715 2982.91,-113.101 2972.43,-112 2709.4,-84.3562 2642.42,-92.163 2378.43,-76 1979.54,-51.5774 1495.52,-21.4678 1362.62,-13.1923"/>
<polygon fill="midnightblue" stroke="midnightblue" points="1362.46,-9.67521 1352.26,-12.5468 1362.02,-16.6617 1362.46,-9.67521"/>
</g>
<!-- Node40&#45;&gt;Node22 -->
<g id="edge48" class="edge"><title>Node40&#45;&gt;Node22</title>
<path fill="none" stroke="midnightblue" d="M3004.4,-116.384C2994.34,-114.836 2982.9,-113.2 2972.43,-112 2486.99,-56.3109 1893.38,-21.3943 1741.94,-12.9808"/>
<polygon fill="midnightblue" stroke="midnightblue" points="1741.98,-9.47809 1731.81,-12.4209 1741.6,-16.4674 1741.98,-9.47809"/>
</g>
<!-- Node40&#45;&gt;Node29 -->
<g id="edge51" class="edge"><title>Node40&#45;&gt;Node29</title>
<path fill="none" stroke="midnightblue" d="M3004.34,-117.018C2990.03,-115.156 2972.34,-113.109 2956.43,-112 2210.07,-59.9472 2019.42,-133.17 1273.43,-76 1261.25,-75.0664 1247.91,-73.4357 1236.3,-71.8165"/>
<polygon fill="midnightblue" stroke="midnightblue" points="1236.6,-68.3238 1226.2,-70.353 1235.6,-75.2514 1236.6,-68.3238"/>
</g>
<!-- Node40&#45;&gt;Node32 -->
<g id="edge52" class="edge"><title>Node40&#45;&gt;Node32</title>
<path fill="none" stroke="midnightblue" d="M3004.34,-117.061C2990.03,-115.211 2972.33,-113.161 2956.43,-112 2383.07,-70.1543 2237.42,-108.105 1663.43,-76 1638.27,-74.5928 1609.85,-72.1627 1588.63,-70.1821"/>
<polygon fill="midnightblue" stroke="midnightblue" points="1588.83,-66.6849 1578.54,-69.2238 1588.16,-73.6536 1588.83,-66.6849"/>
</g>
<!-- Node42 -->
<g id="node33" class="node"><title>Node42</title>
<polygon fill="white" stroke="#bfbfbf" points="3033.93,-56.5 3033.93,-75.5 3092.93,-75.5 3092.93,-56.5 3033.93,-56.5"/>
<text text-anchor="middle" x="3063.43" y="-63.5" font-family="Helvetica,sans-Serif" font-size="10.00">stdexcept</text>
</g>
<!-- Node40&#45;&gt;Node42 -->
<g id="edge49" class="edge"><title>Node40&#45;&gt;Node42</title>
<path fill="none" stroke="midnightblue" d="M3037.55,-112.083C3041.84,-104.613 3048.09,-93.7244 3053.37,-84.5199"/>
<polygon fill="midnightblue" stroke="midnightblue" points="3056.47,-86.1662 3058.41,-75.7511 3050.39,-82.6811 3056.47,-86.1662"/>
</g>
<!-- Node58&#45;&gt;Node19 -->
<g id="edge67" class="edge"><title>Node58&#45;&gt;Node19</title>
<path fill="none" stroke="midnightblue" d="M1155.62,-112.093C1156.41,-98.1738 1159.99,-71.2794 1175.43,-56 1206.81,-24.9514 1258.55,-15.1446 1292.8,-12.1499"/>
<polygon fill="midnightblue" stroke="midnightblue" points="1293.11,-15.6369 1302.83,-11.4233 1292.61,-8.65515 1293.11,-15.6369"/>
</g>
<!-- Node58&#45;&gt;Node29 -->
<g id="edge68" class="edge"><title>Node58&#45;&gt;Node29</title>
<path fill="none" stroke="midnightblue" d="M1163.69,-112.083C1170.9,-104.298 1181.54,-92.8015 1190.28,-83.3665"/>
<polygon fill="midnightblue" stroke="midnightblue" points="1193.1,-85.4666 1197.33,-75.7511 1187.97,-80.7108 1193.1,-85.4666"/>
</g>
<!-- Node58&#45;&gt;Node32 -->
<g id="edge69" class="edge"><title>Node58&#45;&gt;Node32</title>
<path fill="none" stroke="midnightblue" d="M1202.22,-114.7C1284.56,-103.612 1453.33,-80.884 1524.09,-71.3555"/>
<polygon fill="midnightblue" stroke="midnightblue" points="1524.74,-74.7991 1534.19,-69.9958 1523.81,-67.8618 1524.74,-74.7991"/>
</g>
<!-- Node59&#45;&gt;Node21 -->
<g id="edge71" class="edge"><title>Node59&#45;&gt;Node21</title>
<path fill="none" stroke="midnightblue" d="M3203.37,-113.782C3200.02,-113.148 3196.66,-112.541 3193.43,-112 3083.18,-93.5159 2951.92,-78.121 2888.49,-71.0951"/>
<polygon fill="midnightblue" stroke="midnightblue" points="2888.87,-67.6154 2878.54,-70.0004 2888.1,-74.5734 2888.87,-67.6154"/>
</g>
<!-- Node59&#45;&gt;Node42 -->
<g id="edge75" class="edge"><title>Node59&#45;&gt;Node42</title>
<path fill="none" stroke="midnightblue" d="M3209.86,-112.444C3180.33,-103.28 3133.31,-88.6876 3100.55,-78.5192"/>
<polygon fill="midnightblue" stroke="midnightblue" points="3101.46,-75.1378 3090.87,-75.5164 3099.39,-81.8232 3101.46,-75.1378"/>
</g>
<!-- Node60 -->
<g id="node48" class="node"><title>Node60</title>
<polygon fill="white" stroke="#bfbfbf" points="3142.93,-56.5 3142.93,-75.5 3191.93,-75.5 3191.93,-56.5 3142.93,-56.5"/>
<text text-anchor="middle" x="3167.43" y="-63.5" font-family="Helvetica,sans-Serif" font-size="10.00">cassert</text>
</g>
<!-- Node59&#45;&gt;Node60 -->
<g id="edge72" class="edge"><title>Node59&#45;&gt;Node60</title>
<path fill="none" stroke="midnightblue" d="M3226.19,-112.324C3215.63,-104.185 3199.63,-91.8395 3186.99,-82.0874"/>
<polygon fill="midnightblue" stroke="midnightblue" points="3188.94,-79.1707 3178.88,-75.8339 3184.66,-84.7132 3188.94,-79.1707"/>
</g>
<!-- Node61 -->
<g id="node49" class="node"><title>Node61</title>
<polygon fill="white" stroke="#bfbfbf" points="3210.43,-56.5 3210.43,-75.5 3264.43,-75.5 3264.43,-56.5 3210.43,-56.5"/>
<text text-anchor="middle" x="3237.43" y="-63.5" font-family="Helvetica,sans-Serif" font-size="10.00">iostream</text>
</g>
<!-- Node59&#45;&gt;Node61 -->
<g id="edge73" class="edge"><title>Node59&#45;&gt;Node61</title>
<path fill="none" stroke="midnightblue" d="M3237.43,-112.083C3237.43,-105.006 3237.43,-94.8611 3237.43,-85.9865"/>
<polygon fill="midnightblue" stroke="midnightblue" points="3240.93,-85.751 3237.43,-75.7511 3233.93,-85.7511 3240.93,-85.751"/>
</g>
<!-- Node62 -->
<g id="node50" class="node"><title>Node62</title>
<polygon fill="white" stroke="#bfbfbf" points="3282.43,-56.5 3282.43,-75.5 3334.43,-75.5 3334.43,-56.5 3282.43,-56.5"/>
<text text-anchor="middle" x="3308.43" y="-63.5" font-family="Helvetica,sans-Serif" font-size="10.00">sstream</text>
</g>
<!-- Node59&#45;&gt;Node62 -->
<g id="edge74" class="edge"><title>Node59&#45;&gt;Node62</title>
<path fill="none" stroke="midnightblue" d="M3248.84,-112.324C3259.54,-104.185 3275.77,-91.8395 3288.6,-82.0874"/>
<polygon fill="midnightblue" stroke="midnightblue" points="3290.98,-84.6734 3296.82,-75.8339 3286.74,-79.1018 3290.98,-84.6734"/>
</g>
</g>
</svg>
