<?xml version="1.0" encoding="UTF-8" standalone="no"?>
<!DOCTYPE svg PUBLIC "-//W3C//DTD SVG 1.1//EN"
 "http://www.w3.org/Graphics/SVG/1.1/DTD/svg11.dtd">
<!-- Generated by graphviz version 2.36.0 (20140111.2315)
 -->
<!-- Title: src/netbase.h Pages: 1 -->
<!--zoomable 308 -->
<svg id="main" version="1.1" xmlns="http://www.w3.org/2000/svg" xmlns:xlink="http://www.w3.org/1999/xlink" xml:space="preserve" onload="init(evt)">
<style type="text/css"><![CDATA[
.edge:hover path { stroke: red; }
.edge:hover polygon { stroke: red; fill: red; }
]]></style>
<script type="text/javascript"><![CDATA[
var edges = document.getElementsByTagName('g');
if (edges && edges.length) {
  for (var i=0;i<edges.length;i++) {
    if (edges[i].id.substr(0,4)=='edge') {
      edges[i].setAttribute('class','edge');
    }
  }
}
]]></script>
        <defs>
                <circle id="rim" cx="0" cy="0" r="7"/>
                <circle id="rim2" cx="0" cy="0" r="3.5"/>
                <g id="zoomPlus">
                        <use xlink:href="#rim" fill="#404040">
                                <set attributeName="fill" to="#808080" begin="zoomplus.mouseover" end="zoomplus.mouseout"/>
                        </use>
                        <path d="M-4,0h8M0,-4v8" fill="none" stroke="white" stroke-width="1.5" pointer-events="none"/>
                </g>
                <g id="zoomMin">
                        <use xlink:href="#rim" fill="#404040">
                                <set attributeName="fill" to="#808080" begin="zoomminus.mouseover" end="zoomminus.mouseout"/>
                        </use>
                        <path d="M-4,0h8" fill="none" stroke="white" stroke-width="1.5" pointer-events="none"/>
                </g>
                <g id="dirArrow">
                        <path fill="none" stroke="white" stroke-width="1.5" d="M0,-3.0v7 M-2.5,-0.5L0,-3.0L2.5,-0.5"/>
                </g>
               <g id="resetDef">
                       <use xlink:href="#rim2" fill="#404040">
                               <set attributeName="fill" to="#808080" begin="reset.mouseover" end="reset.mouseout"/>
                       </use>
               </g>
        </defs>

<script type="text/javascript">
var viewWidth = 2032;
var viewHeight = 308;
var sectionId = 'dynsection-0';
</script>
<script xlink:href="svgpan.js"/>
<svg id="graph" class="graph">
<g id="viewport">
<title>src/netbase.h</title>
<polygon fill="white" stroke="none" points="-4,4 -4,-304 2028,-304 2028,4 -4,4"/>
<!-- Node0 -->
<g id="node1" class="node"><title>Node0</title>
<polygon fill="#bfbfbf" stroke="black" points="1693,-280.5 1693,-299.5 1769,-299.5 1769,-280.5 1693,-280.5"/>
<text text-anchor="middle" x="1731" y="-287.5" font-family="Helvetica,sans-Serif" font-size="10.00">src/netbase.h</text>
</g>
<!-- Node1 -->
<g id="node2" class="node"><title>Node1</title>
<g id="a_node2"><a xlink:href="compat_8h.html" target="_top" xlink:title="compat.h">
<polygon fill="white" stroke="black" points="589.5,-168.5 589.5,-187.5 646.5,-187.5 646.5,-168.5 589.5,-168.5"/>
<text text-anchor="middle" x="618" y="-175.5" font-family="Helvetica,sans-Serif" font-size="10.00">compat.h</text>
</a>
</g>
</g>
<!-- Node0&#45;&gt;Node1 -->
<g id="edge1" class="edge"><title>Node0&#45;&gt;Node1</title>
<path fill="none" stroke="midnightblue" d="M1692.69,-285.214C1521.68,-268.312 828.98,-199.852 656.86,-182.841"/>
<polygon fill="midnightblue" stroke="midnightblue" points="657.039,-179.341 646.743,-181.841 656.35,-186.307 657.039,-179.341"/>
</g>
<!-- Node16 -->
<g id="node17" class="node"><title>Node16</title>
<g id="a_node17"><a xlink:href="netaddress_8h.html" target="_top" xlink:title="netaddress.h">
<polygon fill="white" stroke="black" points="1756.5,-224.5 1756.5,-243.5 1829.5,-243.5 1829.5,-224.5 1756.5,-224.5"/>
<text text-anchor="middle" x="1793" y="-231.5" font-family="Helvetica,sans-Serif" font-size="10.00">netaddress.h</text>
</a>
</g>
</g>
<!-- Node0&#45;&gt;Node16 -->
<g id="edge16" class="edge"><title>Node0&#45;&gt;Node16</title>
<path fill="none" stroke="midnightblue" d="M1740.96,-280.324C1750.13,-272.341 1763.94,-260.313 1775.03,-250.653"/>
<polygon fill="midnightblue" stroke="midnightblue" points="1777.62,-253.041 1782.86,-243.834 1773.02,-247.762 1777.62,-253.041"/>
</g>
<!-- Node17 -->
<g id="node18" class="node"><title>Node17</title>
<g id="a_node18"><a xlink:href="serialize_8h.html" target="_top" xlink:title="serialize.h">
<polygon fill="white" stroke="black" points="1521.5,-168.5 1521.5,-187.5 1582.5,-187.5 1582.5,-168.5 1521.5,-168.5"/>
<text text-anchor="middle" x="1552" y="-175.5" font-family="Helvetica,sans-Serif" font-size="10.00">serialize.h</text>
</a>
</g>
</g>
<!-- Node0&#45;&gt;Node17 -->
<g id="edge45" class="edge"><title>Node0&#45;&gt;Node17</title>
<path fill="none" stroke="midnightblue" d="M1716.95,-280.368C1686.11,-261.412 1612.21,-216.001 1574.69,-192.942"/>
<polygon fill="midnightblue" stroke="midnightblue" points="1576.33,-189.845 1565.98,-187.591 1572.67,-195.809 1576.33,-189.845"/>
</g>
<!-- Node19 -->
<g id="node20" class="node"><title>Node19</title>
<polygon fill="white" stroke="#bfbfbf" points="1634.5,-0.5 1634.5,-19.5 1683.5,-19.5 1683.5,-0.5 1634.5,-0.5"/>
<text text-anchor="middle" x="1659" y="-7.5" font-family="Helvetica,sans-Serif" font-size="10.00">stdint.h</text>
</g>
<!-- Node0&#45;&gt;Node19 -->
<g id="edge46" class="edge"><title>Node0&#45;&gt;Node19</title>
<path fill="none" stroke="midnightblue" d="M1692.83,-288.633C1438.55,-285.943 0,-266.844 0,-179 0,-179 0,-179 0,-121 0,-36.6032 1384.99,-14.6001 1624.06,-11.4307"/>
<polygon fill="midnightblue" stroke="midnightblue" points="1624.31,-14.9279 1634.26,-11.2978 1624.22,-7.92847 1624.31,-14.9279"/>
</g>
<!-- Node29 -->
<g id="node30" class="node"><title>Node29</title>
<polygon fill="white" stroke="#bfbfbf" points="1983.5,-112.5 1983.5,-131.5 2024.5,-131.5 2024.5,-112.5 1983.5,-112.5"/>
<text text-anchor="middle" x="2004" y="-119.5" font-family="Helvetica,sans-Serif" font-size="10.00">string</text>
</g>
<!-- Node0&#45;&gt;Node29 -->
<g id="edge47" class="edge"><title>Node0&#45;&gt;Node29</title>
<path fill="none" stroke="midnightblue" d="M1769.06,-280.48C1796.84,-273.27 1834.76,-261.319 1865,-244 1916.13,-214.713 1965.64,-164.936 1989.39,-139.312"/>
<polygon fill="midnightblue" stroke="midnightblue" points="1992.26,-141.356 1996.42,-131.612 1987.1,-136.635 1992.26,-141.356"/>
</g>
<!-- Node32 -->
<g id="node33" class="node"><title>Node32</title>
<polygon fill="white" stroke="#bfbfbf" points="1921,-112.5 1921,-131.5 1965,-131.5 1965,-112.5 1921,-112.5"/>
<text text-anchor="middle" x="1943" y="-119.5" font-family="Helvetica,sans-Serif" font-size="10.00">vector</text>
</g>
<!-- Node0&#45;&gt;Node32 -->
<g id="edge48" class="edge"><title>Node0&#45;&gt;Node32</title>
<path fill="none" stroke="midnightblue" d="M1759.8,-280.366C1782.28,-272.835 1813.65,-260.522 1838,-244 1879.83,-215.609 1915.2,-166.529 1932.19,-140.456"/>
<polygon fill="midnightblue" stroke="midnightblue" points="1935.36,-141.996 1937.78,-131.681 1929.45,-138.237 1935.36,-141.996"/>
</g>
<!-- Node2 -->
<g id="node3" class="node"><title>Node2</title>
<polygon fill="white" stroke="#bfbfbf" points="368,-112.5 368,-131.5 430,-131.5 430,-112.5 368,-112.5"/>
<text text-anchor="middle" x="399" y="-119.5" font-family="Helvetica,sans-Serif" font-size="10.00">sys/fcntl.h</text>
</g>
<!-- Node1&#45;&gt;Node2 -->
<g id="edge2" class="edge"><title>Node1&#45;&gt;Node2</title>
<path fill="none" stroke="midnightblue" d="M589.37,-169.94C551.265,-160.545 483.64,-143.87 440.093,-133.133"/>
<polygon fill="midnightblue" stroke="midnightblue" points="440.659,-129.667 430.112,-130.671 438.983,-136.464 440.659,-129.667"/>
</g>
<!-- Node3 -->
<g id="node4" class="node"><title>Node3</title>
<polygon fill="white" stroke="#bfbfbf" points="448.5,-112.5 448.5,-131.5 519.5,-131.5 519.5,-112.5 448.5,-112.5"/>
<text text-anchor="middle" x="484" y="-119.5" font-family="Helvetica,sans-Serif" font-size="10.00">sys/mman.h</text>
</g>
<!-- Node1&#45;&gt;Node3 -->
<g id="edge3" class="edge"><title>Node1&#45;&gt;Node3</title>
<path fill="none" stroke="midnightblue" d="M596.767,-168.444C574.616,-159.517 539.681,-145.439 514.564,-135.317"/>
<polygon fill="midnightblue" stroke="midnightblue" points="515.717,-132.008 505.133,-131.516 513.1,-138.501 515.717,-132.008"/>
</g>
<!-- Node4 -->
<g id="node5" class="node"><title>Node4</title>
<polygon fill="white" stroke="#bfbfbf" points="538,-112.5 538,-131.5 608,-131.5 608,-112.5 538,-112.5"/>
<text text-anchor="middle" x="573" y="-119.5" font-family="Helvetica,sans-Serif" font-size="10.00">sys/select.h</text>
</g>
<!-- Node1&#45;&gt;Node4 -->
<g id="edge4" class="edge"><title>Node1&#45;&gt;Node4</title>
<path fill="none" stroke="midnightblue" d="M610.569,-168.083C604.147,-160.377 594.694,-149.033 586.878,-139.653"/>
<polygon fill="midnightblue" stroke="midnightblue" points="589.383,-137.193 580.293,-131.751 584.006,-141.674 589.383,-137.193"/>
</g>
<!-- Node5 -->
<g id="node6" class="node"><title>Node5</title>
<polygon fill="white" stroke="#bfbfbf" points="626.5,-112.5 626.5,-131.5 699.5,-131.5 699.5,-112.5 626.5,-112.5"/>
<text text-anchor="middle" x="663" y="-119.5" font-family="Helvetica,sans-Serif" font-size="10.00">sys/socket.h</text>
</g>
<!-- Node1&#45;&gt;Node5 -->
<g id="edge5" class="edge"><title>Node1&#45;&gt;Node5</title>
<path fill="none" stroke="midnightblue" d="M625.431,-168.083C631.853,-160.377 641.306,-149.033 649.122,-139.653"/>
<polygon fill="midnightblue" stroke="midnightblue" points="651.994,-141.674 655.707,-131.751 646.617,-137.193 651.994,-141.674"/>
</g>
<!-- Node6 -->
<g id="node7" class="node"><title>Node6</title>
<polygon fill="white" stroke="#bfbfbf" points="718,-112.5 718,-131.5 786,-131.5 786,-112.5 718,-112.5"/>
<text text-anchor="middle" x="752" y="-119.5" font-family="Helvetica,sans-Serif" font-size="10.00">sys/types.h</text>
</g>
<!-- Node1&#45;&gt;Node6 -->
<g id="edge6" class="edge"><title>Node1&#45;&gt;Node6</title>
<path fill="none" stroke="midnightblue" d="M639.233,-168.444C661.384,-159.517 696.319,-145.439 721.436,-135.317"/>
<polygon fill="midnightblue" stroke="midnightblue" points="722.9,-138.501 730.867,-131.516 720.283,-132.008 722.9,-138.501"/>
</g>
<!-- Node7 -->
<g id="node8" class="node"><title>Node7</title>
<polygon fill="white" stroke="#bfbfbf" points="804.5,-112.5 804.5,-131.5 851.5,-131.5 851.5,-112.5 804.5,-112.5"/>
<text text-anchor="middle" x="828" y="-119.5" font-family="Helvetica,sans-Serif" font-size="10.00">net/if.h</text>
</g>
<!-- Node1&#45;&gt;Node7 -->
<g id="edge7" class="edge"><title>Node1&#45;&gt;Node7</title>
<path fill="none" stroke="midnightblue" d="M646.549,-169.903C679.721,-161.622 736.347,-147.377 794.498,-132.099"/>
<polygon fill="midnightblue" stroke="midnightblue" points="795.441,-135.47 804.22,-129.538 793.658,-128.7 795.441,-135.47"/>
</g>
<!-- Node8 -->
<g id="node9" class="node"><title>Node8</title>
<polygon fill="white" stroke="#bfbfbf" points="869.5,-112.5 869.5,-131.5 934.5,-131.5 934.5,-112.5 869.5,-112.5"/>
<text text-anchor="middle" x="902" y="-119.5" font-family="Helvetica,sans-Serif" font-size="10.00">netinet/in.h</text>
</g>
<!-- Node1&#45;&gt;Node8 -->
<g id="edge8" class="edge"><title>Node1&#45;&gt;Node8</title>
<path fill="none" stroke="midnightblue" d="M646.733,-171.918C690.38,-164.143 776.242,-148.626 859.575,-132.039"/>
<polygon fill="midnightblue" stroke="midnightblue" points="860.338,-135.456 869.459,-130.065 858.967,-128.592 860.338,-135.456"/>
</g>
<!-- Node9 -->
<g id="node10" class="node"><title>Node9</title>
<polygon fill="white" stroke="#bfbfbf" points="952.5,-112.5 952.5,-131.5 1023.5,-131.5 1023.5,-112.5 952.5,-112.5"/>
<text text-anchor="middle" x="988" y="-119.5" font-family="Helvetica,sans-Serif" font-size="10.00">netinet/tcp.h</text>
</g>
<!-- Node1&#45;&gt;Node9 -->
<g id="edge9" class="edge"><title>Node1&#45;&gt;Node9</title>
<path fill="none" stroke="midnightblue" d="M646.782,-173.602C701.973,-166.96 826.71,-151.34 942.11,-132.061"/>
<polygon fill="midnightblue" stroke="midnightblue" points="942.895,-135.478 952.174,-130.366 941.732,-128.575 942.895,-135.478"/>
</g>
<!-- Node10 -->
<g id="node11" class="node"><title>Node10</title>
<polygon fill="white" stroke="#bfbfbf" points="1042,-112.5 1042,-131.5 1104,-131.5 1104,-112.5 1042,-112.5"/>
<text text-anchor="middle" x="1073" y="-119.5" font-family="Helvetica,sans-Serif" font-size="10.00">arpa/inet.h</text>
</g>
<!-- Node1&#45;&gt;Node10 -->
<g id="edge10" class="edge"><title>Node1&#45;&gt;Node10</title>
<path fill="none" stroke="midnightblue" d="M646.502,-174.967C712.417,-170.039 880.617,-156.166 1031.8,-131.846"/>
<polygon fill="midnightblue" stroke="midnightblue" points="1032.42,-135.29 1041.73,-130.229 1031.3,-128.381 1032.42,-135.29"/>
</g>
<!-- Node11 -->
<g id="node12" class="node"><title>Node11</title>
<polygon fill="white" stroke="#bfbfbf" points="28,-112.5 28,-131.5 82,-131.5 82,-112.5 28,-112.5"/>
<text text-anchor="middle" x="55" y="-119.5" font-family="Helvetica,sans-Serif" font-size="10.00">ifaddrs.h</text>
</g>
<!-- Node1&#45;&gt;Node11 -->
<g id="edge11" class="edge"><title>Node1&#45;&gt;Node11</title>
<path fill="none" stroke="midnightblue" d="M589.236,-176.158C510.915,-173.523 287.224,-163.73 92.1765,-131.928"/>
<polygon fill="midnightblue" stroke="midnightblue" points="92.4667,-128.429 82.0295,-130.25 91.324,-135.335 92.4667,-128.429"/>
</g>
<!-- Node12 -->
<g id="node13" class="node"><title>Node12</title>
<polygon fill="white" stroke="#bfbfbf" points="100,-112.5 100,-131.5 148,-131.5 148,-112.5 100,-112.5"/>
<text text-anchor="middle" x="124" y="-119.5" font-family="Helvetica,sans-Serif" font-size="10.00">limits.h</text>
</g>
<!-- Node1&#45;&gt;Node12 -->
<g id="edge12" class="edge"><title>Node1&#45;&gt;Node12</title>
<path fill="none" stroke="midnightblue" d="M589.44,-175.89C518.154,-172.766 326.616,-162.19 158.085,-131.895"/>
<polygon fill="midnightblue" stroke="midnightblue" points="158.508,-128.415 148.042,-130.061 157.251,-135.301 158.508,-128.415"/>
</g>
<!-- Node13 -->
<g id="node14" class="node"><title>Node13</title>
<polygon fill="white" stroke="#bfbfbf" points="166.5,-112.5 166.5,-131.5 215.5,-131.5 215.5,-112.5 166.5,-112.5"/>
<text text-anchor="middle" x="191" y="-119.5" font-family="Helvetica,sans-Serif" font-size="10.00">netdb.h</text>
</g>
<!-- Node1&#45;&gt;Node13 -->
<g id="edge13" class="edge"><title>Node1&#45;&gt;Node13</title>
<path fill="none" stroke="midnightblue" d="M589.099,-175.215C525.17,-170.945 366.87,-158.6 225.89,-132.122"/>
<polygon fill="midnightblue" stroke="midnightblue" points="226.25,-128.628 215.771,-130.191 224.938,-135.504 226.25,-128.628"/>
</g>
<!-- Node14 -->
<g id="node15" class="node"><title>Node14</title>
<polygon fill="white" stroke="#bfbfbf" points="233.5,-112.5 233.5,-131.5 284.5,-131.5 284.5,-112.5 233.5,-112.5"/>
<text text-anchor="middle" x="259" y="-119.5" font-family="Helvetica,sans-Serif" font-size="10.00">unistd.h</text>
</g>
<!-- Node1&#45;&gt;Node14 -->
<g id="edge14" class="edge"><title>Node1&#45;&gt;Node14</title>
<path fill="none" stroke="midnightblue" d="M589.11,-174.189C533.734,-168.546 408.691,-154.578 294.497,-132.103"/>
<polygon fill="midnightblue" stroke="midnightblue" points="295.034,-128.641 284.542,-130.116 293.664,-135.506 295.034,-128.641"/>
</g>
<!-- Node15 -->
<g id="node16" class="node"><title>Node15</title>
<polygon fill="white" stroke="#bfbfbf" points="302.5,-112.5 302.5,-131.5 349.5,-131.5 349.5,-112.5 302.5,-112.5"/>
<text text-anchor="middle" x="326" y="-119.5" font-family="Helvetica,sans-Serif" font-size="10.00">errno.h</text>
</g>
<!-- Node1&#45;&gt;Node15 -->
<g id="edge15" class="edge"><title>Node1&#45;&gt;Node15</title>
<path fill="none" stroke="midnightblue" d="M589.467,-172.942C543.255,-166.176 449.013,-151.578 359.491,-131.926"/>
<polygon fill="midnightblue" stroke="midnightblue" points="360.247,-128.509 349.726,-129.758 358.73,-135.343 360.247,-128.509"/>
</g>
<!-- Node16&#45;&gt;Node1 -->
<g id="edge17" class="edge"><title>Node16&#45;&gt;Node1</title>
<path fill="none" stroke="midnightblue" d="M1756.22,-231.31C1581.38,-223.274 835.304,-188.987 656.584,-180.773"/>
<polygon fill="midnightblue" stroke="midnightblue" points="656.738,-177.277 646.588,-180.314 656.417,-184.269 656.738,-177.277"/>
</g>
<!-- Node16&#45;&gt;Node17 -->
<g id="edge18" class="edge"><title>Node16&#45;&gt;Node17</title>
<path fill="none" stroke="midnightblue" d="M1756.4,-224.799C1712.33,-214.924 1638.53,-198.389 1592.71,-188.121"/>
<polygon fill="midnightblue" stroke="midnightblue" points="1593.34,-184.676 1582.81,-185.904 1591.81,-191.506 1593.34,-184.676"/>
</g>
<!-- Node16&#45;&gt;Node19 -->
<g id="edge42" class="edge"><title>Node16&#45;&gt;Node19</title>
<path fill="none" stroke="midnightblue" d="M1802.93,-224.425C1833.17,-197.301 1919.39,-111.869 1874,-56 1851.69,-28.5405 1748.78,-17.2465 1693.82,-13.1097"/>
<polygon fill="midnightblue" stroke="midnightblue" points="1694.05,-9.61731 1683.83,-12.3967 1693.56,-16.5996 1694.05,-9.61731"/>
</g>
<!-- Node16&#45;&gt;Node29 -->
<g id="edge43" class="edge"><title>Node16&#45;&gt;Node29</title>
<path fill="none" stroke="midnightblue" d="M1813.6,-224.492C1834.04,-215.877 1866.1,-201.879 1893,-188 1924.43,-171.784 1959.46,-150.755 1981.6,-137.074"/>
<polygon fill="midnightblue" stroke="midnightblue" points="1983.6,-139.947 1990.25,-131.696 1979.91,-134.002 1983.6,-139.947"/>
</g>
<!-- Node16&#45;&gt;Node32 -->
<g id="edge44" class="edge"><title>Node16&#45;&gt;Node32</title>
<path fill="none" stroke="midnightblue" d="M1808.24,-224.494C1823.31,-215.881 1846.83,-201.884 1866,-188 1887.52,-172.416 1910.61,-152.446 1925.83,-138.778"/>
<polygon fill="midnightblue" stroke="midnightblue" points="1928.36,-141.211 1933.41,-131.901 1923.65,-136.024 1928.36,-141.211"/>
</g>
<!-- Node18 -->
<g id="node19" class="node"><title>Node18</title>
<g id="a_node19"><a xlink:href="endian_8h.html" target="_top" xlink:title="compat/endian.h">
<polygon fill="white" stroke="black" points="1775.5,-112.5 1775.5,-131.5 1864.5,-131.5 1864.5,-112.5 1775.5,-112.5"/>
<text text-anchor="middle" x="1820" y="-119.5" font-family="Helvetica,sans-Serif" font-size="10.00">compat/endian.h</text>
</a>
</g>
</g>
<!-- Node17&#45;&gt;Node18 -->
<g id="edge19" class="edge"><title>Node17&#45;&gt;Node18</title>
<path fill="none" stroke="midnightblue" d="M1582.74,-170.806C1627.92,-161.704 1712.81,-144.598 1767.85,-133.508"/>
<polygon fill="midnightblue" stroke="midnightblue" points="1768.65,-136.917 1777.76,-131.511 1767.27,-130.055 1768.65,-136.917"/>
</g>
<!-- Node17&#45;&gt;Node19 -->
<g id="edge31" class="edge"><title>Node17&#45;&gt;Node19</title>
<path fill="none" stroke="midnightblue" d="M1545.77,-168.179C1536.04,-154.845 1516.15,-129.283 1495,-112 1465.99,-88.298 1408.22,-84.9514 1432,-56 1455.94,-26.8437 1566.93,-16.2476 1624.36,-12.6715"/>
<polygon fill="midnightblue" stroke="midnightblue" points="1624.65,-16.1607 1634.43,-12.0825 1624.24,-9.17262 1624.65,-16.1607"/>
</g>
<!-- Node21 -->
<g id="node22" class="node"><title>Node21</title>
<polygon fill="white" stroke="#bfbfbf" points="1702,-112.5 1702,-131.5 1758,-131.5 1758,-112.5 1702,-112.5"/>
<text text-anchor="middle" x="1730" y="-119.5" font-family="Helvetica,sans-Serif" font-size="10.00">algorithm</text>
</g>
<!-- Node17&#45;&gt;Node21 -->
<g id="edge23" class="edge"><title>Node17&#45;&gt;Node21</title>
<path fill="none" stroke="midnightblue" d="M1580.2,-168.444C1610.41,-159.28 1658.51,-144.688 1692.03,-134.519"/>
<polygon fill="midnightblue" stroke="midnightblue" points="1693.37,-137.769 1701.93,-131.516 1691.34,-131.07 1693.37,-137.769"/>
</g>
<!-- Node22 -->
<g id="node23" class="node"><title>Node22</title>
<polygon fill="white" stroke="#bfbfbf" points="1441,-56.5 1441,-75.5 1493,-75.5 1493,-56.5 1441,-56.5"/>
<text text-anchor="middle" x="1467" y="-63.5" font-family="Helvetica,sans-Serif" font-size="10.00">assert.h</text>
</g>
<!-- Node17&#45;&gt;Node22 -->
<g id="edge24" class="edge"><title>Node17&#45;&gt;Node22</title>
<path fill="none" stroke="midnightblue" d="M1550.44,-168.234C1547.73,-154.972 1541.15,-129.502 1528,-112 1518.55,-99.4246 1504.63,-88.782 1492.47,-81.0089"/>
<polygon fill="midnightblue" stroke="midnightblue" points="1493.98,-77.8336 1483.61,-75.6396 1490.35,-83.8185 1493.98,-77.8336"/>
</g>
<!-- Node23 -->
<g id="node24" class="node"><title>Node23</title>
<polygon fill="white" stroke="#bfbfbf" points="1121.5,-112.5 1121.5,-131.5 1150.5,-131.5 1150.5,-112.5 1121.5,-112.5"/>
<text text-anchor="middle" x="1136" y="-119.5" font-family="Helvetica,sans-Serif" font-size="10.00">ios</text>
</g>
<!-- Node17&#45;&gt;Node23 -->
<g id="edge25" class="edge"><title>Node17&#45;&gt;Node23</title>
<path fill="none" stroke="midnightblue" d="M1521.31,-176.022C1456.22,-173.408 1299.6,-164.267 1160.53,-131.501"/>
<polygon fill="midnightblue" stroke="midnightblue" points="1161.09,-128.036 1150.55,-129.101 1159.45,-134.842 1161.09,-128.036"/>
</g>
<!-- Node24 -->
<g id="node25" class="node"><title>Node24</title>
<polygon fill="white" stroke="#bfbfbf" points="1169,-112.5 1169,-131.5 1209,-131.5 1209,-112.5 1169,-112.5"/>
<text text-anchor="middle" x="1189" y="-119.5" font-family="Helvetica,sans-Serif" font-size="10.00">limits</text>
</g>
<!-- Node17&#45;&gt;Node24 -->
<g id="edge26" class="edge"><title>Node17&#45;&gt;Node24</title>
<path fill="none" stroke="midnightblue" d="M1521.31,-174.591C1463.73,-169.704 1335.53,-157.075 1218.97,-131.885"/>
<polygon fill="midnightblue" stroke="midnightblue" points="1219.68,-128.459 1209.17,-129.73 1218.18,-135.296 1219.68,-128.459"/>
</g>
<!-- Node25 -->
<g id="node26" class="node"><title>Node25</title>
<polygon fill="white" stroke="#bfbfbf" points="1227.5,-112.5 1227.5,-131.5 1256.5,-131.5 1256.5,-112.5 1227.5,-112.5"/>
<text text-anchor="middle" x="1242" y="-119.5" font-family="Helvetica,sans-Serif" font-size="10.00">list</text>
</g>
<!-- Node17&#45;&gt;Node25 -->
<g id="edge27" class="edge"><title>Node17&#45;&gt;Node25</title>
<path fill="none" stroke="midnightblue" d="M1521.38,-174.404C1470.11,-169.586 1363.68,-157.574 1266.6,-131.986"/>
<polygon fill="midnightblue" stroke="midnightblue" points="1267.5,-128.604 1256.94,-129.384 1265.68,-135.363 1267.5,-128.604"/>
</g>
<!-- Node26 -->
<g id="node27" class="node"><title>Node26</title>
<polygon fill="white" stroke="#bfbfbf" points="1274.5,-112.5 1274.5,-131.5 1309.5,-131.5 1309.5,-112.5 1274.5,-112.5"/>
<text text-anchor="middle" x="1292" y="-119.5" font-family="Helvetica,sans-Serif" font-size="10.00">map</text>
</g>
<!-- Node17&#45;&gt;Node26 -->
<g id="edge28" class="edge"><title>Node17&#45;&gt;Node26</title>
<path fill="none" stroke="midnightblue" d="M1521.18,-172.368C1478.15,-165.616 1397.5,-151.928 1319.6,-131.852"/>
<polygon fill="midnightblue" stroke="midnightblue" points="1320.18,-128.387 1309.62,-129.241 1318.41,-135.159 1320.18,-128.387"/>
</g>
<!-- Node27 -->
<g id="node28" class="node"><title>Node27</title>
<polygon fill="white" stroke="#bfbfbf" points="1328,-112.5 1328,-131.5 1380,-131.5 1380,-112.5 1328,-112.5"/>
<text text-anchor="middle" x="1354" y="-119.5" font-family="Helvetica,sans-Serif" font-size="10.00">memory</text>
</g>
<!-- Node17&#45;&gt;Node27 -->
<g id="edge29" class="edge"><title>Node17&#45;&gt;Node27</title>
<path fill="none" stroke="midnightblue" d="M1521.5,-168.681C1486.1,-159.027 1427.78,-143.123 1390.14,-132.857"/>
<polygon fill="midnightblue" stroke="midnightblue" points="1390.68,-129.376 1380.11,-130.121 1388.84,-136.129 1390.68,-129.376"/>
</g>
<!-- Node28 -->
<g id="node29" class="node"><title>Node28</title>
<polygon fill="white" stroke="#bfbfbf" points="1398,-112.5 1398,-131.5 1428,-131.5 1428,-112.5 1398,-112.5"/>
<text text-anchor="middle" x="1413" y="-119.5" font-family="Helvetica,sans-Serif" font-size="10.00">set</text>
</g>
<!-- Node17&#45;&gt;Node28 -->
<g id="edge30" class="edge"><title>Node17&#45;&gt;Node28</title>
<path fill="none" stroke="midnightblue" d="M1529.98,-168.444C1504.84,-158.677 1463.82,-142.743 1437.64,-132.572"/>
<polygon fill="midnightblue" stroke="midnightblue" points="1438.66,-129.212 1428.07,-128.854 1436.12,-135.737 1438.66,-129.212"/>
</g>
<!-- Node17&#45;&gt;Node29 -->
<g id="edge32" class="edge"><title>Node17&#45;&gt;Node29</title>
<path fill="none" stroke="midnightblue" d="M1582.65,-175.575C1652.5,-171.927 1828.58,-160.452 1973,-132 1973.21,-131.958 1973.43,-131.915 1973.64,-131.872"/>
<polygon fill="midnightblue" stroke="midnightblue" points="1974.54,-135.255 1983.45,-129.515 1972.91,-128.449 1974.54,-135.255"/>
</g>
<!-- Node30 -->
<g id="node31" class="node"><title>Node30</title>
<polygon fill="white" stroke="#bfbfbf" points="1680.5,-56.5 1680.5,-75.5 1729.5,-75.5 1729.5,-56.5 1680.5,-56.5"/>
<text text-anchor="middle" x="1705" y="-63.5" font-family="Helvetica,sans-Serif" font-size="10.00">string.h</text>
</g>
<!-- Node17&#45;&gt;Node30 -->
<g id="edge33" class="edge"><title>Node17&#45;&gt;Node30</title>
<path fill="none" stroke="midnightblue" d="M1581.3,-168.362C1602.88,-161.032 1632.14,-148.981 1654,-132 1670.93,-118.844 1685.48,-98.8863 1694.66,-84.5578"/>
<polygon fill="midnightblue" stroke="midnightblue" points="1697.85,-86.0414 1700.11,-75.6902 1691.89,-82.3732 1697.85,-86.0414"/>
</g>
<!-- Node31 -->
<g id="node32" class="node"><title>Node31</title>
<polygon fill="white" stroke="#bfbfbf" points="1446,-112.5 1446,-131.5 1486,-131.5 1486,-112.5 1446,-112.5"/>
<text text-anchor="middle" x="1466" y="-119.5" font-family="Helvetica,sans-Serif" font-size="10.00">utility</text>
</g>
<!-- Node17&#45;&gt;Node31 -->
<g id="edge34" class="edge"><title>Node17&#45;&gt;Node31</title>
<path fill="none" stroke="midnightblue" d="M1538.18,-168.324C1524.77,-159.9 1504.18,-146.971 1488.41,-137.074"/>
<polygon fill="midnightblue" stroke="midnightblue" points="1490.11,-134.008 1479.78,-131.655 1486.39,-139.936 1490.11,-134.008"/>
</g>
<!-- Node17&#45;&gt;Node32 -->
<g id="edge35" class="edge"><title>Node17&#45;&gt;Node32</title>
<path fill="none" stroke="midnightblue" d="M1582.68,-172.763C1655.09,-162.762 1836.1,-137.764 1910.39,-127.503"/>
<polygon fill="midnightblue" stroke="midnightblue" points="1911.13,-130.935 1920.56,-126.1 1910.17,-124.001 1911.13,-130.935"/>
</g>
<!-- Node33 -->
<g id="node34" class="node"><title>Node33</title>
<g id="a_node34"><a xlink:href="prevector_8h.html" target="_top" xlink:title="prevector.h">
<polygon fill="white" stroke="black" points="1580.5,-112.5 1580.5,-131.5 1645.5,-131.5 1645.5,-112.5 1580.5,-112.5"/>
<text text-anchor="middle" x="1613" y="-119.5" font-family="Helvetica,sans-Serif" font-size="10.00">prevector.h</text>
</a>
</g>
</g>
<!-- Node17&#45;&gt;Node33 -->
<g id="edge36" class="edge"><title>Node17&#45;&gt;Node33</title>
<path fill="none" stroke="midnightblue" d="M1561.8,-168.324C1570.82,-160.341 1584.41,-148.313 1595.32,-138.653"/>
<polygon fill="midnightblue" stroke="midnightblue" points="1597.85,-141.083 1603.02,-131.834 1593.21,-135.842 1597.85,-141.083"/>
</g>
<!-- Node18&#45;&gt;Node19 -->
<g id="edge20" class="edge"><title>Node18&#45;&gt;Node19</title>
<path fill="none" stroke="midnightblue" d="M1831.18,-112.476C1846.82,-99.531 1871.74,-74.4699 1857,-56 1836.94,-30.8694 1744.92,-18.7037 1693.69,-13.7868"/>
<polygon fill="midnightblue" stroke="midnightblue" points="1693.99,-10.3003 1683.72,-12.8719 1693.35,-17.2711 1693.99,-10.3003"/>
</g>
<!-- Node20 -->
<g id="node21" class="node"><title>Node20</title>
<g id="a_node21"><a xlink:href="byteswap_8h.html" target="_top" xlink:title="compat/byteswap.h">
<polygon fill="white" stroke="black" points="1747,-56.5 1747,-75.5 1849,-75.5 1849,-56.5 1747,-56.5"/>
<text text-anchor="middle" x="1798" y="-63.5" font-family="Helvetica,sans-Serif" font-size="10.00">compat/byteswap.h</text>
</a>
</g>
</g>
<!-- Node18&#45;&gt;Node20 -->
<g id="edge21" class="edge"><title>Node18&#45;&gt;Node20</title>
<path fill="none" stroke="midnightblue" d="M1816.37,-112.083C1813.39,-104.77 1809.07,-94.1814 1805.38,-85.1034"/>
<polygon fill="midnightblue" stroke="midnightblue" points="1808.58,-83.6914 1801.57,-75.7511 1802.1,-86.3326 1808.58,-83.6914"/>
</g>
<!-- Node20&#45;&gt;Node19 -->
<g id="edge22" class="edge"><title>Node20&#45;&gt;Node19</title>
<path fill="none" stroke="midnightblue" d="M1775.98,-56.4435C1752.9,-47.4776 1716.44,-33.314 1690.36,-23.1827"/>
<polygon fill="midnightblue" stroke="midnightblue" points="1691.51,-19.8753 1680.92,-19.5164 1688.98,-26.4002 1691.51,-19.8753"/>
</g>
<!-- Node33&#45;&gt;Node19 -->
<g id="edge39" class="edge"><title>Node33&#45;&gt;Node19</title>
<path fill="none" stroke="midnightblue" d="M1589.22,-112.354C1562.06,-101.101 1523.41,-80.013 1540,-56 1558.82,-28.7688 1596.38,-17.9986 1624.3,-13.7489"/>
<polygon fill="midnightblue" stroke="midnightblue" points="1625,-17.1865 1634.46,-12.4187 1624.09,-10.2456 1625,-17.1865"/>
</g>
<!-- Node33&#45;&gt;Node22 -->
<g id="edge37" class="edge"><title>Node33&#45;&gt;Node22</title>
<path fill="none" stroke="midnightblue" d="M1589.87,-112.444C1565.52,-103.438 1526.99,-89.1891 1499.58,-79.049"/>
<polygon fill="midnightblue" stroke="midnightblue" points="1500.62,-75.7028 1490.03,-75.5164 1498.19,-82.2681 1500.62,-75.7028"/>
</g>
<!-- Node33&#45;&gt;Node30 -->
<g id="edge40" class="edge"><title>Node33&#45;&gt;Node30</title>
<path fill="none" stroke="midnightblue" d="M1627.78,-112.324C1642.27,-103.822 1664.57,-90.7288 1681.49,-80.7975"/>
<polygon fill="midnightblue" stroke="midnightblue" points="1683.4,-83.735 1690.26,-75.6545 1679.86,-77.6981 1683.4,-83.735"/>
</g>
<!-- Node34 -->
<g id="node35" class="node"><title>Node34</title>
<polygon fill="white" stroke="#bfbfbf" points="1549,-56.5 1549,-75.5 1597,-75.5 1597,-56.5 1549,-56.5"/>
<text text-anchor="middle" x="1573" y="-63.5" font-family="Helvetica,sans-Serif" font-size="10.00">stdlib.h</text>
</g>
<!-- Node33&#45;&gt;Node34 -->
<g id="edge38" class="edge"><title>Node33&#45;&gt;Node34</title>
<path fill="none" stroke="midnightblue" d="M1606.39,-112.083C1600.74,-104.455 1592.46,-93.2645 1585.55,-83.9408"/>
<polygon fill="midnightblue" stroke="midnightblue" points="1588.25,-81.7034 1579.48,-75.7511 1582.62,-85.87 1588.25,-81.7034"/>
</g>
<!-- Node35 -->
<g id="node36" class="node"><title>Node35</title>
<polygon fill="white" stroke="#bfbfbf" points="1615.5,-56.5 1615.5,-75.5 1662.5,-75.5 1662.5,-56.5 1615.5,-56.5"/>
<text text-anchor="middle" x="1639" y="-63.5" font-family="Helvetica,sans-Serif" font-size="10.00">iterator</text>
</g>
<!-- Node33&#45;&gt;Node35 -->
<g id="edge41" class="edge"><title>Node33&#45;&gt;Node35</title>
<path fill="none" stroke="midnightblue" d="M1617.29,-112.083C1620.85,-104.691 1626.02,-93.9533 1630.42,-84.8111"/>
<polygon fill="midnightblue" stroke="midnightblue" points="1633.6,-86.2795 1634.79,-75.7511 1627.29,-83.2427 1633.6,-86.2795"/>
</g>
</g>
</svg>
        <g id="navigator" transform="translate(0 0)" fill="#404254">
                <rect fill="#f2f5e9" fill-opacity="0.5" stroke="#606060" stroke-width=".5" x="0" y="0" width="60" height="60"/>
                <use id="zoomplus" xlink:href="#zoomPlus" x="17" y="9" onmousedown="handleZoom(evt,'in')"/>
                <use id="zoomminus" xlink:href="#zoomMin" x="42" y="9" onmousedown="handleZoom(evt,'out')"/>
                <use id="reset" xlink:href="#resetDef" x="30" y="36" onmousedown="handleReset()"/>
                <g id="arrowUp" xlink:href="#dirArrow" transform="translate(30 24)" onmousedown="handlePan(0,-1)">
                  <use xlink:href="#rim" fill="#404040">
                        <set attributeName="fill" to="#808080" begin="arrowUp.mouseover" end="arrowUp.mouseout"/>
                  </use>
                  <path fill="none" stroke="white" stroke-width="1.5" d="M0,-3.0v7 M-2.5,-0.5L0,-3.0L2.5,-0.5"/>
                </g>
                <g id="arrowRight" xlink:href="#dirArrow" transform="rotate(90) translate(36 -43)" onmousedown="handlePan(1,0)">
                  <use xlink:href="#rim" fill="#404040">
                        <set attributeName="fill" to="#808080" begin="arrowRight.mouseover" end="arrowRight.mouseout"/>
                  </use>
                  <path fill="none" stroke="white" stroke-width="1.5" d="M0,-3.0v7 M-2.5,-0.5L0,-3.0L2.5,-0.5"/>
                </g>
                <g id="arrowDown" xlink:href="#dirArrow" transform="rotate(180) translate(-30 -48)" onmousedown="handlePan(0,1)">
                  <use xlink:href="#rim" fill="#404040">
                        <set attributeName="fill" to="#808080" begin="arrowDown.mouseover" end="arrowDown.mouseout"/>
                  </use>
                  <path fill="none" stroke="white" stroke-width="1.5" d="M0,-3.0v7 M-2.5,-0.5L0,-3.0L2.5,-0.5"/>
                </g>
                <g id="arrowLeft" xlink:href="#dirArrow" transform="rotate(270) translate(-36 17)" onmousedown="handlePan(-1,0)">
                  <use xlink:href="#rim" fill="#404040">
                        <set attributeName="fill" to="#808080" begin="arrowLeft.mouseover" end="arrowLeft.mouseout"/>
                  </use>
                  <path fill="none" stroke="white" stroke-width="1.5" d="M0,-3.0v7 M-2.5,-0.5L0,-3.0L2.5,-0.5"/>
                </g>
        </g>
        <svg viewBox="0 0 15 15" width="100%" height="30px" preserveAspectRatio="xMaxYMin meet">
         <g id="arrow_out" transform="scale(0.3 0.3)">
          <a xlink:href="netbase_8h__incl_org.svg" target="_base">
           <rect id="button" ry="5" rx="5" y="6" x="6" height="38" width="38"
                fill="#f2f5e9" fill-opacity="0.5" stroke="#606060" stroke-width="1.0"/>
           <path id="arrow"
             d="M 11.500037,31.436501 C 11.940474,20.09759 22.043105,11.32322 32.158766,21.979434 L 37.068811,17.246167 C 37.068811,17.246167 37.088388,32 37.088388,32 L 22.160133,31.978069 C 22.160133,31.978069 26.997745,27.140456 26.997745,27.140456 C 18.528582,18.264221 13.291696,25.230495 11.500037,31.436501 z"
             style="fill:#404040;"/>
          </a>
         </g>
        </svg>
</svg>
