<?xml version="1.0" encoding="UTF-8" standalone="no"?>
<!DOCTYPE svg PUBLIC "-//W3C//DTD SVG 1.1//EN"
 "http://www.w3.org/Graphics/SVG/1.1/DTD/svg11.dtd">
<!-- Generated by graphviz version 2.36.0 (20140111.2315)
 -->
<!-- Title: src/netfulfilledman.h Pages: 1 -->
<!--zoomable 320 -->
<svg id="main" version="1.1" xmlns="http://www.w3.org/2000/svg" xmlns:xlink="http://www.w3.org/1999/xlink" xml:space="preserve" onload="init(evt)">
<style type="text/css"><![CDATA[
.edge:hover path { stroke: red; }
.edge:hover polygon { stroke: red; fill: red; }
]]></style>
<script type="text/javascript"><![CDATA[
var edges = document.getElementsByTagName('g');
if (edges && edges.length) {
  for (var i=0;i<edges.length;i++) {
    if (edges[i].id.substr(0,4)=='edge') {
      edges[i].setAttribute('class','edge');
    }
  }
}
]]></script>
        <defs>
                <circle id="rim" cx="0" cy="0" r="7"/>
                <circle id="rim2" cx="0" cy="0" r="3.5"/>
                <g id="zoomPlus">
                        <use xlink:href="#rim" fill="#404040">
                                <set attributeName="fill" to="#808080" begin="zoomplus.mouseover" end="zoomplus.mouseout"/>
                        </use>
                        <path d="M-4,0h8M0,-4v8" fill="none" stroke="white" stroke-width="1.5" pointer-events="none"/>
                </g>
                <g id="zoomMin">
                        <use xlink:href="#rim" fill="#404040">
                                <set attributeName="fill" to="#808080" begin="zoomminus.mouseover" end="zoomminus.mouseout"/>
                        </use>
                        <path d="M-4,0h8" fill="none" stroke="white" stroke-width="1.5" pointer-events="none"/>
                </g>
                <g id="dirArrow">
                        <path fill="none" stroke="white" stroke-width="1.5" d="M0,-3.0v7 M-2.5,-0.5L0,-3.0L2.5,-0.5"/>
                </g>
               <g id="resetDef">
                       <use xlink:href="#rim2" fill="#404040">
                               <set attributeName="fill" to="#808080" begin="reset.mouseover" end="reset.mouseout"/>
                       </use>
               </g>
        </defs>

<script type="text/javascript">
var viewWidth = 2082;
var viewHeight = 320;
var sectionId = 'dynsection-0';
</script>
<script xlink:href="svgpan.js"/>
<svg id="graph" class="graph">
<g id="viewport">
<title>src/netfulfilledman.h</title>
<polygon fill="white" stroke="none" points="-4,4 -4,-316 2078,-316 2078,4 -4,4"/>
<!-- Node0 -->
<g id="node1" class="node"><title>Node0</title>
<polygon fill="#bfbfbf" stroke="black" points="793,-292.5 793,-311.5 897,-311.5 897,-292.5 793,-292.5"/>
<text text-anchor="middle" x="845" y="-299.5" font-family="Helvetica,sans-Serif" font-size="10.00">src/netfulfilledman.h</text>
</g>
<!-- Node1 -->
<g id="node2" class="node"><title>Node1</title>
<g id="a_node2"><a xlink:href="netaddress_8h.html" target="_top" xlink:title="netaddress.h">
<polygon fill="white" stroke="black" points="808.5,-236.5 808.5,-255.5 881.5,-255.5 881.5,-236.5 808.5,-236.5"/>
<text text-anchor="middle" x="845" y="-243.5" font-family="Helvetica,sans-Serif" font-size="10.00">netaddress.h</text>
</a>
</g>
</g>
<!-- Node0&#45;&gt;Node1 -->
<g id="edge1" class="edge"><title>Node0&#45;&gt;Node1</title>
<path fill="none" stroke="midnightblue" d="M845,-292.083C845,-285.006 845,-274.861 845,-265.986"/>
<polygon fill="midnightblue" stroke="midnightblue" points="848.5,-265.751 845,-255.751 841.5,-265.751 848.5,-265.751"/>
</g>
<!-- Node17 -->
<g id="node18" class="node"><title>Node17</title>
<g id="a_node18"><a xlink:href="serialize_8h.html" target="_top" xlink:title="serialize.h">
<polygon fill="white" stroke="black" points="459.5,-174.5 459.5,-193.5 520.5,-193.5 520.5,-174.5 459.5,-174.5"/>
<text text-anchor="middle" x="490" y="-181.5" font-family="Helvetica,sans-Serif" font-size="10.00">serialize.h</text>
</a>
</g>
</g>
<!-- Node0&#45;&gt;Node17 -->
<g id="edge44" class="edge"><title>Node0&#45;&gt;Node17</title>
<path fill="none" stroke="midnightblue" d="M818.896,-292.47C756.323,-272.024 597.671,-220.183 526.055,-196.781"/>
<polygon fill="midnightblue" stroke="midnightblue" points="526.735,-193.321 516.142,-193.542 524.561,-199.975 526.735,-193.321"/>
</g>
<!-- Node36 -->
<g id="node37" class="node"><title>Node36</title>
<g id="a_node37"><a xlink:href="sync_8h.html" target="_top" xlink:title="sync.h">
<polygon fill="white" stroke="black" points="1657,-236.5 1657,-255.5 1703,-255.5 1703,-236.5 1657,-236.5"/>
<text text-anchor="middle" x="1680" y="-243.5" font-family="Helvetica,sans-Serif" font-size="10.00">sync.h</text>
</a>
</g>
</g>
<!-- Node0&#45;&gt;Node36 -->
<g id="edge45" class="edge"><title>Node0&#45;&gt;Node36</title>
<path fill="none" stroke="midnightblue" d="M897.233,-297.622C1054.2,-287.471 1518.75,-257.428 1646.92,-249.139"/>
<polygon fill="midnightblue" stroke="midnightblue" points="1647.17,-252.631 1656.92,-248.493 1646.71,-245.645 1647.17,-252.631"/>
</g>
<!-- Node2 -->
<g id="node3" class="node"><title>Node2</title>
<g id="a_node3"><a xlink:href="compat_8h.html" target="_top" xlink:title="compat.h">
<polygon fill="white" stroke="black" points="1385.5,-174.5 1385.5,-193.5 1442.5,-193.5 1442.5,-174.5 1385.5,-174.5"/>
<text text-anchor="middle" x="1414" y="-181.5" font-family="Helvetica,sans-Serif" font-size="10.00">compat.h</text>
</a>
</g>
</g>
<!-- Node1&#45;&gt;Node2 -->
<g id="edge2" class="edge"><title>Node1&#45;&gt;Node2</title>
<path fill="none" stroke="midnightblue" d="M881.895,-241.109C984.154,-230.326 1270.53,-200.128 1375.13,-189.099"/>
<polygon fill="midnightblue" stroke="midnightblue" points="1375.67,-192.562 1385.24,-188.032 1374.93,-185.6 1375.67,-192.562"/>
</g>
<!-- Node1&#45;&gt;Node17 -->
<g id="edge17" class="edge"><title>Node1&#45;&gt;Node17</title>
<path fill="none" stroke="midnightblue" d="M808.346,-238.805C741.619,-227.527 600.777,-203.723 530.983,-191.927"/>
<polygon fill="midnightblue" stroke="midnightblue" points="531.259,-188.424 520.815,-190.208 530.092,-195.326 531.259,-188.424"/>
</g>
<!-- Node19 -->
<g id="node20" class="node"><title>Node19</title>
<polygon fill="white" stroke="#bfbfbf" points="614.5,-0.5 614.5,-19.5 663.5,-19.5 663.5,-0.5 614.5,-0.5"/>
<text text-anchor="middle" x="639" y="-7.5" font-family="Helvetica,sans-Serif" font-size="10.00">stdint.h</text>
</g>
<!-- Node1&#45;&gt;Node19 -->
<g id="edge41" class="edge"><title>Node1&#45;&gt;Node19</title>
<path fill="none" stroke="midnightblue" d="M850.936,-236.424C865.631,-214.036 900.647,-152.744 874,-112 829.337,-43.7102 727.718,-21.4185 673.917,-14.2753"/>
<polygon fill="midnightblue" stroke="midnightblue" points="674.176,-10.7811 663.825,-13.0395 673.325,-17.7292 674.176,-10.7811"/>
</g>
<!-- Node29 -->
<g id="node30" class="node"><title>Node29</title>
<polygon fill="white" stroke="#bfbfbf" points="824.5,-112.5 824.5,-131.5 865.5,-131.5 865.5,-112.5 824.5,-112.5"/>
<text text-anchor="middle" x="845" y="-119.5" font-family="Helvetica,sans-Serif" font-size="10.00">string</text>
</g>
<!-- Node1&#45;&gt;Node29 -->
<g id="edge42" class="edge"><title>Node1&#45;&gt;Node29</title>
<path fill="none" stroke="midnightblue" d="M845,-236.226C845,-216.53 845,-168.437 845,-141.7"/>
<polygon fill="midnightblue" stroke="midnightblue" points="848.5,-141.694 845,-131.694 841.5,-141.694 848.5,-141.694"/>
</g>
<!-- Node32 -->
<g id="node33" class="node"><title>Node32</title>
<polygon fill="white" stroke="#bfbfbf" points="762,-112.5 762,-131.5 806,-131.5 806,-112.5 762,-112.5"/>
<text text-anchor="middle" x="784" y="-119.5" font-family="Helvetica,sans-Serif" font-size="10.00">vector</text>
</g>
<!-- Node1&#45;&gt;Node32 -->
<g id="edge43" class="edge"><title>Node1&#45;&gt;Node32</title>
<path fill="none" stroke="midnightblue" d="M840.613,-236.226C830.677,-216.354 806.288,-167.576 792.995,-140.989"/>
<polygon fill="midnightblue" stroke="midnightblue" points="795.95,-139.073 788.347,-131.694 789.689,-142.204 795.95,-139.073"/>
</g>
<!-- Node3 -->
<g id="node4" class="node"><title>Node3</title>
<polygon fill="white" stroke="#bfbfbf" points="1846,-112.5 1846,-131.5 1908,-131.5 1908,-112.5 1846,-112.5"/>
<text text-anchor="middle" x="1877" y="-119.5" font-family="Helvetica,sans-Serif" font-size="10.00">sys/fcntl.h</text>
</g>
<!-- Node2&#45;&gt;Node3 -->
<g id="edge3" class="edge"><title>Node2&#45;&gt;Node3</title>
<path fill="none" stroke="midnightblue" d="M1432.09,-174.436C1438,-171.976 1444.67,-169.544 1451,-168 1614.79,-128.059 1664.31,-157.312 1835.62,-131.825"/>
<polygon fill="midnightblue" stroke="midnightblue" points="1836.38,-135.249 1845.74,-130.278 1835.32,-128.33 1836.38,-135.249"/>
</g>
<!-- Node4 -->
<g id="node5" class="node"><title>Node4</title>
<polygon fill="white" stroke="#bfbfbf" points="1926.5,-112.5 1926.5,-131.5 1997.5,-131.5 1997.5,-112.5 1926.5,-112.5"/>
<text text-anchor="middle" x="1962" y="-119.5" font-family="Helvetica,sans-Serif" font-size="10.00">sys/mman.h</text>
</g>
<!-- Node2&#45;&gt;Node4 -->
<g id="edge4" class="edge"><title>Node2&#45;&gt;Node4</title>
<path fill="none" stroke="midnightblue" d="M1432.08,-174.376C1437.98,-171.912 1444.66,-169.493 1451,-168 1652.77,-120.499 1710.61,-159.948 1916,-132 1916.11,-131.986 1916.21,-131.971 1916.32,-131.957"/>
<polygon fill="midnightblue" stroke="midnightblue" points="1917.06,-135.383 1926.41,-130.387 1915.99,-128.466 1917.06,-135.383"/>
</g>
<!-- Node5 -->
<g id="node6" class="node"><title>Node5</title>
<polygon fill="white" stroke="#bfbfbf" points="922,-112.5 922,-131.5 992,-131.5 992,-112.5 922,-112.5"/>
<text text-anchor="middle" x="957" y="-119.5" font-family="Helvetica,sans-Serif" font-size="10.00">sys/select.h</text>
</g>
<!-- Node2&#45;&gt;Node5 -->
<g id="edge5" class="edge"><title>Node2&#45;&gt;Node5</title>
<path fill="none" stroke="midnightblue" d="M1385.35,-180.249C1319.55,-173.762 1152.4,-156.332 1002.33,-132.103"/>
<polygon fill="midnightblue" stroke="midnightblue" points="1002.45,-128.576 992.018,-130.422 1001.33,-135.485 1002.45,-128.576"/>
</g>
<!-- Node6 -->
<g id="node7" class="node"><title>Node6</title>
<polygon fill="white" stroke="#bfbfbf" points="1010.5,-112.5 1010.5,-131.5 1083.5,-131.5 1083.5,-112.5 1010.5,-112.5"/>
<text text-anchor="middle" x="1047" y="-119.5" font-family="Helvetica,sans-Serif" font-size="10.00">sys/socket.h</text>
</g>
<!-- Node2&#45;&gt;Node6 -->
<g id="edge6" class="edge"><title>Node2&#45;&gt;Node6</title>
<path fill="none" stroke="midnightblue" d="M1385.17,-178.772C1330.49,-170.676 1207.73,-152.141 1093.59,-132.051"/>
<polygon fill="midnightblue" stroke="midnightblue" points="1094.09,-128.585 1083.64,-130.29 1092.87,-135.478 1094.09,-128.585"/>
</g>
<!-- Node7 -->
<g id="node8" class="node"><title>Node7</title>
<polygon fill="white" stroke="#bfbfbf" points="1102,-112.5 1102,-131.5 1170,-131.5 1170,-112.5 1102,-112.5"/>
<text text-anchor="middle" x="1136" y="-119.5" font-family="Helvetica,sans-Serif" font-size="10.00">sys/types.h</text>
</g>
<!-- Node2&#45;&gt;Node7 -->
<g id="edge7" class="edge"><title>Node2&#45;&gt;Node7</title>
<path fill="none" stroke="midnightblue" d="M1385.3,-176.805C1336.61,-166.298 1237.55,-144.917 1180.04,-132.505"/>
<polygon fill="midnightblue" stroke="midnightblue" points="1180.66,-129.059 1170.15,-130.37 1179.19,-135.901 1180.66,-129.059"/>
</g>
<!-- Node8 -->
<g id="node9" class="node"><title>Node8</title>
<polygon fill="white" stroke="#bfbfbf" points="1188.5,-112.5 1188.5,-131.5 1235.5,-131.5 1235.5,-112.5 1188.5,-112.5"/>
<text text-anchor="middle" x="1212" y="-119.5" font-family="Helvetica,sans-Serif" font-size="10.00">net/if.h</text>
</g>
<!-- Node2&#45;&gt;Node8 -->
<g id="edge8" class="edge"><title>Node2&#45;&gt;Node8</title>
<path fill="none" stroke="midnightblue" d="M1385.49,-174.531C1348.57,-163.565 1284.35,-144.489 1245.25,-132.877"/>
<polygon fill="midnightblue" stroke="midnightblue" points="1246.23,-129.517 1235.65,-130.024 1244.24,-136.227 1246.23,-129.517"/>
</g>
<!-- Node9 -->
<g id="node10" class="node"><title>Node9</title>
<polygon fill="white" stroke="#bfbfbf" points="1253.5,-112.5 1253.5,-131.5 1318.5,-131.5 1318.5,-112.5 1253.5,-112.5"/>
<text text-anchor="middle" x="1286" y="-119.5" font-family="Helvetica,sans-Serif" font-size="10.00">netinet/in.h</text>
</g>
<!-- Node2&#45;&gt;Node9 -->
<g id="edge9" class="edge"><title>Node2&#45;&gt;Node9</title>
<path fill="none" stroke="midnightblue" d="M1395.66,-174.403C1374.18,-164.334 1338.38,-147.552 1313.55,-135.915"/>
<polygon fill="midnightblue" stroke="midnightblue" points="1314.85,-132.656 1304.31,-131.581 1311.87,-138.994 1314.85,-132.656"/>
</g>
<!-- Node10 -->
<g id="node11" class="node"><title>Node10</title>
<polygon fill="white" stroke="#bfbfbf" points="1336.5,-112.5 1336.5,-131.5 1407.5,-131.5 1407.5,-112.5 1336.5,-112.5"/>
<text text-anchor="middle" x="1372" y="-119.5" font-family="Helvetica,sans-Serif" font-size="10.00">netinet/tcp.h</text>
</g>
<!-- Node2&#45;&gt;Node10 -->
<g id="edge10" class="edge"><title>Node2&#45;&gt;Node10</title>
<path fill="none" stroke="midnightblue" d="M1407.98,-174.403C1401.68,-165.403 1391.63,-151.041 1383.75,-139.782"/>
<polygon fill="midnightblue" stroke="midnightblue" points="1386.61,-137.766 1378.01,-131.581 1380.87,-141.78 1386.61,-137.766"/>
</g>
<!-- Node11 -->
<g id="node12" class="node"><title>Node11</title>
<polygon fill="white" stroke="#bfbfbf" points="1426,-112.5 1426,-131.5 1488,-131.5 1488,-112.5 1426,-112.5"/>
<text text-anchor="middle" x="1457" y="-119.5" font-family="Helvetica,sans-Serif" font-size="10.00">arpa/inet.h</text>
</g>
<!-- Node2&#45;&gt;Node11 -->
<g id="edge11" class="edge"><title>Node2&#45;&gt;Node11</title>
<path fill="none" stroke="midnightblue" d="M1420.16,-174.403C1426.61,-165.403 1436.9,-151.041 1444.97,-139.782"/>
<polygon fill="midnightblue" stroke="midnightblue" points="1447.87,-141.748 1450.85,-131.581 1442.18,-137.67 1447.87,-141.748"/>
</g>
<!-- Node12 -->
<g id="node13" class="node"><title>Node12</title>
<polygon fill="white" stroke="#bfbfbf" points="1506,-112.5 1506,-131.5 1560,-131.5 1560,-112.5 1506,-112.5"/>
<text text-anchor="middle" x="1533" y="-119.5" font-family="Helvetica,sans-Serif" font-size="10.00">ifaddrs.h</text>
</g>
<!-- Node2&#45;&gt;Node12 -->
<g id="edge12" class="edge"><title>Node2&#45;&gt;Node12</title>
<path fill="none" stroke="midnightblue" d="M1431.05,-174.403C1450.84,-164.423 1483.72,-147.849 1506.77,-136.225"/>
<polygon fill="midnightblue" stroke="midnightblue" points="1508.63,-139.208 1515.98,-131.581 1505.48,-132.958 1508.63,-139.208"/>
</g>
<!-- Node13 -->
<g id="node14" class="node"><title>Node13</title>
<polygon fill="white" stroke="#bfbfbf" points="1578,-112.5 1578,-131.5 1626,-131.5 1626,-112.5 1578,-112.5"/>
<text text-anchor="middle" x="1602" y="-119.5" font-family="Helvetica,sans-Serif" font-size="10.00">limits.h</text>
</g>
<!-- Node2&#45;&gt;Node13 -->
<g id="edge13" class="edge"><title>Node2&#45;&gt;Node13</title>
<path fill="none" stroke="midnightblue" d="M1434.22,-174.395C1439.63,-172.205 1445.51,-169.927 1451,-168 1472.59,-160.427 1530.43,-143.538 1567.94,-132.74"/>
<polygon fill="midnightblue" stroke="midnightblue" points="1569.28,-135.995 1577.93,-129.869 1567.35,-129.267 1569.28,-135.995"/>
</g>
<!-- Node14 -->
<g id="node15" class="node"><title>Node14</title>
<polygon fill="white" stroke="#bfbfbf" points="1644.5,-112.5 1644.5,-131.5 1693.5,-131.5 1693.5,-112.5 1644.5,-112.5"/>
<text text-anchor="middle" x="1669" y="-119.5" font-family="Helvetica,sans-Serif" font-size="10.00">netdb.h</text>
</g>
<!-- Node2&#45;&gt;Node14 -->
<g id="edge14" class="edge"><title>Node2&#45;&gt;Node14</title>
<path fill="none" stroke="midnightblue" d="M1433.34,-174.346C1438.95,-172.055 1445.15,-169.739 1451,-168 1527.9,-145.119 1552.01,-150.236 1634.38,-131.992"/>
<polygon fill="midnightblue" stroke="midnightblue" points="1635.18,-135.397 1644.16,-129.775 1633.64,-128.57 1635.18,-135.397"/>
</g>
<!-- Node15 -->
<g id="node16" class="node"><title>Node15</title>
<polygon fill="white" stroke="#bfbfbf" points="1711.5,-112.5 1711.5,-131.5 1762.5,-131.5 1762.5,-112.5 1711.5,-112.5"/>
<text text-anchor="middle" x="1737" y="-119.5" font-family="Helvetica,sans-Serif" font-size="10.00">unistd.h</text>
</g>
<!-- Node2&#45;&gt;Node15 -->
<g id="edge15" class="edge"><title>Node2&#45;&gt;Node15</title>
<path fill="none" stroke="midnightblue" d="M1432.52,-174.467C1438.33,-172.068 1444.84,-169.663 1451,-168 1556.72,-139.446 1589.63,-153.227 1701.48,-131.87"/>
<polygon fill="midnightblue" stroke="midnightblue" points="1702.32,-135.271 1711.46,-129.911 1700.97,-128.402 1702.32,-135.271"/>
</g>
<!-- Node16 -->
<g id="node17" class="node"><title>Node16</title>
<polygon fill="white" stroke="#bfbfbf" points="1780.5,-112.5 1780.5,-131.5 1827.5,-131.5 1827.5,-112.5 1780.5,-112.5"/>
<text text-anchor="middle" x="1804" y="-119.5" font-family="Helvetica,sans-Serif" font-size="10.00">errno.h</text>
</g>
<!-- Node2&#45;&gt;Node16 -->
<g id="edge16" class="edge"><title>Node2&#45;&gt;Node16</title>
<path fill="none" stroke="midnightblue" d="M1432.49,-174.351C1438.3,-171.948 1444.82,-169.569 1451,-168 1586.6,-133.578 1628.55,-157.766 1770.37,-131.801"/>
<polygon fill="midnightblue" stroke="midnightblue" points="1771.13,-135.221 1780.31,-129.931 1769.83,-128.341 1771.13,-135.221"/>
</g>
<!-- Node18 -->
<g id="node19" class="node"><title>Node18</title>
<g id="a_node19"><a xlink:href="endian_8h.html" target="_top" xlink:title="compat/endian.h">
<polygon fill="white" stroke="black" points="324.5,-112.5 324.5,-131.5 413.5,-131.5 413.5,-112.5 324.5,-112.5"/>
<text text-anchor="middle" x="369" y="-119.5" font-family="Helvetica,sans-Serif" font-size="10.00">compat/endian.h</text>
</a>
</g>
</g>
<!-- Node17&#45;&gt;Node18 -->
<g id="edge18" class="edge"><title>Node17&#45;&gt;Node18</title>
<path fill="none" stroke="midnightblue" d="M472.664,-174.403C452.447,-164.379 418.813,-147.701 395.358,-136.07"/>
<polygon fill="midnightblue" stroke="midnightblue" points="396.818,-132.887 386.304,-131.581 393.708,-139.159 396.818,-132.887"/>
</g>
<!-- Node17&#45;&gt;Node19 -->
<g id="edge30" class="edge"><title>Node17&#45;&gt;Node19</title>
<path fill="none" stroke="midnightblue" d="M520.782,-182.71C564.08,-180.803 643.533,-171.652 696,-132 725.239,-109.903 747.198,-87.2193 728,-56 716.129,-36.6959 693.132,-25.3681 673.489,-18.9066"/>
<polygon fill="midnightblue" stroke="midnightblue" points="674.473,-15.548 663.89,-16.0333 672.466,-22.254 674.473,-15.548"/>
</g>
<!-- Node21 -->
<g id="node22" class="node"><title>Node21</title>
<polygon fill="white" stroke="#bfbfbf" points="528,-112.5 528,-131.5 584,-131.5 584,-112.5 528,-112.5"/>
<text text-anchor="middle" x="556" y="-119.5" font-family="Helvetica,sans-Serif" font-size="10.00">algorithm</text>
</g>
<!-- Node17&#45;&gt;Node21 -->
<g id="edge22" class="edge"><title>Node17&#45;&gt;Node21</title>
<path fill="none" stroke="midnightblue" d="M499.456,-174.403C509.748,-165.047 526.416,-149.895 538.994,-138.46"/>
<polygon fill="midnightblue" stroke="midnightblue" points="541.516,-140.897 546.561,-131.581 536.808,-135.718 541.516,-140.897"/>
</g>
<!-- Node22 -->
<g id="node23" class="node"><title>Node22</title>
<polygon fill="white" stroke="#bfbfbf" points="667,-56.5 667,-75.5 719,-75.5 719,-56.5 667,-56.5"/>
<text text-anchor="middle" x="693" y="-63.5" font-family="Helvetica,sans-Serif" font-size="10.00">assert.h</text>
</g>
<!-- Node17&#45;&gt;Node22 -->
<g id="edge23" class="edge"><title>Node17&#45;&gt;Node22</title>
<path fill="none" stroke="midnightblue" d="M520.653,-183.461C561.785,-182.35 634.459,-174.035 676,-132 687.904,-119.955 691.774,-100.665 692.893,-86.2225"/>
<polygon fill="midnightblue" stroke="midnightblue" points="696.403,-86.041 693.302,-75.9101 689.408,-85.7634 696.403,-86.041"/>
</g>
<!-- Node23 -->
<g id="node24" class="node"><title>Node23</title>
<polygon fill="white" stroke="#bfbfbf" points="-0.5,-112.5 -0.5,-131.5 28.5,-131.5 28.5,-112.5 -0.5,-112.5"/>
<text text-anchor="middle" x="14" y="-119.5" font-family="Helvetica,sans-Serif" font-size="10.00">ios</text>
</g>
<!-- Node17&#45;&gt;Node23 -->
<g id="edge24" class="edge"><title>Node17&#45;&gt;Node23</title>
<path fill="none" stroke="midnightblue" d="M459.402,-182.139C387.322,-179.565 201.336,-169.737 38.7259,-131.542"/>
<polygon fill="midnightblue" stroke="midnightblue" points="39.0841,-128.029 28.5441,-129.106 37.4549,-134.837 39.0841,-128.029"/>
</g>
<!-- Node24 -->
<g id="node25" class="node"><title>Node24</title>
<polygon fill="white" stroke="#bfbfbf" points="47,-112.5 47,-131.5 87,-131.5 87,-112.5 47,-112.5"/>
<text text-anchor="middle" x="67" y="-119.5" font-family="Helvetica,sans-Serif" font-size="10.00">limits</text>
</g>
<!-- Node17&#45;&gt;Node24 -->
<g id="edge25" class="edge"><title>Node17&#45;&gt;Node24</title>
<path fill="none" stroke="midnightblue" d="M459.291,-180.835C394.128,-175.856 237.183,-161.828 97.21,-131.925"/>
<polygon fill="midnightblue" stroke="midnightblue" points="97.6777,-128.445 87.1628,-129.744 96.193,-135.286 97.6777,-128.445"/>
</g>
<!-- Node25 -->
<g id="node26" class="node"><title>Node25</title>
<polygon fill="white" stroke="#bfbfbf" points="105.5,-112.5 105.5,-131.5 134.5,-131.5 134.5,-112.5 105.5,-112.5"/>
<text text-anchor="middle" x="120" y="-119.5" font-family="Helvetica,sans-Serif" font-size="10.00">list</text>
</g>
<!-- Node17&#45;&gt;Node25 -->
<g id="edge26" class="edge"><title>Node17&#45;&gt;Node25</title>
<path fill="none" stroke="midnightblue" d="M459.362,-180.845C399.912,-176.165 264.839,-163.098 144.66,-131.974"/>
<polygon fill="midnightblue" stroke="midnightblue" points="145.493,-128.574 134.93,-129.406 143.706,-135.342 145.493,-128.574"/>
</g>
<!-- Node26 -->
<g id="node27" class="node"><title>Node26</title>
<polygon fill="white" stroke="#bfbfbf" points="152.5,-112.5 152.5,-131.5 187.5,-131.5 187.5,-112.5 152.5,-112.5"/>
<text text-anchor="middle" x="170" y="-119.5" font-family="Helvetica,sans-Serif" font-size="10.00">map</text>
</g>
<!-- Node17&#45;&gt;Node26 -->
<g id="edge27" class="edge"><title>Node17&#45;&gt;Node26</title>
<path fill="none" stroke="midnightblue" d="M459.315,-179.197C407.303,-172.421 298.455,-156.816 197.364,-131.745"/>
<polygon fill="midnightblue" stroke="midnightblue" points="198.159,-128.336 187.607,-129.289 196.45,-135.124 198.159,-128.336"/>
</g>
<!-- Node27 -->
<g id="node28" class="node"><title>Node27</title>
<polygon fill="white" stroke="#bfbfbf" points="206,-112.5 206,-131.5 258,-131.5 258,-112.5 206,-112.5"/>
<text text-anchor="middle" x="232" y="-119.5" font-family="Helvetica,sans-Serif" font-size="10.00">memory</text>
</g>
<!-- Node17&#45;&gt;Node27 -->
<g id="edge28" class="edge"><title>Node17&#45;&gt;Node27</title>
<path fill="none" stroke="midnightblue" d="M459.278,-176.248C418.068,-167.131 342.369,-150.176 268.316,-132.274"/>
<polygon fill="midnightblue" stroke="midnightblue" points="268.898,-128.814 258.354,-129.858 267.247,-135.616 268.898,-128.814"/>
</g>
<!-- Node28 -->
<g id="node29" class="node"><title>Node28</title>
<polygon fill="white" stroke="#bfbfbf" points="276,-112.5 276,-131.5 306,-131.5 306,-112.5 276,-112.5"/>
<text text-anchor="middle" x="291" y="-119.5" font-family="Helvetica,sans-Serif" font-size="10.00">set</text>
</g>
<!-- Node17&#45;&gt;Node28 -->
<g id="edge29" class="edge"><title>Node17&#45;&gt;Node28</title>
<path fill="none" stroke="midnightblue" d="M459.435,-174.843C426.258,-165.825 371.548,-150.48 315.847,-132.106"/>
<polygon fill="midnightblue" stroke="midnightblue" points="316.768,-128.723 306.174,-128.887 314.557,-135.365 316.768,-128.723"/>
</g>
<!-- Node17&#45;&gt;Node29 -->
<g id="edge31" class="edge"><title>Node17&#45;&gt;Node29</title>
<path fill="none" stroke="midnightblue" d="M520.617,-179.492C578.395,-172.582 707.29,-155.789 814,-132 814.212,-131.953 814.425,-131.905 814.638,-131.856"/>
<polygon fill="midnightblue" stroke="midnightblue" points="815.588,-135.226 824.417,-129.37 813.863,-128.442 815.588,-135.226"/>
</g>
<!-- Node30 -->
<g id="node31" class="node"><title>Node30</title>
<polygon fill="white" stroke="#bfbfbf" points="429.5,-56.5 429.5,-75.5 478.5,-75.5 478.5,-56.5 429.5,-56.5"/>
<text text-anchor="middle" x="454" y="-63.5" font-family="Helvetica,sans-Serif" font-size="10.00">string.h</text>
</g>
<!-- Node17&#45;&gt;Node30 -->
<g id="edge32" class="edge"><title>Node17&#45;&gt;Node30</title>
<path fill="none" stroke="midnightblue" d="M483.693,-174.488C476.845,-164.758 466.193,-148.091 461,-132 456.147,-116.962 454.502,-99.057 454.012,-85.8503"/>
<polygon fill="midnightblue" stroke="midnightblue" points="457.507,-85.5787 453.826,-75.6441 450.508,-85.7062 457.507,-85.5787"/>
</g>
<!-- Node31 -->
<g id="node32" class="node"><title>Node31</title>
<polygon fill="white" stroke="#bfbfbf" points="470,-112.5 470,-131.5 510,-131.5 510,-112.5 470,-112.5"/>
<text text-anchor="middle" x="490" y="-119.5" font-family="Helvetica,sans-Serif" font-size="10.00">utility</text>
</g>
<!-- Node17&#45;&gt;Node31 -->
<g id="edge33" class="edge"><title>Node17&#45;&gt;Node31</title>
<path fill="none" stroke="midnightblue" d="M490,-174.403C490,-165.938 490,-152.728 490,-141.82"/>
<polygon fill="midnightblue" stroke="midnightblue" points="493.5,-141.581 490,-131.581 486.5,-141.581 493.5,-141.581"/>
</g>
<!-- Node17&#45;&gt;Node32 -->
<g id="edge34" class="edge"><title>Node17&#45;&gt;Node32</title>
<path fill="none" stroke="midnightblue" d="M520.684,-177.446C569.129,-168.563 666.237,-150.29 748,-132 749.273,-131.715 750.57,-131.419 751.879,-131.115"/>
<polygon fill="midnightblue" stroke="midnightblue" points="753.05,-134.434 761.957,-128.695 751.416,-127.627 753.05,-134.434"/>
</g>
<!-- Node33 -->
<g id="node34" class="node"><title>Node33</title>
<g id="a_node34"><a xlink:href="prevector_8h.html" target="_top" xlink:title="prevector.h">
<polygon fill="white" stroke="black" points="602.5,-112.5 602.5,-131.5 667.5,-131.5 667.5,-112.5 602.5,-112.5"/>
<text text-anchor="middle" x="635" y="-119.5" font-family="Helvetica,sans-Serif" font-size="10.00">prevector.h</text>
</a>
</g>
</g>
<!-- Node17&#45;&gt;Node33 -->
<g id="edge35" class="edge"><title>Node17&#45;&gt;Node33</title>
<path fill="none" stroke="midnightblue" d="M510.775,-174.403C535.432,-164.2 576.745,-147.105 604.902,-135.454"/>
<polygon fill="midnightblue" stroke="midnightblue" points="606.362,-138.638 614.264,-131.581 603.685,-132.17 606.362,-138.638"/>
</g>
<!-- Node18&#45;&gt;Node19 -->
<g id="edge19" class="edge"><title>Node18&#45;&gt;Node19</title>
<path fill="none" stroke="midnightblue" d="M348.129,-112.463C321.753,-100.495 281.956,-77.7471 301,-56 320.802,-33.3871 521.923,-18.3309 604.2,-13.0738"/>
<polygon fill="midnightblue" stroke="midnightblue" points="604.549,-16.559 614.31,-12.4392 604.11,-9.57271 604.549,-16.559"/>
</g>
<!-- Node20 -->
<g id="node21" class="node"><title>Node20</title>
<g id="a_node21"><a xlink:href="byteswap_8h.html" target="_top" xlink:title="compat/byteswap.h">
<polygon fill="white" stroke="black" points="310,-56.5 310,-75.5 412,-75.5 412,-56.5 310,-56.5"/>
<text text-anchor="middle" x="361" y="-63.5" font-family="Helvetica,sans-Serif" font-size="10.00">compat/byteswap.h</text>
</a>
</g>
</g>
<!-- Node18&#45;&gt;Node20 -->
<g id="edge20" class="edge"><title>Node18&#45;&gt;Node20</title>
<path fill="none" stroke="midnightblue" d="M367.679,-112.083C366.619,-104.927 365.094,-94.6353 363.769,-85.6911"/>
<polygon fill="midnightblue" stroke="midnightblue" points="367.224,-85.1302 362.296,-75.7511 360.3,-86.1561 367.224,-85.1302"/>
</g>
<!-- Node20&#45;&gt;Node19 -->
<g id="edge21" class="edge"><title>Node20&#45;&gt;Node19</title>
<path fill="none" stroke="midnightblue" d="M405.05,-56.4435C460.223,-45.7265 553.627,-27.5832 604.113,-17.7766"/>
<polygon fill="midnightblue" stroke="midnightblue" points="605.056,-21.1589 614.205,-15.8162 603.721,-14.2874 605.056,-21.1589"/>
</g>
<!-- Node33&#45;&gt;Node19 -->
<g id="edge38" class="edge"><title>Node33&#45;&gt;Node19</title>
<path fill="none" stroke="midnightblue" d="M635.314,-112.368C635.959,-94.617 637.448,-53.6664 638.324,-29.5974"/>
<polygon fill="midnightblue" stroke="midnightblue" points="641.822,-29.712 638.688,-19.5914 634.826,-29.4576 641.822,-29.712"/>
</g>
<!-- Node33&#45;&gt;Node22 -->
<g id="edge36" class="edge"><title>Node33&#45;&gt;Node22</title>
<path fill="none" stroke="midnightblue" d="M644.319,-112.324C652.893,-104.341 665.812,-92.3128 676.188,-82.6529"/>
<polygon fill="midnightblue" stroke="midnightblue" points="678.578,-85.2098 683.512,-75.8339 673.808,-80.0865 678.578,-85.2098"/>
</g>
<!-- Node33&#45;&gt;Node30 -->
<g id="edge39" class="edge"><title>Node33&#45;&gt;Node30</title>
<path fill="none" stroke="midnightblue" d="M606.32,-112.444C574.431,-102.93 522.927,-87.5637 488.768,-77.3728"/>
<polygon fill="midnightblue" stroke="midnightblue" points="489.348,-73.8935 478.765,-74.3884 487.347,-80.6013 489.348,-73.8935"/>
</g>
<!-- Node34 -->
<g id="node35" class="node"><title>Node34</title>
<polygon fill="white" stroke="#bfbfbf" points="497,-56.5 497,-75.5 545,-75.5 545,-56.5 497,-56.5"/>
<text text-anchor="middle" x="521" y="-63.5" font-family="Helvetica,sans-Serif" font-size="10.00">stdlib.h</text>
</g>
<!-- Node33&#45;&gt;Node34 -->
<g id="edge37" class="edge"><title>Node33&#45;&gt;Node34</title>
<path fill="none" stroke="midnightblue" d="M616.936,-112.444C598.425,-103.675 569.419,-89.9355 548.145,-79.8579"/>
<polygon fill="midnightblue" stroke="midnightblue" points="549.515,-76.6343 538.979,-75.5164 546.518,-82.9604 549.515,-76.6343"/>
</g>
<!-- Node35 -->
<g id="node36" class="node"><title>Node35</title>
<polygon fill="white" stroke="#bfbfbf" points="563.5,-56.5 563.5,-75.5 610.5,-75.5 610.5,-56.5 563.5,-56.5"/>
<text text-anchor="middle" x="587" y="-63.5" font-family="Helvetica,sans-Serif" font-size="10.00">iterator</text>
</g>
<!-- Node33&#45;&gt;Node35 -->
<g id="edge40" class="edge"><title>Node33&#45;&gt;Node35</title>
<path fill="none" stroke="midnightblue" d="M627.074,-112.083C620.154,-104.298 609.935,-92.8015 601.548,-83.3665"/>
<polygon fill="midnightblue" stroke="midnightblue" points="604.038,-80.8999 594.779,-75.7511 598.806,-85.5505 604.038,-80.8999"/>
</g>
<!-- Node37 -->
<g id="node38" class="node"><title>Node37</title>
<g id="a_node38"><a xlink:href="threadsafety_8h.html" target="_top" xlink:title="threadsafety.h">
<polygon fill="white" stroke="black" points="1460.5,-174.5 1460.5,-193.5 1539.5,-193.5 1539.5,-174.5 1460.5,-174.5"/>
<text text-anchor="middle" x="1500" y="-181.5" font-family="Helvetica,sans-Serif" font-size="10.00">threadsafety.h</text>
</a>
</g>
</g>
<!-- Node36&#45;&gt;Node37 -->
<g id="edge46" class="edge"><title>Node36&#45;&gt;Node37</title>
<path fill="none" stroke="midnightblue" d="M1656.84,-237.279C1626.03,-227.009 1571.27,-208.758 1535.3,-196.767"/>
<polygon fill="midnightblue" stroke="midnightblue" points="1536.28,-193.405 1525.69,-193.563 1534.07,-200.046 1536.28,-193.405"/>
</g>
<!-- Node38 -->
<g id="node39" class="node"><title>Node38</title>
<polygon fill="white" stroke="#bfbfbf" points="1557.5,-169 1557.5,-199 1670.5,-199 1670.5,-169 1557.5,-169"/>
<text text-anchor="start" x="1565.5" y="-187" font-family="Helvetica,sans-Serif" font-size="10.00">boost/thread/condition</text>
<text text-anchor="middle" x="1614" y="-176" font-family="Helvetica,sans-Serif" font-size="10.00">_variable.hpp</text>
</g>
<!-- Node36&#45;&gt;Node38 -->
<g id="edge47" class="edge"><title>Node36&#45;&gt;Node38</title>
<path fill="none" stroke="midnightblue" d="M1670.54,-236.403C1661.86,-228.505 1648.62,-216.477 1637.14,-206.041"/>
<polygon fill="midnightblue" stroke="midnightblue" points="1639.31,-203.278 1629.55,-199.141 1634.6,-208.457 1639.31,-203.278"/>
</g>
<!-- Node39 -->
<g id="node40" class="node"><title>Node39</title>
<polygon fill="white" stroke="#bfbfbf" points="1689,-174.5 1689,-193.5 1805,-193.5 1805,-174.5 1689,-174.5"/>
<text text-anchor="middle" x="1747" y="-181.5" font-family="Helvetica,sans-Serif" font-size="10.00">boost/thread/locks.hpp</text>
</g>
<!-- Node36&#45;&gt;Node39 -->
<g id="edge48" class="edge"><title>Node36&#45;&gt;Node39</title>
<path fill="none" stroke="midnightblue" d="M1689.6,-236.403C1700.05,-227.047 1716.97,-211.895 1729.74,-200.46"/>
<polygon fill="midnightblue" stroke="midnightblue" points="1732.3,-202.859 1737.42,-193.581 1727.63,-197.644 1732.3,-202.859"/>
</g>
<!-- Node40 -->
<g id="node41" class="node"><title>Node40</title>
<polygon fill="white" stroke="#bfbfbf" points="1823.5,-174.5 1823.5,-193.5 1942.5,-193.5 1942.5,-174.5 1823.5,-174.5"/>
<text text-anchor="middle" x="1883" y="-181.5" font-family="Helvetica,sans-Serif" font-size="10.00">boost/thread/mutex.hpp</text>
</g>
<!-- Node36&#45;&gt;Node40 -->
<g id="edge49" class="edge"><title>Node36&#45;&gt;Node40</title>
<path fill="none" stroke="midnightblue" d="M1703.29,-238.117C1737.73,-227.937 1802.66,-208.745 1844.32,-196.431"/>
<polygon fill="midnightblue" stroke="midnightblue" points="1845.53,-199.726 1854.12,-193.535 1843.54,-193.013 1845.53,-199.726"/>
</g>
<!-- Node41 -->
<g id="node42" class="node"><title>Node41</title>
<polygon fill="white" stroke="#bfbfbf" points="1960.5,-169 1960.5,-199 2073.5,-199 2073.5,-169 1960.5,-169"/>
<text text-anchor="start" x="1968.5" y="-187" font-family="Helvetica,sans-Serif" font-size="10.00">boost/thread/recursive</text>
<text text-anchor="middle" x="2017" y="-176" font-family="Helvetica,sans-Serif" font-size="10.00">_mutex.hpp</text>
</g>
<!-- Node36&#45;&gt;Node41 -->
<g id="edge50" class="edge"><title>Node36&#45;&gt;Node41</title>
<path fill="none" stroke="midnightblue" d="M1703.28,-241.607C1748.71,-234.886 1852.54,-219.03 1950.13,-200.102"/>
<polygon fill="midnightblue" stroke="midnightblue" points="1951.02,-203.495 1960.16,-198.141 1949.68,-196.625 1951.02,-203.495"/>
</g>
</g>
</svg>
        <g id="navigator" transform="translate(0 0)" fill="#404254">
                <rect fill="#f2f5e9" fill-opacity="0.5" stroke="#606060" stroke-width=".5" x="0" y="0" width="60" height="60"/>
                <use id="zoomplus" xlink:href="#zoomPlus" x="17" y="9" onmousedown="handleZoom(evt,'in')"/>
                <use id="zoomminus" xlink:href="#zoomMin" x="42" y="9" onmousedown="handleZoom(evt,'out')"/>
                <use id="reset" xlink:href="#resetDef" x="30" y="36" onmousedown="handleReset()"/>
                <g id="arrowUp" xlink:href="#dirArrow" transform="translate(30 24)" onmousedown="handlePan(0,-1)">
                  <use xlink:href="#rim" fill="#404040">
                        <set attributeName="fill" to="#808080" begin="arrowUp.mouseover" end="arrowUp.mouseout"/>
                  </use>
                  <path fill="none" stroke="white" stroke-width="1.5" d="M0,-3.0v7 M-2.5,-0.5L0,-3.0L2.5,-0.5"/>
                </g>
                <g id="arrowRight" xlink:href="#dirArrow" transform="rotate(90) translate(36 -43)" onmousedown="handlePan(1,0)">
                  <use xlink:href="#rim" fill="#404040">
                        <set attributeName="fill" to="#808080" begin="arrowRight.mouseover" end="arrowRight.mouseout"/>
                  </use>
                  <path fill="none" stroke="white" stroke-width="1.5" d="M0,-3.0v7 M-2.5,-0.5L0,-3.0L2.5,-0.5"/>
                </g>
                <g id="arrowDown" xlink:href="#dirArrow" transform="rotate(180) translate(-30 -48)" onmousedown="handlePan(0,1)">
                  <use xlink:href="#rim" fill="#404040">
                        <set attributeName="fill" to="#808080" begin="arrowDown.mouseover" end="arrowDown.mouseout"/>
                  </use>
                  <path fill="none" stroke="white" stroke-width="1.5" d="M0,-3.0v7 M-2.5,-0.5L0,-3.0L2.5,-0.5"/>
                </g>
                <g id="arrowLeft" xlink:href="#dirArrow" transform="rotate(270) translate(-36 17)" onmousedown="handlePan(-1,0)">
                  <use xlink:href="#rim" fill="#404040">
                        <set attributeName="fill" to="#808080" begin="arrowLeft.mouseover" end="arrowLeft.mouseout"/>
                  </use>
                  <path fill="none" stroke="white" stroke-width="1.5" d="M0,-3.0v7 M-2.5,-0.5L0,-3.0L2.5,-0.5"/>
                </g>
        </g>
        <svg viewBox="0 0 15 15" width="100%" height="30px" preserveAspectRatio="xMaxYMin meet">
         <g id="arrow_out" transform="scale(0.3 0.3)">
          <a xlink:href="netfulfilledman_8h__incl_org.svg" target="_base">
           <rect id="button" ry="5" rx="5" y="6" x="6" height="38" width="38"
                fill="#f2f5e9" fill-opacity="0.5" stroke="#606060" stroke-width="1.0"/>
           <path id="arrow"
             d="M 11.500037,31.436501 C 11.940474,20.09759 22.043105,11.32322 32.158766,21.979434 L 37.068811,17.246167 C 37.068811,17.246167 37.088388,32 37.088388,32 L 22.160133,31.978069 C 22.160133,31.978069 26.997745,27.140456 26.997745,27.140456 C 18.528582,18.264221 13.291696,25.230495 11.500037,31.436501 z"
             style="fill:#404040;"/>
          </a>
         </g>
        </svg>
</svg>
