<?xml version="1.0" encoding="UTF-8" standalone="no"?>
<!DOCTYPE svg PUBLIC "-//W3C//DTD SVG 1.1//EN"
 "http://www.w3.org/Graphics/SVG/1.1/DTD/svg11.dtd">
<!-- Generated by graphviz version 2.36.0 (20140111.2315)
 -->
<!-- Title: src/netfulfilledman.h Pages: 1 -->
<svg width="779pt" height="84pt"
 viewBox="0.00 0.00 779.00 84.00" xmlns="http://www.w3.org/2000/svg" xmlns:xlink="http://www.w3.org/1999/xlink">
<g id="graph0" class="graph" transform="scale(1 1) rotate(0) translate(4 80)">
<title>src/netfulfilledman.h</title>
<polygon fill="white" stroke="none" points="-4,4 -4,-80 775,-80 775,4 -4,4"/>
<!-- Node42 -->
<g id="node1" class="node"><title>Node42</title>
<polygon fill="#bfbfbf" stroke="black" points="304,-56.5 304,-75.5 408,-75.5 408,-56.5 304,-56.5"/>
<text text-anchor="middle" x="356" y="-63.5" font-family="Helvetica,sans-Serif" font-size="10.00">src/netfulfilledman.h</text>
</g>
<!-- Node43 -->
<g id="node2" class="node"><title>Node43</title>
<g id="a_node2"><a xlink:href="governance_8cpp.html" target="_top" xlink:title="src/governance.cpp">
<polygon fill="white" stroke="black" points="0,-0.5 0,-19.5 102,-19.5 102,-0.5 0,-0.5"/>
<text text-anchor="middle" x="51" y="-7.5" font-family="Helvetica,sans-Serif" font-size="10.00">src/governance.cpp</text>
</a>
</g>
</g>
<!-- Node42&#45;&gt;Node43 -->
<g id="edge1" class="edge"><title>Node42&#45;&gt;Node43</title>
<path fill="none" stroke="midnightblue" d="M297.622,-54.6642C239.982,-44.4592 152.885,-29.0386 99.1021,-19.5164"/>
<polygon fill="midnightblue" stroke="midnightblue" points="297.215,-58.1465 307.672,-56.4435 298.435,-51.2537 297.215,-58.1465"/>
</g>
<!-- Node44 -->
<g id="node3" class="node"><title>Node44</title>
<g id="a_node3"><a xlink:href="init_8cpp.html" target="_top" xlink:title="src/init.cpp">
<polygon fill="white" stroke="black" points="120.5,-0.5 120.5,-19.5 185.5,-19.5 185.5,-0.5 120.5,-0.5"/>
<text text-anchor="middle" x="153" y="-7.5" font-family="Helvetica,sans-Serif" font-size="10.00">src/init.cpp</text>
</a>
</g>
</g>
<!-- Node42&#45;&gt;Node44 -->
<g id="edge2" class="edge"><title>Node42&#45;&gt;Node44</title>
<path fill="none" stroke="midnightblue" d="M314.006,-53.8291C275.677,-43.6333 219.848,-28.7823 185.015,-19.5164"/>
<polygon fill="midnightblue" stroke="midnightblue" points="313.27,-57.2551 323.834,-56.4435 315.07,-50.4904 313.27,-57.2551"/>
</g>
<!-- Node45 -->
<g id="node4" class="node"><title>Node45</title>
<g id="a_node4"><a xlink:href="masternode-payments_8cpp.html" target="_top" xlink:title="src/masternode&#45;payments.cpp">
<polygon fill="white" stroke="black" points="203.5,-0.5 203.5,-19.5 352.5,-19.5 352.5,-0.5 203.5,-0.5"/>
<text text-anchor="middle" x="278" y="-7.5" font-family="Helvetica,sans-Serif" font-size="10.00">src/masternode&#45;payments.cpp</text>
</a>
</g>
</g>
<!-- Node42&#45;&gt;Node45 -->
<g id="edge3" class="edge"><title>Node42&#45;&gt;Node45</title>
<path fill="none" stroke="midnightblue" d="M335.232,-50.6221C320.983,-40.7574 302.544,-27.9919 290.501,-19.6545"/>
<polygon fill="midnightblue" stroke="midnightblue" points="333.254,-53.5095 343.468,-56.324 337.238,-47.7541 333.254,-53.5095"/>
</g>
<!-- Node46 -->
<g id="node5" class="node"><title>Node46</title>
<g id="a_node5"><a xlink:href="masternode-sync_8cpp.html" target="_top" xlink:title="src/masternode&#45;sync.cpp">
<polygon fill="white" stroke="black" points="370.5,-0.5 370.5,-19.5 497.5,-19.5 497.5,-0.5 370.5,-0.5"/>
<text text-anchor="middle" x="434" y="-7.5" font-family="Helvetica,sans-Serif" font-size="10.00">src/masternode&#45;sync.cpp</text>
</a>
</g>
</g>
<!-- Node42&#45;&gt;Node46 -->
<g id="edge4" class="edge"><title>Node42&#45;&gt;Node46</title>
<path fill="none" stroke="midnightblue" d="M376.768,-50.6221C391.017,-40.7574 409.456,-27.9919 421.499,-19.6545"/>
<polygon fill="midnightblue" stroke="midnightblue" points="374.762,-47.7541 368.532,-56.324 378.746,-53.5095 374.762,-47.7541"/>
</g>
<!-- Node47 -->
<g id="node6" class="node"><title>Node47</title>
<g id="a_node6"><a xlink:href="masternodeman_8cpp.html" target="_top" xlink:title="src/masternodeman.cpp">
<polygon fill="white" stroke="black" points="516,-0.5 516,-19.5 638,-19.5 638,-0.5 516,-0.5"/>
<text text-anchor="middle" x="577" y="-7.5" font-family="Helvetica,sans-Serif" font-size="10.00">src/masternodeman.cpp</text>
</a>
</g>
</g>
<!-- Node42&#45;&gt;Node47 -->
<g id="edge5" class="edge"><title>Node42&#45;&gt;Node47</title>
<path fill="none" stroke="midnightblue" d="M400.921,-54.0237C442.668,-43.8232 503.982,-28.8414 542.146,-19.5164"/>
<polygon fill="midnightblue" stroke="midnightblue" points="399.902,-50.6699 391.018,-56.4435 401.563,-57.4698 399.902,-50.6699"/>
</g>
<!-- Node48 -->
<g id="node7" class="node"><title>Node48</title>
<g id="a_node7"><a xlink:href="netfulfilledman_8cpp.html" target="_top" xlink:title="src/netfulfilledman.cpp">
<polygon fill="white" stroke="black" points="656.5,-0.5 656.5,-19.5 771.5,-19.5 771.5,-0.5 656.5,-0.5"/>
<text text-anchor="middle" x="714" y="-7.5" font-family="Helvetica,sans-Serif" font-size="10.00">src/netfulfilledman.cpp</text>
</a>
</g>
</g>
<!-- Node42&#45;&gt;Node48 -->
<g id="edge6" class="edge"><title>Node42&#45;&gt;Node48</title>
<path fill="none" stroke="midnightblue" d="M418.118,-55.6302C485.545,-45.4597 592.285,-29.3593 657.447,-19.5303"/>
<polygon fill="midnightblue" stroke="midnightblue" points="417.422,-52.1955 408.056,-57.1479 418.466,-59.1172 417.422,-52.1955"/>
</g>
</g>
</svg>
