<?xml version="1.0" encoding="UTF-8" standalone="no"?>
<!DOCTYPE svg PUBLIC "-//W3C//DTD SVG 1.1//EN"
 "http://www.w3.org/Graphics/SVG/1.1/DTD/svg11.dtd">
<!-- Generated by graphviz version 2.36.0 (20140111.2315)
 -->
<!-- Title: src/netmessagemaker.h Pages: 1 -->
<svg width="1486pt" height="84pt"
 viewBox="0.00 0.00 1486.00 84.00" xmlns="http://www.w3.org/2000/svg" xmlns:xlink="http://www.w3.org/1999/xlink">
<g id="graph0" class="graph" transform="scale(1 1) rotate(0) translate(4 80)">
<title>src/netmessagemaker.h</title>
<polygon fill="white" stroke="none" points="-4,4 -4,-80 1482,-80 1482,4 -4,4"/>
<!-- Node94 -->
<g id="node1" class="node"><title>Node94</title>
<polygon fill="#bfbfbf" stroke="black" points="682,-56.5 682,-75.5 804,-75.5 804,-56.5 682,-56.5"/>
<text text-anchor="middle" x="743" y="-63.5" font-family="Helvetica,sans-Serif" font-size="10.00">src/netmessagemaker.h</text>
</g>
<!-- Node95 -->
<g id="node2" class="node"><title>Node95</title>
<g id="a_node2"><a xlink:href="alert_8cpp.html" target="_top" xlink:title="src/alert.cpp">
<polygon fill="white" stroke="black" points="-0.5,-0.5 -0.5,-19.5 70.5,-19.5 70.5,-0.5 -0.5,-0.5"/>
<text text-anchor="middle" x="35" y="-7.5" font-family="Helvetica,sans-Serif" font-size="10.00">src/alert.cpp</text>
</a>
</g>
</g>
<!-- Node94&#45;&gt;Node95 -->
<g id="edge1" class="edge"><title>Node94&#45;&gt;Node95</title>
<path fill="none" stroke="midnightblue" d="M671.644,-63.1881C549.838,-59.419 294.18,-48.564 80,-20 76.999,-19.5998 73.8975,-19.1201 70.7913,-18.5933"/>
<polygon fill="midnightblue" stroke="midnightblue" points="671.848,-66.6958 681.949,-63.4999 672.059,-59.699 671.848,-66.6958"/>
</g>
<!-- Node96 -->
<g id="node3" class="node"><title>Node96</title>
<g id="a_node3"><a xlink:href="governance_8cpp.html" target="_top" xlink:title="src/governance.cpp">
<polygon fill="white" stroke="black" points="89,-0.5 89,-19.5 191,-19.5 191,-0.5 89,-0.5"/>
<text text-anchor="middle" x="140" y="-7.5" font-family="Helvetica,sans-Serif" font-size="10.00">src/governance.cpp</text>
</a>
</g>
</g>
<!-- Node94&#45;&gt;Node96 -->
<g id="edge2" class="edge"><title>Node94&#45;&gt;Node96</title>
<path fill="none" stroke="midnightblue" d="M671.734,-60.604C567.811,-53.8512 368.68,-39.6187 200,-20 197.07,-19.6593 194.064,-19.2854 191.032,-18.8897"/>
<polygon fill="midnightblue" stroke="midnightblue" points="671.59,-64.1018 681.794,-61.2536 672.041,-57.1164 671.59,-64.1018"/>
</g>
<!-- Node97 -->
<g id="node4" class="node"><title>Node97</title>
<g id="a_node4"><a xlink:href="instantx_8cpp.html" target="_top" xlink:title="src/instantx.cpp">
<polygon fill="white" stroke="black" points="209,-0.5 209,-19.5 295,-19.5 295,-0.5 209,-0.5"/>
<text text-anchor="middle" x="252" y="-7.5" font-family="Helvetica,sans-Serif" font-size="10.00">src/instantx.cpp</text>
</a>
</g>
</g>
<!-- Node94&#45;&gt;Node97 -->
<g id="edge3" class="edge"><title>Node94&#45;&gt;Node97</title>
<path fill="none" stroke="midnightblue" d="M671.739,-59.2226C584.742,-51.8174 433.225,-37.7844 304,-20 301.096,-19.6003 298.105,-19.1599 295.094,-18.6952"/>
<polygon fill="midnightblue" stroke="midnightblue" points="671.505,-62.7151 681.764,-60.0708 672.095,-55.74 671.505,-62.7151"/>
</g>
<!-- Node98 -->
<g id="node5" class="node"><title>Node98</title>
<g id="a_node5"><a xlink:href="masternode-payments_8cpp.html" target="_top" xlink:title="src/masternode&#45;payments.cpp">
<polygon fill="white" stroke="black" points="313.5,-0.5 313.5,-19.5 462.5,-19.5 462.5,-0.5 313.5,-0.5"/>
<text text-anchor="middle" x="388" y="-7.5" font-family="Helvetica,sans-Serif" font-size="10.00">src/masternode&#45;payments.cpp</text>
</a>
</g>
</g>
<!-- Node94&#45;&gt;Node98 -->
<g id="edge4" class="edge"><title>Node94&#45;&gt;Node98</title>
<path fill="none" stroke="midnightblue" d="M676.711,-54.9166C609.645,-44.715 507.105,-29.1174 443.988,-19.5164"/>
<polygon fill="midnightblue" stroke="midnightblue" points="676.337,-58.3998 686.749,-56.4435 677.389,-51.4794 676.337,-58.3998"/>
</g>
<!-- Node99 -->
<g id="node6" class="node"><title>Node99</title>
<g id="a_node6"><a xlink:href="masternode-sync_8cpp.html" target="_top" xlink:title="src/masternode&#45;sync.cpp">
<polygon fill="white" stroke="black" points="480.5,-0.5 480.5,-19.5 607.5,-19.5 607.5,-0.5 480.5,-0.5"/>
<text text-anchor="middle" x="544" y="-7.5" font-family="Helvetica,sans-Serif" font-size="10.00">src/masternode&#45;sync.cpp</text>
</a>
</g>
</g>
<!-- Node94&#45;&gt;Node99 -->
<g id="edge5" class="edge"><title>Node94&#45;&gt;Node99</title>
<path fill="none" stroke="midnightblue" d="M701.352,-53.6986C663.794,-43.507 609.386,-28.7429 575.385,-19.5164"/>
<polygon fill="midnightblue" stroke="midnightblue" points="700.9,-57.2025 711.468,-56.4435 702.733,-50.4468 700.9,-57.2025"/>
</g>
<!-- Node100 -->
<g id="node7" class="node"><title>Node100</title>
<g id="a_node7"><a xlink:href="masternodeman_8cpp.html" target="_top" xlink:title="src/masternodeman.cpp">
<polygon fill="white" stroke="black" points="626,-0.5 626,-19.5 748,-19.5 748,-0.5 626,-0.5"/>
<text text-anchor="middle" x="687" y="-7.5" font-family="Helvetica,sans-Serif" font-size="10.00">src/masternodeman.cpp</text>
</a>
</g>
</g>
<!-- Node94&#45;&gt;Node100 -->
<g id="edge6" class="edge"><title>Node94&#45;&gt;Node100</title>
<path fill="none" stroke="midnightblue" d="M726.67,-49.2533C716.735,-39.6731 704.412,-27.7906 696.161,-19.8339"/>
<polygon fill="midnightblue" stroke="midnightblue" points="724.375,-51.902 734.003,-56.324 729.234,-46.8631 724.375,-51.902"/>
</g>
<!-- Node101 -->
<g id="node8" class="node"><title>Node101</title>
<g id="a_node8"><a xlink:href="net_8cpp.html" target="_top" xlink:title="src/net.cpp">
<polygon fill="white" stroke="black" points="766.5,-0.5 766.5,-19.5 831.5,-19.5 831.5,-0.5 766.5,-0.5"/>
<text text-anchor="middle" x="799" y="-7.5" font-family="Helvetica,sans-Serif" font-size="10.00">src/net.cpp</text>
</a>
</g>
</g>
<!-- Node94&#45;&gt;Node101 -->
<g id="edge7" class="edge"><title>Node94&#45;&gt;Node101</title>
<path fill="none" stroke="midnightblue" d="M759.33,-49.2533C769.265,-39.6731 781.588,-27.7906 789.839,-19.8339"/>
<polygon fill="midnightblue" stroke="midnightblue" points="756.766,-46.8631 751.997,-56.324 761.625,-51.902 756.766,-46.8631"/>
</g>
<!-- Node102 -->
<g id="node9" class="node"><title>Node102</title>
<g id="a_node9"><a xlink:href="net__processing_8cpp.html" target="_top" xlink:title="src/net_processing.cpp">
<polygon fill="white" stroke="black" points="850,-0.5 850,-19.5 968,-19.5 968,-0.5 850,-0.5"/>
<text text-anchor="middle" x="909" y="-7.5" font-family="Helvetica,sans-Serif" font-size="10.00">src/net_processing.cpp</text>
</a>
</g>
</g>
<!-- Node94&#45;&gt;Node102 -->
<g id="edge8" class="edge"><title>Node94&#45;&gt;Node102</title>
<path fill="none" stroke="midnightblue" d="M778.953,-53.3044C810.232,-43.1294 854.821,-28.6246 882.82,-19.5164"/>
<polygon fill="midnightblue" stroke="midnightblue" points="777.73,-50.0217 769.303,-56.4435 779.895,-56.6783 777.73,-50.0217"/>
</g>
<!-- Node103 -->
<g id="node10" class="node"><title>Node103</title>
<g id="a_node10"><a xlink:href="privatesend-client_8cpp.html" target="_top" xlink:title="src/privatesend&#45;client.cpp">
<polygon fill="white" stroke="black" points="986,-0.5 986,-19.5 1114,-19.5 1114,-0.5 986,-0.5"/>
<text text-anchor="middle" x="1050" y="-7.5" font-family="Helvetica,sans-Serif" font-size="10.00">src/privatesend&#45;client.cpp</text>
</a>
</g>
</g>
<!-- Node94&#45;&gt;Node103 -->
<g id="edge9" class="edge"><title>Node94&#45;&gt;Node103</title>
<path fill="none" stroke="midnightblue" d="M801.761,-54.6642C859.778,-44.4592 947.447,-29.0386 1001.58,-19.5164"/>
<polygon fill="midnightblue" stroke="midnightblue" points="800.888,-51.264 791.645,-56.4435 802.1,-58.1582 800.888,-51.264"/>
</g>
<!-- Node104 -->
<g id="node11" class="node"><title>Node104</title>
<g id="a_node11"><a xlink:href="privatesend-server_8cpp.html" target="_top" xlink:title="src/privatesend&#45;server.cpp">
<polygon fill="white" stroke="black" points="1132,-0.5 1132,-19.5 1264,-19.5 1264,-0.5 1132,-0.5"/>
<text text-anchor="middle" x="1198" y="-7.5" font-family="Helvetica,sans-Serif" font-size="10.00">src/privatesend&#45;server.cpp</text>
</a>
</g>
</g>
<!-- Node94&#45;&gt;Node104 -->
<g id="edge10" class="edge"><title>Node94&#45;&gt;Node104</title>
<path fill="none" stroke="midnightblue" d="M814.197,-56.6023C890.555,-47.5881 1015.36,-32.8317 1123,-20 1125.86,-19.6585 1128.79,-19.3092 1131.75,-18.956"/>
<polygon fill="midnightblue" stroke="midnightblue" points="813.732,-53.1328 804.211,-57.781 814.553,-60.0845 813.732,-53.1328"/>
</g>
<!-- Node105 -->
<g id="node12" class="node"><title>Node105</title>
<g id="a_node12"><a xlink:href="privatesend_8cpp.html" target="_top" xlink:title="src/privatesend.cpp">
<polygon fill="white" stroke="black" points="1282,-0.5 1282,-19.5 1384,-19.5 1384,-0.5 1282,-0.5"/>
<text text-anchor="middle" x="1333" y="-7.5" font-family="Helvetica,sans-Serif" font-size="10.00">src/privatesend.cpp</text>
</a>
</g>
</g>
<!-- Node94&#45;&gt;Node105 -->
<g id="edge11" class="edge"><title>Node94&#45;&gt;Node105</title>
<path fill="none" stroke="midnightblue" d="M814.515,-60.3912C916.475,-53.488 1109.4,-39.1949 1273,-20 1275.93,-19.6563 1278.94,-19.2801 1281.97,-18.8827"/>
<polygon fill="midnightblue" stroke="midnightblue" points="814.079,-56.9125 804.337,-61.0762 814.549,-63.8967 814.079,-56.9125"/>
</g>
<!-- Node106 -->
<g id="node13" class="node"><title>Node106</title>
<g id="a_node13"><a xlink:href="spork_8cpp.html" target="_top" xlink:title="src/spork.cpp">
<polygon fill="white" stroke="black" points="1402,-0.5 1402,-19.5 1478,-19.5 1478,-0.5 1402,-0.5"/>
<text text-anchor="middle" x="1440" y="-7.5" font-family="Helvetica,sans-Serif" font-size="10.00">src/spork.cpp</text>
</a>
</g>
</g>
<!-- Node94&#45;&gt;Node106 -->
<g id="edge12" class="edge"><title>Node94&#45;&gt;Node106</title>
<path fill="none" stroke="midnightblue" d="M814.21,-62.7676C933.94,-58.4096 1182.99,-46.7485 1392,-20 1395.2,-19.591 1398.5,-19.1051 1401.81,-18.5742"/>
<polygon fill="midnightblue" stroke="midnightblue" points="813.944,-59.2748 804.075,-63.1303 814.194,-66.2704 813.944,-59.2748"/>
</g>
</g>
</svg>
