<?xml version="1.0" encoding="UTF-8" standalone="no"?>
<!DOCTYPE svg PUBLIC "-//W3C//DTD SVG 1.1//EN"
 "http://www.w3.org/Graphics/SVG/1.1/DTD/svg11.dtd">
<!-- Generated by graphviz version 2.36.0 (20140111.2315)
 -->
<!-- Title: src/immer/detail/arrays/no_capacity.hpp Pages: 1 -->
<svg width="450pt" height="232pt"
 viewBox="0.00 0.00 450.00 232.00" xmlns="http://www.w3.org/2000/svg" xmlns:xlink="http://www.w3.org/1999/xlink">
<g id="graph0" class="graph" transform="scale(1 1) rotate(0) translate(4 228)">
<title>src/immer/detail/arrays/no_capacity.hpp</title>
<polygon fill="white" stroke="none" points="-4,4 -4,-228 446,-228 446,4 -4,4"/>
<!-- Node0 -->
<g id="node1" class="node"><title>Node0</title>
<polygon fill="#bfbfbf" stroke="black" points="271,-193 271,-223 387,-223 387,-193 271,-193"/>
<text text-anchor="start" x="279" y="-211" font-family="Helvetica,sans-Serif" font-size="10.00">src/immer/detail/arrays</text>
<text text-anchor="middle" x="329" y="-200" font-family="Helvetica,sans-Serif" font-size="10.00">/no_capacity.hpp</text>
</g>
<!-- Node1 -->
<g id="node2" class="node"><title>Node1</title>
<g id="a_node2"><a xlink:href="arrays_2node_8hpp.html" target="_top" xlink:title="immer/detail/arrays\l/node.hpp">
<polygon fill="white" stroke="black" points="279,-125 279,-155 379,-155 379,-125 279,-125"/>
<text text-anchor="start" x="287" y="-143" font-family="Helvetica,sans-Serif" font-size="10.00">immer/detail/arrays</text>
<text text-anchor="middle" x="329" y="-132" font-family="Helvetica,sans-Serif" font-size="10.00">/node.hpp</text>
</a>
</g>
</g>
<!-- Node0&#45;&gt;Node1 -->
<g id="edge1" class="edge"><title>Node0&#45;&gt;Node1</title>
<path fill="none" stroke="midnightblue" d="M329,-192.679C329,-184.722 329,-174.605 329,-165.436"/>
<polygon fill="midnightblue" stroke="midnightblue" points="332.5,-165.293 329,-155.293 325.5,-165.293 332.5,-165.293"/>
</g>
<!-- Node2 -->
<g id="node3" class="node"><title>Node2</title>
<g id="a_node3"><a xlink:href="util_8hpp.html" target="_top" xlink:title="immer/detail/util.hpp">
<polygon fill="white" stroke="black" points="146,-62.5 146,-81.5 250,-81.5 250,-62.5 146,-62.5"/>
<text text-anchor="middle" x="198" y="-69.5" font-family="Helvetica,sans-Serif" font-size="10.00">immer/detail/util.hpp</text>
</a>
</g>
</g>
<!-- Node1&#45;&gt;Node2 -->
<g id="edge2" class="edge"><title>Node1&#45;&gt;Node2</title>
<path fill="none" stroke="midnightblue" d="M300.897,-124.841C278.238,-113.425 246.599,-97.4852 224.405,-86.3033"/>
<polygon fill="midnightblue" stroke="midnightblue" points="225.738,-83.0556 215.232,-81.6819 222.588,-89.307 225.738,-83.0556"/>
</g>
<!-- Node8 -->
<g id="node9" class="node"><title>Node8</title>
<g id="a_node9"><a xlink:href="combine__standard__layout_8hpp.html" target="_top" xlink:title="immer/detail/combine\l_standard_layout.hpp">
<polygon fill="white" stroke="black" points="274,-57 274,-87 384,-87 384,-57 274,-57"/>
<text text-anchor="start" x="282" y="-75" font-family="Helvetica,sans-Serif" font-size="10.00">immer/detail/combine</text>
<text text-anchor="middle" x="329" y="-64" font-family="Helvetica,sans-Serif" font-size="10.00">_standard_layout.hpp</text>
</a>
</g>
</g>
<!-- Node1&#45;&gt;Node8 -->
<g id="edge8" class="edge"><title>Node1&#45;&gt;Node8</title>
<path fill="none" stroke="midnightblue" d="M329,-124.679C329,-116.722 329,-106.605 329,-97.4356"/>
<polygon fill="midnightblue" stroke="midnightblue" points="332.5,-97.293 329,-87.2931 325.5,-97.2931 332.5,-97.293"/>
</g>
<!-- Node9 -->
<g id="node10" class="node"><title>Node9</title>
<polygon fill="white" stroke="#bfbfbf" points="402,-62.5 402,-81.5 442,-81.5 442,-62.5 402,-62.5"/>
<text text-anchor="middle" x="422" y="-69.5" font-family="Helvetica,sans-Serif" font-size="10.00">limits</text>
</g>
<!-- Node1&#45;&gt;Node9 -->
<g id="edge10" class="edge"><title>Node1&#45;&gt;Node9</title>
<path fill="none" stroke="midnightblue" d="M349.18,-124.679C364.631,-113.713 385.864,-98.645 401.415,-87.6085"/>
<polygon fill="midnightblue" stroke="midnightblue" points="403.699,-90.2797 409.828,-81.6379 399.648,-84.5711 403.699,-90.2797"/>
</g>
<!-- Node3 -->
<g id="node4" class="node"><title>Node3</title>
<g id="a_node4"><a xlink:href="config_8hpp.html" target="_top" xlink:title="immer/config.hpp">
<polygon fill="white" stroke="black" points="0,-0.5 0,-19.5 92,-19.5 92,-0.5 0,-0.5"/>
<text text-anchor="middle" x="46" y="-7.5" font-family="Helvetica,sans-Serif" font-size="10.00">immer/config.hpp</text>
</a>
</g>
</g>
<!-- Node2&#45;&gt;Node3 -->
<g id="edge3" class="edge"><title>Node2&#45;&gt;Node3</title>
<path fill="none" stroke="midnightblue" d="M176.222,-62.4035C150.262,-52.1559 106.689,-34.9561 77.1654,-23.3021"/>
<polygon fill="midnightblue" stroke="midnightblue" points="78.3242,-19.9968 67.7375,-19.5806 75.7539,-26.5079 78.3242,-19.9968"/>
</g>
<!-- Node4 -->
<g id="node5" class="node"><title>Node4</title>
<polygon fill="white" stroke="#bfbfbf" points="110.5,-0.5 110.5,-19.5 159.5,-19.5 159.5,-0.5 110.5,-0.5"/>
<text text-anchor="middle" x="135" y="-7.5" font-family="Helvetica,sans-Serif" font-size="10.00">cstddef</text>
</g>
<!-- Node2&#45;&gt;Node4 -->
<g id="edge4" class="edge"><title>Node2&#45;&gt;Node4</title>
<path fill="none" stroke="midnightblue" d="M188.974,-62.4035C179.243,-53.1361 163.542,-38.1828 151.577,-26.7876"/>
<polygon fill="midnightblue" stroke="midnightblue" points="153.665,-23.9427 144.01,-19.5806 148.837,-29.0117 153.665,-23.9427"/>
</g>
<!-- Node5 -->
<g id="node6" class="node"><title>Node5</title>
<polygon fill="white" stroke="#bfbfbf" points="177.5,-0.5 177.5,-19.5 212.5,-19.5 212.5,-0.5 177.5,-0.5"/>
<text text-anchor="middle" x="195" y="-7.5" font-family="Helvetica,sans-Serif" font-size="10.00">new</text>
</g>
<!-- Node2&#45;&gt;Node5 -->
<g id="edge5" class="edge"><title>Node2&#45;&gt;Node5</title>
<path fill="none" stroke="midnightblue" d="M197.57,-62.4035C197.147,-53.9381 196.486,-40.7283 195.941,-29.8199"/>
<polygon fill="midnightblue" stroke="midnightblue" points="199.424,-29.3933 195.429,-19.5806 192.433,-29.7429 199.424,-29.3933"/>
</g>
<!-- Node6 -->
<g id="node7" class="node"><title>Node6</title>
<polygon fill="white" stroke="#bfbfbf" points="301,-0.5 301,-19.5 363,-19.5 363,-0.5 301,-0.5"/>
<text text-anchor="middle" x="332" y="-7.5" font-family="Helvetica,sans-Serif" font-size="10.00">type_traits</text>
</g>
<!-- Node2&#45;&gt;Node6 -->
<g id="edge6" class="edge"><title>Node2&#45;&gt;Node6</title>
<path fill="none" stroke="midnightblue" d="M217.199,-62.4035C239.787,-52.2896 277.499,-35.4036 303.501,-23.761"/>
<polygon fill="midnightblue" stroke="midnightblue" points="305.14,-26.8617 312.837,-19.5806 302.279,-20.4729 305.14,-26.8617"/>
</g>
<!-- Node7 -->
<g id="node8" class="node"><title>Node7</title>
<polygon fill="white" stroke="#bfbfbf" points="231,-0.5 231,-19.5 283,-19.5 283,-0.5 231,-0.5"/>
<text text-anchor="middle" x="257" y="-7.5" font-family="Helvetica,sans-Serif" font-size="10.00">memory</text>
</g>
<!-- Node2&#45;&gt;Node7 -->
<g id="edge7" class="edge"><title>Node2&#45;&gt;Node7</title>
<path fill="none" stroke="midnightblue" d="M206.453,-62.4035C215.566,-53.1361 230.27,-38.1828 241.476,-26.7876"/>
<polygon fill="midnightblue" stroke="midnightblue" points="244.047,-29.1649 248.562,-19.5806 239.055,-24.2569 244.047,-29.1649"/>
</g>
<!-- Node8&#45;&gt;Node6 -->
<g id="edge9" class="edge"><title>Node8&#45;&gt;Node6</title>
<path fill="none" stroke="midnightblue" d="M329.711,-56.7808C330.115,-48.6913 330.627,-38.4617 331.064,-29.725"/>
<polygon fill="midnightblue" stroke="midnightblue" points="334.56,-29.8929 331.563,-19.7305 327.568,-29.5432 334.56,-29.8929"/>
</g>
</g>
</svg>
