<?xml version="1.0" encoding="UTF-8" standalone="no"?>
<!DOCTYPE svg PUBLIC "-//W3C//DTD SVG 1.1//EN"
 "http://www.w3.org/Graphics/SVG/1.1/DTD/svg11.dtd">
<!-- Generated by graphviz version 2.36.0 (20140111.2315)
 -->
<!-- Title: src/noui.cpp Pages: 1 -->
<svg width="2195pt" height="320pt"
 viewBox="0.00 0.00 2195.00 320.00" xmlns="http://www.w3.org/2000/svg" xmlns:xlink="http://www.w3.org/1999/xlink">
<g id="graph0" class="graph" transform="scale(1 1) rotate(0) translate(4 316)">
<title>src/noui.cpp</title>
<polygon fill="white" stroke="none" points="-4,4 -4,-316 2191,-316 2191,4 -4,4"/>
<!-- Node0 -->
<g id="node1" class="node"><title>Node0</title>
<polygon fill="#bfbfbf" stroke="black" points="257,-292.5 257,-311.5 327,-311.5 327,-292.5 257,-292.5"/>
<text text-anchor="middle" x="292" y="-299.5" font-family="Helvetica,sans-Serif" font-size="10.00">src/noui.cpp</text>
</g>
<!-- Node1 -->
<g id="node2" class="node"><title>Node1</title>
<g id="a_node2"><a xlink:href="noui_8h.html" target="_top" xlink:title="noui.h">
<polygon fill="white" stroke="black" points="-0.5,-236.5 -0.5,-255.5 42.5,-255.5 42.5,-236.5 -0.5,-236.5"/>
<text text-anchor="middle" x="21" y="-243.5" font-family="Helvetica,sans-Serif" font-size="10.00">noui.h</text>
</a>
</g>
</g>
<!-- Node0&#45;&gt;Node1 -->
<g id="edge1" class="edge"><title>Node0&#45;&gt;Node1</title>
<path fill="none" stroke="midnightblue" d="M256.838,-294.899C210.781,-286.762 127.583,-271.568 57,-256 55.5452,-255.679 54.0594,-255.343 52.5602,-254.996"/>
<polygon fill="midnightblue" stroke="midnightblue" points="53.1963,-251.55 42.6558,-252.622 51.5642,-258.357 53.1963,-251.55"/>
</g>
<!-- Node2 -->
<g id="node3" class="node"><title>Node2</title>
<g id="a_node3"><a xlink:href="ui__interface_8h.html" target="_top" xlink:title="ui_interface.h">
<polygon fill="white" stroke="black" points="287.5,-236.5 287.5,-255.5 362.5,-255.5 362.5,-236.5 287.5,-236.5"/>
<text text-anchor="middle" x="325" y="-243.5" font-family="Helvetica,sans-Serif" font-size="10.00">ui_interface.h</text>
</a>
</g>
</g>
<!-- Node0&#45;&gt;Node2 -->
<g id="edge2" class="edge"><title>Node0&#45;&gt;Node2</title>
<path fill="none" stroke="midnightblue" d="M297.449,-292.083C302.014,-284.613 308.668,-273.724 314.293,-264.52"/>
<polygon fill="midnightblue" stroke="midnightblue" points="317.424,-266.109 319.652,-255.751 311.451,-262.459 317.424,-266.109"/>
</g>
<!-- Node3 -->
<g id="node4" class="node"><title>Node3</title>
<polygon fill="white" stroke="#bfbfbf" points="160.5,-0.5 160.5,-19.5 209.5,-19.5 209.5,-0.5 160.5,-0.5"/>
<text text-anchor="middle" x="185" y="-7.5" font-family="Helvetica,sans-Serif" font-size="10.00">stdint.h</text>
</g>
<!-- Node0&#45;&gt;Node3 -->
<g id="edge66" class="edge"><title>Node0&#45;&gt;Node3</title>
<path fill="none" stroke="midnightblue" d="M256.982,-298.422C194.666,-291.725 71,-267.981 71,-185 71,-185 71,-185 71,-121 71,-74.1149 121.552,-40.8944 155.329,-23.9302"/>
<polygon fill="midnightblue" stroke="midnightblue" points="156.868,-27.0742 164.355,-19.5787 153.828,-20.7687 156.868,-27.0742"/>
</g>
<!-- Node4 -->
<g id="node5" class="node"><title>Node4</title>
<polygon fill="white" stroke="#bfbfbf" points="213.5,-56.5 213.5,-75.5 254.5,-75.5 254.5,-56.5 213.5,-56.5"/>
<text text-anchor="middle" x="234" y="-63.5" font-family="Helvetica,sans-Serif" font-size="10.00">string</text>
</g>
<!-- Node0&#45;&gt;Node4 -->
<g id="edge67" class="edge"><title>Node0&#45;&gt;Node4</title>
<path fill="none" stroke="midnightblue" d="M289.129,-292.428C286.157,-283.414 281.474,-268.791 278,-256 261.183,-194.074 245.033,-119.673 237.868,-85.6398"/>
<polygon fill="midnightblue" stroke="midnightblue" points="241.266,-84.794 235.794,-75.7221 234.415,-86.2267 241.266,-84.794"/>
</g>
<!-- Node7 -->
<g id="node8" class="node"><title>Node7</title>
<g id="a_node8"><a xlink:href="util_8h.html" target="_top" xlink:title="util.h">
<polygon fill="white" stroke="black" points="824,-236.5 824,-255.5 862,-255.5 862,-236.5 824,-236.5"/>
<text text-anchor="middle" x="843" y="-243.5" font-family="Helvetica,sans-Serif" font-size="10.00">util.h</text>
</a>
</g>
</g>
<!-- Node0&#45;&gt;Node7 -->
<g id="edge7" class="edge"><title>Node0&#45;&gt;Node7</title>
<path fill="none" stroke="midnightblue" d="M327.306,-297.54C428.863,-287.587 720.44,-259.011 813.841,-249.858"/>
<polygon fill="midnightblue" stroke="midnightblue" points="814.368,-253.323 823.979,-248.864 813.685,-246.356 814.368,-253.323"/>
</g>
<!-- Node51 -->
<g id="node50" class="node"><title>Node51</title>
<polygon fill="white" stroke="#bfbfbf" points="880.5,-236.5 880.5,-255.5 923.5,-255.5 923.5,-236.5 880.5,-236.5"/>
<text text-anchor="middle" x="902" y="-243.5" font-family="Helvetica,sans-Serif" font-size="10.00">cstdio</text>
</g>
<!-- Node0&#45;&gt;Node51 -->
<g id="edge65" class="edge"><title>Node0&#45;&gt;Node51</title>
<path fill="none" stroke="midnightblue" d="M327.238,-300.765C416.668,-299.639 659.652,-293.264 870.442,-255.681"/>
<polygon fill="midnightblue" stroke="midnightblue" points="871.239,-259.093 880.455,-253.867 869.991,-252.206 871.239,-259.093"/>
</g>
<!-- Node2&#45;&gt;Node3 -->
<g id="edge3" class="edge"><title>Node2&#45;&gt;Node3</title>
<path fill="none" stroke="midnightblue" d="M287.236,-241.618C236.879,-236.236 151.876,-223.811 133,-200 93.2424,-149.847 106.395,-114.208 133,-56 138.777,-43.3602 150.052,-32.911 160.631,-25.2737"/>
<polygon fill="midnightblue" stroke="midnightblue" points="162.849,-28.0009 169.217,-19.5333 158.958,-22.1817 162.849,-28.0009"/>
</g>
<!-- Node2&#45;&gt;Node4 -->
<g id="edge4" class="edge"><title>Node2&#45;&gt;Node4</title>
<path fill="none" stroke="midnightblue" d="M322.76,-236.447C316.815,-214.62 299.279,-155.503 273,-112 266.666,-101.514 257.839,-91.0935 250.185,-82.9249"/>
<polygon fill="midnightblue" stroke="midnightblue" points="252.536,-80.3217 243.057,-75.5879 247.515,-85.1993 252.536,-80.3217"/>
</g>
<!-- Node5 -->
<g id="node6" class="node"><title>Node5</title>
<polygon fill="white" stroke="#bfbfbf" points="325,-169 325,-199 423,-199 423,-169 325,-169"/>
<text text-anchor="start" x="333" y="-187" font-family="Helvetica,sans-Serif" font-size="10.00">boost/signals2/last</text>
<text text-anchor="middle" x="374" y="-176" font-family="Helvetica,sans-Serif" font-size="10.00">_value.hpp</text>
</g>
<!-- Node2&#45;&gt;Node5 -->
<g id="edge5" class="edge"><title>Node2&#45;&gt;Node5</title>
<path fill="none" stroke="midnightblue" d="M332.021,-236.403C338.285,-228.733 347.73,-217.167 356.076,-206.948"/>
<polygon fill="midnightblue" stroke="midnightblue" points="358.837,-209.1 362.452,-199.141 353.415,-204.672 358.837,-209.1"/>
</g>
<!-- Node6 -->
<g id="node7" class="node"><title>Node6</title>
<polygon fill="white" stroke="#bfbfbf" points="441.5,-174.5 441.5,-193.5 568.5,-193.5 568.5,-174.5 441.5,-174.5"/>
<text text-anchor="middle" x="505" y="-181.5" font-family="Helvetica,sans-Serif" font-size="10.00">boost/signals2/signal.hpp</text>
</g>
<!-- Node2&#45;&gt;Node6 -->
<g id="edge6" class="edge"><title>Node2&#45;&gt;Node6</title>
<path fill="none" stroke="midnightblue" d="M350.79,-236.403C381.933,-226.022 434.481,-208.506 469.453,-196.849"/>
<polygon fill="midnightblue" stroke="midnightblue" points="470.878,-200.063 479.258,-193.581 468.665,-193.423 470.878,-200.063"/>
</g>
<!-- Node7&#45;&gt;Node3 -->
<g id="edge59" class="edge"><title>Node7&#45;&gt;Node3</title>
<path fill="none" stroke="midnightblue" d="M823.918,-245.002C735.069,-244.789 361.688,-241.406 254,-200 207.865,-182.261 187.786,-176.367 166,-132 149.434,-98.2631 164.8,-53.4323 175.902,-28.9088"/>
<polygon fill="midnightblue" stroke="midnightblue" points="179.133,-30.2647 180.293,-19.7336 172.819,-27.2428 179.133,-30.2647"/>
</g>
<!-- Node7&#45;&gt;Node4 -->
<g id="edge60" class="edge"><title>Node7&#45;&gt;Node4</title>
<path fill="none" stroke="midnightblue" d="M823.834,-241.555C789.231,-235.094 714.228,-219.988 653,-200 618.16,-188.626 611.525,-180.298 577,-168 443.479,-120.438 404.727,-117.393 264.483,-76.1188"/>
<polygon fill="midnightblue" stroke="midnightblue" points="265.234,-72.6913 254.652,-73.2122 263.249,-79.404 265.234,-72.6913"/>
</g>
<!-- Node7&#45;&gt;Node6 -->
<g id="edge63" class="edge"><title>Node7&#45;&gt;Node6</title>
<path fill="none" stroke="midnightblue" d="M823.734,-241.792C780.583,-234.578 672.903,-216.423 583,-200 575.092,-198.555 566.741,-196.991 558.558,-195.436"/>
<polygon fill="midnightblue" stroke="midnightblue" points="559.181,-191.992 548.702,-193.553 557.867,-198.867 559.181,-191.992"/>
</g>
<!-- Node8 -->
<g id="node9" class="node"><title>Node8</title>
<g id="a_node9"><a xlink:href="compat_8h.html" target="_top" xlink:title="compat.h">
<polygon fill="white" stroke="black" points="1467.5,-174.5 1467.5,-193.5 1524.5,-193.5 1524.5,-174.5 1467.5,-174.5"/>
<text text-anchor="middle" x="1496" y="-181.5" font-family="Helvetica,sans-Serif" font-size="10.00">compat.h</text>
</a>
</g>
</g>
<!-- Node7&#45;&gt;Node8 -->
<g id="edge8" class="edge"><title>Node7&#45;&gt;Node8</title>
<path fill="none" stroke="midnightblue" d="M862.127,-238.213C865.07,-237.355 868.095,-236.577 871,-236 1089.67,-192.536 1358.44,-185.974 1457.22,-185.088"/>
<polygon fill="midnightblue" stroke="midnightblue" points="1457.36,-188.587 1467.34,-185.012 1457.31,-181.588 1457.36,-188.587"/>
</g>
<!-- Node23 -->
<g id="node24" class="node"><title>Node23</title>
<g id="a_node24"><a xlink:href="tinyformat_8h.html" target="_top" xlink:title="tinyformat.h">
<polygon fill="white" stroke="black" points="809,-174.5 809,-193.5 877,-193.5 877,-174.5 809,-174.5"/>
<text text-anchor="middle" x="843" y="-181.5" font-family="Helvetica,sans-Serif" font-size="10.00">tinyformat.h</text>
</a>
</g>
</g>
<!-- Node7&#45;&gt;Node23 -->
<g id="edge23" class="edge"><title>Node7&#45;&gt;Node23</title>
<path fill="none" stroke="midnightblue" d="M843,-236.403C843,-227.938 843,-214.728 843,-203.82"/>
<polygon fill="midnightblue" stroke="midnightblue" points="846.5,-203.581 843,-193.581 839.5,-203.581 846.5,-203.581"/>
</g>
<!-- Node29 -->
<g id="node30" class="node"><title>Node29</title>
<g id="a_node30"><a xlink:href="utiltime_8h.html" target="_top" xlink:title="utiltime.h">
<polygon fill="white" stroke="black" points="175,-112.5 175,-131.5 231,-131.5 231,-112.5 175,-112.5"/>
<text text-anchor="middle" x="203" y="-119.5" font-family="Helvetica,sans-Serif" font-size="10.00">utiltime.h</text>
</a>
</g>
</g>
<!-- Node7&#45;&gt;Node29 -->
<g id="edge29" class="edge"><title>Node7&#45;&gt;Node29</title>
<path fill="none" stroke="midnightblue" d="M823.795,-244.66C740.761,-242.99 412.468,-234.305 316,-200 277.862,-186.438 240.398,-156.783 219.63,-138.489"/>
<polygon fill="midnightblue" stroke="midnightblue" points="221.809,-135.742 212.038,-131.646 217.123,-140.941 221.809,-135.742"/>
</g>
<!-- Node30 -->
<g id="node31" class="node"><title>Node30</title>
<g id="a_node31"><a xlink:href="amount_8h.html" target="_top" xlink:title="amount.h">
<polygon fill="white" stroke="black" points="662.5,-174.5 662.5,-193.5 719.5,-193.5 719.5,-174.5 662.5,-174.5"/>
<text text-anchor="middle" x="691" y="-181.5" font-family="Helvetica,sans-Serif" font-size="10.00">amount.h</text>
</a>
</g>
</g>
<!-- Node7&#45;&gt;Node30 -->
<g id="edge32" class="edge"><title>Node7&#45;&gt;Node30</title>
<path fill="none" stroke="midnightblue" d="M823.749,-237.401C798.087,-227.271 752.371,-209.225 721.866,-197.184"/>
<polygon fill="midnightblue" stroke="midnightblue" points="723.128,-193.919 712.541,-193.503 720.557,-200.43 723.128,-193.919"/>
</g>
<!-- Node38 -->
<g id="node38" class="node"><title>Node38</title>
<polygon fill="white" stroke="#bfbfbf" points="1021.5,-56.5 1021.5,-75.5 1056.5,-75.5 1056.5,-56.5 1021.5,-56.5"/>
<text text-anchor="middle" x="1039" y="-63.5" font-family="Helvetica,sans-Serif" font-size="10.00">map</text>
</g>
<!-- Node7&#45;&gt;Node38 -->
<g id="edge58" class="edge"><title>Node7&#45;&gt;Node38</title>
<path fill="none" stroke="midnightblue" d="M862.14,-238.993C900.013,-226.055 984.437,-191.784 1026,-132 1035.34,-118.565 1038.32,-100.002 1039.11,-86.1521"/>
<polygon fill="midnightblue" stroke="midnightblue" points="1042.62,-85.9253 1039.37,-75.8428 1035.62,-85.7545 1042.62,-85.9253"/>
</g>
<!-- Node43 -->
<g id="node43" class="node"><title>Node43</title>
<polygon fill="white" stroke="#bfbfbf" points="1075,-56.5 1075,-75.5 1119,-75.5 1119,-56.5 1075,-56.5"/>
<text text-anchor="middle" x="1097" y="-63.5" font-family="Helvetica,sans-Serif" font-size="10.00">vector</text>
</g>
<!-- Node7&#45;&gt;Node43 -->
<g id="edge61" class="edge"><title>Node7&#45;&gt;Node43</title>
<path fill="none" stroke="midnightblue" d="M862.276,-238.79C865.198,-237.853 868.178,-236.899 871,-236 921.626,-219.87 940.465,-228.978 985,-200 1032.08,-169.368 1069.89,-113.006 1087.03,-84.4969"/>
<polygon fill="midnightblue" stroke="midnightblue" points="1090.17,-86.0585 1092.21,-75.6623 1084.14,-82.5159 1090.17,-86.0585"/>
</g>
<!-- Node47 -->
<g id="node46" class="node"><title>Node47</title>
<polygon fill="white" stroke="#bfbfbf" points="1543,-174.5 1543,-193.5 1589,-193.5 1589,-174.5 1543,-174.5"/>
<text text-anchor="middle" x="1566" y="-181.5" font-family="Helvetica,sans-Serif" font-size="10.00">atomic</text>
</g>
<!-- Node7&#45;&gt;Node47 -->
<g id="edge56" class="edge"><title>Node7&#45;&gt;Node47</title>
<path fill="none" stroke="midnightblue" d="M862.113,-238.142C865.058,-237.294 868.088,-236.538 871,-236 1160.75,-182.476 1246.82,-270.177 1533,-200 1535.66,-199.348 1538.37,-198.484 1541.03,-197.5"/>
<polygon fill="midnightblue" stroke="midnightblue" points="1542.47,-200.69 1550.32,-193.568 1539.74,-194.244 1542.47,-200.69"/>
</g>
<!-- Node48 -->
<g id="node47" class="node"><title>Node48</title>
<polygon fill="white" stroke="#bfbfbf" points="1607.5,-174.5 1607.5,-193.5 1666.5,-193.5 1666.5,-174.5 1607.5,-174.5"/>
<text text-anchor="middle" x="1637" y="-181.5" font-family="Helvetica,sans-Serif" font-size="10.00">exception</text>
</g>
<!-- Node7&#45;&gt;Node48 -->
<g id="edge57" class="edge"><title>Node7&#45;&gt;Node48</title>
<path fill="none" stroke="midnightblue" d="M862.111,-238.129C865.056,-237.283 868.086,-236.531 871,-236 1189.27,-178.007 1281.49,-266.908 1598,-200 1601.51,-199.257 1605.13,-198.241 1608.67,-197.085"/>
<polygon fill="midnightblue" stroke="midnightblue" points="1610.13,-200.278 1618.32,-193.566 1607.73,-193.701 1610.13,-200.278"/>
</g>
<!-- Node49 -->
<g id="node48" class="node"><title>Node49</title>
<polygon fill="white" stroke="#bfbfbf" points="1684.5,-174.5 1684.5,-193.5 1813.5,-193.5 1813.5,-174.5 1684.5,-174.5"/>
<text text-anchor="middle" x="1749" y="-181.5" font-family="Helvetica,sans-Serif" font-size="10.00">boost/filesystem/path.hpp</text>
</g>
<!-- Node7&#45;&gt;Node49 -->
<g id="edge62" class="edge"><title>Node7&#45;&gt;Node49</title>
<path fill="none" stroke="midnightblue" d="M862.109,-238.117C865.054,-237.273 868.085,-236.524 871,-236 1223.05,-172.712 1319.98,-243.661 1675,-200 1683.98,-198.896 1693.5,-197.296 1702.61,-195.549"/>
<polygon fill="midnightblue" stroke="midnightblue" points="1703.56,-198.929 1712.67,-193.532 1702.18,-192.065 1703.56,-198.929"/>
</g>
<!-- Node50 -->
<g id="node49" class="node"><title>Node50</title>
<polygon fill="white" stroke="#bfbfbf" points="1832,-174.5 1832,-193.5 1972,-193.5 1972,-174.5 1832,-174.5"/>
<text text-anchor="middle" x="1902" y="-181.5" font-family="Helvetica,sans-Serif" font-size="10.00">boost/thread/exceptions.hpp</text>
</g>
<!-- Node7&#45;&gt;Node50 -->
<g id="edge64" class="edge"><title>Node7&#45;&gt;Node50</title>
<path fill="none" stroke="midnightblue" d="M862.105,-238.099C865.051,-237.257 868.083,-236.514 871,-236 1287.55,-162.6 1401.66,-247.102 1822,-200 1832.01,-198.879 1842.64,-197.22 1852.77,-195.409"/>
<polygon fill="midnightblue" stroke="midnightblue" points="1853.51,-198.832 1862.7,-193.562 1852.23,-191.95 1853.51,-198.832"/>
</g>
<!-- Node9 -->
<g id="node10" class="node"><title>Node9</title>
<polygon fill="white" stroke="#bfbfbf" points="1112,-112.5 1112,-131.5 1174,-131.5 1174,-112.5 1112,-112.5"/>
<text text-anchor="middle" x="1143" y="-119.5" font-family="Helvetica,sans-Serif" font-size="10.00">sys/fcntl.h</text>
</g>
<!-- Node8&#45;&gt;Node9 -->
<g id="edge9" class="edge"><title>Node8&#45;&gt;Node9</title>
<path fill="none" stroke="midnightblue" d="M1467.42,-178.927C1413.86,-171.171 1294.58,-153.304 1184.36,-132.174"/>
<polygon fill="midnightblue" stroke="midnightblue" points="1184.89,-128.712 1174.41,-130.253 1183.56,-135.585 1184.89,-128.712"/>
</g>
<!-- Node10 -->
<g id="node11" class="node"><title>Node10</title>
<polygon fill="white" stroke="#bfbfbf" points="1192.5,-112.5 1192.5,-131.5 1263.5,-131.5 1263.5,-112.5 1192.5,-112.5"/>
<text text-anchor="middle" x="1228" y="-119.5" font-family="Helvetica,sans-Serif" font-size="10.00">sys/mman.h</text>
</g>
<!-- Node8&#45;&gt;Node10 -->
<g id="edge10" class="edge"><title>Node8&#45;&gt;Node10</title>
<path fill="none" stroke="midnightblue" d="M1467.32,-176.579C1420.92,-166.191 1329.01,-145.614 1273.57,-133.203"/>
<polygon fill="midnightblue" stroke="midnightblue" points="1274.19,-129.754 1263.67,-130.985 1272.66,-136.585 1274.19,-129.754"/>
</g>
<!-- Node11 -->
<g id="node12" class="node"><title>Node11</title>
<polygon fill="white" stroke="#bfbfbf" points="1282,-112.5 1282,-131.5 1352,-131.5 1352,-112.5 1282,-112.5"/>
<text text-anchor="middle" x="1317" y="-119.5" font-family="Helvetica,sans-Serif" font-size="10.00">sys/select.h</text>
</g>
<!-- Node8&#45;&gt;Node11 -->
<g id="edge11" class="edge"><title>Node8&#45;&gt;Node11</title>
<path fill="none" stroke="midnightblue" d="M1470.35,-174.403C1439.38,-164.022 1387.13,-146.506 1352.35,-134.849"/>
<polygon fill="midnightblue" stroke="midnightblue" points="1353.19,-131.44 1342.6,-131.581 1350.97,-138.077 1353.19,-131.44"/>
</g>
<!-- Node12 -->
<g id="node13" class="node"><title>Node12</title>
<polygon fill="white" stroke="#bfbfbf" points="1370.5,-112.5 1370.5,-131.5 1443.5,-131.5 1443.5,-112.5 1370.5,-112.5"/>
<text text-anchor="middle" x="1407" y="-119.5" font-family="Helvetica,sans-Serif" font-size="10.00">sys/socket.h</text>
</g>
<!-- Node8&#45;&gt;Node12 -->
<g id="edge12" class="edge"><title>Node8&#45;&gt;Node12</title>
<path fill="none" stroke="midnightblue" d="M1483.25,-174.403C1468.97,-164.78 1445.6,-149.024 1428.49,-137.489"/>
<polygon fill="midnightblue" stroke="midnightblue" points="1429.98,-134.268 1419.73,-131.581 1426.06,-140.073 1429.98,-134.268"/>
</g>
<!-- Node13 -->
<g id="node14" class="node"><title>Node13</title>
<polygon fill="white" stroke="#bfbfbf" points="1462,-112.5 1462,-131.5 1530,-131.5 1530,-112.5 1462,-112.5"/>
<text text-anchor="middle" x="1496" y="-119.5" font-family="Helvetica,sans-Serif" font-size="10.00">sys/types.h</text>
</g>
<!-- Node8&#45;&gt;Node13 -->
<g id="edge13" class="edge"><title>Node8&#45;&gt;Node13</title>
<path fill="none" stroke="midnightblue" d="M1496,-174.403C1496,-165.938 1496,-152.728 1496,-141.82"/>
<polygon fill="midnightblue" stroke="midnightblue" points="1499.5,-141.581 1496,-131.581 1492.5,-141.581 1499.5,-141.581"/>
</g>
<!-- Node14 -->
<g id="node15" class="node"><title>Node14</title>
<polygon fill="white" stroke="#bfbfbf" points="1548.5,-112.5 1548.5,-131.5 1595.5,-131.5 1595.5,-112.5 1548.5,-112.5"/>
<text text-anchor="middle" x="1572" y="-119.5" font-family="Helvetica,sans-Serif" font-size="10.00">net/if.h</text>
</g>
<!-- Node8&#45;&gt;Node14 -->
<g id="edge14" class="edge"><title>Node8&#45;&gt;Node14</title>
<path fill="none" stroke="midnightblue" d="M1506.89,-174.403C1518.97,-164.869 1538.67,-149.315 1553.24,-137.811"/>
<polygon fill="midnightblue" stroke="midnightblue" points="1555.45,-140.524 1561.13,-131.581 1551.11,-135.03 1555.45,-140.524"/>
</g>
<!-- Node15 -->
<g id="node16" class="node"><title>Node15</title>
<polygon fill="white" stroke="#bfbfbf" points="1613.5,-112.5 1613.5,-131.5 1678.5,-131.5 1678.5,-112.5 1613.5,-112.5"/>
<text text-anchor="middle" x="1646" y="-119.5" font-family="Helvetica,sans-Serif" font-size="10.00">netinet/in.h</text>
</g>
<!-- Node8&#45;&gt;Node15 -->
<g id="edge15" class="edge"><title>Node8&#45;&gt;Node15</title>
<path fill="none" stroke="midnightblue" d="M1517.49,-174.403C1543.11,-164.156 1586.11,-146.956 1615.24,-135.302"/>
<polygon fill="midnightblue" stroke="midnightblue" points="1616.56,-138.544 1624.55,-131.581 1613.96,-132.045 1616.56,-138.544"/>
</g>
<!-- Node16 -->
<g id="node17" class="node"><title>Node16</title>
<polygon fill="white" stroke="#bfbfbf" points="1696.5,-112.5 1696.5,-131.5 1767.5,-131.5 1767.5,-112.5 1696.5,-112.5"/>
<text text-anchor="middle" x="1732" y="-119.5" font-family="Helvetica,sans-Serif" font-size="10.00">netinet/tcp.h</text>
</g>
<!-- Node8&#45;&gt;Node16 -->
<g id="edge16" class="edge"><title>Node8&#45;&gt;Node16</title>
<path fill="none" stroke="midnightblue" d="M1515.91,-174.48C1521.68,-172.191 1528.04,-169.843 1534,-168 1561.98,-159.352 1637.07,-142.969 1686.32,-132.538"/>
<polygon fill="midnightblue" stroke="midnightblue" points="1687.34,-135.898 1696.41,-130.407 1685.9,-129.049 1687.34,-135.898"/>
</g>
<!-- Node17 -->
<g id="node18" class="node"><title>Node17</title>
<polygon fill="white" stroke="#bfbfbf" points="1786,-112.5 1786,-131.5 1848,-131.5 1848,-112.5 1786,-112.5"/>
<text text-anchor="middle" x="1817" y="-119.5" font-family="Helvetica,sans-Serif" font-size="10.00">arpa/inet.h</text>
</g>
<!-- Node8&#45;&gt;Node17 -->
<g id="edge17" class="edge"><title>Node8&#45;&gt;Node17</title>
<path fill="none" stroke="midnightblue" d="M1515.04,-174.499C1521.02,-172.101 1527.7,-169.689 1534,-168 1635.96,-140.679 1667.23,-151.011 1775.67,-131.912"/>
<polygon fill="midnightblue" stroke="midnightblue" points="1776.49,-135.322 1785.71,-130.101 1775.24,-128.433 1776.49,-135.322"/>
</g>
<!-- Node18 -->
<g id="node19" class="node"><title>Node18</title>
<polygon fill="white" stroke="#bfbfbf" points="1866,-112.5 1866,-131.5 1920,-131.5 1920,-112.5 1866,-112.5"/>
<text text-anchor="middle" x="1893" y="-119.5" font-family="Helvetica,sans-Serif" font-size="10.00">ifaddrs.h</text>
</g>
<!-- Node8&#45;&gt;Node18 -->
<g id="edge18" class="edge"><title>Node8&#45;&gt;Node18</title>
<path fill="none" stroke="midnightblue" d="M1515.01,-174.357C1520.98,-171.954 1527.67,-169.574 1534,-168 1670.61,-134.04 1712.33,-156.028 1855.57,-131.819"/>
<polygon fill="midnightblue" stroke="midnightblue" points="1856.35,-135.235 1865.6,-130.075 1855.15,-128.338 1856.35,-135.235"/>
</g>
<!-- Node19 -->
<g id="node20" class="node"><title>Node19</title>
<polygon fill="white" stroke="#bfbfbf" points="1938,-112.5 1938,-131.5 1986,-131.5 1986,-112.5 1938,-112.5"/>
<text text-anchor="middle" x="1962" y="-119.5" font-family="Helvetica,sans-Serif" font-size="10.00">limits.h</text>
</g>
<!-- Node8&#45;&gt;Node19 -->
<g id="edge19" class="edge"><title>Node8&#45;&gt;Node19</title>
<path fill="none" stroke="midnightblue" d="M1514.6,-174.435C1520.67,-171.974 1527.51,-169.542 1534,-168 1702.32,-127.98 1753.62,-161.999 1927.94,-131.859"/>
<polygon fill="midnightblue" stroke="midnightblue" points="1928.73,-135.274 1937.96,-130.08 1927.5,-128.382 1928.73,-135.274"/>
</g>
<!-- Node20 -->
<g id="node21" class="node"><title>Node20</title>
<polygon fill="white" stroke="#bfbfbf" points="2004.5,-112.5 2004.5,-131.5 2053.5,-131.5 2053.5,-112.5 2004.5,-112.5"/>
<text text-anchor="middle" x="2029" y="-119.5" font-family="Helvetica,sans-Serif" font-size="10.00">netdb.h</text>
</g>
<!-- Node8&#45;&gt;Node20 -->
<g id="edge20" class="edge"><title>Node8&#45;&gt;Node20</title>
<path fill="none" stroke="midnightblue" d="M1514.59,-174.384C1520.65,-171.921 1527.5,-169.5 1534,-168 1731.02,-122.504 1790.48,-165.019 1994.11,-131.804"/>
<polygon fill="midnightblue" stroke="midnightblue" points="1994.95,-135.213 2004.23,-130.11 1993.79,-128.309 1994.95,-135.213"/>
</g>
<!-- Node21 -->
<g id="node22" class="node"><title>Node21</title>
<polygon fill="white" stroke="#bfbfbf" points="2071.5,-112.5 2071.5,-131.5 2122.5,-131.5 2122.5,-112.5 2071.5,-112.5"/>
<text text-anchor="middle" x="2097" y="-119.5" font-family="Helvetica,sans-Serif" font-size="10.00">unistd.h</text>
</g>
<!-- Node8&#45;&gt;Node21 -->
<g id="edge21" class="edge"><title>Node8&#45;&gt;Node21</title>
<path fill="none" stroke="midnightblue" d="M1514.58,-174.346C1520.65,-171.88 1527.5,-169.468 1534,-168 1760.19,-116.94 1827.88,-167.96 2060.97,-131.831"/>
<polygon fill="midnightblue" stroke="midnightblue" points="2061.79,-135.245 2071.12,-130.22 2060.69,-128.332 2061.79,-135.245"/>
</g>
<!-- Node22 -->
<g id="node23" class="node"><title>Node22</title>
<polygon fill="white" stroke="#bfbfbf" points="2140.5,-112.5 2140.5,-131.5 2187.5,-131.5 2187.5,-112.5 2140.5,-112.5"/>
<text text-anchor="middle" x="2164" y="-119.5" font-family="Helvetica,sans-Serif" font-size="10.00">errno.h</text>
</g>
<!-- Node8&#45;&gt;Node22 -->
<g id="edge22" class="edge"><title>Node8&#45;&gt;Node22</title>
<path fill="none" stroke="midnightblue" d="M1514.19,-174.473C1520.35,-171.951 1527.35,-169.473 1534,-168 1790.22,-111.216 1866.78,-173.576 2130.09,-131.747"/>
<polygon fill="midnightblue" stroke="midnightblue" points="2131.03,-135.14 2140.34,-130.081 2129.9,-128.23 2131.03,-135.14"/>
</g>
<!-- Node24 -->
<g id="node25" class="node"><title>Node24</title>
<polygon fill="white" stroke="#bfbfbf" points="273,-56.5 273,-75.5 329,-75.5 329,-56.5 273,-56.5"/>
<text text-anchor="middle" x="301" y="-63.5" font-family="Helvetica,sans-Serif" font-size="10.00">algorithm</text>
</g>
<!-- Node23&#45;&gt;Node24 -->
<g id="edge24" class="edge"><title>Node23&#45;&gt;Node24</title>
<path fill="none" stroke="midnightblue" d="M808.942,-177.375C764.86,-169.597 685.993,-153.988 621,-132 600.652,-125.116 597.605,-118.072 577,-112 475.035,-81.9543 442.186,-97.8488 339.085,-77.1916"/>
<polygon fill="midnightblue" stroke="midnightblue" points="339.722,-73.7493 329.219,-75.1476 338.301,-80.6037 339.722,-73.7493"/>
</g>
<!-- Node25 -->
<g id="node26" class="node"><title>Node25</title>
<polygon fill="white" stroke="#bfbfbf" points="748.5,-112.5 748.5,-131.5 797.5,-131.5 797.5,-112.5 748.5,-112.5"/>
<text text-anchor="middle" x="773" y="-119.5" font-family="Helvetica,sans-Serif" font-size="10.00">cassert</text>
</g>
<!-- Node23&#45;&gt;Node25 -->
<g id="edge25" class="edge"><title>Node23&#45;&gt;Node25</title>
<path fill="none" stroke="midnightblue" d="M832.971,-174.403C821.951,-164.958 804.04,-149.606 790.657,-138.134"/>
<polygon fill="midnightblue" stroke="midnightblue" points="792.881,-135.431 783.011,-131.581 788.325,-140.746 792.881,-135.431"/>
</g>
<!-- Node26 -->
<g id="node27" class="node"><title>Node26</title>
<polygon fill="white" stroke="#bfbfbf" points="816,-112.5 816,-131.5 870,-131.5 870,-112.5 816,-112.5"/>
<text text-anchor="middle" x="843" y="-119.5" font-family="Helvetica,sans-Serif" font-size="10.00">iostream</text>
</g>
<!-- Node23&#45;&gt;Node26 -->
<g id="edge26" class="edge"><title>Node23&#45;&gt;Node26</title>
<path fill="none" stroke="midnightblue" d="M843,-174.403C843,-165.938 843,-152.728 843,-141.82"/>
<polygon fill="midnightblue" stroke="midnightblue" points="846.5,-141.581 843,-131.581 839.5,-141.581 846.5,-141.581"/>
</g>
<!-- Node27 -->
<g id="node28" class="node"><title>Node27</title>
<polygon fill="white" stroke="#bfbfbf" points="888,-112.5 888,-131.5 940,-131.5 940,-112.5 888,-112.5"/>
<text text-anchor="middle" x="914" y="-119.5" font-family="Helvetica,sans-Serif" font-size="10.00">sstream</text>
</g>
<!-- Node23&#45;&gt;Node27 -->
<g id="edge27" class="edge"><title>Node23&#45;&gt;Node27</title>
<path fill="none" stroke="midnightblue" d="M853.173,-174.403C864.35,-164.958 882.517,-149.606 896.091,-138.134"/>
<polygon fill="midnightblue" stroke="midnightblue" points="898.467,-140.709 903.846,-131.581 893.949,-135.362 898.467,-140.709"/>
</g>
<!-- Node28 -->
<g id="node29" class="node"><title>Node28</title>
<polygon fill="white" stroke="#bfbfbf" points="958.5,-112.5 958.5,-131.5 1017.5,-131.5 1017.5,-112.5 958.5,-112.5"/>
<text text-anchor="middle" x="988" y="-119.5" font-family="Helvetica,sans-Serif" font-size="10.00">stdexcept</text>
</g>
<!-- Node23&#45;&gt;Node28 -->
<g id="edge28" class="edge"><title>Node23&#45;&gt;Node28</title>
<path fill="none" stroke="midnightblue" d="M863.775,-174.403C888.432,-164.2 929.745,-147.105 957.902,-135.454"/>
<polygon fill="midnightblue" stroke="midnightblue" points="959.362,-138.638 967.264,-131.581 956.685,-132.17 959.362,-138.638"/>
</g>
<!-- Node29&#45;&gt;Node3 -->
<g id="edge30" class="edge"><title>Node29&#45;&gt;Node3</title>
<path fill="none" stroke="midnightblue" d="M201.588,-112.368C198.683,-94.617 191.982,-53.6664 188.043,-29.5974"/>
<polygon fill="midnightblue" stroke="midnightblue" points="191.475,-28.8949 186.406,-19.5914 184.567,-30.0254 191.475,-28.8949"/>
</g>
<!-- Node29&#45;&gt;Node4 -->
<g id="edge31" class="edge"><title>Node29&#45;&gt;Node4</title>
<path fill="none" stroke="midnightblue" d="M208.119,-112.083C212.408,-104.613 218.658,-93.7244 223.942,-84.5199"/>
<polygon fill="midnightblue" stroke="midnightblue" points="227.033,-86.1662 228.976,-75.7511 220.962,-82.6811 227.033,-86.1662"/>
</g>
<!-- Node30&#45;&gt;Node4 -->
<g id="edge55" class="edge"><title>Node30&#45;&gt;Node4</title>
<path fill="none" stroke="midnightblue" d="M673.657,-174.474C636.984,-156.501 553.797,-116.036 540,-112 424.401,-78.181 386.945,-100.602 264.667,-75.7643"/>
<polygon fill="midnightblue" stroke="midnightblue" points="265.049,-72.2682 254.543,-73.6403 263.611,-79.1191 265.049,-72.2682"/>
</g>
<!-- Node31 -->
<g id="node32" class="node"><title>Node31</title>
<g id="a_node32"><a xlink:href="serialize_8h.html" target="_top" xlink:title="serialize.h">
<polygon fill="white" stroke="black" points="630.5,-112.5 630.5,-131.5 691.5,-131.5 691.5,-112.5 630.5,-112.5"/>
<text text-anchor="middle" x="661" y="-119.5" font-family="Helvetica,sans-Serif" font-size="10.00">serialize.h</text>
</a>
</g>
</g>
<!-- Node30&#45;&gt;Node31 -->
<g id="edge33" class="edge"><title>Node30&#45;&gt;Node31</title>
<path fill="none" stroke="midnightblue" d="M686.702,-174.403C682.335,-165.671 675.445,-151.889 669.897,-140.794"/>
<polygon fill="midnightblue" stroke="midnightblue" points="672.893,-138.96 665.29,-131.581 666.632,-142.09 672.893,-138.96"/>
</g>
<!-- Node45 -->
<g id="node45" class="node"><title>Node45</title>
<polygon fill="white" stroke="#bfbfbf" points="818,-0.5 818,-19.5 866,-19.5 866,-0.5 818,-0.5"/>
<text text-anchor="middle" x="842" y="-7.5" font-family="Helvetica,sans-Serif" font-size="10.00">stdlib.h</text>
</g>
<!-- Node30&#45;&gt;Node45 -->
<g id="edge54" class="edge"><title>Node30&#45;&gt;Node45</title>
<path fill="none" stroke="midnightblue" d="M694.163,-174.29C700.242,-158.904 715.111,-127.116 739,-112 828.289,-55.5009 905.174,-156.172 974,-76 1004.31,-40.6984 924.672,-22.7266 876.195,-15.2946"/>
<polygon fill="midnightblue" stroke="midnightblue" points="876.482,-11.7997 866.083,-13.8262 875.476,-18.727 876.482,-11.7997"/>
</g>
<!-- Node31&#45;&gt;Node3 -->
<g id="edge44" class="edge"><title>Node31&#45;&gt;Node3</title>
<path fill="none" stroke="midnightblue" d="M630.052,-114.605C625.351,-113.693 620.552,-112.796 616,-112 509.753,-93.418 478.673,-109.044 376,-76 357.457,-70.0321 355.084,-63.2406 337,-56 297.748,-40.2839 250.865,-27.2243 219.647,-19.2928"/>
<polygon fill="midnightblue" stroke="midnightblue" points="220.245,-15.8345 209.694,-16.8032 218.546,-22.6253 220.245,-15.8345"/>
</g>
<!-- Node31&#45;&gt;Node4 -->
<g id="edge45" class="edge"><title>Node31&#45;&gt;Node4</title>
<path fill="none" stroke="midnightblue" d="M630.493,-117.693C547.456,-108.672 320.37,-83.8743 264.646,-75.4254"/>
<polygon fill="midnightblue" stroke="midnightblue" points="264.982,-71.9319 254.533,-73.687 263.796,-78.8307 264.982,-71.9319"/>
</g>
<!-- Node31&#45;&gt;Node24 -->
<g id="edge36" class="edge"><title>Node31&#45;&gt;Node24</title>
<path fill="none" stroke="midnightblue" d="M630.064,-114.533C625.362,-113.631 620.559,-112.756 616,-112 495.263,-91.9883 463.597,-96.8381 343,-76 341.76,-75.7857 340.501,-75.5606 339.231,-75.327"/>
<polygon fill="midnightblue" stroke="midnightblue" points="339.892,-71.8901 329.407,-73.4089 338.551,-78.7604 339.892,-71.8901"/>
</g>
<!-- Node32 -->
<g id="node33" class="node"><title>Node32</title>
<g id="a_node33"><a xlink:href="endian_8h.html" target="_top" xlink:title="compat/endian.h">
<polygon fill="white" stroke="red" points="385.5,-56.5 385.5,-75.5 474.5,-75.5 474.5,-56.5 385.5,-56.5"/>
<text text-anchor="middle" x="430" y="-63.5" font-family="Helvetica,sans-Serif" font-size="10.00">compat/endian.h</text>
</a>
</g>
</g>
<!-- Node31&#45;&gt;Node32 -->
<g id="edge34" class="edge"><title>Node31&#45;&gt;Node32</title>
<path fill="none" stroke="midnightblue" d="M630.325,-113.829C590.961,-104.627 522.301,-88.5768 476.498,-77.8696"/>
<polygon fill="midnightblue" stroke="midnightblue" points="477.054,-74.4054 466.52,-75.5371 475.461,-81.2216 477.054,-74.4054"/>
</g>
<!-- Node34 -->
<g id="node34" class="node"><title>Node34</title>
<polygon fill="white" stroke="#bfbfbf" points="490,-0.5 490,-19.5 542,-19.5 542,-0.5 490,-0.5"/>
<text text-anchor="middle" x="516" y="-7.5" font-family="Helvetica,sans-Serif" font-size="10.00">assert.h</text>
</g>
<!-- Node31&#45;&gt;Node34 -->
<g id="edge37" class="edge"><title>Node31&#45;&gt;Node34</title>
<path fill="none" stroke="midnightblue" d="M630.473,-113.027C591.699,-102.614 528.953,-84.6893 522,-76 511.72,-63.1532 511.17,-43.9713 512.621,-29.7721"/>
<polygon fill="midnightblue" stroke="midnightblue" points="516.115,-30.0638 514.065,-19.6691 509.185,-29.0731 516.115,-30.0638"/>
</g>
<!-- Node35 -->
<g id="node35" class="node"><title>Node35</title>
<polygon fill="white" stroke="#bfbfbf" points="653.5,-56.5 653.5,-75.5 682.5,-75.5 682.5,-56.5 653.5,-56.5"/>
<text text-anchor="middle" x="668" y="-63.5" font-family="Helvetica,sans-Serif" font-size="10.00">ios</text>
</g>
<!-- Node31&#45;&gt;Node35 -->
<g id="edge38" class="edge"><title>Node31&#45;&gt;Node35</title>
<path fill="none" stroke="midnightblue" d="M662.156,-112.083C663.084,-104.927 664.418,-94.6353 665.577,-85.6911"/>
<polygon fill="midnightblue" stroke="midnightblue" points="669.051,-86.1181 666.866,-75.7511 662.109,-85.2181 669.051,-86.1181"/>
</g>
<!-- Node36 -->
<g id="node36" class="node"><title>Node36</title>
<polygon fill="white" stroke="#bfbfbf" points="701,-56.5 701,-75.5 741,-75.5 741,-56.5 701,-56.5"/>
<text text-anchor="middle" x="721" y="-63.5" font-family="Helvetica,sans-Serif" font-size="10.00">limits</text>
</g>
<!-- Node31&#45;&gt;Node36 -->
<g id="edge39" class="edge"><title>Node31&#45;&gt;Node36</title>
<path fill="none" stroke="midnightblue" d="M670.64,-112.324C679.51,-104.341 692.875,-92.3128 703.608,-82.6529"/>
<polygon fill="midnightblue" stroke="midnightblue" points="706.093,-85.1251 711.185,-75.8339 701.41,-79.922 706.093,-85.1251"/>
</g>
<!-- Node37 -->
<g id="node37" class="node"><title>Node37</title>
<polygon fill="white" stroke="#bfbfbf" points="759.5,-56.5 759.5,-75.5 788.5,-75.5 788.5,-56.5 759.5,-56.5"/>
<text text-anchor="middle" x="774" y="-63.5" font-family="Helvetica,sans-Serif" font-size="10.00">list</text>
</g>
<!-- Node31&#45;&gt;Node37 -->
<g id="edge40" class="edge"><title>Node31&#45;&gt;Node37</title>
<path fill="none" stroke="midnightblue" d="M678.905,-112.444C698.225,-103.211 729.079,-88.4667 750.376,-78.2895"/>
<polygon fill="midnightblue" stroke="midnightblue" points="751.899,-81.4407 759.413,-73.971 748.881,-75.1248 751.899,-81.4407"/>
</g>
<!-- Node31&#45;&gt;Node38 -->
<g id="edge41" class="edge"><title>Node31&#45;&gt;Node38</title>
<path fill="none" stroke="midnightblue" d="M691.613,-116.627C763.519,-106.354 942.312,-80.8126 1011.27,-70.9621"/>
<polygon fill="midnightblue" stroke="midnightblue" points="1011.95,-74.3998 1021.36,-69.5207 1010.96,-67.4701 1011.95,-74.3998"/>
</g>
<!-- Node39 -->
<g id="node39" class="node"><title>Node39</title>
<polygon fill="white" stroke="#bfbfbf" points="807,-56.5 807,-75.5 859,-75.5 859,-56.5 807,-56.5"/>
<text text-anchor="middle" x="833" y="-63.5" font-family="Helvetica,sans-Serif" font-size="10.00">memory</text>
</g>
<!-- Node31&#45;&gt;Node39 -->
<g id="edge42" class="edge"><title>Node31&#45;&gt;Node39</title>
<path fill="none" stroke="midnightblue" d="M688.254,-112.444C717.785,-103.172 765.017,-88.3435 797.446,-78.1622"/>
<polygon fill="midnightblue" stroke="midnightblue" points="798.507,-81.4977 807,-75.1629 796.41,-74.8191 798.507,-81.4977"/>
</g>
<!-- Node40 -->
<g id="node40" class="node"><title>Node40</title>
<polygon fill="white" stroke="#bfbfbf" points="877,-56.5 877,-75.5 907,-75.5 907,-56.5 877,-56.5"/>
<text text-anchor="middle" x="892" y="-63.5" font-family="Helvetica,sans-Serif" font-size="10.00">set</text>
</g>
<!-- Node31&#45;&gt;Node40 -->
<g id="edge43" class="edge"><title>Node31&#45;&gt;Node40</title>
<path fill="none" stroke="midnightblue" d="M691.84,-114.553C740.111,-104.428 831.057,-85.2032 867.194,-75.7508"/>
<polygon fill="midnightblue" stroke="midnightblue" points="868.185,-79.1079 876.877,-73.0492 866.304,-72.3654 868.185,-79.1079"/>
</g>
<!-- Node41 -->
<g id="node41" class="node"><title>Node41</title>
<polygon fill="white" stroke="#bfbfbf" points="586.5,-0.5 586.5,-19.5 635.5,-19.5 635.5,-0.5 586.5,-0.5"/>
<text text-anchor="middle" x="611" y="-7.5" font-family="Helvetica,sans-Serif" font-size="10.00">string.h</text>
</g>
<!-- Node31&#45;&gt;Node41 -->
<g id="edge46" class="edge"><title>Node31&#45;&gt;Node41</title>
<path fill="none" stroke="midnightblue" d="M657.077,-112.368C648.935,-94.4563 630.056,-52.9233 619.158,-28.9482"/>
<polygon fill="midnightblue" stroke="midnightblue" points="622.23,-27.2468 614.905,-19.5914 615.857,-30.1434 622.23,-27.2468"/>
</g>
<!-- Node42 -->
<g id="node42" class="node"><title>Node42</title>
<polygon fill="white" stroke="#bfbfbf" points="925,-56.5 925,-75.5 965,-75.5 965,-56.5 925,-56.5"/>
<text text-anchor="middle" x="945" y="-63.5" font-family="Helvetica,sans-Serif" font-size="10.00">utility</text>
</g>
<!-- Node31&#45;&gt;Node42 -->
<g id="edge47" class="edge"><title>Node31&#45;&gt;Node42</title>
<path fill="none" stroke="midnightblue" d="M691.964,-114.694C696.663,-113.77 701.457,-112.845 706,-112 798.666,-94.7558 823.247,-97.5817 915,-76 915.099,-75.9767 915.199,-75.9532 915.298,-75.9295"/>
<polygon fill="midnightblue" stroke="midnightblue" points="915.98,-79.3696 924.756,-73.4349 914.194,-72.6011 915.98,-79.3696"/>
</g>
<!-- Node31&#45;&gt;Node43 -->
<g id="edge48" class="edge"><title>Node31&#45;&gt;Node43</title>
<path fill="none" stroke="midnightblue" d="M691.744,-117.417C706.1,-115.754 723.423,-113.759 739,-112 880.596,-96.0129 920.147,-103.472 1064.61,-75.7351"/>
<polygon fill="midnightblue" stroke="midnightblue" points="1065.58,-79.1106 1074.73,-73.7668 1064.25,-72.2392 1065.58,-79.1106"/>
</g>
<!-- Node44 -->
<g id="node44" class="node"><title>Node44</title>
<g id="a_node44"><a xlink:href="prevector_8h.html" target="_top" xlink:title="prevector.h">
<polygon fill="white" stroke="red" points="531.5,-56.5 531.5,-75.5 596.5,-75.5 596.5,-56.5 531.5,-56.5"/>
<text text-anchor="middle" x="564" y="-63.5" font-family="Helvetica,sans-Serif" font-size="10.00">prevector.h</text>
</a>
</g>
</g>
<!-- Node31&#45;&gt;Node44 -->
<g id="edge49" class="edge"><title>Node31&#45;&gt;Node44</title>
<path fill="none" stroke="midnightblue" d="M645.415,-112.324C630.001,-103.743 606.188,-90.486 588.29,-80.5224"/>
<polygon fill="midnightblue" stroke="midnightblue" points="589.986,-77.4606 579.546,-75.6545 586.581,-83.5767 589.986,-77.4606"/>
</g>
<!-- Node32&#45;&gt;Node3 -->
<g id="edge35" class="edge"><title>Node32&#45;&gt;Node3</title>
<path fill="none" stroke="midnightblue" d="M391.179,-56.4435C343.987,-46.042 265.057,-28.6452 219.773,-18.6642"/>
<polygon fill="midnightblue" stroke="midnightblue" points="220.353,-15.2081 209.834,-16.4736 218.846,-22.0441 220.353,-15.2081"/>
</g>
<!-- Node44&#45;&gt;Node3 -->
<g id="edge52" class="edge"><title>Node44&#45;&gt;Node3</title>
<path fill="none" stroke="midnightblue" d="M531.359,-60.3493C460.337,-50.23 292.331,-26.2926 219.581,-15.9271"/>
<polygon fill="midnightblue" stroke="midnightblue" points="219.955,-12.4451 209.561,-14.4995 218.967,-19.3751 219.955,-12.4451"/>
</g>
<!-- Node44&#45;&gt;Node34 -->
<g id="edge50" class="edge"><title>Node44&#45;&gt;Node34</title>
<path fill="none" stroke="midnightblue" d="M556.074,-56.083C549.154,-48.2982 538.935,-36.8015 530.548,-27.3665"/>
<polygon fill="midnightblue" stroke="midnightblue" points="533.038,-24.8999 523.779,-19.7511 527.806,-29.5505 533.038,-24.8999"/>
</g>
<!-- Node44&#45;&gt;Node41 -->
<g id="edge53" class="edge"><title>Node44&#45;&gt;Node41</title>
<path fill="none" stroke="midnightblue" d="M571.761,-56.083C578.537,-48.2982 588.543,-36.8015 596.755,-27.3665"/>
<polygon fill="midnightblue" stroke="midnightblue" points="599.458,-29.592 603.383,-19.7511 594.178,-24.9963 599.458,-29.592"/>
</g>
<!-- Node44&#45;&gt;Node45 -->
<g id="edge51" class="edge"><title>Node44&#45;&gt;Node45</title>
<path fill="none" stroke="midnightblue" d="M596.708,-58.6467C649.724,-48.3486 753.912,-28.1107 807.844,-17.6347"/>
<polygon fill="midnightblue" stroke="midnightblue" points="808.781,-21.0181 817.93,-15.6755 807.446,-14.1466 808.781,-21.0181"/>
</g>
</g>
</svg>
