<?xml version="1.0" encoding="UTF-8" standalone="no"?>
<!DOCTYPE svg PUBLIC "-//W3C//DTD SVG 1.1//EN"
 "http://www.w3.org/Graphics/SVG/1.1/DTD/svg11.dtd">
<!-- Generated by graphviz version 2.36.0 (20140111.2315)
 -->
<!-- Title: src/secp256k1/src/num_impl.h Pages: 1 -->
<svg width="422pt" height="164pt"
 viewBox="0.00 0.00 422.00 164.00" xmlns="http://www.w3.org/2000/svg" xmlns:xlink="http://www.w3.org/1999/xlink">
<g id="graph0" class="graph" transform="scale(1 1) rotate(0) translate(4 160)">
<title>src/secp256k1/src/num_impl.h</title>
<polygon fill="white" stroke="none" points="-4,4 -4,-160 418,-160 418,4 -4,4"/>
<!-- Node2 -->
<g id="node1" class="node"><title>Node2</title>
<polygon fill="#bfbfbf" stroke="black" points="76.5,-125 76.5,-155 195.5,-155 195.5,-125 76.5,-125"/>
<text text-anchor="start" x="84.5" y="-143" font-family="Helvetica,sans-Serif" font-size="10.00">src/secp256k1/src/num</text>
<text text-anchor="middle" x="136" y="-132" font-family="Helvetica,sans-Serif" font-size="10.00">_impl.h</text>
</g>
<!-- Node3 -->
<g id="node2" class="node"><title>Node3</title>
<g id="a_node2"><a xlink:href="bench__internal_8c.html" target="_top" xlink:title="src/secp256k1/src/bench\l_internal.c">
<polygon fill="white" stroke="black" points="0,-1 0,-31 126,-31 126,-1 0,-1"/>
<text text-anchor="start" x="8" y="-19" font-family="Helvetica,sans-Serif" font-size="10.00">src/secp256k1/src/bench</text>
<text text-anchor="middle" x="63" y="-8" font-family="Helvetica,sans-Serif" font-size="10.00">_internal.c</text>
</a>
</g>
</g>
<!-- Node2&#45;&gt;Node3 -->
<g id="edge1" class="edge"><title>Node2&#45;&gt;Node3</title>
<path fill="none" stroke="midnightblue" d="M122.052,-115.689C107.089,-90.6831 83.812,-51.7816 71.4241,-31.0787"/>
<polygon fill="midnightblue" stroke="midnightblue" points="119.201,-117.742 127.339,-124.526 125.208,-114.148 119.201,-117.742"/>
</g>
<!-- Node4 -->
<g id="node3" class="node"><title>Node4</title>
<g id="a_node3"><a xlink:href="secp256k1_8c.html" target="_top" xlink:title="src/secp256k1/src/secp256k1.c">
<polygon fill="white" stroke="black" points="121.5,-68.5 121.5,-87.5 276.5,-87.5 276.5,-68.5 121.5,-68.5"/>
<text text-anchor="middle" x="199" y="-75.5" font-family="Helvetica,sans-Serif" font-size="10.00">src/secp256k1/src/secp256k1.c</text>
</a>
</g>
</g>
<!-- Node2&#45;&gt;Node4 -->
<g id="edge2" class="edge"><title>Node2&#45;&gt;Node4</title>
<path fill="none" stroke="midnightblue" d="M158.447,-117.622C169.26,-107.324 181.628,-95.5451 189.833,-87.7305"/>
<polygon fill="midnightblue" stroke="midnightblue" points="155.758,-115.35 150.93,-124.781 160.585,-120.419 155.758,-115.35"/>
</g>
<!-- Node4&#45;&gt;Node3 -->
<g id="edge3" class="edge"><title>Node4&#45;&gt;Node3</title>
<path fill="none" stroke="midnightblue" d="M170.306,-64.3408C148.195,-54.5862 117.642,-41.1068 94.7907,-31.0253"/>
<polygon fill="midnightblue" stroke="midnightblue" points="168.953,-67.5692 179.515,-68.4035 171.778,-61.1648 168.953,-67.5692"/>
</g>
<!-- Node5 -->
<g id="node4" class="node"><title>Node5</title>
<g id="a_node4"><a xlink:href="tests_8c.html" target="_top" xlink:title="src/secp256k1/src/tests.c">
<polygon fill="white" stroke="black" points="144,-6.5 144,-25.5 274,-25.5 274,-6.5 144,-6.5"/>
<text text-anchor="middle" x="209" y="-13.5" font-family="Helvetica,sans-Serif" font-size="10.00">src/secp256k1/src/tests.c</text>
</a>
</g>
</g>
<!-- Node4&#45;&gt;Node5 -->
<g id="edge4" class="edge"><title>Node4&#45;&gt;Node5</title>
<path fill="none" stroke="midnightblue" d="M202.083,-58.5033C203.912,-47.5268 206.145,-34.1291 207.57,-25.5806"/>
<polygon fill="midnightblue" stroke="midnightblue" points="198.624,-57.9641 200.433,-68.4035 205.529,-59.1149 198.624,-57.9641"/>
</g>
<!-- Node6 -->
<g id="node5" class="node"><title>Node6</title>
<g id="a_node5"><a xlink:href="tests__exhaustive_8c.html" target="_top" xlink:title="src/secp256k1/src/tests\l_exhaustive.c">
<polygon fill="white" stroke="black" points="292,-1 292,-31 414,-31 414,-1 292,-1"/>
<text text-anchor="start" x="300" y="-19" font-family="Helvetica,sans-Serif" font-size="10.00">src/secp256k1/src/tests</text>
<text text-anchor="middle" x="353" y="-8" font-family="Helvetica,sans-Serif" font-size="10.00">_exhaustive.c</text>
</a>
</g>
</g>
<!-- Node4&#45;&gt;Node6 -->
<g id="edge5" class="edge"><title>Node4&#45;&gt;Node6</title>
<path fill="none" stroke="midnightblue" d="M230.487,-64.7324C255.596,-54.9495 290.778,-41.2424 317.002,-31.0253"/>
<polygon fill="midnightblue" stroke="midnightblue" points="229.112,-61.5119 221.064,-68.4035 231.653,-68.0343 229.112,-61.5119"/>
</g>
</g>
</svg>
