<?xml version="1.0" encoding="UTF-8" standalone="no"?>
<!DOCTYPE svg PUBLIC "-//W3C//DTD SVG 1.1//EN"
 "http://www.w3.org/Graphics/SVG/1.1/DTD/svg11.dtd">
<!-- Generated by graphviz version 2.36.0 (20140111.2315)
 -->
<!-- Title: src/secp256k1/src/num_gmp_impl.h Pages: 1 -->
<svg width="275pt" height="152pt"
 viewBox="0.00 0.00 275.00 152.00" xmlns="http://www.w3.org/2000/svg" xmlns:xlink="http://www.w3.org/1999/xlink">
<g id="graph0" class="graph" transform="scale(1 1) rotate(0) translate(4 148)">
<title>src/secp256k1/src/num_gmp_impl.h</title>
<polygon fill="white" stroke="none" points="-4,4 -4,-148 271,-148 271,4 -4,4"/>
<!-- Node0 -->
<g id="node1" class="node"><title>Node0</title>
<polygon fill="#bfbfbf" stroke="black" points="67.5,-113 67.5,-143 186.5,-143 186.5,-113 67.5,-113"/>
<text text-anchor="start" x="75.5" y="-131" font-family="Helvetica,sans-Serif" font-size="10.00">src/secp256k1/src/num</text>
<text text-anchor="middle" x="127" y="-120" font-family="Helvetica,sans-Serif" font-size="10.00">_gmp_impl.h</text>
</g>
<!-- Node1 -->
<g id="node2" class="node"><title>Node1</title>
<polygon fill="white" stroke="#bfbfbf" points="-0.5,-56.5 -0.5,-75.5 48.5,-75.5 48.5,-56.5 -0.5,-56.5"/>
<text text-anchor="middle" x="24" y="-63.5" font-family="Helvetica,sans-Serif" font-size="10.00">string.h</text>
</g>
<!-- Node0&#45;&gt;Node1 -->
<g id="edge1" class="edge"><title>Node0&#45;&gt;Node1</title>
<path fill="none" stroke="midnightblue" d="M102.851,-112.933C86.2496,-103.262 64.3061,-90.4793 47.7837,-80.8546"/>
<polygon fill="midnightblue" stroke="midnightblue" points="49.166,-77.6093 38.7634,-75.6 45.6425,-83.6579 49.166,-77.6093"/>
</g>
<!-- Node2 -->
<g id="node3" class="node"><title>Node2</title>
<polygon fill="white" stroke="#bfbfbf" points="74,-0.5 74,-19.5 122,-19.5 122,-0.5 74,-0.5"/>
<text text-anchor="middle" x="98" y="-7.5" font-family="Helvetica,sans-Serif" font-size="10.00">stdlib.h</text>
</g>
<!-- Node0&#45;&gt;Node2 -->
<g id="edge2" class="edge"><title>Node0&#45;&gt;Node2</title>
<path fill="none" stroke="midnightblue" d="M115.456,-112.832C108.312,-103.115 99.8006,-89.5695 96,-76 91.7609,-60.8646 92.7239,-42.9678 94.4847,-29.7892"/>
<polygon fill="midnightblue" stroke="midnightblue" points="97.9893,-30.0405 96.1267,-19.6107 91.0787,-28.9256 97.9893,-30.0405"/>
</g>
<!-- Node3 -->
<g id="node4" class="node"><title>Node3</title>
<polygon fill="white" stroke="#bfbfbf" points="105,-56.5 105,-75.5 149,-75.5 149,-56.5 105,-56.5"/>
<text text-anchor="middle" x="127" y="-63.5" font-family="Helvetica,sans-Serif" font-size="10.00">gmp.h</text>
</g>
<!-- Node0&#45;&gt;Node3 -->
<g id="edge3" class="edge"><title>Node0&#45;&gt;Node3</title>
<path fill="none" stroke="midnightblue" d="M127,-112.781C127,-104.781 127,-94.6887 127,-86.0168"/>
<polygon fill="midnightblue" stroke="midnightblue" points="130.5,-85.7305 127,-75.7305 123.5,-85.7306 130.5,-85.7305"/>
</g>
<!-- Node4 -->
<g id="node5" class="node"><title>Node4</title>
<g id="a_node5"><a xlink:href="secp256k1_2src_2util_8h.html" target="_top" xlink:title="util.h">
<polygon fill="white" stroke="black" points="167,-56.5 167,-75.5 205,-75.5 205,-56.5 167,-56.5"/>
<text text-anchor="middle" x="186" y="-63.5" font-family="Helvetica,sans-Serif" font-size="10.00">util.h</text>
</a>
</g>
</g>
<!-- Node0&#45;&gt;Node4 -->
<g id="edge4" class="edge"><title>Node0&#45;&gt;Node4</title>
<path fill="none" stroke="midnightblue" d="M140.982,-112.781C149.821,-103.792 161.257,-92.162 170.391,-82.8731"/>
<polygon fill="midnightblue" stroke="midnightblue" points="172.899,-85.3148 177.415,-75.7305 167.908,-80.4068 172.899,-85.3148"/>
</g>
<!-- Node7 -->
<g id="node8" class="node"><title>Node7</title>
<g id="a_node8"><a xlink:href="num_8h.html" target="_top" xlink:title="num.h">
<polygon fill="white" stroke="black" points="223,-56.5 223,-75.5 267,-75.5 267,-56.5 223,-56.5"/>
<text text-anchor="middle" x="245" y="-63.5" font-family="Helvetica,sans-Serif" font-size="10.00">num.h</text>
</a>
</g>
</g>
<!-- Node0&#45;&gt;Node7 -->
<g id="edge8" class="edge"><title>Node0&#45;&gt;Node7</title>
<path fill="none" stroke="midnightblue" d="M154.666,-112.933C174.129,-103.036 200.002,-89.8803 219.069,-80.1852"/>
<polygon fill="midnightblue" stroke="midnightblue" points="220.759,-83.2524 228.087,-75.6 217.586,-77.0127 220.759,-83.2524"/>
</g>
<!-- Node4&#45;&gt;Node2 -->
<g id="edge5" class="edge"><title>Node4&#45;&gt;Node2</title>
<path fill="none" stroke="midnightblue" d="M171.861,-56.324C158.134,-47.9002 137.064,-34.9709 120.936,-25.0741"/>
<polygon fill="midnightblue" stroke="midnightblue" points="122.457,-21.9016 112.104,-19.6545 118.796,-27.8678 122.457,-21.9016"/>
</g>
<!-- Node5 -->
<g id="node6" class="node"><title>Node5</title>
<polygon fill="white" stroke="#bfbfbf" points="150.5,-0.5 150.5,-19.5 199.5,-19.5 199.5,-0.5 150.5,-0.5"/>
<text text-anchor="middle" x="175" y="-7.5" font-family="Helvetica,sans-Serif" font-size="10.00">stdint.h</text>
</g>
<!-- Node4&#45;&gt;Node5 -->
<g id="edge6" class="edge"><title>Node4&#45;&gt;Node5</title>
<path fill="none" stroke="midnightblue" d="M184.184,-56.083C182.726,-48.9272 180.629,-38.6353 178.807,-29.6911"/>
<polygon fill="midnightblue" stroke="midnightblue" points="182.208,-28.8512 176.783,-19.7511 175.349,-30.2485 182.208,-28.8512"/>
</g>
<!-- Node6 -->
<g id="node7" class="node"><title>Node6</title>
<polygon fill="white" stroke="#bfbfbf" points="218,-0.5 218,-19.5 264,-19.5 264,-0.5 218,-0.5"/>
<text text-anchor="middle" x="241" y="-7.5" font-family="Helvetica,sans-Serif" font-size="10.00">stdio.h</text>
</g>
<!-- Node4&#45;&gt;Node6 -->
<g id="edge7" class="edge"><title>Node4&#45;&gt;Node6</title>
<path fill="none" stroke="midnightblue" d="M195.082,-56.083C203.171,-48.1409 215.195,-36.3354 224.91,-26.7973"/>
<polygon fill="midnightblue" stroke="midnightblue" points="227.403,-29.2545 232.087,-19.7511 222.499,-24.2595 227.403,-29.2545"/>
</g>
</g>
</svg>
