<?xml version="1.0" encoding="UTF-8" standalone="no"?>
<!DOCTYPE svg PUBLIC "-//W3C//DTD SVG 1.1//EN"
 "http://www.w3.org/Graphics/SVG/1.1/DTD/svg11.dtd">
<!-- Generated by graphviz version 2.36.0 (20140111.2315)
 -->
<!-- Title: src/secp256k1/src/num.h Pages: 1 -->
<svg width="1415pt" height="436pt"
 viewBox="0.00 0.00 1414.70 436.00" xmlns="http://www.w3.org/2000/svg" xmlns:xlink="http://www.w3.org/1999/xlink">
<g id="graph0" class="graph" transform="scale(1 1) rotate(0) translate(4 432)">
<title>src/secp256k1/src/num.h</title>
<polygon fill="white" stroke="none" points="-4,4 -4,-432 1410.7,-432 1410.7,4 -4,4"/>
<!-- Node1 -->
<g id="node1" class="node"><title>Node1</title>
<polygon fill="#bfbfbf" stroke="black" points="782.199,-408.5 782.199,-427.5 909.199,-427.5 909.199,-408.5 782.199,-408.5"/>
<text text-anchor="middle" x="845.699" y="-415.5" font-family="Helvetica,sans-Serif" font-size="10.00">src/secp256k1/src/num.h</text>
</g>
<!-- Node2 -->
<g id="node2" class="node"><title>Node2</title>
<g id="a_node2"><a xlink:href="num__impl_8h.html" target="_top" xlink:title="src/secp256k1/src/num\l_impl.h">
<polygon fill="white" stroke="black" points="16.1988,-137 16.1988,-167 135.199,-167 135.199,-137 16.1988,-137"/>
<text text-anchor="start" x="24.1988" y="-155" font-family="Helvetica,sans-Serif" font-size="10.00">src/secp256k1/src/num</text>
<text text-anchor="middle" x="75.6988" y="-144" font-family="Helvetica,sans-Serif" font-size="10.00">_impl.h</text>
</a>
</g>
</g>
<!-- Node1&#45;&gt;Node2 -->
<g id="edge1" class="edge"><title>Node1&#45;&gt;Node2</title>
<path fill="none" stroke="midnightblue" d="M771.908,-417.393C631.296,-417.192 330.522,-411.926 235.699,-372 154.268,-337.713 131.663,-314.285 90.6988,-236 79.0894,-213.814 76.2967,-184.234 75.7221,-167.037"/>
<polygon fill="midnightblue" stroke="midnightblue" points="772.156,-420.893 782.158,-417.399 772.16,-413.893 772.156,-420.893"/>
</g>
<!-- Node7 -->
<g id="node7" class="node"><title>Node7</title>
<g id="a_node7"><a xlink:href="group__impl_8h.html" target="_top" xlink:title="src/secp256k1/src/group\l_impl.h">
<polygon fill="white" stroke="black" points="99.6988,-205 99.6988,-235 223.699,-235 223.699,-205 99.6988,-205"/>
<text text-anchor="start" x="107.699" y="-223" font-family="Helvetica,sans-Serif" font-size="10.00">src/secp256k1/src/group</text>
<text text-anchor="middle" x="161.699" y="-212" font-family="Helvetica,sans-Serif" font-size="10.00">_impl.h</text>
</a>
</g>
</g>
<!-- Node1&#45;&gt;Node7 -->
<g id="edge7" class="edge"><title>Node1&#45;&gt;Node7</title>
<path fill="none" stroke="midnightblue" d="M771.721,-415.015C615.512,-409.216 259.641,-386.996 177.699,-304 159.656,-285.725 158.804,-253.649 160.072,-235.181"/>
<polygon fill="midnightblue" stroke="midnightblue" points="772.048,-418.529 782.167,-415.39 772.299,-411.534 772.048,-418.529"/>
</g>
<!-- Node9 -->
<g id="node9" class="node"><title>Node9</title>
<g id="a_node9"><a xlink:href="group_8h.html" target="_top" xlink:title="src/secp256k1/src/group.h">
<polygon fill="white" stroke="black" points="732.699,-346.5 732.699,-365.5 864.699,-365.5 864.699,-346.5 732.699,-346.5"/>
<text text-anchor="middle" x="798.699" y="-353.5" font-family="Helvetica,sans-Serif" font-size="10.00">src/secp256k1/src/group.h</text>
</a>
</g>
</g>
<!-- Node1&#45;&gt;Node9 -->
<g id="edge11" class="edge"><title>Node1&#45;&gt;Node9</title>
<path fill="none" stroke="midnightblue" d="M832.537,-400.198C823.715,-388.936 812.465,-374.574 805.42,-365.581"/>
<polygon fill="midnightblue" stroke="midnightblue" points="830.043,-402.689 838.965,-408.403 835.554,-398.373 830.043,-402.689"/>
</g>
<!-- Node15 -->
<g id="node15" class="node"><title>Node15</title>
<g id="a_node15"><a xlink:href="ecmult_8h.html" target="_top" xlink:title="src/secp256k1/src/ecmult.h">
<polygon fill="white" stroke="black" points="1127.2,-278.5 1127.2,-297.5 1264.2,-297.5 1264.2,-278.5 1127.2,-278.5"/>
<text text-anchor="middle" x="1195.7" y="-285.5" font-family="Helvetica,sans-Serif" font-size="10.00">src/secp256k1/src/ecmult.h</text>
</a>
</g>
</g>
<!-- Node1&#45;&gt;Node15 -->
<g id="edge61" class="edge"><title>Node1&#45;&gt;Node15</title>
<path fill="none" stroke="midnightblue" d="M855.846,-399.209C867.088,-381.237 886.942,-354.165 911.699,-340 990.471,-294.93 1023.38,-320.07 1112.7,-304 1124.37,-301.9 1136.97,-299.627 1148.73,-297.501"/>
<polygon fill="midnightblue" stroke="midnightblue" points="852.646,-397.739 850.51,-408.117 858.651,-401.337 852.646,-397.739"/>
</g>
<!-- Node22 -->
<g id="node22" class="node"><title>Node22</title>
<g id="a_node22"><a xlink:href="scalar_8h.html" target="_top" xlink:title="src/secp256k1/src/scalar.h">
<polygon fill="white" stroke="black" points="516.699,-346.5 516.699,-365.5 650.699,-365.5 650.699,-346.5 516.699,-346.5"/>
<text text-anchor="middle" x="583.699" y="-353.5" font-family="Helvetica,sans-Serif" font-size="10.00">src/secp256k1/src/scalar.h</text>
</a>
</g>
</g>
<!-- Node1&#45;&gt;Node22 -->
<g id="edge49" class="edge"><title>Node1&#45;&gt;Node22</title>
<path fill="none" stroke="midnightblue" d="M798.661,-406.228C747.726,-394.563 667.523,-376.196 620.83,-365.503"/>
<polygon fill="midnightblue" stroke="midnightblue" points="797.91,-409.646 808.439,-408.467 799.473,-402.823 797.91,-409.646"/>
</g>
<!-- Node24 -->
<g id="node24" class="node"><title>Node24</title>
<g id="a_node24"><a xlink:href="field__10x26__impl_8h.html" target="_top" xlink:title="src/secp256k1/src/field\l_10x26_impl.h">
<polygon fill="white" stroke="black" points="920.699,-341 920.699,-371 1038.7,-371 1038.7,-341 920.699,-341"/>
<text text-anchor="start" x="928.699" y="-359" font-family="Helvetica,sans-Serif" font-size="10.00">src/secp256k1/src/field</text>
<text text-anchor="middle" x="979.699" y="-348" font-family="Helvetica,sans-Serif" font-size="10.00">_10x26_impl.h</text>
</a>
</g>
</g>
<!-- Node1&#45;&gt;Node24 -->
<g id="edge62" class="edge"><title>Node1&#45;&gt;Node24</title>
<path fill="none" stroke="midnightblue" d="M874.265,-404.209C896.026,-394.465 925.961,-381.062 948.376,-371.025"/>
<polygon fill="midnightblue" stroke="midnightblue" points="872.594,-401.122 864.898,-408.403 875.455,-407.511 872.594,-401.122"/>
</g>
<!-- Node25 -->
<g id="node25" class="node"><title>Node25</title>
<g id="a_node25"><a xlink:href="field__5x52__impl_8h.html" target="_top" xlink:title="src/secp256k1/src/field\l_5x52_impl.h">
<polygon fill="white" stroke="black" points="1056.7,-341 1056.7,-371 1174.7,-371 1174.7,-341 1056.7,-341"/>
<text text-anchor="start" x="1064.7" y="-359" font-family="Helvetica,sans-Serif" font-size="10.00">src/secp256k1/src/field</text>
<text text-anchor="middle" x="1115.7" y="-348" font-family="Helvetica,sans-Serif" font-size="10.00">_5x52_impl.h</text>
</a>
</g>
</g>
<!-- Node1&#45;&gt;Node25 -->
<g id="edge63" class="edge"><title>Node1&#45;&gt;Node25</title>
<path fill="none" stroke="midnightblue" d="M894.013,-406.263C939.525,-396.15 1007.81,-380.974 1056.56,-370.142"/>
<polygon fill="midnightblue" stroke="midnightblue" points="893.099,-402.881 884.096,-408.467 894.618,-409.714 893.099,-402.881"/>
</g>
<!-- Node26 -->
<g id="node26" class="node"><title>Node26</title>
<g id="a_node26"><a xlink:href="num__gmp__impl_8h.html" target="_top" xlink:title="src/secp256k1/src/num\l_gmp_impl.h">
<polygon fill="white" stroke="black" points="1193.2,-341 1193.2,-371 1312.2,-371 1312.2,-341 1193.2,-341"/>
<text text-anchor="start" x="1201.2" y="-359" font-family="Helvetica,sans-Serif" font-size="10.00">src/secp256k1/src/num</text>
<text text-anchor="middle" x="1252.7" y="-348" font-family="Helvetica,sans-Serif" font-size="10.00">_gmp_impl.h</text>
</a>
</g>
</g>
<!-- Node1&#45;&gt;Node26 -->
<g id="edge64" class="edge"><title>Node1&#45;&gt;Node26</title>
<path fill="none" stroke="midnightblue" d="M919.758,-408.904C988.416,-400.982 1093.29,-387.818 1183.7,-372 1186.72,-371.472 1189.8,-370.904 1192.92,-370.309"/>
<polygon fill="midnightblue" stroke="midnightblue" points="919.014,-405.467 909.478,-410.083 919.812,-412.421 919.014,-405.467"/>
</g>
<!-- Node3 -->
<g id="node3" class="node"><title>Node3</title>
<g id="a_node3"><a xlink:href="bench__internal_8c.html" target="_top" xlink:title="src/secp256k1/src/bench\l_internal.c">
<polygon fill="white" stroke="black" points="291.699,-1 291.699,-31 417.699,-31 417.699,-1 291.699,-1"/>
<text text-anchor="start" x="299.699" y="-19" font-family="Helvetica,sans-Serif" font-size="10.00">src/secp256k1/src/bench</text>
<text text-anchor="middle" x="354.699" y="-8" font-family="Helvetica,sans-Serif" font-size="10.00">_internal.c</text>
</a>
</g>
</g>
<!-- Node2&#45;&gt;Node3 -->
<g id="edge2" class="edge"><title>Node2&#45;&gt;Node3</title>
<path fill="none" stroke="midnightblue" d="M114.335,-132.443C170.809,-105.32 274.671,-55.4364 325.343,-31.0994"/>
<polygon fill="midnightblue" stroke="midnightblue" points="112.528,-129.428 105.029,-136.913 115.559,-135.738 112.528,-129.428"/>
</g>
<!-- Node4 -->
<g id="node4" class="node"><title>Node4</title>
<g id="a_node4"><a xlink:href="secp256k1_8c.html" target="_top" xlink:title="src/secp256k1/src/secp256k1.c">
<polygon fill="white" stroke="black" points="557.199,-74.5 557.199,-93.5 712.199,-93.5 712.199,-74.5 557.199,-74.5"/>
<text text-anchor="middle" x="634.699" y="-81.5" font-family="Helvetica,sans-Serif" font-size="10.00">src/secp256k1/src/secp256k1.c</text>
</a>
</g>
</g>
<!-- Node2&#45;&gt;Node4 -->
<g id="edge3" class="edge"><title>Node2&#45;&gt;Node4</title>
<path fill="none" stroke="midnightblue" d="M145.281,-136.669C146.766,-136.437 148.24,-136.213 149.699,-136 325.443,-110.319 371.597,-123.107 547.699,-100 561.224,-98.2253 575.86,-95.8716 589.2,-93.556"/>
<polygon fill="midnightblue" stroke="midnightblue" points="144.664,-133.224 135.375,-138.318 145.814,-140.129 144.664,-133.224"/>
</g>
<!-- Node4&#45;&gt;Node3 -->
<g id="edge4" class="edge"><title>Node4&#45;&gt;Node3</title>
<path fill="none" stroke="midnightblue" d="M588.635,-72.1421C540.962,-60.9049 466.31,-43.3083 414.198,-31.0247"/>
<polygon fill="midnightblue" stroke="midnightblue" points="587.844,-75.5516 598.381,-74.4393 589.451,-68.7383 587.844,-75.5516"/>
</g>
<!-- Node5 -->
<g id="node5" class="node"><title>Node5</title>
<g id="a_node5"><a xlink:href="tests_8c.html" target="_top" xlink:title="src/secp256k1/src/tests.c">
<polygon fill="white" stroke="black" points="569.699,-6.5 569.699,-25.5 699.699,-25.5 699.699,-6.5 569.699,-6.5"/>
<text text-anchor="middle" x="634.699" y="-13.5" font-family="Helvetica,sans-Serif" font-size="10.00">src/secp256k1/src/tests.c</text>
</a>
</g>
</g>
<!-- Node4&#45;&gt;Node5 -->
<g id="edge5" class="edge"><title>Node4&#45;&gt;Node5</title>
<path fill="none" stroke="midnightblue" d="M634.699,-64.0413C634.699,-51.4724 634.699,-35.5631 634.699,-25.8411"/>
<polygon fill="midnightblue" stroke="midnightblue" points="631.199,-64.3716 634.699,-74.3717 638.199,-64.3717 631.199,-64.3716"/>
</g>
<!-- Node6 -->
<g id="node6" class="node"><title>Node6</title>
<g id="a_node6"><a xlink:href="tests__exhaustive_8c.html" target="_top" xlink:title="src/secp256k1/src/tests\l_exhaustive.c">
<polygon fill="white" stroke="black" points="1031.7,-1 1031.7,-31 1153.7,-31 1153.7,-1 1031.7,-1"/>
<text text-anchor="start" x="1039.7" y="-19" font-family="Helvetica,sans-Serif" font-size="10.00">src/secp256k1/src/tests</text>
<text text-anchor="middle" x="1092.7" y="-8" font-family="Helvetica,sans-Serif" font-size="10.00">_exhaustive.c</text>
</a>
</g>
</g>
<!-- Node4&#45;&gt;Node6 -->
<g id="edge6" class="edge"><title>Node4&#45;&gt;Node6</title>
<path fill="none" stroke="midnightblue" d="M704.12,-72.9961C793.281,-60.1476 946.622,-38.0503 1031.57,-25.8085"/>
<polygon fill="midnightblue" stroke="midnightblue" points="703.503,-69.5487 694.105,-74.4393 704.502,-76.4771 703.503,-69.5487"/>
</g>
<!-- Node7&#45;&gt;Node3 -->
<g id="edge8" class="edge"><title>Node7&#45;&gt;Node3</title>
<path fill="none" stroke="midnightblue" d="M89.5957,-207.31C37.7547,-195.529 -18.8588,-173.587 6.69881,-136 69.6188,-43.4658 209.478,-21.8562 291.449,-17.4303"/>
<polygon fill="midnightblue" stroke="midnightblue" points="89.022,-210.767 99.5363,-209.463 90.5036,-203.925 89.022,-210.767"/>
</g>
<!-- Node7&#45;&gt;Node4 -->
<g id="edge9" class="edge"><title>Node7&#45;&gt;Node4</title>
<path fill="none" stroke="midnightblue" d="M160.858,-194.737C161.623,-175.784 166.046,-150.332 182.699,-136 244.474,-82.8324 466.931,-110.931 547.699,-100 561.065,-98.191 575.522,-95.8533 588.741,-93.564"/>
<polygon fill="midnightblue" stroke="midnightblue" points="157.358,-194.715 160.76,-204.749 164.358,-194.784 157.358,-194.715"/>
</g>
<!-- Node8 -->
<g id="node8" class="node"><title>Node8</title>
<g id="a_node8"><a xlink:href="gen__context_8c.html" target="_top" xlink:title="src/secp256k1/src/gen\l_context.c">
<polygon fill="white" stroke="black" points="191.699,-137 191.699,-167 307.699,-167 307.699,-137 191.699,-137"/>
<text text-anchor="start" x="199.699" y="-155" font-family="Helvetica,sans-Serif" font-size="10.00">src/secp256k1/src/gen</text>
<text text-anchor="middle" x="249.699" y="-144" font-family="Helvetica,sans-Serif" font-size="10.00">_context.c</text>
</a>
</g>
</g>
<!-- Node7&#45;&gt;Node8 -->
<g id="edge10" class="edge"><title>Node7&#45;&gt;Node8</title>
<path fill="none" stroke="midnightblue" d="M188.9,-198.599C202.537,-188.371 218.708,-176.243 230.944,-167.066"/>
<polygon fill="midnightblue" stroke="midnightblue" points="186.694,-195.879 180.794,-204.679 190.894,-201.479 186.694,-195.879"/>
</g>
<!-- Node9&#45;&gt;Node6 -->
<g id="edge48" class="edge"><title>Node9&#45;&gt;Node6</title>
<path fill="none" stroke="midnightblue" d="M868.669,-345.153C882.893,-343.309 897.765,-341.494 911.699,-340 1009.24,-329.542 1267.23,-353.9 1351.7,-304 1389.8,-281.491 1406.7,-265.253 1406.7,-221 1406.7,-221 1406.7,-221 1406.7,-151 1406.7,-42.2389 1245.37,-20.5482 1153.99,-16.9854"/>
<polygon fill="midnightblue" stroke="midnightblue" points="867.907,-341.723 858.449,-346.497 868.82,-348.664 867.907,-341.723"/>
</g>
<!-- Node9&#45;&gt;Node7 -->
<g id="edge12" class="edge"><title>Node9&#45;&gt;Node7</title>
<path fill="none" stroke="midnightblue" d="M722.527,-345.992C635.342,-335.319 498.096,-317.308 447.699,-304 409.874,-294.012 402.973,-283.879 365.699,-272 318.742,-257.035 264.579,-243.671 223.869,-234.38"/>
<polygon fill="midnightblue" stroke="midnightblue" points="722.289,-349.489 732.639,-347.225 723.136,-342.54 722.289,-349.489"/>
</g>
<!-- Node10 -->
<g id="node10" class="node"><title>Node10</title>
<g id="a_node10"><a xlink:href="scalar__impl_8h.html" target="_top" xlink:title="src/secp256k1/src/scalar\l_impl.h">
<polygon fill="white" stroke="black" points="241.699,-205 241.699,-235 367.699,-235 367.699,-205 241.699,-205"/>
<text text-anchor="start" x="249.699" y="-223" font-family="Helvetica,sans-Serif" font-size="10.00">src/secp256k1/src/scalar</text>
<text text-anchor="middle" x="304.699" y="-212" font-family="Helvetica,sans-Serif" font-size="10.00">_impl.h</text>
</a>
</g>
</g>
<!-- Node9&#45;&gt;Node10 -->
<g id="edge13" class="edge"><title>Node9&#45;&gt;Node10</title>
<path fill="none" stroke="midnightblue" d="M740.018,-344.602C690.527,-335.375 618.003,-320.782 555.699,-304 479.03,-283.348 391.357,-252.704 342.566,-235.004"/>
<polygon fill="midnightblue" stroke="midnightblue" points="739.438,-348.054 749.908,-346.431 740.711,-341.171 739.438,-348.054"/>
</g>
<!-- Node11 -->
<g id="node11" class="node"><title>Node11</title>
<g id="a_node11"><a xlink:href="ecmult__const__impl_8h.html" target="_top" xlink:title="src/secp256k1/src/ecmult\l_const_impl.h">
<polygon fill="white" stroke="black" points="406.199,-137 406.199,-167 535.199,-167 535.199,-137 406.199,-137"/>
<text text-anchor="start" x="414.199" y="-155" font-family="Helvetica,sans-Serif" font-size="10.00">src/secp256k1/src/ecmult</text>
<text text-anchor="middle" x="470.699" y="-144" font-family="Helvetica,sans-Serif" font-size="10.00">_const_impl.h</text>
</a>
</g>
</g>
<!-- Node9&#45;&gt;Node11 -->
<g id="edge17" class="edge"><title>Node9&#45;&gt;Node11</title>
<path fill="none" stroke="midnightblue" d="M779.671,-339.894C767.262,-329.909 750.81,-316.42 736.699,-304 721.122,-290.29 721.278,-281.243 702.699,-272 617.132,-229.43 560.544,-301.234 490.699,-236 471.634,-218.194 469.33,-185.641 469.752,-167.034"/>
<polygon fill="midnightblue" stroke="midnightblue" points="777.543,-342.674 787.538,-346.19 781.917,-337.208 777.543,-342.674"/>
</g>
<!-- Node13 -->
<g id="node13" class="node"><title>Node13</title>
<g id="a_node13"><a xlink:href="ecmult__const_8h.html" target="_top" xlink:title="src/secp256k1/src/ecmult\l_const.h">
<polygon fill="white" stroke="black" points="565.199,-273 565.199,-303 694.199,-303 694.199,-273 565.199,-273"/>
<text text-anchor="start" x="573.199" y="-291" font-family="Helvetica,sans-Serif" font-size="10.00">src/secp256k1/src/ecmult</text>
<text text-anchor="middle" x="629.699" y="-280" font-family="Helvetica,sans-Serif" font-size="10.00">_const.h</text>
</a>
</g>
</g>
<!-- Node9&#45;&gt;Node13 -->
<g id="edge21" class="edge"><title>Node9&#45;&gt;Node13</title>
<path fill="none" stroke="midnightblue" d="M767.032,-342.633C738.235,-331.387 695.765,-314.801 665.691,-303.056"/>
<polygon fill="midnightblue" stroke="midnightblue" points="766.017,-345.994 776.605,-346.372 768.563,-339.474 766.017,-345.994"/>
</g>
<!-- Node14 -->
<g id="node14" class="node"><title>Node14</title>
<g id="a_node14"><a xlink:href="ecmult__impl_8h.html" target="_top" xlink:title="src/secp256k1/src/ecmult\l_impl.h">
<polygon fill="white" stroke="black" points="647.199,-205 647.199,-235 776.199,-235 776.199,-205 647.199,-205"/>
<text text-anchor="start" x="655.199" y="-223" font-family="Helvetica,sans-Serif" font-size="10.00">src/secp256k1/src/ecmult</text>
<text text-anchor="middle" x="711.699" y="-212" font-family="Helvetica,sans-Serif" font-size="10.00">_impl.h</text>
</a>
</g>
</g>
<!-- Node9&#45;&gt;Node14 -->
<g id="edge23" class="edge"><title>Node9&#45;&gt;Node14</title>
<path fill="none" stroke="midnightblue" d="M796.572,-336.31C793.83,-318.54 787.756,-291.676 774.699,-272 764.661,-256.874 748.743,-244.043 735.419,-235.034"/>
<polygon fill="midnightblue" stroke="midnightblue" points="793.111,-336.834 797.907,-346.282 800.049,-335.906 793.111,-336.834"/>
</g>
<!-- Node9&#45;&gt;Node15 -->
<g id="edge27" class="edge"><title>Node9&#45;&gt;Node15</title>
<path fill="none" stroke="midnightblue" d="M852.716,-344.623C861.396,-343.027 870.289,-341.435 878.699,-340 982.423,-322.302 1008.92,-321.358 1112.7,-304 1124.69,-301.995 1137.63,-299.713 1149.64,-297.545"/>
<polygon fill="midnightblue" stroke="midnightblue" points="851.859,-341.222 842.666,-346.489 853.136,-348.105 851.859,-341.222"/>
</g>
<!-- Node16 -->
<g id="node16" class="node"><title>Node16</title>
<g id="a_node16"><a xlink:href="ecdsa__impl_8h.html" target="_top" xlink:title="src/secp256k1/src/ecdsa\l_impl.h">
<polygon fill="white" stroke="black" points="1049.7,-137 1049.7,-167 1175.7,-167 1175.7,-137 1049.7,-137"/>
<text text-anchor="start" x="1057.7" y="-155" font-family="Helvetica,sans-Serif" font-size="10.00">src/secp256k1/src/ecdsa</text>
<text text-anchor="middle" x="1112.7" y="-144" font-family="Helvetica,sans-Serif" font-size="10.00">_impl.h</text>
</a>
</g>
</g>
<!-- Node9&#45;&gt;Node16 -->
<g id="edge44" class="edge"><title>Node9&#45;&gt;Node16</title>
<path fill="none" stroke="midnightblue" d="M869.161,-345.148C883.237,-343.321 897.927,-341.513 911.699,-340 957.486,-334.968 1289.66,-333.899 1324.7,-304 1358.99,-274.738 1369.9,-239.172 1341.7,-204 1321.22,-178.459 1236.17,-164.885 1175.71,-158.319"/>
<polygon fill="midnightblue" stroke="midnightblue" points="868.5,-341.705 859.041,-346.479 869.412,-348.645 868.5,-341.705"/>
</g>
<!-- Node17 -->
<g id="node17" class="node"><title>Node17</title>
<g id="a_node17"><a xlink:href="ecdsa_8h.html" target="_top" xlink:title="src/secp256k1/src/ecdsa.h">
<polygon fill="white" stroke="black" points="1198.7,-210.5 1198.7,-229.5 1332.7,-229.5 1332.7,-210.5 1198.7,-210.5"/>
<text text-anchor="middle" x="1265.7" y="-217.5" font-family="Helvetica,sans-Serif" font-size="10.00">src/secp256k1/src/ecdsa.h</text>
</a>
</g>
</g>
<!-- Node9&#45;&gt;Node17 -->
<g id="edge45" class="edge"><title>Node9&#45;&gt;Node17</title>
<path fill="none" stroke="midnightblue" d="M869.408,-345.16C883.41,-343.339 898.009,-341.532 911.699,-340 955.496,-335.099 1276.98,-336.546 1306.7,-304 1327.51,-281.211 1294.04,-245.918 1276.01,-229.696"/>
<polygon fill="midnightblue" stroke="midnightblue" points="868.798,-341.71 859.34,-346.484 869.711,-348.65 868.798,-341.71"/>
</g>
<!-- Node18 -->
<g id="node18" class="node"><title>Node18</title>
<g id="a_node18"><a xlink:href="eckey_8h.html" target="_top" xlink:title="src/secp256k1/src/eckey.h">
<polygon fill="white" stroke="black" points="908.699,-210.5 908.699,-229.5 1042.7,-229.5 1042.7,-210.5 908.699,-210.5"/>
<text text-anchor="middle" x="975.699" y="-217.5" font-family="Helvetica,sans-Serif" font-size="10.00">src/secp256k1/src/eckey.h</text>
</a>
</g>
</g>
<!-- Node9&#45;&gt;Node18 -->
<g id="edge46" class="edge"><title>Node9&#45;&gt;Node18</title>
<path fill="none" stroke="midnightblue" d="M853.983,-344.499C910,-333.3 989.677,-315.611 998.699,-304 1016.31,-281.33 994.569,-245.977 982.595,-229.718"/>
<polygon fill="midnightblue" stroke="midnightblue" points="853.299,-341.066 844.169,-346.443 854.659,-347.933 853.299,-341.066"/>
</g>
<!-- Node19 -->
<g id="node19" class="node"><title>Node19</title>
<g id="a_node19"><a xlink:href="eckey__impl_8h.html" target="_top" xlink:title="src/secp256k1/src/eckey\l_impl.h">
<polygon fill="white" stroke="black" points="779.699,-137 779.699,-167 905.699,-167 905.699,-137 779.699,-137"/>
<text text-anchor="start" x="787.699" y="-155" font-family="Helvetica,sans-Serif" font-size="10.00">src/secp256k1/src/eckey</text>
<text text-anchor="middle" x="842.699" y="-144" font-family="Helvetica,sans-Serif" font-size="10.00">_impl.h</text>
</a>
</g>
</g>
<!-- Node9&#45;&gt;Node19 -->
<g id="edge47" class="edge"><title>Node9&#45;&gt;Node19</title>
<path fill="none" stroke="midnightblue" d="M849.1,-344.323C911.383,-330.967 1010.02,-309.21 1016.7,-304 1043.5,-283.089 1043.7,-269.035 1051.7,-236 1055.05,-222.178 1060.48,-215.185 1051.7,-204 1033.76,-181.162 960.504,-167.251 905.748,-159.849"/>
<polygon fill="midnightblue" stroke="midnightblue" points="848.105,-340.957 839.059,-346.472 849.57,-347.802 848.105,-340.957"/>
</g>
<!-- Node20 -->
<g id="node20" class="node"><title>Node20</title>
<g id="a_node20"><a xlink:href="ecmult__gen__impl_8h.html" target="_top" xlink:title="src/secp256k1/src/ecmult\l_gen_impl.h">
<polygon fill="white" stroke="black" points="500.199,-205 500.199,-235 629.199,-235 629.199,-205 500.199,-205"/>
<text text-anchor="start" x="508.199" y="-223" font-family="Helvetica,sans-Serif" font-size="10.00">src/secp256k1/src/ecmult</text>
<text text-anchor="middle" x="564.699" y="-212" font-family="Helvetica,sans-Serif" font-size="10.00">_gen_impl.h</text>
</a>
</g>
</g>
<!-- Node9&#45;&gt;Node20 -->
<g id="edge36" class="edge"><title>Node9&#45;&gt;Node20</title>
<path fill="none" stroke="midnightblue" d="M789.891,-337.235C779.638,-318.346 760.963,-288.913 736.699,-272 718.685,-259.444 668.337,-245.248 626.737,-235.027"/>
<polygon fill="midnightblue" stroke="midnightblue" points="786.868,-339.007 794.588,-346.264 793.078,-335.777 786.868,-339.007"/>
</g>
<!-- Node21 -->
<g id="node21" class="node"><title>Node21</title>
<g id="a_node21"><a xlink:href="ecmult__gen_8h.html" target="_top" xlink:title="src/secp256k1/src/ecmult\l_gen.h">
<polygon fill="white" stroke="black" points="827.199,-273 827.199,-303 956.199,-303 956.199,-273 827.199,-273"/>
<text text-anchor="start" x="835.199" y="-291" font-family="Helvetica,sans-Serif" font-size="10.00">src/secp256k1/src/ecmult</text>
<text text-anchor="middle" x="891.699" y="-280" font-family="Helvetica,sans-Serif" font-size="10.00">_gen.h</text>
</a>
</g>
</g>
<!-- Node9&#45;&gt;Node21 -->
<g id="edge39" class="edge"><title>Node9&#45;&gt;Node21</title>
<path fill="none" stroke="midnightblue" d="M819.303,-340.378C834.918,-329.296 856.255,-314.154 871.716,-303.181"/>
<polygon fill="midnightblue" stroke="midnightblue" points="816.986,-337.73 810.857,-346.372 821.038,-343.438 816.986,-337.73"/>
</g>
<!-- Node10&#45;&gt;Node3 -->
<g id="edge14" class="edge"><title>Node10&#45;&gt;Node3</title>
<path fill="none" stroke="midnightblue" d="M310.634,-195.021C321.147,-152.549 342.728,-65.3637 351.187,-31.1886"/>
<polygon fill="midnightblue" stroke="midnightblue" points="307.22,-194.248 308.215,-204.796 314.015,-195.93 307.22,-194.248"/>
</g>
<!-- Node10&#45;&gt;Node4 -->
<g id="edge15" class="edge"><title>Node10&#45;&gt;Node4</title>
<path fill="none" stroke="midnightblue" d="M322.828,-197.152C339.9,-178.052 367.201,-151.079 396.699,-136 413.631,-127.345 524.416,-105.647 588.702,-93.5273"/>
<polygon fill="midnightblue" stroke="midnightblue" points="320.094,-194.961 316.16,-204.798 325.37,-199.561 320.094,-194.961"/>
</g>
<!-- Node10&#45;&gt;Node8 -->
<g id="edge16" class="edge"><title>Node10&#45;&gt;Node8</title>
<path fill="none" stroke="midnightblue" d="M286.283,-196.901C278.146,-187.136 268.812,-175.936 261.61,-167.293"/>
<polygon fill="midnightblue" stroke="midnightblue" points="283.674,-199.237 292.765,-204.679 289.052,-194.756 283.674,-199.237"/>
</g>
<!-- Node11&#45;&gt;Node3 -->
<g id="edge18" class="edge"><title>Node11&#45;&gt;Node3</title>
<path fill="none" stroke="midnightblue" d="M432.21,-131.747C418.421,-123.43 403.606,-112.676 392.699,-100 374.92,-79.3375 363.877,-48.9727 358.545,-31.2704"/>
<polygon fill="midnightblue" stroke="midnightblue" points="430.66,-134.894 441.071,-136.857 434.157,-128.83 430.66,-134.894"/>
</g>
<!-- Node11&#45;&gt;Node4 -->
<g id="edge19" class="edge"><title>Node11&#45;&gt;Node4</title>
<path fill="none" stroke="midnightblue" d="M515.402,-133.01C547.153,-120.232 588.385,-103.638 613.126,-93.6819"/>
<polygon fill="midnightblue" stroke="midnightblue" points="513.851,-129.861 505.881,-136.841 516.465,-136.355 513.851,-129.861"/>
</g>
<!-- Node12 -->
<g id="node12" class="node"><title>Node12</title>
<g id="a_node12"><a xlink:href="ecdh_2main__impl_8h.html" target="_top" xlink:title="src/secp256k1/src/modules\l/ecdh/main_impl.h">
<polygon fill="white" stroke="black" points="402.199,-69 402.199,-99 539.199,-99 539.199,-69 402.199,-69"/>
<text text-anchor="start" x="410.199" y="-87" font-family="Helvetica,sans-Serif" font-size="10.00">src/secp256k1/src/modules</text>
<text text-anchor="middle" x="470.699" y="-76" font-family="Helvetica,sans-Serif" font-size="10.00">/ecdh/main_impl.h</text>
</a>
</g>
</g>
<!-- Node11&#45;&gt;Node12 -->
<g id="edge20" class="edge"><title>Node11&#45;&gt;Node12</title>
<path fill="none" stroke="midnightblue" d="M470.699,-126.532C470.699,-117.361 470.699,-107.245 470.699,-99.2931"/>
<polygon fill="midnightblue" stroke="midnightblue" points="467.199,-126.679 470.699,-136.679 474.199,-126.679 467.199,-126.679"/>
</g>
<!-- Node13&#45;&gt;Node11 -->
<g id="edge22" class="edge"><title>Node13&#45;&gt;Node11</title>
<path fill="none" stroke="midnightblue" d="M555.191,-274.033C514.466,-265.264 469.877,-252.313 457.699,-236 442.604,-215.78 453.848,-184.984 462.725,-167.14"/>
<polygon fill="midnightblue" stroke="midnightblue" points="554.661,-277.498 565.165,-276.117 556.092,-270.646 554.661,-277.498"/>
</g>
<!-- Node14&#45;&gt;Node3 -->
<g id="edge25" class="edge"><title>Node14&#45;&gt;Node3</title>
<path fill="none" stroke="midnightblue" d="M722.129,-195.602C734.951,-162.844 751.479,-103.367 720.699,-68 701.14,-45.527 517.275,-28.8159 417.837,-21.3368"/>
<polygon fill="midnightblue" stroke="midnightblue" points="718.89,-194.274 718.325,-204.854 725.364,-196.936 718.89,-194.274"/>
</g>
<!-- Node14&#45;&gt;Node4 -->
<g id="edge26" class="edge"><title>Node14&#45;&gt;Node4</title>
<path fill="none" stroke="midnightblue" d="M698.276,-195.64C680.889,-165.382 651.424,-114.106 639.714,-93.7275"/>
<polygon fill="midnightblue" stroke="midnightblue" points="695.441,-197.733 703.458,-204.66 701.511,-194.245 695.441,-197.733"/>
</g>
<!-- Node14&#45;&gt;Node11 -->
<g id="edge24" class="edge"><title>Node14&#45;&gt;Node11</title>
<path fill="none" stroke="midnightblue" d="M650.459,-202.229C610.747,-191.353 559.601,-177.347 522.025,-167.056"/>
<polygon fill="midnightblue" stroke="midnightblue" points="649.725,-205.657 660.294,-204.922 651.573,-198.905 649.725,-205.657"/>
</g>
<!-- Node15&#45;&gt;Node14 -->
<g id="edge28" class="edge"><title>Node15&#45;&gt;Node14</title>
<path fill="none" stroke="midnightblue" d="M1122.91,-277.074C1028.77,-264.237 866.25,-242.075 776.294,-229.808"/>
<polygon fill="midnightblue" stroke="midnightblue" points="1122.54,-280.556 1132.92,-278.439 1123.49,-273.62 1122.54,-280.556"/>
</g>
<!-- Node15&#45;&gt;Node16 -->
<g id="edge29" class="edge"><title>Node15&#45;&gt;Node16</title>
<path fill="none" stroke="midnightblue" d="M1184.85,-269.484C1168.2,-242.604 1136.68,-191.712 1121.41,-167.071"/>
<polygon fill="midnightblue" stroke="midnightblue" points="1182.01,-271.55 1190.25,-278.208 1187.96,-267.864 1182.01,-271.55"/>
</g>
<!-- Node15&#45;&gt;Node17 -->
<g id="edge31" class="edge"><title>Node15&#45;&gt;Node17</title>
<path fill="none" stroke="midnightblue" d="M1212.23,-271.412C1225.98,-258.447 1245.06,-240.456 1256.32,-229.841"/>
<polygon fill="midnightblue" stroke="midnightblue" points="1209.72,-268.965 1204.85,-278.372 1214.53,-274.058 1209.72,-268.965"/>
</g>
<!-- Node15&#45;&gt;Node18 -->
<g id="edge33" class="edge"><title>Node15&#45;&gt;Node18</title>
<path fill="none" stroke="midnightblue" d="M1157.23,-275.46C1113.51,-262.343 1043.16,-241.239 1004.12,-229.526"/>
<polygon fill="midnightblue" stroke="midnightblue" points="1156.35,-278.85 1166.94,-278.372 1158.37,-272.146 1156.35,-278.85"/>
</g>
<!-- Node16&#45;&gt;Node4 -->
<g id="edge30" class="edge"><title>Node16&#45;&gt;Node4</title>
<path fill="none" stroke="midnightblue" d="M1039.23,-140.856C945.344,-127.892 784.468,-105.679 696.539,-93.5387"/>
<polygon fill="midnightblue" stroke="midnightblue" points="1038.84,-144.335 1049.22,-142.236 1039.8,-137.401 1038.84,-144.335"/>
</g>
<!-- Node17&#45;&gt;Node16 -->
<g id="edge32" class="edge"><title>Node17&#45;&gt;Node16</title>
<path fill="none" stroke="midnightblue" d="M1236.34,-206.337C1210.29,-195.097 1172.27,-178.698 1145.28,-167.056"/>
<polygon fill="midnightblue" stroke="midnightblue" points="1235.13,-209.624 1245.7,-210.372 1237.9,-203.197 1235.13,-209.624"/>
</g>
<!-- Node18&#45;&gt;Node19 -->
<g id="edge34" class="edge"><title>Node18&#45;&gt;Node19</title>
<path fill="none" stroke="midnightblue" d="M949.278,-205.889C926.66,-194.665 894.175,-178.545 871.024,-167.056"/>
<polygon fill="midnightblue" stroke="midnightblue" points="947.798,-209.062 958.311,-210.372 950.91,-202.791 947.798,-209.062"/>
</g>
<!-- Node19&#45;&gt;Node4 -->
<g id="edge35" class="edge"><title>Node19&#45;&gt;Node4</title>
<path fill="none" stroke="midnightblue" d="M788.79,-133.894C747.95,-120.935 693.57,-103.68 661.53,-93.5138"/>
<polygon fill="midnightblue" stroke="midnightblue" points="787.742,-137.234 798.333,-136.922 789.86,-130.562 787.742,-137.234"/>
</g>
<!-- Node20&#45;&gt;Node4 -->
<g id="edge37" class="edge"><title>Node20&#45;&gt;Node4</title>
<path fill="none" stroke="midnightblue" d="M576.902,-195.64C592.708,-165.382 619.494,-114.106 630.14,-93.7275"/>
<polygon fill="midnightblue" stroke="midnightblue" points="573.718,-194.176 572.19,-204.66 579.922,-197.417 573.718,-194.176"/>
</g>
<!-- Node20&#45;&gt;Node8 -->
<g id="edge38" class="edge"><title>Node20&#45;&gt;Node8</title>
<path fill="none" stroke="midnightblue" d="M490.36,-203.424C434.539,-191.729 359.178,-175.939 307.753,-165.164"/>
<polygon fill="midnightblue" stroke="midnightblue" points="489.688,-206.859 500.194,-205.485 491.124,-200.008 489.688,-206.859"/>
</g>
<!-- Node21&#45;&gt;Node16 -->
<g id="edge41" class="edge"><title>Node21&#45;&gt;Node16</title>
<path fill="none" stroke="midnightblue" d="M887.155,-262.823C885.181,-244.515 885.879,-219.887 899.699,-204 919.165,-181.623 994.002,-167.58 1049.5,-160.023"/>
<polygon fill="midnightblue" stroke="midnightblue" points="883.693,-263.34 888.547,-272.758 890.625,-262.369 883.693,-263.34"/>
</g>
<!-- Node21&#45;&gt;Node18 -->
<g id="edge42" class="edge"><title>Node21&#45;&gt;Node18</title>
<path fill="none" stroke="midnightblue" d="M918.181,-266.193C933.775,-253.94 952.69,-239.079 964.463,-229.828"/>
<polygon fill="midnightblue" stroke="midnightblue" points="915.626,-263.749 909.926,-272.679 919.951,-269.253 915.626,-263.749"/>
</g>
<!-- Node21&#45;&gt;Node19 -->
<g id="edge43" class="edge"><title>Node21&#45;&gt;Node19</title>
<path fill="none" stroke="midnightblue" d="M879.155,-263.581C874.868,-255.044 870.261,-245.223 866.699,-236 857.564,-212.353 850.031,-183.755 845.965,-167.049"/>
<polygon fill="midnightblue" stroke="midnightblue" points="876.096,-265.285 883.786,-272.573 882.319,-262.08 876.096,-265.285"/>
</g>
<!-- Node21&#45;&gt;Node20 -->
<g id="edge40" class="edge"><title>Node21&#45;&gt;Node20</title>
<path fill="none" stroke="midnightblue" d="M817.077,-272.109C766.457,-261.985 698.029,-248.255 637.699,-236 635.036,-235.459 632.319,-234.906 629.574,-234.346"/>
<polygon fill="midnightblue" stroke="midnightblue" points="816.464,-275.555 826.956,-274.084 817.836,-268.691 816.464,-275.555"/>
</g>
<!-- Node22&#45;&gt;Node10 -->
<g id="edge50" class="edge"><title>Node22&#45;&gt;Node10</title>
<path fill="none" stroke="midnightblue" d="M506.142,-350.415C397.073,-343.164 209.293,-327.424 188.699,-304 162.783,-274.523 213.425,-249.73 255.759,-235.12"/>
<polygon fill="midnightblue" stroke="midnightblue" points="506.236,-353.928 516.443,-351.09 506.694,-346.943 506.236,-353.928"/>
</g>
<!-- Node22&#45;&gt;Node11 -->
<g id="edge51" class="edge"><title>Node22&#45;&gt;Node11</title>
<path fill="none" stroke="midnightblue" d="M506.282,-355.471C411.128,-354.205 257.799,-345.543 221.699,-304 146.106,-217.01 221.318,-316.059 376.699,-236 410.76,-218.45 442.417,-185.801 458.876,-167.109"/>
<polygon fill="midnightblue" stroke="midnightblue" points="506.405,-358.972 516.443,-355.581 506.481,-351.973 506.405,-358.972"/>
</g>
<!-- Node22&#45;&gt;Node13 -->
<g id="edge52" class="edge"><title>Node22&#45;&gt;Node13</title>
<path fill="none" stroke="midnightblue" d="M595.441,-338.153C602.982,-327.333 612.668,-313.436 619.815,-303.181"/>
<polygon fill="midnightblue" stroke="midnightblue" points="592.559,-336.166 589.713,-346.372 598.302,-340.169 592.559,-336.166"/>
</g>
<!-- Node22&#45;&gt;Node14 -->
<g id="edge53" class="edge"><title>Node22&#45;&gt;Node14</title>
<path fill="none" stroke="midnightblue" d="M560.696,-340.872C536.535,-324.253 504.395,-295.897 522.699,-272 530.539,-261.764 595.495,-245.743 647.099,-234.392"/>
<polygon fill="midnightblue" stroke="midnightblue" points="558.853,-343.849 569.128,-346.434 562.707,-338.006 558.853,-343.849"/>
</g>
<!-- Node22&#45;&gt;Node16 -->
<g id="edge56" class="edge"><title>Node22&#45;&gt;Node16</title>
<path fill="none" stroke="midnightblue" d="M660.745,-346.591C773.657,-334.075 972.333,-311.242 986.699,-304 1047.68,-273.262 1090.28,-198.389 1106,-167.103"/>
<polygon fill="midnightblue" stroke="midnightblue" points="660.318,-343.117 650.764,-347.696 661.088,-350.075 660.318,-343.117"/>
</g>
<!-- Node22&#45;&gt;Node17 -->
<g id="edge57" class="edge"><title>Node22&#45;&gt;Node17</title>
<path fill="none" stroke="midnightblue" d="M661.099,-346.13C681.447,-343.957 703.385,-341.753 723.699,-340 784.603,-334.743 1230.91,-348.618 1272.7,-304 1291.88,-283.524 1277.97,-246.417 1270.11,-229.644"/>
<polygon fill="midnightblue" stroke="midnightblue" points="660.504,-342.674 650.938,-347.227 661.256,-349.634 660.504,-342.674"/>
</g>
<!-- Node22&#45;&gt;Node18 -->
<g id="edge58" class="edge"><title>Node22&#45;&gt;Node18</title>
<path fill="none" stroke="midnightblue" d="M661.093,-345.829C770.913,-332.649 959.361,-309.345 964.699,-304 984.626,-284.047 980.668,-246.67 977.582,-229.736"/>
<polygon fill="midnightblue" stroke="midnightblue" points="660.558,-342.368 651.046,-347.033 661.391,-349.319 660.558,-342.368"/>
</g>
<!-- Node22&#45;&gt;Node19 -->
<g id="edge59" class="edge"><title>Node22&#45;&gt;Node19</title>
<path fill="none" stroke="midnightblue" d="M569.418,-338.222C555.737,-320.038 539.392,-291.071 555.699,-272 622.655,-193.696 697.321,-290.588 784.699,-236 811.088,-219.514 828.712,-186.148 837.077,-167.124"/>
<polygon fill="midnightblue" stroke="midnightblue" points="566.798,-340.55 575.766,-346.192 572.274,-336.189 566.798,-340.55"/>
</g>
<!-- Node22&#45;&gt;Node20 -->
<g id="edge54" class="edge"><title>Node22&#45;&gt;Node20</title>
<path fill="none" stroke="midnightblue" d="M506.517,-343.642C483.46,-336.246 460.637,-324.061 446.699,-304 438.584,-292.32 438.888,-283.885 446.699,-272 458.895,-253.443 479.436,-241.607 499.993,-234.07"/>
<polygon fill="midnightblue" stroke="midnightblue" points="505.808,-347.081 516.388,-346.528 507.772,-340.362 505.808,-347.081"/>
</g>
<!-- Node22&#45;&gt;Node21 -->
<g id="edge55" class="edge"><title>Node22&#45;&gt;Node21</title>
<path fill="none" stroke="midnightblue" d="M633.433,-344.343C686.094,-333.058 769.423,-315.202 827.124,-302.837"/>
<polygon fill="midnightblue" stroke="midnightblue" points="632.693,-340.922 623.649,-346.439 634.16,-347.766 632.693,-340.922"/>
</g>
<!-- Node23 -->
<g id="node23" class="node"><title>Node23</title>
<g id="a_node23"><a xlink:href="scalar__low__impl_8h.html" target="_top" xlink:title="src/secp256k1/src/scalar\l_low_impl.h">
<polygon fill="white" stroke="black" points="230.699,-273 230.699,-303 356.699,-303 356.699,-273 230.699,-273"/>
<text text-anchor="start" x="238.699" y="-291" font-family="Helvetica,sans-Serif" font-size="10.00">src/secp256k1/src/scalar</text>
<text text-anchor="middle" x="293.699" y="-280" font-family="Helvetica,sans-Serif" font-size="10.00">_low_impl.h</text>
</a>
</g>
</g>
<!-- Node22&#45;&gt;Node23 -->
<g id="edge60" class="edge"><title>Node22&#45;&gt;Node23</title>
<path fill="none" stroke="midnightblue" d="M536.3,-344.213C486.938,-332.979 409.409,-315.334 355.323,-303.025"/>
<polygon fill="midnightblue" stroke="midnightblue" points="535.556,-347.633 546.084,-346.439 537.11,-340.807 535.556,-347.633"/>
</g>
</g>
</svg>
