<?xml version="1.0" encoding="UTF-8" standalone="no"?>
<!DOCTYPE svg PUBLIC "-//W3C//DTD SVG 1.1//EN"
 "http://www.w3.org/Graphics/SVG/1.1/DTD/svg11.dtd">
<!-- Generated by graphviz version 2.36.0 (20140111.2315)
 -->
<!-- Title: src/immer/detail/rbts/operations.hpp Pages: 1 -->
<svg width="564pt" height="244pt"
 viewBox="0.00 0.00 564.00 244.00" xmlns="http://www.w3.org/2000/svg" xmlns:xlink="http://www.w3.org/1999/xlink">
<g id="graph0" class="graph" transform="scale(1 1) rotate(0) translate(4 240)">
<title>src/immer/detail/rbts/operations.hpp</title>
<polygon fill="white" stroke="none" points="-4,4 -4,-240 560,-240 560,4 -4,4"/>
<!-- Node17 -->
<g id="node1" class="node"><title>Node17</title>
<polygon fill="#bfbfbf" stroke="black" points="244,-205 244,-235 350,-235 350,-205 244,-205"/>
<text text-anchor="start" x="252" y="-223" font-family="Helvetica,sans-Serif" font-size="10.00">src/immer/detail/rbts</text>
<text text-anchor="middle" x="297" y="-212" font-family="Helvetica,sans-Serif" font-size="10.00">/operations.hpp</text>
</g>
<!-- Node18 -->
<g id="node2" class="node"><title>Node18</title>
<g id="a_node2"><a xlink:href="rbtree_8hpp.html" target="_top" xlink:title="src/immer/detail/rbts\l/rbtree.hpp">
<polygon fill="white" stroke="black" points="122,-137 122,-167 228,-167 228,-137 122,-137"/>
<text text-anchor="start" x="130" y="-155" font-family="Helvetica,sans-Serif" font-size="10.00">src/immer/detail/rbts</text>
<text text-anchor="middle" x="175" y="-144" font-family="Helvetica,sans-Serif" font-size="10.00">/rbtree.hpp</text>
</a>
</g>
</g>
<!-- Node17&#45;&gt;Node18 -->
<g id="edge1" class="edge"><title>Node17&#45;&gt;Node18</title>
<path fill="none" stroke="midnightblue" d="M261.98,-200.055C242.588,-189.564 218.889,-176.743 201.129,-167.135"/>
<polygon fill="midnightblue" stroke="midnightblue" points="260.367,-203.162 270.828,-204.841 263.698,-197.005 260.367,-203.162"/>
</g>
<!-- Node22 -->
<g id="node6" class="node"><title>Node22</title>
<g id="a_node6"><a xlink:href="rrbtree_8hpp.html" target="_top" xlink:title="src/immer/detail/rbts\l/rrbtree.hpp">
<polygon fill="white" stroke="black" points="326,-137 326,-167 432,-167 432,-137 326,-137"/>
<text text-anchor="start" x="334" y="-155" font-family="Helvetica,sans-Serif" font-size="10.00">src/immer/detail/rbts</text>
<text text-anchor="middle" x="379" y="-144" font-family="Helvetica,sans-Serif" font-size="10.00">/rrbtree.hpp</text>
</a>
</g>
</g>
<!-- Node17&#45;&gt;Node22 -->
<g id="edge7" class="edge"><title>Node17&#45;&gt;Node22</title>
<path fill="none" stroke="midnightblue" d="M322.706,-198.309C335.338,-188.143 350.23,-176.156 361.524,-167.066"/>
<polygon fill="midnightblue" stroke="midnightblue" points="320.388,-195.682 314.793,-204.679 324.777,-201.135 320.388,-195.682"/>
</g>
<!-- Node19 -->
<g id="node3" class="node"><title>Node19</title>
<g id="a_node3"><a xlink:href="rbtree__iterator_8hpp.html" target="_top" xlink:title="src/immer/detail/rbts\l/rbtree_iterator.hpp">
<polygon fill="white" stroke="black" points="82,-69 82,-99 188,-99 188,-69 82,-69"/>
<text text-anchor="start" x="90" y="-87" font-family="Helvetica,sans-Serif" font-size="10.00">src/immer/detail/rbts</text>
<text text-anchor="middle" x="135" y="-76" font-family="Helvetica,sans-Serif" font-size="10.00">/rbtree_iterator.hpp</text>
</a>
</g>
</g>
<!-- Node18&#45;&gt;Node19 -->
<g id="edge2" class="edge"><title>Node18&#45;&gt;Node19</title>
<path fill="none" stroke="midnightblue" d="M161.072,-128.019C155.283,-118.467 148.744,-107.677 143.662,-99.2931"/>
<polygon fill="midnightblue" stroke="midnightblue" points="158.144,-129.941 166.321,-136.679 164.131,-126.313 158.144,-129.941"/>
</g>
<!-- Node20 -->
<g id="node4" class="node"><title>Node20</title>
<g id="a_node4"><a xlink:href="vector_8hpp.html" target="_top" xlink:title="src/immer/vector.hpp">
<polygon fill="white" stroke="black" points="-0.5,-6.5 -0.5,-25.5 108.5,-25.5 108.5,-6.5 -0.5,-6.5"/>
<text text-anchor="middle" x="54" y="-13.5" font-family="Helvetica,sans-Serif" font-size="10.00">src/immer/vector.hpp</text>
</a>
</g>
</g>
<!-- Node18&#45;&gt;Node20 -->
<g id="edge5" class="edge"><title>Node18&#45;&gt;Node20</title>
<path fill="none" stroke="midnightblue" d="M117.106,-132.751C100.726,-125.021 84.3006,-114.379 73,-100 55.462,-77.6846 53.5435,-42.1548 53.6804,-25.7846"/>
<polygon fill="midnightblue" stroke="midnightblue" points="116.144,-136.151 126.707,-136.972 118.961,-129.743 116.144,-136.151"/>
</g>
<!-- Node21 -->
<g id="node5" class="node"><title>Node21</title>
<g id="a_node5"><a xlink:href="vector__transient_8hpp.html" target="_top" xlink:title="src/immer/vector_transient.hpp">
<polygon fill="white" stroke="black" points="127,-6.5 127,-25.5 279,-25.5 279,-6.5 127,-6.5"/>
<text text-anchor="middle" x="203" y="-13.5" font-family="Helvetica,sans-Serif" font-size="10.00">src/immer/vector_transient.hpp</text>
</a>
</g>
</g>
<!-- Node18&#45;&gt;Node21 -->
<g id="edge6" class="edge"><title>Node18&#45;&gt;Node21</title>
<path fill="none" stroke="midnightblue" d="M186.471,-127.427C190.111,-118.965 193.767,-109.231 196,-100 202.393,-73.5759 203.171,-41.1997 203.134,-25.8643"/>
<polygon fill="midnightblue" stroke="midnightblue" points="183.223,-126.115 182.291,-136.669 189.601,-128.999 183.223,-126.115"/>
</g>
<!-- Node19&#45;&gt;Node20 -->
<g id="edge3" class="edge"><title>Node19&#45;&gt;Node20</title>
<path fill="none" stroke="midnightblue" d="M109.464,-62.1927C94.4268,-49.9403 76.1873,-35.0785 64.8347,-25.8283"/>
<polygon fill="midnightblue" stroke="midnightblue" points="107.461,-65.0755 117.424,-68.679 111.883,-59.6489 107.461,-65.0755"/>
</g>
<!-- Node19&#45;&gt;Node21 -->
<g id="edge4" class="edge"><title>Node19&#45;&gt;Node21</title>
<path fill="none" stroke="midnightblue" d="M157.142,-61.5094C169.627,-49.3918 184.55,-34.9072 193.904,-25.8283"/>
<polygon fill="midnightblue" stroke="midnightblue" points="154.493,-59.2027 149.755,-68.679 159.368,-64.2257 154.493,-59.2027"/>
</g>
<!-- Node23 -->
<g id="node7" class="node"><title>Node23</title>
<g id="a_node7"><a xlink:href="rrbtree__iterator_8hpp.html" target="_top" xlink:title="src/immer/detail/rbts\l/rrbtree_iterator.hpp">
<polygon fill="white" stroke="black" points="367,-69 367,-99 473,-99 473,-69 367,-69"/>
<text text-anchor="start" x="375" y="-87" font-family="Helvetica,sans-Serif" font-size="10.00">src/immer/detail/rbts</text>
<text text-anchor="middle" x="420" y="-76" font-family="Helvetica,sans-Serif" font-size="10.00">/rrbtree_iterator.hpp</text>
</a>
</g>
</g>
<!-- Node22&#45;&gt;Node23 -->
<g id="edge8" class="edge"><title>Node22&#45;&gt;Node23</title>
<path fill="none" stroke="midnightblue" d="M393.276,-128.019C399.21,-118.467 405.913,-107.677 411.121,-99.2931"/>
<polygon fill="midnightblue" stroke="midnightblue" points="390.2,-126.338 387.896,-136.679 396.146,-130.031 390.2,-126.338"/>
</g>
<!-- Node24 -->
<g id="node8" class="node"><title>Node24</title>
<g id="a_node8"><a xlink:href="flex__vector_8hpp.html" target="_top" xlink:title="src/immer/flex_vector.hpp">
<polygon fill="white" stroke="black" points="297,-6.5 297,-25.5 427,-25.5 427,-6.5 297,-6.5"/>
<text text-anchor="middle" x="362" y="-13.5" font-family="Helvetica,sans-Serif" font-size="10.00">src/immer/flex_vector.hpp</text>
</a>
</g>
</g>
<!-- Node22&#45;&gt;Node24 -->
<g id="edge11" class="edge"><title>Node22&#45;&gt;Node24</title>
<path fill="none" stroke="midnightblue" d="M367.089,-127.523C363.411,-119.07 359.843,-109.317 358,-100 352.737,-73.3939 357.361,-41.1031 360.189,-25.8258"/>
<polygon fill="midnightblue" stroke="midnightblue" points="363.982,-129.143 371.362,-136.745 370.334,-126.2 363.982,-129.143"/>
</g>
<!-- Node25 -->
<g id="node9" class="node"><title>Node25</title>
<g id="a_node9"><a xlink:href="flex__vector__transient_8hpp.html" target="_top" xlink:title="src/immer/flex_vector\l_transient.hpp">
<polygon fill="white" stroke="black" points="445.5,-1 445.5,-31 556.5,-31 556.5,-1 445.5,-1"/>
<text text-anchor="start" x="453.5" y="-19" font-family="Helvetica,sans-Serif" font-size="10.00">src/immer/flex_vector</text>
<text text-anchor="middle" x="501" y="-8" font-family="Helvetica,sans-Serif" font-size="10.00">_transient.hpp</text>
</a>
</g>
</g>
<!-- Node22&#45;&gt;Node25 -->
<g id="edge12" class="edge"><title>Node22&#45;&gt;Node25</title>
<path fill="none" stroke="midnightblue" d="M436.793,-132.672C453.169,-124.938 469.618,-114.314 481,-100 496.96,-79.9297 500.482,-49.0812 501.089,-31.1876"/>
<polygon fill="midnightblue" stroke="midnightblue" points="434.939,-129.664 427.198,-136.897 437.761,-136.07 434.939,-129.664"/>
</g>
<!-- Node23&#45;&gt;Node24 -->
<g id="edge9" class="edge"><title>Node23&#45;&gt;Node24</title>
<path fill="none" stroke="midnightblue" d="M400.812,-61.1658C390.226,-49.119 377.661,-34.8216 369.758,-25.8283"/>
<polygon fill="midnightblue" stroke="midnightblue" points="398.185,-63.4777 407.415,-68.679 403.443,-58.8569 398.185,-63.4777"/>
</g>
<!-- Node23&#45;&gt;Node25 -->
<g id="edge10" class="edge"><title>Node23&#45;&gt;Node25</title>
<path fill="none" stroke="midnightblue" d="M445.393,-62.3094C457.87,-52.1426 472.581,-40.1562 483.737,-31.0663"/>
<polygon fill="midnightblue" stroke="midnightblue" points="443.117,-59.6489 437.576,-68.679 447.539,-65.0755 443.117,-59.6489"/>
</g>
</g>
</svg>
