<?xml version="1.0" encoding="UTF-8" standalone="no"?>
<!DOCTYPE svg PUBLIC "-//W3C//DTD SVG 1.1//EN"
 "http://www.w3.org/Graphics/SVG/1.1/DTD/svg11.dtd">
<!-- Generated by graphviz version 2.36.0 (20140111.2315)
 -->
<!-- Title: src/qt/optionsmodel.h Pages: 1 -->
<!--zoomable 84 -->
<svg id="main" version="1.1" xmlns="http://www.w3.org/2000/svg" xmlns:xlink="http://www.w3.org/1999/xlink" xml:space="preserve" onload="init(evt)">
<style type="text/css"><![CDATA[
.edge:hover path { stroke: red; }
.edge:hover polygon { stroke: red; fill: red; }
]]></style>
<script type="text/javascript"><![CDATA[
var edges = document.getElementsByTagName('g');
if (edges && edges.length) {
  for (var i=0;i<edges.length;i++) {
    if (edges[i].id.substr(0,4)=='edge') {
      edges[i].setAttribute('class','edge');
    }
  }
}
]]></script>
        <defs>
                <circle id="rim" cx="0" cy="0" r="7"/>
                <circle id="rim2" cx="0" cy="0" r="3.5"/>
                <g id="zoomPlus">
                        <use xlink:href="#rim" fill="#404040">
                                <set attributeName="fill" to="#808080" begin="zoomplus.mouseover" end="zoomplus.mouseout"/>
                        </use>
                        <path d="M-4,0h8M0,-4v8" fill="none" stroke="white" stroke-width="1.5" pointer-events="none"/>
                </g>
                <g id="zoomMin">
                        <use xlink:href="#rim" fill="#404040">
                                <set attributeName="fill" to="#808080" begin="zoomminus.mouseover" end="zoomminus.mouseout"/>
                        </use>
                        <path d="M-4,0h8" fill="none" stroke="white" stroke-width="1.5" pointer-events="none"/>
                </g>
                <g id="dirArrow">
                        <path fill="none" stroke="white" stroke-width="1.5" d="M0,-3.0v7 M-2.5,-0.5L0,-3.0L2.5,-0.5"/>
                </g>
               <g id="resetDef">
                       <use xlink:href="#rim2" fill="#404040">
                               <set attributeName="fill" to="#808080" begin="reset.mouseover" end="reset.mouseout"/>
                       </use>
               </g>
        </defs>

<script type="text/javascript">
var viewWidth = 2324;
var viewHeight = 84;
var sectionId = 'dynsection-1';
</script>
<script xlink:href="svgpan.js"/>
<svg id="graph" class="graph">
<g id="viewport">
<title>src/qt/optionsmodel.h</title>
<polygon fill="white" stroke="none" points="-4,4 -4,-80 2320,-80 2320,4 -4,4"/>
<!-- Node22 -->
<g id="node1" class="node"><title>Node22</title>
<polygon fill="#bfbfbf" stroke="black" points="1006,-56.5 1006,-75.5 1116,-75.5 1116,-56.5 1006,-56.5"/>
<text text-anchor="middle" x="1061" y="-63.5" font-family="Helvetica,sans-Serif" font-size="10.00">src/qt/optionsmodel.h</text>
</g>
<!-- Node23 -->
<g id="node2" class="node"><title>Node23</title>
<g id="a_node2"><a xlink:href="bitcoingui_8cpp.html" target="_top" xlink:title="src/qt/bitcoingui.cpp">
<polygon fill="white" stroke="black" points="0,-0.5 0,-19.5 104,-19.5 104,-0.5 0,-0.5"/>
<text text-anchor="middle" x="52" y="-7.5" font-family="Helvetica,sans-Serif" font-size="10.00">src/qt/bitcoingui.cpp</text>
</a>
</g>
</g>
<!-- Node22&#45;&gt;Node23 -->
<g id="edge1" class="edge"><title>Node22&#45;&gt;Node23</title>
<path fill="none" stroke="midnightblue" d="M995.597,-64.1244C841.488,-61.5752 443.642,-52.1594 113,-20 110.123,-19.7202 107.175,-19.3993 104.202,-19.0491"/>
<polygon fill="midnightblue" stroke="midnightblue" points="995.775,-67.6276 1005.83,-64.2894 995.888,-60.6285 995.775,-67.6276"/>
</g>
<!-- Node24 -->
<g id="node3" class="node"><title>Node24</title>
<g id="a_node3"><a xlink:href="coincontroldialog_8cpp.html" target="_top" xlink:title="src/qt/coincontroldialog.cpp">
<polygon fill="white" stroke="black" points="122,-0.5 122,-19.5 258,-19.5 258,-0.5 122,-0.5"/>
<text text-anchor="middle" x="190" y="-7.5" font-family="Helvetica,sans-Serif" font-size="10.00">src/qt/coincontroldialog.cpp</text>
</a>
</g>
</g>
<!-- Node22&#45;&gt;Node24 -->
<g id="edge2" class="edge"><title>Node22&#45;&gt;Node24</title>
<path fill="none" stroke="midnightblue" d="M995.319,-62.6063C859.265,-57.3551 536.795,-43.3916 267,-20 264.184,-19.7559 261.312,-19.4912 258.412,-19.2111"/>
<polygon fill="midnightblue" stroke="midnightblue" points="995.442,-66.1135 1005.57,-62.999 995.71,-59.1186 995.442,-66.1135"/>
</g>
<!-- Node25 -->
<g id="node4" class="node"><title>Node25</title>
<g id="a_node4"><a xlink:href="dash_8cpp.html" target="_top" xlink:title="src/qt/dash.cpp">
<polygon fill="white" stroke="black" points="276,-0.5 276,-19.5 360,-19.5 360,-0.5 276,-0.5"/>
<text text-anchor="middle" x="318" y="-7.5" font-family="Helvetica,sans-Serif" font-size="10.00">src/qt/dash.cpp</text>
</a>
</g>
</g>
<!-- Node22&#45;&gt;Node25 -->
<g id="edge3" class="edge"><title>Node22&#45;&gt;Node25</title>
<path fill="none" stroke="midnightblue" d="M995.63,-63.1398C872.588,-59.1089 598.325,-47.6065 369,-20 366.144,-19.6561 363.204,-19.2576 360.248,-18.8235"/>
<polygon fill="midnightblue" stroke="midnightblue" points="995.536,-66.6385 1005.64,-63.4622 995.762,-59.6421 995.536,-66.6385"/>
</g>
<!-- Node26 -->
<g id="node5" class="node"><title>Node26</title>
<g id="a_node5"><a xlink:href="optionsdialog_8cpp.html" target="_top" xlink:title="src/qt/optionsdialog.cpp">
<polygon fill="white" stroke="black" points="378,-0.5 378,-19.5 498,-19.5 498,-0.5 378,-0.5"/>
<text text-anchor="middle" x="438" y="-7.5" font-family="Helvetica,sans-Serif" font-size="10.00">src/qt/optionsdialog.cpp</text>
</a>
</g>
</g>
<!-- Node22&#45;&gt;Node26 -->
<g id="edge4" class="edge"><title>Node22&#45;&gt;Node26</title>
<path fill="none" stroke="midnightblue" d="M995.876,-60.7413C892.239,-53.7318 683.452,-38.663 507,-20 504.117,-19.695 501.168,-19.3682 498.19,-19.0262"/>
<polygon fill="midnightblue" stroke="midnightblue" points="995.662,-64.2347 1005.87,-61.4145 996.132,-57.2505 995.662,-64.2347"/>
</g>
<!-- Node27 -->
<g id="node6" class="node"><title>Node27</title>
<g id="a_node6"><a xlink:href="optionsmodel_8cpp.html" target="_top" xlink:title="src/qt/optionsmodel.cpp">
<polygon fill="white" stroke="black" points="516.5,-0.5 516.5,-19.5 637.5,-19.5 637.5,-0.5 516.5,-0.5"/>
<text text-anchor="middle" x="577" y="-7.5" font-family="Helvetica,sans-Serif" font-size="10.00">src/qt/optionsmodel.cpp</text>
</a>
</g>
</g>
<!-- Node22&#45;&gt;Node27 -->
<g id="edge5" class="edge"><title>Node22&#45;&gt;Node27</title>
<path fill="none" stroke="midnightblue" d="M995.768,-58.3685C913.987,-49.953 769.525,-34.7513 646,-20 643.241,-19.6705 640.421,-19.3276 637.573,-18.9763"/>
<polygon fill="midnightblue" stroke="midnightblue" points="995.605,-61.8702 1005.91,-59.4105 996.321,-54.9068 995.605,-61.8702"/>
</g>
<!-- Node28 -->
<g id="node7" class="node"><title>Node28</title>
<g id="a_node7"><a xlink:href="overviewpage_8cpp.html" target="_top" xlink:title="src/qt/overviewpage.cpp">
<polygon fill="white" stroke="black" points="655.5,-0.5 655.5,-19.5 778.5,-19.5 778.5,-0.5 655.5,-0.5"/>
<text text-anchor="middle" x="717" y="-7.5" font-family="Helvetica,sans-Serif" font-size="10.00">src/qt/overviewpage.cpp</text>
</a>
</g>
</g>
<!-- Node22&#45;&gt;Node28 -->
<g id="edge6" class="edge"><title>Node22&#45;&gt;Node28</title>
<path fill="none" stroke="midnightblue" d="M996.364,-54.8537C931.369,-44.6509 832.289,-29.0977 771.253,-19.5164"/>
<polygon fill="midnightblue" stroke="midnightblue" points="996.07,-58.3503 1006.49,-56.4435 997.156,-51.435 996.07,-58.3503"/>
</g>
<!-- Node29 -->
<g id="node8" class="node"><title>Node29</title>
<g id="a_node8"><a xlink:href="paymentserver_8cpp.html" target="_top" xlink:title="src/qt/paymentserver.cpp">
<polygon fill="white" stroke="black" points="797,-0.5 797,-19.5 925,-19.5 925,-0.5 797,-0.5"/>
<text text-anchor="middle" x="861" y="-7.5" font-family="Helvetica,sans-Serif" font-size="10.00">src/qt/paymentserver.cpp</text>
</a>
</g>
</g>
<!-- Node22&#45;&gt;Node29 -->
<g id="edge7" class="edge"><title>Node22&#45;&gt;Node29</title>
<path fill="none" stroke="midnightblue" d="M1019.63,-53.8291C981.864,-43.6333 926.86,-28.7823 892.542,-19.5164"/>
<polygon fill="midnightblue" stroke="midnightblue" points="1018.74,-57.2158 1029.31,-56.4435 1020.57,-50.4578 1018.74,-57.2158"/>
</g>
<!-- Node30 -->
<g id="node9" class="node"><title>Node30</title>
<g id="a_node9"><a xlink:href="qrdialog_8cpp.html" target="_top" xlink:title="src/qt/qrdialog.cpp">
<polygon fill="white" stroke="black" points="943.5,-0.5 943.5,-19.5 1040.5,-19.5 1040.5,-0.5 943.5,-0.5"/>
<text text-anchor="middle" x="992" y="-7.5" font-family="Helvetica,sans-Serif" font-size="10.00">src/qt/qrdialog.cpp</text>
</a>
</g>
</g>
<!-- Node22&#45;&gt;Node30 -->
<g id="edge8" class="edge"><title>Node22&#45;&gt;Node30</title>
<path fill="none" stroke="midnightblue" d="M1041.96,-50.1008C1029.54,-40.3824 1013.76,-28.0269 1003.29,-19.8339"/>
<polygon fill="midnightblue" stroke="midnightblue" points="1039.88,-52.9171 1049.91,-56.324 1044.2,-47.4046 1039.88,-52.9171"/>
</g>
<!-- Node31 -->
<g id="node10" class="node"><title>Node31</title>
<g id="a_node10"><a xlink:href="receivecoinsdialog_8cpp.html" target="_top" xlink:title="src/qt/receivecoinsdialog.cpp">
<polygon fill="white" stroke="black" points="1058.5,-0.5 1058.5,-19.5 1201.5,-19.5 1201.5,-0.5 1058.5,-0.5"/>
<text text-anchor="middle" x="1130" y="-7.5" font-family="Helvetica,sans-Serif" font-size="10.00">src/qt/receivecoinsdialog.cpp</text>
</a>
</g>
</g>
<!-- Node22&#45;&gt;Node31 -->
<g id="edge9" class="edge"><title>Node22&#45;&gt;Node31</title>
<path fill="none" stroke="midnightblue" d="M1080.04,-50.1008C1092.46,-40.3824 1108.24,-28.0269 1118.71,-19.8339"/>
<polygon fill="midnightblue" stroke="midnightblue" points="1077.8,-47.4046 1072.09,-56.324 1082.12,-52.9171 1077.8,-47.4046"/>
</g>
<!-- Node32 -->
<g id="node11" class="node"><title>Node32</title>
<g id="a_node11"><a xlink:href="receiverequestdialog_8cpp.html" target="_top" xlink:title="src/qt/receiverequestdialog.cpp">
<polygon fill="white" stroke="black" points="1220,-0.5 1220,-19.5 1372,-19.5 1372,-0.5 1220,-0.5"/>
<text text-anchor="middle" x="1296" y="-7.5" font-family="Helvetica,sans-Serif" font-size="10.00">src/qt/receiverequestdialog.cpp</text>
</a>
</g>
</g>
<!-- Node22&#45;&gt;Node32 -->
<g id="edge10" class="edge"><title>Node22&#45;&gt;Node32</title>
<path fill="none" stroke="midnightblue" d="M1108.21,-54.1529C1152.61,-43.95 1218.19,-28.8809 1258.94,-19.5164"/>
<polygon fill="midnightblue" stroke="midnightblue" points="1107.2,-50.7929 1098.24,-56.4435 1108.77,-57.6151 1107.2,-50.7929"/>
</g>
<!-- Node33 -->
<g id="node12" class="node"><title>Node33</title>
<g id="a_node12"><a xlink:href="recentrequeststablemodel_8cpp.html" target="_top" xlink:title="src/qt/recentrequeststablemodel.cpp">
<polygon fill="white" stroke="black" points="1390.5,-0.5 1390.5,-19.5 1565.5,-19.5 1565.5,-0.5 1390.5,-0.5"/>
<text text-anchor="middle" x="1478" y="-7.5" font-family="Helvetica,sans-Serif" font-size="10.00">src/qt/recentrequeststablemodel.cpp</text>
</a>
</g>
</g>
<!-- Node22&#45;&gt;Node33 -->
<g id="edge11" class="edge"><title>Node22&#45;&gt;Node33</title>
<path fill="none" stroke="midnightblue" d="M1126.56,-56.5106C1204.53,-46.4132 1333.94,-29.6555 1412.07,-19.5371"/>
<polygon fill="midnightblue" stroke="midnightblue" points="1125.84,-53.0739 1116.37,-57.8292 1126.74,-60.0159 1125.84,-53.0739"/>
</g>
<!-- Node34 -->
<g id="node13" class="node"><title>Node34</title>
<g id="a_node13"><a xlink:href="sendcoinsdialog_8cpp.html" target="_top" xlink:title="src/qt/sendcoinsdialog.cpp">
<polygon fill="white" stroke="black" points="1583.5,-0.5 1583.5,-19.5 1716.5,-19.5 1716.5,-0.5 1583.5,-0.5"/>
<text text-anchor="middle" x="1650" y="-7.5" font-family="Helvetica,sans-Serif" font-size="10.00">src/qt/sendcoinsdialog.cpp</text>
</a>
</g>
</g>
<!-- Node22&#45;&gt;Node34 -->
<g id="edge12" class="edge"><title>Node22&#45;&gt;Node34</title>
<path fill="none" stroke="midnightblue" d="M1126.09,-59.9278C1223.55,-52.1884 1413.16,-36.5736 1574,-20 1577.04,-19.6868 1580.15,-19.3572 1583.28,-19.0167"/>
<polygon fill="midnightblue" stroke="midnightblue" points="1125.78,-56.4408 1116.09,-60.7196 1126.34,-63.4189 1125.78,-56.4408"/>
</g>
<!-- Node35 -->
<g id="node14" class="node"><title>Node35</title>
<g id="a_node14"><a xlink:href="sendcoinsentry_8cpp.html" target="_top" xlink:title="src/qt/sendcoinsentry.cpp">
<polygon fill="white" stroke="black" points="1734.5,-0.5 1734.5,-19.5 1863.5,-19.5 1863.5,-0.5 1734.5,-0.5"/>
<text text-anchor="middle" x="1799" y="-7.5" font-family="Helvetica,sans-Serif" font-size="10.00">src/qt/sendcoinsentry.cpp</text>
</a>
</g>
</g>
<!-- Node22&#45;&gt;Node35 -->
<g id="edge13" class="edge"><title>Node22&#45;&gt;Node35</title>
<path fill="none" stroke="midnightblue" d="M1126.22,-61.7372C1245.32,-55.5216 1505.93,-40.7303 1725,-20 1728.09,-19.7074 1731.26,-19.3905 1734.45,-19.0566"/>
<polygon fill="midnightblue" stroke="midnightblue" points="1125.98,-58.245 1116.17,-62.2588 1126.34,-65.2356 1125.98,-58.245"/>
</g>
<!-- Node36 -->
<g id="node15" class="node"><title>Node36</title>
<g id="a_node15"><a xlink:href="transactiontablemodel_8cpp.html" target="_top" xlink:title="src/qt/transactiontablemodel.cpp">
<polygon fill="white" stroke="black" points="1882,-0.5 1882,-19.5 2040,-19.5 2040,-0.5 1882,-0.5"/>
<text text-anchor="middle" x="1961" y="-7.5" font-family="Helvetica,sans-Serif" font-size="10.00">src/qt/transactiontablemodel.cpp</text>
</a>
</g>
</g>
<!-- Node22&#45;&gt;Node36 -->
<g id="edge14" class="edge"><title>Node22&#45;&gt;Node36</title>
<path fill="none" stroke="midnightblue" d="M1126.51,-62.3738C1264.52,-56.6196 1595.23,-41.6615 1872,-20 1875.25,-19.7455 1878.57,-19.4722 1881.92,-19.1849"/>
<polygon fill="midnightblue" stroke="midnightblue" points="1125.97,-58.8932 1116.12,-62.8047 1126.26,-65.8872 1125.97,-58.8932"/>
</g>
<!-- Node37 -->
<g id="node16" class="node"><title>Node37</title>
<g id="a_node16"><a xlink:href="transactionview_8cpp.html" target="_top" xlink:title="src/qt/transactionview.cpp">
<polygon fill="white" stroke="black" points="2058.5,-0.5 2058.5,-19.5 2189.5,-19.5 2189.5,-0.5 2058.5,-0.5"/>
<text text-anchor="middle" x="2124" y="-7.5" font-family="Helvetica,sans-Serif" font-size="10.00">src/qt/transactionview.cpp</text>
</a>
</g>
</g>
<!-- Node22&#45;&gt;Node37 -->
<g id="edge15" class="edge"><title>Node22&#45;&gt;Node37</title>
<path fill="none" stroke="midnightblue" d="M1126.25,-63.6562C1284.51,-60.0416 1701.3,-48.3945 2048,-20 2051.31,-19.7289 2054.7,-19.4249 2058.12,-19.097"/>
<polygon fill="midnightblue" stroke="midnightblue" points="1126.12,-60.1582 1116.2,-63.8828 1126.27,-67.1564 1126.12,-60.1582"/>
</g>
<!-- Node38 -->
<g id="node17" class="node"><title>Node38</title>
<g id="a_node17"><a xlink:href="walletview_8cpp.html" target="_top" xlink:title="src/qt/walletview.cpp">
<polygon fill="white" stroke="black" points="2207.5,-0.5 2207.5,-19.5 2316.5,-19.5 2316.5,-0.5 2207.5,-0.5"/>
<text text-anchor="middle" x="2262" y="-7.5" font-family="Helvetica,sans-Serif" font-size="10.00">src/qt/walletview.cpp</text>
</a>
</g>
</g>
<!-- Node22&#45;&gt;Node38 -->
<g id="edge16" class="edge"><title>Node22&#45;&gt;Node38</title>
<path fill="none" stroke="midnightblue" d="M1126.18,-64.7016C1300.43,-63.4105 1791.43,-56.5398 2198,-20 2201.02,-19.7288 2204.11,-19.4147 2207.23,-19.0698"/>
<polygon fill="midnightblue" stroke="midnightblue" points="1126.12,-61.2018 1116.15,-64.7723 1126.17,-68.2016 1126.12,-61.2018"/>
</g>
</g>
</svg>
        <g id="navigator" transform="translate(0 0)" fill="#404254">
                <rect fill="#f2f5e9" fill-opacity="0.5" stroke="#606060" stroke-width=".5" x="0" y="0" width="60" height="60"/>
                <use id="zoomplus" xlink:href="#zoomPlus" x="17" y="9" onmousedown="handleZoom(evt,'in')"/>
                <use id="zoomminus" xlink:href="#zoomMin" x="42" y="9" onmousedown="handleZoom(evt,'out')"/>
                <use id="reset" xlink:href="#resetDef" x="30" y="36" onmousedown="handleReset()"/>
                <g id="arrowUp" xlink:href="#dirArrow" transform="translate(30 24)" onmousedown="handlePan(0,-1)">
                  <use xlink:href="#rim" fill="#404040">
                        <set attributeName="fill" to="#808080" begin="arrowUp.mouseover" end="arrowUp.mouseout"/>
                  </use>
                  <path fill="none" stroke="white" stroke-width="1.5" d="M0,-3.0v7 M-2.5,-0.5L0,-3.0L2.5,-0.5"/>
                </g>
                <g id="arrowRight" xlink:href="#dirArrow" transform="rotate(90) translate(36 -43)" onmousedown="handlePan(1,0)">
                  <use xlink:href="#rim" fill="#404040">
                        <set attributeName="fill" to="#808080" begin="arrowRight.mouseover" end="arrowRight.mouseout"/>
                  </use>
                  <path fill="none" stroke="white" stroke-width="1.5" d="M0,-3.0v7 M-2.5,-0.5L0,-3.0L2.5,-0.5"/>
                </g>
                <g id="arrowDown" xlink:href="#dirArrow" transform="rotate(180) translate(-30 -48)" onmousedown="handlePan(0,1)">
                  <use xlink:href="#rim" fill="#404040">
                        <set attributeName="fill" to="#808080" begin="arrowDown.mouseover" end="arrowDown.mouseout"/>
                  </use>
                  <path fill="none" stroke="white" stroke-width="1.5" d="M0,-3.0v7 M-2.5,-0.5L0,-3.0L2.5,-0.5"/>
                </g>
                <g id="arrowLeft" xlink:href="#dirArrow" transform="rotate(270) translate(-36 17)" onmousedown="handlePan(-1,0)">
                  <use xlink:href="#rim" fill="#404040">
                        <set attributeName="fill" to="#808080" begin="arrowLeft.mouseover" end="arrowLeft.mouseout"/>
                  </use>
                  <path fill="none" stroke="white" stroke-width="1.5" d="M0,-3.0v7 M-2.5,-0.5L0,-3.0L2.5,-0.5"/>
                </g>
        </g>
        <svg viewBox="0 0 15 15" width="100%" height="30px" preserveAspectRatio="xMaxYMin meet">
         <g id="arrow_out" transform="scale(0.3 0.3)">
          <a xlink:href="optionsmodel_8h__dep__incl_org.svg" target="_base">
           <rect id="button" ry="5" rx="5" y="6" x="6" height="38" width="38"
                fill="#f2f5e9" fill-opacity="0.5" stroke="#606060" stroke-width="1.0"/>
           <path id="arrow"
             d="M 11.500037,31.436501 C 11.940474,20.09759 22.043105,11.32322 32.158766,21.979434 L 37.068811,17.246167 C 37.068811,17.246167 37.088388,32 37.088388,32 L 22.160133,31.978069 C 22.160133,31.978069 26.997745,27.140456 26.997745,27.140456 C 18.528582,18.264221 13.291696,25.230495 11.500037,31.436501 z"
             style="fill:#404040;"/>
          </a>
         </g>
        </svg>
</svg>
