<?xml version="1.0" encoding="UTF-8" standalone="no"?>
<!DOCTYPE svg PUBLIC "-//W3C//DTD SVG 1.1//EN"
 "http://www.w3.org/Graphics/SVG/1.1/DTD/svg11.dtd">
<!-- Generated by graphviz version 2.36.0 (20140111.2315)
 -->
<!-- Title: src/secp256k1/src/java/org_bitcoin_Secp256k1Context.h Pages: 1 -->
<svg width="188pt" height="152pt"
 viewBox="0.00 0.00 188.00 152.00" xmlns="http://www.w3.org/2000/svg" xmlns:xlink="http://www.w3.org/1999/xlink">
<g id="graph0" class="graph" transform="scale(1 1) rotate(0) translate(4 148)">
<title>src/secp256k1/src/java/org_bitcoin_Secp256k1Context.h</title>
<polygon fill="white" stroke="none" points="-4,4 -4,-148 184,-148 184,4 -4,4"/>
<!-- Node0 -->
<g id="node1" class="node"><title>Node0</title>
<polygon fill="#bfbfbf" stroke="black" points="0,-113 0,-143 164,-143 164,-113 0,-113"/>
<text text-anchor="start" x="8" y="-131" font-family="Helvetica,sans-Serif" font-size="10.00">src/secp256k1/src/java</text>
<text text-anchor="middle" x="82" y="-120" font-family="Helvetica,sans-Serif" font-size="10.00">/org_bitcoin_Secp256k1Context.h</text>
</g>
<!-- Node1 -->
<g id="node2" class="node"><title>Node1</title>
<polygon fill="white" stroke="#bfbfbf" points="20.5,-56.5 20.5,-75.5 55.5,-75.5 55.5,-56.5 20.5,-56.5"/>
<text text-anchor="middle" x="38" y="-63.5" font-family="Helvetica,sans-Serif" font-size="10.00">jni.h</text>
</g>
<!-- Node0&#45;&gt;Node1 -->
<g id="edge1" class="edge"><title>Node0&#45;&gt;Node1</title>
<path fill="none" stroke="midnightblue" d="M71.5726,-112.781C65.2448,-104.152 57.1314,-93.0882 50.4657,-83.9987"/>
<polygon fill="midnightblue" stroke="midnightblue" points="53.1385,-81.7248 44.4024,-75.7305 47.4936,-85.8644 53.1385,-81.7248"/>
</g>
<!-- Node2 -->
<g id="node3" class="node"><title>Node2</title>
<g id="a_node3"><a xlink:href="secp256k1_8h.html" target="_top" xlink:title="include/secp256k1.h">
<polygon fill="white" stroke="black" points="74,-56.5 74,-75.5 180,-75.5 180,-56.5 74,-56.5"/>
<text text-anchor="middle" x="127" y="-63.5" font-family="Helvetica,sans-Serif" font-size="10.00">include/secp256k1.h</text>
</a>
</g>
</g>
<!-- Node0&#45;&gt;Node2 -->
<g id="edge2" class="edge"><title>Node0&#45;&gt;Node2</title>
<path fill="none" stroke="midnightblue" d="M92.6644,-112.781C99.136,-104.152 107.434,-93.0882 114.251,-83.9987"/>
<polygon fill="midnightblue" stroke="midnightblue" points="117.252,-85.8306 120.452,-75.7305 111.652,-81.6305 117.252,-85.8306"/>
</g>
<!-- Node3 -->
<g id="node4" class="node"><title>Node3</title>
<polygon fill="white" stroke="#bfbfbf" points="101,-0.5 101,-19.5 153,-19.5 153,-0.5 101,-0.5"/>
<text text-anchor="middle" x="127" y="-7.5" font-family="Helvetica,sans-Serif" font-size="10.00">stddef.h</text>
</g>
<!-- Node2&#45;&gt;Node3 -->
<g id="edge3" class="edge"><title>Node2&#45;&gt;Node3</title>
<path fill="none" stroke="midnightblue" d="M127,-56.083C127,-49.0059 127,-38.8611 127,-29.9865"/>
<polygon fill="midnightblue" stroke="midnightblue" points="130.5,-29.751 127,-19.7511 123.5,-29.7511 130.5,-29.751"/>
</g>
</g>
</svg>
