<?xml version="1.0" encoding="UTF-8" standalone="no"?>
<!DOCTYPE svg PUBLIC "-//W3C//DTD SVG 1.1//EN"
 "http://www.w3.org/Graphics/SVG/1.1/DTD/svg11.dtd">
<!-- Generated by graphviz version 2.36.0 (20140111.2315)
 -->
<!-- Title: src/secp256k1/src/java/org_bitcoin_NativeSecp256k1.c Pages: 1 -->
<svg width="719pt" height="208pt"
 viewBox="0.00 0.00 719.00 208.00" xmlns="http://www.w3.org/2000/svg" xmlns:xlink="http://www.w3.org/1999/xlink">
<g id="graph0" class="graph" transform="scale(1 1) rotate(0) translate(4 204)">
<title>src/secp256k1/src/java/org_bitcoin_NativeSecp256k1.c</title>
<polygon fill="white" stroke="none" points="-4,4 -4,-204 715,-204 715,4 -4,4"/>
<!-- Node0 -->
<g id="node1" class="node"><title>Node0</title>
<polygon fill="#bfbfbf" stroke="black" points="199,-169 199,-199 357,-199 357,-169 199,-169"/>
<text text-anchor="start" x="207" y="-187" font-family="Helvetica,sans-Serif" font-size="10.00">src/secp256k1/src/java</text>
<text text-anchor="middle" x="278" y="-176" font-family="Helvetica,sans-Serif" font-size="10.00">/org_bitcoin_NativeSecp256k1.c</text>
</g>
<!-- Node1 -->
<g id="node2" class="node"><title>Node1</title>
<polygon fill="white" stroke="#bfbfbf" points="0,-112.5 0,-131.5 48,-131.5 48,-112.5 0,-112.5"/>
<text text-anchor="middle" x="24" y="-119.5" font-family="Helvetica,sans-Serif" font-size="10.00">stdlib.h</text>
</g>
<!-- Node0&#45;&gt;Node1 -->
<g id="edge1" class="edge"><title>Node0&#45;&gt;Node1</title>
<path fill="none" stroke="midnightblue" d="M214.011,-168.934C172.131,-159.566 115.991,-146.704 57.8486,-132.144"/>
<polygon fill="midnightblue" stroke="midnightblue" points="58.6735,-128.742 48.1217,-129.697 56.9655,-135.531 58.6735,-128.742"/>
</g>
<!-- Node2 -->
<g id="node3" class="node"><title>Node2</title>
<polygon fill="white" stroke="#bfbfbf" points="66.5,-112.5 66.5,-131.5 115.5,-131.5 115.5,-112.5 66.5,-112.5"/>
<text text-anchor="middle" x="91" y="-119.5" font-family="Helvetica,sans-Serif" font-size="10.00">stdint.h</text>
</g>
<!-- Node0&#45;&gt;Node2 -->
<g id="edge2" class="edge"><title>Node0&#45;&gt;Node2</title>
<path fill="none" stroke="midnightblue" d="M234.157,-168.933C200.987,-158.29 156.071,-143.878 125.453,-134.055"/>
<polygon fill="midnightblue" stroke="midnightblue" points="126.247,-130.634 115.656,-130.911 124.108,-137.299 126.247,-130.634"/>
</g>
<!-- Node3 -->
<g id="node4" class="node"><title>Node3</title>
<polygon fill="white" stroke="#bfbfbf" points="133.5,-112.5 133.5,-131.5 182.5,-131.5 182.5,-112.5 133.5,-112.5"/>
<text text-anchor="middle" x="158" y="-119.5" font-family="Helvetica,sans-Serif" font-size="10.00">string.h</text>
</g>
<!-- Node0&#45;&gt;Node3 -->
<g id="edge3" class="edge"><title>Node0&#45;&gt;Node3</title>
<path fill="none" stroke="midnightblue" d="M249.865,-168.933C230.072,-159.036 203.761,-145.88 184.37,-136.185"/>
<polygon fill="midnightblue" stroke="midnightblue" points="185.71,-132.942 175.2,-131.6 182.579,-139.203 185.71,-132.942"/>
</g>
<!-- Node4 -->
<g id="node5" class="node"><title>Node4</title>
<g id="a_node5"><a xlink:href="org__bitcoin___native_secp256k1_8h.html" target="_top" xlink:title="org_bitcoin_NativeSecp256k1.h">
<polygon fill="white" stroke="black" points="200.5,-112.5 200.5,-131.5 355.5,-131.5 355.5,-112.5 200.5,-112.5"/>
<text text-anchor="middle" x="278" y="-119.5" font-family="Helvetica,sans-Serif" font-size="10.00">org_bitcoin_NativeSecp256k1.h</text>
</a>
</g>
</g>
<!-- Node0&#45;&gt;Node4 -->
<g id="edge4" class="edge"><title>Node0&#45;&gt;Node4</title>
<path fill="none" stroke="midnightblue" d="M278,-168.781C278,-160.781 278,-150.689 278,-142.017"/>
<polygon fill="midnightblue" stroke="midnightblue" points="281.5,-141.73 278,-131.731 274.5,-141.731 281.5,-141.73"/>
</g>
<!-- Node6 -->
<g id="node7" class="node"><title>Node6</title>
<g id="a_node7"><a xlink:href="secp256k1_8h.html" target="_top" xlink:title="include/secp256k1.h">
<polygon fill="white" stroke="black" points="378,-56.5 378,-75.5 484,-75.5 484,-56.5 378,-56.5"/>
<text text-anchor="middle" x="431" y="-63.5" font-family="Helvetica,sans-Serif" font-size="10.00">include/secp256k1.h</text>
</a>
</g>
</g>
<!-- Node0&#45;&gt;Node6 -->
<g id="edge8" class="edge"><title>Node0&#45;&gt;Node6</title>
<path fill="none" stroke="midnightblue" d="M305.389,-168.918C322.825,-159.439 345.522,-146.128 364,-132 383.587,-117.024 403.557,-96.8911 416.537,-83.02"/>
<polygon fill="midnightblue" stroke="midnightblue" points="419.113,-85.3888 423.315,-75.6629 413.965,-80.6456 419.113,-85.3888"/>
</g>
<!-- Node8 -->
<g id="node9" class="node"><title>Node8</title>
<g id="a_node9"><a xlink:href="secp256k1__ecdh_8h.html" target="_top" xlink:title="include/secp256k1_ecdh.h">
<polygon fill="white" stroke="black" points="412,-112.5 412,-131.5 544,-131.5 544,-112.5 412,-112.5"/>
<text text-anchor="middle" x="478" y="-119.5" font-family="Helvetica,sans-Serif" font-size="10.00">include/secp256k1_ecdh.h</text>
</a>
</g>
</g>
<!-- Node0&#45;&gt;Node8 -->
<g id="edge9" class="edge"><title>Node0&#45;&gt;Node8</title>
<path fill="none" stroke="midnightblue" d="M324.891,-168.933C359.943,-158.417 407.259,-144.222 439.971,-134.409"/>
<polygon fill="midnightblue" stroke="midnightblue" points="441.052,-137.739 449.624,-131.513 439.04,-131.034 441.052,-137.739"/>
</g>
<!-- Node9 -->
<g id="node10" class="node"><title>Node9</title>
<g id="a_node10"><a xlink:href="secp256k1__recovery_8h.html" target="_top" xlink:title="include/secp256k1_recovery.h">
<polygon fill="white" stroke="black" points="562.5,-112.5 562.5,-131.5 711.5,-131.5 711.5,-112.5 562.5,-112.5"/>
<text text-anchor="middle" x="637" y="-119.5" font-family="Helvetica,sans-Serif" font-size="10.00">include/secp256k1_recovery.h</text>
</a>
</g>
</g>
<!-- Node0&#45;&gt;Node9 -->
<g id="edge11" class="edge"><title>Node0&#45;&gt;Node9</title>
<path fill="none" stroke="midnightblue" d="M357.229,-169.758C423.107,-158.748 515.517,-143.304 575.813,-133.226"/>
<polygon fill="midnightblue" stroke="midnightblue" points="576.657,-136.634 585.943,-131.533 575.503,-129.73 576.657,-136.634"/>
</g>
<!-- Node5 -->
<g id="node6" class="node"><title>Node5</title>
<polygon fill="white" stroke="#bfbfbf" points="260.5,-56.5 260.5,-75.5 295.5,-75.5 295.5,-56.5 260.5,-56.5"/>
<text text-anchor="middle" x="278" y="-63.5" font-family="Helvetica,sans-Serif" font-size="10.00">jni.h</text>
</g>
<!-- Node4&#45;&gt;Node5 -->
<g id="edge5" class="edge"><title>Node4&#45;&gt;Node5</title>
<path fill="none" stroke="midnightblue" d="M278,-112.083C278,-105.006 278,-94.8611 278,-85.9865"/>
<polygon fill="midnightblue" stroke="midnightblue" points="281.5,-85.751 278,-75.7511 274.5,-85.7511 281.5,-85.751"/>
</g>
<!-- Node4&#45;&gt;Node6 -->
<g id="edge6" class="edge"><title>Node4&#45;&gt;Node6</title>
<path fill="none" stroke="midnightblue" d="M302.243,-112.444C327.871,-103.399 368.485,-89.064 397.238,-78.9158"/>
<polygon fill="midnightblue" stroke="midnightblue" points="398.605,-82.1452 406.87,-75.5164 396.275,-75.5442 398.605,-82.1452"/>
</g>
<!-- Node7 -->
<g id="node8" class="node"><title>Node7</title>
<polygon fill="white" stroke="#bfbfbf" points="405,-0.5 405,-19.5 457,-19.5 457,-0.5 405,-0.5"/>
<text text-anchor="middle" x="431" y="-7.5" font-family="Helvetica,sans-Serif" font-size="10.00">stddef.h</text>
</g>
<!-- Node6&#45;&gt;Node7 -->
<g id="edge7" class="edge"><title>Node6&#45;&gt;Node7</title>
<path fill="none" stroke="midnightblue" d="M431,-56.083C431,-49.0059 431,-38.8611 431,-29.9865"/>
<polygon fill="midnightblue" stroke="midnightblue" points="434.5,-29.751 431,-19.7511 427.5,-29.7511 434.5,-29.751"/>
</g>
<!-- Node8&#45;&gt;Node6 -->
<g id="edge10" class="edge"><title>Node8&#45;&gt;Node6</title>
<path fill="none" stroke="midnightblue" d="M470.239,-112.083C463.463,-104.298 453.457,-92.8015 445.245,-83.3665"/>
<polygon fill="midnightblue" stroke="midnightblue" points="447.822,-80.9963 438.617,-75.7511 442.542,-85.592 447.822,-80.9963"/>
</g>
<!-- Node9&#45;&gt;Node6 -->
<g id="edge12" class="edge"><title>Node9&#45;&gt;Node6</title>
<path fill="none" stroke="midnightblue" d="M604.359,-112.444C568.95,-103.162 512.291,-88.3093 473.447,-78.127"/>
<polygon fill="midnightblue" stroke="midnightblue" points="474.049,-74.6666 463.489,-75.5164 472.274,-81.4378 474.049,-74.6666"/>
</g>
</g>
</svg>
