<?xml version="1.0" encoding="UTF-8" standalone="no"?>
<!DOCTYPE svg PUBLIC "-//W3C//DTD SVG 1.1//EN"
 "http://www.w3.org/Graphics/SVG/1.1/DTD/svg11.dtd">
<!-- Generated by graphviz version 2.36.0 (20140111.2315)
 -->
<!-- Title: src/secp256k1/src/java/org_bitcoin_Secp256k1Context.c Pages: 1 -->
<svg width="374pt" height="208pt"
 viewBox="0.00 0.00 374.00 208.00" xmlns="http://www.w3.org/2000/svg" xmlns:xlink="http://www.w3.org/1999/xlink">
<g id="graph0" class="graph" transform="scale(1 1) rotate(0) translate(4 204)">
<title>src/secp256k1/src/java/org_bitcoin_Secp256k1Context.c</title>
<polygon fill="white" stroke="none" points="-4,4 -4,-204 370,-204 370,4 -4,4"/>
<!-- Node0 -->
<g id="node1" class="node"><title>Node0</title>
<polygon fill="#bfbfbf" stroke="black" points="70,-169 70,-199 234,-199 234,-169 70,-169"/>
<text text-anchor="start" x="78" y="-187" font-family="Helvetica,sans-Serif" font-size="10.00">src/secp256k1/src/java</text>
<text text-anchor="middle" x="152" y="-176" font-family="Helvetica,sans-Serif" font-size="10.00">/org_bitcoin_Secp256k1Context.c</text>
</g>
<!-- Node1 -->
<g id="node2" class="node"><title>Node1</title>
<polygon fill="white" stroke="#bfbfbf" points="0,-112.5 0,-131.5 48,-131.5 48,-112.5 0,-112.5"/>
<text text-anchor="middle" x="24" y="-119.5" font-family="Helvetica,sans-Serif" font-size="10.00">stdlib.h</text>
</g>
<!-- Node0&#45;&gt;Node1 -->
<g id="edge1" class="edge"><title>Node0&#45;&gt;Node1</title>
<path fill="none" stroke="midnightblue" d="M121.99,-168.933C100.684,-158.946 72.2981,-145.64 51.5637,-135.92"/>
<polygon fill="midnightblue" stroke="midnightblue" points="52.8869,-132.675 42.3467,-131.6 49.9158,-139.014 52.8869,-132.675"/>
</g>
<!-- Node2 -->
<g id="node3" class="node"><title>Node2</title>
<polygon fill="white" stroke="#bfbfbf" points="66.5,-112.5 66.5,-131.5 115.5,-131.5 115.5,-112.5 66.5,-112.5"/>
<text text-anchor="middle" x="91" y="-119.5" font-family="Helvetica,sans-Serif" font-size="10.00">stdint.h</text>
</g>
<!-- Node0&#45;&gt;Node2 -->
<g id="edge2" class="edge"><title>Node0&#45;&gt;Node2</title>
<path fill="none" stroke="midnightblue" d="M137.544,-168.781C128.406,-159.792 116.581,-148.162 107.138,-138.873"/>
<polygon fill="midnightblue" stroke="midnightblue" points="109.46,-136.248 99.876,-131.731 104.551,-141.238 109.46,-136.248"/>
</g>
<!-- Node3 -->
<g id="node4" class="node"><title>Node3</title>
<g id="a_node4"><a xlink:href="org__bitcoin___secp256k1_context_8h.html" target="_top" xlink:title="org_bitcoin_Secp256k1Context.h">
<polygon fill="white" stroke="black" points="133.5,-112.5 133.5,-131.5 294.5,-131.5 294.5,-112.5 133.5,-112.5"/>
<text text-anchor="middle" x="214" y="-119.5" font-family="Helvetica,sans-Serif" font-size="10.00">org_bitcoin_Secp256k1Context.h</text>
</a>
</g>
</g>
<!-- Node0&#45;&gt;Node3 -->
<g id="edge3" class="edge"><title>Node0&#45;&gt;Node3</title>
<path fill="none" stroke="midnightblue" d="M166.693,-168.781C175.981,-159.792 187.999,-148.162 197.598,-138.873"/>
<polygon fill="midnightblue" stroke="midnightblue" points="200.226,-141.2 204.978,-131.731 195.358,-136.17 200.226,-141.2"/>
</g>
<!-- Node5 -->
<g id="node6" class="node"><title>Node5</title>
<g id="a_node6"><a xlink:href="secp256k1_8h.html" target="_top" xlink:title="include/secp256k1.h">
<polygon fill="white" stroke="black" points="260,-56.5 260,-75.5 366,-75.5 366,-56.5 260,-56.5"/>
<text text-anchor="middle" x="313" y="-63.5" font-family="Helvetica,sans-Serif" font-size="10.00">include/secp256k1.h</text>
</a>
</g>
</g>
<!-- Node0&#45;&gt;Node5 -->
<g id="edge7" class="edge"><title>Node0&#45;&gt;Node5</title>
<path fill="none" stroke="midnightblue" d="M234.015,-172.31C259.605,-164.973 285.644,-152.654 303,-132 313.665,-119.309 315.449,-100.106 314.996,-85.8598"/>
<polygon fill="midnightblue" stroke="midnightblue" points="318.475,-85.4445 314.279,-75.716 311.493,-85.9378 318.475,-85.4445"/>
</g>
<!-- Node4 -->
<g id="node5" class="node"><title>Node4</title>
<polygon fill="white" stroke="#bfbfbf" points="196.5,-56.5 196.5,-75.5 231.5,-75.5 231.5,-56.5 196.5,-56.5"/>
<text text-anchor="middle" x="214" y="-63.5" font-family="Helvetica,sans-Serif" font-size="10.00">jni.h</text>
</g>
<!-- Node3&#45;&gt;Node4 -->
<g id="edge4" class="edge"><title>Node3&#45;&gt;Node4</title>
<path fill="none" stroke="midnightblue" d="M214,-112.083C214,-105.006 214,-94.8611 214,-85.9865"/>
<polygon fill="midnightblue" stroke="midnightblue" points="217.5,-85.751 214,-75.7511 210.5,-85.7511 217.5,-85.751"/>
</g>
<!-- Node3&#45;&gt;Node5 -->
<g id="edge5" class="edge"><title>Node3&#45;&gt;Node5</title>
<path fill="none" stroke="midnightblue" d="M229.906,-112.324C245.638,-103.743 269.942,-90.486 288.209,-80.5224"/>
<polygon fill="midnightblue" stroke="midnightblue" points="290.03,-83.5157 297.133,-75.6545 286.678,-77.3704 290.03,-83.5157"/>
</g>
<!-- Node6 -->
<g id="node7" class="node"><title>Node6</title>
<polygon fill="white" stroke="#bfbfbf" points="287,-0.5 287,-19.5 339,-19.5 339,-0.5 287,-0.5"/>
<text text-anchor="middle" x="313" y="-7.5" font-family="Helvetica,sans-Serif" font-size="10.00">stddef.h</text>
</g>
<!-- Node5&#45;&gt;Node6 -->
<g id="edge6" class="edge"><title>Node5&#45;&gt;Node6</title>
<path fill="none" stroke="midnightblue" d="M313,-56.083C313,-49.0059 313,-38.8611 313,-29.9865"/>
<polygon fill="midnightblue" stroke="midnightblue" points="316.5,-29.751 313,-19.7511 309.5,-29.7511 316.5,-29.751"/>
</g>
</g>
</svg>
