<?xml version="1.0" encoding="UTF-8" standalone="no"?>
<!DOCTYPE svg PUBLIC "-//W3C//DTD SVG 1.1//EN"
 "http://www.w3.org/Graphics/SVG/1.1/DTD/svg11.dtd">
<!-- Generated by graphviz version 2.36.0 (20140111.2315)
 -->
<!-- Title: src/qt/overviewpage.h Pages: 1 -->
<!--zoomable 308 -->
<svg id="main" version="1.1" xmlns="http://www.w3.org/2000/svg" xmlns:xlink="http://www.w3.org/1999/xlink" xml:space="preserve" onload="init(evt)">
<style type="text/css"><![CDATA[
.edge:hover path { stroke: red; }
.edge:hover polygon { stroke: red; fill: red; }
]]></style>
<script type="text/javascript"><![CDATA[
var edges = document.getElementsByTagName('g');
if (edges && edges.length) {
  for (var i=0;i<edges.length;i++) {
    if (edges[i].id.substr(0,4)=='edge') {
      edges[i].setAttribute('class','edge');
    }
  }
}
]]></script>
        <defs>
                <circle id="rim" cx="0" cy="0" r="7"/>
                <circle id="rim2" cx="0" cy="0" r="3.5"/>
                <g id="zoomPlus">
                        <use xlink:href="#rim" fill="#404040">
                                <set attributeName="fill" to="#808080" begin="zoomplus.mouseover" end="zoomplus.mouseout"/>
                        </use>
                        <path d="M-4,0h8M0,-4v8" fill="none" stroke="white" stroke-width="1.5" pointer-events="none"/>
                </g>
                <g id="zoomMin">
                        <use xlink:href="#rim" fill="#404040">
                                <set attributeName="fill" to="#808080" begin="zoomminus.mouseover" end="zoomminus.mouseout"/>
                        </use>
                        <path d="M-4,0h8" fill="none" stroke="white" stroke-width="1.5" pointer-events="none"/>
                </g>
                <g id="dirArrow">
                        <path fill="none" stroke="white" stroke-width="1.5" d="M0,-3.0v7 M-2.5,-0.5L0,-3.0L2.5,-0.5"/>
                </g>
               <g id="resetDef">
                       <use xlink:href="#rim2" fill="#404040">
                               <set attributeName="fill" to="#808080" begin="reset.mouseover" end="reset.mouseout"/>
                       </use>
               </g>
        </defs>

<script type="text/javascript">
var viewWidth = 891;
var viewHeight = 308;
var sectionId = 'dynsection-0';
</script>
<script xlink:href="svgpan.js"/>
<svg id="graph" class="graph">
<g id="viewport">
<title>src/qt/overviewpage.h</title>
<polygon fill="white" stroke="none" points="-4,4 -4,-304 886.747,-304 886.747,4 -4,4"/>
<!-- Node0 -->
<g id="node1" class="node"><title>Node0</title>
<polygon fill="#bfbfbf" stroke="black" points="587.247,-280.5 587.247,-299.5 700.247,-299.5 700.247,-280.5 587.247,-280.5"/>
<text text-anchor="middle" x="643.747" y="-287.5" font-family="Helvetica,sans-Serif" font-size="10.00">src/qt/overviewpage.h</text>
</g>
<!-- Node1 -->
<g id="node2" class="node"><title>Node1</title>
<g id="a_node2"><a xlink:href="amount_8h.html" target="_top" xlink:title="amount.h">
<polygon fill="white" stroke="black" points="237.247,-224.5 237.247,-243.5 294.247,-243.5 294.247,-224.5 237.247,-224.5"/>
<text text-anchor="middle" x="265.747" y="-231.5" font-family="Helvetica,sans-Serif" font-size="10.00">amount.h</text>
</a>
</g>
</g>
<!-- Node0&#45;&gt;Node1 -->
<g id="edge1" class="edge"><title>Node0&#45;&gt;Node1</title>
<path fill="none" stroke="midnightblue" d="M587.157,-280.916C509.349,-269.8 371.374,-250.089 304.385,-240.52"/>
<polygon fill="midnightblue" stroke="midnightblue" points="304.657,-237.023 294.263,-239.074 303.667,-243.953 304.657,-237.023"/>
</g>
<!-- Node12 -->
<g id="node13" class="node"><title>Node12</title>
<polygon fill="white" stroke="#bfbfbf" points="830.747,-112.5 830.747,-131.5 882.747,-131.5 882.747,-112.5 830.747,-112.5"/>
<text text-anchor="middle" x="856.747" y="-119.5" font-family="Helvetica,sans-Serif" font-size="10.00">memory</text>
</g>
<!-- Node0&#45;&gt;Node12 -->
<g id="edge29" class="edge"><title>Node0&#45;&gt;Node12</title>
<path fill="none" stroke="midnightblue" d="M644.308,-280.432C645.603,-266.976 649.859,-240.705 663.747,-224 705.043,-174.329 777.151,-145.978 820.571,-132.609"/>
<polygon fill="midnightblue" stroke="midnightblue" points="821.841,-135.883 830.43,-129.679 819.847,-129.173 821.841,-135.883"/>
</g>
<!-- Node21 -->
<g id="node22" class="node"><title>Node21</title>
<polygon fill="white" stroke="#bfbfbf" points="672.247,-224.5 672.247,-243.5 727.247,-243.5 727.247,-224.5 672.247,-224.5"/>
<text text-anchor="middle" x="699.747" y="-231.5" font-family="Helvetica,sans-Serif" font-size="10.00">QWidget</text>
</g>
<!-- Node0&#45;&gt;Node21 -->
<g id="edge28" class="edge"><title>Node0&#45;&gt;Node21</title>
<path fill="none" stroke="midnightblue" d="M652.745,-280.324C660.942,-272.42 673.253,-260.548 683.219,-250.938"/>
<polygon fill="midnightblue" stroke="midnightblue" points="685.817,-253.295 690.586,-243.834 680.958,-248.256 685.817,-253.295"/>
</g>
<!-- Node2 -->
<g id="node3" class="node"><title>Node2</title>
<g id="a_node3"><a xlink:href="serialize_8h.html" target="_top" xlink:title="serialize.h">
<polygon fill="white" stroke="black" points="324.247,-168.5 324.247,-187.5 385.247,-187.5 385.247,-168.5 324.247,-168.5"/>
<text text-anchor="middle" x="354.747" y="-175.5" font-family="Helvetica,sans-Serif" font-size="10.00">serialize.h</text>
</a>
</g>
</g>
<!-- Node1&#45;&gt;Node2 -->
<g id="edge2" class="edge"><title>Node1&#45;&gt;Node2</title>
<path fill="none" stroke="midnightblue" d="M280.047,-224.324C293.93,-215.9 315.24,-202.971 331.551,-193.074"/>
<polygon fill="midnightblue" stroke="midnightblue" points="333.75,-195.834 340.484,-187.655 330.119,-189.85 333.75,-195.834"/>
</g>
<!-- Node14 -->
<g id="node15" class="node"><title>Node14</title>
<polygon fill="white" stroke="#bfbfbf" points="14.2474,-112.5 14.2474,-131.5 55.2474,-131.5 55.2474,-112.5 14.2474,-112.5"/>
<text text-anchor="middle" x="34.7474" y="-119.5" font-family="Helvetica,sans-Serif" font-size="10.00">string</text>
</g>
<!-- Node1&#45;&gt;Node14 -->
<g id="edge27" class="edge"><title>Node1&#45;&gt;Node14</title>
<path fill="none" stroke="midnightblue" d="M247.621,-224.368C207.222,-205.131 109.608,-158.648 61.9033,-135.931"/>
<polygon fill="midnightblue" stroke="midnightblue" points="63.3228,-132.731 52.7894,-131.591 60.3132,-139.051 63.3228,-132.731"/>
</g>
<!-- Node19 -->
<g id="node20" class="node"><title>Node19</title>
<polygon fill="white" stroke="#bfbfbf" points="97.7474,-56.5 97.7474,-75.5 145.747,-75.5 145.747,-56.5 97.7474,-56.5"/>
<text text-anchor="middle" x="121.747" y="-63.5" font-family="Helvetica,sans-Serif" font-size="10.00">stdlib.h</text>
</g>
<!-- Node1&#45;&gt;Node19 -->
<g id="edge26" class="edge"><title>Node1&#45;&gt;Node19</title>
<path fill="none" stroke="midnightblue" d="M237.043,-232.127C180.498,-228.647 55.7685,-211.833 4.74742,-132 -17.2167,-97.6324 45.9429,-79.8355 87.8212,-72.0427"/>
<polygon fill="midnightblue" stroke="midnightblue" points="88.4399,-75.4877 97.6864,-70.3154 87.2326,-68.5926 88.4399,-75.4877"/>
</g>
<!-- Node3 -->
<g id="node4" class="node"><title>Node3</title>
<g id="a_node4"><a xlink:href="endian_8h.html" target="_top" xlink:title="compat/endian.h">
<polygon fill="white" stroke="black" points="608.247,-112.5 608.247,-131.5 697.247,-131.5 697.247,-112.5 608.247,-112.5"/>
<text text-anchor="middle" x="652.747" y="-119.5" font-family="Helvetica,sans-Serif" font-size="10.00">compat/endian.h</text>
</a>
</g>
</g>
<!-- Node2&#45;&gt;Node3 -->
<g id="edge3" class="edge"><title>Node2&#45;&gt;Node3</title>
<path fill="none" stroke="midnightblue" d="M385.516,-171.424C435.665,-162.337 535.682,-144.213 598.121,-132.899"/>
<polygon fill="midnightblue" stroke="midnightblue" points="598.968,-136.302 608.184,-131.075 597.72,-129.414 598.968,-136.302"/>
</g>
<!-- Node4 -->
<g id="node5" class="node"><title>Node4</title>
<polygon fill="white" stroke="#bfbfbf" points="586.247,-0.5 586.247,-19.5 635.247,-19.5 635.247,-0.5 586.247,-0.5"/>
<text text-anchor="middle" x="610.747" y="-7.5" font-family="Helvetica,sans-Serif" font-size="10.00">stdint.h</text>
</g>
<!-- Node2&#45;&gt;Node4 -->
<g id="edge15" class="edge"><title>Node2&#45;&gt;Node4</title>
<path fill="none" stroke="midnightblue" d="M385.411,-175.26C466.85,-170.34 683.854,-155.16 705.747,-132 728.984,-107.42 728.06,-84.4388 709.747,-56 695.654,-34.113 668.023,-22.7486 645.525,-16.9211"/>
<polygon fill="midnightblue" stroke="midnightblue" points="646.15,-13.473 635.617,-14.6153 644.563,-20.2908 646.15,-13.473"/>
</g>
<!-- Node6 -->
<g id="node7" class="node"><title>Node6</title>
<polygon fill="white" stroke="#bfbfbf" points="756.747,-112.5 756.747,-131.5 812.747,-131.5 812.747,-112.5 756.747,-112.5"/>
<text text-anchor="middle" x="784.747" y="-119.5" font-family="Helvetica,sans-Serif" font-size="10.00">algorithm</text>
</g>
<!-- Node2&#45;&gt;Node6 -->
<g id="edge7" class="edge"><title>Node2&#45;&gt;Node6</title>
<path fill="none" stroke="midnightblue" d="M385.319,-174.457C451.015,-168.771 610.431,-153.798 742.747,-132 743.989,-131.795 745.25,-131.579 746.521,-131.352"/>
<polygon fill="midnightblue" stroke="midnightblue" points="747.188,-134.788 756.351,-129.47 745.871,-127.913 747.188,-134.788"/>
</g>
<!-- Node7 -->
<g id="node8" class="node"><title>Node7</title>
<polygon fill="white" stroke="#bfbfbf" points="178.747,-56.5 178.747,-75.5 230.747,-75.5 230.747,-56.5 178.747,-56.5"/>
<text text-anchor="middle" x="204.747" y="-63.5" font-family="Helvetica,sans-Serif" font-size="10.00">assert.h</text>
</g>
<!-- Node2&#45;&gt;Node7 -->
<g id="edge8" class="edge"><title>Node2&#45;&gt;Node7</title>
<path fill="none" stroke="midnightblue" d="M323.849,-176.229C262.894,-173.987 130.635,-165.309 102.747,-132 80.1027,-104.953 131.099,-85.4137 168.84,-75.1752"/>
<polygon fill="midnightblue" stroke="midnightblue" points="169.774,-78.5488 178.578,-72.6545 168.02,-71.7721 169.774,-78.5488"/>
</g>
<!-- Node8 -->
<g id="node9" class="node"><title>Node8</title>
<polygon fill="white" stroke="#bfbfbf" points="112.247,-112.5 112.247,-131.5 141.247,-131.5 141.247,-112.5 112.247,-112.5"/>
<text text-anchor="middle" x="126.747" y="-119.5" font-family="Helvetica,sans-Serif" font-size="10.00">ios</text>
</g>
<!-- Node2&#45;&gt;Node8 -->
<g id="edge9" class="edge"><title>Node2&#45;&gt;Node8</title>
<path fill="none" stroke="midnightblue" d="M323.989,-171.623C285.64,-164.614 217.982,-151.251 151.202,-131.773"/>
<polygon fill="midnightblue" stroke="midnightblue" points="151.941,-128.341 141.359,-128.855 149.951,-135.053 151.941,-128.341"/>
</g>
<!-- Node9 -->
<g id="node10" class="node"><title>Node9</title>
<polygon fill="white" stroke="#bfbfbf" points="159.747,-112.5 159.747,-131.5 199.747,-131.5 199.747,-112.5 159.747,-112.5"/>
<text text-anchor="middle" x="179.747" y="-119.5" font-family="Helvetica,sans-Serif" font-size="10.00">limits</text>
</g>
<!-- Node2&#45;&gt;Node9 -->
<g id="edge10" class="edge"><title>Node2&#45;&gt;Node9</title>
<path fill="none" stroke="midnightblue" d="M327.025,-168.473C299.546,-160.017 256.001,-146.607 209.644,-132.273"/>
<polygon fill="midnightblue" stroke="midnightblue" points="210.615,-128.91 200.027,-129.299 208.547,-135.598 210.615,-128.91"/>
</g>
<!-- Node10 -->
<g id="node11" class="node"><title>Node10</title>
<polygon fill="white" stroke="#bfbfbf" points="218.247,-112.5 218.247,-131.5 247.247,-131.5 247.247,-112.5 218.247,-112.5"/>
<text text-anchor="middle" x="232.747" y="-119.5" font-family="Helvetica,sans-Serif" font-size="10.00">list</text>
</g>
<!-- Node2&#45;&gt;Node10 -->
<g id="edge11" class="edge"><title>Node2&#45;&gt;Node10</title>
<path fill="none" stroke="midnightblue" d="M335.416,-168.444C314.112,-159.014 279.819,-143.835 256.796,-133.644"/>
<polygon fill="midnightblue" stroke="midnightblue" points="257.954,-130.33 247.393,-129.483 255.121,-136.731 257.954,-130.33"/>
</g>
<!-- Node11 -->
<g id="node12" class="node"><title>Node11</title>
<polygon fill="white" stroke="#bfbfbf" points="265.247,-112.5 265.247,-131.5 300.247,-131.5 300.247,-112.5 265.247,-112.5"/>
<text text-anchor="middle" x="282.747" y="-119.5" font-family="Helvetica,sans-Serif" font-size="10.00">map</text>
</g>
<!-- Node2&#45;&gt;Node11 -->
<g id="edge12" class="edge"><title>Node2&#45;&gt;Node11</title>
<path fill="none" stroke="midnightblue" d="M343.179,-168.324C332.327,-160.185 315.867,-147.839 302.864,-138.087"/>
<polygon fill="midnightblue" stroke="midnightblue" points="304.626,-135.034 294.526,-131.834 300.426,-140.634 304.626,-135.034"/>
</g>
<!-- Node2&#45;&gt;Node12 -->
<g id="edge13" class="edge"><title>Node2&#45;&gt;Node12</title>
<path fill="none" stroke="midnightblue" d="M385.49,-175.615C458.974,-171.967 650.66,-160.465 820.625,-131.734"/>
<polygon fill="midnightblue" stroke="midnightblue" points="821.233,-135.181 830.497,-130.042 820.05,-128.282 821.233,-135.181"/>
</g>
<!-- Node13 -->
<g id="node14" class="node"><title>Node13</title>
<polygon fill="white" stroke="#bfbfbf" points="318.747,-112.5 318.747,-131.5 348.747,-131.5 348.747,-112.5 318.747,-112.5"/>
<text text-anchor="middle" x="333.747" y="-119.5" font-family="Helvetica,sans-Serif" font-size="10.00">set</text>
</g>
<!-- Node2&#45;&gt;Node13 -->
<g id="edge14" class="edge"><title>Node2&#45;&gt;Node13</title>
<path fill="none" stroke="midnightblue" d="M351.28,-168.083C348.436,-160.77 344.318,-150.181 340.788,-141.103"/>
<polygon fill="midnightblue" stroke="midnightblue" points="344.037,-139.803 337.151,-131.751 337.513,-142.34 344.037,-139.803"/>
</g>
<!-- Node2&#45;&gt;Node14 -->
<g id="edge16" class="edge"><title>Node2&#45;&gt;Node14</title>
<path fill="none" stroke="midnightblue" d="M324.206,-173.148C271.853,-166.33 161.72,-151.041 69.7474,-132 68.2883,-131.698 66.7986,-131.374 65.2967,-131.036"/>
<polygon fill="midnightblue" stroke="midnightblue" points="65.9406,-127.591 55.3996,-128.658 64.3049,-134.397 65.9406,-127.591"/>
</g>
<!-- Node15 -->
<g id="node16" class="node"><title>Node15</title>
<polygon fill="white" stroke="#bfbfbf" points="371.247,-56.5 371.247,-75.5 420.247,-75.5 420.247,-56.5 371.247,-56.5"/>
<text text-anchor="middle" x="395.747" y="-63.5" font-family="Helvetica,sans-Serif" font-size="10.00">string.h</text>
</g>
<!-- Node2&#45;&gt;Node15 -->
<g id="edge17" class="edge"><title>Node2&#45;&gt;Node15</title>
<path fill="none" stroke="midnightblue" d="M357.965,-168.368C364.611,-150.537 379.983,-109.295 388.937,-85.2717"/>
<polygon fill="midnightblue" stroke="midnightblue" points="392.332,-86.1841 392.545,-75.5914 385.773,-83.7393 392.332,-86.1841"/>
</g>
<!-- Node16 -->
<g id="node17" class="node"><title>Node16</title>
<polygon fill="white" stroke="#bfbfbf" points="404.747,-112.5 404.747,-131.5 444.747,-131.5 444.747,-112.5 404.747,-112.5"/>
<text text-anchor="middle" x="424.747" y="-119.5" font-family="Helvetica,sans-Serif" font-size="10.00">utility</text>
</g>
<!-- Node2&#45;&gt;Node16 -->
<g id="edge18" class="edge"><title>Node2&#45;&gt;Node16</title>
<path fill="none" stroke="midnightblue" d="M365.994,-168.324C376.545,-160.185 392.548,-147.839 405.19,-138.087"/>
<polygon fill="midnightblue" stroke="midnightblue" points="407.516,-140.713 413.296,-131.834 403.24,-135.171 407.516,-140.713"/>
</g>
<!-- Node17 -->
<g id="node18" class="node"><title>Node17</title>
<polygon fill="white" stroke="#bfbfbf" points="462.747,-112.5 462.747,-131.5 506.747,-131.5 506.747,-112.5 462.747,-112.5"/>
<text text-anchor="middle" x="484.747" y="-119.5" font-family="Helvetica,sans-Serif" font-size="10.00">vector</text>
</g>
<!-- Node2&#45;&gt;Node17 -->
<g id="edge19" class="edge"><title>Node2&#45;&gt;Node17</title>
<path fill="none" stroke="midnightblue" d="M375.346,-168.444C396.741,-159.557 430.429,-145.563 454.772,-135.451"/>
<polygon fill="midnightblue" stroke="midnightblue" points="456.353,-138.585 464.245,-131.516 453.667,-132.12 456.353,-138.585"/>
</g>
<!-- Node18 -->
<g id="node19" class="node"><title>Node18</title>
<g id="a_node19"><a xlink:href="prevector_8h.html" target="_top" xlink:title="prevector.h">
<polygon fill="white" stroke="black" points="525.247,-112.5 525.247,-131.5 590.247,-131.5 590.247,-112.5 525.247,-112.5"/>
<text text-anchor="middle" x="557.747" y="-119.5" font-family="Helvetica,sans-Serif" font-size="10.00">prevector.h</text>
</a>
</g>
</g>
<!-- Node2&#45;&gt;Node18 -->
<g id="edge20" class="edge"><title>Node2&#45;&gt;Node18</title>
<path fill="none" stroke="midnightblue" d="M385.579,-168.799C420.298,-159.563 476.919,-144.501 515.682,-134.19"/>
<polygon fill="midnightblue" stroke="midnightblue" points="516.854,-137.5 525.618,-131.547 515.055,-130.735 516.854,-137.5"/>
</g>
<!-- Node3&#45;&gt;Node4 -->
<g id="edge4" class="edge"><title>Node3&#45;&gt;Node4</title>
<path fill="none" stroke="midnightblue" d="M632.525,-112.495C617.976,-105.168 599.447,-93.0628 590.747,-76 582.98,-60.7644 590.404,-41.9611 598.317,-28.5047"/>
<polygon fill="midnightblue" stroke="midnightblue" points="601.467,-30.0776 603.954,-19.7787 595.587,-26.2792 601.467,-30.0776"/>
</g>
<!-- Node5 -->
<g id="node6" class="node"><title>Node5</title>
<g id="a_node6"><a xlink:href="byteswap_8h.html" target="_top" xlink:title="compat/byteswap.h">
<polygon fill="white" stroke="black" points="599.747,-56.5 599.747,-75.5 701.747,-75.5 701.747,-56.5 599.747,-56.5"/>
<text text-anchor="middle" x="650.747" y="-63.5" font-family="Helvetica,sans-Serif" font-size="10.00">compat/byteswap.h</text>
</a>
</g>
</g>
<!-- Node3&#45;&gt;Node5 -->
<g id="edge5" class="edge"><title>Node3&#45;&gt;Node5</title>
<path fill="none" stroke="midnightblue" d="M652.417,-112.083C652.155,-105.006 651.779,-94.8611 651.451,-85.9865"/>
<polygon fill="midnightblue" stroke="midnightblue" points="654.939,-85.6147 651.072,-75.7511 647.944,-85.8738 654.939,-85.6147"/>
</g>
<!-- Node5&#45;&gt;Node4 -->
<g id="edge6" class="edge"><title>Node5&#45;&gt;Node4</title>
<path fill="none" stroke="midnightblue" d="M644.142,-56.083C638.492,-48.4554 630.203,-37.2645 623.296,-27.9408"/>
<polygon fill="midnightblue" stroke="midnightblue" points="625.994,-25.7034 617.23,-19.7511 620.37,-29.87 625.994,-25.7034"/>
</g>
<!-- Node18&#45;&gt;Node4 -->
<g id="edge23" class="edge"><title>Node18&#45;&gt;Node4</title>
<path fill="none" stroke="midnightblue" d="M560.485,-112.366C564.629,-99.7028 573.049,-75.4826 582.747,-56 587.514,-46.4242 593.726,-36.2659 599.087,-28.0286"/>
<polygon fill="midnightblue" stroke="midnightblue" points="602.019,-29.9397 604.656,-19.6782 596.195,-26.0557 602.019,-29.9397"/>
</g>
<!-- Node18&#45;&gt;Node7 -->
<g id="edge21" class="edge"><title>Node18&#45;&gt;Node7</title>
<path fill="none" stroke="midnightblue" d="M524.92,-113.91C521.491,-113.235 518.052,-112.585 514.747,-112 416.19,-94.5499 299.119,-78.932 241.094,-71.5311"/>
<polygon fill="midnightblue" stroke="midnightblue" points="241.325,-68.0324 230.964,-70.2462 240.444,-74.9768 241.325,-68.0324"/>
</g>
<!-- Node18&#45;&gt;Node15 -->
<g id="edge24" class="edge"><title>Node18&#45;&gt;Node15</title>
<path fill="none" stroke="midnightblue" d="M532.078,-112.444C504.584,-103.279 460.799,-88.6839 430.293,-78.5153"/>
<polygon fill="midnightblue" stroke="midnightblue" points="431.093,-75.0927 420.5,-75.2508 428.88,-81.7335 431.093,-75.0927"/>
</g>
<!-- Node18&#45;&gt;Node19 -->
<g id="edge22" class="edge"><title>Node18&#45;&gt;Node19</title>
<path fill="none" stroke="midnightblue" d="M524.943,-113.773C521.509,-113.125 518.063,-112.519 514.747,-112 362.433,-88.1774 322.303,-98.2239 169.747,-76 165.285,-75.3499 160.605,-74.5815 155.99,-73.7719"/>
<polygon fill="midnightblue" stroke="midnightblue" points="156.569,-70.3197 146.102,-71.964 155.309,-77.2056 156.569,-70.3197"/>
</g>
<!-- Node20 -->
<g id="node21" class="node"><title>Node20</title>
<polygon fill="white" stroke="#bfbfbf" points="458.247,-56.5 458.247,-75.5 505.247,-75.5 505.247,-56.5 458.247,-56.5"/>
<text text-anchor="middle" x="481.747" y="-63.5" font-family="Helvetica,sans-Serif" font-size="10.00">iterator</text>
</g>
<!-- Node18&#45;&gt;Node20 -->
<g id="edge25" class="edge"><title>Node18&#45;&gt;Node20</title>
<path fill="none" stroke="midnightblue" d="M545.537,-112.324C533.972,-104.107 516.372,-91.6017 502.587,-81.8069"/>
<polygon fill="midnightblue" stroke="midnightblue" points="504.359,-78.7729 494.18,-75.8339 500.305,-84.4791 504.359,-78.7729"/>
</g>
</g>
</svg>
        <g id="navigator" transform="translate(0 0)" fill="#404254">
                <rect fill="#f2f5e9" fill-opacity="0.5" stroke="#606060" stroke-width=".5" x="0" y="0" width="60" height="60"/>
                <use id="zoomplus" xlink:href="#zoomPlus" x="17" y="9" onmousedown="handleZoom(evt,'in')"/>
                <use id="zoomminus" xlink:href="#zoomMin" x="42" y="9" onmousedown="handleZoom(evt,'out')"/>
                <use id="reset" xlink:href="#resetDef" x="30" y="36" onmousedown="handleReset()"/>
                <g id="arrowUp" xlink:href="#dirArrow" transform="translate(30 24)" onmousedown="handlePan(0,-1)">
                  <use xlink:href="#rim" fill="#404040">
                        <set attributeName="fill" to="#808080" begin="arrowUp.mouseover" end="arrowUp.mouseout"/>
                  </use>
                  <path fill="none" stroke="white" stroke-width="1.5" d="M0,-3.0v7 M-2.5,-0.5L0,-3.0L2.5,-0.5"/>
                </g>
                <g id="arrowRight" xlink:href="#dirArrow" transform="rotate(90) translate(36 -43)" onmousedown="handlePan(1,0)">
                  <use xlink:href="#rim" fill="#404040">
                        <set attributeName="fill" to="#808080" begin="arrowRight.mouseover" end="arrowRight.mouseout"/>
                  </use>
                  <path fill="none" stroke="white" stroke-width="1.5" d="M0,-3.0v7 M-2.5,-0.5L0,-3.0L2.5,-0.5"/>
                </g>
                <g id="arrowDown" xlink:href="#dirArrow" transform="rotate(180) translate(-30 -48)" onmousedown="handlePan(0,1)">
                  <use xlink:href="#rim" fill="#404040">
                        <set attributeName="fill" to="#808080" begin="arrowDown.mouseover" end="arrowDown.mouseout"/>
                  </use>
                  <path fill="none" stroke="white" stroke-width="1.5" d="M0,-3.0v7 M-2.5,-0.5L0,-3.0L2.5,-0.5"/>
                </g>
                <g id="arrowLeft" xlink:href="#dirArrow" transform="rotate(270) translate(-36 17)" onmousedown="handlePan(-1,0)">
                  <use xlink:href="#rim" fill="#404040">
                        <set attributeName="fill" to="#808080" begin="arrowLeft.mouseover" end="arrowLeft.mouseout"/>
                  </use>
                  <path fill="none" stroke="white" stroke-width="1.5" d="M0,-3.0v7 M-2.5,-0.5L0,-3.0L2.5,-0.5"/>
                </g>
        </g>
        <svg viewBox="0 0 15 15" width="100%" height="30px" preserveAspectRatio="xMaxYMin meet">
         <g id="arrow_out" transform="scale(0.3 0.3)">
          <a xlink:href="overviewpage_8h__incl_org.svg" target="_base">
           <rect id="button" ry="5" rx="5" y="6" x="6" height="38" width="38"
                fill="#f2f5e9" fill-opacity="0.5" stroke="#606060" stroke-width="1.0"/>
           <path id="arrow"
             d="M 11.500037,31.436501 C 11.940474,20.09759 22.043105,11.32322 32.158766,21.979434 L 37.068811,17.246167 C 37.068811,17.246167 37.088388,32 37.088388,32 L 22.160133,31.978069 C 22.160133,31.978069 26.997745,27.140456 26.997745,27.140456 C 18.528582,18.264221 13.291696,25.230495 11.500037,31.436501 z"
             style="fill:#404040;"/>
          </a>
         </g>
        </svg>
</svg>
