<?xml version="1.0" encoding="UTF-8" standalone="no"?>
<!DOCTYPE svg PUBLIC "-//W3C//DTD SVG 1.1//EN"
 "http://www.w3.org/Graphics/SVG/1.1/DTD/svg11.dtd">
<!-- Generated by graphviz version 2.36.0 (20140111.2315)
 -->
<!-- Title: src/qt/paymentserver.cpp Pages: 1 -->
<!--zoomable 364 -->
<svg id="main" version="1.1" xmlns="http://www.w3.org/2000/svg" xmlns:xlink="http://www.w3.org/1999/xlink" xml:space="preserve" onload="init(evt)">
<style type="text/css"><![CDATA[
.edge:hover path { stroke: red; }
.edge:hover polygon { stroke: red; fill: red; }
]]></style>
<script type="text/javascript"><![CDATA[
var edges = document.getElementsByTagName('g');
if (edges && edges.length) {
  for (var i=0;i<edges.length;i++) {
    if (edges[i].id.substr(0,4)=='edge') {
      edges[i].setAttribute('class','edge');
    }
  }
}
]]></script>
        <defs>
                <circle id="rim" cx="0" cy="0" r="7"/>
                <circle id="rim2" cx="0" cy="0" r="3.5"/>
                <g id="zoomPlus">
                        <use xlink:href="#rim" fill="#404040">
                                <set attributeName="fill" to="#808080" begin="zoomplus.mouseover" end="zoomplus.mouseout"/>
                        </use>
                        <path d="M-4,0h8M0,-4v8" fill="none" stroke="white" stroke-width="1.5" pointer-events="none"/>
                </g>
                <g id="zoomMin">
                        <use xlink:href="#rim" fill="#404040">
                                <set attributeName="fill" to="#808080" begin="zoomminus.mouseover" end="zoomminus.mouseout"/>
                        </use>
                        <path d="M-4,0h8" fill="none" stroke="white" stroke-width="1.5" pointer-events="none"/>
                </g>
                <g id="dirArrow">
                        <path fill="none" stroke="white" stroke-width="1.5" d="M0,-3.0v7 M-2.5,-0.5L0,-3.0L2.5,-0.5"/>
                </g>
               <g id="resetDef">
                       <use xlink:href="#rim2" fill="#404040">
                               <set attributeName="fill" to="#808080" begin="reset.mouseover" end="reset.mouseout"/>
                       </use>
               </g>
        </defs>

<script type="text/javascript">
var viewWidth = 3513;
var viewHeight = 364;
var sectionId = 'dynsection-0';
</script>
<script xlink:href="svgpan.js"/>
<svg id="graph" class="graph">
<g id="viewport">
<title>src/qt/paymentserver.cpp</title>
<polygon fill="white" stroke="none" points="-4,4 -4,-360 3509,-360 3509,4 -4,4"/>
<!-- Node0 -->
<g id="node1" class="node"><title>Node0</title>
<polygon fill="#bfbfbf" stroke="black" points="1931,-336.5 1931,-355.5 2059,-355.5 2059,-336.5 1931,-336.5"/>
<text text-anchor="middle" x="1995" y="-343.5" font-family="Helvetica,sans-Serif" font-size="10.00">src/qt/paymentserver.cpp</text>
</g>
<!-- Node1 -->
<g id="node2" class="node"><title>Node1</title>
<g id="a_node2"><a xlink:href="paymentserver_8h.html" target="_top" xlink:title="paymentserver.h">
<polygon fill="white" stroke="black" points="144.5,-280.5 144.5,-299.5 233.5,-299.5 233.5,-280.5 144.5,-280.5"/>
<text text-anchor="middle" x="189" y="-287.5" font-family="Helvetica,sans-Serif" font-size="10.00">paymentserver.h</text>
</a>
</g>
</g>
<!-- Node0&#45;&gt;Node1 -->
<g id="edge1" class="edge"><title>Node0&#45;&gt;Node1</title>
<path fill="none" stroke="midnightblue" d="M1930.99,-343.086C1647.61,-334.613 508.333,-300.548 243.977,-292.644"/>
<polygon fill="midnightblue" stroke="midnightblue" points="243.955,-289.142 233.855,-292.341 243.746,-296.139 243.955,-289.142"/>
</g>
<!-- Node4 -->
<g id="node4" class="node"><title>Node4</title>
<g id="a_node4"><a xlink:href="base58_8h.html" target="_top" xlink:title="base58.h">
<polygon fill="white" stroke="red" points="145,-112.5 145,-131.5 201,-131.5 201,-112.5 145,-112.5"/>
<text text-anchor="middle" x="173" y="-119.5" font-family="Helvetica,sans-Serif" font-size="10.00">base58.h</text>
</a>
</g>
</g>
<!-- Node0&#45;&gt;Node4 -->
<g id="edge35" class="edge"><title>Node0&#45;&gt;Node4</title>
<path fill="none" stroke="midnightblue" d="M1930.99,-344.496C1607.99,-341.825 171.046,-328.36 135,-300 88.0076,-263.027 81.4421,-221.065 109,-168 116.153,-154.226 129.671,-143.783 142.447,-136.441"/>
<polygon fill="midnightblue" stroke="midnightblue" points="144.317,-139.412 151.517,-131.64 141.042,-133.225 144.317,-139.412"/>
</g>
<!-- Node5 -->
<g id="node5" class="node"><title>Node5</title>
<g id="a_node5"><a xlink:href="chainparams_8h.html" target="_top" xlink:title="chainparams.h">
<polygon fill="white" stroke="red" points="0,-56.5 0,-75.5 80,-75.5 80,-56.5 0,-56.5"/>
<text text-anchor="middle" x="40" y="-63.5" font-family="Helvetica,sans-Serif" font-size="10.00">chainparams.h</text>
</a>
</g>
</g>
<!-- Node0&#45;&gt;Node5 -->
<g id="edge36" class="edge"><title>Node0&#45;&gt;Node5</title>
<path fill="none" stroke="midnightblue" d="M1930.84,-344.427C1610.91,-341.449 199.82,-326.836 111,-300 59.1824,-284.344 8,-289.131 8,-235 8,-235 8,-235 8,-177 8,-143.329 21.9948,-106.085 31.4745,-84.7194"/>
<polygon fill="midnightblue" stroke="midnightblue" points="34.6744,-86.1383 35.6843,-75.5917 28.3179,-83.2065 34.6744,-86.1383"/>
</g>
<!-- Node82 -->
<g id="node9" class="node"><title>Node82</title>
<polygon fill="white" stroke="#bfbfbf" points="1042,-112.5 1042,-131.5 1110,-131.5 1110,-112.5 1042,-112.5"/>
<text text-anchor="middle" x="1076" y="-119.5" font-family="Helvetica,sans-Serif" font-size="10.00">QByteArray</text>
</g>
<!-- Node0&#45;&gt;Node82 -->
<g id="edge48" class="edge"><title>Node0&#45;&gt;Node82</title>
<path fill="none" stroke="midnightblue" d="M1930.94,-342.56C1798.92,-337.099 1505.52,-322.572 1466,-300 1430.02,-279.449 1445.66,-248.161 1412,-224 1321.39,-158.969 1188.51,-135.295 1120.18,-127.086"/>
<polygon fill="midnightblue" stroke="midnightblue" points="1120.51,-123.601 1110.18,-125.94 1119.72,-130.556 1120.51,-123.601"/>
</g>
<!-- Node83 -->
<g id="node10" class="node"><title>Node83</title>
<polygon fill="white" stroke="#bfbfbf" points="1312,-112.5 1312,-131.5 1352,-131.5 1352,-112.5 1312,-112.5"/>
<text text-anchor="middle" x="1332" y="-119.5" font-family="Helvetica,sans-Serif" font-size="10.00">QList</text>
</g>
<!-- Node0&#45;&gt;Node83 -->
<g id="edge55" class="edge"><title>Node0&#45;&gt;Node83</title>
<path fill="none" stroke="midnightblue" d="M1930.58,-343.202C1801.79,-339.048 1521.92,-326.998 1488,-300 1439.72,-261.578 1487.21,-213.004 1445,-168 1423.04,-144.581 1387.3,-133.106 1361.9,-127.649"/>
<polygon fill="midnightblue" stroke="midnightblue" points="1362.54,-124.208 1352.05,-125.721 1361.19,-131.078 1362.54,-124.208"/>
</g>
<!-- Node88 -->
<g id="node14" class="node"><title>Node88</title>
<g id="a_node14"><a xlink:href="bitcoinunits_8h.html" target="_top" xlink:title="bitcoinunits.h">
<polygon fill="white" stroke="black" points="1051,-280.5 1051,-299.5 1125,-299.5 1125,-280.5 1051,-280.5"/>
<text text-anchor="middle" x="1088" y="-287.5" font-family="Helvetica,sans-Serif" font-size="10.00">bitcoinunits.h</text>
</a>
</g>
</g>
<!-- Node0&#45;&gt;Node88 -->
<g id="edge17" class="edge"><title>Node0&#45;&gt;Node88</title>
<path fill="none" stroke="midnightblue" d="M1930.82,-344.639C1789.14,-343.194 1438.9,-336.066 1135.45,-299.841"/>
<polygon fill="midnightblue" stroke="midnightblue" points="1135.47,-296.319 1125.13,-298.596 1134.64,-303.269 1135.47,-296.319"/>
</g>
<!-- Node90 -->
<g id="node17" class="node"><title>Node90</title>
<g id="a_node17"><a xlink:href="guiutil_8h.html" target="_top" xlink:title="guiutil.h">
<polygon fill="white" stroke="black" points="691,-280.5 691,-299.5 741,-299.5 741,-280.5 691,-280.5"/>
<text text-anchor="middle" x="716" y="-287.5" font-family="Helvetica,sans-Serif" font-size="10.00">guiutil.h</text>
</a>
</g>
</g>
<!-- Node0&#45;&gt;Node90 -->
<g id="edge21" class="edge"><title>Node0&#45;&gt;Node90</title>
<path fill="none" stroke="midnightblue" d="M1930.7,-342.285C1701.22,-332.596 926.882,-299.904 751.513,-292.499"/>
<polygon fill="midnightblue" stroke="midnightblue" points="751.435,-288.993 741.296,-292.068 751.14,-295.987 751.435,-288.993"/>
</g>
<!-- Node98 -->
<g id="node25" class="node"><title>Node98</title>
<g id="a_node25"><a xlink:href="optionsmodel_8h.html" target="_top" xlink:title="optionsmodel.h">
<polygon fill="white" stroke="black" points="1144.5,-280.5 1144.5,-299.5 1227.5,-299.5 1227.5,-280.5 1144.5,-280.5"/>
<text text-anchor="middle" x="1186" y="-287.5" font-family="Helvetica,sans-Serif" font-size="10.00">optionsmodel.h</text>
</a>
</g>
</g>
<!-- Node0&#45;&gt;Node98 -->
<g id="edge32" class="edge"><title>Node0&#45;&gt;Node98</title>
<path fill="none" stroke="midnightblue" d="M1930.89,-343.688C1801.71,-340.503 1500.73,-330.344 1237.81,-299.944"/>
<polygon fill="midnightblue" stroke="midnightblue" points="1238.03,-296.445 1227.69,-298.761 1237.22,-303.398 1238.03,-296.445"/>
</g>
<!-- Node99 -->
<g id="node26" class="node"><title>Node99</title>
<g id="a_node26"><a xlink:href="policy_8h.html" target="_top" xlink:title="policy/policy.h">
<polygon fill="white" stroke="red" points="1496.5,-280.5 1496.5,-299.5 1575.5,-299.5 1575.5,-280.5 1496.5,-280.5"/>
<text text-anchor="middle" x="1536" y="-287.5" font-family="Helvetica,sans-Serif" font-size="10.00">policy/policy.h</text>
</a>
</g>
</g>
<!-- Node0&#45;&gt;Node99 -->
<g id="edge37" class="edge"><title>Node0&#45;&gt;Node99</title>
<path fill="none" stroke="midnightblue" d="M1930.9,-339.412C1852.11,-332.219 1714.1,-318.571 1585.56,-299.979"/>
<polygon fill="midnightblue" stroke="midnightblue" points="1585.94,-296.497 1575.54,-298.516 1584.93,-303.424 1585.94,-296.497"/>
</g>
<!-- Node101 -->
<g id="node27" class="node"><title>Node101</title>
<g id="a_node27"><a xlink:href="ui__interface_8h.html" target="_top" xlink:title="ui_interface.h">
<polygon fill="white" stroke="red" points="1271.5,-224.5 1271.5,-243.5 1346.5,-243.5 1346.5,-224.5 1271.5,-224.5"/>
<text text-anchor="middle" x="1309" y="-231.5" font-family="Helvetica,sans-Serif" font-size="10.00">ui_interface.h</text>
</a>
</g>
</g>
<!-- Node0&#45;&gt;Node101 -->
<g id="edge38" class="edge"><title>Node0&#45;&gt;Node101</title>
<path fill="none" stroke="midnightblue" d="M1930.82,-344.685C1796.98,-343.299 1492.5,-336.139 1396,-300 1367.73,-289.414 1340.8,-266.648 1324.58,-251.076"/>
<polygon fill="midnightblue" stroke="midnightblue" points="1326.69,-248.243 1317.13,-243.691 1321.77,-253.216 1326.69,-248.243"/>
</g>
<!-- Node104 -->
<g id="node28" class="node"><title>Node104</title>
<polygon fill="white" stroke="#bfbfbf" points="1365,-224.5 1365,-243.5 1403,-243.5 1403,-224.5 1365,-224.5"/>
<text text-anchor="middle" x="1384" y="-231.5" font-family="Helvetica,sans-Serif" font-size="10.00">util.h</text>
</g>
<!-- Node0&#45;&gt;Node104 -->
<g id="edge39" class="edge"><title>Node0&#45;&gt;Node104</title>
<path fill="none" stroke="midnightblue" d="M1930.79,-343.562C1788.89,-339.879 1457.81,-328.328 1416,-300 1400.25,-289.327 1391.94,-268.57 1387.77,-253.373"/>
<polygon fill="midnightblue" stroke="midnightblue" points="1391.15,-252.434 1385.43,-243.515 1384.34,-254.053 1391.15,-252.434"/>
</g>
<!-- Node105 -->
<g id="node29" class="node"><title>Node105</title>
<g id="a_node29"><a xlink:href="wallet_8h.html" target="_top" xlink:title="wallet/wallet.h">
<polygon fill="white" stroke="red" points="1246.5,-280.5 1246.5,-299.5 1325.5,-299.5 1325.5,-280.5 1246.5,-280.5"/>
<text text-anchor="middle" x="1286" y="-287.5" font-family="Helvetica,sans-Serif" font-size="10.00">wallet/wallet.h</text>
</a>
</g>
</g>
<!-- Node0&#45;&gt;Node105 -->
<g id="edge40" class="edge"><title>Node0&#45;&gt;Node105</title>
<path fill="none" stroke="midnightblue" d="M1930.66,-342.642C1813.06,-337.875 1555.66,-325.32 1340,-300 1338.7,-299.847 1337.38,-299.685 1336.05,-299.514"/>
<polygon fill="midnightblue" stroke="midnightblue" points="1336.14,-295.992 1325.75,-298.072 1335.17,-302.925 1336.14,-295.992"/>
</g>
<!-- Node145 -->
<g id="node30" class="node"><title>Node145</title>
<polygon fill="white" stroke="#bfbfbf" points="1593.5,-280.5 1593.5,-299.5 1638.5,-299.5 1638.5,-280.5 1593.5,-280.5"/>
<text text-anchor="middle" x="1616" y="-287.5" font-family="Helvetica,sans-Serif" font-size="10.00">cstdlib</text>
</g>
<!-- Node0&#45;&gt;Node145 -->
<g id="edge45" class="edge"><title>Node0&#45;&gt;Node145</title>
<path fill="none" stroke="midnightblue" d="M1930.9,-339.5C1863.1,-333.051 1752.91,-320.774 1648.69,-299.854"/>
<polygon fill="midnightblue" stroke="midnightblue" points="1649.12,-296.37 1638.63,-297.802 1647.73,-303.229 1649.12,-296.37"/>
</g>
<!-- Node146 -->
<g id="node31" class="node"><title>Node146</title>
<polygon fill="white" stroke="#bfbfbf" points="1656.5,-280.5 1656.5,-299.5 1757.5,-299.5 1757.5,-280.5 1656.5,-280.5"/>
<text text-anchor="middle" x="1707" y="-287.5" font-family="Helvetica,sans-Serif" font-size="10.00">openssl/x509_vfy.h</text>
</g>
<!-- Node0&#45;&gt;Node146 -->
<g id="edge46" class="edge"><title>Node0&#45;&gt;Node146</title>
<path fill="none" stroke="midnightblue" d="M1949.37,-336.444C1898.7,-326.944 1816.93,-311.611 1762.57,-301.42"/>
<polygon fill="midnightblue" stroke="midnightblue" points="1762.89,-297.919 1752.42,-299.516 1761.6,-304.799 1762.89,-297.919"/>
</g>
<!-- Node147 -->
<g id="node32" class="node"><title>Node147</title>
<polygon fill="white" stroke="#bfbfbf" points="1776,-280.5 1776,-299.5 1848,-299.5 1848,-280.5 1776,-280.5"/>
<text text-anchor="middle" x="1812" y="-287.5" font-family="Helvetica,sans-Serif" font-size="10.00">QApplication</text>
</g>
<!-- Node0&#45;&gt;Node147 -->
<g id="edge47" class="edge"><title>Node0&#45;&gt;Node147</title>
<path fill="none" stroke="midnightblue" d="M1966,-336.444C1934.82,-327.241 1885.07,-312.562 1850.59,-302.388"/>
<polygon fill="midnightblue" stroke="midnightblue" points="1851.44,-298.99 1840.86,-299.516 1849.46,-305.704 1851.44,-298.99"/>
</g>
<!-- Node148 -->
<g id="node33" class="node"><title>Node148</title>
<polygon fill="white" stroke="#bfbfbf" points="1866.5,-280.5 1866.5,-299.5 1943.5,-299.5 1943.5,-280.5 1866.5,-280.5"/>
<text text-anchor="middle" x="1905" y="-287.5" font-family="Helvetica,sans-Serif" font-size="10.00">QDataStream</text>
</g>
<!-- Node0&#45;&gt;Node148 -->
<g id="edge49" class="edge"><title>Node0&#45;&gt;Node148</title>
<path fill="none" stroke="midnightblue" d="M1980.54,-336.324C1966.5,-327.9 1944.95,-314.971 1928.46,-305.074"/>
<polygon fill="midnightblue" stroke="midnightblue" points="1929.8,-301.798 1919.42,-299.655 1926.2,-307.801 1929.8,-301.798"/>
</g>
<!-- Node149 -->
<g id="node34" class="node"><title>Node149</title>
<polygon fill="white" stroke="#bfbfbf" points="1961.5,-280.5 1961.5,-299.5 2028.5,-299.5 2028.5,-280.5 1961.5,-280.5"/>
<text text-anchor="middle" x="1995" y="-287.5" font-family="Helvetica,sans-Serif" font-size="10.00">QDateTime</text>
</g>
<!-- Node0&#45;&gt;Node149 -->
<g id="edge50" class="edge"><title>Node0&#45;&gt;Node149</title>
<path fill="none" stroke="midnightblue" d="M1995,-336.083C1995,-329.006 1995,-318.861 1995,-309.986"/>
<polygon fill="midnightblue" stroke="midnightblue" points="1998.5,-309.751 1995,-299.751 1991.5,-309.751 1998.5,-309.751"/>
</g>
<!-- Node150 -->
<g id="node35" class="node"><title>Node150</title>
<polygon fill="white" stroke="#bfbfbf" points="2046.5,-280.5 2046.5,-299.5 2099.5,-299.5 2099.5,-280.5 2046.5,-280.5"/>
<text text-anchor="middle" x="2073" y="-287.5" font-family="Helvetica,sans-Serif" font-size="10.00">QDebug</text>
</g>
<!-- Node0&#45;&gt;Node150 -->
<g id="edge51" class="edge"><title>Node0&#45;&gt;Node150</title>
<path fill="none" stroke="midnightblue" d="M2007.53,-336.324C2019.59,-327.979 2038.03,-315.212 2052.27,-305.352"/>
<polygon fill="midnightblue" stroke="midnightblue" points="2054.27,-308.224 2060.5,-299.655 2050.28,-302.469 2054.27,-308.224"/>
</g>
<!-- Node151 -->
<g id="node36" class="node"><title>Node151</title>
<polygon fill="white" stroke="#bfbfbf" points="2118,-280.5 2118,-299.5 2158,-299.5 2158,-280.5 2118,-280.5"/>
<text text-anchor="middle" x="2138" y="-287.5" font-family="Helvetica,sans-Serif" font-size="10.00">QFile</text>
</g>
<!-- Node0&#45;&gt;Node151 -->
<g id="edge52" class="edge"><title>Node0&#45;&gt;Node151</title>
<path fill="none" stroke="midnightblue" d="M2017.66,-336.444C2042.1,-327.214 2081.13,-312.476 2108.08,-302.299"/>
<polygon fill="midnightblue" stroke="midnightblue" points="2109.64,-305.45 2117.76,-298.643 2107.17,-298.902 2109.64,-305.45"/>
</g>
<!-- Node152 -->
<g id="node37" class="node"><title>Node152</title>
<polygon fill="white" stroke="#bfbfbf" points="2176.5,-280.5 2176.5,-299.5 2265.5,-299.5 2265.5,-280.5 2176.5,-280.5"/>
<text text-anchor="middle" x="2221" y="-287.5" font-family="Helvetica,sans-Serif" font-size="10.00">QFileOpenEvent</text>
</g>
<!-- Node0&#45;&gt;Node152 -->
<g id="edge53" class="edge"><title>Node0&#45;&gt;Node152</title>
<path fill="none" stroke="midnightblue" d="M2030.81,-336.444C2069.99,-327.083 2132.88,-312.056 2175.52,-301.868"/>
<polygon fill="midnightblue" stroke="midnightblue" points="2176.44,-305.245 2185.36,-299.516 2174.82,-298.436 2176.44,-305.245"/>
</g>
<!-- Node153 -->
<g id="node38" class="node"><title>Node153</title>
<polygon fill="white" stroke="#bfbfbf" points="2283.5,-280.5 2283.5,-299.5 2330.5,-299.5 2330.5,-280.5 2283.5,-280.5"/>
<text text-anchor="middle" x="2307" y="-287.5" font-family="Helvetica,sans-Serif" font-size="10.00">QHash</text>
</g>
<!-- Node0&#45;&gt;Node153 -->
<g id="edge54" class="edge"><title>Node0&#45;&gt;Node153</title>
<path fill="none" stroke="midnightblue" d="M2059.08,-336.64C2113.53,-329.086 2193.94,-316.876 2273.13,-299.986"/>
<polygon fill="midnightblue" stroke="midnightblue" points="2274.25,-303.325 2283.28,-297.793 2272.77,-296.483 2274.25,-303.325"/>
</g>
<!-- Node154 -->
<g id="node39" class="node"><title>Node154</title>
<polygon fill="white" stroke="#bfbfbf" points="2349,-280.5 2349,-299.5 2425,-299.5 2425,-280.5 2349,-280.5"/>
<text text-anchor="middle" x="2387" y="-287.5" font-family="Helvetica,sans-Serif" font-size="10.00">QLocalServer</text>
</g>
<!-- Node0&#45;&gt;Node154 -->
<g id="edge56" class="edge"><title>Node0&#45;&gt;Node154</title>
<path fill="none" stroke="midnightblue" d="M2059.19,-337.678C2126.24,-329.787 2234.7,-316.34 2338.73,-299.958"/>
<polygon fill="midnightblue" stroke="midnightblue" points="2339.45,-303.387 2348.78,-298.363 2338.36,-296.473 2339.45,-303.387"/>
</g>
<!-- Node155 -->
<g id="node40" class="node"><title>Node155</title>
<polygon fill="white" stroke="#bfbfbf" points="2443,-280.5 2443,-299.5 2521,-299.5 2521,-280.5 2443,-280.5"/>
<text text-anchor="middle" x="2482" y="-287.5" font-family="Helvetica,sans-Serif" font-size="10.00">QLocalSocket</text>
</g>
<!-- Node0&#45;&gt;Node155 -->
<g id="edge57" class="edge"><title>Node0&#45;&gt;Node155</title>
<path fill="none" stroke="midnightblue" d="M2059.18,-340.104C2142.88,-333.345 2294.01,-319.858 2432.78,-300.07"/>
<polygon fill="midnightblue" stroke="midnightblue" points="2433.35,-303.524 2442.75,-298.634 2432.35,-296.595 2433.35,-303.524"/>
</g>
<!-- Node156 -->
<g id="node41" class="node"><title>Node156</title>
<polygon fill="white" stroke="#bfbfbf" points="2539.5,-280.5 2539.5,-299.5 2670.5,-299.5 2670.5,-280.5 2539.5,-280.5"/>
<text text-anchor="middle" x="2605" y="-287.5" font-family="Helvetica,sans-Serif" font-size="10.00">QNetworkAccessManager</text>
</g>
<!-- Node0&#45;&gt;Node156 -->
<g id="edge58" class="edge"><title>Node0&#45;&gt;Node156</title>
<path fill="none" stroke="midnightblue" d="M2059.3,-340.333C2157.97,-333.007 2352.9,-317.887 2529.19,-300.049"/>
<polygon fill="midnightblue" stroke="midnightblue" points="2529.57,-303.528 2539.16,-299.034 2528.86,-296.564 2529.57,-303.528"/>
</g>
<!-- Node157 -->
<g id="node42" class="node"><title>Node157</title>
<polygon fill="white" stroke="#bfbfbf" points="2689,-280.5 2689,-299.5 2775,-299.5 2775,-280.5 2689,-280.5"/>
<text text-anchor="middle" x="2732" y="-287.5" font-family="Helvetica,sans-Serif" font-size="10.00">QNetworkProxy</text>
</g>
<!-- Node0&#45;&gt;Node157 -->
<g id="edge59" class="edge"><title>Node0&#45;&gt;Node157</title>
<path fill="none" stroke="midnightblue" d="M2059.33,-342.968C2180.78,-338.643 2452.07,-326.662 2679,-300 2679.1,-299.988 2679.2,-299.976 2679.3,-299.964"/>
<polygon fill="midnightblue" stroke="midnightblue" points="2679.5,-303.469 2688.95,-298.689 2678.58,-296.529 2679.5,-303.469"/>
</g>
<!-- Node158 -->
<g id="node43" class="node"><title>Node158</title>
<polygon fill="white" stroke="#bfbfbf" points="2793,-280.5 2793,-299.5 2879,-299.5 2879,-280.5 2793,-280.5"/>
<text text-anchor="middle" x="2836" y="-287.5" font-family="Helvetica,sans-Serif" font-size="10.00">QNetworkReply</text>
</g>
<!-- Node0&#45;&gt;Node158 -->
<g id="edge60" class="edge"><title>Node0&#45;&gt;Node158</title>
<path fill="none" stroke="midnightblue" d="M2059.13,-343.826C2192.17,-340.853 2507.98,-330.999 2782.76,-300.005"/>
<polygon fill="midnightblue" stroke="midnightblue" points="2783.39,-303.456 2792.92,-298.846 2782.59,-296.501 2783.39,-303.456"/>
</g>
<!-- Node159 -->
<g id="node44" class="node"><title>Node159</title>
<polygon fill="white" stroke="#bfbfbf" points="2897,-280.5 2897,-299.5 2995,-299.5 2995,-280.5 2897,-280.5"/>
<text text-anchor="middle" x="2946" y="-287.5" font-family="Helvetica,sans-Serif" font-size="10.00">QNetworkRequest</text>
</g>
<!-- Node0&#45;&gt;Node159 -->
<g id="edge61" class="edge"><title>Node0&#45;&gt;Node159</title>
<path fill="none" stroke="midnightblue" d="M2059.06,-344.047C2204.4,-341.393 2570.41,-331.943 2886.71,-300.017"/>
<polygon fill="midnightblue" stroke="midnightblue" points="2887.4,-303.465 2897,-298.969 2886.7,-296.501 2887.4,-303.465"/>
</g>
<!-- Node160 -->
<g id="node45" class="node"><title>Node160</title>
<polygon fill="white" stroke="#bfbfbf" points="3013.5,-280.5 3013.5,-299.5 3096.5,-299.5 3096.5,-280.5 3013.5,-280.5"/>
<text text-anchor="middle" x="3055" y="-287.5" font-family="Helvetica,sans-Serif" font-size="10.00">QSslCertificate</text>
</g>
<!-- Node0&#45;&gt;Node160 -->
<g id="edge62" class="edge"><title>Node0&#45;&gt;Node160</title>
<path fill="none" stroke="midnightblue" d="M2059.19,-344.951C2219.11,-344.216 2647.94,-338.494 3003,-300 3003.11,-299.989 3003.21,-299.977 3003.32,-299.966"/>
<polygon fill="midnightblue" stroke="midnightblue" points="3003.87,-303.424 3013.34,-298.688 3002.98,-296.48 3003.87,-303.424"/>
</g>
<!-- Node161 -->
<g id="node46" class="node"><title>Node161</title>
<polygon fill="white" stroke="#bfbfbf" points="3114.5,-280.5 3114.5,-299.5 3173.5,-299.5 3173.5,-280.5 3114.5,-280.5"/>
<text text-anchor="middle" x="3144" y="-287.5" font-family="Helvetica,sans-Serif" font-size="10.00">QSslError</text>
</g>
<!-- Node0&#45;&gt;Node161 -->
<g id="edge63" class="edge"><title>Node0&#45;&gt;Node161</title>
<path fill="none" stroke="midnightblue" d="M2059.03,-343.972C2260.62,-340.492 2881.53,-327.859 3104.31,-299.762"/>
<polygon fill="midnightblue" stroke="midnightblue" points="3104.83,-303.223 3114.29,-298.456 3103.92,-296.282 3104.83,-303.223"/>
</g>
<!-- Node162 -->
<g id="node47" class="node"><title>Node162</title>
<polygon fill="white" stroke="#bfbfbf" points="3191.5,-280.5 3191.5,-299.5 3260.5,-299.5 3260.5,-280.5 3191.5,-280.5"/>
<text text-anchor="middle" x="3226" y="-287.5" font-family="Helvetica,sans-Serif" font-size="10.00">QSslSocket</text>
</g>
<!-- Node0&#45;&gt;Node162 -->
<g id="edge64" class="edge"><title>Node0&#45;&gt;Node162</title>
<path fill="none" stroke="midnightblue" d="M2059.28,-343.953C2270.43,-340.297 2942.37,-326.903 3181.01,-299.867"/>
<polygon fill="midnightblue" stroke="midnightblue" points="3181.5,-303.334 3191.02,-298.693 3180.68,-296.381 3181.5,-303.334"/>
</g>
<!-- Node163 -->
<g id="node48" class="node"><title>Node163</title>
<polygon fill="white" stroke="#bfbfbf" points="3278.5,-280.5 3278.5,-299.5 3343.5,-299.5 3343.5,-280.5 3278.5,-280.5"/>
<text text-anchor="middle" x="3311" y="-287.5" font-family="Helvetica,sans-Serif" font-size="10.00">QStringList</text>
</g>
<!-- Node0&#45;&gt;Node163 -->
<g id="edge65" class="edge"><title>Node0&#45;&gt;Node163</title>
<path fill="none" stroke="midnightblue" d="M2059.26,-344.224C2280.63,-341.322 3011.48,-329.769 3268.05,-299.836"/>
<polygon fill="midnightblue" stroke="midnightblue" points="3268.57,-303.299 3278.08,-298.627 3267.73,-296.35 3268.57,-303.299"/>
</g>
<!-- Node164 -->
<g id="node49" class="node"><title>Node164</title>
<polygon fill="white" stroke="#bfbfbf" points="3361.5,-280.5 3361.5,-299.5 3450.5,-299.5 3450.5,-280.5 3361.5,-280.5"/>
<text text-anchor="middle" x="3406" y="-287.5" font-family="Helvetica,sans-Serif" font-size="10.00">QTextDocument</text>
</g>
<!-- Node0&#45;&gt;Node164 -->
<g id="edge66" class="edge"><title>Node0&#45;&gt;Node164</title>
<path fill="none" stroke="midnightblue" d="M2059.32,-343.994C2290.01,-340.214 3076.16,-325.791 3350.93,-299.925"/>
<polygon fill="midnightblue" stroke="midnightblue" points="3351.66,-303.371 3361.27,-298.922 3350.98,-296.404 3351.66,-303.371"/>
</g>
<!-- Node165 -->
<g id="node50" class="node"><title>Node165</title>
<polygon fill="white" stroke="#bfbfbf" points="3468.5,-280.5 3468.5,-299.5 3505.5,-299.5 3505.5,-280.5 3468.5,-280.5"/>
<text text-anchor="middle" x="3487" y="-287.5" font-family="Helvetica,sans-Serif" font-size="10.00">QUrl</text>
</g>
<!-- Node0&#45;&gt;Node165 -->
<g id="edge67" class="edge"><title>Node0&#45;&gt;Node165</title>
<path fill="none" stroke="midnightblue" d="M2059.02,-345.41C2301.41,-346.6 3163.45,-347.433 3457.97,-299.556"/>
<polygon fill="midnightblue" stroke="midnightblue" points="3458.92,-302.945 3468.2,-297.833 3457.76,-296.042 3458.92,-302.945"/>
</g>
<!-- Node2 -->
<g id="node3" class="node"><title>Node2</title>
<g id="a_node3"><a xlink:href="paymentrequestplus_8h.html" target="_top" xlink:title="paymentrequestplus.h">
<polygon fill="white" stroke="red" points="132.5,-168.5 132.5,-187.5 245.5,-187.5 245.5,-168.5 132.5,-168.5"/>
<text text-anchor="middle" x="189" y="-175.5" font-family="Helvetica,sans-Serif" font-size="10.00">paymentrequestplus.h</text>
</a>
</g>
</g>
<!-- Node1&#45;&gt;Node2 -->
<g id="edge2" class="edge"><title>Node1&#45;&gt;Node2</title>
<path fill="none" stroke="midnightblue" d="M174.694,-280.361C157.255,-268.629 131.241,-246.526 141,-224 146.268,-211.84 156.62,-201.459 166.365,-193.743"/>
<polygon fill="midnightblue" stroke="midnightblue" points="168.644,-196.412 174.63,-187.67 164.499,-190.771 168.644,-196.412"/>
</g>
<!-- Node84 -->
<g id="node11" class="node"><title>Node84</title>
<polygon fill="white" stroke="#bfbfbf" points="606,-112.5 606,-131.5 656,-131.5 656,-112.5 606,-112.5"/>
<text text-anchor="middle" x="631" y="-119.5" font-family="Helvetica,sans-Serif" font-size="10.00">QString</text>
</g>
<!-- Node1&#45;&gt;Node84 -->
<g id="edge16" class="edge"><title>Node1&#45;&gt;Node84</title>
<path fill="none" stroke="midnightblue" d="M173.762,-280.302C161.38,-272.424 144.467,-259.667 135,-244 117.314,-214.733 99.911,-193.225 123,-168 154.856,-133.197 485.842,-125.153 595.747,-123.435"/>
<polygon fill="midnightblue" stroke="midnightblue" points="596.025,-126.931 605.972,-123.284 595.921,-119.932 596.025,-126.931"/>
</g>
<!-- Node85 -->
<g id="node12" class="node"><title>Node85</title>
<g id="a_node12"><a xlink:href="walletmodel_8h.html" target="_top" xlink:title="walletmodel.h">
<polygon fill="white" stroke="red" points="150.5,-224.5 150.5,-243.5 227.5,-243.5 227.5,-224.5 150.5,-224.5"/>
<text text-anchor="middle" x="189" y="-231.5" font-family="Helvetica,sans-Serif" font-size="10.00">walletmodel.h</text>
</a>
</g>
</g>
<!-- Node1&#45;&gt;Node85 -->
<g id="edge12" class="edge"><title>Node1&#45;&gt;Node85</title>
<path fill="none" stroke="midnightblue" d="M189,-280.083C189,-273.006 189,-262.861 189,-253.986"/>
<polygon fill="midnightblue" stroke="midnightblue" points="192.5,-253.751 189,-243.751 185.5,-253.751 192.5,-253.751"/>
</g>
<!-- Node87 -->
<g id="node13" class="node"><title>Node87</title>
<polygon fill="white" stroke="#bfbfbf" points="263.5,-168.5 263.5,-187.5 316.5,-187.5 316.5,-168.5 263.5,-168.5"/>
<text text-anchor="middle" x="290" y="-175.5" font-family="Helvetica,sans-Serif" font-size="10.00">QObject</text>
</g>
<!-- Node1&#45;&gt;Node87 -->
<g id="edge15" class="edge"><title>Node1&#45;&gt;Node87</title>
<path fill="none" stroke="midnightblue" d="M198.672,-280.34C208.399,-271.495 223.677,-257.223 236,-244 250.769,-228.152 266.465,-208.962 277.106,-195.557"/>
<polygon fill="midnightblue" stroke="midnightblue" points="279.874,-197.7 283.308,-187.677 274.373,-193.37 279.874,-197.7"/>
</g>
<!-- Node2&#45;&gt;Node4 -->
<g id="edge3" class="edge"><title>Node2&#45;&gt;Node4</title>
<path fill="none" stroke="midnightblue" d="M186.358,-168.083C184.214,-160.849 181.121,-150.409 178.451,-141.397"/>
<polygon fill="midnightblue" stroke="midnightblue" points="181.79,-140.345 175.593,-131.751 175.078,-142.333 181.79,-140.345"/>
</g>
<!-- Node2&#45;&gt;Node82 -->
<g id="edge9" class="edge"><title>Node2&#45;&gt;Node82</title>
<path fill="none" stroke="midnightblue" d="M245.688,-168.869C248.496,-168.555 251.278,-168.262 254,-168 550.164,-139.439 908.24,-127.571 1031.68,-124.134"/>
<polygon fill="midnightblue" stroke="midnightblue" points="1031.96,-127.628 1041.86,-123.855 1031.77,-120.63 1031.96,-127.628"/>
</g>
<!-- Node2&#45;&gt;Node83 -->
<g id="edge10" class="edge"><title>Node2&#45;&gt;Node83</title>
<path fill="none" stroke="midnightblue" d="M245.684,-168.825C248.493,-168.522 251.277,-168.245 254,-168 637.234,-133.574 734.561,-148.122 1119,-132 1184.01,-129.274 1260.17,-126.048 1301.52,-124.294"/>
<polygon fill="midnightblue" stroke="midnightblue" points="1301.89,-127.781 1311.74,-123.861 1301.6,-120.788 1301.89,-127.781"/>
</g>
<!-- Node2&#45;&gt;Node84 -->
<g id="edge11" class="edge"><title>Node2&#45;&gt;Node84</title>
<path fill="none" stroke="midnightblue" d="M245.712,-169.084C248.514,-168.713 251.288,-168.35 254,-168 379.662,-151.802 529.16,-134.559 595.855,-126.972"/>
<polygon fill="midnightblue" stroke="midnightblue" points="596.291,-130.445 605.832,-125.839 595.501,-123.49 596.291,-130.445"/>
</g>
<!-- Node4&#45;&gt;Node5 -->
<g id="edge4" class="edge"><title>Node4&#45;&gt;Node5</title>
<path fill="none" stroke="midnightblue" d="M151.926,-112.444C129.94,-103.517 95.2657,-89.4387 70.3359,-79.3168"/>
<polygon fill="midnightblue" stroke="midnightblue" points="71.5578,-76.0355 60.9756,-75.5164 68.9244,-82.5213 71.5578,-76.0355"/>
</g>
<!-- Node54 -->
<g id="node6" class="node"><title>Node54</title>
<g id="a_node6"><a xlink:href="key_8h.html" target="_top" xlink:title="key.h">
<polygon fill="white" stroke="red" points="152.5,-56.5 152.5,-75.5 193.5,-75.5 193.5,-56.5 152.5,-56.5"/>
<text text-anchor="middle" x="173" y="-63.5" font-family="Helvetica,sans-Serif" font-size="10.00">key.h</text>
</a>
</g>
</g>
<!-- Node4&#45;&gt;Node54 -->
<g id="edge5" class="edge"><title>Node4&#45;&gt;Node54</title>
<path fill="none" stroke="midnightblue" d="M173,-112.083C173,-105.006 173,-94.8611 173,-85.9865"/>
<polygon fill="midnightblue" stroke="midnightblue" points="176.5,-85.751 173,-75.7511 169.5,-85.7511 176.5,-85.751"/>
</g>
<!-- Node55 -->
<g id="node7" class="node"><title>Node55</title>
<g id="a_node7"><a xlink:href="pubkey_8h.html" target="_top" xlink:title="pubkey.h">
<polygon fill="white" stroke="red" points="120,-0.5 120,-19.5 176,-19.5 176,-0.5 120,-0.5"/>
<text text-anchor="middle" x="148" y="-7.5" font-family="Helvetica,sans-Serif" font-size="10.00">pubkey.h</text>
</a>
</g>
</g>
<!-- Node4&#45;&gt;Node55 -->
<g id="edge7" class="edge"><title>Node4&#45;&gt;Node55</title>
<path fill="none" stroke="midnightblue" d="M164.786,-112.182C157.456,-103.663 147.245,-90.0191 143,-76 138.388,-60.7669 140.351,-42.6557 143.058,-29.425"/>
<polygon fill="midnightblue" stroke="midnightblue" points="146.479,-30.1669 145.379,-19.6294 139.668,-28.5533 146.479,-30.1669"/>
</g>
<!-- Node34 -->
<g id="node8" class="node"><title>Node34</title>
<g id="a_node8"><a xlink:href="script_8h.html" target="_top" xlink:title="script/script.h">
<polygon fill="white" stroke="red" points="212,-56.5 212,-75.5 288,-75.5 288,-56.5 212,-56.5"/>
<text text-anchor="middle" x="250" y="-63.5" font-family="Helvetica,sans-Serif" font-size="10.00">script/script.h</text>
</a>
</g>
</g>
<!-- Node4&#45;&gt;Node34 -->
<g id="edge8" class="edge"><title>Node4&#45;&gt;Node34</title>
<path fill="none" stroke="midnightblue" d="M185.371,-112.324C197.158,-104.058 215.132,-91.4527 229.136,-81.6322"/>
<polygon fill="midnightblue" stroke="midnightblue" points="231.482,-84.2619 237.659,-75.6545 227.462,-78.5307 231.482,-84.2619"/>
</g>
<!-- Node54&#45;&gt;Node55 -->
<g id="edge6" class="edge"><title>Node54&#45;&gt;Node55</title>
<path fill="none" stroke="midnightblue" d="M168.872,-56.083C165.486,-48.77 160.584,-38.1814 156.381,-29.1034"/>
<polygon fill="midnightblue" stroke="midnightblue" points="159.429,-27.3553 152.051,-19.7511 153.077,-30.2962 159.429,-27.3553"/>
</g>
<!-- Node85&#45;&gt;Node2 -->
<g id="edge13" class="edge"><title>Node85&#45;&gt;Node2</title>
<path fill="none" stroke="midnightblue" d="M189,-224.083C189,-217.006 189,-206.861 189,-197.986"/>
<polygon fill="midnightblue" stroke="midnightblue" points="192.5,-197.751 189,-187.751 185.5,-197.751 192.5,-197.751"/>
</g>
<!-- Node85&#45;&gt;Node87 -->
<g id="edge14" class="edge"><title>Node85&#45;&gt;Node87</title>
<path fill="none" stroke="midnightblue" d="M205.227,-224.324C221.351,-215.703 246.3,-202.364 264.964,-192.386"/>
<polygon fill="midnightblue" stroke="midnightblue" points="266.644,-195.456 273.813,-187.655 263.344,-189.283 266.644,-195.456"/>
</g>
<!-- Node88&#45;&gt;Node84 -->
<g id="edge20" class="edge"><title>Node88&#45;&gt;Node84</title>
<path fill="none" stroke="midnightblue" d="M1076.6,-280.353C1046.46,-257.947 961.448,-197.688 881,-168 807.572,-140.902 715.799,-129.749 666.408,-125.456"/>
<polygon fill="midnightblue" stroke="midnightblue" points="666.498,-121.951 656.245,-124.618 665.923,-128.928 666.498,-121.951"/>
</g>
<!-- Node22 -->
<g id="node15" class="node"><title>Node22</title>
<g id="a_node15"><a xlink:href="amount_8h.html" target="_top" xlink:title="amount.h">
<polygon fill="white" stroke="red" points="1157.5,-224.5 1157.5,-243.5 1214.5,-243.5 1214.5,-224.5 1157.5,-224.5"/>
<text text-anchor="middle" x="1186" y="-231.5" font-family="Helvetica,sans-Serif" font-size="10.00">amount.h</text>
</a>
</g>
</g>
<!-- Node88&#45;&gt;Node22 -->
<g id="edge18" class="edge"><title>Node88&#45;&gt;Node22</title>
<path fill="none" stroke="midnightblue" d="M1103.75,-280.324C1119.32,-271.743 1143.38,-258.486 1161.46,-248.522"/>
<polygon fill="midnightblue" stroke="midnightblue" points="1163.22,-251.546 1170.29,-243.655 1159.85,-245.415 1163.22,-251.546"/>
</g>
<!-- Node89 -->
<g id="node16" class="node"><title>Node89</title>
<polygon fill="white" stroke="#bfbfbf" points="1036.5,-224.5 1036.5,-243.5 1139.5,-243.5 1139.5,-224.5 1036.5,-224.5"/>
<text text-anchor="middle" x="1088" y="-231.5" font-family="Helvetica,sans-Serif" font-size="10.00">QAbstractListModel</text>
</g>
<!-- Node88&#45;&gt;Node89 -->
<g id="edge19" class="edge"><title>Node88&#45;&gt;Node89</title>
<path fill="none" stroke="midnightblue" d="M1088,-280.083C1088,-273.006 1088,-262.861 1088,-253.986"/>
<polygon fill="midnightblue" stroke="midnightblue" points="1091.5,-253.751 1088,-243.751 1084.5,-253.751 1091.5,-253.751"/>
</g>
<!-- Node90&#45;&gt;Node84 -->
<g id="edge28" class="edge"><title>Node90&#45;&gt;Node84</title>
<path fill="none" stroke="midnightblue" d="M741.323,-288.041C796.291,-285.372 923.72,-275.816 950,-244 955.661,-237.147 955.252,-231.172 950,-224 915.827,-177.335 741.799,-142.156 666.17,-128.829"/>
<polygon fill="midnightblue" stroke="midnightblue" points="666.627,-125.356 656.176,-127.095 665.43,-132.253 666.627,-125.356"/>
</g>
<!-- Node90&#45;&gt;Node87 -->
<g id="edge26" class="edge"><title>Node90&#45;&gt;Node87</title>
<path fill="none" stroke="midnightblue" d="M708.375,-280.494C694.933,-266.123 665.454,-237.305 634,-224 579.165,-200.805 403.863,-186.598 326.864,-181.33"/>
<polygon fill="midnightblue" stroke="midnightblue" points="326.886,-177.823 316.674,-180.646 326.417,-184.808 326.886,-177.823"/>
</g>
<!-- Node90&#45;&gt;Node22 -->
<g id="edge22" class="edge"><title>Node90&#45;&gt;Node22</title>
<path fill="none" stroke="midnightblue" d="M741.475,-287.496C807.075,-283.381 987.26,-270.542 1147.41,-243.872"/>
<polygon fill="midnightblue" stroke="midnightblue" points="1148.17,-247.295 1157.45,-242.179 1147,-240.392 1148.17,-247.295"/>
</g>
<!-- Node91 -->
<g id="node18" class="node"><title>Node91</title>
<polygon fill="white" stroke="#bfbfbf" points="284,-224.5 284,-243.5 334,-243.5 334,-224.5 284,-224.5"/>
<text text-anchor="middle" x="309" y="-231.5" font-family="Helvetica,sans-Serif" font-size="10.00">QEvent</text>
</g>
<!-- Node90&#45;&gt;Node91 -->
<g id="edge23" class="edge"><title>Node90&#45;&gt;Node91</title>
<path fill="none" stroke="midnightblue" d="M690.934,-287.184C632.08,-282.665 480.372,-269.532 344.343,-244.016"/>
<polygon fill="midnightblue" stroke="midnightblue" points="344.64,-240.509 334.162,-242.077 343.33,-247.386 344.64,-240.509"/>
</g>
<!-- Node92 -->
<g id="node19" class="node"><title>Node92</title>
<polygon fill="white" stroke="#bfbfbf" points="352.5,-224.5 352.5,-243.5 429.5,-243.5 429.5,-224.5 352.5,-224.5"/>
<text text-anchor="middle" x="391" y="-231.5" font-family="Helvetica,sans-Serif" font-size="10.00">QHeaderView</text>
</g>
<!-- Node90&#45;&gt;Node92 -->
<g id="edge24" class="edge"><title>Node90&#45;&gt;Node92</title>
<path fill="none" stroke="midnightblue" d="M690.661,-285.148C643.368,-277.904 538.214,-261.548 439.823,-244.286"/>
<polygon fill="midnightblue" stroke="midnightblue" points="440.168,-240.793 429.712,-242.504 438.953,-247.686 440.168,-240.793"/>
</g>
<!-- Node93 -->
<g id="node20" class="node"><title>Node93</title>
<polygon fill="white" stroke="#bfbfbf" points="447.5,-224.5 447.5,-243.5 528.5,-243.5 528.5,-224.5 447.5,-224.5"/>
<text text-anchor="middle" x="488" y="-231.5" font-family="Helvetica,sans-Serif" font-size="10.00">QMessageBox</text>
</g>
<!-- Node90&#45;&gt;Node93 -->
<g id="edge25" class="edge"><title>Node90&#45;&gt;Node93</title>
<path fill="none" stroke="midnightblue" d="M690.729,-283.015C653.031,-274.086 581.456,-257.134 534.234,-245.95"/>
<polygon fill="midnightblue" stroke="midnightblue" points="534.793,-242.486 524.255,-243.587 533.179,-249.297 534.793,-242.486"/>
</g>
<!-- Node94 -->
<g id="node21" class="node"><title>Node94</title>
<polygon fill="white" stroke="#bfbfbf" points="547,-224.5 547,-243.5 625,-243.5 625,-224.5 547,-224.5"/>
<text text-anchor="middle" x="586" y="-231.5" font-family="Helvetica,sans-Serif" font-size="10.00">QProgressBar</text>
</g>
<!-- Node90&#45;&gt;Node94 -->
<g id="edge27" class="edge"><title>Node90&#45;&gt;Node94</title>
<path fill="none" stroke="midnightblue" d="M695.401,-280.444C674.007,-271.557 640.319,-257.563 615.976,-247.451"/>
<polygon fill="midnightblue" stroke="midnightblue" points="617.08,-244.12 606.503,-243.516 614.395,-250.585 617.08,-244.12"/>
</g>
<!-- Node95 -->
<g id="node22" class="node"><title>Node95</title>
<polygon fill="white" stroke="#bfbfbf" points="681,-224.5 681,-243.5 751,-243.5 751,-224.5 681,-224.5"/>
<text text-anchor="middle" x="716" y="-231.5" font-family="Helvetica,sans-Serif" font-size="10.00">QTableView</text>
</g>
<!-- Node90&#45;&gt;Node95 -->
<g id="edge29" class="edge"><title>Node90&#45;&gt;Node95</title>
<path fill="none" stroke="midnightblue" d="M716,-280.083C716,-273.006 716,-262.861 716,-253.986"/>
<polygon fill="midnightblue" stroke="midnightblue" points="719.5,-253.751 716,-243.751 712.5,-253.751 719.5,-253.751"/>
</g>
<!-- Node96 -->
<g id="node23" class="node"><title>Node96</title>
<polygon fill="white" stroke="#bfbfbf" points="769.5,-224.5 769.5,-243.5 816.5,-243.5 816.5,-224.5 769.5,-224.5"/>
<text text-anchor="middle" x="793" y="-231.5" font-family="Helvetica,sans-Serif" font-size="10.00">QLabel</text>
</g>
<!-- Node90&#45;&gt;Node96 -->
<g id="edge30" class="edge"><title>Node90&#45;&gt;Node96</title>
<path fill="none" stroke="midnightblue" d="M728.371,-280.324C740.158,-272.058 758.132,-259.453 772.136,-249.632"/>
<polygon fill="midnightblue" stroke="midnightblue" points="774.482,-252.262 780.659,-243.655 770.462,-246.531 774.482,-252.262"/>
</g>
<!-- Node97 -->
<g id="node24" class="node"><title>Node97</title>
<polygon fill="white" stroke="#bfbfbf" points="834.5,-224.5 834.5,-243.5 941.5,-243.5 941.5,-224.5 834.5,-224.5"/>
<text text-anchor="middle" x="888" y="-231.5" font-family="Helvetica,sans-Serif" font-size="10.00">boost/filesystem.hpp</text>
</g>
<!-- Node90&#45;&gt;Node97 -->
<g id="edge31" class="edge"><title>Node90&#45;&gt;Node97</title>
<path fill="none" stroke="midnightblue" d="M741.01,-281.148C769.888,-272.082 817.667,-257.081 850.882,-246.653"/>
<polygon fill="midnightblue" stroke="midnightblue" points="852.193,-249.91 860.685,-243.576 850.096,-243.232 852.193,-249.91"/>
</g>
<!-- Node98&#45;&gt;Node22 -->
<g id="edge33" class="edge"><title>Node98&#45;&gt;Node22</title>
<path fill="none" stroke="midnightblue" d="M1186,-280.083C1186,-273.006 1186,-262.861 1186,-253.986"/>
<polygon fill="midnightblue" stroke="midnightblue" points="1189.5,-253.751 1186,-243.751 1182.5,-253.751 1189.5,-253.751"/>
</g>
<!-- Node98&#45;&gt;Node89 -->
<g id="edge34" class="edge"><title>Node98&#45;&gt;Node89</title>
<path fill="none" stroke="midnightblue" d="M1170.25,-280.324C1154.68,-271.743 1130.62,-258.486 1112.54,-248.522"/>
<polygon fill="midnightblue" stroke="midnightblue" points="1114.15,-245.415 1103.71,-243.655 1110.78,-251.546 1114.15,-245.415"/>
</g>
<!-- Node105&#45;&gt;Node4 -->
<g id="edge42" class="edge"><title>Node105&#45;&gt;Node4</title>
<path fill="none" stroke="midnightblue" d="M1280.66,-280.389C1271.12,-265.86 1249.62,-236.81 1223,-224 1038.91,-135.426 378.216,-124.526 211.444,-123.187"/>
<polygon fill="midnightblue" stroke="midnightblue" points="211.209,-119.685 201.184,-123.112 211.158,-126.685 211.209,-119.685"/>
</g>
<!-- Node105&#45;&gt;Node22 -->
<g id="edge41" class="edge"><title>Node105&#45;&gt;Node22</title>
<path fill="none" stroke="midnightblue" d="M1269.93,-280.324C1254.04,-271.743 1229.49,-258.486 1211.04,-248.522"/>
<polygon fill="midnightblue" stroke="midnightblue" points="1212.49,-245.326 1202.03,-243.655 1209.16,-251.486 1212.49,-245.326"/>
</g>
<!-- Node105&#45;&gt;Node101 -->
<g id="edge43" class="edge"><title>Node105&#45;&gt;Node101</title>
<path fill="none" stroke="midnightblue" d="M1289.8,-280.083C1292.91,-272.77 1297.42,-262.181 1301.29,-253.103"/>
<polygon fill="midnightblue" stroke="midnightblue" points="1304.57,-254.323 1305.27,-243.751 1298.13,-251.58 1304.57,-254.323"/>
</g>
<!-- Node105&#45;&gt;Node104 -->
<g id="edge44" class="edge"><title>Node105&#45;&gt;Node104</title>
<path fill="none" stroke="midnightblue" d="M1301.75,-280.324C1317.32,-271.743 1341.38,-258.486 1359.46,-248.522"/>
<polygon fill="midnightblue" stroke="midnightblue" points="1361.22,-251.546 1368.29,-243.655 1357.85,-245.415 1361.22,-251.546"/>
</g>
</g>
</svg>
        <g id="navigator" transform="translate(0 0)" fill="#404254">
                <rect fill="#f2f5e9" fill-opacity="0.5" stroke="#606060" stroke-width=".5" x="0" y="0" width="60" height="60"/>
                <use id="zoomplus" xlink:href="#zoomPlus" x="17" y="9" onmousedown="handleZoom(evt,'in')"/>
                <use id="zoomminus" xlink:href="#zoomMin" x="42" y="9" onmousedown="handleZoom(evt,'out')"/>
                <use id="reset" xlink:href="#resetDef" x="30" y="36" onmousedown="handleReset()"/>
                <g id="arrowUp" xlink:href="#dirArrow" transform="translate(30 24)" onmousedown="handlePan(0,-1)">
                  <use xlink:href="#rim" fill="#404040">
                        <set attributeName="fill" to="#808080" begin="arrowUp.mouseover" end="arrowUp.mouseout"/>
                  </use>
                  <path fill="none" stroke="white" stroke-width="1.5" d="M0,-3.0v7 M-2.5,-0.5L0,-3.0L2.5,-0.5"/>
                </g>
                <g id="arrowRight" xlink:href="#dirArrow" transform="rotate(90) translate(36 -43)" onmousedown="handlePan(1,0)">
                  <use xlink:href="#rim" fill="#404040">
                        <set attributeName="fill" to="#808080" begin="arrowRight.mouseover" end="arrowRight.mouseout"/>
                  </use>
                  <path fill="none" stroke="white" stroke-width="1.5" d="M0,-3.0v7 M-2.5,-0.5L0,-3.0L2.5,-0.5"/>
                </g>
                <g id="arrowDown" xlink:href="#dirArrow" transform="rotate(180) translate(-30 -48)" onmousedown="handlePan(0,1)">
                  <use xlink:href="#rim" fill="#404040">
                        <set attributeName="fill" to="#808080" begin="arrowDown.mouseover" end="arrowDown.mouseout"/>
                  </use>
                  <path fill="none" stroke="white" stroke-width="1.5" d="M0,-3.0v7 M-2.5,-0.5L0,-3.0L2.5,-0.5"/>
                </g>
                <g id="arrowLeft" xlink:href="#dirArrow" transform="rotate(270) translate(-36 17)" onmousedown="handlePan(-1,0)">
                  <use xlink:href="#rim" fill="#404040">
                        <set attributeName="fill" to="#808080" begin="arrowLeft.mouseover" end="arrowLeft.mouseout"/>
                  </use>
                  <path fill="none" stroke="white" stroke-width="1.5" d="M0,-3.0v7 M-2.5,-0.5L0,-3.0L2.5,-0.5"/>
                </g>
        </g>
        <svg viewBox="0 0 15 15" width="100%" height="30px" preserveAspectRatio="xMaxYMin meet">
         <g id="arrow_out" transform="scale(0.3 0.3)">
          <a xlink:href="paymentserver_8cpp__incl_org.svg" target="_base">
           <rect id="button" ry="5" rx="5" y="6" x="6" height="38" width="38"
                fill="#f2f5e9" fill-opacity="0.5" stroke="#606060" stroke-width="1.0"/>
           <path id="arrow"
             d="M 11.500037,31.436501 C 11.940474,20.09759 22.043105,11.32322 32.158766,21.979434 L 37.068811,17.246167 C 37.068811,17.246167 37.088388,32 37.088388,32 L 22.160133,31.978069 C 22.160133,31.978069 26.997745,27.140456 26.997745,27.140456 C 18.528582,18.264221 13.291696,25.230495 11.500037,31.436501 z"
             style="fill:#404040;"/>
          </a>
         </g>
        </svg>
</svg>
