<?xml version="1.0" encoding="UTF-8" standalone="no"?>
<!DOCTYPE svg PUBLIC "-//W3C//DTD SVG 1.1//EN"
 "http://www.w3.org/Graphics/SVG/1.1/DTD/svg11.dtd">
<!-- Generated by graphviz version 2.36.0 (20140111.2315)
 -->
<!-- Title: src/qt/paymentrequestplus.h Pages: 1 -->
<!--zoomable 196 -->
<svg id="main" version="1.1" xmlns="http://www.w3.org/2000/svg" xmlns:xlink="http://www.w3.org/1999/xlink" xml:space="preserve" onload="init(evt)">
<style type="text/css"><![CDATA[
.edge:hover path { stroke: red; }
.edge:hover polygon { stroke: red; fill: red; }
]]></style>
<script type="text/javascript"><![CDATA[
var edges = document.getElementsByTagName('g');
if (edges && edges.length) {
  for (var i=0;i<edges.length;i++) {
    if (edges[i].id.substr(0,4)=='edge') {
      edges[i].setAttribute('class','edge');
    }
  }
}
]]></script>
        <defs>
                <circle id="rim" cx="0" cy="0" r="7"/>
                <circle id="rim2" cx="0" cy="0" r="3.5"/>
                <g id="zoomPlus">
                        <use xlink:href="#rim" fill="#404040">
                                <set attributeName="fill" to="#808080" begin="zoomplus.mouseover" end="zoomplus.mouseout"/>
                        </use>
                        <path d="M-4,0h8M0,-4v8" fill="none" stroke="white" stroke-width="1.5" pointer-events="none"/>
                </g>
                <g id="zoomMin">
                        <use xlink:href="#rim" fill="#404040">
                                <set attributeName="fill" to="#808080" begin="zoomminus.mouseover" end="zoomminus.mouseout"/>
                        </use>
                        <path d="M-4,0h8" fill="none" stroke="white" stroke-width="1.5" pointer-events="none"/>
                </g>
                <g id="dirArrow">
                        <path fill="none" stroke="white" stroke-width="1.5" d="M0,-3.0v7 M-2.5,-0.5L0,-3.0L2.5,-0.5"/>
                </g>
               <g id="resetDef">
                       <use xlink:href="#rim2" fill="#404040">
                               <set attributeName="fill" to="#808080" begin="reset.mouseover" end="reset.mouseout"/>
                       </use>
               </g>
        </defs>

<script type="text/javascript">
var viewWidth = 2850;
var viewHeight = 196;
var sectionId = 'dynsection-1';
</script>
<script xlink:href="svgpan.js"/>
<svg id="graph" class="graph">
<g id="viewport">
<title>src/qt/paymentrequestplus.h</title>
<polygon fill="white" stroke="none" points="-4,4 -4,-192 2846,-192 2846,4 -4,4"/>
<!-- Node83 -->
<g id="node1" class="node"><title>Node83</title>
<polygon fill="#bfbfbf" stroke="black" points="1287,-168.5 1287,-187.5 1427,-187.5 1427,-168.5 1287,-168.5"/>
<text text-anchor="middle" x="1357" y="-175.5" font-family="Helvetica,sans-Serif" font-size="10.00">src/qt/paymentrequestplus.h</text>
</g>
<!-- Node84 -->
<g id="node2" class="node"><title>Node84</title>
<g id="a_node2"><a xlink:href="walletmodel_8h.html" target="_top" xlink:title="src/qt/walletmodel.h">
<polygon fill="white" stroke="black" points="1232,-112.5 1232,-131.5 1336,-131.5 1336,-112.5 1232,-112.5"/>
<text text-anchor="middle" x="1284" y="-119.5" font-family="Helvetica,sans-Serif" font-size="10.00">src/qt/walletmodel.h</text>
</a>
</g>
</g>
<!-- Node83&#45;&gt;Node84 -->
<g id="edge1" class="edge"><title>Node83&#45;&gt;Node84</title>
<path fill="none" stroke="midnightblue" d="M1336.86,-162.101C1323.72,-152.382 1307.02,-140.027 1295.94,-131.834"/>
<polygon fill="midnightblue" stroke="midnightblue" points="1335.15,-165.191 1345.27,-168.324 1339.31,-159.563 1335.15,-165.191"/>
</g>
<!-- Node96 -->
<g id="node14" class="node"><title>Node96</title>
<g id="a_node14"><a xlink:href="paymentserver_8h.html" target="_top" xlink:title="src/qt/paymentserver.h">
<polygon fill="white" stroke="black" points="134.5,-56.5 134.5,-75.5 251.5,-75.5 251.5,-56.5 134.5,-56.5"/>
<text text-anchor="middle" x="193" y="-63.5" font-family="Helvetica,sans-Serif" font-size="10.00">src/qt/paymentserver.h</text>
</a>
</g>
</g>
<!-- Node83&#45;&gt;Node96 -->
<g id="edge43" class="edge"><title>Node83&#45;&gt;Node96</title>
<path fill="none" stroke="midnightblue" d="M1276.97,-170.783C1095.71,-156.449 640.03,-119 260,-76 257.318,-75.6965 254.577,-75.3749 251.809,-75.0409"/>
<polygon fill="midnightblue" stroke="midnightblue" points="1276.71,-174.273 1286.95,-171.571 1277.26,-167.295 1276.71,-174.273"/>
</g>
<!-- Node113 -->
<g id="node31" class="node"><title>Node113</title>
<g id="a_node31"><a xlink:href="paymentrequestplus_8cpp.html" target="_top" xlink:title="src/qt/paymentrequestplus.cpp">
<polygon fill="white" stroke="black" points="1354.5,-112.5 1354.5,-131.5 1505.5,-131.5 1505.5,-112.5 1354.5,-112.5"/>
<text text-anchor="middle" x="1430" y="-119.5" font-family="Helvetica,sans-Serif" font-size="10.00">src/qt/paymentrequestplus.cpp</text>
</a>
</g>
</g>
<!-- Node83&#45;&gt;Node113 -->
<g id="edge42" class="edge"><title>Node83&#45;&gt;Node113</title>
<path fill="none" stroke="midnightblue" d="M1377.14,-162.101C1390.28,-152.382 1406.98,-140.027 1418.06,-131.834"/>
<polygon fill="midnightblue" stroke="midnightblue" points="1374.69,-159.563 1368.73,-168.324 1378.85,-165.191 1374.69,-159.563"/>
</g>
<!-- Node114 -->
<g id="node32" class="node"><title>Node114</title>
<g id="a_node32"><a xlink:href="utilitydialog_8cpp.html" target="_top" xlink:title="src/qt/utilitydialog.cpp">
<polygon fill="white" stroke="black" points="1524,-112.5 1524,-131.5 1636,-131.5 1636,-112.5 1524,-112.5"/>
<text text-anchor="middle" x="1580" y="-119.5" font-family="Helvetica,sans-Serif" font-size="10.00">src/qt/utilitydialog.cpp</text>
</a>
</g>
</g>
<!-- Node83&#45;&gt;Node114 -->
<g id="edge44" class="edge"><title>Node83&#45;&gt;Node114</title>
<path fill="none" stroke="midnightblue" d="M1402.06,-166.088C1444.19,-155.887 1506.24,-140.861 1544.83,-131.516"/>
<polygon fill="midnightblue" stroke="midnightblue" points="1401.23,-162.688 1392.34,-168.444 1402.88,-169.492 1401.23,-162.688"/>
</g>
<!-- Node85 -->
<g id="node3" class="node"><title>Node85</title>
<g id="a_node3"><a xlink:href="addresstablemodel_8cpp.html" target="_top" xlink:title="src/qt/addresstablemodel.cpp">
<polygon fill="white" stroke="black" points="2198.5,-56.5 2198.5,-75.5 2343.5,-75.5 2343.5,-56.5 2198.5,-56.5"/>
<text text-anchor="middle" x="2271" y="-63.5" font-family="Helvetica,sans-Serif" font-size="10.00">src/qt/addresstablemodel.cpp</text>
</a>
</g>
</g>
<!-- Node84&#45;&gt;Node85 -->
<g id="edge2" class="edge"><title>Node84&#45;&gt;Node85</title>
<path fill="none" stroke="midnightblue" d="M1346.22,-111.99C1720.48,-77.0384 1817.92,-104.246 2189,-76 2192,-75.7717 2195.06,-75.5203 2198.15,-75.2512"/>
<polygon fill="midnightblue" stroke="midnightblue" points="1345.83,-108.511 1336.2,-112.934 1346.48,-115.48 1345.83,-108.511"/>
</g>
<!-- Node86 -->
<g id="node4" class="node"><title>Node86</title>
<g id="a_node4"><a xlink:href="walletmodeltransaction_8h.html" target="_top" xlink:title="src/qt/walletmodeltransaction.h">
<polygon fill="white" stroke="black" points="2362,-56.5 2362,-75.5 2514,-75.5 2514,-56.5 2362,-56.5"/>
<text text-anchor="middle" x="2438" y="-63.5" font-family="Helvetica,sans-Serif" font-size="10.00">src/qt/walletmodeltransaction.h</text>
</a>
</g>
</g>
<!-- Node84&#45;&gt;Node86 -->
<g id="edge3" class="edge"><title>Node84&#45;&gt;Node86</title>
<path fill="none" stroke="midnightblue" d="M1341.33,-111.555C1783.73,-71.796 1899.64,-107.088 2343,-76 2349.14,-75.5695 2355.52,-75.046 2361.94,-74.4704"/>
<polygon fill="midnightblue" stroke="midnightblue" points="1340.79,-108.089 1331.15,-112.478 1341.42,-115.06 1340.79,-108.089"/>
</g>
<!-- Node88 -->
<g id="node6" class="node"><title>Node88</title>
<g id="a_node6"><a xlink:href="askpassphrasedialog_8cpp.html" target="_top" xlink:title="src/qt/askpassphrasedialog.cpp">
<polygon fill="white" stroke="black" points="2532.5,-56.5 2532.5,-75.5 2687.5,-75.5 2687.5,-56.5 2532.5,-56.5"/>
<text text-anchor="middle" x="2610" y="-63.5" font-family="Helvetica,sans-Serif" font-size="10.00">src/qt/askpassphrasedialog.cpp</text>
</a>
</g>
</g>
<!-- Node84&#45;&gt;Node88 -->
<g id="edge6" class="edge"><title>Node84&#45;&gt;Node88</title>
<path fill="none" stroke="midnightblue" d="M1346.25,-112.005C1868.46,-66.2666 2003.69,-110.75 2523,-76 2526.03,-75.7972 2529.12,-75.5712 2532.24,-75.3268"/>
<polygon fill="midnightblue" stroke="midnightblue" points="1345.85,-108.527 1336.2,-112.893 1346.47,-115.5 1345.85,-108.527"/>
</g>
<!-- Node89 -->
<g id="node7" class="node"><title>Node89</title>
<g id="a_node7"><a xlink:href="coincontroldialog_8cpp.html" target="_top" xlink:title="src/qt/coincontroldialog.cpp">
<polygon fill="white" stroke="black" points="2706,-56.5 2706,-75.5 2842,-75.5 2842,-56.5 2706,-56.5"/>
<text text-anchor="middle" x="2774" y="-63.5" font-family="Helvetica,sans-Serif" font-size="10.00">src/qt/coincontroldialog.cpp</text>
</a>
</g>
</g>
<!-- Node84&#45;&gt;Node89 -->
<g id="edge7" class="edge"><title>Node84&#45;&gt;Node89</title>
<path fill="none" stroke="midnightblue" d="M1346.38,-112C1945.15,-60.7232 2100.21,-118.228 2696,-76 2699.26,-75.7687 2702.6,-75.5017 2705.97,-75.2076"/>
<polygon fill="midnightblue" stroke="midnightblue" points="1345.86,-108.532 1336.2,-112.879 1346.46,-115.506 1345.86,-108.532"/>
</g>
<!-- Node90 -->
<g id="node8" class="node"><title>Node90</title>
<g id="a_node8"><a xlink:href="guiutil_8cpp.html" target="_top" xlink:title="src/qt/guiutil.cpp">
<polygon fill="white" stroke="black" points="269.5,-56.5 269.5,-75.5 358.5,-75.5 358.5,-56.5 269.5,-56.5"/>
<text text-anchor="middle" x="314" y="-63.5" font-family="Helvetica,sans-Serif" font-size="10.00">src/qt/guiutil.cpp</text>
</a>
</g>
</g>
<!-- Node84&#45;&gt;Node90 -->
<g id="edge8" class="edge"><title>Node84&#45;&gt;Node90</title>
<path fill="none" stroke="midnightblue" d="M1221.77,-120.112C1074.11,-117.53 691.112,-108.035 373,-76 368.361,-75.5328 363.529,-74.9518 358.717,-74.3114"/>
<polygon fill="midnightblue" stroke="midnightblue" points="1221.93,-123.616 1231.99,-120.287 1222.05,-116.617 1221.93,-123.616"/>
</g>
<!-- Node91 -->
<g id="node9" class="node"><title>Node91</title>
<g id="a_node9"><a xlink:href="qrdialog_8h.html" target="_top" xlink:title="src/qt/qrdialog.h">
<polygon fill="white" stroke="black" points="415,-56.5 415,-75.5 501,-75.5 501,-56.5 415,-56.5"/>
<text text-anchor="middle" x="458" y="-63.5" font-family="Helvetica,sans-Serif" font-size="10.00">src/qt/qrdialog.h</text>
</a>
</g>
</g>
<!-- Node84&#45;&gt;Node91 -->
<g id="edge9" class="edge"><title>Node84&#45;&gt;Node91</title>
<path fill="none" stroke="midnightblue" d="M1221.38,-119.418C1090.08,-115.643 776.503,-104.227 515,-76 510.518,-75.5162 505.85,-74.9244 501.201,-74.2774"/>
<polygon fill="midnightblue" stroke="midnightblue" points="1221.54,-122.924 1231.64,-119.708 1221.74,-115.927 1221.54,-122.924"/>
</g>
<!-- Node92 -->
<g id="node10" class="node"><title>Node92</title>
<g id="a_node10"><a xlink:href="masternodelist_8cpp.html" target="_top" xlink:title="src/qt/masternodelist.cpp">
<polygon fill="white" stroke="black" points="326.5,-0.5 326.5,-19.5 453.5,-19.5 453.5,-0.5 326.5,-0.5"/>
<text text-anchor="middle" x="390" y="-7.5" font-family="Helvetica,sans-Serif" font-size="10.00">src/qt/masternodelist.cpp</text>
</a>
</g>
</g>
<!-- Node84&#45;&gt;Node92 -->
<g id="edge12" class="edge"><title>Node84&#45;&gt;Node92</title>
<path fill="none" stroke="midnightblue" d="M1221.85,-119.832C1026.72,-115.902 437.397,-101.93 406,-76 389.333,-62.2351 388.439,-34.1593 389.196,-19.8345"/>
<polygon fill="midnightblue" stroke="midnightblue" points="1221.87,-123.333 1231.94,-120.033 1222.01,-116.334 1221.87,-123.333"/>
</g>
<!-- Node93 -->
<g id="node11" class="node"><title>Node93</title>
<g id="a_node11"><a xlink:href="qrdialog_8cpp.html" target="_top" xlink:title="src/qt/qrdialog.cpp">
<polygon fill="white" stroke="black" points="477.5,-0.5 477.5,-19.5 574.5,-19.5 574.5,-0.5 477.5,-0.5"/>
<text text-anchor="middle" x="526" y="-7.5" font-family="Helvetica,sans-Serif" font-size="10.00">src/qt/qrdialog.cpp</text>
</a>
</g>
</g>
<!-- Node84&#45;&gt;Node93 -->
<g id="edge19" class="edge"><title>Node84&#45;&gt;Node93</title>
<path fill="none" stroke="midnightblue" d="M1221.7,-121.112C1053.79,-120.87 600.888,-116.436 548,-76 530.396,-62.541 526.759,-34.3266 526.087,-19.9031"/>
<polygon fill="midnightblue" stroke="midnightblue" points="1221.87,-124.612 1231.87,-121.122 1221.87,-117.612 1221.87,-124.612"/>
</g>
<!-- Node94 -->
<g id="node12" class="node"><title>Node94</title>
<g id="a_node12"><a xlink:href="openuridialog_8cpp.html" target="_top" xlink:title="src/qt/openuridialog.cpp">
<polygon fill="white" stroke="black" points="557,-56.5 557,-75.5 677,-75.5 677,-56.5 557,-56.5"/>
<text text-anchor="middle" x="617" y="-63.5" font-family="Helvetica,sans-Serif" font-size="10.00">src/qt/openuridialog.cpp</text>
</a>
</g>
</g>
<!-- Node84&#45;&gt;Node94 -->
<g id="edge13" class="edge"><title>Node84&#45;&gt;Node94</title>
<path fill="none" stroke="midnightblue" d="M1221.78,-117.441C1112.98,-110.965 881.144,-96.054 686,-76 683.116,-75.7036 680.166,-75.3837 677.188,-75.0473"/>
<polygon fill="midnightblue" stroke="midnightblue" points="1221.73,-120.944 1231.92,-118.041 1222.15,-113.956 1221.73,-120.944"/>
</g>
<!-- Node95 -->
<g id="node13" class="node"><title>Node95</title>
<g id="a_node13"><a xlink:href="overviewpage_8cpp.html" target="_top" xlink:title="src/qt/overviewpage.cpp">
<polygon fill="white" stroke="black" points="695.5,-56.5 695.5,-75.5 818.5,-75.5 818.5,-56.5 695.5,-56.5"/>
<text text-anchor="middle" x="757" y="-63.5" font-family="Helvetica,sans-Serif" font-size="10.00">src/qt/overviewpage.cpp</text>
</a>
</g>
</g>
<!-- Node84&#45;&gt;Node95 -->
<g id="edge14" class="edge"><title>Node84&#45;&gt;Node95</title>
<path fill="none" stroke="midnightblue" d="M1221.91,-115.17C1134.92,-106.918 971.825,-91.1445 833,-76 828.377,-75.4957 823.598,-74.961 818.791,-74.4138"/>
<polygon fill="midnightblue" stroke="midnightblue" points="1221.6,-118.656 1231.88,-116.114 1222.26,-111.687 1221.6,-118.656"/>
</g>
<!-- Node84&#45;&gt;Node96 -->
<g id="edge15" class="edge"><title>Node84&#45;&gt;Node96</title>
<path fill="none" stroke="midnightblue" d="M1221.82,-120.207C1061.94,-117.746 623.576,-108.343 260,-76 257.311,-75.7608 254.565,-75.492 251.793,-75.2007"/>
<polygon fill="midnightblue" stroke="midnightblue" points="1221.89,-123.708 1231.94,-120.359 1222,-116.709 1221.89,-123.708"/>
</g>
<!-- Node99 -->
<g id="node17" class="node"><title>Node99</title>
<g id="a_node17"><a xlink:href="walletmodel_8cpp.html" target="_top" xlink:title="src/qt/walletmodel.cpp">
<polygon fill="white" stroke="black" points="668.5,-0.5 668.5,-19.5 783.5,-19.5 783.5,-0.5 668.5,-0.5"/>
<text text-anchor="middle" x="726" y="-7.5" font-family="Helvetica,sans-Serif" font-size="10.00">src/qt/walletmodel.cpp</text>
</a>
</g>
</g>
<!-- Node84&#45;&gt;Node99 -->
<g id="edge40" class="edge"><title>Node84&#45;&gt;Node99</title>
<path fill="none" stroke="midnightblue" d="M1221.97,-121.329C1139.1,-120.201 988.512,-112.632 866,-76 847.337,-70.4195 844.57,-64.4115 827,-56 799.297,-42.7373 766.769,-28.4749 746.27,-19.6431"/>
<polygon fill="midnightblue" stroke="midnightblue" points="1221.94,-124.829 1231.98,-121.439 1222.02,-117.829 1221.94,-124.829"/>
</g>
<!-- Node100 -->
<g id="node18" class="node"><title>Node100</title>
<g id="a_node18"><a xlink:href="receiverequestdialog_8h.html" target="_top" xlink:title="src/qt/receiverequestdialog.h">
<polygon fill="white" stroke="black" points="1095,-56.5 1095,-75.5 1237,-75.5 1237,-56.5 1095,-56.5"/>
<text text-anchor="middle" x="1166" y="-63.5" font-family="Helvetica,sans-Serif" font-size="10.00">src/qt/receiverequestdialog.h</text>
</a>
</g>
</g>
<!-- Node84&#45;&gt;Node100 -->
<g id="edge20" class="edge"><title>Node84&#45;&gt;Node100</title>
<path fill="none" stroke="midnightblue" d="M1256.1,-108.232C1234.03,-98.1312 1203.82,-84.3091 1184.61,-75.5164"/>
<polygon fill="midnightblue" stroke="midnightblue" points="1254.75,-111.465 1265.3,-112.444 1257.67,-105.1 1254.75,-111.465"/>
</g>
<!-- Node101 -->
<g id="node19" class="node"><title>Node101</title>
<g id="a_node19"><a xlink:href="receivecoinsdialog_8cpp.html" target="_top" xlink:title="src/qt/receivecoinsdialog.cpp">
<polygon fill="white" stroke="black" points="994.5,-0.5 994.5,-19.5 1137.5,-19.5 1137.5,-0.5 994.5,-0.5"/>
<text text-anchor="middle" x="1066" y="-7.5" font-family="Helvetica,sans-Serif" font-size="10.00">src/qt/receivecoinsdialog.cpp</text>
</a>
</g>
</g>
<!-- Node84&#45;&gt;Node101 -->
<g id="edge27" class="edge"><title>Node84&#45;&gt;Node101</title>
<path fill="none" stroke="midnightblue" d="M1221.8,-113.713C1171.38,-106.596 1105.58,-94.1676 1086,-76 1069.9,-61.0647 1066.64,-33.5192 1066.06,-19.572"/>
<polygon fill="midnightblue" stroke="midnightblue" points="1221.6,-117.218 1231.98,-115.109 1222.55,-110.283 1221.6,-117.218"/>
</g>
<!-- Node102 -->
<g id="node20" class="node"><title>Node102</title>
<g id="a_node20"><a xlink:href="receiverequestdialog_8cpp.html" target="_top" xlink:title="src/qt/receiverequestdialog.cpp">
<polygon fill="white" stroke="black" points="1156,-0.5 1156,-19.5 1308,-19.5 1308,-0.5 1156,-0.5"/>
<text text-anchor="middle" x="1232" y="-7.5" font-family="Helvetica,sans-Serif" font-size="10.00">src/qt/receiverequestdialog.cpp</text>
</a>
</g>
</g>
<!-- Node84&#45;&gt;Node102 -->
<g id="edge28" class="edge"><title>Node84&#45;&gt;Node102</title>
<path fill="none" stroke="midnightblue" d="M1275.64,-103.32C1264.32,-79.3697 1244.55,-37.5484 1236.06,-19.5914"/>
<polygon fill="midnightblue" stroke="midnightblue" points="1272.48,-104.824 1279.92,-112.368 1278.81,-101.832 1272.48,-104.824"/>
</g>
<!-- Node103 -->
<g id="node21" class="node"><title>Node103</title>
<g id="a_node21"><a xlink:href="recentrequeststablemodel_8h.html" target="_top" xlink:title="src/qt/recentrequeststablemodel.h">
<polygon fill="white" stroke="black" points="875,-56.5 875,-75.5 1039,-75.5 1039,-56.5 875,-56.5"/>
<text text-anchor="middle" x="957" y="-63.5" font-family="Helvetica,sans-Serif" font-size="10.00">src/qt/recentrequeststablemodel.h</text>
</a>
</g>
</g>
<!-- Node84&#45;&gt;Node103 -->
<g id="edge23" class="edge"><title>Node84&#45;&gt;Node103</title>
<path fill="none" stroke="midnightblue" d="M1222.18,-110.791C1160.39,-100.587 1066.47,-85.078 1008.57,-75.5164"/>
<polygon fill="midnightblue" stroke="midnightblue" points="1221.75,-114.267 1232.19,-112.444 1222.89,-107.361 1221.75,-114.267"/>
</g>
<!-- Node105 -->
<g id="node23" class="node"><title>Node105</title>
<g id="a_node23"><a xlink:href="sendcoinsdialog_8h.html" target="_top" xlink:title="src/qt/sendcoinsdialog.h">
<polygon fill="white" stroke="black" points="1469,-56.5 1469,-75.5 1591,-75.5 1591,-56.5 1469,-56.5"/>
<text text-anchor="middle" x="1530" y="-63.5" font-family="Helvetica,sans-Serif" font-size="10.00">src/qt/sendcoinsdialog.h</text>
</a>
</g>
</g>
<!-- Node84&#45;&gt;Node105 -->
<g id="edge29" class="edge"><title>Node84&#45;&gt;Node105</title>
<path fill="none" stroke="midnightblue" d="M1332.83,-110.281C1379.32,-100.077 1448.36,-84.9203 1491.2,-75.5164"/>
<polygon fill="midnightblue" stroke="midnightblue" points="1332,-106.881 1322.98,-112.444 1333.5,-113.718 1332,-106.881"/>
</g>
<!-- Node106 -->
<g id="node24" class="node"><title>Node106</title>
<g id="a_node24"><a xlink:href="sendcoinsdialog_8cpp.html" target="_top" xlink:title="src/qt/sendcoinsdialog.cpp">
<polygon fill="white" stroke="black" points="1326.5,-0.5 1326.5,-19.5 1459.5,-19.5 1459.5,-0.5 1326.5,-0.5"/>
<text text-anchor="middle" x="1393" y="-7.5" font-family="Helvetica,sans-Serif" font-size="10.00">src/qt/sendcoinsdialog.cpp</text>
</a>
</g>
</g>
<!-- Node84&#45;&gt;Node106 -->
<g id="edge35" class="edge"><title>Node84&#45;&gt;Node106</title>
<path fill="none" stroke="midnightblue" d="M1291.81,-102.639C1298.39,-88.6903 1308.84,-69.6436 1322,-56 1337.2,-40.2459 1358.96,-27.5041 1374.38,-19.6533"/>
<polygon fill="midnightblue" stroke="midnightblue" points="1288.45,-101.582 1287.55,-112.138 1294.84,-104.447 1288.45,-101.582"/>
</g>
<!-- Node107 -->
<g id="node25" class="node"><title>Node107</title>
<g id="a_node25"><a xlink:href="walletview_8cpp.html" target="_top" xlink:title="src/qt/walletview.cpp">
<polygon fill="white" stroke="black" points="1624.5,-0.5 1624.5,-19.5 1733.5,-19.5 1733.5,-0.5 1624.5,-0.5"/>
<text text-anchor="middle" x="1679" y="-7.5" font-family="Helvetica,sans-Serif" font-size="10.00">src/qt/walletview.cpp</text>
</a>
</g>
</g>
<!-- Node84&#45;&gt;Node107 -->
<g id="edge41" class="edge"><title>Node84&#45;&gt;Node107</title>
<path fill="none" stroke="midnightblue" d="M1346.3,-111.916C1468.06,-96.9433 1511.16,-129.802 1617,-76 1643.14,-62.7141 1664.32,-33.8869 1673.73,-19.5099"/>
<polygon fill="midnightblue" stroke="midnightblue" points="1345.69,-108.466 1336.24,-113.241 1346.61,-115.407 1345.69,-108.466"/>
</g>
<!-- Node108 -->
<g id="node26" class="node"><title>Node108</title>
<g id="a_node26"><a xlink:href="sendcoinsentry_8h.html" target="_top" xlink:title="src/qt/sendcoinsentry.h">
<polygon fill="white" stroke="black" points="1331.5,-56.5 1331.5,-75.5 1450.5,-75.5 1450.5,-56.5 1331.5,-56.5"/>
<text text-anchor="middle" x="1391" y="-63.5" font-family="Helvetica,sans-Serif" font-size="10.00">src/qt/sendcoinsentry.h</text>
</a>
</g>
</g>
<!-- Node84&#45;&gt;Node108 -->
<g id="edge32" class="edge"><title>Node84&#45;&gt;Node108</title>
<path fill="none" stroke="midnightblue" d="M1310.3,-107.726C1330.11,-97.7271 1356.71,-84.3065 1373.85,-75.6545"/>
<polygon fill="midnightblue" stroke="midnightblue" points="1308.54,-104.694 1301.19,-112.324 1311.7,-110.943 1308.54,-104.694"/>
</g>
<!-- Node109 -->
<g id="node27" class="node"><title>Node109</title>
<g id="a_node27"><a xlink:href="sendcoinsentry_8cpp.html" target="_top" xlink:title="src/qt/sendcoinsentry.cpp">
<polygon fill="white" stroke="black" points="1477.5,-0.5 1477.5,-19.5 1606.5,-19.5 1606.5,-0.5 1477.5,-0.5"/>
<text text-anchor="middle" x="1542" y="-7.5" font-family="Helvetica,sans-Serif" font-size="10.00">src/qt/sendcoinsentry.cpp</text>
</a>
</g>
</g>
<!-- Node84&#45;&gt;Node109 -->
<g id="edge36" class="edge"><title>Node84&#45;&gt;Node109</title>
<path fill="none" stroke="midnightblue" d="M1346.48,-112.055C1417.05,-105.186 1564.3,-117.093 1600,-76 1617.75,-55.5629 1582.32,-31.9268 1559.4,-19.5572"/>
<polygon fill="midnightblue" stroke="midnightblue" points="1345.76,-108.615 1336.24,-113.271 1346.58,-115.567 1345.76,-108.615"/>
</g>
<!-- Node110 -->
<g id="node28" class="node"><title>Node110</title>
<g id="a_node28"><a xlink:href="signverifymessagedialog_8cpp.html" target="_top" xlink:title="src/qt/signverifymessagedialog.cpp">
<polygon fill="white" stroke="black" points="1685,-56.5 1685,-75.5 1855,-75.5 1855,-56.5 1685,-56.5"/>
<text text-anchor="middle" x="1770" y="-63.5" font-family="Helvetica,sans-Serif" font-size="10.00">src/qt/signverifymessagedialog.cpp</text>
</a>
</g>
</g>
<!-- Node84&#45;&gt;Node110 -->
<g id="edge37" class="edge"><title>Node84&#45;&gt;Node110</title>
<path fill="none" stroke="midnightblue" d="M1346.24,-111.887C1469.74,-96.3809 1601.18,-83.0587 1684.81,-74.984"/>
<polygon fill="midnightblue" stroke="midnightblue" points="1345.71,-108.426 1336.22,-113.151 1346.58,-115.371 1345.71,-108.426"/>
</g>
<!-- Node111 -->
<g id="node29" class="node"><title>Node111</title>
<g id="a_node29"><a xlink:href="transactiontablemodel_8cpp.html" target="_top" xlink:title="src/qt/transactiontablemodel.cpp">
<polygon fill="white" stroke="black" points="1873,-56.5 1873,-75.5 2031,-75.5 2031,-56.5 1873,-56.5"/>
<text text-anchor="middle" x="1952" y="-63.5" font-family="Helvetica,sans-Serif" font-size="10.00">src/qt/transactiontablemodel.cpp</text>
</a>
</g>
</g>
<!-- Node84&#45;&gt;Node111 -->
<g id="edge38" class="edge"><title>Node84&#45;&gt;Node111</title>
<path fill="none" stroke="midnightblue" d="M1346.24,-111.946C1576.58,-87.3463 1636.89,-95.4852 1864,-76 1866.91,-75.7506 1869.87,-75.4886 1872.86,-75.2173"/>
<polygon fill="midnightblue" stroke="midnightblue" points="1345.78,-108.475 1336.21,-113.026 1346.53,-115.435 1345.78,-108.475"/>
</g>
<!-- Node112 -->
<g id="node30" class="node"><title>Node112</title>
<g id="a_node30"><a xlink:href="transactionview_8cpp.html" target="_top" xlink:title="src/qt/transactionview.cpp">
<polygon fill="white" stroke="black" points="2049.5,-56.5 2049.5,-75.5 2180.5,-75.5 2180.5,-56.5 2049.5,-56.5"/>
<text text-anchor="middle" x="2115" y="-63.5" font-family="Helvetica,sans-Serif" font-size="10.00">src/qt/transactionview.cpp</text>
</a>
</g>
</g>
<!-- Node84&#45;&gt;Node112 -->
<g id="edge39" class="edge"><title>Node84&#45;&gt;Node112</title>
<path fill="none" stroke="midnightblue" d="M1346.31,-111.968C1654.06,-81.8655 1734.56,-101.894 2039,-76 2042.31,-75.7185 2045.7,-75.4061 2049.12,-75.0717"/>
<polygon fill="midnightblue" stroke="midnightblue" points="1345.81,-108.5 1336.2,-112.966 1346.5,-115.466 1345.81,-108.5"/>
</g>
<!-- Node86&#45;&gt;Node84 -->
<g id="edge4" class="edge"><title>Node86&#45;&gt;Node84</title>
<path fill="none" stroke="midnightblue" d="M2357.13,-76.2384C1912.51,-106.783 1796.61,-71.5623 1354,-112 1348.24,-112.526 1342.2,-113.23 1336.17,-114.015"/>
<polygon fill="midnightblue" stroke="midnightblue" points="2357.63,-79.7125 2367.36,-75.5281 2357.14,-72.7293 2357.63,-79.7125"/>
</g>
<!-- Node87 -->
<g id="node5" class="node"><title>Node87</title>
<g id="a_node5"><a xlink:href="walletmodeltransaction_8cpp.html" target="_top" xlink:title="src/qt/walletmodeltransaction.cpp">
<polygon fill="white" stroke="black" points="2356.5,-0.5 2356.5,-19.5 2519.5,-19.5 2519.5,-0.5 2356.5,-0.5"/>
<text text-anchor="middle" x="2438" y="-7.5" font-family="Helvetica,sans-Serif" font-size="10.00">src/qt/walletmodeltransaction.cpp</text>
</a>
</g>
</g>
<!-- Node86&#45;&gt;Node87 -->
<g id="edge5" class="edge"><title>Node86&#45;&gt;Node87</title>
<path fill="none" stroke="midnightblue" d="M2438,-45.8045C2438,-36.9102 2438,-26.7798 2438,-19.7511"/>
<polygon fill="midnightblue" stroke="midnightblue" points="2434.5,-46.083 2438,-56.083 2441.5,-46.083 2434.5,-46.083"/>
</g>
<!-- Node91&#45;&gt;Node92 -->
<g id="edge10" class="edge"><title>Node91&#45;&gt;Node92</title>
<path fill="none" stroke="midnightblue" d="M439.238,-50.1008C427,-40.3824 411.441,-28.0269 401.124,-19.8339"/>
<polygon fill="midnightblue" stroke="midnightblue" points="437.067,-52.846 447.075,-56.324 441.42,-47.3642 437.067,-52.846"/>
</g>
<!-- Node91&#45;&gt;Node93 -->
<g id="edge11" class="edge"><title>Node91&#45;&gt;Node93</title>
<path fill="none" stroke="midnightblue" d="M476.762,-50.1008C489,-40.3824 504.559,-28.0269 514.876,-19.8339"/>
<polygon fill="midnightblue" stroke="midnightblue" points="474.58,-47.3642 468.925,-56.324 478.933,-52.846 474.58,-47.3642"/>
</g>
<!-- Node97 -->
<g id="node15" class="node"><title>Node97</title>
<g id="a_node15"><a xlink:href="paymentserver_8cpp.html" target="_top" xlink:title="src/qt/paymentserver.cpp">
<polygon fill="white" stroke="black" points="150,-0.5 150,-19.5 278,-19.5 278,-0.5 150,-0.5"/>
<text text-anchor="middle" x="214" y="-7.5" font-family="Helvetica,sans-Serif" font-size="10.00">src/qt/paymentserver.cpp</text>
</a>
</g>
</g>
<!-- Node96&#45;&gt;Node97 -->
<g id="edge16" class="edge"><title>Node96&#45;&gt;Node97</title>
<path fill="none" stroke="midnightblue" d="M200.121,-46.6897C203.66,-37.589 207.772,-27.0141 210.597,-19.7511"/>
<polygon fill="midnightblue" stroke="midnightblue" points="196.83,-45.4944 196.468,-56.083 203.354,-48.0315 196.83,-45.4944"/>
</g>
<!-- Node98 -->
<g id="node16" class="node"><title>Node98</title>
<g id="a_node16"><a xlink:href="transactiondesc_8cpp.html" target="_top" xlink:title="src/qt/transactiondesc.cpp">
<polygon fill="white" stroke="black" points="0,-0.5 0,-19.5 132,-19.5 132,-0.5 0,-0.5"/>
<text text-anchor="middle" x="66" y="-7.5" font-family="Helvetica,sans-Serif" font-size="10.00">src/qt/transactiondesc.cpp</text>
</a>
</g>
</g>
<!-- Node96&#45;&gt;Node98 -->
<g id="edge17" class="edge"><title>Node96&#45;&gt;Node98</title>
<path fill="none" stroke="midnightblue" d="M163.609,-52.503C139.8,-42.3795 106.894,-28.388 86.0294,-19.5164"/>
<polygon fill="midnightblue" stroke="midnightblue" points="162.304,-55.7515 172.876,-56.4435 165.043,-49.3096 162.304,-55.7515"/>
</g>
<!-- Node96&#45;&gt;Node99 -->
<g id="edge18" class="edge"><title>Node96&#45;&gt;Node99</title>
<path fill="none" stroke="midnightblue" d="M261.821,-55.8229C414.156,-38.3986 581.906,-23.3303 668.171,-15.8865"/>
<polygon fill="midnightblue" stroke="midnightblue" points="261.345,-52.3545 251.811,-56.974 262.145,-59.3087 261.345,-52.3545"/>
</g>
<!-- Node100&#45;&gt;Node101 -->
<g id="edge21" class="edge"><title>Node100&#45;&gt;Node101</title>
<path fill="none" stroke="midnightblue" d="M1140.91,-51.4526C1122.45,-41.4835 1097.9,-28.2279 1082.03,-19.6545"/>
<polygon fill="midnightblue" stroke="midnightblue" points="1139.47,-54.6521 1149.93,-56.324 1142.8,-48.4928 1139.47,-54.6521"/>
</g>
<!-- Node100&#45;&gt;Node102 -->
<g id="edge22" class="edge"><title>Node100&#45;&gt;Node102</title>
<path fill="none" stroke="midnightblue" d="M1184.55,-49.8197C1196.38,-40.1452 1211.29,-27.9481 1221.2,-19.8339"/>
<polygon fill="midnightblue" stroke="midnightblue" points="1182.13,-47.2827 1176.6,-56.324 1186.56,-52.7004 1182.13,-47.2827"/>
</g>
<!-- Node103&#45;&gt;Node99 -->
<g id="edge26" class="edge"><title>Node103&#45;&gt;Node99</title>
<path fill="none" stroke="midnightblue" d="M910.598,-54.1529C866.953,-43.95 802.49,-28.8809 762.431,-19.5164"/>
<polygon fill="midnightblue" stroke="midnightblue" points="909.863,-57.5753 920.397,-56.4435 911.457,-50.7591 909.863,-57.5753"/>
</g>
<!-- Node103&#45;&gt;Node101 -->
<g id="edge24" class="edge"><title>Node103&#45;&gt;Node101</title>
<path fill="none" stroke="midnightblue" d="M983.519,-51.8622C1003.73,-41.8492 1030.99,-28.3458 1048.53,-19.6545"/>
<polygon fill="midnightblue" stroke="midnightblue" points="981.92,-48.7485 974.513,-56.324 985.027,-55.0209 981.92,-48.7485"/>
</g>
<!-- Node104 -->
<g id="node22" class="node"><title>Node104</title>
<g id="a_node22"><a xlink:href="recentrequeststablemodel_8cpp.html" target="_top" xlink:title="src/qt/recentrequeststablemodel.cpp">
<polygon fill="white" stroke="black" points="801.5,-0.5 801.5,-19.5 976.5,-19.5 976.5,-0.5 801.5,-0.5"/>
<text text-anchor="middle" x="889" y="-7.5" font-family="Helvetica,sans-Serif" font-size="10.00">src/qt/recentrequeststablemodel.cpp</text>
</a>
</g>
</g>
<!-- Node103&#45;&gt;Node104 -->
<g id="edge25" class="edge"><title>Node103&#45;&gt;Node104</title>
<path fill="none" stroke="midnightblue" d="M938.238,-50.1008C926,-40.3824 910.441,-28.0269 900.124,-19.8339"/>
<polygon fill="midnightblue" stroke="midnightblue" points="936.067,-52.846 946.075,-56.324 940.42,-47.3642 936.067,-52.846"/>
</g>
<!-- Node105&#45;&gt;Node106 -->
<g id="edge30" class="edge"><title>Node105&#45;&gt;Node106</title>
<path fill="none" stroke="midnightblue" d="M1498.98,-52.772C1473.24,-42.6287 1437.31,-28.4669 1414.61,-19.5164"/>
<polygon fill="midnightblue" stroke="midnightblue" points="1497.71,-56.0326 1508.29,-56.4435 1500.27,-49.5203 1497.71,-56.0326"/>
</g>
<!-- Node105&#45;&gt;Node107 -->
<g id="edge31" class="edge"><title>Node105&#45;&gt;Node107</title>
<path fill="none" stroke="midnightblue" d="M1563.37,-52.9058C1591.38,-42.7536 1630.7,-28.5063 1655.5,-19.5164"/>
<polygon fill="midnightblue" stroke="midnightblue" points="1561.82,-49.7456 1553.61,-56.4435 1564.2,-56.3267 1561.82,-49.7456"/>
</g>
<!-- Node108&#45;&gt;Node106 -->
<g id="edge33" class="edge"><title>Node108&#45;&gt;Node106</title>
<path fill="none" stroke="midnightblue" d="M1391.71,-45.8045C1392.04,-36.9102 1392.42,-26.7798 1392.68,-19.7511"/>
<polygon fill="midnightblue" stroke="midnightblue" points="1388.2,-45.9603 1391.33,-56.083 1395.2,-46.2194 1388.2,-45.9603"/>
</g>
<!-- Node108&#45;&gt;Node109 -->
<g id="edge34" class="edge"><title>Node108&#45;&gt;Node109</title>
<path fill="none" stroke="midnightblue" d="M1424.45,-53.0392C1452.86,-42.8786 1492.94,-28.5457 1518.19,-19.5164"/>
<polygon fill="midnightblue" stroke="midnightblue" points="1423.16,-49.7806 1414.93,-56.4435 1425.52,-56.3718 1423.16,-49.7806"/>
</g>
</g>
</svg>
        <g id="navigator" transform="translate(0 0)" fill="#404254">
                <rect fill="#f2f5e9" fill-opacity="0.5" stroke="#606060" stroke-width=".5" x="0" y="0" width="60" height="60"/>
                <use id="zoomplus" xlink:href="#zoomPlus" x="17" y="9" onmousedown="handleZoom(evt,'in')"/>
                <use id="zoomminus" xlink:href="#zoomMin" x="42" y="9" onmousedown="handleZoom(evt,'out')"/>
                <use id="reset" xlink:href="#resetDef" x="30" y="36" onmousedown="handleReset()"/>
                <g id="arrowUp" xlink:href="#dirArrow" transform="translate(30 24)" onmousedown="handlePan(0,-1)">
                  <use xlink:href="#rim" fill="#404040">
                        <set attributeName="fill" to="#808080" begin="arrowUp.mouseover" end="arrowUp.mouseout"/>
                  </use>
                  <path fill="none" stroke="white" stroke-width="1.5" d="M0,-3.0v7 M-2.5,-0.5L0,-3.0L2.5,-0.5"/>
                </g>
                <g id="arrowRight" xlink:href="#dirArrow" transform="rotate(90) translate(36 -43)" onmousedown="handlePan(1,0)">
                  <use xlink:href="#rim" fill="#404040">
                        <set attributeName="fill" to="#808080" begin="arrowRight.mouseover" end="arrowRight.mouseout"/>
                  </use>
                  <path fill="none" stroke="white" stroke-width="1.5" d="M0,-3.0v7 M-2.5,-0.5L0,-3.0L2.5,-0.5"/>
                </g>
                <g id="arrowDown" xlink:href="#dirArrow" transform="rotate(180) translate(-30 -48)" onmousedown="handlePan(0,1)">
                  <use xlink:href="#rim" fill="#404040">
                        <set attributeName="fill" to="#808080" begin="arrowDown.mouseover" end="arrowDown.mouseout"/>
                  </use>
                  <path fill="none" stroke="white" stroke-width="1.5" d="M0,-3.0v7 M-2.5,-0.5L0,-3.0L2.5,-0.5"/>
                </g>
                <g id="arrowLeft" xlink:href="#dirArrow" transform="rotate(270) translate(-36 17)" onmousedown="handlePan(-1,0)">
                  <use xlink:href="#rim" fill="#404040">
                        <set attributeName="fill" to="#808080" begin="arrowLeft.mouseover" end="arrowLeft.mouseout"/>
                  </use>
                  <path fill="none" stroke="white" stroke-width="1.5" d="M0,-3.0v7 M-2.5,-0.5L0,-3.0L2.5,-0.5"/>
                </g>
        </g>
        <svg viewBox="0 0 15 15" width="100%" height="30px" preserveAspectRatio="xMaxYMin meet">
         <g id="arrow_out" transform="scale(0.3 0.3)">
          <a xlink:href="paymentrequestplus_8h__dep__incl_org.svg" target="_base">
           <rect id="button" ry="5" rx="5" y="6" x="6" height="38" width="38"
                fill="#f2f5e9" fill-opacity="0.5" stroke="#606060" stroke-width="1.0"/>
           <path id="arrow"
             d="M 11.500037,31.436501 C 11.940474,20.09759 22.043105,11.32322 32.158766,21.979434 L 37.068811,17.246167 C 37.068811,17.246167 37.088388,32 37.088388,32 L 22.160133,31.978069 C 22.160133,31.978069 26.997745,27.140456 26.997745,27.140456 C 18.528582,18.264221 13.291696,25.230495 11.500037,31.436501 z"
             style="fill:#404040;"/>
          </a>
         </g>
        </svg>
</svg>
