<?xml version="1.0" encoding="UTF-8" standalone="no"?>
<!DOCTYPE svg PUBLIC "-//W3C//DTD SVG 1.1//EN"
 "http://www.w3.org/Graphics/SVG/1.1/DTD/svg11.dtd">
<!-- Generated by graphviz version 2.36.0 (20140111.2315)
 -->
<!-- Title: src/qt/peertablemodel.h Pages: 1 -->
<svg width="450pt" height="140pt"
 viewBox="0.00 0.00 450.00 140.00" xmlns="http://www.w3.org/2000/svg" xmlns:xlink="http://www.w3.org/1999/xlink">
<g id="graph0" class="graph" transform="scale(1 1) rotate(0) translate(4 136)">
<title>src/qt/peertablemodel.h</title>
<polygon fill="white" stroke="none" points="-4,4 -4,-136 446,-136 446,4 -4,4"/>
<!-- Node99 -->
<g id="node1" class="node"><title>Node99</title>
<polygon fill="#bfbfbf" stroke="black" points="179.5,-112.5 179.5,-131.5 298.5,-131.5 298.5,-112.5 179.5,-112.5"/>
<text text-anchor="middle" x="239" y="-119.5" font-family="Helvetica,sans-Serif" font-size="10.00">src/qt/peertablemodel.h</text>
</g>
<!-- Node100 -->
<g id="node2" class="node"><title>Node100</title>
<g id="a_node2"><a xlink:href="rpcconsole_8h.html" target="_top" xlink:title="src/qt/rpcconsole.h">
<polygon fill="white" stroke="black" points="64,-56.5 64,-75.5 164,-75.5 164,-56.5 64,-56.5"/>
<text text-anchor="middle" x="114" y="-63.5" font-family="Helvetica,sans-Serif" font-size="10.00">src/qt/rpcconsole.h</text>
</a>
</g>
</g>
<!-- Node99&#45;&gt;Node100 -->
<g id="edge1" class="edge"><title>Node99&#45;&gt;Node100</title>
<path fill="none" stroke="midnightblue" d="M209.759,-108.368C186.35,-98.2553 154.159,-84.3486 133.714,-75.5164"/>
<polygon fill="midnightblue" stroke="midnightblue" points="208.625,-111.691 219.193,-112.444 211.401,-105.265 208.625,-111.691"/>
</g>
<!-- Node103 -->
<g id="node5" class="node"><title>Node103</title>
<g id="a_node5"><a xlink:href="clientmodel_8cpp.html" target="_top" xlink:title="src/qt/clientmodel.cpp">
<polygon fill="white" stroke="black" points="182.5,-56.5 182.5,-75.5 295.5,-75.5 295.5,-56.5 182.5,-56.5"/>
<text text-anchor="middle" x="239" y="-63.5" font-family="Helvetica,sans-Serif" font-size="10.00">src/qt/clientmodel.cpp</text>
</a>
</g>
</g>
<!-- Node99&#45;&gt;Node103 -->
<g id="edge4" class="edge"><title>Node99&#45;&gt;Node103</title>
<path fill="none" stroke="midnightblue" d="M239,-101.805C239,-92.9102 239,-82.7798 239,-75.7511"/>
<polygon fill="midnightblue" stroke="midnightblue" points="235.5,-102.083 239,-112.083 242.5,-102.083 235.5,-102.083"/>
</g>
<!-- Node104 -->
<g id="node6" class="node"><title>Node104</title>
<g id="a_node6"><a xlink:href="peertablemodel_8cpp.html" target="_top" xlink:title="src/qt/peertablemodel.cpp">
<polygon fill="white" stroke="black" points="313.5,-56.5 313.5,-75.5 442.5,-75.5 442.5,-56.5 313.5,-56.5"/>
<text text-anchor="middle" x="378" y="-63.5" font-family="Helvetica,sans-Serif" font-size="10.00">src/qt/peertablemodel.cpp</text>
</a>
</g>
</g>
<!-- Node99&#45;&gt;Node104 -->
<g id="edge5" class="edge"><title>Node99&#45;&gt;Node104</title>
<path fill="none" stroke="midnightblue" d="M270.476,-108.772C296.585,-98.6287 333.039,-84.4669 356.078,-75.5164"/>
<polygon fill="midnightblue" stroke="midnightblue" points="269.079,-105.56 261.025,-112.444 271.614,-112.085 269.079,-105.56"/>
</g>
<!-- Node101 -->
<g id="node3" class="node"><title>Node101</title>
<g id="a_node3"><a xlink:href="bitcoingui_8cpp.html" target="_top" xlink:title="src/qt/bitcoingui.cpp">
<polygon fill="white" stroke="black" points="0,-0.5 0,-19.5 104,-19.5 104,-0.5 0,-0.5"/>
<text text-anchor="middle" x="52" y="-7.5" font-family="Helvetica,sans-Serif" font-size="10.00">src/qt/bitcoingui.cpp</text>
</a>
</g>
</g>
<!-- Node100&#45;&gt;Node101 -->
<g id="edge2" class="edge"><title>Node100&#45;&gt;Node101</title>
<path fill="none" stroke="midnightblue" d="M96.2464,-49.5372C85.1915,-39.9087 71.3685,-27.8694 62.1426,-19.8339"/>
<polygon fill="midnightblue" stroke="midnightblue" points="94.199,-52.3954 104.039,-56.324 98.7965,-47.1168 94.199,-52.3954"/>
</g>
<!-- Node102 -->
<g id="node4" class="node"><title>Node102</title>
<g id="a_node4"><a xlink:href="rpcconsole_8cpp.html" target="_top" xlink:title="src/qt/rpcconsole.cpp">
<polygon fill="white" stroke="black" points="122,-0.5 122,-19.5 232,-19.5 232,-0.5 122,-0.5"/>
<text text-anchor="middle" x="177" y="-7.5" font-family="Helvetica,sans-Serif" font-size="10.00">src/qt/rpcconsole.cpp</text>
</a>
</g>
</g>
<!-- Node100&#45;&gt;Node102 -->
<g id="edge3" class="edge"><title>Node100&#45;&gt;Node102</title>
<path fill="none" stroke="midnightblue" d="M132.04,-49.5372C143.273,-39.9087 157.319,-27.8694 166.694,-19.8339"/>
<polygon fill="midnightblue" stroke="midnightblue" points="129.437,-47.1586 124.122,-56.324 133.992,-52.4734 129.437,-47.1586"/>
</g>
</g>
</svg>
