<?xml version="1.0" encoding="UTF-8" standalone="no"?>
<!DOCTYPE svg PUBLIC "-//W3C//DTD SVG 1.1//EN"
 "http://www.w3.org/Graphics/SVG/1.1/DTD/svg11.dtd">
<!-- Generated by graphviz version 2.36.0 (20140111.2315)
 -->
<!-- Title: src/qt/platformstyle.cpp Pages: 1 -->
<svg width="572pt" height="140pt"
 viewBox="0.00 0.00 572.00 140.00" xmlns="http://www.w3.org/2000/svg" xmlns:xlink="http://www.w3.org/1999/xlink">
<g id="graph0" class="graph" transform="scale(1 1) rotate(0) translate(4 136)">
<title>src/qt/platformstyle.cpp</title>
<polygon fill="white" stroke="none" points="-4,4 -4,-136 568,-136 568,4 -4,4"/>
<!-- Node0 -->
<g id="node1" class="node"><title>Node0</title>
<polygon fill="#bfbfbf" stroke="black" points="214.5,-112.5 214.5,-131.5 333.5,-131.5 333.5,-112.5 214.5,-112.5"/>
<text text-anchor="middle" x="274" y="-119.5" font-family="Helvetica,sans-Serif" font-size="10.00">src/qt/platformstyle.cpp</text>
</g>
<!-- Node1 -->
<g id="node2" class="node"><title>Node1</title>
<g id="a_node2"><a xlink:href="platformstyle_8h.html" target="_top" xlink:title="platformstyle.h">
<polygon fill="white" stroke="black" points="49.5,-56.5 49.5,-75.5 130.5,-75.5 130.5,-56.5 49.5,-56.5"/>
<text text-anchor="middle" x="90" y="-63.5" font-family="Helvetica,sans-Serif" font-size="10.00">platformstyle.h</text>
</a>
</g>
</g>
<!-- Node0&#45;&gt;Node1 -->
<g id="edge1" class="edge"><title>Node0&#45;&gt;Node1</title>
<path fill="none" stroke="midnightblue" d="M244.845,-112.444C213.487,-103.241 163.469,-88.5617 128.803,-78.3879"/>
<polygon fill="midnightblue" stroke="midnightblue" points="129.6,-74.9742 119.019,-75.5164 127.629,-81.6909 129.6,-74.9742"/>
</g>
<!-- Node2 -->
<g id="node3" class="node"><title>Node2</title>
<polygon fill="white" stroke="#bfbfbf" points="-0.5,-0.5 -0.5,-19.5 42.5,-19.5 42.5,-0.5 -0.5,-0.5"/>
<text text-anchor="middle" x="21" y="-7.5" font-family="Helvetica,sans-Serif" font-size="10.00">QIcon</text>
</g>
<!-- Node0&#45;&gt;Node2 -->
<g id="edge8" class="edge"><title>Node0&#45;&gt;Node2</title>
<path fill="none" stroke="midnightblue" d="M214.224,-116.534C153.527,-110.803 65.0156,-98.7591 40,-76 27.1103,-64.273 22.7772,-44.3363 21.4134,-29.6274"/>
<polygon fill="midnightblue" stroke="midnightblue" points="24.9069,-29.4112 20.8567,-19.6211 17.9177,-29.8001 24.9069,-29.4112"/>
</g>
<!-- Node3 -->
<g id="node4" class="node"><title>Node3</title>
<polygon fill="white" stroke="#bfbfbf" points="130.5,-0.5 130.5,-19.5 187.5,-19.5 187.5,-0.5 130.5,-0.5"/>
<text text-anchor="middle" x="159" y="-7.5" font-family="Helvetica,sans-Serif" font-size="10.00">QPixmap</text>
</g>
<!-- Node0&#45;&gt;Node3 -->
<g id="edge11" class="edge"><title>Node0&#45;&gt;Node3</title>
<path fill="none" stroke="midnightblue" d="M238.909,-112.388C218.459,-105.666 193.689,-94.3112 178,-76 166.894,-63.0375 162.274,-43.8711 160.355,-29.707"/>
<polygon fill="midnightblue" stroke="midnightblue" points="163.824,-29.2255 159.323,-19.6343 156.861,-29.9389 163.824,-29.2255"/>
</g>
<!-- Node5 -->
<g id="node6" class="node"><title>Node5</title>
<g id="a_node6"><a xlink:href="guiconstants_8h.html" target="_top" xlink:title="guiconstants.h">
<polygon fill="white" stroke="black" points="187,-56.5 187,-75.5 267,-75.5 267,-56.5 187,-56.5"/>
<text text-anchor="middle" x="227" y="-63.5" font-family="Helvetica,sans-Serif" font-size="10.00">guiconstants.h</text>
</a>
</g>
</g>
<!-- Node0&#45;&gt;Node5 -->
<g id="edge5" class="edge"><title>Node0&#45;&gt;Node5</title>
<path fill="none" stroke="midnightblue" d="M266.239,-112.083C259.463,-104.298 249.457,-92.8015 241.245,-83.3665"/>
<polygon fill="midnightblue" stroke="midnightblue" points="243.822,-80.9963 234.617,-75.7511 238.542,-85.592 243.822,-80.9963"/>
</g>
<!-- Node6 -->
<g id="node7" class="node"><title>Node6</title>
<polygon fill="white" stroke="#bfbfbf" points="285,-56.5 285,-75.5 357,-75.5 357,-56.5 285,-56.5"/>
<text text-anchor="middle" x="321" y="-63.5" font-family="Helvetica,sans-Serif" font-size="10.00">QApplication</text>
</g>
<!-- Node0&#45;&gt;Node6 -->
<g id="edge6" class="edge"><title>Node0&#45;&gt;Node6</title>
<path fill="none" stroke="midnightblue" d="M281.761,-112.083C288.537,-104.298 298.543,-92.8015 306.755,-83.3665"/>
<polygon fill="midnightblue" stroke="midnightblue" points="309.458,-85.592 313.383,-75.7511 304.178,-80.9963 309.458,-85.592"/>
</g>
<!-- Node7 -->
<g id="node8" class="node"><title>Node7</title>
<polygon fill="white" stroke="#bfbfbf" points="375.5,-56.5 375.5,-75.5 422.5,-75.5 422.5,-56.5 375.5,-56.5"/>
<text text-anchor="middle" x="399" y="-63.5" font-family="Helvetica,sans-Serif" font-size="10.00">QColor</text>
</g>
<!-- Node0&#45;&gt;Node7 -->
<g id="edge7" class="edge"><title>Node0&#45;&gt;Node7</title>
<path fill="none" stroke="midnightblue" d="M293.807,-112.444C314.287,-103.596 346.483,-89.6875 369.865,-79.5865"/>
<polygon fill="midnightblue" stroke="midnightblue" points="371.494,-82.6953 379.286,-75.5164 368.718,-76.2692 371.494,-82.6953"/>
</g>
<!-- Node8 -->
<g id="node9" class="node"><title>Node8</title>
<polygon fill="white" stroke="#bfbfbf" points="440.5,-56.5 440.5,-75.5 491.5,-75.5 491.5,-56.5 440.5,-56.5"/>
<text text-anchor="middle" x="466" y="-63.5" font-family="Helvetica,sans-Serif" font-size="10.00">QImage</text>
</g>
<!-- Node0&#45;&gt;Node8 -->
<g id="edge9" class="edge"><title>Node0&#45;&gt;Node8</title>
<path fill="none" stroke="midnightblue" d="M304.423,-112.444C338.735,-102.793 394.455,-87.122 430.666,-76.9377"/>
<polygon fill="midnightblue" stroke="midnightblue" points="431.649,-80.2971 440.328,-74.2203 429.754,-73.5586 431.649,-80.2971"/>
</g>
<!-- Node9 -->
<g id="node10" class="node"><title>Node9</title>
<polygon fill="white" stroke="#bfbfbf" points="509.5,-56.5 509.5,-75.5 564.5,-75.5 564.5,-56.5 509.5,-56.5"/>
<text text-anchor="middle" x="537" y="-63.5" font-family="Helvetica,sans-Serif" font-size="10.00">QPalette</text>
</g>
<!-- Node0&#45;&gt;Node9 -->
<g id="edge10" class="edge"><title>Node0&#45;&gt;Node9</title>
<path fill="none" stroke="midnightblue" d="M320,-112.428C363.606,-104.171 431.185,-91.035 499.125,-76.1205"/>
<polygon fill="midnightblue" stroke="midnightblue" points="500.139,-79.4811 509.149,-73.9075 498.629,-72.6457 500.139,-79.4811"/>
</g>
<!-- Node1&#45;&gt;Node2 -->
<g id="edge2" class="edge"><title>Node1&#45;&gt;Node2</title>
<path fill="none" stroke="midnightblue" d="M78.914,-56.324C68.514,-48.1849 52.7394,-35.8395 40.2784,-26.0874"/>
<polygon fill="midnightblue" stroke="midnightblue" points="42.3199,-23.2407 32.2878,-19.8339 38.0057,-28.7533 42.3199,-23.2407"/>
</g>
<!-- Node1&#45;&gt;Node3 -->
<g id="edge3" class="edge"><title>Node1&#45;&gt;Node3</title>
<path fill="none" stroke="midnightblue" d="M101.086,-56.324C111.486,-48.1849 127.261,-35.8395 139.722,-26.0874"/>
<polygon fill="midnightblue" stroke="midnightblue" points="141.994,-28.7533 147.712,-19.8339 137.68,-23.2407 141.994,-28.7533"/>
</g>
<!-- Node4 -->
<g id="node5" class="node"><title>Node4</title>
<polygon fill="white" stroke="#bfbfbf" points="62,-0.5 62,-19.5 112,-19.5 112,-0.5 62,-0.5"/>
<text text-anchor="middle" x="87" y="-7.5" font-family="Helvetica,sans-Serif" font-size="10.00">QString</text>
</g>
<!-- Node1&#45;&gt;Node4 -->
<g id="edge4" class="edge"><title>Node1&#45;&gt;Node4</title>
<path fill="none" stroke="midnightblue" d="M89.5046,-56.083C89.1114,-49.0059 88.5478,-38.8611 88.0548,-29.9865"/>
<polygon fill="midnightblue" stroke="midnightblue" points="91.5356,-29.5415 87.4862,-19.7511 84.5464,-29.9299 91.5356,-29.5415"/>
</g>
</g>
</svg>
