<?xml version="1.0" encoding="UTF-8" standalone="no"?>
<!DOCTYPE svg PUBLIC "-//W3C//DTD SVG 1.1//EN"
 "http://www.w3.org/Graphics/SVG/1.1/DTD/svg11.dtd">
<!-- Generated by graphviz version 2.36.0 (20140111.2315)
 -->
<!-- Title: src/policy/policy.cpp Pages: 1 -->
<!--zoomable 588 -->
<svg id="main" version="1.1" xmlns="http://www.w3.org/2000/svg" xmlns:xlink="http://www.w3.org/1999/xlink" xml:space="preserve" onload="init(evt)">
<style type="text/css"><![CDATA[
.edge:hover path { stroke: red; }
.edge:hover polygon { stroke: red; fill: red; }
]]></style>
<script type="text/javascript"><![CDATA[
var edges = document.getElementsByTagName('g');
if (edges && edges.length) {
  for (var i=0;i<edges.length;i++) {
    if (edges[i].id.substr(0,4)=='edge') {
      edges[i].setAttribute('class','edge');
    }
  }
}
]]></script>
        <defs>
                <circle id="rim" cx="0" cy="0" r="7"/>
                <circle id="rim2" cx="0" cy="0" r="3.5"/>
                <g id="zoomPlus">
                        <use xlink:href="#rim" fill="#404040">
                                <set attributeName="fill" to="#808080" begin="zoomplus.mouseover" end="zoomplus.mouseout"/>
                        </use>
                        <path d="M-4,0h8M0,-4v8" fill="none" stroke="white" stroke-width="1.5" pointer-events="none"/>
                </g>
                <g id="zoomMin">
                        <use xlink:href="#rim" fill="#404040">
                                <set attributeName="fill" to="#808080" begin="zoomminus.mouseover" end="zoomminus.mouseout"/>
                        </use>
                        <path d="M-4,0h8" fill="none" stroke="white" stroke-width="1.5" pointer-events="none"/>
                </g>
                <g id="dirArrow">
                        <path fill="none" stroke="white" stroke-width="1.5" d="M0,-3.0v7 M-2.5,-0.5L0,-3.0L2.5,-0.5"/>
                </g>
               <g id="resetDef">
                       <use xlink:href="#rim2" fill="#404040">
                               <set attributeName="fill" to="#808080" begin="reset.mouseover" end="reset.mouseout"/>
                       </use>
               </g>
        </defs>

<script type="text/javascript">
var viewWidth = 1770;
var viewHeight = 588;
var sectionId = 'dynsection-0';
</script>
<script xlink:href="svgpan.js"/>
<svg id="graph" class="graph">
<g id="viewport">
<title>src/policy/policy.cpp</title>
<polygon fill="white" stroke="none" points="-4,4 -4,-584 1766,-584 1766,4 -4,4"/>
<!-- Node0 -->
<g id="node1" class="node"><title>Node0</title>
<polygon fill="#bfbfbf" stroke="black" points="1476,-560.5 1476,-579.5 1582,-579.5 1582,-560.5 1476,-560.5"/>
<text text-anchor="middle" x="1529" y="-567.5" font-family="Helvetica,sans-Serif" font-size="10.00">src/policy/policy.cpp</text>
</g>
<!-- Node1 -->
<g id="node2" class="node"><title>Node1</title>
<g id="a_node2"><a xlink:href="policy_8h.html" target="_top" xlink:title="policy/policy.h">
<polygon fill="white" stroke="black" points="914.5,-504.5 914.5,-523.5 993.5,-523.5 993.5,-504.5 914.5,-504.5"/>
<text text-anchor="middle" x="954" y="-511.5" font-family="Helvetica,sans-Serif" font-size="10.00">policy/policy.h</text>
</a>
</g>
</g>
<!-- Node0&#45;&gt;Node1 -->
<g id="edge1" class="edge"><title>Node0&#45;&gt;Node1</title>
<path fill="none" stroke="midnightblue" d="M1475.94,-564.017C1365.35,-553.631 1111.59,-529.8 1003.85,-519.681"/>
<polygon fill="midnightblue" stroke="midnightblue" points="1003.86,-516.167 993.579,-518.717 1003.21,-523.137 1003.86,-516.167"/>
</g>
<!-- Node34 -->
<g id="node35" class="node"><title>Node34</title>
<polygon fill="white" stroke="#bfbfbf" points="1527,-504.5 1527,-523.5 1593,-523.5 1593,-504.5 1527,-504.5"/>
<text text-anchor="middle" x="1560" y="-511.5" font-family="Helvetica,sans-Serif" font-size="10.00">validation.h</text>
</g>
<!-- Node0&#45;&gt;Node34 -->
<g id="edge65" class="edge"><title>Node0&#45;&gt;Node34</title>
<path fill="none" stroke="midnightblue" d="M1534.12,-560.083C1538.41,-552.613 1544.66,-541.724 1549.94,-532.52"/>
<polygon fill="midnightblue" stroke="midnightblue" points="1553.03,-534.166 1554.98,-523.751 1546.96,-530.681 1553.03,-534.166"/>
</g>
<!-- Node35 -->
<g id="node36" class="node"><title>Node35</title>
<g id="a_node36"><a xlink:href="tinyformat_8h.html" target="_top" xlink:title="tinyformat.h">
<polygon fill="white" stroke="black" points="1458,-224.5 1458,-243.5 1526,-243.5 1526,-224.5 1458,-224.5"/>
<text text-anchor="middle" x="1492" y="-231.5" font-family="Helvetica,sans-Serif" font-size="10.00">tinyformat.h</text>
</a>
</g>
</g>
<!-- Node0&#45;&gt;Node35 -->
<g id="edge66" class="edge"><title>Node0&#45;&gt;Node35</title>
<path fill="none" stroke="midnightblue" d="M1524.95,-560.379C1516.77,-542.114 1499,-497.996 1499,-459 1499,-459 1499,-459 1499,-345 1499,-312.883 1495.99,-275.598 1493.92,-253.726"/>
<polygon fill="midnightblue" stroke="midnightblue" points="1497.38,-253.154 1492.92,-243.546 1490.41,-253.841 1497.38,-253.154"/>
</g>
<!-- Node39 -->
<g id="node40" class="node"><title>Node39</title>
<polygon fill="white" stroke="#bfbfbf" points="1611,-504.5 1611,-523.5 1649,-523.5 1649,-504.5 1611,-504.5"/>
<text text-anchor="middle" x="1630" y="-511.5" font-family="Helvetica,sans-Serif" font-size="10.00">util.h</text>
</g>
<!-- Node0&#45;&gt;Node39 -->
<g id="edge72" class="edge"><title>Node0&#45;&gt;Node39</title>
<path fill="none" stroke="midnightblue" d="M1545.23,-560.324C1561.35,-551.703 1586.3,-538.364 1604.96,-528.386"/>
<polygon fill="midnightblue" stroke="midnightblue" points="1606.64,-531.456 1613.81,-523.655 1603.34,-525.283 1606.64,-531.456"/>
</g>
<!-- Node40 -->
<g id="node41" class="node"><title>Node40</title>
<g id="a_node41"><a xlink:href="utilstrencodings_8h.html" target="_top" xlink:title="utilstrencodings.h">
<polygon fill="white" stroke="black" points="1020.5,-224.5 1020.5,-243.5 1113.5,-243.5 1113.5,-224.5 1020.5,-224.5"/>
<text text-anchor="middle" x="1067" y="-231.5" font-family="Helvetica,sans-Serif" font-size="10.00">utilstrencodings.h</text>
</a>
</g>
</g>
<!-- Node0&#45;&gt;Node40 -->
<g id="edge73" class="edge"><title>Node0&#45;&gt;Node40</title>
<path fill="none" stroke="midnightblue" d="M1518.97,-560.433C1500.05,-543.268 1461,-502.556 1461,-459 1461,-459 1461,-459 1461,-345 1461,-310.394 1232.59,-264.717 1123.59,-244.889"/>
<polygon fill="midnightblue" stroke="midnightblue" points="1124.21,-241.443 1113.74,-243.109 1122.96,-248.332 1124.21,-241.443"/>
</g>
<!-- Node41 -->
<g id="node42" class="node"><title>Node41</title>
<polygon fill="white" stroke="#bfbfbf" points="1667.5,-504.5 1667.5,-523.5 1762.5,-523.5 1762.5,-504.5 1667.5,-504.5"/>
<text text-anchor="middle" x="1715" y="-511.5" font-family="Helvetica,sans-Serif" font-size="10.00">boost/foreach.hpp</text>
</g>
<!-- Node0&#45;&gt;Node41 -->
<g id="edge77" class="edge"><title>Node0&#45;&gt;Node41</title>
<path fill="none" stroke="midnightblue" d="M1558.47,-560.444C1590.17,-551.241 1640.73,-536.562 1675.77,-526.388"/>
<polygon fill="midnightblue" stroke="midnightblue" points="1677.04,-529.666 1685.67,-523.516 1675.09,-522.943 1677.04,-529.666"/>
</g>
<!-- Node2 -->
<g id="node3" class="node"><title>Node2</title>
<g id="a_node3"><a xlink:href="consensus_8h.html" target="_top" xlink:title="consensus/consensus.h">
<polygon fill="white" stroke="black" points="804,-448.5 804,-467.5 926,-467.5 926,-448.5 804,-448.5"/>
<text text-anchor="middle" x="865" y="-455.5" font-family="Helvetica,sans-Serif" font-size="10.00">consensus/consensus.h</text>
</a>
</g>
</g>
<!-- Node1&#45;&gt;Node2 -->
<g id="edge2" class="edge"><title>Node1&#45;&gt;Node2</title>
<path fill="none" stroke="midnightblue" d="M939.701,-504.324C925.817,-495.9 904.508,-482.971 888.196,-473.074"/>
<polygon fill="midnightblue" stroke="midnightblue" points="889.629,-469.85 879.264,-467.655 885.998,-475.834 889.629,-469.85"/>
</g>
<!-- Node3 -->
<g id="node4" class="node"><title>Node3</title>
<g id="a_node4"><a xlink:href="interpreter_8h.html" target="_top" xlink:title="script/interpreter.h">
<polygon fill="white" stroke="black" points="776.5,-392.5 776.5,-411.5 871.5,-411.5 871.5,-392.5 776.5,-392.5"/>
<text text-anchor="middle" x="824" y="-399.5" font-family="Helvetica,sans-Serif" font-size="10.00">script/interpreter.h</text>
</a>
</g>
</g>
<!-- Node1&#45;&gt;Node3 -->
<g id="edge3" class="edge"><title>Node1&#45;&gt;Node3</title>
<path fill="none" stroke="midnightblue" d="M914.188,-507.267C871.954,-500.275 809.363,-486.992 795,-468 783.66,-453.005 796.041,-432.876 807.954,-419.011"/>
<polygon fill="midnightblue" stroke="midnightblue" points="810.528,-421.383 814.731,-411.657 805.38,-416.639 810.528,-421.383"/>
</g>
<!-- Node19 -->
<g id="node20" class="node"><title>Node19</title>
<polygon fill="white" stroke="#bfbfbf" points="823.5,-168.5 823.5,-187.5 864.5,-187.5 864.5,-168.5 823.5,-168.5"/>
<text text-anchor="middle" x="844" y="-175.5" font-family="Helvetica,sans-Serif" font-size="10.00">string</text>
</g>
<!-- Node1&#45;&gt;Node19 -->
<g id="edge64" class="edge"><title>Node1&#45;&gt;Node19</title>
<path fill="none" stroke="midnightblue" d="M954,-504.442C954,-485.936 954,-440.812 954,-403 954,-403 954,-403 954,-289 954,-242.91 905.118,-209.387 872.526,-192.158"/>
<polygon fill="midnightblue" stroke="midnightblue" points="873.914,-188.938 863.413,-187.536 870.748,-195.181 873.914,-188.938"/>
</g>
<!-- Node32 -->
<g id="node33" class="node"><title>Node32</title>
<g id="a_node33"><a xlink:href="standard_8h.html" target="_top" xlink:title="script/standard.h">
<polygon fill="white" stroke="black" points="997.5,-448.5 997.5,-467.5 1086.5,-467.5 1086.5,-448.5 997.5,-448.5"/>
<text text-anchor="middle" x="1042" y="-455.5" font-family="Helvetica,sans-Serif" font-size="10.00">script/standard.h</text>
</a>
</g>
</g>
<!-- Node1&#45;&gt;Node32 -->
<g id="edge59" class="edge"><title>Node1&#45;&gt;Node32</title>
<path fill="none" stroke="midnightblue" d="M968.139,-504.324C981.866,-495.9 1002.94,-482.971 1019.06,-473.074"/>
<polygon fill="midnightblue" stroke="midnightblue" points="1021.2,-475.868 1027.9,-467.655 1017.54,-469.902 1021.2,-475.868"/>
</g>
<!-- Node4 -->
<g id="node5" class="node"><title>Node4</title>
<g id="a_node5"><a xlink:href="script__error_8h.html" target="_top" xlink:title="script_error.h">
<polygon fill="white" stroke="black" points="852,-336.5 852,-355.5 926,-355.5 926,-336.5 852,-336.5"/>
<text text-anchor="middle" x="889" y="-343.5" font-family="Helvetica,sans-Serif" font-size="10.00">script_error.h</text>
</a>
</g>
</g>
<!-- Node3&#45;&gt;Node4 -->
<g id="edge4" class="edge"><title>Node3&#45;&gt;Node4</title>
<path fill="none" stroke="midnightblue" d="M834.443,-392.324C844.146,-384.263 858.815,-372.077 870.5,-362.369"/>
<polygon fill="midnightblue" stroke="midnightblue" points="872.911,-364.916 878.367,-355.834 868.438,-359.532 872.911,-364.916"/>
</g>
<!-- Node5 -->
<g id="node6" class="node"><title>Node5</title>
<g id="a_node6"><a xlink:href="transaction_8h.html" target="_top" xlink:title="primitives/transaction.h">
<polygon fill="white" stroke="black" points="673,-336.5 673,-355.5 791,-355.5 791,-336.5 673,-336.5"/>
<text text-anchor="middle" x="732" y="-343.5" font-family="Helvetica,sans-Serif" font-size="10.00">primitives/transaction.h</text>
</a>
</g>
</g>
<!-- Node3&#45;&gt;Node5 -->
<g id="edge5" class="edge"><title>Node3&#45;&gt;Node5</title>
<path fill="none" stroke="midnightblue" d="M809.219,-392.324C794.733,-383.822 772.427,-370.729 755.507,-360.797"/>
<polygon fill="midnightblue" stroke="midnightblue" points="757.141,-357.698 746.745,-355.655 753.597,-363.735 757.141,-357.698"/>
</g>
<!-- Node9 -->
<g id="node10" class="node"><title>Node9</title>
<polygon fill="white" stroke="#bfbfbf" points="982.5,-0.5 982.5,-19.5 1031.5,-19.5 1031.5,-0.5 982.5,-0.5"/>
<text text-anchor="middle" x="1007" y="-7.5" font-family="Helvetica,sans-Serif" font-size="10.00">stdint.h</text>
</g>
<!-- Node3&#45;&gt;Node9 -->
<g id="edge57" class="edge"><title>Node3&#45;&gt;Node9</title>
<path fill="none" stroke="midnightblue" d="M776.438,-399.695C600.962,-394.259 0,-369.882 0,-291 0,-291 0,-291 0,-121 0,-21.0396 794.256,-11.8695 971.999,-11.0689"/>
<polygon fill="midnightblue" stroke="midnightblue" points="972.121,-14.5685 982.108,-11.0296 972.094,-7.56859 972.121,-14.5685"/>
</g>
<!-- Node3&#45;&gt;Node19 -->
<g id="edge58" class="edge"><title>Node3&#45;&gt;Node19</title>
<path fill="none" stroke="midnightblue" d="M824.784,-392.297C827.727,-359.633 838.156,-243.866 842.292,-197.957"/>
<polygon fill="midnightblue" stroke="midnightblue" points="845.788,-198.157 843.2,-187.884 838.816,-197.529 845.788,-198.157"/>
</g>
<!-- Node22 -->
<g id="node23" class="node"><title>Node22</title>
<polygon fill="white" stroke="#bfbfbf" points="883,-168.5 883,-187.5 927,-187.5 927,-168.5 883,-168.5"/>
<text text-anchor="middle" x="905" y="-175.5" font-family="Helvetica,sans-Serif" font-size="10.00">vector</text>
</g>
<!-- Node3&#45;&gt;Node22 -->
<g id="edge56" class="edge"><title>Node3&#45;&gt;Node22</title>
<path fill="none" stroke="midnightblue" d="M869.122,-392.452C891.746,-385.993 917.898,-374.878 935,-356 975.601,-311.184 995.671,-277.77 968,-224 960.923,-210.247 947.479,-199.766 934.822,-192.394"/>
<polygon fill="midnightblue" stroke="midnightblue" points="936.313,-189.222 925.847,-187.573 933.001,-195.389 936.313,-189.222"/>
</g>
<!-- Node6 -->
<g id="node7" class="node"><title>Node6</title>
<g id="a_node7"><a xlink:href="amount_8h.html" target="_top" xlink:title="amount.h">
<polygon fill="white" stroke="black" points="622.5,-280.5 622.5,-299.5 679.5,-299.5 679.5,-280.5 622.5,-280.5"/>
<text text-anchor="middle" x="651" y="-287.5" font-family="Helvetica,sans-Serif" font-size="10.00">amount.h</text>
</a>
</g>
</g>
<!-- Node5&#45;&gt;Node6 -->
<g id="edge6" class="edge"><title>Node5&#45;&gt;Node6</title>
<path fill="none" stroke="midnightblue" d="M718.986,-336.324C706.468,-327.979 687.318,-315.212 672.529,-305.352"/>
<polygon fill="midnightblue" stroke="midnightblue" points="674.244,-302.289 663.982,-299.655 670.361,-308.114 674.244,-302.289"/>
</g>
<!-- Node7 -->
<g id="node8" class="node"><title>Node7</title>
<g id="a_node8"><a xlink:href="serialize_8h.html" target="_top" xlink:title="serialize.h">
<polygon fill="white" stroke="black" points="491.5,-224.5 491.5,-243.5 552.5,-243.5 552.5,-224.5 491.5,-224.5"/>
<text text-anchor="middle" x="522" y="-231.5" font-family="Helvetica,sans-Serif" font-size="10.00">serialize.h</text>
</a>
</g>
</g>
<!-- Node5&#45;&gt;Node7 -->
<g id="edge47" class="edge"><title>Node5&#45;&gt;Node7</title>
<path fill="none" stroke="midnightblue" d="M703.209,-336.434C678.53,-328.554 642.414,-315.723 613,-300 585.925,-285.528 557.579,-264.135 539.861,-249.892"/>
<polygon fill="midnightblue" stroke="midnightblue" points="542.031,-247.145 532.069,-243.536 537.606,-252.569 542.031,-247.145"/>
</g>
<!-- Node26 -->
<g id="node27" class="node"><title>Node26</title>
<g id="a_node27"><a xlink:href="script_8h.html" target="_top" xlink:title="script/script.h">
<polygon fill="white" stroke="black" points="694,-224.5 694,-243.5 770,-243.5 770,-224.5 694,-224.5"/>
<text text-anchor="middle" x="732" y="-231.5" font-family="Helvetica,sans-Serif" font-size="10.00">script/script.h</text>
</a>
</g>
</g>
<!-- Node5&#45;&gt;Node26 -->
<g id="edge33" class="edge"><title>Node5&#45;&gt;Node26</title>
<path fill="none" stroke="midnightblue" d="M732,-336.368C732,-318.617 732,-277.666 732,-253.597"/>
<polygon fill="midnightblue" stroke="midnightblue" points="735.5,-253.591 732,-243.591 728.5,-253.591 735.5,-253.591"/>
</g>
<!-- Node30 -->
<g id="node31" class="node"><title>Node30</title>
<g id="a_node31"><a xlink:href="uint256_8h.html" target="_top" xlink:title="uint256.h">
<polygon fill="white" stroke="black" points="1131,-224.5 1131,-243.5 1187,-243.5 1187,-224.5 1131,-224.5"/>
<text text-anchor="middle" x="1159" y="-231.5" font-family="Helvetica,sans-Serif" font-size="10.00">uint256.h</text>
</a>
</g>
</g>
<!-- Node5&#45;&gt;Node30 -->
<g id="edge48" class="edge"><title>Node5&#45;&gt;Node30</title>
<path fill="none" stroke="midnightblue" d="M765.151,-336.46C843.307,-316.326 1038.71,-265.987 1121.26,-244.723"/>
<polygon fill="midnightblue" stroke="midnightblue" points="1122.17,-248.103 1130.98,-242.219 1120.42,-241.324 1122.17,-248.103"/>
</g>
<!-- Node6&#45;&gt;Node7 -->
<g id="edge7" class="edge"><title>Node6&#45;&gt;Node7</title>
<path fill="none" stroke="midnightblue" d="M630.56,-280.444C609.33,-271.557 575.901,-257.563 551.745,-247.451"/>
<polygon fill="midnightblue" stroke="midnightblue" points="552.921,-244.149 542.345,-243.516 550.218,-250.606 552.921,-244.149"/>
</g>
<!-- Node6&#45;&gt;Node19 -->
<g id="edge32" class="edge"><title>Node6&#45;&gt;Node19</title>
<path fill="none" stroke="midnightblue" d="M679.58,-282.854C706.649,-276.161 747.701,-263.699 779,-244 799.581,-231.047 818.69,-210.486 830.788,-195.962"/>
<polygon fill="midnightblue" stroke="midnightblue" points="833.803,-197.799 837.365,-187.821 828.358,-193.4 833.803,-197.799"/>
</g>
<!-- Node24 -->
<g id="node25" class="node"><title>Node24</title>
<polygon fill="white" stroke="#bfbfbf" points="219,-112.5 219,-131.5 267,-131.5 267,-112.5 219,-112.5"/>
<text text-anchor="middle" x="243" y="-119.5" font-family="Helvetica,sans-Serif" font-size="10.00">stdlib.h</text>
</g>
<!-- Node6&#45;&gt;Node24 -->
<g id="edge31" class="edge"><title>Node6&#45;&gt;Node24</title>
<path fill="none" stroke="midnightblue" d="M622.414,-288.411C518.532,-285.613 163.526,-270.096 95,-188 61.4501,-147.807 155.401,-131.675 208.836,-125.881"/>
<polygon fill="midnightblue" stroke="midnightblue" points="209.338,-129.348 218.933,-124.856 208.631,-122.384 209.338,-129.348"/>
</g>
<!-- Node8 -->
<g id="node9" class="node"><title>Node8</title>
<g id="a_node9"><a xlink:href="endian_8h.html" target="_top" xlink:title="compat/endian.h">
<polygon fill="white" stroke="black" points="884.5,-112.5 884.5,-131.5 973.5,-131.5 973.5,-112.5 884.5,-112.5"/>
<text text-anchor="middle" x="929" y="-119.5" font-family="Helvetica,sans-Serif" font-size="10.00">compat/endian.h</text>
</a>
</g>
</g>
<!-- Node7&#45;&gt;Node8 -->
<g id="edge8" class="edge"><title>Node7&#45;&gt;Node8</title>
<path fill="none" stroke="midnightblue" d="M534.065,-224.29C557.554,-207.4 607.923,-171.538 617,-168 702.615,-134.631 810.137,-125.676 874.001,-123.464"/>
<polygon fill="midnightblue" stroke="midnightblue" points="874.36,-126.955 884.25,-123.155 874.149,-119.958 874.36,-126.955"/>
</g>
<!-- Node7&#45;&gt;Node9 -->
<g id="edge20" class="edge"><title>Node7&#45;&gt;Node9</title>
<path fill="none" stroke="midnightblue" d="M491.498,-232.093C398.219,-229.009 121.494,-217.433 95,-188 89.0531,-181.393 90.2872,-175.537 95,-168 190.35,-15.5144 816.412,-9.66091 972.028,-10.5929"/>
<polygon fill="midnightblue" stroke="midnightblue" points="972.38,-14.0955 982.406,-10.6698 972.432,-7.09566 972.38,-14.0955"/>
</g>
<!-- Node11 -->
<g id="node12" class="node"><title>Node11</title>
<polygon fill="white" stroke="#bfbfbf" points="1271,-168.5 1271,-187.5 1327,-187.5 1327,-168.5 1271,-168.5"/>
<text text-anchor="middle" x="1299" y="-175.5" font-family="Helvetica,sans-Serif" font-size="10.00">algorithm</text>
</g>
<!-- Node7&#45;&gt;Node11 -->
<g id="edge12" class="edge"><title>Node7&#45;&gt;Node11</title>
<path fill="none" stroke="midnightblue" d="M552.578,-231.293C681.134,-224.098 1174.76,-196.278 1260.88,-187.584"/>
<polygon fill="midnightblue" stroke="midnightblue" points="1261.3,-191.059 1270.82,-186.401 1260.48,-184.108 1261.3,-191.059"/>
</g>
<!-- Node12 -->
<g id="node13" class="node"><title>Node12</title>
<polygon fill="white" stroke="#bfbfbf" points="565,-112.5 565,-131.5 617,-131.5 617,-112.5 565,-112.5"/>
<text text-anchor="middle" x="591" y="-119.5" font-family="Helvetica,sans-Serif" font-size="10.00">assert.h</text>
</g>
<!-- Node7&#45;&gt;Node12 -->
<g id="edge13" class="edge"><title>Node7&#45;&gt;Node12</title>
<path fill="none" stroke="midnightblue" d="M523.897,-224.468C527.044,-211.512 534.194,-186.437 546,-168 553.116,-156.887 563.387,-146.348 572.321,-138.267"/>
<polygon fill="midnightblue" stroke="midnightblue" points="574.758,-140.786 580.02,-131.591 570.172,-135.498 574.758,-140.786"/>
</g>
<!-- Node13 -->
<g id="node14" class="node"><title>Node13</title>
<polygon fill="white" stroke="#bfbfbf" points="334.5,-168.5 334.5,-187.5 363.5,-187.5 363.5,-168.5 334.5,-168.5"/>
<text text-anchor="middle" x="349" y="-175.5" font-family="Helvetica,sans-Serif" font-size="10.00">ios</text>
</g>
<!-- Node7&#45;&gt;Node13 -->
<g id="edge14" class="edge"><title>Node7&#45;&gt;Node13</title>
<path fill="none" stroke="midnightblue" d="M491.315,-224.587C462.797,-216.594 418.976,-203.874 373.052,-188.179"/>
<polygon fill="midnightblue" stroke="midnightblue" points="374.129,-184.849 363.534,-184.894 371.845,-191.465 374.129,-184.849"/>
</g>
<!-- Node14 -->
<g id="node15" class="node"><title>Node14</title>
<polygon fill="white" stroke="#bfbfbf" points="626,-168.5 626,-187.5 666,-187.5 666,-168.5 626,-168.5"/>
<text text-anchor="middle" x="646" y="-175.5" font-family="Helvetica,sans-Serif" font-size="10.00">limits</text>
</g>
<!-- Node7&#45;&gt;Node14 -->
<g id="edge15" class="edge"><title>Node7&#45;&gt;Node14</title>
<path fill="none" stroke="midnightblue" d="M541.648,-224.444C561.965,-215.596 593.903,-201.687 617.098,-191.586"/>
<polygon fill="midnightblue" stroke="midnightblue" points="618.673,-194.718 626.444,-187.516 615.878,-188.3 618.673,-194.718"/>
</g>
<!-- Node15 -->
<g id="node16" class="node"><title>Node15</title>
<polygon fill="white" stroke="#bfbfbf" points="381.5,-168.5 381.5,-187.5 410.5,-187.5 410.5,-168.5 381.5,-168.5"/>
<text text-anchor="middle" x="396" y="-175.5" font-family="Helvetica,sans-Serif" font-size="10.00">list</text>
</g>
<!-- Node7&#45;&gt;Node15 -->
<g id="edge16" class="edge"><title>Node7&#45;&gt;Node15</title>
<path fill="none" stroke="midnightblue" d="M502.035,-224.444C479.812,-214.92 443.905,-199.531 420.127,-189.34"/>
<polygon fill="midnightblue" stroke="midnightblue" points="421.324,-186.045 410.754,-185.323 418.566,-192.479 421.324,-186.045"/>
</g>
<!-- Node16 -->
<g id="node17" class="node"><title>Node16</title>
<polygon fill="white" stroke="#bfbfbf" points="104.5,-168.5 104.5,-187.5 139.5,-187.5 139.5,-168.5 104.5,-168.5"/>
<text text-anchor="middle" x="122" y="-175.5" font-family="Helvetica,sans-Serif" font-size="10.00">map</text>
</g>
<!-- Node7&#45;&gt;Node16 -->
<g id="edge17" class="edge"><title>Node7&#45;&gt;Node16</title>
<path fill="none" stroke="midnightblue" d="M491.184,-231.389C428.464,-227.661 281.465,-216.64 149.456,-187.636"/>
<polygon fill="midnightblue" stroke="midnightblue" points="150.098,-184.193 139.575,-185.424 148.569,-191.024 150.098,-184.193"/>
</g>
<!-- Node17 -->
<g id="node18" class="node"><title>Node17</title>
<polygon fill="white" stroke="#bfbfbf" points="158,-168.5 158,-187.5 210,-187.5 210,-168.5 158,-168.5"/>
<text text-anchor="middle" x="184" y="-175.5" font-family="Helvetica,sans-Serif" font-size="10.00">memory</text>
</g>
<!-- Node7&#45;&gt;Node17 -->
<g id="edge18" class="edge"><title>Node7&#45;&gt;Node17</title>
<path fill="none" stroke="midnightblue" d="M491.281,-229.512C438.063,-223.239 325.126,-208.911 220.411,-188.111"/>
<polygon fill="midnightblue" stroke="midnightblue" points="220.799,-184.619 210.305,-186.078 219.419,-191.481 220.799,-184.619"/>
</g>
<!-- Node18 -->
<g id="node19" class="node"><title>Node18</title>
<polygon fill="white" stroke="#bfbfbf" points="228,-168.5 228,-187.5 258,-187.5 258,-168.5 228,-168.5"/>
<text text-anchor="middle" x="243" y="-175.5" font-family="Helvetica,sans-Serif" font-size="10.00">set</text>
</g>
<!-- Node7&#45;&gt;Node18 -->
<g id="edge19" class="edge"><title>Node7&#45;&gt;Node18</title>
<path fill="none" stroke="midnightblue" d="M491.375,-229.448C444.882,-223.659 353.672,-210.748 267.977,-187.836"/>
<polygon fill="midnightblue" stroke="midnightblue" points="268.665,-184.396 258.097,-185.142 266.824,-191.149 268.665,-184.396"/>
</g>
<!-- Node7&#45;&gt;Node19 -->
<g id="edge21" class="edge"><title>Node7&#45;&gt;Node19</title>
<path fill="none" stroke="midnightblue" d="M552.526,-229.708C604.228,-223.829 712.421,-210.221 813.383,-187.841"/>
<polygon fill="midnightblue" stroke="midnightblue" points="814.456,-191.187 823.443,-185.576 812.918,-184.358 814.456,-191.187"/>
</g>
<!-- Node20 -->
<g id="node21" class="node"><title>Node20</title>
<polygon fill="white" stroke="#bfbfbf" points="659.5,-112.5 659.5,-131.5 708.5,-131.5 708.5,-112.5 659.5,-112.5"/>
<text text-anchor="middle" x="684" y="-119.5" font-family="Helvetica,sans-Serif" font-size="10.00">string.h</text>
</g>
<!-- Node7&#45;&gt;Node20 -->
<g id="edge22" class="edge"><title>Node7&#45;&gt;Node20</title>
<path fill="none" stroke="midnightblue" d="M528.396,-224.401C538.796,-210.904 560.578,-184.578 584,-168 604.165,-153.728 629.581,-142.362 649.744,-134.623"/>
<polygon fill="midnightblue" stroke="midnightblue" points="651.019,-137.883 659.174,-131.119 648.581,-131.322 651.019,-137.883"/>
</g>
<!-- Node21 -->
<g id="node22" class="node"><title>Node21</title>
<polygon fill="white" stroke="#bfbfbf" points="276,-168.5 276,-187.5 316,-187.5 316,-168.5 276,-168.5"/>
<text text-anchor="middle" x="296" y="-175.5" font-family="Helvetica,sans-Serif" font-size="10.00">utility</text>
</g>
<!-- Node7&#45;&gt;Node21 -->
<g id="edge23" class="edge"><title>Node7&#45;&gt;Node21</title>
<path fill="none" stroke="midnightblue" d="M491.449,-226.777C454.468,-219.081 390.119,-205.164 326.08,-188.139"/>
<polygon fill="midnightblue" stroke="midnightblue" points="326.79,-184.705 316.224,-185.492 324.975,-191.466 326.79,-184.705"/>
</g>
<!-- Node7&#45;&gt;Node22 -->
<g id="edge24" class="edge"><title>Node7&#45;&gt;Node22</title>
<path fill="none" stroke="midnightblue" d="M552.765,-230.584C612.511,-225.565 748.488,-212.549 872.662,-187.756"/>
<polygon fill="midnightblue" stroke="midnightblue" points="873.618,-191.134 882.723,-185.716 872.226,-184.273 873.618,-191.134"/>
</g>
<!-- Node23 -->
<g id="node24" class="node"><title>Node23</title>
<g id="a_node24"><a xlink:href="prevector_8h.html" target="_top" xlink:title="prevector.h">
<polygon fill="white" stroke="black" points="428.5,-168.5 428.5,-187.5 493.5,-187.5 493.5,-168.5 428.5,-168.5"/>
<text text-anchor="middle" x="461" y="-175.5" font-family="Helvetica,sans-Serif" font-size="10.00">prevector.h</text>
</a>
</g>
</g>
<!-- Node7&#45;&gt;Node23 -->
<g id="edge25" class="edge"><title>Node7&#45;&gt;Node23</title>
<path fill="none" stroke="midnightblue" d="M512.199,-224.324C503.182,-216.341 489.594,-204.313 478.682,-194.653"/>
<polygon fill="midnightblue" stroke="midnightblue" points="480.787,-191.842 470.979,-187.834 476.147,-197.083 480.787,-191.842"/>
</g>
<!-- Node8&#45;&gt;Node9 -->
<g id="edge9" class="edge"><title>Node8&#45;&gt;Node9</title>
<path fill="none" stroke="midnightblue" d="M921.821,-112.395C911.859,-99.3442 896.315,-74.1468 908,-56 922.093,-34.113 949.725,-22.7486 972.222,-16.9211"/>
<polygon fill="midnightblue" stroke="midnightblue" points="973.184,-20.2908 982.131,-14.6153 971.598,-13.473 973.184,-20.2908"/>
</g>
<!-- Node10 -->
<g id="node11" class="node"><title>Node10</title>
<g id="a_node11"><a xlink:href="byteswap_8h.html" target="_top" xlink:title="compat/byteswap.h">
<polygon fill="white" stroke="black" points="917,-56.5 917,-75.5 1019,-75.5 1019,-56.5 917,-56.5"/>
<text text-anchor="middle" x="968" y="-63.5" font-family="Helvetica,sans-Serif" font-size="10.00">compat/byteswap.h</text>
</a>
</g>
</g>
<!-- Node8&#45;&gt;Node10 -->
<g id="edge10" class="edge"><title>Node8&#45;&gt;Node10</title>
<path fill="none" stroke="midnightblue" d="M935.44,-112.083C940.949,-104.455 949.031,-93.2645 955.765,-83.9408"/>
<polygon fill="midnightblue" stroke="midnightblue" points="958.662,-85.9071 961.68,-75.7511 952.987,-81.8087 958.662,-85.9071"/>
</g>
<!-- Node10&#45;&gt;Node9 -->
<g id="edge11" class="edge"><title>Node10&#45;&gt;Node9</title>
<path fill="none" stroke="midnightblue" d="M974.44,-56.083C979.949,-48.4554 988.031,-37.2645 994.765,-27.9408"/>
<polygon fill="midnightblue" stroke="midnightblue" points="997.662,-29.9071 1000.68,-19.7511 991.987,-25.8087 997.662,-29.9071"/>
</g>
<!-- Node23&#45;&gt;Node9 -->
<g id="edge28" class="edge"><title>Node23&#45;&gt;Node9</title>
<path fill="none" stroke="midnightblue" d="M470.779,-168.403C487.209,-154.419 521.913,-126.823 556,-112 702.703,-48.2069 894.446,-22.5185 972.095,-14.2753"/>
<polygon fill="midnightblue" stroke="midnightblue" points="972.689,-17.7326 982.278,-13.2257 971.972,-10.7695 972.689,-17.7326"/>
</g>
<!-- Node23&#45;&gt;Node12 -->
<g id="edge26" class="edge"><title>Node23&#45;&gt;Node12</title>
<path fill="none" stroke="midnightblue" d="M481.599,-168.444C502.993,-159.557 536.681,-145.563 561.024,-135.451"/>
<polygon fill="midnightblue" stroke="midnightblue" points="562.605,-138.585 570.497,-131.516 559.92,-132.12 562.605,-138.585"/>
</g>
<!-- Node23&#45;&gt;Node20 -->
<g id="edge29" class="edge"><title>Node23&#45;&gt;Node20</title>
<path fill="none" stroke="midnightblue" d="M493.904,-169.032C535.541,-158.95 606.928,-141.663 649.368,-131.386"/>
<polygon fill="midnightblue" stroke="midnightblue" points="650.347,-134.75 659.243,-128.995 648.7,-127.947 650.347,-134.75"/>
</g>
<!-- Node23&#45;&gt;Node24 -->
<g id="edge27" class="edge"><title>Node23&#45;&gt;Node24</title>
<path fill="none" stroke="midnightblue" d="M428.363,-168.916C387.63,-158.826 318.303,-141.653 276.961,-131.412"/>
<polygon fill="midnightblue" stroke="midnightblue" points="277.636,-127.974 267.087,-128.967 275.953,-134.768 277.636,-127.974"/>
</g>
<!-- Node25 -->
<g id="node26" class="node"><title>Node25</title>
<polygon fill="white" stroke="#bfbfbf" points="437.5,-112.5 437.5,-131.5 484.5,-131.5 484.5,-112.5 437.5,-112.5"/>
<text text-anchor="middle" x="461" y="-119.5" font-family="Helvetica,sans-Serif" font-size="10.00">iterator</text>
</g>
<!-- Node23&#45;&gt;Node25 -->
<g id="edge30" class="edge"><title>Node23&#45;&gt;Node25</title>
<path fill="none" stroke="midnightblue" d="M461,-168.083C461,-161.006 461,-150.861 461,-141.986"/>
<polygon fill="midnightblue" stroke="midnightblue" points="464.5,-141.751 461,-131.751 457.5,-141.751 464.5,-141.751"/>
</g>
<!-- Node26&#45;&gt;Node9 -->
<g id="edge43" class="edge"><title>Node26&#45;&gt;Node9</title>
<path fill="none" stroke="midnightblue" d="M770.28,-230.917C857.19,-225.798 1063.49,-211.295 1084,-188 1127.66,-138.4 1058.37,-60.1921 1024.24,-26.8778"/>
<polygon fill="midnightblue" stroke="midnightblue" points="1026.43,-24.1361 1016.78,-19.769 1021.6,-29.2026 1026.43,-24.1361"/>
</g>
<!-- Node26&#45;&gt;Node12 -->
<g id="edge39" class="edge"><title>Node26&#45;&gt;Node12</title>
<path fill="none" stroke="midnightblue" d="M725.827,-224.106C716.175,-210.677 696.388,-184.992 675,-168 658.541,-154.924 637.726,-143.742 620.935,-135.796"/>
<polygon fill="midnightblue" stroke="midnightblue" points="622.126,-132.491 611.577,-131.501 619.206,-138.853 622.126,-132.491"/>
</g>
<!-- Node26&#45;&gt;Node14 -->
<g id="edge41" class="edge"><title>Node26&#45;&gt;Node14</title>
<path fill="none" stroke="midnightblue" d="M718.183,-224.324C704.767,-215.9 684.176,-202.971 668.414,-193.074"/>
<polygon fill="midnightblue" stroke="midnightblue" points="670.113,-190.008 659.783,-187.655 666.391,-195.936 670.113,-190.008"/>
</g>
<!-- Node26&#45;&gt;Node19 -->
<g id="edge45" class="edge"><title>Node26&#45;&gt;Node19</title>
<path fill="none" stroke="midnightblue" d="M749.995,-224.324C768.038,-215.625 796.047,-202.12 816.803,-192.113"/>
<polygon fill="midnightblue" stroke="midnightblue" points="818.562,-195.15 826.05,-187.655 815.522,-188.845 818.562,-195.15"/>
</g>
<!-- Node26&#45;&gt;Node20 -->
<g id="edge44" class="edge"><title>Node26&#45;&gt;Node20</title>
<path fill="none" stroke="midnightblue" d="M729.254,-224.438C725.129,-211.864 716.865,-187.755 708,-168 703.876,-158.811 698.679,-148.904 694.176,-140.73"/>
<polygon fill="midnightblue" stroke="midnightblue" points="697.099,-138.787 689.147,-131.786 690.997,-142.218 697.099,-138.787"/>
</g>
<!-- Node26&#45;&gt;Node22 -->
<g id="edge46" class="edge"><title>Node26&#45;&gt;Node22</title>
<path fill="none" stroke="midnightblue" d="M759.412,-224.444C790.276,-214.81 840.365,-199.175 872.996,-188.99"/>
<polygon fill="midnightblue" stroke="midnightblue" points="874.428,-192.209 882.931,-185.889 872.342,-185.527 874.428,-192.209"/>
</g>
<!-- Node26&#45;&gt;Node23 -->
<g id="edge38" class="edge"><title>Node26&#45;&gt;Node23</title>
<path fill="none" stroke="midnightblue" d="M693.747,-225.378C643.548,-215.375 555.712,-197.873 503.492,-187.467"/>
<polygon fill="midnightblue" stroke="midnightblue" points="504.036,-184.007 493.545,-185.485 502.668,-190.872 504.036,-184.007"/>
</g>
<!-- Node27 -->
<g id="node28" class="node"><title>Node27</title>
<g id="a_node28"><a xlink:href="common_8h.html" target="_top" xlink:title="crypto/common.h">
<polygon fill="white" stroke="black" points="983,-168.5 983,-187.5 1075,-187.5 1075,-168.5 983,-168.5"/>
<text text-anchor="middle" x="1029" y="-175.5" font-family="Helvetica,sans-Serif" font-size="10.00">crypto/common.h</text>
</a>
</g>
</g>
<!-- Node26&#45;&gt;Node27 -->
<g id="edge34" class="edge"><title>Node26&#45;&gt;Node27</title>
<path fill="none" stroke="midnightblue" d="M770.22,-226.051C821.685,-216.694 913.636,-199.975 972.936,-189.193"/>
<polygon fill="midnightblue" stroke="midnightblue" points="973.673,-192.617 982.886,-187.384 972.421,-185.73 973.673,-192.617"/>
</g>
<!-- Node28 -->
<g id="node29" class="node"><title>Node28</title>
<polygon fill="white" stroke="#bfbfbf" points="760.5,-168.5 760.5,-187.5 805.5,-187.5 805.5,-168.5 760.5,-168.5"/>
<text text-anchor="middle" x="783" y="-175.5" font-family="Helvetica,sans-Serif" font-size="10.00">climits</text>
</g>
<!-- Node26&#45;&gt;Node28 -->
<g id="edge40" class="edge"><title>Node26&#45;&gt;Node28</title>
<path fill="none" stroke="midnightblue" d="M740.422,-224.083C747.848,-216.22 758.852,-204.569 767.812,-195.081"/>
<polygon fill="midnightblue" stroke="midnightblue" points="770.413,-197.424 774.735,-187.751 765.324,-192.618 770.413,-197.424"/>
</g>
<!-- Node29 -->
<g id="node30" class="node"><title>Node29</title>
<polygon fill="white" stroke="#bfbfbf" points="1345.5,-168.5 1345.5,-187.5 1404.5,-187.5 1404.5,-168.5 1345.5,-168.5"/>
<text text-anchor="middle" x="1375" y="-175.5" font-family="Helvetica,sans-Serif" font-size="10.00">stdexcept</text>
</g>
<!-- Node26&#45;&gt;Node29 -->
<g id="edge42" class="edge"><title>Node26&#45;&gt;Node29</title>
<path fill="none" stroke="midnightblue" d="M770.313,-232.091C866.038,-229.396 1123.18,-219.559 1335,-188 1335.11,-187.984 1335.21,-187.968 1335.32,-187.952"/>
<polygon fill="midnightblue" stroke="midnightblue" points="1336.15,-191.36 1345.38,-186.172 1334.93,-184.467 1336.15,-191.36"/>
</g>
<!-- Node27&#45;&gt;Node8 -->
<g id="edge37" class="edge"><title>Node27&#45;&gt;Node8</title>
<path fill="none" stroke="midnightblue" d="M1012.93,-168.324C997.042,-159.743 972.493,-146.486 954.042,-136.522"/>
<polygon fill="midnightblue" stroke="midnightblue" points="955.489,-133.326 945.027,-131.655 952.163,-139.486 955.489,-133.326"/>
</g>
<!-- Node27&#45;&gt;Node9 -->
<g id="edge35" class="edge"><title>Node27&#45;&gt;Node9</title>
<path fill="none" stroke="midnightblue" d="M1030.02,-168.355C1032.15,-148.311 1036.11,-97.2359 1027,-56 1024.93,-46.6083 1020.81,-36.7807 1016.85,-28.714"/>
<polygon fill="midnightblue" stroke="midnightblue" points="1019.82,-26.84 1012.08,-19.6033 1013.62,-30.0861 1019.82,-26.84"/>
</g>
<!-- Node27&#45;&gt;Node20 -->
<g id="edge36" class="edge"><title>Node27&#45;&gt;Node20</title>
<path fill="none" stroke="midnightblue" d="M982.83,-169.773C912.881,-158.825 781.583,-138.274 718.958,-128.472"/>
<polygon fill="midnightblue" stroke="midnightblue" points="719.224,-124.971 708.803,-126.882 718.142,-131.887 719.224,-124.971"/>
</g>
<!-- Node30&#45;&gt;Node9 -->
<g id="edge52" class="edge"><title>Node30&#45;&gt;Node9</title>
<path fill="none" stroke="midnightblue" d="M1161.03,-224.218C1167.06,-195.725 1181.74,-104.879 1137,-56 1112.51,-29.2487 1071.33,-18.4003 1041.88,-14.001"/>
<polygon fill="midnightblue" stroke="midnightblue" points="1041.99,-10.4846 1031.62,-12.6544 1041.08,-17.4251 1041.99,-10.4846"/>
</g>
<!-- Node30&#45;&gt;Node12 -->
<g id="edge49" class="edge"><title>Node30&#45;&gt;Node12</title>
<path fill="none" stroke="midnightblue" d="M1130.94,-226.181C1079.26,-213.62 974.234,-188.087 974,-188 955.743,-181.207 953.611,-173.752 935,-168 813.02,-130.3 776.45,-149.628 650,-132 642.592,-130.967 634.67,-129.801 627.114,-128.659"/>
<polygon fill="midnightblue" stroke="midnightblue" points="627.533,-125.183 617.119,-127.132 626.475,-132.103 627.533,-125.183"/>
</g>
<!-- Node30&#45;&gt;Node19 -->
<g id="edge53" class="edge"><title>Node30&#45;&gt;Node19</title>
<path fill="none" stroke="midnightblue" d="M1130.78,-225.845C1127.82,-225.182 1124.86,-224.553 1122,-224 1015.75,-203.414 984.504,-211.568 874.385,-187.765"/>
<polygon fill="midnightblue" stroke="midnightblue" points="875.07,-184.332 864.552,-185.6 873.566,-191.168 875.07,-184.332"/>
</g>
<!-- Node30&#45;&gt;Node22 -->
<g id="edge54" class="edge"><title>Node30&#45;&gt;Node22</title>
<path fill="none" stroke="midnightblue" d="M1130.75,-225.997C1127.8,-225.305 1124.84,-224.628 1122,-224 1041.91,-206.303 1021.03,-205.952 941,-188 939.727,-187.714 938.43,-187.418 937.121,-187.114"/>
<polygon fill="midnightblue" stroke="midnightblue" points="937.585,-183.625 927.044,-184.691 935.949,-190.432 937.585,-183.625"/>
</g>
<!-- Node30&#45;&gt;Node27 -->
<g id="edge55" class="edge"><title>Node30&#45;&gt;Node27</title>
<path fill="none" stroke="midnightblue" d="M1138.4,-224.444C1117.01,-215.557 1083.32,-201.563 1058.98,-191.451"/>
<polygon fill="midnightblue" stroke="midnightblue" points="1060.08,-188.12 1049.5,-187.516 1057.39,-194.585 1060.08,-188.12"/>
</g>
<!-- Node30&#45;&gt;Node29 -->
<g id="edge51" class="edge"><title>Node30&#45;&gt;Node29</title>
<path fill="none" stroke="midnightblue" d="M1187.24,-225.94C1225.14,-216.465 1292.65,-199.588 1335.55,-188.862"/>
<polygon fill="midnightblue" stroke="midnightblue" points="1336.52,-192.229 1345.37,-186.408 1334.82,-185.438 1336.52,-192.229"/>
</g>
<!-- Node31 -->
<g id="node32" class="node"><title>Node31</title>
<polygon fill="white" stroke="#bfbfbf" points="1207,-168.5 1207,-187.5 1253,-187.5 1253,-168.5 1207,-168.5"/>
<text text-anchor="middle" x="1230" y="-175.5" font-family="Helvetica,sans-Serif" font-size="10.00">cstring</text>
</g>
<!-- Node30&#45;&gt;Node31 -->
<g id="edge50" class="edge"><title>Node30&#45;&gt;Node31</title>
<path fill="none" stroke="midnightblue" d="M1170.41,-224.324C1181.11,-216.185 1197.34,-203.839 1210.16,-194.087"/>
<polygon fill="midnightblue" stroke="midnightblue" points="1212.54,-196.673 1218.39,-187.834 1208.31,-191.102 1212.54,-196.673"/>
</g>
<!-- Node32&#45;&gt;Node3 -->
<g id="edge60" class="edge"><title>Node32&#45;&gt;Node3</title>
<path fill="none" stroke="midnightblue" d="M1007.46,-448.444C969.747,-439.102 909.26,-424.119 868.135,-413.933"/>
<polygon fill="midnightblue" stroke="midnightblue" points="868.929,-410.524 858.381,-411.516 867.246,-417.318 868.929,-410.524"/>
</g>
<!-- Node32&#45;&gt;Node9 -->
<g id="edge63" class="edge"><title>Node32&#45;&gt;Node9</title>
<path fill="none" stroke="midnightblue" d="M1074.89,-448.44C1182.1,-418.899 1509.08,-314.909 1413,-168 1329.19,-39.8495 1123.71,-16.2049 1041.66,-11.9163"/>
<polygon fill="midnightblue" stroke="midnightblue" points="1041.76,-8.41693 1031.61,-11.4567 1041.44,-15.4096 1041.76,-8.41693"/>
</g>
<!-- Node32&#45;&gt;Node30 -->
<g id="edge61" class="edge"><title>Node32&#45;&gt;Node30</title>
<path fill="none" stroke="midnightblue" d="M1056.53,-448.359C1068.87,-440.344 1086.24,-427.36 1097,-412 1132.58,-361.204 1149.54,-288.014 1155.89,-253.871"/>
<polygon fill="midnightblue" stroke="midnightblue" points="1159.36,-254.334 1157.64,-243.878 1152.46,-253.12 1159.36,-254.334"/>
</g>
<!-- Node33 -->
<g id="node34" class="node"><title>Node33</title>
<polygon fill="white" stroke="#bfbfbf" points="996,-392.5 996,-411.5 1088,-411.5 1088,-392.5 996,-392.5"/>
<text text-anchor="middle" x="1042" y="-399.5" font-family="Helvetica,sans-Serif" font-size="10.00">boost/variant.hpp</text>
</g>
<!-- Node32&#45;&gt;Node33 -->
<g id="edge62" class="edge"><title>Node32&#45;&gt;Node33</title>
<path fill="none" stroke="midnightblue" d="M1042,-448.083C1042,-441.006 1042,-430.861 1042,-421.986"/>
<polygon fill="midnightblue" stroke="midnightblue" points="1045.5,-421.751 1042,-411.751 1038.5,-421.751 1045.5,-421.751"/>
</g>
<!-- Node35&#45;&gt;Node11 -->
<g id="edge67" class="edge"><title>Node35&#45;&gt;Node11</title>
<path fill="none" stroke="midnightblue" d="M1461.42,-224.444C1427.71,-215.011 1373.43,-199.825 1337.01,-189.634"/>
<polygon fill="midnightblue" stroke="midnightblue" points="1337.81,-186.225 1327.24,-186.902 1335.93,-192.967 1337.81,-186.225"/>
</g>
<!-- Node35&#45;&gt;Node29 -->
<g id="edge71" class="edge"><title>Node35&#45;&gt;Node29</title>
<path fill="none" stroke="midnightblue" d="M1473.46,-224.444C1454.38,-215.636 1424.43,-201.812 1402.56,-191.722"/>
<polygon fill="midnightblue" stroke="midnightblue" points="1404,-188.529 1393.45,-187.516 1401.07,-194.885 1404,-188.529"/>
</g>
<!-- Node36 -->
<g id="node37" class="node"><title>Node36</title>
<polygon fill="white" stroke="#bfbfbf" points="1461.5,-168.5 1461.5,-187.5 1510.5,-187.5 1510.5,-168.5 1461.5,-168.5"/>
<text text-anchor="middle" x="1486" y="-175.5" font-family="Helvetica,sans-Serif" font-size="10.00">cassert</text>
</g>
<!-- Node35&#45;&gt;Node36 -->
<g id="edge68" class="edge"><title>Node35&#45;&gt;Node36</title>
<path fill="none" stroke="midnightblue" d="M1491.01,-224.083C1490.21,-216.927 1489.07,-206.635 1488.08,-197.691"/>
<polygon fill="midnightblue" stroke="midnightblue" points="1491.56,-197.303 1486.97,-187.751 1484.6,-198.076 1491.56,-197.303"/>
</g>
<!-- Node37 -->
<g id="node38" class="node"><title>Node37</title>
<polygon fill="white" stroke="#bfbfbf" points="1529,-168.5 1529,-187.5 1583,-187.5 1583,-168.5 1529,-168.5"/>
<text text-anchor="middle" x="1556" y="-175.5" font-family="Helvetica,sans-Serif" font-size="10.00">iostream</text>
</g>
<!-- Node35&#45;&gt;Node37 -->
<g id="edge69" class="edge"><title>Node35&#45;&gt;Node37</title>
<path fill="none" stroke="midnightblue" d="M1502.28,-224.324C1511.84,-216.263 1526.28,-204.077 1537.78,-194.369"/>
<polygon fill="midnightblue" stroke="midnightblue" points="1540.14,-196.958 1545.53,-187.834 1535.63,-191.608 1540.14,-196.958"/>
</g>
<!-- Node38 -->
<g id="node39" class="node"><title>Node38</title>
<polygon fill="white" stroke="#bfbfbf" points="1601,-168.5 1601,-187.5 1653,-187.5 1653,-168.5 1601,-168.5"/>
<text text-anchor="middle" x="1627" y="-175.5" font-family="Helvetica,sans-Serif" font-size="10.00">sstream</text>
</g>
<!-- Node35&#45;&gt;Node38 -->
<g id="edge70" class="edge"><title>Node35&#45;&gt;Node38</title>
<path fill="none" stroke="midnightblue" d="M1513.39,-224.444C1535.71,-215.517 1570.9,-201.439 1596.21,-191.317"/>
<polygon fill="midnightblue" stroke="midnightblue" points="1597.72,-194.48 1605.71,-187.516 1595.12,-187.981 1597.72,-194.48"/>
</g>
<!-- Node40&#45;&gt;Node9 -->
<g id="edge74" class="edge"><title>Node40&#45;&gt;Node9</title>
<path fill="none" stroke="midnightblue" d="M1081.95,-224.474C1093.93,-216.702 1109.87,-204.002 1117,-188 1140.87,-134.408 1149.7,-104.708 1117,-56 1100.32,-31.1568 1067.24,-20.0195 1041.69,-15.032"/>
<polygon fill="midnightblue" stroke="midnightblue" points="1042.07,-11.546 1031.62,-13.3009 1040.89,-18.4448 1042.07,-11.546"/>
</g>
<!-- Node40&#45;&gt;Node19 -->
<g id="edge75" class="edge"><title>Node40&#45;&gt;Node19</title>
<path fill="none" stroke="midnightblue" d="M1027.27,-224.497C990.188,-216.391 933.113,-203.485 874.422,-187.98"/>
<polygon fill="midnightblue" stroke="midnightblue" points="875.173,-184.558 864.609,-185.367 873.371,-191.322 875.173,-184.558"/>
</g>
<!-- Node40&#45;&gt;Node22 -->
<g id="edge76" class="edge"><title>Node40&#45;&gt;Node22</title>
<path fill="none" stroke="midnightblue" d="M1041.33,-224.444C1013.04,-215.012 967.485,-199.828 936.912,-189.637"/>
<polygon fill="midnightblue" stroke="midnightblue" points="937.759,-186.23 927.165,-186.388 935.545,-192.871 937.759,-186.23"/>
</g>
</g>
</svg>
        <g id="navigator" transform="translate(0 0)" fill="#404254">
                <rect fill="#f2f5e9" fill-opacity="0.5" stroke="#606060" stroke-width=".5" x="0" y="0" width="60" height="60"/>
                <use id="zoomplus" xlink:href="#zoomPlus" x="17" y="9" onmousedown="handleZoom(evt,'in')"/>
                <use id="zoomminus" xlink:href="#zoomMin" x="42" y="9" onmousedown="handleZoom(evt,'out')"/>
                <use id="reset" xlink:href="#resetDef" x="30" y="36" onmousedown="handleReset()"/>
                <g id="arrowUp" xlink:href="#dirArrow" transform="translate(30 24)" onmousedown="handlePan(0,-1)">
                  <use xlink:href="#rim" fill="#404040">
                        <set attributeName="fill" to="#808080" begin="arrowUp.mouseover" end="arrowUp.mouseout"/>
                  </use>
                  <path fill="none" stroke="white" stroke-width="1.5" d="M0,-3.0v7 M-2.5,-0.5L0,-3.0L2.5,-0.5"/>
                </g>
                <g id="arrowRight" xlink:href="#dirArrow" transform="rotate(90) translate(36 -43)" onmousedown="handlePan(1,0)">
                  <use xlink:href="#rim" fill="#404040">
                        <set attributeName="fill" to="#808080" begin="arrowRight.mouseover" end="arrowRight.mouseout"/>
                  </use>
                  <path fill="none" stroke="white" stroke-width="1.5" d="M0,-3.0v7 M-2.5,-0.5L0,-3.0L2.5,-0.5"/>
                </g>
                <g id="arrowDown" xlink:href="#dirArrow" transform="rotate(180) translate(-30 -48)" onmousedown="handlePan(0,1)">
                  <use xlink:href="#rim" fill="#404040">
                        <set attributeName="fill" to="#808080" begin="arrowDown.mouseover" end="arrowDown.mouseout"/>
                  </use>
                  <path fill="none" stroke="white" stroke-width="1.5" d="M0,-3.0v7 M-2.5,-0.5L0,-3.0L2.5,-0.5"/>
                </g>
                <g id="arrowLeft" xlink:href="#dirArrow" transform="rotate(270) translate(-36 17)" onmousedown="handlePan(-1,0)">
                  <use xlink:href="#rim" fill="#404040">
                        <set attributeName="fill" to="#808080" begin="arrowLeft.mouseover" end="arrowLeft.mouseout"/>
                  </use>
                  <path fill="none" stroke="white" stroke-width="1.5" d="M0,-3.0v7 M-2.5,-0.5L0,-3.0L2.5,-0.5"/>
                </g>
        </g>
        <svg viewBox="0 0 15 15" width="100%" height="30px" preserveAspectRatio="xMaxYMin meet">
         <g id="arrow_out" transform="scale(0.3 0.3)">
          <a xlink:href="policy_8cpp__incl_org.svg" target="_base">
           <rect id="button" ry="5" rx="5" y="6" x="6" height="38" width="38"
                fill="#f2f5e9" fill-opacity="0.5" stroke="#606060" stroke-width="1.0"/>
           <path id="arrow"
             d="M 11.500037,31.436501 C 11.940474,20.09759 22.043105,11.32322 32.158766,21.979434 L 37.068811,17.246167 C 37.068811,17.246167 37.088388,32 37.088388,32 L 22.160133,31.978069 C 22.160133,31.978069 26.997745,27.140456 26.997745,27.140456 C 18.528582,18.264221 13.291696,25.230495 11.500037,31.436501 z"
             style="fill:#404040;"/>
          </a>
         </g>
        </svg>
</svg>
