<?xml version="1.0" encoding="UTF-8" standalone="no"?>
<!DOCTYPE svg PUBLIC "-//W3C//DTD SVG 1.1//EN"
 "http://www.w3.org/Graphics/SVG/1.1/DTD/svg11.dtd">
<!-- Generated by graphviz version 2.36.0 (20140111.2315)
 -->
<!-- Title: src/support/allocators/pooled_secure.h Pages: 1 -->
<!--zoomable 152 -->
<svg id="main" version="1.1" xmlns="http://www.w3.org/2000/svg" xmlns:xlink="http://www.w3.org/1999/xlink" xml:space="preserve" onload="init(evt)">
<style type="text/css"><![CDATA[
.edge:hover path { stroke: red; }
.edge:hover polygon { stroke: red; fill: red; }
]]></style>
<script type="text/javascript"><![CDATA[
var edges = document.getElementsByTagName('g');
if (edges && edges.length) {
  for (var i=0;i<edges.length;i++) {
    if (edges[i].id.substr(0,4)=='edge') {
      edges[i].setAttribute('class','edge');
    }
  }
}
]]></script>
        <defs>
                <circle id="rim" cx="0" cy="0" r="7"/>
                <circle id="rim2" cx="0" cy="0" r="3.5"/>
                <g id="zoomPlus">
                        <use xlink:href="#rim" fill="#404040">
                                <set attributeName="fill" to="#808080" begin="zoomplus.mouseover" end="zoomplus.mouseout"/>
                        </use>
                        <path d="M-4,0h8M0,-4v8" fill="none" stroke="white" stroke-width="1.5" pointer-events="none"/>
                </g>
                <g id="zoomMin">
                        <use xlink:href="#rim" fill="#404040">
                                <set attributeName="fill" to="#808080" begin="zoomminus.mouseover" end="zoomminus.mouseout"/>
                        </use>
                        <path d="M-4,0h8" fill="none" stroke="white" stroke-width="1.5" pointer-events="none"/>
                </g>
                <g id="dirArrow">
                        <path fill="none" stroke="white" stroke-width="1.5" d="M0,-3.0v7 M-2.5,-0.5L0,-3.0L2.5,-0.5"/>
                </g>
               <g id="resetDef">
                       <use xlink:href="#rim2" fill="#404040">
                               <set attributeName="fill" to="#808080" begin="reset.mouseover" end="reset.mouseout"/>
                       </use>
               </g>
        </defs>

<script type="text/javascript">
var viewWidth = 626;
var viewHeight = 152;
var sectionId = 'dynsection-0';
</script>
<script xlink:href="svgpan.js"/>
<svg id="graph" class="graph">
<g id="viewport">
<title>src/support/allocators/pooled_secure.h</title>
<polygon fill="white" stroke="none" points="-4,4 -4,-148 622,-148 622,4 -4,4"/>
<!-- Node0 -->
<g id="node1" class="node"><title>Node0</title>
<polygon fill="#bfbfbf" stroke="black" points="335,-113 335,-143 445,-143 445,-113 335,-113"/>
<text text-anchor="start" x="343" y="-131" font-family="Helvetica,sans-Serif" font-size="10.00">src/support/allocators</text>
<text text-anchor="middle" x="390" y="-120" font-family="Helvetica,sans-Serif" font-size="10.00">/pooled_secure.h</text>
</g>
<!-- Node1 -->
<g id="node2" class="node"><title>Node1</title>
<g id="a_node2"><a xlink:href="lockedpool_8h.html" target="_top" xlink:title="support/lockedpool.h">
<polygon fill="white" stroke="black" points="95.5,-56.5 95.5,-75.5 202.5,-75.5 202.5,-56.5 95.5,-56.5"/>
<text text-anchor="middle" x="149" y="-63.5" font-family="Helvetica,sans-Serif" font-size="10.00">support/lockedpool.h</text>
</a>
</g>
</g>
<!-- Node0&#45;&gt;Node1 -->
<g id="edge1" class="edge"><title>Node0&#45;&gt;Node1</title>
<path fill="none" stroke="midnightblue" d="M334.71,-113.235C291.756,-102.541 232.982,-87.9084 193.144,-77.9902"/>
<polygon fill="midnightblue" stroke="midnightblue" points="193.743,-74.5326 183.194,-75.5129 192.052,-81.3252 193.743,-74.5326"/>
</g>
<!-- Node7 -->
<g id="node8" class="node"><title>Node7</title>
<g id="a_node8"><a xlink:href="cleanse_8h.html" target="_top" xlink:title="support/cleanse.h">
<polygon fill="white" stroke="black" points="257,-56.5 257,-75.5 351,-75.5 351,-56.5 257,-56.5"/>
<text text-anchor="middle" x="304" y="-63.5" font-family="Helvetica,sans-Serif" font-size="10.00">support/cleanse.h</text>
</a>
</g>
</g>
<!-- Node0&#45;&gt;Node7 -->
<g id="edge7" class="edge"><title>Node0&#45;&gt;Node7</title>
<path fill="none" stroke="midnightblue" d="M369.619,-112.781C356.01,-103.286 338.176,-90.8434 324.535,-81.3267"/>
<polygon fill="midnightblue" stroke="midnightblue" points="326.467,-78.4071 316.263,-75.5557 322.462,-84.148 326.467,-78.4071"/>
</g>
<!-- Node9 -->
<g id="node10" class="node"><title>Node9</title>
<polygon fill="white" stroke="#bfbfbf" points="369.5,-56.5 369.5,-75.5 410.5,-75.5 410.5,-56.5 369.5,-56.5"/>
<text text-anchor="middle" x="390" y="-63.5" font-family="Helvetica,sans-Serif" font-size="10.00">string</text>
</g>
<!-- Node0&#45;&gt;Node9 -->
<g id="edge9" class="edge"><title>Node0&#45;&gt;Node9</title>
<path fill="none" stroke="midnightblue" d="M390,-112.781C390,-104.781 390,-94.6887 390,-86.0168"/>
<polygon fill="midnightblue" stroke="midnightblue" points="393.5,-85.7305 390,-75.7305 386.5,-85.7306 393.5,-85.7305"/>
</g>
<!-- Node10 -->
<g id="node11" class="node"><title>Node10</title>
<polygon fill="white" stroke="#bfbfbf" points="429,-56.5 429,-75.5 473,-75.5 473,-56.5 429,-56.5"/>
<text text-anchor="middle" x="451" y="-63.5" font-family="Helvetica,sans-Serif" font-size="10.00">vector</text>
</g>
<!-- Node0&#45;&gt;Node10 -->
<g id="edge10" class="edge"><title>Node0&#45;&gt;Node10</title>
<path fill="none" stroke="midnightblue" d="M404.456,-112.781C413.594,-103.792 425.419,-92.162 434.862,-82.8731"/>
<polygon fill="midnightblue" stroke="midnightblue" points="437.449,-85.2382 442.124,-75.7305 432.54,-80.2477 437.449,-85.2382"/>
</g>
<!-- Node11 -->
<g id="node12" class="node"><title>Node11</title>
<polygon fill="white" stroke="#bfbfbf" points="491.5,-56.5 491.5,-75.5 618.5,-75.5 618.5,-56.5 491.5,-56.5"/>
<text text-anchor="middle" x="555" y="-63.5" font-family="Helvetica,sans-Serif" font-size="10.00">boost/pool/pool_alloc.hpp</text>
</g>
<!-- Node0&#45;&gt;Node11 -->
<g id="edge11" class="edge"><title>Node0&#45;&gt;Node11</title>
<path fill="none" stroke="midnightblue" d="M428.685,-112.933C456.895,-102.674 494.734,-88.9148 521.623,-79.1369"/>
<polygon fill="midnightblue" stroke="midnightblue" points="523.148,-82.3068 531.35,-75.6 520.756,-75.7282 523.148,-82.3068"/>
</g>
<!-- Node2 -->
<g id="node3" class="node"><title>Node2</title>
<polygon fill="white" stroke="#bfbfbf" points="-0.5,-0.5 -0.5,-19.5 48.5,-19.5 48.5,-0.5 -0.5,-0.5"/>
<text text-anchor="middle" x="24" y="-7.5" font-family="Helvetica,sans-Serif" font-size="10.00">stdint.h</text>
</g>
<!-- Node1&#45;&gt;Node2 -->
<g id="edge2" class="edge"><title>Node1&#45;&gt;Node2</title>
<path fill="none" stroke="midnightblue" d="M129.193,-56.4435C108.713,-47.5961 76.5173,-33.6875 53.1353,-23.5865"/>
<polygon fill="midnightblue" stroke="midnightblue" points="54.282,-20.2692 43.714,-19.5164 51.5059,-26.6953 54.282,-20.2692"/>
</g>
<!-- Node3 -->
<g id="node4" class="node"><title>Node3</title>
<polygon fill="white" stroke="#bfbfbf" points="66.5,-0.5 66.5,-19.5 95.5,-19.5 95.5,-0.5 66.5,-0.5"/>
<text text-anchor="middle" x="81" y="-7.5" font-family="Helvetica,sans-Serif" font-size="10.00">list</text>
</g>
<!-- Node1&#45;&gt;Node3 -->
<g id="edge3" class="edge"><title>Node1&#45;&gt;Node3</title>
<path fill="none" stroke="midnightblue" d="M138.075,-56.324C127.825,-48.1849 112.279,-35.8395 99.999,-26.0874"/>
<polygon fill="midnightblue" stroke="midnightblue" points="102.132,-23.3119 92.1242,-19.8339 97.7787,-28.7937 102.132,-23.3119"/>
</g>
<!-- Node4 -->
<g id="node5" class="node"><title>Node4</title>
<polygon fill="white" stroke="#bfbfbf" points="113.5,-0.5 113.5,-19.5 148.5,-19.5 148.5,-0.5 113.5,-0.5"/>
<text text-anchor="middle" x="131" y="-7.5" font-family="Helvetica,sans-Serif" font-size="10.00">map</text>
</g>
<!-- Node1&#45;&gt;Node4 -->
<g id="edge4" class="edge"><title>Node1&#45;&gt;Node4</title>
<path fill="none" stroke="midnightblue" d="M146.028,-56.083C143.616,-48.8486 140.136,-38.4087 137.132,-29.3968"/>
<polygon fill="midnightblue" stroke="midnightblue" points="140.4,-28.1311 133.917,-19.7511 133.759,-30.3447 140.4,-28.1311"/>
</g>
<!-- Node5 -->
<g id="node6" class="node"><title>Node5</title>
<polygon fill="white" stroke="#bfbfbf" points="167,-0.5 167,-19.5 211,-19.5 211,-0.5 167,-0.5"/>
<text text-anchor="middle" x="189" y="-7.5" font-family="Helvetica,sans-Serif" font-size="10.00">mutex</text>
</g>
<!-- Node1&#45;&gt;Node5 -->
<g id="edge5" class="edge"><title>Node1&#45;&gt;Node5</title>
<path fill="none" stroke="midnightblue" d="M155.605,-56.083C161.255,-48.4554 169.545,-37.2645 176.451,-27.9408"/>
<polygon fill="midnightblue" stroke="midnightblue" points="179.378,-29.87 182.518,-19.7511 173.753,-25.7034 179.378,-29.87"/>
</g>
<!-- Node6 -->
<g id="node7" class="node"><title>Node6</title>
<polygon fill="white" stroke="#bfbfbf" points="229,-0.5 229,-19.5 281,-19.5 281,-0.5 229,-0.5"/>
<text text-anchor="middle" x="255" y="-7.5" font-family="Helvetica,sans-Serif" font-size="10.00">memory</text>
</g>
<!-- Node1&#45;&gt;Node6 -->
<g id="edge6" class="edge"><title>Node1&#45;&gt;Node6</title>
<path fill="none" stroke="midnightblue" d="M166.031,-56.324C183.03,-47.6641 209.376,-34.2424 228.993,-24.249"/>
<polygon fill="midnightblue" stroke="midnightblue" points="230.69,-27.3125 238.012,-19.6545 227.512,-21.0752 230.69,-27.3125"/>
</g>
<!-- Node8 -->
<g id="node9" class="node"><title>Node8</title>
<polygon fill="white" stroke="#bfbfbf" points="299,-0.5 299,-19.5 347,-19.5 347,-0.5 299,-0.5"/>
<text text-anchor="middle" x="323" y="-7.5" font-family="Helvetica,sans-Serif" font-size="10.00">stdlib.h</text>
</g>
<!-- Node7&#45;&gt;Node8 -->
<g id="edge8" class="edge"><title>Node7&#45;&gt;Node8</title>
<path fill="none" stroke="midnightblue" d="M307.137,-56.083C309.683,-48.8486 313.356,-38.4087 316.527,-29.3968"/>
<polygon fill="midnightblue" stroke="midnightblue" points="319.903,-30.3459 319.921,-19.7511 313.3,-28.0225 319.903,-30.3459"/>
</g>
</g>
</svg>
        <g id="navigator" transform="translate(0 0)" fill="#404254">
                <rect fill="#f2f5e9" fill-opacity="0.5" stroke="#606060" stroke-width=".5" x="0" y="0" width="60" height="60"/>
                <use id="zoomplus" xlink:href="#zoomPlus" x="17" y="9" onmousedown="handleZoom(evt,'in')"/>
                <use id="zoomminus" xlink:href="#zoomMin" x="42" y="9" onmousedown="handleZoom(evt,'out')"/>
                <use id="reset" xlink:href="#resetDef" x="30" y="36" onmousedown="handleReset()"/>
                <g id="arrowUp" xlink:href="#dirArrow" transform="translate(30 24)" onmousedown="handlePan(0,-1)">
                  <use xlink:href="#rim" fill="#404040">
                        <set attributeName="fill" to="#808080" begin="arrowUp.mouseover" end="arrowUp.mouseout"/>
                  </use>
                  <path fill="none" stroke="white" stroke-width="1.5" d="M0,-3.0v7 M-2.5,-0.5L0,-3.0L2.5,-0.5"/>
                </g>
                <g id="arrowRight" xlink:href="#dirArrow" transform="rotate(90) translate(36 -43)" onmousedown="handlePan(1,0)">
                  <use xlink:href="#rim" fill="#404040">
                        <set attributeName="fill" to="#808080" begin="arrowRight.mouseover" end="arrowRight.mouseout"/>
                  </use>
                  <path fill="none" stroke="white" stroke-width="1.5" d="M0,-3.0v7 M-2.5,-0.5L0,-3.0L2.5,-0.5"/>
                </g>
                <g id="arrowDown" xlink:href="#dirArrow" transform="rotate(180) translate(-30 -48)" onmousedown="handlePan(0,1)">
                  <use xlink:href="#rim" fill="#404040">
                        <set attributeName="fill" to="#808080" begin="arrowDown.mouseover" end="arrowDown.mouseout"/>
                  </use>
                  <path fill="none" stroke="white" stroke-width="1.5" d="M0,-3.0v7 M-2.5,-0.5L0,-3.0L2.5,-0.5"/>
                </g>
                <g id="arrowLeft" xlink:href="#dirArrow" transform="rotate(270) translate(-36 17)" onmousedown="handlePan(-1,0)">
                  <use xlink:href="#rim" fill="#404040">
                        <set attributeName="fill" to="#808080" begin="arrowLeft.mouseover" end="arrowLeft.mouseout"/>
                  </use>
                  <path fill="none" stroke="white" stroke-width="1.5" d="M0,-3.0v7 M-2.5,-0.5L0,-3.0L2.5,-0.5"/>
                </g>
        </g>
        <svg viewBox="0 0 15 15" width="100%" height="30px" preserveAspectRatio="xMaxYMin meet">
         <g id="arrow_out" transform="scale(0.3 0.3)">
          <a xlink:href="pooled__secure_8h__incl_org.svg" target="_base">
           <rect id="button" ry="5" rx="5" y="6" x="6" height="38" width="38"
                fill="#f2f5e9" fill-opacity="0.5" stroke="#606060" stroke-width="1.0"/>
           <path id="arrow"
             d="M 11.500037,31.436501 C 11.940474,20.09759 22.043105,11.32322 32.158766,21.979434 L 37.068811,17.246167 C 37.068811,17.246167 37.088388,32 37.088388,32 L 22.160133,31.978069 C 22.160133,31.978069 26.997745,27.140456 26.997745,27.140456 C 18.528582,18.264221 13.291696,25.230495 11.500037,31.436501 z"
             style="fill:#404040;"/>
          </a>
         </g>
        </svg>
</svg>
