<?xml version="1.0" encoding="UTF-8" standalone="no"?>
<!DOCTYPE svg PUBLIC "-//W3C//DTD SVG 1.1//EN"
 "http://www.w3.org/Graphics/SVG/1.1/DTD/svg11.dtd">
<!-- Generated by graphviz version 2.36.0 (20140111.2315)
 -->
<!-- Title: src/support/allocators/pooled_secure.h Pages: 1 -->
<svg width="626pt" height="152pt"
 viewBox="0.00 0.00 626.00 152.00" xmlns="http://www.w3.org/2000/svg" xmlns:xlink="http://www.w3.org/1999/xlink">
<g id="graph0" class="graph" transform="scale(1 1) rotate(0) translate(4 148)">
<title>src/support/allocators/pooled_secure.h</title>
<polygon fill="white" stroke="none" points="-4,4 -4,-148 622,-148 622,4 -4,4"/>
<!-- Node0 -->
<g id="node1" class="node"><title>Node0</title>
<polygon fill="#bfbfbf" stroke="black" points="335,-113 335,-143 445,-143 445,-113 335,-113"/>
<text text-anchor="start" x="343" y="-131" font-family="Helvetica,sans-Serif" font-size="10.00">src/support/allocators</text>
<text text-anchor="middle" x="390" y="-120" font-family="Helvetica,sans-Serif" font-size="10.00">/pooled_secure.h</text>
</g>
<!-- Node1 -->
<g id="node2" class="node"><title>Node1</title>
<g id="a_node2"><a xlink:href="lockedpool_8h.html" target="_top" xlink:title="support/lockedpool.h">
<polygon fill="white" stroke="black" points="95.5,-56.5 95.5,-75.5 202.5,-75.5 202.5,-56.5 95.5,-56.5"/>
<text text-anchor="middle" x="149" y="-63.5" font-family="Helvetica,sans-Serif" font-size="10.00">support/lockedpool.h</text>
</a>
</g>
</g>
<!-- Node0&#45;&gt;Node1 -->
<g id="edge1" class="edge"><title>Node0&#45;&gt;Node1</title>
<path fill="none" stroke="midnightblue" d="M334.71,-113.235C291.756,-102.541 232.982,-87.9084 193.144,-77.9902"/>
<polygon fill="midnightblue" stroke="midnightblue" points="193.743,-74.5326 183.194,-75.5129 192.052,-81.3252 193.743,-74.5326"/>
</g>
<!-- Node7 -->
<g id="node8" class="node"><title>Node7</title>
<g id="a_node8"><a xlink:href="cleanse_8h.html" target="_top" xlink:title="support/cleanse.h">
<polygon fill="white" stroke="black" points="257,-56.5 257,-75.5 351,-75.5 351,-56.5 257,-56.5"/>
<text text-anchor="middle" x="304" y="-63.5" font-family="Helvetica,sans-Serif" font-size="10.00">support/cleanse.h</text>
</a>
</g>
</g>
<!-- Node0&#45;&gt;Node7 -->
<g id="edge7" class="edge"><title>Node0&#45;&gt;Node7</title>
<path fill="none" stroke="midnightblue" d="M369.619,-112.781C356.01,-103.286 338.176,-90.8434 324.535,-81.3267"/>
<polygon fill="midnightblue" stroke="midnightblue" points="326.467,-78.4071 316.263,-75.5557 322.462,-84.148 326.467,-78.4071"/>
</g>
<!-- Node9 -->
<g id="node10" class="node"><title>Node9</title>
<polygon fill="white" stroke="#bfbfbf" points="369.5,-56.5 369.5,-75.5 410.5,-75.5 410.5,-56.5 369.5,-56.5"/>
<text text-anchor="middle" x="390" y="-63.5" font-family="Helvetica,sans-Serif" font-size="10.00">string</text>
</g>
<!-- Node0&#45;&gt;Node9 -->
<g id="edge9" class="edge"><title>Node0&#45;&gt;Node9</title>
<path fill="none" stroke="midnightblue" d="M390,-112.781C390,-104.781 390,-94.6887 390,-86.0168"/>
<polygon fill="midnightblue" stroke="midnightblue" points="393.5,-85.7305 390,-75.7305 386.5,-85.7306 393.5,-85.7305"/>
</g>
<!-- Node10 -->
<g id="node11" class="node"><title>Node10</title>
<polygon fill="white" stroke="#bfbfbf" points="429,-56.5 429,-75.5 473,-75.5 473,-56.5 429,-56.5"/>
<text text-anchor="middle" x="451" y="-63.5" font-family="Helvetica,sans-Serif" font-size="10.00">vector</text>
</g>
<!-- Node0&#45;&gt;Node10 -->
<g id="edge10" class="edge"><title>Node0&#45;&gt;Node10</title>
<path fill="none" stroke="midnightblue" d="M404.456,-112.781C413.594,-103.792 425.419,-92.162 434.862,-82.8731"/>
<polygon fill="midnightblue" stroke="midnightblue" points="437.449,-85.2382 442.124,-75.7305 432.54,-80.2477 437.449,-85.2382"/>
</g>
<!-- Node11 -->
<g id="node12" class="node"><title>Node11</title>
<polygon fill="white" stroke="#bfbfbf" points="491.5,-56.5 491.5,-75.5 618.5,-75.5 618.5,-56.5 491.5,-56.5"/>
<text text-anchor="middle" x="555" y="-63.5" font-family="Helvetica,sans-Serif" font-size="10.00">boost/pool/pool_alloc.hpp</text>
</g>
<!-- Node0&#45;&gt;Node11 -->
<g id="edge11" class="edge"><title>Node0&#45;&gt;Node11</title>
<path fill="none" stroke="midnightblue" d="M428.685,-112.933C456.895,-102.674 494.734,-88.9148 521.623,-79.1369"/>
<polygon fill="midnightblue" stroke="midnightblue" points="523.148,-82.3068 531.35,-75.6 520.756,-75.7282 523.148,-82.3068"/>
</g>
<!-- Node2 -->
<g id="node3" class="node"><title>Node2</title>
<polygon fill="white" stroke="#bfbfbf" points="-0.5,-0.5 -0.5,-19.5 48.5,-19.5 48.5,-0.5 -0.5,-0.5"/>
<text text-anchor="middle" x="24" y="-7.5" font-family="Helvetica,sans-Serif" font-size="10.00">stdint.h</text>
</g>
<!-- Node1&#45;&gt;Node2 -->
<g id="edge2" class="edge"><title>Node1&#45;&gt;Node2</title>
<path fill="none" stroke="midnightblue" d="M129.193,-56.4435C108.713,-47.5961 76.5173,-33.6875 53.1353,-23.5865"/>
<polygon fill="midnightblue" stroke="midnightblue" points="54.282,-20.2692 43.714,-19.5164 51.5059,-26.6953 54.282,-20.2692"/>
</g>
<!-- Node3 -->
<g id="node4" class="node"><title>Node3</title>
<polygon fill="white" stroke="#bfbfbf" points="66.5,-0.5 66.5,-19.5 95.5,-19.5 95.5,-0.5 66.5,-0.5"/>
<text text-anchor="middle" x="81" y="-7.5" font-family="Helvetica,sans-Serif" font-size="10.00">list</text>
</g>
<!-- Node1&#45;&gt;Node3 -->
<g id="edge3" class="edge"><title>Node1&#45;&gt;Node3</title>
<path fill="none" stroke="midnightblue" d="M138.075,-56.324C127.825,-48.1849 112.279,-35.8395 99.999,-26.0874"/>
<polygon fill="midnightblue" stroke="midnightblue" points="102.132,-23.3119 92.1242,-19.8339 97.7787,-28.7937 102.132,-23.3119"/>
</g>
<!-- Node4 -->
<g id="node5" class="node"><title>Node4</title>
<polygon fill="white" stroke="#bfbfbf" points="113.5,-0.5 113.5,-19.5 148.5,-19.5 148.5,-0.5 113.5,-0.5"/>
<text text-anchor="middle" x="131" y="-7.5" font-family="Helvetica,sans-Serif" font-size="10.00">map</text>
</g>
<!-- Node1&#45;&gt;Node4 -->
<g id="edge4" class="edge"><title>Node1&#45;&gt;Node4</title>
<path fill="none" stroke="midnightblue" d="M146.028,-56.083C143.616,-48.8486 140.136,-38.4087 137.132,-29.3968"/>
<polygon fill="midnightblue" stroke="midnightblue" points="140.4,-28.1311 133.917,-19.7511 133.759,-30.3447 140.4,-28.1311"/>
</g>
<!-- Node5 -->
<g id="node6" class="node"><title>Node5</title>
<polygon fill="white" stroke="#bfbfbf" points="167,-0.5 167,-19.5 211,-19.5 211,-0.5 167,-0.5"/>
<text text-anchor="middle" x="189" y="-7.5" font-family="Helvetica,sans-Serif" font-size="10.00">mutex</text>
</g>
<!-- Node1&#45;&gt;Node5 -->
<g id="edge5" class="edge"><title>Node1&#45;&gt;Node5</title>
<path fill="none" stroke="midnightblue" d="M155.605,-56.083C161.255,-48.4554 169.545,-37.2645 176.451,-27.9408"/>
<polygon fill="midnightblue" stroke="midnightblue" points="179.378,-29.87 182.518,-19.7511 173.753,-25.7034 179.378,-29.87"/>
</g>
<!-- Node6 -->
<g id="node7" class="node"><title>Node6</title>
<polygon fill="white" stroke="#bfbfbf" points="229,-0.5 229,-19.5 281,-19.5 281,-0.5 229,-0.5"/>
<text text-anchor="middle" x="255" y="-7.5" font-family="Helvetica,sans-Serif" font-size="10.00">memory</text>
</g>
<!-- Node1&#45;&gt;Node6 -->
<g id="edge6" class="edge"><title>Node1&#45;&gt;Node6</title>
<path fill="none" stroke="midnightblue" d="M166.031,-56.324C183.03,-47.6641 209.376,-34.2424 228.993,-24.249"/>
<polygon fill="midnightblue" stroke="midnightblue" points="230.69,-27.3125 238.012,-19.6545 227.512,-21.0752 230.69,-27.3125"/>
</g>
<!-- Node8 -->
<g id="node9" class="node"><title>Node8</title>
<polygon fill="white" stroke="#bfbfbf" points="299,-0.5 299,-19.5 347,-19.5 347,-0.5 299,-0.5"/>
<text text-anchor="middle" x="323" y="-7.5" font-family="Helvetica,sans-Serif" font-size="10.00">stdlib.h</text>
</g>
<!-- Node7&#45;&gt;Node8 -->
<g id="edge8" class="edge"><title>Node7&#45;&gt;Node8</title>
<path fill="none" stroke="midnightblue" d="M307.137,-56.083C309.683,-48.8486 313.356,-38.4087 316.527,-29.3968"/>
<polygon fill="midnightblue" stroke="midnightblue" points="319.903,-30.3459 319.921,-19.7511 313.3,-28.0225 319.903,-30.3459"/>
</g>
</g>
</svg>
