<?xml version="1.0" encoding="UTF-8" standalone="no"?>
<!DOCTYPE svg PUBLIC "-//W3C//DTD SVG 1.1//EN"
 "http://www.w3.org/Graphics/SVG/1.1/DTD/svg11.dtd">
<!-- Generated by graphviz version 2.36.0 (20140111.2315)
 -->
<!-- Title: src/immer/detail/rbts/position.hpp Pages: 1 -->
<svg width="451pt" height="152pt"
 viewBox="0.00 0.00 451.00 152.00" xmlns="http://www.w3.org/2000/svg" xmlns:xlink="http://www.w3.org/1999/xlink">
<g id="graph0" class="graph" transform="scale(1 1) rotate(0) translate(4 148)">
<title>src/immer/detail/rbts/position.hpp</title>
<polygon fill="white" stroke="none" points="-4,4 -4,-148 447,-148 447,4 -4,4"/>
<!-- Node0 -->
<g id="node1" class="node"><title>Node0</title>
<polygon fill="#bfbfbf" stroke="black" points="227,-113 227,-143 333,-143 333,-113 227,-113"/>
<text text-anchor="start" x="235" y="-131" font-family="Helvetica,sans-Serif" font-size="10.00">src/immer/detail/rbts</text>
<text text-anchor="middle" x="280" y="-120" font-family="Helvetica,sans-Serif" font-size="10.00">/position.hpp</text>
</g>
<!-- Node1 -->
<g id="node2" class="node"><title>Node1</title>
<g id="a_node2"><a xlink:href="config_8hpp.html" target="_top" xlink:title="immer/config.hpp">
<polygon fill="white" stroke="black" points="0,-56.5 0,-75.5 92,-75.5 92,-56.5 0,-56.5"/>
<text text-anchor="middle" x="46" y="-63.5" font-family="Helvetica,sans-Serif" font-size="10.00">immer/config.hpp</text>
</a>
</g>
</g>
<!-- Node0&#45;&gt;Node1 -->
<g id="edge1" class="edge"><title>Node0&#45;&gt;Node1</title>
<path fill="none" stroke="midnightblue" d="M226.902,-113.385C185.311,-102.721 128.18,-88.0718 89.3254,-78.1091"/>
<polygon fill="midnightblue" stroke="midnightblue" points="89.9271,-74.6502 79.3711,-75.5567 88.1884,-81.4308 89.9271,-74.6502"/>
</g>
<!-- Node2 -->
<g id="node3" class="node"><title>Node2</title>
<g id="a_node3"><a xlink:href="rbts_2bits_8hpp.html" target="_top" xlink:title="immer/detail/rbts/bits.hpp">
<polygon fill="white" stroke="black" points="110.5,-56.5 110.5,-75.5 237.5,-75.5 237.5,-56.5 110.5,-56.5"/>
<text text-anchor="middle" x="174" y="-63.5" font-family="Helvetica,sans-Serif" font-size="10.00">immer/detail/rbts/bits.hpp</text>
</a>
</g>
</g>
<!-- Node0&#45;&gt;Node2 -->
<g id="edge2" class="edge"><title>Node0&#45;&gt;Node2</title>
<path fill="none" stroke="midnightblue" d="M255.148,-112.933C237.903,-103.171 215.058,-90.2401 198.001,-80.5856"/>
<polygon fill="midnightblue" stroke="midnightblue" points="199.62,-77.4802 189.193,-75.6 196.172,-83.572 199.62,-77.4802"/>
</g>
<!-- Node4 -->
<g id="node5" class="node"><title>Node4</title>
<polygon fill="white" stroke="#bfbfbf" points="255.5,-56.5 255.5,-75.5 304.5,-75.5 304.5,-56.5 255.5,-56.5"/>
<text text-anchor="middle" x="280" y="-63.5" font-family="Helvetica,sans-Serif" font-size="10.00">cassert</text>
</g>
<!-- Node0&#45;&gt;Node4 -->
<g id="edge4" class="edge"><title>Node0&#45;&gt;Node4</title>
<path fill="none" stroke="midnightblue" d="M280,-112.781C280,-104.781 280,-94.6887 280,-86.0168"/>
<polygon fill="midnightblue" stroke="midnightblue" points="283.5,-85.7305 280,-75.7305 276.5,-85.7306 283.5,-85.7305"/>
</g>
<!-- Node5 -->
<g id="node6" class="node"><title>Node5</title>
<polygon fill="white" stroke="#bfbfbf" points="323,-56.5 323,-75.5 363,-75.5 363,-56.5 323,-56.5"/>
<text text-anchor="middle" x="343" y="-63.5" font-family="Helvetica,sans-Serif" font-size="10.00">utility</text>
</g>
<!-- Node0&#45;&gt;Node5 -->
<g id="edge5" class="edge"><title>Node0&#45;&gt;Node5</title>
<path fill="none" stroke="midnightblue" d="M294.93,-112.781C304.368,-103.792 316.58,-92.162 326.333,-82.8731"/>
<polygon fill="midnightblue" stroke="midnightblue" points="329.005,-85.1616 333.833,-75.7305 324.178,-80.0926 329.005,-85.1616"/>
</g>
<!-- Node6 -->
<g id="node7" class="node"><title>Node6</title>
<polygon fill="white" stroke="#bfbfbf" points="381,-56.5 381,-75.5 443,-75.5 443,-56.5 381,-56.5"/>
<text text-anchor="middle" x="412" y="-63.5" font-family="Helvetica,sans-Serif" font-size="10.00">type_traits</text>
</g>
<!-- Node0&#45;&gt;Node6 -->
<g id="edge6" class="edge"><title>Node0&#45;&gt;Node6</title>
<path fill="none" stroke="midnightblue" d="M310.948,-112.933C333.019,-102.9 362.458,-89.5193 383.865,-79.7888"/>
<polygon fill="midnightblue" stroke="midnightblue" points="385.425,-82.9244 393.08,-75.6 382.528,-76.5518 385.425,-82.9244"/>
</g>
<!-- Node3 -->
<g id="node4" class="node"><title>Node3</title>
<polygon fill="white" stroke="#bfbfbf" points="151,-0.5 151,-19.5 197,-19.5 197,-0.5 151,-0.5"/>
<text text-anchor="middle" x="174" y="-7.5" font-family="Helvetica,sans-Serif" font-size="10.00">cstdint</text>
</g>
<!-- Node2&#45;&gt;Node3 -->
<g id="edge3" class="edge"><title>Node2&#45;&gt;Node3</title>
<path fill="none" stroke="midnightblue" d="M174,-56.083C174,-49.0059 174,-38.8611 174,-29.9865"/>
<polygon fill="midnightblue" stroke="midnightblue" points="177.5,-29.751 174,-19.7511 170.5,-29.7511 177.5,-29.751"/>
</g>
</g>
</svg>
