<?xml version="1.0" encoding="UTF-8" standalone="no"?>
<!DOCTYPE svg PUBLIC "-//W3C//DTD SVG 1.1//EN"
 "http://www.w3.org/Graphics/SVG/1.1/DTD/svg11.dtd">
<!-- Generated by graphviz version 2.36.0 (20140111.2315)
 -->
<!-- Title: src/prevector.h Pages: 1 -->
<svg width="325pt" height="84pt"
 viewBox="0.00 0.00 325.00 84.00" xmlns="http://www.w3.org/2000/svg" xmlns:xlink="http://www.w3.org/1999/xlink">
<g id="graph0" class="graph" transform="scale(1 1) rotate(0) translate(4 80)">
<title>src/prevector.h</title>
<polygon fill="white" stroke="none" points="-4,4 -4,-80 321,-80 321,4 -4,4"/>
<!-- Node0 -->
<g id="node1" class="node"><title>Node0</title>
<polygon fill="#bfbfbf" stroke="black" points="120,-56.5 120,-75.5 202,-75.5 202,-56.5 120,-56.5"/>
<text text-anchor="middle" x="161" y="-63.5" font-family="Helvetica,sans-Serif" font-size="10.00">src/prevector.h</text>
</g>
<!-- Node1 -->
<g id="node2" class="node"><title>Node1</title>
<polygon fill="white" stroke="#bfbfbf" points="0,-0.5 0,-19.5 52,-19.5 52,-0.5 0,-0.5"/>
<text text-anchor="middle" x="26" y="-7.5" font-family="Helvetica,sans-Serif" font-size="10.00">assert.h</text>
</g>
<!-- Node0&#45;&gt;Node1 -->
<g id="edge1" class="edge"><title>Node0&#45;&gt;Node1</title>
<path fill="none" stroke="midnightblue" d="M139.609,-56.4435C117.293,-47.5171 82.0968,-33.4387 56.792,-23.3168"/>
<polygon fill="midnightblue" stroke="midnightblue" points="57.8757,-19.9807 47.2911,-19.5164 55.276,-26.4801 57.8757,-19.9807"/>
</g>
<!-- Node2 -->
<g id="node3" class="node"><title>Node2</title>
<polygon fill="white" stroke="#bfbfbf" points="70,-0.5 70,-19.5 118,-19.5 118,-0.5 70,-0.5"/>
<text text-anchor="middle" x="94" y="-7.5" font-family="Helvetica,sans-Serif" font-size="10.00">stdlib.h</text>
</g>
<!-- Node0&#45;&gt;Node2 -->
<g id="edge2" class="edge"><title>Node0&#45;&gt;Node2</title>
<path fill="none" stroke="midnightblue" d="M150.235,-56.324C140.234,-48.2631 125.113,-36.0765 113.07,-26.3695"/>
<polygon fill="midnightblue" stroke="midnightblue" points="114.943,-23.3841 104.961,-19.8339 110.55,-28.8343 114.943,-23.3841"/>
</g>
<!-- Node3 -->
<g id="node4" class="node"><title>Node3</title>
<polygon fill="white" stroke="#bfbfbf" points="136.5,-0.5 136.5,-19.5 185.5,-19.5 185.5,-0.5 136.5,-0.5"/>
<text text-anchor="middle" x="161" y="-7.5" font-family="Helvetica,sans-Serif" font-size="10.00">stdint.h</text>
</g>
<!-- Node0&#45;&gt;Node3 -->
<g id="edge3" class="edge"><title>Node0&#45;&gt;Node3</title>
<path fill="none" stroke="midnightblue" d="M161,-56.083C161,-49.0059 161,-38.8611 161,-29.9865"/>
<polygon fill="midnightblue" stroke="midnightblue" points="164.5,-29.751 161,-19.7511 157.5,-29.7511 164.5,-29.751"/>
</g>
<!-- Node4 -->
<g id="node5" class="node"><title>Node4</title>
<polygon fill="white" stroke="#bfbfbf" points="203.5,-0.5 203.5,-19.5 252.5,-19.5 252.5,-0.5 203.5,-0.5"/>
<text text-anchor="middle" x="228" y="-7.5" font-family="Helvetica,sans-Serif" font-size="10.00">string.h</text>
</g>
<!-- Node0&#45;&gt;Node4 -->
<g id="edge4" class="edge"><title>Node0&#45;&gt;Node4</title>
<path fill="none" stroke="midnightblue" d="M171.765,-56.324C181.766,-48.2631 196.887,-36.0765 208.93,-26.3695"/>
<polygon fill="midnightblue" stroke="midnightblue" points="211.45,-28.8343 217.039,-19.8339 207.057,-23.3841 211.45,-28.8343"/>
</g>
<!-- Node5 -->
<g id="node6" class="node"><title>Node5</title>
<polygon fill="white" stroke="#bfbfbf" points="270.5,-0.5 270.5,-19.5 317.5,-19.5 317.5,-0.5 270.5,-0.5"/>
<text text-anchor="middle" x="294" y="-7.5" font-family="Helvetica,sans-Serif" font-size="10.00">iterator</text>
</g>
<!-- Node0&#45;&gt;Node5 -->
<g id="edge5" class="edge"><title>Node0&#45;&gt;Node5</title>
<path fill="none" stroke="midnightblue" d="M182.074,-56.4435C204.06,-47.5171 238.734,-33.4387 263.664,-23.3168"/>
<polygon fill="midnightblue" stroke="midnightblue" points="265.076,-26.5213 273.024,-19.5164 262.442,-20.0355 265.076,-26.5213"/>
</g>
</g>
</svg>
