<?xml version="1.0" encoding="UTF-8" standalone="no"?>
<!DOCTYPE svg PUBLIC "-//W3C//DTD SVG 1.1//EN"
 "http://www.w3.org/Graphics/SVG/1.1/DTD/svg11.dtd">
<!-- Generated by graphviz version 2.36.0 (20140111.2315)
 -->
<!-- Title: src/privatesend.h Pages: 1 -->
<svg width="3389pt" height="264pt"
 viewBox="0.00 0.00 3389.00 264.00" xmlns="http://www.w3.org/2000/svg" xmlns:xlink="http://www.w3.org/1999/xlink">
<g id="graph0" class="graph" transform="scale(1 1) rotate(0) translate(4 260)">
<title>src/privatesend.h</title>
<polygon fill="white" stroke="none" points="-4,4 -4,-260 3385,-260 3385,4 -4,4"/>
<!-- Node89 -->
<g id="node1" class="node"><title>Node89</title>
<polygon fill="#bfbfbf" stroke="black" points="2823,-236.5 2823,-255.5 2915,-255.5 2915,-236.5 2823,-236.5"/>
<text text-anchor="middle" x="2869" y="-243.5" font-family="Helvetica,sans-Serif" font-size="10.00">src/privatesend.h</text>
</g>
<!-- Node90 -->
<g id="node2" class="node"><title>Node90</title>
<g id="a_node2"><a xlink:href="dsnotificationinterface_8cpp.html" target="_top" xlink:title="src/dsnotificationinterface.cpp">
<polygon fill="white" stroke="black" points="130.5,-180.5 130.5,-199.5 277.5,-199.5 277.5,-180.5 130.5,-180.5"/>
<text text-anchor="middle" x="204" y="-187.5" font-family="Helvetica,sans-Serif" font-size="10.00">src/dsnotificationinterface.cpp</text>
</a>
</g>
</g>
<!-- Node89&#45;&gt;Node90 -->
<g id="edge1" class="edge"><title>Node89&#45;&gt;Node90</title>
<path fill="none" stroke="midnightblue" d="M2812.59,-244.713C2482.93,-242.933 802.68,-232.385 287,-200 283.962,-199.809 280.864,-199.589 277.737,-199.346"/>
<polygon fill="midnightblue" stroke="midnightblue" points="2812.82,-248.215 2822.84,-244.768 2812.86,-241.215 2812.82,-248.215"/>
</g>
<!-- Node91 -->
<g id="node3" class="node"><title>Node91</title>
<g id="a_node3"><a xlink:href="privatesend-server_8h.html" target="_top" xlink:title="src/privatesend&#45;server.h">
<polygon fill="white" stroke="black" points="296,-180.5 296,-199.5 418,-199.5 418,-180.5 296,-180.5"/>
<text text-anchor="middle" x="357" y="-187.5" font-family="Helvetica,sans-Serif" font-size="10.00">src/privatesend&#45;server.h</text>
</a>
</g>
</g>
<!-- Node89&#45;&gt;Node91 -->
<g id="edge2" class="edge"><title>Node89&#45;&gt;Node91</title>
<path fill="none" stroke="midnightblue" d="M2812.6,-243.788C2478.77,-236.611 764.518,-199.76 418.081,-192.313"/>
<polygon fill="midnightblue" stroke="midnightblue" points="2812.91,-247.295 2822.98,-244.011 2813.06,-240.297 2812.91,-247.295"/>
</g>
<!-- Node96 -->
<g id="node8" class="node"><title>Node96</title>
<g id="a_node8"><a xlink:href="net_8cpp.html" target="_top" xlink:title="src/net.cpp">
<polygon fill="white" stroke="black" points="1885.5,-180.5 1885.5,-199.5 1950.5,-199.5 1950.5,-180.5 1885.5,-180.5"/>
<text text-anchor="middle" x="1918" y="-187.5" font-family="Helvetica,sans-Serif" font-size="10.00">src/net.cpp</text>
</a>
</g>
</g>
<!-- Node89&#45;&gt;Node96 -->
<g id="edge7" class="edge"><title>Node89&#45;&gt;Node96</title>
<path fill="none" stroke="midnightblue" d="M2812.53,-245.467C2669.19,-245.946 2279.83,-242.842 1959,-200 1956.26,-199.633 1953.42,-199.177 1950.59,-198.667"/>
<polygon fill="midnightblue" stroke="midnightblue" points="2812.84,-248.965 2822.83,-245.424 2812.81,-241.965 2812.84,-248.965"/>
</g>
<!-- Node97 -->
<g id="node9" class="node"><title>Node97</title>
<g id="a_node9"><a xlink:href="wallet_8h.html" target="_top" xlink:title="src/wallet/wallet.h">
<polygon fill="white" stroke="black" points="1968.5,-180.5 1968.5,-199.5 2063.5,-199.5 2063.5,-180.5 1968.5,-180.5"/>
<text text-anchor="middle" x="2016" y="-187.5" font-family="Helvetica,sans-Serif" font-size="10.00">src/wallet/wallet.h</text>
</a>
</g>
</g>
<!-- Node89&#45;&gt;Node97 -->
<g id="edge8" class="edge"><title>Node89&#45;&gt;Node97</title>
<path fill="none" stroke="midnightblue" d="M2812.4,-241.417C2654.34,-231.41 2210.2,-203.294 2063.61,-194.014"/>
<polygon fill="midnightblue" stroke="midnightblue" points="2812.64,-244.939 2822.84,-242.078 2813.08,-237.953 2812.64,-244.939"/>
</g>
<!-- Node100 -->
<g id="node12" class="node"><title>Node100</title>
<g id="a_node12"><a xlink:href="privatesend-client_8h.html" target="_top" xlink:title="src/privatesend&#45;client.h">
<polygon fill="white" stroke="black" points="2264,-56.5 2264,-75.5 2382,-75.5 2382,-56.5 2264,-56.5"/>
<text text-anchor="middle" x="2323" y="-63.5" font-family="Helvetica,sans-Serif" font-size="10.00">src/privatesend&#45;client.h</text>
</a>
</g>
</g>
<!-- Node89&#45;&gt;Node100 -->
<g id="edge38" class="edge"><title>Node89&#45;&gt;Node100</title>
<path fill="none" stroke="midnightblue" d="M2925,-234.66C3011.12,-216.504 3160.24,-174.763 3101,-112 3076.41,-85.9416 2559.61,-72.1928 2382.18,-68.2273"/>
<polygon fill="midnightblue" stroke="midnightblue" points="2924.17,-231.257 2915.08,-236.705 2925.58,-238.113 2924.17,-231.257"/>
</g>
<!-- Node111 -->
<g id="node23" class="node"><title>Node111</title>
<g id="a_node23"><a xlink:href="sendcoinsdialog_8cpp.html" target="_top" xlink:title="src/qt/sendcoinsdialog.cpp">
<polygon fill="white" stroke="black" points="2802.5,-118.5 2802.5,-137.5 2935.5,-137.5 2935.5,-118.5 2802.5,-118.5"/>
<text text-anchor="middle" x="2869" y="-125.5" font-family="Helvetica,sans-Serif" font-size="10.00">src/qt/sendcoinsdialog.cpp</text>
</a>
</g>
</g>
<!-- Node89&#45;&gt;Node111 -->
<g id="edge41" class="edge"><title>Node89&#45;&gt;Node111</title>
<path fill="none" stroke="midnightblue" d="M2869,-226.025C2869,-200.464 2869,-156.041 2869,-137.505"/>
<polygon fill="midnightblue" stroke="midnightblue" points="2865.5,-226.281 2869,-236.281 2872.5,-226.281 2865.5,-226.281"/>
</g>
<!-- Node114 -->
<g id="node26" class="node"><title>Node114</title>
<g id="a_node26"><a xlink:href="transactionrecord_8cpp.html" target="_top" xlink:title="src/qt/transactionrecord.cpp">
<polygon fill="white" stroke="black" points="2954,-118.5 2954,-137.5 3092,-137.5 3092,-118.5 2954,-118.5"/>
<text text-anchor="middle" x="3023" y="-125.5" font-family="Helvetica,sans-Serif" font-size="10.00">src/qt/transactionrecord.cpp</text>
</a>
</g>
</g>
<!-- Node89&#45;&gt;Node114 -->
<g id="edge42" class="edge"><title>Node89&#45;&gt;Node114</title>
<path fill="none" stroke="midnightblue" d="M2888.92,-229.998C2921.65,-205.342 2985.77,-157.043 3011.71,-137.505"/>
<polygon fill="midnightblue" stroke="midnightblue" points="2886.46,-227.469 2880.58,-236.281 2890.67,-233.06 2886.46,-227.469"/>
</g>
<!-- Node122 -->
<g id="node34" class="node"><title>Node122</title>
<g id="a_node34"><a xlink:href="privatesend_8cpp.html" target="_top" xlink:title="src/privatesend.cpp">
<polygon fill="white" stroke="black" points="3148,-180.5 3148,-199.5 3250,-199.5 3250,-180.5 3148,-180.5"/>
<text text-anchor="middle" x="3199" y="-187.5" font-family="Helvetica,sans-Serif" font-size="10.00">src/privatesend.cpp</text>
</a>
</g>
</g>
<!-- Node89&#45;&gt;Node122 -->
<g id="edge39" class="edge"><title>Node89&#45;&gt;Node122</title>
<path fill="none" stroke="midnightblue" d="M2925.3,-235.787C2987.76,-225.566 3087.66,-209.219 3147.93,-199.356"/>
<polygon fill="midnightblue" stroke="midnightblue" points="2924.54,-232.366 2915.23,-237.435 2925.67,-239.274 2924.54,-232.366"/>
</g>
<!-- Node123 -->
<g id="node35" class="node"><title>Node123</title>
<g id="a_node35"><a xlink:href="clientmodel_8cpp.html" target="_top" xlink:title="src/qt/clientmodel.cpp">
<polygon fill="white" stroke="black" points="3268.5,-180.5 3268.5,-199.5 3381.5,-199.5 3381.5,-180.5 3268.5,-180.5"/>
<text text-anchor="middle" x="3325" y="-187.5" font-family="Helvetica,sans-Serif" font-size="10.00">src/qt/clientmodel.cpp</text>
</a>
</g>
</g>
<!-- Node89&#45;&gt;Node123 -->
<g id="edge40" class="edge"><title>Node89&#45;&gt;Node123</title>
<path fill="none" stroke="midnightblue" d="M2925.4,-238.804C3001.11,-230.412 3139.77,-214.778 3258,-200 3261.38,-199.578 3264.85,-199.136 3268.35,-198.684"/>
<polygon fill="midnightblue" stroke="midnightblue" points="2924.7,-235.361 2915.14,-239.94 2925.47,-242.318 2924.7,-235.361"/>
</g>
<!-- Node92 -->
<g id="node4" class="node"><title>Node92</title>
<g id="a_node4"><a xlink:href="init_8cpp.html" target="_top" xlink:title="src/init.cpp">
<polygon fill="white" stroke="black" points="-0.5,-118.5 -0.5,-137.5 64.5,-137.5 64.5,-118.5 -0.5,-118.5"/>
<text text-anchor="middle" x="32" y="-125.5" font-family="Helvetica,sans-Serif" font-size="10.00">src/init.cpp</text>
</a>
</g>
</g>
<!-- Node91&#45;&gt;Node92 -->
<g id="edge3" class="edge"><title>Node91&#45;&gt;Node92</title>
<path fill="none" stroke="midnightblue" d="M285.763,-179.21C215.433,-169.268 112.933,-153.956 74,-144 67.2488,-142.274 60.0535,-139.907 53.5607,-137.564"/>
<polygon fill="midnightblue" stroke="midnightblue" points="285.505,-182.708 295.895,-180.637 286.481,-175.776 285.505,-182.708"/>
</g>
<!-- Node93 -->
<g id="node5" class="node"><title>Node93</title>
<g id="a_node5"><a xlink:href="net__processing_8cpp.html" target="_top" xlink:title="src/net_processing.cpp">
<polygon fill="white" stroke="black" points="83,-118.5 83,-137.5 201,-137.5 201,-118.5 83,-118.5"/>
<text text-anchor="middle" x="142" y="-125.5" font-family="Helvetica,sans-Serif" font-size="10.00">src/net_processing.cpp</text>
</a>
</g>
</g>
<!-- Node91&#45;&gt;Node93 -->
<g id="edge4" class="edge"><title>Node91&#45;&gt;Node93</title>
<path fill="none" stroke="midnightblue" d="M316.346,-177.655C274.575,-165.998 210.479,-148.11 172.747,-137.581"/>
<polygon fill="midnightblue" stroke="midnightblue" points="315.623,-181.087 326.196,-180.403 317.505,-174.344 315.623,-181.087"/>
</g>
<!-- Node94 -->
<g id="node6" class="node"><title>Node94</title>
<g id="a_node6"><a xlink:href="privatesend-server_8cpp.html" target="_top" xlink:title="src/privatesend&#45;server.cpp">
<polygon fill="white" stroke="black" points="219,-118.5 219,-137.5 351,-137.5 351,-118.5 219,-118.5"/>
<text text-anchor="middle" x="285" y="-125.5" font-family="Helvetica,sans-Serif" font-size="10.00">src/privatesend&#45;server.cpp</text>
</a>
</g>
</g>
<!-- Node91&#45;&gt;Node94 -->
<g id="edge5" class="edge"><title>Node91&#45;&gt;Node94</title>
<path fill="none" stroke="midnightblue" d="M338.816,-173.846C325.045,-162.371 306.623,-147.02 295.297,-137.581"/>
<polygon fill="midnightblue" stroke="midnightblue" points="336.761,-176.69 346.684,-180.403 341.243,-171.313 336.761,-176.69"/>
</g>
<!-- Node95 -->
<g id="node7" class="node"><title>Node95</title>
<g id="a_node7"><a xlink:href="rpc_2masternode_8cpp.html" target="_top" xlink:title="src/rpc/masternode.cpp">
<polygon fill="white" stroke="black" points="369.5,-118.5 369.5,-137.5 488.5,-137.5 488.5,-118.5 369.5,-118.5"/>
<text text-anchor="middle" x="429" y="-125.5" font-family="Helvetica,sans-Serif" font-size="10.00">src/rpc/masternode.cpp</text>
</a>
</g>
</g>
<!-- Node91&#45;&gt;Node95 -->
<g id="edge6" class="edge"><title>Node91&#45;&gt;Node95</title>
<path fill="none" stroke="midnightblue" d="M375.184,-173.846C388.955,-162.371 407.377,-147.02 418.703,-137.581"/>
<polygon fill="midnightblue" stroke="midnightblue" points="372.757,-171.313 367.316,-180.403 377.239,-176.69 372.757,-171.313"/>
</g>
<!-- Node98 -->
<g id="node10" class="node"><title>Node98</title>
<g id="a_node10"><a xlink:href="coin__selection_8cpp.html" target="_top" xlink:title="src/bench/coin_selection.cpp">
<polygon fill="white" stroke="black" points="2092.5,-118.5 2092.5,-137.5 2235.5,-137.5 2235.5,-118.5 2092.5,-118.5"/>
<text text-anchor="middle" x="2164" y="-125.5" font-family="Helvetica,sans-Serif" font-size="10.00">src/bench/coin_selection.cpp</text>
</a>
</g>
</g>
<!-- Node97&#45;&gt;Node98 -->
<g id="edge9" class="edge"><title>Node97&#45;&gt;Node98</title>
<path fill="none" stroke="midnightblue" d="M2046.77,-176.527C2075.52,-164.871 2117.68,-147.776 2142.83,-137.581"/>
<polygon fill="midnightblue" stroke="midnightblue" points="2045.16,-173.403 2037.2,-180.403 2047.79,-179.89 2045.16,-173.403"/>
</g>
<!-- Node99 -->
<g id="node11" class="node"><title>Node99</title>
<g id="a_node11"><a xlink:href="privatesend-util_8h.html" target="_top" xlink:title="src/privatesend&#45;util.h">
<polygon fill="white" stroke="black" points="2253.5,-118.5 2253.5,-137.5 2360.5,-137.5 2360.5,-118.5 2253.5,-118.5"/>
<text text-anchor="middle" x="2307" y="-125.5" font-family="Helvetica,sans-Serif" font-size="10.00">src/privatesend&#45;util.h</text>
</a>
</g>
</g>
<!-- Node97&#45;&gt;Node99 -->
<g id="edge10" class="edge"><title>Node97&#45;&gt;Node99</title>
<path fill="none" stroke="midnightblue" d="M2072.08,-178.562C2118.31,-169.805 2185.54,-156.724 2244,-144 2253.12,-142.015 2262.95,-139.741 2272.07,-137.573"/>
<polygon fill="midnightblue" stroke="midnightblue" points="2071.14,-175.177 2061.96,-180.472 2072.44,-182.055 2071.14,-175.177"/>
</g>
<!-- Node97&#45;&gt;Node100 -->
<g id="edge19" class="edge"><title>Node97&#45;&gt;Node100</title>
<path fill="none" stroke="midnightblue" d="M2073.57,-185.765C2168.62,-179.831 2349.82,-165.781 2369,-144 2388.45,-121.913 2354.11,-90.4691 2334.8,-75.5233"/>
<polygon fill="midnightblue" stroke="midnightblue" points="2073.3,-182.275 2063.54,-186.381 2073.73,-189.262 2073.3,-182.275"/>
</g>
<!-- Node102 -->
<g id="node14" class="node"><title>Node102</title>
<g id="a_node14"><a xlink:href="coincontroldialog_8cpp.html" target="_top" xlink:title="src/qt/coincontroldialog.cpp">
<polygon fill="white" stroke="black" points="817,-0.5 817,-19.5 953,-19.5 953,-0.5 817,-0.5"/>
<text text-anchor="middle" x="885" y="-7.5" font-family="Helvetica,sans-Serif" font-size="10.00">src/qt/coincontroldialog.cpp</text>
</a>
</g>
</g>
<!-- Node97&#45;&gt;Node102 -->
<g id="edge21" class="edge"><title>Node97&#45;&gt;Node102</title>
<path fill="none" stroke="midnightblue" d="M1958.18,-180.519C1823.36,-176.081 562.606,-171.288 536,-144 448.524,-54.2825 691.993,-24.2276 816.606,-14.8841"/>
<polygon fill="midnightblue" stroke="midnightblue" points="1958.31,-184.029 1968.47,-181.018 1958.65,-177.038 1958.31,-184.029"/>
</g>
<!-- Node104 -->
<g id="node16" class="node"><title>Node104</title>
<g id="a_node16"><a xlink:href="walletmodel_8cpp.html" target="_top" xlink:title="src/qt/walletmodel.cpp">
<polygon fill="white" stroke="black" points="1652.5,-0.5 1652.5,-19.5 1767.5,-19.5 1767.5,-0.5 1652.5,-0.5"/>
<text text-anchor="middle" x="1710" y="-7.5" font-family="Helvetica,sans-Serif" font-size="10.00">src/qt/walletmodel.cpp</text>
</a>
</g>
</g>
<!-- Node97&#45;&gt;Node104 -->
<g id="edge29" class="edge"><title>Node97&#45;&gt;Node104</title>
<path fill="none" stroke="midnightblue" d="M1958.36,-180.321C1864.19,-174.374 1455.66,-186.38 1416,-144 1342.02,-64.9559 1547.27,-29.4601 1652.33,-16.808"/>
<polygon fill="midnightblue" stroke="midnightblue" points="1958.2,-183.82 1968.46,-181.164 1958.78,-176.844 1958.2,-183.82"/>
</g>
<!-- Node105 -->
<g id="node17" class="node"><title>Node105</title>
<g id="a_node17"><a xlink:href="rpcwallet_8cpp.html" target="_top" xlink:title="src/wallet/rpcwallet.cpp">
<polygon fill="white" stroke="black" points="2386.5,-0.5 2386.5,-19.5 2505.5,-19.5 2505.5,-0.5 2386.5,-0.5"/>
<text text-anchor="middle" x="2446" y="-7.5" font-family="Helvetica,sans-Serif" font-size="10.00">src/wallet/rpcwallet.cpp</text>
</a>
</g>
</g>
<!-- Node97&#45;&gt;Node105 -->
<g id="edge32" class="edge"><title>Node97&#45;&gt;Node105</title>
<path fill="none" stroke="midnightblue" d="M2073.94,-188.727C2165.36,-187.198 2337.68,-179.526 2386,-144 2428.65,-112.638 2441.65,-43.8372 2444.99,-19.6315"/>
<polygon fill="midnightblue" stroke="midnightblue" points="2073.69,-185.23 2063.74,-188.878 2073.79,-192.229 2073.69,-185.23"/>
</g>
<!-- Node106 -->
<g id="node18" class="node"><title>Node106</title>
<g id="a_node18"><a xlink:href="wallet_8cpp.html" target="_top" xlink:title="src/wallet/wallet.cpp">
<polygon fill="white" stroke="black" points="2622,-0.5 2622,-19.5 2728,-19.5 2728,-0.5 2622,-0.5"/>
<text text-anchor="middle" x="2675" y="-7.5" font-family="Helvetica,sans-Serif" font-size="10.00">src/wallet/wallet.cpp</text>
</a>
</g>
</g>
<!-- Node97&#45;&gt;Node106 -->
<g id="edge36" class="edge"><title>Node97&#45;&gt;Node106</title>
<path fill="none" stroke="midnightblue" d="M2073.75,-187.616C2243.56,-183.267 2730.78,-168.681 2754,-144 2791.91,-103.707 2717.65,-42.1401 2687.2,-19.6276"/>
<polygon fill="midnightblue" stroke="midnightblue" points="2073.42,-184.123 2063.51,-187.875 2073.6,-191.121 2073.42,-184.123"/>
</g>
<!-- Node108 -->
<g id="node20" class="node"><title>Node108</title>
<g id="a_node20"><a xlink:href="addresstablemodel_8cpp.html" target="_top" xlink:title="src/qt/addresstablemodel.cpp">
<polygon fill="white" stroke="black" points="2455.5,-118.5 2455.5,-137.5 2600.5,-137.5 2600.5,-118.5 2455.5,-118.5"/>
<text text-anchor="middle" x="2528" y="-125.5" font-family="Helvetica,sans-Serif" font-size="10.00">src/qt/addresstablemodel.cpp</text>
</a>
</g>
</g>
<!-- Node97&#45;&gt;Node108 -->
<g id="edge20" class="edge"><title>Node97&#45;&gt;Node108</title>
<path fill="none" stroke="midnightblue" d="M2073.71,-184.093C2155.59,-176.857 2310.09,-162.196 2441,-144 2454.36,-142.143 2468.81,-139.79 2482.03,-137.502"/>
<polygon fill="midnightblue" stroke="midnightblue" points="2073.26,-180.618 2063.61,-184.98 2073.88,-187.592 2073.26,-180.618"/>
</g>
<!-- Node109 -->
<g id="node21" class="node"><title>Node109</title>
<g id="a_node21"><a xlink:href="masternodelist_8cpp.html" target="_top" xlink:title="src/qt/masternodelist.cpp">
<polygon fill="white" stroke="black" points="2618.5,-118.5 2618.5,-137.5 2745.5,-137.5 2745.5,-118.5 2618.5,-118.5"/>
<text text-anchor="middle" x="2682" y="-125.5" font-family="Helvetica,sans-Serif" font-size="10.00">src/qt/masternodelist.cpp</text>
</a>
</g>
</g>
<!-- Node97&#45;&gt;Node109 -->
<g id="edge22" class="edge"><title>Node97&#45;&gt;Node109</title>
<path fill="none" stroke="midnightblue" d="M2074.09,-187.039C2180.58,-182.902 2414.06,-171.312 2609,-144 2620.79,-142.348 2633.53,-139.947 2645.02,-137.547"/>
<polygon fill="midnightblue" stroke="midnightblue" points="2073.74,-183.55 2063.88,-187.428 2074,-190.545 2073.74,-183.55"/>
</g>
<!-- Node110 -->
<g id="node22" class="node"><title>Node110</title>
<g id="a_node22"><a xlink:href="paymentserver_8cpp.html" target="_top" xlink:title="src/qt/paymentserver.cpp">
<polygon fill="white" stroke="black" points="545,-118.5 545,-137.5 673,-137.5 673,-118.5 545,-118.5"/>
<text text-anchor="middle" x="609" y="-125.5" font-family="Helvetica,sans-Serif" font-size="10.00">src/qt/paymentserver.cpp</text>
</a>
</g>
</g>
<!-- Node97&#45;&gt;Node110 -->
<g id="edge23" class="edge"><title>Node97&#45;&gt;Node110</title>
<path fill="none" stroke="midnightblue" d="M1958.41,-180.103C1391.9,-128.569 1242.7,-209.005 682,-144 669.662,-142.57 656.312,-140.103 644.443,-137.578"/>
<polygon fill="midnightblue" stroke="midnightblue" points="1958.19,-183.598 1968.47,-181.028 1958.83,-176.627 1958.19,-183.598"/>
</g>
<!-- Node97&#45;&gt;Node111 -->
<g id="edge24" class="edge"><title>Node97&#45;&gt;Node111</title>
<path fill="none" stroke="midnightblue" d="M2073.65,-188.097C2202.27,-185.546 2522.31,-176.217 2788,-144 2801.2,-142.399 2815.5,-139.982 2828.36,-137.552"/>
<polygon fill="midnightblue" stroke="midnightblue" points="2073.55,-184.598 2063.62,-188.29 2073.69,-191.597 2073.55,-184.598"/>
</g>
<!-- Node112 -->
<g id="node24" class="node"><title>Node112</title>
<g id="a_node24"><a xlink:href="signverifymessagedialog_8cpp.html" target="_top" xlink:title="src/qt/signverifymessagedialog.cpp">
<polygon fill="white" stroke="black" points="691,-118.5 691,-137.5 861,-137.5 861,-118.5 691,-118.5"/>
<text text-anchor="middle" x="776" y="-125.5" font-family="Helvetica,sans-Serif" font-size="10.00">src/qt/signverifymessagedialog.cpp</text>
</a>
</g>
</g>
<!-- Node97&#45;&gt;Node112 -->
<g id="edge25" class="edge"><title>Node97&#45;&gt;Node112</title>
<path fill="none" stroke="midnightblue" d="M1958.44,-180.098C1475.19,-134.911 1348.76,-189.93 870,-144 854.372,-142.501 837.398,-140.049 822.23,-137.557"/>
<polygon fill="midnightblue" stroke="midnightblue" points="1958.19,-183.589 1968.47,-181.045 1958.84,-176.62 1958.19,-183.589"/>
</g>
<!-- Node113 -->
<g id="node25" class="node"><title>Node113</title>
<g id="a_node25"><a xlink:href="transactiondesc_8cpp.html" target="_top" xlink:title="src/qt/transactiondesc.cpp">
<polygon fill="white" stroke="black" points="879,-118.5 879,-137.5 1011,-137.5 1011,-118.5 879,-118.5"/>
<text text-anchor="middle" x="945" y="-125.5" font-family="Helvetica,sans-Serif" font-size="10.00">src/qt/transactiondesc.cpp</text>
</a>
</g>
</g>
<!-- Node97&#45;&gt;Node113 -->
<g id="edge26" class="edge"><title>Node97&#45;&gt;Node113</title>
<path fill="none" stroke="midnightblue" d="M1958.25,-180.075C1541.57,-140.22 1431.4,-192.713 1020,-144 1007.47,-142.517 993.915,-140.069 981.816,-137.576"/>
<polygon fill="midnightblue" stroke="midnightblue" points="1958.18,-183.584 1968.47,-181.064 1958.85,-176.616 1958.18,-183.584"/>
</g>
<!-- Node97&#45;&gt;Node114 -->
<g id="edge27" class="edge"><title>Node97&#45;&gt;Node114</title>
<path fill="none" stroke="midnightblue" d="M2073.6,-188.987C2219.68,-188.351 2616.29,-182.865 2944,-144 2957.03,-142.455 2971.14,-140.022 2983.79,-137.561"/>
<polygon fill="midnightblue" stroke="midnightblue" points="2073.5,-185.487 2063.52,-189.024 2073.53,-192.487 2073.5,-185.487"/>
</g>
<!-- Node115 -->
<g id="node27" class="node"><title>Node115</title>
<g id="a_node27"><a xlink:href="transactiontablemodel_8cpp.html" target="_top" xlink:title="src/qt/transactiontablemodel.cpp">
<polygon fill="white" stroke="black" points="1029,-118.5 1029,-137.5 1187,-137.5 1187,-118.5 1029,-118.5"/>
<text text-anchor="middle" x="1108" y="-125.5" font-family="Helvetica,sans-Serif" font-size="10.00">src/qt/transactiontablemodel.cpp</text>
</a>
</g>
</g>
<!-- Node97&#45;&gt;Node115 -->
<g id="edge28" class="edge"><title>Node97&#45;&gt;Node115</title>
<path fill="none" stroke="midnightblue" d="M1958.37,-180.072C1619.53,-146.154 1530.21,-180.233 1196,-144 1181.52,-142.43 1165.8,-139.99 1151.72,-137.532"/>
<polygon fill="midnightblue" stroke="midnightblue" points="1958.16,-183.57 1968.47,-181.096 1958.87,-176.605 1958.16,-183.57"/>
</g>
<!-- Node116 -->
<g id="node28" class="node"><title>Node116</title>
<g id="a_node28"><a xlink:href="walletmodeltransaction_8cpp.html" target="_top" xlink:title="src/qt/walletmodeltransaction.cpp">
<polygon fill="white" stroke="black" points="1205.5,-118.5 1205.5,-137.5 1368.5,-137.5 1368.5,-118.5 1205.5,-118.5"/>
<text text-anchor="middle" x="1287" y="-125.5" font-family="Helvetica,sans-Serif" font-size="10.00">src/qt/walletmodeltransaction.cpp</text>
</a>
</g>
</g>
<!-- Node97&#45;&gt;Node116 -->
<g id="edge30" class="edge"><title>Node97&#45;&gt;Node116</title>
<path fill="none" stroke="midnightblue" d="M1958.48,-180.063C1702.33,-152.463 1634.75,-171.475 1383,-144 1367.57,-142.316 1350.83,-139.905 1335.72,-137.508"/>
<polygon fill="midnightblue" stroke="midnightblue" points="1958.14,-183.546 1968.46,-181.151 1958.9,-176.587 1958.14,-183.546"/>
</g>
<!-- Node117 -->
<g id="node29" class="node"><title>Node117</title>
<g id="a_node29"><a xlink:href="rpcdump_8cpp.html" target="_top" xlink:title="src/wallet/rpcdump.cpp">
<polygon fill="white" stroke="black" points="1425,-118.5 1425,-137.5 1543,-137.5 1543,-118.5 1425,-118.5"/>
<text text-anchor="middle" x="1484" y="-125.5" font-family="Helvetica,sans-Serif" font-size="10.00">src/wallet/rpcdump.cpp</text>
</a>
</g>
</g>
<!-- Node97&#45;&gt;Node117 -->
<g id="edge31" class="edge"><title>Node97&#45;&gt;Node117</title>
<path fill="none" stroke="midnightblue" d="M1958.31,-180.01C1777.01,-158.311 1728.24,-171.117 1552,-144 1541.13,-142.327 1529.39,-139.948 1518.78,-137.576"/>
<polygon fill="midnightblue" stroke="midnightblue" points="1958.1,-183.51 1968.45,-181.243 1958.94,-176.561 1958.1,-183.51"/>
</g>
<!-- Node118 -->
<g id="node30" class="node"><title>Node118</title>
<g id="a_node30"><a xlink:href="accounting__tests_8cpp.html" target="_top" xlink:title="src/wallet/test/accounting\l_tests.cpp">
<polygon fill="white" stroke="black" points="1561,-113 1561,-143 1689,-143 1689,-113 1561,-113"/>
<text text-anchor="start" x="1569" y="-131" font-family="Helvetica,sans-Serif" font-size="10.00">src/wallet/test/accounting</text>
<text text-anchor="middle" x="1625" y="-120" font-family="Helvetica,sans-Serif" font-size="10.00">_tests.cpp</text>
</a>
</g>
</g>
<!-- Node97&#45;&gt;Node118 -->
<g id="edge33" class="edge"><title>Node97&#45;&gt;Node118</title>
<path fill="none" stroke="midnightblue" d="M1958.36,-179.938C1841.47,-162.903 1810.26,-163.254 1698,-144 1695.07,-143.497 1692.07,-142.963 1689.05,-142.408"/>
<polygon fill="midnightblue" stroke="midnightblue" points="1958.02,-183.426 1968.42,-181.417 1959.04,-176.5 1958.02,-183.426"/>
</g>
<!-- Node119 -->
<g id="node31" class="node"><title>Node119</title>
<g id="a_node31"><a xlink:href="wallet__test__fixture_8cpp.html" target="_top" xlink:title="src/wallet/test/wallet\l_test_fixture.cpp">
<polygon fill="white" stroke="black" points="1707.5,-113 1707.5,-143 1814.5,-143 1814.5,-113 1707.5,-113"/>
<text text-anchor="start" x="1715.5" y="-131" font-family="Helvetica,sans-Serif" font-size="10.00">src/wallet/test/wallet</text>
<text text-anchor="middle" x="1761" y="-120" font-family="Helvetica,sans-Serif" font-size="10.00">_test_fixture.cpp</text>
</a>
</g>
</g>
<!-- Node97&#45;&gt;Node119 -->
<g id="edge34" class="edge"><title>Node97&#45;&gt;Node119</title>
<path fill="none" stroke="midnightblue" d="M1969.2,-178.202C1930.1,-169.153 1872.89,-155.85 1823,-144 1820.31,-143.36 1817.55,-142.702 1814.76,-142.036"/>
<polygon fill="midnightblue" stroke="midnightblue" points="1968.45,-181.621 1978.98,-180.464 1970.03,-174.801 1968.45,-181.621"/>
</g>
<!-- Node120 -->
<g id="node32" class="node"><title>Node120</title>
<g id="a_node32"><a xlink:href="wallet__tests_8cpp.html" target="_top" xlink:title="src/wallet/test/wallet\l_tests.cpp">
<polygon fill="white" stroke="black" points="1832.5,-113 1832.5,-143 1939.5,-143 1939.5,-113 1832.5,-113"/>
<text text-anchor="start" x="1840.5" y="-131" font-family="Helvetica,sans-Serif" font-size="10.00">src/wallet/test/wallet</text>
<text text-anchor="middle" x="1886" y="-120" font-family="Helvetica,sans-Serif" font-size="10.00">_tests.cpp</text>
</a>
</g>
</g>
<!-- Node97&#45;&gt;Node120 -->
<g id="edge35" class="edge"><title>Node97&#45;&gt;Node120</title>
<path fill="none" stroke="midnightblue" d="M1988.03,-176.093C1967.03,-166.396 1938.27,-153.124 1916.64,-143.141"/>
<polygon fill="midnightblue" stroke="midnightblue" points="1986.83,-179.391 1997.37,-180.403 1989.76,-173.035 1986.83,-179.391"/>
</g>
<!-- Node121 -->
<g id="node33" class="node"><title>Node121</title>
<g id="a_node33"><a xlink:href="walletdb_8cpp.html" target="_top" xlink:title="src/wallet/walletdb.cpp">
<polygon fill="white" stroke="black" points="1958,-118.5 1958,-137.5 2074,-137.5 2074,-118.5 1958,-118.5"/>
<text text-anchor="middle" x="2016" y="-125.5" font-family="Helvetica,sans-Serif" font-size="10.00">src/wallet/walletdb.cpp</text>
</a>
</g>
</g>
<!-- Node97&#45;&gt;Node121 -->
<g id="edge37" class="edge"><title>Node97&#45;&gt;Node121</title>
<path fill="none" stroke="midnightblue" d="M2016,-170.16C2016,-159.248 2016,-146.04 2016,-137.581"/>
<polygon fill="midnightblue" stroke="midnightblue" points="2012.5,-170.403 2016,-180.403 2019.5,-170.403 2012.5,-170.403"/>
</g>
<!-- Node99&#45;&gt;Node100 -->
<g id="edge11" class="edge"><title>Node99&#45;&gt;Node100</title>
<path fill="none" stroke="midnightblue" d="M2311.93,-108.503C2314.86,-97.5268 2318.43,-84.1291 2320.71,-75.5806"/>
<polygon fill="midnightblue" stroke="midnightblue" points="2308.49,-107.839 2309.29,-118.403 2315.25,-109.643 2308.49,-107.839"/>
</g>
<!-- Node107 -->
<g id="node19" class="node"><title>Node107</title>
<g id="a_node19"><a xlink:href="privatesend-util_8cpp.html" target="_top" xlink:title="src/privatesend&#45;util.cpp">
<polygon fill="white" stroke="black" points="2128,-56.5 2128,-75.5 2246,-75.5 2246,-56.5 2128,-56.5"/>
<text text-anchor="middle" x="2187" y="-63.5" font-family="Helvetica,sans-Serif" font-size="10.00">src/privatesend&#45;util.cpp</text>
</a>
</g>
</g>
<!-- Node99&#45;&gt;Node107 -->
<g id="edge18" class="edge"><title>Node99&#45;&gt;Node107</title>
<path fill="none" stroke="midnightblue" d="M2280.82,-113.912C2257.55,-102.276 2224.2,-85.5983 2204.16,-75.5806"/>
<polygon fill="midnightblue" stroke="midnightblue" points="2279.3,-117.062 2289.81,-118.403 2282.43,-110.801 2279.3,-117.062"/>
</g>
<!-- Node101 -->
<g id="node13" class="node"><title>Node101</title>
<g id="a_node13"><a xlink:href="privatesend-client_8cpp.html" target="_top" xlink:title="src/privatesend&#45;client.cpp">
<polygon fill="white" stroke="black" points="2240,-0.5 2240,-19.5 2368,-19.5 2368,-0.5 2240,-0.5"/>
<text text-anchor="middle" x="2304" y="-7.5" font-family="Helvetica,sans-Serif" font-size="10.00">src/privatesend&#45;client.cpp</text>
</a>
</g>
</g>
<!-- Node100&#45;&gt;Node101 -->
<g id="edge12" class="edge"><title>Node100&#45;&gt;Node101</title>
<path fill="none" stroke="midnightblue" d="M2316.45,-46.3956C2313.28,-37.362 2309.61,-26.936 2307.08,-19.7511"/>
<polygon fill="midnightblue" stroke="midnightblue" points="2313.24,-47.8116 2319.86,-56.083 2319.85,-45.4882 2313.24,-47.8116"/>
</g>
<!-- Node100&#45;&gt;Node102 -->
<g id="edge13" class="edge"><title>Node100&#45;&gt;Node102</title>
<path fill="none" stroke="midnightblue" d="M2253.66,-55.9778C1748.71,-14.8846 1152.08,-10.9652 953.204,-10.8613"/>
<polygon fill="midnightblue" stroke="midnightblue" points="2253.45,-59.472 2263.7,-56.8007 2254.02,-52.4954 2253.45,-59.472"/>
</g>
<!-- Node103 -->
<g id="node15" class="node"><title>Node103</title>
<g id="a_node15"><a xlink:href="overviewpage_8cpp.html" target="_top" xlink:title="src/qt/overviewpage.cpp">
<polygon fill="white" stroke="black" points="2098.5,-0.5 2098.5,-19.5 2221.5,-19.5 2221.5,-0.5 2098.5,-0.5"/>
<text text-anchor="middle" x="2160" y="-7.5" font-family="Helvetica,sans-Serif" font-size="10.00">src/qt/overviewpage.cpp</text>
</a>
</g>
</g>
<!-- Node100&#45;&gt;Node103 -->
<g id="edge14" class="edge"><title>Node100&#45;&gt;Node103</title>
<path fill="none" stroke="midnightblue" d="M2287.3,-53.172C2256.6,-43.0039 2213.08,-28.5852 2185.71,-19.5164"/>
<polygon fill="midnightblue" stroke="midnightblue" points="2286.58,-56.6211 2297.17,-56.4435 2288.78,-49.9762 2286.58,-56.6211"/>
</g>
<!-- Node100&#45;&gt;Node104 -->
<g id="edge15" class="edge"><title>Node100&#45;&gt;Node104</title>
<path fill="none" stroke="midnightblue" d="M2253.58,-55.8946C2070.2,-36.4155 1865.56,-21.5237 1767.76,-14.8314"/>
<polygon fill="midnightblue" stroke="midnightblue" points="2253.37,-59.3914 2263.68,-56.9744 2254.11,-52.431 2253.37,-59.3914"/>
</g>
<!-- Node100&#45;&gt;Node105 -->
<g id="edge16" class="edge"><title>Node100&#45;&gt;Node105</title>
<path fill="none" stroke="midnightblue" d="M2351.77,-52.3678C2374.81,-42.2553 2406.48,-28.3486 2426.6,-19.5164"/>
<polygon fill="midnightblue" stroke="midnightblue" points="2350.24,-49.2188 2342.49,-56.4435 2353.05,-55.6283 2350.24,-49.2188"/>
</g>
<!-- Node100&#45;&gt;Node106 -->
<g id="edge17" class="edge"><title>Node100&#45;&gt;Node106</title>
<path fill="none" stroke="midnightblue" d="M2388.85,-54.8982C2456.17,-44.5699 2559.46,-28.7251 2621.79,-19.1629"/>
<polygon fill="midnightblue" stroke="midnightblue" points="2388.13,-51.4676 2378.78,-56.4435 2389.19,-58.3866 2388.13,-51.4676"/>
</g>
</g>
</svg>
