<?xml version="1.0" encoding="UTF-8" standalone="no"?>
<!DOCTYPE svg PUBLIC "-//W3C//DTD SVG 1.1//EN"
 "http://www.w3.org/Graphics/SVG/1.1/DTD/svg11.dtd">
<!-- Generated by graphviz version 2.36.0 (20140111.2315)
 -->
<!-- Title: src/privatesend&#45;util.h Pages: 1 -->
<svg width="826pt" height="140pt"
 viewBox="0.00 0.00 826.00 140.00" xmlns="http://www.w3.org/2000/svg" xmlns:xlink="http://www.w3.org/1999/xlink">
<g id="graph0" class="graph" transform="scale(1 1) rotate(0) translate(4 136)">
<title>src/privatesend&#45;util.h</title>
<polygon fill="white" stroke="none" points="-4,4 -4,-136 822,-136 822,4 -4,4"/>
<!-- Node122 -->
<g id="node1" class="node"><title>Node122</title>
<polygon fill="#bfbfbf" stroke="black" points="444.5,-112.5 444.5,-131.5 551.5,-131.5 551.5,-112.5 444.5,-112.5"/>
<text text-anchor="middle" x="498" y="-119.5" font-family="Helvetica,sans-Serif" font-size="10.00">src/privatesend&#45;util.h</text>
</g>
<!-- Node123 -->
<g id="node2" class="node"><title>Node123</title>
<g id="a_node2"><a xlink:href="privatesend-client_8h.html" target="_top" xlink:title="src/privatesend&#45;client.h">
<polygon fill="white" stroke="black" points="371,-56.5 371,-75.5 489,-75.5 489,-56.5 371,-56.5"/>
<text text-anchor="middle" x="430" y="-63.5" font-family="Helvetica,sans-Serif" font-size="10.00">src/privatesend&#45;client.h</text>
</a>
</g>
</g>
<!-- Node122&#45;&gt;Node123 -->
<g id="edge1" class="edge"><title>Node122&#45;&gt;Node123</title>
<path fill="none" stroke="midnightblue" d="M479.238,-106.101C467,-96.3824 451.441,-84.0269 441.124,-75.8339"/>
<polygon fill="midnightblue" stroke="midnightblue" points="477.067,-108.846 487.075,-112.324 481.42,-103.364 477.067,-108.846"/>
</g>
<!-- Node130 -->
<g id="node9" class="node"><title>Node130</title>
<g id="a_node9"><a xlink:href="privatesend-util_8cpp.html" target="_top" xlink:title="src/privatesend&#45;util.cpp">
<polygon fill="white" stroke="black" points="507,-56.5 507,-75.5 625,-75.5 625,-56.5 507,-56.5"/>
<text text-anchor="middle" x="566" y="-63.5" font-family="Helvetica,sans-Serif" font-size="10.00">src/privatesend&#45;util.cpp</text>
</a>
</g>
</g>
<!-- Node122&#45;&gt;Node130 -->
<g id="edge8" class="edge"><title>Node122&#45;&gt;Node130</title>
<path fill="none" stroke="midnightblue" d="M516.762,-106.101C529,-96.3824 544.559,-84.0269 554.876,-75.8339"/>
<polygon fill="midnightblue" stroke="midnightblue" points="514.58,-103.364 508.925,-112.324 518.933,-108.846 514.58,-103.364"/>
</g>
<!-- Node124 -->
<g id="node3" class="node"><title>Node124</title>
<g id="a_node3"><a xlink:href="privatesend-client_8cpp.html" target="_top" xlink:title="src/privatesend&#45;client.cpp">
<polygon fill="white" stroke="black" points="0,-0.5 0,-19.5 128,-19.5 128,-0.5 0,-0.5"/>
<text text-anchor="middle" x="64" y="-7.5" font-family="Helvetica,sans-Serif" font-size="10.00">src/privatesend&#45;client.cpp</text>
</a>
</g>
</g>
<!-- Node123&#45;&gt;Node124 -->
<g id="edge2" class="edge"><title>Node123&#45;&gt;Node124</title>
<path fill="none" stroke="midnightblue" d="M362.083,-54.9794C292.947,-44.7791 186.93,-29.1372 121.722,-19.5164"/>
<polygon fill="midnightblue" stroke="midnightblue" points="361.602,-58.4464 372.006,-56.4435 362.624,-51.5213 361.602,-58.4464"/>
</g>
<!-- Node125 -->
<g id="node4" class="node"><title>Node125</title>
<g id="a_node4"><a xlink:href="coincontroldialog_8cpp.html" target="_top" xlink:title="src/qt/coincontroldialog.cpp">
<polygon fill="white" stroke="black" points="146,-0.5 146,-19.5 282,-19.5 282,-0.5 146,-0.5"/>
<text text-anchor="middle" x="214" y="-7.5" font-family="Helvetica,sans-Serif" font-size="10.00">src/qt/coincontroldialog.cpp</text>
</a>
</g>
</g>
<!-- Node123&#45;&gt;Node125 -->
<g id="edge3" class="edge"><title>Node123&#45;&gt;Node125</title>
<path fill="none" stroke="midnightblue" d="M385.836,-53.959C345.039,-43.7598 285.287,-28.8217 248.066,-19.5164"/>
<polygon fill="midnightblue" stroke="midnightblue" points="385.224,-57.4136 395.774,-56.4435 386.922,-50.6226 385.224,-57.4136"/>
</g>
<!-- Node126 -->
<g id="node5" class="node"><title>Node126</title>
<g id="a_node5"><a xlink:href="overviewpage_8cpp.html" target="_top" xlink:title="src/qt/overviewpage.cpp">
<polygon fill="white" stroke="black" points="300.5,-0.5 300.5,-19.5 423.5,-19.5 423.5,-0.5 300.5,-0.5"/>
<text text-anchor="middle" x="362" y="-7.5" font-family="Helvetica,sans-Serif" font-size="10.00">src/qt/overviewpage.cpp</text>
</a>
</g>
</g>
<!-- Node123&#45;&gt;Node126 -->
<g id="edge4" class="edge"><title>Node123&#45;&gt;Node126</title>
<path fill="none" stroke="midnightblue" d="M411.238,-50.1008C399,-40.3824 383.441,-28.0269 373.124,-19.8339"/>
<polygon fill="midnightblue" stroke="midnightblue" points="409.067,-52.846 419.075,-56.324 413.42,-47.3642 409.067,-52.846"/>
</g>
<!-- Node127 -->
<g id="node6" class="node"><title>Node127</title>
<g id="a_node6"><a xlink:href="walletmodel_8cpp.html" target="_top" xlink:title="src/qt/walletmodel.cpp">
<polygon fill="white" stroke="black" points="441.5,-0.5 441.5,-19.5 556.5,-19.5 556.5,-0.5 441.5,-0.5"/>
<text text-anchor="middle" x="499" y="-7.5" font-family="Helvetica,sans-Serif" font-size="10.00">src/qt/walletmodel.cpp</text>
</a>
</g>
</g>
<!-- Node123&#45;&gt;Node127 -->
<g id="edge5" class="edge"><title>Node123&#45;&gt;Node127</title>
<path fill="none" stroke="midnightblue" d="M449.038,-50.1008C461.456,-40.3824 477.243,-28.0269 487.712,-19.8339"/>
<polygon fill="midnightblue" stroke="midnightblue" points="446.804,-47.4046 441.086,-56.324 451.118,-52.9171 446.804,-47.4046"/>
</g>
<!-- Node128 -->
<g id="node7" class="node"><title>Node128</title>
<g id="a_node7"><a xlink:href="rpcwallet_8cpp.html" target="_top" xlink:title="src/wallet/rpcwallet.cpp">
<polygon fill="white" stroke="black" points="574.5,-0.5 574.5,-19.5 693.5,-19.5 693.5,-0.5 574.5,-0.5"/>
<text text-anchor="middle" x="634" y="-7.5" font-family="Helvetica,sans-Serif" font-size="10.00">src/wallet/rpcwallet.cpp</text>
</a>
</g>
</g>
<!-- Node123&#45;&gt;Node128 -->
<g id="edge6" class="edge"><title>Node123&#45;&gt;Node128</title>
<path fill="none" stroke="midnightblue" d="M472.201,-53.8291C510.718,-43.6333 566.822,-28.7823 601.827,-19.5164"/>
<polygon fill="midnightblue" stroke="midnightblue" points="471.096,-50.5011 462.324,-56.4435 472.887,-57.268 471.096,-50.5011"/>
</g>
<!-- Node129 -->
<g id="node8" class="node"><title>Node129</title>
<g id="a_node8"><a xlink:href="wallet_8cpp.html" target="_top" xlink:title="src/wallet/wallet.cpp">
<polygon fill="white" stroke="black" points="712,-0.5 712,-19.5 818,-19.5 818,-0.5 712,-0.5"/>
<text text-anchor="middle" x="765" y="-7.5" font-family="Helvetica,sans-Serif" font-size="10.00">src/wallet/wallet.cpp</text>
</a>
</g>
</g>
<!-- Node123&#45;&gt;Node129 -->
<g id="edge7" class="edge"><title>Node123&#45;&gt;Node129</title>
<path fill="none" stroke="midnightblue" d="M493.336,-54.7907C556.636,-44.587 652.849,-29.078 712.167,-19.5164"/>
<polygon fill="midnightblue" stroke="midnightblue" points="492.397,-51.3967 483.082,-56.4435 493.511,-58.3075 492.397,-51.3967"/>
</g>
</g>
</svg>
