<?xml version="1.0" encoding="UTF-8" standalone="no"?>
<!DOCTYPE svg PUBLIC "-//W3C//DTD SVG 1.1//EN"
 "http://www.w3.org/Graphics/SVG/1.1/DTD/svg11.dtd">
<!-- Generated by graphviz version 2.36.0 (20140111.2315)
 -->
<!-- Title: src/protocol.h Pages: 1 -->
<svg width="2236pt" height="308pt"
 viewBox="0.00 0.00 2236.00 308.00" xmlns="http://www.w3.org/2000/svg" xmlns:xlink="http://www.w3.org/1999/xlink">
<g id="graph0" class="graph" transform="scale(1 1) rotate(0) translate(4 304)">
<title>src/protocol.h</title>
<polygon fill="white" stroke="none" points="-4,4 -4,-304 2232,-304 2232,4 -4,4"/>
<!-- Node0 -->
<g id="node1" class="node"><title>Node0</title>
<polygon fill="#bfbfbf" stroke="black" points="863,-280.5 863,-299.5 939,-299.5 939,-280.5 863,-280.5"/>
<text text-anchor="middle" x="901" y="-287.5" font-family="Helvetica,sans-Serif" font-size="10.00">src/protocol.h</text>
</g>
<!-- Node1 -->
<g id="node2" class="node"><title>Node1</title>
<g id="a_node2"><a xlink:href="netaddress_8h.html" target="_top" xlink:title="netaddress.h">
<polygon fill="white" stroke="black" points="948.5,-224.5 948.5,-243.5 1021.5,-243.5 1021.5,-224.5 948.5,-224.5"/>
<text text-anchor="middle" x="985" y="-231.5" font-family="Helvetica,sans-Serif" font-size="10.00">netaddress.h</text>
</a>
</g>
</g>
<!-- Node0&#45;&gt;Node1 -->
<g id="edge1" class="edge"><title>Node0&#45;&gt;Node1</title>
<path fill="none" stroke="midnightblue" d="M914.496,-280.324C927.6,-271.9 947.712,-258.971 963.107,-249.074"/>
<polygon fill="midnightblue" stroke="midnightblue" points="965.018,-252.006 971.537,-243.655 961.233,-246.118 965.018,-252.006"/>
</g>
<!-- Node17 -->
<g id="node18" class="node"><title>Node17</title>
<g id="a_node18"><a xlink:href="serialize_8h.html" target="_top" xlink:title="serialize.h">
<polygon fill="white" stroke="black" points="707.5,-168.5 707.5,-187.5 768.5,-187.5 768.5,-168.5 707.5,-168.5"/>
<text text-anchor="middle" x="738" y="-175.5" font-family="Helvetica,sans-Serif" font-size="10.00">serialize.h</text>
</a>
</g>
</g>
<!-- Node0&#45;&gt;Node17 -->
<g id="edge44" class="edge"><title>Node0&#45;&gt;Node17</title>
<path fill="none" stroke="midnightblue" d="M888.21,-280.368C860.239,-261.492 793.398,-216.385 759.096,-193.237"/>
<polygon fill="midnightblue" stroke="midnightblue" points="760.978,-190.284 750.731,-187.591 757.062,-196.087 760.978,-190.284"/>
</g>
<!-- Node19 -->
<g id="node20" class="node"><title>Node19</title>
<polygon fill="white" stroke="#bfbfbf" points="169.5,-0.5 169.5,-19.5 218.5,-19.5 218.5,-0.5 169.5,-0.5"/>
<text text-anchor="middle" x="194" y="-7.5" font-family="Helvetica,sans-Serif" font-size="10.00">stdint.h</text>
</g>
<!-- Node0&#45;&gt;Node19 -->
<g id="edge57" class="edge"><title>Node0&#45;&gt;Node19</title>
<path fill="none" stroke="midnightblue" d="M862.861,-288.42C691.369,-285.321 0,-267.346 0,-179 0,-179 0,-179 0,-121 0,-48.6162 103.461,-23.2894 159.273,-14.8928"/>
<polygon fill="midnightblue" stroke="midnightblue" points="160.011,-18.3238 169.43,-13.4723 159.041,-11.3913 160.011,-18.3238"/>
</g>
<!-- Node29 -->
<g id="node30" class="node"><title>Node29</title>
<polygon fill="white" stroke="#bfbfbf" points="1054.5,-112.5 1054.5,-131.5 1095.5,-131.5 1095.5,-112.5 1054.5,-112.5"/>
<text text-anchor="middle" x="1075" y="-119.5" font-family="Helvetica,sans-Serif" font-size="10.00">string</text>
</g>
<!-- Node0&#45;&gt;Node29 -->
<g id="edge58" class="edge"><title>Node0&#45;&gt;Node29</title>
<path fill="none" stroke="midnightblue" d="M939.165,-284.478C967.574,-279.232 1005.52,-267.987 1030,-244 1058.59,-215.99 1069.19,-168.18 1072.99,-141.823"/>
<polygon fill="midnightblue" stroke="midnightblue" points="1076.49,-142.023 1074.26,-131.665 1069.54,-141.151 1076.49,-142.023"/>
</g>
<!-- Node36 -->
<g id="node37" class="node"><title>Node36</title>
<g id="a_node37"><a xlink:href="uint256_8h.html" target="_top" xlink:title="uint256.h">
<polygon fill="white" stroke="black" points="383,-224.5 383,-243.5 439,-243.5 439,-224.5 383,-224.5"/>
<text text-anchor="middle" x="411" y="-231.5" font-family="Helvetica,sans-Serif" font-size="10.00">uint256.h</text>
</a>
</g>
</g>
<!-- Node0&#45;&gt;Node36 -->
<g id="edge45" class="edge"><title>Node0&#45;&gt;Node36</title>
<path fill="none" stroke="midnightblue" d="M862.958,-284.808C771.682,-274.749 541.048,-249.332 449.404,-239.232"/>
<polygon fill="midnightblue" stroke="midnightblue" points="449.513,-235.723 439.19,-238.107 448.746,-242.681 449.513,-235.723"/>
</g>
<!-- Node40 -->
<g id="node41" class="node"><title>Node40</title>
<g id="a_node41"><a xlink:href="version_8h.html" target="_top" xlink:title="version.h">
<polygon fill="white" stroke="black" points="1103,-224.5 1103,-243.5 1159,-243.5 1159,-224.5 1103,-224.5"/>
<text text-anchor="middle" x="1131" y="-231.5" font-family="Helvetica,sans-Serif" font-size="10.00">version.h</text>
</a>
</g>
</g>
<!-- Node0&#45;&gt;Node40 -->
<g id="edge56" class="edge"><title>Node0&#45;&gt;Node40</title>
<path fill="none" stroke="midnightblue" d="M937.444,-280.444C979.895,-270.477 1049.7,-254.088 1092.86,-243.954"/>
<polygon fill="midnightblue" stroke="midnightblue" points="1093.77,-247.337 1102.7,-241.644 1092.17,-240.522 1093.77,-247.337"/>
</g>
<!-- Node2 -->
<g id="node3" class="node"><title>Node2</title>
<g id="a_node3"><a xlink:href="compat_8h.html" target="_top" xlink:title="compat.h">
<polygon fill="white" stroke="black" points="1607.5,-168.5 1607.5,-187.5 1664.5,-187.5 1664.5,-168.5 1607.5,-168.5"/>
<text text-anchor="middle" x="1636" y="-175.5" font-family="Helvetica,sans-Serif" font-size="10.00">compat.h</text>
</a>
</g>
</g>
<!-- Node1&#45;&gt;Node2 -->
<g id="edge2" class="edge"><title>Node1&#45;&gt;Node2</title>
<path fill="none" stroke="midnightblue" d="M1021.87,-229.942C1135.59,-220.509 1480.28,-191.917 1596.93,-182.241"/>
<polygon fill="midnightblue" stroke="midnightblue" points="1597.5,-185.706 1607.17,-181.391 1596.92,-178.73 1597.5,-185.706"/>
</g>
<!-- Node1&#45;&gt;Node17 -->
<g id="edge17" class="edge"><title>Node1&#45;&gt;Node17</title>
<path fill="none" stroke="midnightblue" d="M948.288,-224.974C902.84,-215.038 825.685,-198.17 778.538,-187.862"/>
<polygon fill="midnightblue" stroke="midnightblue" points="779.185,-184.421 768.668,-185.705 777.69,-191.26 779.185,-184.421"/>
</g>
<!-- Node1&#45;&gt;Node19 -->
<g id="edge41" class="edge"><title>Node1&#45;&gt;Node19</title>
<path fill="none" stroke="midnightblue" d="M1005.23,-224.466C1048.56,-205.062 1143.3,-155.906 1104,-112 1044.47,-45.5011 389.001,-17.9458 229.049,-12.1851"/>
<polygon fill="midnightblue" stroke="midnightblue" points="228.939,-8.67907 218.821,-11.8223 228.691,-15.6747 228.939,-8.67907"/>
</g>
<!-- Node1&#45;&gt;Node29 -->
<g id="edge42" class="edge"><title>Node1&#45;&gt;Node29</title>
<path fill="none" stroke="midnightblue" d="M992.062,-224.368C1007.05,-206.055 1042.23,-163.049 1061.61,-139.362"/>
<polygon fill="midnightblue" stroke="midnightblue" points="1064.35,-141.547 1067.97,-131.591 1058.93,-137.115 1064.35,-141.547"/>
</g>
<!-- Node32 -->
<g id="node33" class="node"><title>Node32</title>
<polygon fill="white" stroke="#bfbfbf" points="992,-112.5 992,-131.5 1036,-131.5 1036,-112.5 992,-112.5"/>
<text text-anchor="middle" x="1014" y="-119.5" font-family="Helvetica,sans-Serif" font-size="10.00">vector</text>
</g>
<!-- Node1&#45;&gt;Node32 -->
<g id="edge43" class="edge"><title>Node1&#45;&gt;Node32</title>
<path fill="none" stroke="midnightblue" d="M987.276,-224.368C991.977,-206.537 1002.85,-165.295 1009.18,-141.272"/>
<polygon fill="midnightblue" stroke="midnightblue" points="1012.57,-142.153 1011.73,-131.591 1005.8,-140.369 1012.57,-142.153"/>
</g>
<!-- Node3 -->
<g id="node4" class="node"><title>Node3</title>
<polygon fill="white" stroke="#bfbfbf" points="1745,-112.5 1745,-131.5 1807,-131.5 1807,-112.5 1745,-112.5"/>
<text text-anchor="middle" x="1776" y="-119.5" font-family="Helvetica,sans-Serif" font-size="10.00">sys/fcntl.h</text>
</g>
<!-- Node2&#45;&gt;Node3 -->
<g id="edge3" class="edge"><title>Node2&#45;&gt;Node3</title>
<path fill="none" stroke="midnightblue" d="M1658.18,-168.444C1681.43,-159.478 1718.15,-145.314 1744.42,-135.183"/>
<polygon fill="midnightblue" stroke="midnightblue" points="1745.85,-138.381 1753.92,-131.516 1743.33,-131.85 1745.85,-138.381"/>
</g>
<!-- Node4 -->
<g id="node5" class="node"><title>Node4</title>
<polygon fill="white" stroke="#bfbfbf" points="1825.5,-112.5 1825.5,-131.5 1896.5,-131.5 1896.5,-112.5 1825.5,-112.5"/>
<text text-anchor="middle" x="1861" y="-119.5" font-family="Helvetica,sans-Serif" font-size="10.00">sys/mman.h</text>
</g>
<!-- Node2&#45;&gt;Node4 -->
<g id="edge4" class="edge"><title>Node2&#45;&gt;Node4</title>
<path fill="none" stroke="midnightblue" d="M1664.95,-170.051C1703.13,-160.888 1770.72,-144.667 1815.7,-133.873"/>
<polygon fill="midnightblue" stroke="midnightblue" points="1816.58,-137.26 1825.49,-131.522 1814.95,-130.453 1816.58,-137.26"/>
</g>
<!-- Node5 -->
<g id="node6" class="node"><title>Node5</title>
<polygon fill="white" stroke="#bfbfbf" points="1915,-112.5 1915,-131.5 1985,-131.5 1985,-112.5 1915,-112.5"/>
<text text-anchor="middle" x="1950" y="-119.5" font-family="Helvetica,sans-Serif" font-size="10.00">sys/select.h</text>
</g>
<!-- Node2&#45;&gt;Node5 -->
<g id="edge5" class="edge"><title>Node2&#45;&gt;Node5</title>
<path fill="none" stroke="midnightblue" d="M1664.72,-172.502C1712.28,-164.986 1810.65,-149.162 1904.68,-132.007"/>
<polygon fill="midnightblue" stroke="midnightblue" points="1905.44,-135.426 1914.65,-130.18 1904.18,-128.54 1905.44,-135.426"/>
</g>
<!-- Node6 -->
<g id="node7" class="node"><title>Node6</title>
<polygon fill="white" stroke="#bfbfbf" points="2003.5,-112.5 2003.5,-131.5 2076.5,-131.5 2076.5,-112.5 2003.5,-112.5"/>
<text text-anchor="middle" x="2040" y="-119.5" font-family="Helvetica,sans-Serif" font-size="10.00">sys/socket.h</text>
</g>
<!-- Node2&#45;&gt;Node6 -->
<g id="edge6" class="edge"><title>Node2&#45;&gt;Node6</title>
<path fill="none" stroke="midnightblue" d="M1664.87,-174.047C1724.29,-167.823 1864.78,-152.366 1993.36,-132"/>
<polygon fill="midnightblue" stroke="midnightblue" points="1994.06,-135.432 2003.38,-130.398 1992.95,-128.52 1994.06,-135.432"/>
</g>
<!-- Node7 -->
<g id="node8" class="node"><title>Node7</title>
<polygon fill="white" stroke="#bfbfbf" points="2095,-112.5 2095,-131.5 2163,-131.5 2163,-112.5 2095,-112.5"/>
<text text-anchor="middle" x="2129" y="-119.5" font-family="Helvetica,sans-Serif" font-size="10.00">sys/types.h</text>
</g>
<!-- Node2&#45;&gt;Node7 -->
<g id="edge7" class="edge"><title>Node2&#45;&gt;Node7</title>
<path fill="none" stroke="midnightblue" d="M1664.76,-175.139C1736.16,-170.296 1927.19,-155.984 2085,-132 2085.1,-131.985 2085.2,-131.969 2085.3,-131.954"/>
<polygon fill="midnightblue" stroke="midnightblue" points="2085.68,-135.441 2094.95,-130.321 2084.51,-128.539 2085.68,-135.441"/>
</g>
<!-- Node8 -->
<g id="node9" class="node"><title>Node8</title>
<polygon fill="white" stroke="#bfbfbf" points="2181.5,-112.5 2181.5,-131.5 2228.5,-131.5 2228.5,-112.5 2181.5,-112.5"/>
<text text-anchor="middle" x="2205" y="-119.5" font-family="Helvetica,sans-Serif" font-size="10.00">net/if.h</text>
</g>
<!-- Node2&#45;&gt;Node8 -->
<g id="edge8" class="edge"><title>Node2&#45;&gt;Node8</title>
<path fill="none" stroke="midnightblue" d="M1664.71,-176.429C1743.97,-174.463 1972.51,-166.182 2171.28,-131.777"/>
<polygon fill="midnightblue" stroke="midnightblue" points="2172.08,-135.191 2181.32,-130.013 2170.87,-128.297 2172.08,-135.191"/>
</g>
<!-- Node9 -->
<g id="node10" class="node"><title>Node9</title>
<polygon fill="white" stroke="#bfbfbf" points="1152.5,-112.5 1152.5,-131.5 1217.5,-131.5 1217.5,-112.5 1152.5,-112.5"/>
<text text-anchor="middle" x="1185" y="-119.5" font-family="Helvetica,sans-Serif" font-size="10.00">netinet/in.h</text>
</g>
<!-- Node2&#45;&gt;Node9 -->
<g id="edge9" class="edge"><title>Node2&#45;&gt;Node9</title>
<path fill="none" stroke="midnightblue" d="M1607.03,-174.89C1541.29,-169.874 1375.69,-155.959 1227.78,-132.145"/>
<polygon fill="midnightblue" stroke="midnightblue" points="1228.05,-128.643 1217.61,-130.488 1226.92,-135.551 1228.05,-128.643"/>
</g>
<!-- Node10 -->
<g id="node11" class="node"><title>Node10</title>
<polygon fill="white" stroke="#bfbfbf" points="1235.5,-112.5 1235.5,-131.5 1306.5,-131.5 1306.5,-112.5 1235.5,-112.5"/>
<text text-anchor="middle" x="1271" y="-119.5" font-family="Helvetica,sans-Serif" font-size="10.00">netinet/tcp.h</text>
</g>
<!-- Node2&#45;&gt;Node10 -->
<g id="edge10" class="edge"><title>Node2&#45;&gt;Node10</title>
<path fill="none" stroke="midnightblue" d="M1607.23,-173.519C1552.67,-166.798 1430.22,-151.132 1316.73,-132.037"/>
<polygon fill="midnightblue" stroke="midnightblue" points="1317.27,-128.58 1306.83,-130.359 1316.1,-135.481 1317.27,-128.58"/>
</g>
<!-- Node11 -->
<g id="node12" class="node"><title>Node11</title>
<polygon fill="white" stroke="#bfbfbf" points="1325,-112.5 1325,-131.5 1387,-131.5 1387,-112.5 1325,-112.5"/>
<text text-anchor="middle" x="1356" y="-119.5" font-family="Helvetica,sans-Serif" font-size="10.00">arpa/inet.h</text>
</g>
<!-- Node2&#45;&gt;Node11 -->
<g id="edge11" class="edge"><title>Node2&#45;&gt;Node11</title>
<path fill="none" stroke="midnightblue" d="M1607.49,-171.996C1564.22,-164.33 1479.17,-148.97 1397.38,-132.229"/>
<polygon fill="midnightblue" stroke="midnightblue" points="1397.92,-128.768 1387.42,-130.182 1396.51,-135.625 1397.92,-128.768"/>
</g>
<!-- Node12 -->
<g id="node13" class="node"><title>Node12</title>
<polygon fill="white" stroke="#bfbfbf" points="1405,-112.5 1405,-131.5 1459,-131.5 1459,-112.5 1405,-112.5"/>
<text text-anchor="middle" x="1432" y="-119.5" font-family="Helvetica,sans-Serif" font-size="10.00">ifaddrs.h</text>
</g>
<!-- Node2&#45;&gt;Node12 -->
<g id="edge12" class="edge"><title>Node2&#45;&gt;Node12</title>
<path fill="none" stroke="midnightblue" d="M1607.2,-169.378C1570.93,-159.776 1508.56,-143.266 1468.85,-132.753"/>
<polygon fill="midnightblue" stroke="midnightblue" points="1469.59,-129.329 1459.02,-130.153 1467.79,-136.096 1469.59,-129.329"/>
</g>
<!-- Node13 -->
<g id="node14" class="node"><title>Node13</title>
<polygon fill="white" stroke="#bfbfbf" points="1477,-112.5 1477,-131.5 1525,-131.5 1525,-112.5 1477,-112.5"/>
<text text-anchor="middle" x="1501" y="-119.5" font-family="Helvetica,sans-Serif" font-size="10.00">limits.h</text>
</g>
<!-- Node2&#45;&gt;Node13 -->
<g id="edge13" class="edge"><title>Node2&#45;&gt;Node13</title>
<path fill="none" stroke="midnightblue" d="M1614.61,-168.444C1592.29,-159.517 1557.1,-145.439 1531.79,-135.317"/>
<polygon fill="midnightblue" stroke="midnightblue" points="1532.88,-131.981 1522.29,-131.516 1530.28,-138.48 1532.88,-131.981"/>
</g>
<!-- Node14 -->
<g id="node15" class="node"><title>Node14</title>
<polygon fill="white" stroke="#bfbfbf" points="1543.5,-112.5 1543.5,-131.5 1592.5,-131.5 1592.5,-112.5 1543.5,-112.5"/>
<text text-anchor="middle" x="1568" y="-119.5" font-family="Helvetica,sans-Serif" font-size="10.00">netdb.h</text>
</g>
<!-- Node2&#45;&gt;Node14 -->
<g id="edge14" class="edge"><title>Node2&#45;&gt;Node14</title>
<path fill="none" stroke="midnightblue" d="M1625.07,-168.324C1614.83,-160.185 1599.28,-147.839 1587,-138.087"/>
<polygon fill="midnightblue" stroke="midnightblue" points="1589.13,-135.312 1579.12,-131.834 1584.78,-140.794 1589.13,-135.312"/>
</g>
<!-- Node15 -->
<g id="node16" class="node"><title>Node15</title>
<polygon fill="white" stroke="#bfbfbf" points="1610.5,-112.5 1610.5,-131.5 1661.5,-131.5 1661.5,-112.5 1610.5,-112.5"/>
<text text-anchor="middle" x="1636" y="-119.5" font-family="Helvetica,sans-Serif" font-size="10.00">unistd.h</text>
</g>
<!-- Node2&#45;&gt;Node15 -->
<g id="edge15" class="edge"><title>Node2&#45;&gt;Node15</title>
<path fill="none" stroke="midnightblue" d="M1636,-168.083C1636,-161.006 1636,-150.861 1636,-141.986"/>
<polygon fill="midnightblue" stroke="midnightblue" points="1639.5,-141.751 1636,-131.751 1632.5,-141.751 1639.5,-141.751"/>
</g>
<!-- Node16 -->
<g id="node17" class="node"><title>Node16</title>
<polygon fill="white" stroke="#bfbfbf" points="1679.5,-112.5 1679.5,-131.5 1726.5,-131.5 1726.5,-112.5 1679.5,-112.5"/>
<text text-anchor="middle" x="1703" y="-119.5" font-family="Helvetica,sans-Serif" font-size="10.00">errno.h</text>
</g>
<!-- Node2&#45;&gt;Node16 -->
<g id="edge16" class="edge"><title>Node2&#45;&gt;Node16</title>
<path fill="none" stroke="midnightblue" d="M1646.76,-168.324C1656.77,-160.263 1671.89,-148.077 1683.93,-138.369"/>
<polygon fill="midnightblue" stroke="midnightblue" points="1686.45,-140.834 1692.04,-131.834 1682.06,-135.384 1686.45,-140.834"/>
</g>
<!-- Node18 -->
<g id="node19" class="node"><title>Node18</title>
<g id="a_node19"><a xlink:href="endian_8h.html" target="_top" xlink:title="compat/endian.h">
<polygon fill="white" stroke="black" points="154.5,-112.5 154.5,-131.5 243.5,-131.5 243.5,-112.5 154.5,-112.5"/>
<text text-anchor="middle" x="199" y="-119.5" font-family="Helvetica,sans-Serif" font-size="10.00">compat/endian.h</text>
</a>
</g>
</g>
<!-- Node17&#45;&gt;Node18 -->
<g id="edge18" class="edge"><title>Node17&#45;&gt;Node18</title>
<path fill="none" stroke="midnightblue" d="M707.328,-174.744C631.15,-169.007 427.26,-152.826 258,-132 256.698,-131.84 255.381,-131.674 254.053,-131.502"/>
<polygon fill="midnightblue" stroke="midnightblue" points="254.12,-127.979 243.74,-130.103 253.179,-134.916 254.12,-127.979"/>
</g>
<!-- Node17&#45;&gt;Node19 -->
<g id="edge30" class="edge"><title>Node17&#45;&gt;Node19</title>
<path fill="none" stroke="midnightblue" d="M707.447,-175.708C626.771,-171.951 409.736,-159.503 344,-132 286.347,-107.879 232.971,-54.5412 208.323,-27.4627"/>
<polygon fill="midnightblue" stroke="midnightblue" points="210.631,-24.7928 201.36,-19.6639 205.409,-29.4547 210.631,-24.7928"/>
</g>
<!-- Node21 -->
<g id="node22" class="node"><title>Node21</title>
<polygon fill="white" stroke="#bfbfbf" points="766,-112.5 766,-131.5 822,-131.5 822,-112.5 766,-112.5"/>
<text text-anchor="middle" x="794" y="-119.5" font-family="Helvetica,sans-Serif" font-size="10.00">algorithm</text>
</g>
<!-- Node17&#45;&gt;Node21 -->
<g id="edge22" class="edge"><title>Node17&#45;&gt;Node21</title>
<path fill="none" stroke="midnightblue" d="M746.997,-168.324C755.194,-160.42 767.506,-148.548 777.472,-138.938"/>
<polygon fill="midnightblue" stroke="midnightblue" points="780.07,-141.295 784.839,-131.834 775.211,-136.256 780.07,-141.295"/>
</g>
<!-- Node22 -->
<g id="node23" class="node"><title>Node22</title>
<polygon fill="white" stroke="#bfbfbf" points="538,-56.5 538,-75.5 590,-75.5 590,-56.5 538,-56.5"/>
<text text-anchor="middle" x="564" y="-63.5" font-family="Helvetica,sans-Serif" font-size="10.00">assert.h</text>
</g>
<!-- Node17&#45;&gt;Node22 -->
<g id="edge23" class="edge"><title>Node17&#45;&gt;Node22</title>
<path fill="none" stroke="midnightblue" d="M737.97,-168.094C737.428,-154.176 734.311,-127.283 719,-112 687.458,-80.5157 635.281,-70.783 600.284,-67.9269"/>
<polygon fill="midnightblue" stroke="midnightblue" points="600.226,-64.4154 590.016,-67.2448 599.762,-71.4 600.226,-64.4154"/>
</g>
<!-- Node23 -->
<g id="node24" class="node"><title>Node23</title>
<polygon fill="white" stroke="#bfbfbf" points="839.5,-112.5 839.5,-131.5 868.5,-131.5 868.5,-112.5 839.5,-112.5"/>
<text text-anchor="middle" x="854" y="-119.5" font-family="Helvetica,sans-Serif" font-size="10.00">ios</text>
</g>
<!-- Node17&#45;&gt;Node23 -->
<g id="edge24" class="edge"><title>Node17&#45;&gt;Node23</title>
<path fill="none" stroke="midnightblue" d="M756.381,-168.444C776.324,-159.159 808.241,-144.302 830.114,-134.119"/>
<polygon fill="midnightblue" stroke="midnightblue" points="831.79,-137.2 839.378,-129.807 828.835,-130.854 831.79,-137.2"/>
</g>
<!-- Node24 -->
<g id="node25" class="node"><title>Node24</title>
<polygon fill="white" stroke="#bfbfbf" points="887,-112.5 887,-131.5 927,-131.5 927,-112.5 887,-112.5"/>
<text text-anchor="middle" x="907" y="-119.5" font-family="Helvetica,sans-Serif" font-size="10.00">limits</text>
</g>
<!-- Node17&#45;&gt;Node24 -->
<g id="edge25" class="edge"><title>Node17&#45;&gt;Node24</title>
<path fill="none" stroke="midnightblue" d="M764.779,-168.444C795.349,-158.676 845.226,-142.738 877.058,-132.567"/>
<polygon fill="midnightblue" stroke="midnightblue" points="878.252,-135.86 886.712,-129.483 876.121,-129.192 878.252,-135.86"/>
</g>
<!-- Node25 -->
<g id="node26" class="node"><title>Node25</title>
<polygon fill="white" stroke="#bfbfbf" points="945.5,-112.5 945.5,-131.5 974.5,-131.5 974.5,-112.5 945.5,-112.5"/>
<text text-anchor="middle" x="960" y="-119.5" font-family="Helvetica,sans-Serif" font-size="10.00">list</text>
</g>
<!-- Node17&#45;&gt;Node25 -->
<g id="edge26" class="edge"><title>Node17&#45;&gt;Node25</title>
<path fill="none" stroke="midnightblue" d="M768.521,-171.397C805.783,-164.267 870.829,-150.894 935.441,-131.822"/>
<polygon fill="midnightblue" stroke="midnightblue" points="936.811,-135.065 945.384,-128.839 934.8,-128.36 936.811,-135.065"/>
</g>
<!-- Node26 -->
<g id="node27" class="node"><title>Node26</title>
<polygon fill="white" stroke="#bfbfbf" points="498.5,-112.5 498.5,-131.5 533.5,-131.5 533.5,-112.5 498.5,-112.5"/>
<text text-anchor="middle" x="516" y="-119.5" font-family="Helvetica,sans-Serif" font-size="10.00">map</text>
</g>
<!-- Node17&#45;&gt;Node26 -->
<g id="edge27" class="edge"><title>Node17&#45;&gt;Node26</title>
<path fill="none" stroke="midnightblue" d="M707.374,-170.873C670.662,-163.323 607.12,-149.61 543.448,-131.906"/>
<polygon fill="midnightblue" stroke="midnightblue" points="544.219,-128.487 533.644,-129.148 542.323,-135.226 544.219,-128.487"/>
</g>
<!-- Node27 -->
<g id="node28" class="node"><title>Node27</title>
<polygon fill="white" stroke="#bfbfbf" points="552,-112.5 552,-131.5 604,-131.5 604,-112.5 552,-112.5"/>
<text text-anchor="middle" x="578" y="-119.5" font-family="Helvetica,sans-Serif" font-size="10.00">memory</text>
</g>
<!-- Node17&#45;&gt;Node27 -->
<g id="edge28" class="edge"><title>Node17&#45;&gt;Node27</title>
<path fill="none" stroke="midnightblue" d="M712.648,-168.444C685.731,-159.359 643.004,-144.939 612.913,-134.783"/>
<polygon fill="midnightblue" stroke="midnightblue" points="613.828,-131.398 603.234,-131.516 611.59,-138.031 613.828,-131.398"/>
</g>
<!-- Node28 -->
<g id="node29" class="node"><title>Node28</title>
<polygon fill="white" stroke="#bfbfbf" points="622,-112.5 622,-131.5 652,-131.5 652,-112.5 622,-112.5"/>
<text text-anchor="middle" x="637" y="-119.5" font-family="Helvetica,sans-Serif" font-size="10.00">set</text>
</g>
<!-- Node17&#45;&gt;Node28 -->
<g id="edge29" class="edge"><title>Node17&#45;&gt;Node28</title>
<path fill="none" stroke="midnightblue" d="M721.773,-168.324C705.363,-159.55 679.811,-145.889 661.048,-135.857"/>
<polygon fill="midnightblue" stroke="midnightblue" points="662.665,-132.753 652.196,-131.125 659.364,-138.926 662.665,-132.753"/>
</g>
<!-- Node17&#45;&gt;Node29 -->
<g id="edge31" class="edge"><title>Node17&#45;&gt;Node29</title>
<path fill="none" stroke="midnightblue" d="M768.651,-173.895C824.04,-167.974 944.31,-153.695 1044,-132 1044.21,-131.954 1044.43,-131.907 1044.64,-131.86"/>
<polygon fill="midnightblue" stroke="midnightblue" points="1045.58,-135.232 1054.42,-129.399 1043.87,-128.443 1045.58,-135.232"/>
</g>
<!-- Node30 -->
<g id="node31" class="node"><title>Node30</title>
<polygon fill="white" stroke="#bfbfbf" points="300.5,-56.5 300.5,-75.5 349.5,-75.5 349.5,-56.5 300.5,-56.5"/>
<text text-anchor="middle" x="325" y="-63.5" font-family="Helvetica,sans-Serif" font-size="10.00">string.h</text>
</g>
<!-- Node17&#45;&gt;Node30 -->
<g id="edge32" class="edge"><title>Node17&#45;&gt;Node30</title>
<path fill="none" stroke="midnightblue" d="M707.27,-176.57C628.864,-174.963 423.59,-167.394 367,-132 349.785,-121.233 338.259,-100.526 331.704,-85.3675"/>
<polygon fill="midnightblue" stroke="midnightblue" points="334.904,-83.9438 327.951,-75.9496 328.401,-86.5349 334.904,-83.9438"/>
</g>
<!-- Node31 -->
<g id="node32" class="node"><title>Node31</title>
<polygon fill="white" stroke="#bfbfbf" points="670,-112.5 670,-131.5 710,-131.5 710,-112.5 670,-112.5"/>
<text text-anchor="middle" x="690" y="-119.5" font-family="Helvetica,sans-Serif" font-size="10.00">utility</text>
</g>
<!-- Node17&#45;&gt;Node31 -->
<g id="edge33" class="edge"><title>Node17&#45;&gt;Node31</title>
<path fill="none" stroke="midnightblue" d="M730.074,-168.083C723.154,-160.298 712.935,-148.801 704.548,-139.367"/>
<polygon fill="midnightblue" stroke="midnightblue" points="707.038,-136.9 697.779,-131.751 701.806,-141.55 707.038,-136.9"/>
</g>
<!-- Node17&#45;&gt;Node32 -->
<g id="edge34" class="edge"><title>Node17&#45;&gt;Node32</title>
<path fill="none" stroke="midnightblue" d="M768.763,-172.372C813.613,-165.404 899.729,-151.192 981.972,-132.056"/>
<polygon fill="midnightblue" stroke="midnightblue" points="982.789,-135.459 991.72,-129.76 981.184,-128.646 982.789,-135.459"/>
</g>
<!-- Node33 -->
<g id="node34" class="node"><title>Node33</title>
<g id="a_node34"><a xlink:href="prevector_8h.html" target="_top" xlink:title="prevector.h">
<polygon fill="white" stroke="black" points="376.5,-112.5 376.5,-131.5 441.5,-131.5 441.5,-112.5 376.5,-112.5"/>
<text text-anchor="middle" x="409" y="-119.5" font-family="Helvetica,sans-Serif" font-size="10.00">prevector.h</text>
</a>
</g>
</g>
<!-- Node17&#45;&gt;Node33 -->
<g id="edge35" class="edge"><title>Node17&#45;&gt;Node33</title>
<path fill="none" stroke="midnightblue" d="M707.344,-171.968C648.442,-162.3 519.328,-141.108 451.908,-130.043"/>
<polygon fill="midnightblue" stroke="midnightblue" points="452.073,-126.523 441.638,-128.357 450.939,-133.431 452.073,-126.523"/>
</g>
<!-- Node18&#45;&gt;Node19 -->
<g id="edge19" class="edge"><title>Node18&#45;&gt;Node19</title>
<path fill="none" stroke="midnightblue" d="M203.521,-112.191C209.356,-99.7133 218.279,-76.1656 214,-56 212.003,-46.5915 207.899,-36.7618 203.925,-28.6981"/>
<polygon fill="midnightblue" stroke="midnightblue" points="206.887,-26.8101 199.13,-19.5932 200.693,-30.0721 206.887,-26.8101"/>
</g>
<!-- Node20 -->
<g id="node21" class="node"><title>Node20</title>
<g id="a_node21"><a xlink:href="byteswap_8h.html" target="_top" xlink:title="compat/byteswap.h">
<polygon fill="white" stroke="black" points="104,-56.5 104,-75.5 206,-75.5 206,-56.5 104,-56.5"/>
<text text-anchor="middle" x="155" y="-63.5" font-family="Helvetica,sans-Serif" font-size="10.00">compat/byteswap.h</text>
</a>
</g>
</g>
<!-- Node18&#45;&gt;Node20 -->
<g id="edge20" class="edge"><title>Node18&#45;&gt;Node20</title>
<path fill="none" stroke="midnightblue" d="M191.734,-112.083C185.455,-104.377 176.212,-93.0333 168.569,-83.6531"/>
<polygon fill="midnightblue" stroke="midnightblue" points="171.161,-81.2926 162.131,-75.7511 165.734,-85.7143 171.161,-81.2926"/>
</g>
<!-- Node20&#45;&gt;Node19 -->
<g id="edge21" class="edge"><title>Node20&#45;&gt;Node19</title>
<path fill="none" stroke="midnightblue" d="M161.44,-56.083C166.949,-48.4554 175.031,-37.2645 181.765,-27.9408"/>
<polygon fill="midnightblue" stroke="midnightblue" points="184.662,-29.9071 187.68,-19.7511 178.987,-25.8087 184.662,-29.9071"/>
</g>
<!-- Node33&#45;&gt;Node19 -->
<g id="edge38" class="edge"><title>Node33&#45;&gt;Node19</title>
<path fill="none" stroke="midnightblue" d="M404.63,-112.391C397.073,-98.3899 380.218,-70.769 358,-56 318.559,-29.783 264.156,-18.7529 229.026,-14.1711"/>
<polygon fill="midnightblue" stroke="midnightblue" points="229.125,-10.6581 218.781,-12.9464 228.295,-17.6086 229.125,-10.6581"/>
</g>
<!-- Node33&#45;&gt;Node22 -->
<g id="edge36" class="edge"><title>Node33&#45;&gt;Node22</title>
<path fill="none" stroke="midnightblue" d="M433.56,-112.444C459.523,-103.399 500.668,-89.064 529.797,-78.9158"/>
<polygon fill="midnightblue" stroke="midnightblue" points="531.263,-82.1116 539.555,-75.5164 528.96,-75.5013 531.263,-82.1116"/>
</g>
<!-- Node33&#45;&gt;Node30 -->
<g id="edge39" class="edge"><title>Node33&#45;&gt;Node30</title>
<path fill="none" stroke="midnightblue" d="M395.504,-112.324C382.4,-103.9 362.288,-90.9709 346.893,-81.0741"/>
<polygon fill="midnightblue" stroke="midnightblue" points="348.767,-78.118 338.463,-75.6545 344.982,-84.0063 348.767,-78.118"/>
</g>
<!-- Node34 -->
<g id="node35" class="node"><title>Node34</title>
<polygon fill="white" stroke="#bfbfbf" points="472,-56.5 472,-75.5 520,-75.5 520,-56.5 472,-56.5"/>
<text text-anchor="middle" x="496" y="-63.5" font-family="Helvetica,sans-Serif" font-size="10.00">stdlib.h</text>
</g>
<!-- Node33&#45;&gt;Node34 -->
<g id="edge37" class="edge"><title>Node33&#45;&gt;Node34</title>
<path fill="none" stroke="midnightblue" d="M422.978,-112.324C436.55,-103.9 457.38,-90.9709 473.325,-81.0741"/>
<polygon fill="midnightblue" stroke="midnightblue" points="475.406,-83.9019 482.057,-75.6545 471.714,-77.9544 475.406,-83.9019"/>
</g>
<!-- Node35 -->
<g id="node36" class="node"><title>Node35</title>
<polygon fill="white" stroke="#bfbfbf" points="406.5,-56.5 406.5,-75.5 453.5,-75.5 453.5,-56.5 406.5,-56.5"/>
<text text-anchor="middle" x="430" y="-63.5" font-family="Helvetica,sans-Serif" font-size="10.00">iterator</text>
</g>
<!-- Node33&#45;&gt;Node35 -->
<g id="edge40" class="edge"><title>Node33&#45;&gt;Node35</title>
<path fill="none" stroke="midnightblue" d="M412.468,-112.083C415.312,-104.77 419.429,-94.1814 422.96,-85.1034"/>
<polygon fill="midnightblue" stroke="midnightblue" points="426.234,-86.3397 426.597,-75.7511 419.71,-83.8025 426.234,-86.3397"/>
</g>
<!-- Node36&#45;&gt;Node19 -->
<g id="edge49" class="edge"><title>Node36&#45;&gt;Node19</title>
<path fill="none" stroke="midnightblue" d="M382.642,-230.591C324.456,-225.235 193.858,-210.968 156,-188 99.7509,-153.875 52.7825,-110.925 89,-56 104.476,-32.5302 135.006,-21.2545 159.174,-15.8647"/>
<polygon fill="midnightblue" stroke="midnightblue" points="159.954,-19.2784 169.08,-13.8968 158.59,-12.4125 159.954,-19.2784"/>
</g>
<!-- Node36&#45;&gt;Node22 -->
<g id="edge46" class="edge"><title>Node36&#45;&gt;Node22</title>
<path fill="none" stroke="midnightblue" d="M414.814,-224.441C424.589,-203.245 452.372,-147.468 489,-112 502.423,-99.0024 520.269,-88.1032 535.186,-80.2881"/>
<polygon fill="midnightblue" stroke="midnightblue" points="537.129,-83.2282 544.489,-75.6067 533.983,-76.9752 537.129,-83.2282"/>
</g>
<!-- Node36&#45;&gt;Node29 -->
<g id="edge50" class="edge"><title>Node36&#45;&gt;Node29</title>
<path fill="none" stroke="midnightblue" d="M439.182,-231.511C507.424,-227.58 686.774,-215.292 834,-188 910.886,-173.747 999.12,-147.293 1044.51,-132.919"/>
<polygon fill="midnightblue" stroke="midnightblue" points="1045.84,-136.166 1054.31,-129.792 1043.71,-129.498 1045.84,-136.166"/>
</g>
<!-- Node36&#45;&gt;Node32 -->
<g id="edge51" class="edge"><title>Node36&#45;&gt;Node32</title>
<path fill="none" stroke="midnightblue" d="M439.226,-230.915C500.932,-226.054 652.301,-212.485 777,-188 851.536,-173.365 937.025,-147.648 982.183,-133.342"/>
<polygon fill="midnightblue" stroke="midnightblue" points="983.252,-136.675 991.715,-130.302 981.124,-130.006 983.252,-136.675"/>
</g>
<!-- Node37 -->
<g id="node38" class="node"><title>Node37</title>
<polygon fill="white" stroke="#bfbfbf" points="243,-168.5 243,-187.5 289,-187.5 289,-168.5 243,-168.5"/>
<text text-anchor="middle" x="266" y="-175.5" font-family="Helvetica,sans-Serif" font-size="10.00">cstring</text>
</g>
<!-- Node36&#45;&gt;Node37 -->
<g id="edge47" class="edge"><title>Node36&#45;&gt;Node37</title>
<path fill="none" stroke="midnightblue" d="M388.024,-224.444C363.843,-215.438 325.582,-201.189 298.354,-191.049"/>
<polygon fill="midnightblue" stroke="midnightblue" points="299.461,-187.727 288.868,-187.516 297.018,-194.286 299.461,-187.727"/>
</g>
<!-- Node38 -->
<g id="node39" class="node"><title>Node38</title>
<polygon fill="white" stroke="#bfbfbf" points="165.5,-168.5 165.5,-187.5 224.5,-187.5 224.5,-168.5 165.5,-168.5"/>
<text text-anchor="middle" x="195" y="-175.5" font-family="Helvetica,sans-Serif" font-size="10.00">stdexcept</text>
</g>
<!-- Node36&#45;&gt;Node38 -->
<g id="edge48" class="edge"><title>Node36&#45;&gt;Node38</title>
<path fill="none" stroke="midnightblue" d="M382.762,-225.94C344.861,-216.465 277.351,-199.588 234.447,-188.862"/>
<polygon fill="midnightblue" stroke="midnightblue" points="235.181,-185.438 224.63,-186.408 233.483,-192.229 235.181,-185.438"/>
</g>
<!-- Node39 -->
<g id="node40" class="node"><title>Node39</title>
<g id="a_node40"><a xlink:href="common_8h.html" target="_top" xlink:title="crypto/common.h">
<polygon fill="white" stroke="black" points="307,-168.5 307,-187.5 399,-187.5 399,-168.5 307,-168.5"/>
<text text-anchor="middle" x="353" y="-175.5" font-family="Helvetica,sans-Serif" font-size="10.00">crypto/common.h</text>
</a>
</g>
</g>
<!-- Node36&#45;&gt;Node39 -->
<g id="edge52" class="edge"><title>Node36&#45;&gt;Node39</title>
<path fill="none" stroke="midnightblue" d="M401.681,-224.324C393.107,-216.341 380.188,-204.313 369.812,-194.653"/>
<polygon fill="midnightblue" stroke="midnightblue" points="372.192,-192.086 362.488,-187.834 367.422,-197.21 372.192,-192.086"/>
</g>
<!-- Node39&#45;&gt;Node18 -->
<g id="edge55" class="edge"><title>Node39&#45;&gt;Node18</title>
<path fill="none" stroke="midnightblue" d="M328.598,-168.444C302.803,-159.399 261.923,-145.064 232.982,-134.916"/>
<polygon fill="midnightblue" stroke="midnightblue" points="233.882,-131.523 223.288,-131.516 231.566,-138.128 233.882,-131.523"/>
</g>
<!-- Node39&#45;&gt;Node19 -->
<g id="edge53" class="edge"><title>Node39&#45;&gt;Node19</title>
<path fill="none" stroke="midnightblue" d="M306.923,-168.597C249.987,-157.972 158.887,-140.09 145,-132 116.17,-115.204 106.892,-107.175 95,-76 83.079,-44.7496 126.282,-26.9688 159.367,-18.1577"/>
<polygon fill="midnightblue" stroke="midnightblue" points="160.377,-21.5135 169.238,-15.7062 158.689,-14.7199 160.377,-21.5135"/>
</g>
<!-- Node39&#45;&gt;Node30 -->
<g id="edge54" class="edge"><title>Node39&#45;&gt;Node30</title>
<path fill="none" stroke="midnightblue" d="M348.507,-168.281C344.122,-159.39 337.6,-145.082 334,-132 329.792,-116.708 327.499,-98.8251 326.283,-85.6916"/>
<polygon fill="midnightblue" stroke="midnightblue" points="329.758,-85.2454 325.47,-75.5572 322.781,-85.805 329.758,-85.2454"/>
</g>
</g>
</svg>
