<?xml version="1.0" encoding="UTF-8" standalone="no"?>
<!DOCTYPE svg PUBLIC "-//W3C//DTD SVG 1.1//EN"
 "http://www.w3.org/Graphics/SVG/1.1/DTD/svg11.dtd">
<!-- Generated by graphviz version 2.36.0 (20140111.2315)
 -->
<!-- Title: src/pubkey.cpp Pages: 1 -->
<svg width="2180pt" height="420pt"
 viewBox="0.00 0.00 2179.53 420.00" xmlns="http://www.w3.org/2000/svg" xmlns:xlink="http://www.w3.org/1999/xlink">
<g id="graph0" class="graph" transform="scale(1 1) rotate(0) translate(4 416)">
<title>src/pubkey.cpp</title>
<polygon fill="white" stroke="none" points="-4,4 -4,-416 2175.53,-416 2175.53,4 -4,4"/>
<!-- Node0 -->
<g id="node1" class="node"><title>Node0</title>
<polygon fill="#bfbfbf" stroke="black" points="546.03,-392.5 546.03,-411.5 629.03,-411.5 629.03,-392.5 546.03,-392.5"/>
<text text-anchor="middle" x="587.53" y="-399.5" font-family="Helvetica,sans-Serif" font-size="10.00">src/pubkey.cpp</text>
</g>
<!-- Node1 -->
<g id="node2" class="node"><title>Node1</title>
<g id="a_node2"><a xlink:href="pubkey_8h.html" target="_top" xlink:title="pubkey.h">
<polygon fill="white" stroke="black" points="1662.53,-336.5 1662.53,-355.5 1718.53,-355.5 1718.53,-336.5 1662.53,-336.5"/>
<text text-anchor="middle" x="1690.53" y="-343.5" font-family="Helvetica,sans-Serif" font-size="10.00">pubkey.h</text>
</a>
</g>
</g>
<!-- Node0&#45;&gt;Node1 -->
<g id="edge1" class="edge"><title>Node0&#45;&gt;Node1</title>
<path fill="none" stroke="midnightblue" d="M629.089,-398.965C804.414,-390.382 1482.4,-357.19 1651.93,-348.89"/>
<polygon fill="midnightblue" stroke="midnightblue" points="1652.31,-352.375 1662.13,-348.39 1651.97,-345.384 1652.31,-352.375"/>
</g>
<!-- Node43 -->
<g id="node44" class="node"><title>Node43</title>
<g id="a_node44"><a xlink:href="secp256k1_8h.html" target="_top" xlink:title="secp256k1.h">
<polygon fill="white" stroke="black" points="465.53,-280.5 465.53,-299.5 537.53,-299.5 537.53,-280.5 465.53,-280.5"/>
<text text-anchor="middle" x="501.53" y="-287.5" font-family="Helvetica,sans-Serif" font-size="10.00">secp256k1.h</text>
</a>
</g>
</g>
<!-- Node0&#45;&gt;Node43 -->
<g id="edge85" class="edge"><title>Node0&#45;&gt;Node43</title>
<path fill="none" stroke="midnightblue" d="M567.743,-392.358C552.707,-384.823 532.614,-372.508 520.53,-356 510.656,-342.511 505.889,-323.954 503.602,-310.12"/>
<polygon fill="midnightblue" stroke="midnightblue" points="507.019,-309.265 502.207,-299.826 500.082,-310.205 507.019,-309.265"/>
</g>
<!-- Node44 -->
<g id="node45" class="node"><title>Node44</title>
<g id="a_node45"><a xlink:href="secp256k1__recovery_8h.html" target="_top" xlink:title="secp256k1_recovery.h">
<polygon fill="white" stroke="black" points="530.03,-336.5 530.03,-355.5 645.03,-355.5 645.03,-336.5 530.03,-336.5"/>
<text text-anchor="middle" x="587.53" y="-343.5" font-family="Helvetica,sans-Serif" font-size="10.00">secp256k1_recovery.h</text>
</a>
</g>
</g>
<!-- Node0&#45;&gt;Node44 -->
<g id="edge87" class="edge"><title>Node0&#45;&gt;Node44</title>
<path fill="none" stroke="midnightblue" d="M587.53,-392.083C587.53,-385.006 587.53,-374.861 587.53,-365.986"/>
<polygon fill="midnightblue" stroke="midnightblue" points="591.03,-365.751 587.53,-355.751 584.03,-365.751 591.03,-365.751"/>
</g>
<!-- Node2 -->
<g id="node3" class="node"><title>Node2</title>
<g id="a_node3"><a xlink:href="hash_8h.html" target="_top" xlink:title="hash.h">
<polygon fill="white" stroke="black" points="1071.53,-280.5 1071.53,-299.5 1117.53,-299.5 1117.53,-280.5 1071.53,-280.5"/>
<text text-anchor="middle" x="1094.53" y="-287.5" font-family="Helvetica,sans-Serif" font-size="10.00">hash.h</text>
</a>
</g>
</g>
<!-- Node1&#45;&gt;Node2 -->
<g id="edge2" class="edge"><title>Node1&#45;&gt;Node2</title>
<path fill="none" stroke="midnightblue" d="M1662.18,-342.432C1563.33,-333.475 1234.07,-303.643 1127.86,-294.02"/>
<polygon fill="midnightblue" stroke="midnightblue" points="1128,-290.518 1117.73,-293.102 1127.37,-297.49 1128,-290.518"/>
</g>
<!-- Node11 -->
<g id="node12" class="node"><title>Node11</title>
<g id="a_node12"><a xlink:href="serialize_8h.html" target="_top" xlink:title="serialize.h">
<polygon fill="white" stroke="black" points="1505.03,-224.5 1505.03,-243.5 1566.03,-243.5 1566.03,-224.5 1505.03,-224.5"/>
<text text-anchor="middle" x="1535.53" y="-231.5" font-family="Helvetica,sans-Serif" font-size="10.00">serialize.h</text>
</a>
</g>
</g>
<!-- Node1&#45;&gt;Node11 -->
<g id="edge81" class="edge"><title>Node1&#45;&gt;Node11</title>
<path fill="none" stroke="midnightblue" d="M1678.37,-336.368C1651.88,-317.573 1588.75,-272.768 1556.01,-249.533"/>
<polygon fill="midnightblue" stroke="midnightblue" points="1557.82,-246.525 1547.64,-243.591 1553.77,-252.233 1557.82,-246.525"/>
</g>
<!-- Node23 -->
<g id="node24" class="node"><title>Node23</title>
<polygon fill="white" stroke="#bfbfbf" points="1800.53,-168.5 1800.53,-187.5 1844.53,-187.5 1844.53,-168.5 1800.53,-168.5"/>
<text text-anchor="middle" x="1822.53" y="-175.5" font-family="Helvetica,sans-Serif" font-size="10.00">vector</text>
</g>
<!-- Node1&#45;&gt;Node23 -->
<g id="edge84" class="edge"><title>Node1&#45;&gt;Node23</title>
<path fill="none" stroke="midnightblue" d="M1697.63,-336.075C1718.76,-309.493 1781.55,-230.538 1809.2,-195.763"/>
<polygon fill="midnightblue" stroke="midnightblue" points="1812.23,-197.574 1815.72,-187.568 1806.75,-193.217 1812.23,-197.574"/>
</g>
<!-- Node24 -->
<g id="node25" class="node"><title>Node24</title>
<g id="a_node25"><a xlink:href="uint256_8h.html" target="_top" xlink:title="uint256.h">
<polygon fill="white" stroke="black" points="1844.53,-224.5 1844.53,-243.5 1900.53,-243.5 1900.53,-224.5 1844.53,-224.5"/>
<text text-anchor="middle" x="1872.53" y="-231.5" font-family="Helvetica,sans-Serif" font-size="10.00">uint256.h</text>
</a>
</g>
</g>
<!-- Node1&#45;&gt;Node24 -->
<g id="edge82" class="edge"><title>Node1&#45;&gt;Node24</title>
<path fill="none" stroke="midnightblue" d="M1711.28,-336.423C1730.73,-328.073 1760.34,-314.544 1784.53,-300 1809.76,-284.832 1836.69,-264.206 1854.02,-250.29"/>
<polygon fill="midnightblue" stroke="midnightblue" points="1856.59,-252.71 1862.15,-243.689 1852.18,-247.277 1856.59,-252.71"/>
</g>
<!-- Node26 -->
<g id="node27" class="node"><title>Node26</title>
<polygon fill="white" stroke="#bfbfbf" points="2113.03,-168.5 2113.03,-187.5 2172.03,-187.5 2172.03,-168.5 2113.03,-168.5"/>
<text text-anchor="middle" x="2142.53" y="-175.5" font-family="Helvetica,sans-Serif" font-size="10.00">stdexcept</text>
</g>
<!-- Node1&#45;&gt;Node26 -->
<g id="edge83" class="edge"><title>Node1&#45;&gt;Node26</title>
<path fill="none" stroke="midnightblue" d="M1714.32,-336.41C1739.29,-327.382 1779.69,-312.748 1814.53,-300 1922.83,-260.372 2051.06,-212.912 2109.97,-191.076"/>
<polygon fill="midnightblue" stroke="midnightblue" points="2111.32,-194.308 2119.48,-187.55 2108.89,-187.745 2111.32,-194.308"/>
</g>
<!-- Node3 -->
<g id="node4" class="node"><title>Node3</title>
<g id="a_node4"><a xlink:href="ripemd160_8h.html" target="_top" xlink:title="crypto/ripemd160.h">
<polygon fill="white" stroke="black" points="930.53,-168.5 930.53,-187.5 1030.53,-187.5 1030.53,-168.5 930.53,-168.5"/>
<text text-anchor="middle" x="980.53" y="-175.5" font-family="Helvetica,sans-Serif" font-size="10.00">crypto/ripemd160.h</text>
</a>
</g>
</g>
<!-- Node2&#45;&gt;Node3 -->
<g id="edge3" class="edge"><title>Node2&#45;&gt;Node3</title>
<path fill="none" stroke="midnightblue" d="M1117.59,-289.464C1184.4,-290.267 1375.79,-288.565 1414.53,-244 1420.36,-237.291 1420.51,-230.579 1414.53,-224 1387.87,-194.654 1112.5,-193.23 1040.73,-187.8"/>
<polygon fill="midnightblue" stroke="midnightblue" points="1041,-184.31 1030.72,-186.85 1040.34,-191.278 1041,-184.31"/>
</g>
<!-- Node6 -->
<g id="node7" class="node"><title>Node6</title>
<g id="a_node7"><a xlink:href="sha256_8h.html" target="_top" xlink:title="crypto/sha256.h">
<polygon fill="white" stroke="black" points="826.53,-168.5 826.53,-187.5 912.53,-187.5 912.53,-168.5 826.53,-168.5"/>
<text text-anchor="middle" x="869.53" y="-175.5" font-family="Helvetica,sans-Serif" font-size="10.00">crypto/sha256.h</text>
</a>
</g>
</g>
<!-- Node2&#45;&gt;Node6 -->
<g id="edge6" class="edge"><title>Node2&#45;&gt;Node6</title>
<path fill="none" stroke="midnightblue" d="M1117.79,-289.035C1179.79,-288.583 1346.64,-283.637 1380.53,-244 1386.31,-237.244 1386.56,-230.527 1380.53,-224 1347.39,-188.163 1005.86,-193.737 922.751,-187.728"/>
<polygon fill="midnightblue" stroke="midnightblue" points="922.898,-184.227 912.614,-186.775 922.242,-191.196 922.898,-184.227"/>
</g>
<!-- Node7 -->
<g id="node8" class="node"><title>Node7</title>
<g id="a_node8"><a xlink:href="prevector_8h.html" target="_top" xlink:title="prevector.h">
<polygon fill="white" stroke="black" points="1049.03,-168.5 1049.03,-187.5 1114.03,-187.5 1114.03,-168.5 1049.03,-168.5"/>
<text text-anchor="middle" x="1081.53" y="-175.5" font-family="Helvetica,sans-Serif" font-size="10.00">prevector.h</text>
</a>
</g>
</g>
<!-- Node2&#45;&gt;Node7 -->
<g id="edge9" class="edge"><title>Node2&#45;&gt;Node7</title>
<path fill="none" stroke="midnightblue" d="M1117.69,-288.549C1203.87,-286.467 1498.66,-275.54 1452.53,-224 1404.22,-170.021 1200.16,-198.821 1128.53,-188 1127.07,-187.779 1125.58,-187.545 1124.08,-187.301"/>
<polygon fill="midnightblue" stroke="midnightblue" points="1124.54,-183.829 1114.09,-185.578 1123.35,-190.727 1124.54,-183.829"/>
</g>
<!-- Node2&#45;&gt;Node11 -->
<g id="edge15" class="edge"><title>Node2&#45;&gt;Node11</title>
<path fill="none" stroke="midnightblue" d="M1117.83,-287.043C1179.1,-281.749 1349.71,-266.043 1490.53,-244 1491.81,-243.799 1493.12,-243.587 1494.43,-243.366"/>
<polygon fill="midnightblue" stroke="midnightblue" points="1495.38,-246.752 1504.61,-241.541 1494.15,-239.862 1495.38,-246.752"/>
</g>
<!-- Node2&#45;&gt;Node23 -->
<g id="edge80" class="edge"><title>Node2&#45;&gt;Node23</title>
<path fill="none" stroke="midnightblue" d="M1117.69,-288.145C1187.29,-285.293 1400.58,-274.5 1574.53,-244 1653.36,-230.178 1743.8,-203.706 1790.65,-189.173"/>
<polygon fill="midnightblue" stroke="midnightblue" points="1791.74,-192.501 1800.24,-186.177 1789.65,-185.819 1791.74,-192.501"/>
</g>
<!-- Node2&#45;&gt;Node24 -->
<g id="edge34" class="edge"><title>Node2&#45;&gt;Node24</title>
<path fill="none" stroke="midnightblue" d="M1117.81,-287.384C1227.84,-279.747 1696.03,-247.251 1834.07,-237.669"/>
<polygon fill="midnightblue" stroke="midnightblue" points="1834.44,-241.152 1844.18,-236.968 1833.96,-234.169 1834.44,-241.152"/>
</g>
<!-- Node28 -->
<g id="node29" class="node"><title>Node28</title>
<g id="a_node29"><a xlink:href="version_8h.html" target="_top" xlink:title="version.h">
<polygon fill="white" stroke="black" points="389.53,-224.5 389.53,-243.5 445.53,-243.5 445.53,-224.5 389.53,-224.5"/>
<text text-anchor="middle" x="417.53" y="-231.5" font-family="Helvetica,sans-Serif" font-size="10.00">version.h</text>
</a>
</g>
</g>
<!-- Node2&#45;&gt;Node28 -->
<g id="edge45" class="edge"><title>Node2&#45;&gt;Node28</title>
<path fill="none" stroke="midnightblue" d="M1071.41,-288.777C988.972,-287.689 701.641,-281.391 455.908,-243.948"/>
<polygon fill="midnightblue" stroke="midnightblue" points="456.131,-240.441 445.714,-242.373 455.062,-247.359 456.131,-240.441"/>
</g>
<!-- Node29 -->
<g id="node30" class="node"><title>Node29</title>
<g id="a_node30"><a xlink:href="sph__blake_8h.html" target="_top" xlink:title="BLAKE interface. ">
<polygon fill="white" stroke="black" points="464.03,-224.5 464.03,-243.5 563.03,-243.5 563.03,-224.5 464.03,-224.5"/>
<text text-anchor="middle" x="513.53" y="-231.5" font-family="Helvetica,sans-Serif" font-size="10.00">crypto/sph_blake.h</text>
</a>
</g>
</g>
<!-- Node2&#45;&gt;Node29 -->
<g id="edge46" class="edge"><title>Node2&#45;&gt;Node29</title>
<path fill="none" stroke="midnightblue" d="M1071.27,-287.566C999.004,-282.992 771.744,-267.708 573.203,-244.132"/>
<polygon fill="midnightblue" stroke="midnightblue" points="573.519,-240.645 563.174,-242.931 572.686,-247.595 573.519,-240.645"/>
</g>
<!-- Node33 -->
<g id="node34" class="node"><title>Node33</title>
<g id="a_node34"><a xlink:href="sph__bmw_8h.html" target="_top" xlink:title="BMW interface. ">
<polygon fill="white" stroke="black" points="581.03,-224.5 581.03,-243.5 678.03,-243.5 678.03,-224.5 581.03,-224.5"/>
<text text-anchor="middle" x="629.53" y="-231.5" font-family="Helvetica,sans-Serif" font-size="10.00">crypto/sph_bmw.h</text>
</a>
</g>
</g>
<!-- Node2&#45;&gt;Node33 -->
<g id="edge50" class="edge"><title>Node2&#45;&gt;Node33</title>
<path fill="none" stroke="midnightblue" d="M1071.48,-286.839C1010.6,-281.05 840.269,-264.334 688.307,-244.19"/>
<polygon fill="midnightblue" stroke="midnightblue" points="688.701,-240.712 678.326,-242.858 687.775,-247.65 688.701,-240.712"/>
</g>
<!-- Node34 -->
<g id="node35" class="node"><title>Node34</title>
<g id="a_node35"><a xlink:href="sph__groestl_8h.html" target="_top" xlink:title="Groestl interface. ">
<polygon fill="white" stroke="black" points="696.03,-224.5 696.03,-243.5 801.03,-243.5 801.03,-224.5 696.03,-224.5"/>
<text text-anchor="middle" x="748.53" y="-231.5" font-family="Helvetica,sans-Serif" font-size="10.00">crypto/sph_groestl.h</text>
</a>
</g>
</g>
<!-- Node2&#45;&gt;Node34 -->
<g id="edge53" class="edge"><title>Node2&#45;&gt;Node34</title>
<path fill="none" stroke="midnightblue" d="M1071.29,-285.373C1018.8,-277.181 889.566,-257.011 811.48,-244.825"/>
<polygon fill="midnightblue" stroke="midnightblue" points="811.703,-241.317 801.283,-243.233 810.624,-248.233 811.703,-241.317"/>
</g>
<!-- Node35 -->
<g id="node36" class="node"><title>Node35</title>
<g id="a_node36"><a xlink:href="sph__jh_8h.html" target="_top" xlink:title="JH interface. ">
<polygon fill="white" stroke="black" points="819.03,-224.5 819.03,-243.5 902.03,-243.5 902.03,-224.5 819.03,-224.5"/>
<text text-anchor="middle" x="860.53" y="-231.5" font-family="Helvetica,sans-Serif" font-size="10.00">crypto/sph_jh.h</text>
</a>
</g>
</g>
<!-- Node2&#45;&gt;Node35 -->
<g id="edge56" class="edge"><title>Node2&#45;&gt;Node35</title>
<path fill="none" stroke="midnightblue" d="M1071.24,-283.625C1033.17,-274.84 956.903,-257.24 907.325,-245.799"/>
<polygon fill="midnightblue" stroke="midnightblue" points="908.01,-242.365 897.479,-243.527 906.436,-249.186 908.01,-242.365"/>
</g>
<!-- Node36 -->
<g id="node37" class="node"><title>Node36</title>
<g id="a_node37"><a xlink:href="sph__keccak_8h.html" target="_top" xlink:title="Keccak interface. ">
<polygon fill="white" stroke="black" points="920.03,-224.5 920.03,-243.5 1027.03,-243.5 1027.03,-224.5 920.03,-224.5"/>
<text text-anchor="middle" x="973.53" y="-231.5" font-family="Helvetica,sans-Serif" font-size="10.00">crypto/sph_keccak.h</text>
</a>
</g>
</g>
<!-- Node2&#45;&gt;Node36 -->
<g id="edge59" class="edge"><title>Node2&#45;&gt;Node36</title>
<path fill="none" stroke="midnightblue" d="M1075.36,-280.444C1055.62,-271.636 1024.65,-257.812 1002.04,-247.722"/>
<polygon fill="midnightblue" stroke="midnightblue" points="1003.17,-244.396 992.613,-243.516 1000.32,-250.788 1003.17,-244.396"/>
</g>
<!-- Node37 -->
<g id="node38" class="node"><title>Node37</title>
<g id="a_node38"><a xlink:href="sph__skein_8h.html" target="_top" xlink:title="Skein interface. ">
<polygon fill="white" stroke="black" points="1045.03,-224.5 1045.03,-243.5 1144.03,-243.5 1144.03,-224.5 1045.03,-224.5"/>
<text text-anchor="middle" x="1094.53" y="-231.5" font-family="Helvetica,sans-Serif" font-size="10.00">crypto/sph_skein.h</text>
</a>
</g>
</g>
<!-- Node2&#45;&gt;Node37 -->
<g id="edge62" class="edge"><title>Node2&#45;&gt;Node37</title>
<path fill="none" stroke="midnightblue" d="M1094.53,-280.083C1094.53,-273.006 1094.53,-262.861 1094.53,-253.986"/>
<polygon fill="midnightblue" stroke="midnightblue" points="1098.03,-253.751 1094.53,-243.751 1091.03,-253.751 1098.03,-253.751"/>
</g>
<!-- Node38 -->
<g id="node39" class="node"><title>Node38</title>
<g id="a_node39"><a xlink:href="sph__luffa_8h.html" target="_top" xlink:title="Luffa interface. ">
<polygon fill="white" stroke="black" points="1162.03,-224.5 1162.03,-243.5 1257.03,-243.5 1257.03,-224.5 1162.03,-224.5"/>
<text text-anchor="middle" x="1209.53" y="-231.5" font-family="Helvetica,sans-Serif" font-size="10.00">crypto/sph_luffa.h</text>
</a>
</g>
</g>
<!-- Node2&#45;&gt;Node38 -->
<g id="edge65" class="edge"><title>Node2&#45;&gt;Node38</title>
<path fill="none" stroke="midnightblue" d="M1112.75,-280.444C1131.43,-271.675 1160.69,-257.935 1182.15,-247.858"/>
<polygon fill="midnightblue" stroke="midnightblue" points="1183.83,-250.935 1191.39,-243.516 1180.85,-244.599 1183.83,-250.935"/>
</g>
<!-- Node39 -->
<g id="node40" class="node"><title>Node39</title>
<g id="a_node40"><a xlink:href="sph__cubehash_8h.html" target="_top" xlink:title="CubeHash interface. ">
<polygon fill="white" stroke="black" points="13.5302,-224.5 13.5302,-243.5 131.53,-243.5 131.53,-224.5 13.5302,-224.5"/>
<text text-anchor="middle" x="72.5302" y="-231.5" font-family="Helvetica,sans-Serif" font-size="10.00">crypto/sph_cubehash.h</text>
</a>
</g>
</g>
<!-- Node2&#45;&gt;Node39 -->
<g id="edge68" class="edge"><title>Node2&#45;&gt;Node39</title>
<path fill="none" stroke="midnightblue" d="M1071.24,-288.626C965.369,-286.777 518.819,-277.351 141.847,-244.041"/>
<polygon fill="midnightblue" stroke="midnightblue" points="142.107,-240.55 131.836,-243.149 141.486,-247.523 142.107,-240.55"/>
</g>
<!-- Node40 -->
<g id="node41" class="node"><title>Node40</title>
<g id="a_node41"><a xlink:href="sph__shavite_8h.html" target="_top" xlink:title="SHAvite&#45;3 interface. ">
<polygon fill="white" stroke="black" points="150.03,-224.5 150.03,-243.5 257.03,-243.5 257.03,-224.5 150.03,-224.5"/>
<text text-anchor="middle" x="203.53" y="-231.5" font-family="Helvetica,sans-Serif" font-size="10.00">crypto/sph_shavite.h</text>
</a>
</g>
</g>
<!-- Node2&#45;&gt;Node40 -->
<g id="edge71" class="edge"><title>Node2&#45;&gt;Node40</title>
<path fill="none" stroke="midnightblue" d="M1071.4,-288.506C974.531,-286.281 591.897,-275.903 267.331,-244.097"/>
<polygon fill="midnightblue" stroke="midnightblue" points="267.558,-240.602 257.262,-243.102 266.87,-247.569 267.558,-240.602"/>
</g>
<!-- Node41 -->
<g id="node42" class="node"><title>Node41</title>
<g id="a_node42"><a xlink:href="sph__simd_8h.html" target="_top" xlink:title="SIMD interface. ">
<polygon fill="white" stroke="black" points="275.03,-224.5 275.03,-243.5 372.03,-243.5 372.03,-224.5 275.03,-224.5"/>
<text text-anchor="middle" x="323.53" y="-231.5" font-family="Helvetica,sans-Serif" font-size="10.00">crypto/sph_simd.h</text>
</a>
</g>
</g>
<!-- Node2&#45;&gt;Node41 -->
<g id="edge74" class="edge"><title>Node2&#45;&gt;Node41</title>
<path fill="none" stroke="midnightblue" d="M1071.35,-288.329C983.054,-285.606 659.248,-274.118 382.544,-244.13"/>
<polygon fill="midnightblue" stroke="midnightblue" points="382.629,-240.618 372.307,-243.009 381.867,-247.577 382.629,-240.618"/>
</g>
<!-- Node42 -->
<g id="node43" class="node"><title>Node42</title>
<g id="a_node43"><a xlink:href="sph__echo_8h.html" target="_top" xlink:title="ECHO interface. ">
<polygon fill="white" stroke="black" points="1275.03,-224.5 1275.03,-243.5 1372.03,-243.5 1372.03,-224.5 1275.03,-224.5"/>
<text text-anchor="middle" x="1323.53" y="-231.5" font-family="Helvetica,sans-Serif" font-size="10.00">crypto/sph_echo.h</text>
</a>
</g>
</g>
<!-- Node2&#45;&gt;Node42 -->
<g id="edge77" class="edge"><title>Node2&#45;&gt;Node42</title>
<path fill="none" stroke="midnightblue" d="M1117.75,-283.525C1155.01,-274.739 1228.87,-257.322 1277.22,-245.921"/>
<polygon fill="midnightblue" stroke="midnightblue" points="1278.19,-249.287 1287.12,-243.585 1276.59,-242.474 1278.19,-249.287"/>
</g>
<!-- Node4 -->
<g id="node5" class="node"><title>Node4</title>
<polygon fill="white" stroke="#bfbfbf" points="1194.03,-0.5 1194.03,-19.5 1243.03,-19.5 1243.03,-0.5 1194.03,-0.5"/>
<text text-anchor="middle" x="1218.53" y="-7.5" font-family="Helvetica,sans-Serif" font-size="10.00">stdint.h</text>
</g>
<!-- Node3&#45;&gt;Node4 -->
<g id="edge4" class="edge"><title>Node3&#45;&gt;Node4</title>
<path fill="none" stroke="midnightblue" d="M971.903,-168.437C959.882,-155.44 940.912,-130.313 953.53,-112 1006,-35.8564 1124.11,-17.0758 1183.31,-12.4732"/>
<polygon fill="midnightblue" stroke="midnightblue" points="1183.91,-15.9404 1193.65,-11.7681 1183.43,-8.95667 1183.91,-15.9404"/>
</g>
<!-- Node5 -->
<g id="node6" class="node"><title>Node5</title>
<polygon fill="white" stroke="#bfbfbf" points="962.53,-112.5 962.53,-131.5 1010.53,-131.5 1010.53,-112.5 962.53,-112.5"/>
<text text-anchor="middle" x="986.53" y="-119.5" font-family="Helvetica,sans-Serif" font-size="10.00">stdlib.h</text>
</g>
<!-- Node3&#45;&gt;Node5 -->
<g id="edge5" class="edge"><title>Node3&#45;&gt;Node5</title>
<path fill="none" stroke="midnightblue" d="M981.521,-168.083C982.316,-160.927 983.46,-150.635 984.453,-141.691"/>
<polygon fill="midnightblue" stroke="midnightblue" points="987.932,-142.076 985.558,-131.751 980.975,-141.303 987.932,-142.076"/>
</g>
<!-- Node6&#45;&gt;Node4 -->
<g id="edge7" class="edge"><title>Node6&#45;&gt;Node4</title>
<path fill="none" stroke="midnightblue" d="M875.189,-168.243C890.347,-145.57 934.345,-84.7226 987.53,-56 1051.03,-21.7051 1136.88,-13.3127 1184,-11.4051"/>
<polygon fill="midnightblue" stroke="midnightblue" points="1184.13,-14.9031 1194.01,-11.0752 1183.9,-7.9069 1184.13,-14.9031"/>
</g>
<!-- Node6&#45;&gt;Node5 -->
<g id="edge8" class="edge"><title>Node6&#45;&gt;Node5</title>
<path fill="none" stroke="midnightblue" d="M888.069,-168.444C907.153,-159.636 937.105,-145.812 958.966,-135.722"/>
<polygon fill="midnightblue" stroke="midnightblue" points="960.465,-138.885 968.078,-131.516 957.532,-132.529 960.465,-138.885"/>
</g>
<!-- Node7&#45;&gt;Node4 -->
<g id="edge12" class="edge"><title>Node7&#45;&gt;Node4</title>
<path fill="none" stroke="midnightblue" d="M1082.73,-168.258C1086.11,-146.643 1097.57,-89.9865 1128.53,-56 1143.39,-39.689 1165.49,-28.5192 1184.08,-21.3878"/>
<polygon fill="midnightblue" stroke="midnightblue" points="1185.47,-24.6068 1193.69,-17.9277 1183.1,-18.0202 1185.47,-24.6068"/>
</g>
<!-- Node7&#45;&gt;Node5 -->
<g id="edge11" class="edge"><title>Node7&#45;&gt;Node5</title>
<path fill="none" stroke="midnightblue" d="M1066.27,-168.324C1051.31,-159.822 1028.28,-146.729 1010.8,-136.797"/>
<polygon fill="midnightblue" stroke="midnightblue" points="1012.18,-133.553 1001.76,-131.655 1008.72,-139.639 1012.18,-133.553"/>
</g>
<!-- Node8 -->
<g id="node9" class="node"><title>Node8</title>
<polygon fill="white" stroke="#bfbfbf" points="1555.53,-112.5 1555.53,-131.5 1607.53,-131.5 1607.53,-112.5 1555.53,-112.5"/>
<text text-anchor="middle" x="1581.53" y="-119.5" font-family="Helvetica,sans-Serif" font-size="10.00">assert.h</text>
</g>
<!-- Node7&#45;&gt;Node8 -->
<g id="edge10" class="edge"><title>Node7&#45;&gt;Node8</title>
<path fill="none" stroke="midnightblue" d="M1114.22,-173.283C1128.71,-171.645 1145.97,-169.709 1161.53,-168 1303.61,-152.396 1472.81,-134.467 1545.47,-126.799"/>
<polygon fill="midnightblue" stroke="midnightblue" points="1545.9,-130.273 1555.48,-125.743 1545.16,-123.312 1545.9,-130.273"/>
</g>
<!-- Node9 -->
<g id="node10" class="node"><title>Node9</title>
<polygon fill="white" stroke="#bfbfbf" points="1626.03,-112.5 1626.03,-131.5 1675.03,-131.5 1675.03,-112.5 1626.03,-112.5"/>
<text text-anchor="middle" x="1650.53" y="-119.5" font-family="Helvetica,sans-Serif" font-size="10.00">string.h</text>
</g>
<!-- Node7&#45;&gt;Node9 -->
<g id="edge13" class="edge"><title>Node7&#45;&gt;Node9</title>
<path fill="none" stroke="midnightblue" d="M1114.2,-173.077C1128.69,-171.402 1145.95,-169.493 1161.53,-168 1360.21,-148.97 1414.81,-165.54 1615.77,-131.806"/>
<polygon fill="midnightblue" stroke="midnightblue" points="1616.49,-135.234 1625.76,-130.107 1615.32,-128.333 1616.49,-135.234"/>
</g>
<!-- Node10 -->
<g id="node11" class="node"><title>Node10</title>
<polygon fill="white" stroke="#bfbfbf" points="1029.03,-112.5 1029.03,-131.5 1076.03,-131.5 1076.03,-112.5 1029.03,-112.5"/>
<text text-anchor="middle" x="1052.53" y="-119.5" font-family="Helvetica,sans-Serif" font-size="10.00">iterator</text>
</g>
<!-- Node7&#45;&gt;Node10 -->
<g id="edge14" class="edge"><title>Node7&#45;&gt;Node10</title>
<path fill="none" stroke="midnightblue" d="M1076.74,-168.083C1072.77,-160.691 1067.01,-149.953 1062.1,-140.811"/>
<polygon fill="midnightblue" stroke="midnightblue" points="1065.04,-138.905 1057.23,-131.751 1058.88,-142.217 1065.04,-138.905"/>
</g>
<!-- Node11&#45;&gt;Node4 -->
<g id="edge28" class="edge"><title>Node11&#45;&gt;Node4</title>
<path fill="none" stroke="midnightblue" d="M1504.99,-228.711C1493.84,-227.177 1481.12,-225.467 1469.53,-224 1401.17,-215.344 1207.34,-239.478 1161.53,-188 1119.37,-140.624 1175.48,-61.7314 1203.87,-27.5887"/>
<polygon fill="midnightblue" stroke="midnightblue" points="1206.89,-29.4389 1210.72,-19.562 1201.57,-24.8924 1206.89,-29.4389"/>
</g>
<!-- Node11&#45;&gt;Node7 -->
<g id="edge33" class="edge"><title>Node11&#45;&gt;Node7</title>
<path fill="none" stroke="midnightblue" d="M1504.62,-226.402C1499.91,-225.518 1495.1,-224.683 1490.53,-224 1330.62,-200.117 1288.54,-211.228 1128.53,-188 1127.07,-187.787 1125.58,-187.561 1124.08,-187.323"/>
<polygon fill="midnightblue" stroke="midnightblue" points="1124.53,-183.85 1114.08,-185.627 1123.36,-190.751 1124.53,-183.85"/>
</g>
<!-- Node11&#45;&gt;Node8 -->
<g id="edge21" class="edge"><title>Node11&#45;&gt;Node8</title>
<path fill="none" stroke="midnightblue" d="M1566.1,-224.839C1584.5,-218.177 1606.45,-206.726 1617.53,-188 1627.42,-171.296 1613.24,-151.773 1599.88,-138.515"/>
<polygon fill="midnightblue" stroke="midnightblue" points="1602.01,-135.719 1592.29,-131.502 1597.26,-140.859 1602.01,-135.719"/>
</g>
<!-- Node11&#45;&gt;Node9 -->
<g id="edge30" class="edge"><title>Node11&#45;&gt;Node9</title>
<path fill="none" stroke="midnightblue" d="M1566.36,-226.293C1588.16,-219.984 1616.44,-208.366 1633.53,-188 1644.42,-175.026 1648.42,-155.861 1649.85,-141.701"/>
<polygon fill="midnightblue" stroke="midnightblue" points="1653.35,-141.843 1650.53,-131.631 1646.36,-141.374 1653.35,-141.843"/>
</g>
<!-- Node12 -->
<g id="node13" class="node"><title>Node12</title>
<g id="a_node13"><a xlink:href="endian_8h.html" target="_top" xlink:title="compat/endian.h">
<polygon fill="white" stroke="black" points="1693.03,-112.5 1693.03,-131.5 1782.03,-131.5 1782.03,-112.5 1693.03,-112.5"/>
<text text-anchor="middle" x="1737.53" y="-119.5" font-family="Helvetica,sans-Serif" font-size="10.00">compat/endian.h</text>
</a>
</g>
</g>
<!-- Node11&#45;&gt;Node12 -->
<g id="edge16" class="edge"><title>Node11&#45;&gt;Node12</title>
<path fill="none" stroke="midnightblue" d="M1565.21,-224.367C1589.74,-216.61 1625.04,-203.989 1653.53,-188 1678.73,-173.859 1704.55,-152.678 1720.79,-138.372"/>
<polygon fill="midnightblue" stroke="midnightblue" points="1723.24,-140.872 1728.36,-131.592 1718.57,-135.659 1723.24,-140.872"/>
</g>
<!-- Node14 -->
<g id="node15" class="node"><title>Node14</title>
<polygon fill="white" stroke="#bfbfbf" points="1170.53,-168.5 1170.53,-187.5 1226.53,-187.5 1226.53,-168.5 1170.53,-168.5"/>
<text text-anchor="middle" x="1198.53" y="-175.5" font-family="Helvetica,sans-Serif" font-size="10.00">algorithm</text>
</g>
<!-- Node11&#45;&gt;Node14 -->
<g id="edge20" class="edge"><title>Node11&#45;&gt;Node14</title>
<path fill="none" stroke="midnightblue" d="M1504.59,-226.568C1499.89,-225.661 1495.09,-224.775 1490.53,-224 1380.47,-205.271 1349.07,-209.687 1236.79,-188.295"/>
<polygon fill="midnightblue" stroke="midnightblue" points="1237.25,-184.818 1226.77,-186.357 1235.92,-191.691 1237.25,-184.818"/>
</g>
<!-- Node15 -->
<g id="node16" class="node"><title>Node15</title>
<polygon fill="white" stroke="#bfbfbf" points="1244.03,-168.5 1244.03,-187.5 1273.03,-187.5 1273.03,-168.5 1244.03,-168.5"/>
<text text-anchor="middle" x="1258.53" y="-175.5" font-family="Helvetica,sans-Serif" font-size="10.00">ios</text>
</g>
<!-- Node11&#45;&gt;Node15 -->
<g id="edge22" class="edge"><title>Node11&#45;&gt;Node15</title>
<path fill="none" stroke="midnightblue" d="M1504.57,-226.697C1499.87,-225.773 1495.07,-224.847 1490.53,-224 1401.36,-207.37 1374.82,-212.22 1282.83,-187.606"/>
<polygon fill="midnightblue" stroke="midnightblue" points="1283.68,-184.211 1273.11,-184.964 1281.84,-190.966 1283.68,-184.211"/>
</g>
<!-- Node16 -->
<g id="node17" class="node"><title>Node16</title>
<polygon fill="white" stroke="#bfbfbf" points="1291.53,-168.5 1291.53,-187.5 1331.53,-187.5 1331.53,-168.5 1291.53,-168.5"/>
<text text-anchor="middle" x="1311.53" y="-175.5" font-family="Helvetica,sans-Serif" font-size="10.00">limits</text>
</g>
<!-- Node11&#45;&gt;Node16 -->
<g id="edge23" class="edge"><title>Node11&#45;&gt;Node16</title>
<path fill="none" stroke="midnightblue" d="M1504.96,-226.679C1468.3,-218.939 1404.81,-205.03 1341.5,-188.115"/>
<polygon fill="midnightblue" stroke="midnightblue" points="1342.32,-184.712 1331.76,-185.487 1340.5,-191.47 1342.32,-184.712"/>
</g>
<!-- Node17 -->
<g id="node18" class="node"><title>Node17</title>
<polygon fill="white" stroke="#bfbfbf" points="1350.03,-168.5 1350.03,-187.5 1379.03,-187.5 1379.03,-168.5 1350.03,-168.5"/>
<text text-anchor="middle" x="1364.53" y="-175.5" font-family="Helvetica,sans-Serif" font-size="10.00">list</text>
</g>
<!-- Node11&#45;&gt;Node17 -->
<g id="edge24" class="edge"><title>Node11&#45;&gt;Node17</title>
<path fill="none" stroke="midnightblue" d="M1504.98,-224.464C1476.89,-216.452 1433.93,-203.783 1388.74,-188.244"/>
<polygon fill="midnightblue" stroke="midnightblue" points="1389.66,-184.86 1379.07,-184.885 1387.37,-191.472 1389.66,-184.86"/>
</g>
<!-- Node18 -->
<g id="node19" class="node"><title>Node18</title>
<polygon fill="white" stroke="#bfbfbf" points="1397.03,-168.5 1397.03,-187.5 1432.03,-187.5 1432.03,-168.5 1397.03,-168.5"/>
<text text-anchor="middle" x="1414.53" y="-175.5" font-family="Helvetica,sans-Serif" font-size="10.00">map</text>
</g>
<!-- Node11&#45;&gt;Node18 -->
<g id="edge25" class="edge"><title>Node11&#45;&gt;Node18</title>
<path fill="none" stroke="midnightblue" d="M1516.36,-224.444C1496.16,-215.428 1464.18,-201.158 1441.46,-191.016"/>
<polygon fill="midnightblue" stroke="midnightblue" points="1442.6,-187.694 1432.04,-186.815 1439.75,-194.087 1442.6,-187.694"/>
</g>
<!-- Node19 -->
<g id="node20" class="node"><title>Node19</title>
<polygon fill="white" stroke="#bfbfbf" points="1450.53,-168.5 1450.53,-187.5 1502.53,-187.5 1502.53,-168.5 1450.53,-168.5"/>
<text text-anchor="middle" x="1476.53" y="-175.5" font-family="Helvetica,sans-Serif" font-size="10.00">memory</text>
</g>
<!-- Node11&#45;&gt;Node19 -->
<g id="edge26" class="edge"><title>Node11&#45;&gt;Node19</title>
<path fill="none" stroke="midnightblue" d="M1526.05,-224.324C1517.33,-216.341 1504.19,-204.313 1493.63,-194.653"/>
<polygon fill="midnightblue" stroke="midnightblue" points="1495.92,-192.004 1486.18,-187.834 1491.2,-197.167 1495.92,-192.004"/>
</g>
<!-- Node20 -->
<g id="node21" class="node"><title>Node20</title>
<polygon fill="white" stroke="#bfbfbf" points="1520.53,-168.5 1520.53,-187.5 1550.53,-187.5 1550.53,-168.5 1520.53,-168.5"/>
<text text-anchor="middle" x="1535.53" y="-175.5" font-family="Helvetica,sans-Serif" font-size="10.00">set</text>
</g>
<!-- Node11&#45;&gt;Node20 -->
<g id="edge27" class="edge"><title>Node11&#45;&gt;Node20</title>
<path fill="none" stroke="midnightblue" d="M1535.53,-224.083C1535.53,-217.006 1535.53,-206.861 1535.53,-197.986"/>
<polygon fill="midnightblue" stroke="midnightblue" points="1539.03,-197.751 1535.53,-187.751 1532.03,-197.751 1539.03,-197.751"/>
</g>
<!-- Node21 -->
<g id="node22" class="node"><title>Node21</title>
<polygon fill="white" stroke="#bfbfbf" points="1741.03,-168.5 1741.03,-187.5 1782.03,-187.5 1782.03,-168.5 1741.03,-168.5"/>
<text text-anchor="middle" x="1761.53" y="-175.5" font-family="Helvetica,sans-Serif" font-size="10.00">string</text>
</g>
<!-- Node11&#45;&gt;Node21 -->
<g id="edge29" class="edge"><title>Node11&#45;&gt;Node21</title>
<path fill="none" stroke="midnightblue" d="M1566.34,-225.944C1604.13,-217.242 1670.13,-201.894 1726.53,-188 1727.98,-187.644 1729.46,-187.276 1730.95,-186.902"/>
<polygon fill="midnightblue" stroke="midnightblue" points="1731.99,-190.25 1740.82,-184.4 1730.27,-183.465 1731.99,-190.25"/>
</g>
<!-- Node22 -->
<g id="node23" class="node"><title>Node22</title>
<polygon fill="white" stroke="#bfbfbf" points="1568.53,-168.5 1568.53,-187.5 1608.53,-187.5 1608.53,-168.5 1568.53,-168.5"/>
<text text-anchor="middle" x="1588.53" y="-175.5" font-family="Helvetica,sans-Serif" font-size="10.00">utility</text>
</g>
<!-- Node11&#45;&gt;Node22 -->
<g id="edge31" class="edge"><title>Node11&#45;&gt;Node22</title>
<path fill="none" stroke="midnightblue" d="M1544.28,-224.083C1552,-216.22 1563.43,-204.569 1572.75,-195.081"/>
<polygon fill="midnightblue" stroke="midnightblue" points="1575.43,-197.34 1579.94,-187.751 1570.44,-192.436 1575.43,-197.34"/>
</g>
<!-- Node11&#45;&gt;Node23 -->
<g id="edge32" class="edge"><title>Node11&#45;&gt;Node23</title>
<path fill="none" stroke="midnightblue" d="M1566.34,-228.576C1612.74,-221.694 1703.46,-207.391 1790.46,-187.804"/>
<polygon fill="midnightblue" stroke="midnightblue" points="1791.25,-191.214 1800.22,-185.58 1789.7,-184.388 1791.25,-191.214"/>
</g>
<!-- Node12&#45;&gt;Node4 -->
<g id="edge17" class="edge"><title>Node12&#45;&gt;Node4</title>
<path fill="none" stroke="midnightblue" d="M1692.76,-113.446C1689.63,-112.947 1686.54,-112.461 1683.53,-112 1569.53,-94.5178 1539.06,-101.286 1426.53,-76 1363.41,-61.8161 1291.8,-37.5774 1251.21,-23.0462"/>
<polygon fill="midnightblue" stroke="midnightblue" points="1252.18,-19.6746 1241.59,-19.5731 1249.81,-26.2592 1252.18,-19.6746"/>
</g>
<!-- Node13 -->
<g id="node14" class="node"><title>Node13</title>
<g id="a_node14"><a xlink:href="byteswap_8h.html" target="_top" xlink:title="compat/byteswap.h">
<polygon fill="white" stroke="black" points="1435.53,-56.5 1435.53,-75.5 1537.53,-75.5 1537.53,-56.5 1435.53,-56.5"/>
<text text-anchor="middle" x="1486.53" y="-63.5" font-family="Helvetica,sans-Serif" font-size="10.00">compat/byteswap.h</text>
</a>
</g>
</g>
<!-- Node12&#45;&gt;Node13 -->
<g id="edge18" class="edge"><title>Node12&#45;&gt;Node13</title>
<path fill="none" stroke="midnightblue" d="M1697.76,-112.444C1653.97,-103.023 1583.52,-87.8656 1536.15,-77.6752"/>
<polygon fill="midnightblue" stroke="midnightblue" points="1536.63,-74.1981 1526.12,-75.5164 1535.16,-81.0415 1536.63,-74.1981"/>
</g>
<!-- Node13&#45;&gt;Node4 -->
<g id="edge19" class="edge"><title>Node13&#45;&gt;Node4</title>
<path fill="none" stroke="midnightblue" d="M1444.06,-56.4435C1391.26,-45.8043 1302.14,-27.8463 1253.23,-17.9916"/>
<polygon fill="midnightblue" stroke="midnightblue" points="1253.64,-14.5036 1243.14,-15.9593 1252.25,-21.3657 1253.64,-14.5036"/>
</g>
<!-- Node24&#45;&gt;Node4 -->
<g id="edge38" class="edge"><title>Node24&#45;&gt;Node4</title>
<path fill="none" stroke="midnightblue" d="M1900.85,-229.763C1946.64,-223.348 2029.17,-206.199 2001.53,-168 1911.74,-43.8796 1393.48,-17.0565 1253.41,-12.0416"/>
<polygon fill="midnightblue" stroke="midnightblue" points="1253.37,-8.53796 1243.25,-11.6927 1253.13,-15.5338 1253.37,-8.53796"/>
</g>
<!-- Node24&#45;&gt;Node8 -->
<g id="edge35" class="edge"><title>Node24&#45;&gt;Node8</title>
<path fill="none" stroke="midnightblue" d="M1872.59,-224.296C1872.18,-210.158 1869.16,-182.345 1852.53,-168 1814.4,-135.105 1682.85,-141.791 1617.7,-131.819"/>
<polygon fill="midnightblue" stroke="midnightblue" points="1618.3,-128.37 1607.84,-130.066 1617.07,-135.262 1618.3,-128.37"/>
</g>
<!-- Node24&#45;&gt;Node21 -->
<g id="edge39" class="edge"><title>Node24&#45;&gt;Node21</title>
<path fill="none" stroke="midnightblue" d="M1854.7,-224.324C1836.81,-215.625 1809.06,-202.12 1788.48,-192.113"/>
<polygon fill="midnightblue" stroke="midnightblue" points="1789.84,-188.882 1779.32,-187.655 1786.78,-195.177 1789.84,-188.882"/>
</g>
<!-- Node24&#45;&gt;Node23 -->
<g id="edge40" class="edge"><title>Node24&#45;&gt;Node23</title>
<path fill="none" stroke="midnightblue" d="M1864.27,-224.083C1857.07,-216.298 1846.42,-204.801 1837.68,-195.367"/>
<polygon fill="midnightblue" stroke="midnightblue" points="1840,-192.711 1830.63,-187.751 1834.86,-197.467 1840,-192.711"/>
</g>
<!-- Node25 -->
<g id="node26" class="node"><title>Node25</title>
<polygon fill="white" stroke="#bfbfbf" points="2048.53,-168.5 2048.53,-187.5 2094.53,-187.5 2094.53,-168.5 2048.53,-168.5"/>
<text text-anchor="middle" x="2071.53" y="-175.5" font-family="Helvetica,sans-Serif" font-size="10.00">cstring</text>
</g>
<!-- Node24&#45;&gt;Node25 -->
<g id="edge36" class="edge"><title>Node24&#45;&gt;Node25</title>
<path fill="none" stroke="midnightblue" d="M1900.62,-225.378C1936.91,-215.53 1999.99,-198.413 2038.53,-187.956"/>
<polygon fill="midnightblue" stroke="midnightblue" points="2039.5,-191.319 2048.23,-185.322 2037.67,-184.563 2039.5,-191.319"/>
</g>
<!-- Node24&#45;&gt;Node26 -->
<g id="edge37" class="edge"><title>Node24&#45;&gt;Node26</title>
<path fill="none" stroke="midnightblue" d="M1900.69,-227.838C1942.47,-220.109 2023.59,-204.835 2102.62,-188.135"/>
<polygon fill="midnightblue" stroke="midnightblue" points="2103.69,-191.486 2112.74,-185.985 2102.23,-184.638 2103.69,-191.486"/>
</g>
<!-- Node27 -->
<g id="node28" class="node"><title>Node27</title>
<g id="a_node28"><a xlink:href="common_8h.html" target="_top" xlink:title="crypto/common.h">
<polygon fill="white" stroke="black" points="1900.53,-168.5 1900.53,-187.5 1992.53,-187.5 1992.53,-168.5 1900.53,-168.5"/>
<text text-anchor="middle" x="1946.53" y="-175.5" font-family="Helvetica,sans-Serif" font-size="10.00">crypto/common.h</text>
</a>
</g>
</g>
<!-- Node24&#45;&gt;Node27 -->
<g id="edge41" class="edge"><title>Node24&#45;&gt;Node27</title>
<path fill="none" stroke="midnightblue" d="M1884.42,-224.324C1895.68,-216.107 1912.82,-203.602 1926.24,-193.807"/>
<polygon fill="midnightblue" stroke="midnightblue" points="1928.41,-196.556 1934.42,-187.834 1924.28,-190.901 1928.41,-196.556"/>
</g>
<!-- Node27&#45;&gt;Node4 -->
<g id="edge42" class="edge"><title>Node27&#45;&gt;Node4</title>
<path fill="none" stroke="midnightblue" d="M1928.65,-168.372C1900.04,-154.836 1841.95,-128.456 1790.53,-112 1593.03,-48.7886 1343.73,-21.9589 1253.3,-13.8493"/>
<polygon fill="midnightblue" stroke="midnightblue" points="1253.34,-10.3394 1243.07,-12.9519 1252.73,-17.3126 1253.34,-10.3394"/>
</g>
<!-- Node27&#45;&gt;Node9 -->
<g id="edge43" class="edge"><title>Node27&#45;&gt;Node9</title>
<path fill="none" stroke="midnightblue" d="M1900.45,-169.668C1840.46,-160.034 1737.88,-143.233 1685.18,-132.172"/>
<polygon fill="midnightblue" stroke="midnightblue" points="1685.85,-128.736 1675.33,-130.041 1684.37,-135.577 1685.85,-128.736"/>
</g>
<!-- Node27&#45;&gt;Node12 -->
<g id="edge44" class="edge"><title>Node27&#45;&gt;Node12</title>
<path fill="none" stroke="midnightblue" d="M1913.41,-168.444C1877.41,-159.142 1819.76,-144.246 1780.34,-134.062"/>
<polygon fill="midnightblue" stroke="midnightblue" points="1781.05,-130.629 1770.49,-131.516 1779.3,-137.407 1781.05,-130.629"/>
</g>
<!-- Node30 -->
<g id="node31" class="node"><title>Node30</title>
<polygon fill="white" stroke="#bfbfbf" points="623.53,-168.5 623.53,-187.5 675.53,-187.5 675.53,-168.5 623.53,-168.5"/>
<text text-anchor="middle" x="649.53" y="-175.5" font-family="Helvetica,sans-Serif" font-size="10.00">stddef.h</text>
</g>
<!-- Node29&#45;&gt;Node30 -->
<g id="edge47" class="edge"><title>Node29&#45;&gt;Node30</title>
<path fill="none" stroke="midnightblue" d="M535.08,-224.444C557.561,-215.517 593.018,-201.439 618.51,-191.317"/>
<polygon fill="midnightblue" stroke="midnightblue" points="620.079,-194.46 628.081,-187.516 617.496,-187.954 620.079,-194.46"/>
</g>
<!-- Node31 -->
<g id="node32" class="node"><title>Node31</title>
<g id="a_node32"><a xlink:href="sph__types_8h.html" target="_top" xlink:title="Basic type definitions. ">
<polygon fill="white" stroke="black" points="713.53,-168.5 713.53,-187.5 783.53,-187.5 783.53,-168.5 713.53,-168.5"/>
<text text-anchor="middle" x="748.53" y="-175.5" font-family="Helvetica,sans-Serif" font-size="10.00">sph_types.h</text>
</a>
</g>
</g>
<!-- Node29&#45;&gt;Node31 -->
<g id="edge48" class="edge"><title>Node29&#45;&gt;Node31</title>
<path fill="none" stroke="midnightblue" d="M550.767,-224.444C592.19,-214.925 659.108,-199.548 703.457,-189.357"/>
<polygon fill="midnightblue" stroke="midnightblue" points="704.425,-192.726 713.387,-187.075 702.857,-185.904 704.425,-192.726"/>
</g>
<!-- Node32 -->
<g id="node33" class="node"><title>Node32</title>
<polygon fill="white" stroke="#bfbfbf" points="724.53,-112.5 724.53,-131.5 772.53,-131.5 772.53,-112.5 724.53,-112.5"/>
<text text-anchor="middle" x="748.53" y="-119.5" font-family="Helvetica,sans-Serif" font-size="10.00">limits.h</text>
</g>
<!-- Node31&#45;&gt;Node32 -->
<g id="edge49" class="edge"><title>Node31&#45;&gt;Node32</title>
<path fill="none" stroke="midnightblue" d="M748.53,-168.083C748.53,-161.006 748.53,-150.861 748.53,-141.986"/>
<polygon fill="midnightblue" stroke="midnightblue" points="752.03,-141.751 748.53,-131.751 745.03,-141.751 752.03,-141.751"/>
</g>
<!-- Node33&#45;&gt;Node30 -->
<g id="edge51" class="edge"><title>Node33&#45;&gt;Node30</title>
<path fill="none" stroke="midnightblue" d="M632.833,-224.083C635.512,-216.849 639.379,-206.409 642.717,-197.397"/>
<polygon fill="midnightblue" stroke="midnightblue" points="646.098,-198.344 646.289,-187.751 639.534,-195.913 646.098,-198.344"/>
</g>
<!-- Node33&#45;&gt;Node31 -->
<g id="edge52" class="edge"><title>Node33&#45;&gt;Node31</title>
<path fill="none" stroke="midnightblue" d="M648.386,-224.444C667.796,-215.636 698.26,-201.812 720.495,-191.722"/>
<polygon fill="midnightblue" stroke="midnightblue" points="722.103,-194.836 729.763,-187.516 719.21,-188.462 722.103,-194.836"/>
</g>
<!-- Node34&#45;&gt;Node30 -->
<g id="edge54" class="edge"><title>Node34&#45;&gt;Node30</title>
<path fill="none" stroke="midnightblue" d="M732.624,-224.324C716.892,-215.743 692.588,-202.486 674.321,-192.522"/>
<polygon fill="midnightblue" stroke="midnightblue" points="675.852,-189.37 665.397,-187.655 672.5,-195.516 675.852,-189.37"/>
</g>
<!-- Node34&#45;&gt;Node31 -->
<g id="edge55" class="edge"><title>Node34&#45;&gt;Node31</title>
<path fill="none" stroke="midnightblue" d="M748.53,-224.083C748.53,-217.006 748.53,-206.861 748.53,-197.986"/>
<polygon fill="midnightblue" stroke="midnightblue" points="752.03,-197.751 748.53,-187.751 745.03,-197.751 752.03,-197.751"/>
</g>
<!-- Node35&#45;&gt;Node30 -->
<g id="edge57" class="edge"><title>Node35&#45;&gt;Node30</title>
<path fill="none" stroke="midnightblue" d="M827.097,-224.444C788.506,-214.567 725.274,-198.385 685.601,-188.231"/>
<polygon fill="midnightblue" stroke="midnightblue" points="686.363,-184.814 675.808,-185.725 684.628,-191.595 686.363,-184.814"/>
</g>
<!-- Node35&#45;&gt;Node31 -->
<g id="edge58" class="edge"><title>Node35&#45;&gt;Node31</title>
<path fill="none" stroke="midnightblue" d="M842.535,-224.324C824.493,-215.625 796.483,-202.12 775.727,-192.113"/>
<polygon fill="midnightblue" stroke="midnightblue" points="777.008,-188.845 766.48,-187.655 773.968,-195.15 777.008,-188.845"/>
</g>
<!-- Node36&#45;&gt;Node30 -->
<g id="edge60" class="edge"><title>Node36&#45;&gt;Node30</title>
<path fill="none" stroke="midnightblue" d="M922.191,-224.444C856.343,-213.469 743.769,-194.706 686.034,-185.084"/>
<polygon fill="midnightblue" stroke="midnightblue" points="686.355,-181.589 675.916,-183.398 685.204,-188.494 686.355,-181.589"/>
</g>
<!-- Node36&#45;&gt;Node31 -->
<g id="edge61" class="edge"><title>Node36&#45;&gt;Node31</title>
<path fill="none" stroke="midnightblue" d="M937.878,-224.444C898.76,-215.055 835.895,-199.968 793.44,-189.778"/>
<polygon fill="midnightblue" stroke="midnightblue" points="794.186,-186.358 783.645,-187.428 792.552,-193.165 794.186,-186.358"/>
</g>
<!-- Node37&#45;&gt;Node30 -->
<g id="edge63" class="edge"><title>Node37&#45;&gt;Node30</title>
<path fill="none" stroke="midnightblue" d="M1044.98,-225.283C1041.78,-224.834 1038.61,-224.403 1035.53,-224 888.797,-204.838 851.157,-207.956 704.53,-188 698.511,-187.181 692.137,-186.222 685.943,-185.242"/>
<polygon fill="midnightblue" stroke="midnightblue" points="686.216,-181.74 675.784,-183.592 685.094,-188.65 686.216,-181.74"/>
</g>
<!-- Node37&#45;&gt;Node31 -->
<g id="edge64" class="edge"><title>Node37&#45;&gt;Node31</title>
<path fill="none" stroke="midnightblue" d="M1044.96,-225.263C977.733,-214.772 858.63,-196.183 793.741,-186.056"/>
<polygon fill="midnightblue" stroke="midnightblue" points="794.229,-182.59 783.809,-184.506 793.15,-189.506 794.229,-182.59"/>
</g>
<!-- Node38&#45;&gt;Node30 -->
<g id="edge66" class="edge"><title>Node38&#45;&gt;Node30</title>
<path fill="none" stroke="midnightblue" d="M1161.98,-225.214C1158.79,-224.777 1155.61,-224.367 1152.53,-224 954.176,-200.406 902.818,-212.149 704.53,-188 698.5,-187.266 692.12,-186.35 685.924,-185.387"/>
<polygon fill="midnightblue" stroke="midnightblue" points="686.195,-181.885 675.765,-183.743 685.078,-188.795 686.195,-181.885"/>
</g>
<!-- Node38&#45;&gt;Node31 -->
<g id="edge67" class="edge"><title>Node38&#45;&gt;Node31</title>
<path fill="none" stroke="midnightblue" d="M1161.97,-225.31C1158.78,-224.85 1155.61,-224.408 1152.53,-224 1004.08,-204.317 966.228,-205.685 817.53,-188 809.77,-187.077 801.526,-186.046 793.538,-185.02"/>
<polygon fill="midnightblue" stroke="midnightblue" points="793.98,-181.548 783.613,-183.732 793.08,-188.49 793.98,-181.548"/>
</g>
<!-- Node39&#45;&gt;Node30 -->
<g id="edge69" class="edge"><title>Node39&#45;&gt;Node30</title>
<path fill="none" stroke="midnightblue" d="M131.85,-224.995C134.784,-224.647 137.689,-224.313 140.53,-224 317.474,-204.478 529.767,-187.912 613.271,-181.662"/>
<polygon fill="midnightblue" stroke="midnightblue" points="613.554,-185.151 623.266,-180.917 613.033,-178.17 613.554,-185.151"/>
</g>
<!-- Node39&#45;&gt;Node31 -->
<g id="edge70" class="edge"><title>Node39&#45;&gt;Node31</title>
<path fill="none" stroke="midnightblue" d="M131.842,-224.917C134.778,-224.59 137.686,-224.282 140.53,-224 381.654,-200.091 443.505,-212.888 684.53,-188 690.536,-187.38 696.845,-186.623 703.064,-185.814"/>
<polygon fill="midnightblue" stroke="midnightblue" points="703.936,-189.228 713.377,-184.418 702.997,-182.291 703.936,-189.228"/>
</g>
<!-- Node40&#45;&gt;Node30 -->
<g id="edge72" class="edge"><title>Node40&#45;&gt;Node30</title>
<path fill="none" stroke="midnightblue" d="M257.286,-225.104C260.073,-224.724 262.834,-224.354 265.53,-224 393.14,-207.264 545.013,-190.354 613.215,-182.919"/>
<polygon fill="midnightblue" stroke="midnightblue" points="613.863,-186.369 623.426,-181.809 613.106,-179.41 613.863,-186.369"/>
</g>
<!-- Node40&#45;&gt;Node31 -->
<g id="edge73" class="edge"><title>Node40&#45;&gt;Node31</title>
<path fill="none" stroke="midnightblue" d="M257.274,-225.002C260.064,-224.649 262.829,-224.312 265.53,-224 451.205,-202.566 498.808,-209.022 684.53,-188 690.53,-187.321 696.835,-186.53 703.052,-185.703"/>
<polygon fill="midnightblue" stroke="midnightblue" points="703.93,-189.116 713.363,-184.293 702.981,-182.181 703.93,-189.116"/>
</g>
<!-- Node41&#45;&gt;Node30 -->
<g id="edge75" class="edge"><title>Node41&#45;&gt;Node30</title>
<path fill="none" stroke="midnightblue" d="M372.336,-224.916C438.355,-213.98 554.602,-194.724 613.36,-184.991"/>
<polygon fill="midnightblue" stroke="midnightblue" points="614.005,-188.432 623.298,-183.345 612.861,-181.526 614.005,-188.432"/>
</g>
<!-- Node41&#45;&gt;Node31 -->
<g id="edge76" class="edge"><title>Node41&#45;&gt;Node31</title>
<path fill="none" stroke="midnightblue" d="M372.329,-225.168C375.102,-224.762 377.851,-224.37 380.53,-224 515.306,-205.387 549.602,-205.474 684.53,-188 690.518,-187.225 696.817,-186.377 703.031,-185.523"/>
<polygon fill="midnightblue" stroke="midnightblue" points="703.916,-188.934 713.338,-184.09 702.952,-182 703.916,-188.934"/>
</g>
<!-- Node42&#45;&gt;Node30 -->
<g id="edge78" class="edge"><title>Node42&#45;&gt;Node30</title>
<path fill="none" stroke="midnightblue" d="M1274.84,-225.119C1271.69,-224.711 1268.57,-224.333 1265.53,-224 1017.17,-196.817 952.779,-216.208 704.53,-188 698.495,-187.314 692.111,-186.423 685.914,-185.47"/>
<polygon fill="midnightblue" stroke="midnightblue" points="686.185,-181.968 675.755,-183.83 685.069,-188.879 686.185,-181.968"/>
</g>
<!-- Node42&#45;&gt;Node31 -->
<g id="edge79" class="edge"><title>Node42&#45;&gt;Node31</title>
<path fill="none" stroke="midnightblue" d="M1274.83,-225.177C1271.69,-224.754 1268.57,-224.357 1265.53,-224 1067.14,-200.669 1016.18,-208.924 817.53,-188 809.759,-187.181 801.509,-186.202 793.519,-185.195"/>
<polygon fill="midnightblue" stroke="midnightblue" points="793.958,-181.723 783.593,-183.915 793.063,-188.665 793.958,-181.723"/>
</g>
<!-- Node43&#45;&gt;Node30 -->
<g id="edge86" class="edge"><title>Node43&#45;&gt;Node30</title>
<path fill="none" stroke="midnightblue" d="M465.276,-288.473C356.014,-286.514 35.5006,-277.901 4.53019,-244 -1.46512,-237.437 -1.53253,-230.5 4.53019,-224 46.1859,-179.337 483.165,-178.09 613.215,-178.72"/>
<polygon fill="midnightblue" stroke="midnightblue" points="613.42,-182.221 623.44,-178.776 613.459,-175.221 613.42,-182.221"/>
</g>
<!-- Node44&#45;&gt;Node43 -->
<g id="edge88" class="edge"><title>Node44&#45;&gt;Node43</title>
<path fill="none" stroke="midnightblue" d="M573.713,-336.324C560.297,-327.9 539.706,-314.971 523.945,-305.074"/>
<polygon fill="midnightblue" stroke="midnightblue" points="525.643,-302.008 515.313,-299.655 521.921,-307.936 525.643,-302.008"/>
</g>
</g>
</svg>
