<?xml version="1.0" encoding="UTF-8" standalone="no"?>
<!DOCTYPE svg PUBLIC "-//W3C//DTD SVG 1.1//EN"
 "http://www.w3.org/Graphics/SVG/1.1/DTD/svg11.dtd">
<!-- Generated by graphviz version 2.36.0 (20140111.2315)
 -->
<!-- Title: src/pubkey.h Pages: 1 -->
<svg width="2020pt" height="364pt"
 viewBox="0.00 0.00 2019.56 364.00" xmlns="http://www.w3.org/2000/svg" xmlns:xlink="http://www.w3.org/1999/xlink">
<g id="graph0" class="graph" transform="scale(1 1) rotate(0) translate(4 360)">
<title>src/pubkey.h</title>
<polygon fill="white" stroke="none" points="-4,4 -4,-360 2015.56,-360 2015.56,4 -4,4"/>
<!-- Node0 -->
<g id="node1" class="node"><title>Node0</title>
<polygon fill="#bfbfbf" stroke="black" points="315.5,-336.5 315.5,-355.5 388.5,-355.5 388.5,-336.5 315.5,-336.5"/>
<text text-anchor="middle" x="352" y="-343.5" font-family="Helvetica,sans-Serif" font-size="10.00">src/pubkey.h</text>
</g>
<!-- Node1 -->
<g id="node2" class="node"><title>Node1</title>
<g id="a_node2"><a xlink:href="hash_8h.html" target="_top" xlink:title="hash.h">
<polygon fill="white" stroke="black" points="1131,-280.5 1131,-299.5 1177,-299.5 1177,-280.5 1131,-280.5"/>
<text text-anchor="middle" x="1154" y="-287.5" font-family="Helvetica,sans-Serif" font-size="10.00">hash.h</text>
</a>
</g>
</g>
<!-- Node0&#45;&gt;Node1 -->
<g id="edge1" class="edge"><title>Node0&#45;&gt;Node1</title>
<path fill="none" stroke="midnightblue" d="M388.544,-342.539C523.265,-333.468 991.009,-301.974 1120.53,-293.254"/>
<polygon fill="midnightblue" stroke="midnightblue" points="1120.89,-296.737 1130.63,-292.573 1120.42,-289.753 1120.89,-296.737"/>
</g>
<!-- Node10 -->
<g id="node11" class="node"><title>Node10</title>
<g id="a_node11"><a xlink:href="serialize_8h.html" target="_top" xlink:title="serialize.h">
<polygon fill="white" stroke="black" points="504.5,-224.5 504.5,-243.5 565.5,-243.5 565.5,-224.5 504.5,-224.5"/>
<text text-anchor="middle" x="535" y="-231.5" font-family="Helvetica,sans-Serif" font-size="10.00">serialize.h</text>
</a>
</g>
</g>
<!-- Node0&#45;&gt;Node10 -->
<g id="edge80" class="edge"><title>Node0&#45;&gt;Node10</title>
<path fill="none" stroke="midnightblue" d="M366.36,-336.368C397.896,-317.412 473.444,-272.001 511.805,-248.942"/>
<polygon fill="midnightblue" stroke="midnightblue" points="513.939,-251.743 520.707,-243.591 510.333,-245.744 513.939,-251.743"/>
</g>
<!-- Node22 -->
<g id="node23" class="node"><title>Node22</title>
<polygon fill="white" stroke="#bfbfbf" points="327,-168.5 327,-187.5 371,-187.5 371,-168.5 327,-168.5"/>
<text text-anchor="middle" x="349" y="-175.5" font-family="Helvetica,sans-Serif" font-size="10.00">vector</text>
</g>
<!-- Node0&#45;&gt;Node22 -->
<g id="edge83" class="edge"><title>Node0&#45;&gt;Node22</title>
<path fill="none" stroke="midnightblue" d="M351.839,-336.075C351.366,-309.945 349.98,-233.211 349.336,-197.577"/>
<polygon fill="midnightblue" stroke="midnightblue" points="352.835,-197.503 349.155,-187.568 345.836,-197.63 352.835,-197.503"/>
</g>
<!-- Node23 -->
<g id="node24" class="node"><title>Node23</title>
<g id="a_node24"><a xlink:href="uint256_8h.html" target="_top" xlink:title="uint256.h">
<polygon fill="white" stroke="black" points="268,-224.5 268,-243.5 324,-243.5 324,-224.5 268,-224.5"/>
<text text-anchor="middle" x="296" y="-231.5" font-family="Helvetica,sans-Serif" font-size="10.00">uint256.h</text>
</a>
</g>
</g>
<!-- Node0&#45;&gt;Node23 -->
<g id="edge81" class="edge"><title>Node0&#45;&gt;Node23</title>
<path fill="none" stroke="midnightblue" d="M347.606,-336.368C338.446,-318.376 317.153,-276.55 304.974,-252.627"/>
<polygon fill="midnightblue" stroke="midnightblue" points="308.03,-250.915 300.374,-243.591 301.792,-254.091 308.03,-250.915"/>
</g>
<!-- Node25 -->
<g id="node26" class="node"><title>Node25</title>
<polygon fill="white" stroke="#bfbfbf" points="-0.5,-168.5 -0.5,-187.5 58.5,-187.5 58.5,-168.5 -0.5,-168.5"/>
<text text-anchor="middle" x="29" y="-175.5" font-family="Helvetica,sans-Serif" font-size="10.00">stdexcept</text>
</g>
<!-- Node0&#45;&gt;Node25 -->
<g id="edge82" class="edge"><title>Node0&#45;&gt;Node25</title>
<path fill="none" stroke="midnightblue" d="M335.089,-336.309C281.999,-309.024 118.402,-224.947 54.7309,-192.224"/>
<polygon fill="midnightblue" stroke="midnightblue" points="56.2377,-189.063 45.7437,-187.605 53.038,-195.289 56.2377,-189.063"/>
</g>
<!-- Node2 -->
<g id="node3" class="node"><title>Node2</title>
<g id="a_node3"><a xlink:href="ripemd160_8h.html" target="_top" xlink:title="crypto/ripemd160.h">
<polygon fill="white" stroke="black" points="1320,-168.5 1320,-187.5 1420,-187.5 1420,-168.5 1320,-168.5"/>
<text text-anchor="middle" x="1370" y="-175.5" font-family="Helvetica,sans-Serif" font-size="10.00">crypto/ripemd160.h</text>
</a>
</g>
</g>
<!-- Node1&#45;&gt;Node2 -->
<g id="edge2" class="edge"><title>Node1&#45;&gt;Node2</title>
<path fill="none" stroke="midnightblue" d="M1177.26,-288.641C1309.54,-286.492 1962.22,-274.367 1991,-244 1997.11,-237.548 1997.08,-230.483 1991,-224 1949.86,-180.145 1526.28,-193.541 1430.22,-187.763"/>
<polygon fill="midnightblue" stroke="midnightblue" points="1430.42,-184.269 1420.17,-186.959 1429.86,-191.246 1430.42,-184.269"/>
</g>
<!-- Node5 -->
<g id="node6" class="node"><title>Node5</title>
<g id="a_node6"><a xlink:href="sha256_8h.html" target="_top" xlink:title="crypto/sha256.h">
<polygon fill="white" stroke="black" points="1438,-168.5 1438,-187.5 1524,-187.5 1524,-168.5 1438,-168.5"/>
<text text-anchor="middle" x="1481" y="-175.5" font-family="Helvetica,sans-Serif" font-size="10.00">crypto/sha256.h</text>
</a>
</g>
</g>
<!-- Node1&#45;&gt;Node5 -->
<g id="edge5" class="edge"><title>Node1&#45;&gt;Node5</title>
<path fill="none" stroke="midnightblue" d="M1177.26,-288.666C1311.06,-286.632 1977.63,-274.965 2007,-244 2013.12,-237.551 2013.01,-230.548 2007,-224 1975.5,-189.688 1662.35,-181.494 1534.72,-179.574"/>
<polygon fill="midnightblue" stroke="midnightblue" points="1534.45,-176.07 1524.4,-179.426 1534.35,-183.069 1534.45,-176.07"/>
</g>
<!-- Node6 -->
<g id="node7" class="node"><title>Node6</title>
<g id="a_node7"><a xlink:href="prevector_8h.html" target="_top" xlink:title="prevector.h">
<polygon fill="white" stroke="black" points="1056.5,-168.5 1056.5,-187.5 1121.5,-187.5 1121.5,-168.5 1056.5,-168.5"/>
<text text-anchor="middle" x="1089" y="-175.5" font-family="Helvetica,sans-Serif" font-size="10.00">prevector.h</text>
</a>
</g>
</g>
<!-- Node1&#45;&gt;Node6 -->
<g id="edge8" class="edge"><title>Node1&#45;&gt;Node6</title>
<path fill="none" stroke="midnightblue" d="M1130.79,-288.874C1031.83,-288.102 648.541,-282.62 613,-244 549.079,-174.541 927.555,-200.578 1046.06,-187.748"/>
<polygon fill="midnightblue" stroke="midnightblue" points="1046.58,-191.21 1056.06,-186.477 1045.7,-184.266 1046.58,-191.21"/>
</g>
<!-- Node1&#45;&gt;Node10 -->
<g id="edge14" class="edge"><title>Node1&#45;&gt;Node10</title>
<path fill="none" stroke="midnightblue" d="M1130.93,-288.179C1053.05,-285.197 792.873,-273.525 580,-244 578.713,-243.821 577.407,-243.629 576.09,-243.425"/>
<polygon fill="midnightblue" stroke="midnightblue" points="576.35,-239.919 565.903,-241.684 575.17,-246.819 576.35,-239.919"/>
</g>
<!-- Node1&#45;&gt;Node22 -->
<g id="edge79" class="edge"><title>Node1&#45;&gt;Node22</title>
<path fill="none" stroke="midnightblue" d="M1130.85,-288.502C1028.88,-286.145 619.37,-274.9 495,-244 449.716,-232.749 400.922,-208.23 372.772,-192.73"/>
<polygon fill="midnightblue" stroke="midnightblue" points="374.151,-189.491 363.716,-187.66 370.732,-195.599 374.151,-189.491"/>
</g>
<!-- Node1&#45;&gt;Node23 -->
<g id="edge33" class="edge"><title>Node1&#45;&gt;Node23</title>
<path fill="none" stroke="midnightblue" d="M1130.79,-287.688C1039.81,-282.52 698.678,-262.933 418,-244 389.943,-242.107 358.273,-239.765 334.233,-237.944"/>
<polygon fill="midnightblue" stroke="midnightblue" points="334.334,-234.442 324.098,-237.174 333.803,-241.422 334.334,-234.442"/>
</g>
<!-- Node27 -->
<g id="node28" class="node"><title>Node27</title>
<g id="a_node28"><a xlink:href="version_8h.html" target="_top" xlink:title="version.h">
<polygon fill="white" stroke="black" points="1456,-224.5 1456,-243.5 1512,-243.5 1512,-224.5 1456,-224.5"/>
<text text-anchor="middle" x="1484" y="-231.5" font-family="Helvetica,sans-Serif" font-size="10.00">version.h</text>
</a>
</g>
</g>
<!-- Node1&#45;&gt;Node27 -->
<g id="edge44" class="edge"><title>Node1&#45;&gt;Node27</title>
<path fill="none" stroke="midnightblue" d="M1177.2,-286.064C1226.76,-279.652 1346.57,-263.404 1446,-244 1446.1,-243.981 1446.2,-243.961 1446.3,-243.941"/>
<polygon fill="midnightblue" stroke="midnightblue" points="1446.77,-247.42 1455.83,-241.935 1445.33,-240.57 1446.77,-247.42"/>
</g>
<!-- Node28 -->
<g id="node29" class="node"><title>Node28</title>
<g id="a_node29"><a xlink:href="sph__blake_8h.html" target="_top" xlink:title="BLAKE interface. ">
<polygon fill="white" stroke="black" points="1653.5,-224.5 1653.5,-243.5 1752.5,-243.5 1752.5,-224.5 1653.5,-224.5"/>
<text text-anchor="middle" x="1703" y="-231.5" font-family="Helvetica,sans-Serif" font-size="10.00">crypto/sph_blake.h</text>
</a>
</g>
</g>
<!-- Node1&#45;&gt;Node28 -->
<g id="edge45" class="edge"><title>Node1&#45;&gt;Node28</title>
<path fill="none" stroke="midnightblue" d="M1177.01,-287.378C1245.96,-282.416 1457.05,-266.469 1643.47,-243.99"/>
<polygon fill="midnightblue" stroke="midnightblue" points="1643.95,-247.458 1653.46,-242.777 1643.11,-240.509 1643.95,-247.458"/>
</g>
<!-- Node32 -->
<g id="node33" class="node"><title>Node32</title>
<g id="a_node33"><a xlink:href="sph__bmw_8h.html" target="_top" xlink:title="BMW interface. ">
<polygon fill="white" stroke="black" points="1770.5,-224.5 1770.5,-243.5 1867.5,-243.5 1867.5,-224.5 1770.5,-224.5"/>
<text text-anchor="middle" x="1819" y="-231.5" font-family="Helvetica,sans-Serif" font-size="10.00">crypto/sph_bmw.h</text>
</a>
</g>
</g>
<!-- Node1&#45;&gt;Node32 -->
<g id="edge49" class="edge"><title>Node1&#45;&gt;Node32</title>
<path fill="none" stroke="midnightblue" d="M1177.22,-287.949C1256.86,-284.202 1526.45,-270.358 1760.25,-243.989"/>
<polygon fill="midnightblue" stroke="midnightblue" points="1760.76,-247.454 1770.3,-242.845 1759.97,-240.499 1760.76,-247.454"/>
</g>
<!-- Node33 -->
<g id="node34" class="node"><title>Node33</title>
<g id="a_node34"><a xlink:href="sph__groestl_8h.html" target="_top" xlink:title="Groestl interface. ">
<polygon fill="white" stroke="black" points="1530.5,-224.5 1530.5,-243.5 1635.5,-243.5 1635.5,-224.5 1530.5,-224.5"/>
<text text-anchor="middle" x="1583" y="-231.5" font-family="Helvetica,sans-Serif" font-size="10.00">crypto/sph_groestl.h</text>
</a>
</g>
</g>
<!-- Node1&#45;&gt;Node33 -->
<g id="edge52" class="edge"><title>Node1&#45;&gt;Node33</title>
<path fill="none" stroke="midnightblue" d="M1177.14,-286.314C1234.99,-279.565 1390.54,-261.204 1520,-244 1520.11,-243.986 1520.21,-243.972 1520.32,-243.958"/>
<polygon fill="midnightblue" stroke="midnightblue" points="1520.98,-247.401 1530.42,-242.59 1520.04,-240.464 1520.98,-247.401"/>
</g>
<!-- Node34 -->
<g id="node35" class="node"><title>Node34</title>
<g id="a_node35"><a xlink:href="sph__jh_8h.html" target="_top" xlink:title="JH interface. ">
<polygon fill="white" stroke="black" points="1112.5,-224.5 1112.5,-243.5 1195.5,-243.5 1195.5,-224.5 1112.5,-224.5"/>
<text text-anchor="middle" x="1154" y="-231.5" font-family="Helvetica,sans-Serif" font-size="10.00">crypto/sph_jh.h</text>
</a>
</g>
</g>
<!-- Node1&#45;&gt;Node34 -->
<g id="edge55" class="edge"><title>Node1&#45;&gt;Node34</title>
<path fill="none" stroke="midnightblue" d="M1154,-280.083C1154,-273.006 1154,-262.861 1154,-253.986"/>
<polygon fill="midnightblue" stroke="midnightblue" points="1157.5,-253.751 1154,-243.751 1150.5,-253.751 1157.5,-253.751"/>
</g>
<!-- Node35 -->
<g id="node36" class="node"><title>Node35</title>
<g id="a_node36"><a xlink:href="sph__keccak_8h.html" target="_top" xlink:title="Keccak interface. ">
<polygon fill="white" stroke="black" points="1213.5,-224.5 1213.5,-243.5 1320.5,-243.5 1320.5,-224.5 1213.5,-224.5"/>
<text text-anchor="middle" x="1267" y="-231.5" font-family="Helvetica,sans-Serif" font-size="10.00">crypto/sph_keccak.h</text>
</a>
</g>
</g>
<!-- Node1&#45;&gt;Node35 -->
<g id="edge58" class="edge"><title>Node1&#45;&gt;Node35</title>
<path fill="none" stroke="midnightblue" d="M1171.91,-280.444C1190.25,-271.675 1219.01,-257.935 1240.09,-247.858"/>
<polygon fill="midnightblue" stroke="midnightblue" points="1241.67,-250.986 1249.18,-243.516 1238.65,-244.67 1241.67,-250.986"/>
</g>
<!-- Node36 -->
<g id="node37" class="node"><title>Node36</title>
<g id="a_node37"><a xlink:href="sph__skein_8h.html" target="_top" xlink:title="Skein interface. ">
<polygon fill="white" stroke="black" points="1338.5,-224.5 1338.5,-243.5 1437.5,-243.5 1437.5,-224.5 1338.5,-224.5"/>
<text text-anchor="middle" x="1388" y="-231.5" font-family="Helvetica,sans-Serif" font-size="10.00">crypto/sph_skein.h</text>
</a>
</g>
</g>
<!-- Node1&#45;&gt;Node36 -->
<g id="edge61" class="edge"><title>Node1&#45;&gt;Node36</title>
<path fill="none" stroke="midnightblue" d="M1177.29,-283.625C1215.36,-274.84 1291.63,-257.24 1341.21,-245.799"/>
<polygon fill="midnightblue" stroke="midnightblue" points="1342.09,-249.186 1351.05,-243.527 1340.52,-242.365 1342.09,-249.186"/>
</g>
<!-- Node37 -->
<g id="node38" class="node"><title>Node37</title>
<g id="a_node38"><a xlink:href="sph__luffa_8h.html" target="_top" xlink:title="Luffa interface. ">
<polygon fill="white" stroke="black" points="622.5,-224.5 622.5,-243.5 717.5,-243.5 717.5,-224.5 622.5,-224.5"/>
<text text-anchor="middle" x="670" y="-231.5" font-family="Helvetica,sans-Serif" font-size="10.00">crypto/sph_luffa.h</text>
</a>
</g>
</g>
<!-- Node1&#45;&gt;Node37 -->
<g id="edge64" class="edge"><title>Node1&#45;&gt;Node37</title>
<path fill="none" stroke="midnightblue" d="M1130.81,-286.98C1067.85,-281.407 888.294,-264.918 727.625,-244.016"/>
<polygon fill="midnightblue" stroke="midnightblue" points="727.929,-240.526 717.559,-242.697 727.02,-247.467 727.929,-240.526"/>
</g>
<!-- Node38 -->
<g id="node39" class="node"><title>Node38</title>
<g id="a_node39"><a xlink:href="sph__cubehash_8h.html" target="_top" xlink:title="CubeHash interface. ">
<polygon fill="white" stroke="black" points="736,-224.5 736,-243.5 854,-243.5 854,-224.5 736,-224.5"/>
<text text-anchor="middle" x="795" y="-231.5" font-family="Helvetica,sans-Serif" font-size="10.00">crypto/sph_cubehash.h</text>
</a>
</g>
</g>
<!-- Node1&#45;&gt;Node38 -->
<g id="edge67" class="edge"><title>Node1&#45;&gt;Node38</title>
<path fill="none" stroke="midnightblue" d="M1131,-285.54C1077.57,-277.504 943.428,-257.326 861.713,-245.035"/>
<polygon fill="midnightblue" stroke="midnightblue" points="861.935,-241.529 851.526,-243.502 860.894,-248.451 861.935,-241.529"/>
</g>
<!-- Node39 -->
<g id="node40" class="node"><title>Node39</title>
<g id="a_node40"><a xlink:href="sph__shavite_8h.html" target="_top" xlink:title="SHAvite&#45;3 interface. ">
<polygon fill="white" stroke="black" points="872.5,-224.5 872.5,-243.5 979.5,-243.5 979.5,-224.5 872.5,-224.5"/>
<text text-anchor="middle" x="926" y="-231.5" font-family="Helvetica,sans-Serif" font-size="10.00">crypto/sph_shavite.h</text>
</a>
</g>
</g>
<!-- Node1&#45;&gt;Node39 -->
<g id="edge70" class="edge"><title>Node1&#45;&gt;Node39</title>
<path fill="none" stroke="midnightblue" d="M1130.88,-283.525C1093.79,-274.739 1020.25,-257.322 972.112,-245.921"/>
<polygon fill="midnightblue" stroke="midnightblue" points="972.786,-242.484 962.248,-243.585 971.172,-249.296 972.786,-242.484"/>
</g>
<!-- Node40 -->
<g id="node41" class="node"><title>Node40</title>
<g id="a_node41"><a xlink:href="sph__simd_8h.html" target="_top" xlink:title="SIMD interface. ">
<polygon fill="white" stroke="black" points="997.5,-224.5 997.5,-243.5 1094.5,-243.5 1094.5,-224.5 997.5,-224.5"/>
<text text-anchor="middle" x="1046" y="-231.5" font-family="Helvetica,sans-Serif" font-size="10.00">crypto/sph_simd.h</text>
</a>
</g>
</g>
<!-- Node1&#45;&gt;Node40 -->
<g id="edge73" class="edge"><title>Node1&#45;&gt;Node40</title>
<path fill="none" stroke="midnightblue" d="M1136.65,-280.324C1119.33,-271.664 1092.48,-258.242 1072.5,-248.249"/>
<polygon fill="midnightblue" stroke="midnightblue" points="1073.82,-244.996 1063.31,-243.655 1070.69,-251.257 1073.82,-244.996"/>
</g>
<!-- Node41 -->
<g id="node42" class="node"><title>Node41</title>
<g id="a_node42"><a xlink:href="sph__echo_8h.html" target="_top" xlink:title="ECHO interface. ">
<polygon fill="white" stroke="black" points="1885.5,-224.5 1885.5,-243.5 1982.5,-243.5 1982.5,-224.5 1885.5,-224.5"/>
<text text-anchor="middle" x="1934" y="-231.5" font-family="Helvetica,sans-Serif" font-size="10.00">crypto/sph_echo.h</text>
</a>
</g>
</g>
<!-- Node1&#45;&gt;Node41 -->
<g id="edge76" class="edge"><title>Node1&#45;&gt;Node41</title>
<path fill="none" stroke="midnightblue" d="M1177.13,-288.33C1266,-285.596 1594.12,-274.017 1875.33,-243.964"/>
<polygon fill="midnightblue" stroke="midnightblue" points="1875.74,-247.439 1885.31,-242.887 1874.99,-240.48 1875.74,-247.439"/>
</g>
<!-- Node3 -->
<g id="node4" class="node"><title>Node3</title>
<polygon fill="white" stroke="#bfbfbf" points="432.5,-0.5 432.5,-19.5 481.5,-19.5 481.5,-0.5 432.5,-0.5"/>
<text text-anchor="middle" x="457" y="-7.5" font-family="Helvetica,sans-Serif" font-size="10.00">stdint.h</text>
</g>
<!-- Node2&#45;&gt;Node3 -->
<g id="edge3" class="edge"><title>Node2&#45;&gt;Node3</title>
<path fill="none" stroke="midnightblue" d="M1363.24,-168.147C1351.74,-153.794 1326.91,-125.68 1299,-112 1152.92,-40.4031 631.585,-17.1529 491.735,-12.133"/>
<polygon fill="midnightblue" stroke="midnightblue" points="491.711,-8.63007 481.594,-11.7772 491.466,-15.6258 491.711,-8.63007"/>
</g>
<!-- Node4 -->
<g id="node5" class="node"><title>Node4</title>
<polygon fill="white" stroke="#bfbfbf" points="1346,-112.5 1346,-131.5 1394,-131.5 1394,-112.5 1346,-112.5"/>
<text text-anchor="middle" x="1370" y="-119.5" font-family="Helvetica,sans-Serif" font-size="10.00">stdlib.h</text>
</g>
<!-- Node2&#45;&gt;Node4 -->
<g id="edge4" class="edge"><title>Node2&#45;&gt;Node4</title>
<path fill="none" stroke="midnightblue" d="M1370,-168.083C1370,-161.006 1370,-150.861 1370,-141.986"/>
<polygon fill="midnightblue" stroke="midnightblue" points="1373.5,-141.751 1370,-131.751 1366.5,-141.751 1373.5,-141.751"/>
</g>
<!-- Node5&#45;&gt;Node3 -->
<g id="edge6" class="edge"><title>Node5&#45;&gt;Node3</title>
<path fill="none" stroke="midnightblue" d="M1473.31,-168.287C1460.31,-154.136 1432.5,-126.305 1403,-112 1294.68,-59.4771 1257.25,-72.4547 1138,-56 891.968,-22.051 592.274,-13.5274 491.742,-11.5531"/>
<polygon fill="midnightblue" stroke="midnightblue" points="491.622,-8.05032 481.558,-11.3624 491.491,-15.0491 491.622,-8.05032"/>
</g>
<!-- Node5&#45;&gt;Node4 -->
<g id="edge7" class="edge"><title>Node5&#45;&gt;Node4</title>
<path fill="none" stroke="midnightblue" d="M1463.17,-168.324C1445.28,-159.625 1417.52,-146.12 1396.95,-136.113"/>
<polygon fill="midnightblue" stroke="midnightblue" points="1398.31,-132.882 1387.79,-131.655 1395.25,-139.177 1398.31,-132.882"/>
</g>
<!-- Node6&#45;&gt;Node3 -->
<g id="edge11" class="edge"><title>Node6&#45;&gt;Node3</title>
<path fill="none" stroke="midnightblue" d="M1089.04,-168.318C1088.6,-154.213 1085.54,-126.446 1069,-112 981.697,-35.7488 608.437,-16.3179 491.901,-12.0656"/>
<polygon fill="midnightblue" stroke="midnightblue" points="491.87,-8.56246 481.754,-11.7104 491.625,-15.5582 491.87,-8.56246"/>
</g>
<!-- Node6&#45;&gt;Node4 -->
<g id="edge10" class="edge"><title>Node6&#45;&gt;Node4</title>
<path fill="none" stroke="midnightblue" d="M1121.51,-170.753C1175.12,-160.45 1281.55,-139.997 1336.07,-129.519"/>
<polygon fill="midnightblue" stroke="midnightblue" points="1336.78,-132.948 1345.94,-127.623 1335.46,-126.073 1336.78,-132.948"/>
</g>
<!-- Node7 -->
<g id="node8" class="node"><title>Node7</title>
<polygon fill="white" stroke="#bfbfbf" points="723,-112.5 723,-131.5 775,-131.5 775,-112.5 723,-112.5"/>
<text text-anchor="middle" x="749" y="-119.5" font-family="Helvetica,sans-Serif" font-size="10.00">assert.h</text>
</g>
<!-- Node6&#45;&gt;Node7 -->
<g id="edge9" class="edge"><title>Node6&#45;&gt;Node7</title>
<path fill="none" stroke="midnightblue" d="M1056.48,-169.826C1053.28,-169.182 1050.08,-168.562 1047,-168 953.189,-150.882 841.912,-135.33 785.586,-127.79"/>
<polygon fill="midnightblue" stroke="midnightblue" points="785.774,-124.284 775.4,-126.434 784.85,-131.223 785.774,-124.284"/>
</g>
<!-- Node8 -->
<g id="node9" class="node"><title>Node8</title>
<polygon fill="white" stroke="#bfbfbf" points="525.5,-112.5 525.5,-131.5 574.5,-131.5 574.5,-112.5 525.5,-112.5"/>
<text text-anchor="middle" x="550" y="-119.5" font-family="Helvetica,sans-Serif" font-size="10.00">string.h</text>
</g>
<!-- Node6&#45;&gt;Node8 -->
<g id="edge12" class="edge"><title>Node6&#45;&gt;Node8</title>
<path fill="none" stroke="midnightblue" d="M1056.05,-169.547C1053,-168.975 1049.95,-168.448 1047,-168 874.647,-141.829 666.189,-128.998 584.861,-124.705"/>
<polygon fill="midnightblue" stroke="midnightblue" points="584.858,-121.2 574.691,-124.178 584.496,-128.191 584.858,-121.2"/>
</g>
<!-- Node9 -->
<g id="node10" class="node"><title>Node9</title>
<polygon fill="white" stroke="#bfbfbf" points="1013.5,-112.5 1013.5,-131.5 1060.5,-131.5 1060.5,-112.5 1013.5,-112.5"/>
<text text-anchor="middle" x="1037" y="-119.5" font-family="Helvetica,sans-Serif" font-size="10.00">iterator</text>
</g>
<!-- Node6&#45;&gt;Node9 -->
<g id="edge13" class="edge"><title>Node6&#45;&gt;Node9</title>
<path fill="none" stroke="midnightblue" d="M1080.41,-168.083C1072.84,-160.22 1061.62,-148.569 1052.49,-139.081"/>
<polygon fill="midnightblue" stroke="midnightblue" points="1054.88,-136.527 1045.43,-131.751 1049.84,-141.382 1054.88,-136.527"/>
</g>
<!-- Node10&#45;&gt;Node3 -->
<g id="edge27" class="edge"><title>Node10&#45;&gt;Node3</title>
<path fill="none" stroke="midnightblue" d="M532.526,-224.418C525.018,-198.629 501.51,-119.676 477,-56 473.502,-46.9118 469.157,-37.0021 465.412,-28.8013"/>
<polygon fill="midnightblue" stroke="midnightblue" points="468.486,-27.1111 461.097,-19.5179 462.138,-30.0615 468.486,-27.1111"/>
</g>
<!-- Node10&#45;&gt;Node6 -->
<g id="edge32" class="edge"><title>Node10&#45;&gt;Node6</title>
<path fill="none" stroke="midnightblue" d="M565.902,-226.311C570.609,-225.439 575.422,-224.632 580,-224 782.994,-195.98 839.235,-217.19 1046.09,-187.927"/>
<polygon fill="midnightblue" stroke="midnightblue" points="1046.66,-191.382 1056.06,-186.495 1045.66,-184.453 1046.66,-191.382"/>
</g>
<!-- Node10&#45;&gt;Node7 -->
<g id="edge20" class="edge"><title>Node10&#45;&gt;Node7</title>
<path fill="none" stroke="midnightblue" d="M565.626,-227.682C617.465,-218.426 718.062,-199.269 730,-188 742.547,-176.155 746.953,-156.528 748.428,-141.934"/>
<polygon fill="midnightblue" stroke="midnightblue" points="751.946,-141.755 749.082,-131.555 744.96,-141.315 751.946,-141.755"/>
</g>
<!-- Node10&#45;&gt;Node8 -->
<g id="edge29" class="edge"><title>Node10&#45;&gt;Node8</title>
<path fill="none" stroke="midnightblue" d="M536.177,-224.368C538.598,-206.617 544.182,-165.666 547.464,-141.597"/>
<polygon fill="midnightblue" stroke="midnightblue" points="550.945,-141.973 548.828,-131.591 544.009,-141.027 550.945,-141.973"/>
</g>
<!-- Node11 -->
<g id="node12" class="node"><title>Node11</title>
<g id="a_node12"><a xlink:href="endian_8h.html" target="_top" xlink:title="compat/endian.h">
<polygon fill="white" stroke="black" points="334.5,-112.5 334.5,-131.5 423.5,-131.5 423.5,-112.5 334.5,-112.5"/>
<text text-anchor="middle" x="379" y="-119.5" font-family="Helvetica,sans-Serif" font-size="10.00">compat/endian.h</text>
</a>
</g>
</g>
<!-- Node10&#45;&gt;Node11 -->
<g id="edge15" class="edge"><title>Node10&#45;&gt;Node11</title>
<path fill="none" stroke="midnightblue" d="M522.759,-224.368C496.103,-205.573 432.562,-160.768 399.611,-137.533"/>
<polygon fill="midnightblue" stroke="midnightblue" points="401.374,-134.494 391.184,-131.591 397.34,-140.215 401.374,-134.494"/>
</g>
<!-- Node13 -->
<g id="node14" class="node"><title>Node13</title>
<polygon fill="white" stroke="#bfbfbf" points="777,-168.5 777,-187.5 833,-187.5 833,-168.5 777,-168.5"/>
<text text-anchor="middle" x="805" y="-175.5" font-family="Helvetica,sans-Serif" font-size="10.00">algorithm</text>
</g>
<!-- Node10&#45;&gt;Node13 -->
<g id="edge19" class="edge"><title>Node10&#45;&gt;Node13</title>
<path fill="none" stroke="midnightblue" d="M565.983,-226.79C570.679,-225.853 575.467,-224.899 580,-224 661.308,-207.872 681.804,-204.685 763,-188 764.274,-187.738 765.569,-187.47 766.876,-187.199"/>
<polygon fill="midnightblue" stroke="midnightblue" points="767.935,-190.553 777,-185.069 766.493,-183.703 767.935,-190.553"/>
</g>
<!-- Node14 -->
<g id="node15" class="node"><title>Node14</title>
<polygon fill="white" stroke="#bfbfbf" points="850.5,-168.5 850.5,-187.5 879.5,-187.5 879.5,-168.5 850.5,-168.5"/>
<text text-anchor="middle" x="865" y="-175.5" font-family="Helvetica,sans-Serif" font-size="10.00">ios</text>
</g>
<!-- Node10&#45;&gt;Node14 -->
<g id="edge21" class="edge"><title>Node10&#45;&gt;Node14</title>
<path fill="none" stroke="midnightblue" d="M565.94,-226.557C570.642,-225.652 575.443,-224.769 580,-224 692.307,-205.042 725.669,-216.089 840.555,-187.549"/>
<polygon fill="midnightblue" stroke="midnightblue" points="841.606,-190.893 850.441,-185.046 839.888,-184.107 841.606,-190.893"/>
</g>
<!-- Node15 -->
<g id="node16" class="node"><title>Node15</title>
<polygon fill="white" stroke="#bfbfbf" points="898,-168.5 898,-187.5 938,-187.5 938,-168.5 898,-168.5"/>
<text text-anchor="middle" x="918" y="-175.5" font-family="Helvetica,sans-Serif" font-size="10.00">limits</text>
</g>
<!-- Node10&#45;&gt;Node15 -->
<g id="edge22" class="edge"><title>Node10&#45;&gt;Node15</title>
<path fill="none" stroke="midnightblue" d="M565.926,-226.472C570.63,-225.579 575.436,-224.722 580,-224 716.128,-202.468 753.034,-215.908 888,-188 888.1,-187.979 888.2,-187.959 888.3,-187.938"/>
<polygon fill="midnightblue" stroke="midnightblue" points="888.925,-191.389 897.79,-185.587 887.242,-184.594 888.925,-191.389"/>
</g>
<!-- Node16 -->
<g id="node17" class="node"><title>Node16</title>
<polygon fill="white" stroke="#bfbfbf" points="956.5,-168.5 956.5,-187.5 985.5,-187.5 985.5,-168.5 956.5,-168.5"/>
<text text-anchor="middle" x="971" y="-175.5" font-family="Helvetica,sans-Serif" font-size="10.00">list</text>
</g>
<!-- Node10&#45;&gt;Node16 -->
<g id="edge23" class="edge"><title>Node10&#45;&gt;Node16</title>
<path fill="none" stroke="midnightblue" d="M565.914,-226.396C570.62,-225.513 575.429,-224.68 580,-224 738.946,-200.37 785.546,-224.124 946.696,-187.408"/>
<polygon fill="midnightblue" stroke="midnightblue" points="947.514,-190.811 956.464,-185.141 945.932,-183.992 947.514,-190.811"/>
</g>
<!-- Node17 -->
<g id="node18" class="node"><title>Node17</title>
<polygon fill="white" stroke="#bfbfbf" points="1003.5,-168.5 1003.5,-187.5 1038.5,-187.5 1038.5,-168.5 1003.5,-168.5"/>
<text text-anchor="middle" x="1021" y="-175.5" font-family="Helvetica,sans-Serif" font-size="10.00">map</text>
</g>
<!-- Node10&#45;&gt;Node17 -->
<g id="edge24" class="edge"><title>Node10&#45;&gt;Node17</title>
<path fill="none" stroke="midnightblue" d="M565.908,-226.351C570.614,-225.474 575.426,-224.654 580,-224 759.62,-198.309 811.335,-224.507 993.537,-187.556"/>
<polygon fill="midnightblue" stroke="midnightblue" points="994.358,-190.961 1003.44,-185.511 992.943,-184.105 994.358,-190.961"/>
</g>
<!-- Node18 -->
<g id="node19" class="node"><title>Node18</title>
<polygon fill="white" stroke="#bfbfbf" points="563,-168.5 563,-187.5 615,-187.5 615,-168.5 563,-168.5"/>
<text text-anchor="middle" x="589" y="-175.5" font-family="Helvetica,sans-Serif" font-size="10.00">memory</text>
</g>
<!-- Node10&#45;&gt;Node18 -->
<g id="edge25" class="edge"><title>Node10&#45;&gt;Node18</title>
<path fill="none" stroke="midnightblue" d="M543.917,-224.083C551.78,-216.22 563.431,-204.569 572.919,-195.081"/>
<polygon fill="midnightblue" stroke="midnightblue" points="575.653,-197.297 580.249,-187.751 570.703,-192.347 575.653,-197.297"/>
</g>
<!-- Node19 -->
<g id="node20" class="node"><title>Node19</title>
<polygon fill="white" stroke="#bfbfbf" points="633,-168.5 633,-187.5 663,-187.5 663,-168.5 633,-168.5"/>
<text text-anchor="middle" x="648" y="-175.5" font-family="Helvetica,sans-Serif" font-size="10.00">set</text>
</g>
<!-- Node10&#45;&gt;Node19 -->
<g id="edge26" class="edge"><title>Node10&#45;&gt;Node19</title>
<path fill="none" stroke="midnightblue" d="M552.905,-224.444C572.01,-215.314 602.391,-200.796 623.658,-190.632"/>
<polygon fill="midnightblue" stroke="midnightblue" points="625.202,-193.774 632.715,-186.304 622.184,-187.458 625.202,-193.774"/>
</g>
<!-- Node20 -->
<g id="node21" class="node"><title>Node20</title>
<polygon fill="white" stroke="#bfbfbf" points="389.5,-168.5 389.5,-187.5 430.5,-187.5 430.5,-168.5 389.5,-168.5"/>
<text text-anchor="middle" x="410" y="-175.5" font-family="Helvetica,sans-Serif" font-size="10.00">string</text>
</g>
<!-- Node10&#45;&gt;Node20 -->
<g id="edge28" class="edge"><title>Node10&#45;&gt;Node20</title>
<path fill="none" stroke="midnightblue" d="M515.193,-224.444C494.713,-215.596 462.517,-201.687 439.135,-191.586"/>
<polygon fill="midnightblue" stroke="midnightblue" points="440.282,-188.269 429.714,-187.516 437.506,-194.695 440.282,-188.269"/>
</g>
<!-- Node21 -->
<g id="node22" class="node"><title>Node21</title>
<polygon fill="white" stroke="#bfbfbf" points="681,-168.5 681,-187.5 721,-187.5 721,-168.5 681,-168.5"/>
<text text-anchor="middle" x="701" y="-175.5" font-family="Helvetica,sans-Serif" font-size="10.00">utility</text>
</g>
<!-- Node10&#45;&gt;Node21 -->
<g id="edge30" class="edge"><title>Node10&#45;&gt;Node21</title>
<path fill="none" stroke="midnightblue" d="M561.303,-224.444C591.036,-214.771 639.364,-199.05 670.665,-188.868"/>
<polygon fill="midnightblue" stroke="midnightblue" points="672.149,-192.066 680.576,-185.644 669.984,-185.409 672.149,-192.066"/>
</g>
<!-- Node10&#45;&gt;Node22 -->
<g id="edge31" class="edge"><title>Node10&#45;&gt;Node22</title>
<path fill="none" stroke="midnightblue" d="M505.528,-224.444C471.498,-214.564 415.731,-198.373 380.76,-188.221"/>
<polygon fill="midnightblue" stroke="midnightblue" points="381.633,-184.83 371.053,-185.403 379.681,-191.552 381.633,-184.83"/>
</g>
<!-- Node11&#45;&gt;Node3 -->
<g id="edge16" class="edge"><title>Node11&#45;&gt;Node3</title>
<path fill="none" stroke="midnightblue" d="M371.821,-112.395C361.859,-99.3442 346.315,-74.1468 358,-56 372.093,-34.113 399.725,-22.7486 422.222,-16.9211"/>
<polygon fill="midnightblue" stroke="midnightblue" points="423.184,-20.2908 432.131,-14.6153 421.598,-13.473 423.184,-20.2908"/>
</g>
<!-- Node12 -->
<g id="node13" class="node"><title>Node12</title>
<g id="a_node13"><a xlink:href="byteswap_8h.html" target="_top" xlink:title="compat/byteswap.h">
<polygon fill="white" stroke="black" points="367,-56.5 367,-75.5 469,-75.5 469,-56.5 367,-56.5"/>
<text text-anchor="middle" x="418" y="-63.5" font-family="Helvetica,sans-Serif" font-size="10.00">compat/byteswap.h</text>
</a>
</g>
</g>
<!-- Node11&#45;&gt;Node12 -->
<g id="edge17" class="edge"><title>Node11&#45;&gt;Node12</title>
<path fill="none" stroke="midnightblue" d="M385.44,-112.083C390.949,-104.455 399.031,-93.2645 405.765,-83.9408"/>
<polygon fill="midnightblue" stroke="midnightblue" points="408.662,-85.9071 411.68,-75.7511 402.987,-81.8087 408.662,-85.9071"/>
</g>
<!-- Node12&#45;&gt;Node3 -->
<g id="edge18" class="edge"><title>Node12&#45;&gt;Node3</title>
<path fill="none" stroke="midnightblue" d="M424.44,-56.083C429.949,-48.4554 438.031,-37.2645 444.765,-27.9408"/>
<polygon fill="midnightblue" stroke="midnightblue" points="447.662,-29.9071 450.68,-19.7511 441.987,-25.8087 447.662,-29.9071"/>
</g>
<!-- Node23&#45;&gt;Node3 -->
<g id="edge37" class="edge"><title>Node23&#45;&gt;Node3</title>
<path fill="none" stroke="midnightblue" d="M267.962,-233.581C206.803,-233.77 69.6894,-227.729 106,-168 174.747,-54.9137 347.518,-22.8231 421.968,-14.0995"/>
<polygon fill="midnightblue" stroke="midnightblue" points="422.657,-17.5451 432.215,-12.9751 421.893,-10.5868 422.657,-17.5451"/>
</g>
<!-- Node23&#45;&gt;Node7 -->
<g id="edge34" class="edge"><title>Node23&#45;&gt;Node7</title>
<path fill="none" stroke="midnightblue" d="M296.152,-224.181C296.92,-209.879 300.69,-181.834 318,-168 333.379,-155.71 611.815,-133.428 712.8,-125.715"/>
<polygon fill="midnightblue" stroke="midnightblue" points="713.129,-129.2 722.835,-124.952 712.598,-122.22 713.129,-129.2"/>
</g>
<!-- Node23&#45;&gt;Node20 -->
<g id="edge38" class="edge"><title>Node23&#45;&gt;Node20</title>
<path fill="none" stroke="midnightblue" d="M314.064,-224.444C332.575,-215.675 361.581,-201.935 382.855,-191.858"/>
<polygon fill="midnightblue" stroke="midnightblue" points="384.482,-194.96 392.021,-187.516 381.485,-188.634 384.482,-194.96"/>
</g>
<!-- Node23&#45;&gt;Node22 -->
<g id="edge39" class="edge"><title>Node23&#45;&gt;Node22</title>
<path fill="none" stroke="midnightblue" d="M304.752,-224.083C312.47,-216.22 323.905,-204.569 333.217,-195.081"/>
<polygon fill="midnightblue" stroke="midnightblue" points="335.904,-197.34 340.411,-187.751 330.908,-192.436 335.904,-197.34"/>
</g>
<!-- Node24 -->
<g id="node25" class="node"><title>Node24</title>
<polygon fill="white" stroke="#bfbfbf" points="115,-168.5 115,-187.5 161,-187.5 161,-168.5 115,-168.5"/>
<text text-anchor="middle" x="138" y="-175.5" font-family="Helvetica,sans-Serif" font-size="10.00">cstring</text>
</g>
<!-- Node23&#45;&gt;Node24 -->
<g id="edge35" class="edge"><title>Node23&#45;&gt;Node24</title>
<path fill="none" stroke="midnightblue" d="M270.964,-224.444C243.837,-215.172 200.447,-200.343 170.657,-190.161"/>
<polygon fill="midnightblue" stroke="midnightblue" points="171.714,-186.824 161.119,-186.902 169.45,-193.448 171.714,-186.824"/>
</g>
<!-- Node23&#45;&gt;Node25 -->
<g id="edge36" class="edge"><title>Node23&#45;&gt;Node25</title>
<path fill="none" stroke="midnightblue" d="M267.833,-227.341C225.525,-218.835 143.056,-202.233 73,-188 71.5673,-187.709 70.1085,-187.412 68.635,-187.112"/>
<polygon fill="midnightblue" stroke="midnightblue" points="69.3175,-183.679 58.8198,-185.111 67.9188,-190.538 69.3175,-183.679"/>
</g>
<!-- Node26 -->
<g id="node27" class="node"><title>Node26</title>
<g id="a_node27"><a xlink:href="common_8h.html" target="_top" xlink:title="crypto/common.h">
<polygon fill="white" stroke="black" points="179,-168.5 179,-187.5 271,-187.5 271,-168.5 179,-168.5"/>
<text text-anchor="middle" x="225" y="-175.5" font-family="Helvetica,sans-Serif" font-size="10.00">crypto/common.h</text>
</a>
</g>
</g>
<!-- Node23&#45;&gt;Node26 -->
<g id="edge40" class="edge"><title>Node23&#45;&gt;Node26</title>
<path fill="none" stroke="midnightblue" d="M284.593,-224.324C273.891,-216.185 257.659,-203.839 244.837,-194.087"/>
<polygon fill="midnightblue" stroke="midnightblue" points="246.693,-191.102 236.615,-187.834 242.456,-196.673 246.693,-191.102"/>
</g>
<!-- Node26&#45;&gt;Node3 -->
<g id="edge41" class="edge"><title>Node26&#45;&gt;Node3</title>
<path fill="none" stroke="midnightblue" d="M232.013,-168.254C249.736,-146.63 298.584,-89.9528 350,-56 372.604,-41.0734 400.969,-29.4156 422.814,-21.7091"/>
<polygon fill="midnightblue" stroke="midnightblue" points="424.019,-24.9962 432.348,-18.4487 421.754,-18.3728 424.019,-24.9962"/>
</g>
<!-- Node26&#45;&gt;Node8 -->
<g id="edge42" class="edge"><title>Node26&#45;&gt;Node8</title>
<path fill="none" stroke="midnightblue" d="M271.219,-169.32C337.183,-158.36 456.828,-138.481 515.575,-128.72"/>
<polygon fill="midnightblue" stroke="midnightblue" points="516.183,-132.167 525.474,-127.075 515.035,-125.262 516.183,-132.167"/>
</g>
<!-- Node26&#45;&gt;Node11 -->
<g id="edge43" class="edge"><title>Node26&#45;&gt;Node11</title>
<path fill="none" stroke="midnightblue" d="M249.402,-168.444C275.197,-159.399 316.077,-145.064 345.018,-134.916"/>
<polygon fill="midnightblue" stroke="midnightblue" points="346.434,-138.128 354.712,-131.516 344.118,-131.523 346.434,-138.128"/>
</g>
<!-- Node29 -->
<g id="node30" class="node"><title>Node29</title>
<polygon fill="white" stroke="#bfbfbf" points="1162,-168.5 1162,-187.5 1214,-187.5 1214,-168.5 1162,-168.5"/>
<text text-anchor="middle" x="1188" y="-175.5" font-family="Helvetica,sans-Serif" font-size="10.00">stddef.h</text>
</g>
<!-- Node28&#45;&gt;Node29 -->
<g id="edge46" class="edge"><title>Node28&#45;&gt;Node29</title>
<path fill="none" stroke="midnightblue" d="M1653.46,-225.2C1650.26,-224.772 1647.09,-224.367 1644,-224 1460.8,-202.218 1409.91,-218.884 1224.36,-187.962"/>
<polygon fill="midnightblue" stroke="midnightblue" points="1224.72,-184.472 1214.27,-186.256 1223.55,-191.374 1224.72,-184.472"/>
</g>
<!-- Node30 -->
<g id="node31" class="node"><title>Node30</title>
<g id="a_node31"><a xlink:href="sph__types_8h.html" target="_top" xlink:title="Basic type definitions. ">
<polygon fill="white" stroke="black" points="1232,-168.5 1232,-187.5 1302,-187.5 1302,-168.5 1232,-168.5"/>
<text text-anchor="middle" x="1267" y="-175.5" font-family="Helvetica,sans-Serif" font-size="10.00">sph_types.h</text>
</a>
</g>
</g>
<!-- Node28&#45;&gt;Node30 -->
<g id="edge47" class="edge"><title>Node28&#45;&gt;Node30</title>
<path fill="none" stroke="midnightblue" d="M1653.45,-225.281C1650.25,-224.833 1647.08,-224.402 1644,-224 1499.56,-205.184 1459.78,-210.688 1311.91,-188.006"/>
<polygon fill="midnightblue" stroke="midnightblue" points="1312.43,-184.545 1302.01,-186.471 1311.36,-191.462 1312.43,-184.545"/>
</g>
<!-- Node31 -->
<g id="node32" class="node"><title>Node31</title>
<polygon fill="white" stroke="#bfbfbf" points="1242,-112.5 1242,-131.5 1290,-131.5 1290,-112.5 1242,-112.5"/>
<text text-anchor="middle" x="1266" y="-119.5" font-family="Helvetica,sans-Serif" font-size="10.00">limits.h</text>
</g>
<!-- Node30&#45;&gt;Node31 -->
<g id="edge48" class="edge"><title>Node30&#45;&gt;Node31</title>
<path fill="none" stroke="midnightblue" d="M1266.83,-168.083C1266.7,-161.006 1266.52,-150.861 1266.35,-141.986"/>
<polygon fill="midnightblue" stroke="midnightblue" points="1269.85,-141.685 1266.16,-131.751 1262.85,-141.814 1269.85,-141.685"/>
</g>
<!-- Node32&#45;&gt;Node29 -->
<g id="edge50" class="edge"><title>Node32&#45;&gt;Node29</title>
<path fill="none" stroke="midnightblue" d="M1770.31,-225.129C1767.16,-224.718 1764.04,-224.337 1761,-224 1526.07,-197.963 1461.37,-225.237 1224.23,-187.899"/>
<polygon fill="midnightblue" stroke="midnightblue" points="1224.69,-184.429 1214.26,-186.309 1223.59,-191.341 1224.69,-184.429"/>
</g>
<!-- Node32&#45;&gt;Node30 -->
<g id="edge51" class="edge"><title>Node32&#45;&gt;Node30</title>
<path fill="none" stroke="midnightblue" d="M1770.3,-225.175C1767.16,-224.753 1764.04,-224.357 1761,-224 1565.04,-200.99 1511.42,-215.65 1312.67,-188.076"/>
<polygon fill="midnightblue" stroke="midnightblue" points="1312.87,-184.57 1302.48,-186.643 1311.89,-191.502 1312.87,-184.57"/>
</g>
<!-- Node33&#45;&gt;Node29 -->
<g id="edge53" class="edge"><title>Node33&#45;&gt;Node29</title>
<path fill="none" stroke="midnightblue" d="M1530.42,-225.403C1526.89,-224.92 1523.4,-224.448 1520,-224 1391.4,-207.022 1355.41,-212.33 1224.31,-188.035"/>
<polygon fill="midnightblue" stroke="midnightblue" points="1224.76,-184.558 1214.29,-186.154 1223.47,-191.438 1224.76,-184.558"/>
</g>
<!-- Node33&#45;&gt;Node30 -->
<g id="edge54" class="edge"><title>Node33&#45;&gt;Node30</title>
<path fill="none" stroke="midnightblue" d="M1530.5,-224.917C1477.79,-216.666 1393.99,-203.183 1312.03,-188.135"/>
<polygon fill="midnightblue" stroke="midnightblue" points="1312.51,-184.665 1302.04,-186.292 1311.24,-191.549 1312.51,-184.665"/>
</g>
<!-- Node34&#45;&gt;Node29 -->
<g id="edge56" class="edge"><title>Node34&#45;&gt;Node29</title>
<path fill="none" stroke="midnightblue" d="M1159.61,-224.083C1164.37,-216.534 1171.32,-205.495 1177.15,-196.23"/>
<polygon fill="midnightblue" stroke="midnightblue" points="1180.12,-198.078 1182.49,-187.751 1174.2,-194.349 1180.12,-198.078"/>
</g>
<!-- Node34&#45;&gt;Node30 -->
<g id="edge57" class="edge"><title>Node34&#45;&gt;Node30</title>
<path fill="none" stroke="midnightblue" d="M1171.91,-224.444C1190.25,-215.675 1219.01,-201.935 1240.09,-191.858"/>
<polygon fill="midnightblue" stroke="midnightblue" points="1241.67,-194.986 1249.18,-187.516 1238.65,-188.67 1241.67,-194.986"/>
</g>
<!-- Node35&#45;&gt;Node29 -->
<g id="edge59" class="edge"><title>Node35&#45;&gt;Node29</title>
<path fill="none" stroke="midnightblue" d="M1254.31,-224.324C1242.1,-215.979 1223.42,-203.212 1209,-193.352"/>
<polygon fill="midnightblue" stroke="midnightblue" points="1210.89,-190.408 1200.66,-187.655 1206.94,-196.187 1210.89,-190.408"/>
</g>
<!-- Node35&#45;&gt;Node30 -->
<g id="edge60" class="edge"><title>Node35&#45;&gt;Node30</title>
<path fill="none" stroke="midnightblue" d="M1267,-224.083C1267,-217.006 1267,-206.861 1267,-197.986"/>
<polygon fill="midnightblue" stroke="midnightblue" points="1270.5,-197.751 1267,-187.751 1263.5,-197.751 1270.5,-197.751"/>
</g>
<!-- Node36&#45;&gt;Node29 -->
<g id="edge62" class="edge"><title>Node36&#45;&gt;Node29</title>
<path fill="none" stroke="midnightblue" d="M1356.31,-224.444C1320.37,-214.739 1261.87,-198.945 1224.17,-188.766"/>
<polygon fill="midnightblue" stroke="midnightblue" points="1224.69,-185.281 1214.12,-186.054 1222.87,-192.039 1224.69,-185.281"/>
</g>
<!-- Node36&#45;&gt;Node30 -->
<g id="edge63" class="edge"><title>Node36&#45;&gt;Node30</title>
<path fill="none" stroke="midnightblue" d="M1368.83,-224.444C1349.09,-215.636 1318.11,-201.812 1295.51,-191.722"/>
<polygon fill="midnightblue" stroke="midnightblue" points="1296.64,-188.396 1286.08,-187.516 1293.79,-194.788 1296.64,-188.396"/>
</g>
<!-- Node37&#45;&gt;Node29 -->
<g id="edge65" class="edge"><title>Node37&#45;&gt;Node29</title>
<path fill="none" stroke="midnightblue" d="M717.552,-225.246C720.746,-224.801 723.918,-224.381 727,-224 905.469,-201.965 951.502,-209.798 1130,-188 1137,-187.145 1144.45,-186.095 1151.6,-185.017"/>
<polygon fill="midnightblue" stroke="midnightblue" points="1152.43,-188.431 1161.78,-183.438 1151.36,-181.514 1152.43,-188.431"/>
</g>
<!-- Node37&#45;&gt;Node30 -->
<g id="edge66" class="edge"><title>Node37&#45;&gt;Node30</title>
<path fill="none" stroke="midnightblue" d="M717.545,-225.186C720.741,-224.756 723.915,-224.355 727,-224 943.253,-199.124 1002.27,-217.63 1221.31,-188.064"/>
<polygon fill="midnightblue" stroke="midnightblue" points="1222.09,-191.49 1231.53,-186.666 1221.14,-184.554 1222.09,-191.49"/>
</g>
<!-- Node38&#45;&gt;Node29 -->
<g id="edge68" class="edge"><title>Node38&#45;&gt;Node29</title>
<path fill="none" stroke="midnightblue" d="M854.339,-225.096C943.224,-213.247 1103.39,-191.851 1130,-188 1136.98,-186.99 1144.42,-185.868 1151.57,-184.769"/>
<polygon fill="midnightblue" stroke="midnightblue" points="1152.4,-188.183 1161.74,-183.191 1151.32,-181.266 1152.4,-188.183"/>
</g>
<!-- Node38&#45;&gt;Node30 -->
<g id="edge69" class="edge"><title>Node38&#45;&gt;Node30</title>
<path fill="none" stroke="midnightblue" d="M854.324,-225.035C857.257,-224.677 860.161,-224.33 863,-224 1019.45,-205.829 1062.28,-211.879 1221.82,-188.034"/>
<polygon fill="midnightblue" stroke="midnightblue" points="1222.63,-191.451 1231.99,-186.496 1221.58,-184.53 1222.63,-191.451"/>
</g>
<!-- Node39&#45;&gt;Node29 -->
<g id="edge71" class="edge"><title>Node39&#45;&gt;Node29</title>
<path fill="none" stroke="midnightblue" d="M967.515,-224.444C1018.33,-213.971 1103.55,-196.406 1151.81,-186.459"/>
<polygon fill="midnightblue" stroke="midnightblue" points="1152.72,-189.846 1161.81,-184.399 1151.3,-182.99 1152.72,-189.846"/>
</g>
<!-- Node39&#45;&gt;Node30 -->
<g id="edge72" class="edge"><title>Node39&#45;&gt;Node30</title>
<path fill="none" stroke="midnightblue" d="M979.798,-225.188C1048.17,-215.205 1163.42,-198.177 1222.04,-188.076"/>
<polygon fill="midnightblue" stroke="midnightblue" points="1222.72,-191.511 1231.97,-186.335 1221.51,-184.616 1222.72,-191.511"/>
</g>
<!-- Node40&#45;&gt;Node29 -->
<g id="edge74" class="edge"><title>Node40&#45;&gt;Node29</title>
<path fill="none" stroke="midnightblue" d="M1068.5,-224.444C1092.08,-215.478 1129.32,-201.314 1155.96,-191.183"/>
<polygon fill="midnightblue" stroke="midnightblue" points="1157.5,-194.342 1165.6,-187.516 1155.01,-187.8 1157.5,-194.342"/>
</g>
<!-- Node40&#45;&gt;Node30 -->
<g id="edge75" class="edge"><title>Node40&#45;&gt;Node30</title>
<path fill="none" stroke="midnightblue" d="M1081.02,-224.444C1119.25,-215.102 1180.57,-200.119 1222.26,-189.933"/>
<polygon fill="midnightblue" stroke="midnightblue" points="1223.26,-193.29 1232.15,-187.516 1221.6,-186.49 1223.26,-193.29"/>
</g>
<!-- Node41&#45;&gt;Node29 -->
<g id="edge77" class="edge"><title>Node41&#45;&gt;Node29</title>
<path fill="none" stroke="midnightblue" d="M1885.31,-225.087C1882.16,-224.687 1879.04,-224.319 1876,-224 1590.17,-194.019 1512,-231.547 1224.15,-187.863"/>
<polygon fill="midnightblue" stroke="midnightblue" points="1224.67,-184.402 1214.26,-186.343 1223.61,-191.321 1224.67,-184.402"/>
</g>
<!-- Node41&#45;&gt;Node30 -->
<g id="edge78" class="edge"><title>Node41&#45;&gt;Node30</title>
<path fill="none" stroke="midnightblue" d="M1885.31,-225.118C1882.16,-224.71 1879.04,-224.332 1876,-224 1629.16,-197.041 1562.17,-220.651 1312.57,-188.031"/>
<polygon fill="midnightblue" stroke="midnightblue" points="1312.84,-184.536 1302.47,-186.693 1311.92,-191.476 1312.84,-184.536"/>
</g>
</g>
</svg>
