<?xml version="1.0" encoding="UTF-8" standalone="no"?>
<!DOCTYPE svg PUBLIC "-//W3C//DTD SVG 1.1//EN"
 "http://www.w3.org/Graphics/SVG/1.1/DTD/svg11.dtd">
<!-- Generated by graphviz version 2.36.0 (20140111.2315)
 -->
<!-- Title: src/llmq/quorums_blockprocessor.h Pages: 1 -->
<svg width="876pt" height="84pt"
 viewBox="0.00 0.00 876.00 84.00" xmlns="http://www.w3.org/2000/svg" xmlns:xlink="http://www.w3.org/1999/xlink">
<g id="graph0" class="graph" transform="scale(1 1) rotate(0) translate(4 80)">
<title>src/llmq/quorums_blockprocessor.h</title>
<polygon fill="white" stroke="none" points="-4,4 -4,-80 872,-80 872,4 -4,4"/>
<!-- Node141 -->
<g id="node1" class="node"><title>Node141</title>
<polygon fill="#bfbfbf" stroke="black" points="406.5,-56.5 406.5,-75.5 577.5,-75.5 577.5,-56.5 406.5,-56.5"/>
<text text-anchor="middle" x="492" y="-63.5" font-family="Helvetica,sans-Serif" font-size="10.00">src/llmq/quorums_blockprocessor.h</text>
</g>
<!-- Node142 -->
<g id="node2" class="node"><title>Node142</title>
<g id="a_node2"><a xlink:href="specialtx_8cpp.html" target="_top" xlink:title="src/evo/specialtx.cpp">
<polygon fill="white" stroke="black" points="0,-0.5 0,-19.5 110,-19.5 110,-0.5 0,-0.5"/>
<text text-anchor="middle" x="55" y="-7.5" font-family="Helvetica,sans-Serif" font-size="10.00">src/evo/specialtx.cpp</text>
</a>
</g>
</g>
<!-- Node141&#45;&gt;Node142 -->
<g id="edge1" class="edge"><title>Node141&#45;&gt;Node142</title>
<path fill="none" stroke="midnightblue" d="M407.686,-55.3068C332.048,-46.497 218.037,-32.9363 119,-20 116.107,-19.6221 113.142,-19.2282 110.149,-18.8254"/>
<polygon fill="midnightblue" stroke="midnightblue" points="407.3,-58.7854 417.637,-56.4643 408.109,-51.8323 407.3,-58.7854"/>
</g>
<!-- Node143 -->
<g id="node3" class="node"><title>Node143</title>
<g id="a_node3"><a xlink:href="quorums__blockprocessor_8cpp.html" target="_top" xlink:title="src/llmq/quorums_blockprocessor.cpp">
<polygon fill="white" stroke="black" points="128,-0.5 128,-19.5 310,-19.5 310,-0.5 128,-0.5"/>
<text text-anchor="middle" x="219" y="-7.5" font-family="Helvetica,sans-Serif" font-size="10.00">src/llmq/quorums_blockprocessor.cpp</text>
</a>
</g>
</g>
<!-- Node141&#45;&gt;Node143 -->
<g id="edge2" class="edge"><title>Node141&#45;&gt;Node143</title>
<path fill="none" stroke="midnightblue" d="M438.782,-54.4734C387.187,-44.2678 309.896,-28.9794 262.055,-19.5164"/>
<polygon fill="midnightblue" stroke="midnightblue" points="438.253,-57.9365 448.742,-56.4435 439.612,-51.0696 438.253,-57.9365"/>
</g>
<!-- Node144 -->
<g id="node4" class="node"><title>Node144</title>
<g id="a_node4"><a xlink:href="quorums__dummydkg_8cpp.html" target="_top" xlink:title="src/llmq/quorums_dummydkg.cpp">
<polygon fill="white" stroke="black" points="328,-0.5 328,-19.5 492,-19.5 492,-0.5 328,-0.5"/>
<text text-anchor="middle" x="410" y="-7.5" font-family="Helvetica,sans-Serif" font-size="10.00">src/llmq/quorums_dummydkg.cpp</text>
</a>
</g>
</g>
<!-- Node141&#45;&gt;Node144 -->
<g id="edge3" class="edge"><title>Node141&#45;&gt;Node144</title>
<path fill="none" stroke="midnightblue" d="M470.167,-50.6221C455.187,-40.7574 435.803,-27.9919 423.142,-19.6545"/>
<polygon fill="midnightblue" stroke="midnightblue" points="468.549,-53.7471 478.825,-56.324 472.399,-47.9009 468.549,-53.7471"/>
</g>
<!-- Node145 -->
<g id="node5" class="node"><title>Node145</title>
<g id="a_node5"><a xlink:href="quorums__init_8cpp.html" target="_top" xlink:title="src/llmq/quorums_init.cpp">
<polygon fill="white" stroke="black" points="510,-0.5 510,-19.5 638,-19.5 638,-0.5 510,-0.5"/>
<text text-anchor="middle" x="574" y="-7.5" font-family="Helvetica,sans-Serif" font-size="10.00">src/llmq/quorums_init.cpp</text>
</a>
</g>
</g>
<!-- Node141&#45;&gt;Node145 -->
<g id="edge4" class="edge"><title>Node141&#45;&gt;Node145</title>
<path fill="none" stroke="midnightblue" d="M513.833,-50.6221C528.813,-40.7574 548.197,-27.9919 560.858,-19.6545"/>
<polygon fill="midnightblue" stroke="midnightblue" points="511.601,-47.9009 505.175,-56.324 515.451,-53.7471 511.601,-47.9009"/>
</g>
<!-- Node146 -->
<g id="node6" class="node"><title>Node146</title>
<g id="a_node6"><a xlink:href="miner_8cpp.html" target="_top" xlink:title="src/miner.cpp">
<polygon fill="white" stroke="black" points="656,-0.5 656,-19.5 732,-19.5 732,-0.5 656,-0.5"/>
<text text-anchor="middle" x="694" y="-7.5" font-family="Helvetica,sans-Serif" font-size="10.00">src/miner.cpp</text>
</a>
</g>
</g>
<!-- Node141&#45;&gt;Node146 -->
<g id="edge5" class="edge"><title>Node141&#45;&gt;Node146</title>
<path fill="none" stroke="midnightblue" d="M533.788,-53.8291C571.927,-43.6333 627.481,-28.7823 662.142,-19.5164"/>
<polygon fill="midnightblue" stroke="midnightblue" points="532.764,-50.4796 524.008,-56.4435 534.572,-57.2422 532.764,-50.4796"/>
</g>
<!-- Node147 -->
<g id="node7" class="node"><title>Node147</title>
<g id="a_node7"><a xlink:href="net__processing_8cpp.html" target="_top" xlink:title="src/net_processing.cpp">
<polygon fill="white" stroke="black" points="750,-0.5 750,-19.5 868,-19.5 868,-0.5 750,-0.5"/>
<text text-anchor="middle" x="809" y="-7.5" font-family="Helvetica,sans-Serif" font-size="10.00">src/net_processing.cpp</text>
</a>
</g>
</g>
<!-- Node141&#45;&gt;Node147 -->
<g id="edge6" class="edge"><title>Node141&#45;&gt;Node147</title>
<path fill="none" stroke="midnightblue" d="M552.303,-54.7275C612.207,-44.523 702.991,-29.0583 759.005,-19.5164"/>
<polygon fill="midnightblue" stroke="midnightblue" points="551.5,-51.3139 542.23,-56.4435 552.675,-58.2145 551.5,-51.3139"/>
</g>
</g>
</svg>
