<?xml version="1.0" encoding="UTF-8" standalone="no"?>
<!DOCTYPE svg PUBLIC "-//W3C//DTD SVG 1.1//EN"
 "http://www.w3.org/Graphics/SVG/1.1/DTD/svg11.dtd">
<!-- Generated by graphviz version 2.36.0 (20140111.2315)
 -->
<!-- Title: src/llmq/quorums_dummydkg.h Pages: 1 -->
<svg width="619pt" height="84pt"
 viewBox="0.00 0.00 619.00 84.00" xmlns="http://www.w3.org/2000/svg" xmlns:xlink="http://www.w3.org/1999/xlink">
<g id="graph0" class="graph" transform="scale(1 1) rotate(0) translate(4 80)">
<title>src/llmq/quorums_dummydkg.h</title>
<polygon fill="white" stroke="none" points="-4,4 -4,-80 615,-80 615,4 -4,4"/>
<!-- Node155 -->
<g id="node1" class="node"><title>Node155</title>
<polygon fill="#bfbfbf" stroke="black" points="252.5,-56.5 252.5,-75.5 405.5,-75.5 405.5,-56.5 252.5,-56.5"/>
<text text-anchor="middle" x="329" y="-63.5" font-family="Helvetica,sans-Serif" font-size="10.00">src/llmq/quorums_dummydkg.h</text>
</g>
<!-- Node156 -->
<g id="node2" class="node"><title>Node156</title>
<g id="a_node2"><a xlink:href="dsnotificationinterface_8cpp.html" target="_top" xlink:title="src/dsnotificationinterface.cpp">
<polygon fill="white" stroke="black" points="-0.5,-0.5 -0.5,-19.5 146.5,-19.5 146.5,-0.5 -0.5,-0.5"/>
<text text-anchor="middle" x="73" y="-7.5" font-family="Helvetica,sans-Serif" font-size="10.00">src/dsnotificationinterface.cpp</text>
</a>
</g>
</g>
<!-- Node155&#45;&gt;Node156 -->
<g id="edge1" class="edge"><title>Node155&#45;&gt;Node156</title>
<path fill="none" stroke="midnightblue" d="M278.49,-54.3456C230.111,-44.1405 158.049,-28.94 113.374,-19.5164"/>
<polygon fill="midnightblue" stroke="midnightblue" points="277.929,-57.8041 288.436,-56.4435 279.374,-50.9549 277.929,-57.8041"/>
</g>
<!-- Node157 -->
<g id="node3" class="node"><title>Node157</title>
<g id="a_node3"><a xlink:href="quorums__dummydkg_8cpp.html" target="_top" xlink:title="src/llmq/quorums_dummydkg.cpp">
<polygon fill="white" stroke="black" points="165,-0.5 165,-19.5 329,-19.5 329,-0.5 165,-0.5"/>
<text text-anchor="middle" x="247" y="-7.5" font-family="Helvetica,sans-Serif" font-size="10.00">src/llmq/quorums_dummydkg.cpp</text>
</a>
</g>
</g>
<!-- Node155&#45;&gt;Node157 -->
<g id="edge2" class="edge"><title>Node155&#45;&gt;Node157</title>
<path fill="none" stroke="midnightblue" d="M307.167,-50.6221C292.187,-40.7574 272.803,-27.9919 260.142,-19.6545"/>
<polygon fill="midnightblue" stroke="midnightblue" points="305.549,-53.7471 315.825,-56.324 309.399,-47.9009 305.549,-53.7471"/>
</g>
<!-- Node158 -->
<g id="node4" class="node"><title>Node158</title>
<g id="a_node4"><a xlink:href="quorums__init_8cpp.html" target="_top" xlink:title="src/llmq/quorums_init.cpp">
<polygon fill="white" stroke="black" points="347,-0.5 347,-19.5 475,-19.5 475,-0.5 347,-0.5"/>
<text text-anchor="middle" x="411" y="-7.5" font-family="Helvetica,sans-Serif" font-size="10.00">src/llmq/quorums_init.cpp</text>
</a>
</g>
</g>
<!-- Node155&#45;&gt;Node158 -->
<g id="edge3" class="edge"><title>Node155&#45;&gt;Node158</title>
<path fill="none" stroke="midnightblue" d="M350.833,-50.6221C365.813,-40.7574 385.197,-27.9919 397.858,-19.6545"/>
<polygon fill="midnightblue" stroke="midnightblue" points="348.601,-47.9009 342.175,-56.324 352.451,-53.7471 348.601,-47.9009"/>
</g>
<!-- Node159 -->
<g id="node5" class="node"><title>Node159</title>
<g id="a_node5"><a xlink:href="net__processing_8cpp.html" target="_top" xlink:title="src/net_processing.cpp">
<polygon fill="white" stroke="black" points="493,-0.5 493,-19.5 611,-19.5 611,-0.5 493,-0.5"/>
<text text-anchor="middle" x="552" y="-7.5" font-family="Helvetica,sans-Serif" font-size="10.00">src/net_processing.cpp</text>
</a>
</g>
</g>
<!-- Node155&#45;&gt;Node159 -->
<g id="edge4" class="edge"><title>Node155&#45;&gt;Node159</title>
<path fill="none" stroke="midnightblue" d="M374.061,-54.0884C416.191,-43.8865 478.24,-28.8612 516.83,-19.5164"/>
<polygon fill="midnightblue" stroke="midnightblue" points="373.23,-50.6883 364.335,-56.4435 374.878,-57.4916 373.23,-50.6883"/>
</g>
</g>
</svg>
