<?xml version="1.0" encoding="UTF-8" standalone="no"?>
<!DOCTYPE svg PUBLIC "-//W3C//DTD SVG 1.1//EN"
 "http://www.w3.org/Graphics/SVG/1.1/DTD/svg11.dtd">
<!-- Generated by graphviz version 2.36.0 (20140111.2315)
 -->
<!-- Title: src/llmq/quorums_utils.h Pages: 1 -->
<!--zoomable 84 -->
<svg id="main" version="1.1" xmlns="http://www.w3.org/2000/svg" xmlns:xlink="http://www.w3.org/1999/xlink" xml:space="preserve" onload="init(evt)">
<style type="text/css"><![CDATA[
.edge:hover path { stroke: red; }
.edge:hover polygon { stroke: red; fill: red; }
]]></style>
<script type="text/javascript"><![CDATA[
var edges = document.getElementsByTagName('g');
if (edges && edges.length) {
  for (var i=0;i<edges.length;i++) {
    if (edges[i].id.substr(0,4)=='edge') {
      edges[i].setAttribute('class','edge');
    }
  }
}
]]></script>
        <defs>
                <circle id="rim" cx="0" cy="0" r="7"/>
                <circle id="rim2" cx="0" cy="0" r="3.5"/>
                <g id="zoomPlus">
                        <use xlink:href="#rim" fill="#404040">
                                <set attributeName="fill" to="#808080" begin="zoomplus.mouseover" end="zoomplus.mouseout"/>
                        </use>
                        <path d="M-4,0h8M0,-4v8" fill="none" stroke="white" stroke-width="1.5" pointer-events="none"/>
                </g>
                <g id="zoomMin">
                        <use xlink:href="#rim" fill="#404040">
                                <set attributeName="fill" to="#808080" begin="zoomminus.mouseover" end="zoomminus.mouseout"/>
                        </use>
                        <path d="M-4,0h8" fill="none" stroke="white" stroke-width="1.5" pointer-events="none"/>
                </g>
                <g id="dirArrow">
                        <path fill="none" stroke="white" stroke-width="1.5" d="M0,-3.0v7 M-2.5,-0.5L0,-3.0L2.5,-0.5"/>
                </g>
               <g id="resetDef">
                       <use xlink:href="#rim2" fill="#404040">
                               <set attributeName="fill" to="#808080" begin="reset.mouseover" end="reset.mouseout"/>
                       </use>
               </g>
        </defs>

<script type="text/javascript">
var viewWidth = 875;
var viewHeight = 84;
var sectionId = 'dynsection-1';
</script>
<script xlink:href="svgpan.js"/>
<svg id="graph" class="graph">
<g id="viewport">
<title>src/llmq/quorums_utils.h</title>
<polygon fill="white" stroke="none" points="-4,4 -4,-80 871,-80 871,4 -4,4"/>
<!-- Node140 -->
<g id="node1" class="node"><title>Node140</title>
<polygon fill="#bfbfbf" stroke="black" points="386.5,-56.5 386.5,-75.5 509.5,-75.5 509.5,-56.5 386.5,-56.5"/>
<text text-anchor="middle" x="448" y="-63.5" font-family="Helvetica,sans-Serif" font-size="10.00">src/llmq/quorums_utils.h</text>
</g>
<!-- Node141 -->
<g id="node2" class="node"><title>Node141</title>
<g id="a_node2"><a xlink:href="deterministicmns_8cpp.html" target="_top" xlink:title="src/evo/deterministicmns.cpp">
<polygon fill="white" stroke="black" points="-0.5,-0.5 -0.5,-19.5 144.5,-19.5 144.5,-0.5 -0.5,-0.5"/>
<text text-anchor="middle" x="72" y="-7.5" font-family="Helvetica,sans-Serif" font-size="10.00">src/evo/deterministicmns.cpp</text>
</a>
</g>
</g>
<!-- Node140&#45;&gt;Node141 -->
<g id="edge1" class="edge"><title>Node140&#45;&gt;Node141</title>
<path fill="none" stroke="midnightblue" d="M378.227,-54.9794C307.202,-44.7791 198.288,-29.1372 131.3,-19.5164"/>
<polygon fill="midnightblue" stroke="midnightblue" points="378.026,-58.4863 388.422,-56.4435 379.021,-51.5574 378.026,-58.4863"/>
</g>
<!-- Node142 -->
<g id="node3" class="node"><title>Node142</title>
<g id="a_node3"><a xlink:href="quorums__blockprocessor_8cpp.html" target="_top" xlink:title="src/llmq/quorums_blockprocessor.cpp">
<polygon fill="white" stroke="black" points="163,-0.5 163,-19.5 345,-19.5 345,-0.5 163,-0.5"/>
<text text-anchor="middle" x="254" y="-7.5" font-family="Helvetica,sans-Serif" font-size="10.00">src/llmq/quorums_blockprocessor.cpp</text>
</a>
</g>
</g>
<!-- Node140&#45;&gt;Node142 -->
<g id="edge2" class="edge"><title>Node140&#45;&gt;Node142</title>
<path fill="none" stroke="midnightblue" d="M407.399,-53.6986C370.785,-43.507 317.743,-28.7429 284.596,-19.5164"/>
<polygon fill="midnightblue" stroke="midnightblue" points="406.688,-57.1337 417.26,-56.4435 408.565,-50.3901 406.688,-57.1337"/>
</g>
<!-- Node143 -->
<g id="node4" class="node"><title>Node143</title>
<g id="a_node4"><a xlink:href="quorums__commitment_8cpp.html" target="_top" xlink:title="src/llmq/quorums_commitment.cpp">
<polygon fill="white" stroke="black" points="363,-0.5 363,-19.5 533,-19.5 533,-0.5 363,-0.5"/>
<text text-anchor="middle" x="448" y="-7.5" font-family="Helvetica,sans-Serif" font-size="10.00">src/llmq/quorums_commitment.cpp</text>
</a>
</g>
</g>
<!-- Node140&#45;&gt;Node143 -->
<g id="edge3" class="edge"><title>Node140&#45;&gt;Node143</title>
<path fill="none" stroke="midnightblue" d="M448,-45.8045C448,-36.9102 448,-26.7798 448,-19.7511"/>
<polygon fill="midnightblue" stroke="midnightblue" points="444.5,-46.083 448,-56.083 451.5,-46.083 444.5,-46.083"/>
</g>
<!-- Node144 -->
<g id="node5" class="node"><title>Node144</title>
<g id="a_node5"><a xlink:href="quorums__dummydkg_8cpp.html" target="_top" xlink:title="src/llmq/quorums_dummydkg.cpp">
<polygon fill="white" stroke="black" points="551,-0.5 551,-19.5 715,-19.5 715,-0.5 551,-0.5"/>
<text text-anchor="middle" x="633" y="-7.5" font-family="Helvetica,sans-Serif" font-size="10.00">src/llmq/quorums_dummydkg.cpp</text>
</a>
</g>
</g>
<!-- Node140&#45;&gt;Node144 -->
<g id="edge4" class="edge"><title>Node140&#45;&gt;Node144</title>
<path fill="none" stroke="midnightblue" d="M487.166,-53.5677C522.065,-43.381 572.349,-28.7034 603.823,-19.5164"/>
<polygon fill="midnightblue" stroke="midnightblue" points="485.933,-50.2817 477.314,-56.4435 487.894,-57.0013 485.933,-50.2817"/>
</g>
<!-- Node145 -->
<g id="node6" class="node"><title>Node145</title>
<g id="a_node6"><a xlink:href="quorums__utils_8cpp.html" target="_top" xlink:title="src/llmq/quorums_utils.cpp">
<polygon fill="white" stroke="black" points="733,-0.5 733,-19.5 867,-19.5 867,-0.5 733,-0.5"/>
<text text-anchor="middle" x="800" y="-7.5" font-family="Helvetica,sans-Serif" font-size="10.00">src/llmq/quorums_utils.cpp</text>
</a>
</g>
</g>
<!-- Node140&#45;&gt;Node145 -->
<g id="edge5" class="edge"><title>Node140&#45;&gt;Node145</title>
<path fill="none" stroke="midnightblue" d="M513.729,-54.9166C580.228,-44.715 681.901,-29.1174 744.486,-19.5164"/>
<polygon fill="midnightblue" stroke="midnightblue" points="513.129,-51.4676 503.775,-56.4435 514.191,-58.3866 513.129,-51.4676"/>
</g>
</g>
</svg>
        <g id="navigator" transform="translate(0 0)" fill="#404254">
                <rect fill="#f2f5e9" fill-opacity="0.5" stroke="#606060" stroke-width=".5" x="0" y="0" width="60" height="60"/>
                <use id="zoomplus" xlink:href="#zoomPlus" x="17" y="9" onmousedown="handleZoom(evt,'in')"/>
                <use id="zoomminus" xlink:href="#zoomMin" x="42" y="9" onmousedown="handleZoom(evt,'out')"/>
                <use id="reset" xlink:href="#resetDef" x="30" y="36" onmousedown="handleReset()"/>
                <g id="arrowUp" xlink:href="#dirArrow" transform="translate(30 24)" onmousedown="handlePan(0,-1)">
                  <use xlink:href="#rim" fill="#404040">
                        <set attributeName="fill" to="#808080" begin="arrowUp.mouseover" end="arrowUp.mouseout"/>
                  </use>
                  <path fill="none" stroke="white" stroke-width="1.5" d="M0,-3.0v7 M-2.5,-0.5L0,-3.0L2.5,-0.5"/>
                </g>
                <g id="arrowRight" xlink:href="#dirArrow" transform="rotate(90) translate(36 -43)" onmousedown="handlePan(1,0)">
                  <use xlink:href="#rim" fill="#404040">
                        <set attributeName="fill" to="#808080" begin="arrowRight.mouseover" end="arrowRight.mouseout"/>
                  </use>
                  <path fill="none" stroke="white" stroke-width="1.5" d="M0,-3.0v7 M-2.5,-0.5L0,-3.0L2.5,-0.5"/>
                </g>
                <g id="arrowDown" xlink:href="#dirArrow" transform="rotate(180) translate(-30 -48)" onmousedown="handlePan(0,1)">
                  <use xlink:href="#rim" fill="#404040">
                        <set attributeName="fill" to="#808080" begin="arrowDown.mouseover" end="arrowDown.mouseout"/>
                  </use>
                  <path fill="none" stroke="white" stroke-width="1.5" d="M0,-3.0v7 M-2.5,-0.5L0,-3.0L2.5,-0.5"/>
                </g>
                <g id="arrowLeft" xlink:href="#dirArrow" transform="rotate(270) translate(-36 17)" onmousedown="handlePan(-1,0)">
                  <use xlink:href="#rim" fill="#404040">
                        <set attributeName="fill" to="#808080" begin="arrowLeft.mouseover" end="arrowLeft.mouseout"/>
                  </use>
                  <path fill="none" stroke="white" stroke-width="1.5" d="M0,-3.0v7 M-2.5,-0.5L0,-3.0L2.5,-0.5"/>
                </g>
        </g>
        <svg viewBox="0 0 15 15" width="100%" height="30px" preserveAspectRatio="xMaxYMin meet">
         <g id="arrow_out" transform="scale(0.3 0.3)">
          <a xlink:href="quorums__utils_8h__dep__incl_org.svg" target="_base">
           <rect id="button" ry="5" rx="5" y="6" x="6" height="38" width="38"
                fill="#f2f5e9" fill-opacity="0.5" stroke="#606060" stroke-width="1.0"/>
           <path id="arrow"
             d="M 11.500037,31.436501 C 11.940474,20.09759 22.043105,11.32322 32.158766,21.979434 L 37.068811,17.246167 C 37.068811,17.246167 37.088388,32 37.088388,32 L 22.160133,31.978069 C 22.160133,31.978069 26.997745,27.140456 26.997745,27.140456 C 18.528582,18.264221 13.291696,25.230495 11.500037,31.436501 z"
             style="fill:#404040;"/>
          </a>
         </g>
        </svg>
</svg>
