<?xml version="1.0" encoding="UTF-8" standalone="no"?>
<!DOCTYPE svg PUBLIC "-//W3C//DTD SVG 1.1//EN"
 "http://www.w3.org/Graphics/SVG/1.1/DTD/svg11.dtd">
<!-- Generated by graphviz version 2.36.0 (20140111.2315)
 -->
<!-- Title: src/qt/qvaluecombobox.cpp Pages: 1 -->
<svg width="153pt" height="140pt"
 viewBox="0.00 0.00 153.00 140.00" xmlns="http://www.w3.org/2000/svg" xmlns:xlink="http://www.w3.org/1999/xlink">
<g id="graph0" class="graph" transform="scale(1 1) rotate(0) translate(4 136)">
<title>src/qt/qvaluecombobox.cpp</title>
<polygon fill="white" stroke="none" points="-4,4 -4,-136 149,-136 149,4 -4,4"/>
<!-- Node0 -->
<g id="node1" class="node"><title>Node0</title>
<polygon fill="#bfbfbf" stroke="black" points="8.5,-112.5 8.5,-131.5 145.5,-131.5 145.5,-112.5 8.5,-112.5"/>
<text text-anchor="middle" x="77" y="-119.5" font-family="Helvetica,sans-Serif" font-size="10.00">src/qt/qvaluecombobox.cpp</text>
</g>
<!-- Node1 -->
<g id="node2" class="node"><title>Node1</title>
<g id="a_node2"><a xlink:href="qvaluecombobox_8h.html" target="_top" xlink:title="qvaluecombobox.h">
<polygon fill="white" stroke="black" points="28,-56.5 28,-75.5 126,-75.5 126,-56.5 28,-56.5"/>
<text text-anchor="middle" x="77" y="-63.5" font-family="Helvetica,sans-Serif" font-size="10.00">qvaluecombobox.h</text>
</a>
</g>
</g>
<!-- Node0&#45;&gt;Node1 -->
<g id="edge1" class="edge"><title>Node0&#45;&gt;Node1</title>
<path fill="none" stroke="midnightblue" d="M77,-112.083C77,-105.006 77,-94.8611 77,-85.9865"/>
<polygon fill="midnightblue" stroke="midnightblue" points="80.5001,-85.751 77,-75.7511 73.5001,-85.7511 80.5001,-85.751"/>
</g>
<!-- Node2 -->
<g id="node3" class="node"><title>Node2</title>
<polygon fill="white" stroke="#bfbfbf" points="-0.5,-0.5 -0.5,-19.5 72.5,-19.5 72.5,-0.5 -0.5,-0.5"/>
<text text-anchor="middle" x="36" y="-7.5" font-family="Helvetica,sans-Serif" font-size="10.00">QComboBox</text>
</g>
<!-- Node1&#45;&gt;Node2 -->
<g id="edge2" class="edge"><title>Node1&#45;&gt;Node2</title>
<path fill="none" stroke="midnightblue" d="M70.2297,-56.083C64.4384,-48.4554 55.9415,-37.2645 48.8625,-27.9408"/>
<polygon fill="midnightblue" stroke="midnightblue" points="51.479,-25.5991 42.6443,-19.7511 45.9039,-29.8321 51.479,-25.5991"/>
</g>
<!-- Node3 -->
<g id="node4" class="node"><title>Node3</title>
<polygon fill="white" stroke="#bfbfbf" points="90.5,-0.5 90.5,-19.5 145.5,-19.5 145.5,-0.5 90.5,-0.5"/>
<text text-anchor="middle" x="118" y="-7.5" font-family="Helvetica,sans-Serif" font-size="10.00">QVariant</text>
</g>
<!-- Node1&#45;&gt;Node3 -->
<g id="edge3" class="edge"><title>Node1&#45;&gt;Node3</title>
<path fill="none" stroke="midnightblue" d="M83.7703,-56.083C89.5616,-48.4554 98.0585,-37.2645 105.138,-27.9408"/>
<polygon fill="midnightblue" stroke="midnightblue" points="108.096,-29.8321 111.356,-19.7511 102.521,-25.5991 108.096,-29.8321"/>
</g>
</g>
</svg>
