<?xml version="1.0" encoding="UTF-8" standalone="no"?>
<!DOCTYPE svg PUBLIC "-//W3C//DTD SVG 1.1//EN"
 "http://www.w3.org/Graphics/SVG/1.1/DTD/svg11.dtd">
<!-- Generated by graphviz version 2.36.0 (20140111.2315)
 -->
<!-- Title: src/random.h Pages: 1 -->
<svg width="500pt" height="308pt"
 viewBox="0.00 0.00 500.30 308.00" xmlns="http://www.w3.org/2000/svg" xmlns:xlink="http://www.w3.org/1999/xlink">
<g id="graph0" class="graph" transform="scale(1 1) rotate(0) translate(4 304)">
<title>src/random.h</title>
<polygon fill="white" stroke="none" points="-4,4 -4,-304 496.298,-304 496.298,4 -4,4"/>
<!-- Node0 -->
<g id="node1" class="node"><title>Node0</title>
<polygon fill="#bfbfbf" stroke="black" points="344,-280.5 344,-299.5 418,-299.5 418,-280.5 344,-280.5"/>
<text text-anchor="middle" x="381" y="-287.5" font-family="Helvetica,sans-Serif" font-size="10.00">src/random.h</text>
</g>
<!-- Node1 -->
<g id="node2" class="node"><title>Node1</title>
<g id="a_node2"><a xlink:href="uint256_8h.html" target="_top" xlink:title="uint256.h">
<polygon fill="white" stroke="black" points="218,-224.5 218,-243.5 274,-243.5 274,-224.5 218,-224.5"/>
<text text-anchor="middle" x="246" y="-231.5" font-family="Helvetica,sans-Serif" font-size="10.00">uint256.h</text>
</a>
</g>
</g>
<!-- Node0&#45;&gt;Node1 -->
<g id="edge1" class="edge"><title>Node0&#45;&gt;Node1</title>
<path fill="none" stroke="midnightblue" d="M359.609,-280.444C337.293,-271.517 302.097,-257.439 276.792,-247.317"/>
<polygon fill="midnightblue" stroke="midnightblue" points="277.876,-243.981 267.291,-243.516 275.276,-250.48 277.876,-243.981"/>
</g>
<!-- Node5 -->
<g id="node6" class="node"><title>Node5</title>
<polygon fill="white" stroke="#bfbfbf" points="309.5,-0.5 309.5,-19.5 358.5,-19.5 358.5,-0.5 309.5,-0.5"/>
<text text-anchor="middle" x="334" y="-7.5" font-family="Helvetica,sans-Serif" font-size="10.00">stdint.h</text>
</g>
<!-- Node0&#45;&gt;Node5 -->
<g id="edge15" class="edge"><title>Node0&#45;&gt;Node5</title>
<path fill="none" stroke="midnightblue" d="M400.845,-280.391C432.772,-265.043 492,-229.734 492,-179 492,-179 492,-179 492,-121 492,-90.7745 493.193,-77.5505 472,-56 444.616,-28.1541 399.811,-17.5311 368.714,-13.4833"/>
<polygon fill="midnightblue" stroke="midnightblue" points="369.071,-10.0014 358.739,-12.3472 368.279,-16.9564 369.071,-10.0014"/>
</g>
<!-- Node2 -->
<g id="node3" class="node"><title>Node2</title>
<polygon fill="white" stroke="#bfbfbf" points="0,-168.5 0,-187.5 52,-187.5 52,-168.5 0,-168.5"/>
<text text-anchor="middle" x="26" y="-175.5" font-family="Helvetica,sans-Serif" font-size="10.00">assert.h</text>
</g>
<!-- Node1&#45;&gt;Node2 -->
<g id="edge2" class="edge"><title>Node1&#45;&gt;Node2</title>
<path fill="none" stroke="midnightblue" d="M217.764,-226.253C183.301,-217.992 123.001,-203.452 62.1336,-188.261"/>
<polygon fill="midnightblue" stroke="midnightblue" points="62.9143,-184.849 52.3639,-185.819 61.2162,-191.64 62.9143,-184.849"/>
</g>
<!-- Node3 -->
<g id="node4" class="node"><title>Node3</title>
<polygon fill="white" stroke="#bfbfbf" points="70,-168.5 70,-187.5 116,-187.5 116,-168.5 70,-168.5"/>
<text text-anchor="middle" x="93" y="-175.5" font-family="Helvetica,sans-Serif" font-size="10.00">cstring</text>
</g>
<!-- Node1&#45;&gt;Node3 -->
<g id="edge3" class="edge"><title>Node1&#45;&gt;Node3</title>
<path fill="none" stroke="midnightblue" d="M221.757,-224.444C195.828,-215.292 154.557,-200.726 125.752,-190.559"/>
<polygon fill="midnightblue" stroke="midnightblue" points="126.723,-187.191 116.128,-187.163 124.393,-193.792 126.723,-187.191"/>
</g>
<!-- Node4 -->
<g id="node5" class="node"><title>Node4</title>
<polygon fill="white" stroke="#bfbfbf" points="134.5,-168.5 134.5,-187.5 193.5,-187.5 193.5,-168.5 134.5,-168.5"/>
<text text-anchor="middle" x="164" y="-175.5" font-family="Helvetica,sans-Serif" font-size="10.00">stdexcept</text>
</g>
<!-- Node1&#45;&gt;Node4 -->
<g id="edge4" class="edge"><title>Node1&#45;&gt;Node4</title>
<path fill="none" stroke="midnightblue" d="M232.825,-224.324C220.153,-215.979 200.767,-203.212 185.794,-193.352"/>
<polygon fill="midnightblue" stroke="midnightblue" points="187.419,-190.231 177.142,-187.655 183.569,-196.078 187.419,-190.231"/>
</g>
<!-- Node1&#45;&gt;Node5 -->
<g id="edge5" class="edge"><title>Node1&#45;&gt;Node5</title>
<path fill="none" stroke="midnightblue" d="M244.05,-224.482C241.504,-211.962 237.833,-187.92 242,-168 253.125,-114.818 260.882,-101.222 291,-56 298.081,-45.3677 307.792,-34.9589 316.194,-26.8345"/>
<polygon fill="midnightblue" stroke="midnightblue" points="318.796,-29.1937 323.72,-19.8124 314.02,-24.0757 318.796,-29.1937"/>
</g>
<!-- Node6 -->
<g id="node7" class="node"><title>Node6</title>
<polygon fill="white" stroke="#bfbfbf" points="250.5,-168.5 250.5,-187.5 291.5,-187.5 291.5,-168.5 250.5,-168.5"/>
<text text-anchor="middle" x="271" y="-175.5" font-family="Helvetica,sans-Serif" font-size="10.00">string</text>
</g>
<!-- Node1&#45;&gt;Node6 -->
<g id="edge6" class="edge"><title>Node1&#45;&gt;Node6</title>
<path fill="none" stroke="midnightblue" d="M250.128,-224.083C253.514,-216.77 258.416,-206.181 262.619,-197.103"/>
<polygon fill="midnightblue" stroke="midnightblue" points="265.923,-198.296 266.949,-187.751 259.571,-195.355 265.923,-198.296"/>
</g>
<!-- Node7 -->
<g id="node8" class="node"><title>Node7</title>
<polygon fill="white" stroke="#bfbfbf" points="310,-168.5 310,-187.5 354,-187.5 354,-168.5 310,-168.5"/>
<text text-anchor="middle" x="332" y="-175.5" font-family="Helvetica,sans-Serif" font-size="10.00">vector</text>
</g>
<!-- Node1&#45;&gt;Node7 -->
<g id="edge7" class="edge"><title>Node1&#45;&gt;Node7</title>
<path fill="none" stroke="midnightblue" d="M259.817,-224.324C273.233,-215.9 293.824,-202.971 309.586,-193.074"/>
<polygon fill="midnightblue" stroke="midnightblue" points="311.609,-195.936 318.217,-187.655 307.887,-190.008 311.609,-195.936"/>
</g>
<!-- Node8 -->
<g id="node9" class="node"><title>Node8</title>
<g id="a_node9"><a xlink:href="common_8h.html" target="_top" xlink:title="crypto/common.h">
<polygon fill="white" stroke="black" points="372,-168.5 372,-187.5 464,-187.5 464,-168.5 372,-168.5"/>
<text text-anchor="middle" x="418" y="-175.5" font-family="Helvetica,sans-Serif" font-size="10.00">crypto/common.h</text>
</a>
</g>
</g>
<!-- Node1&#45;&gt;Node8 -->
<g id="edge8" class="edge"><title>Node1&#45;&gt;Node8</title>
<path fill="none" stroke="midnightblue" d="M273.254,-224.444C302.441,-215.28 348.921,-200.688 381.309,-190.519"/>
<polygon fill="midnightblue" stroke="midnightblue" points="382.381,-193.851 390.874,-187.516 380.284,-187.173 382.381,-193.851"/>
</g>
<!-- Node8&#45;&gt;Node5 -->
<g id="edge9" class="edge"><title>Node8&#45;&gt;Node5</title>
<path fill="none" stroke="midnightblue" d="M383.097,-168.496C351.652,-160.045 308.888,-146.31 299,-132 276.525,-99.4726 303.252,-52.538 320.895,-27.7697"/>
<polygon fill="midnightblue" stroke="midnightblue" points="323.724,-29.8304 326.876,-19.7152 318.104,-25.6573 323.724,-29.8304"/>
</g>
<!-- Node9 -->
<g id="node10" class="node"><title>Node9</title>
<polygon fill="white" stroke="#bfbfbf" points="307.5,-112.5 307.5,-131.5 356.5,-131.5 356.5,-112.5 307.5,-112.5"/>
<text text-anchor="middle" x="332" y="-119.5" font-family="Helvetica,sans-Serif" font-size="10.00">string.h</text>
</g>
<!-- Node8&#45;&gt;Node9 -->
<g id="edge10" class="edge"><title>Node8&#45;&gt;Node9</title>
<path fill="none" stroke="midnightblue" d="M404.183,-168.324C390.767,-159.9 370.176,-146.971 354.414,-137.074"/>
<polygon fill="midnightblue" stroke="midnightblue" points="356.113,-134.008 345.783,-131.655 352.391,-139.936 356.113,-134.008"/>
</g>
<!-- Node10 -->
<g id="node11" class="node"><title>Node10</title>
<g id="a_node11"><a xlink:href="endian_8h.html" target="_top" xlink:title="compat/endian.h">
<polygon fill="white" stroke="black" points="374.5,-112.5 374.5,-131.5 463.5,-131.5 463.5,-112.5 374.5,-112.5"/>
<text text-anchor="middle" x="419" y="-119.5" font-family="Helvetica,sans-Serif" font-size="10.00">compat/endian.h</text>
</a>
</g>
</g>
<!-- Node8&#45;&gt;Node10 -->
<g id="edge11" class="edge"><title>Node8&#45;&gt;Node10</title>
<path fill="none" stroke="midnightblue" d="M418.165,-168.083C418.296,-161.006 418.484,-150.861 418.648,-141.986"/>
<polygon fill="midnightblue" stroke="midnightblue" points="422.152,-141.814 418.838,-131.751 415.153,-141.685 422.152,-141.814"/>
</g>
<!-- Node10&#45;&gt;Node5 -->
<g id="edge12" class="edge"><title>Node10&#45;&gt;Node5</title>
<path fill="none" stroke="midnightblue" d="M399.811,-112.443C384.967,-104.882 364.984,-92.4921 353,-76 343.173,-62.4764 338.401,-43.9234 336.1,-30.0998"/>
<polygon fill="midnightblue" stroke="midnightblue" points="339.516,-29.2473 334.692,-19.8145 332.581,-30.1969 339.516,-29.2473"/>
</g>
<!-- Node11 -->
<g id="node12" class="node"><title>Node11</title>
<g id="a_node12"><a xlink:href="byteswap_8h.html" target="_top" xlink:title="compat/byteswap.h">
<polygon fill="white" stroke="black" points="362,-56.5 362,-75.5 464,-75.5 464,-56.5 362,-56.5"/>
<text text-anchor="middle" x="413" y="-63.5" font-family="Helvetica,sans-Serif" font-size="10.00">compat/byteswap.h</text>
</a>
</g>
</g>
<!-- Node10&#45;&gt;Node11 -->
<g id="edge13" class="edge"><title>Node10&#45;&gt;Node11</title>
<path fill="none" stroke="midnightblue" d="M418.009,-112.083C417.214,-104.927 416.071,-94.6353 415.077,-85.6911"/>
<polygon fill="midnightblue" stroke="midnightblue" points="418.555,-85.3034 413.972,-75.7511 411.598,-86.0765 418.555,-85.3034"/>
</g>
<!-- Node11&#45;&gt;Node5 -->
<g id="edge14" class="edge"><title>Node11&#45;&gt;Node5</title>
<path fill="none" stroke="midnightblue" d="M400.307,-56.324C388.099,-47.979 369.422,-35.2122 354.997,-25.3524"/>
<polygon fill="midnightblue" stroke="midnightblue" points="356.892,-22.4082 346.661,-19.6545 352.942,-28.1871 356.892,-22.4082"/>
</g>
</g>
</svg>
