<?xml version="1.0" encoding="UTF-8" standalone="no"?>
<!DOCTYPE svg PUBLIC "-//W3C//DTD SVG 1.1//EN"
 "http://www.w3.org/Graphics/SVG/1.1/DTD/svg11.dtd">
<!-- Generated by graphviz version 2.36.0 (20140111.2315)
 -->
<!-- Title: src/immer/detail/rbts/bits.hpp Pages: 1 -->
<svg width="564pt" height="380pt"
 viewBox="0.00 0.00 564.00 380.00" xmlns="http://www.w3.org/2000/svg" xmlns:xlink="http://www.w3.org/1999/xlink">
<g id="graph0" class="graph" transform="scale(1 1) rotate(0) translate(4 376)">
<title>src/immer/detail/rbts/bits.hpp</title>
<polygon fill="white" stroke="none" points="-4,4 -4,-376 560,-376 560,4 -4,4"/>
<!-- Node2 -->
<g id="node1" class="node"><title>Node2</title>
<polygon fill="#bfbfbf" stroke="black" points="173,-341 173,-371 279,-371 279,-341 173,-341"/>
<text text-anchor="start" x="181" y="-359" font-family="Helvetica,sans-Serif" font-size="10.00">src/immer/detail/rbts</text>
<text text-anchor="middle" x="226" y="-348" font-family="Helvetica,sans-Serif" font-size="10.00">/bits.hpp</text>
</g>
<!-- Node3 -->
<g id="node2" class="node"><title>Node3</title>
<g id="a_node2"><a xlink:href="rbts_2node_8hpp.html" target="_top" xlink:title="src/immer/detail/rbts\l/node.hpp">
<polygon fill="white" stroke="black" points="93,-205 93,-235 199,-235 199,-205 93,-205"/>
<text text-anchor="start" x="101" y="-223" font-family="Helvetica,sans-Serif" font-size="10.00">src/immer/detail/rbts</text>
<text text-anchor="middle" x="146" y="-212" font-family="Helvetica,sans-Serif" font-size="10.00">/node.hpp</text>
</a>
</g>
</g>
<!-- Node2&#45;&gt;Node3 -->
<g id="edge1" class="edge"><title>Node2&#45;&gt;Node3</title>
<path fill="none" stroke="midnightblue" d="M212.263,-331.99C195.676,-304.208 168.293,-258.342 154.5,-235.237"/>
<polygon fill="midnightblue" stroke="midnightblue" points="209.307,-333.868 217.439,-340.66 215.318,-330.279 209.307,-333.868"/>
</g>
<!-- Node12 -->
<g id="node11" class="node"><title>Node12</title>
<g id="a_node11"><a xlink:href="position_8hpp.html" target="_top" xlink:title="src/immer/detail/rbts\l/position.hpp">
<polygon fill="white" stroke="black" points="234,-273 234,-303 340,-303 340,-273 234,-273"/>
<text text-anchor="start" x="242" y="-291" font-family="Helvetica,sans-Serif" font-size="10.00">src/immer/detail/rbts</text>
<text text-anchor="middle" x="287" y="-280" font-family="Helvetica,sans-Serif" font-size="10.00">/position.hpp</text>
</a>
</g>
</g>
<!-- Node2&#45;&gt;Node12 -->
<g id="edge14" class="edge"><title>Node2&#45;&gt;Node12</title>
<path fill="none" stroke="midnightblue" d="M246.154,-333.194C255.243,-323.36 265.721,-312.023 273.79,-303.293"/>
<polygon fill="midnightblue" stroke="midnightblue" points="243.453,-330.96 239.236,-340.679 248.594,-335.711 243.453,-330.96"/>
</g>
<!-- Node4 -->
<g id="node3" class="node"><title>Node4</title>
<g id="a_node3"><a xlink:href="rbtree_8hpp.html" target="_top" xlink:title="src/immer/detail/rbts\l/rbtree.hpp">
<polygon fill="white" stroke="black" points="112,-137 112,-167 218,-167 218,-137 112,-137"/>
<text text-anchor="start" x="120" y="-155" font-family="Helvetica,sans-Serif" font-size="10.00">src/immer/detail/rbts</text>
<text text-anchor="middle" x="165" y="-144" font-family="Helvetica,sans-Serif" font-size="10.00">/rbtree.hpp</text>
</a>
</g>
</g>
<!-- Node3&#45;&gt;Node4 -->
<g id="edge2" class="edge"><title>Node3&#45;&gt;Node4</title>
<path fill="none" stroke="midnightblue" d="M152.958,-194.831C155.621,-185.581 158.571,-175.331 160.885,-167.293"/>
<polygon fill="midnightblue" stroke="midnightblue" points="149.526,-194.101 150.123,-204.679 156.253,-196.038 149.526,-194.101"/>
</g>
<!-- Node8 -->
<g id="node7" class="node"><title>Node8</title>
<g id="a_node7"><a xlink:href="rrbtree_8hpp.html" target="_top" xlink:title="src/immer/detail/rbts\l/rrbtree.hpp">
<polygon fill="white" stroke="black" points="311,-137 311,-167 417,-167 417,-137 311,-137"/>
<text text-anchor="start" x="319" y="-155" font-family="Helvetica,sans-Serif" font-size="10.00">src/immer/detail/rbts</text>
<text text-anchor="middle" x="364" y="-144" font-family="Helvetica,sans-Serif" font-size="10.00">/rrbtree.hpp</text>
</a>
</g>
</g>
<!-- Node3&#45;&gt;Node8 -->
<g id="edge8" class="edge"><title>Node3&#45;&gt;Node8</title>
<path fill="none" stroke="midnightblue" d="M202.311,-201.952C238.101,-191.116 283.871,-177.259 317.572,-167.056"/>
<polygon fill="midnightblue" stroke="midnightblue" points="201.056,-198.675 192.499,-204.922 203.084,-205.374 201.056,-198.675"/>
</g>
<!-- Node5 -->
<g id="node4" class="node"><title>Node5</title>
<g id="a_node4"><a xlink:href="rbtree__iterator_8hpp.html" target="_top" xlink:title="src/immer/detail/rbts\l/rbtree_iterator.hpp">
<polygon fill="white" stroke="black" points="82,-69 82,-99 188,-99 188,-69 82,-69"/>
<text text-anchor="start" x="90" y="-87" font-family="Helvetica,sans-Serif" font-size="10.00">src/immer/detail/rbts</text>
<text text-anchor="middle" x="135" y="-76" font-family="Helvetica,sans-Serif" font-size="10.00">/rbtree_iterator.hpp</text>
</a>
</g>
</g>
<!-- Node4&#45;&gt;Node5 -->
<g id="edge3" class="edge"><title>Node4&#45;&gt;Node5</title>
<path fill="none" stroke="midnightblue" d="M154.285,-127.426C150.01,-118.023 145.229,-107.504 141.497,-99.2931"/>
<polygon fill="midnightblue" stroke="midnightblue" points="151.166,-129.024 158.49,-136.679 157.539,-126.127 151.166,-129.024"/>
</g>
<!-- Node6 -->
<g id="node5" class="node"><title>Node6</title>
<g id="a_node5"><a xlink:href="vector_8hpp.html" target="_top" xlink:title="src/immer/vector.hpp">
<polygon fill="white" stroke="black" points="-0.5,-6.5 -0.5,-25.5 108.5,-25.5 108.5,-6.5 -0.5,-6.5"/>
<text text-anchor="middle" x="54" y="-13.5" font-family="Helvetica,sans-Serif" font-size="10.00">src/immer/vector.hpp</text>
</a>
</g>
</g>
<!-- Node4&#45;&gt;Node6 -->
<g id="edge6" class="edge"><title>Node4&#45;&gt;Node6</title>
<path fill="none" stroke="midnightblue" d="M114.091,-132.367C98.8615,-124.516 83.4536,-113.9 73,-100 55.9405,-77.3168 53.7827,-41.9709 53.7701,-25.7156"/>
<polygon fill="midnightblue" stroke="midnightblue" points="112.976,-135.716 123.504,-136.904 116.015,-129.41 112.976,-135.716"/>
</g>
<!-- Node7 -->
<g id="node6" class="node"><title>Node7</title>
<g id="a_node6"><a xlink:href="vector__transient_8hpp.html" target="_top" xlink:title="src/immer/vector_transient.hpp">
<polygon fill="white" stroke="black" points="127,-6.5 127,-25.5 279,-25.5 279,-6.5 127,-6.5"/>
<text text-anchor="middle" x="203" y="-13.5" font-family="Helvetica,sans-Serif" font-size="10.00">src/immer/vector_transient.hpp</text>
</a>
</g>
</g>
<!-- Node4&#45;&gt;Node7 -->
<g id="edge7" class="edge"><title>Node4&#45;&gt;Node7</title>
<path fill="none" stroke="midnightblue" d="M181.947,-128.209C187.369,-119.763 192.792,-109.839 196,-100 204.427,-74.1525 204.252,-41.5061 203.564,-25.9864"/>
<polygon fill="midnightblue" stroke="midnightblue" points="178.891,-126.48 176.17,-136.719 184.682,-130.412 178.891,-126.48"/>
</g>
<!-- Node5&#45;&gt;Node6 -->
<g id="edge4" class="edge"><title>Node5&#45;&gt;Node6</title>
<path fill="none" stroke="midnightblue" d="M109.464,-62.1927C94.4268,-49.9403 76.1873,-35.0785 64.8347,-25.8283"/>
<polygon fill="midnightblue" stroke="midnightblue" points="107.461,-65.0755 117.424,-68.679 111.883,-59.6489 107.461,-65.0755"/>
</g>
<!-- Node5&#45;&gt;Node7 -->
<g id="edge5" class="edge"><title>Node5&#45;&gt;Node7</title>
<path fill="none" stroke="midnightblue" d="M157.142,-61.5094C169.627,-49.3918 184.55,-34.9072 193.904,-25.8283"/>
<polygon fill="midnightblue" stroke="midnightblue" points="154.493,-59.2027 149.755,-68.679 159.368,-64.2257 154.493,-59.2027"/>
</g>
<!-- Node9 -->
<g id="node8" class="node"><title>Node9</title>
<g id="a_node8"><a xlink:href="rrbtree__iterator_8hpp.html" target="_top" xlink:title="src/immer/detail/rbts\l/rrbtree_iterator.hpp">
<polygon fill="white" stroke="black" points="367,-69 367,-99 473,-99 473,-69 367,-69"/>
<text text-anchor="start" x="375" y="-87" font-family="Helvetica,sans-Serif" font-size="10.00">src/immer/detail/rbts</text>
<text text-anchor="middle" x="420" y="-76" font-family="Helvetica,sans-Serif" font-size="10.00">/rrbtree_iterator.hpp</text>
</a>
</g>
</g>
<!-- Node8&#45;&gt;Node9 -->
<g id="edge9" class="edge"><title>Node8&#45;&gt;Node9</title>
<path fill="none" stroke="midnightblue" d="M382.75,-128.901C391.036,-119.136 400.539,-107.936 407.873,-99.2931"/>
<polygon fill="midnightblue" stroke="midnightblue" points="379.952,-126.789 376.151,-136.679 385.29,-131.318 379.952,-126.789"/>
</g>
<!-- Node10 -->
<g id="node9" class="node"><title>Node10</title>
<g id="a_node9"><a xlink:href="flex__vector_8hpp.html" target="_top" xlink:title="src/immer/flex_vector.hpp">
<polygon fill="white" stroke="black" points="297,-6.5 297,-25.5 427,-25.5 427,-6.5 297,-6.5"/>
<text text-anchor="middle" x="362" y="-13.5" font-family="Helvetica,sans-Serif" font-size="10.00">src/immer/flex_vector.hpp</text>
</a>
</g>
</g>
<!-- Node8&#45;&gt;Node10 -->
<g id="edge12" class="edge"><title>Node8&#45;&gt;Node10</title>
<path fill="none" stroke="midnightblue" d="M360.563,-126.779C359.519,-118.325 358.514,-108.761 358,-100 356.413,-72.9248 359.314,-40.8538 360.967,-25.7265"/>
<polygon fill="midnightblue" stroke="midnightblue" points="357.1,-127.29 361.871,-136.75 364.04,-126.38 357.1,-127.29"/>
</g>
<!-- Node11 -->
<g id="node10" class="node"><title>Node11</title>
<g id="a_node10"><a xlink:href="flex__vector__transient_8hpp.html" target="_top" xlink:title="src/immer/flex_vector\l_transient.hpp">
<polygon fill="white" stroke="black" points="445.5,-1 445.5,-31 556.5,-31 556.5,-1 445.5,-1"/>
<text text-anchor="start" x="453.5" y="-19" font-family="Helvetica,sans-Serif" font-size="10.00">src/immer/flex_vector</text>
<text text-anchor="middle" x="501" y="-8" font-family="Helvetica,sans-Serif" font-size="10.00">_transient.hpp</text>
</a>
</g>
</g>
<!-- Node8&#45;&gt;Node11 -->
<g id="edge13" class="edge"><title>Node8&#45;&gt;Node11</title>
<path fill="none" stroke="midnightblue" d="M426.488,-135.807C446.453,-128.104 466.983,-116.706 481,-100 497.577,-80.2427 500.859,-48.999 501.261,-31.0107"/>
<polygon fill="midnightblue" stroke="midnightblue" points="425.297,-132.516 417.073,-139.195 427.667,-139.102 425.297,-132.516"/>
</g>
<!-- Node9&#45;&gt;Node10 -->
<g id="edge10" class="edge"><title>Node9&#45;&gt;Node10</title>
<path fill="none" stroke="midnightblue" d="M400.812,-61.1658C390.226,-49.119 377.661,-34.8216 369.758,-25.8283"/>
<polygon fill="midnightblue" stroke="midnightblue" points="398.185,-63.4777 407.415,-68.679 403.443,-58.8569 398.185,-63.4777"/>
</g>
<!-- Node9&#45;&gt;Node11 -->
<g id="edge11" class="edge"><title>Node9&#45;&gt;Node11</title>
<path fill="none" stroke="midnightblue" d="M445.393,-62.3094C457.87,-52.1426 472.581,-40.1562 483.737,-31.0663"/>
<polygon fill="midnightblue" stroke="midnightblue" points="443.117,-59.6489 437.576,-68.679 447.539,-65.0755 443.117,-59.6489"/>
</g>
<!-- Node12&#45;&gt;Node4 -->
<g id="edge18" class="edge"><title>Node12&#45;&gt;Node4</title>
<path fill="none" stroke="midnightblue" d="M267.032,-265.068C241.849,-237.408 199.272,-190.643 177.962,-167.237"/>
<polygon fill="midnightblue" stroke="midnightblue" points="264.624,-267.622 273.944,-272.66 269.8,-262.909 264.624,-267.622"/>
</g>
<!-- Node12&#45;&gt;Node8 -->
<g id="edge19" class="edge"><title>Node12&#45;&gt;Node8</title>
<path fill="none" stroke="midnightblue" d="M334.611,-268.211C348.163,-260.386 361.318,-249.824 369,-236 380.99,-214.422 374.731,-184.638 369.253,-167.238"/>
<polygon fill="midnightblue" stroke="midnightblue" points="332.876,-265.17 325.702,-272.966 336.172,-271.345 332.876,-265.17"/>
</g>
<!-- Node13 -->
<g id="node12" class="node"><title>Node13</title>
<g id="a_node12"><a xlink:href="operations_8hpp.html" target="_top" xlink:title="src/immer/detail/rbts\l/operations.hpp">
<polygon fill="white" stroke="black" points="255,-205 255,-235 361,-235 361,-205 255,-205"/>
<text text-anchor="start" x="263" y="-223" font-family="Helvetica,sans-Serif" font-size="10.00">src/immer/detail/rbts</text>
<text text-anchor="middle" x="308" y="-212" font-family="Helvetica,sans-Serif" font-size="10.00">/operations.hpp</text>
</a>
</g>
</g>
<!-- Node12&#45;&gt;Node13 -->
<g id="edge15" class="edge"><title>Node12&#45;&gt;Node13</title>
<path fill="none" stroke="midnightblue" d="M294.595,-263.129C297.563,-253.801 300.867,-243.418 303.452,-235.293"/>
<polygon fill="midnightblue" stroke="midnightblue" points="291.254,-262.088 291.557,-272.679 297.924,-264.211 291.254,-262.088"/>
</g>
<!-- Node13&#45;&gt;Node4 -->
<g id="edge16" class="edge"><title>Node13&#45;&gt;Node4</title>
<path fill="none" stroke="midnightblue" d="M268.181,-200.622C245.23,-190.029 216.821,-176.917 195.626,-167.135"/>
<polygon fill="midnightblue" stroke="midnightblue" points="266.777,-203.829 277.323,-204.841 269.71,-197.473 266.777,-203.829"/>
</g>
<!-- Node13&#45;&gt;Node8 -->
<g id="edge17" class="edge"><title>Node13&#45;&gt;Node8</title>
<path fill="none" stroke="midnightblue" d="M326.75,-196.901C335.036,-187.136 344.539,-175.936 351.873,-167.293"/>
<polygon fill="midnightblue" stroke="midnightblue" points="323.952,-194.789 320.151,-204.679 329.29,-199.318 323.952,-194.789"/>
</g>
</g>
</svg>
