<?xml version="1.0" encoding="UTF-8" standalone="no"?>
<!DOCTYPE svg PUBLIC "-//W3C//DTD SVG 1.1//EN"
 "http://www.w3.org/Graphics/SVG/1.1/DTD/svg11.dtd">
<!-- Generated by graphviz version 2.36.0 (20140111.2315)
 -->
<!-- Title: src/qt/recentrequeststablemodel.h Pages: 1 -->
<svg width="476pt" height="84pt"
 viewBox="0.00 0.00 476.00 84.00" xmlns="http://www.w3.org/2000/svg" xmlns:xlink="http://www.w3.org/1999/xlink">
<g id="graph0" class="graph" transform="scale(1 1) rotate(0) translate(4 80)">
<title>src/qt/recentrequeststablemodel.h</title>
<polygon fill="white" stroke="none" points="-4,4 -4,-80 472,-80 472,4 -4,4"/>
<!-- Node90 -->
<g id="node1" class="node"><title>Node90</title>
<polygon fill="#bfbfbf" stroke="black" points="166,-56.5 166,-75.5 330,-75.5 330,-56.5 166,-56.5"/>
<text text-anchor="middle" x="248" y="-63.5" font-family="Helvetica,sans-Serif" font-size="10.00">src/qt/recentrequeststablemodel.h</text>
</g>
<!-- Node91 -->
<g id="node2" class="node"><title>Node91</title>
<g id="a_node2"><a xlink:href="receivecoinsdialog_8cpp.html" target="_top" xlink:title="src/qt/receivecoinsdialog.cpp">
<polygon fill="white" stroke="black" points="-0.5,-0.5 -0.5,-19.5 142.5,-19.5 142.5,-0.5 -0.5,-0.5"/>
<text text-anchor="middle" x="71" y="-7.5" font-family="Helvetica,sans-Serif" font-size="10.00">src/qt/receivecoinsdialog.cpp</text>
</a>
</g>
</g>
<!-- Node90&#45;&gt;Node91 -->
<g id="edge1" class="edge"><title>Node90&#45;&gt;Node91</title>
<path fill="none" stroke="midnightblue" d="M210.097,-53.4363C176.725,-43.2551 128.899,-28.664 98.915,-19.5164"/>
<polygon fill="midnightblue" stroke="midnightblue" points="209.368,-56.8731 219.954,-56.4435 211.41,-50.1777 209.368,-56.8731"/>
</g>
<!-- Node92 -->
<g id="node3" class="node"><title>Node92</title>
<g id="a_node3"><a xlink:href="recentrequeststablemodel_8cpp.html" target="_top" xlink:title="src/qt/recentrequeststablemodel.cpp">
<polygon fill="white" stroke="black" points="160.5,-0.5 160.5,-19.5 335.5,-19.5 335.5,-0.5 160.5,-0.5"/>
<text text-anchor="middle" x="248" y="-7.5" font-family="Helvetica,sans-Serif" font-size="10.00">src/qt/recentrequeststablemodel.cpp</text>
</a>
</g>
</g>
<!-- Node90&#45;&gt;Node92 -->
<g id="edge2" class="edge"><title>Node90&#45;&gt;Node92</title>
<path fill="none" stroke="midnightblue" d="M248,-45.8045C248,-36.9102 248,-26.7798 248,-19.7511"/>
<polygon fill="midnightblue" stroke="midnightblue" points="244.5,-46.083 248,-56.083 251.5,-46.083 244.5,-46.083"/>
</g>
<!-- Node93 -->
<g id="node4" class="node"><title>Node93</title>
<g id="a_node4"><a xlink:href="walletmodel_8cpp.html" target="_top" xlink:title="src/qt/walletmodel.cpp">
<polygon fill="white" stroke="black" points="353.5,-0.5 353.5,-19.5 468.5,-19.5 468.5,-0.5 353.5,-0.5"/>
<text text-anchor="middle" x="411" y="-7.5" font-family="Helvetica,sans-Serif" font-size="10.00">src/qt/walletmodel.cpp</text>
</a>
</g>
</g>
<!-- Node90&#45;&gt;Node93 -->
<g id="edge3" class="edge"><title>Node90&#45;&gt;Node93</title>
<path fill="none" stroke="midnightblue" d="M283.703,-53.172C314.396,-43.0039 357.919,-28.5852 385.293,-19.5164"/>
<polygon fill="midnightblue" stroke="midnightblue" points="282.22,-49.9762 273.828,-56.4435 284.421,-56.6211 282.22,-49.9762"/>
</g>
</g>
</svg>
