<?xml version="1.0" encoding="UTF-8" standalone="no"?>
<!DOCTYPE svg PUBLIC "-//W3C//DTD SVG 1.1//EN"
 "http://www.w3.org/Graphics/SVG/1.1/DTD/svg11.dtd">
<!-- Generated by graphviz version 2.36.0 (20140111.2315)
 -->
<!-- Title: src/secp256k1/src/modules/recovery/main_impl.h Pages: 1 -->
<svg width="156pt" height="208pt"
 viewBox="0.00 0.00 156.00 208.00" xmlns="http://www.w3.org/2000/svg" xmlns:xlink="http://www.w3.org/1999/xlink">
<g id="graph0" class="graph" transform="scale(1 1) rotate(0) translate(4 204)">
<title>src/secp256k1/src/modules/recovery/main_impl.h</title>
<polygon fill="white" stroke="none" points="-4,4 -4,-204 152,-204 152,4 -4,4"/>
<!-- Node0 -->
<g id="node1" class="node"><title>Node0</title>
<polygon fill="#bfbfbf" stroke="black" points="5.5,-169 5.5,-199 142.5,-199 142.5,-169 5.5,-169"/>
<text text-anchor="start" x="13.5" y="-187" font-family="Helvetica,sans-Serif" font-size="10.00">src/secp256k1/src/modules</text>
<text text-anchor="middle" x="74" y="-176" font-family="Helvetica,sans-Serif" font-size="10.00">/recovery/main_impl.h</text>
</g>
<!-- Node1 -->
<g id="node2" class="node"><title>Node1</title>
<g id="a_node2"><a xlink:href="secp256k1__recovery_8h.html" target="_top" xlink:title="include/secp256k1_recovery.h">
<polygon fill="white" stroke="black" points="-0.5,-112.5 -0.5,-131.5 148.5,-131.5 148.5,-112.5 -0.5,-112.5"/>
<text text-anchor="middle" x="74" y="-119.5" font-family="Helvetica,sans-Serif" font-size="10.00">include/secp256k1_recovery.h</text>
</a>
</g>
</g>
<!-- Node0&#45;&gt;Node1 -->
<g id="edge1" class="edge"><title>Node0&#45;&gt;Node1</title>
<path fill="none" stroke="midnightblue" d="M74,-168.781C74,-160.781 74,-150.689 74,-142.017"/>
<polygon fill="midnightblue" stroke="midnightblue" points="77.5001,-141.73 74,-131.731 70.5001,-141.731 77.5001,-141.73"/>
</g>
<!-- Node2 -->
<g id="node3" class="node"><title>Node2</title>
<g id="a_node3"><a xlink:href="secp256k1_8h.html" target="_top" xlink:title="secp256k1.h">
<polygon fill="white" stroke="black" points="38,-56.5 38,-75.5 110,-75.5 110,-56.5 38,-56.5"/>
<text text-anchor="middle" x="74" y="-63.5" font-family="Helvetica,sans-Serif" font-size="10.00">secp256k1.h</text>
</a>
</g>
</g>
<!-- Node1&#45;&gt;Node2 -->
<g id="edge2" class="edge"><title>Node1&#45;&gt;Node2</title>
<path fill="none" stroke="midnightblue" d="M74,-112.083C74,-105.006 74,-94.8611 74,-85.9865"/>
<polygon fill="midnightblue" stroke="midnightblue" points="77.5001,-85.751 74,-75.7511 70.5001,-85.7511 77.5001,-85.751"/>
</g>
<!-- Node3 -->
<g id="node4" class="node"><title>Node3</title>
<polygon fill="white" stroke="#bfbfbf" points="48,-0.5 48,-19.5 100,-19.5 100,-0.5 48,-0.5"/>
<text text-anchor="middle" x="74" y="-7.5" font-family="Helvetica,sans-Serif" font-size="10.00">stddef.h</text>
</g>
<!-- Node2&#45;&gt;Node3 -->
<g id="edge3" class="edge"><title>Node2&#45;&gt;Node3</title>
<path fill="none" stroke="midnightblue" d="M74,-56.083C74,-49.0059 74,-38.8611 74,-29.9865"/>
<polygon fill="midnightblue" stroke="midnightblue" points="77.5001,-29.751 74,-19.7511 70.5001,-29.7511 77.5001,-29.751"/>
</g>
</g>
</svg>
