<?xml version="1.0" encoding="UTF-8" standalone="no"?>
<!DOCTYPE svg PUBLIC "-//W3C//DTD SVG 1.1//EN"
 "http://www.w3.org/Graphics/SVG/1.1/DTD/svg11.dtd">
<!-- Generated by graphviz version 2.36.0 (20140111.2315)
 -->
<!-- Title: src/immer/refcount/refcount_policy.hpp Pages: 1 -->
<svg width="333pt" height="108pt"
 viewBox="0.00 0.00 333.00 108.00" xmlns="http://www.w3.org/2000/svg" xmlns:xlink="http://www.w3.org/1999/xlink">
<g id="graph0" class="graph" transform="scale(1 1) rotate(0) translate(4 104)">
<title>src/immer/refcount/refcount_policy.hpp</title>
<polygon fill="white" stroke="none" points="-4,4 -4,-104 329,-104 329,4 -4,4"/>
<!-- Node0 -->
<g id="node1" class="node"><title>Node0</title>
<polygon fill="#bfbfbf" stroke="black" points="155,-69 155,-99 259,-99 259,-69 155,-69"/>
<text text-anchor="start" x="163" y="-87" font-family="Helvetica,sans-Serif" font-size="10.00">src/immer/refcount</text>
<text text-anchor="middle" x="207" y="-76" font-family="Helvetica,sans-Serif" font-size="10.00">/refcount_policy.hpp</text>
</g>
<!-- Node1 -->
<g id="node2" class="node"><title>Node1</title>
<g id="a_node2"><a xlink:href="no__refcount__policy_8hpp.html" target="_top" xlink:title="immer/refcount/no_refcount\l_policy.hpp">
<polygon fill="white" stroke="black" points="0,-1 0,-31 136,-31 136,-1 0,-1"/>
<text text-anchor="start" x="8" y="-19" font-family="Helvetica,sans-Serif" font-size="10.00">immer/refcount/no_refcount</text>
<text text-anchor="middle" x="68" y="-8" font-family="Helvetica,sans-Serif" font-size="10.00">_policy.hpp</text>
</a>
</g>
</g>
<!-- Node0&#45;&gt;Node1 -->
<g id="edge1" class="edge"><title>Node0&#45;&gt;Node1</title>
<path fill="none" stroke="midnightblue" d="M177.181,-68.8413C156.66,-59.0975 129.198,-46.0579 106.95,-35.4941"/>
<polygon fill="midnightblue" stroke="midnightblue" points="108.304,-32.2628 97.7697,-31.1352 105.302,-38.5862 108.304,-32.2628"/>
</g>
<!-- Node2 -->
<g id="node3" class="node"><title>Node2</title>
<polygon fill="white" stroke="#bfbfbf" points="154,-6.5 154,-25.5 200,-25.5 200,-6.5 154,-6.5"/>
<text text-anchor="middle" x="177" y="-13.5" font-family="Helvetica,sans-Serif" font-size="10.00">atomic</text>
</g>
<!-- Node0&#45;&gt;Node2 -->
<g id="edge2" class="edge"><title>Node0&#45;&gt;Node2</title>
<path fill="none" stroke="midnightblue" d="M200.49,-68.679C195.998,-58.7957 189.991,-45.5795 185.176,-34.9864"/>
<polygon fill="midnightblue" stroke="midnightblue" points="188.337,-33.4836 181.013,-25.8283 181.965,-36.3803 188.337,-33.4836"/>
</g>
<!-- Node3 -->
<g id="node4" class="node"><title>Node3</title>
<polygon fill="white" stroke="#bfbfbf" points="218,-6.5 218,-25.5 258,-25.5 258,-6.5 218,-6.5"/>
<text text-anchor="middle" x="238" y="-13.5" font-family="Helvetica,sans-Serif" font-size="10.00">utility</text>
</g>
<!-- Node0&#45;&gt;Node3 -->
<g id="edge3" class="edge"><title>Node0&#45;&gt;Node3</title>
<path fill="none" stroke="midnightblue" d="M213.727,-68.679C218.369,-58.7957 224.576,-45.5795 229.552,-34.9864"/>
<polygon fill="midnightblue" stroke="midnightblue" points="232.77,-36.3676 233.853,-25.8283 226.434,-33.3916 232.77,-36.3676"/>
</g>
<!-- Node4 -->
<g id="node5" class="node"><title>Node4</title>
<polygon fill="white" stroke="#bfbfbf" points="276.5,-6.5 276.5,-25.5 325.5,-25.5 325.5,-6.5 276.5,-6.5"/>
<text text-anchor="middle" x="301" y="-13.5" font-family="Helvetica,sans-Serif" font-size="10.00">cassert</text>
</g>
<!-- Node0&#45;&gt;Node4 -->
<g id="edge4" class="edge"><title>Node0&#45;&gt;Node4</title>
<path fill="none" stroke="midnightblue" d="M227.397,-68.679C243.014,-57.7134 264.475,-42.645 280.194,-31.6085"/>
<polygon fill="midnightblue" stroke="midnightblue" points="282.525,-34.2487 288.698,-25.6379 278.502,-28.5198 282.525,-34.2487"/>
</g>
</g>
</svg>
