<?xml version="1.0" encoding="UTF-8" standalone="no"?>
<!DOCTYPE svg PUBLIC "-//W3C//DTD SVG 1.1//EN"
 "http://www.w3.org/Graphics/SVG/1.1/DTD/svg11.dtd">
<!-- Generated by graphviz version 2.36.0 (20140111.2315)
 -->
<!-- Title: src/crypto/ripemd160.cpp Pages: 1 -->
<svg width="295pt" height="252pt"
 viewBox="0.00 0.00 295.00 252.00" xmlns="http://www.w3.org/2000/svg" xmlns:xlink="http://www.w3.org/1999/xlink">
<g id="graph0" class="graph" transform="scale(1 1) rotate(0) translate(4 248)">
<title>src/crypto/ripemd160.cpp</title>
<polygon fill="white" stroke="none" points="-4,4 -4,-248 291,-248 291,4 -4,4"/>
<!-- Node0 -->
<g id="node1" class="node"><title>Node0</title>
<polygon fill="#bfbfbf" stroke="black" points="111.5,-224.5 111.5,-243.5 238.5,-243.5 238.5,-224.5 111.5,-224.5"/>
<text text-anchor="middle" x="175" y="-231.5" font-family="Helvetica,sans-Serif" font-size="10.00">src/crypto/ripemd160.cpp</text>
</g>
<!-- Node1 -->
<g id="node2" class="node"><title>Node1</title>
<g id="a_node2"><a xlink:href="ripemd160_8h.html" target="_top" xlink:title="crypto/ripemd160.h">
<polygon fill="white" stroke="black" points="0,-168.5 0,-187.5 100,-187.5 100,-168.5 0,-168.5"/>
<text text-anchor="middle" x="50" y="-175.5" font-family="Helvetica,sans-Serif" font-size="10.00">crypto/ripemd160.h</text>
</a>
</g>
</g>
<!-- Node0&#45;&gt;Node1 -->
<g id="edge1" class="edge"><title>Node0&#45;&gt;Node1</title>
<path fill="none" stroke="midnightblue" d="M155.193,-224.444C134.713,-215.596 102.517,-201.687 79.1353,-191.586"/>
<polygon fill="midnightblue" stroke="midnightblue" points="80.282,-188.269 69.714,-187.516 77.5059,-194.695 80.282,-188.269"/>
</g>
<!-- Node4 -->
<g id="node5" class="node"><title>Node4</title>
<g id="a_node5"><a xlink:href="common_8h.html" target="_top" xlink:title="crypto/common.h">
<polygon fill="white" stroke="black" points="129,-168.5 129,-187.5 221,-187.5 221,-168.5 129,-168.5"/>
<text text-anchor="middle" x="175" y="-175.5" font-family="Helvetica,sans-Serif" font-size="10.00">crypto/common.h</text>
</a>
</g>
</g>
<!-- Node0&#45;&gt;Node4 -->
<g id="edge4" class="edge"><title>Node0&#45;&gt;Node4</title>
<path fill="none" stroke="midnightblue" d="M175,-224.083C175,-217.006 175,-206.861 175,-197.986"/>
<polygon fill="midnightblue" stroke="midnightblue" points="178.5,-197.751 175,-187.751 171.5,-197.751 178.5,-197.751"/>
</g>
<!-- Node5 -->
<g id="node6" class="node"><title>Node5</title>
<polygon fill="white" stroke="#bfbfbf" points="237.5,-112.5 237.5,-131.5 286.5,-131.5 286.5,-112.5 237.5,-112.5"/>
<text text-anchor="middle" x="262" y="-119.5" font-family="Helvetica,sans-Serif" font-size="10.00">string.h</text>
</g>
<!-- Node0&#45;&gt;Node5 -->
<g id="edge11" class="edge"><title>Node0&#45;&gt;Node5</title>
<path fill="none" stroke="midnightblue" d="M188.608,-224.347C200.68,-216.14 218.183,-202.877 230,-188 241.235,-173.856 249.935,-155.126 255.409,-141.406"/>
<polygon fill="midnightblue" stroke="midnightblue" points="258.831,-142.252 259.094,-131.66 252.283,-139.776 258.831,-142.252"/>
</g>
<!-- Node2 -->
<g id="node3" class="node"><title>Node2</title>
<polygon fill="white" stroke="#bfbfbf" points="96.5,-0.5 96.5,-19.5 145.5,-19.5 145.5,-0.5 96.5,-0.5"/>
<text text-anchor="middle" x="121" y="-7.5" font-family="Helvetica,sans-Serif" font-size="10.00">stdint.h</text>
</g>
<!-- Node1&#45;&gt;Node2 -->
<g id="edge2" class="edge"><title>Node1&#45;&gt;Node2</title>
<path fill="none" stroke="midnightblue" d="M40.233,-168.353C27.6082,-156.069 8.22715,-132.749 17,-112 33.3242,-73.3913 72.4258,-42.2704 97.7589,-25.2355"/>
<polygon fill="midnightblue" stroke="midnightblue" points="99.9305,-27.9981 106.402,-19.609 96.1114,-22.1317 99.9305,-27.9981"/>
</g>
<!-- Node3 -->
<g id="node4" class="node"><title>Node3</title>
<polygon fill="white" stroke="#bfbfbf" points="26,-112.5 26,-131.5 74,-131.5 74,-112.5 26,-112.5"/>
<text text-anchor="middle" x="50" y="-119.5" font-family="Helvetica,sans-Serif" font-size="10.00">stdlib.h</text>
</g>
<!-- Node1&#45;&gt;Node3 -->
<g id="edge3" class="edge"><title>Node1&#45;&gt;Node3</title>
<path fill="none" stroke="midnightblue" d="M50,-168.083C50,-161.006 50,-150.861 50,-141.986"/>
<polygon fill="midnightblue" stroke="midnightblue" points="53.5001,-141.751 50,-131.751 46.5001,-141.751 53.5001,-141.751"/>
</g>
<!-- Node4&#45;&gt;Node2 -->
<g id="edge5" class="edge"><title>Node4&#45;&gt;Node2</title>
<path fill="none" stroke="midnightblue" d="M158.367,-168.464C145.512,-160.841 128.661,-148.356 121,-132 105.392,-98.6759 111.144,-54.3024 116.332,-29.6039"/>
<polygon fill="midnightblue" stroke="midnightblue" points="119.768,-30.2807 118.597,-19.7507 112.946,-28.7122 119.768,-30.2807"/>
</g>
<!-- Node4&#45;&gt;Node5 -->
<g id="edge6" class="edge"><title>Node4&#45;&gt;Node5</title>
<path fill="none" stroke="midnightblue" d="M188.978,-168.324C202.55,-159.9 223.38,-146.971 239.325,-137.074"/>
<polygon fill="midnightblue" stroke="midnightblue" points="241.406,-139.902 248.057,-131.655 237.714,-133.954 241.406,-139.902"/>
</g>
<!-- Node6 -->
<g id="node7" class="node"><title>Node6</title>
<g id="a_node7"><a xlink:href="endian_8h.html" target="_top" xlink:title="compat/endian.h">
<polygon fill="white" stroke="black" points="130.5,-112.5 130.5,-131.5 219.5,-131.5 219.5,-112.5 130.5,-112.5"/>
<text text-anchor="middle" x="175" y="-119.5" font-family="Helvetica,sans-Serif" font-size="10.00">compat/endian.h</text>
</a>
</g>
</g>
<!-- Node4&#45;&gt;Node6 -->
<g id="edge7" class="edge"><title>Node4&#45;&gt;Node6</title>
<path fill="none" stroke="midnightblue" d="M175,-168.083C175,-161.006 175,-150.861 175,-141.986"/>
<polygon fill="midnightblue" stroke="midnightblue" points="178.5,-141.751 175,-131.751 171.5,-141.751 178.5,-141.751"/>
</g>
<!-- Node6&#45;&gt;Node2 -->
<g id="edge8" class="edge"><title>Node6&#45;&gt;Node2</title>
<path fill="none" stroke="midnightblue" d="M170.763,-112.368C161.93,-94.376 141.397,-52.5503 129.653,-28.6267"/>
<polygon fill="midnightblue" stroke="midnightblue" points="132.766,-27.0257 125.218,-19.5914 126.483,-30.1105 132.766,-27.0257"/>
</g>
<!-- Node7 -->
<g id="node8" class="node"><title>Node7</title>
<g id="a_node8"><a xlink:href="byteswap_8h.html" target="_top" xlink:title="compat/byteswap.h">
<polygon fill="white" stroke="black" points="168,-56.5 168,-75.5 270,-75.5 270,-56.5 168,-56.5"/>
<text text-anchor="middle" x="219" y="-63.5" font-family="Helvetica,sans-Serif" font-size="10.00">compat/byteswap.h</text>
</a>
</g>
</g>
<!-- Node6&#45;&gt;Node7 -->
<g id="edge9" class="edge"><title>Node6&#45;&gt;Node7</title>
<path fill="none" stroke="midnightblue" d="M182.266,-112.083C188.545,-104.377 197.788,-93.0333 205.431,-83.6531"/>
<polygon fill="midnightblue" stroke="midnightblue" points="208.266,-85.7143 211.869,-75.7511 202.839,-81.2926 208.266,-85.7143"/>
</g>
<!-- Node7&#45;&gt;Node2 -->
<g id="edge10" class="edge"><title>Node7&#45;&gt;Node2</title>
<path fill="none" stroke="midnightblue" d="M203.255,-56.324C187.681,-47.7428 163.623,-34.486 145.541,-24.5224"/>
<polygon fill="midnightblue" stroke="midnightblue" points="147.154,-21.4152 136.706,-19.6545 143.776,-27.546 147.154,-21.4152"/>
</g>
</g>
</svg>
