<?xml version="1.0" encoding="UTF-8" standalone="no"?>
<!DOCTYPE svg PUBLIC "-//W3C//DTD SVG 1.1//EN"
 "http://www.w3.org/Graphics/SVG/1.1/DTD/svg11.dtd">
<!-- Generated by graphviz version 2.36.0 (20140111.2315)
 -->
<!-- Title: src/rpc/protocol.h Pages: 1 -->
<svg width="432pt" height="140pt"
 viewBox="0.00 0.00 432.00 140.00" xmlns="http://www.w3.org/2000/svg" xmlns:xlink="http://www.w3.org/1999/xlink">
<g id="graph0" class="graph" transform="scale(1 1) rotate(0) translate(4 136)">
<title>src/rpc/protocol.h</title>
<polygon fill="white" stroke="none" points="-4,4 -4,-136 428,-136 428,4 -4,4"/>
<!-- Node0 -->
<g id="node1" class="node"><title>Node0</title>
<polygon fill="#bfbfbf" stroke="black" points="68,-112.5 68,-131.5 160,-131.5 160,-112.5 68,-112.5"/>
<text text-anchor="middle" x="114" y="-119.5" font-family="Helvetica,sans-Serif" font-size="10.00">src/rpc/protocol.h</text>
</g>
<!-- Node1 -->
<g id="node2" class="node"><title>Node1</title>
<polygon fill="white" stroke="#bfbfbf" points="-0.5,-56.5 -0.5,-75.5 28.5,-75.5 28.5,-56.5 -0.5,-56.5"/>
<text text-anchor="middle" x="14" y="-63.5" font-family="Helvetica,sans-Serif" font-size="10.00">list</text>
</g>
<!-- Node0&#45;&gt;Node1 -->
<g id="edge1" class="edge"><title>Node0&#45;&gt;Node1</title>
<path fill="none" stroke="midnightblue" d="M97.9333,-112.324C81.6661,-103.54 56.3256,-89.8558 37.7418,-79.8206"/>
<polygon fill="midnightblue" stroke="midnightblue" points="39.1855,-76.6225 28.7234,-74.9507 35.8595,-82.7819 39.1855,-76.6225"/>
</g>
<!-- Node2 -->
<g id="node3" class="node"><title>Node2</title>
<polygon fill="white" stroke="#bfbfbf" points="5.5,-0.5 5.5,-19.5 40.5,-19.5 40.5,-0.5 5.5,-0.5"/>
<text text-anchor="middle" x="23" y="-7.5" font-family="Helvetica,sans-Serif" font-size="10.00">map</text>
</g>
<!-- Node0&#45;&gt;Node2 -->
<g id="edge2" class="edge"><title>Node0&#45;&gt;Node2</title>
<path fill="none" stroke="midnightblue" d="M106.859,-112.368C91.7089,-94.0547 56.1314,-51.0489 36.5362,-27.3624"/>
<polygon fill="midnightblue" stroke="midnightblue" points="39.1785,-25.0656 30.1074,-19.5914 33.7849,-29.5276 39.1785,-25.0656"/>
</g>
<!-- Node3 -->
<g id="node4" class="node"><title>Node3</title>
<polygon fill="white" stroke="#bfbfbf" points="58.5,-0.5 58.5,-19.5 107.5,-19.5 107.5,-0.5 58.5,-0.5"/>
<text text-anchor="middle" x="83" y="-7.5" font-family="Helvetica,sans-Serif" font-size="10.00">stdint.h</text>
</g>
<!-- Node0&#45;&gt;Node3 -->
<g id="edge3" class="edge"><title>Node0&#45;&gt;Node3</title>
<path fill="none" stroke="midnightblue" d="M111.567,-112.368C106.542,-94.5366 94.9196,-53.2953 88.1493,-29.2717"/>
<polygon fill="midnightblue" stroke="midnightblue" points="91.5026,-28.2671 85.4212,-19.5914 84.765,-30.1659 91.5026,-28.2671"/>
</g>
<!-- Node4 -->
<g id="node5" class="node"><title>Node4</title>
<polygon fill="white" stroke="#bfbfbf" points="125.5,-0.5 125.5,-19.5 166.5,-19.5 166.5,-0.5 125.5,-0.5"/>
<text text-anchor="middle" x="146" y="-7.5" font-family="Helvetica,sans-Serif" font-size="10.00">string</text>
</g>
<!-- Node0&#45;&gt;Node4 -->
<g id="edge4" class="edge"><title>Node0&#45;&gt;Node4</title>
<path fill="none" stroke="midnightblue" d="M116.511,-112.368C121.698,-94.5366 133.696,-53.2953 140.685,-29.2717"/>
<polygon fill="midnightblue" stroke="midnightblue" points="144.068,-30.1711 143.501,-19.5914 137.347,-28.2157 144.068,-30.1711"/>
</g>
<!-- Node5 -->
<g id="node6" class="node"><title>Node5</title>
<polygon fill="white" stroke="#bfbfbf" points="240.5,-56.5 240.5,-75.5 347.5,-75.5 347.5,-56.5 240.5,-56.5"/>
<text text-anchor="middle" x="294" y="-63.5" font-family="Helvetica,sans-Serif" font-size="10.00">boost/filesystem.hpp</text>
</g>
<!-- Node0&#45;&gt;Node5 -->
<g id="edge5" class="edge"><title>Node0&#45;&gt;Node5</title>
<path fill="none" stroke="midnightblue" d="M142.522,-112.444C173.066,-103.28 221.708,-88.6876 255.603,-78.5192"/>
<polygon fill="midnightblue" stroke="midnightblue" points="257.039,-81.7424 265.612,-75.5164 255.028,-75.0376 257.039,-81.7424"/>
</g>
<!-- Node6 -->
<g id="node7" class="node"><title>Node6</title>
<g id="a_node7"><a xlink:href="univalue_8h.html" target="_top" xlink:title="univalue.h">
<polygon fill="white" stroke="black" points="161.5,-56.5 161.5,-75.5 222.5,-75.5 222.5,-56.5 161.5,-56.5"/>
<text text-anchor="middle" x="192" y="-63.5" font-family="Helvetica,sans-Serif" font-size="10.00">univalue.h</text>
</a>
</g>
</g>
<!-- Node0&#45;&gt;Node6 -->
<g id="edge6" class="edge"><title>Node0&#45;&gt;Node6</title>
<path fill="none" stroke="midnightblue" d="M126.532,-112.324C138.586,-103.979 157.027,-91.2122 171.269,-81.3524"/>
<polygon fill="midnightblue" stroke="midnightblue" points="173.269,-84.2243 179.499,-75.6545 169.285,-78.469 173.269,-84.2243"/>
</g>
<!-- Node6&#45;&gt;Node2 -->
<g id="edge10" class="edge"><title>Node6&#45;&gt;Node2</title>
<path fill="none" stroke="midnightblue" d="M163.975,-56.4385C137.008,-48.1437 94.8607,-35.0333 50.1698,-20.3285"/>
<polygon fill="midnightblue" stroke="midnightblue" points="51.1924,-16.9804 40.5992,-17.1677 48.9971,-23.6272 51.1924,-16.9804"/>
</g>
<!-- Node6&#45;&gt;Node3 -->
<g id="edge7" class="edge"><title>Node6&#45;&gt;Node3</title>
<path fill="none" stroke="midnightblue" d="M174.487,-56.324C156.928,-47.6247 129.669,-34.1202 109.469,-24.113"/>
<polygon fill="midnightblue" stroke="midnightblue" points="110.984,-20.9575 100.469,-19.6545 107.876,-27.23 110.984,-20.9575"/>
</g>
<!-- Node6&#45;&gt;Node4 -->
<g id="edge8" class="edge"><title>Node6&#45;&gt;Node4</title>
<path fill="none" stroke="midnightblue" d="M184.404,-56.083C177.773,-48.2982 167.979,-36.8015 159.942,-27.3665"/>
<polygon fill="midnightblue" stroke="midnightblue" points="162.604,-25.0939 153.455,-19.7511 157.275,-29.6332 162.604,-25.0939"/>
</g>
<!-- Node7 -->
<g id="node8" class="node"><title>Node7</title>
<polygon fill="white" stroke="#bfbfbf" points="380,-0.5 380,-19.5 424,-19.5 424,-0.5 380,-0.5"/>
<text text-anchor="middle" x="402" y="-7.5" font-family="Helvetica,sans-Serif" font-size="10.00">vector</text>
</g>
<!-- Node6&#45;&gt;Node7 -->
<g id="edge9" class="edge"><title>Node6&#45;&gt;Node7</title>
<path fill="none" stroke="midnightblue" d="M222.812,-57.6137C256.595,-49.4365 312.634,-35.6423 369.756,-20.2691"/>
<polygon fill="midnightblue" stroke="midnightblue" points="370.937,-23.5755 379.676,-17.5859 369.109,-16.8183 370.937,-23.5755"/>
</g>
<!-- Node8 -->
<g id="node9" class="node"><title>Node8</title>
<polygon fill="white" stroke="#bfbfbf" points="184.5,-0.5 184.5,-19.5 233.5,-19.5 233.5,-0.5 184.5,-0.5"/>
<text text-anchor="middle" x="209" y="-7.5" font-family="Helvetica,sans-Serif" font-size="10.00">cassert</text>
</g>
<!-- Node6&#45;&gt;Node8 -->
<g id="edge11" class="edge"><title>Node6&#45;&gt;Node8</title>
<path fill="none" stroke="midnightblue" d="M194.807,-56.083C197.085,-48.8486 200.371,-38.4087 203.208,-29.3968"/>
<polygon fill="midnightblue" stroke="midnightblue" points="206.581,-30.3406 206.245,-19.7511 199.904,-28.2385 206.581,-30.3406"/>
</g>
<!-- Node9 -->
<g id="node10" class="node"><title>Node9</title>
<polygon fill="white" stroke="#bfbfbf" points="252,-0.5 252,-19.5 304,-19.5 304,-0.5 252,-0.5"/>
<text text-anchor="middle" x="278" y="-7.5" font-family="Helvetica,sans-Serif" font-size="10.00">sstream</text>
</g>
<!-- Node6&#45;&gt;Node9 -->
<g id="edge12" class="edge"><title>Node6&#45;&gt;Node9</title>
<path fill="none" stroke="midnightblue" d="M205.817,-56.324C219.233,-47.9002 239.824,-34.9709 255.586,-25.0741"/>
<polygon fill="midnightblue" stroke="midnightblue" points="257.609,-27.9364 264.217,-19.6545 253.887,-22.0081 257.609,-27.9364"/>
</g>
<!-- Node10 -->
<g id="node11" class="node"><title>Node10</title>
<polygon fill="white" stroke="#bfbfbf" points="322,-0.5 322,-19.5 362,-19.5 362,-0.5 322,-0.5"/>
<text text-anchor="middle" x="342" y="-7.5" font-family="Helvetica,sans-Serif" font-size="10.00">utility</text>
</g>
<!-- Node6&#45;&gt;Node10 -->
<g id="edge13" class="edge"><title>Node6&#45;&gt;Node10</title>
<path fill="none" stroke="midnightblue" d="M215.768,-56.4435C241.813,-47.0673 283.648,-32.0068 311.95,-21.818"/>
<polygon fill="midnightblue" stroke="midnightblue" points="313.487,-24.9845 321.711,-18.3042 311.116,-18.3983 313.487,-24.9845"/>
</g>
</g>
</svg>
