<?xml version="1.0" encoding="UTF-8" standalone="no"?>
<!DOCTYPE svg PUBLIC "-//W3C//DTD SVG 1.1//EN"
 "http://www.w3.org/Graphics/SVG/1.1/DTD/svg11.dtd">
<!-- Generated by graphviz version 2.36.0 (20140111.2315)
 -->
<!-- Title: src/rpc/protocol.h Pages: 1 -->
<svg width="2220pt" height="152pt"
 viewBox="0.00 0.00 2220.00 152.00" xmlns="http://www.w3.org/2000/svg" xmlns:xlink="http://www.w3.org/1999/xlink">
<g id="graph0" class="graph" transform="scale(1 1) rotate(0) translate(4 148)">
<title>src/rpc/protocol.h</title>
<polygon fill="white" stroke="none" points="-4,4 -4,-148 2216,-148 2216,4 -4,4"/>
<!-- Node11 -->
<g id="node1" class="node"><title>Node11</title>
<polygon fill="#bfbfbf" stroke="black" points="1263,-124.5 1263,-143.5 1355,-143.5 1355,-124.5 1263,-124.5"/>
<text text-anchor="middle" x="1309" y="-131.5" font-family="Helvetica,sans-Serif" font-size="10.00">src/rpc/protocol.h</text>
</g>
<!-- Node12 -->
<g id="node2" class="node"><title>Node12</title>
<g id="a_node2"><a xlink:href="dash-cli_8cpp.html" target="_top" xlink:title="src/dash&#45;cli.cpp">
<polygon fill="white" stroke="black" points="867,-68.5 867,-87.5 953,-87.5 953,-68.5 867,-68.5"/>
<text text-anchor="middle" x="910" y="-75.5" font-family="Helvetica,sans-Serif" font-size="10.00">src/dash&#45;cli.cpp</text>
</a>
</g>
</g>
<!-- Node11&#45;&gt;Node12 -->
<g id="edge1" class="edge"><title>Node11&#45;&gt;Node12</title>
<path fill="none" stroke="midnightblue" d="M1252.71,-126.045C1184.88,-117.56 1067.49,-102.542 967,-88 962.538,-87.3543 957.884,-86.6575 953.242,-85.9476"/>
<polygon fill="midnightblue" stroke="midnightblue" points="1252.4,-129.534 1262.76,-127.3 1253.27,-122.588 1252.4,-129.534"/>
</g>
<!-- Node13 -->
<g id="node3" class="node"><title>Node13</title>
<g id="a_node3"><a xlink:href="server_8h.html" target="_top" xlink:title="src/rpc/server.h">
<polygon fill="white" stroke="black" points="1009.5,-68.5 1009.5,-87.5 1094.5,-87.5 1094.5,-68.5 1009.5,-68.5"/>
<text text-anchor="middle" x="1052" y="-75.5" font-family="Helvetica,sans-Serif" font-size="10.00">src/rpc/server.h</text>
</a>
</g>
</g>
<!-- Node11&#45;&gt;Node13 -->
<g id="edge2" class="edge"><title>Node11&#45;&gt;Node13</title>
<path fill="none" stroke="midnightblue" d="M1258.29,-122.346C1209.72,-112.141 1137.38,-96.94 1092.53,-87.5164"/>
<polygon fill="midnightblue" stroke="midnightblue" points="1257.77,-125.812 1268.28,-124.444 1259.21,-118.962 1257.77,-125.812"/>
</g>
<!-- Node15 -->
<g id="node5" class="node"><title>Node15</title>
<g id="a_node5"><a xlink:href="httprpc_8cpp.html" target="_top" xlink:title="src/httprpc.cpp">
<polygon fill="white" stroke="black" points="0,-6.5 0,-25.5 82,-25.5 82,-6.5 0,-6.5"/>
<text text-anchor="middle" x="41" y="-13.5" font-family="Helvetica,sans-Serif" font-size="10.00">src/httprpc.cpp</text>
</a>
</g>
</g>
<!-- Node11&#45;&gt;Node15 -->
<g id="edge22" class="edge"><title>Node11&#45;&gt;Node15</title>
<path fill="none" stroke="midnightblue" d="M1252.75,-130.532C1189.81,-126.468 1085.46,-115.804 1000,-88 981.851,-82.0953 980.43,-72.9598 962,-68 774.935,-17.6567 282.046,-64.0833 91,-32 82.4199,-30.5591 73.2436,-28.0895 65.1249,-25.5654"/>
<polygon fill="midnightblue" stroke="midnightblue" points="1252.67,-134.034 1262.87,-131.151 1253.1,-127.047 1252.67,-134.034"/>
</g>
<!-- Node25 -->
<g id="node15" class="node"><title>Node25</title>
<g id="a_node15"><a xlink:href="rpc_2net_8cpp.html" target="_top" xlink:title="src/rpc/net.cpp">
<polygon fill="white" stroke="black" points="2130,-6.5 2130,-25.5 2212,-25.5 2212,-6.5 2130,-6.5"/>
<text text-anchor="middle" x="2171" y="-13.5" font-family="Helvetica,sans-Serif" font-size="10.00">src/rpc/net.cpp</text>
</a>
</g>
</g>
<!-- Node11&#45;&gt;Node25 -->
<g id="edge27" class="edge"><title>Node11&#45;&gt;Node25</title>
<path fill="none" stroke="midnightblue" d="M1252.8,-128.724C1191.47,-122.078 1106.53,-105.838 1143,-68 1180.69,-28.8931 2066.39,-40.7306 2120,-32 2128.84,-30.561 2138.3,-28.0589 2146.64,-25.506"/>
<polygon fill="midnightblue" stroke="midnightblue" points="1252.5,-132.211 1262.8,-129.747 1253.21,-125.247 1252.5,-132.211"/>
</g>
<!-- Node33 -->
<g id="node23" class="node"><title>Node33</title>
<g id="a_node23"><a xlink:href="httpserver_8cpp.html" target="_top" xlink:title="src/httpserver.cpp">
<polygon fill="white" stroke="black" points="1151.5,-68.5 1151.5,-87.5 1246.5,-87.5 1246.5,-68.5 1151.5,-68.5"/>
<text text-anchor="middle" x="1199" y="-75.5" font-family="Helvetica,sans-Serif" font-size="10.00">src/httpserver.cpp</text>
</a>
</g>
</g>
<!-- Node11&#45;&gt;Node33 -->
<g id="edge23" class="edge"><title>Node11&#45;&gt;Node33</title>
<path fill="none" stroke="midnightblue" d="M1282.24,-119.862C1261.84,-109.849 1234.33,-96.3458 1216.63,-87.6545"/>
<polygon fill="midnightblue" stroke="midnightblue" points="1280.81,-123.059 1291.33,-124.324 1283.89,-116.775 1280.81,-123.059"/>
</g>
<!-- Node34 -->
<g id="node24" class="node"><title>Node34</title>
<g id="a_node24"><a xlink:href="keepass_8cpp.html" target="_top" xlink:title="src/keepass.cpp">
<polygon fill="white" stroke="black" points="1264.5,-68.5 1264.5,-87.5 1353.5,-87.5 1353.5,-68.5 1264.5,-68.5"/>
<text text-anchor="middle" x="1309" y="-75.5" font-family="Helvetica,sans-Serif" font-size="10.00">src/keepass.cpp</text>
</a>
</g>
</g>
<!-- Node11&#45;&gt;Node34 -->
<g id="edge24" class="edge"><title>Node11&#45;&gt;Node34</title>
<path fill="none" stroke="midnightblue" d="M1309,-113.805C1309,-104.91 1309,-94.7798 1309,-87.7511"/>
<polygon fill="midnightblue" stroke="midnightblue" points="1305.5,-114.083 1309,-124.083 1312.5,-114.083 1305.5,-114.083"/>
</g>
<!-- Node35 -->
<g id="node25" class="node"><title>Node35</title>
<g id="a_node25"><a xlink:href="guiutil_8cpp.html" target="_top" xlink:title="src/qt/guiutil.cpp">
<polygon fill="white" stroke="black" points="1371.5,-68.5 1371.5,-87.5 1460.5,-87.5 1460.5,-68.5 1371.5,-68.5"/>
<text text-anchor="middle" x="1416" y="-75.5" font-family="Helvetica,sans-Serif" font-size="10.00">src/qt/guiutil.cpp</text>
</a>
</g>
</g>
<!-- Node11&#45;&gt;Node35 -->
<g id="edge25" class="edge"><title>Node11&#45;&gt;Node35</title>
<path fill="none" stroke="midnightblue" d="M1335.3,-119.726C1355.11,-109.727 1381.71,-96.3065 1398.85,-87.6545"/>
<polygon fill="midnightblue" stroke="midnightblue" points="1333.54,-116.694 1326.19,-124.324 1336.7,-122.943 1333.54,-116.694"/>
</g>
<!-- Node36 -->
<g id="node26" class="node"><title>Node36</title>
<g id="a_node26"><a xlink:href="client_8cpp.html" target="_top" xlink:title="src/rpc/client.cpp">
<polygon fill="white" stroke="black" points="1479,-68.5 1479,-87.5 1571,-87.5 1571,-68.5 1479,-68.5"/>
<text text-anchor="middle" x="1525" y="-75.5" font-family="Helvetica,sans-Serif" font-size="10.00">src/rpc/client.cpp</text>
</a>
</g>
</g>
<!-- Node11&#45;&gt;Node36 -->
<g id="edge26" class="edge"><title>Node11&#45;&gt;Node36</title>
<path fill="none" stroke="midnightblue" d="M1353.16,-121.959C1393.96,-111.76 1453.71,-96.8217 1490.93,-87.5164"/>
<polygon fill="midnightblue" stroke="midnightblue" points="1352.08,-118.623 1343.23,-124.444 1353.78,-125.414 1352.08,-118.623"/>
</g>
<!-- Node37 -->
<g id="node27" class="node"><title>Node37</title>
<g id="a_node27"><a xlink:href="rpc_2protocol_8cpp.html" target="_top" xlink:title="src/rpc/protocol.cpp">
<polygon fill="white" stroke="black" points="1589.5,-68.5 1589.5,-87.5 1692.5,-87.5 1692.5,-68.5 1589.5,-68.5"/>
<text text-anchor="middle" x="1641" y="-75.5" font-family="Helvetica,sans-Serif" font-size="10.00">src/rpc/protocol.cpp</text>
</a>
</g>
</g>
<!-- Node11&#45;&gt;Node37 -->
<g id="edge28" class="edge"><title>Node11&#45;&gt;Node37</title>
<path fill="none" stroke="midnightblue" d="M1365.27,-123.848C1427.94,-113.654 1528.43,-97.3096 1589.23,-87.4208"/>
<polygon fill="midnightblue" stroke="midnightblue" points="1364.47,-120.431 1355.16,-125.492 1365.6,-127.341 1364.47,-120.431"/>
</g>
<!-- Node38 -->
<g id="node28" class="node"><title>Node38</title>
<g id="a_node28"><a xlink:href="db_8cpp.html" target="_top" xlink:title="src/wallet/db.cpp">
<polygon fill="white" stroke="black" points="1710.5,-68.5 1710.5,-87.5 1801.5,-87.5 1801.5,-68.5 1710.5,-68.5"/>
<text text-anchor="middle" x="1756" y="-75.5" font-family="Helvetica,sans-Serif" font-size="10.00">src/wallet/db.cpp</text>
</a>
</g>
</g>
<!-- Node11&#45;&gt;Node38 -->
<g id="edge29" class="edge"><title>Node11&#45;&gt;Node38</title>
<path fill="none" stroke="midnightblue" d="M1365.59,-127.364C1441.89,-119.567 1581.93,-104.567 1701,-88 1704.07,-87.5733 1707.23,-87.1127 1710.41,-86.6333"/>
<polygon fill="midnightblue" stroke="midnightblue" points="1364.85,-123.921 1355.26,-128.415 1365.56,-130.885 1364.85,-123.921"/>
</g>
<!-- Node39 -->
<g id="node29" class="node"><title>Node39</title>
<g id="a_node29"><a xlink:href="walletdb_8cpp.html" target="_top" xlink:title="src/wallet/walletdb.cpp">
<polygon fill="white" stroke="black" points="1820,-68.5 1820,-87.5 1936,-87.5 1936,-68.5 1820,-68.5"/>
<text text-anchor="middle" x="1878" y="-75.5" font-family="Helvetica,sans-Serif" font-size="10.00">src/wallet/walletdb.cpp</text>
</a>
</g>
</g>
<!-- Node11&#45;&gt;Node39 -->
<g id="edge30" class="edge"><title>Node11&#45;&gt;Node39</title>
<path fill="none" stroke="midnightblue" d="M1365.36,-128.714C1458.17,-121.482 1648.96,-105.882 1810,-88 1813.2,-87.6452 1816.47,-87.2651 1819.78,-86.869"/>
<polygon fill="midnightblue" stroke="midnightblue" points="1365.04,-125.228 1355.34,-129.492 1365.58,-132.207 1365.04,-125.228"/>
</g>
<!-- Node14 -->
<g id="node4" class="node"><title>Node14</title>
<g id="a_node4"><a xlink:href="dashd_8cpp.html" target="_top" xlink:title="src/dashd.cpp">
<polygon fill="white" stroke="black" points="100,-6.5 100,-25.5 178,-25.5 178,-6.5 100,-6.5"/>
<text text-anchor="middle" x="139" y="-13.5" font-family="Helvetica,sans-Serif" font-size="10.00">src/dashd.cpp</text>
</a>
</g>
</g>
<!-- Node13&#45;&gt;Node14 -->
<g id="edge3" class="edge"><title>Node13&#45;&gt;Node14</title>
<path fill="none" stroke="midnightblue" d="M999.444,-68.4793C997.948,-68.3081 996.464,-68.1477 995,-68 637.349,-31.9116 541.058,-94.1277 187,-32 178.745,-30.5514 169.931,-28.0799 162.138,-25.5563"/>
<polygon fill="midnightblue" stroke="midnightblue" points="999.065,-71.9592 1009.43,-69.7439 999.945,-65.0147 999.065,-71.9592"/>
</g>
<!-- Node13&#45;&gt;Node15 -->
<g id="edge4" class="edge"><title>Node13&#45;&gt;Node15</title>
<path fill="none" stroke="midnightblue" d="M999.445,-68.47C997.948,-68.3016 996.464,-68.1443 995,-68 594.841,-28.5768 487.593,-98.2949 91,-32 82.4188,-30.5656 73.2423,-28.0976 65.1236,-25.5729"/>
<polygon fill="midnightblue" stroke="midnightblue" points="999.07,-71.9504 1009.43,-69.7218 999.941,-65.0048 999.07,-71.9504"/>
</g>
<!-- Node16 -->
<g id="node6" class="node"><title>Node16</title>
<g id="a_node6"><a xlink:href="init_8cpp.html" target="_top" xlink:title="src/init.cpp">
<polygon fill="white" stroke="black" points="196.5,-6.5 196.5,-25.5 261.5,-25.5 261.5,-6.5 196.5,-6.5"/>
<text text-anchor="middle" x="229" y="-13.5" font-family="Helvetica,sans-Serif" font-size="10.00">src/init.cpp</text>
</a>
</g>
</g>
<!-- Node13&#45;&gt;Node16 -->
<g id="edge5" class="edge"><title>Node13&#45;&gt;Node16</title>
<path fill="none" stroke="midnightblue" d="M999.443,-68.4893C997.947,-68.3152 996.464,-68.1515 995,-68 674.537,-34.829 586.985,-94.8545 271,-32 263.71,-30.5499 255.981,-28.0779 249.168,-25.5545"/>
<polygon fill="midnightblue" stroke="midnightblue" points="999.06,-71.9688 1009.42,-69.7681 999.949,-65.0255 999.06,-71.9688"/>
</g>
<!-- Node17 -->
<g id="node7" class="node"><title>Node17</title>
<g id="a_node7"><a xlink:href="dash_8cpp.html" target="_top" xlink:title="src/qt/dash.cpp">
<polygon fill="white" stroke="black" points="280,-6.5 280,-25.5 364,-25.5 364,-6.5 280,-6.5"/>
<text text-anchor="middle" x="322" y="-13.5" font-family="Helvetica,sans-Serif" font-size="10.00">src/qt/dash.cpp</text>
</a>
</g>
</g>
<!-- Node13&#45;&gt;Node17 -->
<g id="edge6" class="edge"><title>Node13&#45;&gt;Node17</title>
<path fill="none" stroke="midnightblue" d="M999.441,-68.5052C997.946,-68.3265 996.463,-68.1574 995,-68 719.683,-38.3703 645.824,-79.3751 373,-32 364.362,-30.5 355.111,-28.0476 346.893,-25.5562"/>
<polygon fill="midnightblue" stroke="midnightblue" points="999.051,-71.9838 1009.42,-69.8061 999.956,-65.0426 999.051,-71.9838"/>
</g>
<!-- Node18 -->
<g id="node8" class="node"><title>Node18</title>
<g id="a_node8"><a xlink:href="rpcconsole_8cpp.html" target="_top" xlink:title="src/qt/rpcconsole.cpp">
<polygon fill="white" stroke="black" points="382,-6.5 382,-25.5 492,-25.5 492,-6.5 382,-6.5"/>
<text text-anchor="middle" x="437" y="-13.5" font-family="Helvetica,sans-Serif" font-size="10.00">src/qt/rpcconsole.cpp</text>
</a>
</g>
</g>
<!-- Node13&#45;&gt;Node18 -->
<g id="edge7" class="edge"><title>Node13&#45;&gt;Node18</title>
<path fill="none" stroke="midnightblue" d="M999.438,-68.5343C997.943,-68.347 996.462,-68.1684 995,-68 776.308,-42.8112 718.617,-65.2197 501,-32 490.508,-30.3984 479.193,-27.9809 469.037,-25.5516"/>
<polygon fill="midnightblue" stroke="midnightblue" points="999.034,-72.0114 1009.41,-69.876 999.968,-65.0739 999.034,-72.0114"/>
</g>
<!-- Node19 -->
<g id="node9" class="node"><title>Node19</title>
<g id="a_node9"><a xlink:href="rest_8cpp.html" target="_top" xlink:title="src/rest.cpp">
<polygon fill="white" stroke="black" points="510,-6.5 510,-25.5 578,-25.5 578,-6.5 510,-6.5"/>
<text text-anchor="middle" x="544" y="-13.5" font-family="Helvetica,sans-Serif" font-size="10.00">src/rest.cpp</text>
</a>
</g>
</g>
<!-- Node13&#45;&gt;Node19 -->
<g id="edge8" class="edge"><title>Node13&#45;&gt;Node19</title>
<path fill="none" stroke="midnightblue" d="M999.434,-68.564C997.941,-68.3681 996.46,-68.1795 995,-68 814.322,-45.7914 764.969,-70.2721 587,-32 579.734,-30.4375 572.006,-28 565.136,-25.5408"/>
<polygon fill="midnightblue" stroke="midnightblue" points="999.017,-72.0395 1009.4,-69.9473 999.979,-65.106 999.017,-72.0395"/>
</g>
<!-- Node20 -->
<g id="node10" class="node"><title>Node20</title>
<g id="a_node10"><a xlink:href="blockchain_8cpp.html" target="_top" xlink:title="src/rpc/blockchain.cpp">
<polygon fill="white" stroke="black" points="596.5,-6.5 596.5,-25.5 711.5,-25.5 711.5,-6.5 596.5,-6.5"/>
<text text-anchor="middle" x="654" y="-13.5" font-family="Helvetica,sans-Serif" font-size="10.00">src/rpc/blockchain.cpp</text>
</a>
</g>
</g>
<!-- Node13&#45;&gt;Node20 -->
<g id="edge9" class="edge"><title>Node13&#45;&gt;Node20</title>
<path fill="none" stroke="midnightblue" d="M999.423,-68.646C997.933,-68.426 996.456,-68.2103 995,-68 873,-50.3861 841.343,-53.6827 720,-32 709.821,-30.1811 698.841,-27.8402 688.814,-25.5512"/>
<polygon fill="midnightblue" stroke="midnightblue" points="998.967,-72.1167 1009.38,-70.1441 1000.01,-65.1946 998.967,-72.1167"/>
</g>
<!-- Node21 -->
<g id="node11" class="node"><title>Node21</title>
<g id="a_node11"><a xlink:href="rpc_2governance_8cpp.html" target="_top" xlink:title="src/rpc/governance.cpp">
<polygon fill="white" stroke="black" points="729.5,-6.5 729.5,-25.5 848.5,-25.5 848.5,-6.5 729.5,-6.5"/>
<text text-anchor="middle" x="789" y="-13.5" font-family="Helvetica,sans-Serif" font-size="10.00">src/rpc/governance.cpp</text>
</a>
</g>
</g>
<!-- Node13&#45;&gt;Node21 -->
<g id="edge10" class="edge"><title>Node13&#45;&gt;Node21</title>
<path fill="none" stroke="midnightblue" d="M1004.78,-66.2279C953.653,-54.5634 873.144,-36.1963 826.273,-25.5034"/>
<polygon fill="midnightblue" stroke="midnightblue" points="1004.07,-69.6552 1014.6,-68.4672 1005.63,-62.8306 1004.07,-69.6552"/>
</g>
<!-- Node22 -->
<g id="node12" class="node"><title>Node22</title>
<g id="a_node12"><a xlink:href="rpc_2masternode_8cpp.html" target="_top" xlink:title="src/rpc/masternode.cpp">
<polygon fill="white" stroke="black" points="866.5,-6.5 866.5,-25.5 985.5,-25.5 985.5,-6.5 866.5,-6.5"/>
<text text-anchor="middle" x="926" y="-13.5" font-family="Helvetica,sans-Serif" font-size="10.00">src/rpc/masternode.cpp</text>
</a>
</g>
</g>
<!-- Node13&#45;&gt;Node22 -->
<g id="edge11" class="edge"><title>Node13&#45;&gt;Node22</title>
<path fill="none" stroke="midnightblue" d="M1024.84,-64.0664C1000.39,-52.4239 965.15,-35.6429 944.019,-25.5806"/>
<polygon fill="midnightblue" stroke="midnightblue" points="1023.41,-67.2641 1033.95,-68.4035 1026.42,-60.9441 1023.41,-67.2641"/>
</g>
<!-- Node23 -->
<g id="node13" class="node"><title>Node23</title>
<g id="a_node13"><a xlink:href="mining_8cpp.html" target="_top" xlink:title="src/rpc/mining.cpp">
<polygon fill="white" stroke="black" points="1003.5,-6.5 1003.5,-25.5 1100.5,-25.5 1100.5,-6.5 1003.5,-6.5"/>
<text text-anchor="middle" x="1052" y="-13.5" font-family="Helvetica,sans-Serif" font-size="10.00">src/rpc/mining.cpp</text>
</a>
</g>
</g>
<!-- Node13&#45;&gt;Node23 -->
<g id="edge12" class="edge"><title>Node13&#45;&gt;Node23</title>
<path fill="none" stroke="midnightblue" d="M1052,-58.1595C1052,-47.2482 1052,-34.04 1052,-25.5806"/>
<polygon fill="midnightblue" stroke="midnightblue" points="1048.5,-58.4034 1052,-68.4035 1055.5,-58.4035 1048.5,-58.4034"/>
</g>
<!-- Node24 -->
<g id="node14" class="node"><title>Node24</title>
<g id="a_node14"><a xlink:href="misc_8cpp.html" target="_top" xlink:title="src/rpc/misc.cpp">
<polygon fill="white" stroke="black" points="1118.5,-6.5 1118.5,-25.5 1207.5,-25.5 1207.5,-6.5 1118.5,-6.5"/>
<text text-anchor="middle" x="1163" y="-13.5" font-family="Helvetica,sans-Serif" font-size="10.00">src/rpc/misc.cpp</text>
</a>
</g>
</g>
<!-- Node13&#45;&gt;Node24 -->
<g id="edge13" class="edge"><title>Node13&#45;&gt;Node24</title>
<path fill="none" stroke="midnightblue" d="M1076.79,-63.6001C1098.29,-51.9796 1128.76,-35.5093 1147.13,-25.5806"/>
<polygon fill="midnightblue" stroke="midnightblue" points="1075.04,-60.5693 1067.9,-68.4035 1078.36,-66.7272 1075.04,-60.5693"/>
</g>
<!-- Node13&#45;&gt;Node25 -->
<g id="edge14" class="edge"><title>Node13&#45;&gt;Node25</title>
<path fill="none" stroke="midnightblue" d="M1104.55,-68.4618C1106.05,-68.2958 1107.54,-68.1412 1109,-68 1556.54,-24.8593 1676.18,-103.997 2120,-32 2128.84,-30.5665 2138.3,-28.0657 2146.64,-25.5123"/>
<polygon fill="midnightblue" stroke="midnightblue" points="1104.06,-64.996 1094.57,-69.7021 1104.93,-71.9426 1104.06,-64.996"/>
</g>
<!-- Node26 -->
<g id="node16" class="node"><title>Node26</title>
<g id="a_node16"><a xlink:href="rawtransaction_8cpp.html" target="_top" xlink:title="src/rpc/rawtransaction.cpp">
<polygon fill="white" stroke="black" points="1226,-6.5 1226,-25.5 1358,-25.5 1358,-6.5 1226,-6.5"/>
<text text-anchor="middle" x="1292" y="-13.5" font-family="Helvetica,sans-Serif" font-size="10.00">src/rpc/rawtransaction.cpp</text>
</a>
</g>
</g>
<!-- Node13&#45;&gt;Node26 -->
<g id="edge15" class="edge"><title>Node13&#45;&gt;Node26</title>
<path fill="none" stroke="midnightblue" d="M1095.97,-66.0084C1142.66,-54.3341 1215.48,-36.1294 1257.99,-25.5034"/>
<polygon fill="midnightblue" stroke="midnightblue" points="1094.98,-62.6463 1086.13,-68.4672 1096.68,-69.4373 1094.98,-62.6463"/>
</g>
<!-- Node27 -->
<g id="node17" class="node"><title>Node27</title>
<g id="a_node17"><a xlink:href="rpcevo_8cpp.html" target="_top" xlink:title="src/rpc/rpcevo.cpp">
<polygon fill="white" stroke="black" points="1376,-6.5 1376,-25.5 1474,-25.5 1474,-6.5 1376,-6.5"/>
<text text-anchor="middle" x="1425" y="-13.5" font-family="Helvetica,sans-Serif" font-size="10.00">src/rpc/rpcevo.cpp</text>
</a>
</g>
</g>
<!-- Node13&#45;&gt;Node27 -->
<g id="edge16" class="edge"><title>Node13&#45;&gt;Node27</title>
<path fill="none" stroke="midnightblue" d="M1104.58,-68.6624C1106.07,-68.4376 1107.54,-68.2164 1109,-68 1223.52,-50.9708 1253.44,-54.5312 1367,-32 1376.08,-30.1986 1385.86,-27.8367 1394.75,-25.5219"/>
<polygon fill="midnightblue" stroke="midnightblue" points="1103.98,-65.2124 1094.63,-70.1835 1105.04,-72.1321 1103.98,-65.2124"/>
</g>
<!-- Node28 -->
<g id="node18" class="node"><title>Node28</title>
<g id="a_node18"><a xlink:href="server_8cpp.html" target="_top" xlink:title="src/rpc/server.cpp">
<polygon fill="white" stroke="black" points="1492.5,-6.5 1492.5,-25.5 1587.5,-25.5 1587.5,-6.5 1492.5,-6.5"/>
<text text-anchor="middle" x="1540" y="-13.5" font-family="Helvetica,sans-Serif" font-size="10.00">src/rpc/server.cpp</text>
</a>
</g>
</g>
<!-- Node13&#45;&gt;Node28 -->
<g id="edge17" class="edge"><title>Node13&#45;&gt;Node28</title>
<path fill="none" stroke="midnightblue" d="M1104.57,-68.58C1106.06,-68.3794 1107.54,-68.1855 1109,-68 1274.22,-47.0028 1317.99,-60.9394 1482,-32 1491.42,-30.3373 1501.56,-27.9325 1510.69,-25.5336"/>
<polygon fill="midnightblue" stroke="midnightblue" points="1104.01,-65.1232 1094.6,-69.9857 1104.99,-72.0546 1104.01,-65.1232"/>
</g>
<!-- Node29 -->
<g id="node19" class="node"><title>Node29</title>
<g id="a_node19"><a xlink:href="rpcdump_8cpp.html" target="_top" xlink:title="src/wallet/rpcdump.cpp">
<polygon fill="white" stroke="black" points="1606,-6.5 1606,-25.5 1724,-25.5 1724,-6.5 1606,-6.5"/>
<text text-anchor="middle" x="1665" y="-13.5" font-family="Helvetica,sans-Serif" font-size="10.00">src/wallet/rpcdump.cpp</text>
</a>
</g>
</g>
<!-- Node13&#45;&gt;Node29 -->
<g id="edge18" class="edge"><title>Node13&#45;&gt;Node29</title>
<path fill="none" stroke="midnightblue" d="M1104.56,-68.5363C1106.06,-68.3485 1107.54,-68.1691 1109,-68 1324.6,-43.0539 1381.21,-63.1289 1596,-32 1607.28,-30.3648 1619.47,-27.9381 1630.42,-25.5107"/>
<polygon fill="midnightblue" stroke="midnightblue" points="1104.03,-65.0761 1094.59,-69.8809 1104.97,-72.0134 1104.03,-65.0761"/>
</g>
<!-- Node30 -->
<g id="node20" class="node"><title>Node30</title>
<g id="a_node20"><a xlink:href="rpcwallet_8cpp.html" target="_top" xlink:title="src/wallet/rpcwallet.cpp">
<polygon fill="white" stroke="black" points="1742.5,-6.5 1742.5,-25.5 1861.5,-25.5 1861.5,-6.5 1742.5,-6.5"/>
<text text-anchor="middle" x="1802" y="-13.5" font-family="Helvetica,sans-Serif" font-size="10.00">src/wallet/rpcwallet.cpp</text>
</a>
</g>
</g>
<!-- Node13&#45;&gt;Node30 -->
<g id="edge19" class="edge"><title>Node13&#45;&gt;Node30</title>
<path fill="none" stroke="midnightblue" d="M1104.56,-68.5048C1106.05,-68.3262 1107.54,-68.1573 1109,-68 1385.2,-38.3009 1457.76,-69.6209 1733,-32 1744.42,-30.4394 1756.75,-28.0025 1767.79,-25.5432"/>
<polygon fill="midnightblue" stroke="midnightblue" points="1104.04,-65.0422 1094.58,-69.8053 1104.95,-71.9835 1104.04,-65.0422"/>
</g>
<!-- Node31 -->
<g id="node21" class="node"><title>Node31</title>
<g id="a_node21"><a xlink:href="wallet__test__fixture_8cpp.html" target="_top" xlink:title="src/wallet/test/wallet\l_test_fixture.cpp">
<polygon fill="white" stroke="black" points="1879.5,-1 1879.5,-31 1986.5,-31 1986.5,-1 1879.5,-1"/>
<text text-anchor="start" x="1887.5" y="-19" font-family="Helvetica,sans-Serif" font-size="10.00">src/wallet/test/wallet</text>
<text text-anchor="middle" x="1933" y="-8" font-family="Helvetica,sans-Serif" font-size="10.00">_test_fixture.cpp</text>
</a>
</g>
</g>
<!-- Node13&#45;&gt;Node31 -->
<g id="edge20" class="edge"><title>Node13&#45;&gt;Node31</title>
<path fill="none" stroke="midnightblue" d="M1104.56,-68.4846C1106.05,-68.3119 1107.54,-68.1497 1109,-68 1445.84,-33.544 1534.74,-79.4194 1870,-32 1873.01,-31.5749 1876.08,-31.0726 1879.17,-30.5141"/>
<polygon fill="midnightblue" stroke="midnightblue" points="1104.05,-65.0205 1094.58,-69.7568 1104.94,-71.9643 1104.05,-65.0205"/>
</g>
<!-- Node32 -->
<g id="node22" class="node"><title>Node32</title>
<g id="a_node22"><a xlink:href="wallet__tests_8cpp.html" target="_top" xlink:title="src/wallet/test/wallet\l_tests.cpp">
<polygon fill="white" stroke="black" points="2004.5,-1 2004.5,-31 2111.5,-31 2111.5,-1 2004.5,-1"/>
<text text-anchor="start" x="2012.5" y="-19" font-family="Helvetica,sans-Serif" font-size="10.00">src/wallet/test/wallet</text>
<text text-anchor="middle" x="2058" y="-8" font-family="Helvetica,sans-Serif" font-size="10.00">_tests.cpp</text>
</a>
</g>
</g>
<!-- Node13&#45;&gt;Node32 -->
<g id="edge21" class="edge"><title>Node13&#45;&gt;Node32</title>
<path fill="none" stroke="midnightblue" d="M1104.56,-68.4716C1106.05,-68.3027 1107.54,-68.1449 1109,-68 1501.19,-29.2021 1604.6,-85.8922 1995,-32 1998.01,-31.5849 2001.08,-31.0905 2004.17,-30.5381"/>
<polygon fill="midnightblue" stroke="midnightblue" points="1104.06,-65.0065 1094.57,-69.7256 1104.93,-71.9519 1104.06,-65.0065"/>
</g>
</g>
</svg>
