<?xml version="1.0" encoding="UTF-8" standalone="no"?>
<!DOCTYPE svg PUBLIC "-//W3C//DTD SVG 1.1//EN"
 "http://www.w3.org/Graphics/SVG/1.1/DTD/svg11.dtd">
<!-- Generated by graphviz version 2.36.0 (20140111.2315)
 -->
<!-- Title: src/rpc/protocol.cpp Pages: 1 -->
<!--zoomable 364 -->
<svg id="main" version="1.1" xmlns="http://www.w3.org/2000/svg" xmlns:xlink="http://www.w3.org/1999/xlink" xml:space="preserve" onload="init(evt)">
<style type="text/css"><![CDATA[
.edge:hover path { stroke: red; }
.edge:hover polygon { stroke: red; fill: red; }
]]></style>
<script type="text/javascript"><![CDATA[
var edges = document.getElementsByTagName('g');
if (edges && edges.length) {
  for (var i=0;i<edges.length;i++) {
    if (edges[i].id.substr(0,4)=='edge') {
      edges[i].setAttribute('class','edge');
    }
  }
}
]]></script>
        <defs>
                <circle id="rim" cx="0" cy="0" r="7"/>
                <circle id="rim2" cx="0" cy="0" r="3.5"/>
                <g id="zoomPlus">
                        <use xlink:href="#rim" fill="#404040">
                                <set attributeName="fill" to="#808080" begin="zoomplus.mouseover" end="zoomplus.mouseout"/>
                        </use>
                        <path d="M-4,0h8M0,-4v8" fill="none" stroke="white" stroke-width="1.5" pointer-events="none"/>
                </g>
                <g id="zoomMin">
                        <use xlink:href="#rim" fill="#404040">
                                <set attributeName="fill" to="#808080" begin="zoomminus.mouseover" end="zoomminus.mouseout"/>
                        </use>
                        <path d="M-4,0h8" fill="none" stroke="white" stroke-width="1.5" pointer-events="none"/>
                </g>
                <g id="dirArrow">
                        <path fill="none" stroke="white" stroke-width="1.5" d="M0,-3.0v7 M-2.5,-0.5L0,-3.0L2.5,-0.5"/>
                </g>
               <g id="resetDef">
                       <use xlink:href="#rim2" fill="#404040">
                               <set attributeName="fill" to="#808080" begin="reset.mouseover" end="reset.mouseout"/>
                       </use>
               </g>
        </defs>

<script type="text/javascript">
var viewWidth = 1076;
var viewHeight = 364;
var sectionId = 'dynsection-0';
</script>
<script xlink:href="svgpan.js"/>
<svg id="graph" class="graph">
<g id="viewport">
<title>src/rpc/protocol.cpp</title>
<polygon fill="white" stroke="none" points="-4,4 -4,-360 1072,-360 1072,4 -4,4"/>
<!-- Node0 -->
<g id="node1" class="node"><title>Node0</title>
<polygon fill="#bfbfbf" stroke="black" points="522.5,-336.5 522.5,-355.5 625.5,-355.5 625.5,-336.5 522.5,-336.5"/>
<text text-anchor="middle" x="574" y="-343.5" font-family="Helvetica,sans-Serif" font-size="10.00">src/rpc/protocol.cpp</text>
</g>
<!-- Node1 -->
<g id="node2" class="node"><title>Node1</title>
<g id="a_node2"><a xlink:href="rpc_2protocol_8h.html" target="_top" xlink:title="rpc/protocol.h">
<polygon fill="white" stroke="black" points="207,-280.5 207,-299.5 283,-299.5 283,-280.5 207,-280.5"/>
<text text-anchor="middle" x="245" y="-287.5" font-family="Helvetica,sans-Serif" font-size="10.00">rpc/protocol.h</text>
</a>
</g>
</g>
<!-- Node0&#45;&gt;Node1 -->
<g id="edge1" class="edge"><title>Node0&#45;&gt;Node1</title>
<path fill="none" stroke="midnightblue" d="M522.232,-336.503C459.452,-326.199 354.463,-308.967 293.292,-298.926"/>
<polygon fill="midnightblue" stroke="midnightblue" points="293.567,-295.425 283.132,-297.259 292.433,-302.332 293.567,-295.425"/>
</g>
<!-- Node4 -->
<g id="node5" class="node"><title>Node4</title>
<polygon fill="white" stroke="#bfbfbf" points="518.5,-0.5 518.5,-19.5 567.5,-19.5 567.5,-0.5 518.5,-0.5"/>
<text text-anchor="middle" x="543" y="-7.5" font-family="Helvetica,sans-Serif" font-size="10.00">stdint.h</text>
</g>
<!-- Node0&#45;&gt;Node4 -->
<g id="edge46" class="edge"><title>Node0&#45;&gt;Node4</title>
<path fill="none" stroke="midnightblue" d="M522.303,-340.53C381.21,-327.641 0,-287.921 0,-235 0,-235 0,-235 0,-121 0,-78.8691 30.6189,-73.3755 69,-56 147.492,-20.4659 412.466,-12.9638 508.161,-11.4029"/>
<polygon fill="midnightblue" stroke="midnightblue" points="508.504,-14.8982 518.45,-11.2477 508.399,-7.89903 508.504,-14.8982"/>
</g>
<!-- Node12 -->
<g id="node13" class="node"><title>Node12</title>
<g id="a_node13"><a xlink:href="random_8h.html" target="_top" xlink:title="random.h">
<polygon fill="white" stroke="black" points="649.5,-280.5 649.5,-299.5 706.5,-299.5 706.5,-280.5 649.5,-280.5"/>
<text text-anchor="middle" x="678" y="-287.5" font-family="Helvetica,sans-Serif" font-size="10.00">random.h</text>
</a>
</g>
</g>
<!-- Node0&#45;&gt;Node12 -->
<g id="edge15" class="edge"><title>Node0&#45;&gt;Node12</title>
<path fill="none" stroke="midnightblue" d="M590.709,-336.324C607.312,-327.703 633.002,-314.364 652.22,-304.386"/>
<polygon fill="midnightblue" stroke="midnightblue" points="654.07,-307.369 661.332,-299.655 650.844,-301.156 654.07,-307.369"/>
</g>
<!-- Node21 -->
<g id="node22" class="node"><title>Node21</title>
<g id="a_node22"><a xlink:href="tinyformat_8h.html" target="_top" xlink:title="tinyformat.h">
<polygon fill="white" stroke="black" points="587,-224.5 587,-243.5 655,-243.5 655,-224.5 587,-224.5"/>
<text text-anchor="middle" x="621" y="-231.5" font-family="Helvetica,sans-Serif" font-size="10.00">tinyformat.h</text>
</a>
</g>
</g>
<!-- Node0&#45;&gt;Node21 -->
<g id="edge31" class="edge"><title>Node0&#45;&gt;Node21</title>
<path fill="none" stroke="midnightblue" d="M580.324,-336.432C586.555,-327.658 595.99,-313.44 602,-300 608.749,-284.907 613.817,-266.782 617.013,-253.51"/>
<polygon fill="midnightblue" stroke="midnightblue" points="620.445,-254.205 619.255,-243.677 613.62,-252.649 620.445,-254.205"/>
</g>
<!-- Node24 -->
<g id="node25" class="node"><title>Node24</title>
<polygon fill="white" stroke="#bfbfbf" points="555,-280.5 555,-299.5 593,-299.5 593,-280.5 555,-280.5"/>
<text text-anchor="middle" x="574" y="-287.5" font-family="Helvetica,sans-Serif" font-size="10.00">util.h</text>
</g>
<!-- Node0&#45;&gt;Node24 -->
<g id="edge37" class="edge"><title>Node0&#45;&gt;Node24</title>
<path fill="none" stroke="midnightblue" d="M574,-336.083C574,-329.006 574,-318.861 574,-309.986"/>
<polygon fill="midnightblue" stroke="midnightblue" points="577.5,-309.751 574,-299.751 570.5,-309.751 577.5,-309.751"/>
</g>
<!-- Node25 -->
<g id="node26" class="node"><title>Node25</title>
<g id="a_node26"><a xlink:href="utilstrencodings_8h.html" target="_top" xlink:title="utilstrencodings.h">
<polygon fill="white" stroke="black" points="363.5,-224.5 363.5,-243.5 456.5,-243.5 456.5,-224.5 363.5,-224.5"/>
<text text-anchor="middle" x="410" y="-231.5" font-family="Helvetica,sans-Serif" font-size="10.00">utilstrencodings.h</text>
</a>
</g>
</g>
<!-- Node0&#45;&gt;Node25 -->
<g id="edge38" class="edge"><title>Node0&#45;&gt;Node25</title>
<path fill="none" stroke="midnightblue" d="M561.131,-336.368C532.989,-317.492 465.738,-272.385 431.226,-249.237"/>
<polygon fill="midnightblue" stroke="midnightblue" points="433.064,-246.255 422.809,-243.591 429.164,-252.069 433.064,-246.255"/>
</g>
<!-- Node26 -->
<g id="node27" class="node"><title>Node26</title>
<g id="a_node27"><a xlink:href="utiltime_8h.html" target="_top" xlink:title="utiltime.h">
<polygon fill="white" stroke="black" points="513,-224.5 513,-243.5 569,-243.5 569,-224.5 513,-224.5"/>
<text text-anchor="middle" x="541" y="-231.5" font-family="Helvetica,sans-Serif" font-size="10.00">utiltime.h</text>
</a>
</g>
</g>
<!-- Node0&#45;&gt;Node26 -->
<g id="edge42" class="edge"><title>Node0&#45;&gt;Node26</title>
<path fill="none" stroke="midnightblue" d="M566.822,-336.339C560.132,-327.719 550.527,-313.815 546,-300 541.093,-285.027 540.044,-267.116 540.109,-253.89"/>
<polygon fill="midnightblue" stroke="midnightblue" points="543.614,-253.756 540.383,-243.666 536.616,-253.569 543.614,-253.756"/>
</g>
<!-- Node27 -->
<g id="node28" class="node"><title>Node27</title>
<g id="a_node28"><a xlink:href="version_8h.html" target="_top" xlink:title="version.h">
<polygon fill="white" stroke="black" points="725,-280.5 725,-299.5 781,-299.5 781,-280.5 725,-280.5"/>
<text text-anchor="middle" x="753" y="-287.5" font-family="Helvetica,sans-Serif" font-size="10.00">version.h</text>
</a>
</g>
</g>
<!-- Node0&#45;&gt;Node27 -->
<g id="edge45" class="edge"><title>Node0&#45;&gt;Node27</title>
<path fill="none" stroke="midnightblue" d="M602.363,-336.444C632.738,-327.28 681.11,-312.688 714.816,-302.519"/>
<polygon fill="midnightblue" stroke="midnightblue" points="716.207,-305.756 724.77,-299.516 714.185,-299.054 716.207,-305.756"/>
</g>
<!-- Node28 -->
<g id="node29" class="node"><title>Node28</title>
<polygon fill="white" stroke="#bfbfbf" points="799,-280.5 799,-299.5 849,-299.5 849,-280.5 799,-280.5"/>
<text text-anchor="middle" x="824" y="-287.5" font-family="Helvetica,sans-Serif" font-size="10.00">fstream</text>
</g>
<!-- Node0&#45;&gt;Node28 -->
<g id="edge47" class="edge"><title>Node0&#45;&gt;Node28</title>
<path fill="none" stroke="midnightblue" d="M617.777,-336.443C661.312,-327.79 729.948,-313.765 789,-300 789.099,-299.977 789.199,-299.954 789.298,-299.93"/>
<polygon fill="midnightblue" stroke="midnightblue" points="789.905,-303.385 798.799,-297.626 788.255,-296.582 789.905,-303.385"/>
</g>
<!-- Node2 -->
<g id="node3" class="node"><title>Node2</title>
<polygon fill="white" stroke="#bfbfbf" points="316.5,-224.5 316.5,-243.5 345.5,-243.5 345.5,-224.5 316.5,-224.5"/>
<text text-anchor="middle" x="331" y="-231.5" font-family="Helvetica,sans-Serif" font-size="10.00">list</text>
</g>
<!-- Node1&#45;&gt;Node2 -->
<g id="edge2" class="edge"><title>Node1&#45;&gt;Node2</title>
<path fill="none" stroke="midnightblue" d="M258.817,-280.324C272.233,-271.9 292.824,-258.971 308.586,-249.074"/>
<polygon fill="midnightblue" stroke="midnightblue" points="310.609,-251.936 317.217,-243.655 306.887,-246.008 310.609,-251.936"/>
</g>
<!-- Node3 -->
<g id="node4" class="node"><title>Node3</title>
<polygon fill="white" stroke="#bfbfbf" points="66.5,-168.5 66.5,-187.5 101.5,-187.5 101.5,-168.5 66.5,-168.5"/>
<text text-anchor="middle" x="84" y="-175.5" font-family="Helvetica,sans-Serif" font-size="10.00">map</text>
</g>
<!-- Node1&#45;&gt;Node3 -->
<g id="edge3" class="edge"><title>Node1&#45;&gt;Node3</title>
<path fill="none" stroke="midnightblue" d="M206.709,-286.591C174.799,-282.561 130.3,-271.922 103,-244 91.0665,-231.795 86.5577,-212.527 84.8902,-198.133"/>
<polygon fill="midnightblue" stroke="midnightblue" points="88.3553,-197.554 84.0745,-187.862 81.3773,-198.108 88.3553,-197.554"/>
</g>
<!-- Node1&#45;&gt;Node4 -->
<g id="edge4" class="edge"><title>Node1&#45;&gt;Node4</title>
<path fill="none" stroke="midnightblue" d="M206.55,-285.744C146.687,-278.336 38,-254.492 38,-179 38,-179 38,-179 38,-121 38,-24.6215 393.6,-12.536 508.003,-11.1417"/>
<polygon fill="midnightblue" stroke="midnightblue" points="508.337,-14.6386 518.301,-11.0377 508.266,-7.63894 508.337,-14.6386"/>
</g>
<!-- Node5 -->
<g id="node6" class="node"><title>Node5</title>
<polygon fill="white" stroke="#bfbfbf" points="454.5,-168.5 454.5,-187.5 495.5,-187.5 495.5,-168.5 454.5,-168.5"/>
<text text-anchor="middle" x="475" y="-175.5" font-family="Helvetica,sans-Serif" font-size="10.00">string</text>
</g>
<!-- Node1&#45;&gt;Node5 -->
<g id="edge5" class="edge"><title>Node1&#45;&gt;Node5</title>
<path fill="none" stroke="midnightblue" d="M283.388,-286.334C339.663,-281.599 440.538,-269.694 465,-244 476.43,-231.994 478.112,-212.699 477.426,-198.245"/>
<polygon fill="midnightblue" stroke="midnightblue" points="480.88,-197.573 476.509,-187.922 473.908,-198.192 480.88,-197.573"/>
</g>
<!-- Node6 -->
<g id="node7" class="node"><title>Node6</title>
<polygon fill="white" stroke="#bfbfbf" points="191.5,-224.5 191.5,-243.5 298.5,-243.5 298.5,-224.5 191.5,-224.5"/>
<text text-anchor="middle" x="245" y="-231.5" font-family="Helvetica,sans-Serif" font-size="10.00">boost/filesystem.hpp</text>
</g>
<!-- Node1&#45;&gt;Node6 -->
<g id="edge6" class="edge"><title>Node1&#45;&gt;Node6</title>
<path fill="none" stroke="midnightblue" d="M245,-280.083C245,-273.006 245,-262.861 245,-253.986"/>
<polygon fill="midnightblue" stroke="midnightblue" points="248.5,-253.751 245,-243.751 241.5,-253.751 248.5,-253.751"/>
</g>
<!-- Node7 -->
<g id="node8" class="node"><title>Node7</title>
<g id="a_node8"><a xlink:href="univalue_8h.html" target="_top" xlink:title="univalue.h">
<polygon fill="white" stroke="black" points="112.5,-224.5 112.5,-243.5 173.5,-243.5 173.5,-224.5 112.5,-224.5"/>
<text text-anchor="middle" x="143" y="-231.5" font-family="Helvetica,sans-Serif" font-size="10.00">univalue.h</text>
</a>
</g>
</g>
<!-- Node1&#45;&gt;Node7 -->
<g id="edge7" class="edge"><title>Node1&#45;&gt;Node7</title>
<path fill="none" stroke="midnightblue" d="M228.612,-280.324C212.329,-271.703 187.133,-258.364 168.284,-248.386"/>
<polygon fill="midnightblue" stroke="midnightblue" points="169.823,-245.24 159.347,-243.655 166.548,-251.427 169.823,-245.24"/>
</g>
<!-- Node7&#45;&gt;Node3 -->
<g id="edge11" class="edge"><title>Node7&#45;&gt;Node3</title>
<path fill="none" stroke="midnightblue" d="M133.521,-224.324C124.799,-216.341 111.657,-204.313 101.102,-194.653"/>
<polygon fill="midnightblue" stroke="midnightblue" points="103.392,-192.004 93.6519,-187.834 98.6655,-197.167 103.392,-192.004"/>
</g>
<!-- Node7&#45;&gt;Node4 -->
<g id="edge8" class="edge"><title>Node7&#45;&gt;Node4</title>
<path fill="none" stroke="midnightblue" d="M149.692,-224.458C160.551,-211.038 183.202,-184.815 207,-168 307.578,-96.9331 445.425,-44.4199 508.707,-22.4067"/>
<polygon fill="midnightblue" stroke="midnightblue" points="509.889,-25.7014 518.206,-19.1374 507.611,-19.0824 509.889,-25.7014"/>
</g>
<!-- Node7&#45;&gt;Node5 -->
<g id="edge9" class="edge"><title>Node7&#45;&gt;Node5</title>
<path fill="none" stroke="midnightblue" d="M173.611,-225.709C176.441,-225.104 179.27,-224.524 182,-224 277.042,-205.761 390.55,-190.037 444.114,-182.974"/>
<polygon fill="midnightblue" stroke="midnightblue" points="444.845,-186.408 454.306,-181.639 443.936,-179.467 444.845,-186.408"/>
</g>
<!-- Node8 -->
<g id="node9" class="node"><title>Node8</title>
<polygon fill="white" stroke="#bfbfbf" points="354,-168.5 354,-187.5 398,-187.5 398,-168.5 354,-168.5"/>
<text text-anchor="middle" x="376" y="-175.5" font-family="Helvetica,sans-Serif" font-size="10.00">vector</text>
</g>
<!-- Node7&#45;&gt;Node8 -->
<g id="edge10" class="edge"><title>Node7&#45;&gt;Node8</title>
<path fill="none" stroke="midnightblue" d="M173.651,-225.898C176.473,-225.253 179.289,-224.612 182,-224 251.259,-208.361 271.405,-206.492 343.643,-188.226"/>
<polygon fill="midnightblue" stroke="midnightblue" points="344.871,-191.525 353.697,-185.664 343.142,-184.742 344.871,-191.525"/>
</g>
<!-- Node9 -->
<g id="node10" class="node"><title>Node9</title>
<polygon fill="white" stroke="#bfbfbf" points="216.5,-168.5 216.5,-187.5 265.5,-187.5 265.5,-168.5 216.5,-168.5"/>
<text text-anchor="middle" x="241" y="-175.5" font-family="Helvetica,sans-Serif" font-size="10.00">cassert</text>
</g>
<!-- Node7&#45;&gt;Node9 -->
<g id="edge12" class="edge"><title>Node7&#45;&gt;Node9</title>
<path fill="none" stroke="midnightblue" d="M158.745,-224.324C174.319,-215.743 198.377,-202.486 216.459,-192.522"/>
<polygon fill="midnightblue" stroke="midnightblue" points="218.224,-195.546 225.294,-187.655 214.846,-189.415 218.224,-195.546"/>
</g>
<!-- Node10 -->
<g id="node11" class="node"><title>Node10</title>
<polygon fill="white" stroke="#bfbfbf" points="284,-168.5 284,-187.5 336,-187.5 336,-168.5 284,-168.5"/>
<text text-anchor="middle" x="310" y="-175.5" font-family="Helvetica,sans-Serif" font-size="10.00">sstream</text>
</g>
<!-- Node7&#45;&gt;Node10 -->
<g id="edge13" class="edge"><title>Node7&#45;&gt;Node10</title>
<path fill="none" stroke="midnightblue" d="M169.462,-224.444C197.761,-215.293 242.805,-200.728 274.245,-190.561"/>
<polygon fill="midnightblue" stroke="midnightblue" points="275.499,-193.835 283.937,-187.428 273.345,-187.174 275.499,-193.835"/>
</g>
<!-- Node11 -->
<g id="node12" class="node"><title>Node11</title>
<polygon fill="white" stroke="#bfbfbf" points="120,-168.5 120,-187.5 160,-187.5 160,-168.5 120,-168.5"/>
<text text-anchor="middle" x="140" y="-175.5" font-family="Helvetica,sans-Serif" font-size="10.00">utility</text>
</g>
<!-- Node7&#45;&gt;Node11 -->
<g id="edge14" class="edge"><title>Node7&#45;&gt;Node11</title>
<path fill="none" stroke="midnightblue" d="M142.505,-224.083C142.111,-217.006 141.548,-206.861 141.055,-197.986"/>
<polygon fill="midnightblue" stroke="midnightblue" points="144.536,-197.542 140.486,-187.751 137.546,-197.93 144.536,-197.542"/>
</g>
<!-- Node12&#45;&gt;Node4 -->
<g id="edge30" class="edge"><title>Node12&#45;&gt;Node4</title>
<path fill="none" stroke="midnightblue" d="M706.723,-281.881C782.113,-263.083 984.274,-211.927 1049,-188 1057.76,-184.76 1068,-188.344 1068,-179 1068,-179 1068,-179 1068,-121 1068,-20.5348 695.061,-11.2799 577.83,-10.8524"/>
<polygon fill="midnightblue" stroke="midnightblue" points="577.623,-7.3522 567.618,-10.8357 577.612,-14.3522 577.623,-7.3522"/>
</g>
<!-- Node13 -->
<g id="node14" class="node"><title>Node13</title>
<g id="a_node14"><a xlink:href="uint256_8h.html" target="_top" xlink:title="uint256.h">
<polygon fill="white" stroke="black" points="735,-224.5 735,-243.5 791,-243.5 791,-224.5 735,-224.5"/>
<text text-anchor="middle" x="763" y="-231.5" font-family="Helvetica,sans-Serif" font-size="10.00">uint256.h</text>
</a>
</g>
</g>
<!-- Node12&#45;&gt;Node13 -->
<g id="edge16" class="edge"><title>Node12&#45;&gt;Node13</title>
<path fill="none" stroke="midnightblue" d="M691.657,-280.324C704.916,-271.9 725.268,-258.971 740.846,-249.074"/>
<polygon fill="midnightblue" stroke="midnightblue" points="742.813,-251.971 749.377,-243.655 739.06,-246.063 742.813,-251.971"/>
</g>
<!-- Node13&#45;&gt;Node4 -->
<g id="edge20" class="edge"><title>Node13&#45;&gt;Node4</title>
<path fill="none" stroke="midnightblue" d="M791.197,-230.036C836.614,-224.617 922.739,-211.452 941,-188 957.235,-167.149 935.258,-127.001 919,-112 820.989,-21.5685 650.72,-10.5361 577.785,-10.2315"/>
<polygon fill="midnightblue" stroke="midnightblue" points="577.742,-6.73151 567.75,-10.2563 577.759,-13.7315 577.742,-6.73151"/>
</g>
<!-- Node13&#45;&gt;Node5 -->
<g id="edge21" class="edge"><title>Node13&#45;&gt;Node5</title>
<path fill="none" stroke="midnightblue" d="M734.861,-227.724C680.609,-217.552 561.949,-195.303 505.721,-184.76"/>
<polygon fill="midnightblue" stroke="midnightblue" points="506.135,-181.277 495.662,-182.874 504.845,-188.157 506.135,-181.277"/>
</g>
<!-- Node13&#45;&gt;Node8 -->
<g id="edge22" class="edge"><title>Node13&#45;&gt;Node8</title>
<path fill="none" stroke="midnightblue" d="M734.856,-229.073C664.73,-219.288 482.529,-193.865 408.242,-183.499"/>
<polygon fill="midnightblue" stroke="midnightblue" points="408.478,-179.998 398.091,-182.082 407.511,-186.931 408.478,-179.998"/>
</g>
<!-- Node14 -->
<g id="node15" class="node"><title>Node14</title>
<polygon fill="white" stroke="#bfbfbf" points="988,-168.5 988,-187.5 1040,-187.5 1040,-168.5 988,-168.5"/>
<text text-anchor="middle" x="1014" y="-175.5" font-family="Helvetica,sans-Serif" font-size="10.00">assert.h</text>
</g>
<!-- Node13&#45;&gt;Node14 -->
<g id="edge17" class="edge"><title>Node13&#45;&gt;Node14</title>
<path fill="none" stroke="midnightblue" d="M791.009,-227.131C831.443,-218.634 908.508,-202.351 974,-188 975.252,-187.726 976.525,-187.446 977.811,-187.162"/>
<polygon fill="midnightblue" stroke="midnightblue" points="978.758,-190.537 987.759,-184.948 977.238,-183.704 978.758,-190.537"/>
</g>
<!-- Node15 -->
<g id="node16" class="node"><title>Node15</title>
<polygon fill="white" stroke="#bfbfbf" points="776,-168.5 776,-187.5 822,-187.5 822,-168.5 776,-168.5"/>
<text text-anchor="middle" x="799" y="-175.5" font-family="Helvetica,sans-Serif" font-size="10.00">cstring</text>
</g>
<!-- Node13&#45;&gt;Node15 -->
<g id="edge18" class="edge"><title>Node13&#45;&gt;Node15</title>
<path fill="none" stroke="midnightblue" d="M768.945,-224.083C773.977,-216.534 781.337,-205.495 787.513,-196.23"/>
<polygon fill="midnightblue" stroke="midnightblue" points="790.531,-198.013 793.166,-187.751 784.707,-194.13 790.531,-198.013"/>
</g>
<!-- Node16 -->
<g id="node17" class="node"><title>Node16</title>
<polygon fill="white" stroke="#bfbfbf" points="698.5,-168.5 698.5,-187.5 757.5,-187.5 757.5,-168.5 698.5,-168.5"/>
<text text-anchor="middle" x="728" y="-175.5" font-family="Helvetica,sans-Serif" font-size="10.00">stdexcept</text>
</g>
<!-- Node13&#45;&gt;Node16 -->
<g id="edge19" class="edge"><title>Node13&#45;&gt;Node16</title>
<path fill="none" stroke="midnightblue" d="M757.22,-224.083C752.328,-216.534 745.173,-205.495 739.167,-196.23"/>
<polygon fill="midnightblue" stroke="midnightblue" points="742.048,-194.239 733.672,-187.751 736.174,-198.046 742.048,-194.239"/>
</g>
<!-- Node17 -->
<g id="node18" class="node"><title>Node17</title>
<g id="a_node18"><a xlink:href="common_8h.html" target="_top" xlink:title="crypto/common.h">
<polygon fill="white" stroke="black" points="840,-168.5 840,-187.5 932,-187.5 932,-168.5 840,-168.5"/>
<text text-anchor="middle" x="886" y="-175.5" font-family="Helvetica,sans-Serif" font-size="10.00">crypto/common.h</text>
</a>
</g>
</g>
<!-- Node13&#45;&gt;Node17 -->
<g id="edge23" class="edge"><title>Node13&#45;&gt;Node17</title>
<path fill="none" stroke="midnightblue" d="M782.49,-224.444C802.642,-215.596 834.323,-201.687 857.331,-191.586"/>
<polygon fill="midnightblue" stroke="midnightblue" points="858.852,-194.741 866.601,-187.516 856.038,-188.332 858.852,-194.741"/>
</g>
<!-- Node17&#45;&gt;Node4 -->
<g id="edge24" class="edge"><title>Node17&#45;&gt;Node4</title>
<path fill="none" stroke="midnightblue" d="M875.35,-168.409C847.901,-146.65 771.851,-88.774 700,-56 659.729,-37.6307 610.192,-24.9313 577.665,-17.8174"/>
<polygon fill="midnightblue" stroke="midnightblue" points="578.244,-14.3625 567.735,-15.7039 576.787,-21.2091 578.244,-14.3625"/>
</g>
<!-- Node18 -->
<g id="node19" class="node"><title>Node18</title>
<polygon fill="white" stroke="#bfbfbf" points="861.5,-112.5 861.5,-131.5 910.5,-131.5 910.5,-112.5 861.5,-112.5"/>
<text text-anchor="middle" x="886" y="-119.5" font-family="Helvetica,sans-Serif" font-size="10.00">string.h</text>
</g>
<!-- Node17&#45;&gt;Node18 -->
<g id="edge25" class="edge"><title>Node17&#45;&gt;Node18</title>
<path fill="none" stroke="midnightblue" d="M886,-168.083C886,-161.006 886,-150.861 886,-141.986"/>
<polygon fill="midnightblue" stroke="midnightblue" points="889.5,-141.751 886,-131.751 882.5,-141.751 889.5,-141.751"/>
</g>
<!-- Node19 -->
<g id="node20" class="node"><title>Node19</title>
<g id="a_node20"><a xlink:href="endian_8h.html" target="_top" xlink:title="compat/endian.h">
<polygon fill="white" stroke="black" points="596.5,-112.5 596.5,-131.5 685.5,-131.5 685.5,-112.5 596.5,-112.5"/>
<text text-anchor="middle" x="641" y="-119.5" font-family="Helvetica,sans-Serif" font-size="10.00">compat/endian.h</text>
</a>
</g>
</g>
<!-- Node17&#45;&gt;Node19 -->
<g id="edge26" class="edge"><title>Node17&#45;&gt;Node19</title>
<path fill="none" stroke="midnightblue" d="M847.179,-168.444C804.439,-159.023 735.668,-143.866 689.434,-133.675"/>
<polygon fill="midnightblue" stroke="midnightblue" points="690.158,-130.251 679.639,-131.516 688.652,-137.087 690.158,-130.251"/>
</g>
<!-- Node19&#45;&gt;Node4 -->
<g id="edge27" class="edge"><title>Node19&#45;&gt;Node4</title>
<path fill="none" stroke="midnightblue" d="M626.37,-112.389C613.347,-104.211 594.345,-90.9668 581,-76 568.383,-61.8498 557.866,-42.8705 551.118,-29.0754"/>
<polygon fill="midnightblue" stroke="midnightblue" points="554.137,-27.2691 546.721,-19.7025 547.8,-30.2423 554.137,-27.2691"/>
</g>
<!-- Node20 -->
<g id="node21" class="node"><title>Node20</title>
<g id="a_node21"><a xlink:href="byteswap_8h.html" target="_top" xlink:title="compat/byteswap.h">
<polygon fill="white" stroke="black" points="590,-56.5 590,-75.5 692,-75.5 692,-56.5 590,-56.5"/>
<text text-anchor="middle" x="641" y="-63.5" font-family="Helvetica,sans-Serif" font-size="10.00">compat/byteswap.h</text>
</a>
</g>
</g>
<!-- Node19&#45;&gt;Node20 -->
<g id="edge28" class="edge"><title>Node19&#45;&gt;Node20</title>
<path fill="none" stroke="midnightblue" d="M641,-112.083C641,-105.006 641,-94.8611 641,-85.9865"/>
<polygon fill="midnightblue" stroke="midnightblue" points="644.5,-85.751 641,-75.7511 637.5,-85.7511 644.5,-85.751"/>
</g>
<!-- Node20&#45;&gt;Node4 -->
<g id="edge29" class="edge"><title>Node20&#45;&gt;Node4</title>
<path fill="none" stroke="midnightblue" d="M625.255,-56.324C609.681,-47.7428 585.623,-34.486 567.541,-24.5224"/>
<polygon fill="midnightblue" stroke="midnightblue" points="569.154,-21.4152 558.706,-19.6545 565.776,-27.546 569.154,-21.4152"/>
</g>
<!-- Node21&#45;&gt;Node9 -->
<g id="edge33" class="edge"><title>Node21&#45;&gt;Node9</title>
<path fill="none" stroke="midnightblue" d="M586.942,-225.742C583.589,-225.116 580.233,-224.522 577,-224 446.816,-202.964 409.578,-212.843 276.002,-187.928"/>
<polygon fill="midnightblue" stroke="midnightblue" points="276.267,-184.416 265.79,-185.992 274.963,-191.294 276.267,-184.416"/>
</g>
<!-- Node21&#45;&gt;Node10 -->
<g id="edge35" class="edge"><title>Node21&#45;&gt;Node10</title>
<path fill="none" stroke="midnightblue" d="M586.921,-225.862C583.573,-225.211 580.223,-224.579 577,-224 477.41,-206.098 448.916,-208.828 346.155,-188.073"/>
<polygon fill="midnightblue" stroke="midnightblue" points="346.808,-184.634 336.309,-186.059 345.405,-191.492 346.808,-184.634"/>
</g>
<!-- Node21&#45;&gt;Node16 -->
<g id="edge36" class="edge"><title>Node21&#45;&gt;Node16</title>
<path fill="none" stroke="midnightblue" d="M638.191,-224.324C655.351,-215.664 681.946,-202.242 701.747,-192.249"/>
<polygon fill="midnightblue" stroke="midnightblue" points="703.501,-195.285 710.851,-187.655 700.347,-189.035 703.501,-195.285"/>
</g>
<!-- Node22 -->
<g id="node23" class="node"><title>Node22</title>
<polygon fill="white" stroke="#bfbfbf" points="552,-168.5 552,-187.5 608,-187.5 608,-168.5 552,-168.5"/>
<text text-anchor="middle" x="580" y="-175.5" font-family="Helvetica,sans-Serif" font-size="10.00">algorithm</text>
</g>
<!-- Node21&#45;&gt;Node22 -->
<g id="edge32" class="edge"><title>Node21&#45;&gt;Node22</title>
<path fill="none" stroke="midnightblue" d="M614.23,-224.083C608.438,-216.455 599.942,-205.264 592.862,-195.941"/>
<polygon fill="midnightblue" stroke="midnightblue" points="595.479,-193.599 586.644,-187.751 589.904,-197.832 595.479,-193.599"/>
</g>
<!-- Node23 -->
<g id="node24" class="node"><title>Node23</title>
<polygon fill="white" stroke="#bfbfbf" points="626,-168.5 626,-187.5 680,-187.5 680,-168.5 626,-168.5"/>
<text text-anchor="middle" x="653" y="-175.5" font-family="Helvetica,sans-Serif" font-size="10.00">iostream</text>
</g>
<!-- Node21&#45;&gt;Node23 -->
<g id="edge34" class="edge"><title>Node21&#45;&gt;Node23</title>
<path fill="none" stroke="midnightblue" d="M626.284,-224.083C630.711,-216.613 637.163,-205.724 642.618,-196.52"/>
<polygon fill="midnightblue" stroke="midnightblue" points="645.727,-198.138 647.814,-187.751 639.705,-194.57 645.727,-198.138"/>
</g>
<!-- Node25&#45;&gt;Node4 -->
<g id="edge39" class="edge"><title>Node25&#45;&gt;Node4</title>
<path fill="none" stroke="midnightblue" d="M414.36,-224.49C420.819,-211.981 433.417,-187.952 445,-168 475.002,-116.321 513.133,-56.8701 531.749,-28.2137"/>
<polygon fill="midnightblue" stroke="midnightblue" points="534.748,-30.0212 537.274,-19.7317 528.883,-26.2006 534.748,-30.0212"/>
</g>
<!-- Node25&#45;&gt;Node5 -->
<g id="edge40" class="edge"><title>Node25&#45;&gt;Node5</title>
<path fill="none" stroke="midnightblue" d="M420.443,-224.324C430.146,-216.263 444.815,-204.077 456.5,-194.369"/>
<polygon fill="midnightblue" stroke="midnightblue" points="458.911,-196.916 464.367,-187.834 454.438,-191.532 458.911,-196.916"/>
</g>
<!-- Node25&#45;&gt;Node8 -->
<g id="edge41" class="edge"><title>Node25&#45;&gt;Node8</title>
<path fill="none" stroke="midnightblue" d="M404.386,-224.083C399.633,-216.534 392.682,-205.495 386.848,-196.23"/>
<polygon fill="midnightblue" stroke="midnightblue" points="389.8,-194.349 381.51,-187.751 383.876,-198.078 389.8,-194.349"/>
</g>
<!-- Node26&#45;&gt;Node4 -->
<g id="edge43" class="edge"><title>Node26&#45;&gt;Node4</title>
<path fill="none" stroke="midnightblue" d="M541.078,-224.297C541.373,-191.633 542.416,-75.8661 542.829,-29.9573"/>
<polygon fill="midnightblue" stroke="midnightblue" points="546.33,-29.9149 542.92,-19.8837 539.33,-29.8518 546.33,-29.9149"/>
</g>
<!-- Node26&#45;&gt;Node5 -->
<g id="edge44" class="edge"><title>Node26&#45;&gt;Node5</title>
<path fill="none" stroke="midnightblue" d="M530.396,-224.324C520.544,-216.263 505.649,-204.077 493.785,-194.369"/>
<polygon fill="midnightblue" stroke="midnightblue" points="495.753,-191.457 485.797,-187.834 491.32,-196.875 495.753,-191.457"/>
</g>
</g>
</svg>
        <g id="navigator" transform="translate(0 0)" fill="#404254">
                <rect fill="#f2f5e9" fill-opacity="0.5" stroke="#606060" stroke-width=".5" x="0" y="0" width="60" height="60"/>
                <use id="zoomplus" xlink:href="#zoomPlus" x="17" y="9" onmousedown="handleZoom(evt,'in')"/>
                <use id="zoomminus" xlink:href="#zoomMin" x="42" y="9" onmousedown="handleZoom(evt,'out')"/>
                <use id="reset" xlink:href="#resetDef" x="30" y="36" onmousedown="handleReset()"/>
                <g id="arrowUp" xlink:href="#dirArrow" transform="translate(30 24)" onmousedown="handlePan(0,-1)">
                  <use xlink:href="#rim" fill="#404040">
                        <set attributeName="fill" to="#808080" begin="arrowUp.mouseover" end="arrowUp.mouseout"/>
                  </use>
                  <path fill="none" stroke="white" stroke-width="1.5" d="M0,-3.0v7 M-2.5,-0.5L0,-3.0L2.5,-0.5"/>
                </g>
                <g id="arrowRight" xlink:href="#dirArrow" transform="rotate(90) translate(36 -43)" onmousedown="handlePan(1,0)">
                  <use xlink:href="#rim" fill="#404040">
                        <set attributeName="fill" to="#808080" begin="arrowRight.mouseover" end="arrowRight.mouseout"/>
                  </use>
                  <path fill="none" stroke="white" stroke-width="1.5" d="M0,-3.0v7 M-2.5,-0.5L0,-3.0L2.5,-0.5"/>
                </g>
                <g id="arrowDown" xlink:href="#dirArrow" transform="rotate(180) translate(-30 -48)" onmousedown="handlePan(0,1)">
                  <use xlink:href="#rim" fill="#404040">
                        <set attributeName="fill" to="#808080" begin="arrowDown.mouseover" end="arrowDown.mouseout"/>
                  </use>
                  <path fill="none" stroke="white" stroke-width="1.5" d="M0,-3.0v7 M-2.5,-0.5L0,-3.0L2.5,-0.5"/>
                </g>
                <g id="arrowLeft" xlink:href="#dirArrow" transform="rotate(270) translate(-36 17)" onmousedown="handlePan(-1,0)">
                  <use xlink:href="#rim" fill="#404040">
                        <set attributeName="fill" to="#808080" begin="arrowLeft.mouseover" end="arrowLeft.mouseout"/>
                  </use>
                  <path fill="none" stroke="white" stroke-width="1.5" d="M0,-3.0v7 M-2.5,-0.5L0,-3.0L2.5,-0.5"/>
                </g>
        </g>
        <svg viewBox="0 0 15 15" width="100%" height="30px" preserveAspectRatio="xMaxYMin meet">
         <g id="arrow_out" transform="scale(0.3 0.3)">
          <a xlink:href="rpc_2protocol_8cpp__incl_org.svg" target="_base">
           <rect id="button" ry="5" rx="5" y="6" x="6" height="38" width="38"
                fill="#f2f5e9" fill-opacity="0.5" stroke="#606060" stroke-width="1.0"/>
           <path id="arrow"
             d="M 11.500037,31.436501 C 11.940474,20.09759 22.043105,11.32322 32.158766,21.979434 L 37.068811,17.246167 C 37.068811,17.246167 37.088388,32 37.088388,32 L 22.160133,31.978069 C 22.160133,31.978069 26.997745,27.140456 26.997745,27.140456 C 18.528582,18.264221 13.291696,25.230495 11.500037,31.436501 z"
             style="fill:#404040;"/>
          </a>
         </g>
        </svg>
</svg>
