<?xml version="1.0" encoding="UTF-8" standalone="no"?>
<!DOCTYPE svg PUBLIC "-//W3C//DTD SVG 1.1//EN"
 "http://www.w3.org/Graphics/SVG/1.1/DTD/svg11.dtd">
<!-- Generated by graphviz version 2.36.0 (20140111.2315)
 -->
<!-- Title: src/immer/detail/rbts/rrbtree.hpp Pages: 1 -->
<svg width="278pt" height="176pt"
 viewBox="0.00 0.00 278.00 176.00" xmlns="http://www.w3.org/2000/svg" xmlns:xlink="http://www.w3.org/1999/xlink">
<g id="graph0" class="graph" transform="scale(1 1) rotate(0) translate(4 172)">
<title>src/immer/detail/rbts/rrbtree.hpp</title>
<polygon fill="white" stroke="none" points="-4,4 -4,-172 274,-172 274,4 -4,4"/>
<!-- Node20 -->
<g id="node1" class="node"><title>Node20</title>
<polygon fill="#bfbfbf" stroke="black" points="87,-137 87,-167 193,-167 193,-137 87,-137"/>
<text text-anchor="start" x="95" y="-155" font-family="Helvetica,sans-Serif" font-size="10.00">src/immer/detail/rbts</text>
<text text-anchor="middle" x="140" y="-144" font-family="Helvetica,sans-Serif" font-size="10.00">/rrbtree.hpp</text>
</g>
<!-- Node21 -->
<g id="node2" class="node"><title>Node21</title>
<g id="a_node2"><a xlink:href="rrbtree__iterator_8hpp.html" target="_top" xlink:title="src/immer/detail/rbts\l/rrbtree_iterator.hpp">
<polygon fill="white" stroke="black" points="87,-69 87,-99 193,-99 193,-69 87,-69"/>
<text text-anchor="start" x="95" y="-87" font-family="Helvetica,sans-Serif" font-size="10.00">src/immer/detail/rbts</text>
<text text-anchor="middle" x="140" y="-76" font-family="Helvetica,sans-Serif" font-size="10.00">/rrbtree_iterator.hpp</text>
</a>
</g>
</g>
<!-- Node20&#45;&gt;Node21 -->
<g id="edge1" class="edge"><title>Node20&#45;&gt;Node21</title>
<path fill="none" stroke="midnightblue" d="M140,-126.532C140,-117.361 140,-107.245 140,-99.2931"/>
<polygon fill="midnightblue" stroke="midnightblue" points="136.5,-126.679 140,-136.679 143.5,-126.679 136.5,-126.679"/>
</g>
<!-- Node22 -->
<g id="node3" class="node"><title>Node22</title>
<g id="a_node3"><a xlink:href="flex__vector_8hpp.html" target="_top" xlink:title="src/immer/flex_vector.hpp">
<polygon fill="white" stroke="black" points="0,-6.5 0,-25.5 130,-25.5 130,-6.5 0,-6.5"/>
<text text-anchor="middle" x="65" y="-13.5" font-family="Helvetica,sans-Serif" font-size="10.00">src/immer/flex_vector.hpp</text>
</a>
</g>
</g>
<!-- Node20&#45;&gt;Node22 -->
<g id="edge4" class="edge"><title>Node20&#45;&gt;Node22</title>
<path fill="none" stroke="midnightblue" d="M107.08,-131.045C96.1491,-122.783 84.9952,-112.249 78,-100 64.1844,-75.809 63.7478,-41.5131 64.4167,-25.6567"/>
<polygon fill="midnightblue" stroke="midnightblue" points="105.147,-133.964 115.324,-136.91 109.205,-128.261 105.147,-133.964"/>
</g>
<!-- Node23 -->
<g id="node4" class="node"><title>Node23</title>
<g id="a_node4"><a xlink:href="flex__vector__transient_8hpp.html" target="_top" xlink:title="src/immer/flex_vector\l_transient.hpp">
<polygon fill="white" stroke="black" points="159.5,-1 159.5,-31 270.5,-31 270.5,-1 159.5,-1"/>
<text text-anchor="start" x="167.5" y="-19" font-family="Helvetica,sans-Serif" font-size="10.00">src/immer/flex_vector</text>
<text text-anchor="middle" x="215" y="-8" font-family="Helvetica,sans-Serif" font-size="10.00">_transient.hpp</text>
</a>
</g>
</g>
<!-- Node20&#45;&gt;Node23 -->
<g id="edge5" class="edge"><title>Node20&#45;&gt;Node23</title>
<path fill="none" stroke="midnightblue" d="M172.06,-131.097C182.888,-122.791 193.994,-112.214 201,-100 213.433,-78.324 215.503,-48.5726 215.507,-31.2056"/>
<polygon fill="midnightblue" stroke="midnightblue" points="169.957,-128.298 163.907,-136.995 174.06,-133.969 169.957,-128.298"/>
</g>
<!-- Node21&#45;&gt;Node22 -->
<g id="edge2" class="edge"><title>Node21&#45;&gt;Node22</title>
<path fill="none" stroke="midnightblue" d="M115.968,-61.8517C102.12,-49.6656 85.4465,-34.9929 75.0322,-25.8283"/>
<polygon fill="midnightblue" stroke="midnightblue" points="113.907,-64.7002 123.726,-68.679 118.531,-59.4452 113.907,-64.7002"/>
</g>
<!-- Node21&#45;&gt;Node23 -->
<g id="edge3" class="edge"><title>Node21&#45;&gt;Node23</title>
<path fill="none" stroke="midnightblue" d="M163.843,-62.0184C175.324,-51.9145 188.785,-40.0696 199.016,-31.0663"/>
<polygon fill="midnightblue" stroke="midnightblue" points="161.469,-59.4452 156.274,-68.679 166.093,-64.7002 161.469,-59.4452"/>
</g>
</g>
</svg>
