<?xml version="1.0" encoding="UTF-8" standalone="no"?>
<!DOCTYPE svg PUBLIC "-//W3C//DTD SVG 1.1//EN"
 "http://www.w3.org/Graphics/SVG/1.1/DTD/svg11.dtd">
<!-- Generated by graphviz version 2.36.0 (20140111.2315)
 -->
<!-- Title: src/secp256k1/src/scalar_impl.h Pages: 1 -->
<svg width="194pt" height="264pt"
 viewBox="0.00 0.00 194.00 264.00" xmlns="http://www.w3.org/2000/svg" xmlns:xlink="http://www.w3.org/1999/xlink">
<g id="graph0" class="graph" transform="scale(1 1) rotate(0) translate(4 260)">
<title>src/secp256k1/src/scalar_impl.h</title>
<polygon fill="white" stroke="none" points="-4,4 -4,-260 190,-260 190,4 -4,4"/>
<!-- Node0 -->
<g id="node1" class="node"><title>Node0</title>
<polygon fill="#bfbfbf" stroke="black" points="0,-225 0,-255 126,-255 126,-225 0,-225"/>
<text text-anchor="start" x="8" y="-243" font-family="Helvetica,sans-Serif" font-size="10.00">src/secp256k1/src/scalar</text>
<text text-anchor="middle" x="63" y="-232" font-family="Helvetica,sans-Serif" font-size="10.00">_impl.h</text>
</g>
<!-- Node1 -->
<g id="node2" class="node"><title>Node1</title>
<g id="a_node2"><a xlink:href="group_8h.html" target="_top" xlink:title="group.h">
<polygon fill="white" stroke="black" points="72.5,-168.5 72.5,-187.5 121.5,-187.5 121.5,-168.5 72.5,-168.5"/>
<text text-anchor="middle" x="97" y="-175.5" font-family="Helvetica,sans-Serif" font-size="10.00">group.h</text>
</a>
</g>
</g>
<!-- Node0&#45;&gt;Node1 -->
<g id="edge1" class="edge"><title>Node0&#45;&gt;Node1</title>
<path fill="none" stroke="midnightblue" d="M71.0575,-224.781C75.8453,-216.332 81.9561,-205.548 87.0441,-196.569"/>
<polygon fill="midnightblue" stroke="midnightblue" points="90.1676,-198.156 92.0527,-187.731 84.0774,-194.705 90.1676,-198.156"/>
</g>
<!-- Node8 -->
<g id="node9" class="node"><title>Node8</title>
<g id="a_node9"><a xlink:href="scalar_8h.html" target="_top" xlink:title="scalar.h">
<polygon fill="white" stroke="black" points="3.5,-168.5 3.5,-187.5 54.5,-187.5 54.5,-168.5 3.5,-168.5"/>
<text text-anchor="middle" x="29" y="-175.5" font-family="Helvetica,sans-Serif" font-size="10.00">scalar.h</text>
</a>
</g>
</g>
<!-- Node0&#45;&gt;Node8 -->
<g id="edge8" class="edge"><title>Node0&#45;&gt;Node8</title>
<path fill="none" stroke="midnightblue" d="M54.9425,-224.781C50.1547,-216.332 44.0439,-205.548 38.9559,-196.569"/>
<polygon fill="midnightblue" stroke="midnightblue" points="41.9226,-194.705 33.9473,-187.731 35.8324,-198.156 41.9226,-194.705"/>
</g>
<!-- Node2 -->
<g id="node3" class="node"><title>Node2</title>
<g id="a_node3"><a xlink:href="num_8h.html" target="_top" xlink:title="num.h">
<polygon fill="white" stroke="black" points="10,-112.5 10,-131.5 54,-131.5 54,-112.5 10,-112.5"/>
<text text-anchor="middle" x="32" y="-119.5" font-family="Helvetica,sans-Serif" font-size="10.00">num.h</text>
</a>
</g>
</g>
<!-- Node1&#45;&gt;Node2 -->
<g id="edge2" class="edge"><title>Node1&#45;&gt;Node2</title>
<path fill="none" stroke="midnightblue" d="M86.5566,-168.324C76.8538,-160.263 62.1847,-148.077 50.5003,-138.369"/>
<polygon fill="midnightblue" stroke="midnightblue" points="52.5619,-135.532 42.6334,-131.834 48.0887,-140.916 52.5619,-135.532"/>
</g>
<!-- Node3 -->
<g id="node4" class="node"><title>Node3</title>
<g id="a_node4"><a xlink:href="field_8h.html" target="_top" xlink:title="field.h">
<polygon fill="white" stroke="black" points="75.5,-112.5 75.5,-131.5 118.5,-131.5 118.5,-112.5 75.5,-112.5"/>
<text text-anchor="middle" x="97" y="-119.5" font-family="Helvetica,sans-Serif" font-size="10.00">field.h</text>
</a>
</g>
</g>
<!-- Node1&#45;&gt;Node3 -->
<g id="edge3" class="edge"><title>Node1&#45;&gt;Node3</title>
<path fill="none" stroke="midnightblue" d="M97,-168.083C97,-161.006 97,-150.861 97,-141.986"/>
<polygon fill="midnightblue" stroke="midnightblue" points="100.5,-141.751 97,-131.751 93.5001,-141.751 100.5,-141.751"/>
</g>
<!-- Node4 -->
<g id="node5" class="node"><title>Node4</title>
<g id="a_node5"><a xlink:href="secp256k1_2src_2util_8h.html" target="_top" xlink:title="util.h">
<polygon fill="white" stroke="black" points="78,-56.5 78,-75.5 116,-75.5 116,-56.5 78,-56.5"/>
<text text-anchor="middle" x="97" y="-63.5" font-family="Helvetica,sans-Serif" font-size="10.00">util.h</text>
</a>
</g>
</g>
<!-- Node3&#45;&gt;Node4 -->
<g id="edge4" class="edge"><title>Node3&#45;&gt;Node4</title>
<path fill="none" stroke="midnightblue" d="M97,-112.083C97,-105.006 97,-94.8611 97,-85.9865"/>
<polygon fill="midnightblue" stroke="midnightblue" points="100.5,-85.751 97,-75.7511 93.5001,-85.7511 100.5,-85.751"/>
</g>
<!-- Node5 -->
<g id="node6" class="node"><title>Node5</title>
<polygon fill="white" stroke="#bfbfbf" points="6,-0.5 6,-19.5 54,-19.5 54,-0.5 6,-0.5"/>
<text text-anchor="middle" x="30" y="-7.5" font-family="Helvetica,sans-Serif" font-size="10.00">stdlib.h</text>
</g>
<!-- Node4&#45;&gt;Node5 -->
<g id="edge5" class="edge"><title>Node4&#45;&gt;Node5</title>
<path fill="none" stroke="midnightblue" d="M86.2353,-56.324C76.2339,-48.2631 61.1135,-36.0765 49.0695,-26.3695"/>
<polygon fill="midnightblue" stroke="midnightblue" points="50.9429,-23.3841 40.9606,-19.8339 46.5502,-28.8343 50.9429,-23.3841"/>
</g>
<!-- Node6 -->
<g id="node7" class="node"><title>Node6</title>
<polygon fill="white" stroke="#bfbfbf" points="72.5,-0.5 72.5,-19.5 121.5,-19.5 121.5,-0.5 72.5,-0.5"/>
<text text-anchor="middle" x="97" y="-7.5" font-family="Helvetica,sans-Serif" font-size="10.00">stdint.h</text>
</g>
<!-- Node4&#45;&gt;Node6 -->
<g id="edge6" class="edge"><title>Node4&#45;&gt;Node6</title>
<path fill="none" stroke="midnightblue" d="M97,-56.083C97,-49.0059 97,-38.8611 97,-29.9865"/>
<polygon fill="midnightblue" stroke="midnightblue" points="100.5,-29.751 97,-19.7511 93.5001,-29.7511 100.5,-29.751"/>
</g>
<!-- Node7 -->
<g id="node8" class="node"><title>Node7</title>
<polygon fill="white" stroke="#bfbfbf" points="140,-0.5 140,-19.5 186,-19.5 186,-0.5 140,-0.5"/>
<text text-anchor="middle" x="163" y="-7.5" font-family="Helvetica,sans-Serif" font-size="10.00">stdio.h</text>
</g>
<!-- Node4&#45;&gt;Node7 -->
<g id="edge7" class="edge"><title>Node4&#45;&gt;Node7</title>
<path fill="none" stroke="midnightblue" d="M107.604,-56.324C117.456,-48.2631 132.351,-36.0765 144.215,-26.3695"/>
<polygon fill="midnightblue" stroke="midnightblue" points="146.68,-28.8752 152.203,-19.8339 142.247,-23.4575 146.68,-28.8752"/>
</g>
<!-- Node8&#45;&gt;Node2 -->
<g id="edge9" class="edge"><title>Node8&#45;&gt;Node2</title>
<path fill="none" stroke="midnightblue" d="M29.4954,-168.083C29.8886,-161.006 30.4522,-150.861 30.9452,-141.986"/>
<polygon fill="midnightblue" stroke="midnightblue" points="34.4536,-141.93 31.5138,-131.751 27.4644,-141.542 34.4536,-141.93"/>
</g>
</g>
</svg>
