<?xml version="1.0" encoding="UTF-8" standalone="no"?>
<!DOCTYPE svg PUBLIC "-//W3C//DTD SVG 1.1//EN"
 "http://www.w3.org/Graphics/SVG/1.1/DTD/svg11.dtd">
<!-- Generated by graphviz version 2.36.0 (20140111.2315)
 -->
<!-- Title: src/scheduler.cpp Pages: 1 -->
<svg width="600pt" height="140pt"
 viewBox="0.00 0.00 600.00 140.00" xmlns="http://www.w3.org/2000/svg" xmlns:xlink="http://www.w3.org/1999/xlink">
<g id="graph0" class="graph" transform="scale(1 1) rotate(0) translate(4 136)">
<title>src/scheduler.cpp</title>
<polygon fill="white" stroke="none" points="-4,4 -4,-136 596,-136 596,4 -4,4"/>
<!-- Node0 -->
<g id="node1" class="node"><title>Node0</title>
<polygon fill="#bfbfbf" stroke="black" points="363,-112.5 363,-131.5 457,-131.5 457,-112.5 363,-112.5"/>
<text text-anchor="middle" x="410" y="-119.5" font-family="Helvetica,sans-Serif" font-size="10.00">src/scheduler.cpp</text>
</g>
<!-- Node1 -->
<g id="node2" class="node"><title>Node1</title>
<g id="a_node2"><a xlink:href="scheduler_8h.html" target="_top" xlink:title="scheduler.h">
<polygon fill="white" stroke="black" points="205.5,-56.5 205.5,-75.5 272.5,-75.5 272.5,-56.5 205.5,-56.5"/>
<text text-anchor="middle" x="239" y="-63.5" font-family="Helvetica,sans-Serif" font-size="10.00">scheduler.h</text>
</a>
</g>
</g>
<!-- Node0&#45;&gt;Node1 -->
<g id="edge1" class="edge"><title>Node0&#45;&gt;Node1</title>
<path fill="none" stroke="midnightblue" d="M382.905,-112.444C354.012,-103.32 308.075,-88.8133 275.895,-78.6509"/>
<polygon fill="midnightblue" stroke="midnightblue" points="276.559,-75.1903 265.969,-75.5164 274.451,-81.8654 276.559,-75.1903"/>
</g>
<!-- Node6 -->
<g id="node7" class="node"><title>Node6</title>
<g id="a_node7"><a xlink:href="reverselock_8h.html" target="_top" xlink:title="reverselock.h">
<polygon fill="white" stroke="black" points="290.5,-56.5 290.5,-75.5 365.5,-75.5 365.5,-56.5 290.5,-56.5"/>
<text text-anchor="middle" x="328" y="-63.5" font-family="Helvetica,sans-Serif" font-size="10.00">reverselock.h</text>
</a>
</g>
</g>
<!-- Node0&#45;&gt;Node6 -->
<g id="edge6" class="edge"><title>Node0&#45;&gt;Node6</title>
<path fill="none" stroke="midnightblue" d="M396.825,-112.324C384.153,-103.979 364.767,-91.2122 349.794,-81.3524"/>
<polygon fill="midnightblue" stroke="midnightblue" points="351.419,-78.2313 341.142,-75.6545 347.569,-84.0776 351.419,-78.2313"/>
</g>
<!-- Node7 -->
<g id="node8" class="node"><title>Node7</title>
<polygon fill="white" stroke="#bfbfbf" points="384,-56.5 384,-75.5 436,-75.5 436,-56.5 384,-56.5"/>
<text text-anchor="middle" x="410" y="-63.5" font-family="Helvetica,sans-Serif" font-size="10.00">assert.h</text>
</g>
<!-- Node0&#45;&gt;Node7 -->
<g id="edge7" class="edge"><title>Node0&#45;&gt;Node7</title>
<path fill="none" stroke="midnightblue" d="M410,-112.083C410,-105.006 410,-94.8611 410,-85.9865"/>
<polygon fill="midnightblue" stroke="midnightblue" points="413.5,-85.751 410,-75.7511 406.5,-85.7511 413.5,-85.751"/>
</g>
<!-- Node8 -->
<g id="node9" class="node"><title>Node8</title>
<polygon fill="white" stroke="#bfbfbf" points="454,-56.5 454,-75.5 534,-75.5 534,-56.5 454,-56.5"/>
<text text-anchor="middle" x="494" y="-63.5" font-family="Helvetica,sans-Serif" font-size="10.00">boost/bind.hpp</text>
</g>
<!-- Node0&#45;&gt;Node8 -->
<g id="edge8" class="edge"><title>Node0&#45;&gt;Node8</title>
<path fill="none" stroke="midnightblue" d="M423.496,-112.324C436.6,-103.9 456.712,-90.9709 472.107,-81.0741"/>
<polygon fill="midnightblue" stroke="midnightblue" points="474.018,-84.0063 480.537,-75.6545 470.233,-78.118 474.018,-84.0063"/>
</g>
<!-- Node9 -->
<g id="node10" class="node"><title>Node9</title>
<polygon fill="white" stroke="#bfbfbf" points="552,-56.5 552,-75.5 592,-75.5 592,-56.5 552,-56.5"/>
<text text-anchor="middle" x="572" y="-63.5" font-family="Helvetica,sans-Serif" font-size="10.00">utility</text>
</g>
<!-- Node0&#45;&gt;Node9 -->
<g id="edge9" class="edge"><title>Node0&#45;&gt;Node9</title>
<path fill="none" stroke="midnightblue" d="M435.669,-112.444C464.526,-102.825 511.329,-87.2238 541.888,-77.0372"/>
<polygon fill="midnightblue" stroke="midnightblue" points="543.2,-80.2894 551.58,-73.8067 540.986,-73.6486 543.2,-80.2894"/>
</g>
<!-- Node2 -->
<g id="node3" class="node"><title>Node2</title>
<polygon fill="white" stroke="#bfbfbf" points="-0.5,-0.5 -0.5,-19.5 96.5,-19.5 96.5,-0.5 -0.5,-0.5"/>
<text text-anchor="middle" x="48" y="-7.5" font-family="Helvetica,sans-Serif" font-size="10.00">boost/function.hpp</text>
</g>
<!-- Node1&#45;&gt;Node2 -->
<g id="edge2" class="edge"><title>Node1&#45;&gt;Node2</title>
<path fill="none" stroke="midnightblue" d="M208.735,-56.4435C176.045,-47.2011 123.818,-32.4356 87.8171,-22.2572"/>
<polygon fill="midnightblue" stroke="midnightblue" points="88.698,-18.8691 78.1229,-19.5164 86.7935,-25.6051 88.698,-18.8691"/>
</g>
<!-- Node3 -->
<g id="node4" class="node"><title>Node3</title>
<polygon fill="white" stroke="#bfbfbf" points="115,-0.5 115,-19.5 239,-19.5 239,-0.5 115,-0.5"/>
<text text-anchor="middle" x="177" y="-7.5" font-family="Helvetica,sans-Serif" font-size="10.00">boost/chrono/chrono.hpp</text>
</g>
<!-- Node1&#45;&gt;Node3 -->
<g id="edge3" class="edge"><title>Node1&#45;&gt;Node3</title>
<path fill="none" stroke="midnightblue" d="M229.039,-56.324C219.873,-48.3414 206.063,-36.3128 194.972,-26.6529"/>
<polygon fill="midnightblue" stroke="midnightblue" points="196.982,-23.7624 187.143,-19.8339 192.385,-29.041 196.982,-23.7624"/>
</g>
<!-- Node4 -->
<g id="node5" class="node"><title>Node4</title>
<polygon fill="white" stroke="#bfbfbf" points="256.5,-0.5 256.5,-19.5 345.5,-19.5 345.5,-0.5 256.5,-0.5"/>
<text text-anchor="middle" x="301" y="-7.5" font-family="Helvetica,sans-Serif" font-size="10.00">boost/thread.hpp</text>
</g>
<!-- Node1&#45;&gt;Node4 -->
<g id="edge4" class="edge"><title>Node1&#45;&gt;Node4</title>
<path fill="none" stroke="midnightblue" d="M248.961,-56.324C258.127,-48.3414 271.937,-36.3128 283.028,-26.6529"/>
<polygon fill="midnightblue" stroke="midnightblue" points="285.615,-29.041 290.857,-19.8339 281.018,-23.7624 285.615,-29.041"/>
</g>
<!-- Node5 -->
<g id="node6" class="node"><title>Node5</title>
<polygon fill="white" stroke="#bfbfbf" points="363.5,-0.5 363.5,-19.5 398.5,-19.5 398.5,-0.5 363.5,-0.5"/>
<text text-anchor="middle" x="381" y="-7.5" font-family="Helvetica,sans-Serif" font-size="10.00">map</text>
</g>
<!-- Node1&#45;&gt;Node5 -->
<g id="edge5" class="edge"><title>Node1&#45;&gt;Node5</title>
<path fill="none" stroke="midnightblue" d="M261.5,-56.4435C286.464,-46.9502 326.751,-31.6297 353.55,-21.4385"/>
<polygon fill="midnightblue" stroke="midnightblue" points="354.998,-24.6326 363.101,-17.8067 352.51,-18.0898 354.998,-24.6326"/>
</g>
</g>
</svg>
