<?xml version="1.0" encoding="UTF-8" standalone="no"?>
<!DOCTYPE svg PUBLIC "-//W3C//DTD SVG 1.1//EN"
 "http://www.w3.org/Graphics/SVG/1.1/DTD/svg11.dtd">
<!-- Generated by graphviz version 2.36.0 (20140111.2315)
 -->
<!-- Title: src/script/script_error.h Pages: 1 -->
<!--zoomable 196 -->
<svg id="main" version="1.1" xmlns="http://www.w3.org/2000/svg" xmlns:xlink="http://www.w3.org/1999/xlink" xml:space="preserve" onload="init(evt)">
<style type="text/css"><![CDATA[
.edge:hover path { stroke: red; }
.edge:hover polygon { stroke: red; fill: red; }
]]></style>
<script type="text/javascript"><![CDATA[
var edges = document.getElementsByTagName('g');
if (edges && edges.length) {
  for (var i=0;i<edges.length;i++) {
    if (edges[i].id.substr(0,4)=='edge') {
      edges[i].setAttribute('class','edge');
    }
  }
}
]]></script>
        <defs>
                <circle id="rim" cx="0" cy="0" r="7"/>
                <circle id="rim2" cx="0" cy="0" r="3.5"/>
                <g id="zoomPlus">
                        <use xlink:href="#rim" fill="#404040">
                                <set attributeName="fill" to="#808080" begin="zoomplus.mouseover" end="zoomplus.mouseout"/>
                        </use>
                        <path d="M-4,0h8M0,-4v8" fill="none" stroke="white" stroke-width="1.5" pointer-events="none"/>
                </g>
                <g id="zoomMin">
                        <use xlink:href="#rim" fill="#404040">
                                <set attributeName="fill" to="#808080" begin="zoomminus.mouseover" end="zoomminus.mouseout"/>
                        </use>
                        <path d="M-4,0h8" fill="none" stroke="white" stroke-width="1.5" pointer-events="none"/>
                </g>
                <g id="dirArrow">
                        <path fill="none" stroke="white" stroke-width="1.5" d="M0,-3.0v7 M-2.5,-0.5L0,-3.0L2.5,-0.5"/>
                </g>
               <g id="resetDef">
                       <use xlink:href="#rim2" fill="#404040">
                               <set attributeName="fill" to="#808080" begin="reset.mouseover" end="reset.mouseout"/>
                       </use>
               </g>
        </defs>

<script type="text/javascript">
var viewWidth = 6179;
var viewHeight = 196;
var sectionId = 'dynsection-0';
</script>
<script xlink:href="svgpan.js"/>
<svg id="graph" class="graph">
<g id="viewport">
<title>src/script/script_error.h</title>
<polygon fill="white" stroke="none" points="-4,4 -4,-192 6175,-192 6175,4 -4,4"/>
<!-- Node1 -->
<g id="node1" class="node"><title>Node1</title>
<polygon fill="#bfbfbf" stroke="black" points="4653.5,-168.5 4653.5,-187.5 4770.5,-187.5 4770.5,-168.5 4653.5,-168.5"/>
<text text-anchor="middle" x="4712" y="-175.5" font-family="Helvetica,sans-Serif" font-size="10.00">src/script/script_error.h</text>
</g>
<!-- Node2 -->
<g id="node2" class="node"><title>Node2</title>
<g id="a_node2"><a xlink:href="validation_8h.html" target="_top" xlink:title="src/validation.h">
<polygon fill="white" stroke="red" points="3124.5,-112.5 3124.5,-131.5 3207.5,-131.5 3207.5,-112.5 3124.5,-112.5"/>
<text text-anchor="middle" x="3166" y="-119.5" font-family="Helvetica,sans-Serif" font-size="10.00">src/validation.h</text>
</a>
</g>
</g>
<!-- Node1&#45;&gt;Node2 -->
<g id="edge1" class="edge"><title>Node1&#45;&gt;Node2</title>
<path fill="none" stroke="midnightblue" d="M4642.97,-174.589C4376.47,-165.28 3418.94,-131.835 3207.51,-124.45"/>
<polygon fill="midnightblue" stroke="midnightblue" points="4643.17,-178.098 4653.28,-174.949 4643.41,-171.102 4643.17,-178.098"/>
</g>
<!-- Node65 -->
<g id="node45" class="node"><title>Node65</title>
<g id="a_node45"><a xlink:href="rawtransaction_8cpp.html" target="_top" xlink:title="src/rpc/rawtransaction.cpp">
<polygon fill="white" stroke="black" points="6039,-56.5 6039,-75.5 6171,-75.5 6171,-56.5 6039,-56.5"/>
<text text-anchor="middle" x="6105" y="-63.5" font-family="Helvetica,sans-Serif" font-size="10.00">src/rpc/rawtransaction.cpp</text>
</a>
</g>
</g>
<!-- Node1&#45;&gt;Node65 -->
<g id="edge50" class="edge"><title>Node1&#45;&gt;Node65</title>
<path fill="none" stroke="midnightblue" d="M4697.49,-160.096C4686.85,-145.609 4676.28,-125.069 4689,-112 4714.99,-85.2996 5992.84,-78.7228 6030,-76 6032.88,-75.7892 6035.81,-75.5481 6038.78,-75.2836"/>
<polygon fill="midnightblue" stroke="midnightblue" points="4694.97,-162.546 4703.92,-168.212 4700.45,-158.2 4694.97,-162.546"/>
</g>
<!-- Node74 -->
<g id="node49" class="node"><title>Node74</title>
<g id="a_node49"><a xlink:href="interpreter_8h.html" target="_top" xlink:title="src/script/interpreter.h">
<polygon fill="white" stroke="red" points="4698,-112.5 4698,-131.5 4810,-131.5 4810,-112.5 4698,-112.5"/>
<text text-anchor="middle" x="4754" y="-119.5" font-family="Helvetica,sans-Serif" font-size="10.00">src/script/interpreter.h</text>
</a>
</g>
</g>
<!-- Node1&#45;&gt;Node74 -->
<g id="edge49" class="edge"><title>Node1&#45;&gt;Node74</title>
<path fill="none" stroke="midnightblue" d="M4725.11,-160.144C4732.43,-150.736 4741.24,-139.405 4747.19,-131.751"/>
<polygon fill="midnightblue" stroke="midnightblue" points="4722.31,-158.041 4718.94,-168.083 4727.84,-162.338 4722.31,-158.041"/>
</g>
<!-- Node138 -->
<g id="node50" class="node"><title>Node138</title>
<g id="a_node50"><a xlink:href="script__error_8cpp.html" target="_top" xlink:title="src/script/script_error.cpp">
<polygon fill="white" stroke="black" points="4828,-112.5 4828,-131.5 4956,-131.5 4956,-112.5 4828,-112.5"/>
<text text-anchor="middle" x="4892" y="-119.5" font-family="Helvetica,sans-Serif" font-size="10.00">src/script/script_error.cpp</text>
</a>
</g>
</g>
<!-- Node1&#45;&gt;Node138 -->
<g id="edge51" class="edge"><title>Node1&#45;&gt;Node138</title>
<path fill="none" stroke="midnightblue" d="M4750.11,-165.568C4784.06,-155.381 4832.99,-140.703 4863.61,-131.516"/>
<polygon fill="midnightblue" stroke="midnightblue" points="4749.09,-162.218 4740.52,-168.444 4751.11,-168.922 4749.09,-162.218"/>
</g>
<!-- Node3 -->
<g id="node3" class="node"><title>Node3</title>
<g id="a_node3"><a xlink:href="masternode_8h.html" target="_top" xlink:title="src/masternode.h">
<polygon fill="white" stroke="red" points="0,-56.5 0,-75.5 92,-75.5 92,-56.5 0,-56.5"/>
<text text-anchor="middle" x="46" y="-63.5" font-family="Helvetica,sans-Serif" font-size="10.00">src/masternode.h</text>
</a>
</g>
</g>
<!-- Node2&#45;&gt;Node3 -->
<g id="edge2" class="edge"><title>Node2&#45;&gt;Node3</title>
<path fill="none" stroke="midnightblue" d="M3114.19,-121.191C2762.82,-122.341 724.592,-126.712 106,-76 101.486,-75.6299 96.7954,-75.1303 92.1152,-74.555"/>
<polygon fill="midnightblue" stroke="midnightblue" points="3114.34,-124.69 3124.33,-121.157 3114.32,-117.69 3114.34,-124.69"/>
</g>
<!-- Node23 -->
<g id="node4" class="node"><title>Node23</title>
<g id="a_node4"><a xlink:href="rpc_2governance_8cpp.html" target="_top" xlink:title="src/rpc/governance.cpp">
<polygon fill="white" stroke="black" points="23.5,-0.5 23.5,-19.5 142.5,-19.5 142.5,-0.5 23.5,-0.5"/>
<text text-anchor="middle" x="83" y="-7.5" font-family="Helvetica,sans-Serif" font-size="10.00">src/rpc/governance.cpp</text>
</a>
</g>
</g>
<!-- Node2&#45;&gt;Node23 -->
<g id="edge40" class="edge"><title>Node2&#45;&gt;Node23</title>
<path fill="none" stroke="midnightblue" d="M3114,-120.817C2719.29,-119.359 209.185,-108.806 139,-76 113.632,-64.1421 95.3219,-34.6455 87.3847,-19.8122"/>
<polygon fill="midnightblue" stroke="midnightblue" points="3114.25,-124.318 3124.26,-120.855 3114.27,-117.318 3114.25,-124.318"/>
</g>
<!-- Node35 -->
<g id="node5" class="node"><title>Node35</title>
<g id="a_node5"><a xlink:href="bench_2base58_8cpp.html" target="_top" xlink:title="src/bench/base58.cpp">
<polygon fill="white" stroke="black" points="148.5,-56.5 148.5,-75.5 261.5,-75.5 261.5,-56.5 148.5,-56.5"/>
<text text-anchor="middle" x="205" y="-63.5" font-family="Helvetica,sans-Serif" font-size="10.00">src/bench/base58.cpp</text>
</a>
</g>
</g>
<!-- Node2&#45;&gt;Node35 -->
<g id="edge4" class="edge"><title>Node2&#45;&gt;Node35</title>
<path fill="none" stroke="midnightblue" d="M3114.07,-121.046C2773.46,-121.218 854.838,-120.184 271,-76 268.002,-75.7731 264.932,-75.4995 261.836,-75.1909"/>
<polygon fill="midnightblue" stroke="midnightblue" points="3114.14,-124.546 3124.14,-121.04 3114.14,-117.546 3114.14,-124.546"/>
</g>
<!-- Node36 -->
<g id="node6" class="node"><title>Node36</title>
<g id="a_node6"><a xlink:href="bench__dash_8cpp.html" target="_top" xlink:title="src/bench/bench_dash.cpp">
<polygon fill="white" stroke="black" points="280,-56.5 280,-75.5 414,-75.5 414,-56.5 280,-56.5"/>
<text text-anchor="middle" x="347" y="-63.5" font-family="Helvetica,sans-Serif" font-size="10.00">src/bench/bench_dash.cpp</text>
</a>
</g>
</g>
<!-- Node2&#45;&gt;Node36 -->
<g id="edge5" class="edge"><title>Node2&#45;&gt;Node36</title>
<path fill="none" stroke="midnightblue" d="M3114.24,-120.869C2784.63,-119.928 975.076,-113.121 423,-76 420.084,-75.8039 417.107,-75.575 414.102,-75.3205"/>
<polygon fill="midnightblue" stroke="midnightblue" points="3114.44,-124.37 3124.45,-120.898 3114.46,-117.37 3114.44,-124.37"/>
</g>
<!-- Node37 -->
<g id="node7" class="node"><title>Node37</title>
<g id="a_node7"><a xlink:href="checkblock_8cpp.html" target="_top" xlink:title="src/bench/checkblock.cpp">
<polygon fill="white" stroke="black" points="432.5,-56.5 432.5,-75.5 563.5,-75.5 563.5,-56.5 432.5,-56.5"/>
<text text-anchor="middle" x="498" y="-63.5" font-family="Helvetica,sans-Serif" font-size="10.00">src/bench/checkblock.cpp</text>
</a>
</g>
</g>
<!-- Node2&#45;&gt;Node37 -->
<g id="edge6" class="edge"><title>Node2&#45;&gt;Node37</title>
<path fill="none" stroke="midnightblue" d="M3114.08,-120.823C2794.7,-119.624 1093.2,-111.633 573,-76 569.991,-75.7939 566.917,-75.5521 563.814,-75.2829"/>
<polygon fill="midnightblue" stroke="midnightblue" points="3114.41,-124.324 3124.42,-120.861 3114.43,-117.324 3114.41,-124.324"/>
</g>
<!-- Node38 -->
<g id="node8" class="node"><title>Node38</title>
<g id="a_node8"><a xlink:href="checkqueue_8cpp.html" target="_top" xlink:title="src/bench/checkqueue.cpp">
<polygon fill="white" stroke="black" points="582,-56.5 582,-75.5 716,-75.5 716,-56.5 582,-56.5"/>
<text text-anchor="middle" x="649" y="-63.5" font-family="Helvetica,sans-Serif" font-size="10.00">src/bench/checkqueue.cpp</text>
</a>
</g>
</g>
<!-- Node2&#45;&gt;Node38 -->
<g id="edge7" class="edge"><title>Node2&#45;&gt;Node38</title>
<path fill="none" stroke="midnightblue" d="M3113.74,-120.745C2804.65,-119.131 1212.92,-109.304 725,-76 722.084,-75.8009 719.107,-75.5696 716.103,-75.3131"/>
<polygon fill="midnightblue" stroke="midnightblue" points="3114.17,-124.247 3124.19,-120.799 3114.21,-117.248 3114.17,-124.247"/>
</g>
<!-- Node39 -->
<g id="node9" class="node"><title>Node39</title>
<g id="a_node9"><a xlink:href="_examples_8cpp.html" target="_top" xlink:title="src/bench/Examples.cpp">
<polygon fill="white" stroke="black" points="734.5,-56.5 734.5,-75.5 859.5,-75.5 859.5,-56.5 734.5,-56.5"/>
<text text-anchor="middle" x="797" y="-63.5" font-family="Helvetica,sans-Serif" font-size="10.00">src/bench/Examples.cpp</text>
</a>
</g>
</g>
<!-- Node2&#45;&gt;Node39 -->
<g id="edge8" class="edge"><title>Node2&#45;&gt;Node39</title>
<path fill="none" stroke="midnightblue" d="M3114.43,-120.738C2817.78,-119.119 1325.96,-109.414 868,-76 865.274,-75.8011 862.492,-75.5699 859.684,-75.3134"/>
<polygon fill="midnightblue" stroke="midnightblue" points="3114.46,-124.238 3124.48,-120.792 3114.5,-117.238 3114.46,-124.238"/>
</g>
<!-- Node40 -->
<g id="node10" class="node"><title>Node40</title>
<g id="a_node10"><a xlink:href="blockencodings_8cpp.html" target="_top" xlink:title="src/blockencodings.cpp">
<polygon fill="white" stroke="black" points="877.5,-56.5 877.5,-75.5 996.5,-75.5 996.5,-56.5 877.5,-56.5"/>
<text text-anchor="middle" x="937" y="-63.5" font-family="Helvetica,sans-Serif" font-size="10.00">src/blockencodings.cpp</text>
</a>
</g>
</g>
<!-- Node2&#45;&gt;Node40 -->
<g id="edge9" class="edge"><title>Node2&#45;&gt;Node40</title>
<path fill="none" stroke="midnightblue" d="M3114.37,-120.689C2828.28,-118.847 1434.8,-108.335 1006,-76 1002.99,-75.7729 999.907,-75.5043 996.798,-75.2045"/>
<polygon fill="midnightblue" stroke="midnightblue" points="3114.45,-124.189 3124.47,-120.753 3114.49,-117.189 3114.45,-124.189"/>
</g>
<!-- Node41 -->
<g id="node11" class="node"><title>Node41</title>
<g id="a_node11"><a xlink:href="checkpoints_8cpp.html" target="_top" xlink:title="src/checkpoints.cpp">
<polygon fill="white" stroke="black" points="1015,-56.5 1015,-75.5 1119,-75.5 1119,-56.5 1015,-56.5"/>
<text text-anchor="middle" x="1067" y="-63.5" font-family="Helvetica,sans-Serif" font-size="10.00">src/checkpoints.cpp</text>
</a>
</g>
</g>
<!-- Node2&#45;&gt;Node41 -->
<g id="edge10" class="edge"><title>Node2&#45;&gt;Node41</title>
<path fill="none" stroke="midnightblue" d="M3114.22,-120.731C2837.51,-119.159 1530.79,-110.028 1128,-76 1125.12,-75.7567 1122.17,-75.4646 1119.19,-75.1367"/>
<polygon fill="midnightblue" stroke="midnightblue" points="3114.36,-124.232 3124.38,-120.788 3114.4,-117.232 3114.36,-124.232"/>
</g>
<!-- Node42 -->
<g id="node12" class="node"><title>Node42</title>
<g id="a_node12"><a xlink:href="cbtx_8cpp.html" target="_top" xlink:title="src/evo/cbtx.cpp">
<polygon fill="white" stroke="black" points="1137.5,-56.5 1137.5,-75.5 1226.5,-75.5 1226.5,-56.5 1137.5,-56.5"/>
<text text-anchor="middle" x="1182" y="-63.5" font-family="Helvetica,sans-Serif" font-size="10.00">src/evo/cbtx.cpp</text>
</a>
</g>
</g>
<!-- Node2&#45;&gt;Node42 -->
<g id="edge11" class="edge"><title>Node2&#45;&gt;Node42</title>
<path fill="none" stroke="midnightblue" d="M3113.95,-120.808C2845.44,-119.663 1614.84,-112.482 1235,-76 1232.31,-75.7412 1229.54,-75.4256 1226.76,-75.0693"/>
<polygon fill="midnightblue" stroke="midnightblue" points="3114.18,-124.309 3124.19,-120.851 3114.2,-117.309 3114.18,-124.309"/>
</g>
<!-- Node43 -->
<g id="node13" class="node"><title>Node43</title>
<g id="a_node13"><a xlink:href="deterministicmns_8cpp.html" target="_top" xlink:title="src/evo/deterministicmns.cpp">
<polygon fill="white" stroke="black" points="1244.5,-56.5 1244.5,-75.5 1389.5,-75.5 1389.5,-56.5 1244.5,-56.5"/>
<text text-anchor="middle" x="1317" y="-63.5" font-family="Helvetica,sans-Serif" font-size="10.00">src/evo/deterministicmns.cpp</text>
</a>
</g>
</g>
<!-- Node2&#45;&gt;Node43 -->
<g id="edge12" class="edge"><title>Node2&#45;&gt;Node43</title>
<path fill="none" stroke="midnightblue" d="M3114.27,-121.292C2901.79,-122.153 2075.43,-122.172 1398,-76 1395.32,-75.8172 1392.59,-75.612 1389.83,-75.3886"/>
<polygon fill="midnightblue" stroke="midnightblue" points="3114.51,-124.791 3124.5,-121.248 3114.48,-117.792 3114.51,-124.791"/>
</g>
<!-- Node44 -->
<g id="node14" class="node"><title>Node44</title>
<g id="a_node14"><a xlink:href="providertx_8cpp.html" target="_top" xlink:title="src/evo/providertx.cpp">
<polygon fill="white" stroke="black" points="1407.5,-56.5 1407.5,-75.5 1520.5,-75.5 1520.5,-56.5 1407.5,-56.5"/>
<text text-anchor="middle" x="1464" y="-63.5" font-family="Helvetica,sans-Serif" font-size="10.00">src/evo/providertx.cpp</text>
</a>
</g>
</g>
<!-- Node2&#45;&gt;Node44 -->
<g id="edge13" class="edge"><title>Node2&#45;&gt;Node44</title>
<path fill="none" stroke="midnightblue" d="M3113.92,-120.341C2871.01,-117.151 1847.8,-102.372 1529,-76 1526.28,-75.7746 1523.49,-75.5123 1520.68,-75.2222"/>
<polygon fill="midnightblue" stroke="midnightblue" points="3114.18,-123.845 3124.23,-120.476 3114.28,-116.846 3114.18,-123.845"/>
</g>
<!-- Node45 -->
<g id="node15" class="node"><title>Node45</title>
<g id="a_node15"><a xlink:href="simplifiedmns_8cpp.html" target="_top" xlink:title="src/evo/simplifiedmns.cpp">
<polygon fill="white" stroke="black" points="1538.5,-56.5 1538.5,-75.5 1669.5,-75.5 1669.5,-56.5 1538.5,-56.5"/>
<text text-anchor="middle" x="1604" y="-63.5" font-family="Helvetica,sans-Serif" font-size="10.00">src/evo/simplifiedmns.cpp</text>
</a>
</g>
</g>
<!-- Node2&#45;&gt;Node45 -->
<g id="edge14" class="edge"><title>Node2&#45;&gt;Node45</title>
<path fill="none" stroke="midnightblue" d="M3114.2,-121.103C2923.16,-121.127 2240.13,-118.074 1679,-76 1675.99,-75.7745 1672.92,-75.5168 1669.82,-75.2346"/>
<polygon fill="midnightblue" stroke="midnightblue" points="3114.24,-124.603 3124.24,-121.098 3114.24,-117.603 3114.24,-124.603"/>
</g>
<!-- Node46 -->
<g id="node16" class="node"><title>Node46</title>
<g id="a_node16"><a xlink:href="specialtx_8cpp.html" target="_top" xlink:title="src/evo/specialtx.cpp">
<polygon fill="white" stroke="black" points="1688,-56.5 1688,-75.5 1798,-75.5 1798,-56.5 1688,-56.5"/>
<text text-anchor="middle" x="1743" y="-63.5" font-family="Helvetica,sans-Serif" font-size="10.00">src/evo/specialtx.cpp</text>
</a>
</g>
</g>
<!-- Node2&#45;&gt;Node46 -->
<g id="edge15" class="edge"><title>Node2&#45;&gt;Node46</title>
<path fill="none" stroke="midnightblue" d="M3114.22,-121.27C2933.65,-121.788 2315.17,-120.018 1807,-76 1804.09,-75.7482 1801.12,-75.4548 1798.12,-75.1307"/>
<polygon fill="midnightblue" stroke="midnightblue" points="3114.49,-124.769 3124.48,-121.236 3114.47,-117.769 3114.49,-124.769"/>
</g>
<!-- Node47 -->
<g id="node17" class="node"><title>Node47</title>
<g id="a_node17"><a xlink:href="governance-classes_8cpp.html" target="_top" xlink:title="src/governance&#45;classes.cpp">
<polygon fill="white" stroke="black" points="1816.5,-56.5 1816.5,-75.5 1955.5,-75.5 1955.5,-56.5 1816.5,-56.5"/>
<text text-anchor="middle" x="1886" y="-63.5" font-family="Helvetica,sans-Serif" font-size="10.00">src/governance&#45;classes.cpp</text>
</a>
</g>
</g>
<!-- Node2&#45;&gt;Node47 -->
<g id="edge16" class="edge"><title>Node2&#45;&gt;Node47</title>
<path fill="none" stroke="midnightblue" d="M3113.94,-120.49C2946.71,-118.546 2408.17,-109.888 1964,-76 1961.28,-75.7926 1958.51,-75.5627 1955.72,-75.315"/>
<polygon fill="midnightblue" stroke="midnightblue" points="3114.37,-123.996 3124.41,-120.609 3114.45,-116.996 3114.37,-123.996"/>
</g>
<!-- Node10 -->
<g id="node18" class="node"><title>Node10</title>
<g id="a_node18"><a xlink:href="init_8cpp.html" target="_top" xlink:title="src/init.cpp">
<polygon fill="white" stroke="black" points="1973.5,-56.5 1973.5,-75.5 2038.5,-75.5 2038.5,-56.5 1973.5,-56.5"/>
<text text-anchor="middle" x="2006" y="-63.5" font-family="Helvetica,sans-Serif" font-size="10.00">src/init.cpp</text>
</a>
</g>
</g>
<!-- Node2&#45;&gt;Node10 -->
<g id="edge17" class="edge"><title>Node2&#45;&gt;Node10</title>
<path fill="none" stroke="midnightblue" d="M3114.24,-120.091C2923.27,-116.556 2258.41,-102.581 2048,-76 2045.04,-75.6262 2041.98,-75.1494 2038.92,-74.611"/>
<polygon fill="midnightblue" stroke="midnightblue" points="3114.23,-123.592 3124.29,-120.276 3114.36,-116.593 3114.23,-123.592"/>
</g>
<!-- Node11 -->
<g id="node19" class="node"><title>Node11</title>
<g id="a_node19"><a xlink:href="instantx_8cpp.html" target="_top" xlink:title="src/instantx.cpp">
<polygon fill="white" stroke="black" points="2057,-56.5 2057,-75.5 2143,-75.5 2143,-56.5 2057,-56.5"/>
<text text-anchor="middle" x="2100" y="-63.5" font-family="Helvetica,sans-Serif" font-size="10.00">src/instantx.cpp</text>
</a>
</g>
</g>
<!-- Node2&#45;&gt;Node11 -->
<g id="edge18" class="edge"><title>Node2&#45;&gt;Node11</title>
<path fill="none" stroke="midnightblue" d="M3114.06,-121.019C2964.3,-120.574 2518.98,-115.738 2152,-76 2149.09,-75.6844 2146.09,-75.307 2143.07,-74.8883"/>
<polygon fill="midnightblue" stroke="midnightblue" points="3114.32,-124.519 3124.32,-121.044 3114.33,-117.519 3114.32,-124.519"/>
</g>
<!-- Node48 -->
<g id="node20" class="node"><title>Node48</title>
<g id="a_node20"><a xlink:href="quorums__blockprocessor_8cpp.html" target="_top" xlink:title="src/llmq/quorums_blockprocessor.cpp">
<polygon fill="white" stroke="black" points="2161,-56.5 2161,-75.5 2343,-75.5 2343,-56.5 2161,-56.5"/>
<text text-anchor="middle" x="2252" y="-63.5" font-family="Helvetica,sans-Serif" font-size="10.00">src/llmq/quorums_blockprocessor.cpp</text>
</a>
</g>
</g>
<!-- Node2&#45;&gt;Node48 -->
<g id="edge19" class="edge"><title>Node2&#45;&gt;Node48</title>
<path fill="none" stroke="midnightblue" d="M3114.1,-118.754C2985.11,-113.035 2639.65,-96.8891 2352,-76 2349.04,-75.7854 2346.04,-75.5596 2343.01,-75.325"/>
<polygon fill="midnightblue" stroke="midnightblue" points="3114.31,-122.266 3124.46,-119.211 3114.62,-115.273 3114.31,-122.266"/>
</g>
<!-- Node49 -->
<g id="node21" class="node"><title>Node49</title>
<g id="a_node21"><a xlink:href="quorums__commitment_8cpp.html" target="_top" xlink:title="src/llmq/quorums_commitment.cpp">
<polygon fill="white" stroke="black" points="2361,-56.5 2361,-75.5 2531,-75.5 2531,-56.5 2361,-56.5"/>
<text text-anchor="middle" x="2446" y="-63.5" font-family="Helvetica,sans-Serif" font-size="10.00">src/llmq/quorums_commitment.cpp</text>
</a>
</g>
</g>
<!-- Node2&#45;&gt;Node49 -->
<g id="edge20" class="edge"><title>Node2&#45;&gt;Node49</title>
<path fill="none" stroke="midnightblue" d="M3113.99,-117.679C3006.64,-110.734 2752.79,-93.8324 2540,-76 2537.06,-75.7536 2534.07,-75.4973 2531.05,-75.2338"/>
<polygon fill="midnightblue" stroke="midnightblue" points="3114.01,-121.188 3124.22,-118.34 3114.46,-114.203 3114.01,-121.188"/>
</g>
<!-- Node50 -->
<g id="node22" class="node"><title>Node50</title>
<g id="a_node22"><a xlink:href="quorums__dummydkg_8cpp.html" target="_top" xlink:title="src/llmq/quorums_dummydkg.cpp">
<polygon fill="white" stroke="black" points="2549,-56.5 2549,-75.5 2713,-75.5 2713,-56.5 2549,-56.5"/>
<text text-anchor="middle" x="2631" y="-63.5" font-family="Helvetica,sans-Serif" font-size="10.00">src/llmq/quorums_dummydkg.cpp</text>
</a>
</g>
</g>
<!-- Node2&#45;&gt;Node50 -->
<g id="edge21" class="edge"><title>Node2&#45;&gt;Node50</title>
<path fill="none" stroke="midnightblue" d="M3114.45,-115.797C3021.48,-106.413 2824.99,-86.5805 2713.25,-75.3018"/>
<polygon fill="midnightblue" stroke="midnightblue" points="3114.16,-119.286 3124.46,-116.808 3114.87,-112.321 3114.16,-119.286"/>
</g>
<!-- Node13 -->
<g id="node23" class="node"><title>Node13</title>
<g id="a_node23"><a xlink:href="masternode-sync_8cpp.html" target="_top" xlink:title="src/masternode&#45;sync.cpp">
<polygon fill="white" stroke="black" points="2731.5,-56.5 2731.5,-75.5 2858.5,-75.5 2858.5,-56.5 2731.5,-56.5"/>
<text text-anchor="middle" x="2795" y="-63.5" font-family="Helvetica,sans-Serif" font-size="10.00">src/masternode&#45;sync.cpp</text>
</a>
</g>
</g>
<!-- Node2&#45;&gt;Node13 -->
<g id="edge22" class="edge"><title>Node2&#45;&gt;Node13</title>
<path fill="none" stroke="midnightblue" d="M3114.02,-113.435C3045.44,-103.453 2925.06,-85.9312 2853.41,-75.5017"/>
<polygon fill="midnightblue" stroke="midnightblue" points="3113.76,-116.934 3124.16,-114.91 3114.77,-110.007 3113.76,-116.934"/>
</g>
<!-- Node51 -->
<g id="node24" class="node"><title>Node51</title>
<g id="a_node24"><a xlink:href="messagesigner_8cpp.html" target="_top" xlink:title="src/messagesigner.cpp">
<polygon fill="white" stroke="black" points="2877,-56.5 2877,-75.5 2995,-75.5 2995,-56.5 2877,-56.5"/>
<text text-anchor="middle" x="2936" y="-63.5" font-family="Helvetica,sans-Serif" font-size="10.00">src/messagesigner.cpp</text>
</a>
</g>
</g>
<!-- Node2&#45;&gt;Node51 -->
<g id="edge23" class="edge"><title>Node2&#45;&gt;Node51</title>
<path fill="none" stroke="midnightblue" d="M3119.8,-110.153C3076.34,-99.95 3012.16,-84.8809 2972.27,-75.5164"/>
<polygon fill="midnightblue" stroke="midnightblue" points="3119.02,-113.565 3129.56,-112.444 3120.62,-106.75 3119.02,-113.565"/>
</g>
<!-- Node27 -->
<g id="node25" class="node"><title>Node27</title>
<g id="a_node25"><a xlink:href="miner_8cpp.html" target="_top" xlink:title="src/miner.cpp">
<polygon fill="white" stroke="black" points="3013,-56.5 3013,-75.5 3089,-75.5 3089,-56.5 3013,-56.5"/>
<text text-anchor="middle" x="3051" y="-63.5" font-family="Helvetica,sans-Serif" font-size="10.00">src/miner.cpp</text>
</a>
</g>
</g>
<!-- Node2&#45;&gt;Node27 -->
<g id="edge24" class="edge"><title>Node2&#45;&gt;Node27</title>
<path fill="none" stroke="midnightblue" d="M3138.52,-108.096C3117.03,-98.0073 3087.78,-84.2697 3069.14,-75.5164"/>
<polygon fill="midnightblue" stroke="midnightblue" points="3137.24,-111.361 3147.78,-112.444 3140.21,-105.025 3137.24,-111.361"/>
</g>
<!-- Node17 -->
<g id="node26" class="node"><title>Node17</title>
<g id="a_node26"><a xlink:href="net__processing_8cpp.html" target="_top" xlink:title="src/net_processing.cpp">
<polygon fill="white" stroke="black" points="3107,-56.5 3107,-75.5 3225,-75.5 3225,-56.5 3107,-56.5"/>
<text text-anchor="middle" x="3166" y="-63.5" font-family="Helvetica,sans-Serif" font-size="10.00">src/net_processing.cpp</text>
</a>
</g>
</g>
<!-- Node2&#45;&gt;Node17 -->
<g id="edge25" class="edge"><title>Node2&#45;&gt;Node17</title>
<path fill="none" stroke="midnightblue" d="M3166,-101.805C3166,-92.9102 3166,-82.7798 3166,-75.7511"/>
<polygon fill="midnightblue" stroke="midnightblue" points="3162.5,-102.083 3166,-112.083 3169.5,-102.083 3162.5,-102.083"/>
</g>
<!-- Node52 -->
<g id="node27" class="node"><title>Node52</title>
<g id="a_node27"><a xlink:href="policy_8cpp.html" target="_top" xlink:title="src/policy/policy.cpp">
<polygon fill="white" stroke="black" points="3243,-56.5 3243,-75.5 3349,-75.5 3349,-56.5 3243,-56.5"/>
<text text-anchor="middle" x="3296" y="-63.5" font-family="Helvetica,sans-Serif" font-size="10.00">src/policy/policy.cpp</text>
</a>
</g>
</g>
<!-- Node2&#45;&gt;Node52 -->
<g id="edge26" class="edge"><title>Node2&#45;&gt;Node52</title>
<path fill="none" stroke="midnightblue" d="M3196.09,-108.503C3220.46,-98.3795 3254.14,-84.388 3275.5,-75.5164"/>
<polygon fill="midnightblue" stroke="midnightblue" points="3194.49,-105.375 3186.6,-112.444 3197.18,-111.84 3194.49,-105.375"/>
</g>
<!-- Node21 -->
<g id="node28" class="node"><title>Node21</title>
<g id="a_node28"><a xlink:href="clientmodel_8cpp.html" target="_top" xlink:title="src/qt/clientmodel.cpp">
<polygon fill="white" stroke="black" points="3367.5,-56.5 3367.5,-75.5 3480.5,-75.5 3480.5,-56.5 3367.5,-56.5"/>
<text text-anchor="middle" x="3424" y="-63.5" font-family="Helvetica,sans-Serif" font-size="10.00">src/qt/clientmodel.cpp</text>
</a>
</g>
</g>
<!-- Node2&#45;&gt;Node21 -->
<g id="edge27" class="edge"><title>Node2&#45;&gt;Node21</title>
<path fill="none" stroke="midnightblue" d="M3216.9,-110.346C3265.66,-100.141 3338.29,-84.94 3383.31,-75.5164"/>
<polygon fill="midnightblue" stroke="midnightblue" points="3215.95,-106.969 3206.88,-112.444 3217.39,-113.821 3215.95,-106.969"/>
</g>
<!-- Node30 -->
<g id="node29" class="node"><title>Node30</title>
<g id="a_node29"><a xlink:href="coincontroldialog_8cpp.html" target="_top" xlink:title="src/qt/coincontroldialog.cpp">
<polygon fill="white" stroke="black" points="3499,-56.5 3499,-75.5 3635,-75.5 3635,-56.5 3499,-56.5"/>
<text text-anchor="middle" x="3567" y="-63.5" font-family="Helvetica,sans-Serif" font-size="10.00">src/qt/coincontroldialog.cpp</text>
</a>
</g>
</g>
<!-- Node2&#45;&gt;Node30 -->
<g id="edge28" class="edge"><title>Node2&#45;&gt;Node30</title>
<path fill="none" stroke="midnightblue" d="M3217.69,-114.039C3290.89,-104.182 3424.6,-86.1756 3503.67,-75.5289"/>
<polygon fill="midnightblue" stroke="midnightblue" points="3217.22,-110.571 3207.78,-115.374 3218.16,-117.508 3217.22,-110.571"/>
</g>
<!-- Node53 -->
<g id="node30" class="node"><title>Node53</title>
<g id="a_node30"><a xlink:href="optionsdialog_8cpp.html" target="_top" xlink:title="src/qt/optionsdialog.cpp">
<polygon fill="white" stroke="black" points="3653,-56.5 3653,-75.5 3773,-75.5 3773,-56.5 3653,-56.5"/>
<text text-anchor="middle" x="3713" y="-63.5" font-family="Helvetica,sans-Serif" font-size="10.00">src/qt/optionsdialog.cpp</text>
</a>
</g>
</g>
<!-- Node2&#45;&gt;Node53 -->
<g id="edge29" class="edge"><title>Node2&#45;&gt;Node53</title>
<path fill="none" stroke="midnightblue" d="M3217.84,-116.733C3305.64,-109.368 3489.18,-93.3785 3644,-76 3646.88,-75.6766 3649.83,-75.3347 3652.8,-74.9806"/>
<polygon fill="midnightblue" stroke="midnightblue" points="3217.28,-113.267 3207.61,-117.588 3217.87,-120.242 3217.28,-113.267"/>
</g>
<!-- Node54 -->
<g id="node31" class="node"><title>Node54</title>
<g id="a_node31"><a xlink:href="optionsmodel_8cpp.html" target="_top" xlink:title="src/qt/optionsmodel.cpp">
<polygon fill="white" stroke="black" points="3791.5,-56.5 3791.5,-75.5 3912.5,-75.5 3912.5,-56.5 3791.5,-56.5"/>
<text text-anchor="middle" x="3852" y="-63.5" font-family="Helvetica,sans-Serif" font-size="10.00">src/qt/optionsmodel.cpp</text>
</a>
</g>
</g>
<!-- Node2&#45;&gt;Node54 -->
<g id="edge30" class="edge"><title>Node2&#45;&gt;Node54</title>
<path fill="none" stroke="midnightblue" d="M3217.93,-118.133C3323.93,-112.075 3572.75,-96.8029 3781,-76 3784.34,-75.6665 3787.76,-75.3033 3791.22,-74.9203"/>
<polygon fill="midnightblue" stroke="midnightblue" points="3217.61,-114.645 3207.82,-118.707 3218.01,-121.634 3217.61,-114.645"/>
</g>
<!-- Node55 -->
<g id="node32" class="node"><title>Node55</title>
<g id="a_node32"><a xlink:href="peertablemodel_8cpp.html" target="_top" xlink:title="src/qt/peertablemodel.cpp">
<polygon fill="white" stroke="black" points="3930.5,-56.5 3930.5,-75.5 4059.5,-75.5 4059.5,-56.5 3930.5,-56.5"/>
<text text-anchor="middle" x="3995" y="-63.5" font-family="Helvetica,sans-Serif" font-size="10.00">src/qt/peertablemodel.cpp</text>
</a>
</g>
</g>
<!-- Node2&#45;&gt;Node55 -->
<g id="edge31" class="edge"><title>Node2&#45;&gt;Node55</title>
<path fill="none" stroke="midnightblue" d="M3218.03,-119.002C3340.66,-114.054 3657.33,-99.8691 3921,-76 3924.09,-75.72 3927.26,-75.4133 3930.45,-75.0876"/>
<polygon fill="midnightblue" stroke="midnightblue" points="3217.66,-115.514 3207.81,-119.412 3217.94,-122.509 3217.66,-115.514"/>
</g>
<!-- Node56 -->
<g id="node33" class="node"><title>Node56</title>
<g id="a_node33"><a xlink:href="sendcoinsdialog_8cpp.html" target="_top" xlink:title="src/qt/sendcoinsdialog.cpp">
<polygon fill="white" stroke="black" points="4077.5,-56.5 4077.5,-75.5 4210.5,-75.5 4210.5,-56.5 4077.5,-56.5"/>
<text text-anchor="middle" x="4144" y="-63.5" font-family="Helvetica,sans-Serif" font-size="10.00">src/qt/sendcoinsdialog.cpp</text>
</a>
</g>
</g>
<!-- Node2&#45;&gt;Node56 -->
<g id="edge32" class="edge"><title>Node2&#45;&gt;Node56</title>
<path fill="none" stroke="midnightblue" d="M3218.2,-119.638C3356.8,-115.752 3745.56,-103.103 4068,-76 4071.05,-75.744 4074.16,-75.4614 4077.3,-75.159"/>
<polygon fill="midnightblue" stroke="midnightblue" points="3217.78,-116.148 3207.88,-119.924 3217.97,-123.145 3217.78,-116.148"/>
</g>
<!-- Node57 -->
<g id="node34" class="node"><title>Node57</title>
<g id="a_node34"><a xlink:href="signverifymessagedialog_8cpp.html" target="_top" xlink:title="src/qt/signverifymessagedialog.cpp">
<polygon fill="white" stroke="black" points="4229,-56.5 4229,-75.5 4399,-75.5 4399,-56.5 4229,-56.5"/>
<text text-anchor="middle" x="4314" y="-63.5" font-family="Helvetica,sans-Serif" font-size="10.00">src/qt/signverifymessagedialog.cpp</text>
</a>
</g>
</g>
<!-- Node2&#45;&gt;Node57 -->
<g id="edge33" class="edge"><title>Node2&#45;&gt;Node57</title>
<path fill="none" stroke="midnightblue" d="M3217.74,-119.737C3370.82,-115.797 3834.89,-102.385 4219,-76 4222.22,-75.7786 4225.51,-75.5387 4228.82,-75.2845"/>
<polygon fill="midnightblue" stroke="midnightblue" points="3217.59,-116.24 3207.68,-119.994 3217.77,-123.238 3217.59,-116.24"/>
</g>
<!-- Node58 -->
<g id="node35" class="node"><title>Node58</title>
<g id="a_node35"><a xlink:href="transactiondesc_8cpp.html" target="_top" xlink:title="src/qt/transactiondesc.cpp">
<polygon fill="white" stroke="black" points="4417,-56.5 4417,-75.5 4549,-75.5 4549,-56.5 4417,-56.5"/>
<text text-anchor="middle" x="4483" y="-63.5" font-family="Helvetica,sans-Serif" font-size="10.00">src/qt/transactiondesc.cpp</text>
</a>
</g>
</g>
<!-- Node2&#45;&gt;Node58 -->
<g id="edge34" class="edge"><title>Node2&#45;&gt;Node58</title>
<path fill="none" stroke="midnightblue" d="M3217.81,-120.665C3388.31,-119.234 3947.35,-111.921 4408,-76 4410.88,-75.7757 4413.81,-75.5235 4416.78,-75.2498"/>
<polygon fill="midnightblue" stroke="midnightblue" points="3217.59,-117.167 3207.62,-120.748 3217.64,-124.167 3217.59,-117.167"/>
</g>
<!-- Node59 -->
<g id="node36" class="node"><title>Node59</title>
<g id="a_node36"><a xlink:href="transactionrecord_8cpp.html" target="_top" xlink:title="src/qt/transactionrecord.cpp">
<polygon fill="white" stroke="black" points="4567,-56.5 4567,-75.5 4705,-75.5 4705,-56.5 4567,-56.5"/>
<text text-anchor="middle" x="4636" y="-63.5" font-family="Helvetica,sans-Serif" font-size="10.00">src/qt/transactionrecord.cpp</text>
</a>
</g>
</g>
<!-- Node2&#45;&gt;Node59 -->
<g id="edge35" class="edge"><title>Node2&#45;&gt;Node59</title>
<path fill="none" stroke="midnightblue" d="M3217.79,-120.866C3401.05,-120.065 4035.82,-114.5 4558,-76 4560.85,-75.7895 4563.77,-75.553 4566.71,-75.2961"/>
<polygon fill="midnightblue" stroke="midnightblue" points="3217.62,-117.367 3207.63,-120.908 3217.65,-124.367 3217.62,-117.367"/>
</g>
<!-- Node60 -->
<g id="node37" class="node"><title>Node60</title>
<g id="a_node37"><a xlink:href="transactiontablemodel_8cpp.html" target="_top" xlink:title="src/qt/transactiontablemodel.cpp">
<polygon fill="white" stroke="black" points="4723,-56.5 4723,-75.5 4881,-75.5 4881,-56.5 4723,-56.5"/>
<text text-anchor="middle" x="4802" y="-63.5" font-family="Helvetica,sans-Serif" font-size="10.00">src/qt/transactiontablemodel.cpp</text>
</a>
</g>
</g>
<!-- Node2&#45;&gt;Node60 -->
<g id="edge36" class="edge"><title>Node2&#45;&gt;Node60</title>
<path fill="none" stroke="midnightblue" d="M3217.9,-120.862C3413.89,-120.051 4127.52,-114.464 4714,-76 4716.91,-75.809 4719.88,-75.5969 4722.87,-75.3676"/>
<polygon fill="midnightblue" stroke="midnightblue" points="3217.6,-117.363 3207.62,-120.902 3217.63,-124.363 3217.6,-117.363"/>
</g>
<!-- Node32 -->
<g id="node38" class="node"><title>Node32</title>
<g id="a_node38"><a xlink:href="walletmodel_8cpp.html" target="_top" xlink:title="src/qt/walletmodel.cpp">
<polygon fill="white" stroke="black" points="4898.5,-56.5 4898.5,-75.5 5013.5,-75.5 5013.5,-56.5 4898.5,-56.5"/>
<text text-anchor="middle" x="4956" y="-63.5" font-family="Helvetica,sans-Serif" font-size="10.00">src/qt/walletmodel.cpp</text>
</a>
</g>
</g>
<!-- Node2&#45;&gt;Node32 -->
<g id="edge37" class="edge"><title>Node2&#45;&gt;Node32</title>
<path fill="none" stroke="midnightblue" d="M3217.95,-120.397C3468.31,-117.375 4552.12,-102.947 4889,-76 4892.04,-75.7567 4895.16,-75.47 4898.3,-75.1512"/>
<polygon fill="midnightblue" stroke="midnightblue" points="3217.64,-116.9 3207.68,-120.52 3217.72,-123.9 3217.64,-116.9"/>
</g>
<!-- Node61 -->
<g id="node39" class="node"><title>Node61</title>
<g id="a_node39"><a xlink:href="rest_8cpp.html" target="_top" xlink:title="src/rest.cpp">
<polygon fill="white" stroke="black" points="5032,-56.5 5032,-75.5 5100,-75.5 5100,-56.5 5032,-56.5"/>
<text text-anchor="middle" x="5066" y="-63.5" font-family="Helvetica,sans-Serif" font-size="10.00">src/rest.cpp</text>
</a>
</g>
</g>
<!-- Node2&#45;&gt;Node61 -->
<g id="edge38" class="edge"><title>Node2&#45;&gt;Node61</title>
<path fill="none" stroke="midnightblue" d="M3218.14,-120.986C3480.55,-120.728 4658.54,-117.248 5022,-76 5025.25,-75.6307 5028.62,-75.1404 5031.99,-74.5786"/>
<polygon fill="midnightblue" stroke="midnightblue" points="3217.75,-117.487 3207.76,-120.995 3217.76,-124.487 3217.75,-117.487"/>
</g>
<!-- Node62 -->
<g id="node40" class="node"><title>Node62</title>
<g id="a_node40"><a xlink:href="blockchain_8cpp.html" target="_top" xlink:title="src/rpc/blockchain.cpp">
<polygon fill="white" stroke="black" points="5118.5,-56.5 5118.5,-75.5 5233.5,-75.5 5233.5,-56.5 5118.5,-56.5"/>
<text text-anchor="middle" x="5176" y="-63.5" font-family="Helvetica,sans-Serif" font-size="10.00">src/rpc/blockchain.cpp</text>
</a>
</g>
</g>
<!-- Node2&#45;&gt;Node62 -->
<g id="edge39" class="edge"><title>Node2&#45;&gt;Node62</title>
<path fill="none" stroke="midnightblue" d="M3217.92,-120.574C3487.08,-118.249 4726.02,-106.065 5109,-76 5112.04,-75.7612 5115.16,-75.478 5118.3,-75.162"/>
<polygon fill="midnightblue" stroke="midnightblue" points="3217.62,-117.077 3207.65,-120.662 3217.68,-124.076 3217.62,-117.077"/>
</g>
<!-- Node24 -->
<g id="node41" class="node"><title>Node24</title>
<g id="a_node41"><a xlink:href="rpc_2masternode_8cpp.html" target="_top" xlink:title="src/rpc/masternode.cpp">
<polygon fill="white" stroke="black" points="5251.5,-56.5 5251.5,-75.5 5370.5,-75.5 5370.5,-56.5 5251.5,-56.5"/>
<text text-anchor="middle" x="5311" y="-63.5" font-family="Helvetica,sans-Serif" font-size="10.00">src/rpc/masternode.cpp</text>
</a>
</g>
</g>
<!-- Node2&#45;&gt;Node24 -->
<g id="edge41" class="edge"><title>Node2&#45;&gt;Node24</title>
<path fill="none" stroke="midnightblue" d="M3217.82,-120.637C3497.67,-118.561 4830.97,-107.169 5242,-76 5245.01,-75.7716 5248.09,-75.502 5251.2,-75.2014"/>
<polygon fill="midnightblue" stroke="midnightblue" points="3217.53,-117.139 3207.56,-120.712 3217.58,-124.139 3217.53,-117.139"/>
</g>
<!-- Node28 -->
<g id="node42" class="node"><title>Node28</title>
<g id="a_node42"><a xlink:href="mining_8cpp.html" target="_top" xlink:title="src/rpc/mining.cpp">
<polygon fill="white" stroke="black" points="5388.5,-56.5 5388.5,-75.5 5485.5,-75.5 5485.5,-56.5 5388.5,-56.5"/>
<text text-anchor="middle" x="5437" y="-63.5" font-family="Helvetica,sans-Serif" font-size="10.00">src/rpc/mining.cpp</text>
</a>
</g>
</g>
<!-- Node2&#45;&gt;Node28 -->
<g id="edge42" class="edge"><title>Node2&#45;&gt;Node28</title>
<path fill="none" stroke="midnightblue" d="M3217.96,-120.887C3509.02,-120.113 4939.64,-114.382 5379,-76 5382.05,-75.734 5385.17,-75.4067 5388.32,-75.0362"/>
<polygon fill="midnightblue" stroke="midnightblue" points="3217.69,-117.388 3207.7,-120.914 3217.71,-124.388 3217.69,-117.388"/>
</g>
<!-- Node63 -->
<g id="node43" class="node"><title>Node63</title>
<g id="a_node43"><a xlink:href="misc_8cpp.html" target="_top" xlink:title="src/rpc/misc.cpp">
<polygon fill="white" stroke="black" points="5503.5,-56.5 5503.5,-75.5 5592.5,-75.5 5592.5,-56.5 5503.5,-56.5"/>
<text text-anchor="middle" x="5548" y="-63.5" font-family="Helvetica,sans-Serif" font-size="10.00">src/rpc/misc.cpp</text>
</a>
</g>
</g>
<!-- Node2&#45;&gt;Node63 -->
<g id="edge43" class="edge"><title>Node2&#45;&gt;Node63</title>
<path fill="none" stroke="midnightblue" d="M3217.78,-121.027C3517.29,-121.026 5030.56,-118.869 5494,-76 5497.03,-75.7199 5500.14,-75.3691 5503.28,-74.9698"/>
<polygon fill="midnightblue" stroke="midnightblue" points="3217.64,-117.527 3207.64,-121.026 3217.64,-124.527 3217.64,-117.527"/>
</g>
<!-- Node64 -->
<g id="node44" class="node"><title>Node64</title>
<g id="a_node44"><a xlink:href="rpc_2net_8cpp.html" target="_top" xlink:title="src/rpc/net.cpp">
<polygon fill="white" stroke="black" points="5611,-56.5 5611,-75.5 5693,-75.5 5693,-56.5 5611,-56.5"/>
<text text-anchor="middle" x="5652" y="-63.5" font-family="Helvetica,sans-Serif" font-size="10.00">src/rpc/net.cpp</text>
</a>
</g>
</g>
<!-- Node2&#45;&gt;Node64 -->
<g id="edge44" class="edge"><title>Node2&#45;&gt;Node64</title>
<path fill="none" stroke="midnightblue" d="M3218.24,-120.525C3549.93,-117.446 5356.54,-99.6825 5601,-76 5604.22,-75.6879 5607.55,-75.2856 5610.88,-74.8246"/>
<polygon fill="midnightblue" stroke="midnightblue" points="3217.93,-117.028 3207.96,-120.62 3217.99,-124.028 3217.93,-117.028"/>
</g>
<!-- Node2&#45;&gt;Node65 -->
<g id="edge45" class="edge"><title>Node2&#45;&gt;Node65</title>
<path fill="none" stroke="midnightblue" d="M3217.91,-120.921C3556.29,-120.299 5452.39,-115.089 6030,-76 6032.88,-75.8052 6035.82,-75.5774 6038.78,-75.3237"/>
<polygon fill="midnightblue" stroke="midnightblue" points="3217.89,-117.421 3207.9,-120.939 3217.9,-124.421 3217.89,-117.421"/>
</g>
<!-- Node66 -->
<g id="node46" class="node"><title>Node66</title>
<g id="a_node46"><a xlink:href="rpcevo_8cpp.html" target="_top" xlink:title="src/rpc/rpcevo.cpp">
<polygon fill="white" stroke="black" points="5711,-56.5 5711,-75.5 5809,-75.5 5809,-56.5 5711,-56.5"/>
<text text-anchor="middle" x="5760" y="-63.5" font-family="Helvetica,sans-Serif" font-size="10.00">src/rpc/rpcevo.cpp</text>
</a>
</g>
</g>
<!-- Node2&#45;&gt;Node66 -->
<g id="edge46" class="edge"><title>Node2&#45;&gt;Node66</title>
<path fill="none" stroke="midnightblue" d="M3217.8,-121.043C3532.82,-121.162 5194.46,-119.677 5702,-76 5704.84,-75.7554 5707.76,-75.4566 5710.69,-75.1184"/>
<polygon fill="midnightblue" stroke="midnightblue" points="3217.6,-117.543 3207.6,-121.039 3217.59,-124.543 3217.6,-117.543"/>
</g>
<!-- Node67 -->
<g id="node47" class="node"><title>Node67</title>
<g id="a_node47"><a xlink:href="spork_8cpp.html" target="_top" xlink:title="src/spork.cpp">
<polygon fill="white" stroke="black" points="5827,-56.5 5827,-75.5 5903,-75.5 5903,-56.5 5827,-56.5"/>
<text text-anchor="middle" x="5865" y="-63.5" font-family="Helvetica,sans-Serif" font-size="10.00">src/spork.cpp</text>
</a>
</g>
</g>
<!-- Node2&#45;&gt;Node67 -->
<g id="edge47" class="edge"><title>Node2&#45;&gt;Node67</title>
<path fill="none" stroke="midnightblue" d="M3217.58,-120.648C3564.29,-118.209 5549.65,-103.138 5817,-76 5820.21,-75.6746 5823.52,-75.2476 5826.83,-74.7561"/>
<polygon fill="midnightblue" stroke="midnightblue" points="3217.54,-117.148 3207.57,-120.718 3217.59,-124.147 3217.54,-117.148"/>
</g>
<!-- Node68 -->
<g id="node48" class="node"><title>Node68</title>
<g id="a_node48"><a xlink:href="txmempool_8cpp.html" target="_top" xlink:title="src/txmempool.cpp">
<polygon fill="white" stroke="black" points="5921,-56.5 5921,-75.5 6021,-75.5 6021,-56.5 5921,-56.5"/>
<text text-anchor="middle" x="5971" y="-63.5" font-family="Helvetica,sans-Serif" font-size="10.00">src/txmempool.cpp</text>
</a>
</g>
</g>
<!-- Node2&#45;&gt;Node68 -->
<g id="edge48" class="edge"><title>Node2&#45;&gt;Node68</title>
<path fill="none" stroke="midnightblue" d="M3218,-120.571C3573.03,-117.587 5634.26,-99.3516 5912,-76 5914.89,-75.7569 5917.86,-75.4594 5920.84,-75.1221"/>
<polygon fill="midnightblue" stroke="midnightblue" points="3217.73,-117.073 3207.76,-120.657 3217.78,-124.073 3217.73,-117.073"/>
</g>
<!-- Node3&#45;&gt;Node23 -->
<g id="edge3" class="edge"><title>Node3&#45;&gt;Node23</title>
<path fill="none" stroke="midnightblue" d="M57.9458,-47.5656C64.3117,-38.2747 71.8668,-27.2484 77.0039,-19.7511"/>
<polygon fill="midnightblue" stroke="midnightblue" points="54.8749,-45.8553 52.1098,-56.083 60.6494,-49.812 54.8749,-45.8553"/>
</g>
</g>
</svg>
        <g id="navigator" transform="translate(0 0)" fill="#404254">
                <rect fill="#f2f5e9" fill-opacity="0.5" stroke="#606060" stroke-width=".5" x="0" y="0" width="60" height="60"/>
                <use id="zoomplus" xlink:href="#zoomPlus" x="17" y="9" onmousedown="handleZoom(evt,'in')"/>
                <use id="zoomminus" xlink:href="#zoomMin" x="42" y="9" onmousedown="handleZoom(evt,'out')"/>
                <use id="reset" xlink:href="#resetDef" x="30" y="36" onmousedown="handleReset()"/>
                <g id="arrowUp" xlink:href="#dirArrow" transform="translate(30 24)" onmousedown="handlePan(0,-1)">
                  <use xlink:href="#rim" fill="#404040">
                        <set attributeName="fill" to="#808080" begin="arrowUp.mouseover" end="arrowUp.mouseout"/>
                  </use>
                  <path fill="none" stroke="white" stroke-width="1.5" d="M0,-3.0v7 M-2.5,-0.5L0,-3.0L2.5,-0.5"/>
                </g>
                <g id="arrowRight" xlink:href="#dirArrow" transform="rotate(90) translate(36 -43)" onmousedown="handlePan(1,0)">
                  <use xlink:href="#rim" fill="#404040">
                        <set attributeName="fill" to="#808080" begin="arrowRight.mouseover" end="arrowRight.mouseout"/>
                  </use>
                  <path fill="none" stroke="white" stroke-width="1.5" d="M0,-3.0v7 M-2.5,-0.5L0,-3.0L2.5,-0.5"/>
                </g>
                <g id="arrowDown" xlink:href="#dirArrow" transform="rotate(180) translate(-30 -48)" onmousedown="handlePan(0,1)">
                  <use xlink:href="#rim" fill="#404040">
                        <set attributeName="fill" to="#808080" begin="arrowDown.mouseover" end="arrowDown.mouseout"/>
                  </use>
                  <path fill="none" stroke="white" stroke-width="1.5" d="M0,-3.0v7 M-2.5,-0.5L0,-3.0L2.5,-0.5"/>
                </g>
                <g id="arrowLeft" xlink:href="#dirArrow" transform="rotate(270) translate(-36 17)" onmousedown="handlePan(-1,0)">
                  <use xlink:href="#rim" fill="#404040">
                        <set attributeName="fill" to="#808080" begin="arrowLeft.mouseover" end="arrowLeft.mouseout"/>
                  </use>
                  <path fill="none" stroke="white" stroke-width="1.5" d="M0,-3.0v7 M-2.5,-0.5L0,-3.0L2.5,-0.5"/>
                </g>
        </g>
        <svg viewBox="0 0 15 15" width="100%" height="30px" preserveAspectRatio="xMaxYMin meet">
         <g id="arrow_out" transform="scale(0.3 0.3)">
          <a xlink:href="script__error_8h__dep__incl_org.svg" target="_base">
           <rect id="button" ry="5" rx="5" y="6" x="6" height="38" width="38"
                fill="#f2f5e9" fill-opacity="0.5" stroke="#606060" stroke-width="1.0"/>
           <path id="arrow"
             d="M 11.500037,31.436501 C 11.940474,20.09759 22.043105,11.32322 32.158766,21.979434 L 37.068811,17.246167 C 37.068811,17.246167 37.088388,32 37.088388,32 L 22.160133,31.978069 C 22.160133,31.978069 26.997745,27.140456 26.997745,27.140456 C 18.528582,18.264221 13.291696,25.230495 11.500037,31.436501 z"
             style="fill:#404040;"/>
          </a>
         </g>
        </svg>
</svg>
