<?xml version="1.0" encoding="UTF-8" standalone="no"?>
<!DOCTYPE svg PUBLIC "-//W3C//DTD SVG 1.1//EN"
 "http://www.w3.org/Graphics/SVG/1.1/DTD/svg11.dtd">
<!-- Generated by graphviz version 2.36.0 (20140111.2315)
 -->
<!-- Title: src/secp256k1/src/bench.h Pages: 1 -->
<svg width="854pt" height="96pt"
 viewBox="0.00 0.00 854.00 96.00" xmlns="http://www.w3.org/2000/svg" xmlns:xlink="http://www.w3.org/1999/xlink">
<g id="graph0" class="graph" transform="scale(1 1) rotate(0) translate(4 92)">
<title>src/secp256k1/src/bench.h</title>
<polygon fill="white" stroke="none" points="-4,4 -4,-92 850,-92 850,4 -4,4"/>
<!-- Node4 -->
<g id="node1" class="node"><title>Node4</title>
<polygon fill="#bfbfbf" stroke="black" points="356,-68.5 356,-87.5 490,-87.5 490,-68.5 356,-68.5"/>
<text text-anchor="middle" x="423" y="-75.5" font-family="Helvetica,sans-Serif" font-size="10.00">src/secp256k1/src/bench.h</text>
</g>
<!-- Node5 -->
<g id="node2" class="node"><title>Node5</title>
<g id="a_node2"><a xlink:href="bench__ecdh_8c.html" target="_top" xlink:title="src/secp256k1/src/bench\l_ecdh.c">
<polygon fill="white" stroke="black" points="0,-1 0,-31 126,-31 126,-1 0,-1"/>
<text text-anchor="start" x="8" y="-19" font-family="Helvetica,sans-Serif" font-size="10.00">src/secp256k1/src/bench</text>
<text text-anchor="middle" x="63" y="-8" font-family="Helvetica,sans-Serif" font-size="10.00">_ecdh.c</text>
</a>
</g>
</g>
<!-- Node4&#45;&gt;Node5 -->
<g id="edge1" class="edge"><title>Node4&#45;&gt;Node5</title>
<path fill="none" stroke="midnightblue" d="M352.503,-66.9977C294.093,-58.4675 208.973,-45.4759 135,-32 132.111,-31.4737 129.16,-30.9208 126.181,-30.3505"/>
<polygon fill="midnightblue" stroke="midnightblue" points="352.327,-70.5089 362.727,-68.4851 353.335,-63.5818 352.327,-70.5089"/>
</g>
<!-- Node6 -->
<g id="node3" class="node"><title>Node6</title>
<g id="a_node3"><a xlink:href="bench__internal_8c.html" target="_top" xlink:title="src/secp256k1/src/bench\l_internal.c">
<polygon fill="white" stroke="black" points="144,-1 144,-31 270,-31 270,-1 144,-1"/>
<text text-anchor="start" x="152" y="-19" font-family="Helvetica,sans-Serif" font-size="10.00">src/secp256k1/src/bench</text>
<text text-anchor="middle" x="207" y="-8" font-family="Helvetica,sans-Serif" font-size="10.00">_internal.c</text>
</a>
</g>
</g>
<!-- Node4&#45;&gt;Node6 -->
<g id="edge2" class="edge"><title>Node4&#45;&gt;Node6</title>
<path fill="none" stroke="midnightblue" d="M382.068,-65.6299C346.687,-55.802 295.412,-41.5589 257.491,-31.0253"/>
<polygon fill="midnightblue" stroke="midnightblue" points="381.481,-69.0993 392.052,-68.4035 383.354,-62.3546 381.481,-69.0993"/>
</g>
<!-- Node7 -->
<g id="node4" class="node"><title>Node7</title>
<g id="a_node4"><a xlink:href="bench__recover_8c.html" target="_top" xlink:title="src/secp256k1/src/bench\l_recover.c">
<polygon fill="white" stroke="black" points="288,-1 288,-31 414,-31 414,-1 288,-1"/>
<text text-anchor="start" x="296" y="-19" font-family="Helvetica,sans-Serif" font-size="10.00">src/secp256k1/src/bench</text>
<text text-anchor="middle" x="351" y="-8" font-family="Helvetica,sans-Serif" font-size="10.00">_recover.c</text>
</a>
</g>
</g>
<!-- Node4&#45;&gt;Node7 -->
<g id="edge3" class="edge"><title>Node4&#45;&gt;Node7</title>
<path fill="none" stroke="midnightblue" d="M404.754,-61.7947C393.449,-52.3738 379.027,-40.3562 367.969,-31.1408"/>
<polygon fill="midnightblue" stroke="midnightblue" points="402.761,-64.6904 412.684,-68.4035 407.243,-59.3128 402.761,-64.6904"/>
</g>
<!-- Node8 -->
<g id="node5" class="node"><title>Node8</title>
<g id="a_node5"><a xlink:href="bench__schnorr__verify_8c.html" target="_top" xlink:title="src/secp256k1/src/bench\l_schnorr_verify.c">
<polygon fill="white" stroke="black" points="432,-1 432,-31 558,-31 558,-1 432,-1"/>
<text text-anchor="start" x="440" y="-19" font-family="Helvetica,sans-Serif" font-size="10.00">src/secp256k1/src/bench</text>
<text text-anchor="middle" x="495" y="-8" font-family="Helvetica,sans-Serif" font-size="10.00">_schnorr_verify.c</text>
</a>
</g>
</g>
<!-- Node4&#45;&gt;Node8 -->
<g id="edge4" class="edge"><title>Node4&#45;&gt;Node8</title>
<path fill="none" stroke="midnightblue" d="M441.246,-61.7947C452.551,-52.3738 466.973,-40.3562 478.031,-31.1408"/>
<polygon fill="midnightblue" stroke="midnightblue" points="438.757,-59.3128 433.316,-68.4035 443.239,-64.6904 438.757,-59.3128"/>
</g>
<!-- Node9 -->
<g id="node6" class="node"><title>Node9</title>
<g id="a_node6"><a xlink:href="bench__sign_8c.html" target="_top" xlink:title="src/secp256k1/src/bench\l_sign.c">
<polygon fill="white" stroke="black" points="576,-1 576,-31 702,-31 702,-1 576,-1"/>
<text text-anchor="start" x="584" y="-19" font-family="Helvetica,sans-Serif" font-size="10.00">src/secp256k1/src/bench</text>
<text text-anchor="middle" x="639" y="-8" font-family="Helvetica,sans-Serif" font-size="10.00">_sign.c</text>
</a>
</g>
</g>
<!-- Node4&#45;&gt;Node9 -->
<g id="edge5" class="edge"><title>Node4&#45;&gt;Node9</title>
<path fill="none" stroke="midnightblue" d="M463.932,-65.6299C499.313,-55.802 550.588,-41.5589 588.509,-31.0253"/>
<polygon fill="midnightblue" stroke="midnightblue" points="462.646,-62.3546 453.948,-68.4035 464.519,-69.0993 462.646,-62.3546"/>
</g>
<!-- Node10 -->
<g id="node7" class="node"><title>Node10</title>
<g id="a_node7"><a xlink:href="bench__verify_8c.html" target="_top" xlink:title="src/secp256k1/src/bench\l_verify.c">
<polygon fill="white" stroke="black" points="720,-1 720,-31 846,-31 846,-1 720,-1"/>
<text text-anchor="start" x="728" y="-19" font-family="Helvetica,sans-Serif" font-size="10.00">src/secp256k1/src/bench</text>
<text text-anchor="middle" x="783" y="-8" font-family="Helvetica,sans-Serif" font-size="10.00">_verify.c</text>
</a>
</g>
</g>
<!-- Node4&#45;&gt;Node10 -->
<g id="edge6" class="edge"><title>Node4&#45;&gt;Node10</title>
<path fill="none" stroke="midnightblue" d="M493.497,-66.9977C551.907,-58.4675 637.027,-45.4759 711,-32 713.889,-31.4737 716.84,-30.9208 719.819,-30.3505"/>
<polygon fill="midnightblue" stroke="midnightblue" points="492.665,-63.5818 483.273,-68.4851 493.673,-70.5089 492.665,-63.5818"/>
</g>
</g>
</svg>
