<?xml version="1.0" encoding="UTF-8" standalone="no"?>
<!DOCTYPE svg PUBLIC "-//W3C//DTD SVG 1.1//EN"
 "http://www.w3.org/Graphics/SVG/1.1/DTD/svg11.dtd">
<!-- Generated by graphviz version 2.36.0 (20140111.2315)
 -->
<!-- Title: src/secp256k1/include/secp256k1_recovery.h Pages: 1 -->
<!--zoomable 108 -->
<svg id="main" version="1.1" xmlns="http://www.w3.org/2000/svg" xmlns:xlink="http://www.w3.org/1999/xlink" xml:space="preserve" onload="init(evt)">
<style type="text/css"><![CDATA[
.edge:hover path { stroke: red; }
.edge:hover polygon { stroke: red; fill: red; }
]]></style>
<script type="text/javascript"><![CDATA[
var edges = document.getElementsByTagName('g');
if (edges && edges.length) {
  for (var i=0;i<edges.length;i++) {
    if (edges[i].id.substr(0,4)=='edge') {
      edges[i].setAttribute('class','edge');
    }
  }
}
]]></script>
        <defs>
                <circle id="rim" cx="0" cy="0" r="7"/>
                <circle id="rim2" cx="0" cy="0" r="3.5"/>
                <g id="zoomPlus">
                        <use xlink:href="#rim" fill="#404040">
                                <set attributeName="fill" to="#808080" begin="zoomplus.mouseover" end="zoomplus.mouseout"/>
                        </use>
                        <path d="M-4,0h8M0,-4v8" fill="none" stroke="white" stroke-width="1.5" pointer-events="none"/>
                </g>
                <g id="zoomMin">
                        <use xlink:href="#rim" fill="#404040">
                                <set attributeName="fill" to="#808080" begin="zoomminus.mouseover" end="zoomminus.mouseout"/>
                        </use>
                        <path d="M-4,0h8" fill="none" stroke="white" stroke-width="1.5" pointer-events="none"/>
                </g>
                <g id="dirArrow">
                        <path fill="none" stroke="white" stroke-width="1.5" d="M0,-3.0v7 M-2.5,-0.5L0,-3.0L2.5,-0.5"/>
                </g>
               <g id="resetDef">
                       <use xlink:href="#rim2" fill="#404040">
                               <set attributeName="fill" to="#808080" begin="reset.mouseover" end="reset.mouseout"/>
                       </use>
               </g>
        </defs>

<script type="text/javascript">
var viewWidth = 653;
var viewHeight = 108;
var sectionId = 'dynsection-1';
</script>
<script xlink:href="svgpan.js"/>
<svg id="graph" class="graph">
<g id="viewport">
<title>src/secp256k1/include/secp256k1_recovery.h</title>
<polygon fill="white" stroke="none" points="-4,4 -4,-104 649,-104 649,4 -4,4"/>
<!-- Node3 -->
<g id="node1" class="node"><title>Node3</title>
<polygon fill="#bfbfbf" stroke="black" points="192,-69 192,-99 310,-99 310,-69 192,-69"/>
<text text-anchor="start" x="200" y="-87" font-family="Helvetica,sans-Serif" font-size="10.00">src/secp256k1/include</text>
<text text-anchor="middle" x="251" y="-76" font-family="Helvetica,sans-Serif" font-size="10.00">/secp256k1_recovery.h</text>
</g>
<!-- Node4 -->
<g id="node2" class="node"><title>Node4</title>
<g id="a_node2"><a xlink:href="key_8cpp.html" target="_top" xlink:title="src/key.cpp">
<polygon fill="white" stroke="black" points="0,-6.5 0,-25.5 68,-25.5 68,-6.5 0,-6.5"/>
<text text-anchor="middle" x="34" y="-13.5" font-family="Helvetica,sans-Serif" font-size="10.00">src/key.cpp</text>
</a>
</g>
</g>
<!-- Node3&#45;&gt;Node4 -->
<g id="edge1" class="edge"><title>Node3&#45;&gt;Node4</title>
<path fill="none" stroke="midnightblue" d="M190.86,-66.1828C157.24,-56.5787 114.649,-44.0758 77,-32 70.8265,-30.0199 64.1961,-27.7693 58.0349,-25.6246"/>
<polygon fill="midnightblue" stroke="midnightblue" points="189.964,-69.5668 200.541,-68.939 191.881,-62.8344 189.964,-69.5668"/>
</g>
<!-- Node5 -->
<g id="node3" class="node"><title>Node5</title>
<g id="a_node3"><a xlink:href="pubkey_8cpp.html" target="_top" xlink:title="src/pubkey.cpp">
<polygon fill="white" stroke="black" points="86.5,-6.5 86.5,-25.5 169.5,-25.5 169.5,-6.5 86.5,-6.5"/>
<text text-anchor="middle" x="128" y="-13.5" font-family="Helvetica,sans-Serif" font-size="10.00">src/pubkey.cpp</text>
</a>
</g>
</g>
<!-- Node3&#45;&gt;Node5 -->
<g id="edge2" class="edge"><title>Node3&#45;&gt;Node5</title>
<path fill="none" stroke="midnightblue" d="M215.611,-64.0109C192.068,-51.378 162.255,-35.3809 144.18,-25.6819"/>
<polygon fill="midnightblue" stroke="midnightblue" points="214.147,-67.1972 224.613,-68.8413 217.457,-61.0291 214.147,-67.1972"/>
</g>
<!-- Node6 -->
<g id="node4" class="node"><title>Node6</title>
<g id="a_node4"><a xlink:href="bench__recover_8c.html" target="_top" xlink:title="src/secp256k1/src/bench\l_recover.c">
<polygon fill="white" stroke="black" points="188,-1 188,-31 314,-31 314,-1 188,-1"/>
<text text-anchor="start" x="196" y="-19" font-family="Helvetica,sans-Serif" font-size="10.00">src/secp256k1/src/bench</text>
<text text-anchor="middle" x="251" y="-8" font-family="Helvetica,sans-Serif" font-size="10.00">_recover.c</text>
</a>
</g>
</g>
<!-- Node3&#45;&gt;Node6 -->
<g id="edge3" class="edge"><title>Node3&#45;&gt;Node6</title>
<path fill="none" stroke="midnightblue" d="M251,-58.5322C251,-49.3606 251,-39.2449 251,-31.2931"/>
<polygon fill="midnightblue" stroke="midnightblue" points="247.5,-58.6789 251,-68.679 254.5,-58.679 247.5,-58.6789"/>
</g>
<!-- Node7 -->
<g id="node5" class="node"><title>Node7</title>
<g id="a_node5"><a xlink:href="org__bitcoin___native_secp256k1_8c.html" target="_top" xlink:title="src/secp256k1/src/java\l/org_bitcoin_NativeSecp256k1.c">
<polygon fill="white" stroke="black" points="332,-1 332,-31 490,-31 490,-1 332,-1"/>
<text text-anchor="start" x="340" y="-19" font-family="Helvetica,sans-Serif" font-size="10.00">src/secp256k1/src/java</text>
<text text-anchor="middle" x="411" y="-8" font-family="Helvetica,sans-Serif" font-size="10.00">/org_bitcoin_NativeSecp256k1.c</text>
</a>
</g>
</g>
<!-- Node3&#45;&gt;Node7 -->
<g id="edge4" class="edge"><title>Node3&#45;&gt;Node7</title>
<path fill="none" stroke="midnightblue" d="M294.903,-64.8898C320.793,-54.2103 353.065,-40.8982 377.008,-31.0218"/>
<polygon fill="midnightblue" stroke="midnightblue" points="293.234,-61.7924 285.324,-68.8413 295.903,-68.2635 293.234,-61.7924"/>
</g>
<!-- Node8 -->
<g id="node6" class="node"><title>Node8</title>
<g id="a_node6"><a xlink:href="recovery_2main__impl_8h.html" target="_top" xlink:title="src/secp256k1/src/modules\l/recovery/main_impl.h">
<polygon fill="white" stroke="black" points="508.5,-1 508.5,-31 645.5,-31 645.5,-1 508.5,-1"/>
<text text-anchor="start" x="516.5" y="-19" font-family="Helvetica,sans-Serif" font-size="10.00">src/secp256k1/src/modules</text>
<text text-anchor="middle" x="577" y="-8" font-family="Helvetica,sans-Serif" font-size="10.00">/recovery/main_impl.h</text>
</a>
</g>
</g>
<!-- Node3&#45;&gt;Node8 -->
<g id="edge5" class="edge"><title>Node3&#45;&gt;Node8</title>
<path fill="none" stroke="midnightblue" d="M320.118,-69.0069C375.534,-57.7877 452.915,-42.1214 508.237,-30.9213"/>
<polygon fill="midnightblue" stroke="midnightblue" points="319.143,-65.6331 310.036,-71.0479 320.532,-72.4939 319.143,-65.6331"/>
</g>
</g>
</svg>
        <g id="navigator" transform="translate(0 0)" fill="#404254">
                <rect fill="#f2f5e9" fill-opacity="0.5" stroke="#606060" stroke-width=".5" x="0" y="0" width="60" height="60"/>
                <use id="zoomplus" xlink:href="#zoomPlus" x="17" y="9" onmousedown="handleZoom(evt,'in')"/>
                <use id="zoomminus" xlink:href="#zoomMin" x="42" y="9" onmousedown="handleZoom(evt,'out')"/>
                <use id="reset" xlink:href="#resetDef" x="30" y="36" onmousedown="handleReset()"/>
                <g id="arrowUp" xlink:href="#dirArrow" transform="translate(30 24)" onmousedown="handlePan(0,-1)">
                  <use xlink:href="#rim" fill="#404040">
                        <set attributeName="fill" to="#808080" begin="arrowUp.mouseover" end="arrowUp.mouseout"/>
                  </use>
                  <path fill="none" stroke="white" stroke-width="1.5" d="M0,-3.0v7 M-2.5,-0.5L0,-3.0L2.5,-0.5"/>
                </g>
                <g id="arrowRight" xlink:href="#dirArrow" transform="rotate(90) translate(36 -43)" onmousedown="handlePan(1,0)">
                  <use xlink:href="#rim" fill="#404040">
                        <set attributeName="fill" to="#808080" begin="arrowRight.mouseover" end="arrowRight.mouseout"/>
                  </use>
                  <path fill="none" stroke="white" stroke-width="1.5" d="M0,-3.0v7 M-2.5,-0.5L0,-3.0L2.5,-0.5"/>
                </g>
                <g id="arrowDown" xlink:href="#dirArrow" transform="rotate(180) translate(-30 -48)" onmousedown="handlePan(0,1)">
                  <use xlink:href="#rim" fill="#404040">
                        <set attributeName="fill" to="#808080" begin="arrowDown.mouseover" end="arrowDown.mouseout"/>
                  </use>
                  <path fill="none" stroke="white" stroke-width="1.5" d="M0,-3.0v7 M-2.5,-0.5L0,-3.0L2.5,-0.5"/>
                </g>
                <g id="arrowLeft" xlink:href="#dirArrow" transform="rotate(270) translate(-36 17)" onmousedown="handlePan(-1,0)">
                  <use xlink:href="#rim" fill="#404040">
                        <set attributeName="fill" to="#808080" begin="arrowLeft.mouseover" end="arrowLeft.mouseout"/>
                  </use>
                  <path fill="none" stroke="white" stroke-width="1.5" d="M0,-3.0v7 M-2.5,-0.5L0,-3.0L2.5,-0.5"/>
                </g>
        </g>
        <svg viewBox="0 0 15 15" width="100%" height="30px" preserveAspectRatio="xMaxYMin meet">
         <g id="arrow_out" transform="scale(0.3 0.3)">
          <a xlink:href="secp256k1__recovery_8h__dep__incl_org.svg" target="_base">
           <rect id="button" ry="5" rx="5" y="6" x="6" height="38" width="38"
                fill="#f2f5e9" fill-opacity="0.5" stroke="#606060" stroke-width="1.0"/>
           <path id="arrow"
             d="M 11.500037,31.436501 C 11.940474,20.09759 22.043105,11.32322 32.158766,21.979434 L 37.068811,17.246167 C 37.068811,17.246167 37.088388,32 37.088388,32 L 22.160133,31.978069 C 22.160133,31.978069 26.997745,27.140456 26.997745,27.140456 C 18.528582,18.264221 13.291696,25.230495 11.500037,31.436501 z"
             style="fill:#404040;"/>
          </a>
         </g>
        </svg>
</svg>
