<?xml version="1.0" encoding="UTF-8" standalone="no"?>
<!DOCTYPE svg PUBLIC "-//W3C//DTD SVG 1.1//EN"
 "http://www.w3.org/Graphics/SVG/1.1/DTD/svg11.dtd">
<!-- Generated by graphviz version 2.36.0 (20140111.2315)
 -->
<!-- Title: src/crypto/sha256.cpp Pages: 1 -->
<svg width="288pt" height="252pt"
 viewBox="0.00 0.00 288.00 252.00" xmlns="http://www.w3.org/2000/svg" xmlns:xlink="http://www.w3.org/1999/xlink">
<g id="graph0" class="graph" transform="scale(1 1) rotate(0) translate(4 248)">
<title>src/crypto/sha256.cpp</title>
<polygon fill="white" stroke="none" points="-4,4 -4,-248 284,-248 284,4 -4,4"/>
<!-- Node0 -->
<g id="node1" class="node"><title>Node0</title>
<polygon fill="#bfbfbf" stroke="black" points="111.5,-224.5 111.5,-243.5 224.5,-243.5 224.5,-224.5 111.5,-224.5"/>
<text text-anchor="middle" x="168" y="-231.5" font-family="Helvetica,sans-Serif" font-size="10.00">src/crypto/sha256.cpp</text>
</g>
<!-- Node1 -->
<g id="node2" class="node"><title>Node1</title>
<g id="a_node2"><a xlink:href="sha256_8h.html" target="_top" xlink:title="crypto/sha256.h">
<polygon fill="white" stroke="black" points="0,-168.5 0,-187.5 86,-187.5 86,-168.5 0,-168.5"/>
<text text-anchor="middle" x="43" y="-175.5" font-family="Helvetica,sans-Serif" font-size="10.00">crypto/sha256.h</text>
</a>
</g>
</g>
<!-- Node0&#45;&gt;Node1 -->
<g id="edge1" class="edge"><title>Node0&#45;&gt;Node1</title>
<path fill="none" stroke="midnightblue" d="M148.193,-224.444C127.713,-215.596 95.5173,-201.687 72.1353,-191.586"/>
<polygon fill="midnightblue" stroke="midnightblue" points="73.282,-188.269 62.714,-187.516 70.5059,-194.695 73.282,-188.269"/>
</g>
<!-- Node4 -->
<g id="node5" class="node"><title>Node4</title>
<g id="a_node5"><a xlink:href="common_8h.html" target="_top" xlink:title="crypto/common.h">
<polygon fill="white" stroke="black" points="122,-168.5 122,-187.5 214,-187.5 214,-168.5 122,-168.5"/>
<text text-anchor="middle" x="168" y="-175.5" font-family="Helvetica,sans-Serif" font-size="10.00">crypto/common.h</text>
</a>
</g>
</g>
<!-- Node0&#45;&gt;Node4 -->
<g id="edge4" class="edge"><title>Node0&#45;&gt;Node4</title>
<path fill="none" stroke="midnightblue" d="M168,-224.083C168,-217.006 168,-206.861 168,-197.986"/>
<polygon fill="midnightblue" stroke="midnightblue" points="171.5,-197.751 168,-187.751 164.5,-197.751 171.5,-197.751"/>
</g>
<!-- Node5 -->
<g id="node6" class="node"><title>Node5</title>
<polygon fill="white" stroke="#bfbfbf" points="230.5,-112.5 230.5,-131.5 279.5,-131.5 279.5,-112.5 230.5,-112.5"/>
<text text-anchor="middle" x="255" y="-119.5" font-family="Helvetica,sans-Serif" font-size="10.00">string.h</text>
</g>
<!-- Node0&#45;&gt;Node5 -->
<g id="edge11" class="edge"><title>Node0&#45;&gt;Node5</title>
<path fill="none" stroke="midnightblue" d="M181.608,-224.347C193.68,-216.14 211.183,-202.877 223,-188 234.235,-173.856 242.935,-155.126 248.409,-141.406"/>
<polygon fill="midnightblue" stroke="midnightblue" points="251.831,-142.252 252.094,-131.66 245.283,-139.776 251.831,-142.252"/>
</g>
<!-- Node2 -->
<g id="node3" class="node"><title>Node2</title>
<polygon fill="white" stroke="#bfbfbf" points="89.5,-0.5 89.5,-19.5 138.5,-19.5 138.5,-0.5 89.5,-0.5"/>
<text text-anchor="middle" x="114" y="-7.5" font-family="Helvetica,sans-Serif" font-size="10.00">stdint.h</text>
</g>
<!-- Node1&#45;&gt;Node2 -->
<g id="edge2" class="edge"><title>Node1&#45;&gt;Node2</title>
<path fill="none" stroke="midnightblue" d="M33.233,-168.353C20.6082,-156.069 1.22715,-132.749 10,-112 26.3242,-73.3913 65.4258,-42.2704 90.7589,-25.2355"/>
<polygon fill="midnightblue" stroke="midnightblue" points="92.9305,-27.9981 99.4015,-19.609 89.1114,-22.1317 92.9305,-27.9981"/>
</g>
<!-- Node3 -->
<g id="node4" class="node"><title>Node3</title>
<polygon fill="white" stroke="#bfbfbf" points="19,-112.5 19,-131.5 67,-131.5 67,-112.5 19,-112.5"/>
<text text-anchor="middle" x="43" y="-119.5" font-family="Helvetica,sans-Serif" font-size="10.00">stdlib.h</text>
</g>
<!-- Node1&#45;&gt;Node3 -->
<g id="edge3" class="edge"><title>Node1&#45;&gt;Node3</title>
<path fill="none" stroke="midnightblue" d="M43,-168.083C43,-161.006 43,-150.861 43,-141.986"/>
<polygon fill="midnightblue" stroke="midnightblue" points="46.5001,-141.751 43,-131.751 39.5001,-141.751 46.5001,-141.751"/>
</g>
<!-- Node4&#45;&gt;Node2 -->
<g id="edge5" class="edge"><title>Node4&#45;&gt;Node2</title>
<path fill="none" stroke="midnightblue" d="M151.367,-168.464C138.512,-160.841 121.661,-148.356 114,-132 98.3918,-98.6759 104.144,-54.3024 109.332,-29.6039"/>
<polygon fill="midnightblue" stroke="midnightblue" points="112.768,-30.2807 111.597,-19.7507 105.946,-28.7122 112.768,-30.2807"/>
</g>
<!-- Node4&#45;&gt;Node5 -->
<g id="edge6" class="edge"><title>Node4&#45;&gt;Node5</title>
<path fill="none" stroke="midnightblue" d="M181.978,-168.324C195.55,-159.9 216.38,-146.971 232.325,-137.074"/>
<polygon fill="midnightblue" stroke="midnightblue" points="234.406,-139.902 241.057,-131.655 230.714,-133.954 234.406,-139.902"/>
</g>
<!-- Node6 -->
<g id="node7" class="node"><title>Node6</title>
<g id="a_node7"><a xlink:href="endian_8h.html" target="_top" xlink:title="compat/endian.h">
<polygon fill="white" stroke="black" points="123.5,-112.5 123.5,-131.5 212.5,-131.5 212.5,-112.5 123.5,-112.5"/>
<text text-anchor="middle" x="168" y="-119.5" font-family="Helvetica,sans-Serif" font-size="10.00">compat/endian.h</text>
</a>
</g>
</g>
<!-- Node4&#45;&gt;Node6 -->
<g id="edge7" class="edge"><title>Node4&#45;&gt;Node6</title>
<path fill="none" stroke="midnightblue" d="M168,-168.083C168,-161.006 168,-150.861 168,-141.986"/>
<polygon fill="midnightblue" stroke="midnightblue" points="171.5,-141.751 168,-131.751 164.5,-141.751 171.5,-141.751"/>
</g>
<!-- Node6&#45;&gt;Node2 -->
<g id="edge8" class="edge"><title>Node6&#45;&gt;Node2</title>
<path fill="none" stroke="midnightblue" d="M163.763,-112.368C154.93,-94.376 134.397,-52.5503 122.653,-28.6267"/>
<polygon fill="midnightblue" stroke="midnightblue" points="125.766,-27.0257 118.218,-19.5914 119.483,-30.1105 125.766,-27.0257"/>
</g>
<!-- Node7 -->
<g id="node8" class="node"><title>Node7</title>
<g id="a_node8"><a xlink:href="byteswap_8h.html" target="_top" xlink:title="compat/byteswap.h">
<polygon fill="white" stroke="black" points="161,-56.5 161,-75.5 263,-75.5 263,-56.5 161,-56.5"/>
<text text-anchor="middle" x="212" y="-63.5" font-family="Helvetica,sans-Serif" font-size="10.00">compat/byteswap.h</text>
</a>
</g>
</g>
<!-- Node6&#45;&gt;Node7 -->
<g id="edge9" class="edge"><title>Node6&#45;&gt;Node7</title>
<path fill="none" stroke="midnightblue" d="M175.266,-112.083C181.545,-104.377 190.788,-93.0333 198.431,-83.6531"/>
<polygon fill="midnightblue" stroke="midnightblue" points="201.266,-85.7143 204.869,-75.7511 195.839,-81.2926 201.266,-85.7143"/>
</g>
<!-- Node7&#45;&gt;Node2 -->
<g id="edge10" class="edge"><title>Node7&#45;&gt;Node2</title>
<path fill="none" stroke="midnightblue" d="M196.255,-56.324C180.681,-47.7428 156.623,-34.486 138.541,-24.5224"/>
<polygon fill="midnightblue" stroke="midnightblue" points="140.154,-21.4152 129.706,-19.6545 136.776,-27.546 140.154,-21.4152"/>
</g>
</g>
</svg>
