<?xml version="1.0" encoding="UTF-8" standalone="no"?>
<!DOCTYPE svg PUBLIC "-//W3C//DTD SVG 1.1//EN"
 "http://www.w3.org/Graphics/SVG/1.1/DTD/svg11.dtd">
<!-- Generated by graphviz version 2.36.0 (20140111.2315)
 -->
<!-- Title: src/crypto/sha512.h Pages: 1 -->
<svg width="654pt" height="140pt"
 viewBox="0.00 0.00 654.00 140.00" xmlns="http://www.w3.org/2000/svg" xmlns:xlink="http://www.w3.org/1999/xlink">
<g id="graph0" class="graph" transform="scale(1 1) rotate(0) translate(4 136)">
<title>src/crypto/sha512.h</title>
<polygon fill="white" stroke="none" points="-4,4 -4,-136 650,-136 650,4 -4,4"/>
<!-- Node3 -->
<g id="node1" class="node"><title>Node3</title>
<polygon fill="#bfbfbf" stroke="black" points="307.5,-112.5 307.5,-131.5 410.5,-131.5 410.5,-112.5 307.5,-112.5"/>
<text text-anchor="middle" x="359" y="-119.5" font-family="Helvetica,sans-Serif" font-size="10.00">src/crypto/sha512.h</text>
</g>
<!-- Node4 -->
<g id="node2" class="node"><title>Node4</title>
<g id="a_node2"><a xlink:href="crypto__hash_8cpp.html" target="_top" xlink:title="src/bench/crypto_hash.cpp">
<polygon fill="white" stroke="black" points="0,-56.5 0,-75.5 134,-75.5 134,-56.5 0,-56.5"/>
<text text-anchor="middle" x="67" y="-63.5" font-family="Helvetica,sans-Serif" font-size="10.00">src/bench/crypto_hash.cpp</text>
</a>
</g>
</g>
<!-- Node3&#45;&gt;Node4 -->
<g id="edge1" class="edge"><title>Node3&#45;&gt;Node4</title>
<path fill="none" stroke="midnightblue" d="M302.767,-110.601C247.582,-100.395 164.435,-85.0189 113.052,-75.5164"/>
<polygon fill="midnightblue" stroke="midnightblue" points="302.262,-114.067 312.732,-112.444 303.535,-107.183 302.262,-114.067"/>
</g>
<!-- Node5 -->
<g id="node3" class="node"><title>Node5</title>
<g id="a_node3"><a xlink:href="hmac__sha512_8h.html" target="_top" xlink:title="src/crypto/hmac_sha512.h">
<polygon fill="white" stroke="black" points="152,-56.5 152,-75.5 284,-75.5 284,-56.5 152,-56.5"/>
<text text-anchor="middle" x="218" y="-63.5" font-family="Helvetica,sans-Serif" font-size="10.00">src/crypto/hmac_sha512.h</text>
</a>
</g>
</g>
<!-- Node3&#45;&gt;Node5 -->
<g id="edge2" class="edge"><title>Node3&#45;&gt;Node5</title>
<path fill="none" stroke="midnightblue" d="M327.071,-108.772C300.586,-98.6287 263.608,-84.4669 240.237,-75.5164"/>
<polygon fill="midnightblue" stroke="midnightblue" points="326.068,-112.136 336.658,-112.444 328.571,-105.599 326.068,-112.136"/>
</g>
<!-- Node9 -->
<g id="node7" class="node"><title>Node9</title>
<g id="a_node7"><a xlink:href="sha512_8cpp.html" target="_top" xlink:title="src/crypto/sha512.cpp">
<polygon fill="white" stroke="black" points="302.5,-56.5 302.5,-75.5 415.5,-75.5 415.5,-56.5 302.5,-56.5"/>
<text text-anchor="middle" x="359" y="-63.5" font-family="Helvetica,sans-Serif" font-size="10.00">src/crypto/sha512.cpp</text>
</a>
</g>
</g>
<!-- Node3&#45;&gt;Node9 -->
<g id="edge6" class="edge"><title>Node3&#45;&gt;Node9</title>
<path fill="none" stroke="midnightblue" d="M359,-101.805C359,-92.9102 359,-82.7798 359,-75.7511"/>
<polygon fill="midnightblue" stroke="midnightblue" points="355.5,-102.083 359,-112.083 362.5,-102.083 355.5,-102.083"/>
</g>
<!-- Node10 -->
<g id="node8" class="node"><title>Node10</title>
<g id="a_node8"><a xlink:href="random_8cpp.html" target="_top" xlink:title="src/random.cpp">
<polygon fill="white" stroke="black" points="434,-56.5 434,-75.5 518,-75.5 518,-56.5 434,-56.5"/>
<text text-anchor="middle" x="476" y="-63.5" font-family="Helvetica,sans-Serif" font-size="10.00">src/random.cpp</text>
</a>
</g>
</g>
<!-- Node3&#45;&gt;Node10 -->
<g id="edge7" class="edge"><title>Node3&#45;&gt;Node10</title>
<path fill="none" stroke="midnightblue" d="M386.664,-108.232C408.549,-98.1312 438.497,-84.3091 457.548,-75.5164"/>
<polygon fill="midnightblue" stroke="midnightblue" points="385.152,-105.075 377.539,-112.444 388.085,-111.431 385.152,-105.075"/>
</g>
<!-- Node11 -->
<g id="node9" class="node"><title>Node11</title>
<g id="a_node9"><a xlink:href="crypter_8cpp.html" target="_top" xlink:title="src/wallet/crypter.cpp">
<polygon fill="white" stroke="black" points="536,-56.5 536,-75.5 646,-75.5 646,-56.5 536,-56.5"/>
<text text-anchor="middle" x="591" y="-63.5" font-family="Helvetica,sans-Serif" font-size="10.00">src/wallet/crypter.cpp</text>
</a>
</g>
</g>
<!-- Node3&#45;&gt;Node11 -->
<g id="edge8" class="edge"><title>Node3&#45;&gt;Node11</title>
<path fill="none" stroke="midnightblue" d="M405.603,-110.153C449.437,-99.95 514.178,-84.8809 554.411,-75.5164"/>
<polygon fill="midnightblue" stroke="midnightblue" points="404.707,-106.768 395.761,-112.444 406.294,-113.585 404.707,-106.768"/>
</g>
<!-- Node6 -->
<g id="node4" class="node"><title>Node6</title>
<g id="a_node4"><a xlink:href="hmac__sha512_8cpp.html" target="_top" xlink:title="src/crypto/hmac_sha512.cpp">
<polygon fill="white" stroke="black" points="20.5,-0.5 20.5,-19.5 163.5,-19.5 163.5,-0.5 20.5,-0.5"/>
<text text-anchor="middle" x="92" y="-7.5" font-family="Helvetica,sans-Serif" font-size="10.00">src/crypto/hmac_sha512.cpp</text>
</a>
</g>
</g>
<!-- Node5&#45;&gt;Node6 -->
<g id="edge3" class="edge"><title>Node5&#45;&gt;Node6</title>
<path fill="none" stroke="midnightblue" d="M188.84,-52.503C165.219,-42.3795 132.572,-28.388 111.872,-19.5164"/>
<polygon fill="midnightblue" stroke="midnightblue" points="187.465,-55.7213 198.035,-56.4435 190.222,-49.2873 187.465,-55.7213"/>
</g>
<!-- Node7 -->
<g id="node5" class="node"><title>Node7</title>
<g id="a_node5"><a xlink:href="hash_8cpp.html" target="_top" xlink:title="src/hash.cpp">
<polygon fill="white" stroke="black" points="181.5,-0.5 181.5,-19.5 254.5,-19.5 254.5,-0.5 181.5,-0.5"/>
<text text-anchor="middle" x="218" y="-7.5" font-family="Helvetica,sans-Serif" font-size="10.00">src/hash.cpp</text>
</a>
</g>
</g>
<!-- Node5&#45;&gt;Node7 -->
<g id="edge4" class="edge"><title>Node5&#45;&gt;Node7</title>
<path fill="none" stroke="midnightblue" d="M218,-45.8045C218,-36.9102 218,-26.7798 218,-19.7511"/>
<polygon fill="midnightblue" stroke="midnightblue" points="214.5,-46.083 218,-56.083 221.5,-46.083 214.5,-46.083"/>
</g>
<!-- Node8 -->
<g id="node6" class="node"><title>Node8</title>
<g id="a_node6"><a xlink:href="key_8cpp.html" target="_top" xlink:title="src/key.cpp">
<polygon fill="white" stroke="black" points="273,-0.5 273,-19.5 341,-19.5 341,-0.5 273,-0.5"/>
<text text-anchor="middle" x="307" y="-7.5" font-family="Helvetica,sans-Serif" font-size="10.00">src/key.cpp</text>
</a>
</g>
</g>
<!-- Node5&#45;&gt;Node8 -->
<g id="edge5" class="edge"><title>Node5&#45;&gt;Node8</title>
<path fill="none" stroke="midnightblue" d="M241.238,-50.9005C257.558,-40.9986 278.865,-28.0705 292.736,-19.6545"/>
<polygon fill="midnightblue" stroke="midnightblue" points="239.033,-48.1444 232.299,-56.324 242.664,-54.1289 239.033,-48.1444"/>
</g>
</g>
</svg>
