<?xml version="1.0" encoding="UTF-8" standalone="no"?>
<!DOCTYPE svg PUBLIC "-//W3C//DTD SVG 1.1//EN"
 "http://www.w3.org/Graphics/SVG/1.1/DTD/svg11.dtd">
<!-- Generated by graphviz version 2.36.0 (20140111.2315)
 -->
<!-- Title: src/script/sigcache.h Pages: 1 -->
<svg width="1362pt" height="476pt"
 viewBox="0.00 0.00 1362.03 476.00" xmlns="http://www.w3.org/2000/svg" xmlns:xlink="http://www.w3.org/1999/xlink">
<g id="graph0" class="graph" transform="scale(1 1) rotate(0) translate(4 472)">
<title>src/script/sigcache.h</title>
<polygon fill="white" stroke="none" points="-4,4 -4,-472 1358.03,-472 1358.03,4 -4,4"/>
<!-- Node0 -->
<g id="node1" class="node"><title>Node0</title>
<polygon fill="#bfbfbf" stroke="black" points="1027.5,-448.5 1027.5,-467.5 1134.5,-467.5 1134.5,-448.5 1027.5,-448.5"/>
<text text-anchor="middle" x="1081" y="-455.5" font-family="Helvetica,sans-Serif" font-size="10.00">src/script/sigcache.h</text>
</g>
<!-- Node1 -->
<g id="node2" class="node"><title>Node1</title>
<g id="a_node2"><a xlink:href="interpreter_8h.html" target="_top" xlink:title="script/interpreter.h">
<polygon fill="white" stroke="black" points="786.5,-392.5 786.5,-411.5 881.5,-411.5 881.5,-392.5 786.5,-392.5"/>
<text text-anchor="middle" x="834" y="-399.5" font-family="Helvetica,sans-Serif" font-size="10.00">script/interpreter.h</text>
</a>
</g>
</g>
<!-- Node0&#45;&gt;Node1 -->
<g id="edge1" class="edge"><title>Node0&#45;&gt;Node1</title>
<path fill="none" stroke="midnightblue" d="M1041.86,-448.444C998.774,-439.023 929.441,-423.866 882.829,-413.675"/>
<polygon fill="midnightblue" stroke="midnightblue" points="883.472,-410.233 872.955,-411.516 881.976,-417.072 883.472,-410.233"/>
</g>
<!-- Node20 -->
<g id="node21" class="node"><title>Node20</title>
<polygon fill="white" stroke="#bfbfbf" points="1298,-168.5 1298,-187.5 1342,-187.5 1342,-168.5 1298,-168.5"/>
<text text-anchor="middle" x="1320" y="-175.5" font-family="Helvetica,sans-Serif" font-size="10.00">vector</text>
</g>
<!-- Node0&#45;&gt;Node20 -->
<g id="edge57" class="edge"><title>Node0&#45;&gt;Node20</title>
<path fill="none" stroke="midnightblue" d="M1134.7,-452.61C1198.38,-444.126 1296,-419.326 1296,-347 1296,-347 1296,-347 1296,-289 1296,-256.059 1306.4,-218.818 1313.51,-197.214"/>
<polygon fill="midnightblue" stroke="midnightblue" points="1316.84,-198.294 1316.76,-187.699 1310.22,-196.028 1316.84,-198.294"/>
</g>
<!-- Node2 -->
<g id="node3" class="node"><title>Node2</title>
<g id="a_node3"><a xlink:href="script__error_8h.html" target="_top" xlink:title="script_error.h">
<polygon fill="white" stroke="black" points="830,-336.5 830,-355.5 904,-355.5 904,-336.5 830,-336.5"/>
<text text-anchor="middle" x="867" y="-343.5" font-family="Helvetica,sans-Serif" font-size="10.00">script_error.h</text>
</a>
</g>
</g>
<!-- Node1&#45;&gt;Node2 -->
<g id="edge2" class="edge"><title>Node1&#45;&gt;Node2</title>
<path fill="none" stroke="midnightblue" d="M839.449,-392.083C844.014,-384.613 850.668,-373.724 856.293,-364.52"/>
<polygon fill="midnightblue" stroke="midnightblue" points="859.424,-366.109 861.652,-355.751 853.451,-362.459 859.424,-366.109"/>
</g>
<!-- Node3 -->
<g id="node4" class="node"><title>Node3</title>
<g id="a_node4"><a xlink:href="transaction_8h.html" target="_top" xlink:title="primitives/transaction.h">
<polygon fill="white" stroke="black" points="656,-336.5 656,-355.5 774,-355.5 774,-336.5 656,-336.5"/>
<text text-anchor="middle" x="715" y="-343.5" font-family="Helvetica,sans-Serif" font-size="10.00">primitives/transaction.h</text>
</a>
</g>
</g>
<!-- Node1&#45;&gt;Node3 -->
<g id="edge3" class="edge"><title>Node1&#45;&gt;Node3</title>
<path fill="none" stroke="midnightblue" d="M815.144,-392.444C795.734,-383.636 765.27,-369.812 743.035,-359.722"/>
<polygon fill="midnightblue" stroke="midnightblue" points="744.32,-356.462 733.768,-355.516 741.428,-362.836 744.32,-356.462"/>
</g>
<!-- Node7 -->
<g id="node8" class="node"><title>Node7</title>
<polygon fill="white" stroke="#bfbfbf" points="941.5,-0.5 941.5,-19.5 990.5,-19.5 990.5,-0.5 941.5,-0.5"/>
<text text-anchor="middle" x="966" y="-7.5" font-family="Helvetica,sans-Serif" font-size="10.00">stdint.h</text>
</g>
<!-- Node1&#45;&gt;Node7 -->
<g id="edge55" class="edge"><title>Node1&#45;&gt;Node7</title>
<path fill="none" stroke="midnightblue" d="M786.468,-399.773C609.647,-394.587 0,-370.914 0,-291 0,-291 0,-291 0,-121 0,-25.3149 757.881,-12.8351 931.054,-11.2325"/>
<polygon fill="midnightblue" stroke="midnightblue" points="931.181,-14.7316 941.15,-11.1454 931.121,-7.73187 931.181,-14.7316"/>
</g>
<!-- Node17 -->
<g id="node18" class="node"><title>Node17</title>
<polygon fill="white" stroke="#bfbfbf" points="771.5,-168.5 771.5,-187.5 812.5,-187.5 812.5,-168.5 771.5,-168.5"/>
<text text-anchor="middle" x="792" y="-175.5" font-family="Helvetica,sans-Serif" font-size="10.00">string</text>
</g>
<!-- Node1&#45;&gt;Node17 -->
<g id="edge56" class="edge"><title>Node1&#45;&gt;Node17</title>
<path fill="none" stroke="midnightblue" d="M831.201,-392.452C828.334,-383.458 823.898,-368.851 821,-356 808.126,-298.917 798.526,-230.262 794.331,-197.784"/>
<polygon fill="midnightblue" stroke="midnightblue" points="797.762,-197.024 793.033,-187.543 790.818,-197.904 797.762,-197.024"/>
</g>
<!-- Node1&#45;&gt;Node20 -->
<g id="edge54" class="edge"><title>Node1&#45;&gt;Node20</title>
<path fill="none" stroke="midnightblue" d="M852.754,-392.433C927.325,-358.37 1203.08,-232.407 1292.1,-191.745"/>
<polygon fill="midnightblue" stroke="midnightblue" points="1293.66,-194.88 1301.3,-187.541 1290.75,-188.513 1293.66,-194.88"/>
</g>
<!-- Node4 -->
<g id="node5" class="node"><title>Node4</title>
<g id="a_node5"><a xlink:href="amount_8h.html" target="_top" xlink:title="amount.h">
<polygon fill="white" stroke="black" points="546.5,-280.5 546.5,-299.5 603.5,-299.5 603.5,-280.5 546.5,-280.5"/>
<text text-anchor="middle" x="575" y="-287.5" font-family="Helvetica,sans-Serif" font-size="10.00">amount.h</text>
</a>
</g>
</g>
<!-- Node3&#45;&gt;Node4 -->
<g id="edge4" class="edge"><title>Node3&#45;&gt;Node4</title>
<path fill="none" stroke="midnightblue" d="M692.817,-336.444C669.572,-327.478 632.851,-313.314 606.585,-303.183"/>
<polygon fill="midnightblue" stroke="midnightblue" points="607.669,-299.85 597.08,-299.516 605.15,-306.381 607.669,-299.85"/>
</g>
<!-- Node5 -->
<g id="node6" class="node"><title>Node5</title>
<g id="a_node6"><a xlink:href="serialize_8h.html" target="_top" xlink:title="serialize.h">
<polygon fill="white" stroke="black" points="517.5,-224.5 517.5,-243.5 578.5,-243.5 578.5,-224.5 517.5,-224.5"/>
<text text-anchor="middle" x="548" y="-231.5" font-family="Helvetica,sans-Serif" font-size="10.00">serialize.h</text>
</a>
</g>
</g>
<!-- Node3&#45;&gt;Node5 -->
<g id="edge45" class="edge"><title>Node3&#45;&gt;Node5</title>
<path fill="none" stroke="midnightblue" d="M701.896,-336.368C673.239,-317.492 604.757,-272.385 569.614,-249.237"/>
<polygon fill="midnightblue" stroke="midnightblue" points="571.32,-246.169 561.043,-243.591 567.469,-252.015 571.32,-246.169"/>
</g>
<!-- Node24 -->
<g id="node25" class="node"><title>Node24</title>
<g id="a_node25"><a xlink:href="script_8h.html" target="_top" xlink:title="script/script.h">
<polygon fill="white" stroke="black" points="841,-224.5 841,-243.5 917,-243.5 917,-224.5 841,-224.5"/>
<text text-anchor="middle" x="879" y="-231.5" font-family="Helvetica,sans-Serif" font-size="10.00">script/script.h</text>
</a>
</g>
</g>
<!-- Node3&#45;&gt;Node24 -->
<g id="edge31" class="edge"><title>Node3&#45;&gt;Node24</title>
<path fill="none" stroke="midnightblue" d="M727.869,-336.368C756.011,-317.492 823.262,-272.385 857.774,-249.237"/>
<polygon fill="midnightblue" stroke="midnightblue" points="859.836,-252.069 866.191,-243.591 855.936,-246.255 859.836,-252.069"/>
</g>
<!-- Node28 -->
<g id="node29" class="node"><title>Node28</title>
<g id="a_node29"><a xlink:href="uint256_8h.html" target="_top" xlink:title="uint256.h">
<polygon fill="white" stroke="black" points="1067,-224.5 1067,-243.5 1123,-243.5 1123,-224.5 1067,-224.5"/>
<text text-anchor="middle" x="1095" y="-231.5" font-family="Helvetica,sans-Serif" font-size="10.00">uint256.h</text>
</a>
</g>
</g>
<!-- Node3&#45;&gt;Node28 -->
<g id="edge46" class="edge"><title>Node3&#45;&gt;Node28</title>
<path fill="none" stroke="midnightblue" d="M744.502,-336.46C812.759,-316.701 981.504,-267.854 1057.2,-245.943"/>
<polygon fill="midnightblue" stroke="midnightblue" points="1058.18,-249.302 1066.81,-243.16 1056.23,-242.578 1058.18,-249.302"/>
</g>
<!-- Node4&#45;&gt;Node5 -->
<g id="edge5" class="edge"><title>Node4&#45;&gt;Node5</title>
<path fill="none" stroke="midnightblue" d="M570.541,-280.083C566.846,-272.691 561.477,-261.953 556.906,-252.811"/>
<polygon fill="midnightblue" stroke="midnightblue" points="559.978,-251.13 552.376,-243.751 553.717,-254.261 559.978,-251.13"/>
</g>
<!-- Node4&#45;&gt;Node17 -->
<g id="edge30" class="edge"><title>Node4&#45;&gt;Node17</title>
<path fill="none" stroke="midnightblue" d="M592.028,-280.368C629.82,-261.211 720.912,-215.036 765.926,-192.217"/>
<polygon fill="midnightblue" stroke="midnightblue" points="767.714,-195.235 775.051,-187.591 764.549,-188.991 767.714,-195.235"/>
</g>
<!-- Node22 -->
<g id="node23" class="node"><title>Node22</title>
<polygon fill="white" stroke="#bfbfbf" points="28,-112.5 28,-131.5 76,-131.5 76,-112.5 28,-112.5"/>
<text text-anchor="middle" x="52" y="-119.5" font-family="Helvetica,sans-Serif" font-size="10.00">stdlib.h</text>
</g>
<!-- Node4&#45;&gt;Node22 -->
<g id="edge29" class="edge"><title>Node4&#45;&gt;Node22</title>
<path fill="none" stroke="midnightblue" d="M546.254,-286.815C451.076,-279.041 148.157,-249.82 76,-188 62.46,-176.4 56.5535,-156.443 53.9801,-141.695"/>
<polygon fill="midnightblue" stroke="midnightblue" points="57.4288,-141.082 52.5907,-131.657 50.4949,-142.042 57.4288,-141.082"/>
</g>
<!-- Node6 -->
<g id="node7" class="node"><title>Node6</title>
<g id="a_node7"><a xlink:href="endian_8h.html" target="_top" xlink:title="compat/endian.h">
<polygon fill="white" stroke="black" points="946.5,-112.5 946.5,-131.5 1035.5,-131.5 1035.5,-112.5 946.5,-112.5"/>
<text text-anchor="middle" x="991" y="-119.5" font-family="Helvetica,sans-Serif" font-size="10.00">compat/endian.h</text>
</a>
</g>
</g>
<!-- Node5&#45;&gt;Node6 -->
<g id="edge6" class="edge"><title>Node5&#45;&gt;Node6</title>
<path fill="none" stroke="midnightblue" d="M573.474,-224.481C597.847,-216.07 635.458,-202.41 667,-188 684.003,-180.232 686.289,-173.978 704,-168 781.988,-141.675 877.181,-130.626 935.947,-126.075"/>
<polygon fill="midnightblue" stroke="midnightblue" points="936.411,-129.55 946.126,-125.324 935.896,-122.569 936.411,-129.55"/>
</g>
<!-- Node5&#45;&gt;Node7 -->
<g id="edge18" class="edge"><title>Node5&#45;&gt;Node7</title>
<path fill="none" stroke="midnightblue" d="M517.249,-233.453C409.209,-234.498 56.3177,-233.029 109,-168 214.896,-37.2848 783.766,-15.1937 931.124,-11.6479"/>
<polygon fill="midnightblue" stroke="midnightblue" points="931.464,-15.1412 941.382,-11.4151 931.305,-8.14295 931.464,-15.1412"/>
</g>
<!-- Node9 -->
<g id="node10" class="node"><title>Node9</title>
<polygon fill="white" stroke="#bfbfbf" points="118,-168.5 118,-187.5 174,-187.5 174,-168.5 118,-168.5"/>
<text text-anchor="middle" x="146" y="-175.5" font-family="Helvetica,sans-Serif" font-size="10.00">algorithm</text>
</g>
<!-- Node5&#45;&gt;Node9 -->
<g id="edge10" class="edge"><title>Node5&#45;&gt;Node9</title>
<path fill="none" stroke="midnightblue" d="M517.44,-230.519C455.973,-225.257 312.88,-211.632 184.249,-188.252"/>
<polygon fill="midnightblue" stroke="midnightblue" points="184.696,-184.775 174.227,-186.404 183.427,-191.659 184.696,-184.775"/>
</g>
<!-- Node10 -->
<g id="node11" class="node"><title>Node10</title>
<polygon fill="white" stroke="#bfbfbf" points="713,-112.5 713,-131.5 765,-131.5 765,-112.5 713,-112.5"/>
<text text-anchor="middle" x="739" y="-119.5" font-family="Helvetica,sans-Serif" font-size="10.00">assert.h</text>
</g>
<!-- Node5&#45;&gt;Node10 -->
<g id="edge11" class="edge"><title>Node5&#45;&gt;Node10</title>
<path fill="none" stroke="midnightblue" d="M557.626,-224.33C572.809,-210.969 603.619,-185.103 633,-168 655.821,-154.715 683.311,-143.16 704.576,-135.086"/>
<polygon fill="midnightblue" stroke="midnightblue" points="706.015,-138.285 714.168,-131.519 703.575,-131.724 706.015,-138.285"/>
</g>
<!-- Node11 -->
<g id="node12" class="node"><title>Node11</title>
<polygon fill="white" stroke="#bfbfbf" points="191.5,-168.5 191.5,-187.5 220.5,-187.5 220.5,-168.5 191.5,-168.5"/>
<text text-anchor="middle" x="206" y="-175.5" font-family="Helvetica,sans-Serif" font-size="10.00">ios</text>
</g>
<!-- Node5&#45;&gt;Node11 -->
<g id="edge12" class="edge"><title>Node5&#45;&gt;Node11</title>
<path fill="none" stroke="midnightblue" d="M517.183,-231.046C461.393,-226.999 339.989,-215.858 230.78,-187.988"/>
<polygon fill="midnightblue" stroke="midnightblue" points="231.487,-184.555 220.927,-185.419 229.72,-191.329 231.487,-184.555"/>
</g>
<!-- Node12 -->
<g id="node13" class="node"><title>Node12</title>
<polygon fill="white" stroke="#bfbfbf" points="713,-168.5 713,-187.5 753,-187.5 753,-168.5 713,-168.5"/>
<text text-anchor="middle" x="733" y="-175.5" font-family="Helvetica,sans-Serif" font-size="10.00">limits</text>
</g>
<!-- Node5&#45;&gt;Node12 -->
<g id="edge13" class="edge"><title>Node5&#45;&gt;Node12</title>
<path fill="none" stroke="midnightblue" d="M577.314,-224.444C611.662,-214.418 668.275,-197.893 702.941,-187.774"/>
<polygon fill="midnightblue" stroke="midnightblue" points="704.327,-191.015 712.946,-184.854 702.366,-184.296 704.327,-191.015"/>
</g>
<!-- Node13 -->
<g id="node14" class="node"><title>Node13</title>
<polygon fill="white" stroke="#bfbfbf" points="238.5,-168.5 238.5,-187.5 267.5,-187.5 267.5,-168.5 238.5,-168.5"/>
<text text-anchor="middle" x="253" y="-175.5" font-family="Helvetica,sans-Serif" font-size="10.00">list</text>
</g>
<!-- Node5&#45;&gt;Node13 -->
<g id="edge14" class="edge"><title>Node5&#45;&gt;Node13</title>
<path fill="none" stroke="midnightblue" d="M517.365,-230.043C468.267,-224.853 368.932,-212.499 277.605,-188.011"/>
<polygon fill="midnightblue" stroke="midnightblue" points="278.511,-184.63 267.941,-185.365 276.662,-191.382 278.511,-184.63"/>
</g>
<!-- Node14 -->
<g id="node15" class="node"><title>Node14</title>
<polygon fill="white" stroke="#bfbfbf" points="285.5,-168.5 285.5,-187.5 320.5,-187.5 320.5,-168.5 285.5,-168.5"/>
<text text-anchor="middle" x="303" y="-175.5" font-family="Helvetica,sans-Serif" font-size="10.00">map</text>
</g>
<!-- Node5&#45;&gt;Node14 -->
<g id="edge15" class="edge"><title>Node5&#45;&gt;Node14</title>
<path fill="none" stroke="midnightblue" d="M517.404,-227.863C476.805,-220.791 402.771,-207.011 330.367,-187.825"/>
<polygon fill="midnightblue" stroke="midnightblue" points="331.194,-184.423 320.628,-185.208 329.377,-191.183 331.194,-184.423"/>
</g>
<!-- Node15 -->
<g id="node16" class="node"><title>Node15</title>
<polygon fill="white" stroke="#bfbfbf" points="339,-168.5 339,-187.5 391,-187.5 391,-168.5 339,-168.5"/>
<text text-anchor="middle" x="365" y="-175.5" font-family="Helvetica,sans-Serif" font-size="10.00">memory</text>
</g>
<!-- Node5&#45;&gt;Node15 -->
<g id="edge16" class="edge"><title>Node5&#45;&gt;Node15</title>
<path fill="none" stroke="midnightblue" d="M519.003,-224.444C486.99,-214.997 435.424,-199.781 400.887,-189.59"/>
<polygon fill="midnightblue" stroke="midnightblue" points="401.775,-186.202 391.193,-186.729 399.793,-192.916 401.775,-186.202"/>
</g>
<!-- Node16 -->
<g id="node17" class="node"><title>Node16</title>
<polygon fill="white" stroke="#bfbfbf" points="409,-168.5 409,-187.5 439,-187.5 439,-168.5 409,-168.5"/>
<text text-anchor="middle" x="424" y="-175.5" font-family="Helvetica,sans-Serif" font-size="10.00">set</text>
</g>
<!-- Node5&#45;&gt;Node16 -->
<g id="edge17" class="edge"><title>Node5&#45;&gt;Node16</title>
<path fill="none" stroke="midnightblue" d="M528.352,-224.444C506.721,-215.024 471.915,-199.866 448.515,-189.676"/>
<polygon fill="midnightblue" stroke="midnightblue" points="449.822,-186.428 439.256,-185.644 447.027,-192.846 449.822,-186.428"/>
</g>
<!-- Node5&#45;&gt;Node17 -->
<g id="edge19" class="edge"><title>Node5&#45;&gt;Node17</title>
<path fill="none" stroke="midnightblue" d="M578.663,-227.394C618.507,-219.927 690.413,-205.83 761.4,-187.971"/>
<polygon fill="midnightblue" stroke="midnightblue" points="762.578,-191.283 771.407,-185.427 760.853,-184.499 762.578,-191.283"/>
</g>
<!-- Node18 -->
<g id="node19" class="node"><title>Node18</title>
<polygon fill="white" stroke="#bfbfbf" points="818.5,-112.5 818.5,-131.5 867.5,-131.5 867.5,-112.5 818.5,-112.5"/>
<text text-anchor="middle" x="843" y="-119.5" font-family="Helvetica,sans-Serif" font-size="10.00">string.h</text>
</g>
<!-- Node5&#45;&gt;Node18 -->
<g id="edge20" class="edge"><title>Node5&#45;&gt;Node18</title>
<path fill="none" stroke="midnightblue" d="M564.225,-224.411C597.474,-206.811 670.305,-168.27 671,-168 717.21,-150.022 773.154,-136.887 808.419,-129.597"/>
<polygon fill="midnightblue" stroke="midnightblue" points="809.123,-133.025 818.229,-127.609 807.733,-126.165 809.123,-133.025"/>
</g>
<!-- Node19 -->
<g id="node20" class="node"><title>Node19</title>
<polygon fill="white" stroke="#bfbfbf" points="457,-168.5 457,-187.5 497,-187.5 497,-168.5 457,-168.5"/>
<text text-anchor="middle" x="477" y="-175.5" font-family="Helvetica,sans-Serif" font-size="10.00">utility</text>
</g>
<!-- Node5&#45;&gt;Node19 -->
<g id="edge21" class="edge"><title>Node5&#45;&gt;Node19</title>
<path fill="none" stroke="midnightblue" d="M536.593,-224.324C525.891,-216.185 509.659,-203.839 496.837,-194.087"/>
<polygon fill="midnightblue" stroke="midnightblue" points="498.693,-191.102 488.615,-187.834 494.456,-196.673 498.693,-191.102"/>
</g>
<!-- Node5&#45;&gt;Node20 -->
<g id="edge22" class="edge"><title>Node5&#45;&gt;Node20</title>
<path fill="none" stroke="midnightblue" d="M578.719,-232.044C697.818,-228.199 1129.87,-212.94 1287.79,-187.762"/>
<polygon fill="midnightblue" stroke="midnightblue" points="1288.5,-191.191 1297.79,-186.089 1287.35,-184.287 1288.5,-191.191"/>
</g>
<!-- Node21 -->
<g id="node22" class="node"><title>Node21</title>
<g id="a_node22"><a xlink:href="prevector_8h.html" target="_top" xlink:title="prevector.h">
<polygon fill="white" stroke="black" points="515.5,-168.5 515.5,-187.5 580.5,-187.5 580.5,-168.5 515.5,-168.5"/>
<text text-anchor="middle" x="548" y="-175.5" font-family="Helvetica,sans-Serif" font-size="10.00">prevector.h</text>
</a>
</g>
</g>
<!-- Node5&#45;&gt;Node21 -->
<g id="edge23" class="edge"><title>Node5&#45;&gt;Node21</title>
<path fill="none" stroke="midnightblue" d="M548,-224.083C548,-217.006 548,-206.861 548,-197.986"/>
<polygon fill="midnightblue" stroke="midnightblue" points="551.5,-197.751 548,-187.751 544.5,-197.751 551.5,-197.751"/>
</g>
<!-- Node6&#45;&gt;Node7 -->
<g id="edge7" class="edge"><title>Node6&#45;&gt;Node7</title>
<path fill="none" stroke="midnightblue" d="M977.936,-112.436C967.086,-104.471 952.427,-91.5154 946,-76 939.456,-60.2003 946.719,-41.4713 954.261,-28.1856"/>
<polygon fill="midnightblue" stroke="midnightblue" points="957.296,-29.9328 959.608,-19.5934 951.353,-26.2343 957.296,-29.9328"/>
</g>
<!-- Node8 -->
<g id="node9" class="node"><title>Node8</title>
<g id="a_node9"><a xlink:href="byteswap_8h.html" target="_top" xlink:title="compat/byteswap.h">
<polygon fill="white" stroke="black" points="955,-56.5 955,-75.5 1057,-75.5 1057,-56.5 955,-56.5"/>
<text text-anchor="middle" x="1006" y="-63.5" font-family="Helvetica,sans-Serif" font-size="10.00">compat/byteswap.h</text>
</a>
</g>
</g>
<!-- Node6&#45;&gt;Node8 -->
<g id="edge8" class="edge"><title>Node6&#45;&gt;Node8</title>
<path fill="none" stroke="midnightblue" d="M993.477,-112.083C995.486,-104.849 998.386,-94.4087 1000.89,-85.3968"/>
<polygon fill="midnightblue" stroke="midnightblue" points="1004.26,-86.323 1003.57,-75.7511 997.52,-84.4495 1004.26,-86.323"/>
</g>
<!-- Node8&#45;&gt;Node7 -->
<g id="edge9" class="edge"><title>Node8&#45;&gt;Node7</title>
<path fill="none" stroke="midnightblue" d="M999.395,-56.083C993.745,-48.4554 985.455,-37.2645 978.549,-27.9408"/>
<polygon fill="midnightblue" stroke="midnightblue" points="981.247,-25.7034 972.482,-19.7511 975.622,-29.87 981.247,-25.7034"/>
</g>
<!-- Node21&#45;&gt;Node7 -->
<g id="edge26" class="edge"><title>Node21&#45;&gt;Node7</title>
<path fill="none" stroke="midnightblue" d="M547.954,-168.483C548.361,-154.614 551.258,-127.179 567,-112 619.775,-61.1152 844.286,-26.9143 931.325,-15.343"/>
<polygon fill="midnightblue" stroke="midnightblue" points="932.015,-18.7826 941.476,-14.0136 931.106,-11.8418 932.015,-18.7826"/>
</g>
<!-- Node21&#45;&gt;Node10 -->
<g id="edge24" class="edge"><title>Node21&#45;&gt;Node10</title>
<path fill="none" stroke="midnightblue" d="M578.265,-168.444C612.205,-158.848 667.204,-143.298 703.239,-133.11"/>
<polygon fill="midnightblue" stroke="midnightblue" points="704.196,-136.477 712.867,-130.388 702.292,-129.741 704.196,-136.477"/>
</g>
<!-- Node21&#45;&gt;Node18 -->
<g id="edge27" class="edge"><title>Node21&#45;&gt;Node18</title>
<path fill="none" stroke="midnightblue" d="M580.697,-171.015C636.763,-160.752 750.742,-139.888 808.212,-129.368"/>
<polygon fill="midnightblue" stroke="midnightblue" points="809.053,-132.772 818.259,-127.529 807.792,-125.887 809.053,-132.772"/>
</g>
<!-- Node21&#45;&gt;Node22 -->
<g id="edge25" class="edge"><title>Node21&#45;&gt;Node22</title>
<path fill="none" stroke="midnightblue" d="M515.05,-169.574C511.999,-168.997 508.947,-168.46 506,-168 350.483,-143.709 162.832,-130.014 86.6518,-125.102"/>
<polygon fill="midnightblue" stroke="midnightblue" points="86.4397,-121.581 76.238,-124.441 85.9961,-128.567 86.4397,-121.581"/>
</g>
<!-- Node23 -->
<g id="node24" class="node"><title>Node23</title>
<polygon fill="white" stroke="#bfbfbf" points="576.5,-112.5 576.5,-131.5 623.5,-131.5 623.5,-112.5 576.5,-112.5"/>
<text text-anchor="middle" x="600" y="-119.5" font-family="Helvetica,sans-Serif" font-size="10.00">iterator</text>
</g>
<!-- Node21&#45;&gt;Node23 -->
<g id="edge28" class="edge"><title>Node21&#45;&gt;Node23</title>
<path fill="none" stroke="midnightblue" d="M556.587,-168.083C564.159,-160.22 575.378,-148.569 584.514,-139.081"/>
<polygon fill="midnightblue" stroke="midnightblue" points="587.158,-141.382 591.573,-131.751 582.115,-136.527 587.158,-141.382"/>
</g>
<!-- Node24&#45;&gt;Node7 -->
<g id="edge41" class="edge"><title>Node24&#45;&gt;Node7</title>
<path fill="none" stroke="midnightblue" d="M917.166,-230.186C995.707,-224.009 1169.55,-208.185 1187,-188 1251.84,-112.996 1077.33,-46.3083 1000.37,-21.3902"/>
<polygon fill="midnightblue" stroke="midnightblue" points="1001.21,-17.9863 990.624,-18.2895 999.092,-24.6568 1001.21,-17.9863"/>
</g>
<!-- Node24&#45;&gt;Node10 -->
<g id="edge37" class="edge"><title>Node24&#45;&gt;Node10</title>
<path fill="none" stroke="midnightblue" d="M872.662,-224.142C862.768,-210.761 842.54,-185.138 821,-168 804.854,-155.153 784.535,-143.973 768.163,-135.97"/>
<polygon fill="midnightblue" stroke="midnightblue" points="769.575,-132.767 759.041,-131.637 766.571,-139.089 769.575,-132.767"/>
</g>
<!-- Node24&#45;&gt;Node12 -->
<g id="edge39" class="edge"><title>Node24&#45;&gt;Node12</title>
<path fill="none" stroke="midnightblue" d="M855.866,-224.444C830.658,-215.12 790.256,-200.177 762.717,-189.991"/>
<polygon fill="midnightblue" stroke="midnightblue" points="763.798,-186.659 753.205,-186.473 761.37,-193.225 763.798,-186.659"/>
</g>
<!-- Node24&#45;&gt;Node17 -->
<g id="edge43" class="edge"><title>Node24&#45;&gt;Node17</title>
<path fill="none" stroke="midnightblue" d="M865.022,-224.324C851.45,-215.9 830.62,-202.971 814.675,-193.074"/>
<polygon fill="midnightblue" stroke="midnightblue" points="816.286,-189.954 805.943,-187.655 812.594,-195.902 816.286,-189.954"/>
</g>
<!-- Node24&#45;&gt;Node18 -->
<g id="edge42" class="edge"><title>Node24&#45;&gt;Node18</title>
<path fill="none" stroke="midnightblue" d="M876.175,-224.368C870.339,-206.537 856.842,-165.295 848.98,-141.272"/>
<polygon fill="midnightblue" stroke="midnightblue" points="852.249,-140.007 845.812,-131.591 845.596,-142.184 852.249,-140.007"/>
</g>
<!-- Node24&#45;&gt;Node20 -->
<g id="edge44" class="edge"><title>Node24&#45;&gt;Node20</title>
<path fill="none" stroke="midnightblue" d="M917.207,-231.021C988.388,-226.858 1146.17,-215.391 1287.61,-187.959"/>
<polygon fill="midnightblue" stroke="midnightblue" points="1288.63,-191.325 1297.76,-185.956 1287.27,-184.457 1288.63,-191.325"/>
</g>
<!-- Node24&#45;&gt;Node21 -->
<g id="edge36" class="edge"><title>Node24&#45;&gt;Node21</title>
<path fill="none" stroke="midnightblue" d="M840.707,-226.753C778.355,-216.581 655.344,-196.512 590.424,-185.921"/>
<polygon fill="midnightblue" stroke="midnightblue" points="590.954,-182.461 580.521,-184.306 589.827,-189.37 590.954,-182.461"/>
</g>
<!-- Node25 -->
<g id="node26" class="node"><title>Node25</title>
<g id="a_node26"><a xlink:href="common_8h.html" target="_top" xlink:title="crypto/common.h">
<polygon fill="white" stroke="black" points="1086,-168.5 1086,-187.5 1178,-187.5 1178,-168.5 1086,-168.5"/>
<text text-anchor="middle" x="1132" y="-175.5" font-family="Helvetica,sans-Serif" font-size="10.00">crypto/common.h</text>
</a>
</g>
</g>
<!-- Node24&#45;&gt;Node25 -->
<g id="edge32" class="edge"><title>Node24&#45;&gt;Node25</title>
<path fill="none" stroke="midnightblue" d="M917.151,-224.857C961.097,-215.477 1033.46,-200.033 1081.91,-189.692"/>
<polygon fill="midnightblue" stroke="midnightblue" points="1082.81,-193.077 1091.86,-187.567 1081.35,-186.231 1082.81,-193.077"/>
</g>
<!-- Node26 -->
<g id="node27" class="node"><title>Node26</title>
<polygon fill="white" stroke="#bfbfbf" points="907.5,-168.5 907.5,-187.5 952.5,-187.5 952.5,-168.5 907.5,-168.5"/>
<text text-anchor="middle" x="930" y="-175.5" font-family="Helvetica,sans-Serif" font-size="10.00">climits</text>
</g>
<!-- Node24&#45;&gt;Node26 -->
<g id="edge38" class="edge"><title>Node24&#45;&gt;Node26</title>
<path fill="none" stroke="midnightblue" d="M887.422,-224.083C894.848,-216.22 905.852,-204.569 914.812,-195.081"/>
<polygon fill="midnightblue" stroke="midnightblue" points="917.413,-197.424 921.735,-187.751 912.324,-192.618 917.413,-197.424"/>
</g>
<!-- Node27 -->
<g id="node28" class="node"><title>Node27</title>
<polygon fill="white" stroke="#bfbfbf" points="970.5,-168.5 970.5,-187.5 1029.5,-187.5 1029.5,-168.5 970.5,-168.5"/>
<text text-anchor="middle" x="1000" y="-175.5" font-family="Helvetica,sans-Serif" font-size="10.00">stdexcept</text>
</g>
<!-- Node24&#45;&gt;Node27 -->
<g id="edge40" class="edge"><title>Node24&#45;&gt;Node27</title>
<path fill="none" stroke="midnightblue" d="M898.173,-224.444C917.909,-215.636 948.885,-201.812 971.493,-191.722"/>
<polygon fill="midnightblue" stroke="midnightblue" points="973.211,-194.788 980.917,-187.516 970.359,-188.396 973.211,-194.788"/>
</g>
<!-- Node25&#45;&gt;Node6 -->
<g id="edge35" class="edge"><title>Node25&#45;&gt;Node6</title>
<path fill="none" stroke="midnightblue" d="M1109.66,-168.444C1086.25,-159.478 1049.26,-145.314 1022.81,-135.183"/>
<polygon fill="midnightblue" stroke="midnightblue" points="1023.83,-131.824 1013.24,-131.516 1021.32,-138.361 1023.83,-131.824"/>
</g>
<!-- Node25&#45;&gt;Node7 -->
<g id="edge33" class="edge"><title>Node25&#45;&gt;Node7</title>
<path fill="none" stroke="midnightblue" d="M1129.39,-168.484C1122.37,-146.901 1101.16,-89.4047 1065,-56 1046.77,-39.1543 1021.15,-27.742 1000.54,-20.6257"/>
<polygon fill="midnightblue" stroke="midnightblue" points="1001.47,-17.2484 990.879,-17.4723 999.299,-23.9028 1001.47,-17.2484"/>
</g>
<!-- Node25&#45;&gt;Node18 -->
<g id="edge34" class="edge"><title>Node25&#45;&gt;Node18</title>
<path fill="none" stroke="midnightblue" d="M1086.21,-168.444C1028.28,-157.621 929.828,-139.224 877.725,-129.488"/>
<polygon fill="midnightblue" stroke="midnightblue" points="878.118,-126.001 867.645,-127.605 876.832,-132.882 878.118,-126.001"/>
</g>
<!-- Node28&#45;&gt;Node7 -->
<g id="edge50" class="edge"><title>Node28&#45;&gt;Node7</title>
<path fill="none" stroke="midnightblue" d="M1123.02,-232.397C1183.11,-230.451 1321.25,-222.267 1350,-188 1355.71,-181.19 1354.68,-175.557 1350,-168 1273.77,-44.8945 1080.44,-18.3172 1000.95,-12.5796"/>
<polygon fill="midnightblue" stroke="midnightblue" points="1000.72,-9.05728 990.515,-11.9004 1000.27,-16.0425 1000.72,-9.05728"/>
</g>
<!-- Node28&#45;&gt;Node10 -->
<g id="edge47" class="edge"><title>Node28&#45;&gt;Node10</title>
<path fill="none" stroke="midnightblue" d="M1090.04,-224.081C1081.49,-209.634 1062.5,-181.387 1038,-168 1026.55,-161.741 852.406,-138.045 775.286,-127.784"/>
<polygon fill="midnightblue" stroke="midnightblue" points="775.449,-124.275 765.075,-126.429 774.528,-131.214 775.449,-124.275"/>
</g>
<!-- Node28&#45;&gt;Node17 -->
<g id="edge51" class="edge"><title>Node28&#45;&gt;Node17</title>
<path fill="none" stroke="midnightblue" d="M1066.77,-227.968C1009.92,-217.838 882.079,-195.054 823.006,-184.526"/>
<polygon fill="midnightblue" stroke="midnightblue" points="823.268,-181.017 812.809,-182.709 822.04,-187.909 823.268,-181.017"/>
</g>
<!-- Node28&#45;&gt;Node20 -->
<g id="edge52" class="edge"><title>Node28&#45;&gt;Node20</title>
<path fill="none" stroke="midnightblue" d="M1123.07,-226.994C1159.05,-219.185 1223.59,-204.813 1287.81,-188.209"/>
<polygon fill="midnightblue" stroke="midnightblue" points="1288.89,-191.543 1297.69,-185.635 1287.13,-184.769 1288.89,-191.543"/>
</g>
<!-- Node28&#45;&gt;Node25 -->
<g id="edge53" class="edge"><title>Node28&#45;&gt;Node25</title>
<path fill="none" stroke="midnightblue" d="M1101.11,-224.083C1106.28,-216.534 1113.85,-205.495 1120.19,-196.23"/>
<polygon fill="midnightblue" stroke="midnightblue" points="1123.24,-197.979 1126,-187.751 1117.46,-194.022 1123.24,-197.979"/>
</g>
<!-- Node28&#45;&gt;Node27 -->
<g id="edge49" class="edge"><title>Node28&#45;&gt;Node27</title>
<path fill="none" stroke="midnightblue" d="M1079.74,-224.324C1064.78,-215.822 1041.75,-202.729 1024.27,-192.797"/>
<polygon fill="midnightblue" stroke="midnightblue" points="1025.65,-189.553 1015.23,-187.655 1022.19,-195.639 1025.65,-189.553"/>
</g>
<!-- Node29 -->
<g id="node30" class="node"><title>Node29</title>
<polygon fill="white" stroke="#bfbfbf" points="1234,-168.5 1234,-187.5 1280,-187.5 1280,-168.5 1234,-168.5"/>
<text text-anchor="middle" x="1257" y="-175.5" font-family="Helvetica,sans-Serif" font-size="10.00">cstring</text>
</g>
<!-- Node28&#45;&gt;Node29 -->
<g id="edge48" class="edge"><title>Node28&#45;&gt;Node29</title>
<path fill="none" stroke="midnightblue" d="M1120.67,-224.444C1148.64,-215.119 1193.49,-200.172 1224.04,-189.986"/>
<polygon fill="midnightblue" stroke="midnightblue" points="1225.43,-193.212 1233.81,-186.729 1223.22,-186.571 1225.43,-193.212"/>
</g>
</g>
</svg>
