<?xml version="1.0" encoding="UTF-8" standalone="no"?>
<!DOCTYPE svg PUBLIC "-//W3C//DTD SVG 1.1//EN"
 "http://www.w3.org/Graphics/SVG/1.1/DTD/svg11.dtd">
<!-- Generated by graphviz version 2.36.0 (20140111.2315)
 -->
<!-- Title: src/script/sign.h Pages: 1 -->
<svg width="872pt" height="84pt"
 viewBox="0.00 0.00 872.00 84.00" xmlns="http://www.w3.org/2000/svg" xmlns:xlink="http://www.w3.org/1999/xlink">
<g id="graph0" class="graph" transform="scale(1 1) rotate(0) translate(4 80)">
<title>src/script/sign.h</title>
<polygon fill="white" stroke="none" points="-4,4 -4,-80 868,-80 868,4 -4,4"/>
<!-- Node30 -->
<g id="node1" class="node"><title>Node30</title>
<polygon fill="#bfbfbf" stroke="black" points="391,-56.5 391,-75.5 477,-75.5 477,-56.5 391,-56.5"/>
<text text-anchor="middle" x="434" y="-63.5" font-family="Helvetica,sans-Serif" font-size="10.00">src/script/sign.h</text>
</g>
<!-- Node31 -->
<g id="node2" class="node"><title>Node31</title>
<g id="a_node2"><a xlink:href="dash-tx_8cpp.html" target="_top" xlink:title="src/dash&#45;tx.cpp">
<polygon fill="white" stroke="black" points="0,-0.5 0,-19.5 84,-19.5 84,-0.5 0,-0.5"/>
<text text-anchor="middle" x="42" y="-7.5" font-family="Helvetica,sans-Serif" font-size="10.00">src/dash&#45;tx.cpp</text>
</a>
</g>
</g>
<!-- Node30&#45;&gt;Node31 -->
<g id="edge1" class="edge"><title>Node30&#45;&gt;Node31</title>
<path fill="none" stroke="midnightblue" d="M380.514,-58.6715C313.284,-50.5489 194.397,-35.6297 93,-20 90.0676,-19.548 87.0438,-19.063 84.0008,-18.5609"/>
<polygon fill="midnightblue" stroke="midnightblue" points="380.504,-62.1954 390.85,-59.9158 381.34,-55.2455 380.504,-62.1954"/>
</g>
<!-- Node32 -->
<g id="node3" class="node"><title>Node32</title>
<g id="a_node3"><a xlink:href="privatesend-client_8cpp.html" target="_top" xlink:title="src/privatesend&#45;client.cpp">
<polygon fill="white" stroke="black" points="102,-0.5 102,-19.5 230,-19.5 230,-0.5 102,-0.5"/>
<text text-anchor="middle" x="166" y="-7.5" font-family="Helvetica,sans-Serif" font-size="10.00">src/privatesend&#45;client.cpp</text>
</a>
</g>
</g>
<!-- Node30&#45;&gt;Node32 -->
<g id="edge2" class="edge"><title>Node30&#45;&gt;Node32</title>
<path fill="none" stroke="midnightblue" d="M381.44,-54.4096C330.791,-44.2042 255.133,-28.9597 208.267,-19.5164"/>
<polygon fill="midnightblue" stroke="midnightblue" points="381.04,-57.8993 391.535,-56.4435 382.423,-51.0372 381.04,-57.8993"/>
</g>
<!-- Node33 -->
<g id="node4" class="node"><title>Node33</title>
<g id="a_node4"><a xlink:href="privatesend_8cpp.html" target="_top" xlink:title="src/privatesend.cpp">
<polygon fill="white" stroke="black" points="248,-0.5 248,-19.5 350,-19.5 350,-0.5 248,-0.5"/>
<text text-anchor="middle" x="299" y="-7.5" font-family="Helvetica,sans-Serif" font-size="10.00">src/privatesend.cpp</text>
</a>
</g>
</g>
<!-- Node30&#45;&gt;Node33 -->
<g id="edge3" class="edge"><title>Node30&#45;&gt;Node33</title>
<path fill="none" stroke="midnightblue" d="M403.094,-52.6377C377.76,-42.504 342.569,-28.4274 320.291,-19.5164"/>
<polygon fill="midnightblue" stroke="midnightblue" points="402.024,-55.9792 412.609,-56.4435 404.624,-49.4799 402.024,-55.9792"/>
</g>
<!-- Node34 -->
<g id="node5" class="node"><title>Node34</title>
<g id="a_node5"><a xlink:href="rawtransaction_8cpp.html" target="_top" xlink:title="src/rpc/rawtransaction.cpp">
<polygon fill="white" stroke="black" points="368,-0.5 368,-19.5 500,-19.5 500,-0.5 368,-0.5"/>
<text text-anchor="middle" x="434" y="-7.5" font-family="Helvetica,sans-Serif" font-size="10.00">src/rpc/rawtransaction.cpp</text>
</a>
</g>
</g>
<!-- Node30&#45;&gt;Node34 -->
<g id="edge4" class="edge"><title>Node30&#45;&gt;Node34</title>
<path fill="none" stroke="midnightblue" d="M434,-45.8045C434,-36.9102 434,-26.7798 434,-19.7511"/>
<polygon fill="midnightblue" stroke="midnightblue" points="430.5,-46.083 434,-56.083 437.5,-46.083 430.5,-46.083"/>
</g>
<!-- Node35 -->
<g id="node6" class="node"><title>Node35</title>
<g id="a_node6"><a xlink:href="ismine_8cpp.html" target="_top" xlink:title="src/script/ismine.cpp">
<polygon fill="white" stroke="black" points="518.5,-0.5 518.5,-19.5 625.5,-19.5 625.5,-0.5 518.5,-0.5"/>
<text text-anchor="middle" x="572" y="-7.5" font-family="Helvetica,sans-Serif" font-size="10.00">src/script/ismine.cpp</text>
</a>
</g>
</g>
<!-- Node30&#45;&gt;Node35 -->
<g id="edge5" class="edge"><title>Node30&#45;&gt;Node35</title>
<path fill="none" stroke="midnightblue" d="M465.249,-52.772C491.171,-42.6287 527.362,-28.4669 550.236,-19.5164"/>
<polygon fill="midnightblue" stroke="midnightblue" points="463.904,-49.5401 455.867,-56.4435 466.454,-56.0588 463.904,-49.5401"/>
</g>
<!-- Node36 -->
<g id="node7" class="node"><title>Node36</title>
<g id="a_node7"><a xlink:href="sign_8cpp.html" target="_top" xlink:title="src/script/sign.cpp">
<polygon fill="white" stroke="black" points="643.5,-0.5 643.5,-19.5 740.5,-19.5 740.5,-0.5 643.5,-0.5"/>
<text text-anchor="middle" x="692" y="-7.5" font-family="Helvetica,sans-Serif" font-size="10.00">src/script/sign.cpp</text>
</a>
</g>
</g>
<!-- Node30&#45;&gt;Node36 -->
<g id="edge6" class="edge"><title>Node30&#45;&gt;Node36</title>
<path fill="none" stroke="midnightblue" d="M484.904,-54.3456C533.662,-44.1405 606.287,-28.94 651.31,-19.5164"/>
<polygon fill="midnightblue" stroke="midnightblue" points="483.952,-50.9691 474.881,-56.4435 485.386,-57.8206 483.952,-50.9691"/>
</g>
<!-- Node37 -->
<g id="node8" class="node"><title>Node37</title>
<g id="a_node8"><a xlink:href="wallet_8cpp.html" target="_top" xlink:title="src/wallet/wallet.cpp">
<polygon fill="white" stroke="black" points="758,-0.5 758,-19.5 864,-19.5 864,-0.5 758,-0.5"/>
<text text-anchor="middle" x="811" y="-7.5" font-family="Helvetica,sans-Serif" font-size="10.00">src/wallet/wallet.cpp</text>
</a>
</g>
</g>
<!-- Node30&#45;&gt;Node37 -->
<g id="edge7" class="edge"><title>Node30&#45;&gt;Node37</title>
<path fill="none" stroke="midnightblue" d="M487.091,-57.4529C549.708,-48.5429 656.934,-33.2583 749,-20 751.907,-19.5814 754.89,-19.151 757.901,-18.7159"/>
<polygon fill="midnightblue" stroke="midnightblue" points="486.465,-54.0065 477.058,-58.8802 487.451,-60.9367 486.465,-54.0065"/>
</g>
</g>
</svg>
