<?xml version="1.0" encoding="UTF-8" standalone="no"?>
<!DOCTYPE svg PUBLIC "-//W3C//DTD SVG 1.1//EN"
 "http://www.w3.org/Graphics/SVG/1.1/DTD/svg11.dtd">
<!-- Generated by graphviz version 2.36.0 (20140111.2315)
 -->
<!-- Title: src/crypto/sph_types.h Pages: 1 -->
<svg width="2071pt" height="364pt"
 viewBox="0.00 0.00 2070.50 364.00" xmlns="http://www.w3.org/2000/svg" xmlns:xlink="http://www.w3.org/1999/xlink">
<g id="graph0" class="graph" transform="scale(1 1) rotate(0) translate(4 360)">
<title>src/crypto/sph_types.h</title>
<polygon fill="white" stroke="none" points="-4,4 -4,-360 2066.5,-360 2066.5,4 -4,4"/>
<!-- Node2 -->
<g id="node1" class="node"><title>Node2</title>
<polygon fill="#bfbfbf" stroke="black" points="737.503,-336.5 737.503,-355.5 853.503,-355.5 853.503,-336.5 737.503,-336.5"/>
<text text-anchor="middle" x="795.503" y="-343.5" font-family="Helvetica,sans-Serif" font-size="10.00">src/crypto/sph_types.h</text>
</g>
<!-- Node3 -->
<g id="node2" class="node"><title>Node3</title>
<g id="a_node2"><a xlink:href="sph__blake_8h.html" target="_top" xlink:title="BLAKE interface. ">
<polygon fill="white" stroke="black" points="5.50325,-280.5 5.50325,-299.5 121.503,-299.5 121.503,-280.5 5.50325,-280.5"/>
<text text-anchor="middle" x="63.5032" y="-287.5" font-family="Helvetica,sans-Serif" font-size="10.00">src/crypto/sph_blake.h</text>
</a>
</g>
</g>
<!-- Node2&#45;&gt;Node3 -->
<g id="edge1" class="edge"><title>Node2&#45;&gt;Node3</title>
<path fill="none" stroke="midnightblue" d="M726.928,-341.854C606.179,-335.981 347.812,-321.924 130.503,-300 127.584,-299.705 124.596,-299.383 121.58,-299.04"/>
<polygon fill="midnightblue" stroke="midnightblue" points="726.973,-345.36 737.131,-342.347 727.311,-338.368 726.973,-345.36"/>
</g>
<!-- Node197 -->
<g id="node30" class="node"><title>Node197</title>
<g id="a_node30"><a xlink:href="sph__bmw_8h.html" target="_top" xlink:title="BMW interface. ">
<polygon fill="white" stroke="black" points="140.003,-280.5 140.003,-299.5 253.003,-299.5 253.003,-280.5 140.003,-280.5"/>
<text text-anchor="middle" x="196.503" y="-287.5" font-family="Helvetica,sans-Serif" font-size="10.00">src/crypto/sph_bmw.h</text>
</a>
</g>
</g>
<!-- Node2&#45;&gt;Node197 -->
<g id="edge41" class="edge"><title>Node2&#45;&gt;Node197</title>
<path fill="none" stroke="midnightblue" d="M727.326,-340.369C625.857,-333.221 429.157,-318.386 262.503,-300 259.4,-299.658 256.217,-299.287 253.005,-298.899"/>
<polygon fill="midnightblue" stroke="midnightblue" points="727.219,-343.87 737.439,-341.078 727.708,-336.887 727.219,-343.87"/>
</g>
<!-- Node199 -->
<g id="node32" class="node"><title>Node199</title>
<g id="a_node32"><a xlink:href="sph__groestl_8h.html" target="_top" xlink:title="Groestl interface. ">
<polygon fill="white" stroke="black" points="271.503,-280.5 271.503,-299.5 393.503,-299.5 393.503,-280.5 271.503,-280.5"/>
<text text-anchor="middle" x="332.503" y="-287.5" font-family="Helvetica,sans-Serif" font-size="10.00">src/crypto/sph_groestl.h</text>
</a>
</g>
</g>
<!-- Node2&#45;&gt;Node199 -->
<g id="edge44" class="edge"><title>Node2&#45;&gt;Node199</title>
<path fill="none" stroke="midnightblue" d="M726.977,-337.445C648.53,-328.728 516.191,-313.817 402.503,-300 399.584,-299.645 396.597,-299.278 393.58,-298.903"/>
<polygon fill="midnightblue" stroke="midnightblue" points="726.886,-340.956 737.211,-338.581 727.659,-333.999 726.886,-340.956"/>
</g>
<!-- Node201 -->
<g id="node34" class="node"><title>Node201</title>
<g id="a_node34"><a xlink:href="sph__jh_8h.html" target="_top" xlink:title="JH interface. ">
<polygon fill="white" stroke="black" points="411.503,-280.5 411.503,-299.5 511.503,-299.5 511.503,-280.5 411.503,-280.5"/>
<text text-anchor="middle" x="461.503" y="-287.5" font-family="Helvetica,sans-Serif" font-size="10.00">src/crypto/sph_jh.h</text>
</a>
</g>
</g>
<!-- Node2&#45;&gt;Node201 -->
<g id="edge47" class="edge"><title>Node2&#45;&gt;Node201</title>
<path fill="none" stroke="midnightblue" d="M732.613,-334.832C668.624,-324.487 570.711,-308.656 511.722,-299.119"/>
<polygon fill="midnightblue" stroke="midnightblue" points="732.149,-338.303 742.58,-336.444 733.267,-331.392 732.149,-338.303"/>
</g>
<!-- Node203 -->
<g id="node36" class="node"><title>Node203</title>
<g id="a_node36"><a xlink:href="sph__keccak_8h.html" target="_top" xlink:title="Keccak interface. ">
<polygon fill="white" stroke="black" points="529.503,-280.5 529.503,-299.5 653.503,-299.5 653.503,-280.5 529.503,-280.5"/>
<text text-anchor="middle" x="591.503" y="-287.5" font-family="Helvetica,sans-Serif" font-size="10.00">src/crypto/sph_keccak.h</text>
</a>
</g>
</g>
<!-- Node2&#45;&gt;Node203 -->
<g id="edge50" class="edge"><title>Node2&#45;&gt;Node203</title>
<path fill="none" stroke="midnightblue" d="M753.302,-333.829C714.785,-323.633 658.681,-308.782 623.676,-299.516"/>
<polygon fill="midnightblue" stroke="midnightblue" points="752.616,-337.268 763.179,-336.444 754.407,-330.501 752.616,-337.268"/>
</g>
<!-- Node205 -->
<g id="node38" class="node"><title>Node205</title>
<g id="a_node38"><a xlink:href="sph__skein_8h.html" target="_top" xlink:title="Skein interface. ">
<polygon fill="white" stroke="black" points="671.503,-280.5 671.503,-299.5 787.503,-299.5 787.503,-280.5 671.503,-280.5"/>
<text text-anchor="middle" x="729.503" y="-287.5" font-family="Helvetica,sans-Serif" font-size="10.00">src/crypto/sph_skein.h</text>
</a>
</g>
</g>
<!-- Node2&#45;&gt;Node205 -->
<g id="edge53" class="edge"><title>Node2&#45;&gt;Node205</title>
<path fill="none" stroke="midnightblue" d="M776.95,-329.82C765.125,-320.145 750.218,-307.948 740.3,-299.834"/>
<polygon fill="midnightblue" stroke="midnightblue" points="774.943,-332.7 784.899,-336.324 779.376,-327.283 774.943,-332.7"/>
</g>
<!-- Node207 -->
<g id="node40" class="node"><title>Node207</title>
<g id="a_node40"><a xlink:href="sph__luffa_8h.html" target="_top" xlink:title="Luffa interface. ">
<polygon fill="white" stroke="black" points="806.003,-280.5 806.003,-299.5 917.003,-299.5 917.003,-280.5 806.003,-280.5"/>
<text text-anchor="middle" x="861.503" y="-287.5" font-family="Helvetica,sans-Serif" font-size="10.00">src/crypto/sph_luffa.h</text>
</a>
</g>
</g>
<!-- Node2&#45;&gt;Node207 -->
<g id="edge56" class="edge"><title>Node2&#45;&gt;Node207</title>
<path fill="none" stroke="midnightblue" d="M814.057,-329.82C825.881,-320.145 840.789,-307.948 850.706,-299.834"/>
<polygon fill="midnightblue" stroke="midnightblue" points="811.631,-327.283 806.107,-336.324 816.063,-332.7 811.631,-327.283"/>
</g>
<!-- Node209 -->
<g id="node42" class="node"><title>Node209</title>
<g id="a_node42"><a xlink:href="sph__cubehash_8h.html" target="_top" xlink:title="CubeHash interface. ">
<polygon fill="white" stroke="black" points="935.503,-280.5 935.503,-299.5 1069.5,-299.5 1069.5,-280.5 935.503,-280.5"/>
<text text-anchor="middle" x="1002.5" y="-287.5" font-family="Helvetica,sans-Serif" font-size="10.00">src/crypto/sph_cubehash.h</text>
</a>
</g>
</g>
<!-- Node2&#45;&gt;Node209 -->
<g id="edge59" class="edge"><title>Node2&#45;&gt;Node209</title>
<path fill="none" stroke="midnightblue" d="M838.325,-333.829C877.409,-323.633 934.338,-308.782 969.857,-299.516"/>
<polygon fill="midnightblue" stroke="midnightblue" points="837.096,-330.533 828.303,-336.444 838.863,-337.306 837.096,-330.533"/>
</g>
<!-- Node211 -->
<g id="node44" class="node"><title>Node211</title>
<g id="a_node44"><a xlink:href="sph__shavite_8h.html" target="_top" xlink:title="SHAvite&#45;3 interface. ">
<polygon fill="white" stroke="black" points="1219.5,-280.5 1219.5,-299.5 1343.5,-299.5 1343.5,-280.5 1219.5,-280.5"/>
<text text-anchor="middle" x="1281.5" y="-287.5" font-family="Helvetica,sans-Serif" font-size="10.00">src/crypto/sph_shavite.h</text>
</a>
</g>
</g>
<!-- Node2&#45;&gt;Node211 -->
<g id="edge62" class="edge"><title>Node2&#45;&gt;Node211</title>
<path fill="none" stroke="midnightblue" d="M863.768,-337.92C945.868,-329.326 1087.83,-314.216 1209.5,-300 1212.76,-299.62 1216.09,-299.224 1219.46,-298.82"/>
<polygon fill="midnightblue" stroke="midnightblue" points="863.396,-334.44 853.814,-338.961 864.124,-341.402 863.396,-334.44"/>
</g>
<!-- Node213 -->
<g id="node46" class="node"><title>Node213</title>
<g id="a_node46"><a xlink:href="sph__simd_8h.html" target="_top" xlink:title="SIMD interface. ">
<polygon fill="white" stroke="black" points="1088,-280.5 1088,-299.5 1201,-299.5 1201,-280.5 1088,-280.5"/>
<text text-anchor="middle" x="1144.5" y="-287.5" font-family="Helvetica,sans-Serif" font-size="10.00">src/crypto/sph_simd.h</text>
</a>
</g>
</g>
<!-- Node2&#45;&gt;Node213 -->
<g id="edge65" class="edge"><title>Node2&#45;&gt;Node213</title>
<path fill="none" stroke="midnightblue" d="M861.078,-334.854C927.018,-324.651 1027.54,-309.098 1089.46,-299.516"/>
<polygon fill="midnightblue" stroke="midnightblue" points="860.151,-331.456 850.803,-336.444 861.221,-338.373 860.151,-331.456"/>
</g>
<!-- Node215 -->
<g id="node48" class="node"><title>Node215</title>
<g id="a_node48"><a xlink:href="sph__echo_8h.html" target="_top" xlink:title="ECHO interface. ">
<polygon fill="white" stroke="black" points="1362,-280.5 1362,-299.5 1475,-299.5 1475,-280.5 1362,-280.5"/>
<text text-anchor="middle" x="1418.5" y="-287.5" font-family="Helvetica,sans-Serif" font-size="10.00">src/crypto/sph_echo.h</text>
</a>
</g>
</g>
<!-- Node2&#45;&gt;Node215 -->
<g id="edge68" class="edge"><title>Node2&#45;&gt;Node215</title>
<path fill="none" stroke="midnightblue" d="M863.772,-340.639C968.753,-333.671 1176.08,-318.868 1351.5,-300 1354.89,-299.636 1358.36,-299.239 1361.87,-298.821"/>
<polygon fill="midnightblue" stroke="midnightblue" points="863.378,-337.158 853.63,-341.309 863.839,-344.143 863.378,-337.158"/>
</g>
<!-- Node217 -->
<g id="node50" class="node"><title>Node217</title>
<g id="a_node50"><a xlink:href="aes__helper_8c.html" target="_top" xlink:title="src/crypto/aes_helper.c">
<polygon fill="white" stroke="black" points="1493,-280.5 1493,-299.5 1612,-299.5 1612,-280.5 1493,-280.5"/>
<text text-anchor="middle" x="1552.5" y="-287.5" font-family="Helvetica,sans-Serif" font-size="10.00">src/crypto/aes_helper.c</text>
</a>
</g>
</g>
<!-- Node2&#45;&gt;Node217 -->
<g id="edge71" class="edge"><title>Node2&#45;&gt;Node217</title>
<path fill="none" stroke="midnightblue" d="M863.677,-341.998C987.375,-336.227 1256.97,-322.159 1483.5,-300 1486.51,-299.706 1489.59,-299.384 1492.69,-299.041"/>
<polygon fill="midnightblue" stroke="midnightblue" points="863.422,-338.506 853.594,-342.465 863.746,-345.499 863.422,-338.506"/>
</g>
<!-- Node4 -->
<g id="node3" class="node"><title>Node4</title>
<g id="a_node3"><a xlink:href="hash_8h.html" target="_top" xlink:title="src/hash.h">
<polygon fill="white" stroke="black" points="755.503,-224.5 755.503,-243.5 817.503,-243.5 817.503,-224.5 755.503,-224.5"/>
<text text-anchor="middle" x="786.503" y="-231.5" font-family="Helvetica,sans-Serif" font-size="10.00">src/hash.h</text>
</a>
</g>
</g>
<!-- Node3&#45;&gt;Node4 -->
<g id="edge2" class="edge"><title>Node3&#45;&gt;Node4</title>
<path fill="none" stroke="midnightblue" d="M131.791,-279.957C404.813,-254.422 477.589,-281.011 745.503,-244 748.68,-243.561 751.975,-243.007 755.255,-242.391"/>
<polygon fill="midnightblue" stroke="midnightblue" points="131.201,-276.497 121.577,-280.928 131.863,-283.466 131.201,-276.497"/>
</g>
<!-- Node196 -->
<g id="node29" class="node"><title>Node196</title>
<g id="a_node29"><a xlink:href="blake_8c.html" target="_top" xlink:title="src/crypto/blake.c">
<polygon fill="white" stroke="black" points="16.0032,-224.5 16.0032,-243.5 111.003,-243.5 111.003,-224.5 16.0032,-224.5"/>
<text text-anchor="middle" x="63.5032" y="-231.5" font-family="Helvetica,sans-Serif" font-size="10.00">src/crypto/blake.c</text>
</a>
</g>
</g>
<!-- Node3&#45;&gt;Node196 -->
<g id="edge40" class="edge"><title>Node3&#45;&gt;Node196</title>
<path fill="none" stroke="midnightblue" d="M63.5032,-269.805C63.5032,-260.91 63.5032,-250.78 63.5032,-243.751"/>
<polygon fill="midnightblue" stroke="midnightblue" points="60.0033,-270.083 63.5032,-280.083 67.0033,-270.083 60.0033,-270.083"/>
</g>
<!-- Node5 -->
<g id="node4" class="node"><title>Node5</title>
<g id="a_node4"><a xlink:href="pubkey_8h.html" target="_top" xlink:title="src/pubkey.h">
<polygon fill="white" stroke="red" points="262.003,-168.5 262.003,-187.5 335.003,-187.5 335.003,-168.5 262.003,-168.5"/>
<text text-anchor="middle" x="298.503" y="-175.5" font-family="Helvetica,sans-Serif" font-size="10.00">src/pubkey.h</text>
</a>
</g>
</g>
<!-- Node4&#45;&gt;Node5 -->
<g id="edge3" class="edge"><title>Node4&#45;&gt;Node5</title>
<path fill="none" stroke="midnightblue" d="M744.893,-224.104C582.736,-198.734 539.31,-204.546 380.503,-188 365.689,-186.457 349.378,-184.682 335.232,-183.118"/>
<polygon fill="midnightblue" stroke="midnightblue" points="744.812,-227.635 755.236,-225.739 745.905,-220.72 744.812,-227.635"/>
</g>
<!-- Node41 -->
<g id="node6" class="node"><title>Node41</title>
<g id="a_node6"><a xlink:href="spork_8h.html" target="_top" xlink:title="src/spork.h">
<polygon fill="white" stroke="red" points="391.003,-56.5 391.003,-75.5 456.003,-75.5 456.003,-56.5 391.003,-56.5"/>
<text text-anchor="middle" x="423.503" y="-63.5" font-family="Helvetica,sans-Serif" font-size="10.00">src/spork.h</text>
</a>
</g>
</g>
<!-- Node4&#45;&gt;Node41 -->
<g id="edge20" class="edge"><title>Node4&#45;&gt;Node41</title>
<path fill="none" stroke="midnightblue" d="M745.17,-224.309C670.133,-214.418 516.816,-224.333 470.503,-188 433.978,-159.345 425.802,-98.4564 424.002,-75.765"/>
<polygon fill="midnightblue" stroke="midnightblue" points="744.805,-227.794 755.219,-225.843 745.861,-220.874 744.805,-227.794"/>
</g>
<!-- Node28 -->
<g id="node7" class="node"><title>Node28</title>
<g id="a_node7"><a xlink:href="net__processing_8cpp.html" target="_top" xlink:title="src/net_processing.cpp">
<polygon fill="white" stroke="black" points="425.503,-0.5 425.503,-19.5 543.503,-19.5 543.503,-0.5 425.503,-0.5"/>
<text text-anchor="middle" x="484.503" y="-7.5" font-family="Helvetica,sans-Serif" font-size="10.00">src/net_processing.cpp</text>
</a>
</g>
</g>
<!-- Node4&#45;&gt;Node28 -->
<g id="edge33" class="edge"><title>Node4&#45;&gt;Node28</title>
<path fill="none" stroke="midnightblue" d="M744.932,-224.294C676.999,-215.357 539.245,-225.229 503.503,-188 457.699,-140.29 475.197,-48.6592 482.171,-19.8769"/>
<polygon fill="midnightblue" stroke="midnightblue" points="744.788,-227.814 755.209,-225.899 745.869,-220.897 744.788,-227.814"/>
</g>
<!-- Node31 -->
<g id="node8" class="node"><title>Node31</title>
<g id="a_node8"><a xlink:href="validation_8cpp.html" target="_top" xlink:title="src/validation.cpp">
<polygon fill="white" stroke="black" points="154.003,-0.5 154.003,-19.5 247.003,-19.5 247.003,-0.5 154.003,-0.5"/>
<text text-anchor="middle" x="200.503" y="-7.5" font-family="Helvetica,sans-Serif" font-size="10.00">src/validation.cpp</text>
</a>
</g>
</g>
<!-- Node4&#45;&gt;Node31 -->
<g id="edge38" class="edge"><title>Node4&#45;&gt;Node31</title>
<path fill="none" stroke="midnightblue" d="M745.208,-224.475C633.544,-214.316 120.486,-222.221 54.5032,-188 0.915501,-160.208 -19.3953,-99.4576 22.5032,-56 40.4787,-37.3556 107.355,-24.2491 153.808,-17.1623"/>
<polygon fill="midnightblue" stroke="midnightblue" points="744.934,-227.966 755.258,-225.588 745.704,-221.008 744.934,-227.966"/>
</g>
<!-- Node131 -->
<g id="node10" class="node"><title>Node131</title>
<g id="a_node10"><a xlink:href="txmempool_8cpp.html" target="_top" xlink:title="src/txmempool.cpp">
<polygon fill="white" stroke="black" points="31.5032,-56.5 31.5032,-75.5 131.503,-75.5 131.503,-56.5 31.5032,-56.5"/>
<text text-anchor="middle" x="81.5032" y="-63.5" font-family="Helvetica,sans-Serif" font-size="10.00">src/txmempool.cpp</text>
</a>
</g>
</g>
<!-- Node4&#45;&gt;Node131 -->
<g id="edge37" class="edge"><title>Node4&#45;&gt;Node131</title>
<path fill="none" stroke="midnightblue" d="M745.197,-224.229C496.714,-190.382 427.007,-235.416 185.503,-188 108.686,-172.918 64.2197,-195.548 18.5032,-132 2.4426,-109.675 37.7798,-87.4978 61.7495,-75.699"/>
<polygon fill="midnightblue" stroke="midnightblue" points="744.866,-227.716 755.253,-225.628 745.831,-220.783 744.866,-227.716"/>
</g>
<!-- Node147 -->
<g id="node11" class="node"><title>Node147</title>
<g id="a_node11"><a xlink:href="compressor_8cpp.html" target="_top" xlink:title="src/compressor.cpp">
<polygon fill="white" stroke="black" points="28.0032,-112.5 28.0032,-131.5 131.003,-131.5 131.003,-112.5 28.0032,-112.5"/>
<text text-anchor="middle" x="79.5032" y="-119.5" font-family="Helvetica,sans-Serif" font-size="10.00">src/compressor.cpp</text>
</a>
</g>
</g>
<!-- Node4&#45;&gt;Node147 -->
<g id="edge26" class="edge"><title>Node4&#45;&gt;Node147</title>
<path fill="none" stroke="midnightblue" d="M745.047,-224.196C526.216,-193.641 463.838,-234.405 252.503,-188 193.588,-175.063 127.904,-146.072 97.1669,-131.584"/>
<polygon fill="midnightblue" stroke="midnightblue" points="744.854,-227.704 755.249,-225.656 745.845,-220.775 744.854,-227.704"/>
</g>
<!-- Node150 -->
<g id="node12" class="node"><title>Node150</title>
<g id="a_node12"><a xlink:href="hash_8cpp.html" target="_top" xlink:title="src/hash.cpp">
<polygon fill="white" stroke="black" points="345.003,-112.5 345.003,-131.5 418.003,-131.5 418.003,-112.5 345.003,-112.5"/>
<text text-anchor="middle" x="381.503" y="-119.5" font-family="Helvetica,sans-Serif" font-size="10.00">src/hash.cpp</text>
</a>
</g>
</g>
<!-- Node4&#45;&gt;Node150 -->
<g id="edge28" class="edge"><title>Node4&#45;&gt;Node150</title>
<path fill="none" stroke="midnightblue" d="M744.987,-224.175C604.877,-203.488 551.847,-254.758 432.503,-188 408.969,-174.836 392.496,-145.951 385.405,-131.536"/>
<polygon fill="midnightblue" stroke="midnightblue" points="744.804,-227.69 755.228,-225.792 745.896,-220.775 744.804,-227.69"/>
</g>
<!-- Node156 -->
<g id="node13" class="node"><title>Node156</title>
<g id="a_node13"><a xlink:href="net_8h.html" target="_top" xlink:title="src/net.h">
<polygon fill="white" stroke="red" points="513.003,-168.5 513.003,-187.5 568.003,-187.5 568.003,-168.5 513.003,-168.5"/>
<text text-anchor="middle" x="540.503" y="-175.5" font-family="Helvetica,sans-Serif" font-size="10.00">src/net.h</text>
</a>
</g>
</g>
<!-- Node4&#45;&gt;Node156 -->
<g id="edge13" class="edge"><title>Node4&#45;&gt;Node156</title>
<path fill="none" stroke="midnightblue" d="M745.066,-223.923C668.78,-207.541 648.253,-204.605 576.503,-188 573.867,-187.39 571.127,-186.738 568.388,-186.074"/>
<polygon fill="midnightblue" stroke="midnightblue" points="744.655,-227.415 755.168,-226.101 746.131,-220.572 744.655,-227.415"/>
</g>
<!-- Node33 -->
<g id="node14" class="node"><title>Node33</title>
<g id="a_node14"><a xlink:href="miner_8cpp.html" target="_top" xlink:title="src/miner.cpp">
<polygon fill="white" stroke="black" points="588.503,-112.5 588.503,-131.5 664.503,-131.5 664.503,-112.5 588.503,-112.5"/>
<text text-anchor="middle" x="626.503" y="-119.5" font-family="Helvetica,sans-Serif" font-size="10.00">src/miner.cpp</text>
</a>
</g>
</g>
<!-- Node4&#45;&gt;Node33 -->
<g id="edge31" class="edge"><title>Node4&#45;&gt;Node33</title>
<path fill="none" stroke="midnightblue" d="M765.292,-218.417C731.451,-195.151 666.285,-150.35 639,-131.591"/>
<polygon fill="midnightblue" stroke="midnightblue" points="763.725,-221.587 773.948,-224.368 767.691,-215.819 763.725,-221.587"/>
</g>
<!-- Node27 -->
<g id="node15" class="node"><title>Node27</title>
<g id="a_node15"><a xlink:href="net_8cpp.html" target="_top" xlink:title="src/net.cpp">
<polygon fill="white" stroke="black" points="684.003,-112.5 684.003,-131.5 749.003,-131.5 749.003,-112.5 684.003,-112.5"/>
<text text-anchor="middle" x="716.503" y="-119.5" font-family="Helvetica,sans-Serif" font-size="10.00">src/net.cpp</text>
</a>
</g>
</g>
<!-- Node4&#45;&gt;Node27 -->
<g id="edge32" class="edge"><title>Node4&#45;&gt;Node27</title>
<path fill="none" stroke="midnightblue" d="M765.626,-218.456C755.562,-210.493 744.065,-199.843 736.503,-188 724.939,-169.888 719.709,-144.676 717.652,-131.614"/>
<polygon fill="midnightblue" stroke="midnightblue" points="763.532,-221.26 773.625,-224.481 767.743,-215.669 763.532,-221.26"/>
</g>
<!-- Node171 -->
<g id="node16" class="node"><title>Node171</title>
<g id="a_node16"><a xlink:href="coins_8h.html" target="_top" xlink:title="src/coins.h">
<polygon fill="white" stroke="red" points="586.003,-168.5 586.003,-187.5 651.003,-187.5 651.003,-168.5 586.003,-168.5"/>
<text text-anchor="middle" x="618.503" y="-175.5" font-family="Helvetica,sans-Serif" font-size="10.00">src/coins.h</text>
</a>
</g>
</g>
<!-- Node4&#45;&gt;Node171 -->
<g id="edge18" class="edge"><title>Node4&#45;&gt;Node171</title>
<path fill="none" stroke="midnightblue" d="M750.117,-221.304C718.461,-211.129 673.335,-196.625 644.999,-187.516"/>
<polygon fill="midnightblue" stroke="midnightblue" points="749.292,-224.715 759.883,-224.444 751.434,-218.051 749.292,-224.715"/>
</g>
<!-- Node188 -->
<g id="node17" class="node"><title>Node188</title>
<g id="a_node17"><a xlink:href="addrdb_8cpp.html" target="_top" xlink:title="src/addrdb.cpp">
<polygon fill="white" stroke="black" points="746.003,-168.5 746.003,-187.5 827.003,-187.5 827.003,-168.5 746.003,-168.5"/>
<text text-anchor="middle" x="786.503" y="-175.5" font-family="Helvetica,sans-Serif" font-size="10.00">src/addrdb.cpp</text>
</a>
</g>
</g>
<!-- Node4&#45;&gt;Node188 -->
<g id="edge21" class="edge"><title>Node4&#45;&gt;Node188</title>
<path fill="none" stroke="midnightblue" d="M786.503,-213.805C786.503,-204.91 786.503,-194.78 786.503,-187.751"/>
<polygon fill="midnightblue" stroke="midnightblue" points="783.003,-214.083 786.503,-224.083 790.003,-214.083 783.003,-214.083"/>
</g>
<!-- Node189 -->
<g id="node18" class="node"><title>Node189</title>
<g id="a_node18"><a xlink:href="addrman_8cpp.html" target="_top" xlink:title="src/addrman.cpp">
<polygon fill="white" stroke="black" points="845.003,-168.5 845.003,-187.5 934.003,-187.5 934.003,-168.5 845.003,-168.5"/>
<text text-anchor="middle" x="889.503" y="-175.5" font-family="Helvetica,sans-Serif" font-size="10.00">src/addrman.cpp</text>
</a>
</g>
</g>
<!-- Node4&#45;&gt;Node189 -->
<g id="edge22" class="edge"><title>Node4&#45;&gt;Node189</title>
<path fill="none" stroke="midnightblue" d="M812.082,-219.59C831.127,-209.605 856.568,-196.267 872.996,-187.655"/>
<polygon fill="midnightblue" stroke="midnightblue" points="810.283,-216.581 803.052,-224.324 813.534,-222.78 810.283,-216.581"/>
</g>
<!-- Node47 -->
<g id="node19" class="node"><title>Node47</title>
<g id="a_node19"><a xlink:href="base58_8cpp.html" target="_top" xlink:title="src/base58.cpp">
<polygon fill="white" stroke="black" points="952.003,-168.5 952.003,-187.5 1035,-187.5 1035,-168.5 952.003,-168.5"/>
<text text-anchor="middle" x="993.503" y="-175.5" font-family="Helvetica,sans-Serif" font-size="10.00">src/base58.cpp</text>
</a>
</g>
</g>
<!-- Node4&#45;&gt;Node47 -->
<g id="edge23" class="edge"><title>Node4&#45;&gt;Node47</title>
<path fill="none" stroke="midnightblue" d="M827.939,-222.191C867.011,-211.998 924.791,-196.925 960.741,-187.547"/>
<polygon fill="midnightblue" stroke="midnightblue" points="826.735,-218.888 817.942,-224.799 828.502,-225.661 826.735,-218.888"/>
</g>
<!-- Node176 -->
<g id="node20" class="node"><title>Node176</title>
<g id="a_node20"><a xlink:href="blockencodings_8cpp.html" target="_top" xlink:title="src/blockencodings.cpp">
<polygon fill="white" stroke="black" points="1053,-168.5 1053,-187.5 1172,-187.5 1172,-168.5 1053,-168.5"/>
<text text-anchor="middle" x="1112.5" y="-175.5" font-family="Helvetica,sans-Serif" font-size="10.00">src/blockencodings.cpp</text>
</a>
</g>
</g>
<!-- Node4&#45;&gt;Node176 -->
<g id="edge24" class="edge"><title>Node4&#45;&gt;Node176</title>
<path fill="none" stroke="midnightblue" d="M827.802,-223.847C911.233,-208.097 997.092,-195.182 1052.88,-187.225"/>
<polygon fill="midnightblue" stroke="midnightblue" points="827.075,-220.423 817.906,-225.731 828.384,-227.299 827.075,-220.423"/>
</g>
<!-- Node190 -->
<g id="node21" class="node"><title>Node190</title>
<g id="a_node21"><a xlink:href="bloom_8cpp.html" target="_top" xlink:title="src/bloom.cpp">
<polygon fill="white" stroke="black" points="1190.5,-168.5 1190.5,-187.5 1268.5,-187.5 1268.5,-168.5 1190.5,-168.5"/>
<text text-anchor="middle" x="1229.5" y="-175.5" font-family="Helvetica,sans-Serif" font-size="10.00">src/bloom.cpp</text>
</a>
</g>
</g>
<!-- Node4&#45;&gt;Node190 -->
<g id="edge25" class="edge"><title>Node4&#45;&gt;Node190</title>
<path fill="none" stroke="midnightblue" d="M827.857,-223.956C984.339,-199.063 1027.15,-209.845 1180.5,-188 1183.76,-187.536 1187.12,-187.012 1190.5,-186.456"/>
<polygon fill="midnightblue" stroke="midnightblue" points="827.191,-220.518 817.877,-225.567 828.307,-227.429 827.191,-220.518"/>
</g>
<!-- Node191 -->
<g id="node22" class="node"><title>Node191</title>
<g id="a_node22"><a xlink:href="flat-database_8h.html" target="_top" xlink:title="src/flat&#45;database.h">
<polygon fill="white" stroke="red" points="1286.5,-168.5 1286.5,-187.5 1384.5,-187.5 1384.5,-168.5 1286.5,-168.5"/>
<text text-anchor="middle" x="1335.5" y="-175.5" font-family="Helvetica,sans-Serif" font-size="10.00">src/flat&#45;database.h</text>
</a>
</g>
</g>
<!-- Node4&#45;&gt;Node191 -->
<g id="edge27" class="edge"><title>Node4&#45;&gt;Node191</title>
<path fill="none" stroke="midnightblue" d="M827.775,-224.01C1027.04,-194.41 1081.01,-211.055 1277.5,-188 1280.44,-187.656 1283.45,-187.274 1286.49,-186.867"/>
<polygon fill="midnightblue" stroke="midnightblue" points="827.234,-220.552 817.867,-225.502 828.276,-227.474 827.234,-220.552"/>
</g>
<!-- Node192 -->
<g id="node23" class="node"><title>Node192</title>
<g id="a_node23"><a xlink:href="merkleblock_8cpp.html" target="_top" xlink:title="src/merkleblock.cpp">
<polygon fill="white" stroke="black" points="1402.5,-168.5 1402.5,-187.5 1506.5,-187.5 1506.5,-168.5 1402.5,-168.5"/>
<text text-anchor="middle" x="1454.5" y="-175.5" font-family="Helvetica,sans-Serif" font-size="10.00">src/merkleblock.cpp</text>
</a>
</g>
</g>
<!-- Node4&#45;&gt;Node192 -->
<g id="edge29" class="edge"><title>Node4&#45;&gt;Node192</title>
<path fill="none" stroke="midnightblue" d="M827.97,-224.014C1077.78,-188.897 1145.1,-213.782 1392.5,-188 1395.75,-187.662 1399.08,-187.279 1402.45,-186.867"/>
<polygon fill="midnightblue" stroke="midnightblue" points="827.266,-220.579 817.859,-225.454 828.253,-227.509 827.266,-220.579"/>
</g>
<!-- Node58 -->
<g id="node24" class="node"><title>Node58</title>
<g id="a_node24"><a xlink:href="messagesigner_8cpp.html" target="_top" xlink:title="src/messagesigner.cpp">
<polygon fill="white" stroke="black" points="1524.5,-168.5 1524.5,-187.5 1642.5,-187.5 1642.5,-168.5 1524.5,-168.5"/>
<text text-anchor="middle" x="1583.5" y="-175.5" font-family="Helvetica,sans-Serif" font-size="10.00">src/messagesigner.cpp</text>
</a>
</g>
</g>
<!-- Node4&#45;&gt;Node58 -->
<g id="edge30" class="edge"><title>Node4&#45;&gt;Node58</title>
<path fill="none" stroke="midnightblue" d="M827.843,-224.053C1132.02,-182.917 1213.44,-215.837 1515.5,-188 1518.35,-187.738 1521.26,-187.446 1524.2,-187.131"/>
<polygon fill="midnightblue" stroke="midnightblue" points="827.288,-220.596 817.855,-225.42 828.237,-227.532 827.288,-220.596"/>
</g>
<!-- Node193 -->
<g id="node25" class="node"><title>Node193</title>
<g id="a_node25"><a xlink:href="netaddress_8cpp.html" target="_top" xlink:title="src/netaddress.cpp">
<polygon fill="white" stroke="black" points="1660.5,-168.5 1660.5,-187.5 1760.5,-187.5 1760.5,-168.5 1660.5,-168.5"/>
<text text-anchor="middle" x="1710.5" y="-175.5" font-family="Helvetica,sans-Serif" font-size="10.00">src/netaddress.cpp</text>
</a>
</g>
</g>
<!-- Node4&#45;&gt;Node193 -->
<g id="edge34" class="edge"><title>Node4&#45;&gt;Node193</title>
<path fill="none" stroke="midnightblue" d="M827.877,-224.066C1192.06,-176.39 1289.53,-223.402 1651.5,-188 1654.39,-187.718 1657.35,-187.389 1660.34,-187.029"/>
<polygon fill="midnightblue" stroke="midnightblue" points="827.305,-220.611 817.851,-225.394 828.224,-227.551 827.305,-220.611"/>
</g>
<!-- Node194 -->
<g id="node26" class="node"><title>Node194</title>
<g id="a_node26"><a xlink:href="netbase_8cpp.html" target="_top" xlink:title="src/netbase.cpp">
<polygon fill="white" stroke="black" points="1778.5,-168.5 1778.5,-187.5 1864.5,-187.5 1864.5,-168.5 1778.5,-168.5"/>
<text text-anchor="middle" x="1821.5" y="-175.5" font-family="Helvetica,sans-Serif" font-size="10.00">src/netbase.cpp</text>
</a>
</g>
</g>
<!-- Node4&#45;&gt;Node194 -->
<g id="edge35" class="edge"><title>Node4&#45;&gt;Node194</title>
<path fill="none" stroke="midnightblue" d="M828.049,-224.055C1244.19,-170.733 1355.75,-231.508 1769.5,-188 1772.42,-187.693 1775.42,-187.323 1778.43,-186.909"/>
<polygon fill="midnightblue" stroke="midnightblue" points="827.316,-220.621 817.849,-225.377 828.216,-227.563 827.316,-220.621"/>
</g>
<!-- Node187 -->
<g id="node27" class="node"><title>Node187</title>
<g id="a_node27"><a xlink:href="txdb_8cpp.html" target="_top" xlink:title="src/txdb.cpp">
<polygon fill="white" stroke="black" points="1883,-168.5 1883,-187.5 1954,-187.5 1954,-168.5 1883,-168.5"/>
<text text-anchor="middle" x="1918.5" y="-175.5" font-family="Helvetica,sans-Serif" font-size="10.00">src/txdb.cpp</text>
</a>
</g>
</g>
<!-- Node4&#45;&gt;Node187 -->
<g id="edge36" class="edge"><title>Node4&#45;&gt;Node187</title>
<path fill="none" stroke="midnightblue" d="M827.788,-224.097C1290.07,-165.724 1414.29,-241.454 1873.5,-188 1876.51,-187.65 1879.62,-187.206 1882.73,-186.702"/>
<polygon fill="midnightblue" stroke="midnightblue" points="827.324,-220.627 817.847,-225.366 828.21,-227.571 827.324,-220.627"/>
</g>
<!-- Node195 -->
<g id="node28" class="node"><title>Node195</title>
<g id="a_node28"><a xlink:href="warnings_8cpp.html" target="_top" xlink:title="src/warnings.cpp">
<polygon fill="white" stroke="black" points="1972,-168.5 1972,-187.5 2063,-187.5 2063,-168.5 1972,-168.5"/>
<text text-anchor="middle" x="2017.5" y="-175.5" font-family="Helvetica,sans-Serif" font-size="10.00">src/warnings.cpp</text>
</a>
</g>
</g>
<!-- Node4&#45;&gt;Node195 -->
<g id="edge39" class="edge"><title>Node4&#45;&gt;Node195</title>
<path fill="none" stroke="midnightblue" d="M827.878,-224.089C1329.37,-161.276 1463.05,-236.569 1962.5,-188 1965.58,-187.7 1968.76,-187.335 1971.94,-186.925"/>
<polygon fill="midnightblue" stroke="midnightblue" points="827.328,-220.631 817.846,-225.358 828.207,-227.575 827.328,-220.631"/>
</g>
<!-- Node6 -->
<g id="node5" class="node"><title>Node6</title>
<g id="a_node5"><a xlink:href="key_8h.html" target="_top" xlink:title="src/key.h">
<polygon fill="white" stroke="red" points="270.003,-112.5 270.003,-131.5 327.003,-131.5 327.003,-112.5 270.003,-112.5"/>
<text text-anchor="middle" x="298.503" y="-119.5" font-family="Helvetica,sans-Serif" font-size="10.00">src/key.h</text>
</a>
</g>
</g>
<!-- Node5&#45;&gt;Node6 -->
<g id="edge4" class="edge"><title>Node5&#45;&gt;Node6</title>
<path fill="none" stroke="midnightblue" d="M298.503,-157.805C298.503,-148.91 298.503,-138.78 298.503,-131.751"/>
<polygon fill="midnightblue" stroke="midnightblue" points="295.003,-158.083 298.503,-168.083 302.003,-158.083 295.003,-158.083"/>
</g>
<!-- Node127 -->
<g id="node9" class="node"><title>Node127</title>
<g id="a_node9"><a xlink:href="providertx_8h.html" target="_top" xlink:title="src/evo/providertx.h">
<polygon fill="white" stroke="red" points="149.003,-112.5 149.003,-131.5 252.003,-131.5 252.003,-112.5 149.003,-112.5"/>
<text text-anchor="middle" x="200.503" y="-119.5" font-family="Helvetica,sans-Serif" font-size="10.00">src/evo/providertx.h</text>
</a>
</g>
</g>
<!-- Node5&#45;&gt;Node127 -->
<g id="edge8" class="edge"><title>Node5&#45;&gt;Node127</title>
<path fill="none" stroke="midnightblue" d="M273.917,-163.453C255.825,-153.483 231.769,-140.228 216.21,-131.655"/>
<polygon fill="midnightblue" stroke="midnightblue" points="272.31,-166.563 282.758,-168.324 275.689,-160.432 272.31,-166.563"/>
</g>
<!-- Node5&#45;&gt;Node147 -->
<g id="edge11" class="edge"><title>Node5&#45;&gt;Node147</title>
<path fill="none" stroke="midnightblue" d="M253.988,-166.024C212.619,-155.823 151.86,-140.841 114.042,-131.516"/>
<polygon fill="midnightblue" stroke="midnightblue" points="253.255,-169.448 263.802,-168.444 254.931,-162.651 253.255,-169.448"/>
</g>
<!-- Node5&#45;&gt;Node150 -->
<g id="edge12" class="edge"><title>Node5&#45;&gt;Node150</title>
<path fill="none" stroke="midnightblue" d="M320.603,-162.622C335.765,-152.757 355.386,-139.992 368.201,-131.655"/>
<polygon fill="midnightblue" stroke="midnightblue" points="318.312,-159.937 311.839,-168.324 322.129,-165.804 318.312,-159.937"/>
</g>
<!-- Node6&#45;&gt;Node41 -->
<g id="edge5" class="edge"><title>Node6&#45;&gt;Node41</title>
<path fill="none" stroke="midnightblue" d="M327.745,-108.368C351.153,-98.2553 383.344,-84.3486 403.789,-75.5164"/>
<polygon fill="midnightblue" stroke="midnightblue" points="326.102,-105.265 318.31,-112.444 328.878,-111.691 326.102,-105.265"/>
</g>
<!-- Node41&#45;&gt;Node28 -->
<g id="edge6" class="edge"><title>Node41&#45;&gt;Node28</title>
<path fill="none" stroke="midnightblue" d="M440.97,-49.5372C451.847,-39.9087 465.447,-27.8694 474.524,-19.8339"/>
<polygon fill="midnightblue" stroke="midnightblue" points="438.472,-47.0749 433.304,-56.324 443.112,-52.3162 438.472,-47.0749"/>
</g>
<!-- Node41&#45;&gt;Node31 -->
<g id="edge7" class="edge"><title>Node41&#45;&gt;Node31</title>
<path fill="none" stroke="midnightblue" d="M380.643,-54.6213C338.528,-44.423 275.028,-29.0463 235.754,-19.536"/>
<polygon fill="midnightblue" stroke="midnightblue" points="380.056,-58.0802 390.599,-57.0321 381.703,-51.2768 380.056,-58.0802"/>
</g>
<!-- Node127&#45;&gt;Node31 -->
<g id="edge10" class="edge"><title>Node127&#45;&gt;Node31</title>
<path fill="none" stroke="midnightblue" d="M200.503,-102.348C200.503,-78.2538 200.503,-37.3079 200.503,-19.5914"/>
<polygon fill="midnightblue" stroke="midnightblue" points="197.003,-102.368 200.503,-112.368 204.003,-102.369 197.003,-102.368"/>
</g>
<!-- Node127&#45;&gt;Node131 -->
<g id="edge9" class="edge"><title>Node127&#45;&gt;Node131</title>
<path fill="none" stroke="midnightblue" d="M172.367,-108.232C150.107,-98.1312 119.647,-84.3091 100.271,-75.5164"/>
<polygon fill="midnightblue" stroke="midnightblue" points="171.095,-111.498 181.647,-112.444 173.987,-105.124 171.095,-111.498"/>
</g>
<!-- Node156&#45;&gt;Node41 -->
<g id="edge14" class="edge"><title>Node156&#45;&gt;Node41</title>
<path fill="none" stroke="midnightblue" d="M524.029,-161.512C499.029,-138.007 452.338,-94.1096 432.641,-75.5914"/>
<polygon fill="midnightblue" stroke="midnightblue" points="521.639,-164.069 531.322,-168.368 526.434,-158.969 521.639,-164.069"/>
</g>
<!-- Node156&#45;&gt;Node28 -->
<g id="edge17" class="edge"><title>Node156&#45;&gt;Node28</title>
<path fill="none" stroke="midnightblue" d="M534.227,-158.395C522.146,-122.585 496.089,-45.3423 487.394,-19.5681"/>
<polygon fill="midnightblue" stroke="midnightblue" points="530.979,-159.719 537.492,-168.075 537.612,-157.481 530.979,-159.719"/>
</g>
<!-- Node156&#45;&gt;Node33 -->
<g id="edge15" class="edge"><title>Node156&#45;&gt;Node33</title>
<path fill="none" stroke="midnightblue" d="M562.958,-162.901C578.728,-152.999 599.317,-140.071 612.72,-131.655"/>
<polygon fill="midnightblue" stroke="midnightblue" points="560.928,-160.042 554.321,-168.324 564.651,-165.97 560.928,-160.042"/>
</g>
<!-- Node156&#45;&gt;Node27 -->
<g id="edge16" class="edge"><title>Node156&#45;&gt;Node27</title>
<path fill="none" stroke="midnightblue" d="M578.192,-165.436C611.376,-155.255 658.932,-140.664 688.746,-131.516"/>
<polygon fill="midnightblue" stroke="midnightblue" points="576.924,-162.164 568.391,-168.444 578.978,-168.856 576.924,-162.164"/>
</g>
<!-- Node171&#45;&gt;Node33 -->
<g id="edge19" class="edge"><title>Node171&#45;&gt;Node33</title>
<path fill="none" stroke="midnightblue" d="M621.303,-158.101C622.631,-149.136 624.154,-138.858 625.207,-131.751"/>
<polygon fill="midnightblue" stroke="midnightblue" points="617.828,-157.678 619.824,-168.083 624.752,-158.704 617.828,-157.678"/>
</g>
<!-- Node197&#45;&gt;Node4 -->
<g id="edge42" class="edge"><title>Node197&#45;&gt;Node4</title>
<path fill="none" stroke="midnightblue" d="M263.381,-279.98C478.31,-257.972 535.732,-274.683 745.503,-244 748.676,-243.536 751.969,-242.965 755.248,-242.339"/>
<polygon fill="midnightblue" stroke="midnightblue" points="262.942,-276.507 253.358,-281.022 263.667,-283.469 262.942,-276.507"/>
</g>
<!-- Node198 -->
<g id="node31" class="node"><title>Node198</title>
<g id="a_node31"><a xlink:href="bmw_8c.html" target="_top" xlink:title="src/crypto/bmw.c">
<polygon fill="white" stroke="black" points="150.503,-224.5 150.503,-243.5 242.503,-243.5 242.503,-224.5 150.503,-224.5"/>
<text text-anchor="middle" x="196.503" y="-231.5" font-family="Helvetica,sans-Serif" font-size="10.00">src/crypto/bmw.c</text>
</a>
</g>
</g>
<!-- Node197&#45;&gt;Node198 -->
<g id="edge43" class="edge"><title>Node197&#45;&gt;Node198</title>
<path fill="none" stroke="midnightblue" d="M196.503,-269.805C196.503,-260.91 196.503,-250.78 196.503,-243.751"/>
<polygon fill="midnightblue" stroke="midnightblue" points="193.003,-270.083 196.503,-280.083 200.003,-270.083 193.003,-270.083"/>
</g>
<!-- Node199&#45;&gt;Node4 -->
<g id="edge45" class="edge"><title>Node199&#45;&gt;Node4</title>
<path fill="none" stroke="midnightblue" d="M403.798,-279.883C556.497,-262.48 597.438,-267.945 745.503,-244 748.669,-243.488 751.957,-242.886 755.233,-242.241"/>
<polygon fill="midnightblue" stroke="midnightblue" points="403.109,-276.439 393.576,-281.063 403.912,-283.393 403.109,-276.439"/>
</g>
<!-- Node200 -->
<g id="node33" class="node"><title>Node200</title>
<g id="a_node33"><a xlink:href="groestl_8c.html" target="_top" xlink:title="src/crypto/groestl.c">
<polygon fill="white" stroke="black" points="282.003,-224.5 282.003,-243.5 383.003,-243.5 383.003,-224.5 282.003,-224.5"/>
<text text-anchor="middle" x="332.503" y="-231.5" font-family="Helvetica,sans-Serif" font-size="10.00">src/crypto/groestl.c</text>
</a>
</g>
</g>
<!-- Node199&#45;&gt;Node200 -->
<g id="edge46" class="edge"><title>Node199&#45;&gt;Node200</title>
<path fill="none" stroke="midnightblue" d="M332.503,-269.805C332.503,-260.91 332.503,-250.78 332.503,-243.751"/>
<polygon fill="midnightblue" stroke="midnightblue" points="329.003,-270.083 332.503,-280.083 336.003,-270.083 329.003,-270.083"/>
</g>
<!-- Node201&#45;&gt;Node4 -->
<g id="edge48" class="edge"><title>Node201&#45;&gt;Node4</title>
<path fill="none" stroke="midnightblue" d="M521.553,-279.678C598.33,-267.73 723.967,-248.066 745.503,-244 748.654,-243.405 751.933,-242.749 755.203,-242.07"/>
<polygon fill="midnightblue" stroke="midnightblue" points="520.864,-276.243 511.521,-281.239 521.94,-283.16 520.864,-276.243"/>
</g>
<!-- Node202 -->
<g id="node35" class="node"><title>Node202</title>
<g id="a_node35"><a xlink:href="jh_8c.html" target="_top" xlink:title="src/crypto/jh.c">
<polygon fill="white" stroke="black" points="422.003,-224.5 422.003,-243.5 501.003,-243.5 501.003,-224.5 422.003,-224.5"/>
<text text-anchor="middle" x="461.503" y="-231.5" font-family="Helvetica,sans-Serif" font-size="10.00">src/crypto/jh.c</text>
</a>
</g>
</g>
<!-- Node201&#45;&gt;Node202 -->
<g id="edge49" class="edge"><title>Node201&#45;&gt;Node202</title>
<path fill="none" stroke="midnightblue" d="M461.503,-269.805C461.503,-260.91 461.503,-250.78 461.503,-243.751"/>
<polygon fill="midnightblue" stroke="midnightblue" points="458.003,-270.083 461.503,-280.083 465.003,-270.083 458.003,-270.083"/>
</g>
<!-- Node203&#45;&gt;Node4 -->
<g id="edge51" class="edge"><title>Node203&#45;&gt;Node4</title>
<path fill="none" stroke="midnightblue" d="M632.314,-277.699C669.117,-267.507 722.432,-252.743 755.749,-243.516"/>
<polygon fill="midnightblue" stroke="midnightblue" points="631.105,-274.402 622.402,-280.444 632.973,-281.148 631.105,-274.402"/>
</g>
<!-- Node204 -->
<g id="node37" class="node"><title>Node204</title>
<g id="a_node37"><a xlink:href="keccak_8c.html" target="_top" xlink:title="src/crypto/keccak.c">
<polygon fill="white" stroke="black" points="521.003,-224.5 521.003,-243.5 624.003,-243.5 624.003,-224.5 521.003,-224.5"/>
<text text-anchor="middle" x="572.503" y="-231.5" font-family="Helvetica,sans-Serif" font-size="10.00">src/crypto/keccak.c</text>
</a>
</g>
</g>
<!-- Node203&#45;&gt;Node204 -->
<g id="edge52" class="edge"><title>Node203&#45;&gt;Node204</title>
<path fill="none" stroke="midnightblue" d="M584.957,-270.396C581.779,-261.362 578.11,-250.936 575.582,-243.751"/>
<polygon fill="midnightblue" stroke="midnightblue" points="581.745,-271.812 588.366,-280.083 588.348,-269.488 581.745,-271.812"/>
</g>
<!-- Node205&#45;&gt;Node4 -->
<g id="edge54" class="edge"><title>Node205&#45;&gt;Node4</title>
<path fill="none" stroke="midnightblue" d="M746.125,-273.253C756.237,-263.673 768.78,-251.791 777.179,-243.834"/>
<polygon fill="midnightblue" stroke="midnightblue" points="743.514,-270.906 738.661,-280.324 748.328,-275.987 743.514,-270.906"/>
</g>
<!-- Node206 -->
<g id="node39" class="node"><title>Node206</title>
<g id="a_node39"><a xlink:href="skein_8c.html" target="_top" xlink:title="src/crypto/skein.c">
<polygon fill="white" stroke="black" points="642.003,-224.5 642.003,-243.5 737.003,-243.5 737.003,-224.5 642.003,-224.5"/>
<text text-anchor="middle" x="689.503" y="-231.5" font-family="Helvetica,sans-Serif" font-size="10.00">src/crypto/skein.c</text>
</a>
</g>
</g>
<!-- Node205&#45;&gt;Node206 -->
<g id="edge55" class="edge"><title>Node205&#45;&gt;Node206</title>
<path fill="none" stroke="midnightblue" d="M716.804,-271.855C709.877,-262.505 701.597,-251.327 695.986,-243.751"/>
<polygon fill="midnightblue" stroke="midnightblue" points="714.133,-274.131 722.898,-280.083 719.758,-269.964 714.133,-274.131"/>
</g>
<!-- Node207&#45;&gt;Node4 -->
<g id="edge57" class="edge"><title>Node207&#45;&gt;Node4</title>
<path fill="none" stroke="midnightblue" d="M841.198,-274.38C827.643,-264.62 810.261,-252.106 798.773,-243.834"/>
<polygon fill="midnightblue" stroke="midnightblue" points="839.293,-277.321 849.453,-280.324 843.383,-271.641 839.293,-277.321"/>
</g>
<!-- Node208 -->
<g id="node41" class="node"><title>Node208</title>
<g id="a_node41"><a xlink:href="luffa_8c.html" target="_top" xlink:title="src/crypto/luffa.c">
<polygon fill="white" stroke="black" points="835.503,-224.5 835.503,-243.5 925.503,-243.5 925.503,-224.5 835.503,-224.5"/>
<text text-anchor="middle" x="880.503" y="-231.5" font-family="Helvetica,sans-Serif" font-size="10.00">src/crypto/luffa.c</text>
</a>
</g>
</g>
<!-- Node207&#45;&gt;Node208 -->
<g id="edge58" class="edge"><title>Node207&#45;&gt;Node208</title>
<path fill="none" stroke="midnightblue" d="M868.049,-270.396C871.228,-261.362 874.896,-250.936 877.424,-243.751"/>
<polygon fill="midnightblue" stroke="midnightblue" points="864.658,-269.488 864.641,-280.083 871.261,-271.812 864.658,-269.488"/>
</g>
<!-- Node209&#45;&gt;Node4 -->
<g id="edge60" class="edge"><title>Node209&#45;&gt;Node4</title>
<path fill="none" stroke="midnightblue" d="M958.36,-277.964C916.522,-267.505 854.734,-252.058 817.764,-242.815"/>
<polygon fill="midnightblue" stroke="midnightblue" points="957.727,-281.414 968.277,-280.444 959.425,-274.623 957.727,-281.414"/>
</g>
<!-- Node210 -->
<g id="node43" class="node"><title>Node210</title>
<g id="a_node43"><a xlink:href="cubehash_8c.html" target="_top" xlink:title="src/crypto/cubehash.c">
<polygon fill="white" stroke="black" points="946.003,-224.5 946.003,-243.5 1059,-243.5 1059,-224.5 946.003,-224.5"/>
<text text-anchor="middle" x="1002.5" y="-231.5" font-family="Helvetica,sans-Serif" font-size="10.00">src/crypto/cubehash.c</text>
</a>
</g>
</g>
<!-- Node209&#45;&gt;Node210 -->
<g id="edge61" class="edge"><title>Node209&#45;&gt;Node210</title>
<path fill="none" stroke="midnightblue" d="M1002.5,-269.805C1002.5,-260.91 1002.5,-250.78 1002.5,-243.751"/>
<polygon fill="midnightblue" stroke="midnightblue" points="999.003,-270.083 1002.5,-280.083 1006,-270.083 999.003,-270.083"/>
</g>
<!-- Node211&#45;&gt;Node4 -->
<g id="edge63" class="edge"><title>Node211&#45;&gt;Node4</title>
<path fill="none" stroke="midnightblue" d="M1209.81,-280.033C1209.71,-280.022 1209.6,-280.011 1209.5,-280 1039.55,-261.395 995.359,-270.82 826.503,-244 823.691,-243.553 820.781,-243.027 817.873,-242.456"/>
<polygon fill="midnightblue" stroke="midnightblue" points="1209.14,-283.48 1219.46,-281.123 1209.92,-276.524 1209.14,-283.48"/>
</g>
<!-- Node212 -->
<g id="node45" class="node"><title>Node212</title>
<g id="a_node45"><a xlink:href="shavite_8c.html" target="_top" xlink:title="src/crypto/shavite.c">
<polygon fill="white" stroke="black" points="1274,-224.5 1274,-243.5 1377,-243.5 1377,-224.5 1274,-224.5"/>
<text text-anchor="middle" x="1325.5" y="-231.5" font-family="Helvetica,sans-Serif" font-size="10.00">src/crypto/shavite.c</text>
</a>
</g>
</g>
<!-- Node211&#45;&gt;Node212 -->
<g id="edge64" class="edge"><title>Node211&#45;&gt;Node212</title>
<path fill="none" stroke="midnightblue" d="M1295.24,-272.144C1302.9,-262.736 1312.14,-251.405 1318.37,-243.751"/>
<polygon fill="midnightblue" stroke="midnightblue" points="1292.37,-270.12 1288.77,-280.083 1297.8,-274.541 1292.37,-270.12"/>
</g>
<!-- Node213&#45;&gt;Node4 -->
<g id="edge66" class="edge"><title>Node213&#45;&gt;Node4</title>
<path fill="none" stroke="midnightblue" d="M1077.86,-279.863C991.94,-268.036 850.641,-248.416 826.503,-244 823.703,-243.488 820.8,-242.916 817.897,-242.315"/>
<polygon fill="midnightblue" stroke="midnightblue" points="1077.41,-283.334 1087.8,-281.229 1078.37,-276.399 1077.41,-283.334"/>
</g>
<!-- Node214 -->
<g id="node47" class="node"><title>Node214</title>
<g id="a_node47"><a xlink:href="simd_8c.html" target="_top" xlink:title="src/crypto/simd.c">
<polygon fill="white" stroke="black" points="1098.5,-224.5 1098.5,-243.5 1190.5,-243.5 1190.5,-224.5 1098.5,-224.5"/>
<text text-anchor="middle" x="1144.5" y="-231.5" font-family="Helvetica,sans-Serif" font-size="10.00">src/crypto/simd.c</text>
</a>
</g>
</g>
<!-- Node213&#45;&gt;Node214 -->
<g id="edge67" class="edge"><title>Node213&#45;&gt;Node214</title>
<path fill="none" stroke="midnightblue" d="M1144.5,-269.805C1144.5,-260.91 1144.5,-250.78 1144.5,-243.751"/>
<polygon fill="midnightblue" stroke="midnightblue" points="1141,-270.083 1144.5,-280.083 1148,-270.083 1141,-270.083"/>
</g>
<!-- Node215&#45;&gt;Node4 -->
<g id="edge69" class="edge"><title>Node215&#45;&gt;Node4</title>
<path fill="none" stroke="midnightblue" d="M1351.82,-280.032C1351.71,-280.021 1351.61,-280.011 1351.5,-280 1118.81,-256.419 1057.93,-277.768 826.503,-244 823.686,-243.589 820.772,-243.087 817.862,-242.532"/>
<polygon fill="midnightblue" stroke="midnightblue" points="1351.55,-283.524 1361.88,-281.13 1352.31,-276.565 1351.55,-283.524"/>
</g>
<!-- Node216 -->
<g id="node49" class="node"><title>Node216</title>
<g id="a_node49"><a xlink:href="echo_8c.html" target="_top" xlink:title="src/crypto/echo.c">
<polygon fill="white" stroke="black" points="1439.5,-224.5 1439.5,-243.5 1531.5,-243.5 1531.5,-224.5 1439.5,-224.5"/>
<text text-anchor="middle" x="1485.5" y="-231.5" font-family="Helvetica,sans-Serif" font-size="10.00">src/crypto/echo.c</text>
</a>
</g>
</g>
<!-- Node215&#45;&gt;Node216 -->
<g id="edge70" class="edge"><title>Node215&#45;&gt;Node216</title>
<path fill="none" stroke="midnightblue" d="M1437.34,-273.82C1449.34,-264.145 1464.47,-251.948 1474.54,-243.834"/>
<polygon fill="midnightblue" stroke="midnightblue" points="1434.86,-271.324 1429.27,-280.324 1439.25,-276.774 1434.86,-271.324"/>
</g>
<!-- Node217&#45;&gt;Node212 -->
<g id="edge73" class="edge"><title>Node217&#45;&gt;Node212</title>
<path fill="none" stroke="midnightblue" d="M1506.63,-278.088C1463.75,-267.887 1400.59,-252.861 1361.3,-243.516"/>
<polygon fill="midnightblue" stroke="midnightblue" points="1506,-281.534 1516.53,-280.444 1507.62,-274.724 1506,-281.534"/>
</g>
<!-- Node217&#45;&gt;Node216 -->
<g id="edge72" class="edge"><title>Node217&#45;&gt;Node216</title>
<path fill="none" stroke="midnightblue" d="M1533.67,-273.82C1521.66,-264.145 1506.53,-251.948 1496.46,-243.834"/>
<polygon fill="midnightblue" stroke="midnightblue" points="1531.76,-276.774 1541.74,-280.324 1536.15,-271.324 1531.76,-276.774"/>
</g>
</g>
</svg>
