<?xml version="1.0" encoding="UTF-8" standalone="no"?>
<!DOCTYPE svg PUBLIC "-//W3C//DTD SVG 1.1//EN"
 "http://www.w3.org/Graphics/SVG/1.1/DTD/svg11.dtd">
<!-- Generated by graphviz version 2.36.0 (20140111.2315)
 -->
<!-- Title: CSpentIndexValue Pages: 1 -->
<svg width="215pt" height="154pt"
 viewBox="0.00 0.00 215.00 154.00" xmlns="http://www.w3.org/2000/svg" xmlns:xlink="http://www.w3.org/1999/xlink">
<g id="graph0" class="graph" transform="scale(1 1) rotate(0) translate(4 150)">
<title>CSpentIndexValue</title>
<polygon fill="white" stroke="none" points="-4,4 -4,-150 211,-150 211,4 -4,4"/>
<!-- Node1 -->
<g id="node1" class="node"><title>Node1</title>
<polygon fill="#bfbfbf" stroke="black" points="51,-0.5 51,-19.5 149,-19.5 149,-0.5 51,-0.5"/>
<text text-anchor="middle" x="100" y="-7.5" font-family="Helvetica,sans-Serif" font-size="10.00">CSpentIndexValue</text>
</g>
<!-- Node2 -->
<g id="node2" class="node"><title>Node2</title>
<g id="a_node2"><a xlink:href="classuint160.html" target="_top" xlink:title="160&#45;bit opaque blob. ">
<polygon fill="white" stroke="black" points="25,-68.5 25,-87.5 73,-87.5 73,-68.5 25,-68.5"/>
<text text-anchor="middle" x="49" y="-75.5" font-family="Helvetica,sans-Serif" font-size="10.00">uint160</text>
</a>
</g>
</g>
<!-- Node2&#45;&gt;Node1 -->
<g id="edge1" class="edge"><title>Node2&#45;&gt;Node1</title>
<path fill="none" stroke="#9a32cd" stroke-dasharray="5,2" d="M52.0815,-58.3054C53.8688,-51.4508 56.6614,-43.9271 61,-38 66.5451,-30.4246 74.8854,-24.2419 82.4319,-19.7137"/>
<polygon fill="#9a32cd" stroke="#9a32cd" points="48.6331,-57.6973 50.0227,-68.2006 55.4864,-59.1232 48.6331,-57.6973"/>
<text text-anchor="middle" x="91.5" y="-41.5" font-family="Helvetica,sans-Serif" font-size="10.00"> addressHash</text>
</g>
<!-- Node3 -->
<g id="node3" class="node"><title>Node3</title>
<g id="a_node3"><a xlink:href="classbase__blob.html" target="_top" xlink:title="base_blob\&lt; 160 \&gt;">
<polygon fill="white" stroke="black" points="-0.5,-126.5 -0.5,-145.5 94.5,-145.5 94.5,-126.5 -0.5,-126.5"/>
<text text-anchor="middle" x="47" y="-133.5" font-family="Helvetica,sans-Serif" font-size="10.00">base_blob&lt; 160 &gt;</text>
</a>
</g>
</g>
<!-- Node3&#45;&gt;Node2 -->
<g id="edge2" class="edge"><title>Node3&#45;&gt;Node2</title>
<path fill="none" stroke="midnightblue" d="M47.6802,-115.953C48.0254,-106.287 48.4275,-95.0312 48.6962,-87.5052"/>
<polygon fill="midnightblue" stroke="midnightblue" points="44.1717,-116.131 47.3125,-126.25 51.1673,-116.381 44.1717,-116.131"/>
</g>
<!-- Node4 -->
<g id="node4" class="node"><title>Node4</title>
<g id="a_node4"><a xlink:href="classuint256.html" target="_top" xlink:title="256&#45;bit opaque blob. ">
<polygon fill="white" stroke="black" points="134,-68.5 134,-87.5 182,-87.5 182,-68.5 134,-68.5"/>
<text text-anchor="middle" x="158" y="-75.5" font-family="Helvetica,sans-Serif" font-size="10.00">uint256</text>
</a>
</g>
</g>
<!-- Node4&#45;&gt;Node1 -->
<g id="edge3" class="edge"><title>Node4&#45;&gt;Node1</title>
<path fill="none" stroke="#9a32cd" stroke-dasharray="5,2" d="M143.658,-60.68C132.319,-47.7768 116.923,-30.2575 107.769,-19.8411"/>
<polygon fill="#9a32cd" stroke="#9a32cd" points="141.187,-63.1704 150.418,-68.3717 146.445,-58.5496 141.187,-63.1704"/>
<text text-anchor="middle" x="144.5" y="-41.5" font-family="Helvetica,sans-Serif" font-size="10.00"> txid</text>
</g>
<!-- Node5 -->
<g id="node5" class="node"><title>Node5</title>
<g id="a_node5"><a xlink:href="classbase__blob.html" target="_top" xlink:title="base_blob\&lt; 256 \&gt;">
<polygon fill="white" stroke="black" points="112.5,-126.5 112.5,-145.5 207.5,-145.5 207.5,-126.5 112.5,-126.5"/>
<text text-anchor="middle" x="160" y="-133.5" font-family="Helvetica,sans-Serif" font-size="10.00">base_blob&lt; 256 &gt;</text>
</a>
</g>
</g>
<!-- Node5&#45;&gt;Node4 -->
<g id="edge4" class="edge"><title>Node5&#45;&gt;Node4</title>
<path fill="none" stroke="midnightblue" d="M159.32,-115.953C158.975,-106.287 158.573,-95.0312 158.304,-87.5052"/>
<polygon fill="midnightblue" stroke="midnightblue" points="155.833,-116.381 159.688,-126.25 162.828,-116.131 155.833,-116.381"/>
</g>
</g>
</svg>
