<?xml version="1.0" encoding="UTF-8" standalone="no"?>
<!DOCTYPE svg PUBLIC "-//W3C//DTD SVG 1.1//EN"
 "http://www.w3.org/Graphics/SVG/1.1/DTD/svg11.dtd">
<!-- Generated by graphviz version 2.36.0 (20140111.2315)
 -->
<!-- Title: CExtPubKey Pages: 1 -->
<svg width="156pt" height="154pt"
 viewBox="0.00 0.00 156.00 154.00" xmlns="http://www.w3.org/2000/svg" xmlns:xlink="http://www.w3.org/1999/xlink">
<g id="graph0" class="graph" transform="scale(1 1) rotate(0) translate(4 150)">
<title>CExtPubKey</title>
<polygon fill="white" stroke="none" points="-4,4 -4,-150 152,-150 152,4 -4,4"/>
<!-- Node1 -->
<g id="node1" class="node"><title>Node1</title>
<polygon fill="#bfbfbf" stroke="black" points="46,-0.5 46,-19.5 120,-19.5 120,-0.5 46,-0.5"/>
<text text-anchor="middle" x="83" y="-7.5" font-family="Helvetica,sans-Serif" font-size="10.00">CExtPubKey</text>
</g>
<!-- Node2 -->
<g id="node2" class="node"><title>Node2</title>
<g id="a_node2"><a xlink:href="classuint256.html" target="_top" xlink:title="256&#45;bit opaque blob. ">
<polygon fill="white" stroke="black" points="23,-68.5 23,-87.5 71,-87.5 71,-68.5 23,-68.5"/>
<text text-anchor="middle" x="47" y="-75.5" font-family="Helvetica,sans-Serif" font-size="10.00">uint256</text>
</a>
</g>
</g>
<!-- Node2&#45;&gt;Node1 -->
<g id="edge1" class="edge"><title>Node2&#45;&gt;Node1</title>
<path fill="none" stroke="#9a32cd" stroke-dasharray="5,2" d="M44.8645,-58.1605C44.889,-51.4747 45.8589,-44.1012 49,-38 52.9332,-30.3602 60.1058,-24.1704 66.8526,-19.6542"/>
<polygon fill="#9a32cd" stroke="#9a32cd" points="41.3881,-58.6523 45.4992,-68.417 48.3747,-58.2199 41.3881,-58.6523"/>
<text text-anchor="middle" x="73" y="-41.5" font-family="Helvetica,sans-Serif" font-size="10.00"> chaincode</text>
</g>
<!-- Node3 -->
<g id="node3" class="node"><title>Node3</title>
<g id="a_node3"><a xlink:href="classbase__blob.html" target="_top" xlink:title="base_blob\&lt; 256 \&gt;">
<polygon fill="white" stroke="black" points="-0.5,-126.5 -0.5,-145.5 94.5,-145.5 94.5,-126.5 -0.5,-126.5"/>
<text text-anchor="middle" x="47" y="-133.5" font-family="Helvetica,sans-Serif" font-size="10.00">base_blob&lt; 256 &gt;</text>
</a>
</g>
</g>
<!-- Node3&#45;&gt;Node2 -->
<g id="edge2" class="edge"><title>Node3&#45;&gt;Node2</title>
<path fill="none" stroke="midnightblue" d="M47,-115.953C47,-106.287 47,-95.0312 47,-87.5052"/>
<polygon fill="midnightblue" stroke="midnightblue" points="43.5001,-116.25 47,-126.25 50.5001,-116.25 43.5001,-116.25"/>
</g>
<!-- Node4 -->
<g id="node4" class="node"><title>Node4</title>
<g id="a_node4"><a xlink:href="class_c_pub_key.html" target="_top" xlink:title="An encapsulated public key. ">
<polygon fill="white" stroke="black" points="89.5,-68.5 89.5,-87.5 148.5,-87.5 148.5,-68.5 89.5,-68.5"/>
<text text-anchor="middle" x="119" y="-75.5" font-family="Helvetica,sans-Serif" font-size="10.00">CPubKey</text>
</a>
</g>
</g>
<!-- Node4&#45;&gt;Node1 -->
<g id="edge3" class="edge"><title>Node4&#45;&gt;Node1</title>
<path fill="none" stroke="#9a32cd" stroke-dasharray="5,2" d="M109.489,-59.563C102.517,-46.7815 93.3418,-29.9599 87.8224,-19.8411"/>
<polygon fill="#9a32cd" stroke="#9a32cd" points="106.432,-61.2687 114.294,-68.3717 112.578,-57.9167 106.432,-61.2687"/>
<text text-anchor="middle" x="122.5" y="-41.5" font-family="Helvetica,sans-Serif" font-size="10.00"> pubkey</text>
</g>
</g>
</svg>
