<?xml version="1.0" encoding="UTF-8" standalone="no"?>
<!DOCTYPE svg PUBLIC "-//W3C//DTD SVG 1.1//EN"
 "http://www.w3.org/Graphics/SVG/1.1/DTD/svg11.dtd">
<!-- Generated by graphviz version 2.36.0 (20140111.2315)
 -->
<!-- Title: immer::detail::thread_local_free_list_storage&lt; Heap &gt;::head_t Pages: 1 -->
<svg width="162pt" height="118pt"
 viewBox="0.00 0.00 162.00 118.00" xmlns="http://www.w3.org/2000/svg" xmlns:xlink="http://www.w3.org/1999/xlink">
<g id="graph0" class="graph" transform="scale(1 1) rotate(0) translate(4 114)">
<title>immer::detail::thread_local_free_list_storage&lt; Heap &gt;::head_t</title>
<polygon fill="white" stroke="none" points="-4,4 -4,-114 158,-114 158,4 -4,4"/>
<!-- Node1 -->
<g id="node1" class="node"><title>Node1</title>
<polygon fill="#bfbfbf" stroke="black" points="-0.5,-0.5 -0.5,-41.5 118.5,-41.5 118.5,-0.5 -0.5,-0.5"/>
<text text-anchor="start" x="7.5" y="-29.5" font-family="Helvetica,sans-Serif" font-size="10.00">immer::detail::thread</text>
<text text-anchor="start" x="7.5" y="-18.5" font-family="Helvetica,sans-Serif" font-size="10.00">_local_free_list_storage</text>
<text text-anchor="middle" x="59" y="-7.5" font-family="Helvetica,sans-Serif" font-size="10.00">&lt; Heap &gt;::head_t</text>
</g>
<!-- Node2 -->
<g id="node2" class="node"><title>Node2</title>
<g id="a_node2"><a xlink:href="structimmer_1_1free__list__node.html" target="_top" xlink:title="immer::free_list_node">
<polygon fill="white" stroke="black" points="4,-90.5 4,-109.5 114,-109.5 114,-90.5 4,-90.5"/>
<text text-anchor="middle" x="59" y="-97.5" font-family="Helvetica,sans-Serif" font-size="10.00">immer::free_list_node</text>
</a>
</g>
</g>
<!-- Node2&#45;&gt;Node1 -->
<g id="edge1" class="edge"><title>Node2&#45;&gt;Node1</title>
<path fill="none" stroke="#9a32cd" stroke-dasharray="5,2" d="M59,-80.1487C59,-68.503 59,-53.5806 59,-41.7685"/>
<polygon fill="#9a32cd" stroke="#9a32cd" points="55.5001,-80.4654 59,-90.4655 62.5001,-80.4655 55.5001,-80.4654"/>
<text text-anchor="middle" x="70" y="-63.5" font-family="Helvetica,sans-Serif" font-size="10.00"> data</text>
</g>
<!-- Node2&#45;&gt;Node2 -->
<g id="edge2" class="edge"><title>Node2&#45;&gt;Node2</title>
<path fill="none" stroke="#9a32cd" stroke-dasharray="5,2" d="M124.001,-104.784C128.952,-103.722 132,-102.127 132,-100 132,-96.6797 124.574,-94.6564 114.073,-93.9301"/>
<polygon fill="#9a32cd" stroke="#9a32cd" points="123.541,-101.315 114.073,-106.07 124.44,-108.257 123.541,-101.315"/>
<text text-anchor="middle" x="143" y="-97.5" font-family="Helvetica,sans-Serif" font-size="10.00"> next</text>
</g>
</g>
</svg>
