<?xml version="1.0" encoding="UTF-8" standalone="no"?>
<!DOCTYPE svg PUBLIC "-//W3C//DTD SVG 1.1//EN"
 "http://www.w3.org/Graphics/SVG/1.1/DTD/svg11.dtd">
<!-- Generated by graphviz version 2.36.0 (20140111.2315)
 -->
<!-- Title: immer::detail::dvektor::node&lt; T, B, MP &gt; Pages: 1 -->
<svg width="312pt" height="158pt"
 viewBox="0.00 0.00 312.00 158.00" xmlns="http://www.w3.org/2000/svg" xmlns:xlink="http://www.w3.org/1999/xlink">
<g id="graph0" class="graph" transform="scale(1 1) rotate(0) translate(4 154)">
<title>immer::detail::dvektor::node&lt; T, B, MP &gt;</title>
<polygon fill="white" stroke="none" points="-4,4 -4,-154 308,-154 308,4 -4,4"/>
<!-- Node3 -->
<g id="node1" class="node"><title>Node3</title>
<polygon fill="#bfbfbf" stroke="black" points="192.5,-54 192.5,-84 303.5,-84 303.5,-54 192.5,-54"/>
<text text-anchor="start" x="200.5" y="-72" font-family="Helvetica,sans-Serif" font-size="10.00">immer::detail::dvektor</text>
<text text-anchor="middle" x="248" y="-61" font-family="Helvetica,sans-Serif" font-size="10.00">::node&lt; T, B, MP &gt;</text>
</g>
<!-- Node4 -->
<g id="node2" class="node"><title>Node4</title>
<g id="a_node2"><a xlink:href="classimmer_1_1enable__intrusive__ptr.html" target="_top" xlink:title="immer::enable_intrusive\l_ptr\&lt; node\&lt; T, B, MP \&gt;\l, MP::refcount \&gt;">
<polygon fill="white" stroke="black" points="6.5,-108.5 6.5,-149.5 127.5,-149.5 127.5,-108.5 6.5,-108.5"/>
<text text-anchor="start" x="14.5" y="-137.5" font-family="Helvetica,sans-Serif" font-size="10.00">immer::enable_intrusive</text>
<text text-anchor="start" x="14.5" y="-126.5" font-family="Helvetica,sans-Serif" font-size="10.00">_ptr&lt; node&lt; T, B, MP &gt;</text>
<text text-anchor="middle" x="67" y="-115.5" font-family="Helvetica,sans-Serif" font-size="10.00">, MP::refcount &gt;</text>
</a>
</g>
</g>
<!-- Node4&#45;&gt;Node3 -->
<g id="edge1" class="edge"><title>Node4&#45;&gt;Node3</title>
<path fill="none" stroke="midnightblue" d="M137.152,-105.821C158.95,-98.5139 182.449,-90.6373 202.096,-84.0516"/>
<polygon fill="midnightblue" stroke="midnightblue" points="135.974,-102.524 127.604,-109.021 138.198,-109.161 135.974,-102.524"/>
</g>
<!-- Node5 -->
<g id="node3" class="node"><title>Node5</title>
<g id="a_node3"><a xlink:href="structimmer_1_1enable__optimized__heap__policy.html" target="_top" xlink:title="immer::enable_optimized\l_heap_policy\&lt; node\&lt; T,\l B, MP \&gt;, MP::heap \&gt;">
<polygon fill="white" stroke="black" points="4.5,-48.5 4.5,-89.5 129.5,-89.5 129.5,-48.5 4.5,-48.5"/>
<text text-anchor="start" x="12.5" y="-77.5" font-family="Helvetica,sans-Serif" font-size="10.00">immer::enable_optimized</text>
<text text-anchor="start" x="12.5" y="-66.5" font-family="Helvetica,sans-Serif" font-size="10.00">_heap_policy&lt; node&lt; T,</text>
<text text-anchor="middle" x="67" y="-55.5" font-family="Helvetica,sans-Serif" font-size="10.00"> B, MP &gt;, MP::heap &gt;</text>
</a>
</g>
</g>
<!-- Node5&#45;&gt;Node3 -->
<g id="edge2" class="edge"><title>Node5&#45;&gt;Node3</title>
<path fill="none" stroke="midnightblue" d="M139.809,-69C157.366,-69 175.87,-69 192.47,-69"/>
<polygon fill="midnightblue" stroke="midnightblue" points="139.602,-65.5001 129.602,-69 139.602,-72.5001 139.602,-65.5001"/>
</g>
<!-- Node6 -->
<g id="node4" class="node"><title>Node6</title>
<g id="a_node4"><a xlink:href="unionimmer_1_1detail_1_1dvektor_1_1node_1_1data__t.html" target="_top" xlink:title="immer::detail::dvektor\l::node\&lt; T, B, MP \&gt;::data_t">
<polygon fill="white" stroke="black" points="0,-0 0,-30 134,-30 134,-0 0,-0"/>
<text text-anchor="start" x="8" y="-18" font-family="Helvetica,sans-Serif" font-size="10.00">immer::detail::dvektor</text>
<text text-anchor="middle" x="67" y="-7" font-family="Helvetica,sans-Serif" font-size="10.00">::node&lt; T, B, MP &gt;::data_t</text>
</a>
</g>
</g>
<!-- Node6&#45;&gt;Node3 -->
<g id="edge3" class="edge"><title>Node6&#45;&gt;Node3</title>
<path fill="none" stroke="#9a32cd" stroke-dasharray="5,2" d="M127.653,-32.9959C150.179,-39.7915 175.554,-47.4465 197.096,-53.9451"/>
<polygon fill="#9a32cd" stroke="#9a32cd" points="128.446,-29.5794 117.861,-30.042 126.424,-36.2811 128.446,-29.5794"/>
<text text-anchor="middle" x="163" y="-49" font-family="Helvetica,sans-Serif" font-size="10.00"> data</text>
</g>
</g>
</svg>
