<?xml version="1.0" encoding="UTF-8" standalone="no"?>
<!DOCTYPE svg PUBLIC "-//W3C//DTD SVG 1.1//EN"
 "http://www.w3.org/Graphics/SVG/1.1/DTD/svg11.dtd">
<!-- Generated by graphviz version 2.36.0 (20140111.2315)
 -->
<!-- Title: immer::detail::rbts::rrbtree_iterator&lt; T, MP, B, BL &gt; Pages: 1 -->
<svg width="478pt" height="60pt"
 viewBox="0.00 0.00 478.00 60.00" xmlns="http://www.w3.org/2000/svg" xmlns:xlink="http://www.w3.org/1999/xlink">
<g id="graph0" class="graph" transform="scale(1 1) rotate(0) translate(4 56)">
<title>immer::detail::rbts::rrbtree_iterator&lt; T, MP, B, BL &gt;</title>
<polygon fill="white" stroke="none" points="-4,4 -4,-56 474,-56 474,4 -4,4"/>
<!-- Node0 -->
<g id="node1" class="node"><title>Node0</title>
<polygon fill="#bfbfbf" stroke="black" points="374.5,-5.5 374.5,-46.5 469.5,-46.5 469.5,-5.5 374.5,-5.5"/>
<text text-anchor="start" x="382.5" y="-34.5" font-family="Helvetica,sans-Serif" font-size="10.00">immer::detail::rbts</text>
<text text-anchor="start" x="382.5" y="-23.5" font-family="Helvetica,sans-Serif" font-size="10.00">::rrbtree_iterator&lt;</text>
<text text-anchor="middle" x="422" y="-12.5" font-family="Helvetica,sans-Serif" font-size="10.00"> T, MP, B, BL &gt;</text>
</g>
<!-- Node1 -->
<g id="node2" class="node"><title>Node1</title>
<g id="a_node2"><a xlink:href="classimmer_1_1detail_1_1iterator__facade.html" target="_top" xlink:title="immer::detail::iterator\l_facade\&lt; rrbtree_iterator\l\&lt; T, MP, B, BL \&gt;, std::random\l_access_iterator_tag, T, const T &amp;\&gt;">
<polygon fill="white" stroke="black" points="164,-0 164,-52 338,-52 338,-0 164,-0"/>
<text text-anchor="start" x="172" y="-40" font-family="Helvetica,sans-Serif" font-size="10.00">immer::detail::iterator</text>
<text text-anchor="start" x="172" y="-29" font-family="Helvetica,sans-Serif" font-size="10.00">_facade&lt; rrbtree_iterator</text>
<text text-anchor="start" x="172" y="-18" font-family="Helvetica,sans-Serif" font-size="10.00">&lt; T, MP, B, BL &gt;, std::random</text>
<text text-anchor="middle" x="251" y="-7" font-family="Helvetica,sans-Serif" font-size="10.00">_access_iterator_tag, T, const T &amp;&gt;</text>
</a>
</g>
</g>
<!-- Node1&#45;&gt;Node0 -->
<g id="edge1" class="edge"><title>Node1&#45;&gt;Node0</title>
<path fill="none" stroke="midnightblue" d="M348.572,-26C357.461,-26 366.168,-26 374.289,-26"/>
<polygon fill="midnightblue" stroke="midnightblue" points="348.48,-22.5001 338.48,-26 348.48,-29.5001 348.48,-22.5001"/>
</g>
<!-- Node2 -->
<g id="node3" class="node"><title>Node2</title>
<polygon fill="white" stroke="#bfbfbf" points="0.5,-0 0.5,-52 127.5,-52 127.5,-0 0.5,-0"/>
<text text-anchor="start" x="8.5" y="-40" font-family="Helvetica,sans-Serif" font-size="10.00">std::iterator&lt; std</text>
<text text-anchor="start" x="8.5" y="-29" font-family="Helvetica,sans-Serif" font-size="10.00">::random_access_iterator</text>
<text text-anchor="start" x="8.5" y="-18" font-family="Helvetica,sans-Serif" font-size="10.00">_tag, T, std::ptrdiff_t,</text>
<text text-anchor="middle" x="64" y="-7" font-family="Helvetica,sans-Serif" font-size="10.00"> T *, const T &amp; &gt;</text>
</g>
<!-- Node2&#45;&gt;Node1 -->
<g id="edge2" class="edge"><title>Node2&#45;&gt;Node1</title>
<path fill="none" stroke="midnightblue" d="M137.879,-26C146.391,-26 155.135,-26 163.805,-26"/>
<polygon fill="midnightblue" stroke="midnightblue" points="137.633,-22.5001 127.633,-26 137.633,-29.5001 137.633,-22.5001"/>
</g>
</g>
</svg>
