<?xml version="1.0" encoding="UTF-8" standalone="no"?>
<!DOCTYPE svg PUBLIC "-//W3C//DTD SVG 1.1//EN"
 "http://www.w3.org/Graphics/SVG/1.1/DTD/svg11.dtd">
<!-- Generated by graphviz version 2.36.0 (20140111.2315)
 -->
<!-- Title: immer::detail::hamts::champ&lt; T, Hash, Equal, MemoryPolicy, B &gt;::sub_result Pages: 1 -->
<svg width="530pt" height="60pt"
 viewBox="0.00 0.00 530.00 60.00" xmlns="http://www.w3.org/2000/svg" xmlns:xlink="http://www.w3.org/1999/xlink">
<g id="graph0" class="graph" transform="scale(1 1) rotate(0) translate(4 56)">
<title>immer::detail::hamts::champ&lt; T, Hash, Equal, MemoryPolicy, B &gt;::sub_result</title>
<polygon fill="white" stroke="none" points="-4,4 -4,-56 526,-56 526,4 -4,4"/>
<!-- Node1 -->
<g id="node1" class="node"><title>Node1</title>
<polygon fill="#bfbfbf" stroke="black" points="366.5,-5.5 366.5,-46.5 521.5,-46.5 521.5,-5.5 366.5,-5.5"/>
<text text-anchor="start" x="374.5" y="-34.5" font-family="Helvetica,sans-Serif" font-size="10.00">immer::detail::hamts</text>
<text text-anchor="start" x="374.5" y="-23.5" font-family="Helvetica,sans-Serif" font-size="10.00">::champ&lt; T, Hash, Equal,</text>
<text text-anchor="middle" x="444" y="-12.5" font-family="Helvetica,sans-Serif" font-size="10.00"> MemoryPolicy, B &gt;::sub_result</text>
</g>
<!-- Node2 -->
<g id="node2" class="node"><title>Node2</title>
<g id="a_node2"><a xlink:href="unionimmer_1_1detail_1_1hamts_1_1champ_1_1sub__result_1_1data__t.html" target="_top" xlink:title="immer::detail::hamts\l::champ\&lt; T, Hash, Equal,\l MemoryPolicy, B \&gt;::sub\l_result::data_t">
<polygon fill="white" stroke="black" points="178,-0 178,-52 308,-52 308,-0 178,-0"/>
<text text-anchor="start" x="186" y="-40" font-family="Helvetica,sans-Serif" font-size="10.00">immer::detail::hamts</text>
<text text-anchor="start" x="186" y="-29" font-family="Helvetica,sans-Serif" font-size="10.00">::champ&lt; T, Hash, Equal,</text>
<text text-anchor="start" x="186" y="-18" font-family="Helvetica,sans-Serif" font-size="10.00"> MemoryPolicy, B &gt;::sub</text>
<text text-anchor="middle" x="243" y="-7" font-family="Helvetica,sans-Serif" font-size="10.00">_result::data_t</text>
</a>
</g>
</g>
<!-- Node2&#45;&gt;Node1 -->
<g id="edge1" class="edge"><title>Node2&#45;&gt;Node1</title>
<path fill="none" stroke="#9a32cd" stroke-dasharray="5,2" d="M318.208,-26C333.875,-26 350.437,-26 366.197,-26"/>
<polygon fill="#9a32cd" stroke="#9a32cd" points="318.06,-22.5001 308.06,-26 318.06,-29.5001 318.06,-22.5001"/>
<text text-anchor="middle" x="337" y="-29" font-family="Helvetica,sans-Serif" font-size="10.00"> data</text>
</g>
<!-- Node3 -->
<g id="node3" class="node"><title>Node3</title>
<g id="a_node3"><a xlink:href="structimmer_1_1detail_1_1hamts_1_1node.html" target="_top" xlink:title="immer::detail::hamts\l::node\&lt; T, Hash, Equal,\l MemoryPolicy, B \&gt;">
<polygon fill="white" stroke="black" points="0,-5.5 0,-46.5 122,-46.5 122,-5.5 0,-5.5"/>
<text text-anchor="start" x="8" y="-34.5" font-family="Helvetica,sans-Serif" font-size="10.00">immer::detail::hamts</text>
<text text-anchor="start" x="8" y="-23.5" font-family="Helvetica,sans-Serif" font-size="10.00">::node&lt; T, Hash, Equal,</text>
<text text-anchor="middle" x="61" y="-12.5" font-family="Helvetica,sans-Serif" font-size="10.00"> MemoryPolicy, B &gt;</text>
</a>
</g>
</g>
<!-- Node3&#45;&gt;Node2 -->
<g id="edge2" class="edge"><title>Node3&#45;&gt;Node2</title>
<path fill="none" stroke="#9a32cd" stroke-dasharray="5,2" d="M132.413,-26C147.39,-26 163.128,-26 177.856,-26"/>
<polygon fill="#9a32cd" stroke="#9a32cd" points="132.188,-22.5001 122.188,-26 132.188,-29.5001 132.188,-22.5001"/>
<text text-anchor="middle" x="150" y="-29" font-family="Helvetica,sans-Serif" font-size="10.00"> tree</text>
</g>
</g>
</svg>
