<?xml version="1.0" encoding="UTF-8" standalone="no"?>
<!DOCTYPE svg PUBLIC "-//W3C//DTD SVG 1.1//EN"
 "http://www.w3.org/Graphics/SVG/1.1/DTD/svg11.dtd">
<!-- Generated by graphviz version 2.36.0 (20140111.2315)
 -->
<!-- Title: immer::detail::rbts::rbtree_iterator&lt; T, MP, B, BL &gt; Pages: 1 -->
<svg width="518pt" height="121pt"
 viewBox="0.00 0.00 518.00 121.00" xmlns="http://www.w3.org/2000/svg" xmlns:xlink="http://www.w3.org/1999/xlink">
<g id="graph0" class="graph" transform="scale(1 1) rotate(0) translate(4 117)">
<title>immer::detail::rbts::rbtree_iterator&lt; T, MP, B, BL &gt;</title>
<polygon fill="white" stroke="none" points="-4,4 -4,-117 514,-117 514,4 -4,4"/>
<!-- Node3 -->
<g id="node1" class="node"><title>Node3</title>
<polygon fill="#bfbfbf" stroke="black" points="408.5,-38.5 408.5,-79.5 509.5,-79.5 509.5,-38.5 408.5,-38.5"/>
<text text-anchor="start" x="416.5" y="-67.5" font-family="Helvetica,sans-Serif" font-size="10.00">immer::detail::rbts</text>
<text text-anchor="start" x="416.5" y="-56.5" font-family="Helvetica,sans-Serif" font-size="10.00">::rbtree_iterator&lt; T,</text>
<text text-anchor="middle" x="459" y="-45.5" font-family="Helvetica,sans-Serif" font-size="10.00"> MP, B, BL &gt;</text>
</g>
<!-- Node4 -->
<g id="node2" class="node"><title>Node4</title>
<g id="a_node2"><a xlink:href="classimmer_1_1detail_1_1iterator__facade.html" target="_top" xlink:title="immer::detail::iterator\l_facade\&lt; rbtree_iterator\l\&lt; T, MP, B, BL \&gt;, std::random\l_access_iterator_tag, T, const T &amp;\&gt;">
<polygon fill="white" stroke="black" points="184,-61 184,-113 358,-113 358,-61 184,-61"/>
<text text-anchor="start" x="192" y="-101" font-family="Helvetica,sans-Serif" font-size="10.00">immer::detail::iterator</text>
<text text-anchor="start" x="192" y="-90" font-family="Helvetica,sans-Serif" font-size="10.00">_facade&lt; rbtree_iterator</text>
<text text-anchor="start" x="192" y="-79" font-family="Helvetica,sans-Serif" font-size="10.00">&lt; T, MP, B, BL &gt;, std::random</text>
<text text-anchor="middle" x="271" y="-68" font-family="Helvetica,sans-Serif" font-size="10.00">_access_iterator_tag, T, const T &amp;&gt;</text>
</a>
</g>
</g>
<!-- Node4&#45;&gt;Node3 -->
<g id="edge1" class="edge"><title>Node4&#45;&gt;Node3</title>
<path fill="none" stroke="midnightblue" d="M368.29,-72.5047C382.156,-70.4174 395.924,-68.3447 408.36,-66.4727"/>
<polygon fill="midnightblue" stroke="midnightblue" points="367.561,-69.0749 358.194,-74.0246 368.604,-75.9969 367.561,-69.0749"/>
</g>
<!-- Node5 -->
<g id="node3" class="node"><title>Node5</title>
<polygon fill="white" stroke="#bfbfbf" points="1.5,-61 1.5,-113 128.5,-113 128.5,-61 1.5,-61"/>
<text text-anchor="start" x="9.5" y="-101" font-family="Helvetica,sans-Serif" font-size="10.00">std::iterator&lt; std</text>
<text text-anchor="start" x="9.5" y="-90" font-family="Helvetica,sans-Serif" font-size="10.00">::random_access_iterator</text>
<text text-anchor="start" x="9.5" y="-79" font-family="Helvetica,sans-Serif" font-size="10.00">_tag, T, std::ptrdiff_t,</text>
<text text-anchor="middle" x="65" y="-68" font-family="Helvetica,sans-Serif" font-size="10.00"> T *, const T &amp; &gt;</text>
</g>
<!-- Node5&#45;&gt;Node4 -->
<g id="edge2" class="edge"><title>Node5&#45;&gt;Node4</title>
<path fill="none" stroke="midnightblue" d="M139.008,-87C153.544,-87 168.938,-87 183.866,-87"/>
<polygon fill="midnightblue" stroke="midnightblue" points="138.593,-83.5001 128.593,-87 138.593,-90.5001 138.593,-83.5001"/>
</g>
<!-- Node6 -->
<g id="node4" class="node"><title>Node6</title>
<g id="a_node4"><a xlink:href="structimmer_1_1detail_1_1rbts_1_1rbtree.html" target="_top" xlink:title="immer::detail::rbts\l::rbtree\&lt; T, MemoryPolicy,\l B, BL \&gt;">
<polygon fill="white" stroke="black" points="204,-0.5 204,-41.5 338,-41.5 338,-0.5 204,-0.5"/>
<text text-anchor="start" x="212" y="-29.5" font-family="Helvetica,sans-Serif" font-size="10.00">immer::detail::rbts</text>
<text text-anchor="start" x="212" y="-18.5" font-family="Helvetica,sans-Serif" font-size="10.00">::rbtree&lt; T, MemoryPolicy,</text>
<text text-anchor="middle" x="271" y="-7.5" font-family="Helvetica,sans-Serif" font-size="10.00"> B, BL &gt;</text>
</a>
</g>
</g>
<!-- Node6&#45;&gt;Node3 -->
<g id="edge3" class="edge"><title>Node6&#45;&gt;Node3</title>
<path fill="none" stroke="#9a32cd" stroke-dasharray="5,2" d="M348.006,-36.5282C368.407,-40.696 389.937,-45.0946 408.487,-48.8845"/>
<polygon fill="#9a32cd" stroke="#9a32cd" points="348.599,-33.077 338.1,-34.5044 347.197,-39.9353 348.599,-33.077"/>
<text text-anchor="middle" x="383" y="-48" font-family="Helvetica,sans-Serif" font-size="10.00"> v_</text>
</g>
<!-- Node7 -->
<g id="node5" class="node"><title>Node7</title>
<g id="a_node5"><a xlink:href="structimmer_1_1detail_1_1rbts_1_1node.html" target="_top" xlink:title="immer::detail::rbts\l::node\&lt; T, MemoryPolicy,\l B, BL \&gt;">
<polygon fill="white" stroke="black" points="0,-0.5 0,-41.5 130,-41.5 130,-0.5 0,-0.5"/>
<text text-anchor="start" x="8" y="-29.5" font-family="Helvetica,sans-Serif" font-size="10.00">immer::detail::rbts</text>
<text text-anchor="start" x="8" y="-18.5" font-family="Helvetica,sans-Serif" font-size="10.00">::node&lt; T, MemoryPolicy,</text>
<text text-anchor="middle" x="65" y="-7.5" font-family="Helvetica,sans-Serif" font-size="10.00"> B, BL &gt;</text>
</a>
</g>
</g>
<!-- Node7&#45;&gt;Node6 -->
<g id="edge4" class="edge"><title>Node7&#45;&gt;Node6</title>
<path fill="none" stroke="#9a32cd" stroke-dasharray="5,2" d="M140.338,-21C161.159,-21 183.643,-21 203.948,-21"/>
<polygon fill="#9a32cd" stroke="#9a32cd" points="140.267,-17.5001 130.267,-21 140.267,-24.5001 140.267,-17.5001"/>
<text text-anchor="middle" x="157" y="-35" font-family="Helvetica,sans-Serif" font-size="10.00"> tail</text>
<text text-anchor="middle" x="157" y="-24" font-family="Helvetica,sans-Serif" font-size="10.00">root</text>
</g>
</g>
</svg>
