<?xml version="1.0" encoding="UTF-8" standalone="no"?>
<!DOCTYPE svg PUBLIC "-//W3C//DTD SVG 1.1//EN"
 "http://www.w3.org/Graphics/SVG/1.1/DTD/svg11.dtd">
<!-- Generated by graphviz version 2.36.0 (20140111.2315)
 -->
<!-- Title: CNodeCombinedStats Pages: 1 -->
<svg width="191pt" height="280pt"
 viewBox="0.00 0.00 191.00 280.00" xmlns="http://www.w3.org/2000/svg" xmlns:xlink="http://www.w3.org/1999/xlink">
<g id="graph0" class="graph" transform="scale(1 1) rotate(0) translate(4 276)">
<title>CNodeCombinedStats</title>
<polygon fill="white" stroke="none" points="-4,4 -4,-276 187,-276 187,4 -4,4"/>
<!-- Node1 -->
<g id="node1" class="node"><title>Node1</title>
<polygon fill="#bfbfbf" stroke="black" points="37.5,-0.5 37.5,-19.5 152.5,-19.5 152.5,-0.5 37.5,-0.5"/>
<text text-anchor="middle" x="95" y="-7.5" font-family="Helvetica,sans-Serif" font-size="10.00">CNodeCombinedStats</text>
</g>
<!-- Node2 -->
<g id="node2" class="node"><title>Node2</title>
<g id="a_node2"><a xlink:href="struct_c_node_state_stats.html" target="_top" xlink:title="CNodeStateStats">
<polygon fill="white" stroke="black" points="0,-68.5 0,-87.5 94,-87.5 94,-68.5 0,-68.5"/>
<text text-anchor="middle" x="47" y="-75.5" font-family="Helvetica,sans-Serif" font-size="10.00">CNodeStateStats</text>
</a>
</g>
</g>
<!-- Node2&#45;&gt;Node1 -->
<g id="edge1" class="edge"><title>Node2&#45;&gt;Node1</title>
<path fill="none" stroke="#9a32cd" stroke-dasharray="5,2" d="M45.5969,-57.8654C45.9403,-51.1493 47.3329,-43.8322 51,-38 56.0569,-29.9575 64.4697,-23.9461 72.5924,-19.6627"/>
<polygon fill="#9a32cd" stroke="#9a32cd" points="42.1044,-58.3004 45.7931,-68.2324 49.1031,-58.1679 42.1044,-58.3004"/>
<text text-anchor="middle" x="86.5" y="-41.5" font-family="Helvetica,sans-Serif" font-size="10.00"> nodeStateStats</text>
</g>
<!-- Node3 -->
<g id="node3" class="node"><title>Node3</title>
<g id="a_node3"><a xlink:href="class_c_node_stats.html" target="_top" xlink:title="CNodeStats">
<polygon fill="white" stroke="black" points="112.5,-68.5 112.5,-87.5 183.5,-87.5 183.5,-68.5 112.5,-68.5"/>
<text text-anchor="middle" x="148" y="-75.5" font-family="Helvetica,sans-Serif" font-size="10.00">CNodeStats</text>
</a>
</g>
</g>
<!-- Node3&#45;&gt;Node1 -->
<g id="edge2" class="edge"><title>Node3&#45;&gt;Node1</title>
<path fill="none" stroke="#9a32cd" stroke-dasharray="5,2" d="M137.471,-59.6361C132.994,-52.6886 127.533,-44.7493 122,-38 116.62,-31.438 109.87,-24.688 104.465,-19.5785"/>
<polygon fill="#9a32cd" stroke="#9a32cd" points="134.613,-61.6667 142.882,-68.2903 140.548,-57.9557 134.613,-61.6667"/>
<text text-anchor="middle" x="155" y="-41.5" font-family="Helvetica,sans-Serif" font-size="10.00"> nodeStats</text>
</g>
<!-- Node4 -->
<g id="node4" class="node"><title>Node4</title>
<g id="a_node4"><a xlink:href="class_c_address.html" target="_top" xlink:title="A CService with information about it as peer. ">
<polygon fill="white" stroke="black" points="118,-136.5 118,-155.5 178,-155.5 178,-136.5 118,-136.5"/>
<text text-anchor="middle" x="148" y="-143.5" font-family="Helvetica,sans-Serif" font-size="10.00">CAddress</text>
</a>
</g>
</g>
<!-- Node4&#45;&gt;Node3 -->
<g id="edge3" class="edge"><title>Node4&#45;&gt;Node3</title>
<path fill="none" stroke="#9a32cd" stroke-dasharray="5,2" d="M148,-126.041C148,-113.472 148,-97.5631 148,-87.8411"/>
<polygon fill="#9a32cd" stroke="#9a32cd" points="144.5,-126.372 148,-136.372 151.5,-126.372 144.5,-126.372"/>
<text text-anchor="middle" x="159" y="-109.5" font-family="Helvetica,sans-Serif" font-size="10.00"> addr</text>
</g>
<!-- Node5 -->
<g id="node5" class="node"><title>Node5</title>
<g id="a_node5"><a xlink:href="class_c_service.html" target="_top" xlink:title="A combination of a network address (CNetAddr) and a (TCP) port. ">
<polygon fill="white" stroke="black" points="119.5,-194.5 119.5,-213.5 176.5,-213.5 176.5,-194.5 119.5,-194.5"/>
<text text-anchor="middle" x="148" y="-201.5" font-family="Helvetica,sans-Serif" font-size="10.00">CService</text>
</a>
</g>
</g>
<!-- Node5&#45;&gt;Node4 -->
<g id="edge4" class="edge"><title>Node5&#45;&gt;Node4</title>
<path fill="none" stroke="midnightblue" d="M148,-183.953C148,-174.287 148,-163.031 148,-155.505"/>
<polygon fill="midnightblue" stroke="midnightblue" points="144.5,-184.25 148,-194.25 151.5,-184.25 144.5,-184.25"/>
</g>
<!-- Node6 -->
<g id="node6" class="node"><title>Node6</title>
<g id="a_node6"><a xlink:href="class_c_net_addr.html" target="_top" xlink:title="IP address (IPv6, or IPv4 using mapped IPv6 range (::FFFF:0:0/96)) ">
<polygon fill="white" stroke="black" points="118,-252.5 118,-271.5 178,-271.5 178,-252.5 118,-252.5"/>
<text text-anchor="middle" x="148" y="-259.5" font-family="Helvetica,sans-Serif" font-size="10.00">CNetAddr</text>
</a>
</g>
</g>
<!-- Node6&#45;&gt;Node5 -->
<g id="edge5" class="edge"><title>Node6&#45;&gt;Node5</title>
<path fill="none" stroke="midnightblue" d="M148,-241.953C148,-232.287 148,-221.031 148,-213.505"/>
<polygon fill="midnightblue" stroke="midnightblue" points="144.5,-242.25 148,-252.25 151.5,-242.25 144.5,-242.25"/>
</g>
</g>
</svg>
