<?xml version="1.0" encoding="UTF-8" standalone="no"?>
<!DOCTYPE svg PUBLIC "-//W3C//DTD SVG 1.1//EN"
 "http://www.w3.org/Graphics/SVG/1.1/DTD/svg11.dtd">
<!-- Generated by graphviz version 2.36.0 (20140111.2315)
 -->
<!-- Title: immer::detail::hamts::champ_iterator&lt; T, Hash, Eq, MP, B &gt; Pages: 1 -->
<svg width="424pt" height="72pt"
 viewBox="0.00 0.00 424.00 72.00" xmlns="http://www.w3.org/2000/svg" xmlns:xlink="http://www.w3.org/1999/xlink">
<g id="graph0" class="graph" transform="scale(1 1) rotate(0) translate(4 68)">
<title>immer::detail::hamts::champ_iterator&lt; T, Hash, Eq, MP, B &gt;</title>
<polygon fill="white" stroke="none" points="-4,4 -4,-68 420,-68 420,4 -4,4"/>
<!-- Node3 -->
<g id="node1" class="node"><title>Node3</title>
<polygon fill="#bfbfbf" stroke="black" points="310,-11.5 310,-52.5 416,-52.5 416,-11.5 310,-11.5"/>
<text text-anchor="start" x="318" y="-40.5" font-family="Helvetica,sans-Serif" font-size="10.00">immer::detail::hamts</text>
<text text-anchor="start" x="318" y="-29.5" font-family="Helvetica,sans-Serif" font-size="10.00">::champ_iterator&lt; T,</text>
<text text-anchor="middle" x="363" y="-18.5" font-family="Helvetica,sans-Serif" font-size="10.00"> Hash, Eq, MP, B &gt;</text>
</g>
<!-- Node4 -->
<g id="node2" class="node"><title>Node4</title>
<g id="a_node2"><a xlink:href="classimmer_1_1detail_1_1iterator__facade.html" target="_top" xlink:title="immer::detail::iterator\l_facade\&lt; champ_iterator\l\&lt; T, Hash, Eq, MP, B \&gt;,\l std::forward_iterator_tag,\l T, const T &amp;\&gt;">
<polygon fill="white" stroke="black" points="146,-0.5 146,-63.5 274,-63.5 274,-0.5 146,-0.5"/>
<text text-anchor="start" x="154" y="-51.5" font-family="Helvetica,sans-Serif" font-size="10.00">immer::detail::iterator</text>
<text text-anchor="start" x="154" y="-40.5" font-family="Helvetica,sans-Serif" font-size="10.00">_facade&lt; champ_iterator</text>
<text text-anchor="start" x="154" y="-29.5" font-family="Helvetica,sans-Serif" font-size="10.00">&lt; T, Hash, Eq, MP, B &gt;,</text>
<text text-anchor="start" x="154" y="-18.5" font-family="Helvetica,sans-Serif" font-size="10.00"> std::forward_iterator_tag,</text>
<text text-anchor="middle" x="210" y="-7.5" font-family="Helvetica,sans-Serif" font-size="10.00"> T, const T &amp;&gt;</text>
</a>
</g>
</g>
<!-- Node4&#45;&gt;Node3 -->
<g id="edge1" class="edge"><title>Node4&#45;&gt;Node3</title>
<path fill="none" stroke="midnightblue" d="M284.19,-32C292.769,-32 301.389,-32 309.605,-32"/>
<polygon fill="midnightblue" stroke="midnightblue" points="284.163,-28.5001 274.163,-32 284.163,-35.5001 284.163,-28.5001"/>
</g>
<!-- Node5 -->
<g id="node3" class="node"><title>Node5</title>
<polygon fill="white" stroke="#bfbfbf" points="0.5,-6 0.5,-58 109.5,-58 109.5,-6 0.5,-6"/>
<text text-anchor="start" x="8.5" y="-46" font-family="Helvetica,sans-Serif" font-size="10.00">std::iterator&lt; std</text>
<text text-anchor="start" x="8.5" y="-35" font-family="Helvetica,sans-Serif" font-size="10.00">::forward_iterator_tag</text>
<text text-anchor="start" x="8.5" y="-24" font-family="Helvetica,sans-Serif" font-size="10.00"> , T, std::ptrdiff_t ,</text>
<text text-anchor="middle" x="55" y="-13" font-family="Helvetica,sans-Serif" font-size="10.00"> T* , const T &amp; &gt;</text>
</g>
<!-- Node5&#45;&gt;Node4 -->
<g id="edge2" class="edge"><title>Node5&#45;&gt;Node4</title>
<path fill="none" stroke="midnightblue" d="M119.561,-32C128.234,-32 137.136,-32 145.803,-32"/>
<polygon fill="midnightblue" stroke="midnightblue" points="119.512,-28.5001 109.512,-32 119.512,-35.5001 119.512,-28.5001"/>
</g>
</g>
</svg>
