<?xml version="1.0" encoding="UTF-8" standalone="no"?>
<!DOCTYPE svg PUBLIC "-//W3C//DTD SVG 1.1//EN"
 "http://www.w3.org/Graphics/SVG/1.1/DTD/svg11.dtd">
<!-- Generated by graphviz version 2.36.0 (20140111.2315)
 -->
<!-- Title: masternode_info_t Pages: 1 -->
<!--zoomable 223 -->
<svg id="main" version="1.1" xmlns="http://www.w3.org/2000/svg" xmlns:xlink="http://www.w3.org/1999/xlink" xml:space="preserve" onload="init(evt)">
<style type="text/css"><![CDATA[
.edge:hover path { stroke: red; }
.edge:hover polygon { stroke: red; fill: red; }
]]></style>
<script type="text/javascript"><![CDATA[
var edges = document.getElementsByTagName('g');
if (edges && edges.length) {
  for (var i=0;i<edges.length;i++) {
    if (edges[i].id.substr(0,4)=='edge') {
      edges[i].setAttribute('class','edge');
    }
  }
}
]]></script>
        <defs>
                <circle id="rim" cx="0" cy="0" r="7"/>
                <circle id="rim2" cx="0" cy="0" r="3.5"/>
                <g id="zoomPlus">
                        <use xlink:href="#rim" fill="#404040">
                                <set attributeName="fill" to="#808080" begin="zoomplus.mouseover" end="zoomplus.mouseout"/>
                        </use>
                        <path d="M-4,0h8M0,-4v8" fill="none" stroke="white" stroke-width="1.5" pointer-events="none"/>
                </g>
                <g id="zoomMin">
                        <use xlink:href="#rim" fill="#404040">
                                <set attributeName="fill" to="#808080" begin="zoomminus.mouseover" end="zoomminus.mouseout"/>
                        </use>
                        <path d="M-4,0h8" fill="none" stroke="white" stroke-width="1.5" pointer-events="none"/>
                </g>
                <g id="dirArrow">
                        <path fill="none" stroke="white" stroke-width="1.5" d="M0,-3.0v7 M-2.5,-0.5L0,-3.0L2.5,-0.5"/>
                </g>
               <g id="resetDef">
                       <use xlink:href="#rim2" fill="#404040">
                               <set attributeName="fill" to="#808080" begin="reset.mouseover" end="reset.mouseout"/>
                       </use>
               </g>
        </defs>

<script type="text/javascript">
var viewWidth = 910;
var viewHeight = 223;
var sectionId = 'dynsection-1';
</script>
<script xlink:href="svgpan.js"/>
<svg id="graph" class="graph">
<g id="viewport">
<title>masternode_info_t</title>
<polygon fill="white" stroke="none" points="-4,4 -4,-219 906,-219 906,4 -4,4"/>
<!-- Node3 -->
<g id="node1" class="node"><title>Node3</title>
<polygon fill="#bfbfbf" stroke="black" points="804.5,-83.5 804.5,-102.5 901.5,-102.5 901.5,-83.5 804.5,-83.5"/>
<text text-anchor="middle" x="853" y="-90.5" font-family="Helvetica,sans-Serif" font-size="10.00">masternode_info_t</text>
</g>
<!-- Node4 -->
<g id="node2" class="node"><title>Node4</title>
<g id="a_node2"><a xlink:href="class_c_out_point.html" target="_top" xlink:title="An outpoint &#45; a combination of a transaction hash and an index n into its vout. ">
<polygon fill="white" stroke="black" points="488,-188.5 488,-207.5 550,-207.5 550,-188.5 488,-188.5"/>
<text text-anchor="middle" x="519" y="-195.5" font-family="Helvetica,sans-Serif" font-size="10.00">COutPoint</text>
</a>
</g>
</g>
<!-- Node4&#45;&gt;Node3 -->
<g id="edge1" class="edge"><title>Node4&#45;&gt;Node3</title>
<path fill="none" stroke="#9a32cd" stroke-dasharray="5,2" d="M560.335,-202.37C614.834,-206.4 713.5,-206.942 786,-169 815.263,-153.685 837.291,-119.559 846.817,-102.745"/>
<polygon fill="#9a32cd" stroke="#9a32cd" points="560.619,-198.882 550.367,-201.557 560.049,-205.859 560.619,-198.882"/>
<text text-anchor="middle" x="612" y="-207" font-family="Helvetica,sans-Serif" font-size="10.00"> outpoint</text>
</g>
<!-- Node5 -->
<g id="node3" class="node"><title>Node5</title>
<g id="a_node3"><a xlink:href="classuint256.html" target="_top" xlink:title="256&#45;bit opaque blob. ">
<polygon fill="white" stroke="black" points="158,-171.5 158,-190.5 206,-190.5 206,-171.5 158,-171.5"/>
<text text-anchor="middle" x="182" y="-178.5" font-family="Helvetica,sans-Serif" font-size="10.00">uint256</text>
</a>
</g>
</g>
<!-- Node5&#45;&gt;Node4 -->
<g id="edge2" class="edge"><title>Node5&#45;&gt;Node4</title>
<path fill="none" stroke="#9a32cd" stroke-dasharray="5,2" d="M216.143,-182.682C281.264,-185.987 425.016,-193.281 487.738,-196.464"/>
<polygon fill="#9a32cd" stroke="#9a32cd" points="216.19,-179.18 206.026,-182.168 215.836,-186.171 216.19,-179.18"/>
<text text-anchor="middle" x="277" y="-189" font-family="Helvetica,sans-Serif" font-size="10.00"> hash</text>
</g>
<!-- Node14 -->
<g id="node12" class="node"><title>Node14</title>
<g id="a_node12"><a xlink:href="class_c_b_l_s_wrapper.html" target="_top" xlink:title="CBLSWrapper\&lt; bls::Public\lKey, BLS_CURVE_PUBKEY\l_SIZE, CBLSPublicKey \&gt;">
<polygon fill="white" stroke="black" points="324,-129.5 324,-170.5 470,-170.5 470,-129.5 324,-129.5"/>
<text text-anchor="start" x="332" y="-158.5" font-family="Helvetica,sans-Serif" font-size="10.00">CBLSWrapper&lt; bls::Public</text>
<text text-anchor="start" x="332" y="-147.5" font-family="Helvetica,sans-Serif" font-size="10.00">Key, BLS_CURVE_PUBKEY</text>
<text text-anchor="middle" x="397" y="-136.5" font-family="Helvetica,sans-Serif" font-size="10.00">_SIZE, CBLSPublicKey &gt;</text>
</a>
</g>
</g>
<!-- Node5&#45;&gt;Node14 -->
<g id="edge12" class="edge"><title>Node5&#45;&gt;Node14</title>
<path fill="none" stroke="#9a32cd" stroke-dasharray="5,2" d="M215.831,-172.623C226.083,-170.223 237.465,-167.778 248,-166 272.592,-161.848 299.673,-158.553 323.874,-156.059"/>
<polygon fill="#9a32cd" stroke="#9a32cd" points="214.933,-169.239 206.03,-174.981 216.571,-176.044 214.933,-169.239"/>
<text text-anchor="middle" x="277" y="-169" font-family="Helvetica,sans-Serif" font-size="10.00"> cachedHash</text>
</g>
<!-- Node6 -->
<g id="node4" class="node"><title>Node6</title>
<g id="a_node4"><a xlink:href="classbase__blob.html" target="_top" xlink:title="base_blob\&lt; 256 \&gt;">
<polygon fill="white" stroke="black" points="0.5,-171.5 0.5,-190.5 95.5,-190.5 95.5,-171.5 0.5,-171.5"/>
<text text-anchor="middle" x="48" y="-178.5" font-family="Helvetica,sans-Serif" font-size="10.00">base_blob&lt; 256 &gt;</text>
</a>
</g>
</g>
<!-- Node6&#45;&gt;Node5 -->
<g id="edge3" class="edge"><title>Node6&#45;&gt;Node5</title>
<path fill="none" stroke="midnightblue" d="M105.596,-181C123.949,-181 143.293,-181 157.792,-181"/>
<polygon fill="midnightblue" stroke="midnightblue" points="105.538,-177.5 95.5383,-181 105.538,-184.5 105.538,-177.5"/>
</g>
<!-- Node7 -->
<g id="node5" class="node"><title>Node7</title>
<g id="a_node5"><a xlink:href="class_c_key_i_d.html" target="_top" xlink:title="A reference to a CKey: the Hash160 of its serialized public key. ">
<polygon fill="white" stroke="black" points="586,-83.5 586,-102.5 638,-102.5 638,-83.5 586,-83.5"/>
<text text-anchor="middle" x="612" y="-90.5" font-family="Helvetica,sans-Serif" font-size="10.00">CKeyID</text>
</a>
</g>
</g>
<!-- Node7&#45;&gt;Node3 -->
<g id="edge4" class="edge"><title>Node7&#45;&gt;Node3</title>
<path fill="none" stroke="#9a32cd" stroke-dasharray="5,2" d="M648.256,-93C689.552,-93 758.163,-93 804.218,-93"/>
<polygon fill="#9a32cd" stroke="#9a32cd" points="648.125,-89.5001 638.125,-93 648.125,-96.5001 648.125,-89.5001"/>
<text text-anchor="middle" x="730" y="-129" font-family="Helvetica,sans-Serif" font-size="10.00"> keyIDCollateralAddress</text>
<text text-anchor="middle" x="730" y="-118" font-family="Helvetica,sans-Serif" font-size="10.00">legacyKeyIDOperator</text>
<text text-anchor="middle" x="730" y="-107" font-family="Helvetica,sans-Serif" font-size="10.00">keyIDOwner</text>
<text text-anchor="middle" x="730" y="-96" font-family="Helvetica,sans-Serif" font-size="10.00">keyIDVoting</text>
</g>
<!-- Node8 -->
<g id="node6" class="node"><title>Node8</title>
<g id="a_node6"><a xlink:href="classuint160.html" target="_top" xlink:title="160&#45;bit opaque blob. ">
<polygon fill="white" stroke="black" points="373,-83.5 373,-102.5 421,-102.5 421,-83.5 373,-83.5"/>
<text text-anchor="middle" x="397" y="-90.5" font-family="Helvetica,sans-Serif" font-size="10.00">uint160</text>
</a>
</g>
</g>
<!-- Node8&#45;&gt;Node7 -->
<g id="edge5" class="edge"><title>Node8&#45;&gt;Node7</title>
<path fill="none" stroke="midnightblue" d="M431.387,-93C474.195,-93 547.466,-93 585.856,-93"/>
<polygon fill="midnightblue" stroke="midnightblue" points="431.2,-89.5001 421.2,-93 431.2,-96.5001 431.2,-89.5001"/>
</g>
<!-- Node9 -->
<g id="node7" class="node"><title>Node9</title>
<g id="a_node7"><a xlink:href="classbase__blob.html" target="_top" xlink:title="base_blob\&lt; 160 \&gt;">
<polygon fill="white" stroke="black" points="134.5,-83.5 134.5,-102.5 229.5,-102.5 229.5,-83.5 134.5,-83.5"/>
<text text-anchor="middle" x="182" y="-90.5" font-family="Helvetica,sans-Serif" font-size="10.00">base_blob&lt; 160 &gt;</text>
</a>
</g>
</g>
<!-- Node9&#45;&gt;Node8 -->
<g id="edge6" class="edge"><title>Node9&#45;&gt;Node8</title>
<path fill="none" stroke="midnightblue" d="M239.931,-93C283.518,-93 341.363,-93 372.966,-93"/>
<polygon fill="midnightblue" stroke="midnightblue" points="239.744,-89.5001 229.744,-93 239.744,-96.5001 239.744,-89.5001"/>
</g>
<!-- Node10 -->
<g id="node8" class="node"><title>Node10</title>
<g id="a_node8"><a xlink:href="class_c_pub_key.html" target="_top" xlink:title="An encapsulated public key. ">
<polygon fill="white" stroke="black" points="582.5,-38.5 582.5,-57.5 641.5,-57.5 641.5,-38.5 582.5,-38.5"/>
<text text-anchor="middle" x="612" y="-45.5" font-family="Helvetica,sans-Serif" font-size="10.00">CPubKey</text>
</a>
</g>
</g>
<!-- Node10&#45;&gt;Node3 -->
<g id="edge7" class="edge"><title>Node10&#45;&gt;Node3</title>
<path fill="none" stroke="#9a32cd" stroke-dasharray="5,2" d="M651.95,-49.3251C687.355,-51.2227 740.81,-55.8295 786,-67 801.901,-70.9305 819.094,-77.7947 831.945,-83.4834"/>
<polygon fill="#9a32cd" stroke="#9a32cd" points="651.73,-45.8103 641.571,-48.8189 651.389,-52.802 651.73,-45.8103"/>
<text text-anchor="middle" x="730" y="-81" font-family="Helvetica,sans-Serif" font-size="10.00"> pubKeyMasternode</text>
<text text-anchor="middle" x="730" y="-70" font-family="Helvetica,sans-Serif" font-size="10.00">pubKeyCollateralAddress</text>
</g>
<!-- Node11 -->
<g id="node9" class="node"><title>Node11</title>
<g id="a_node9"><a xlink:href="class_c_service.html" target="_top" xlink:title="A combination of a network address (CNetAddr) and a (TCP) port. ">
<polygon fill="white" stroke="black" points="583.5,-0.5 583.5,-19.5 640.5,-19.5 640.5,-0.5 583.5,-0.5"/>
<text text-anchor="middle" x="612" y="-7.5" font-family="Helvetica,sans-Serif" font-size="10.00">CService</text>
</a>
</g>
</g>
<!-- Node11&#45;&gt;Node3 -->
<g id="edge8" class="edge"><title>Node11&#45;&gt;Node3</title>
<path fill="none" stroke="#9a32cd" stroke-dasharray="5,2" d="M650.851,-9.71489C687.099,-10.7904 742.546,-16.0308 786,-36 810.487,-47.2531 832.83,-70.4146 844.172,-83.4839"/>
<polygon fill="#9a32cd" stroke="#9a32cd" points="650.777,-6.21275 640.708,-9.50798 650.634,-13.2113 650.777,-6.21275"/>
<text text-anchor="middle" x="730" y="-39" font-family="Helvetica,sans-Serif" font-size="10.00"> addr</text>
</g>
<!-- Node12 -->
<g id="node10" class="node"><title>Node12</title>
<g id="a_node10"><a xlink:href="class_c_net_addr.html" target="_top" xlink:title="IP address (IPv6, or IPv4 using mapped IPv6 range (::FFFF:0:0/96)) ">
<polygon fill="white" stroke="black" points="367,-0.5 367,-19.5 427,-19.5 427,-0.5 367,-0.5"/>
<text text-anchor="middle" x="397" y="-7.5" font-family="Helvetica,sans-Serif" font-size="10.00">CNetAddr</text>
</a>
</g>
</g>
<!-- Node12&#45;&gt;Node11 -->
<g id="edge9" class="edge"><title>Node12&#45;&gt;Node11</title>
<path fill="none" stroke="midnightblue" d="M437.389,-10C479.736,-10 545.974,-10 583.196,-10"/>
<polygon fill="midnightblue" stroke="midnightblue" points="437.17,-6.5001 427.17,-10 437.17,-13.5001 437.17,-6.5001"/>
</g>
<!-- Node13 -->
<g id="node11" class="node"><title>Node13</title>
<g id="a_node11"><a xlink:href="class_c_b_l_s_public_key.html" target="_top" xlink:title="CBLSPublicKey">
<polygon fill="white" stroke="black" points="568.5,-141.5 568.5,-160.5 655.5,-160.5 655.5,-141.5 568.5,-141.5"/>
<text text-anchor="middle" x="612" y="-148.5" font-family="Helvetica,sans-Serif" font-size="10.00">CBLSPublicKey</text>
</a>
</g>
</g>
<!-- Node13&#45;&gt;Node3 -->
<g id="edge10" class="edge"><title>Node13&#45;&gt;Node3</title>
<path fill="none" stroke="#9a32cd" stroke-dasharray="5,2" d="M665.863,-154.029C700.882,-154.359 747.318,-151.54 786,-138 807.99,-130.302 829.542,-113.328 841.761,-102.568"/>
<polygon fill="#9a32cd" stroke="#9a32cd" points="665.907,-150.529 655.845,-153.846 665.779,-157.528 665.907,-150.529"/>
<text text-anchor="middle" x="730" y="-157" font-family="Helvetica,sans-Serif" font-size="10.00"> blsPubKeyOperator</text>
</g>
<!-- Node14&#45;&gt;Node13 -->
<g id="edge11" class="edge"><title>Node14&#45;&gt;Node13</title>
<path fill="none" stroke="midnightblue" d="M480.212,-150.386C510.35,-150.527 543.228,-150.682 568.48,-150.8"/>
<polygon fill="midnightblue" stroke="midnightblue" points="480.128,-146.886 470.112,-150.339 480.096,-153.886 480.128,-146.886"/>
</g>
</g>
</svg>
        <g id="navigator" transform="translate(0 0)" fill="#404254">
                <rect fill="#f2f5e9" fill-opacity="0.5" stroke="#606060" stroke-width=".5" x="0" y="0" width="60" height="60"/>
                <use id="zoomplus" xlink:href="#zoomPlus" x="17" y="9" onmousedown="handleZoom(evt,'in')"/>
                <use id="zoomminus" xlink:href="#zoomMin" x="42" y="9" onmousedown="handleZoom(evt,'out')"/>
                <use id="reset" xlink:href="#resetDef" x="30" y="36" onmousedown="handleReset()"/>
                <g id="arrowUp" xlink:href="#dirArrow" transform="translate(30 24)" onmousedown="handlePan(0,-1)">
                  <use xlink:href="#rim" fill="#404040">
                        <set attributeName="fill" to="#808080" begin="arrowUp.mouseover" end="arrowUp.mouseout"/>
                  </use>
                  <path fill="none" stroke="white" stroke-width="1.5" d="M0,-3.0v7 M-2.5,-0.5L0,-3.0L2.5,-0.5"/>
                </g>
                <g id="arrowRight" xlink:href="#dirArrow" transform="rotate(90) translate(36 -43)" onmousedown="handlePan(1,0)">
                  <use xlink:href="#rim" fill="#404040">
                        <set attributeName="fill" to="#808080" begin="arrowRight.mouseover" end="arrowRight.mouseout"/>
                  </use>
                  <path fill="none" stroke="white" stroke-width="1.5" d="M0,-3.0v7 M-2.5,-0.5L0,-3.0L2.5,-0.5"/>
                </g>
                <g id="arrowDown" xlink:href="#dirArrow" transform="rotate(180) translate(-30 -48)" onmousedown="handlePan(0,1)">
                  <use xlink:href="#rim" fill="#404040">
                        <set attributeName="fill" to="#808080" begin="arrowDown.mouseover" end="arrowDown.mouseout"/>
                  </use>
                  <path fill="none" stroke="white" stroke-width="1.5" d="M0,-3.0v7 M-2.5,-0.5L0,-3.0L2.5,-0.5"/>
                </g>
                <g id="arrowLeft" xlink:href="#dirArrow" transform="rotate(270) translate(-36 17)" onmousedown="handlePan(-1,0)">
                  <use xlink:href="#rim" fill="#404040">
                        <set attributeName="fill" to="#808080" begin="arrowLeft.mouseover" end="arrowLeft.mouseout"/>
                  </use>
                  <path fill="none" stroke="white" stroke-width="1.5" d="M0,-3.0v7 M-2.5,-0.5L0,-3.0L2.5,-0.5"/>
                </g>
        </g>
        <svg viewBox="0 0 15 15" width="100%" height="30px" preserveAspectRatio="xMaxYMin meet">
         <g id="arrow_out" transform="scale(0.3 0.3)">
          <a xlink:href="structmasternode__info__t__coll__graph_org.svg" target="_base">
           <rect id="button" ry="5" rx="5" y="6" x="6" height="38" width="38"
                fill="#f2f5e9" fill-opacity="0.5" stroke="#606060" stroke-width="1.0"/>
           <path id="arrow"
             d="M 11.500037,31.436501 C 11.940474,20.09759 22.043105,11.32322 32.158766,21.979434 L 37.068811,17.246167 C 37.068811,17.246167 37.088388,32 37.088388,32 L 22.160133,31.978069 C 22.160133,31.978069 26.997745,27.140456 26.997745,27.140456 C 18.528582,18.264221 13.291696,25.230495 11.500037,31.436501 z"
             style="fill:#404040;"/>
          </a>
         </g>
        </svg>
</svg>
