<?xml version="1.0" encoding="UTF-8" standalone="no"?>
<!DOCTYPE svg PUBLIC "-//W3C//DTD SVG 1.1//EN"
 "http://www.w3.org/Graphics/SVG/1.1/DTD/svg11.dtd">
<!-- Generated by graphviz version 2.36.0 (20140111.2315)
 -->
<!-- Title: immer::thread_local_free_list_heap&lt; Size, Limit, Base &gt; Pages: 1 -->
<svg width="356pt" height="72pt"
 viewBox="0.00 0.00 356.00 72.00" xmlns="http://www.w3.org/2000/svg" xmlns:xlink="http://www.w3.org/1999/xlink">
<g id="graph0" class="graph" transform="scale(1 1) rotate(0) translate(4 68)">
<title>immer::thread_local_free_list_heap&lt; Size, Limit, Base &gt;</title>
<polygon fill="white" stroke="none" points="-4,4 -4,-68 352,-68 352,4 -4,4"/>
<!-- Node0 -->
<g id="node1" class="node"><title>Node0</title>
<polygon fill="#bfbfbf" stroke="black" points="234,-11.5 234,-52.5 348,-52.5 348,-11.5 234,-11.5"/>
<text text-anchor="start" x="242" y="-40.5" font-family="Helvetica,sans-Serif" font-size="10.00">immer::thread_local</text>
<text text-anchor="start" x="242" y="-29.5" font-family="Helvetica,sans-Serif" font-size="10.00">_free_list_heap&lt; Size,</text>
<text text-anchor="middle" x="291" y="-18.5" font-family="Helvetica,sans-Serif" font-size="10.00"> Limit, Base &gt;</text>
</g>
<!-- Node1 -->
<g id="node2" class="node"><title>Node1</title>
<g id="a_node2"><a xlink:href="classimmer_1_1detail_1_1unsafe__free__list__heap__impl.html" target="_top" xlink:title="immer::detail::unsafe\l_free_list_heap_impl\l\&lt; detail::thread_local\l_free_list_storage, Size,\l Limit, Base \&gt;">
<polygon fill="white" stroke="black" points="76,-0.5 76,-63.5 198,-63.5 198,-0.5 76,-0.5"/>
<text text-anchor="start" x="84" y="-51.5" font-family="Helvetica,sans-Serif" font-size="10.00">immer::detail::unsafe</text>
<text text-anchor="start" x="84" y="-40.5" font-family="Helvetica,sans-Serif" font-size="10.00">_free_list_heap_impl</text>
<text text-anchor="start" x="84" y="-29.5" font-family="Helvetica,sans-Serif" font-size="10.00">&lt; detail::thread_local</text>
<text text-anchor="start" x="84" y="-18.5" font-family="Helvetica,sans-Serif" font-size="10.00">_free_list_storage, Size,</text>
<text text-anchor="middle" x="137" y="-7.5" font-family="Helvetica,sans-Serif" font-size="10.00"> Limit, Base &gt;</text>
</a>
</g>
</g>
<!-- Node1&#45;&gt;Node0 -->
<g id="edge1" class="edge"><title>Node1&#45;&gt;Node0</title>
<path fill="none" stroke="midnightblue" d="M208.117,-32C216.734,-32 225.453,-32 233.826,-32"/>
<polygon fill="midnightblue" stroke="midnightblue" points="208.074,-28.5001 198.074,-32 208.074,-35.5001 208.074,-28.5001"/>
</g>
<!-- Node2 -->
<g id="node3" class="node"><title>Node2</title>
<polygon fill="white" stroke="#bfbfbf" points="0.5,-22.5 0.5,-41.5 39.5,-41.5 39.5,-22.5 0.5,-22.5"/>
<text text-anchor="middle" x="20" y="-29.5" font-family="Helvetica,sans-Serif" font-size="10.00">Base</text>
</g>
<!-- Node2&#45;&gt;Node1 -->
<g id="edge2" class="edge"><title>Node2&#45;&gt;Node1</title>
<path fill="none" stroke="#8b1a1a" d="M49.9427,-32C57.9416,-32 66.9286,-32 75.9989,-32"/>
<polygon fill="#8b1a1a" stroke="#8b1a1a" points="49.7327,-28.5001 39.7327,-32 49.7326,-35.5001 49.7327,-28.5001"/>
</g>
</g>
</svg>
