<?xml version="1.0" encoding="UTF-8" standalone="no"?>
<!DOCTYPE svg PUBLIC "-//W3C//DTD SVG 1.1//EN"
 "http://www.w3.org/Graphics/SVG/1.1/DTD/svg11.dtd">
<!-- Generated by graphviz version 2.36.0 (20140111.2315)
 -->
<!-- Title: immer::gc_transience_policy::apply&lt; HeapPolicy &gt;::type Pages: 1 -->
<svg width="144pt" height="140pt"
 viewBox="0.00 0.00 144.00 140.00" xmlns="http://www.w3.org/2000/svg" xmlns:xlink="http://www.w3.org/1999/xlink">
<g id="graph0" class="graph" transform="scale(1 1) rotate(0) translate(4 136)">
<title>immer::gc_transience_policy::apply&lt; HeapPolicy &gt;::type</title>
<polygon fill="white" stroke="none" points="-4,4 -4,-136 140,-136 140,4 -4,4"/>
<!-- Node1 -->
<g id="node1" class="node"><title>Node1</title>
<polygon fill="#bfbfbf" stroke="black" points="0,-0.5 0,-41.5 136,-41.5 136,-0.5 0,-0.5"/>
<text text-anchor="start" x="8" y="-29.5" font-family="Helvetica,sans-Serif" font-size="10.00">immer::gc_transience</text>
<text text-anchor="start" x="8" y="-18.5" font-family="Helvetica,sans-Serif" font-size="10.00">_policy::apply&lt; HeapPolicy</text>
<text text-anchor="middle" x="68" y="-7.5" font-family="Helvetica,sans-Serif" font-size="10.00"> &gt;::type</text>
</g>
<!-- Node2 -->
<g id="node2" class="node"><title>Node2</title>
<g id="a_node2"><a xlink:href="structimmer_1_1gc__transience__policy_1_1apply_1_1type_1_1owner.html" target="_top" xlink:title="immer::gc_transience\l_policy::apply\&lt; HeapPolicy\l \&gt;::type::owner">
<polygon fill="white" stroke="black" points="0,-90.5 0,-131.5 136,-131.5 136,-90.5 0,-90.5"/>
<text text-anchor="start" x="8" y="-119.5" font-family="Helvetica,sans-Serif" font-size="10.00">immer::gc_transience</text>
<text text-anchor="start" x="8" y="-108.5" font-family="Helvetica,sans-Serif" font-size="10.00">_policy::apply&lt; HeapPolicy</text>
<text text-anchor="middle" x="68" y="-97.5" font-family="Helvetica,sans-Serif" font-size="10.00"> &gt;::type::owner</text>
</a>
</g>
</g>
<!-- Node2&#45;&gt;Node1 -->
<g id="edge1" class="edge"><title>Node2&#45;&gt;Node1</title>
<path fill="none" stroke="#9a32cd" stroke-dasharray="5,2" d="M68,-80.3298C68,-67.6289 68,-53.1399 68,-41.7798"/>
<polygon fill="#9a32cd" stroke="#9a32cd" points="64.5001,-80.4699 68,-90.4699 71.5001,-80.47 64.5001,-80.4699"/>
<text text-anchor="middle" x="83" y="-63.5" font-family="Helvetica,sans-Serif" font-size="10.00"> noone</text>
</g>
</g>
</svg>
