<?xml version="1.0" encoding="UTF-8" standalone="no"?>
<!DOCTYPE svg PUBLIC "-//W3C//DTD SVG 1.1//EN"
 "http://www.w3.org/Graphics/SVG/1.1/DTD/svg11.dtd">
<!-- Generated by graphviz version 2.36.0 (20140111.2315)
 -->
<!-- Title: CDBTransaction&lt; Parent, CommitTarget &gt;::KeyValueHolder Pages: 1 -->
<svg width="174pt" height="118pt"
 viewBox="0.00 0.00 174.00 118.00" xmlns="http://www.w3.org/2000/svg" xmlns:xlink="http://www.w3.org/1999/xlink">
<g id="graph0" class="graph" transform="scale(1 1) rotate(0) translate(4 114)">
<title>CDBTransaction&lt; Parent, CommitTarget &gt;::KeyValueHolder</title>
<polygon fill="white" stroke="none" points="-4,4 -4,-114 170,-114 170,4 -4,4"/>
<!-- Node0 -->
<g id="node1" class="node"><title>Node0</title>
<polygon fill="#bfbfbf" stroke="black" points="-0.5,-79 -0.5,-109 166.5,-109 166.5,-79 -0.5,-79"/>
<text text-anchor="start" x="7.5" y="-97" font-family="Helvetica,sans-Serif" font-size="10.00">CDBTransaction&lt; Parent,</text>
<text text-anchor="middle" x="83" y="-86" font-family="Helvetica,sans-Serif" font-size="10.00"> CommitTarget &gt;::KeyValueHolder</text>
</g>
<!-- Node1 -->
<g id="node2" class="node"><title>Node1</title>
<g id="a_node2"><a xlink:href="struct_c_d_b_transaction_1_1_key_value_holder_impl.html" target="_top" xlink:title="CDBTransaction\&lt; Parent,\l CommitTarget \&gt;::KeyValueHolder\lImpl\&lt; K, V \&gt;">
<polygon fill="white" stroke="black" points="-0.5,-0.5 -0.5,-41.5 166.5,-41.5 166.5,-0.5 -0.5,-0.5"/>
<text text-anchor="start" x="7.5" y="-29.5" font-family="Helvetica,sans-Serif" font-size="10.00">CDBTransaction&lt; Parent,</text>
<text text-anchor="start" x="7.5" y="-18.5" font-family="Helvetica,sans-Serif" font-size="10.00"> CommitTarget &gt;::KeyValueHolder</text>
<text text-anchor="middle" x="83" y="-7.5" font-family="Helvetica,sans-Serif" font-size="10.00">Impl&lt; K, V &gt;</text>
</a>
</g>
</g>
<!-- Node0&#45;&gt;Node1 -->
<g id="edge1" class="edge"><title>Node0&#45;&gt;Node1</title>
<path fill="none" stroke="midnightblue" d="M83,-68.8534C83,-59.9872 83,-50.065 83,-41.642"/>
<polygon fill="midnightblue" stroke="midnightblue" points="79.5001,-68.9727 83,-78.9727 86.5001,-68.9727 79.5001,-68.9727"/>
</g>
</g>
</svg>
