<?xml version="1.0" encoding="UTF-8" standalone="no"?>
<!DOCTYPE svg PUBLIC "-//W3C//DTD SVG 1.1//EN"
 "http://www.w3.org/Graphics/SVG/1.1/DTD/svg11.dtd">
<!-- Generated by graphviz version 2.36.0 (20140111.2315)
 -->
<!-- Title: CBlockTemplate Pages: 1 -->
<svg width="127pt" height="290pt"
 viewBox="0.00 0.00 127.00 290.00" xmlns="http://www.w3.org/2000/svg" xmlns:xlink="http://www.w3.org/1999/xlink">
<g id="graph0" class="graph" transform="scale(1 1) rotate(0) translate(4 286)">
<title>CBlockTemplate</title>
<polygon fill="white" stroke="none" points="-4,4 -4,-286 123,-286 123,4 -4,4"/>
<!-- Node1 -->
<g id="node1" class="node"><title>Node1</title>
<polygon fill="#bfbfbf" stroke="black" points="2.5,-0.5 2.5,-19.5 91.5,-19.5 91.5,-0.5 2.5,-0.5"/>
<text text-anchor="middle" x="47" y="-7.5" font-family="Helvetica,sans-Serif" font-size="10.00">CBlockTemplate</text>
</g>
<!-- Node2 -->
<g id="node2" class="node"><title>Node2</title>
<g id="a_node2"><a xlink:href="class_c_block.html" target="_top" xlink:title="CBlock">
<polygon fill="white" stroke="black" points="22.5,-68.5 22.5,-87.5 71.5,-87.5 71.5,-68.5 22.5,-68.5"/>
<text text-anchor="middle" x="47" y="-75.5" font-family="Helvetica,sans-Serif" font-size="10.00">CBlock</text>
</a>
</g>
</g>
<!-- Node2&#45;&gt;Node1 -->
<g id="edge1" class="edge"><title>Node2&#45;&gt;Node1</title>
<path fill="none" stroke="#9a32cd" stroke-dasharray="5,2" d="M47,-58.0413C47,-45.4724 47,-29.5631 47,-19.8411"/>
<polygon fill="#9a32cd" stroke="#9a32cd" points="43.5001,-58.3716 47,-68.3717 50.5001,-58.3717 43.5001,-58.3716"/>
<text text-anchor="middle" x="60.5" y="-41.5" font-family="Helvetica,sans-Serif" font-size="10.00"> block</text>
</g>
<!-- Node3 -->
<g id="node3" class="node"><title>Node3</title>
<g id="a_node3"><a xlink:href="class_c_block_header.html" target="_top" xlink:title="Nodes collect new transactions into a block, hash them into a hash tree, and scan through nonce value...">
<polygon fill="white" stroke="black" points="7,-126.5 7,-145.5 87,-145.5 87,-126.5 7,-126.5"/>
<text text-anchor="middle" x="47" y="-133.5" font-family="Helvetica,sans-Serif" font-size="10.00">CBlockHeader</text>
</a>
</g>
</g>
<!-- Node3&#45;&gt;Node2 -->
<g id="edge2" class="edge"><title>Node3&#45;&gt;Node2</title>
<path fill="none" stroke="midnightblue" d="M47,-115.953C47,-106.287 47,-95.0312 47,-87.5052"/>
<polygon fill="midnightblue" stroke="midnightblue" points="43.5001,-116.25 47,-126.25 50.5001,-116.25 43.5001,-116.25"/>
</g>
<!-- Node4 -->
<g id="node4" class="node"><title>Node4</title>
<g id="a_node4"><a xlink:href="classuint256.html" target="_top" xlink:title="256&#45;bit opaque blob. ">
<polygon fill="white" stroke="black" points="23,-204.5 23,-223.5 71,-223.5 71,-204.5 23,-204.5"/>
<text text-anchor="middle" x="47" y="-211.5" font-family="Helvetica,sans-Serif" font-size="10.00">uint256</text>
</a>
</g>
</g>
<!-- Node4&#45;&gt;Node3 -->
<g id="edge3" class="edge"><title>Node4&#45;&gt;Node3</title>
<path fill="none" stroke="#9a32cd" stroke-dasharray="5,2" d="M47,-194.224C47,-178.697 47,-157.358 47,-145.616"/>
<polygon fill="#9a32cd" stroke="#9a32cd" points="43.5001,-194.282 47,-204.282 50.5001,-194.282 43.5001,-194.282"/>
<text text-anchor="middle" x="83" y="-178" font-family="Helvetica,sans-Serif" font-size="10.00"> hashPrevBlock</text>
<text text-anchor="middle" x="83" y="-167" font-family="Helvetica,sans-Serif" font-size="10.00">hashMerkleRoot</text>
</g>
<!-- Node5 -->
<g id="node5" class="node"><title>Node5</title>
<g id="a_node5"><a xlink:href="classbase__blob.html" target="_top" xlink:title="base_blob\&lt; 256 \&gt;">
<polygon fill="white" stroke="black" points="-0.5,-262.5 -0.5,-281.5 94.5,-281.5 94.5,-262.5 -0.5,-262.5"/>
<text text-anchor="middle" x="47" y="-269.5" font-family="Helvetica,sans-Serif" font-size="10.00">base_blob&lt; 256 &gt;</text>
</a>
</g>
</g>
<!-- Node5&#45;&gt;Node4 -->
<g id="edge4" class="edge"><title>Node5&#45;&gt;Node4</title>
<path fill="none" stroke="midnightblue" d="M47,-251.953C47,-242.287 47,-231.031 47,-223.505"/>
<polygon fill="midnightblue" stroke="midnightblue" points="43.5001,-252.25 47,-262.25 50.5001,-252.25 43.5001,-252.25"/>
</g>
</g>
</svg>
