<?xml version="1.0" encoding="UTF-8" standalone="no"?>
<!DOCTYPE svg PUBLIC "-//W3C//DTD SVG 1.1//EN"
 "http://www.w3.org/Graphics/SVG/1.1/DTD/svg11.dtd">
<!-- Generated by graphviz version 2.36.0 (20140111.2315)
 -->
<!-- Title: immer::detail::rbts::rbtree&lt; T, MemoryPolicy, B, BL &gt; Pages: 1 -->
<svg width="142pt" height="150pt"
 viewBox="0.00 0.00 142.00 150.00" xmlns="http://www.w3.org/2000/svg" xmlns:xlink="http://www.w3.org/1999/xlink">
<g id="graph0" class="graph" transform="scale(1 1) rotate(0) translate(4 146)">
<title>immer::detail::rbts::rbtree&lt; T, MemoryPolicy, B, BL &gt;</title>
<polygon fill="white" stroke="none" points="-4,4 -4,-146 138,-146 138,4 -4,4"/>
<!-- Node1 -->
<g id="node1" class="node"><title>Node1</title>
<polygon fill="#bfbfbf" stroke="black" points="0,-0.5 0,-41.5 134,-41.5 134,-0.5 0,-0.5"/>
<text text-anchor="start" x="8" y="-29.5" font-family="Helvetica,sans-Serif" font-size="10.00">immer::detail::rbts</text>
<text text-anchor="start" x="8" y="-18.5" font-family="Helvetica,sans-Serif" font-size="10.00">::rbtree&lt; T, MemoryPolicy,</text>
<text text-anchor="middle" x="67" y="-7.5" font-family="Helvetica,sans-Serif" font-size="10.00"> B, BL &gt;</text>
</g>
<!-- Node2 -->
<g id="node2" class="node"><title>Node2</title>
<g id="a_node2"><a xlink:href="structimmer_1_1detail_1_1rbts_1_1node.html" target="_top" xlink:title="immer::detail::rbts\l::node\&lt; T, MemoryPolicy,\l B, BL \&gt;">
<polygon fill="white" stroke="black" points="2,-100.5 2,-141.5 132,-141.5 132,-100.5 2,-100.5"/>
<text text-anchor="start" x="10" y="-129.5" font-family="Helvetica,sans-Serif" font-size="10.00">immer::detail::rbts</text>
<text text-anchor="start" x="10" y="-118.5" font-family="Helvetica,sans-Serif" font-size="10.00">::node&lt; T, MemoryPolicy,</text>
<text text-anchor="middle" x="67" y="-107.5" font-family="Helvetica,sans-Serif" font-size="10.00"> B, BL &gt;</text>
</a>
</g>
</g>
<!-- Node2&#45;&gt;Node1 -->
<g id="edge1" class="edge"><title>Node2&#45;&gt;Node1</title>
<path fill="none" stroke="#9a32cd" stroke-dasharray="5,2" d="M67,-89.9245C67,-74.2865 67,-55.6099 67,-41.8023"/>
<polygon fill="#9a32cd" stroke="#9a32cd" points="63.5001,-90.1682 67,-100.168 70.5001,-90.1683 63.5001,-90.1682"/>
<text text-anchor="middle" x="75.5" y="-74" font-family="Helvetica,sans-Serif" font-size="10.00"> tail</text>
<text text-anchor="middle" x="75.5" y="-63" font-family="Helvetica,sans-Serif" font-size="10.00">root</text>
</g>
</g>
</svg>
