<?xml version="1.0" encoding="UTF-8" standalone="no"?>
<!DOCTYPE svg PUBLIC "-//W3C//DTD SVG 1.1//EN"
 "http://www.w3.org/Graphics/SVG/1.1/DTD/svg11.dtd">
<!-- Generated by graphviz version 2.36.0 (20140111.2315)
 -->
<!-- Title: bench_ecdh_t Pages: 1 -->
<svg width="404pt" height="344pt"
 viewBox="0.00 0.00 404.00 344.00" xmlns="http://www.w3.org/2000/svg" xmlns:xlink="http://www.w3.org/1999/xlink">
<g id="graph0" class="graph" transform="scale(1 1) rotate(0) translate(4 340)">
<title>bench_ecdh_t</title>
<polygon fill="white" stroke="none" points="-4,4 -4,-340 400,-340 400,4 -4,4"/>
<!-- Node1 -->
<g id="node1" class="node"><title>Node1</title>
<polygon fill="#bfbfbf" stroke="black" points="77.5,-0.5 77.5,-19.5 154.5,-19.5 154.5,-0.5 77.5,-0.5"/>
<text text-anchor="middle" x="116" y="-7.5" font-family="Helvetica,sans-Serif" font-size="10.00">bench_ecdh_t</text>
</g>
<!-- Node2 -->
<g id="node2" class="node"><title>Node2</title>
<g id="a_node2"><a xlink:href="structsecp256k1__pubkey.html" target="_top" xlink:title="Opaque data structure that holds a parsed and valid public key. ">
<polygon fill="white" stroke="black" points="20.5,-68.5 20.5,-87.5 121.5,-87.5 121.5,-68.5 20.5,-68.5"/>
<text text-anchor="middle" x="71" y="-75.5" font-family="Helvetica,sans-Serif" font-size="10.00">secp256k1_pubkey</text>
</a>
</g>
</g>
<!-- Node2&#45;&gt;Node1 -->
<g id="edge1" class="edge"><title>Node2&#45;&gt;Node1</title>
<path fill="none" stroke="#9a32cd" stroke-dasharray="5,2" d="M82.6334,-59.9377C91.3782,-47.112 103.005,-30.0591 109.972,-19.8411"/>
<polygon fill="#9a32cd" stroke="#9a32cd" points="79.6246,-58.1377 76.883,-68.3717 85.4082,-62.0811 79.6246,-58.1377"/>
<text text-anchor="middle" x="110.5" y="-41.5" font-family="Helvetica,sans-Serif" font-size="10.00"> point</text>
</g>
<!-- Node3 -->
<g id="node3" class="node"><title>Node3</title>
<g id="a_node3"><a xlink:href="structsecp256k1__context__struct.html" target="_top" xlink:title="secp256k1_context_struct">
<polygon fill="white" stroke="black" points="139.5,-68.5 139.5,-87.5 270.5,-87.5 270.5,-68.5 139.5,-68.5"/>
<text text-anchor="middle" x="205" y="-75.5" font-family="Helvetica,sans-Serif" font-size="10.00">secp256k1_context_struct</text>
</a>
</g>
</g>
<!-- Node3&#45;&gt;Node1 -->
<g id="edge2" class="edge"><title>Node3&#45;&gt;Node1</title>
<path fill="none" stroke="#9a32cd" stroke-dasharray="5,2" d="M184.902,-62.0961C167.244,-49.0012 142.164,-30.4028 127.638,-19.6305"/>
<polygon fill="#9a32cd" stroke="#9a32cd" points="183.248,-65.2264 193.365,-68.3717 187.417,-59.6037 183.248,-65.2264"/>
<text text-anchor="middle" x="177.5" y="-41.5" font-family="Helvetica,sans-Serif" font-size="10.00"> ctx</text>
</g>
<!-- Node4 -->
<g id="node4" class="node"><title>Node4</title>
<g id="a_node4"><a xlink:href="structsecp256k1__ecmult__gen__context.html" target="_top" xlink:title="secp256k1_ecmult_gen\l_context">
<polygon fill="white" stroke="black" points="-0.5,-147 -0.5,-177 118.5,-177 118.5,-147 -0.5,-147"/>
<text text-anchor="start" x="7.5" y="-165" font-family="Helvetica,sans-Serif" font-size="10.00">secp256k1_ecmult_gen</text>
<text text-anchor="middle" x="59" y="-154" font-family="Helvetica,sans-Serif" font-size="10.00">_context</text>
</a>
</g>
</g>
<!-- Node4&#45;&gt;Node3 -->
<g id="edge3" class="edge"><title>Node4&#45;&gt;Node3</title>
<path fill="none" stroke="#9a32cd" stroke-dasharray="5,2" d="M81.0254,-140.27C93.9397,-128.96 111.014,-115.393 128,-106 142.009,-98.2538 158.653,-92.0854 172.877,-87.6111"/>
<polygon fill="#9a32cd" stroke="#9a32cd" points="78.6698,-137.681 73.5599,-146.962 83.3423,-142.893 78.6698,-137.681"/>
<text text-anchor="middle" x="164.5" y="-114.5" font-family="Helvetica,sans-Serif" font-size="10.00"> ecmult_gen_ctx</text>
</g>
<!-- Node5 -->
<g id="node5" class="node"><title>Node5</title>
<g id="a_node5"><a xlink:href="structsecp256k1__gej.html" target="_top" xlink:title="A group element of the secp256k1 curve, in jacobian coordinates. ">
<polygon fill="white" stroke="black" points="18,-226.5 18,-245.5 100,-245.5 100,-226.5 18,-226.5"/>
<text text-anchor="middle" x="59" y="-233.5" font-family="Helvetica,sans-Serif" font-size="10.00">secp256k1_gej</text>
</a>
</g>
</g>
<!-- Node5&#45;&gt;Node4 -->
<g id="edge4" class="edge"><title>Node5&#45;&gt;Node4</title>
<path fill="none" stroke="#9a32cd" stroke-dasharray="5,2" d="M59,-216.085C59,-203.915 59,-188.354 59,-177.232"/>
<polygon fill="#9a32cd" stroke="#9a32cd" points="55.5001,-216.458 59,-226.458 62.5001,-216.458 55.5001,-216.458"/>
<text text-anchor="middle" x="72" y="-199.5" font-family="Helvetica,sans-Serif" font-size="10.00"> initial</text>
</g>
<!-- Node6 -->
<g id="node6" class="node"><title>Node6</title>
<g id="a_node6"><a xlink:href="structsecp256k1__fe.html" target="_top" xlink:title="secp256k1_fe">
<polygon fill="white" stroke="black" points="20.5,-316.5 20.5,-335.5 97.5,-335.5 97.5,-316.5 20.5,-316.5"/>
<text text-anchor="middle" x="59" y="-323.5" font-family="Helvetica,sans-Serif" font-size="10.00">secp256k1_fe</text>
</a>
</g>
</g>
<!-- Node6&#45;&gt;Node5 -->
<g id="edge5" class="edge"><title>Node6&#45;&gt;Node5</title>
<path fill="none" stroke="#9a32cd" stroke-dasharray="5,2" d="M59,-305.978C59,-287.31 59,-259.67 59,-245.724"/>
<polygon fill="#9a32cd" stroke="#9a32cd" points="55.5001,-306.24 59,-316.241 62.5001,-306.241 55.5001,-306.24"/>
<text text-anchor="middle" x="63.5" y="-289.5" font-family="Helvetica,sans-Serif" font-size="10.00"> x</text>
<text text-anchor="middle" x="63.5" y="-278.5" font-family="Helvetica,sans-Serif" font-size="10.00">y</text>
<text text-anchor="middle" x="63.5" y="-267.5" font-family="Helvetica,sans-Serif" font-size="10.00">z</text>
</g>
<!-- Node7 -->
<g id="node7" class="node"><title>Node7</title>
<g id="a_node7"><a xlink:href="structsecp256k1__ge__storage.html" target="_top" xlink:title="secp256k1_ge_storage">
<polygon fill="white" stroke="black" points="125.5,-226.5 125.5,-245.5 242.5,-245.5 242.5,-226.5 125.5,-226.5"/>
<text text-anchor="middle" x="184" y="-233.5" font-family="Helvetica,sans-Serif" font-size="10.00">secp256k1_ge_storage</text>
</a>
</g>
</g>
<!-- Node7&#45;&gt;Node4 -->
<g id="edge6" class="edge"><title>Node7&#45;&gt;Node4</title>
<path fill="none" stroke="#9a32cd" stroke-dasharray="5,2" d="M160.49,-221.458C138.572,-208.834 106.003,-190.074 83.7076,-177.232"/>
<polygon fill="#9a32cd" stroke="#9a32cd" points="158.758,-224.5 169.17,-226.458 162.252,-218.434 158.758,-224.5"/>
<text text-anchor="middle" x="148" y="-199.5" font-family="Helvetica,sans-Serif" font-size="10.00"> prec</text>
</g>
<!-- Node10 -->
<g id="node10" class="node"><title>Node10</title>
<g id="a_node10"><a xlink:href="structsecp256k1__ecmult__context.html" target="_top" xlink:title="secp256k1_ecmult_context">
<polygon fill="white" stroke="black" points="137,-152.5 137,-171.5 273,-171.5 273,-152.5 137,-152.5"/>
<text text-anchor="middle" x="205" y="-159.5" font-family="Helvetica,sans-Serif" font-size="10.00">secp256k1_ecmult_context</text>
</a>
</g>
</g>
<!-- Node7&#45;&gt;Node10 -->
<g id="edge10" class="edge"><title>Node7&#45;&gt;Node10</title>
<path fill="none" stroke="#9a32cd" stroke-dasharray="5,2" d="M189.371,-216.584C193.597,-202.094 199.293,-182.568 202.512,-171.531"/>
<polygon fill="#9a32cd" stroke="#9a32cd" points="185.932,-215.878 186.491,-226.458 192.652,-217.838 185.932,-215.878"/>
<text text-anchor="middle" x="210" y="-199.5" font-family="Helvetica,sans-Serif" font-size="10.00"> pre_g</text>
</g>
<!-- Node8 -->
<g id="node8" class="node"><title>Node8</title>
<g id="a_node8"><a xlink:href="structsecp256k1__fe__storage.html" target="_top" xlink:title="secp256k1_fe_storage">
<polygon fill="white" stroke="black" points="126.5,-316.5 126.5,-335.5 241.5,-335.5 241.5,-316.5 126.5,-316.5"/>
<text text-anchor="middle" x="184" y="-323.5" font-family="Helvetica,sans-Serif" font-size="10.00">secp256k1_fe_storage</text>
</a>
</g>
</g>
<!-- Node8&#45;&gt;Node7 -->
<g id="edge7" class="edge"><title>Node8&#45;&gt;Node7</title>
<path fill="none" stroke="#9a32cd" stroke-dasharray="5,2" d="M184,-305.978C184,-287.31 184,-259.67 184,-245.724"/>
<polygon fill="#9a32cd" stroke="#9a32cd" points="180.5,-306.24 184,-316.241 187.5,-306.241 180.5,-306.24"/>
<text text-anchor="middle" x="188.5" y="-284" font-family="Helvetica,sans-Serif" font-size="10.00"> x</text>
<text text-anchor="middle" x="188.5" y="-273" font-family="Helvetica,sans-Serif" font-size="10.00">y</text>
</g>
<!-- Node9 -->
<g id="node9" class="node"><title>Node9</title>
<g id="a_node9"><a xlink:href="structsecp256k1__callback.html" target="_top" xlink:title="secp256k1_callback">
<polygon fill="white" stroke="black" points="291.5,-152.5 291.5,-171.5 396.5,-171.5 396.5,-152.5 291.5,-152.5"/>
<text text-anchor="middle" x="344" y="-159.5" font-family="Helvetica,sans-Serif" font-size="10.00">secp256k1_callback</text>
</a>
</g>
</g>
<!-- Node9&#45;&gt;Node3 -->
<g id="edge8" class="edge"><title>Node9&#45;&gt;Node3</title>
<path fill="none" stroke="#9a32cd" stroke-dasharray="5,2" d="M323.905,-146.567C307.391,-134.98 283.185,-118.621 261,-106 249.179,-99.2753 235.429,-92.6295 224.512,-87.614"/>
<polygon fill="#9a32cd" stroke="#9a32cd" points="322.043,-149.537 332.227,-152.458 326.088,-143.824 322.043,-149.537"/>
<text text-anchor="middle" x="330" y="-120" font-family="Helvetica,sans-Serif" font-size="10.00"> illegal_callback</text>
<text text-anchor="middle" x="330" y="-109" font-family="Helvetica,sans-Serif" font-size="10.00">error_callback</text>
</g>
<!-- Node10&#45;&gt;Node3 -->
<g id="edge9" class="edge"><title>Node10&#45;&gt;Node3</title>
<path fill="none" stroke="#9a32cd" stroke-dasharray="5,2" d="M205,-141.759C205,-124.676 205,-100.498 205,-87.7123"/>
<polygon fill="#9a32cd" stroke="#9a32cd" points="201.5,-142.225 205,-152.225 208.5,-142.225 201.5,-142.225"/>
<text text-anchor="middle" x="231" y="-114.5" font-family="Helvetica,sans-Serif" font-size="10.00"> ecmult_ctx</text>
</g>
</g>
</svg>
