<?xml version="1.0" encoding="UTF-8" standalone="no"?>
<!DOCTYPE svg PUBLIC "-//W3C//DTD SVG 1.1//EN"
 "http://www.w3.org/Graphics/SVG/1.1/DTD/svg11.dtd">
<!-- Generated by graphviz version 2.36.0 (20140111.2315)
 -->
<!-- Title: immer::detail::dvektor::node&lt; T, B, MP &gt; Pages: 1 -->
<svg width="282pt" height="109pt"
 viewBox="0.00 0.00 282.00 109.00" xmlns="http://www.w3.org/2000/svg" xmlns:xlink="http://www.w3.org/1999/xlink">
<g id="graph0" class="graph" transform="scale(1 1) rotate(0) translate(4 105)">
<title>immer::detail::dvektor::node&lt; T, B, MP &gt;</title>
<polygon fill="white" stroke="none" points="-4,4 -4,-105 278,-105 278,4 -4,4"/>
<!-- Node0 -->
<g id="node1" class="node"><title>Node0</title>
<polygon fill="#bfbfbf" stroke="black" points="162.5,-35 162.5,-65 273.5,-65 273.5,-35 162.5,-35"/>
<text text-anchor="start" x="170.5" y="-53" font-family="Helvetica,sans-Serif" font-size="10.00">immer::detail::dvektor</text>
<text text-anchor="middle" x="218" y="-42" font-family="Helvetica,sans-Serif" font-size="10.00">::node&lt; T, B, MP &gt;</text>
</g>
<!-- Node1 -->
<g id="node2" class="node"><title>Node1</title>
<g id="a_node2"><a xlink:href="classimmer_1_1enable__intrusive__ptr.html" target="_top" xlink:title="immer::enable_intrusive\l_ptr\&lt; node\&lt; T, B, MP \&gt;\l, MP::refcount \&gt;">
<polygon fill="white" stroke="black" points="2.5,-59.5 2.5,-100.5 123.5,-100.5 123.5,-59.5 2.5,-59.5"/>
<text text-anchor="start" x="10.5" y="-88.5" font-family="Helvetica,sans-Serif" font-size="10.00">immer::enable_intrusive</text>
<text text-anchor="start" x="10.5" y="-77.5" font-family="Helvetica,sans-Serif" font-size="10.00">_ptr&lt; node&lt; T, B, MP &gt;</text>
<text text-anchor="middle" x="63" y="-66.5" font-family="Helvetica,sans-Serif" font-size="10.00">, MP::refcount &gt;</text>
</a>
</g>
</g>
<!-- Node1&#45;&gt;Node0 -->
<g id="edge1" class="edge"><title>Node1&#45;&gt;Node0</title>
<path fill="none" stroke="midnightblue" d="M133.562,-66.3604C143.205,-64.4696 152.997,-62.5496 162.317,-60.7221"/>
<polygon fill="midnightblue" stroke="midnightblue" points="132.732,-62.9565 123.592,-68.3153 134.079,-69.8257 132.732,-62.9565"/>
</g>
<!-- Node2 -->
<g id="node3" class="node"><title>Node2</title>
<g id="a_node3"><a xlink:href="structimmer_1_1enable__optimized__heap__policy.html" target="_top" xlink:title="immer::enable_optimized\l_heap_policy\&lt; node\&lt; T,\l B, MP \&gt;, MP::heap \&gt;">
<polygon fill="white" stroke="black" points="0.5,0.5 0.5,-40.5 125.5,-40.5 125.5,0.5 0.5,0.5"/>
<text text-anchor="start" x="8.5" y="-28.5" font-family="Helvetica,sans-Serif" font-size="10.00">immer::enable_optimized</text>
<text text-anchor="start" x="8.5" y="-17.5" font-family="Helvetica,sans-Serif" font-size="10.00">_heap_policy&lt; node&lt; T,</text>
<text text-anchor="middle" x="63" y="-6.5" font-family="Helvetica,sans-Serif" font-size="10.00"> B, MP &gt;, MP::heap &gt;</text>
</a>
</g>
</g>
<!-- Node2&#45;&gt;Node0 -->
<g id="edge2" class="edge"><title>Node2&#45;&gt;Node0</title>
<path fill="none" stroke="midnightblue" d="M135.811,-34.0807C144.743,-35.8319 153.76,-37.5999 162.373,-39.2888"/>
<polygon fill="midnightblue" stroke="midnightblue" points="136.277,-30.6053 125.79,-32.1157 134.93,-37.4745 136.277,-30.6053"/>
</g>
</g>
</svg>
