<?xml version="1.0" encoding="UTF-8" standalone="no"?>
<!DOCTYPE svg PUBLIC "-//W3C//DTD SVG 1.1//EN"
 "http://www.w3.org/Graphics/SVG/1.1/DTD/svg11.dtd">
<!-- Generated by graphviz version 2.36.0 (20140111.2315)
 -->
<!-- Title: update_lock_points Pages: 1 -->
<svg width="213pt" height="302pt"
 viewBox="0.00 0.00 213.00 302.00" xmlns="http://www.w3.org/2000/svg" xmlns:xlink="http://www.w3.org/1999/xlink">
<g id="graph0" class="graph" transform="scale(1 1) rotate(0) translate(4 298)">
<title>update_lock_points</title>
<polygon fill="white" stroke="none" points="-4,4 -4,-298 209,-298 209,4 -4,4"/>
<!-- Node1 -->
<g id="node1" class="node"><title>Node1</title>
<polygon fill="#bfbfbf" stroke="black" points="50.5,-0.5 50.5,-19.5 151.5,-19.5 151.5,-0.5 50.5,-0.5"/>
<text text-anchor="middle" x="101" y="-7.5" font-family="Helvetica,sans-Serif" font-size="10.00">update_lock_points</text>
</g>
<!-- Node2 -->
<g id="node2" class="node"><title>Node2</title>
<g id="a_node2"><a xlink:href="struct_lock_points.html" target="_top" xlink:title="LockPoints">
<polygon fill="white" stroke="black" points="68.5,-68.5 68.5,-87.5 133.5,-87.5 133.5,-68.5 68.5,-68.5"/>
<text text-anchor="middle" x="101" y="-75.5" font-family="Helvetica,sans-Serif" font-size="10.00">LockPoints</text>
</a>
</g>
</g>
<!-- Node2&#45;&gt;Node1 -->
<g id="edge1" class="edge"><title>Node2&#45;&gt;Node1</title>
<path fill="none" stroke="#9a32cd" stroke-dasharray="5,2" d="M101,-58.0413C101,-45.4724 101,-29.5631 101,-19.8411"/>
<polygon fill="#9a32cd" stroke="#9a32cd" points="97.5001,-58.3716 101,-68.3717 104.5,-58.3717 97.5001,-58.3716"/>
<text text-anchor="middle" x="106.5" y="-41.5" font-family="Helvetica,sans-Serif" font-size="10.00"> lp</text>
</g>
<!-- Node3 -->
<g id="node3" class="node"><title>Node3</title>
<g id="a_node3"><a xlink:href="class_c_block_index.html" target="_top" xlink:title="The block chain is a tree shaped structure starting with the genesis block at the root...">
<polygon fill="white" stroke="black" points="64.5,-137.5 64.5,-156.5 137.5,-156.5 137.5,-137.5 64.5,-137.5"/>
<text text-anchor="middle" x="101" y="-144.5" font-family="Helvetica,sans-Serif" font-size="10.00">CBlockIndex</text>
</a>
</g>
</g>
<!-- Node3&#45;&gt;Node2 -->
<g id="edge2" class="edge"><title>Node3&#45;&gt;Node2</title>
<path fill="none" stroke="#9a32cd" stroke-dasharray="5,2" d="M101,-127.018C101,-114.034 101,-97.4419 101,-87.5494"/>
<polygon fill="#9a32cd" stroke="#9a32cd" points="97.5001,-127.241 101,-137.241 104.5,-127.241 97.5001,-127.241"/>
<text text-anchor="middle" x="135.5" y="-109.5" font-family="Helvetica,sans-Serif" font-size="10.00"> maxInputBlock</text>
</g>
<!-- Node3&#45;&gt;Node3 -->
<g id="edge3" class="edge"><title>Node3&#45;&gt;Node3</title>
<path fill="none" stroke="#9a32cd" stroke-dasharray="5,2" d="M147.79,-152.124C152.208,-151.075 155,-149.367 155,-147 155,-143.115 147.48,-141.006 137.596,-140.672"/>
<polygon fill="#9a32cd" stroke="#9a32cd" points="147.117,-148.679 137.596,-153.328 147.938,-155.631 147.117,-148.679"/>
<text text-anchor="middle" x="168.5" y="-150" font-family="Helvetica,sans-Serif" font-size="10.00"> pskip</text>
<text text-anchor="middle" x="168.5" y="-139" font-family="Helvetica,sans-Serif" font-size="10.00">pprev</text>
</g>
<!-- Node4 -->
<g id="node4" class="node"><title>Node4</title>
<g id="a_node4"><a xlink:href="classuint256.html" target="_top" xlink:title="256&#45;bit opaque blob. ">
<polygon fill="white" stroke="black" points="25,-216.5 25,-235.5 73,-235.5 73,-216.5 25,-216.5"/>
<text text-anchor="middle" x="49" y="-223.5" font-family="Helvetica,sans-Serif" font-size="10.00">uint256</text>
</a>
</g>
</g>
<!-- Node4&#45;&gt;Node3 -->
<g id="edge4" class="edge"><title>Node4&#45;&gt;Node3</title>
<path fill="none" stroke="#9a32cd" stroke-dasharray="5,2" d="M48.0358,-206.04C48.4077,-196.356 50.2629,-184.794 56,-176 61.5303,-167.523 70.6164,-161.161 79.1815,-156.662"/>
<polygon fill="#9a32cd" stroke="#9a32cd" points="44.5381,-206.303 48.1368,-216.268 51.5378,-206.234 44.5381,-206.303"/>
<text text-anchor="middle" x="92" y="-190" font-family="Helvetica,sans-Serif" font-size="10.00"> phashBlock</text>
<text text-anchor="middle" x="92" y="-179" font-family="Helvetica,sans-Serif" font-size="10.00">hashMerkleRoot</text>
</g>
<!-- Node5 -->
<g id="node5" class="node"><title>Node5</title>
<g id="a_node5"><a xlink:href="classbase__blob.html" target="_top" xlink:title="base_blob\&lt; 256 \&gt;">
<polygon fill="white" stroke="black" points="-0.5,-274.5 -0.5,-293.5 94.5,-293.5 94.5,-274.5 -0.5,-274.5"/>
<text text-anchor="middle" x="47" y="-281.5" font-family="Helvetica,sans-Serif" font-size="10.00">base_blob&lt; 256 &gt;</text>
</a>
</g>
</g>
<!-- Node5&#45;&gt;Node4 -->
<g id="edge5" class="edge"><title>Node5&#45;&gt;Node4</title>
<path fill="none" stroke="midnightblue" d="M47.6802,-263.953C48.0254,-254.287 48.4275,-243.031 48.6962,-235.505"/>
<polygon fill="midnightblue" stroke="midnightblue" points="44.1717,-264.131 47.3125,-274.25 51.1673,-264.381 44.1717,-264.131"/>
</g>
<!-- Node6 -->
<g id="node6" class="node"><title>Node6</title>
<g id="a_node6"><a xlink:href="classarith__uint256.html" target="_top" xlink:title="256&#45;bit unsigned big integer. ">
<polygon fill="white" stroke="black" points="122,-216.5 122,-235.5 194,-235.5 194,-216.5 122,-216.5"/>
<text text-anchor="middle" x="158" y="-223.5" font-family="Helvetica,sans-Serif" font-size="10.00">arith_uint256</text>
</a>
</g>
</g>
<!-- Node6&#45;&gt;Node3 -->
<g id="edge6" class="edge"><title>Node6&#45;&gt;Node3</title>
<path fill="none" stroke="#9a32cd" stroke-dasharray="5,2" d="M148.424,-207.315C142.922,-197.717 135.609,-185.838 128,-176 122.712,-169.162 115.962,-162.162 110.534,-156.872"/>
<polygon fill="#9a32cd" stroke="#9a32cd" points="145.511,-209.278 153.437,-216.31 151.626,-205.871 145.511,-209.278"/>
<text text-anchor="middle" x="172" y="-184.5" font-family="Helvetica,sans-Serif" font-size="10.00"> nChainWork</text>
</g>
<!-- Node7 -->
<g id="node7" class="node"><title>Node7</title>
<g id="a_node7"><a xlink:href="classbase__uint.html" target="_top" xlink:title="base_uint\&lt; 256 \&gt;">
<polygon fill="white" stroke="black" points="113,-274.5 113,-293.5 205,-293.5 205,-274.5 113,-274.5"/>
<text text-anchor="middle" x="159" y="-281.5" font-family="Helvetica,sans-Serif" font-size="10.00">base_uint&lt; 256 &gt;</text>
</a>
</g>
</g>
<!-- Node7&#45;&gt;Node6 -->
<g id="edge7" class="edge"><title>Node7&#45;&gt;Node6</title>
<path fill="none" stroke="midnightblue" d="M158.66,-263.953C158.487,-254.287 158.286,-243.031 158.152,-235.505"/>
<polygon fill="midnightblue" stroke="midnightblue" points="155.166,-264.314 158.844,-274.25 162.165,-264.189 155.166,-264.314"/>
</g>
</g>
</svg>
