<?xml version="1.0" encoding="UTF-8" standalone="no"?>
<!DOCTYPE svg PUBLIC "-//W3C//DTD SVG 1.1//EN"
 "http://www.w3.org/Graphics/SVG/1.1/DTD/svg11.dtd">
<!-- Generated by graphviz version 2.36.0 (20140111.2315)
 -->
<!-- Title: Member Pages: 1 -->
<svg width="180pt" height="302pt"
 viewBox="0.00 0.00 180.00 302.00" xmlns="http://www.w3.org/2000/svg" xmlns:xlink="http://www.w3.org/1999/xlink">
<g id="graph0" class="graph" transform="scale(1 1) rotate(0) translate(4 298)">
<title>Member</title>
<polygon fill="white" stroke="none" points="-4,4 -4,-298 176,-298 176,4 -4,4"/>
<!-- Node1 -->
<g id="node1" class="node"><title>Node1</title>
<polygon fill="#bfbfbf" stroke="black" points="60,-0.5 60,-19.5 112,-19.5 112,-0.5 60,-0.5"/>
<text text-anchor="middle" x="86" y="-7.5" font-family="Helvetica,sans-Serif" font-size="10.00">Member</text>
</g>
<!-- Node2 -->
<g id="node2" class="node"><title>Node2</title>
<g id="a_node2"><a xlink:href="class_c_b_l_s_id.html" target="_top" xlink:title="CBLSId">
<polygon fill="white" stroke="black" points="60.5,-68.5 60.5,-87.5 111.5,-87.5 111.5,-68.5 60.5,-68.5"/>
<text text-anchor="middle" x="86" y="-75.5" font-family="Helvetica,sans-Serif" font-size="10.00">CBLSId</text>
</a>
</g>
</g>
<!-- Node2&#45;&gt;Node1 -->
<g id="edge1" class="edge"><title>Node2&#45;&gt;Node1</title>
<path fill="none" stroke="#9a32cd" stroke-dasharray="5,2" d="M86,-58.0413C86,-45.4724 86,-29.5631 86,-19.8411"/>
<polygon fill="#9a32cd" stroke="#9a32cd" points="82.5001,-58.3716 86,-68.3717 89.5001,-58.3717 82.5001,-58.3716"/>
<text text-anchor="middle" x="91.5" y="-41.5" font-family="Helvetica,sans-Serif" font-size="10.00"> id</text>
</g>
<!-- Node3 -->
<g id="node3" class="node"><title>Node3</title>
<g id="a_node3"><a xlink:href="class_c_b_l_s_wrapper.html" target="_top" xlink:title="CBLSWrapper\&lt; uint256,\l BLS_CURVE_ID_SIZE, CBLSId \&gt;">
<polygon fill="white" stroke="black" points="-0.5,-127 -0.5,-157 172.5,-157 172.5,-127 -0.5,-127"/>
<text text-anchor="start" x="7.5" y="-145" font-family="Helvetica,sans-Serif" font-size="10.00">CBLSWrapper&lt; uint256,</text>
<text text-anchor="middle" x="86" y="-134" font-family="Helvetica,sans-Serif" font-size="10.00"> BLS_CURVE_ID_SIZE, CBLSId &gt;</text>
</a>
</g>
</g>
<!-- Node3&#45;&gt;Node2 -->
<g id="edge2" class="edge"><title>Node3&#45;&gt;Node2</title>
<path fill="none" stroke="midnightblue" d="M86,-116.871C86,-106.663 86,-95.4077 86,-87.8419"/>
<polygon fill="midnightblue" stroke="midnightblue" points="82.5001,-116.931 86,-126.931 89.5001,-116.931 82.5001,-116.931"/>
</g>
<!-- Node4 -->
<g id="node4" class="node"><title>Node4</title>
<g id="a_node4"><a xlink:href="classuint256.html" target="_top" xlink:title="256&#45;bit opaque blob. ">
<polygon fill="white" stroke="black" points="62,-216.5 62,-235.5 110,-235.5 110,-216.5 62,-216.5"/>
<text text-anchor="middle" x="86" y="-223.5" font-family="Helvetica,sans-Serif" font-size="10.00">uint256</text>
</a>
</g>
</g>
<!-- Node4&#45;&gt;Node3 -->
<g id="edge3" class="edge"><title>Node4&#45;&gt;Node3</title>
<path fill="none" stroke="#9a32cd" stroke-dasharray="5,2" d="M86,-206.114C86,-191.201 86,-170.72 86,-157.184"/>
<polygon fill="#9a32cd" stroke="#9a32cd" points="82.5001,-206.225 86,-216.225 89.5001,-206.225 82.5001,-206.225"/>
<text text-anchor="middle" x="113.5" y="-190" font-family="Helvetica,sans-Serif" font-size="10.00"> impl</text>
<text text-anchor="middle" x="113.5" y="-179" font-family="Helvetica,sans-Serif" font-size="10.00">cachedHash</text>
</g>
<!-- Node5 -->
<g id="node5" class="node"><title>Node5</title>
<g id="a_node5"><a xlink:href="classbase__blob.html" target="_top" xlink:title="base_blob\&lt; 256 \&gt;">
<polygon fill="white" stroke="black" points="38.5,-274.5 38.5,-293.5 133.5,-293.5 133.5,-274.5 38.5,-274.5"/>
<text text-anchor="middle" x="86" y="-281.5" font-family="Helvetica,sans-Serif" font-size="10.00">base_blob&lt; 256 &gt;</text>
</a>
</g>
</g>
<!-- Node5&#45;&gt;Node4 -->
<g id="edge4" class="edge"><title>Node5&#45;&gt;Node4</title>
<path fill="none" stroke="midnightblue" d="M86,-263.953C86,-254.287 86,-243.031 86,-235.505"/>
<polygon fill="midnightblue" stroke="midnightblue" points="82.5001,-264.25 86,-274.25 89.5001,-264.25 82.5001,-264.25"/>
</g>
</g>
</svg>
