<?xml version="1.0" encoding="UTF-8" standalone="no"?>
<!DOCTYPE svg PUBLIC "-//W3C//DTD SVG 1.1//EN"
 "http://www.w3.org/Graphics/SVG/1.1/DTD/svg11.dtd">
<!-- Generated by graphviz version 2.36.0 (20140111.2315)
 -->
<!-- Title: immer::detail::arrays::no_capacity&lt; T, MemoryPolicy &gt; Pages: 1 -->
<svg width="174pt" height="120pt"
 viewBox="0.00 0.00 174.00 120.00" xmlns="http://www.w3.org/2000/svg" xmlns:xlink="http://www.w3.org/1999/xlink">
<g id="graph0" class="graph" transform="scale(1 1) rotate(0) translate(4 116)">
<title>immer::detail::arrays::no_capacity&lt; T, MemoryPolicy &gt;</title>
<polygon fill="white" stroke="none" points="-4,4 -4,-116 170,-116 170,4 -4,4"/>
<!-- Node1 -->
<g id="node1" class="node"><title>Node1</title>
<polygon fill="#bfbfbf" stroke="black" points="-0.5,-1 -0.5,-31 166.5,-31 166.5,-1 -0.5,-1"/>
<text text-anchor="start" x="7.5" y="-19" font-family="Helvetica,sans-Serif" font-size="10.00">immer::detail::arrays</text>
<text text-anchor="middle" x="83" y="-8" font-family="Helvetica,sans-Serif" font-size="10.00">::no_capacity&lt; T, MemoryPolicy &gt;</text>
</g>
<!-- Node2 -->
<g id="node2" class="node"><title>Node2</title>
<g id="a_node2"><a xlink:href="structimmer_1_1detail_1_1arrays_1_1node.html" target="_top" xlink:title="immer::detail::arrays\l::node\&lt; T, MemoryPolicy \&gt;">
<polygon fill="white" stroke="black" points="15,-81 15,-111 151,-111 151,-81 15,-81"/>
<text text-anchor="start" x="23" y="-99" font-family="Helvetica,sans-Serif" font-size="10.00">immer::detail::arrays</text>
<text text-anchor="middle" x="83" y="-88" font-family="Helvetica,sans-Serif" font-size="10.00">::node&lt; T, MemoryPolicy &gt;</text>
</a>
</g>
</g>
<!-- Node2&#45;&gt;Node1 -->
<g id="edge1" class="edge"><title>Node2&#45;&gt;Node1</title>
<path fill="none" stroke="#9a32cd" stroke-dasharray="5,2" d="M83,-70.5644C83,-57.6243 83,-42.1862 83,-31.2157"/>
<polygon fill="#9a32cd" stroke="#9a32cd" points="79.5001,-70.6936 83,-80.6936 86.5001,-70.6936 79.5001,-70.6936"/>
<text text-anchor="middle" x="90.5" y="-53.5" font-family="Helvetica,sans-Serif" font-size="10.00"> ptr</text>
</g>
</g>
</svg>
