<?xml version="1.0" encoding="UTF-8" standalone="no"?>
<!DOCTYPE svg PUBLIC "-//W3C//DTD SVG 1.1//EN"
 "http://www.w3.org/Graphics/SVG/1.1/DTD/svg11.dtd">
<!-- Generated by graphviz version 2.36.0 (20140111.2315)
 -->
<!-- Title: benchmark_schnorr_verify_t Pages: 1 -->
<svg width="411pt" height="344pt"
 viewBox="0.00 0.00 411.00 344.00" xmlns="http://www.w3.org/2000/svg" xmlns:xlink="http://www.w3.org/1999/xlink">
<g id="graph0" class="graph" transform="scale(1 1) rotate(0) translate(4 340)">
<title>benchmark_schnorr_verify_t</title>
<polygon fill="white" stroke="none" points="-4,4 -4,-340 407,-340 407,4 -4,4"/>
<!-- Node1 -->
<g id="node1" class="node"><title>Node1</title>
<polygon fill="#bfbfbf" stroke="black" points="42,-0.5 42,-19.5 182,-19.5 182,-0.5 42,-0.5"/>
<text text-anchor="middle" x="112" y="-7.5" font-family="Helvetica,sans-Serif" font-size="10.00">benchmark_schnorr_verify_t</text>
</g>
<!-- Node2 -->
<g id="node2" class="node"><title>Node2</title>
<g id="a_node2"><a xlink:href="structbenchmark__schnorr__sig__t.html" target="_top" xlink:title="benchmark_schnorr_sig_t">
<polygon fill="white" stroke="black" points="0,-68.5 0,-87.5 128,-87.5 128,-68.5 0,-68.5"/>
<text text-anchor="middle" x="64" y="-75.5" font-family="Helvetica,sans-Serif" font-size="10.00">benchmark_schnorr_sig_t</text>
</a>
</g>
</g>
<!-- Node2&#45;&gt;Node1 -->
<g id="edge1" class="edge"><title>Node2&#45;&gt;Node1</title>
<path fill="none" stroke="#9a32cd" stroke-dasharray="5,2" d="M76.4089,-59.9377C85.7368,-47.112 98.1388,-30.0591 105.57,-19.8411"/>
<polygon fill="#9a32cd" stroke="#9a32cd" points="73.3263,-58.2257 70.2752,-68.3717 78.9875,-62.3429 73.3263,-58.2257"/>
<text text-anchor="middle" x="104" y="-41.5" font-family="Helvetica,sans-Serif" font-size="10.00"> sigs</text>
</g>
<!-- Node3 -->
<g id="node3" class="node"><title>Node3</title>
<g id="a_node3"><a xlink:href="structsecp256k1__context__struct.html" target="_top" xlink:title="secp256k1_context_struct">
<polygon fill="white" stroke="black" points="146.5,-68.5 146.5,-87.5 277.5,-87.5 277.5,-68.5 146.5,-68.5"/>
<text text-anchor="middle" x="212" y="-75.5" font-family="Helvetica,sans-Serif" font-size="10.00">secp256k1_context_struct</text>
</a>
</g>
</g>
<!-- Node3&#45;&gt;Node1 -->
<g id="edge2" class="edge"><title>Node3&#45;&gt;Node1</title>
<path fill="none" stroke="#9a32cd" stroke-dasharray="5,2" d="M190.502,-62.8113C170.616,-49.6863 141.698,-30.6004 125.076,-19.6305"/>
<polygon fill="#9a32cd" stroke="#9a32cd" points="188.653,-65.7843 198.927,-68.3717 192.509,-59.942 188.653,-65.7843"/>
<text text-anchor="middle" x="179.5" y="-41.5" font-family="Helvetica,sans-Serif" font-size="10.00"> ctx</text>
</g>
<!-- Node4 -->
<g id="node4" class="node"><title>Node4</title>
<g id="a_node4"><a xlink:href="structsecp256k1__ecmult__gen__context.html" target="_top" xlink:title="secp256k1_ecmult_gen\l_context">
<polygon fill="white" stroke="black" points="6.5,-147 6.5,-177 125.5,-177 125.5,-147 6.5,-147"/>
<text text-anchor="start" x="14.5" y="-165" font-family="Helvetica,sans-Serif" font-size="10.00">secp256k1_ecmult_gen</text>
<text text-anchor="middle" x="66" y="-154" font-family="Helvetica,sans-Serif" font-size="10.00">_context</text>
</a>
</g>
</g>
<!-- Node4&#45;&gt;Node3 -->
<g id="edge3" class="edge"><title>Node4&#45;&gt;Node3</title>
<path fill="none" stroke="#9a32cd" stroke-dasharray="5,2" d="M88.0254,-140.27C100.94,-128.96 118.014,-115.393 135,-106 149.009,-98.2538 165.653,-92.0854 179.877,-87.6111"/>
<polygon fill="#9a32cd" stroke="#9a32cd" points="85.6698,-137.681 80.5599,-146.962 90.3423,-142.893 85.6698,-137.681"/>
<text text-anchor="middle" x="171.5" y="-114.5" font-family="Helvetica,sans-Serif" font-size="10.00"> ecmult_gen_ctx</text>
</g>
<!-- Node5 -->
<g id="node5" class="node"><title>Node5</title>
<g id="a_node5"><a xlink:href="structsecp256k1__gej.html" target="_top" xlink:title="A group element of the secp256k1 curve, in jacobian coordinates. ">
<polygon fill="white" stroke="black" points="25,-226.5 25,-245.5 107,-245.5 107,-226.5 25,-226.5"/>
<text text-anchor="middle" x="66" y="-233.5" font-family="Helvetica,sans-Serif" font-size="10.00">secp256k1_gej</text>
</a>
</g>
</g>
<!-- Node5&#45;&gt;Node4 -->
<g id="edge4" class="edge"><title>Node5&#45;&gt;Node4</title>
<path fill="none" stroke="#9a32cd" stroke-dasharray="5,2" d="M66,-216.085C66,-203.915 66,-188.354 66,-177.232"/>
<polygon fill="#9a32cd" stroke="#9a32cd" points="62.5001,-216.458 66,-226.458 69.5001,-216.458 62.5001,-216.458"/>
<text text-anchor="middle" x="79" y="-199.5" font-family="Helvetica,sans-Serif" font-size="10.00"> initial</text>
</g>
<!-- Node6 -->
<g id="node6" class="node"><title>Node6</title>
<g id="a_node6"><a xlink:href="structsecp256k1__fe.html" target="_top" xlink:title="secp256k1_fe">
<polygon fill="white" stroke="black" points="27.5,-316.5 27.5,-335.5 104.5,-335.5 104.5,-316.5 27.5,-316.5"/>
<text text-anchor="middle" x="66" y="-323.5" font-family="Helvetica,sans-Serif" font-size="10.00">secp256k1_fe</text>
</a>
</g>
</g>
<!-- Node6&#45;&gt;Node5 -->
<g id="edge5" class="edge"><title>Node6&#45;&gt;Node5</title>
<path fill="none" stroke="#9a32cd" stroke-dasharray="5,2" d="M66,-305.978C66,-287.31 66,-259.67 66,-245.724"/>
<polygon fill="#9a32cd" stroke="#9a32cd" points="62.5001,-306.24 66,-316.241 69.5001,-306.241 62.5001,-306.24"/>
<text text-anchor="middle" x="70.5" y="-289.5" font-family="Helvetica,sans-Serif" font-size="10.00"> x</text>
<text text-anchor="middle" x="70.5" y="-278.5" font-family="Helvetica,sans-Serif" font-size="10.00">y</text>
<text text-anchor="middle" x="70.5" y="-267.5" font-family="Helvetica,sans-Serif" font-size="10.00">z</text>
</g>
<!-- Node7 -->
<g id="node7" class="node"><title>Node7</title>
<g id="a_node7"><a xlink:href="structsecp256k1__ge__storage.html" target="_top" xlink:title="secp256k1_ge_storage">
<polygon fill="white" stroke="black" points="132.5,-226.5 132.5,-245.5 249.5,-245.5 249.5,-226.5 132.5,-226.5"/>
<text text-anchor="middle" x="191" y="-233.5" font-family="Helvetica,sans-Serif" font-size="10.00">secp256k1_ge_storage</text>
</a>
</g>
</g>
<!-- Node7&#45;&gt;Node4 -->
<g id="edge6" class="edge"><title>Node7&#45;&gt;Node4</title>
<path fill="none" stroke="#9a32cd" stroke-dasharray="5,2" d="M167.49,-221.458C145.572,-208.834 113.003,-190.074 90.7076,-177.232"/>
<polygon fill="#9a32cd" stroke="#9a32cd" points="165.758,-224.5 176.17,-226.458 169.252,-218.434 165.758,-224.5"/>
<text text-anchor="middle" x="155" y="-199.5" font-family="Helvetica,sans-Serif" font-size="10.00"> prec</text>
</g>
<!-- Node10 -->
<g id="node10" class="node"><title>Node10</title>
<g id="a_node10"><a xlink:href="structsecp256k1__ecmult__context.html" target="_top" xlink:title="secp256k1_ecmult_context">
<polygon fill="white" stroke="black" points="144,-152.5 144,-171.5 280,-171.5 280,-152.5 144,-152.5"/>
<text text-anchor="middle" x="212" y="-159.5" font-family="Helvetica,sans-Serif" font-size="10.00">secp256k1_ecmult_context</text>
</a>
</g>
</g>
<!-- Node7&#45;&gt;Node10 -->
<g id="edge10" class="edge"><title>Node7&#45;&gt;Node10</title>
<path fill="none" stroke="#9a32cd" stroke-dasharray="5,2" d="M196.371,-216.584C200.597,-202.094 206.293,-182.568 209.512,-171.531"/>
<polygon fill="#9a32cd" stroke="#9a32cd" points="192.932,-215.878 193.491,-226.458 199.652,-217.838 192.932,-215.878"/>
<text text-anchor="middle" x="217" y="-199.5" font-family="Helvetica,sans-Serif" font-size="10.00"> pre_g</text>
</g>
<!-- Node8 -->
<g id="node8" class="node"><title>Node8</title>
<g id="a_node8"><a xlink:href="structsecp256k1__fe__storage.html" target="_top" xlink:title="secp256k1_fe_storage">
<polygon fill="white" stroke="black" points="133.5,-316.5 133.5,-335.5 248.5,-335.5 248.5,-316.5 133.5,-316.5"/>
<text text-anchor="middle" x="191" y="-323.5" font-family="Helvetica,sans-Serif" font-size="10.00">secp256k1_fe_storage</text>
</a>
</g>
</g>
<!-- Node8&#45;&gt;Node7 -->
<g id="edge7" class="edge"><title>Node8&#45;&gt;Node7</title>
<path fill="none" stroke="#9a32cd" stroke-dasharray="5,2" d="M191,-305.978C191,-287.31 191,-259.67 191,-245.724"/>
<polygon fill="#9a32cd" stroke="#9a32cd" points="187.5,-306.24 191,-316.241 194.5,-306.241 187.5,-306.24"/>
<text text-anchor="middle" x="195.5" y="-284" font-family="Helvetica,sans-Serif" font-size="10.00"> x</text>
<text text-anchor="middle" x="195.5" y="-273" font-family="Helvetica,sans-Serif" font-size="10.00">y</text>
</g>
<!-- Node9 -->
<g id="node9" class="node"><title>Node9</title>
<g id="a_node9"><a xlink:href="structsecp256k1__callback.html" target="_top" xlink:title="secp256k1_callback">
<polygon fill="white" stroke="black" points="298.5,-152.5 298.5,-171.5 403.5,-171.5 403.5,-152.5 298.5,-152.5"/>
<text text-anchor="middle" x="351" y="-159.5" font-family="Helvetica,sans-Serif" font-size="10.00">secp256k1_callback</text>
</a>
</g>
</g>
<!-- Node9&#45;&gt;Node3 -->
<g id="edge8" class="edge"><title>Node9&#45;&gt;Node3</title>
<path fill="none" stroke="#9a32cd" stroke-dasharray="5,2" d="M330.905,-146.567C314.391,-134.98 290.185,-118.621 268,-106 256.179,-99.2753 242.429,-92.6295 231.512,-87.614"/>
<polygon fill="#9a32cd" stroke="#9a32cd" points="329.043,-149.537 339.227,-152.458 333.088,-143.824 329.043,-149.537"/>
<text text-anchor="middle" x="337" y="-120" font-family="Helvetica,sans-Serif" font-size="10.00"> illegal_callback</text>
<text text-anchor="middle" x="337" y="-109" font-family="Helvetica,sans-Serif" font-size="10.00">error_callback</text>
</g>
<!-- Node10&#45;&gt;Node3 -->
<g id="edge9" class="edge"><title>Node10&#45;&gt;Node3</title>
<path fill="none" stroke="#9a32cd" stroke-dasharray="5,2" d="M212,-141.759C212,-124.676 212,-100.498 212,-87.7123"/>
<polygon fill="#9a32cd" stroke="#9a32cd" points="208.5,-142.225 212,-152.225 215.5,-142.225 208.5,-142.225"/>
<text text-anchor="middle" x="238" y="-114.5" font-family="Helvetica,sans-Serif" font-size="10.00"> ecmult_ctx</text>
</g>
</g>
</svg>
