<?xml version="1.0" encoding="UTF-8" standalone="no"?>
<!DOCTYPE svg PUBLIC "-//W3C//DTD SVG 1.1//EN"
 "http://www.w3.org/Graphics/SVG/1.1/DTD/svg11.dtd">
<!-- Generated by graphviz version 2.36.0 (20140111.2315)
 -->
<!-- Title: src/secp256k1/src/testrand.h Pages: 1 -->
<svg width="278pt" height="164pt"
 viewBox="0.00 0.00 278.00 164.00" xmlns="http://www.w3.org/2000/svg" xmlns:xlink="http://www.w3.org/1999/xlink">
<g id="graph0" class="graph" transform="scale(1 1) rotate(0) translate(4 160)">
<title>src/secp256k1/src/testrand.h</title>
<polygon fill="white" stroke="none" points="-4,4 -4,-160 274,-160 274,4 -4,4"/>
<!-- Node1 -->
<g id="node1" class="node"><title>Node1</title>
<polygon fill="#bfbfbf" stroke="black" points="65.5,-136.5 65.5,-155.5 208.5,-155.5 208.5,-136.5 65.5,-136.5"/>
<text text-anchor="middle" x="137" y="-143.5" font-family="Helvetica,sans-Serif" font-size="10.00">src/secp256k1/src/testrand.h</text>
</g>
<!-- Node2 -->
<g id="node2" class="node"><title>Node2</title>
<g id="a_node2"><a xlink:href="testrand__impl_8h.html" target="_top" xlink:title="src/secp256k1/src/testrand\l_impl.h">
<polygon fill="white" stroke="black" points="69.5,-69 69.5,-99 204.5,-99 204.5,-69 69.5,-69"/>
<text text-anchor="start" x="77.5" y="-87" font-family="Helvetica,sans-Serif" font-size="10.00">src/secp256k1/src/testrand</text>
<text text-anchor="middle" x="137" y="-76" font-family="Helvetica,sans-Serif" font-size="10.00">_impl.h</text>
</a>
</g>
</g>
<!-- Node1&#45;&gt;Node2 -->
<g id="edge1" class="edge"><title>Node1&#45;&gt;Node2</title>
<path fill="none" stroke="midnightblue" d="M137,-126.371C137,-117.585 137,-107.272 137,-99.1408"/>
<polygon fill="midnightblue" stroke="midnightblue" points="133.5,-126.403 137,-136.403 140.5,-126.403 133.5,-126.403"/>
</g>
<!-- Node3 -->
<g id="node3" class="node"><title>Node3</title>
<g id="a_node3"><a xlink:href="tests_8c.html" target="_top" xlink:title="src/secp256k1/src/tests.c">
<polygon fill="white" stroke="black" points="0,-6.5 0,-25.5 130,-25.5 130,-6.5 0,-6.5"/>
<text text-anchor="middle" x="65" y="-13.5" font-family="Helvetica,sans-Serif" font-size="10.00">src/secp256k1/src/tests.c</text>
</a>
</g>
</g>
<!-- Node2&#45;&gt;Node3 -->
<g id="edge2" class="edge"><title>Node2&#45;&gt;Node3</title>
<path fill="none" stroke="midnightblue" d="M113.929,-61.8517C100.635,-49.6656 84.6286,-34.9929 74.6309,-25.8283"/>
<polygon fill="midnightblue" stroke="midnightblue" points="111.64,-64.5018 121.377,-68.679 116.371,-59.3417 111.64,-64.5018"/>
</g>
<!-- Node4 -->
<g id="node4" class="node"><title>Node4</title>
<g id="a_node4"><a xlink:href="tests__exhaustive_8c.html" target="_top" xlink:title="src/secp256k1/src/tests\l_exhaustive.c">
<polygon fill="white" stroke="black" points="148,-1 148,-31 270,-31 270,-1 148,-1"/>
<text text-anchor="start" x="156" y="-19" font-family="Helvetica,sans-Serif" font-size="10.00">src/secp256k1/src/tests</text>
<text text-anchor="middle" x="209" y="-8" font-family="Helvetica,sans-Serif" font-size="10.00">_exhaustive.c</text>
</a>
</g>
</g>
<!-- Node2&#45;&gt;Node4 -->
<g id="edge3" class="edge"><title>Node2&#45;&gt;Node4</title>
<path fill="none" stroke="midnightblue" d="M160.153,-61.7762C171.025,-51.8105 183.696,-40.1956 193.408,-31.2931"/>
<polygon fill="midnightblue" stroke="midnightblue" points="157.629,-59.3417 152.623,-68.679 162.36,-64.5018 157.629,-59.3417"/>
</g>
</g>
</svg>
