<?xml version="1.0" encoding="UTF-8" standalone="no"?>
<!DOCTYPE svg PUBLIC "-//W3C//DTD SVG 1.1//EN"
 "http://www.w3.org/Graphics/SVG/1.1/DTD/svg11.dtd">
<!-- Generated by graphviz version 2.36.0 (20140111.2315)
 -->
<!-- Title: src/torcontrol.h Pages: 1 -->
<svg width="183pt" height="84pt"
 viewBox="0.00 0.00 183.00 84.00" xmlns="http://www.w3.org/2000/svg" xmlns:xlink="http://www.w3.org/1999/xlink">
<g id="graph0" class="graph" transform="scale(1 1) rotate(0) translate(4 80)">
<title>src/torcontrol.h</title>
<polygon fill="white" stroke="none" points="-4,4 -4,-80 179,-80 179,4 -4,4"/>
<!-- Node6 -->
<g id="node1" class="node"><title>Node6</title>
<polygon fill="#bfbfbf" stroke="black" points="39,-56.5 39,-75.5 121,-75.5 121,-56.5 39,-56.5"/>
<text text-anchor="middle" x="80" y="-63.5" font-family="Helvetica,sans-Serif" font-size="10.00">src/torcontrol.h</text>
</g>
<!-- Node7 -->
<g id="node2" class="node"><title>Node7</title>
<g id="a_node2"><a xlink:href="init_8cpp.html" target="_top" xlink:title="src/init.cpp">
<polygon fill="white" stroke="black" points="-0.5,-0.5 -0.5,-19.5 64.5,-19.5 64.5,-0.5 -0.5,-0.5"/>
<text text-anchor="middle" x="32" y="-7.5" font-family="Helvetica,sans-Serif" font-size="10.00">src/init.cpp</text>
</a>
</g>
</g>
<!-- Node6&#45;&gt;Node7 -->
<g id="edge1" class="edge"><title>Node6&#45;&gt;Node7</title>
<path fill="none" stroke="midnightblue" d="M65.2723,-48.4314C56.8599,-38.9673 46.6513,-27.4827 39.7787,-19.7511"/>
<polygon fill="midnightblue" stroke="midnightblue" points="62.8142,-50.9342 72.0738,-56.083 68.046,-46.2836 62.8142,-50.9342"/>
</g>
<!-- Node8 -->
<g id="node3" class="node"><title>Node8</title>
<g id="a_node3"><a xlink:href="torcontrol_8cpp.html" target="_top" xlink:title="src/torcontrol.cpp">
<polygon fill="white" stroke="black" points="83,-0.5 83,-19.5 175,-19.5 175,-0.5 83,-0.5"/>
<text text-anchor="middle" x="129" y="-7.5" font-family="Helvetica,sans-Serif" font-size="10.00">src/torcontrol.cpp</text>
</a>
</g>
</g>
<!-- Node6&#45;&gt;Node8 -->
<g id="edge2" class="edge"><title>Node6&#45;&gt;Node8</title>
<path fill="none" stroke="midnightblue" d="M95.0345,-48.4314C103.622,-38.9673 114.043,-27.4827 121.059,-19.7511"/>
<polygon fill="midnightblue" stroke="midnightblue" points="92.2193,-46.3254 88.0914,-56.083 97.4033,-51.0293 92.2193,-46.3254"/>
</g>
</g>
</svg>
