<?xml version="1.0" encoding="UTF-8" standalone="no"?>
<!DOCTYPE svg PUBLIC "-//W3C//DTD SVG 1.1//EN"
 "http://www.w3.org/Graphics/SVG/1.1/DTD/svg11.dtd">
<!-- Generated by graphviz version 2.36.0 (20140111.2315)
 -->
<!-- Title: src/qt/trafficgraphdata.h Pages: 1 -->
<svg width="127pt" height="84pt"
 viewBox="0.00 0.00 127.00 84.00" xmlns="http://www.w3.org/2000/svg" xmlns:xlink="http://www.w3.org/1999/xlink">
<g id="graph0" class="graph" transform="scale(1 1) rotate(0) translate(4 80)">
<title>src/qt/trafficgraphdata.h</title>
<polygon fill="white" stroke="none" points="-4,4 -4,-80 123,-80 123,4 -4,4"/>
<!-- Node0 -->
<g id="node1" class="node"><title>Node0</title>
<polygon fill="#bfbfbf" stroke="black" points="-1,-56.5 -1,-75.5 119,-75.5 119,-56.5 -1,-56.5"/>
<text text-anchor="middle" x="59" y="-63.5" font-family="Helvetica,sans-Serif" font-size="10.00">src/qt/trafficgraphdata.h</text>
</g>
<!-- Node1 -->
<g id="node2" class="node"><title>Node1</title>
<polygon fill="white" stroke="#bfbfbf" points="1.5,-0.5 1.5,-19.5 48.5,-19.5 48.5,-0.5 1.5,-0.5"/>
<text text-anchor="middle" x="25" y="-7.5" font-family="Helvetica,sans-Serif" font-size="10.00">QHash</text>
</g>
<!-- Node0&#45;&gt;Node1 -->
<g id="edge1" class="edge"><title>Node0&#45;&gt;Node1</title>
<path fill="none" stroke="midnightblue" d="M53.3856,-56.083C48.6326,-48.5341 41.6819,-37.4948 35.8484,-28.2298"/>
<polygon fill="midnightblue" stroke="midnightblue" points="38.7999,-26.3486 30.5099,-19.7511 32.8763,-30.0783 38.7999,-26.3486"/>
</g>
<!-- Node2 -->
<g id="node3" class="node"><title>Node2</title>
<polygon fill="white" stroke="#bfbfbf" points="66.5,-0.5 66.5,-19.5 119.5,-19.5 119.5,-0.5 66.5,-0.5"/>
<text text-anchor="middle" x="93" y="-7.5" font-family="Helvetica,sans-Serif" font-size="10.00">QQueue</text>
</g>
<!-- Node0&#45;&gt;Node2 -->
<g id="edge2" class="edge"><title>Node0&#45;&gt;Node2</title>
<path fill="none" stroke="midnightblue" d="M64.6144,-56.083C69.3674,-48.5341 76.3181,-37.4948 82.1516,-28.2298"/>
<polygon fill="midnightblue" stroke="midnightblue" points="85.1237,-30.0783 87.4901,-19.7511 79.2001,-26.3486 85.1237,-30.0783"/>
</g>
</g>
</svg>
