<?xml version="1.0" encoding="UTF-8" standalone="no"?>
<!DOCTYPE svg PUBLIC "-//W3C//DTD SVG 1.1//EN"
 "http://www.w3.org/Graphics/SVG/1.1/DTD/svg11.dtd">
<!-- Generated by graphviz version 2.36.0 (20140111.2315)
 -->
<!-- Title: src/qt/transactionrecord.h Pages: 1 -->
<svg width="920pt" height="84pt"
 viewBox="0.00 0.00 920.00 84.00" xmlns="http://www.w3.org/2000/svg" xmlns:xlink="http://www.w3.org/1999/xlink">
<g id="graph0" class="graph" transform="scale(1 1) rotate(0) translate(4 80)">
<title>src/qt/transactionrecord.h</title>
<polygon fill="white" stroke="none" points="-4,4 -4,-80 916,-80 916,4 -4,4"/>
<!-- Node27 -->
<g id="node1" class="node"><title>Node27</title>
<polygon fill="#bfbfbf" stroke="black" points="410,-56.5 410,-75.5 538,-75.5 538,-56.5 410,-56.5"/>
<text text-anchor="middle" x="474" y="-63.5" font-family="Helvetica,sans-Serif" font-size="10.00">src/qt/transactionrecord.h</text>
</g>
<!-- Node28 -->
<g id="node2" class="node"><title>Node28</title>
<g id="a_node2"><a xlink:href="transactiondesc_8cpp.html" target="_top" xlink:title="src/qt/transactiondesc.cpp">
<polygon fill="white" stroke="black" points="0,-0.5 0,-19.5 132,-19.5 132,-0.5 0,-0.5"/>
<text text-anchor="middle" x="66" y="-7.5" font-family="Helvetica,sans-Serif" font-size="10.00">src/qt/transactiondesc.cpp</text>
</a>
</g>
</g>
<!-- Node27&#45;&gt;Node28 -->
<g id="edge1" class="edge"><title>Node27&#45;&gt;Node28</title>
<path fill="none" stroke="midnightblue" d="M399.695,-55.1655C322.717,-44.9772 203.644,-29.2176 130.498,-19.5364"/>
<polygon fill="midnightblue" stroke="midnightblue" points="399.428,-58.6607 409.801,-56.5031 400.347,-51.7212 399.428,-58.6607"/>
</g>
<!-- Node29 -->
<g id="node3" class="node"><title>Node29</title>
<g id="a_node3"><a xlink:href="transactionfilterproxy_8cpp.html" target="_top" xlink:title="src/qt/transactionfilterproxy.cpp">
<polygon fill="white" stroke="black" points="150,-0.5 150,-19.5 304,-19.5 304,-0.5 150,-0.5"/>
<text text-anchor="middle" x="227" y="-7.5" font-family="Helvetica,sans-Serif" font-size="10.00">src/qt/transactionfilterproxy.cpp</text>
</a>
</g>
</g>
<!-- Node27&#45;&gt;Node29 -->
<g id="edge2" class="edge"><title>Node27&#45;&gt;Node29</title>
<path fill="none" stroke="midnightblue" d="M424.973,-54.2815C378.296,-44.0769 308.969,-28.9203 265.955,-19.5164"/>
<polygon fill="midnightblue" stroke="midnightblue" points="424.345,-57.7269 434.862,-56.4435 425.84,-50.8884 424.345,-57.7269"/>
</g>
<!-- Node30 -->
<g id="node4" class="node"><title>Node30</title>
<g id="a_node4"><a xlink:href="transactionrecord_8cpp.html" target="_top" xlink:title="src/qt/transactionrecord.cpp">
<polygon fill="white" stroke="black" points="322,-0.5 322,-19.5 460,-19.5 460,-0.5 322,-0.5"/>
<text text-anchor="middle" x="391" y="-7.5" font-family="Helvetica,sans-Serif" font-size="10.00">src/qt/transactionrecord.cpp</text>
</a>
</g>
</g>
<!-- Node27&#45;&gt;Node30 -->
<g id="edge3" class="edge"><title>Node27&#45;&gt;Node30</title>
<path fill="none" stroke="midnightblue" d="M451.901,-50.6221C436.738,-40.7574 417.117,-27.9919 404.302,-19.6545"/>
<polygon fill="midnightblue" stroke="midnightblue" points="450.374,-53.8042 460.665,-56.324 454.191,-47.9367 450.374,-53.8042"/>
</g>
<!-- Node31 -->
<g id="node5" class="node"><title>Node31</title>
<g id="a_node5"><a xlink:href="transactiontablemodel_8cpp.html" target="_top" xlink:title="src/qt/transactiontablemodel.cpp">
<polygon fill="white" stroke="black" points="478,-0.5 478,-19.5 636,-19.5 636,-0.5 478,-0.5"/>
<text text-anchor="middle" x="557" y="-7.5" font-family="Helvetica,sans-Serif" font-size="10.00">src/qt/transactiontablemodel.cpp</text>
</a>
</g>
</g>
<!-- Node27&#45;&gt;Node31 -->
<g id="edge4" class="edge"><title>Node27&#45;&gt;Node31</title>
<path fill="none" stroke="midnightblue" d="M496.099,-50.6221C511.262,-40.7574 530.883,-27.9919 543.698,-19.6545"/>
<polygon fill="midnightblue" stroke="midnightblue" points="493.809,-47.9367 487.335,-56.324 497.626,-53.8042 493.809,-47.9367"/>
</g>
<!-- Node32 -->
<g id="node6" class="node"><title>Node32</title>
<g id="a_node6"><a xlink:href="transactionview_8cpp.html" target="_top" xlink:title="src/qt/transactionview.cpp">
<polygon fill="white" stroke="black" points="654.5,-0.5 654.5,-19.5 785.5,-19.5 785.5,-0.5 654.5,-0.5"/>
<text text-anchor="middle" x="720" y="-7.5" font-family="Helvetica,sans-Serif" font-size="10.00">src/qt/transactionview.cpp</text>
</a>
</g>
</g>
<!-- Node27&#45;&gt;Node32 -->
<g id="edge5" class="edge"><title>Node27&#45;&gt;Node32</title>
<path fill="none" stroke="midnightblue" d="M522.829,-54.2815C569.316,-44.0769 638.363,-28.9203 681.203,-19.5164"/>
<polygon fill="midnightblue" stroke="midnightblue" points="521.996,-50.8808 512.979,-56.4435 523.497,-57.718 521.996,-50.8808"/>
</g>
<!-- Node33 -->
<g id="node7" class="node"><title>Node33</title>
<g id="a_node7"><a xlink:href="walletview_8cpp.html" target="_top" xlink:title="src/qt/walletview.cpp">
<polygon fill="white" stroke="black" points="803.5,-0.5 803.5,-19.5 912.5,-19.5 912.5,-0.5 803.5,-0.5"/>
<text text-anchor="middle" x="858" y="-7.5" font-family="Helvetica,sans-Serif" font-size="10.00">src/qt/walletview.cpp</text>
</a>
</g>
</g>
<!-- Node27&#45;&gt;Node33 -->
<g id="edge6" class="edge"><title>Node27&#45;&gt;Node33</title>
<path fill="none" stroke="midnightblue" d="M545.098,-55.0018C619.755,-44.5032 735.531,-28.2222 803.343,-18.6861"/>
<polygon fill="midnightblue" stroke="midnightblue" points="544.261,-51.585 534.846,-56.4435 545.236,-58.5168 544.261,-51.585"/>
</g>
</g>
</svg>
