<?xml version="1.0" encoding="UTF-8" standalone="no"?>
<!DOCTYPE svg PUBLIC "-//W3C//DTD SVG 1.1//EN"
 "http://www.w3.org/Graphics/SVG/1.1/DTD/svg11.dtd">
<!-- Generated by graphviz version 2.36.0 (20140111.2315)
 -->
<!-- Title: src/ui_interface.h Pages: 1 -->
<svg width="377pt" height="96pt"
 viewBox="0.00 0.00 377.00 96.00" xmlns="http://www.w3.org/2000/svg" xmlns:xlink="http://www.w3.org/1999/xlink">
<g id="graph0" class="graph" transform="scale(1 1) rotate(0) translate(4 92)">
<title>src/ui_interface.h</title>
<polygon fill="white" stroke="none" points="-4,4 -4,-92 373,-92 373,4 -4,4"/>
<!-- Node0 -->
<g id="node1" class="node"><title>Node0</title>
<polygon fill="#bfbfbf" stroke="black" points="85,-68.5 85,-87.5 177,-87.5 177,-68.5 85,-68.5"/>
<text text-anchor="middle" x="131" y="-75.5" font-family="Helvetica,sans-Serif" font-size="10.00">src/ui_interface.h</text>
</g>
<!-- Node1 -->
<g id="node2" class="node"><title>Node1</title>
<polygon fill="white" stroke="#bfbfbf" points="-0.5,-6.5 -0.5,-25.5 48.5,-25.5 48.5,-6.5 -0.5,-6.5"/>
<text text-anchor="middle" x="24" y="-13.5" font-family="Helvetica,sans-Serif" font-size="10.00">stdint.h</text>
</g>
<!-- Node0&#45;&gt;Node1 -->
<g id="edge1" class="edge"><title>Node0&#45;&gt;Node1</title>
<path fill="none" stroke="midnightblue" d="M115.67,-68.4035C98.0303,-58.5123 68.8404,-42.1442 48.1424,-30.5378"/>
<polygon fill="midnightblue" stroke="midnightblue" points="49.7362,-27.4188 39.3021,-25.5806 46.3125,-33.5244 49.7362,-27.4188"/>
</g>
<!-- Node2 -->
<g id="node3" class="node"><title>Node2</title>
<polygon fill="white" stroke="#bfbfbf" points="66.5,-6.5 66.5,-25.5 107.5,-25.5 107.5,-6.5 66.5,-6.5"/>
<text text-anchor="middle" x="87" y="-13.5" font-family="Helvetica,sans-Serif" font-size="10.00">string</text>
</g>
<!-- Node0&#45;&gt;Node2 -->
<g id="edge2" class="edge"><title>Node0&#45;&gt;Node2</title>
<path fill="none" stroke="midnightblue" d="M124.696,-68.4035C118.096,-59.4034 107.563,-45.0408 99.3071,-33.7824"/>
<polygon fill="midnightblue" stroke="midnightblue" points="102.029,-31.5749 93.2924,-25.5806 96.3837,-35.7144 102.029,-31.5749"/>
</g>
<!-- Node3 -->
<g id="node4" class="node"><title>Node3</title>
<polygon fill="white" stroke="#bfbfbf" points="126,-1 126,-31 224,-31 224,-1 126,-1"/>
<text text-anchor="start" x="134" y="-19" font-family="Helvetica,sans-Serif" font-size="10.00">boost/signals2/last</text>
<text text-anchor="middle" x="175" y="-8" font-family="Helvetica,sans-Serif" font-size="10.00">_value.hpp</text>
</g>
<!-- Node0&#45;&gt;Node3 -->
<g id="edge3" class="edge"><title>Node0&#45;&gt;Node3</title>
<path fill="none" stroke="midnightblue" d="M137.304,-68.4035C142.873,-60.8089 151.243,-49.3959 158.682,-39.2518"/>
<polygon fill="midnightblue" stroke="midnightblue" points="161.539,-41.2747 164.63,-31.1408 155.894,-37.1351 161.539,-41.2747"/>
</g>
<!-- Node4 -->
<g id="node5" class="node"><title>Node4</title>
<polygon fill="white" stroke="#bfbfbf" points="242.5,-6.5 242.5,-25.5 369.5,-25.5 369.5,-6.5 242.5,-6.5"/>
<text text-anchor="middle" x="306" y="-13.5" font-family="Helvetica,sans-Serif" font-size="10.00">boost/signals2/signal.hpp</text>
</g>
<!-- Node0&#45;&gt;Node4 -->
<g id="edge4" class="edge"><title>Node0&#45;&gt;Node4</title>
<path fill="none" stroke="midnightblue" d="M156.073,-68.4035C186.352,-58.0222 237.44,-40.5062 271.441,-28.849"/>
<polygon fill="midnightblue" stroke="midnightblue" points="272.649,-32.1347 280.973,-25.5806 270.379,-25.5131 272.649,-32.1347"/>
</g>
</g>
</svg>
