<?xml version="1.0" encoding="UTF-8" standalone="no"?>
<!DOCTYPE svg PUBLIC "-//W3C//DTD SVG 1.1//EN"
 "http://www.w3.org/Graphics/SVG/1.1/DTD/svg11.dtd">
<!-- Generated by graphviz version 2.36.0 (20140111.2315)
 -->
<!-- Title: immer::detail::rbts::node&lt; T, MemoryPolicy, B, BL &gt;::data_t Pages: 1 -->
<svg width="330pt" height="110pt"
 viewBox="0.00 0.00 330.00 110.00" xmlns="http://www.w3.org/2000/svg" xmlns:xlink="http://www.w3.org/1999/xlink">
<g id="graph0" class="graph" transform="scale(1 1) rotate(0) translate(4 106)">
<title>immer::detail::rbts::node&lt; T, MemoryPolicy, B, BL &gt;::data_t</title>
<polygon fill="white" stroke="none" points="-4,4 -4,-106 326,-106 326,4 -4,4"/>
<!-- Node1 -->
<g id="node1" class="node"><title>Node1</title>
<polygon fill="#bfbfbf" stroke="black" points="192,-30.5 192,-71.5 322,-71.5 322,-30.5 192,-30.5"/>
<text text-anchor="start" x="200" y="-59.5" font-family="Helvetica,sans-Serif" font-size="10.00">immer::detail::rbts</text>
<text text-anchor="start" x="200" y="-48.5" font-family="Helvetica,sans-Serif" font-size="10.00">::node&lt; T, MemoryPolicy,</text>
<text text-anchor="middle" x="257" y="-37.5" font-family="Helvetica,sans-Serif" font-size="10.00"> B, BL &gt;::data_t</text>
</g>
<!-- Node2 -->
<g id="node2" class="node"><title>Node2</title>
<g id="a_node2"><a xlink:href="structimmer_1_1detail_1_1rbts_1_1node_1_1inner__t.html" target="_top" xlink:title="immer::detail::rbts\l::node\&lt; T, MemoryPolicy,\l B, BL \&gt;::inner_t">
<polygon fill="white" stroke="black" points="0,-60.5 0,-101.5 130,-101.5 130,-60.5 0,-60.5"/>
<text text-anchor="start" x="8" y="-89.5" font-family="Helvetica,sans-Serif" font-size="10.00">immer::detail::rbts</text>
<text text-anchor="start" x="8" y="-78.5" font-family="Helvetica,sans-Serif" font-size="10.00">::node&lt; T, MemoryPolicy,</text>
<text text-anchor="middle" x="65" y="-67.5" font-family="Helvetica,sans-Serif" font-size="10.00"> B, BL &gt;::inner_t</text>
</a>
</g>
</g>
<!-- Node2&#45;&gt;Node1 -->
<g id="edge1" class="edge"><title>Node2&#45;&gt;Node1</title>
<path fill="none" stroke="#9a32cd" stroke-dasharray="5,2" d="M140.017,-69.3132C157.145,-66.6087 175.231,-63.7529 191.895,-61.1219"/>
<polygon fill="#9a32cd" stroke="#9a32cd" points="139.392,-65.8683 130.06,-70.8852 140.484,-72.7827 139.392,-65.8683"/>
<text text-anchor="middle" x="161" y="-70" font-family="Helvetica,sans-Serif" font-size="10.00"> inner</text>
</g>
<!-- Node3 -->
<g id="node3" class="node"><title>Node3</title>
<g id="a_node3"><a xlink:href="structimmer_1_1detail_1_1rbts_1_1node_1_1leaf__t.html" target="_top" xlink:title="immer::detail::rbts\l::node\&lt; T, MemoryPolicy,\l B, BL \&gt;::leaf_t">
<polygon fill="white" stroke="black" points="0,-0.5 0,-41.5 130,-41.5 130,-0.5 0,-0.5"/>
<text text-anchor="start" x="8" y="-29.5" font-family="Helvetica,sans-Serif" font-size="10.00">immer::detail::rbts</text>
<text text-anchor="start" x="8" y="-18.5" font-family="Helvetica,sans-Serif" font-size="10.00">::node&lt; T, MemoryPolicy,</text>
<text text-anchor="middle" x="65" y="-7.5" font-family="Helvetica,sans-Serif" font-size="10.00"> B, BL &gt;::leaf_t</text>
</a>
</g>
</g>
<!-- Node3&#45;&gt;Node1 -->
<g id="edge2" class="edge"><title>Node3&#45;&gt;Node1</title>
<path fill="none" stroke="#9a32cd" stroke-dasharray="5,2" d="M140.017,-32.6868C157.145,-35.3913 175.231,-38.2471 191.895,-40.8781"/>
<polygon fill="#9a32cd" stroke="#9a32cd" points="140.484,-29.2173 130.06,-31.1148 139.392,-36.1317 140.484,-29.2173"/>
<text text-anchor="middle" x="161" y="-41" font-family="Helvetica,sans-Serif" font-size="10.00"> leaf</text>
</g>
</g>
</svg>
