<?xml version="1.0" encoding="UTF-8" standalone="no"?>
<!DOCTYPE svg PUBLIC "-//W3C//DTD SVG 1.1//EN"
 "http://www.w3.org/Graphics/SVG/1.1/DTD/svg11.dtd">
<!-- Generated by graphviz version 2.36.0 (20140111.2315)
 -->
<!-- Title: src/univalue/lib/univalue_utffilter.h Pages: 1 -->
<svg width="128pt" height="108pt"
 viewBox="0.00 0.00 128.00 108.00" xmlns="http://www.w3.org/2000/svg" xmlns:xlink="http://www.w3.org/1999/xlink">
<g id="graph0" class="graph" transform="scale(1 1) rotate(0) translate(4 104)">
<title>src/univalue/lib/univalue_utffilter.h</title>
<polygon fill="white" stroke="none" points="-4,4 -4,-104 124,-104 124,4 -4,4"/>
<!-- Node2 -->
<g id="node1" class="node"><title>Node2</title>
<polygon fill="#bfbfbf" stroke="black" points="-0.5,-69 -0.5,-99 120.5,-99 120.5,-69 -0.5,-69"/>
<text text-anchor="start" x="7.5" y="-87" font-family="Helvetica,sans-Serif" font-size="10.00">src/univalue/lib/univalue</text>
<text text-anchor="middle" x="60" y="-76" font-family="Helvetica,sans-Serif" font-size="10.00">_utffilter.h</text>
</g>
<!-- Node3 -->
<g id="node2" class="node"><title>Node3</title>
<g id="a_node2"><a xlink:href="univalue__read_8cpp.html" target="_top" xlink:title="src/univalue/lib/univalue\l_read.cpp">
<polygon fill="white" stroke="black" points="-0.5,-1 -0.5,-31 120.5,-31 120.5,-1 -0.5,-1"/>
<text text-anchor="start" x="7.5" y="-19" font-family="Helvetica,sans-Serif" font-size="10.00">src/univalue/lib/univalue</text>
<text text-anchor="middle" x="60" y="-8" font-family="Helvetica,sans-Serif" font-size="10.00">_read.cpp</text>
</a>
</g>
</g>
<!-- Node2&#45;&gt;Node3 -->
<g id="edge1" class="edge"><title>Node2&#45;&gt;Node3</title>
<path fill="none" stroke="midnightblue" d="M60,-58.5322C60,-49.3606 60,-39.2449 60,-31.2931"/>
<polygon fill="midnightblue" stroke="midnightblue" points="56.5001,-58.6789 60,-68.679 63.5001,-58.679 56.5001,-58.6789"/>
</g>
</g>
</svg>
