<?xml version="1.0" encoding="UTF-8" standalone="no"?>
<!DOCTYPE svg PUBLIC "-//W3C//DTD SVG 1.1//EN"
 "http://www.w3.org/Graphics/SVG/1.1/DTD/svg11.dtd">
<!-- Generated by graphviz version 2.36.0 (20140111.2315)
 -->
<!-- Title: src/univalue/lib/univalue_read.cpp Pages: 1 -->
<svg width="482pt" height="152pt"
 viewBox="0.00 0.00 482.00 152.00" xmlns="http://www.w3.org/2000/svg" xmlns:xlink="http://www.w3.org/1999/xlink">
<g id="graph0" class="graph" transform="scale(1 1) rotate(0) translate(4 148)">
<title>src/univalue/lib/univalue_read.cpp</title>
<polygon fill="white" stroke="none" points="-4,4 -4,-148 478,-148 478,4 -4,4"/>
<!-- Node0 -->
<g id="node1" class="node"><title>Node0</title>
<polygon fill="#bfbfbf" stroke="black" points="92.5,-113 92.5,-143 213.5,-143 213.5,-113 92.5,-113"/>
<text text-anchor="start" x="100.5" y="-131" font-family="Helvetica,sans-Serif" font-size="10.00">src/univalue/lib/univalue</text>
<text text-anchor="middle" x="153" y="-120" font-family="Helvetica,sans-Serif" font-size="10.00">_read.cpp</text>
</g>
<!-- Node1 -->
<g id="node2" class="node"><title>Node1</title>
<polygon fill="white" stroke="#bfbfbf" points="-0.5,-56.5 -0.5,-75.5 48.5,-75.5 48.5,-56.5 -0.5,-56.5"/>
<text text-anchor="middle" x="24" y="-63.5" font-family="Helvetica,sans-Serif" font-size="10.00">string.h</text>
</g>
<!-- Node0&#45;&gt;Node1 -->
<g id="edge1" class="edge"><title>Node0&#45;&gt;Node1</title>
<path fill="none" stroke="midnightblue" d="M122.755,-112.933C101.283,-102.946 72.6754,-89.6397 51.779,-79.9205"/>
<polygon fill="midnightblue" stroke="midnightblue" points="53.0334,-76.6439 42.4901,-75.6 50.0812,-82.9909 53.0334,-76.6439"/>
</g>
<!-- Node2 -->
<g id="node3" class="node"><title>Node2</title>
<polygon fill="white" stroke="#bfbfbf" points="55,-0.5 55,-19.5 99,-19.5 99,-0.5 55,-0.5"/>
<text text-anchor="middle" x="77" y="-7.5" font-family="Helvetica,sans-Serif" font-size="10.00">vector</text>
</g>
<!-- Node0&#45;&gt;Node2 -->
<g id="edge2" class="edge"><title>Node0&#45;&gt;Node2</title>
<path fill="none" stroke="midnightblue" d="M132.139,-112.92C119.987,-103.723 105.279,-90.7136 96,-76 87.0828,-61.86 82.2099,-43.3754 79.6395,-29.7343"/>
<polygon fill="midnightblue" stroke="midnightblue" points="83.0529,-28.9202 77.9838,-19.6168 76.1448,-30.0508 83.0529,-28.9202"/>
</g>
<!-- Node3 -->
<g id="node4" class="node"><title>Node3</title>
<polygon fill="white" stroke="#bfbfbf" points="299,-56.5 299,-75.5 345,-75.5 345,-56.5 299,-56.5"/>
<text text-anchor="middle" x="322" y="-63.5" font-family="Helvetica,sans-Serif" font-size="10.00">stdio.h</text>
</g>
<!-- Node0&#45;&gt;Node3 -->
<g id="edge3" class="edge"><title>Node0&#45;&gt;Node3</title>
<path fill="none" stroke="midnightblue" d="M192.623,-112.933C221.992,-102.506 261.55,-88.4616 289.163,-78.6581"/>
<polygon fill="midnightblue" stroke="midnightblue" points="290.502,-81.8968 298.755,-75.2527 288.16,-75.3002 290.502,-81.8968"/>
</g>
<!-- Node4 -->
<g id="node5" class="node"><title>Node4</title>
<g id="a_node5"><a xlink:href="univalue_8h.html" target="_top" xlink:title="univalue.h">
<polygon fill="white" stroke="black" points="219.5,-56.5 219.5,-75.5 280.5,-75.5 280.5,-56.5 219.5,-56.5"/>
<text text-anchor="middle" x="250" y="-63.5" font-family="Helvetica,sans-Serif" font-size="10.00">univalue.h</text>
</a>
</g>
</g>
<!-- Node0&#45;&gt;Node4 -->
<g id="edge4" class="edge"><title>Node0&#45;&gt;Node4</title>
<path fill="none" stroke="midnightblue" d="M175.988,-112.781C191.483,-103.196 211.837,-90.6062 227.277,-81.0555"/>
<polygon fill="midnightblue" stroke="midnightblue" points="229.505,-83.7929 236.168,-75.5557 225.823,-77.8397 229.505,-83.7929"/>
</g>
<!-- Node11 -->
<g id="node12" class="node"><title>Node11</title>
<g id="a_node12"><a xlink:href="univalue__utffilter_8h.html" target="_top" xlink:title="univalue_utffilter.h">
<polygon fill="white" stroke="black" points="105,-56.5 105,-75.5 201,-75.5 201,-56.5 105,-56.5"/>
<text text-anchor="middle" x="153" y="-63.5" font-family="Helvetica,sans-Serif" font-size="10.00">univalue_utffilter.h</text>
</a>
</g>
</g>
<!-- Node0&#45;&gt;Node11 -->
<g id="edge12" class="edge"><title>Node0&#45;&gt;Node11</title>
<path fill="none" stroke="midnightblue" d="M153,-112.781C153,-104.781 153,-94.6887 153,-86.0168"/>
<polygon fill="midnightblue" stroke="midnightblue" points="156.5,-85.7305 153,-75.7305 149.5,-85.7306 156.5,-85.7305"/>
</g>
<!-- Node4&#45;&gt;Node2 -->
<g id="edge7" class="edge"><title>Node4&#45;&gt;Node2</title>
<path fill="none" stroke="midnightblue" d="M222.588,-56.4435C191.724,-46.8097 141.635,-31.1752 109.004,-20.9896"/>
<polygon fill="midnightblue" stroke="midnightblue" points="109.658,-17.5273 99.0691,-17.8886 107.572,-24.2093 109.658,-17.5273"/>
</g>
<!-- Node5 -->
<g id="node6" class="node"><title>Node5</title>
<polygon fill="white" stroke="#bfbfbf" points="425.5,-0.5 425.5,-19.5 474.5,-19.5 474.5,-0.5 425.5,-0.5"/>
<text text-anchor="middle" x="450" y="-7.5" font-family="Helvetica,sans-Serif" font-size="10.00">stdint.h</text>
</g>
<!-- Node4&#45;&gt;Node5 -->
<g id="edge5" class="edge"><title>Node4&#45;&gt;Node5</title>
<path fill="none" stroke="midnightblue" d="M280.812,-56.6808C317.169,-46.8645 377.458,-30.5863 415.392,-20.3442"/>
<polygon fill="midnightblue" stroke="midnightblue" points="416.718,-23.6116 425.46,-17.6259 414.893,-16.8536 416.718,-23.6116"/>
</g>
<!-- Node6 -->
<g id="node7" class="node"><title>Node6</title>
<polygon fill="white" stroke="#bfbfbf" points="117.5,-0.5 117.5,-19.5 158.5,-19.5 158.5,-0.5 117.5,-0.5"/>
<text text-anchor="middle" x="138" y="-7.5" font-family="Helvetica,sans-Serif" font-size="10.00">string</text>
</g>
<!-- Node4&#45;&gt;Node6 -->
<g id="edge6" class="edge"><title>Node4&#45;&gt;Node6</title>
<path fill="none" stroke="midnightblue" d="M232.005,-56.324C213.962,-47.6247 185.953,-34.1202 165.197,-24.113"/>
<polygon fill="midnightblue" stroke="midnightblue" points="166.478,-20.8449 155.95,-19.6545 163.438,-27.1502 166.478,-20.8449"/>
</g>
<!-- Node7 -->
<g id="node8" class="node"><title>Node7</title>
<polygon fill="white" stroke="#bfbfbf" points="176.5,-0.5 176.5,-19.5 211.5,-19.5 211.5,-0.5 176.5,-0.5"/>
<text text-anchor="middle" x="194" y="-7.5" font-family="Helvetica,sans-Serif" font-size="10.00">map</text>
</g>
<!-- Node4&#45;&gt;Node7 -->
<g id="edge8" class="edge"><title>Node4&#45;&gt;Node7</title>
<path fill="none" stroke="midnightblue" d="M241.003,-56.324C232.806,-48.4196 220.494,-36.5482 210.528,-26.9377"/>
<polygon fill="midnightblue" stroke="midnightblue" points="212.789,-24.2558 203.161,-19.8339 207.93,-29.2947 212.789,-24.2558"/>
</g>
<!-- Node8 -->
<g id="node9" class="node"><title>Node8</title>
<polygon fill="white" stroke="#bfbfbf" points="229.5,-0.5 229.5,-19.5 278.5,-19.5 278.5,-0.5 229.5,-0.5"/>
<text text-anchor="middle" x="254" y="-7.5" font-family="Helvetica,sans-Serif" font-size="10.00">cassert</text>
</g>
<!-- Node4&#45;&gt;Node8 -->
<g id="edge9" class="edge"><title>Node4&#45;&gt;Node8</title>
<path fill="none" stroke="midnightblue" d="M250.661,-56.083C251.185,-49.0059 251.936,-38.8611 252.594,-29.9865"/>
<polygon fill="midnightblue" stroke="midnightblue" points="256.103,-29.9823 253.352,-19.7511 249.123,-29.4652 256.103,-29.9823"/>
</g>
<!-- Node9 -->
<g id="node10" class="node"><title>Node9</title>
<polygon fill="white" stroke="#bfbfbf" points="297,-0.5 297,-19.5 349,-19.5 349,-0.5 297,-0.5"/>
<text text-anchor="middle" x="323" y="-7.5" font-family="Helvetica,sans-Serif" font-size="10.00">sstream</text>
</g>
<!-- Node4&#45;&gt;Node9 -->
<g id="edge10" class="edge"><title>Node4&#45;&gt;Node9</title>
<path fill="none" stroke="midnightblue" d="M261.729,-56.324C272.837,-48.1066 289.742,-35.6017 302.983,-25.8069"/>
<polygon fill="midnightblue" stroke="midnightblue" points="305.1,-28.5948 311.058,-19.8339 300.937,-22.9671 305.1,-28.5948"/>
</g>
<!-- Node10 -->
<g id="node11" class="node"><title>Node10</title>
<polygon fill="white" stroke="#bfbfbf" points="367,-0.5 367,-19.5 407,-19.5 407,-0.5 367,-0.5"/>
<text text-anchor="middle" x="387" y="-7.5" font-family="Helvetica,sans-Serif" font-size="10.00">utility</text>
</g>
<!-- Node4&#45;&gt;Node10 -->
<g id="edge11" class="edge"><title>Node4&#45;&gt;Node10</title>
<path fill="none" stroke="midnightblue" d="M271.708,-56.4435C294.754,-47.3596 331.337,-32.9402 357.102,-22.7847"/>
<polygon fill="midnightblue" stroke="midnightblue" points="358.713,-25.9116 366.733,-18.9883 356.146,-19.3992 358.713,-25.9116"/>
</g>
<!-- Node11&#45;&gt;Node6 -->
<g id="edge13" class="edge"><title>Node11&#45;&gt;Node6</title>
<path fill="none" stroke="midnightblue" d="M150.523,-56.083C148.514,-48.8486 145.614,-38.4087 143.11,-29.3968"/>
<polygon fill="midnightblue" stroke="midnightblue" points="146.48,-28.4495 140.431,-19.7511 139.735,-30.323 146.48,-28.4495"/>
</g>
</g>
</svg>
