<?xml version="1.0" encoding="UTF-8" standalone="no"?>
<!DOCTYPE svg PUBLIC "-//W3C//DTD SVG 1.1//EN"
 "http://www.w3.org/Graphics/SVG/1.1/DTD/svg11.dtd">
<!-- Generated by graphviz version 2.36.0 (20140111.2315)
 -->
<!-- Title: src/immer/refcount/unsafe_refcount_policy.hpp Pages: 1 -->
<svg width="266pt" height="108pt"
 viewBox="0.00 0.00 266.00 108.00" xmlns="http://www.w3.org/2000/svg" xmlns:xlink="http://www.w3.org/1999/xlink">
<g id="graph0" class="graph" transform="scale(1 1) rotate(0) translate(4 104)">
<title>src/immer/refcount/unsafe_refcount_policy.hpp</title>
<polygon fill="white" stroke="none" points="-4,4 -4,-104 262,-104 262,4 -4,4"/>
<!-- Node0 -->
<g id="node1" class="node"><title>Node0</title>
<polygon fill="#bfbfbf" stroke="black" points="107.5,-69 107.5,-99 246.5,-99 246.5,-69 107.5,-69"/>
<text text-anchor="start" x="115.5" y="-87" font-family="Helvetica,sans-Serif" font-size="10.00">src/immer/refcount</text>
<text text-anchor="middle" x="177" y="-76" font-family="Helvetica,sans-Serif" font-size="10.00">/unsafe_refcount_policy.hpp</text>
</g>
<!-- Node1 -->
<g id="node2" class="node"><title>Node1</title>
<g id="a_node2"><a xlink:href="no__refcount__policy_8hpp.html" target="_top" xlink:title="immer/refcount/no_refcount\l_policy.hpp">
<polygon fill="white" stroke="black" points="0,-1 0,-31 136,-31 136,-1 0,-1"/>
<text text-anchor="start" x="8" y="-19" font-family="Helvetica,sans-Serif" font-size="10.00">immer/refcount/no_refcount</text>
<text text-anchor="middle" x="68" y="-8" font-family="Helvetica,sans-Serif" font-size="10.00">_policy.hpp</text>
</a>
</g>
</g>
<!-- Node0&#45;&gt;Node1 -->
<g id="edge1" class="edge"><title>Node0&#45;&gt;Node1</title>
<path fill="none" stroke="midnightblue" d="M153.617,-68.8413C137.956,-59.3585 117.139,-46.7541 99.9539,-36.3482"/>
<polygon fill="midnightblue" stroke="midnightblue" points="101.712,-33.3209 91.3446,-31.1352 98.0858,-39.3088 101.712,-33.3209"/>
</g>
<!-- Node2 -->
<g id="node3" class="node"><title>Node2</title>
<polygon fill="white" stroke="#bfbfbf" points="154,-6.5 154,-25.5 200,-25.5 200,-6.5 154,-6.5"/>
<text text-anchor="middle" x="177" y="-13.5" font-family="Helvetica,sans-Serif" font-size="10.00">atomic</text>
</g>
<!-- Node0&#45;&gt;Node2 -->
<g id="edge2" class="edge"><title>Node0&#45;&gt;Node2</title>
<path fill="none" stroke="midnightblue" d="M177,-68.679C177,-59.1014 177,-46.3938 177,-35.9766"/>
<polygon fill="midnightblue" stroke="midnightblue" points="180.5,-35.8283 177,-25.8283 173.5,-35.8283 180.5,-35.8283"/>
</g>
<!-- Node3 -->
<g id="node4" class="node"><title>Node3</title>
<polygon fill="white" stroke="#bfbfbf" points="218,-6.5 218,-25.5 258,-25.5 258,-6.5 218,-6.5"/>
<text text-anchor="middle" x="238" y="-13.5" font-family="Helvetica,sans-Serif" font-size="10.00">utility</text>
</g>
<!-- Node0&#45;&gt;Node3 -->
<g id="edge3" class="edge"><title>Node0&#45;&gt;Node3</title>
<path fill="none" stroke="midnightblue" d="M190.236,-68.679C199.841,-58.2863 212.853,-44.2081 222.87,-33.37"/>
<polygon fill="midnightblue" stroke="midnightblue" points="225.623,-35.5477 229.841,-25.8283 220.483,-30.7965 225.623,-35.5477"/>
</g>
</g>
</svg>
