<?xml version="1.0" encoding="UTF-8" standalone="no"?>
<!DOCTYPE svg PUBLIC "-//W3C//DTD SVG 1.1//EN"
 "http://www.w3.org/Graphics/SVG/1.1/DTD/svg11.dtd">
<!-- Generated by graphviz version 2.36.0 (20140111.2315)
 -->
<!-- Title: src/utilmoneystr.h Pages: 1 -->
<svg width="949pt" height="308pt"
 viewBox="0.00 0.00 949.00 308.00" xmlns="http://www.w3.org/2000/svg" xmlns:xlink="http://www.w3.org/1999/xlink">
<g id="graph0" class="graph" transform="scale(1 1) rotate(0) translate(4 304)">
<title>src/utilmoneystr.h</title>
<polygon fill="white" stroke="none" points="-4,4 -4,-304 945,-304 945,4 -4,4"/>
<!-- Node0 -->
<g id="node1" class="node"><title>Node0</title>
<polygon fill="#bfbfbf" stroke="black" points="1.5,-280.5 1.5,-299.5 96.5,-299.5 96.5,-280.5 1.5,-280.5"/>
<text text-anchor="middle" x="49" y="-287.5" font-family="Helvetica,sans-Serif" font-size="10.00">src/utilmoneystr.h</text>
</g>
<!-- Node1 -->
<g id="node2" class="node"><title>Node1</title>
<polygon fill="white" stroke="#bfbfbf" points="111.5,-0.5 111.5,-19.5 160.5,-19.5 160.5,-0.5 111.5,-0.5"/>
<text text-anchor="middle" x="136" y="-7.5" font-family="Helvetica,sans-Serif" font-size="10.00">stdint.h</text>
</g>
<!-- Node0&#45;&gt;Node1 -->
<g id="edge1" class="edge"><title>Node0&#45;&gt;Node1</title>
<path fill="none" stroke="midnightblue" d="M42.1868,-280.458C28.7229,-262.688 0,-219.976 0,-179 0,-179 0,-179 0,-121 0,-68.6785 61.6026,-36.9586 101.888,-21.8091"/>
<polygon fill="midnightblue" stroke="midnightblue" points="103.147,-25.0759 111.371,-18.3974 100.777,-18.4891 103.147,-25.0759"/>
</g>
<!-- Node2 -->
<g id="node3" class="node"><title>Node2</title>
<polygon fill="white" stroke="#bfbfbf" points="28.5,-112.5 28.5,-131.5 69.5,-131.5 69.5,-112.5 28.5,-112.5"/>
<text text-anchor="middle" x="49" y="-119.5" font-family="Helvetica,sans-Serif" font-size="10.00">string</text>
</g>
<!-- Node0&#45;&gt;Node2 -->
<g id="edge2" class="edge"><title>Node0&#45;&gt;Node2</title>
<path fill="none" stroke="midnightblue" d="M49,-280.075C49,-253.945 49,-177.211 49,-141.577"/>
<polygon fill="midnightblue" stroke="midnightblue" points="52.5001,-141.568 49,-131.568 45.5001,-141.568 52.5001,-141.568"/>
</g>
<!-- Node3 -->
<g id="node4" class="node"><title>Node3</title>
<g id="a_node4"><a xlink:href="amount_8h.html" target="_top" xlink:title="amount.h">
<polygon fill="white" stroke="black" points="211.5,-224.5 211.5,-243.5 268.5,-243.5 268.5,-224.5 211.5,-224.5"/>
<text text-anchor="middle" x="240" y="-231.5" font-family="Helvetica,sans-Serif" font-size="10.00">amount.h</text>
</a>
</g>
</g>
<!-- Node0&#45;&gt;Node3 -->
<g id="edge3" class="edge"><title>Node0&#45;&gt;Node3</title>
<path fill="none" stroke="midnightblue" d="M79.2645,-280.444C112.436,-271.065 165.722,-256 201.761,-245.811"/>
<polygon fill="midnightblue" stroke="midnightblue" points="202.766,-249.164 211.437,-243.075 200.862,-242.428 202.766,-249.164"/>
</g>
<!-- Node3&#45;&gt;Node2 -->
<g id="edge29" class="edge"><title>Node3&#45;&gt;Node2</title>
<path fill="none" stroke="midnightblue" d="M225.013,-224.368C191.958,-205.332 112.577,-159.615 72.7022,-136.65"/>
<polygon fill="midnightblue" stroke="midnightblue" points="74.3302,-133.549 63.9178,-131.591 70.8367,-139.615 74.3302,-133.549"/>
</g>
<!-- Node4 -->
<g id="node5" class="node"><title>Node4</title>
<g id="a_node5"><a xlink:href="serialize_8h.html" target="_top" xlink:title="serialize.h">
<polygon fill="white" stroke="black" points="393.5,-168.5 393.5,-187.5 454.5,-187.5 454.5,-168.5 393.5,-168.5"/>
<text text-anchor="middle" x="424" y="-175.5" font-family="Helvetica,sans-Serif" font-size="10.00">serialize.h</text>
</a>
</g>
</g>
<!-- Node3&#45;&gt;Node4 -->
<g id="edge4" class="edge"><title>Node3&#45;&gt;Node4</title>
<path fill="none" stroke="midnightblue" d="M268.75,-224.562C300.028,-215.383 350.21,-200.656 385.019,-190.44"/>
<polygon fill="midnightblue" stroke="midnightblue" points="386.235,-193.731 394.845,-187.556 384.264,-187.014 386.235,-193.731"/>
</g>
<!-- Node19 -->
<g id="node20" class="node"><title>Node19</title>
<polygon fill="white" stroke="#bfbfbf" points="893,-56.5 893,-75.5 941,-75.5 941,-56.5 893,-56.5"/>
<text text-anchor="middle" x="917" y="-63.5" font-family="Helvetica,sans-Serif" font-size="10.00">stdlib.h</text>
</g>
<!-- Node3&#45;&gt;Node19 -->
<g id="edge28" class="edge"><title>Node3&#45;&gt;Node19</title>
<path fill="none" stroke="midnightblue" d="M268.846,-232.745C383.845,-231.129 807.907,-219.253 902,-132 914.587,-120.328 917.627,-100.383 917.956,-85.6567"/>
<polygon fill="midnightblue" stroke="midnightblue" points="921.455,-85.578 917.792,-75.6366 914.456,-85.6926 921.455,-85.578"/>
</g>
<!-- Node4&#45;&gt;Node1 -->
<g id="edge17" class="edge"><title>Node4&#45;&gt;Node1</title>
<path fill="none" stroke="midnightblue" d="M393.27,-177.333C322.729,-177.375 152.528,-173.116 117,-132 91.8386,-102.882 111.748,-54.4617 125.578,-28.5826"/>
<polygon fill="midnightblue" stroke="midnightblue" points="128.797,-29.9987 130.645,-19.5662 122.695,-26.5695 128.797,-29.9987"/>
</g>
<!-- Node4&#45;&gt;Node2 -->
<g id="edge18" class="edge"><title>Node4&#45;&gt;Node2</title>
<path fill="none" stroke="midnightblue" d="M393.323,-174.187C333.477,-168.425 197.106,-153.945 84,-132 82.5372,-131.716 81.0446,-131.408 79.5402,-131.081"/>
<polygon fill="midnightblue" stroke="midnightblue" points="80.1713,-127.634 69.6348,-128.744 78.5639,-134.447 80.1713,-127.634"/>
</g>
<!-- Node5 -->
<g id="node6" class="node"><title>Node5</title>
<g id="a_node6"><a xlink:href="endian_8h.html" target="_top" xlink:title="compat/endian.h">
<polygon fill="white" stroke="black" points="126.5,-112.5 126.5,-131.5 215.5,-131.5 215.5,-112.5 126.5,-112.5"/>
<text text-anchor="middle" x="171" y="-119.5" font-family="Helvetica,sans-Serif" font-size="10.00">compat/endian.h</text>
</a>
</g>
</g>
<!-- Node4&#45;&gt;Node5 -->
<g id="edge5" class="edge"><title>Node4&#45;&gt;Node5</title>
<path fill="none" stroke="midnightblue" d="M393.482,-170.486C350.728,-161.361 272.487,-144.661 221.114,-133.696"/>
<polygon fill="midnightblue" stroke="midnightblue" points="221.727,-130.248 211.216,-131.584 220.265,-137.094 221.727,-130.248"/>
</g>
<!-- Node7 -->
<g id="node8" class="node"><title>Node7</title>
<polygon fill="white" stroke="#bfbfbf" points="310,-112.5 310,-131.5 366,-131.5 366,-112.5 310,-112.5"/>
<text text-anchor="middle" x="338" y="-119.5" font-family="Helvetica,sans-Serif" font-size="10.00">algorithm</text>
</g>
<!-- Node4&#45;&gt;Node7 -->
<g id="edge9" class="edge"><title>Node4&#45;&gt;Node7</title>
<path fill="none" stroke="midnightblue" d="M410.183,-168.324C396.767,-159.9 376.176,-146.971 360.414,-137.074"/>
<polygon fill="midnightblue" stroke="midnightblue" points="362.113,-134.008 351.783,-131.655 358.391,-139.936 362.113,-134.008"/>
</g>
<!-- Node8 -->
<g id="node9" class="node"><title>Node8</title>
<polygon fill="white" stroke="#bfbfbf" points="375,-56.5 375,-75.5 427,-75.5 427,-56.5 375,-56.5"/>
<text text-anchor="middle" x="401" y="-63.5" font-family="Helvetica,sans-Serif" font-size="10.00">assert.h</text>
</g>
<!-- Node4&#45;&gt;Node8 -->
<g id="edge10" class="edge"><title>Node4&#45;&gt;Node8</title>
<path fill="none" stroke="midnightblue" d="M393.233,-172.54C352.22,-165.894 283.039,-151.991 268,-132 240.363,-95.2637 316.281,-78.1303 364.534,-71.1412"/>
<polygon fill="midnightblue" stroke="midnightblue" points="365.22,-74.5801 374.657,-69.7628 364.276,-67.6441 365.22,-74.5801"/>
</g>
<!-- Node9 -->
<g id="node10" class="node"><title>Node9</title>
<polygon fill="white" stroke="#bfbfbf" points="383.5,-112.5 383.5,-131.5 412.5,-131.5 412.5,-112.5 383.5,-112.5"/>
<text text-anchor="middle" x="398" y="-119.5" font-family="Helvetica,sans-Serif" font-size="10.00">ios</text>
</g>
<!-- Node4&#45;&gt;Node9 -->
<g id="edge11" class="edge"><title>Node4&#45;&gt;Node9</title>
<path fill="none" stroke="midnightblue" d="M419.707,-168.083C416.148,-160.691 410.978,-149.953 406.576,-140.811"/>
<polygon fill="midnightblue" stroke="midnightblue" points="409.705,-139.243 402.213,-131.751 403.398,-142.279 409.705,-139.243"/>
</g>
<!-- Node10 -->
<g id="node11" class="node"><title>Node10</title>
<polygon fill="white" stroke="#bfbfbf" points="431,-112.5 431,-131.5 471,-131.5 471,-112.5 431,-112.5"/>
<text text-anchor="middle" x="451" y="-119.5" font-family="Helvetica,sans-Serif" font-size="10.00">limits</text>
</g>
<!-- Node4&#45;&gt;Node10 -->
<g id="edge12" class="edge"><title>Node4&#45;&gt;Node10</title>
<path fill="none" stroke="midnightblue" d="M428.459,-168.083C432.154,-160.691 437.523,-149.953 442.094,-140.811"/>
<polygon fill="midnightblue" stroke="midnightblue" points="445.283,-142.261 446.624,-131.751 439.022,-139.13 445.283,-142.261"/>
</g>
<!-- Node11 -->
<g id="node12" class="node"><title>Node11</title>
<polygon fill="white" stroke="#bfbfbf" points="489.5,-112.5 489.5,-131.5 518.5,-131.5 518.5,-112.5 489.5,-112.5"/>
<text text-anchor="middle" x="504" y="-119.5" font-family="Helvetica,sans-Serif" font-size="10.00">list</text>
</g>
<!-- Node4&#45;&gt;Node11 -->
<g id="edge13" class="edge"><title>Node4&#45;&gt;Node11</title>
<path fill="none" stroke="midnightblue" d="M436.853,-168.324C449.216,-159.979 468.13,-147.212 482.737,-137.352"/>
<polygon fill="midnightblue" stroke="midnightblue" points="484.848,-140.15 491.179,-131.655 480.932,-134.348 484.848,-140.15"/>
</g>
<!-- Node12 -->
<g id="node13" class="node"><title>Node12</title>
<polygon fill="white" stroke="#bfbfbf" points="536.5,-112.5 536.5,-131.5 571.5,-131.5 571.5,-112.5 536.5,-112.5"/>
<text text-anchor="middle" x="554" y="-119.5" font-family="Helvetica,sans-Serif" font-size="10.00">map</text>
</g>
<!-- Node4&#45;&gt;Node12 -->
<g id="edge14" class="edge"><title>Node4&#45;&gt;Node12</title>
<path fill="none" stroke="midnightblue" d="M444.599,-168.444C466.874,-159.191 502.476,-144.402 526.982,-134.223"/>
<polygon fill="midnightblue" stroke="midnightblue" points="528.524,-137.373 536.416,-130.304 525.838,-130.908 528.524,-137.373"/>
</g>
<!-- Node13 -->
<g id="node14" class="node"><title>Node13</title>
<polygon fill="white" stroke="#bfbfbf" points="590,-112.5 590,-131.5 642,-131.5 642,-112.5 590,-112.5"/>
<text text-anchor="middle" x="616" y="-119.5" font-family="Helvetica,sans-Serif" font-size="10.00">memory</text>
</g>
<!-- Node4&#45;&gt;Node13 -->
<g id="edge15" class="edge"><title>Node4&#45;&gt;Node13</title>
<path fill="none" stroke="midnightblue" d="M454.423,-168.444C488.541,-158.848 543.828,-143.298 580.052,-133.11"/>
<polygon fill="midnightblue" stroke="midnightblue" points="581.051,-136.465 589.73,-130.388 579.156,-129.727 581.051,-136.465"/>
</g>
<!-- Node14 -->
<g id="node15" class="node"><title>Node14</title>
<polygon fill="white" stroke="#bfbfbf" points="660,-112.5 660,-131.5 690,-131.5 690,-112.5 660,-112.5"/>
<text text-anchor="middle" x="675" y="-119.5" font-family="Helvetica,sans-Serif" font-size="10.00">set</text>
</g>
<!-- Node4&#45;&gt;Node14 -->
<g id="edge16" class="edge"><title>Node4&#45;&gt;Node14</title>
<path fill="none" stroke="midnightblue" d="M454.851,-172.521C496.982,-166.053 574.95,-152.829 649.826,-131.951"/>
<polygon fill="midnightblue" stroke="midnightblue" points="651.226,-135.192 659.889,-129.092 649.314,-128.458 651.226,-135.192"/>
</g>
<!-- Node15 -->
<g id="node16" class="node"><title>Node15</title>
<polygon fill="white" stroke="#bfbfbf" points="627.5,-56.5 627.5,-75.5 676.5,-75.5 676.5,-56.5 627.5,-56.5"/>
<text text-anchor="middle" x="652" y="-63.5" font-family="Helvetica,sans-Serif" font-size="10.00">string.h</text>
</g>
<!-- Node4&#45;&gt;Node15 -->
<g id="edge19" class="edge"><title>Node4&#45;&gt;Node15</title>
<path fill="none" stroke="midnightblue" d="M393.317,-172.384C348.028,-164.346 271.642,-145.363 301,-112 321.726,-88.4476 532.842,-73.831 617.327,-68.8851"/>
<polygon fill="midnightblue" stroke="midnightblue" points="617.664,-72.3715 627.447,-68.3036 617.263,-65.383 617.664,-72.3715"/>
</g>
<!-- Node16 -->
<g id="node17" class="node"><title>Node16</title>
<polygon fill="white" stroke="#bfbfbf" points="708,-112.5 708,-131.5 748,-131.5 748,-112.5 708,-112.5"/>
<text text-anchor="middle" x="728" y="-119.5" font-family="Helvetica,sans-Serif" font-size="10.00">utility</text>
</g>
<!-- Node4&#45;&gt;Node16 -->
<g id="edge20" class="edge"><title>Node4&#45;&gt;Node16</title>
<path fill="none" stroke="midnightblue" d="M454.66,-173.275C505.581,-166.797 610.638,-152.19 698,-132 698.099,-131.977 698.199,-131.954 698.298,-131.931"/>
<polygon fill="midnightblue" stroke="midnightblue" points="698.972,-135.372 707.761,-129.457 697.201,-128.6 698.972,-135.372"/>
</g>
<!-- Node17 -->
<g id="node18" class="node"><title>Node17</title>
<polygon fill="white" stroke="#bfbfbf" points="766,-112.5 766,-131.5 810,-131.5 810,-112.5 766,-112.5"/>
<text text-anchor="middle" x="788" y="-119.5" font-family="Helvetica,sans-Serif" font-size="10.00">vector</text>
</g>
<!-- Node4&#45;&gt;Node17 -->
<g id="edge21" class="edge"><title>Node4&#45;&gt;Node17</title>
<path fill="none" stroke="midnightblue" d="M454.562,-174.399C511.845,-169.196 639.352,-156.071 755.614,-132.019"/>
<polygon fill="midnightblue" stroke="midnightblue" points="756.683,-135.371 765.749,-129.888 755.243,-128.521 756.683,-135.371"/>
</g>
<!-- Node18 -->
<g id="node19" class="node"><title>Node18</title>
<g id="a_node19"><a xlink:href="prevector_8h.html" target="_top" xlink:title="prevector.h">
<polygon fill="white" stroke="black" points="828.5,-112.5 828.5,-131.5 893.5,-131.5 893.5,-112.5 828.5,-112.5"/>
<text text-anchor="middle" x="861" y="-119.5" font-family="Helvetica,sans-Serif" font-size="10.00">prevector.h</text>
</a>
</g>
</g>
<!-- Node4&#45;&gt;Node18 -->
<g id="edge22" class="edge"><title>Node4&#45;&gt;Node18</title>
<path fill="none" stroke="midnightblue" d="M454.785,-174.462C521.327,-168.762 683.424,-153.721 818,-132 818.104,-131.983 818.207,-131.966 818.311,-131.95"/>
<polygon fill="midnightblue" stroke="midnightblue" points="818.957,-135.39 828.19,-130.194 817.732,-128.498 818.957,-135.39"/>
</g>
<!-- Node5&#45;&gt;Node1 -->
<g id="edge6" class="edge"><title>Node5&#45;&gt;Node1</title>
<path fill="none" stroke="midnightblue" d="M167.785,-112.423C164.445,-103.406 159.136,-88.7798 155,-76 149.966,-60.4449 144.794,-42.609 141.12,-29.5603"/>
<polygon fill="midnightblue" stroke="midnightblue" points="144.479,-28.5734 138.422,-19.8804 137.736,-30.453 144.479,-28.5734"/>
</g>
<!-- Node6 -->
<g id="node7" class="node"><title>Node6</title>
<g id="a_node7"><a xlink:href="byteswap_8h.html" target="_top" xlink:title="compat/byteswap.h">
<polygon fill="white" stroke="black" points="164,-56.5 164,-75.5 266,-75.5 266,-56.5 164,-56.5"/>
<text text-anchor="middle" x="215" y="-63.5" font-family="Helvetica,sans-Serif" font-size="10.00">compat/byteswap.h</text>
</a>
</g>
</g>
<!-- Node5&#45;&gt;Node6 -->
<g id="edge7" class="edge"><title>Node5&#45;&gt;Node6</title>
<path fill="none" stroke="midnightblue" d="M178.266,-112.083C184.545,-104.377 193.788,-93.0333 201.431,-83.6531"/>
<polygon fill="midnightblue" stroke="midnightblue" points="204.266,-85.7143 207.869,-75.7511 198.839,-81.2926 204.266,-85.7143"/>
</g>
<!-- Node6&#45;&gt;Node1 -->
<g id="edge8" class="edge"><title>Node6&#45;&gt;Node1</title>
<path fill="none" stroke="midnightblue" d="M202.307,-56.324C190.099,-47.979 171.422,-35.2122 156.997,-25.3524"/>
<polygon fill="midnightblue" stroke="midnightblue" points="158.892,-22.4082 148.661,-19.6545 154.942,-28.1871 158.892,-22.4082"/>
</g>
<!-- Node18&#45;&gt;Node1 -->
<g id="edge25" class="edge"><title>Node18&#45;&gt;Node1</title>
<path fill="none" stroke="midnightblue" d="M861.199,-112.129C860.986,-97.7523 858.24,-69.6032 841,-56 788.035,-14.2085 305.266,-11.0135 170.687,-10.9405"/>
<polygon fill="midnightblue" stroke="midnightblue" points="170.535,-7.44039 160.535,-10.9407 170.535,-14.4404 170.535,-7.44039"/>
</g>
<!-- Node18&#45;&gt;Node8 -->
<g id="edge23" class="edge"><title>Node18&#45;&gt;Node8</title>
<path fill="none" stroke="midnightblue" d="M828.194,-113.785C824.76,-113.134 821.315,-112.524 818,-112 678.157,-89.8753 510.186,-75.3997 437.486,-69.717"/>
<polygon fill="midnightblue" stroke="midnightblue" points="437.705,-66.2237 427.465,-68.9425 437.166,-73.2028 437.705,-66.2237"/>
</g>
<!-- Node18&#45;&gt;Node15 -->
<g id="edge26" class="edge"><title>Node18&#45;&gt;Node15</title>
<path fill="none" stroke="midnightblue" d="M828.344,-112.562C789.771,-102.596 725.887,-86.0905 686.52,-75.9191"/>
<polygon fill="midnightblue" stroke="midnightblue" points="687.147,-72.4662 676.59,-73.3533 685.396,-79.2437 687.147,-72.4662"/>
</g>
<!-- Node18&#45;&gt;Node19 -->
<g id="edge24" class="edge"><title>Node18&#45;&gt;Node19</title>
<path fill="none" stroke="midnightblue" d="M869.997,-112.324C878.194,-104.42 890.506,-92.5482 900.472,-82.9377"/>
<polygon fill="midnightblue" stroke="midnightblue" points="903.07,-85.2947 907.839,-75.8339 898.211,-80.2558 903.07,-85.2947"/>
</g>
<!-- Node20 -->
<g id="node21" class="node"><title>Node20</title>
<polygon fill="white" stroke="#bfbfbf" points="785.5,-56.5 785.5,-75.5 832.5,-75.5 832.5,-56.5 785.5,-56.5"/>
<text text-anchor="middle" x="809" y="-63.5" font-family="Helvetica,sans-Serif" font-size="10.00">iterator</text>
</g>
<!-- Node18&#45;&gt;Node20 -->
<g id="edge27" class="edge"><title>Node18&#45;&gt;Node20</title>
<path fill="none" stroke="midnightblue" d="M852.413,-112.083C844.841,-104.22 833.622,-92.5688 824.486,-83.0813"/>
<polygon fill="midnightblue" stroke="midnightblue" points="826.885,-80.5266 817.427,-75.7511 821.842,-85.3821 826.885,-80.5266"/>
</g>
</g>
</svg>
