<?xml version="1.0" encoding="UTF-8" standalone="no"?>
<!DOCTYPE svg PUBLIC "-//W3C//DTD SVG 1.1//EN"
 "http://www.w3.org/Graphics/SVG/1.1/DTD/svg11.dtd">
<!-- Generated by graphviz version 2.36.0 (20140111.2315)
 -->
<!-- Title: src/qt/utilitydialog.cpp Pages: 1 -->
<svg width="2433pt" height="308pt"
 viewBox="0.00 0.00 2433.00 308.00" xmlns="http://www.w3.org/2000/svg" xmlns:xlink="http://www.w3.org/1999/xlink">
<g id="graph0" class="graph" transform="scale(1 1) rotate(0) translate(4 304)">
<title>src/qt/utilitydialog.cpp</title>
<polygon fill="white" stroke="none" points="-4,4 -4,-304 2429,-304 2429,4 -4,4"/>
<!-- Node0 -->
<g id="node1" class="node"><title>Node0</title>
<polygon fill="#bfbfbf" stroke="black" points="1595,-280.5 1595,-299.5 1707,-299.5 1707,-280.5 1595,-280.5"/>
<text text-anchor="middle" x="1651" y="-287.5" font-family="Helvetica,sans-Serif" font-size="10.00">src/qt/utilitydialog.cpp</text>
</g>
<!-- Node1 -->
<g id="node2" class="node"><title>Node1</title>
<g id="a_node2"><a xlink:href="utilitydialog_8h.html" target="_top" xlink:title="utilitydialog.h">
<polygon fill="white" stroke="black" points="201,-224.5 201,-243.5 275,-243.5 275,-224.5 201,-224.5"/>
<text text-anchor="middle" x="238" y="-231.5" font-family="Helvetica,sans-Serif" font-size="10.00">utilitydialog.h</text>
</a>
</g>
</g>
<!-- Node0&#45;&gt;Node1 -->
<g id="edge1" class="edge"><title>Node0&#45;&gt;Node1</title>
<path fill="none" stroke="midnightblue" d="M1594.91,-288.769C1411.09,-287.658 810.246,-281.219 315,-244 305.338,-243.274 295.02,-242.244 285.181,-241.14"/>
<polygon fill="midnightblue" stroke="midnightblue" points="285.485,-237.651 275.147,-239.971 284.675,-244.604 285.485,-237.651"/>
</g>
<!-- Node4 -->
<g id="node5" class="node"><title>Node4</title>
<polygon fill="white" stroke="#bfbfbf" points="1642.5,-224.5 1642.5,-243.5 1763.5,-243.5 1763.5,-224.5 1642.5,-224.5"/>
<text text-anchor="middle" x="1703" y="-231.5" font-family="Helvetica,sans-Serif" font-size="10.00">ui_helpmessagedialog.h</text>
</g>
<!-- Node0&#45;&gt;Node4 -->
<g id="edge4" class="edge"><title>Node0&#45;&gt;Node4</title>
<path fill="none" stroke="midnightblue" d="M1659.59,-280.083C1667.16,-272.22 1678.38,-260.569 1687.51,-251.081"/>
<polygon fill="midnightblue" stroke="midnightblue" points="1690.16,-253.382 1694.57,-243.751 1685.12,-248.527 1690.16,-253.382"/>
</g>
<!-- Node5 -->
<g id="node6" class="node"><title>Node5</title>
<g id="a_node6"><a xlink:href="bitcoingui_8h.html" target="_top" xlink:title="bitcoingui.h">
<polygon fill="white" stroke="black" points="1297,-224.5 1297,-243.5 1363,-243.5 1363,-224.5 1297,-224.5"/>
<text text-anchor="middle" x="1330" y="-231.5" font-family="Helvetica,sans-Serif" font-size="10.00">bitcoingui.h</text>
</a>
</g>
</g>
<!-- Node0&#45;&gt;Node5 -->
<g id="edge5" class="edge"><title>Node0&#45;&gt;Node5</title>
<path fill="none" stroke="midnightblue" d="M1600.14,-280.444C1537.6,-269.923 1432.52,-252.246 1373.54,-242.324"/>
<polygon fill="midnightblue" stroke="midnightblue" points="1373.88,-238.832 1363.43,-240.624 1372.71,-245.735 1373.88,-238.832"/>
</g>
<!-- Node26 -->
<g id="node12" class="node"><title>Node26</title>
<polygon fill="white" stroke="#bfbfbf" points="1484.5,-168.5 1484.5,-187.5 1531.5,-187.5 1531.5,-168.5 1484.5,-168.5"/>
<text text-anchor="middle" x="1508" y="-175.5" font-family="Helvetica,sans-Serif" font-size="10.00">QLabel</text>
</g>
<!-- Node0&#45;&gt;Node26 -->
<g id="edge61" class="edge"><title>Node0&#45;&gt;Node26</title>
<path fill="none" stroke="midnightblue" d="M1602.33,-280.484C1578.44,-274.063 1550.82,-262.972 1532,-244 1519.7,-231.602 1513.63,-212.36 1510.68,-198.024"/>
<polygon fill="midnightblue" stroke="midnightblue" points="1514.07,-197.067 1508.93,-187.804 1507.17,-198.252 1514.07,-197.067"/>
</g>
<!-- Node33 -->
<g id="node19" class="node"><title>Node33</title>
<g id="a_node19"><a xlink:href="clientmodel_8h.html" target="_top" xlink:title="clientmodel.h">
<polygon fill="white" stroke="black" points="324,-224.5 324,-243.5 398,-243.5 398,-224.5 324,-224.5"/>
<text text-anchor="middle" x="361" y="-231.5" font-family="Helvetica,sans-Serif" font-size="10.00">clientmodel.h</text>
</a>
</g>
</g>
<!-- Node0&#45;&gt;Node33 -->
<g id="edge19" class="edge"><title>Node0&#45;&gt;Node33</title>
<path fill="none" stroke="midnightblue" d="M1594.74,-286.645C1379.16,-277.621 607.864,-245.334 408.375,-236.983"/>
<polygon fill="midnightblue" stroke="midnightblue" points="408.36,-233.48 398.222,-236.558 408.067,-240.473 408.36,-233.48"/>
</g>
<!-- Node36 -->
<g id="node22" class="node"><title>Node36</title>
<g id="a_node22"><a xlink:href="guiconstants_8h.html" target="_top" xlink:title="guiconstants.h">
<polygon fill="white" stroke="black" points="1782,-224.5 1782,-243.5 1862,-243.5 1862,-224.5 1782,-224.5"/>
<text text-anchor="middle" x="1822" y="-231.5" font-family="Helvetica,sans-Serif" font-size="10.00">guiconstants.h</text>
</a>
</g>
</g>
<!-- Node0&#45;&gt;Node36 -->
<g id="edge23" class="edge"><title>Node0&#45;&gt;Node36</title>
<path fill="none" stroke="midnightblue" d="M1678.1,-280.444C1706.99,-271.32 1752.92,-256.813 1785.11,-246.651"/>
<polygon fill="midnightblue" stroke="midnightblue" points="1786.55,-249.865 1795.03,-243.516 1784.44,-243.19 1786.55,-249.865"/>
</g>
<!-- Node37 -->
<g id="node23" class="node"><title>Node37</title>
<g id="a_node23"><a xlink:href="intro_8h.html" target="_top" xlink:title="intro.h">
<polygon fill="white" stroke="black" points="107,-224.5 107,-243.5 151,-243.5 151,-224.5 107,-224.5"/>
<text text-anchor="middle" x="129" y="-231.5" font-family="Helvetica,sans-Serif" font-size="10.00">intro.h</text>
</a>
</g>
</g>
<!-- Node0&#45;&gt;Node37 -->
<g id="edge24" class="edge"><title>Node0&#45;&gt;Node37</title>
<path fill="none" stroke="midnightblue" d="M1594.88,-289.508C1400.33,-290.792 737.029,-291.189 192,-244 181.976,-243.132 171.112,-241.743 161.274,-240.313"/>
<polygon fill="midnightblue" stroke="midnightblue" points="161.501,-236.808 151.089,-238.768 160.451,-243.728 161.501,-236.808"/>
</g>
<!-- Node40 -->
<g id="node26" class="node"><title>Node40</title>
<g id="a_node26"><a xlink:href="paymentrequestplus_8h.html" target="_top" xlink:title="paymentrequestplus.h">
<polygon fill="white" stroke="black" points="709.5,-224.5 709.5,-243.5 822.5,-243.5 822.5,-224.5 709.5,-224.5"/>
<text text-anchor="middle" x="766" y="-231.5" font-family="Helvetica,sans-Serif" font-size="10.00">paymentrequestplus.h</text>
</a>
</g>
</g>
<!-- Node0&#45;&gt;Node40 -->
<g id="edge28" class="edge"><title>Node0&#45;&gt;Node40</title>
<path fill="none" stroke="midnightblue" d="M1594.9,-286.239C1466.99,-279.836 1143.91,-263.059 874,-244 860.689,-243.06 846.465,-241.95 832.854,-240.837"/>
<polygon fill="midnightblue" stroke="midnightblue" points="832.846,-237.324 822.591,-239.987 832.268,-244.3 832.846,-237.324"/>
</g>
<!-- Node103 -->
<g id="node35" class="node"><title>Node103</title>
<g id="a_node35"><a xlink:href="guiutil_8h.html" target="_top" xlink:title="guiutil.h">
<polygon fill="white" stroke="black" points="1574,-224.5 1574,-243.5 1624,-243.5 1624,-224.5 1574,-224.5"/>
<text text-anchor="middle" x="1599" y="-231.5" font-family="Helvetica,sans-Serif" font-size="10.00">guiutil.h</text>
</a>
</g>
</g>
<!-- Node0&#45;&gt;Node103 -->
<g id="edge42" class="edge"><title>Node0&#45;&gt;Node103</title>
<path fill="none" stroke="midnightblue" d="M1642.41,-280.083C1634.84,-272.22 1623.62,-260.569 1614.49,-251.081"/>
<polygon fill="midnightblue" stroke="midnightblue" points="1616.88,-248.527 1607.43,-243.751 1611.84,-253.382 1616.88,-248.527"/>
</g>
<!-- Node110 -->
<g id="node42" class="node"><title>Node110</title>
<g id="a_node42"><a xlink:href="clientversion_8h.html" target="_top" xlink:title="clientversion.h">
<polygon fill="white" stroke="black" points="886,-56.5 886,-75.5 966,-75.5 966,-56.5 886,-56.5"/>
<text text-anchor="middle" x="926" y="-63.5" font-family="Helvetica,sans-Serif" font-size="10.00">clientversion.h</text>
</a>
</g>
</g>
<!-- Node0&#45;&gt;Node110 -->
<g id="edge53" class="edge"><title>Node0&#45;&gt;Node110</title>
<path fill="none" stroke="midnightblue" d="M1594.87,-285.596C1429.36,-274.99 952,-240.098 907,-188 881.844,-158.877 901.751,-110.459 915.58,-84.5813"/>
<polygon fill="midnightblue" stroke="midnightblue" points="918.798,-85.9981 920.645,-75.5655 912.696,-82.569 918.798,-85.9981"/>
</g>
<!-- Node111 -->
<g id="node43" class="node"><title>Node111</title>
<g id="a_node43"><a xlink:href="init_8h.html" target="_top" xlink:title="init.h">
<polygon fill="white" stroke="black" points="1611,-112.5 1611,-131.5 1649,-131.5 1649,-112.5 1611,-112.5"/>
<text text-anchor="middle" x="1630" y="-119.5" font-family="Helvetica,sans-Serif" font-size="10.00">init.h</text>
</a>
</g>
</g>
<!-- Node0&#45;&gt;Node111 -->
<g id="edge56" class="edge"><title>Node0&#45;&gt;Node111</title>
<path fill="none" stroke="midnightblue" d="M1616.82,-280.493C1598.01,-273.877 1576.26,-262.596 1565,-244 1560.4,-236.396 1560.95,-231.911 1565,-224 1577.48,-199.628 1599.84,-210.802 1615,-188 1624.12,-174.287 1627.73,-155.755 1629.15,-141.988"/>
<polygon fill="midnightblue" stroke="midnightblue" points="1632.66,-141.981 1629.89,-131.754 1625.68,-141.475 1632.66,-141.981"/>
</g>
<!-- Node112 -->
<g id="node44" class="node"><title>Node112</title>
<polygon fill="white" stroke="#bfbfbf" points="1880,-224.5 1880,-243.5 1918,-243.5 1918,-224.5 1880,-224.5"/>
<text text-anchor="middle" x="1899" y="-231.5" font-family="Helvetica,sans-Serif" font-size="10.00">util.h</text>
</g>
<!-- Node0&#45;&gt;Node112 -->
<g id="edge58" class="edge"><title>Node0&#45;&gt;Node112</title>
<path fill="none" stroke="midnightblue" d="M1700.72,-280.433C1743.36,-272.726 1806.57,-260.448 1870.03,-244.036"/>
<polygon fill="midnightblue" stroke="midnightblue" points="1871.02,-247.396 1879.8,-241.476 1869.24,-240.624 1871.02,-247.396"/>
</g>
<!-- Node113 -->
<g id="node45" class="node"><title>Node113</title>
<polygon fill="white" stroke="#bfbfbf" points="1936,-224.5 1936,-243.5 1982,-243.5 1982,-224.5 1936,-224.5"/>
<text text-anchor="middle" x="1959" y="-231.5" font-family="Helvetica,sans-Serif" font-size="10.00">stdio.h</text>
</g>
<!-- Node0&#45;&gt;Node113 -->
<g id="edge59" class="edge"><title>Node0&#45;&gt;Node113</title>
<path fill="none" stroke="midnightblue" d="M1707.12,-281.738C1760.95,-274.347 1844.66,-261.747 1925.78,-244.073"/>
<polygon fill="midnightblue" stroke="midnightblue" points="1926.65,-247.466 1935.66,-241.892 1925.14,-240.63 1926.65,-247.466"/>
</g>
<!-- Node114 -->
<g id="node46" class="node"><title>Node114</title>
<polygon fill="white" stroke="#bfbfbf" points="2000.5,-224.5 2000.5,-243.5 2075.5,-243.5 2075.5,-224.5 2000.5,-224.5"/>
<text text-anchor="middle" x="2038" y="-231.5" font-family="Helvetica,sans-Serif" font-size="10.00">QCloseEvent</text>
</g>
<!-- Node0&#45;&gt;Node114 -->
<g id="edge60" class="edge"><title>Node0&#45;&gt;Node114</title>
<path fill="none" stroke="midnightblue" d="M1707.1,-282.58C1772.58,-274.861 1884.35,-260.99 1990.41,-244.012"/>
<polygon fill="midnightblue" stroke="midnightblue" points="1991.01,-247.46 2000.32,-242.413 1989.89,-240.55 1991.01,-247.46"/>
</g>
<!-- Node115 -->
<g id="node47" class="node"><title>Node115</title>
<polygon fill="white" stroke="#bfbfbf" points="2093.5,-224.5 2093.5,-243.5 2152.5,-243.5 2152.5,-224.5 2093.5,-224.5"/>
<text text-anchor="middle" x="2123" y="-231.5" font-family="Helvetica,sans-Serif" font-size="10.00">QRegExp</text>
</g>
<!-- Node0&#45;&gt;Node115 -->
<g id="edge62" class="edge"><title>Node0&#45;&gt;Node115</title>
<path fill="none" stroke="midnightblue" d="M1707,-285.395C1787.87,-279.702 1942.18,-267.013 2083.14,-243.939"/>
<polygon fill="midnightblue" stroke="midnightblue" points="2083.97,-247.349 2093.26,-242.259 2082.83,-240.443 2083.97,-247.349"/>
</g>
<!-- Node116 -->
<g id="node48" class="node"><title>Node116</title>
<polygon fill="white" stroke="#bfbfbf" points="2171,-224.5 2171,-243.5 2239,-243.5 2239,-224.5 2171,-224.5"/>
<text text-anchor="middle" x="2205" y="-231.5" font-family="Helvetica,sans-Serif" font-size="10.00">QTextTable</text>
</g>
<!-- Node0&#45;&gt;Node116 -->
<g id="edge63" class="edge"><title>Node0&#45;&gt;Node116</title>
<path fill="none" stroke="midnightblue" d="M1707.09,-286.143C1801.26,-280.878 1996.97,-267.934 2161,-244 2161.1,-243.985 2161.2,-243.97 2161.3,-243.955"/>
<polygon fill="midnightblue" stroke="midnightblue" points="2161.66,-247.444 2170.96,-242.362 2160.52,-240.537 2161.66,-247.444"/>
</g>
<!-- Node117 -->
<g id="node49" class="node"><title>Node117</title>
<polygon fill="white" stroke="#bfbfbf" points="2257.5,-224.5 2257.5,-243.5 2330.5,-243.5 2330.5,-224.5 2257.5,-224.5"/>
<text text-anchor="middle" x="2294" y="-231.5" font-family="Helvetica,sans-Serif" font-size="10.00">QTextCursor</text>
</g>
<!-- Node0&#45;&gt;Node117 -->
<g id="edge64" class="edge"><title>Node0&#45;&gt;Node117</title>
<path fill="none" stroke="midnightblue" d="M1707.2,-286.976C1811.59,-282.735 2042.63,-271.089 2247.37,-243.912"/>
<polygon fill="midnightblue" stroke="midnightblue" points="2247.96,-247.364 2257.41,-242.564 2247.03,-240.426 2247.96,-247.364"/>
</g>
<!-- Node118 -->
<g id="node50" class="node"><title>Node118</title>
<polygon fill="white" stroke="#bfbfbf" points="2348.5,-224.5 2348.5,-243.5 2425.5,-243.5 2425.5,-224.5 2348.5,-224.5"/>
<text text-anchor="middle" x="2387" y="-231.5" font-family="Helvetica,sans-Serif" font-size="10.00">QVBoxLayout</text>
</g>
<!-- Node0&#45;&gt;Node118 -->
<g id="edge65" class="edge"><title>Node0&#45;&gt;Node118</title>
<path fill="none" stroke="midnightblue" d="M1707.4,-287.602C1823.56,-284.227 2098,-273.695 2338.32,-243.92"/>
<polygon fill="midnightblue" stroke="midnightblue" points="2338.8,-247.387 2348.29,-242.671 2337.93,-240.441 2338.8,-247.387"/>
</g>
<!-- Node2 -->
<g id="node3" class="node"><title>Node2</title>
<polygon fill="white" stroke="#bfbfbf" points="141,-168.5 141,-187.5 193,-187.5 193,-168.5 141,-168.5"/>
<text text-anchor="middle" x="167" y="-175.5" font-family="Helvetica,sans-Serif" font-size="10.00">QDialog</text>
</g>
<!-- Node1&#45;&gt;Node2 -->
<g id="edge2" class="edge"><title>Node1&#45;&gt;Node2</title>
<path fill="none" stroke="midnightblue" d="M226.593,-224.324C215.891,-216.185 199.659,-203.839 186.837,-194.087"/>
<polygon fill="midnightblue" stroke="midnightblue" points="188.693,-191.102 178.615,-187.834 184.456,-196.673 188.693,-191.102"/>
</g>
<!-- Node3 -->
<g id="node4" class="node"><title>Node3</title>
<polygon fill="white" stroke="#bfbfbf" points="211.5,-168.5 211.5,-187.5 264.5,-187.5 264.5,-168.5 211.5,-168.5"/>
<text text-anchor="middle" x="238" y="-175.5" font-family="Helvetica,sans-Serif" font-size="10.00">QObject</text>
</g>
<!-- Node1&#45;&gt;Node3 -->
<g id="edge3" class="edge"><title>Node1&#45;&gt;Node3</title>
<path fill="none" stroke="midnightblue" d="M238,-224.083C238,-217.006 238,-206.861 238,-197.986"/>
<polygon fill="midnightblue" stroke="midnightblue" points="241.5,-197.751 238,-187.751 234.5,-197.751 241.5,-197.751"/>
</g>
<!-- Node6 -->
<g id="node7" class="node"><title>Node6</title>
<g id="a_node7"><a xlink:href="amount_8h.html" target="_top" xlink:title="amount.h">
<polygon fill="white" stroke="black" points="1549.5,-168.5 1549.5,-187.5 1606.5,-187.5 1606.5,-168.5 1549.5,-168.5"/>
<text text-anchor="middle" x="1578" y="-175.5" font-family="Helvetica,sans-Serif" font-size="10.00">amount.h</text>
</a>
</g>
</g>
<!-- Node5&#45;&gt;Node6 -->
<g id="edge6" class="edge"><title>Node5&#45;&gt;Node6</title>
<path fill="none" stroke="midnightblue" d="M1363.15,-226.127C1402.63,-217.888 1470.84,-203.499 1539.29,-188.123"/>
<polygon fill="midnightblue" stroke="midnightblue" points="1540.4,-191.46 1549.38,-185.848 1538.86,-184.632 1540.4,-191.46"/>
</g>
<!-- Node5&#45;&gt;Node26 -->
<g id="edge12" class="edge"><title>Node5&#45;&gt;Node26</title>
<path fill="none" stroke="midnightblue" d="M1358.2,-224.444C1389.83,-214.849 1441.08,-199.302 1474.66,-189.114"/>
<polygon fill="midnightblue" stroke="midnightblue" points="1475.92,-192.389 1484.47,-186.137 1473.89,-185.691 1475.92,-192.389"/>
</g>
<!-- Node27 -->
<g id="node13" class="node"><title>Node27</title>
<polygon fill="white" stroke="#bfbfbf" points="1386,-168.5 1386,-187.5 1466,-187.5 1466,-168.5 1386,-168.5"/>
<text text-anchor="middle" x="1426" y="-175.5" font-family="Helvetica,sans-Serif" font-size="10.00">QMainWindow</text>
</g>
<!-- Node5&#45;&gt;Node27 -->
<g id="edge13" class="edge"><title>Node5&#45;&gt;Node27</title>
<path fill="none" stroke="midnightblue" d="M1345.42,-224.324C1360.54,-215.822 1383.82,-202.729 1401.47,-192.797"/>
<polygon fill="midnightblue" stroke="midnightblue" points="1403.61,-195.608 1410.61,-187.655 1400.18,-189.507 1403.61,-195.608"/>
</g>
<!-- Node28 -->
<g id="node14" class="node"><title>Node28</title>
<polygon fill="white" stroke="#bfbfbf" points="1030.5,-168.5 1030.5,-187.5 1073.5,-187.5 1073.5,-168.5 1030.5,-168.5"/>
<text text-anchor="middle" x="1052" y="-175.5" font-family="Helvetica,sans-Serif" font-size="10.00">QMap</text>
</g>
<!-- Node5&#45;&gt;Node28 -->
<g id="edge14" class="edge"><title>Node5&#45;&gt;Node28</title>
<path fill="none" stroke="midnightblue" d="M1296.62,-228.03C1250.75,-220.961 1165.54,-206.962 1083.35,-187.87"/>
<polygon fill="midnightblue" stroke="midnightblue" points="1084.14,-184.461 1073.61,-185.579 1082.54,-191.275 1084.14,-184.461"/>
</g>
<!-- Node29 -->
<g id="node15" class="node"><title>Node29</title>
<polygon fill="white" stroke="#bfbfbf" points="1092,-168.5 1092,-187.5 1140,-187.5 1140,-168.5 1092,-168.5"/>
<text text-anchor="middle" x="1116" y="-175.5" font-family="Helvetica,sans-Serif" font-size="10.00">QMenu</text>
</g>
<!-- Node5&#45;&gt;Node29 -->
<g id="edge15" class="edge"><title>Node5&#45;&gt;Node29</title>
<path fill="none" stroke="midnightblue" d="M1296.91,-225.012C1262.57,-216.667 1207.04,-203.03 1150.04,-188.229"/>
<polygon fill="midnightblue" stroke="midnightblue" points="1150.69,-184.783 1140.13,-185.649 1148.93,-191.557 1150.69,-184.783"/>
</g>
<!-- Node30 -->
<g id="node16" class="node"><title>Node30</title>
<polygon fill="white" stroke="#bfbfbf" points="1158.5,-168.5 1158.5,-187.5 1205.5,-187.5 1205.5,-168.5 1158.5,-168.5"/>
<text text-anchor="middle" x="1182" y="-175.5" font-family="Helvetica,sans-Serif" font-size="10.00">QPoint</text>
</g>
<!-- Node5&#45;&gt;Node30 -->
<g id="edge16" class="edge"><title>Node5&#45;&gt;Node30</title>
<path fill="none" stroke="midnightblue" d="M1306.55,-224.444C1281.87,-215.438 1242.81,-201.189 1215.02,-191.049"/>
<polygon fill="midnightblue" stroke="midnightblue" points="1215.94,-187.656 1205.34,-187.516 1213.54,-194.232 1215.94,-187.656"/>
</g>
<!-- Node31 -->
<g id="node17" class="node"><title>Node31</title>
<polygon fill="white" stroke="#bfbfbf" points="1292.5,-168.5 1292.5,-187.5 1367.5,-187.5 1367.5,-168.5 1292.5,-168.5"/>
<text text-anchor="middle" x="1330" y="-175.5" font-family="Helvetica,sans-Serif" font-size="10.00">QPushButton</text>
</g>
<!-- Node5&#45;&gt;Node31 -->
<g id="edge17" class="edge"><title>Node5&#45;&gt;Node31</title>
<path fill="none" stroke="midnightblue" d="M1330,-224.083C1330,-217.006 1330,-206.861 1330,-197.986"/>
<polygon fill="midnightblue" stroke="midnightblue" points="1333.5,-197.751 1330,-187.751 1326.5,-197.751 1333.5,-197.751"/>
</g>
<!-- Node32 -->
<g id="node18" class="node"><title>Node32</title>
<polygon fill="white" stroke="#bfbfbf" points="916,-168.5 916,-187.5 1012,-187.5 1012,-168.5 916,-168.5"/>
<text text-anchor="middle" x="964" y="-175.5" font-family="Helvetica,sans-Serif" font-size="10.00">QSystemTrayIcon</text>
</g>
<!-- Node5&#45;&gt;Node32 -->
<g id="edge18" class="edge"><title>Node5&#45;&gt;Node32</title>
<path fill="none" stroke="midnightblue" d="M1296.6,-228.27C1241.62,-220.455 1128.36,-204.232 1022.12,-188.156"/>
<polygon fill="midnightblue" stroke="midnightblue" points="1022.61,-184.69 1012.2,-186.651 1021.56,-191.611 1022.61,-184.69"/>
</g>
<!-- Node7 -->
<g id="node8" class="node"><title>Node7</title>
<g id="a_node8"><a xlink:href="serialize_8h.html" target="_top" xlink:title="serialize.h">
<polygon fill="white" stroke="red" points="984.5,-56.5 984.5,-75.5 1045.5,-75.5 1045.5,-56.5 984.5,-56.5"/>
<text text-anchor="middle" x="1015" y="-63.5" font-family="Helvetica,sans-Serif" font-size="10.00">serialize.h</text>
</a>
</g>
</g>
<!-- Node6&#45;&gt;Node7 -->
<g id="edge7" class="edge"><title>Node6&#45;&gt;Node7</title>
<path fill="none" stroke="midnightblue" d="M1549.4,-170.088C1546.23,-169.364 1543.05,-168.654 1540,-168 1359.95,-129.378 1143.66,-89.9585 1055.44,-74.1738"/>
<polygon fill="midnightblue" stroke="midnightblue" points="1056.03,-70.7244 1045.57,-72.4115 1054.8,-77.6153 1056.03,-70.7244"/>
</g>
<!-- Node19 -->
<g id="node9" class="node"><title>Node19</title>
<polygon fill="white" stroke="#bfbfbf" points="1053.5,-0.5 1053.5,-19.5 1094.5,-19.5 1094.5,-0.5 1053.5,-0.5"/>
<text text-anchor="middle" x="1074" y="-7.5" font-family="Helvetica,sans-Serif" font-size="10.00">string</text>
</g>
<!-- Node6&#45;&gt;Node19 -->
<g id="edge11" class="edge"><title>Node6&#45;&gt;Node19</title>
<path fill="none" stroke="midnightblue" d="M1578.12,-168.407C1577.81,-154.429 1575.06,-126.84 1559,-112 1491.71,-49.8294 1200.54,-21.1879 1104.71,-13.3259"/>
<polygon fill="midnightblue" stroke="midnightblue" points="1104.77,-9.81971 1094.52,-12.5087 1104.21,-16.7973 1104.77,-9.81971"/>
</g>
<!-- Node24 -->
<g id="node11" class="node"><title>Node24</title>
<polygon fill="white" stroke="#bfbfbf" points="1502,-112.5 1502,-131.5 1550,-131.5 1550,-112.5 1502,-112.5"/>
<text text-anchor="middle" x="1526" y="-119.5" font-family="Helvetica,sans-Serif" font-size="10.00">stdlib.h</text>
</g>
<!-- Node6&#45;&gt;Node24 -->
<g id="edge10" class="edge"><title>Node6&#45;&gt;Node24</title>
<path fill="none" stroke="midnightblue" d="M1569.41,-168.083C1561.84,-160.22 1550.62,-148.569 1541.49,-139.081"/>
<polygon fill="midnightblue" stroke="midnightblue" points="1543.88,-136.527 1534.43,-131.751 1538.84,-141.382 1543.88,-136.527"/>
</g>
<!-- Node7&#45;&gt;Node19 -->
<g id="edge8" class="edge"><title>Node7&#45;&gt;Node19</title>
<path fill="none" stroke="midnightblue" d="M1024.48,-56.324C1033.2,-48.3414 1046.34,-36.3128 1056.9,-26.6529"/>
<polygon fill="midnightblue" stroke="midnightblue" points="1059.33,-29.1674 1064.35,-19.8339 1054.61,-24.0036 1059.33,-29.1674"/>
</g>
<!-- Node22 -->
<g id="node10" class="node"><title>Node22</title>
<polygon fill="white" stroke="#bfbfbf" points="836,-0.5 836,-19.5 880,-19.5 880,-0.5 836,-0.5"/>
<text text-anchor="middle" x="858" y="-7.5" font-family="Helvetica,sans-Serif" font-size="10.00">vector</text>
</g>
<!-- Node7&#45;&gt;Node22 -->
<g id="edge9" class="edge"><title>Node7&#45;&gt;Node22</title>
<path fill="none" stroke="midnightblue" d="M990.123,-56.4435C962.934,-47.0919 919.305,-32.0859 889.686,-21.8984"/>
<polygon fill="midnightblue" stroke="midnightblue" points="890.817,-18.5862 880.222,-18.6433 888.54,-25.2056 890.817,-18.5862"/>
</g>
<!-- Node33&#45;&gt;Node3 -->
<g id="edge20" class="edge"><title>Node33&#45;&gt;Node3</title>
<path fill="none" stroke="midnightblue" d="M341.51,-224.444C321.358,-215.596 289.677,-201.687 266.669,-191.586"/>
<polygon fill="midnightblue" stroke="midnightblue" points="267.962,-188.332 257.399,-187.516 265.148,-194.741 267.962,-188.332"/>
</g>
<!-- Node34 -->
<g id="node20" class="node"><title>Node34</title>
<polygon fill="white" stroke="#bfbfbf" points="282.5,-168.5 282.5,-187.5 349.5,-187.5 349.5,-168.5 282.5,-168.5"/>
<text text-anchor="middle" x="316" y="-175.5" font-family="Helvetica,sans-Serif" font-size="10.00">QDateTime</text>
</g>
<!-- Node33&#45;&gt;Node34 -->
<g id="edge21" class="edge"><title>Node33&#45;&gt;Node34</title>
<path fill="none" stroke="midnightblue" d="M353.569,-224.083C347.147,-216.377 337.694,-205.033 329.878,-195.653"/>
<polygon fill="midnightblue" stroke="midnightblue" points="332.383,-193.193 323.293,-187.751 327.006,-197.674 332.383,-193.193"/>
</g>
<!-- Node35 -->
<g id="node21" class="node"><title>Node35</title>
<polygon fill="white" stroke="#bfbfbf" points="368,-168.5 368,-187.5 414,-187.5 414,-168.5 368,-168.5"/>
<text text-anchor="middle" x="391" y="-175.5" font-family="Helvetica,sans-Serif" font-size="10.00">atomic</text>
</g>
<!-- Node33&#45;&gt;Node35 -->
<g id="edge22" class="edge"><title>Node33&#45;&gt;Node35</title>
<path fill="none" stroke="midnightblue" d="M365.954,-224.083C370.104,-216.613 376.153,-205.724 381.267,-196.52"/>
<polygon fill="midnightblue" stroke="midnightblue" points="384.341,-198.192 386.138,-187.751 378.222,-194.793 384.341,-198.192"/>
</g>
<!-- Node37&#45;&gt;Node2 -->
<g id="edge25" class="edge"><title>Node37&#45;&gt;Node2</title>
<path fill="none" stroke="midnightblue" d="M135.275,-224.083C140.642,-216.455 148.518,-205.264 155.079,-195.941"/>
<polygon fill="midnightblue" stroke="midnightblue" points="157.949,-197.943 160.842,-187.751 152.225,-193.915 157.949,-197.943"/>
</g>
<!-- Node38 -->
<g id="node24" class="node"><title>Node38</title>
<polygon fill="white" stroke="#bfbfbf" points="-0.5,-168.5 -0.5,-187.5 50.5,-187.5 50.5,-168.5 -0.5,-168.5"/>
<text text-anchor="middle" x="25" y="-175.5" font-family="Helvetica,sans-Serif" font-size="10.00">QMutex</text>
</g>
<!-- Node37&#45;&gt;Node38 -->
<g id="edge26" class="edge"><title>Node37&#45;&gt;Node38</title>
<path fill="none" stroke="midnightblue" d="M112.291,-224.324C95.6881,-215.703 69.9979,-202.364 50.7795,-192.386"/>
<polygon fill="midnightblue" stroke="midnightblue" points="52.1558,-189.156 41.6679,-187.655 48.93,-195.369 52.1558,-189.156"/>
</g>
<!-- Node39 -->
<g id="node25" class="node"><title>Node39</title>
<polygon fill="white" stroke="#bfbfbf" points="69,-168.5 69,-187.5 123,-187.5 123,-168.5 69,-168.5"/>
<text text-anchor="middle" x="96" y="-175.5" font-family="Helvetica,sans-Serif" font-size="10.00">QThread</text>
</g>
<!-- Node37&#45;&gt;Node39 -->
<g id="edge27" class="edge"><title>Node37&#45;&gt;Node39</title>
<path fill="none" stroke="midnightblue" d="M123.551,-224.083C118.986,-216.613 112.332,-205.724 106.707,-196.52"/>
<polygon fill="midnightblue" stroke="midnightblue" points="109.549,-194.459 101.348,-187.751 103.576,-198.109 109.549,-194.459"/>
</g>
<!-- Node41 -->
<g id="node27" class="node"><title>Node41</title>
<polygon fill="white" stroke="#bfbfbf" points="432,-168.5 432,-187.5 540,-187.5 540,-168.5 432,-168.5"/>
<text text-anchor="middle" x="486" y="-175.5" font-family="Helvetica,sans-Serif" font-size="10.00">paymentrequest.pb.h</text>
</g>
<!-- Node40&#45;&gt;Node41 -->
<g id="edge29" class="edge"><title>Node40&#45;&gt;Node41</title>
<path fill="none" stroke="midnightblue" d="M721.633,-224.444C672.378,-214.944 592.872,-199.611 540.029,-189.42"/>
<polygon fill="midnightblue" stroke="midnightblue" points="540.641,-185.974 530.159,-187.516 539.316,-192.847 540.641,-185.974"/>
</g>
<!-- Node42 -->
<g id="node28" class="node"><title>Node42</title>
<g id="a_node28"><a xlink:href="base58_8h.html" target="_top" xlink:title="base58.h">
<polygon fill="white" stroke="red" points="804,-168.5 804,-187.5 860,-187.5 860,-168.5 804,-168.5"/>
<text text-anchor="middle" x="832" y="-175.5" font-family="Helvetica,sans-Serif" font-size="10.00">base58.h</text>
</a>
</g>
</g>
<!-- Node40&#45;&gt;Node42 -->
<g id="edge30" class="edge"><title>Node40&#45;&gt;Node42</title>
<path fill="none" stroke="midnightblue" d="M776.604,-224.324C786.456,-216.263 801.351,-204.077 813.215,-194.369"/>
<polygon fill="midnightblue" stroke="midnightblue" points="815.68,-196.875 821.203,-187.834 811.247,-191.457 815.68,-196.875"/>
</g>
<!-- Node99 -->
<g id="node31" class="node"><title>Node99</title>
<polygon fill="white" stroke="#bfbfbf" points="558.5,-168.5 558.5,-187.5 641.5,-187.5 641.5,-168.5 558.5,-168.5"/>
<text text-anchor="middle" x="600" y="-175.5" font-family="Helvetica,sans-Serif" font-size="10.00">openssl/x509.h</text>
</g>
<!-- Node40&#45;&gt;Node99 -->
<g id="edge38" class="edge"><title>Node40&#45;&gt;Node99</title>
<path fill="none" stroke="midnightblue" d="M739.697,-224.444C711.649,-215.32 667.056,-200.813 635.816,-190.651"/>
<polygon fill="midnightblue" stroke="midnightblue" points="636.772,-187.282 626.18,-187.516 634.607,-193.938 636.772,-187.282"/>
</g>
<!-- Node100 -->
<g id="node32" class="node"><title>Node100</title>
<polygon fill="white" stroke="#bfbfbf" points="660,-168.5 660,-187.5 728,-187.5 728,-168.5 660,-168.5"/>
<text text-anchor="middle" x="694" y="-175.5" font-family="Helvetica,sans-Serif" font-size="10.00">QByteArray</text>
</g>
<!-- Node40&#45;&gt;Node100 -->
<g id="edge39" class="edge"><title>Node40&#45;&gt;Node100</title>
<path fill="none" stroke="midnightblue" d="M754.432,-224.324C743.58,-216.185 727.119,-203.839 714.117,-194.087"/>
<polygon fill="midnightblue" stroke="midnightblue" points="715.879,-191.034 705.779,-187.834 711.679,-196.634 715.879,-191.034"/>
</g>
<!-- Node101 -->
<g id="node33" class="node"><title>Node101</title>
<polygon fill="white" stroke="#bfbfbf" points="746,-168.5 746,-187.5 786,-187.5 786,-168.5 746,-168.5"/>
<text text-anchor="middle" x="766" y="-175.5" font-family="Helvetica,sans-Serif" font-size="10.00">QList</text>
</g>
<!-- Node40&#45;&gt;Node101 -->
<g id="edge40" class="edge"><title>Node40&#45;&gt;Node101</title>
<path fill="none" stroke="midnightblue" d="M766,-224.083C766,-217.006 766,-206.861 766,-197.986"/>
<polygon fill="midnightblue" stroke="midnightblue" points="769.5,-197.751 766,-187.751 762.5,-197.751 769.5,-197.751"/>
</g>
<!-- Node102 -->
<g id="node34" class="node"><title>Node102</title>
<polygon fill="white" stroke="#bfbfbf" points="1224,-168.5 1224,-187.5 1274,-187.5 1274,-168.5 1224,-168.5"/>
<text text-anchor="middle" x="1249" y="-175.5" font-family="Helvetica,sans-Serif" font-size="10.00">QString</text>
</g>
<!-- Node40&#45;&gt;Node102 -->
<g id="edge41" class="edge"><title>Node40&#45;&gt;Node102</title>
<path fill="none" stroke="midnightblue" d="M822.603,-230.072C907.966,-225.036 1074.5,-212.794 1214,-188 1214.1,-187.982 1214.2,-187.964 1214.3,-187.946"/>
<polygon fill="midnightblue" stroke="midnightblue" points="1214.79,-191.419 1223.86,-185.949 1213.36,-184.567 1214.79,-191.419"/>
</g>
<!-- Node42&#45;&gt;Node19 -->
<g id="edge36" class="edge"><title>Node42&#45;&gt;Node19</title>
<path fill="none" stroke="midnightblue" d="M860.295,-171.904C907.362,-161.949 1001.72,-135.468 1054,-76 1065.32,-63.1257 1070.23,-43.9474 1072.36,-29.7566"/>
<polygon fill="midnightblue" stroke="midnightblue" points="1075.86,-30.0003 1073.55,-19.6608 1068.91,-29.1852 1075.86,-30.0003"/>
</g>
<!-- Node42&#45;&gt;Node22 -->
<g id="edge37" class="edge"><title>Node42&#45;&gt;Node22</title>
<path fill="none" stroke="midnightblue" d="M816.569,-168.384C783.521,-148.811 711.238,-99.3336 741,-56 759.901,-28.4803 798.161,-17.7834 825.793,-13.6295"/>
<polygon fill="midnightblue" stroke="midnightblue" points="826.331,-17.0892 835.8,-12.3365 825.434,-10.1469 826.331,-17.0892"/>
</g>
<!-- Node43 -->
<g id="node29" class="node"><title>Node43</title>
<g id="a_node29"><a xlink:href="chainparams_8h.html" target="_top" xlink:title="chainparams.h">
<polygon fill="white" stroke="red" points="750,-56.5 750,-75.5 830,-75.5 830,-56.5 750,-56.5"/>
<text text-anchor="middle" x="790" y="-63.5" font-family="Helvetica,sans-Serif" font-size="10.00">chainparams.h</text>
</a>
</g>
</g>
<!-- Node42&#45;&gt;Node43 -->
<g id="edge31" class="edge"><title>Node42&#45;&gt;Node43</title>
<path fill="none" stroke="midnightblue" d="M826.911,-168.265C821.874,-159.362 814.187,-145.045 809,-132 802.891,-116.637 797.761,-98.5383 794.377,-85.3456"/>
<polygon fill="midnightblue" stroke="midnightblue" points="797.761,-84.452 791.962,-75.5853 790.966,-86.1332 797.761,-84.452"/>
</g>
<!-- Node72 -->
<g id="node30" class="node"><title>Node72</title>
<g id="a_node30"><a xlink:href="key_8h.html" target="_top" xlink:title="key.h">
<polygon fill="white" stroke="red" points="818.5,-112.5 818.5,-131.5 859.5,-131.5 859.5,-112.5 818.5,-112.5"/>
<text text-anchor="middle" x="839" y="-119.5" font-family="Helvetica,sans-Serif" font-size="10.00">key.h</text>
</a>
</g>
</g>
<!-- Node42&#45;&gt;Node72 -->
<g id="edge33" class="edge"><title>Node42&#45;&gt;Node72</title>
<path fill="none" stroke="midnightblue" d="M833.156,-168.083C834.084,-160.927 835.418,-150.635 836.577,-141.691"/>
<polygon fill="midnightblue" stroke="midnightblue" points="840.051,-142.118 837.866,-131.751 833.109,-141.218 840.051,-142.118"/>
</g>
<!-- Node43&#45;&gt;Node22 -->
<g id="edge32" class="edge"><title>Node43&#45;&gt;Node22</title>
<path fill="none" stroke="midnightblue" d="M800.925,-56.324C811.175,-48.1849 826.721,-35.8395 839.001,-26.0874"/>
<polygon fill="midnightblue" stroke="midnightblue" points="841.221,-28.7937 846.876,-19.8339 836.868,-23.3119 841.221,-28.7937"/>
</g>
<!-- Node72&#45;&gt;Node7 -->
<g id="edge34" class="edge"><title>Node72&#45;&gt;Node7</title>
<path fill="none" stroke="midnightblue" d="M859.534,-114.7C888.378,-105.85 941.389,-89.5851 977.405,-78.5347"/>
<polygon fill="midnightblue" stroke="midnightblue" points="978.545,-81.8461 987.079,-75.5667 976.492,-75.154 978.545,-81.8461"/>
</g>
<!-- Node72&#45;&gt;Node22 -->
<g id="edge35" class="edge"><title>Node72&#45;&gt;Node22</title>
<path fill="none" stroke="midnightblue" d="M840.491,-112.368C843.557,-94.617 850.63,-53.6664 854.788,-29.5974"/>
<polygon fill="midnightblue" stroke="midnightblue" points="858.263,-30.0413 856.516,-19.5914 851.365,-28.8498 858.263,-30.0413"/>
</g>
<!-- Node103&#45;&gt;Node3 -->
<g id="edge47" class="edge"><title>Node103&#45;&gt;Node3</title>
<path fill="none" stroke="midnightblue" d="M1573.81,-231.945C1531.92,-230.202 1445.31,-226.654 1372,-224 1131.03,-215.276 530.983,-222.44 274.717,-187.896"/>
<polygon fill="midnightblue" stroke="midnightblue" points="275.019,-184.404 264.631,-186.489 274.052,-191.337 275.019,-184.404"/>
</g>
<!-- Node103&#45;&gt;Node6 -->
<g id="edge43" class="edge"><title>Node103&#45;&gt;Node6</title>
<path fill="none" stroke="midnightblue" d="M1595.53,-224.083C1592.69,-216.77 1588.57,-206.181 1585.04,-197.103"/>
<polygon fill="midnightblue" stroke="midnightblue" points="1588.29,-195.803 1581.4,-187.751 1581.77,-198.34 1588.29,-195.803"/>
</g>
<!-- Node103&#45;&gt;Node26 -->
<g id="edge51" class="edge"><title>Node103&#45;&gt;Node26</title>
<path fill="none" stroke="midnightblue" d="M1584.38,-224.324C1570.05,-215.822 1547.99,-202.729 1531.25,-192.797"/>
<polygon fill="midnightblue" stroke="midnightblue" points="1532.97,-189.748 1522.58,-187.655 1529.4,-195.768 1532.97,-189.748"/>
</g>
<!-- Node103&#45;&gt;Node102 -->
<g id="edge49" class="edge"><title>Node103&#45;&gt;Node102</title>
<path fill="none" stroke="midnightblue" d="M1573.84,-230.432C1521.62,-224.888 1397.55,-210.596 1284.07,-188.011"/>
<polygon fill="midnightblue" stroke="midnightblue" points="1284.67,-184.562 1274.17,-186.016 1283.28,-191.424 1284.67,-184.562"/>
</g>
<!-- Node104 -->
<g id="node36" class="node"><title>Node104</title>
<polygon fill="white" stroke="#bfbfbf" points="1877,-168.5 1877,-187.5 1927,-187.5 1927,-168.5 1877,-168.5"/>
<text text-anchor="middle" x="1902" y="-175.5" font-family="Helvetica,sans-Serif" font-size="10.00">QEvent</text>
</g>
<!-- Node103&#45;&gt;Node104 -->
<g id="edge44" class="edge"><title>Node103&#45;&gt;Node104</title>
<path fill="none" stroke="midnightblue" d="M1624.17,-226.213C1627.46,-225.417 1630.8,-224.656 1634,-224 1736.64,-202.927 1764.36,-209.073 1867,-188 1867.1,-187.979 1867.2,-187.959 1867.3,-187.938"/>
<polygon fill="midnightblue" stroke="midnightblue" points="1867.85,-191.402 1876.83,-185.787 1866.31,-184.574 1867.85,-191.402"/>
</g>
<!-- Node105 -->
<g id="node37" class="node"><title>Node105</title>
<polygon fill="white" stroke="#bfbfbf" points="1945.5,-168.5 1945.5,-187.5 2022.5,-187.5 2022.5,-168.5 1945.5,-168.5"/>
<text text-anchor="middle" x="1984" y="-175.5" font-family="Helvetica,sans-Serif" font-size="10.00">QHeaderView</text>
</g>
<!-- Node103&#45;&gt;Node105 -->
<g id="edge45" class="edge"><title>Node103&#45;&gt;Node105</title>
<path fill="none" stroke="midnightblue" d="M1624.15,-226.107C1627.45,-225.329 1630.79,-224.601 1634,-224 1763.62,-199.721 1800.59,-208.03 1934.99,-188.047"/>
<polygon fill="midnightblue" stroke="midnightblue" points="1935.9,-191.449 1945.27,-186.492 1934.85,-184.527 1935.9,-191.449"/>
</g>
<!-- Node106 -->
<g id="node38" class="node"><title>Node106</title>
<polygon fill="white" stroke="#bfbfbf" points="2040.5,-168.5 2040.5,-187.5 2121.5,-187.5 2121.5,-168.5 2040.5,-168.5"/>
<text text-anchor="middle" x="2081" y="-175.5" font-family="Helvetica,sans-Serif" font-size="10.00">QMessageBox</text>
</g>
<!-- Node103&#45;&gt;Node106 -->
<g id="edge46" class="edge"><title>Node103&#45;&gt;Node106</title>
<path fill="none" stroke="midnightblue" d="M1624.13,-226.021C1627.43,-225.256 1630.79,-224.555 1634,-224 1805.34,-194.401 1853.64,-211.069 2030.23,-187.971"/>
<polygon fill="midnightblue" stroke="midnightblue" points="2030.94,-191.408 2040.39,-186.617 2030.01,-184.469 2030.94,-191.408"/>
</g>
<!-- Node107 -->
<g id="node39" class="node"><title>Node107</title>
<polygon fill="white" stroke="#bfbfbf" points="2140,-168.5 2140,-187.5 2218,-187.5 2218,-168.5 2140,-168.5"/>
<text text-anchor="middle" x="2179" y="-175.5" font-family="Helvetica,sans-Serif" font-size="10.00">QProgressBar</text>
</g>
<!-- Node103&#45;&gt;Node107 -->
<g id="edge48" class="edge"><title>Node103&#45;&gt;Node107</title>
<path fill="none" stroke="midnightblue" d="M1624.12,-225.966C1627.42,-225.21 1630.78,-224.526 1634,-224 1848.93,-188.857 1909.01,-215.209 2129.79,-187.856"/>
<polygon fill="midnightblue" stroke="midnightblue" points="2130.26,-191.324 2139.74,-186.6 2129.38,-184.379 2130.26,-191.324"/>
</g>
<!-- Node108 -->
<g id="node40" class="node"><title>Node108</title>
<polygon fill="white" stroke="#bfbfbf" points="1663,-168.5 1663,-187.5 1733,-187.5 1733,-168.5 1663,-168.5"/>
<text text-anchor="middle" x="1698" y="-175.5" font-family="Helvetica,sans-Serif" font-size="10.00">QTableView</text>
</g>
<!-- Node103&#45;&gt;Node108 -->
<g id="edge50" class="edge"><title>Node103&#45;&gt;Node108</title>
<path fill="none" stroke="midnightblue" d="M1614.91,-224.324C1630.64,-215.743 1654.94,-202.486 1673.21,-192.522"/>
<polygon fill="midnightblue" stroke="midnightblue" points="1675.03,-195.516 1682.13,-187.655 1671.68,-189.37 1675.03,-195.516"/>
</g>
<!-- Node109 -->
<g id="node41" class="node"><title>Node109</title>
<polygon fill="white" stroke="#bfbfbf" points="1751.5,-168.5 1751.5,-187.5 1858.5,-187.5 1858.5,-168.5 1751.5,-168.5"/>
<text text-anchor="middle" x="1805" y="-175.5" font-family="Helvetica,sans-Serif" font-size="10.00">boost/filesystem.hpp</text>
</g>
<!-- Node103&#45;&gt;Node109 -->
<g id="edge52" class="edge"><title>Node103&#45;&gt;Node109</title>
<path fill="none" stroke="midnightblue" d="M1624.26,-226.379C1658.7,-217.35 1720.87,-201.054 1762.54,-190.131"/>
<polygon fill="midnightblue" stroke="midnightblue" points="1763.62,-193.467 1772.4,-187.545 1761.84,-186.695 1763.62,-193.467"/>
</g>
<!-- Node110&#45;&gt;Node19 -->
<g id="edge54" class="edge"><title>Node110&#45;&gt;Node19</title>
<path fill="none" stroke="midnightblue" d="M949.451,-56.4435C974.859,-47.1732 1015.49,-32.3464 1043.4,-22.1652"/>
<polygon fill="midnightblue" stroke="midnightblue" points="1044.86,-25.359 1053.05,-18.6433 1042.46,-18.783 1044.86,-25.359"/>
</g>
<!-- Node110&#45;&gt;Node22 -->
<g id="edge55" class="edge"><title>Node110&#45;&gt;Node22</title>
<path fill="none" stroke="midnightblue" d="M915.075,-56.324C904.825,-48.1849 889.279,-35.8395 876.999,-26.0874"/>
<polygon fill="midnightblue" stroke="midnightblue" points="879.132,-23.3119 869.124,-19.8339 874.779,-28.7937 879.132,-23.3119"/>
</g>
<!-- Node111&#45;&gt;Node19 -->
<g id="edge57" class="edge"><title>Node111&#45;&gt;Node19</title>
<path fill="none" stroke="midnightblue" d="M1627.78,-112.459C1623.53,-98.0362 1612.77,-69.1413 1592,-56 1550.79,-29.9211 1210.03,-15.8047 1104.82,-12.038"/>
<polygon fill="midnightblue" stroke="midnightblue" points="1104.68,-8.53089 1094.56,-11.677 1104.43,-15.5266 1104.68,-8.53089"/>
</g>
</g>
</svg>
