<?xml version="1.0" encoding="UTF-8" standalone="no"?>
<!DOCTYPE svg PUBLIC "-//W3C//DTD SVG 1.1//EN"
 "http://www.w3.org/Graphics/SVG/1.1/DTD/svg11.dtd">
<!-- Generated by graphviz version 2.36.0 (20140111.2315)
 -->
<!-- Title: src/immer/detail/util.hpp Pages: 1 -->
<svg width="371pt" height="84pt"
 viewBox="0.00 0.00 371.00 84.00" xmlns="http://www.w3.org/2000/svg" xmlns:xlink="http://www.w3.org/1999/xlink">
<g id="graph0" class="graph" transform="scale(1 1) rotate(0) translate(4 80)">
<title>src/immer/detail/util.hpp</title>
<polygon fill="white" stroke="none" points="-4,4 -4,-80 367,-80 367,4 -4,4"/>
<!-- Node0 -->
<g id="node1" class="node"><title>Node0</title>
<polygon fill="#bfbfbf" stroke="black" points="134.5,-56.5 134.5,-75.5 255.5,-75.5 255.5,-56.5 134.5,-56.5"/>
<text text-anchor="middle" x="195" y="-63.5" font-family="Helvetica,sans-Serif" font-size="10.00">src/immer/detail/util.hpp</text>
</g>
<!-- Node1 -->
<g id="node2" class="node"><title>Node1</title>
<g id="a_node2"><a xlink:href="config_8hpp.html" target="_top" xlink:title="immer/config.hpp">
<polygon fill="white" stroke="black" points="0,-0.5 0,-19.5 92,-19.5 92,-0.5 0,-0.5"/>
<text text-anchor="middle" x="46" y="-7.5" font-family="Helvetica,sans-Serif" font-size="10.00">immer/config.hpp</text>
</a>
</g>
</g>
<!-- Node0&#45;&gt;Node1 -->
<g id="edge1" class="edge"><title>Node0&#45;&gt;Node1</title>
<path fill="none" stroke="midnightblue" d="M171.391,-56.4435C146.542,-47.4381 107.226,-33.1891 79.2464,-23.049"/>
<polygon fill="midnightblue" stroke="midnightblue" points="80.0932,-19.6332 69.499,-19.5164 77.7081,-26.2144 80.0932,-19.6332"/>
</g>
<!-- Node2 -->
<g id="node3" class="node"><title>Node2</title>
<polygon fill="white" stroke="#bfbfbf" points="110.5,-0.5 110.5,-19.5 159.5,-19.5 159.5,-0.5 110.5,-0.5"/>
<text text-anchor="middle" x="135" y="-7.5" font-family="Helvetica,sans-Serif" font-size="10.00">cstddef</text>
</g>
<!-- Node0&#45;&gt;Node2 -->
<g id="edge2" class="edge"><title>Node0&#45;&gt;Node2</title>
<path fill="none" stroke="midnightblue" d="M185.36,-56.324C176.49,-48.3414 163.125,-36.3128 152.392,-26.6529"/>
<polygon fill="midnightblue" stroke="midnightblue" points="154.59,-23.922 144.815,-19.8339 149.907,-29.1251 154.59,-23.922"/>
</g>
<!-- Node3 -->
<g id="node4" class="node"><title>Node3</title>
<polygon fill="white" stroke="#bfbfbf" points="177.5,-0.5 177.5,-19.5 212.5,-19.5 212.5,-0.5 177.5,-0.5"/>
<text text-anchor="middle" x="195" y="-7.5" font-family="Helvetica,sans-Serif" font-size="10.00">new</text>
</g>
<!-- Node0&#45;&gt;Node3 -->
<g id="edge3" class="edge"><title>Node0&#45;&gt;Node3</title>
<path fill="none" stroke="midnightblue" d="M195,-56.083C195,-49.0059 195,-38.8611 195,-29.9865"/>
<polygon fill="midnightblue" stroke="midnightblue" points="198.5,-29.751 195,-19.7511 191.5,-29.7511 198.5,-29.751"/>
</g>
<!-- Node4 -->
<g id="node5" class="node"><title>Node4</title>
<polygon fill="white" stroke="#bfbfbf" points="231,-0.5 231,-19.5 293,-19.5 293,-0.5 231,-0.5"/>
<text text-anchor="middle" x="262" y="-7.5" font-family="Helvetica,sans-Serif" font-size="10.00">type_traits</text>
</g>
<!-- Node0&#45;&gt;Node4 -->
<g id="edge4" class="edge"><title>Node0&#45;&gt;Node4</title>
<path fill="none" stroke="midnightblue" d="M205.765,-56.324C215.766,-48.2631 230.887,-36.0765 242.93,-26.3695"/>
<polygon fill="midnightblue" stroke="midnightblue" points="245.45,-28.8343 251.039,-19.8339 241.057,-23.3841 245.45,-28.8343"/>
</g>
<!-- Node5 -->
<g id="node6" class="node"><title>Node5</title>
<polygon fill="white" stroke="#bfbfbf" points="311,-0.5 311,-19.5 363,-19.5 363,-0.5 311,-0.5"/>
<text text-anchor="middle" x="337" y="-7.5" font-family="Helvetica,sans-Serif" font-size="10.00">memory</text>
</g>
<!-- Node0&#45;&gt;Node5 -->
<g id="edge5" class="edge"><title>Node0&#45;&gt;Node5</title>
<path fill="none" stroke="midnightblue" d="M217.5,-56.4435C241.077,-47.4776 278.322,-33.314 304.964,-23.1827"/>
<polygon fill="midnightblue" stroke="midnightblue" points="306.502,-26.3424 314.605,-19.5164 304.014,-19.7995 306.502,-26.3424"/>
</g>
</g>
</svg>
