<?xml version="1.0" encoding="UTF-8" standalone="no"?>
<!DOCTYPE svg PUBLIC "-//W3C//DTD SVG 1.1//EN"
 "http://www.w3.org/Graphics/SVG/1.1/DTD/svg11.dtd">
<!-- Generated by graphviz version 2.36.0 (20140111.2315)
 -->
<!-- Title: src/utilmoneystr.h Pages: 1 -->
<svg width="1941pt" height="84pt"
 viewBox="0.00 0.00 1941.00 84.00" xmlns="http://www.w3.org/2000/svg" xmlns:xlink="http://www.w3.org/1999/xlink">
<g id="graph0" class="graph" transform="scale(1 1) rotate(0) translate(4 80)">
<title>src/utilmoneystr.h</title>
<polygon fill="white" stroke="none" points="-4,4 -4,-80 1937,-80 1937,4 -4,4"/>
<!-- Node21 -->
<g id="node1" class="node"><title>Node21</title>
<polygon fill="#bfbfbf" stroke="black" points="893.5,-56.5 893.5,-75.5 988.5,-75.5 988.5,-56.5 893.5,-56.5"/>
<text text-anchor="middle" x="941" y="-63.5" font-family="Helvetica,sans-Serif" font-size="10.00">src/utilmoneystr.h</text>
</g>
<!-- Node22 -->
<g id="node2" class="node"><title>Node22</title>
<g id="a_node2"><a xlink:href="core__write_8cpp.html" target="_top" xlink:title="src/core_write.cpp">
<polygon fill="white" stroke="black" points="-0.5,-0.5 -0.5,-19.5 96.5,-19.5 96.5,-0.5 -0.5,-0.5"/>
<text text-anchor="middle" x="48" y="-7.5" font-family="Helvetica,sans-Serif" font-size="10.00">src/core_write.cpp</text>
</a>
</g>
</g>
<!-- Node21&#45;&gt;Node22 -->
<g id="edge1" class="edge"><title>Node21&#45;&gt;Node22</title>
<path fill="none" stroke="midnightblue" d="M883.067,-63.931C746.951,-60.9725 396.26,-50.7508 105,-20 102.31,-19.716 99.5533,-19.3918 96.774,-19.039"/>
<polygon fill="midnightblue" stroke="midnightblue" points="883.191,-67.4343 893.263,-64.1476 883.34,-60.4359 883.191,-67.4343"/>
</g>
<!-- Node23 -->
<g id="node3" class="node"><title>Node23</title>
<g id="a_node3"><a xlink:href="dash-tx_8cpp.html" target="_top" xlink:title="src/dash&#45;tx.cpp">
<polygon fill="white" stroke="black" points="114,-0.5 114,-19.5 198,-19.5 198,-0.5 114,-0.5"/>
<text text-anchor="middle" x="156" y="-7.5" font-family="Helvetica,sans-Serif" font-size="10.00">src/dash&#45;tx.cpp</text>
</a>
</g>
</g>
<!-- Node21&#45;&gt;Node23 -->
<g id="edge2" class="edge"><title>Node21&#45;&gt;Node23</title>
<path fill="none" stroke="midnightblue" d="M883.12,-63.6825C758.893,-60.3654 457.64,-49.7013 207,-20 204.143,-19.6614 201.203,-19.2669 198.246,-18.8356"/>
<polygon fill="midnightblue" stroke="midnightblue" points="883.084,-67.1826 893.172,-63.9451 883.267,-60.185 883.084,-67.1826"/>
</g>
<!-- Node24 -->
<g id="node4" class="node"><title>Node24</title>
<g id="a_node4"><a xlink:href="init_8cpp.html" target="_top" xlink:title="src/init.cpp">
<polygon fill="white" stroke="black" points="216.5,-0.5 216.5,-19.5 281.5,-19.5 281.5,-0.5 216.5,-0.5"/>
<text text-anchor="middle" x="249" y="-7.5" font-family="Helvetica,sans-Serif" font-size="10.00">src/init.cpp</text>
</a>
</g>
</g>
<!-- Node21&#45;&gt;Node24 -->
<g id="edge3" class="edge"><title>Node21&#45;&gt;Node24</title>
<path fill="none" stroke="midnightblue" d="M883.231,-63.75C769.388,-60.6809 508.236,-50.637 291,-20 288.046,-19.5834 284.99,-19.0773 281.936,-18.5198"/>
<polygon fill="midnightblue" stroke="midnightblue" points="883.368,-67.2547 893.456,-64.0175 883.551,-60.2571 883.368,-67.2547"/>
</g>
<!-- Node25 -->
<g id="node5" class="node"><title>Node25</title>
<g id="a_node5"><a xlink:href="miner_8cpp.html" target="_top" xlink:title="src/miner.cpp">
<polygon fill="white" stroke="black" points="300,-0.5 300,-19.5 376,-19.5 376,-0.5 300,-0.5"/>
<text text-anchor="middle" x="338" y="-7.5" font-family="Helvetica,sans-Serif" font-size="10.00">src/miner.cpp</text>
</a>
</g>
</g>
<!-- Node21&#45;&gt;Node25 -->
<g id="edge4" class="edge"><title>Node21&#45;&gt;Node25</title>
<path fill="none" stroke="midnightblue" d="M883.189,-62.3899C781.901,-57.3561 565.914,-44.569 385,-20 382.119,-19.6087 379.147,-19.1562 376.163,-18.6665"/>
<polygon fill="midnightblue" stroke="midnightblue" points="883.053,-65.8873 893.213,-62.8812 883.396,-58.8957 883.053,-65.8873"/>
</g>
<!-- Node26 -->
<g id="node6" class="node"><title>Node26</title>
<g id="a_node6"><a xlink:href="net__processing_8cpp.html" target="_top" xlink:title="src/net_processing.cpp">
<polygon fill="white" stroke="black" points="394,-0.5 394,-19.5 512,-19.5 512,-0.5 394,-0.5"/>
<text text-anchor="middle" x="453" y="-7.5" font-family="Helvetica,sans-Serif" font-size="10.00">src/net_processing.cpp</text>
</a>
</g>
</g>
<!-- Node21&#45;&gt;Node26 -->
<g id="edge5" class="edge"><title>Node21&#45;&gt;Node26</title>
<path fill="none" stroke="midnightblue" d="M883.41,-59.2871C802.437,-51.1505 650.355,-35.4876 521,-20 518.162,-19.6602 515.259,-19.3051 512.327,-18.9404"/>
<polygon fill="midnightblue" stroke="midnightblue" points="883.102,-62.7737 893.402,-60.2892 883.801,-55.8087 883.102,-62.7737"/>
</g>
<!-- Node27 -->
<g id="node7" class="node"><title>Node27</title>
<g id="a_node7"><a xlink:href="privatesend-client_8cpp.html" target="_top" xlink:title="src/privatesend&#45;client.cpp">
<polygon fill="white" stroke="black" points="530,-0.5 530,-19.5 658,-19.5 658,-0.5 530,-0.5"/>
<text text-anchor="middle" x="594" y="-7.5" font-family="Helvetica,sans-Serif" font-size="10.00">src/privatesend&#45;client.cpp</text>
</a>
</g>
</g>
<!-- Node21&#45;&gt;Node27 -->
<g id="edge6" class="edge"><title>Node21&#45;&gt;Node27</title>
<path fill="none" stroke="midnightblue" d="M883.367,-56.0311C818.128,-45.8788 712.635,-29.4619 648.653,-19.5052"/>
<polygon fill="midnightblue" stroke="midnightblue" points="883.059,-59.5254 893.479,-57.6048 884.136,-52.6086 883.059,-59.5254"/>
</g>
<!-- Node28 -->
<g id="node8" class="node"><title>Node28</title>
<g id="a_node8"><a xlink:href="privatesend-server_8cpp.html" target="_top" xlink:title="src/privatesend&#45;server.cpp">
<polygon fill="white" stroke="black" points="676,-0.5 676,-19.5 808,-19.5 808,-0.5 676,-0.5"/>
<text text-anchor="middle" x="742" y="-7.5" font-family="Helvetica,sans-Serif" font-size="10.00">src/privatesend&#45;server.cpp</text>
</a>
</g>
</g>
<!-- Node21&#45;&gt;Node28 -->
<g id="edge7" class="edge"><title>Node21&#45;&gt;Node28</title>
<path fill="none" stroke="midnightblue" d="M899.352,-53.6986C861.794,-43.507 807.386,-28.7429 773.385,-19.5164"/>
<polygon fill="midnightblue" stroke="midnightblue" points="898.9,-57.2025 909.468,-56.4435 900.733,-50.4468 898.9,-57.2025"/>
</g>
<!-- Node29 -->
<g id="node9" class="node"><title>Node29</title>
<g id="a_node9"><a xlink:href="privatesend_8cpp.html" target="_top" xlink:title="src/privatesend.cpp">
<polygon fill="white" stroke="black" points="826,-0.5 826,-19.5 928,-19.5 928,-0.5 826,-0.5"/>
<text text-anchor="middle" x="877" y="-7.5" font-family="Helvetica,sans-Serif" font-size="10.00">src/privatesend.cpp</text>
</a>
</g>
</g>
<!-- Node21&#45;&gt;Node29 -->
<g id="edge8" class="edge"><title>Node21&#45;&gt;Node29</title>
<path fill="none" stroke="midnightblue" d="M923.009,-49.8197C911.542,-40.1452 897.087,-27.9481 887.47,-19.8339"/>
<polygon fill="midnightblue" stroke="midnightblue" points="920.817,-52.5502 930.717,-56.324 925.331,-47.2002 920.817,-52.5502"/>
</g>
<!-- Node30 -->
<g id="node10" class="node"><title>Node30</title>
<g id="a_node10"><a xlink:href="rpc_2governance_8cpp.html" target="_top" xlink:title="src/rpc/governance.cpp">
<polygon fill="white" stroke="black" points="946.5,-0.5 946.5,-19.5 1065.5,-19.5 1065.5,-0.5 946.5,-0.5"/>
<text text-anchor="middle" x="1006" y="-7.5" font-family="Helvetica,sans-Serif" font-size="10.00">src/rpc/governance.cpp</text>
</a>
</g>
</g>
<!-- Node21&#45;&gt;Node30 -->
<g id="edge9" class="edge"><title>Node21&#45;&gt;Node30</title>
<path fill="none" stroke="midnightblue" d="M959.273,-49.8197C970.918,-40.1452 985.599,-27.9481 995.367,-19.8339"/>
<polygon fill="midnightblue" stroke="midnightblue" points="956.899,-47.2416 951.443,-56.324 961.372,-52.6259 956.899,-47.2416"/>
</g>
<!-- Node31 -->
<g id="node11" class="node"><title>Node31</title>
<g id="a_node11"><a xlink:href="rpc_2masternode_8cpp.html" target="_top" xlink:title="src/rpc/masternode.cpp">
<polygon fill="white" stroke="black" points="1083.5,-0.5 1083.5,-19.5 1202.5,-19.5 1202.5,-0.5 1083.5,-0.5"/>
<text text-anchor="middle" x="1143" y="-7.5" font-family="Helvetica,sans-Serif" font-size="10.00">src/rpc/masternode.cpp</text>
</a>
</g>
</g>
<!-- Node21&#45;&gt;Node31 -->
<g id="edge10" class="edge"><title>Node21&#45;&gt;Node31</title>
<path fill="none" stroke="midnightblue" d="M982.788,-53.8291C1020.93,-43.6333 1076.48,-28.7823 1111.14,-19.5164"/>
<polygon fill="midnightblue" stroke="midnightblue" points="981.764,-50.4796 973.008,-56.4435 983.572,-57.2422 981.764,-50.4796"/>
</g>
<!-- Node32 -->
<g id="node12" class="node"><title>Node32</title>
<g id="a_node12"><a xlink:href="rpcevo_8cpp.html" target="_top" xlink:title="src/rpc/rpcevo.cpp">
<polygon fill="white" stroke="black" points="1221,-0.5 1221,-19.5 1319,-19.5 1319,-0.5 1221,-0.5"/>
<text text-anchor="middle" x="1270" y="-7.5" font-family="Helvetica,sans-Serif" font-size="10.00">src/rpc/rpcevo.cpp</text>
</a>
</g>
</g>
<!-- Node21&#45;&gt;Node32 -->
<g id="edge11" class="edge"><title>Node21&#45;&gt;Node32</title>
<path fill="none" stroke="midnightblue" d="M999.003,-55.4798C1061.97,-45.1446 1161.45,-28.8163 1220.76,-19.0822"/>
<polygon fill="midnightblue" stroke="midnightblue" points="998.14,-52.0744 988.839,-57.1479 999.274,-58.982 998.14,-52.0744"/>
</g>
<!-- Node33 -->
<g id="node13" class="node"><title>Node33</title>
<g id="a_node13"><a xlink:href="txmempool_8cpp.html" target="_top" xlink:title="src/txmempool.cpp">
<polygon fill="white" stroke="black" points="1337,-0.5 1337,-19.5 1437,-19.5 1437,-0.5 1337,-0.5"/>
<text text-anchor="middle" x="1387" y="-7.5" font-family="Helvetica,sans-Serif" font-size="10.00">src/txmempool.cpp</text>
</a>
</g>
</g>
<!-- Node21&#45;&gt;Node33 -->
<g id="edge12" class="edge"><title>Node21&#45;&gt;Node33</title>
<path fill="none" stroke="midnightblue" d="M998.852,-58.8548C1074.41,-50.6917 1210.75,-35.4904 1327,-20 1330.24,-19.5687 1333.57,-19.1099 1336.93,-18.6365"/>
<polygon fill="midnightblue" stroke="midnightblue" points="998.17,-55.4079 988.602,-59.9592 998.92,-62.3676 998.17,-55.4079"/>
</g>
<!-- Node34 -->
<g id="node14" class="node"><title>Node34</title>
<g id="a_node14"><a xlink:href="utilmoneystr_8cpp.html" target="_top" xlink:title="src/utilmoneystr.cpp">
<polygon fill="white" stroke="black" points="1455.5,-0.5 1455.5,-19.5 1560.5,-19.5 1560.5,-0.5 1455.5,-0.5"/>
<text text-anchor="middle" x="1508" y="-7.5" font-family="Helvetica,sans-Serif" font-size="10.00">src/utilmoneystr.cpp</text>
</a>
</g>
</g>
<!-- Node21&#45;&gt;Node34 -->
<g id="edge13" class="edge"><title>Node21&#45;&gt;Node34</title>
<path fill="none" stroke="midnightblue" d="M998.937,-60.8841C1092.93,-53.9717 1284.42,-38.9119 1446,-20 1449.02,-19.646 1452.13,-19.2617 1455.26,-18.8581"/>
<polygon fill="midnightblue" stroke="midnightblue" points="998.502,-57.4065 988.784,-61.627 999.013,-64.3879 998.502,-57.4065"/>
</g>
<!-- Node35 -->
<g id="node15" class="node"><title>Node35</title>
<g id="a_node15"><a xlink:href="validation_8cpp.html" target="_top" xlink:title="src/validation.cpp">
<polygon fill="white" stroke="black" points="1578.5,-0.5 1578.5,-19.5 1671.5,-19.5 1671.5,-0.5 1578.5,-0.5"/>
<text text-anchor="middle" x="1625" y="-7.5" font-family="Helvetica,sans-Serif" font-size="10.00">src/validation.cpp</text>
</a>
</g>
</g>
<!-- Node21&#45;&gt;Node35 -->
<g id="edge14" class="edge"><title>Node21&#45;&gt;Node35</title>
<path fill="none" stroke="midnightblue" d="M999.101,-62.5442C1110.11,-57.4738 1359.94,-44.2421 1569,-20 1572.03,-19.6484 1575.15,-19.25 1578.29,-18.8212"/>
<polygon fill="midnightblue" stroke="midnightblue" points="998.629,-59.0618 988.797,-63.0095 998.944,-66.0547 998.629,-59.0618"/>
</g>
<!-- Node36 -->
<g id="node16" class="node"><title>Node36</title>
<g id="a_node16"><a xlink:href="rpcwallet_8cpp.html" target="_top" xlink:title="src/wallet/rpcwallet.cpp">
<polygon fill="white" stroke="black" points="1689.5,-0.5 1689.5,-19.5 1808.5,-19.5 1808.5,-0.5 1689.5,-0.5"/>
<text text-anchor="middle" x="1749" y="-7.5" font-family="Helvetica,sans-Serif" font-size="10.00">src/wallet/rpcwallet.cpp</text>
</a>
</g>
</g>
<!-- Node21&#45;&gt;Node36 -->
<g id="edge15" class="edge"><title>Node21&#45;&gt;Node36</title>
<path fill="none" stroke="midnightblue" d="M998.72,-62.8399C1123.33,-57.8793 1426.73,-44.1994 1680,-20 1683.01,-19.7127 1686.08,-19.3957 1689.19,-19.0576"/>
<polygon fill="midnightblue" stroke="midnightblue" points="998.494,-59.346 988.64,-63.2376 998.77,-66.3406 998.494,-59.346"/>
</g>
<!-- Node37 -->
<g id="node17" class="node"><title>Node37</title>
<g id="a_node17"><a xlink:href="wallet_8cpp.html" target="_top" xlink:title="src/wallet/wallet.cpp">
<polygon fill="white" stroke="black" points="1827,-0.5 1827,-19.5 1933,-19.5 1933,-0.5 1827,-0.5"/>
<text text-anchor="middle" x="1880" y="-7.5" font-family="Helvetica,sans-Serif" font-size="10.00">src/wallet/wallet.cpp</text>
</a>
</g>
</g>
<!-- Node21&#45;&gt;Node37 -->
<g id="edge16" class="edge"><title>Node21&#45;&gt;Node37</title>
<path fill="none" stroke="midnightblue" d="M998.691,-63.8429C1139.05,-60.6348 1509.42,-49.808 1817,-20 1820.19,-19.6909 1823.46,-19.3364 1826.76,-18.9507"/>
<polygon fill="midnightblue" stroke="midnightblue" points="998.509,-60.346 988.59,-64.0697 998.666,-67.3443 998.509,-60.346"/>
</g>
</g>
</svg>
