<?xml version="1.0" encoding="UTF-8" standalone="no"?>
<!DOCTYPE svg PUBLIC "-//W3C//DTD SVG 1.1//EN"
 "http://www.w3.org/Graphics/SVG/1.1/DTD/svg11.dtd">
<!-- Generated by graphviz version 2.36.0 (20140111.2315)
 -->
<!-- Title: src/versionbits.cpp Pages: 1 -->
<!--zoomable 588 -->
<svg id="main" version="1.1" xmlns="http://www.w3.org/2000/svg" xmlns:xlink="http://www.w3.org/1999/xlink" xml:space="preserve" onload="init(evt)">
<style type="text/css"><![CDATA[
.edge:hover path { stroke: red; }
.edge:hover polygon { stroke: red; fill: red; }
]]></style>
<script type="text/javascript"><![CDATA[
var edges = document.getElementsByTagName('g');
if (edges && edges.length) {
  for (var i=0;i<edges.length;i++) {
    if (edges[i].id.substr(0,4)=='edge') {
      edges[i].setAttribute('class','edge');
    }
  }
}
]]></script>
        <defs>
                <circle id="rim" cx="0" cy="0" r="7"/>
                <circle id="rim2" cx="0" cy="0" r="3.5"/>
                <g id="zoomPlus">
                        <use xlink:href="#rim" fill="#404040">
                                <set attributeName="fill" to="#808080" begin="zoomplus.mouseover" end="zoomplus.mouseout"/>
                        </use>
                        <path d="M-4,0h8M0,-4v8" fill="none" stroke="white" stroke-width="1.5" pointer-events="none"/>
                </g>
                <g id="zoomMin">
                        <use xlink:href="#rim" fill="#404040">
                                <set attributeName="fill" to="#808080" begin="zoomminus.mouseover" end="zoomminus.mouseout"/>
                        </use>
                        <path d="M-4,0h8" fill="none" stroke="white" stroke-width="1.5" pointer-events="none"/>
                </g>
                <g id="dirArrow">
                        <path fill="none" stroke="white" stroke-width="1.5" d="M0,-3.0v7 M-2.5,-0.5L0,-3.0L2.5,-0.5"/>
                </g>
               <g id="resetDef">
                       <use xlink:href="#rim2" fill="#404040">
                               <set attributeName="fill" to="#808080" begin="reset.mouseover" end="reset.mouseout"/>
                       </use>
               </g>
        </defs>

<script type="text/javascript">
var viewWidth = 1663;
var viewHeight = 588;
var sectionId = 'dynsection-0';
</script>
<script xlink:href="svgpan.js"/>
<svg id="graph" class="graph">
<g id="viewport">
<title>src/versionbits.cpp</title>
<polygon fill="white" stroke="none" points="-4,4 -4,-584 1659,-584 1659,4 -4,4"/>
<!-- Node0 -->
<g id="node1" class="node"><title>Node0</title>
<polygon fill="#bfbfbf" stroke="black" points="413.5,-560.5 413.5,-579.5 512.5,-579.5 512.5,-560.5 413.5,-560.5"/>
<text text-anchor="middle" x="463" y="-567.5" font-family="Helvetica,sans-Serif" font-size="10.00">src/versionbits.cpp</text>
</g>
<!-- Node1 -->
<g id="node2" class="node"><title>Node1</title>
<g id="a_node2"><a xlink:href="versionbits_8h.html" target="_top" xlink:title="versionbits.h">
<polygon fill="white" stroke="black" points="395,-504.5 395,-523.5 467,-523.5 467,-504.5 395,-504.5"/>
<text text-anchor="middle" x="431" y="-511.5" font-family="Helvetica,sans-Serif" font-size="10.00">versionbits.h</text>
</a>
</g>
</g>
<!-- Node0&#45;&gt;Node1 -->
<g id="edge1" class="edge"><title>Node0&#45;&gt;Node1</title>
<path fill="none" stroke="midnightblue" d="M457.716,-560.083C453.289,-552.613 446.837,-541.724 441.382,-532.52"/>
<polygon fill="midnightblue" stroke="midnightblue" points="444.295,-530.57 436.186,-523.751 438.273,-534.138 444.295,-530.57"/>
</g>
<!-- Node33 -->
<g id="node34" class="node"><title>Node33</title>
<g id="a_node34"><a xlink:href="params_8h.html" target="_top" xlink:title="consensus/params.h">
<polygon fill="white" stroke="black" points="475.5,-280.5 475.5,-299.5 582.5,-299.5 582.5,-280.5 475.5,-280.5"/>
<text text-anchor="middle" x="529" y="-287.5" font-family="Helvetica,sans-Serif" font-size="10.00">consensus/params.h</text>
</a>
</g>
</g>
<!-- Node0&#45;&gt;Node33 -->
<g id="edge79" class="edge"><title>Node0&#45;&gt;Node33</title>
<path fill="none" stroke="midnightblue" d="M467.316,-560.408C476.05,-542.2 495,-498.181 495,-459 495,-459 495,-459 495,-401 495,-367.16 509.87,-329.97 519.942,-308.661"/>
<polygon fill="midnightblue" stroke="midnightblue" points="523.145,-310.079 524.415,-299.56 516.863,-306.991 523.145,-310.079"/>
</g>
<!-- Node2 -->
<g id="node3" class="node"><title>Node2</title>
<g id="a_node3"><a xlink:href="chain_8h.html" target="_top" xlink:title="chain.h">
<polygon fill="white" stroke="black" points="970,-448.5 970,-467.5 1018,-467.5 1018,-448.5 970,-448.5"/>
<text text-anchor="middle" x="994" y="-455.5" font-family="Helvetica,sans-Serif" font-size="10.00">chain.h</text>
</a>
</g>
</g>
<!-- Node1&#45;&gt;Node2 -->
<g id="edge2" class="edge"><title>Node1&#45;&gt;Node2</title>
<path fill="none" stroke="midnightblue" d="M467.075,-509.54C569.287,-499.736 859.873,-471.865 959.774,-462.283"/>
<polygon fill="midnightblue" stroke="midnightblue" points="960.296,-465.749 969.916,-461.31 959.628,-458.781 960.296,-465.749"/>
</g>
<!-- Node20 -->
<g id="node21" class="node"><title>Node20</title>
<polygon fill="white" stroke="#bfbfbf" points="28.5,-168.5 28.5,-187.5 63.5,-187.5 63.5,-168.5 28.5,-168.5"/>
<text text-anchor="middle" x="46" y="-175.5" font-family="Helvetica,sans-Serif" font-size="10.00">map</text>
</g>
<!-- Node1&#45;&gt;Node20 -->
<g id="edge78" class="edge"><title>Node1&#45;&gt;Node20</title>
<path fill="none" stroke="midnightblue" d="M394.732,-510.62C297.441,-503.249 38,-476.685 38,-403 38,-403 38,-403 38,-289 38,-256.863 41.4386,-219.584 43.807,-197.719"/>
<polygon fill="midnightblue" stroke="midnightblue" points="47.3119,-197.872 44.9541,-187.542 40.3559,-197.087 47.3119,-197.872"/>
</g>
<!-- Node3 -->
<g id="node4" class="node"><title>Node3</title>
<g id="a_node4"><a xlink:href="arith__uint256_8h.html" target="_top" xlink:title="arith_uint256.h">
<polygon fill="white" stroke="black" points="1228,-224.5 1228,-243.5 1308,-243.5 1308,-224.5 1228,-224.5"/>
<text text-anchor="middle" x="1268" y="-231.5" font-family="Helvetica,sans-Serif" font-size="10.00">arith_uint256.h</text>
</a>
</g>
</g>
<!-- Node2&#45;&gt;Node3 -->
<g id="edge3" class="edge"><title>Node2&#45;&gt;Node3</title>
<path fill="none" stroke="midnightblue" d="M1018.13,-453.974C1048.12,-449.238 1099.76,-437.789 1136,-412 1196.83,-368.712 1241.51,-288.834 1259.4,-253.102"/>
<polygon fill="midnightblue" stroke="midnightblue" points="1262.66,-254.41 1263.9,-243.889 1256.37,-251.335 1262.66,-254.41"/>
</g>
<!-- Node9 -->
<g id="node10" class="node"><title>Node9</title>
<polygon fill="white" stroke="#bfbfbf" points="1109,-168.5 1109,-187.5 1153,-187.5 1153,-168.5 1109,-168.5"/>
<text text-anchor="middle" x="1131" y="-175.5" font-family="Helvetica,sans-Serif" font-size="10.00">vector</text>
</g>
<!-- Node2&#45;&gt;Node9 -->
<g id="edge77" class="edge"><title>Node2&#45;&gt;Node9</title>
<path fill="none" stroke="midnightblue" d="M1018.08,-448.818C1055.15,-434.513 1122,-401.206 1122,-347 1122,-347 1122,-347 1122,-289 1122,-256.841 1125.87,-219.569 1128.53,-197.711"/>
<polygon fill="midnightblue" stroke="midnightblue" points="1132.04,-197.899 1129.82,-187.538 1125.09,-197.018 1132.04,-197.899"/>
</g>
<!-- Node10 -->
<g id="node11" class="node"><title>Node10</title>
<g id="a_node11"><a xlink:href="block_8h.html" target="_top" xlink:title="primitives/block.h">
<polygon fill="white" stroke="black" points="834.5,-392.5 834.5,-411.5 927.5,-411.5 927.5,-392.5 834.5,-392.5"/>
<text text-anchor="middle" x="881" y="-399.5" font-family="Helvetica,sans-Serif" font-size="10.00">primitives/block.h</text>
</a>
</g>
</g>
<!-- Node2&#45;&gt;Node10 -->
<g id="edge10" class="edge"><title>Node2&#45;&gt;Node10</title>
<path fill="none" stroke="midnightblue" d="M976.095,-448.444C957.746,-439.675 928.995,-425.935 907.906,-415.858"/>
<polygon fill="midnightblue" stroke="midnightblue" points="909.353,-412.67 898.821,-411.516 906.335,-418.986 909.353,-412.67"/>
</g>
<!-- Node31 -->
<g id="node32" class="node"><title>Node31</title>
<g id="a_node32"><a xlink:href="uint256_8h.html" target="_top" xlink:title="uint256.h">
<polygon fill="white" stroke="black" points="966,-224.5 966,-243.5 1022,-243.5 1022,-224.5 966,-224.5"/>
<text text-anchor="middle" x="994" y="-231.5" font-family="Helvetica,sans-Serif" font-size="10.00">uint256.h</text>
</a>
</g>
</g>
<!-- Node2&#45;&gt;Node31 -->
<g id="edge76" class="edge"><title>Node2&#45;&gt;Node31</title>
<path fill="none" stroke="midnightblue" d="M994,-448.297C994,-415.633 994,-299.866 994,-253.957"/>
<polygon fill="midnightblue" stroke="midnightblue" points="997.5,-253.884 994,-243.884 990.5,-253.884 997.5,-253.884"/>
</g>
<!-- Node32 -->
<g id="node33" class="node"><title>Node32</title>
<g id="a_node33"><a xlink:href="pow_8h.html" target="_top" xlink:title="pow.h">
<polygon fill="white" stroke="black" points="523.5,-336.5 523.5,-355.5 566.5,-355.5 566.5,-336.5 523.5,-336.5"/>
<text text-anchor="middle" x="545" y="-343.5" font-family="Helvetica,sans-Serif" font-size="10.00">pow.h</text>
</a>
</g>
</g>
<!-- Node2&#45;&gt;Node32 -->
<g id="edge64" class="edge"><title>Node2&#45;&gt;Node32</title>
<path fill="none" stroke="midnightblue" d="M969.86,-451.086C894.146,-432.537 661.348,-375.504 576.423,-354.698"/>
<polygon fill="midnightblue" stroke="midnightblue" points="577.136,-351.269 566.59,-352.289 575.47,-358.068 577.136,-351.269"/>
</g>
<!-- Node34 -->
<g id="node35" class="node"><title>Node34</title>
<g id="a_node35"><a xlink:href="tinyformat_8h.html" target="_top" xlink:title="tinyformat.h">
<polygon fill="white" stroke="black" points="1390,-224.5 1390,-243.5 1458,-243.5 1458,-224.5 1390,-224.5"/>
<text text-anchor="middle" x="1424" y="-231.5" font-family="Helvetica,sans-Serif" font-size="10.00">tinyformat.h</text>
</a>
</g>
</g>
<!-- Node2&#45;&gt;Node34 -->
<g id="edge70" class="edge"><title>Node2&#45;&gt;Node34</title>
<path fill="none" stroke="midnightblue" d="M1018.08,-453.088C1051.32,-447.12 1112.64,-434.049 1161,-412 1261.05,-366.382 1365.12,-284.163 1406,-250.255"/>
<polygon fill="midnightblue" stroke="midnightblue" points="1408.31,-252.883 1413.74,-243.784 1403.82,-247.513 1408.31,-252.883"/>
</g>
<!-- Node4 -->
<g id="node5" class="node"><title>Node4</title>
<polygon fill="white" stroke="#bfbfbf" points="941,-112.5 941,-131.5 993,-131.5 993,-112.5 941,-112.5"/>
<text text-anchor="middle" x="967" y="-119.5" font-family="Helvetica,sans-Serif" font-size="10.00">assert.h</text>
</g>
<!-- Node3&#45;&gt;Node4 -->
<g id="edge4" class="edge"><title>Node3&#45;&gt;Node4</title>
<path fill="none" stroke="midnightblue" d="M1308.36,-224.554C1348.65,-214.365 1401.34,-195.154 1377,-168 1352.24,-140.373 1098.9,-127.986 1003.27,-124.269"/>
<polygon fill="midnightblue" stroke="midnightblue" points="1003.33,-120.769 993.204,-123.887 1003.06,-127.764 1003.33,-120.769"/>
</g>
<!-- Node5 -->
<g id="node6" class="node"><title>Node5</title>
<polygon fill="white" stroke="#bfbfbf" points="1245,-168.5 1245,-187.5 1291,-187.5 1291,-168.5 1245,-168.5"/>
<text text-anchor="middle" x="1268" y="-175.5" font-family="Helvetica,sans-Serif" font-size="10.00">cstring</text>
</g>
<!-- Node3&#45;&gt;Node5 -->
<g id="edge5" class="edge"><title>Node3&#45;&gt;Node5</title>
<path fill="none" stroke="midnightblue" d="M1268,-224.083C1268,-217.006 1268,-206.861 1268,-197.986"/>
<polygon fill="midnightblue" stroke="midnightblue" points="1271.5,-197.751 1268,-187.751 1264.5,-197.751 1271.5,-197.751"/>
</g>
<!-- Node6 -->
<g id="node7" class="node"><title>Node6</title>
<polygon fill="white" stroke="#bfbfbf" points="1309.5,-168.5 1309.5,-187.5 1368.5,-187.5 1368.5,-168.5 1309.5,-168.5"/>
<text text-anchor="middle" x="1339" y="-175.5" font-family="Helvetica,sans-Serif" font-size="10.00">stdexcept</text>
</g>
<!-- Node3&#45;&gt;Node6 -->
<g id="edge6" class="edge"><title>Node3&#45;&gt;Node6</title>
<path fill="none" stroke="midnightblue" d="M1279.41,-224.324C1290.11,-216.185 1306.34,-203.839 1319.16,-194.087"/>
<polygon fill="midnightblue" stroke="midnightblue" points="1321.54,-196.673 1327.39,-187.834 1317.31,-191.102 1321.54,-196.673"/>
</g>
<!-- Node7 -->
<g id="node8" class="node"><title>Node7</title>
<polygon fill="white" stroke="#bfbfbf" points="830.5,-0.5 830.5,-19.5 879.5,-19.5 879.5,-0.5 830.5,-0.5"/>
<text text-anchor="middle" x="855" y="-7.5" font-family="Helvetica,sans-Serif" font-size="10.00">stdint.h</text>
</g>
<!-- Node3&#45;&gt;Node7 -->
<g id="edge7" class="edge"><title>Node3&#45;&gt;Node7</title>
<path fill="none" stroke="midnightblue" d="M1308.39,-227.476C1354.15,-219.483 1419.29,-201.797 1394,-168 1331.69,-84.74 998.742,-31.1963 889.642,-15.68"/>
<polygon fill="midnightblue" stroke="midnightblue" points="889.895,-12.1814 879.506,-14.2568 888.922,-19.1134 889.895,-12.1814"/>
</g>
<!-- Node8 -->
<g id="node9" class="node"><title>Node8</title>
<polygon fill="white" stroke="#bfbfbf" points="685.5,-168.5 685.5,-187.5 726.5,-187.5 726.5,-168.5 685.5,-168.5"/>
<text text-anchor="middle" x="706" y="-175.5" font-family="Helvetica,sans-Serif" font-size="10.00">string</text>
</g>
<!-- Node3&#45;&gt;Node8 -->
<g id="edge8" class="edge"><title>Node3&#45;&gt;Node8</title>
<path fill="none" stroke="midnightblue" d="M1227.92,-229.906C1143.74,-223.285 942.392,-206.805 774,-188 761.767,-186.634 748.328,-184.904 736.65,-183.326"/>
<polygon fill="midnightblue" stroke="midnightblue" points="736.888,-179.826 726.506,-181.935 735.937,-186.762 736.888,-179.826"/>
</g>
<!-- Node3&#45;&gt;Node9 -->
<g id="edge9" class="edge"><title>Node3&#45;&gt;Node9</title>
<path fill="none" stroke="midnightblue" d="M1246.29,-224.444C1223.65,-215.517 1187.93,-201.439 1162.25,-191.317"/>
<polygon fill="midnightblue" stroke="midnightblue" points="1163.19,-187.927 1152.61,-187.516 1160.63,-194.44 1163.19,-187.927"/>
</g>
<!-- Node11 -->
<g id="node12" class="node"><title>Node11</title>
<g id="a_node12"><a xlink:href="transaction_8h.html" target="_top" xlink:title="primitives/transaction.h">
<polygon fill="white" stroke="black" points="783,-336.5 783,-355.5 901,-355.5 901,-336.5 783,-336.5"/>
<text text-anchor="middle" x="842" y="-343.5" font-family="Helvetica,sans-Serif" font-size="10.00">primitives/transaction.h</text>
</a>
</g>
</g>
<!-- Node10&#45;&gt;Node11 -->
<g id="edge11" class="edge"><title>Node10&#45;&gt;Node11</title>
<path fill="none" stroke="midnightblue" d="M874.56,-392.083C869.051,-384.455 860.969,-373.264 854.235,-363.941"/>
<polygon fill="midnightblue" stroke="midnightblue" points="857.013,-361.809 848.32,-355.751 851.338,-365.907 857.013,-361.809"/>
</g>
<!-- Node13 -->
<g id="node14" class="node"><title>Node13</title>
<g id="a_node14"><a xlink:href="serialize_8h.html" target="_top" xlink:title="serialize.h">
<polygon fill="white" stroke="black" points="511.5,-224.5 511.5,-243.5 572.5,-243.5 572.5,-224.5 511.5,-224.5"/>
<text text-anchor="middle" x="542" y="-231.5" font-family="Helvetica,sans-Serif" font-size="10.00">serialize.h</text>
</a>
</g>
</g>
<!-- Node10&#45;&gt;Node13 -->
<g id="edge62" class="edge"><title>Node10&#45;&gt;Node13</title>
<path fill="none" stroke="midnightblue" d="M851.343,-392.381C802.314,-377.469 702.118,-344.163 625,-300 600.114,-285.749 574.598,-264.592 558.546,-250.323"/>
<polygon fill="midnightblue" stroke="midnightblue" points="560.833,-247.672 551.068,-243.561 556.138,-252.864 560.833,-247.672"/>
</g>
<!-- Node10&#45;&gt;Node31 -->
<g id="edge63" class="edge"><title>Node10&#45;&gt;Node31</title>
<path fill="none" stroke="midnightblue" d="M887.075,-392.075C905.094,-365.606 958.46,-287.209 982.285,-252.21"/>
<polygon fill="midnightblue" stroke="midnightblue" points="985.434,-253.804 988.167,-243.568 979.647,-249.865 985.434,-253.804"/>
</g>
<!-- Node12 -->
<g id="node13" class="node"><title>Node12</title>
<g id="a_node13"><a xlink:href="amount_8h.html" target="_top" xlink:title="amount.h">
<polygon fill="white" stroke="black" points="677.5,-280.5 677.5,-299.5 734.5,-299.5 734.5,-280.5 677.5,-280.5"/>
<text text-anchor="middle" x="706" y="-287.5" font-family="Helvetica,sans-Serif" font-size="10.00">amount.h</text>
</a>
</g>
</g>
<!-- Node11&#45;&gt;Node12 -->
<g id="edge12" class="edge"><title>Node11&#45;&gt;Node12</title>
<path fill="none" stroke="midnightblue" d="M820.45,-336.444C797.969,-327.517 762.512,-313.439 737.02,-303.317"/>
<polygon fill="midnightblue" stroke="midnightblue" points="738.035,-299.954 727.449,-299.516 735.451,-306.46 738.035,-299.954"/>
</g>
<!-- Node11&#45;&gt;Node13 -->
<g id="edge53" class="edge"><title>Node11&#45;&gt;Node13</title>
<path fill="none" stroke="midnightblue" d="M797.898,-336.447C762.21,-328.852 710.997,-316.414 668,-300 647.994,-292.363 596.975,-265.079 566.343,-248.384"/>
<polygon fill="midnightblue" stroke="midnightblue" points="568.002,-245.302 557.548,-243.576 564.644,-251.444 568.002,-245.302"/>
</g>
<!-- Node28 -->
<g id="node29" class="node"><title>Node28</title>
<g id="a_node29"><a xlink:href="script_8h.html" target="_top" xlink:title="script/script.h">
<polygon fill="white" stroke="black" points="804,-224.5 804,-243.5 880,-243.5 880,-224.5 804,-224.5"/>
<text text-anchor="middle" x="842" y="-231.5" font-family="Helvetica,sans-Serif" font-size="10.00">script/script.h</text>
</a>
</g>
</g>
<!-- Node11&#45;&gt;Node28 -->
<g id="edge39" class="edge"><title>Node11&#45;&gt;Node28</title>
<path fill="none" stroke="midnightblue" d="M842,-336.368C842,-318.617 842,-277.666 842,-253.597"/>
<polygon fill="midnightblue" stroke="midnightblue" points="845.5,-253.591 842,-243.591 838.5,-253.591 845.5,-253.591"/>
</g>
<!-- Node11&#45;&gt;Node31 -->
<g id="edge54" class="edge"><title>Node11&#45;&gt;Node31</title>
<path fill="none" stroke="midnightblue" d="M852.104,-336.457C867.337,-323.7 897.254,-299.126 924,-280 939.277,-269.075 957.09,-257.641 970.923,-249.033"/>
<polygon fill="midnightblue" stroke="midnightblue" points="973.111,-251.795 979.784,-243.566 969.436,-245.838 973.111,-251.795"/>
</g>
<!-- Node12&#45;&gt;Node8 -->
<g id="edge38" class="edge"><title>Node12&#45;&gt;Node8</title>
<path fill="none" stroke="midnightblue" d="M706,-280.368C706,-262.617 706,-221.666 706,-197.597"/>
<polygon fill="midnightblue" stroke="midnightblue" points="709.5,-197.591 706,-187.591 702.5,-197.591 709.5,-197.591"/>
</g>
<!-- Node12&#45;&gt;Node13 -->
<g id="edge13" class="edge"><title>Node12&#45;&gt;Node13</title>
<path fill="none" stroke="midnightblue" d="M680.014,-280.444C652.304,-271.32 608.248,-256.813 577.384,-246.651"/>
<polygon fill="midnightblue" stroke="midnightblue" points="578.458,-243.32 567.865,-243.516 576.268,-249.968 578.458,-243.32"/>
</g>
<!-- Node26 -->
<g id="node27" class="node"><title>Node26</title>
<polygon fill="white" stroke="#bfbfbf" points="265,-112.5 265,-131.5 313,-131.5 313,-112.5 265,-112.5"/>
<text text-anchor="middle" x="289" y="-119.5" font-family="Helvetica,sans-Serif" font-size="10.00">stdlib.h</text>
</g>
<!-- Node12&#45;&gt;Node26 -->
<g id="edge37" class="edge"><title>Node12&#45;&gt;Node26</title>
<path fill="none" stroke="midnightblue" d="M677.368,-285.951C568.348,-274.057 183.565,-229.397 149,-188 117.345,-150.089 203.832,-133.075 254.758,-126.519"/>
<polygon fill="midnightblue" stroke="midnightblue" points="255.222,-129.988 264.727,-125.309 254.379,-123.039 255.222,-129.988"/>
</g>
<!-- Node13&#45;&gt;Node4 -->
<g id="edge19" class="edge"><title>Node13&#45;&gt;Node4</title>
<path fill="none" stroke="midnightblue" d="M548.924,-224.482C561.165,-210.092 588.168,-181.247 618,-168 646.211,-155.473 847.401,-134.678 930.86,-126.478"/>
<polygon fill="midnightblue" stroke="midnightblue" points="931.288,-129.953 940.9,-125.496 930.607,-122.986 931.288,-129.953"/>
</g>
<!-- Node13&#45;&gt;Node7 -->
<g id="edge26" class="edge"><title>Node13&#45;&gt;Node7</title>
<path fill="none" stroke="midnightblue" d="M511.337,-233.432C412.457,-234.206 110.592,-231.451 149,-168 220.307,-50.1987 687.673,-19.0079 820.089,-12.4898"/>
<polygon fill="midnightblue" stroke="midnightblue" points="820.623,-15.9684 830.446,-11.9972 820.291,-8.97629 820.623,-15.9684"/>
</g>
<!-- Node13&#45;&gt;Node8 -->
<g id="edge27" class="edge"><title>Node13&#45;&gt;Node8</title>
<path fill="none" stroke="midnightblue" d="M567.986,-224.444C597.199,-214.825 644.58,-199.224 675.517,-189.037"/>
<polygon fill="midnightblue" stroke="midnightblue" points="676.924,-192.259 685.328,-185.807 674.735,-185.61 676.924,-192.259"/>
</g>
<!-- Node13&#45;&gt;Node9 -->
<g id="edge30" class="edge"><title>Node13&#45;&gt;Node9</title>
<path fill="none" stroke="midnightblue" d="M572.838,-230.173C673.998,-220.898 995.179,-191.452 1098.59,-181.972"/>
<polygon fill="midnightblue" stroke="midnightblue" points="1099.09,-185.44 1108.73,-181.042 1098.45,-178.47 1099.09,-185.44"/>
</g>
<!-- Node14 -->
<g id="node15" class="node"><title>Node14</title>
<g id="a_node15"><a xlink:href="endian_8h.html" target="_top" xlink:title="compat/endian.h">
<polygon fill="white" stroke="black" points="753.5,-112.5 753.5,-131.5 842.5,-131.5 842.5,-112.5 753.5,-112.5"/>
<text text-anchor="middle" x="798" y="-119.5" font-family="Helvetica,sans-Serif" font-size="10.00">compat/endian.h</text>
</a>
</g>
</g>
<!-- Node13&#45;&gt;Node14 -->
<g id="edge14" class="edge"><title>Node13&#45;&gt;Node14</title>
<path fill="none" stroke="midnightblue" d="M545.219,-224.253C550.92,-210.053 564.19,-182.154 585,-168 610.323,-150.777 688.94,-137.326 743.231,-129.774"/>
<polygon fill="midnightblue" stroke="midnightblue" points="743.968,-133.206 753.404,-128.388 743.023,-126.27 743.968,-133.206"/>
</g>
<!-- Node16 -->
<g id="node17" class="node"><title>Node16</title>
<polygon fill="white" stroke="#bfbfbf" points="1171,-168.5 1171,-187.5 1227,-187.5 1227,-168.5 1171,-168.5"/>
<text text-anchor="middle" x="1199" y="-175.5" font-family="Helvetica,sans-Serif" font-size="10.00">algorithm</text>
</g>
<!-- Node13&#45;&gt;Node16 -->
<g id="edge18" class="edge"><title>Node13&#45;&gt;Node16</title>
<path fill="none" stroke="midnightblue" d="M572.789,-232.501C663.444,-230.659 937.089,-222.428 1161,-188 1161.1,-187.985 1161.2,-187.969 1161.3,-187.953"/>
<polygon fill="midnightblue" stroke="midnightblue" points="1161.68,-191.443 1170.88,-186.19 1160.41,-184.559 1161.68,-191.443"/>
</g>
<!-- Node17 -->
<g id="node18" class="node"><title>Node17</title>
<polygon fill="white" stroke="#bfbfbf" points="216.5,-168.5 216.5,-187.5 245.5,-187.5 245.5,-168.5 216.5,-168.5"/>
<text text-anchor="middle" x="231" y="-175.5" font-family="Helvetica,sans-Serif" font-size="10.00">ios</text>
</g>
<!-- Node13&#45;&gt;Node17 -->
<g id="edge20" class="edge"><title>Node13&#45;&gt;Node17</title>
<path fill="none" stroke="midnightblue" d="M511.275,-230.416C459.826,-225.617 353.019,-213.632 255.631,-187.992"/>
<polygon fill="midnightblue" stroke="midnightblue" points="256.502,-184.602 245.936,-185.385 254.684,-191.362 256.502,-184.602"/>
</g>
<!-- Node18 -->
<g id="node19" class="node"><title>Node18</title>
<polygon fill="white" stroke="#bfbfbf" points="627,-168.5 627,-187.5 667,-187.5 667,-168.5 627,-168.5"/>
<text text-anchor="middle" x="647" y="-175.5" font-family="Helvetica,sans-Serif" font-size="10.00">limits</text>
</g>
<!-- Node13&#45;&gt;Node18 -->
<g id="edge21" class="edge"><title>Node13&#45;&gt;Node18</title>
<path fill="none" stroke="midnightblue" d="M558.87,-224.324C575.709,-215.664 601.807,-202.242 621.238,-192.249"/>
<polygon fill="midnightblue" stroke="midnightblue" points="622.88,-195.341 630.172,-187.655 619.678,-189.116 622.88,-195.341"/>
</g>
<!-- Node19 -->
<g id="node20" class="node"><title>Node19</title>
<polygon fill="white" stroke="#bfbfbf" points="263.5,-168.5 263.5,-187.5 292.5,-187.5 292.5,-168.5 263.5,-168.5"/>
<text text-anchor="middle" x="278" y="-175.5" font-family="Helvetica,sans-Serif" font-size="10.00">list</text>
</g>
<!-- Node13&#45;&gt;Node19 -->
<g id="edge22" class="edge"><title>Node13&#45;&gt;Node19</title>
<path fill="none" stroke="midnightblue" d="M511.303,-228.985C467.078,-222.827 382.825,-209.698 302.378,-187.662"/>
<polygon fill="midnightblue" stroke="midnightblue" points="303.162,-184.247 292.59,-184.93 301.281,-190.989 303.162,-184.247"/>
</g>
<!-- Node13&#45;&gt;Node20 -->
<g id="edge23" class="edge"><title>Node13&#45;&gt;Node20</title>
<path fill="none" stroke="midnightblue" d="M511.497,-230.017C441.527,-223.122 264.1,-205.341 116,-188 102.024,-186.364 86.4999,-184.384 73.6295,-182.699"/>
<polygon fill="midnightblue" stroke="midnightblue" points="73.9068,-179.205 63.5348,-181.366 72.9907,-186.145 73.9068,-179.205"/>
</g>
<!-- Node21 -->
<g id="node22" class="node"><title>Node21</title>
<polygon fill="white" stroke="#bfbfbf" points="311,-168.5 311,-187.5 363,-187.5 363,-168.5 311,-168.5"/>
<text text-anchor="middle" x="337" y="-175.5" font-family="Helvetica,sans-Serif" font-size="10.00">memory</text>
</g>
<!-- Node13&#45;&gt;Node21 -->
<g id="edge24" class="edge"><title>Node13&#45;&gt;Node21</title>
<path fill="none" stroke="midnightblue" d="M511.309,-224.916C474.216,-215.145 411.909,-198.732 372.701,-188.404"/>
<polygon fill="midnightblue" stroke="midnightblue" points="373.581,-185.017 363.019,-185.854 371.798,-191.786 373.581,-185.017"/>
</g>
<!-- Node22 -->
<g id="node23" class="node"><title>Node22</title>
<polygon fill="white" stroke="#bfbfbf" points="381,-168.5 381,-187.5 411,-187.5 411,-168.5 381,-168.5"/>
<text text-anchor="middle" x="396" y="-175.5" font-family="Helvetica,sans-Serif" font-size="10.00">set</text>
</g>
<!-- Node13&#45;&gt;Node22 -->
<g id="edge25" class="edge"><title>Node13&#45;&gt;Node22</title>
<path fill="none" stroke="midnightblue" d="M518.598,-224.411C495.852,-216.053 460.095,-202.89 420.756,-188.269"/>
<polygon fill="midnightblue" stroke="midnightblue" points="421.824,-184.931 411.231,-184.726 419.383,-191.492 421.824,-184.931"/>
</g>
<!-- Node23 -->
<g id="node24" class="node"><title>Node23</title>
<polygon fill="white" stroke="#bfbfbf" points="633.5,-112.5 633.5,-131.5 682.5,-131.5 682.5,-112.5 633.5,-112.5"/>
<text text-anchor="middle" x="658" y="-119.5" font-family="Helvetica,sans-Serif" font-size="10.00">string.h</text>
</g>
<!-- Node13&#45;&gt;Node23 -->
<g id="edge28" class="edge"><title>Node13&#45;&gt;Node23</title>
<path fill="none" stroke="midnightblue" d="M540.048,-224.457C537.504,-211.036 534.711,-184.813 547,-168 564.688,-143.802 597.647,-132.588 623.073,-127.407"/>
<polygon fill="midnightblue" stroke="midnightblue" points="623.878,-130.818 633.094,-125.591 622.63,-123.93 623.878,-130.818"/>
</g>
<!-- Node24 -->
<g id="node25" class="node"><title>Node24</title>
<polygon fill="white" stroke="#bfbfbf" points="158,-168.5 158,-187.5 198,-187.5 198,-168.5 158,-168.5"/>
<text text-anchor="middle" x="178" y="-175.5" font-family="Helvetica,sans-Serif" font-size="10.00">utility</text>
</g>
<!-- Node13&#45;&gt;Node24 -->
<g id="edge29" class="edge"><title>Node13&#45;&gt;Node24</title>
<path fill="none" stroke="midnightblue" d="M511.214,-230.6C453.462,-225.728 324.88,-213.124 207.994,-187.89"/>
<polygon fill="midnightblue" stroke="midnightblue" points="208.684,-184.458 198.166,-185.731 207.182,-191.295 208.684,-184.458"/>
</g>
<!-- Node25 -->
<g id="node26" class="node"><title>Node25</title>
<g id="a_node26"><a xlink:href="prevector_8h.html" target="_top" xlink:title="prevector.h">
<polygon fill="white" stroke="black" points="429.5,-168.5 429.5,-187.5 494.5,-187.5 494.5,-168.5 429.5,-168.5"/>
<text text-anchor="middle" x="462" y="-175.5" font-family="Helvetica,sans-Serif" font-size="10.00">prevector.h</text>
</a>
</g>
</g>
<!-- Node13&#45;&gt;Node25 -->
<g id="edge31" class="edge"><title>Node13&#45;&gt;Node25</title>
<path fill="none" stroke="midnightblue" d="M529.147,-224.324C516.784,-215.979 497.87,-203.212 483.263,-193.352"/>
<polygon fill="midnightblue" stroke="midnightblue" points="485.068,-190.348 474.821,-187.655 481.152,-196.15 485.068,-190.348"/>
</g>
<!-- Node14&#45;&gt;Node7 -->
<g id="edge15" class="edge"><title>Node14&#45;&gt;Node7</title>
<path fill="none" stroke="midnightblue" d="M806.788,-112.453C815.112,-103.918 827.432,-90.0751 835,-76 842.863,-61.3764 848.122,-43.2051 851.266,-29.7964"/>
<polygon fill="midnightblue" stroke="midnightblue" points="854.727,-30.3495 853.42,-19.8356 847.885,-28.87 854.727,-30.3495"/>
</g>
<!-- Node15 -->
<g id="node16" class="node"><title>Node15</title>
<g id="a_node16"><a xlink:href="byteswap_8h.html" target="_top" xlink:title="compat/byteswap.h">
<polygon fill="white" stroke="black" points="725,-56.5 725,-75.5 827,-75.5 827,-56.5 725,-56.5"/>
<text text-anchor="middle" x="776" y="-63.5" font-family="Helvetica,sans-Serif" font-size="10.00">compat/byteswap.h</text>
</a>
</g>
</g>
<!-- Node14&#45;&gt;Node15 -->
<g id="edge16" class="edge"><title>Node14&#45;&gt;Node15</title>
<path fill="none" stroke="midnightblue" d="M794.367,-112.083C791.388,-104.77 787.074,-94.1814 783.375,-85.1034"/>
<polygon fill="midnightblue" stroke="midnightblue" points="786.58,-83.6914 779.565,-75.7511 780.097,-86.3326 786.58,-83.6914"/>
</g>
<!-- Node15&#45;&gt;Node7 -->
<g id="edge17" class="edge"><title>Node15&#45;&gt;Node7</title>
<path fill="none" stroke="midnightblue" d="M788.693,-56.324C800.901,-47.979 819.578,-35.2122 834.003,-25.3524"/>
<polygon fill="midnightblue" stroke="midnightblue" points="836.058,-28.1871 842.339,-19.6545 832.108,-22.4082 836.058,-28.1871"/>
</g>
<!-- Node25&#45;&gt;Node4 -->
<g id="edge32" class="edge"><title>Node25&#45;&gt;Node4</title>
<path fill="none" stroke="midnightblue" d="M494.745,-173.499C584.925,-163.856 836.445,-136.96 930.708,-126.881"/>
<polygon fill="midnightblue" stroke="midnightblue" points="931.317,-130.336 940.888,-125.792 930.573,-123.375 931.317,-130.336"/>
</g>
<!-- Node25&#45;&gt;Node7 -->
<g id="edge34" class="edge"><title>Node25&#45;&gt;Node7</title>
<path fill="none" stroke="midnightblue" d="M478.014,-168.459C517.618,-147.538 623.648,-92.7617 716,-56 750.947,-42.0891 792.047,-29.195 820.446,-20.8074"/>
<polygon fill="midnightblue" stroke="midnightblue" points="821.682,-24.0924 830.299,-17.9275 819.718,-17.3735 821.682,-24.0924"/>
</g>
<!-- Node25&#45;&gt;Node23 -->
<g id="edge35" class="edge"><title>Node25&#45;&gt;Node23</title>
<path fill="none" stroke="midnightblue" d="M493.057,-168.444C528.577,-158.657 586.571,-142.679 623.48,-132.511"/>
<polygon fill="midnightblue" stroke="midnightblue" points="624.583,-135.837 633.294,-129.807 622.724,-129.089 624.583,-135.837"/>
</g>
<!-- Node25&#45;&gt;Node26 -->
<g id="edge33" class="edge"><title>Node25&#45;&gt;Node26</title>
<path fill="none" stroke="midnightblue" d="M434.588,-168.444C404.281,-158.984 355.437,-143.738 322.788,-133.546"/>
<polygon fill="midnightblue" stroke="midnightblue" points="323.802,-130.197 313.214,-130.558 321.716,-136.879 323.802,-130.197"/>
</g>
<!-- Node27 -->
<g id="node28" class="node"><title>Node27</title>
<polygon fill="white" stroke="#bfbfbf" points="438.5,-112.5 438.5,-131.5 485.5,-131.5 485.5,-112.5 438.5,-112.5"/>
<text text-anchor="middle" x="462" y="-119.5" font-family="Helvetica,sans-Serif" font-size="10.00">iterator</text>
</g>
<!-- Node25&#45;&gt;Node27 -->
<g id="edge36" class="edge"><title>Node25&#45;&gt;Node27</title>
<path fill="none" stroke="midnightblue" d="M462,-168.083C462,-161.006 462,-150.861 462,-141.986"/>
<polygon fill="midnightblue" stroke="midnightblue" points="465.5,-141.751 462,-131.751 458.5,-141.751 465.5,-141.751"/>
</g>
<!-- Node28&#45;&gt;Node4 -->
<g id="edge45" class="edge"><title>Node28&#45;&gt;Node4</title>
<path fill="none" stroke="midnightblue" d="M880.173,-225.435C902.829,-219.068 930.463,-207.72 948,-188 959.343,-175.244 963.931,-156.05 965.778,-141.823"/>
<polygon fill="midnightblue" stroke="midnightblue" points="969.278,-141.985 966.748,-131.697 962.31,-141.317 969.278,-141.985"/>
</g>
<!-- Node28&#45;&gt;Node6 -->
<g id="edge48" class="edge"><title>Node28&#45;&gt;Node6</title>
<path fill="none" stroke="midnightblue" d="M880.013,-229.901C971.375,-222.355 1202.27,-202.673 1299.22,-187.874"/>
<polygon fill="midnightblue" stroke="midnightblue" points="1299.94,-191.303 1309.27,-186.277 1298.84,-184.39 1299.94,-191.303"/>
</g>
<!-- Node28&#45;&gt;Node7 -->
<g id="edge49" class="edge"><title>Node28&#45;&gt;Node7</title>
<path fill="none" stroke="midnightblue" d="M880.069,-226.446C906.972,-220.247 942.617,-208.698 968,-188 990.566,-169.599 994.154,-160.04 1002,-132 1018.13,-74.3468 937.858,-37.7062 889.516,-21.2036"/>
<polygon fill="midnightblue" stroke="midnightblue" points="890.324,-17.785 879.731,-17.9875 888.138,-24.435 890.324,-17.785"/>
</g>
<!-- Node28&#45;&gt;Node8 -->
<g id="edge51" class="edge"><title>Node28&#45;&gt;Node8</title>
<path fill="none" stroke="midnightblue" d="M820.45,-224.444C797.704,-215.412 761.676,-201.107 736.125,-190.961"/>
<polygon fill="midnightblue" stroke="midnightblue" points="737.144,-187.6 726.559,-187.163 734.561,-194.106 737.144,-187.6"/>
</g>
<!-- Node28&#45;&gt;Node9 -->
<g id="edge52" class="edge"><title>Node28&#45;&gt;Node9</title>
<path fill="none" stroke="midnightblue" d="M880.079,-225.885C937.413,-215.172 1044.9,-195.087 1098.66,-185.043"/>
<polygon fill="midnightblue" stroke="midnightblue" points="1099.48,-188.451 1108.66,-183.173 1098.19,-181.57 1099.48,-188.451"/>
</g>
<!-- Node28&#45;&gt;Node18 -->
<g id="edge47" class="edge"><title>Node28&#45;&gt;Node18</title>
<path fill="none" stroke="midnightblue" d="M809.145,-224.469C777.552,-216.182 728.229,-203.03 676.864,-188.18"/>
<polygon fill="midnightblue" stroke="midnightblue" points="677.833,-184.817 667.253,-185.388 675.88,-191.539 677.833,-184.817"/>
</g>
<!-- Node28&#45;&gt;Node23 -->
<g id="edge50" class="edge"><title>Node28&#45;&gt;Node23</title>
<path fill="none" stroke="midnightblue" d="M827.854,-224.301C807.419,-211.76 768.422,-187.916 735,-168 717.156,-157.367 696.868,-145.52 681.598,-136.652"/>
<polygon fill="midnightblue" stroke="midnightblue" points="683.212,-133.542 672.805,-131.552 679.7,-139.597 683.212,-133.542"/>
</g>
<!-- Node28&#45;&gt;Node25 -->
<g id="edge44" class="edge"><title>Node28&#45;&gt;Node25</title>
<path fill="none" stroke="midnightblue" d="M803.824,-227.575C732.462,-217.434 579.33,-195.673 504.676,-185.064"/>
<polygon fill="midnightblue" stroke="midnightblue" points="505.072,-181.586 494.679,-183.644 504.087,-188.516 505.072,-181.586"/>
</g>
<!-- Node29 -->
<g id="node30" class="node"><title>Node29</title>
<g id="a_node30"><a xlink:href="common_8h.html" target="_top" xlink:title="crypto/common.h">
<polygon fill="white" stroke="black" points="847,-168.5 847,-187.5 939,-187.5 939,-168.5 847,-168.5"/>
<text text-anchor="middle" x="893" y="-175.5" font-family="Helvetica,sans-Serif" font-size="10.00">crypto/common.h</text>
</a>
</g>
</g>
<!-- Node28&#45;&gt;Node29 -->
<g id="edge40" class="edge"><title>Node28&#45;&gt;Node29</title>
<path fill="none" stroke="midnightblue" d="M850.422,-224.083C857.848,-216.22 868.852,-204.569 877.812,-195.081"/>
<polygon fill="midnightblue" stroke="midnightblue" points="880.413,-197.424 884.735,-187.751 875.324,-192.618 880.413,-197.424"/>
</g>
<!-- Node30 -->
<g id="node31" class="node"><title>Node30</title>
<polygon fill="white" stroke="#bfbfbf" points="783.5,-168.5 783.5,-187.5 828.5,-187.5 828.5,-168.5 783.5,-168.5"/>
<text text-anchor="middle" x="806" y="-175.5" font-family="Helvetica,sans-Serif" font-size="10.00">climits</text>
</g>
<!-- Node28&#45;&gt;Node30 -->
<g id="edge46" class="edge"><title>Node28&#45;&gt;Node30</title>
<path fill="none" stroke="midnightblue" d="M836.055,-224.083C831.023,-216.534 823.663,-205.495 817.487,-196.23"/>
<polygon fill="midnightblue" stroke="midnightblue" points="820.293,-194.13 811.834,-187.751 814.469,-198.013 820.293,-194.13"/>
</g>
<!-- Node29&#45;&gt;Node7 -->
<g id="edge41" class="edge"><title>Node29&#45;&gt;Node7</title>
<path fill="none" stroke="midnightblue" d="M890.957,-168.075C884.975,-141.945 867.41,-65.2106 859.253,-29.577"/>
<polygon fill="midnightblue" stroke="midnightblue" points="862.605,-28.5349 856.961,-19.5681 855.781,-30.097 862.605,-28.5349"/>
</g>
<!-- Node29&#45;&gt;Node14 -->
<g id="edge43" class="edge"><title>Node29&#45;&gt;Node14</title>
<path fill="none" stroke="midnightblue" d="M877.737,-168.324C862.779,-159.822 839.745,-146.729 822.273,-136.797"/>
<polygon fill="midnightblue" stroke="midnightblue" points="823.649,-133.553 813.226,-131.655 820.19,-139.639 823.649,-133.553"/>
</g>
<!-- Node29&#45;&gt;Node23 -->
<g id="edge42" class="edge"><title>Node29&#45;&gt;Node23</title>
<path fill="none" stroke="midnightblue" d="M855.764,-168.444C810.952,-158.147 736.308,-140.994 692.672,-130.967"/>
<polygon fill="midnightblue" stroke="midnightblue" points="693.337,-127.529 682.807,-128.7 691.769,-134.351 693.337,-127.529"/>
</g>
<!-- Node31&#45;&gt;Node4 -->
<g id="edge55" class="edge"><title>Node31&#45;&gt;Node4</title>
<path fill="none" stroke="midnightblue" d="M992.524,-224.103C990.367,-211.521 986.058,-187.85 981,-168 978.724,-159.069 975.741,-149.286 973.113,-141.128"/>
<polygon fill="midnightblue" stroke="midnightblue" points="976.41,-139.95 969.953,-131.551 969.762,-142.144 976.41,-139.95"/>
</g>
<!-- Node31&#45;&gt;Node5 -->
<g id="edge56" class="edge"><title>Node31&#45;&gt;Node5</title>
<path fill="none" stroke="midnightblue" d="M1022.35,-228.478C1067.56,-221.094 1158.66,-205.505 1235,-188 1235.1,-187.977 1235.2,-187.953 1235.3,-187.93"/>
<polygon fill="midnightblue" stroke="midnightblue" points="1236.12,-191.335 1244.98,-185.535 1234.43,-184.54 1236.12,-191.335"/>
</g>
<!-- Node31&#45;&gt;Node6 -->
<g id="edge57" class="edge"><title>Node31&#45;&gt;Node6</title>
<path fill="none" stroke="midnightblue" d="M1022.39,-229.603C1074.95,-223.149 1191.11,-208.104 1299.15,-188.023"/>
<polygon fill="midnightblue" stroke="midnightblue" points="1300.06,-191.414 1309.24,-186.128 1298.77,-184.534 1300.06,-191.414"/>
</g>
<!-- Node31&#45;&gt;Node7 -->
<g id="edge58" class="edge"><title>Node31&#45;&gt;Node7</title>
<path fill="none" stroke="midnightblue" d="M998.217,-224.446C1007.45,-204.595 1027.89,-153.895 1018,-112 1011.61,-84.9178 1011.02,-74.2321 990,-56 961.618,-31.3845 919.318,-20.1345 889.651,-15.057"/>
<polygon fill="midnightblue" stroke="midnightblue" points="890.148,-11.5923 879.728,-13.5067 889.068,-18.5084 890.148,-11.5923"/>
</g>
<!-- Node31&#45;&gt;Node8 -->
<g id="edge59" class="edge"><title>Node31&#45;&gt;Node8</title>
<path fill="none" stroke="midnightblue" d="M965.861,-227.724C911.609,-217.552 792.949,-195.303 736.721,-184.76"/>
<polygon fill="midnightblue" stroke="midnightblue" points="737.135,-181.277 726.662,-182.874 735.845,-188.157 737.135,-181.277"/>
</g>
<!-- Node31&#45;&gt;Node9 -->
<g id="edge60" class="edge"><title>Node31&#45;&gt;Node9</title>
<path fill="none" stroke="midnightblue" d="M1015.71,-224.444C1038.35,-215.517 1074.07,-201.439 1099.75,-191.317"/>
<polygon fill="midnightblue" stroke="midnightblue" points="1101.37,-194.44 1109.39,-187.516 1098.81,-187.927 1101.37,-194.44"/>
</g>
<!-- Node31&#45;&gt;Node29 -->
<g id="edge61" class="edge"><title>Node31&#45;&gt;Node29</title>
<path fill="none" stroke="midnightblue" d="M977.773,-224.324C961.649,-215.703 936.7,-202.364 918.036,-192.386"/>
<polygon fill="midnightblue" stroke="midnightblue" points="919.656,-189.283 909.187,-187.655 916.356,-195.456 919.656,-189.283"/>
</g>
<!-- Node32&#45;&gt;Node7 -->
<g id="edge69" class="edge"><title>Node32&#45;&gt;Node7</title>
<path fill="none" stroke="midnightblue" d="M523.299,-343.212C421.936,-334.278 0,-290.397 0,-179 0,-179 0,-179 0,-121 0,-36.8778 659.493,-15.6705 820.069,-11.7537"/>
<polygon fill="midnightblue" stroke="midnightblue" points="820.419,-15.2464 830.334,-11.5105 820.253,-8.24841 820.419,-15.2464"/>
</g>
<!-- Node32&#45;&gt;Node33 -->
<g id="edge65" class="edge"><title>Node32&#45;&gt;Node33</title>
<path fill="none" stroke="midnightblue" d="M542.358,-336.083C540.214,-328.849 537.121,-318.409 534.451,-309.397"/>
<polygon fill="midnightblue" stroke="midnightblue" points="537.79,-308.345 531.593,-299.751 531.078,-310.333 537.79,-308.345"/>
</g>
<!-- Node33&#45;&gt;Node8 -->
<g id="edge68" class="edge"><title>Node33&#45;&gt;Node8</title>
<path fill="none" stroke="midnightblue" d="M542.889,-280.368C573.391,-261.412 646.463,-216.001 683.565,-192.942"/>
<polygon fill="midnightblue" stroke="midnightblue" points="685.53,-195.843 692.176,-187.591 681.835,-189.897 685.53,-195.843"/>
</g>
<!-- Node33&#45;&gt;Node20 -->
<g id="edge67" class="edge"><title>Node33&#45;&gt;Node20</title>
<path fill="none" stroke="midnightblue" d="M475.423,-288.357C375.199,-286.349 163.728,-278.077 100,-244 80.0481,-233.331 64.538,-211.928 55.3587,-196.595"/>
<polygon fill="midnightblue" stroke="midnightblue" points="58.2251,-194.553 50.2578,-187.569 52.1311,-197.997 58.2251,-194.553"/>
</g>
<!-- Node33&#45;&gt;Node31 -->
<g id="edge66" class="edge"><title>Node33&#45;&gt;Node31</title>
<path fill="none" stroke="midnightblue" d="M582.796,-282.753C677.939,-271.704 873.621,-248.979 956.059,-239.406"/>
<polygon fill="midnightblue" stroke="midnightblue" points="956.468,-242.882 965.998,-238.252 955.661,-235.929 956.468,-242.882"/>
</g>
<!-- Node34&#45;&gt;Node6 -->
<g id="edge75" class="edge"><title>Node34&#45;&gt;Node6</title>
<path fill="none" stroke="midnightblue" d="M1410.34,-224.324C1397.08,-215.9 1376.73,-202.971 1361.15,-193.074"/>
<polygon fill="midnightblue" stroke="midnightblue" points="1362.94,-190.063 1352.62,-187.655 1359.19,-195.971 1362.94,-190.063"/>
</g>
<!-- Node34&#45;&gt;Node16 -->
<g id="edge71" class="edge"><title>Node34&#45;&gt;Node16</title>
<path fill="none" stroke="midnightblue" d="M1389.69,-224.826C1353.98,-216.312 1296.17,-202.504 1237.15,-188.27"/>
<polygon fill="midnightblue" stroke="midnightblue" points="1237.82,-184.833 1227.28,-185.89 1236.18,-191.638 1237.82,-184.833"/>
</g>
<!-- Node35 -->
<g id="node36" class="node"><title>Node35</title>
<polygon fill="white" stroke="#bfbfbf" points="1533.5,-168.5 1533.5,-187.5 1582.5,-187.5 1582.5,-168.5 1533.5,-168.5"/>
<text text-anchor="middle" x="1558" y="-175.5" font-family="Helvetica,sans-Serif" font-size="10.00">cassert</text>
</g>
<!-- Node34&#45;&gt;Node35 -->
<g id="edge72" class="edge"><title>Node34&#45;&gt;Node35</title>
<path fill="none" stroke="midnightblue" d="M1445.23,-224.444C1467.38,-215.517 1502.32,-201.439 1527.44,-191.317"/>
<polygon fill="midnightblue" stroke="midnightblue" points="1528.9,-194.501 1536.87,-187.516 1526.28,-188.008 1528.9,-194.501"/>
</g>
<!-- Node36 -->
<g id="node37" class="node"><title>Node36</title>
<polygon fill="white" stroke="#bfbfbf" points="1601,-168.5 1601,-187.5 1655,-187.5 1655,-168.5 1601,-168.5"/>
<text text-anchor="middle" x="1628" y="-175.5" font-family="Helvetica,sans-Serif" font-size="10.00">iostream</text>
</g>
<!-- Node34&#45;&gt;Node36 -->
<g id="edge73" class="edge"><title>Node34&#45;&gt;Node36</title>
<path fill="none" stroke="midnightblue" d="M1456.32,-224.444C1492.94,-214.752 1552.49,-198.988 1590.95,-188.807"/>
<polygon fill="midnightblue" stroke="midnightblue" points="1591.95,-192.163 1600.72,-186.22 1590.16,-185.396 1591.95,-192.163"/>
</g>
<!-- Node37 -->
<g id="node38" class="node"><title>Node37</title>
<polygon fill="white" stroke="#bfbfbf" points="1463,-168.5 1463,-187.5 1515,-187.5 1515,-168.5 1463,-168.5"/>
<text text-anchor="middle" x="1489" y="-175.5" font-family="Helvetica,sans-Serif" font-size="10.00">sstream</text>
</g>
<!-- Node34&#45;&gt;Node37 -->
<g id="edge74" class="edge"><title>Node34&#45;&gt;Node37</title>
<path fill="none" stroke="midnightblue" d="M1434.44,-224.324C1444.15,-216.263 1458.82,-204.077 1470.5,-194.369"/>
<polygon fill="midnightblue" stroke="midnightblue" points="1472.91,-196.916 1478.37,-187.834 1468.44,-191.532 1472.91,-196.916"/>
</g>
</g>
</svg>
        <g id="navigator" transform="translate(0 0)" fill="#404254">
                <rect fill="#f2f5e9" fill-opacity="0.5" stroke="#606060" stroke-width=".5" x="0" y="0" width="60" height="60"/>
                <use id="zoomplus" xlink:href="#zoomPlus" x="17" y="9" onmousedown="handleZoom(evt,'in')"/>
                <use id="zoomminus" xlink:href="#zoomMin" x="42" y="9" onmousedown="handleZoom(evt,'out')"/>
                <use id="reset" xlink:href="#resetDef" x="30" y="36" onmousedown="handleReset()"/>
                <g id="arrowUp" xlink:href="#dirArrow" transform="translate(30 24)" onmousedown="handlePan(0,-1)">
                  <use xlink:href="#rim" fill="#404040">
                        <set attributeName="fill" to="#808080" begin="arrowUp.mouseover" end="arrowUp.mouseout"/>
                  </use>
                  <path fill="none" stroke="white" stroke-width="1.5" d="M0,-3.0v7 M-2.5,-0.5L0,-3.0L2.5,-0.5"/>
                </g>
                <g id="arrowRight" xlink:href="#dirArrow" transform="rotate(90) translate(36 -43)" onmousedown="handlePan(1,0)">
                  <use xlink:href="#rim" fill="#404040">
                        <set attributeName="fill" to="#808080" begin="arrowRight.mouseover" end="arrowRight.mouseout"/>
                  </use>
                  <path fill="none" stroke="white" stroke-width="1.5" d="M0,-3.0v7 M-2.5,-0.5L0,-3.0L2.5,-0.5"/>
                </g>
                <g id="arrowDown" xlink:href="#dirArrow" transform="rotate(180) translate(-30 -48)" onmousedown="handlePan(0,1)">
                  <use xlink:href="#rim" fill="#404040">
                        <set attributeName="fill" to="#808080" begin="arrowDown.mouseover" end="arrowDown.mouseout"/>
                  </use>
                  <path fill="none" stroke="white" stroke-width="1.5" d="M0,-3.0v7 M-2.5,-0.5L0,-3.0L2.5,-0.5"/>
                </g>
                <g id="arrowLeft" xlink:href="#dirArrow" transform="rotate(270) translate(-36 17)" onmousedown="handlePan(-1,0)">
                  <use xlink:href="#rim" fill="#404040">
                        <set attributeName="fill" to="#808080" begin="arrowLeft.mouseover" end="arrowLeft.mouseout"/>
                  </use>
                  <path fill="none" stroke="white" stroke-width="1.5" d="M0,-3.0v7 M-2.5,-0.5L0,-3.0L2.5,-0.5"/>
                </g>
        </g>
        <svg viewBox="0 0 15 15" width="100%" height="30px" preserveAspectRatio="xMaxYMin meet">
         <g id="arrow_out" transform="scale(0.3 0.3)">
          <a xlink:href="versionbits_8cpp__incl_org.svg" target="_base">
           <rect id="button" ry="5" rx="5" y="6" x="6" height="38" width="38"
                fill="#f2f5e9" fill-opacity="0.5" stroke="#606060" stroke-width="1.0"/>
           <path id="arrow"
             d="M 11.500037,31.436501 C 11.940474,20.09759 22.043105,11.32322 32.158766,21.979434 L 37.068811,17.246167 C 37.068811,17.246167 37.088388,32 37.088388,32 L 22.160133,31.978069 C 22.160133,31.978069 26.997745,27.140456 26.997745,27.140456 C 18.528582,18.264221 13.291696,25.230495 11.500037,31.436501 z"
             style="fill:#404040;"/>
          </a>
         </g>
        </svg>
</svg>
