<?xml version="1.0" encoding="UTF-8" standalone="no"?>
<!DOCTYPE svg PUBLIC "-//W3C//DTD SVG 1.1//EN"
 "http://www.w3.org/Graphics/SVG/1.1/DTD/svg11.dtd">
<!-- Generated by graphviz version 2.36.0 (20140111.2315)
 -->
<!-- Title: src/versionbits.h Pages: 1 -->
<!--zoomable 532 -->
<svg id="main" version="1.1" xmlns="http://www.w3.org/2000/svg" xmlns:xlink="http://www.w3.org/1999/xlink" xml:space="preserve" onload="init(evt)">
<style type="text/css"><![CDATA[
.edge:hover path { stroke: red; }
.edge:hover polygon { stroke: red; fill: red; }
]]></style>
<script type="text/javascript"><![CDATA[
var edges = document.getElementsByTagName('g');
if (edges && edges.length) {
  for (var i=0;i<edges.length;i++) {
    if (edges[i].id.substr(0,4)=='edge') {
      edges[i].setAttribute('class','edge');
    }
  }
}
]]></script>
        <defs>
                <circle id="rim" cx="0" cy="0" r="7"/>
                <circle id="rim2" cx="0" cy="0" r="3.5"/>
                <g id="zoomPlus">
                        <use xlink:href="#rim" fill="#404040">
                                <set attributeName="fill" to="#808080" begin="zoomplus.mouseover" end="zoomplus.mouseout"/>
                        </use>
                        <path d="M-4,0h8M0,-4v8" fill="none" stroke="white" stroke-width="1.5" pointer-events="none"/>
                </g>
                <g id="zoomMin">
                        <use xlink:href="#rim" fill="#404040">
                                <set attributeName="fill" to="#808080" begin="zoomminus.mouseover" end="zoomminus.mouseout"/>
                        </use>
                        <path d="M-4,0h8" fill="none" stroke="white" stroke-width="1.5" pointer-events="none"/>
                </g>
                <g id="dirArrow">
                        <path fill="none" stroke="white" stroke-width="1.5" d="M0,-3.0v7 M-2.5,-0.5L0,-3.0L2.5,-0.5"/>
                </g>
               <g id="resetDef">
                       <use xlink:href="#rim2" fill="#404040">
                               <set attributeName="fill" to="#808080" begin="reset.mouseover" end="reset.mouseout"/>
                       </use>
               </g>
        </defs>

<script type="text/javascript">
var viewWidth = 1622;
var viewHeight = 532;
var sectionId = 'dynsection-0';
</script>
<script xlink:href="svgpan.js"/>
<svg id="graph" class="graph">
<g id="viewport">
<title>src/versionbits.h</title>
<polygon fill="white" stroke="none" points="-4,4 -4,-528 1618.05,-528 1618.05,4 -4,4"/>
<!-- Node0 -->
<g id="node1" class="node"><title>Node0</title>
<polygon fill="#bfbfbf" stroke="black" points="890.554,-504.5 890.554,-523.5 979.554,-523.5 979.554,-504.5 890.554,-504.5"/>
<text text-anchor="middle" x="935.054" y="-511.5" font-family="Helvetica,sans-Serif" font-size="10.00">src/versionbits.h</text>
</g>
<!-- Node1 -->
<g id="node2" class="node"><title>Node1</title>
<g id="a_node2"><a xlink:href="chain_8h.html" target="_top" xlink:title="chain.h">
<polygon fill="white" stroke="black" points="491.054,-448.5 491.054,-467.5 539.054,-467.5 539.054,-448.5 491.054,-448.5"/>
<text text-anchor="middle" x="515.054" y="-455.5" font-family="Helvetica,sans-Serif" font-size="10.00">chain.h</text>
</a>
</g>
</g>
<!-- Node0&#45;&gt;Node1 -->
<g id="edge1" class="edge"><title>Node0&#45;&gt;Node1</title>
<path fill="none" stroke="midnightblue" d="M890.505,-507.272C806.222,-496.436 625.108,-473.15 549.41,-463.417"/>
<polygon fill="midnightblue" stroke="midnightblue" points="549.814,-459.94 539.45,-462.137 548.922,-466.883 549.814,-459.94"/>
</g>
<!-- Node19 -->
<g id="node20" class="node"><title>Node19</title>
<polygon fill="white" stroke="#bfbfbf" points="1218.55,-168.5 1218.55,-187.5 1253.55,-187.5 1253.55,-168.5 1218.55,-168.5"/>
<text text-anchor="middle" x="1236.05" y="-175.5" font-family="Helvetica,sans-Serif" font-size="10.00">map</text>
</g>
<!-- Node0&#45;&gt;Node19 -->
<g id="edge77" class="edge"><title>Node0&#45;&gt;Node19</title>
<path fill="none" stroke="midnightblue" d="M979.71,-510.79C1088.06,-504.214 1356.05,-480.149 1356.05,-403 1356.05,-403 1356.05,-403 1356.05,-289 1356.05,-238.884 1298.48,-205.418 1263.09,-189.581"/>
<polygon fill="midnightblue" stroke="midnightblue" points="1264.33,-186.306 1253.76,-185.583 1261.57,-192.74 1264.33,-186.306"/>
</g>
<!-- Node2 -->
<g id="node3" class="node"><title>Node2</title>
<g id="a_node3"><a xlink:href="arith__uint256_8h.html" target="_top" xlink:title="arith_uint256.h">
<polygon fill="white" stroke="black" points="109.054,-224.5 109.054,-243.5 189.054,-243.5 189.054,-224.5 109.054,-224.5"/>
<text text-anchor="middle" x="149.054" y="-231.5" font-family="Helvetica,sans-Serif" font-size="10.00">arith_uint256.h</text>
</a>
</g>
</g>
<!-- Node1&#45;&gt;Node2 -->
<g id="edge2" class="edge"><title>Node1&#45;&gt;Node2</title>
<path fill="none" stroke="midnightblue" d="M491.029,-455.528C453.418,-452.333 379.331,-442.388 325.054,-412 250.427,-370.218 186.26,-287.657 160.78,-252.028"/>
<polygon fill="midnightblue" stroke="midnightblue" points="163.512,-249.829 154.896,-243.663 157.787,-253.856 163.512,-249.829"/>
</g>
<!-- Node8 -->
<g id="node9" class="node"><title>Node8</title>
<polygon fill="white" stroke="#bfbfbf" points="127.054,-168.5 127.054,-187.5 171.054,-187.5 171.054,-168.5 127.054,-168.5"/>
<text text-anchor="middle" x="149.054" y="-175.5" font-family="Helvetica,sans-Serif" font-size="10.00">vector</text>
</g>
<!-- Node1&#45;&gt;Node8 -->
<g id="edge76" class="edge"><title>Node1&#45;&gt;Node8</title>
<path fill="none" stroke="midnightblue" d="M491.003,-452.423C445.662,-442.251 352.054,-413.231 352.054,-347 352.054,-347 352.054,-347 352.054,-289 352.054,-250.524 237.898,-207.896 180.797,-188.98"/>
<polygon fill="midnightblue" stroke="midnightblue" points="181.758,-185.612 171.165,-185.835 179.585,-192.266 181.758,-185.612"/>
</g>
<!-- Node9 -->
<g id="node10" class="node"><title>Node9</title>
<g id="a_node10"><a xlink:href="block_8h.html" target="_top" xlink:title="primitives/block.h">
<polygon fill="white" stroke="black" points="468.554,-392.5 468.554,-411.5 561.554,-411.5 561.554,-392.5 468.554,-392.5"/>
<text text-anchor="middle" x="515.054" y="-399.5" font-family="Helvetica,sans-Serif" font-size="10.00">primitives/block.h</text>
</a>
</g>
</g>
<!-- Node1&#45;&gt;Node9 -->
<g id="edge9" class="edge"><title>Node1&#45;&gt;Node9</title>
<path fill="none" stroke="midnightblue" d="M515.054,-448.083C515.054,-441.006 515.054,-430.861 515.054,-421.986"/>
<polygon fill="midnightblue" stroke="midnightblue" points="518.554,-421.751 515.054,-411.751 511.554,-421.751 518.554,-421.751"/>
</g>
<!-- Node30 -->
<g id="node31" class="node"><title>Node30</title>
<g id="a_node31"><a xlink:href="uint256_8h.html" target="_top" xlink:title="uint256.h">
<polygon fill="white" stroke="black" points="380.054,-224.5 380.054,-243.5 436.054,-243.5 436.054,-224.5 380.054,-224.5"/>
<text text-anchor="middle" x="408.054" y="-231.5" font-family="Helvetica,sans-Serif" font-size="10.00">uint256.h</text>
</a>
</g>
</g>
<!-- Node1&#45;&gt;Node30 -->
<g id="edge75" class="edge"><title>Node1&#45;&gt;Node30</title>
<path fill="none" stroke="midnightblue" d="M490.901,-454.474C446.959,-449.327 356.739,-436.029 338.054,-412 298.224,-360.776 360.679,-283.998 391.941,-251.004"/>
<polygon fill="midnightblue" stroke="midnightblue" points="394.676,-253.211 399.136,-243.601 389.657,-248.333 394.676,-253.211"/>
</g>
<!-- Node31 -->
<g id="node32" class="node"><title>Node31</title>
<g id="a_node32"><a xlink:href="pow_8h.html" target="_top" xlink:title="pow.h">
<polygon fill="white" stroke="black" points="799.554,-336.5 799.554,-355.5 842.554,-355.5 842.554,-336.5 799.554,-336.5"/>
<text text-anchor="middle" x="821.054" y="-343.5" font-family="Helvetica,sans-Serif" font-size="10.00">pow.h</text>
</a>
</g>
</g>
<!-- Node1&#45;&gt;Node31 -->
<g id="edge63" class="edge"><title>Node1&#45;&gt;Node31</title>
<path fill="none" stroke="midnightblue" d="M538.811,-448.46C593.481,-428.807 728.205,-380.377 789.626,-358.298"/>
<polygon fill="midnightblue" stroke="midnightblue" points="790.949,-361.541 799.176,-354.865 788.581,-354.954 790.949,-361.541"/>
</g>
<!-- Node33 -->
<g id="node34" class="node"><title>Node33</title>
<g id="a_node34"><a xlink:href="tinyformat_8h.html" target="_top" xlink:title="tinyformat.h">
<polygon fill="white" stroke="black" points="1422.05,-224.5 1422.05,-243.5 1490.05,-243.5 1490.05,-224.5 1422.05,-224.5"/>
<text text-anchor="middle" x="1456.05" y="-231.5" font-family="Helvetica,sans-Serif" font-size="10.00">tinyformat.h</text>
</a>
</g>
</g>
<!-- Node1&#45;&gt;Node33 -->
<g id="edge69" class="edge"><title>Node1&#45;&gt;Node33</title>
<path fill="none" stroke="midnightblue" d="M539.353,-453.757C636.116,-440.498 1002.9,-386.955 1294.05,-300 1342.74,-285.461 1397.14,-262.086 1428.89,-247.685"/>
<polygon fill="midnightblue" stroke="midnightblue" points="1430.34,-250.868 1437.98,-243.524 1427.43,-244.502 1430.34,-250.868"/>
</g>
<!-- Node3 -->
<g id="node4" class="node"><title>Node3</title>
<polygon fill="white" stroke="#bfbfbf" points="391.054,-112.5 391.054,-131.5 443.054,-131.5 443.054,-112.5 391.054,-112.5"/>
<text text-anchor="middle" x="417.054" y="-119.5" font-family="Helvetica,sans-Serif" font-size="10.00">assert.h</text>
</g>
<!-- Node2&#45;&gt;Node3 -->
<g id="edge3" class="edge"><title>Node2&#45;&gt;Node3</title>
<path fill="none" stroke="midnightblue" d="M108.954,-227.735C59.6545,-219.695 -14.0081,-201.625 16.0544,-168 40.1641,-141.033 286.39,-128.288 380.633,-124.37"/>
<polygon fill="midnightblue" stroke="midnightblue" points="380.981,-127.859 390.831,-123.956 380.697,-120.865 380.981,-127.859"/>
</g>
<!-- Node4 -->
<g id="node5" class="node"><title>Node4</title>
<polygon fill="white" stroke="#bfbfbf" points="25.0544,-168.5 25.0544,-187.5 71.0544,-187.5 71.0544,-168.5 25.0544,-168.5"/>
<text text-anchor="middle" x="48.0544" y="-175.5" font-family="Helvetica,sans-Serif" font-size="10.00">cstring</text>
</g>
<!-- Node2&#45;&gt;Node4 -->
<g id="edge4" class="edge"><title>Node2&#45;&gt;Node4</title>
<path fill="none" stroke="midnightblue" d="M132.827,-224.324C116.703,-215.703 91.7542,-202.364 73.0903,-192.386"/>
<polygon fill="midnightblue" stroke="midnightblue" points="74.7105,-189.283 64.2415,-187.655 71.41,-195.456 74.7105,-189.283"/>
</g>
<!-- Node5 -->
<g id="node6" class="node"><title>Node5</title>
<polygon fill="white" stroke="#bfbfbf" points="227.554,-168.5 227.554,-187.5 286.554,-187.5 286.554,-168.5 227.554,-168.5"/>
<text text-anchor="middle" x="257.054" y="-175.5" font-family="Helvetica,sans-Serif" font-size="10.00">stdexcept</text>
</g>
<!-- Node2&#45;&gt;Node5 -->
<g id="edge5" class="edge"><title>Node2&#45;&gt;Node5</title>
<path fill="none" stroke="midnightblue" d="M166.406,-224.324C183.726,-215.664 210.57,-202.242 230.556,-192.249"/>
<polygon fill="midnightblue" stroke="midnightblue" points="232.366,-195.257 239.745,-187.655 229.236,-188.996 232.366,-195.257"/>
</g>
<!-- Node6 -->
<g id="node7" class="node"><title>Node6</title>
<polygon fill="white" stroke="#bfbfbf" points="760.554,-0.5 760.554,-19.5 809.554,-19.5 809.554,-0.5 760.554,-0.5"/>
<text text-anchor="middle" x="785.054" y="-7.5" font-family="Helvetica,sans-Serif" font-size="10.00">stdint.h</text>
</g>
<!-- Node2&#45;&gt;Node6 -->
<g id="edge6" class="edge"><title>Node2&#45;&gt;Node6</title>
<path fill="none" stroke="midnightblue" d="M108.682,-229.537C57.2981,-223.456 -21.6785,-207.507 6.05439,-168 93.6402,-43.2293 610.523,-16.8787 750.25,-12.0051"/>
<polygon fill="midnightblue" stroke="midnightblue" points="750.511,-15.4984 760.389,-11.6666 750.278,-8.50234 750.511,-15.4984"/>
</g>
<!-- Node7 -->
<g id="node8" class="node"><title>Node7</title>
<polygon fill="white" stroke="#bfbfbf" points="593.554,-168.5 593.554,-187.5 634.554,-187.5 634.554,-168.5 593.554,-168.5"/>
<text text-anchor="middle" x="614.054" y="-175.5" font-family="Helvetica,sans-Serif" font-size="10.00">string</text>
</g>
<!-- Node2&#45;&gt;Node7 -->
<g id="edge7" class="edge"><title>Node2&#45;&gt;Node7</title>
<path fill="none" stroke="midnightblue" d="M189.092,-228.712C260.738,-220.984 415.588,-204.027 546.054,-188 558.271,-186.499 571.708,-184.743 583.388,-183.183"/>
<polygon fill="midnightblue" stroke="midnightblue" points="584.091,-186.62 593.535,-181.818 583.158,-179.682 584.091,-186.62"/>
</g>
<!-- Node2&#45;&gt;Node8 -->
<g id="edge8" class="edge"><title>Node2&#45;&gt;Node8</title>
<path fill="none" stroke="midnightblue" d="M149.054,-224.083C149.054,-217.006 149.054,-206.861 149.054,-197.986"/>
<polygon fill="midnightblue" stroke="midnightblue" points="152.554,-197.751 149.054,-187.751 145.554,-197.751 152.554,-197.751"/>
</g>
<!-- Node10 -->
<g id="node11" class="node"><title>Node10</title>
<g id="a_node11"><a xlink:href="transaction_8h.html" target="_top" xlink:title="primitives/transaction.h">
<polygon fill="white" stroke="black" points="456.054,-336.5 456.054,-355.5 574.054,-355.5 574.054,-336.5 456.054,-336.5"/>
<text text-anchor="middle" x="515.054" y="-343.5" font-family="Helvetica,sans-Serif" font-size="10.00">primitives/transaction.h</text>
</a>
</g>
</g>
<!-- Node9&#45;&gt;Node10 -->
<g id="edge10" class="edge"><title>Node9&#45;&gt;Node10</title>
<path fill="none" stroke="midnightblue" d="M515.054,-392.083C515.054,-385.006 515.054,-374.861 515.054,-365.986"/>
<polygon fill="midnightblue" stroke="midnightblue" points="518.554,-365.751 515.054,-355.751 511.554,-365.751 518.554,-365.751"/>
</g>
<!-- Node12 -->
<g id="node13" class="node"><title>Node12</title>
<g id="a_node13"><a xlink:href="serialize_8h.html" target="_top" xlink:title="serialize.h">
<polygon fill="white" stroke="black" points="828.554,-224.5 828.554,-243.5 889.554,-243.5 889.554,-224.5 828.554,-224.5"/>
<text text-anchor="middle" x="859.054" y="-231.5" font-family="Helvetica,sans-Serif" font-size="10.00">serialize.h</text>
</a>
</g>
</g>
<!-- Node9&#45;&gt;Node12 -->
<g id="edge61" class="edge"><title>Node9&#45;&gt;Node12</title>
<path fill="none" stroke="midnightblue" d="M537.981,-392.402C580.712,-376.112 675.083,-338.886 751.054,-300 781.938,-284.192 815.991,-263.035 837.442,-249.216"/>
<polygon fill="midnightblue" stroke="midnightblue" points="839.604,-251.985 846.086,-243.605 835.793,-246.114 839.604,-251.985"/>
</g>
<!-- Node9&#45;&gt;Node30 -->
<g id="edge62" class="edge"><title>Node9&#45;&gt;Node30</title>
<path fill="none" stroke="midnightblue" d="M495.41,-392.49C480.186,-384.956 459.632,-372.579 447.054,-356 423.456,-324.893 413.848,-278.996 410.165,-253.605"/>
<polygon fill="midnightblue" stroke="midnightblue" points="413.613,-252.978 408.86,-243.509 406.67,-253.875 413.613,-252.978"/>
</g>
<!-- Node11 -->
<g id="node12" class="node"><title>Node11</title>
<g id="a_node12"><a xlink:href="amount_8h.html" target="_top" xlink:title="amount.h">
<polygon fill="white" stroke="black" points="685.554,-280.5 685.554,-299.5 742.554,-299.5 742.554,-280.5 685.554,-280.5"/>
<text text-anchor="middle" x="714.054" y="-287.5" font-family="Helvetica,sans-Serif" font-size="10.00">amount.h</text>
</a>
</g>
</g>
<!-- Node10&#45;&gt;Node11 -->
<g id="edge11" class="edge"><title>Node10&#45;&gt;Node11</title>
<path fill="none" stroke="midnightblue" d="M546.587,-336.444C581.448,-326.984 637.632,-311.738 675.189,-301.546"/>
<polygon fill="midnightblue" stroke="midnightblue" points="676.52,-304.812 685.254,-298.815 674.687,-298.056 676.52,-304.812"/>
</g>
<!-- Node10&#45;&gt;Node12 -->
<g id="edge52" class="edge"><title>Node10&#45;&gt;Node12</title>
<path fill="none" stroke="midnightblue" d="M517.231,-336.139C521.258,-321.777 531.32,-293.648 551.054,-280 593.577,-250.593 744.595,-240.006 818.171,-236.534"/>
<polygon fill="midnightblue" stroke="midnightblue" points="818.61,-240.018 828.442,-236.072 818.295,-233.025 818.61,-240.018"/>
</g>
<!-- Node27 -->
<g id="node28" class="node"><title>Node27</title>
<g id="a_node28"><a xlink:href="script_8h.html" target="_top" xlink:title="script/script.h">
<polygon fill="white" stroke="black" points="454.054,-224.5 454.054,-243.5 530.054,-243.5 530.054,-224.5 454.054,-224.5"/>
<text text-anchor="middle" x="492.054" y="-231.5" font-family="Helvetica,sans-Serif" font-size="10.00">script/script.h</text>
</a>
</g>
</g>
<!-- Node10&#45;&gt;Node27 -->
<g id="edge38" class="edge"><title>Node10&#45;&gt;Node27</title>
<path fill="none" stroke="midnightblue" d="M513.25,-336.368C509.538,-318.617 500.976,-277.666 495.943,-253.597"/>
<polygon fill="midnightblue" stroke="midnightblue" points="499.323,-252.663 493.851,-243.591 492.472,-254.096 499.323,-252.663"/>
</g>
<!-- Node10&#45;&gt;Node30 -->
<g id="edge53" class="edge"><title>Node10&#45;&gt;Node30</title>
<path fill="none" stroke="midnightblue" d="M506.658,-336.368C488.766,-317.974 446.644,-274.671 423.668,-251.052"/>
<polygon fill="midnightblue" stroke="midnightblue" points="425.893,-248.319 416.411,-243.591 420.875,-253.2 425.893,-248.319"/>
</g>
<!-- Node11&#45;&gt;Node7 -->
<g id="edge37" class="edge"><title>Node11&#45;&gt;Node7</title>
<path fill="none" stroke="midnightblue" d="M706.208,-280.368C689.486,-261.974 650.119,-218.671 628.647,-195.052"/>
<polygon fill="midnightblue" stroke="midnightblue" points="631.181,-192.636 621.865,-187.591 626.002,-197.345 631.181,-192.636"/>
</g>
<!-- Node11&#45;&gt;Node12 -->
<g id="edge12" class="edge"><title>Node11&#45;&gt;Node12</title>
<path fill="none" stroke="midnightblue" d="M737.03,-280.444C761.211,-271.438 799.472,-257.189 826.701,-247.049"/>
<polygon fill="midnightblue" stroke="midnightblue" points="828.036,-250.286 836.186,-243.516 825.593,-243.727 828.036,-250.286"/>
</g>
<!-- Node25 -->
<g id="node26" class="node"><title>Node25</title>
<polygon fill="white" stroke="#bfbfbf" points="1060.05,-112.5 1060.05,-131.5 1108.05,-131.5 1108.05,-112.5 1060.05,-112.5"/>
<text text-anchor="middle" x="1084.05" y="-119.5" font-family="Helvetica,sans-Serif" font-size="10.00">stdlib.h</text>
</g>
<!-- Node11&#45;&gt;Node25 -->
<g id="edge36" class="edge"><title>Node11&#45;&gt;Node25</title>
<path fill="none" stroke="midnightblue" d="M742.87,-289.008C854.761,-288.37 1258.08,-279.66 1336.05,-188 1341.81,-181.23 1341.76,-174.815 1336.05,-168 1308.68,-135.305 1180.75,-126.341 1118.39,-123.901"/>
<polygon fill="midnightblue" stroke="midnightblue" points="1118.38,-120.399 1108.26,-123.54 1118.13,-127.394 1118.38,-120.399"/>
</g>
<!-- Node12&#45;&gt;Node3 -->
<g id="edge18" class="edge"><title>Node12&#45;&gt;Node3</title>
<path fill="none" stroke="midnightblue" d="M830.336,-224.356C804.778,-216.249 766.659,-203.13 735.054,-188 719.586,-180.595 718.16,-173.893 702.054,-168 616.538,-136.713 508.765,-127.169 453.463,-124.265"/>
<polygon fill="midnightblue" stroke="midnightblue" points="453.602,-120.767 443.445,-123.782 453.265,-127.759 453.602,-120.767"/>
</g>
<!-- Node12&#45;&gt;Node6 -->
<g id="edge25" class="edge"><title>Node12&#45;&gt;Node6</title>
<path fill="none" stroke="midnightblue" d="M889.926,-224.844C891.318,-224.545 892.699,-224.262 894.054,-224 954.786,-212.276 1129.24,-234.479 1170.05,-188 1175.92,-181.32 1173.34,-176.258 1170.05,-168 1115.64,-31.3357 903.894,-12.764 819.78,-10.8736"/>
<polygon fill="midnightblue" stroke="midnightblue" points="819.764,-7.37298 809.71,-10.7146 819.654,-14.3721 819.764,-7.37298"/>
</g>
<!-- Node12&#45;&gt;Node7 -->
<g id="edge26" class="edge"><title>Node12&#45;&gt;Node7</title>
<path fill="none" stroke="midnightblue" d="M828.246,-227.407C788.215,-219.953 715.971,-205.872 644.694,-187.979"/>
<polygon fill="midnightblue" stroke="midnightblue" points="645.201,-184.497 634.647,-185.429 643.479,-191.282 645.201,-184.497"/>
</g>
<!-- Node12&#45;&gt;Node8 -->
<g id="edge29" class="edge"><title>Node12&#45;&gt;Node8</title>
<path fill="none" stroke="midnightblue" d="M828.31,-231.494C735.85,-226.823 452.27,-211.475 218.054,-188 205.998,-186.792 192.798,-185.149 181.2,-183.597"/>
<polygon fill="midnightblue" stroke="midnightblue" points="181.461,-180.1 171.079,-182.213 180.512,-187.036 181.461,-180.1"/>
</g>
<!-- Node13 -->
<g id="node14" class="node"><title>Node13</title>
<g id="a_node14"><a xlink:href="endian_8h.html" target="_top" xlink:title="compat/endian.h">
<polygon fill="white" stroke="black" points="859.554,-112.5 859.554,-131.5 948.554,-131.5 948.554,-112.5 859.554,-112.5"/>
<text text-anchor="middle" x="904.054" y="-119.5" font-family="Helvetica,sans-Serif" font-size="10.00">compat/endian.h</text>
</a>
</g>
</g>
<!-- Node12&#45;&gt;Node13 -->
<g id="edge13" class="edge"><title>Node12&#45;&gt;Node13</title>
<path fill="none" stroke="midnightblue" d="M889.643,-229.795C935.845,-224.253 1019.98,-211.185 1038.05,-188 1063.21,-155.733 1006.07,-138.521 958.756,-130.08"/>
<polygon fill="midnightblue" stroke="midnightblue" points="959.285,-126.62 948.842,-128.41 958.122,-133.523 959.285,-126.62"/>
</g>
<!-- Node15 -->
<g id="node16" class="node"><title>Node15</title>
<polygon fill="white" stroke="#bfbfbf" points="1272.05,-168.5 1272.05,-187.5 1328.05,-187.5 1328.05,-168.5 1272.05,-168.5"/>
<text text-anchor="middle" x="1300.05" y="-175.5" font-family="Helvetica,sans-Serif" font-size="10.00">algorithm</text>
</g>
<!-- Node12&#45;&gt;Node15 -->
<g id="edge17" class="edge"><title>Node12&#45;&gt;Node15</title>
<path fill="none" stroke="midnightblue" d="M889.565,-230.864C957.069,-225.862 1124.02,-211.961 1262.05,-188 1262.15,-187.983 1262.25,-187.965 1262.36,-187.948"/>
<polygon fill="midnightblue" stroke="midnightblue" points="1262.78,-191.432 1271.91,-186.067 1261.42,-184.564 1262.78,-191.432"/>
</g>
<!-- Node16 -->
<g id="node17" class="node"><title>Node16</title>
<polygon fill="white" stroke="#bfbfbf" points="1085.55,-168.5 1085.55,-187.5 1114.55,-187.5 1114.55,-168.5 1085.55,-168.5"/>
<text text-anchor="middle" x="1100.05" y="-175.5" font-family="Helvetica,sans-Serif" font-size="10.00">ios</text>
</g>
<!-- Node12&#45;&gt;Node16 -->
<g id="edge19" class="edge"><title>Node12&#45;&gt;Node16</title>
<path fill="none" stroke="midnightblue" d="M889.804,-227.391C931.235,-219.626 1007.16,-204.659 1071.05,-188 1072.52,-187.618 1074.02,-187.208 1075.54,-186.781"/>
<polygon fill="midnightblue" stroke="midnightblue" points="1076.8,-190.058 1085.38,-183.842 1074.79,-183.35 1076.8,-190.058"/>
</g>
<!-- Node17 -->
<g id="node18" class="node"><title>Node17</title>
<polygon fill="white" stroke="#bfbfbf" points="653.054,-168.5 653.054,-187.5 693.054,-187.5 693.054,-168.5 653.054,-168.5"/>
<text text-anchor="middle" x="673.054" y="-175.5" font-family="Helvetica,sans-Serif" font-size="10.00">limits</text>
</g>
<!-- Node12&#45;&gt;Node17 -->
<g id="edge20" class="edge"><title>Node12&#45;&gt;Node17</title>
<path fill="none" stroke="midnightblue" d="M829.582,-224.444C794.9,-214.374 737.638,-197.75 702.826,-187.643"/>
<polygon fill="midnightblue" stroke="midnightblue" points="703.796,-184.281 693.217,-184.854 701.844,-191.003 703.796,-184.281"/>
</g>
<!-- Node18 -->
<g id="node19" class="node"><title>Node18</title>
<polygon fill="white" stroke="#bfbfbf" points="1132.55,-168.5 1132.55,-187.5 1161.55,-187.5 1161.55,-168.5 1132.55,-168.5"/>
<text text-anchor="middle" x="1147.05" y="-175.5" font-family="Helvetica,sans-Serif" font-size="10.00">list</text>
</g>
<!-- Node12&#45;&gt;Node18 -->
<g id="edge21" class="edge"><title>Node12&#45;&gt;Node18</title>
<path fill="none" stroke="midnightblue" d="M889.952,-229.664C937.922,-224.072 1033.23,-211.308 1122.72,-187.605"/>
<polygon fill="midnightblue" stroke="midnightblue" points="1123.73,-190.956 1132.48,-184.97 1121.91,-184.198 1123.73,-190.956"/>
</g>
<!-- Node12&#45;&gt;Node19 -->
<g id="edge22" class="edge"><title>Node12&#45;&gt;Node19</title>
<path fill="none" stroke="midnightblue" d="M889.759,-230.496C950.321,-225.227 1089.25,-211.503 1204.05,-188 1205.5,-187.703 1206.98,-187.376 1208.47,-187.027"/>
<polygon fill="midnightblue" stroke="midnightblue" points="1209.42,-190.397 1218.23,-184.506 1207.67,-183.62 1209.42,-190.397"/>
</g>
<!-- Node20 -->
<g id="node21" class="node"><title>Node20</title>
<polygon fill="white" stroke="#bfbfbf" points="871.054,-168.5 871.054,-187.5 923.054,-187.5 923.054,-168.5 871.054,-168.5"/>
<text text-anchor="middle" x="897.054" y="-175.5" font-family="Helvetica,sans-Serif" font-size="10.00">memory</text>
</g>
<!-- Node12&#45;&gt;Node20 -->
<g id="edge23" class="edge"><title>Node12&#45;&gt;Node20</title>
<path fill="none" stroke="midnightblue" d="M865.329,-224.083C870.697,-216.455 878.572,-205.264 885.133,-195.941"/>
<polygon fill="midnightblue" stroke="midnightblue" points="888.004,-197.943 890.896,-187.751 882.279,-193.915 888.004,-197.943"/>
</g>
<!-- Node21 -->
<g id="node22" class="node"><title>Node21</title>
<polygon fill="white" stroke="#bfbfbf" points="941.054,-168.5 941.054,-187.5 971.054,-187.5 971.054,-168.5 941.054,-168.5"/>
<text text-anchor="middle" x="956.054" y="-175.5" font-family="Helvetica,sans-Serif" font-size="10.00">set</text>
</g>
<!-- Node12&#45;&gt;Node21 -->
<g id="edge24" class="edge"><title>Node12&#45;&gt;Node21</title>
<path fill="none" stroke="midnightblue" d="M874.639,-224.324C890.145,-215.692 914.149,-202.329 932.081,-192.346"/>
<polygon fill="midnightblue" stroke="midnightblue" points="933.793,-195.399 940.828,-187.476 930.388,-189.283 933.793,-195.399"/>
</g>
<!-- Node22 -->
<g id="node23" class="node"><title>Node22</title>
<polygon fill="white" stroke="#bfbfbf" points="608.554,-112.5 608.554,-131.5 657.554,-131.5 657.554,-112.5 608.554,-112.5"/>
<text text-anchor="middle" x="633.054" y="-119.5" font-family="Helvetica,sans-Serif" font-size="10.00">string.h</text>
</g>
<!-- Node12&#45;&gt;Node22 -->
<g id="edge27" class="edge"><title>Node12&#45;&gt;Node22</title>
<path fill="none" stroke="midnightblue" d="M843.566,-224.451C820.262,-211.686 774.685,-187.102 735.054,-168 711.081,-156.444 683.434,-144.32 662.977,-135.572"/>
<polygon fill="midnightblue" stroke="midnightblue" points="664.131,-132.259 653.559,-131.566 661.391,-138.701 664.131,-132.259"/>
</g>
<!-- Node23 -->
<g id="node24" class="node"><title>Node23</title>
<polygon fill="white" stroke="#bfbfbf" points="989.054,-168.5 989.054,-187.5 1029.05,-187.5 1029.05,-168.5 989.054,-168.5"/>
<text text-anchor="middle" x="1009.05" y="-175.5" font-family="Helvetica,sans-Serif" font-size="10.00">utility</text>
</g>
<!-- Node12&#45;&gt;Node23 -->
<g id="edge28" class="edge"><title>Node12&#45;&gt;Node23</title>
<path fill="none" stroke="midnightblue" d="M882.822,-224.444C908.867,-215.067 950.702,-200.007 979.004,-189.818"/>
<polygon fill="midnightblue" stroke="midnightblue" points="980.542,-192.985 988.765,-186.304 978.171,-186.398 980.542,-192.985"/>
</g>
<!-- Node24 -->
<g id="node25" class="node"><title>Node24</title>
<g id="a_node25"><a xlink:href="prevector_8h.html" target="_top" xlink:title="prevector.h">
<polygon fill="white" stroke="black" points="787.554,-168.5 787.554,-187.5 852.554,-187.5 852.554,-168.5 787.554,-168.5"/>
<text text-anchor="middle" x="820.054" y="-175.5" font-family="Helvetica,sans-Serif" font-size="10.00">prevector.h</text>
</a>
</g>
</g>
<!-- Node12&#45;&gt;Node24 -->
<g id="edge30" class="edge"><title>Node12&#45;&gt;Node24</title>
<path fill="none" stroke="midnightblue" d="M852.614,-224.083C847.106,-216.455 839.023,-205.264 832.289,-195.941"/>
<polygon fill="midnightblue" stroke="midnightblue" points="835.067,-193.809 826.375,-187.751 829.392,-197.907 835.067,-193.809"/>
</g>
<!-- Node13&#45;&gt;Node6 -->
<g id="edge14" class="edge"><title>Node13&#45;&gt;Node6</title>
<path fill="none" stroke="midnightblue" d="M911.05,-112.187C920.717,-98.8649 935.622,-73.3177 923.054,-56 899.615,-23.7022 852.367,-14.1433 819.736,-11.5499"/>
<polygon fill="midnightblue" stroke="midnightblue" points="819.9,-8.0535 809.704,-10.9327 819.47,-15.0403 819.9,-8.0535"/>
</g>
<!-- Node14 -->
<g id="node15" class="node"><title>Node14</title>
<g id="a_node15"><a xlink:href="byteswap_8h.html" target="_top" xlink:title="compat/byteswap.h">
<polygon fill="white" stroke="black" points="813.054,-56.5 813.054,-75.5 915.054,-75.5 915.054,-56.5 813.054,-56.5"/>
<text text-anchor="middle" x="864.054" y="-63.5" font-family="Helvetica,sans-Serif" font-size="10.00">compat/byteswap.h</text>
</a>
</g>
</g>
<!-- Node13&#45;&gt;Node14 -->
<g id="edge15" class="edge"><title>Node13&#45;&gt;Node14</title>
<path fill="none" stroke="midnightblue" d="M897.449,-112.083C891.799,-104.455 883.51,-93.2645 876.603,-83.9408"/>
<polygon fill="midnightblue" stroke="midnightblue" points="879.301,-81.7034 870.537,-75.7511 873.677,-85.87 879.301,-81.7034"/>
</g>
<!-- Node14&#45;&gt;Node6 -->
<g id="edge16" class="edge"><title>Node14&#45;&gt;Node6</title>
<path fill="none" stroke="midnightblue" d="M851.362,-56.324C839.153,-47.979 820.476,-35.2122 806.051,-25.3524"/>
<polygon fill="midnightblue" stroke="midnightblue" points="807.946,-22.4082 797.716,-19.6545 803.996,-28.1871 807.946,-22.4082"/>
</g>
<!-- Node24&#45;&gt;Node3 -->
<g id="edge31" class="edge"><title>Node24&#45;&gt;Node3</title>
<path fill="none" stroke="midnightblue" d="M787.417,-172.627C713.056,-162.663 531.477,-138.332 453.553,-127.891"/>
<polygon fill="midnightblue" stroke="midnightblue" points="453.644,-124.372 443.267,-126.512 452.714,-131.31 453.644,-124.372"/>
</g>
<!-- Node24&#45;&gt;Node6 -->
<g id="edge33" class="edge"><title>Node24&#45;&gt;Node6</title>
<path fill="none" stroke="midnightblue" d="M818.173,-168.075C812.663,-141.945 796.484,-65.2106 788.971,-29.577"/>
<polygon fill="midnightblue" stroke="midnightblue" points="792.349,-28.6309 786.861,-19.5681 785.499,-30.0751 792.349,-28.6309"/>
</g>
<!-- Node24&#45;&gt;Node22 -->
<g id="edge34" class="edge"><title>Node24&#45;&gt;Node22</title>
<path fill="none" stroke="midnightblue" d="M790.424,-168.444C757.055,-158.808 702.895,-143.168 667.624,-132.983"/>
<polygon fill="midnightblue" stroke="midnightblue" points="668.347,-129.549 657.769,-130.137 666.405,-136.274 668.347,-129.549"/>
</g>
<!-- Node24&#45;&gt;Node25 -->
<g id="edge32" class="edge"><title>Node24&#45;&gt;Node25</title>
<path fill="none" stroke="midnightblue" d="M852.606,-169.987C855.798,-169.311 858.988,-168.639 862.054,-168 928.384,-154.171 1005.99,-138.573 1049.65,-129.852"/>
<polygon fill="midnightblue" stroke="midnightblue" points="1050.61,-133.229 1059.73,-127.839 1049.24,-126.365 1050.61,-133.229"/>
</g>
<!-- Node26 -->
<g id="node27" class="node"><title>Node26</title>
<polygon fill="white" stroke="#bfbfbf" points="709.554,-112.5 709.554,-131.5 756.554,-131.5 756.554,-112.5 709.554,-112.5"/>
<text text-anchor="middle" x="733.054" y="-119.5" font-family="Helvetica,sans-Serif" font-size="10.00">iterator</text>
</g>
<!-- Node24&#45;&gt;Node26 -->
<g id="edge35" class="edge"><title>Node24&#45;&gt;Node26</title>
<path fill="none" stroke="midnightblue" d="M806.076,-168.324C792.505,-159.9 771.674,-146.971 755.729,-137.074"/>
<polygon fill="midnightblue" stroke="midnightblue" points="757.34,-133.954 746.998,-131.655 753.648,-139.902 757.34,-133.954"/>
</g>
<!-- Node27&#45;&gt;Node3 -->
<g id="edge44" class="edge"><title>Node27&#45;&gt;Node3</title>
<path fill="none" stroke="midnightblue" d="M476.801,-224.402C464.122,-216.501 446.519,-203.658 436.054,-188 426.766,-174.101 421.934,-155.59 419.474,-141.877"/>
<polygon fill="midnightblue" stroke="midnightblue" points="422.888,-141.051 417.919,-131.694 415.968,-142.108 422.888,-141.051"/>
</g>
<!-- Node27&#45;&gt;Node5 -->
<g id="edge47" class="edge"><title>Node27&#45;&gt;Node5</title>
<path fill="none" stroke="midnightblue" d="M454.818,-224.444C411.593,-214.511 340.61,-198.2 296.475,-188.058"/>
<polygon fill="midnightblue" stroke="midnightblue" points="297.206,-184.635 286.676,-185.807 295.638,-191.457 297.206,-184.635"/>
</g>
<!-- Node27&#45;&gt;Node6 -->
<g id="edge48" class="edge"><title>Node27&#45;&gt;Node6</title>
<path fill="none" stroke="midnightblue" d="M453.795,-224.63C409.43,-214.54 341.401,-197.731 334.054,-188 328.699,-180.906 330.97,-176.337 334.054,-168 345.427,-137.256 354.175,-129.242 382.054,-112 503.087,-37.1487 676.93,-17.6814 750.293,-12.6893"/>
<polygon fill="midnightblue" stroke="midnightblue" points="750.61,-16.1763 760.37,-12.0529 750.169,-9.1902 750.61,-16.1763"/>
</g>
<!-- Node27&#45;&gt;Node7 -->
<g id="edge50" class="edge"><title>Node27&#45;&gt;Node7</title>
<path fill="none" stroke="midnightblue" d="M511.386,-224.444C531.374,-215.596 562.797,-201.687 585.618,-191.586"/>
<polygon fill="midnightblue" stroke="midnightblue" points="587.086,-194.764 594.814,-187.516 584.253,-188.363 587.086,-194.764"/>
</g>
<!-- Node27&#45;&gt;Node8 -->
<g id="edge51" class="edge"><title>Node27&#45;&gt;Node8</title>
<path fill="none" stroke="midnightblue" d="M453.823,-225.711C450.522,-225.118 447.231,-224.54 444.054,-224 348.767,-207.804 235.691,-191.315 181.36,-183.561"/>
<polygon fill="midnightblue" stroke="midnightblue" points="181.693,-180.074 171.3,-182.13 180.707,-187.004 181.693,-180.074"/>
</g>
<!-- Node27&#45;&gt;Node17 -->
<g id="edge46" class="edge"><title>Node27&#45;&gt;Node17</title>
<path fill="none" stroke="midnightblue" d="M520.726,-224.472C551.103,-215.434 600.466,-200.734 643.054,-188 643.155,-187.97 643.256,-187.94 643.358,-187.909"/>
<polygon fill="midnightblue" stroke="midnightblue" points="644.47,-191.23 653.046,-185.008 642.462,-184.524 644.47,-191.23"/>
</g>
<!-- Node27&#45;&gt;Node22 -->
<g id="edge49" class="edge"><title>Node27&#45;&gt;Node22</title>
<path fill="none" stroke="midnightblue" d="M503.118,-224.368C527.108,-205.653 584.152,-161.151 614.042,-137.832"/>
<polygon fill="midnightblue" stroke="midnightblue" points="616.31,-140.502 622.042,-131.591 612.004,-134.983 616.31,-140.502"/>
</g>
<!-- Node27&#45;&gt;Node24 -->
<g id="edge43" class="edge"><title>Node27&#45;&gt;Node24</title>
<path fill="none" stroke="midnightblue" d="M530.322,-226.7C591.952,-216.553 712.786,-196.66 777.212,-186.053"/>
<polygon fill="midnightblue" stroke="midnightblue" points="778.129,-189.45 787.428,-184.371 776.992,-182.543 778.129,-189.45"/>
</g>
<!-- Node28 -->
<g id="node29" class="node"><title>Node28</title>
<g id="a_node29"><a xlink:href="common_8h.html" target="_top" xlink:title="crypto/common.h">
<polygon fill="white" stroke="black" points="445.054,-168.5 445.054,-187.5 537.054,-187.5 537.054,-168.5 445.054,-168.5"/>
<text text-anchor="middle" x="491.054" y="-175.5" font-family="Helvetica,sans-Serif" font-size="10.00">crypto/common.h</text>
</a>
</g>
</g>
<!-- Node27&#45;&gt;Node28 -->
<g id="edge39" class="edge"><title>Node27&#45;&gt;Node28</title>
<path fill="none" stroke="midnightblue" d="M491.889,-224.083C491.758,-217.006 491.57,-206.861 491.406,-197.986"/>
<polygon fill="midnightblue" stroke="midnightblue" points="494.901,-197.685 491.216,-187.751 487.902,-197.814 494.901,-197.685"/>
</g>
<!-- Node29 -->
<g id="node30" class="node"><title>Node29</title>
<polygon fill="white" stroke="#bfbfbf" points="343.554,-168.5 343.554,-187.5 388.554,-187.5 388.554,-168.5 343.554,-168.5"/>
<text text-anchor="middle" x="366.054" y="-175.5" font-family="Helvetica,sans-Serif" font-size="10.00">climits</text>
</g>
<!-- Node27&#45;&gt;Node29 -->
<g id="edge45" class="edge"><title>Node27&#45;&gt;Node29</title>
<path fill="none" stroke="midnightblue" d="M472.089,-224.444C451.445,-215.596 418.992,-201.687 395.423,-191.586"/>
<polygon fill="midnightblue" stroke="midnightblue" points="396.496,-188.239 385.926,-187.516 393.739,-194.673 396.496,-188.239"/>
</g>
<!-- Node28&#45;&gt;Node6 -->
<g id="edge40" class="edge"><title>Node28&#45;&gt;Node6</title>
<path fill="none" stroke="midnightblue" d="M504.918,-168.387C525.359,-155.749 564.863,-131.56 599.054,-112 655.759,-79.5615 723.411,-43.4667 759.456,-24.4389"/>
<polygon fill="midnightblue" stroke="midnightblue" points="761.534,-27.3002 768.749,-19.5419 758.271,-21.1074 761.534,-27.3002"/>
</g>
<!-- Node28&#45;&gt;Node13 -->
<g id="edge42" class="edge"><title>Node28&#45;&gt;Node13</title>
<path fill="none" stroke="midnightblue" d="M537.229,-170.963C613.934,-160.933 767.277,-140.884 849.308,-130.158"/>
<polygon fill="midnightblue" stroke="midnightblue" points="849.968,-133.602 859.43,-128.835 849.061,-126.661 849.968,-133.602"/>
</g>
<!-- Node28&#45;&gt;Node22 -->
<g id="edge41" class="edge"><title>Node28&#45;&gt;Node22</title>
<path fill="none" stroke="midnightblue" d="M513.555,-168.444C537.132,-159.478 574.377,-145.314 601.018,-135.183"/>
<polygon fill="midnightblue" stroke="midnightblue" points="602.556,-138.342 610.659,-131.516 600.068,-131.8 602.556,-138.342"/>
</g>
<!-- Node30&#45;&gt;Node3 -->
<g id="edge54" class="edge"><title>Node30&#45;&gt;Node3</title>
<path fill="none" stroke="midnightblue" d="M379.658,-226.748C327.294,-215.155 220.591,-191.207 218.054,-188 212.541,-181.028 212.505,-174.944 218.054,-168 238.018,-143.019 328.816,-130.891 380.597,-125.912"/>
<polygon fill="midnightblue" stroke="midnightblue" points="381.07,-129.383 390.707,-124.983 380.429,-122.413 381.07,-129.383"/>
</g>
<!-- Node30&#45;&gt;Node4 -->
<g id="edge55" class="edge"><title>Node30&#45;&gt;Node4</title>
<path fill="none" stroke="midnightblue" d="M379.816,-230.03C323.477,-223.892 193.225,-208.637 85.0544,-188 83.7759,-187.756 82.4753,-187.496 81.1634,-187.225"/>
<polygon fill="midnightblue" stroke="midnightblue" points="81.591,-183.735 71.0692,-184.976 80.0686,-190.567 81.591,-183.735"/>
</g>
<!-- Node30&#45;&gt;Node5 -->
<g id="edge56" class="edge"><title>Node30&#45;&gt;Node5</title>
<path fill="none" stroke="midnightblue" d="M384.128,-224.444C358.836,-215.399 318.752,-201.064 290.375,-190.916"/>
<polygon fill="midnightblue" stroke="midnightblue" points="291.463,-187.588 280.869,-187.516 289.106,-194.179 291.463,-187.588"/>
</g>
<!-- Node30&#45;&gt;Node6 -->
<g id="edge57" class="edge"><title>Node30&#45;&gt;Node6</title>
<path fill="none" stroke="midnightblue" d="M379.749,-233.058C313.538,-232.53 151.619,-227.174 118.054,-188 112.271,-181.25 112.867,-175.218 118.054,-168 193.697,-62.7527 623.804,-22.9272 750.155,-13.4039"/>
<polygon fill="midnightblue" stroke="midnightblue" points="750.697,-16.8736 760.413,-12.6476 750.182,-9.8925 750.697,-16.8736"/>
</g>
<!-- Node30&#45;&gt;Node7 -->
<g id="edge58" class="edge"><title>Node30&#45;&gt;Node7</title>
<path fill="none" stroke="midnightblue" d="M436.266,-225.605C474.805,-215.502 543.652,-197.455 583.418,-187.031"/>
<polygon fill="midnightblue" stroke="midnightblue" points="584.553,-190.352 593.339,-184.43 582.778,-183.58 584.553,-190.352"/>
</g>
<!-- Node30&#45;&gt;Node8 -->
<g id="edge59" class="edge"><title>Node30&#45;&gt;Node8</title>
<path fill="none" stroke="midnightblue" d="M380.052,-226.939C375.38,-225.946 370.582,-224.935 366.054,-224 285.73,-207.407 265.086,-205.952 185.054,-188 183.781,-187.714 182.485,-187.418 181.176,-187.114"/>
<polygon fill="midnightblue" stroke="midnightblue" points="181.64,-183.625 171.099,-184.691 180.004,-190.432 181.64,-183.625"/>
</g>
<!-- Node30&#45;&gt;Node28 -->
<g id="edge60" class="edge"><title>Node30&#45;&gt;Node28</title>
<path fill="none" stroke="midnightblue" d="M421.39,-224.324C434.216,-215.979 453.839,-203.212 468.994,-193.352"/>
<polygon fill="midnightblue" stroke="midnightblue" points="471.279,-196.042 477.752,-187.655 467.461,-190.174 471.279,-196.042"/>
</g>
<!-- Node31&#45;&gt;Node6 -->
<g id="edge68" class="edge"><title>Node31&#45;&gt;Node6</title>
<path fill="none" stroke="midnightblue" d="M842.817,-343.517C947.482,-335.803 1394.05,-296.034 1394.05,-179 1394.05,-179 1394.05,-179 1394.05,-121 1394.05,-62.2175 948.992,-23.5492 819.811,-13.5637"/>
<polygon fill="midnightblue" stroke="midnightblue" points="819.92,-10.0619 809.682,-12.7898 819.386,-17.0416 819.92,-10.0619"/>
</g>
<!-- Node32 -->
<g id="node33" class="node"><title>Node32</title>
<g id="a_node33"><a xlink:href="params_8h.html" target="_top" xlink:title="consensus/params.h">
<polygon fill="white" stroke="black" points="560.554,-280.5 560.554,-299.5 667.554,-299.5 667.554,-280.5 560.554,-280.5"/>
<text text-anchor="middle" x="614.054" y="-287.5" font-family="Helvetica,sans-Serif" font-size="10.00">consensus/params.h</text>
</a>
</g>
</g>
<!-- Node31&#45;&gt;Node32 -->
<g id="edge64" class="edge"><title>Node31&#45;&gt;Node32</title>
<path fill="none" stroke="midnightblue" d="M799.293,-339.323C765.492,-330.505 699.756,-313.357 656.38,-302.042"/>
<polygon fill="midnightblue" stroke="midnightblue" points="657.236,-298.648 646.677,-299.51 655.469,-305.421 657.236,-298.648"/>
</g>
<!-- Node32&#45;&gt;Node7 -->
<g id="edge67" class="edge"><title>Node32&#45;&gt;Node7</title>
<path fill="none" stroke="midnightblue" d="M614.054,-280.368C614.054,-262.617 614.054,-221.666 614.054,-197.597"/>
<polygon fill="midnightblue" stroke="midnightblue" points="617.554,-197.591 614.054,-187.591 610.554,-197.591 617.554,-197.591"/>
</g>
<!-- Node32&#45;&gt;Node19 -->
<g id="edge66" class="edge"><title>Node32&#45;&gt;Node19</title>
<path fill="none" stroke="midnightblue" d="M667.77,-280.879C724.926,-272.147 817.967,-257.671 898.054,-244 1034.34,-220.735 1069.36,-219.195 1204.05,-188 1205.53,-187.658 1207.04,-187.292 1208.56,-186.91"/>
<polygon fill="midnightblue" stroke="midnightblue" points="1209.77,-190.21 1218.53,-184.248 1207.96,-183.447 1209.77,-190.21"/>
</g>
<!-- Node32&#45;&gt;Node30 -->
<g id="edge65" class="edge"><title>Node32&#45;&gt;Node30</title>
<path fill="none" stroke="midnightblue" d="M581.413,-280.444C544.65,-270.807 484.981,-255.165 446.126,-244.98"/>
<polygon fill="midnightblue" stroke="midnightblue" points="446.8,-241.539 436.24,-242.388 445.025,-248.31 446.8,-241.539"/>
</g>
<!-- Node33&#45;&gt;Node5 -->
<g id="edge74" class="edge"><title>Node33&#45;&gt;Node5</title>
<path fill="none" stroke="midnightblue" d="M1422.03,-232.582C1285.31,-230.701 762.601,-221.59 334.054,-188 321.912,-187.048 308.733,-185.645 296.767,-184.228"/>
<polygon fill="midnightblue" stroke="midnightblue" points="296.97,-180.727 286.62,-182.99 296.123,-187.675 296.97,-180.727"/>
</g>
<!-- Node33&#45;&gt;Node15 -->
<g id="edge70" class="edge"><title>Node33&#45;&gt;Node15</title>
<path fill="none" stroke="midnightblue" d="M1431.34,-224.444C1405.21,-215.399 1363.79,-201.064 1334.48,-190.916"/>
<polygon fill="midnightblue" stroke="midnightblue" points="1335.25,-187.48 1324.66,-187.516 1332.96,-194.095 1335.25,-187.48"/>
</g>
<!-- Node34 -->
<g id="node35" class="node"><title>Node34</title>
<polygon fill="white" stroke="#bfbfbf" points="1492.55,-168.5 1492.55,-187.5 1541.55,-187.5 1541.55,-168.5 1492.55,-168.5"/>
<text text-anchor="middle" x="1517.05" y="-175.5" font-family="Helvetica,sans-Serif" font-size="10.00">cassert</text>
</g>
<!-- Node33&#45;&gt;Node34 -->
<g id="edge71" class="edge"><title>Node33&#45;&gt;Node34</title>
<path fill="none" stroke="midnightblue" d="M1465.86,-224.324C1474.87,-216.341 1488.46,-204.313 1499.37,-194.653"/>
<polygon fill="midnightblue" stroke="midnightblue" points="1501.91,-197.083 1507.08,-187.834 1497.27,-191.842 1501.91,-197.083"/>
</g>
<!-- Node35 -->
<g id="node36" class="node"><title>Node35</title>
<polygon fill="white" stroke="#bfbfbf" points="1560.05,-168.5 1560.05,-187.5 1614.05,-187.5 1614.05,-168.5 1560.05,-168.5"/>
<text text-anchor="middle" x="1587.05" y="-175.5" font-family="Helvetica,sans-Serif" font-size="10.00">iostream</text>
</g>
<!-- Node33&#45;&gt;Node35 -->
<g id="edge72" class="edge"><title>Node33&#45;&gt;Node35</title>
<path fill="none" stroke="midnightblue" d="M1476.81,-224.444C1498.37,-215.557 1532.32,-201.563 1556.85,-191.451"/>
<polygon fill="midnightblue" stroke="midnightblue" points="1558.48,-194.563 1566.39,-187.516 1555.81,-188.092 1558.48,-194.563"/>
</g>
<!-- Node36 -->
<g id="node37" class="node"><title>Node36</title>
<polygon fill="white" stroke="#bfbfbf" points="1422.05,-168.5 1422.05,-187.5 1474.05,-187.5 1474.05,-168.5 1422.05,-168.5"/>
<text text-anchor="middle" x="1448.05" y="-175.5" font-family="Helvetica,sans-Serif" font-size="10.00">sstream</text>
</g>
<!-- Node33&#45;&gt;Node36 -->
<g id="edge73" class="edge"><title>Node33&#45;&gt;Node36</title>
<path fill="none" stroke="midnightblue" d="M1454.73,-224.083C1453.67,-216.927 1452.15,-206.635 1450.82,-197.691"/>
<polygon fill="midnightblue" stroke="midnightblue" points="1454.28,-197.13 1449.35,-187.751 1447.35,-198.156 1454.28,-197.13"/>
</g>
</g>
</svg>
        <g id="navigator" transform="translate(0 0)" fill="#404254">
                <rect fill="#f2f5e9" fill-opacity="0.5" stroke="#606060" stroke-width=".5" x="0" y="0" width="60" height="60"/>
                <use id="zoomplus" xlink:href="#zoomPlus" x="17" y="9" onmousedown="handleZoom(evt,'in')"/>
                <use id="zoomminus" xlink:href="#zoomMin" x="42" y="9" onmousedown="handleZoom(evt,'out')"/>
                <use id="reset" xlink:href="#resetDef" x="30" y="36" onmousedown="handleReset()"/>
                <g id="arrowUp" xlink:href="#dirArrow" transform="translate(30 24)" onmousedown="handlePan(0,-1)">
                  <use xlink:href="#rim" fill="#404040">
                        <set attributeName="fill" to="#808080" begin="arrowUp.mouseover" end="arrowUp.mouseout"/>
                  </use>
                  <path fill="none" stroke="white" stroke-width="1.5" d="M0,-3.0v7 M-2.5,-0.5L0,-3.0L2.5,-0.5"/>
                </g>
                <g id="arrowRight" xlink:href="#dirArrow" transform="rotate(90) translate(36 -43)" onmousedown="handlePan(1,0)">
                  <use xlink:href="#rim" fill="#404040">
                        <set attributeName="fill" to="#808080" begin="arrowRight.mouseover" end="arrowRight.mouseout"/>
                  </use>
                  <path fill="none" stroke="white" stroke-width="1.5" d="M0,-3.0v7 M-2.5,-0.5L0,-3.0L2.5,-0.5"/>
                </g>
                <g id="arrowDown" xlink:href="#dirArrow" transform="rotate(180) translate(-30 -48)" onmousedown="handlePan(0,1)">
                  <use xlink:href="#rim" fill="#404040">
                        <set attributeName="fill" to="#808080" begin="arrowDown.mouseover" end="arrowDown.mouseout"/>
                  </use>
                  <path fill="none" stroke="white" stroke-width="1.5" d="M0,-3.0v7 M-2.5,-0.5L0,-3.0L2.5,-0.5"/>
                </g>
                <g id="arrowLeft" xlink:href="#dirArrow" transform="rotate(270) translate(-36 17)" onmousedown="handlePan(-1,0)">
                  <use xlink:href="#rim" fill="#404040">
                        <set attributeName="fill" to="#808080" begin="arrowLeft.mouseover" end="arrowLeft.mouseout"/>
                  </use>
                  <path fill="none" stroke="white" stroke-width="1.5" d="M0,-3.0v7 M-2.5,-0.5L0,-3.0L2.5,-0.5"/>
                </g>
        </g>
        <svg viewBox="0 0 15 15" width="100%" height="30px" preserveAspectRatio="xMaxYMin meet">
         <g id="arrow_out" transform="scale(0.3 0.3)">
          <a xlink:href="versionbits_8h__incl_org.svg" target="_base">
           <rect id="button" ry="5" rx="5" y="6" x="6" height="38" width="38"
                fill="#f2f5e9" fill-opacity="0.5" stroke="#606060" stroke-width="1.0"/>
           <path id="arrow"
             d="M 11.500037,31.436501 C 11.940474,20.09759 22.043105,11.32322 32.158766,21.979434 L 37.068811,17.246167 C 37.068811,17.246167 37.088388,32 37.088388,32 L 22.160133,31.978069 C 22.160133,31.978069 26.997745,27.140456 26.997745,27.140456 C 18.528582,18.264221 13.291696,25.230495 11.500037,31.436501 z"
             style="fill:#404040;"/>
          </a>
         </g>
        </svg>
</svg>
