<?xml version="1.0" encoding="UTF-8" standalone="no"?>
<!DOCTYPE svg PUBLIC "-//W3C//DTD SVG 1.1//EN"
 "http://www.w3.org/Graphics/SVG/1.1/DTD/svg11.dtd">
<!-- Generated by graphviz version 2.36.0 (20140111.2315)
 -->
<!-- Title: src/immer/detail/rbts/visitor.hpp Pages: 1 -->
<svg width="112pt" height="96pt"
 viewBox="0.00 0.00 112.00 96.00" xmlns="http://www.w3.org/2000/svg" xmlns:xlink="http://www.w3.org/1999/xlink">
<g id="graph0" class="graph" transform="scale(1 1) rotate(0) translate(4 92)">
<title>src/immer/detail/rbts/visitor.hpp</title>
<polygon fill="white" stroke="none" points="-4,4 -4,-92 108,-92 108,4 -4,4"/>
<!-- Node0 -->
<g id="node1" class="node"><title>Node0</title>
<polygon fill="#bfbfbf" stroke="black" points="-1,-57 -1,-87 105,-87 105,-57 -1,-57"/>
<text text-anchor="start" x="7" y="-75" font-family="Helvetica,sans-Serif" font-size="10.00">src/immer/detail/rbts</text>
<text text-anchor="middle" x="52" y="-64" font-family="Helvetica,sans-Serif" font-size="10.00">/visitor.hpp</text>
</g>
<!-- Node1 -->
<g id="node2" class="node"><title>Node1</title>
<polygon fill="white" stroke="#bfbfbf" points="5,-0.5 5,-19.5 43,-19.5 43,-0.5 5,-0.5"/>
<text text-anchor="middle" x="24" y="-7.5" font-family="Helvetica,sans-Serif" font-size="10.00">tuple</text>
</g>
<!-- Node0&#45;&gt;Node1 -->
<g id="edge1" class="edge"><title>Node0&#45;&gt;Node1</title>
<path fill="none" stroke="midnightblue" d="M45.3644,-56.7808C41.4634,-48.4217 36.4961,-37.7773 32.333,-28.8565"/>
<polygon fill="midnightblue" stroke="midnightblue" points="35.4748,-27.3123 28.0742,-19.7305 29.1315,-30.2725 35.4748,-27.3123"/>
</g>
<!-- Node2 -->
<g id="node3" class="node"><title>Node2</title>
<polygon fill="white" stroke="#bfbfbf" points="61,-0.5 61,-19.5 101,-19.5 101,-0.5 61,-0.5"/>
<text text-anchor="middle" x="81" y="-7.5" font-family="Helvetica,sans-Serif" font-size="10.00">utility</text>
</g>
<!-- Node0&#45;&gt;Node2 -->
<g id="edge2" class="edge"><title>Node0&#45;&gt;Node2</title>
<path fill="none" stroke="midnightblue" d="M58.8726,-56.7808C62.9129,-48.4217 68.0576,-37.7773 72.3694,-28.8565"/>
<polygon fill="midnightblue" stroke="midnightblue" points="75.5797,-30.2571 76.7802,-19.7305 69.2773,-27.2109 75.5797,-30.2571"/>
</g>
</g>
</svg>
