<?xml version="1.0" encoding="UTF-8" standalone="no"?>
<!DOCTYPE svg PUBLIC "-//W3C//DTD SVG 1.1//EN"
 "http://www.w3.org/Graphics/SVG/1.1/DTD/svg11.dtd">
<!-- Generated by graphviz version 2.36.0 (20140111.2315)
 -->
<!-- Title: src/qt/walletmodel.h Pages: 1 -->
<svg width="2715pt" height="140pt"
 viewBox="0.00 0.00 2715.00 140.00" xmlns="http://www.w3.org/2000/svg" xmlns:xlink="http://www.w3.org/1999/xlink">
<g id="graph0" class="graph" transform="scale(1 1) rotate(0) translate(4 136)">
<title>src/qt/walletmodel.h</title>
<polygon fill="white" stroke="none" points="-4,4 -4,-136 2711,-136 2711,4 -4,4"/>
<!-- Node86 -->
<g id="node1" class="node"><title>Node86</title>
<polygon fill="#bfbfbf" stroke="black" points="1322,-112.5 1322,-131.5 1426,-131.5 1426,-112.5 1322,-112.5"/>
<text text-anchor="middle" x="1374" y="-119.5" font-family="Helvetica,sans-Serif" font-size="10.00">src/qt/walletmodel.h</text>
</g>
<!-- Node87 -->
<g id="node2" class="node"><title>Node87</title>
<g id="a_node2"><a xlink:href="addresstablemodel_8cpp.html" target="_top" xlink:title="src/qt/addresstablemodel.cpp">
<polygon fill="white" stroke="black" points="-0.5,-56.5 -0.5,-75.5 144.5,-75.5 144.5,-56.5 -0.5,-56.5"/>
<text text-anchor="middle" x="72" y="-63.5" font-family="Helvetica,sans-Serif" font-size="10.00">src/qt/addresstablemodel.cpp</text>
</a>
</g>
</g>
<!-- Node86&#45;&gt;Node87 -->
<g id="edge1" class="edge"><title>Node86&#45;&gt;Node87</title>
<path fill="none" stroke="midnightblue" d="M1311.85,-120.297C1132.22,-117.922 596.969,-108.436 154,-76 151,-75.7804 147.941,-75.5362 144.852,-75.273"/>
<polygon fill="midnightblue" stroke="midnightblue" points="1311.86,-123.797 1321.9,-120.427 1311.95,-116.798 1311.86,-123.797"/>
</g>
<!-- Node88 -->
<g id="node3" class="node"><title>Node88</title>
<g id="a_node3"><a xlink:href="walletmodeltransaction_8h.html" target="_top" xlink:title="src/qt/walletmodeltransaction.h">
<polygon fill="white" stroke="black" points="163,-56.5 163,-75.5 315,-75.5 315,-56.5 163,-56.5"/>
<text text-anchor="middle" x="239" y="-63.5" font-family="Helvetica,sans-Serif" font-size="10.00">src/qt/walletmodeltransaction.h</text>
</a>
</g>
</g>
<!-- Node86&#45;&gt;Node88 -->
<g id="edge2" class="edge"><title>Node86&#45;&gt;Node88</title>
<path fill="none" stroke="midnightblue" d="M1311.54,-119.784C1147.66,-116.187 692.462,-104.044 315,-76 312.928,-75.8461 310.829,-75.6821 308.712,-75.5095"/>
<polygon fill="midnightblue" stroke="midnightblue" points="1311.83,-123.291 1321.91,-120.009 1311.98,-116.293 1311.83,-123.291"/>
</g>
<!-- Node90 -->
<g id="node5" class="node"><title>Node90</title>
<g id="a_node5"><a xlink:href="askpassphrasedialog_8cpp.html" target="_top" xlink:title="src/qt/askpassphrasedialog.cpp">
<polygon fill="white" stroke="black" points="333.5,-56.5 333.5,-75.5 488.5,-75.5 488.5,-56.5 333.5,-56.5"/>
<text text-anchor="middle" x="411" y="-63.5" font-family="Helvetica,sans-Serif" font-size="10.00">src/qt/askpassphrasedialog.cpp</text>
</a>
</g>
</g>
<!-- Node86&#45;&gt;Node90 -->
<g id="edge5" class="edge"><title>Node86&#45;&gt;Node90</title>
<path fill="none" stroke="midnightblue" d="M1311.22,-118.891C1167.28,-113.812 802.394,-99.547 498,-76 494.972,-75.7658 491.886,-75.5132 488.77,-75.2466"/>
<polygon fill="midnightblue" stroke="midnightblue" points="1311.49,-122.403 1321.61,-119.255 1311.74,-115.407 1311.49,-122.403"/>
</g>
<!-- Node91 -->
<g id="node6" class="node"><title>Node91</title>
<g id="a_node6"><a xlink:href="coincontroldialog_8cpp.html" target="_top" xlink:title="src/qt/coincontroldialog.cpp">
<polygon fill="white" stroke="black" points="507,-56.5 507,-75.5 643,-75.5 643,-56.5 507,-56.5"/>
<text text-anchor="middle" x="575" y="-63.5" font-family="Helvetica,sans-Serif" font-size="10.00">src/qt/coincontroldialog.cpp</text>
</a>
</g>
</g>
<!-- Node86&#45;&gt;Node91 -->
<g id="edge6" class="edge"><title>Node86&#45;&gt;Node91</title>
<path fill="none" stroke="midnightblue" d="M1311.76,-118.219C1186.76,-112.389 896.322,-97.6161 653,-76 649.741,-75.7105 646.408,-75.3962 643.043,-75.0642"/>
<polygon fill="midnightblue" stroke="midnightblue" points="1311.75,-121.722 1321.9,-118.689 1312.08,-114.729 1311.75,-121.722"/>
</g>
<!-- Node92 -->
<g id="node7" class="node"><title>Node92</title>
<g id="a_node7"><a xlink:href="guiutil_8cpp.html" target="_top" xlink:title="src/qt/guiutil.cpp">
<polygon fill="white" stroke="black" points="661.5,-56.5 661.5,-75.5 750.5,-75.5 750.5,-56.5 661.5,-56.5"/>
<text text-anchor="middle" x="706" y="-63.5" font-family="Helvetica,sans-Serif" font-size="10.00">src/qt/guiutil.cpp</text>
</a>
</g>
</g>
<!-- Node86&#45;&gt;Node92 -->
<g id="edge7" class="edge"><title>Node86&#45;&gt;Node92</title>
<path fill="none" stroke="midnightblue" d="M1311.44,-117.983C1200.92,-112.295 964.006,-98.4965 765,-76 760.367,-75.4762 755.539,-74.8585 750.729,-74.1961"/>
<polygon fill="midnightblue" stroke="midnightblue" points="1311.57,-121.494 1321.74,-118.508 1311.93,-114.503 1311.57,-121.494"/>
</g>
<!-- Node93 -->
<g id="node8" class="node"><title>Node93</title>
<g id="a_node8"><a xlink:href="qrdialog_8h.html" target="_top" xlink:title="src/qt/qrdialog.h">
<polygon fill="white" stroke="black" points="807,-56.5 807,-75.5 893,-75.5 893,-56.5 807,-56.5"/>
<text text-anchor="middle" x="850" y="-63.5" font-family="Helvetica,sans-Serif" font-size="10.00">src/qt/qrdialog.h</text>
</a>
</g>
</g>
<!-- Node86&#45;&gt;Node93 -->
<g id="edge8" class="edge"><title>Node86&#45;&gt;Node93</title>
<path fill="none" stroke="midnightblue" d="M1311.71,-116.204C1222.05,-109.028 1051.52,-94.3555 907,-76 902.528,-75.432 897.866,-74.7855 893.221,-74.1058"/>
<polygon fill="midnightblue" stroke="midnightblue" points="1311.46,-119.696 1321.71,-117 1312.02,-112.718 1311.46,-119.696"/>
</g>
<!-- Node94 -->
<g id="node9" class="node"><title>Node94</title>
<g id="a_node9"><a xlink:href="masternodelist_8cpp.html" target="_top" xlink:title="src/qt/masternodelist.cpp">
<polygon fill="white" stroke="black" points="689.5,-0.5 689.5,-19.5 816.5,-19.5 816.5,-0.5 689.5,-0.5"/>
<text text-anchor="middle" x="753" y="-7.5" font-family="Helvetica,sans-Serif" font-size="10.00">src/qt/masternodelist.cpp</text>
</a>
</g>
</g>
<!-- Node86&#45;&gt;Node94 -->
<g id="edge11" class="edge"><title>Node86&#45;&gt;Node94</title>
<path fill="none" stroke="midnightblue" d="M1311.65,-119.137C1171.77,-114.529 841.694,-101.111 798,-76 775.628,-63.1428 761.846,-34.1147 756.103,-19.6007"/>
<polygon fill="midnightblue" stroke="midnightblue" points="1311.68,-122.64 1321.79,-119.466 1311.91,-115.643 1311.68,-122.64"/>
</g>
<!-- Node95 -->
<g id="node10" class="node"><title>Node95</title>
<g id="a_node10"><a xlink:href="qrdialog_8cpp.html" target="_top" xlink:title="src/qt/qrdialog.cpp">
<polygon fill="white" stroke="black" points="834.5,-0.5 834.5,-19.5 931.5,-19.5 931.5,-0.5 834.5,-0.5"/>
<text text-anchor="middle" x="883" y="-7.5" font-family="Helvetica,sans-Serif" font-size="10.00">src/qt/qrdialog.cpp</text>
</a>
</g>
</g>
<!-- Node86&#45;&gt;Node95 -->
<g id="edge18" class="edge"><title>Node86&#45;&gt;Node95</title>
<path fill="none" stroke="midnightblue" d="M1311.78,-120.082C1207.64,-117.639 1003.25,-108.696 940,-76 914.934,-63.0426 895.943,-34.0615 887.623,-19.5795"/>
<polygon fill="midnightblue" stroke="midnightblue" points="1311.76,-123.583 1321.84,-120.306 1311.92,-116.585 1311.76,-123.583"/>
</g>
<!-- Node96 -->
<g id="node11" class="node"><title>Node96</title>
<g id="a_node11"><a xlink:href="openuridialog_8cpp.html" target="_top" xlink:title="src/qt/openuridialog.cpp">
<polygon fill="white" stroke="black" points="949,-56.5 949,-75.5 1069,-75.5 1069,-56.5 949,-56.5"/>
<text text-anchor="middle" x="1009" y="-63.5" font-family="Helvetica,sans-Serif" font-size="10.00">src/qt/openuridialog.cpp</text>
</a>
</g>
</g>
<!-- Node86&#45;&gt;Node96 -->
<g id="edge12" class="edge"><title>Node86&#45;&gt;Node96</title>
<path fill="none" stroke="midnightblue" d="M1311.46,-111.747C1242.74,-101.581 1133.31,-85.3905 1066.62,-75.5243"/>
<polygon fill="midnightblue" stroke="midnightblue" points="1311.3,-115.262 1321.7,-113.263 1312.32,-108.337 1311.3,-115.262"/>
</g>
<!-- Node97 -->
<g id="node12" class="node"><title>Node97</title>
<g id="a_node12"><a xlink:href="overviewpage_8cpp.html" target="_top" xlink:title="src/qt/overviewpage.cpp">
<polygon fill="white" stroke="black" points="1087.5,-56.5 1087.5,-75.5 1210.5,-75.5 1210.5,-56.5 1087.5,-56.5"/>
<text text-anchor="middle" x="1149" y="-63.5" font-family="Helvetica,sans-Serif" font-size="10.00">src/qt/overviewpage.cpp</text>
</a>
</g>
</g>
<!-- Node86&#45;&gt;Node97 -->
<g id="edge13" class="edge"><title>Node86&#45;&gt;Node97</title>
<path fill="none" stroke="midnightblue" d="M1328.53,-110.088C1286.03,-99.8865 1223.42,-84.8612 1184.49,-75.5164"/>
<polygon fill="midnightblue" stroke="midnightblue" points="1327.81,-113.513 1338.35,-112.444 1329.44,-106.706 1327.81,-113.513"/>
</g>
<!-- Node98 -->
<g id="node13" class="node"><title>Node98</title>
<g id="a_node13"><a xlink:href="paymentserver_8h.html" target="_top" xlink:title="src/qt/paymentserver.h">
<polygon fill="white" stroke="black" points="1228.5,-56.5 1228.5,-75.5 1345.5,-75.5 1345.5,-56.5 1228.5,-56.5"/>
<text text-anchor="middle" x="1287" y="-63.5" font-family="Helvetica,sans-Serif" font-size="10.00">src/qt/paymentserver.h</text>
</a>
</g>
</g>
<!-- Node86&#45;&gt;Node98 -->
<g id="edge14" class="edge"><title>Node86&#45;&gt;Node98</title>
<path fill="none" stroke="midnightblue" d="M1351.28,-106.901C1335.33,-96.9986 1314.5,-84.0705 1300.94,-75.6545"/>
<polygon fill="midnightblue" stroke="midnightblue" points="1349.68,-110.024 1360.02,-112.324 1353.37,-104.077 1349.68,-110.024"/>
</g>
<!-- Node101 -->
<g id="node16" class="node"><title>Node101</title>
<g id="a_node16"><a xlink:href="walletmodel_8cpp.html" target="_top" xlink:title="src/qt/walletmodel.cpp">
<polygon fill="white" stroke="black" points="1246.5,-0.5 1246.5,-19.5 1361.5,-19.5 1361.5,-0.5 1246.5,-0.5"/>
<text text-anchor="middle" x="1304" y="-7.5" font-family="Helvetica,sans-Serif" font-size="10.00">src/qt/walletmodel.cpp</text>
</a>
</g>
</g>
<!-- Node86&#45;&gt;Node101 -->
<g id="edge39" class="edge"><title>Node86&#45;&gt;Node101</title>
<path fill="none" stroke="midnightblue" d="M1371.01,-102.271C1368.2,-88.6332 1363.03,-70.1496 1354,-56 1344.32,-40.8415 1328.19,-27.6361 1316.88,-19.5194"/>
<polygon fill="midnightblue" stroke="midnightblue" points="1367.62,-103.174 1372.85,-112.386 1374.51,-101.922 1367.62,-103.174"/>
</g>
<!-- Node102 -->
<g id="node17" class="node"><title>Node102</title>
<g id="a_node17"><a xlink:href="receiverequestdialog_8h.html" target="_top" xlink:title="src/qt/receiverequestdialog.h">
<polygon fill="white" stroke="black" points="1622,-56.5 1622,-75.5 1764,-75.5 1764,-56.5 1622,-56.5"/>
<text text-anchor="middle" x="1693" y="-63.5" font-family="Helvetica,sans-Serif" font-size="10.00">src/qt/receiverequestdialog.h</text>
</a>
</g>
</g>
<!-- Node86&#45;&gt;Node102 -->
<g id="edge19" class="edge"><title>Node86&#45;&gt;Node102</title>
<path fill="none" stroke="midnightblue" d="M1434.68,-110.727C1494.97,-100.523 1586.32,-85.0583 1642.69,-75.5164"/>
<polygon fill="midnightblue" stroke="midnightblue" points="1433.82,-107.324 1424.55,-112.444 1434.99,-114.225 1433.82,-107.324"/>
</g>
<!-- Node103 -->
<g id="node18" class="node"><title>Node103</title>
<g id="a_node18"><a xlink:href="receivecoinsdialog_8cpp.html" target="_top" xlink:title="src/qt/receivecoinsdialog.cpp">
<polygon fill="white" stroke="black" points="1572.5,-0.5 1572.5,-19.5 1715.5,-19.5 1715.5,-0.5 1572.5,-0.5"/>
<text text-anchor="middle" x="1644" y="-7.5" font-family="Helvetica,sans-Serif" font-size="10.00">src/qt/receivecoinsdialog.cpp</text>
</a>
</g>
</g>
<!-- Node86&#45;&gt;Node103 -->
<g id="edge26" class="edge"><title>Node86&#45;&gt;Node103</title>
<path fill="none" stroke="midnightblue" d="M1436.11,-115.723C1477.42,-110.193 1531.81,-98.9198 1575,-76 1602.04,-61.6505 1626.21,-33.8396 1637.41,-19.7033"/>
<polygon fill="midnightblue" stroke="midnightblue" points="1435.66,-112.253 1426.18,-116.977 1436.54,-119.198 1435.66,-112.253"/>
</g>
<!-- Node104 -->
<g id="node19" class="node"><title>Node104</title>
<g id="a_node19"><a xlink:href="receiverequestdialog_8cpp.html" target="_top" xlink:title="src/qt/receiverequestdialog.cpp">
<polygon fill="white" stroke="black" points="1734,-0.5 1734,-19.5 1886,-19.5 1886,-0.5 1734,-0.5"/>
<text text-anchor="middle" x="1810" y="-7.5" font-family="Helvetica,sans-Serif" font-size="10.00">src/qt/receiverequestdialog.cpp</text>
</a>
</g>
</g>
<!-- Node86&#45;&gt;Node104 -->
<g id="edge27" class="edge"><title>Node86&#45;&gt;Node104</title>
<path fill="none" stroke="midnightblue" d="M1436.31,-120.73C1534.38,-119.202 1719.11,-111.526 1773,-76 1793.16,-62.7075 1803.56,-34.4176 1807.74,-19.9404"/>
<polygon fill="midnightblue" stroke="midnightblue" points="1436.19,-117.231 1426.24,-120.87 1436.29,-124.231 1436.19,-117.231"/>
</g>
<!-- Node105 -->
<g id="node20" class="node"><title>Node105</title>
<g id="a_node20"><a xlink:href="recentrequeststablemodel_8h.html" target="_top" xlink:title="src/qt/recentrequeststablemodel.h">
<polygon fill="white" stroke="black" points="1402,-56.5 1402,-75.5 1566,-75.5 1566,-56.5 1402,-56.5"/>
<text text-anchor="middle" x="1484" y="-63.5" font-family="Helvetica,sans-Serif" font-size="10.00">src/qt/recentrequeststablemodel.h</text>
</a>
</g>
</g>
<!-- Node86&#45;&gt;Node105 -->
<g id="edge22" class="edge"><title>Node86&#45;&gt;Node105</title>
<path fill="none" stroke="midnightblue" d="M1400.76,-107.862C1421.16,-97.8492 1448.67,-84.3458 1466.37,-75.6545"/>
<polygon fill="midnightblue" stroke="midnightblue" points="1399.11,-104.775 1391.67,-112.324 1402.19,-111.059 1399.11,-104.775"/>
</g>
<!-- Node107 -->
<g id="node22" class="node"><title>Node107</title>
<g id="a_node22"><a xlink:href="sendcoinsdialog_8h.html" target="_top" xlink:title="src/qt/sendcoinsdialog.h">
<polygon fill="white" stroke="black" points="1996,-56.5 1996,-75.5 2118,-75.5 2118,-56.5 1996,-56.5"/>
<text text-anchor="middle" x="2057" y="-63.5" font-family="Helvetica,sans-Serif" font-size="10.00">src/qt/sendcoinsdialog.h</text>
</a>
</g>
</g>
<!-- Node86&#45;&gt;Node107 -->
<g id="edge28" class="edge"><title>Node86&#45;&gt;Node107</title>
<path fill="none" stroke="midnightblue" d="M1436.05,-117.521C1546.7,-111.076 1785.29,-96.0863 1986,-76 1989.21,-75.6783 1992.51,-75.3291 1995.83,-74.9614"/>
<polygon fill="midnightblue" stroke="midnightblue" points="1435.85,-114.027 1426.07,-118.1 1436.25,-121.015 1435.85,-114.027"/>
</g>
<!-- Node108 -->
<g id="node23" class="node"><title>Node108</title>
<g id="a_node23"><a xlink:href="sendcoinsdialog_8cpp.html" target="_top" xlink:title="src/qt/sendcoinsdialog.cpp">
<polygon fill="white" stroke="black" points="1904.5,-0.5 1904.5,-19.5 2037.5,-19.5 2037.5,-0.5 1904.5,-0.5"/>
<text text-anchor="middle" x="1971" y="-7.5" font-family="Helvetica,sans-Serif" font-size="10.00">src/qt/sendcoinsdialog.cpp</text>
</a>
</g>
</g>
<!-- Node86&#45;&gt;Node108 -->
<g id="edge34" class="edge"><title>Node86&#45;&gt;Node108</title>
<path fill="none" stroke="midnightblue" d="M1436.04,-119.211C1519.04,-115.727 1670.35,-105.545 1796,-76 1796.49,-75.8855 1900.38,-37.2605 1947.84,-19.6136"/>
<polygon fill="midnightblue" stroke="midnightblue" points="1435.87,-115.715 1426.01,-119.613 1436.15,-122.709 1435.87,-115.715"/>
</g>
<!-- Node109 -->
<g id="node24" class="node"><title>Node109</title>
<g id="a_node24"><a xlink:href="walletview_8cpp.html" target="_top" xlink:title="src/qt/walletview.cpp">
<polygon fill="white" stroke="black" points="2202.5,-0.5 2202.5,-19.5 2311.5,-19.5 2311.5,-0.5 2202.5,-0.5"/>
<text text-anchor="middle" x="2257" y="-7.5" font-family="Helvetica,sans-Serif" font-size="10.00">src/qt/walletview.cpp</text>
</a>
</g>
</g>
<!-- Node86&#45;&gt;Node109 -->
<g id="edge40" class="edge"><title>Node86&#45;&gt;Node109</title>
<path fill="none" stroke="midnightblue" d="M1436.14,-121.035C1594.87,-120.541 2012.01,-115.414 2144,-76 2184.99,-63.7608 2227.05,-34.1647 2246.25,-19.5113"/>
<polygon fill="midnightblue" stroke="midnightblue" points="1436.05,-117.535 1426.06,-121.061 1436.07,-124.535 1436.05,-117.535"/>
</g>
<!-- Node110 -->
<g id="node25" class="node"><title>Node110</title>
<g id="a_node25"><a xlink:href="sendcoinsentry_8h.html" target="_top" xlink:title="src/qt/sendcoinsentry.h">
<polygon fill="white" stroke="black" points="1858.5,-56.5 1858.5,-75.5 1977.5,-75.5 1977.5,-56.5 1858.5,-56.5"/>
<text text-anchor="middle" x="1918" y="-63.5" font-family="Helvetica,sans-Serif" font-size="10.00">src/qt/sendcoinsentry.h</text>
</a>
</g>
</g>
<!-- Node86&#45;&gt;Node110 -->
<g id="edge31" class="edge"><title>Node86&#45;&gt;Node110</title>
<path fill="none" stroke="midnightblue" d="M1436.25,-115.551C1526.28,-107.553 1698.05,-91.8594 1844,-76 1848.63,-75.4967 1853.42,-74.9569 1858.24,-74.401"/>
<polygon fill="midnightblue" stroke="midnightblue" points="1435.86,-112.071 1426.21,-116.441 1436.48,-119.044 1435.86,-112.071"/>
</g>
<!-- Node111 -->
<g id="node26" class="node"><title>Node111</title>
<g id="a_node26"><a xlink:href="sendcoinsentry_8cpp.html" target="_top" xlink:title="src/qt/sendcoinsentry.cpp">
<polygon fill="white" stroke="black" points="2055.5,-0.5 2055.5,-19.5 2184.5,-19.5 2184.5,-0.5 2055.5,-0.5"/>
<text text-anchor="middle" x="2120" y="-7.5" font-family="Helvetica,sans-Serif" font-size="10.00">src/qt/sendcoinsentry.cpp</text>
</a>
</g>
</g>
<!-- Node86&#45;&gt;Node111 -->
<g id="edge35" class="edge"><title>Node86&#45;&gt;Node111</title>
<path fill="none" stroke="midnightblue" d="M1436.37,-119.576C1612.67,-115.249 2103.45,-101.002 2127,-76 2141.32,-60.7987 2131.44,-33.8702 2124.75,-19.9253"/>
<polygon fill="midnightblue" stroke="midnightblue" points="1436.13,-116.081 1426.21,-119.823 1436.3,-123.079 1436.13,-116.081"/>
</g>
<!-- Node112 -->
<g id="node27" class="node"><title>Node112</title>
<g id="a_node27"><a xlink:href="signverifymessagedialog_8cpp.html" target="_top" xlink:title="src/qt/signverifymessagedialog.cpp">
<polygon fill="white" stroke="black" points="2212,-56.5 2212,-75.5 2382,-75.5 2382,-56.5 2212,-56.5"/>
<text text-anchor="middle" x="2297" y="-63.5" font-family="Helvetica,sans-Serif" font-size="10.00">src/qt/signverifymessagedialog.cpp</text>
</a>
</g>
</g>
<!-- Node86&#45;&gt;Node112 -->
<g id="edge36" class="edge"><title>Node86&#45;&gt;Node112</title>
<path fill="none" stroke="midnightblue" d="M1436.44,-118.361C1574.08,-112.374 1913.9,-96.6642 2198,-76 2202.56,-75.6682 2207.24,-75.3087 2211.96,-74.9307"/>
<polygon fill="midnightblue" stroke="midnightblue" points="1435.94,-114.879 1426.1,-118.809 1436.24,-121.872 1435.94,-114.879"/>
</g>
<!-- Node113 -->
<g id="node28" class="node"><title>Node113</title>
<g id="a_node28"><a xlink:href="transactiontablemodel_8cpp.html" target="_top" xlink:title="src/qt/transactiontablemodel.cpp">
<polygon fill="white" stroke="black" points="2400,-56.5 2400,-75.5 2558,-75.5 2558,-56.5 2400,-56.5"/>
<text text-anchor="middle" x="2479" y="-63.5" font-family="Helvetica,sans-Serif" font-size="10.00">src/qt/transactiontablemodel.cpp</text>
</a>
</g>
</g>
<!-- Node86&#45;&gt;Node113 -->
<g id="edge37" class="edge"><title>Node86&#45;&gt;Node113</title>
<path fill="none" stroke="midnightblue" d="M1436.27,-119.496C1595.4,-115.379 2029.88,-102.434 2391,-76 2393.91,-75.787 2396.87,-75.556 2399.86,-75.3109"/>
<polygon fill="midnightblue" stroke="midnightblue" points="1436.1,-115.999 1426.19,-119.754 1436.28,-122.996 1436.1,-115.999"/>
</g>
<!-- Node114 -->
<g id="node29" class="node"><title>Node114</title>
<g id="a_node29"><a xlink:href="transactionview_8cpp.html" target="_top" xlink:title="src/qt/transactionview.cpp">
<polygon fill="white" stroke="black" points="2576.5,-56.5 2576.5,-75.5 2707.5,-75.5 2707.5,-56.5 2576.5,-56.5"/>
<text text-anchor="middle" x="2642" y="-63.5" font-family="Helvetica,sans-Serif" font-size="10.00">src/qt/transactionview.cpp</text>
</a>
</g>
</g>
<!-- Node86&#45;&gt;Node114 -->
<g id="edge38" class="edge"><title>Node86&#45;&gt;Node114</title>
<path fill="none" stroke="midnightblue" d="M1436.24,-120.407C1613.25,-118.343 2134.56,-109.635 2566,-76 2569.31,-75.7418 2572.7,-75.4482 2576.12,-75.1286"/>
<polygon fill="midnightblue" stroke="midnightblue" points="1436.04,-116.909 1426.08,-120.523 1436.12,-123.909 1436.04,-116.909"/>
</g>
<!-- Node88&#45;&gt;Node86 -->
<g id="edge3" class="edge"><title>Node88&#45;&gt;Node86</title>
<path fill="none" stroke="midnightblue" d="M325.316,-75.3951C327.909,-75.6098 330.475,-75.8124 333,-76 711.926,-104.153 1169.19,-116.281 1321.74,-119.826"/>
<polygon fill="midnightblue" stroke="midnightblue" points="325.477,-71.8959 315.21,-74.5127 324.868,-78.8694 325.477,-71.8959"/>
</g>
<!-- Node89 -->
<g id="node4" class="node"><title>Node89</title>
<g id="a_node4"><a xlink:href="walletmodeltransaction_8cpp.html" target="_top" xlink:title="src/qt/walletmodeltransaction.cpp">
<polygon fill="white" stroke="black" points="157.5,-0.5 157.5,-19.5 320.5,-19.5 320.5,-0.5 157.5,-0.5"/>
<text text-anchor="middle" x="239" y="-7.5" font-family="Helvetica,sans-Serif" font-size="10.00">src/qt/walletmodeltransaction.cpp</text>
</a>
</g>
</g>
<!-- Node88&#45;&gt;Node89 -->
<g id="edge4" class="edge"><title>Node88&#45;&gt;Node89</title>
<path fill="none" stroke="midnightblue" d="M239,-45.8045C239,-36.9102 239,-26.7798 239,-19.7511"/>
<polygon fill="midnightblue" stroke="midnightblue" points="235.5,-46.083 239,-56.083 242.5,-46.083 235.5,-46.083"/>
</g>
<!-- Node93&#45;&gt;Node94 -->
<g id="edge9" class="edge"><title>Node93&#45;&gt;Node94</title>
<path fill="none" stroke="midnightblue" d="M825.665,-51.4526C807.757,-41.4835 783.946,-28.2279 768.546,-19.6545"/>
<polygon fill="midnightblue" stroke="midnightblue" points="823.975,-54.5179 834.415,-56.324 827.38,-48.4018 823.975,-54.5179"/>
</g>
<!-- Node93&#45;&gt;Node95 -->
<g id="edge10" class="edge"><title>Node93&#45;&gt;Node95</title>
<path fill="none" stroke="midnightblue" d="M860.832,-47.2747C866.472,-38.0454 873.118,-27.1703 877.652,-19.7511"/>
<polygon fill="midnightblue" stroke="midnightblue" points="857.677,-45.7251 855.449,-56.083 863.65,-49.3753 857.677,-45.7251"/>
</g>
<!-- Node99 -->
<g id="node14" class="node"><title>Node99</title>
<g id="a_node14"><a xlink:href="paymentserver_8cpp.html" target="_top" xlink:title="src/qt/paymentserver.cpp">
<polygon fill="white" stroke="black" points="950,-0.5 950,-19.5 1078,-19.5 1078,-0.5 950,-0.5"/>
<text text-anchor="middle" x="1014" y="-7.5" font-family="Helvetica,sans-Serif" font-size="10.00">src/qt/paymentserver.cpp</text>
</a>
</g>
</g>
<!-- Node98&#45;&gt;Node99 -->
<g id="edge15" class="edge"><title>Node98&#45;&gt;Node99</title>
<path fill="none" stroke="midnightblue" d="M1233.78,-54.4734C1182.19,-44.2678 1104.9,-28.9794 1057.06,-19.5164"/>
<polygon fill="midnightblue" stroke="midnightblue" points="1233.25,-57.9365 1243.74,-56.4435 1234.61,-51.0696 1233.25,-57.9365"/>
</g>
<!-- Node100 -->
<g id="node15" class="node"><title>Node100</title>
<g id="a_node15"><a xlink:href="transactiondesc_8cpp.html" target="_top" xlink:title="src/qt/transactiondesc.cpp">
<polygon fill="white" stroke="black" points="1096,-0.5 1096,-19.5 1228,-19.5 1228,-0.5 1096,-0.5"/>
<text text-anchor="middle" x="1162" y="-7.5" font-family="Helvetica,sans-Serif" font-size="10.00">src/qt/transactiondesc.cpp</text>
</a>
</g>
</g>
<!-- Node98&#45;&gt;Node100 -->
<g id="edge16" class="edge"><title>Node98&#45;&gt;Node100</title>
<path fill="none" stroke="midnightblue" d="M1257.76,-52.3678C1234.35,-42.2553 1202.16,-28.3486 1181.71,-19.5164"/>
<polygon fill="midnightblue" stroke="midnightblue" points="1256.63,-55.6907 1267.19,-56.4435 1259.4,-49.2647 1256.63,-55.6907"/>
</g>
<!-- Node98&#45;&gt;Node101 -->
<g id="edge17" class="edge"><title>Node98&#45;&gt;Node101</title>
<path fill="none" stroke="midnightblue" d="M1292.86,-46.3956C1295.7,-37.362 1298.98,-26.936 1301.25,-19.7511"/>
<polygon fill="midnightblue" stroke="midnightblue" points="1289.47,-45.4935 1289.81,-56.083 1296.15,-47.5955 1289.47,-45.4935"/>
</g>
<!-- Node102&#45;&gt;Node103 -->
<g id="edge20" class="edge"><title>Node102&#45;&gt;Node103</title>
<path fill="none" stroke="midnightblue" d="M1677.97,-48.4314C1669.38,-38.9673 1658.96,-27.4827 1651.94,-19.7511"/>
<polygon fill="midnightblue" stroke="midnightblue" points="1675.6,-51.0293 1684.91,-56.083 1680.78,-46.3254 1675.6,-51.0293"/>
</g>
<!-- Node102&#45;&gt;Node104 -->
<g id="edge21" class="edge"><title>Node102&#45;&gt;Node104</title>
<path fill="none" stroke="midnightblue" d="M1720.66,-52.2321C1742.55,-42.1312 1772.5,-28.3091 1791.55,-19.5164"/>
<polygon fill="midnightblue" stroke="midnightblue" points="1719.15,-49.075 1711.54,-56.4435 1722.09,-55.4308 1719.15,-49.075"/>
</g>
<!-- Node105&#45;&gt;Node101 -->
<g id="edge25" class="edge"><title>Node105&#45;&gt;Node101</title>
<path fill="none" stroke="midnightblue" d="M1445.89,-53.5677C1411.94,-43.381 1363.01,-28.7034 1332.39,-19.5164"/>
<polygon fill="midnightblue" stroke="midnightblue" points="1444.89,-56.9224 1455.48,-56.4435 1446.91,-50.2176 1444.89,-56.9224"/>
</g>
<!-- Node105&#45;&gt;Node103 -->
<g id="edge23" class="edge"><title>Node105&#45;&gt;Node103</title>
<path fill="none" stroke="midnightblue" d="M1519.05,-53.172C1549.17,-43.0039 1591.9,-28.5852 1618.77,-19.5164"/>
<polygon fill="midnightblue" stroke="midnightblue" points="1517.71,-49.9295 1509.35,-56.4435 1519.95,-56.5619 1517.71,-49.9295"/>
</g>
<!-- Node106 -->
<g id="node21" class="node"><title>Node106</title>
<g id="a_node21"><a xlink:href="recentrequeststablemodel_8cpp.html" target="_top" xlink:title="src/qt/recentrequeststablemodel.cpp">
<polygon fill="white" stroke="black" points="1379.5,-0.5 1379.5,-19.5 1554.5,-19.5 1554.5,-0.5 1379.5,-0.5"/>
<text text-anchor="middle" x="1467" y="-7.5" font-family="Helvetica,sans-Serif" font-size="10.00">src/qt/recentrequeststablemodel.cpp</text>
</a>
</g>
</g>
<!-- Node105&#45;&gt;Node106 -->
<g id="edge24" class="edge"><title>Node105&#45;&gt;Node106</title>
<path fill="none" stroke="midnightblue" d="M1478.14,-46.3956C1475.3,-37.362 1472.02,-26.936 1469.75,-19.7511"/>
<polygon fill="midnightblue" stroke="midnightblue" points="1474.85,-47.5955 1481.19,-56.083 1481.53,-45.4935 1474.85,-47.5955"/>
</g>
<!-- Node107&#45;&gt;Node108 -->
<g id="edge29" class="edge"><title>Node107&#45;&gt;Node108</title>
<path fill="none" stroke="midnightblue" d="M2034.55,-50.9005C2018.78,-40.9986 1998.19,-28.0705 1984.78,-19.6545"/>
<polygon fill="midnightblue" stroke="midnightblue" points="2032.85,-53.9704 2043.18,-56.324 2036.57,-48.0421 2032.85,-53.9704"/>
</g>
<!-- Node107&#45;&gt;Node109 -->
<g id="edge30" class="edge"><title>Node107&#45;&gt;Node109</title>
<path fill="none" stroke="midnightblue" d="M2098.37,-53.8291C2136.14,-43.6333 2191.14,-28.7823 2225.46,-19.5164"/>
<polygon fill="midnightblue" stroke="midnightblue" points="2097.43,-50.4578 2088.69,-56.4435 2099.26,-57.2158 2097.43,-50.4578"/>
</g>
<!-- Node110&#45;&gt;Node108 -->
<g id="edge32" class="edge"><title>Node110&#45;&gt;Node108</title>
<path fill="none" stroke="midnightblue" d="M1933.98,-48.7175C1943.32,-39.1997 1954.75,-27.5608 1962.41,-19.7511"/>
<polygon fill="midnightblue" stroke="midnightblue" points="1931.26,-46.4945 1926.75,-56.083 1936.25,-51.3978 1931.26,-46.4945"/>
</g>
<!-- Node110&#45;&gt;Node111 -->
<g id="edge33" class="edge"><title>Node110&#45;&gt;Node111</title>
<path fill="none" stroke="midnightblue" d="M1959.79,-53.8291C1997.93,-43.6333 2053.48,-28.7823 2088.14,-19.5164"/>
<polygon fill="midnightblue" stroke="midnightblue" points="1958.76,-50.4796 1950.01,-56.4435 1960.57,-57.2422 1958.76,-50.4796"/>
</g>
</g>
</svg>
