<?xml version="1.0" encoding="UTF-8" standalone="no"?>
<!DOCTYPE svg PUBLIC "-//W3C//DTD SVG 1.1//EN"
 "http://www.w3.org/Graphics/SVG/1.1/DTD/svg11.dtd">
<!-- Generated by graphviz version 2.36.0 (20140111.2315)
 -->
<!-- Title: src/qt/walletview.cpp Pages: 1 -->
<svg width="2859pt" height="252pt"
 viewBox="0.00 0.00 2858.68 252.00" xmlns="http://www.w3.org/2000/svg" xmlns:xlink="http://www.w3.org/1999/xlink">
<g id="graph0" class="graph" transform="scale(1 1) rotate(0) translate(4 248)">
<title>src/qt/walletview.cpp</title>
<polygon fill="white" stroke="none" points="-4,4 -4,-248 2854.68,-248 2854.68,4 -4,4"/>
<!-- Node0 -->
<g id="node1" class="node"><title>Node0</title>
<polygon fill="#bfbfbf" stroke="black" points="1447.18,-224.5 1447.18,-243.5 1556.18,-243.5 1556.18,-224.5 1447.18,-224.5"/>
<text text-anchor="middle" x="1501.68" y="-231.5" font-family="Helvetica,sans-Serif" font-size="10.00">src/qt/walletview.cpp</text>
</g>
<!-- Node1 -->
<g id="node2" class="node"><title>Node1</title>
<g id="a_node2"><a xlink:href="walletview_8h.html" target="_top" xlink:title="walletview.h">
<polygon fill="white" stroke="black" points="284.176,-168.5 284.176,-187.5 355.176,-187.5 355.176,-168.5 284.176,-168.5"/>
<text text-anchor="middle" x="319.676" y="-175.5" font-family="Helvetica,sans-Serif" font-size="10.00">walletview.h</text>
</a>
</g>
</g>
<!-- Node0&#45;&gt;Node1 -->
<g id="edge1" class="edge"><title>Node0&#45;&gt;Node1</title>
<path fill="none" stroke="midnightblue" d="M1447.05,-230.528C1297.64,-223.764 869.59,-204.361 513.676,-188 462.97,-185.669 404.811,-182.967 365.5,-181.137"/>
<polygon fill="midnightblue" stroke="midnightblue" points="365.584,-177.637 355.432,-180.668 365.258,-184.629 365.584,-177.637"/>
</g>
<!-- Node23 -->
<g id="node5" class="node"><title>Node23</title>
<g id="a_node5"><a xlink:href="platformstyle_8h.html" target="_top" xlink:title="platformstyle.h">
<polygon fill="white" stroke="red" points="125.176,-56.5 125.176,-75.5 206.176,-75.5 206.176,-56.5 125.176,-56.5"/>
<text text-anchor="middle" x="165.676" y="-63.5" font-family="Helvetica,sans-Serif" font-size="10.00">platformstyle.h</text>
</a>
</g>
</g>
<!-- Node0&#45;&gt;Node23 -->
<g id="edge45" class="edge"><title>Node0&#45;&gt;Node23</title>
<path fill="none" stroke="midnightblue" d="M1447.07,-232.233C1240.44,-229.138 506.497,-216.353 274.676,-188 154.324,-173.28 84.1076,-226.125 7.67629,-132 -24.4256,-92.4667 57.6001,-76.7241 115.109,-70.6428"/>
<polygon fill="midnightblue" stroke="midnightblue" points="115.565,-74.1149 125.172,-69.6488 114.877,-67.1488 115.565,-74.1149"/>
</g>
<!-- Node150 -->
<g id="node10" class="node"><title>Node150</title>
<g id="a_node10"><a xlink:href="addressbookpage_8h.html" target="_top" xlink:title="addressbookpage.h">
<polygon fill="white" stroke="black" points="1451.18,-168.5 1451.18,-187.5 1552.18,-187.5 1552.18,-168.5 1451.18,-168.5"/>
<text text-anchor="middle" x="1501.68" y="-175.5" font-family="Helvetica,sans-Serif" font-size="10.00">addressbookpage.h</text>
</a>
</g>
</g>
<!-- Node0&#45;&gt;Node150 -->
<g id="edge9" class="edge"><title>Node0&#45;&gt;Node150</title>
<path fill="none" stroke="midnightblue" d="M1501.68,-224.083C1501.68,-217.006 1501.68,-206.861 1501.68,-197.986"/>
<polygon fill="midnightblue" stroke="midnightblue" points="1505.18,-197.751 1501.68,-187.751 1498.18,-197.751 1505.18,-197.751"/>
</g>
<!-- Node152 -->
<g id="node12" class="node"><title>Node152</title>
<g id="a_node12"><a xlink:href="askpassphrasedialog_8h.html" target="_top" xlink:title="askpassphrasedialog.h">
<polygon fill="white" stroke="black" points="1570.68,-168.5 1570.68,-187.5 1686.68,-187.5 1686.68,-168.5 1570.68,-168.5"/>
<text text-anchor="middle" x="1628.68" y="-175.5" font-family="Helvetica,sans-Serif" font-size="10.00">askpassphrasedialog.h</text>
</a>
</g>
</g>
<!-- Node0&#45;&gt;Node152 -->
<g id="edge11" class="edge"><title>Node0&#45;&gt;Node152</title>
<path fill="none" stroke="midnightblue" d="M1521.8,-224.444C1542.7,-215.557 1575.61,-201.563 1599.39,-191.451"/>
<polygon fill="midnightblue" stroke="midnightblue" points="1600.81,-194.65 1608.65,-187.516 1598.07,-188.208 1600.81,-194.65"/>
</g>
<!-- Node153 -->
<g id="node13" class="node"><title>Node153</title>
<g id="a_node13"><a xlink:href="bitcoingui_8h.html" target="_top" xlink:title="bitcoingui.h">
<polygon fill="white" stroke="black" points="522.676,-168.5 522.676,-187.5 588.676,-187.5 588.676,-168.5 522.676,-168.5"/>
<text text-anchor="middle" x="555.676" y="-175.5" font-family="Helvetica,sans-Serif" font-size="10.00">bitcoingui.h</text>
</a>
</g>
</g>
<!-- Node0&#45;&gt;Node153 -->
<g id="edge13" class="edge"><title>Node0&#45;&gt;Node153</title>
<path fill="none" stroke="midnightblue" d="M1446.96,-231.153C1310.64,-226.33 944.895,-212.038 640.676,-188 627.002,-186.919 612.12,-185.446 598.686,-184.004"/>
<polygon fill="midnightblue" stroke="midnightblue" points="599.061,-180.524 588.739,-182.914 598.298,-187.482 599.061,-180.524"/>
</g>
<!-- Node154 -->
<g id="node14" class="node"><title>Node154</title>
<polygon fill="white" stroke="#bfbfbf" points="703.176,-56.5 703.176,-75.5 750.176,-75.5 750.176,-56.5 703.176,-56.5"/>
<text text-anchor="middle" x="726.676" y="-63.5" font-family="Helvetica,sans-Serif" font-size="10.00">QLabel</text>
</g>
<!-- Node0&#45;&gt;Node154 -->
<g id="edge73" class="edge"><title>Node0&#45;&gt;Node154</title>
<path fill="none" stroke="midnightblue" d="M1447.11,-231.77C1292.15,-227.963 856.902,-214.969 798.676,-188 767.303,-173.469 761.817,-162.028 744.676,-132 736.423,-117.541 731.785,-99.0913 729.292,-85.5449"/>
<polygon fill="midnightblue" stroke="midnightblue" points="732.722,-84.8276 727.671,-75.5143 725.811,-85.9447 732.722,-84.8276"/>
</g>
<!-- Node158 -->
<g id="node18" class="node"><title>Node158</title>
<polygon fill="white" stroke="#bfbfbf" points="584.176,-112.5 584.176,-131.5 659.176,-131.5 659.176,-112.5 584.176,-112.5"/>
<text text-anchor="middle" x="621.676" y="-119.5" font-family="Helvetica,sans-Serif" font-size="10.00">QPushButton</text>
</g>
<!-- Node0&#45;&gt;Node158 -->
<g id="edge75" class="edge"><title>Node0&#45;&gt;Node158</title>
<path fill="none" stroke="midnightblue" d="M1446.96,-231.659C1279.38,-227.305 780.45,-212.42 711.676,-188 682.332,-177.58 654.18,-154.424 637.403,-138.756"/>
<polygon fill="midnightblue" stroke="midnightblue" points="639.759,-136.166 630.125,-131.756 634.906,-141.211 639.759,-136.166"/>
</g>
<!-- Node160 -->
<g id="node20" class="node"><title>Node160</title>
<g id="a_node20"><a xlink:href="clientmodel_8h.html" target="_top" xlink:title="clientmodel.h">
<polygon fill="white" stroke="black" points="936.676,-168.5 936.676,-187.5 1010.68,-187.5 1010.68,-168.5 936.676,-168.5"/>
<text text-anchor="middle" x="973.676" y="-175.5" font-family="Helvetica,sans-Serif" font-size="10.00">clientmodel.h</text>
</a>
</g>
</g>
<!-- Node0&#45;&gt;Node160 -->
<g id="edge22" class="edge"><title>Node0&#45;&gt;Node160</title>
<path fill="none" stroke="midnightblue" d="M1446.89,-229.678C1359.09,-223.961 1181.26,-210.767 1020.83,-188.031"/>
<polygon fill="midnightblue" stroke="midnightblue" points="1021.17,-184.544 1010.78,-186.59 1020.18,-191.473 1021.17,-184.544"/>
</g>
<!-- Node163 -->
<g id="node24" class="node"><title>Node163</title>
<g id="a_node24"><a xlink:href="guiutil_8h.html" target="_top" xlink:title="guiutil.h">
<polygon fill="white" stroke="black" points="1384.68,-112.5 1384.68,-131.5 1434.68,-131.5 1434.68,-112.5 1384.68,-112.5"/>
<text text-anchor="middle" x="1409.68" y="-119.5" font-family="Helvetica,sans-Serif" font-size="10.00">guiutil.h</text>
</a>
</g>
</g>
<!-- Node0&#45;&gt;Node163 -->
<g id="edge26" class="edge"><title>Node0&#45;&gt;Node163</title>
<path fill="none" stroke="midnightblue" d="M1483.5,-224.432C1468.85,-216.714 1448.61,-204.114 1435.68,-188 1424.75,-174.389 1417.9,-155.594 1413.99,-141.714"/>
<polygon fill="midnightblue" stroke="midnightblue" points="1417.33,-140.652 1411.47,-131.83 1410.55,-142.385 1417.33,-140.652"/>
</g>
<!-- Node170 -->
<g id="node31" class="node"><title>Node170</title>
<g id="a_node31"><a xlink:href="masternodeconfig_8h.html" target="_top" xlink:title="masternodeconfig.h">
<polygon fill="white" stroke="black" points="1130.68,-168.5 1130.68,-187.5 1232.68,-187.5 1232.68,-168.5 1130.68,-168.5"/>
<text text-anchor="middle" x="1181.68" y="-175.5" font-family="Helvetica,sans-Serif" font-size="10.00">masternodeconfig.h</text>
</a>
</g>
</g>
<!-- Node0&#45;&gt;Node170 -->
<g id="edge37" class="edge"><title>Node0&#45;&gt;Node170</title>
<path fill="none" stroke="midnightblue" d="M1450.97,-224.444C1394.33,-214.885 1302.68,-199.419 1242.3,-189.23"/>
<polygon fill="midnightblue" stroke="midnightblue" points="1242.59,-185.729 1232.14,-187.516 1241.42,-192.632 1242.59,-185.729"/>
</g>
<!-- Node171 -->
<g id="node32" class="node"><title>Node171</title>
<g id="a_node32"><a xlink:href="optionsmodel_8h.html" target="_top" xlink:title="optionsmodel.h">
<polygon fill="white" stroke="black" points="1029.18,-168.5 1029.18,-187.5 1112.18,-187.5 1112.18,-168.5 1029.18,-168.5"/>
<text text-anchor="middle" x="1070.68" y="-175.5" font-family="Helvetica,sans-Serif" font-size="10.00">optionsmodel.h</text>
</a>
</g>
</g>
<!-- Node0&#45;&gt;Node171 -->
<g id="edge38" class="edge"><title>Node0&#45;&gt;Node171</title>
<path fill="none" stroke="midnightblue" d="M1447.12,-227.523C1375.22,-220.087 1244.58,-205.825 1122.65,-188.067"/>
<polygon fill="midnightblue" stroke="midnightblue" points="1122.8,-184.55 1112.39,-186.561 1121.78,-191.476 1122.8,-184.55"/>
</g>
<!-- Node173 -->
<g id="node34" class="node"><title>Node173</title>
<g id="a_node34"><a xlink:href="overviewpage_8h.html" target="_top" xlink:title="overviewpage.h">
<polygon fill="white" stroke="black" points="754.176,-112.5 754.176,-131.5 839.176,-131.5 839.176,-112.5 754.176,-112.5"/>
<text text-anchor="middle" x="796.676" y="-119.5" font-family="Helvetica,sans-Serif" font-size="10.00">overviewpage.h</text>
</a>
</g>
</g>
<!-- Node0&#45;&gt;Node173 -->
<g id="edge41" class="edge"><title>Node0&#45;&gt;Node173</title>
<path fill="none" stroke="midnightblue" d="M1447.1,-232.957C1293.33,-232.351 864.471,-227.133 815.676,-188 802.082,-177.098 797.86,-157.031 796.715,-142.066"/>
<polygon fill="midnightblue" stroke="midnightblue" points="800.205,-141.716 796.335,-131.853 793.209,-141.977 800.205,-141.716"/>
</g>
<!-- Node174 -->
<g id="node36" class="node"><title>Node174</title>
<g id="a_node36"><a xlink:href="receivecoinsdialog_8h.html" target="_top" xlink:title="receivecoinsdialog.h">
<polygon fill="white" stroke="red" points="1251.18,-168.5 1251.18,-187.5 1356.18,-187.5 1356.18,-168.5 1251.18,-168.5"/>
<text text-anchor="middle" x="1303.68" y="-175.5" font-family="Helvetica,sans-Serif" font-size="10.00">receivecoinsdialog.h</text>
</a>
</g>
</g>
<!-- Node0&#45;&gt;Node174 -->
<g id="edge46" class="edge"><title>Node0&#45;&gt;Node174</title>
<path fill="none" stroke="midnightblue" d="M1470.3,-224.444C1436.41,-215.201 1382.27,-200.436 1344.95,-190.257"/>
<polygon fill="midnightblue" stroke="midnightblue" points="1345.47,-186.771 1334.9,-187.516 1343.63,-193.524 1345.47,-186.771"/>
</g>
<!-- Node178 -->
<g id="node37" class="node"><title>Node178</title>
<g id="a_node37"><a xlink:href="sendcoinsdialog_8h.html" target="_top" xlink:title="sendcoinsdialog.h">
<polygon fill="white" stroke="red" points="2031.18,-168.5 2031.18,-187.5 2126.18,-187.5 2126.18,-168.5 2031.18,-168.5"/>
<text text-anchor="middle" x="2078.68" y="-175.5" font-family="Helvetica,sans-Serif" font-size="10.00">sendcoinsdialog.h</text>
</a>
</g>
</g>
<!-- Node0&#45;&gt;Node178 -->
<g id="edge52" class="edge"><title>Node0&#45;&gt;Node178</title>
<path fill="none" stroke="midnightblue" d="M1556.35,-229.478C1651.1,-223.102 1851.87,-208.391 2020.68,-188 2020.78,-187.987 2020.89,-187.975 2020.99,-187.962"/>
<polygon fill="midnightblue" stroke="midnightblue" points="2021.45,-191.431 2030.92,-186.672 2020.55,-184.49 2021.45,-191.431"/>
</g>
<!-- Node179 -->
<g id="node38" class="node"><title>Node179</title>
<g id="a_node38"><a xlink:href="walletmodel_8h.html" target="_top" xlink:title="walletmodel.h">
<polygon fill="white" stroke="red" points="1826.18,-112.5 1826.18,-131.5 1903.18,-131.5 1903.18,-112.5 1826.18,-112.5"/>
<text text-anchor="middle" x="1864.68" y="-119.5" font-family="Helvetica,sans-Serif" font-size="10.00">walletmodel.h</text>
</a>
</g>
</g>
<!-- Node0&#45;&gt;Node179 -->
<g id="edge67" class="edge"><title>Node0&#45;&gt;Node179</title>
<path fill="none" stroke="midnightblue" d="M1556.27,-232.904C1642.12,-231.623 1803.3,-224.291 1845.68,-188 1858.91,-176.664 1863.19,-156.666 1864.45,-141.836"/>
<polygon fill="midnightblue" stroke="midnightblue" points="1867.95,-141.883 1864.92,-131.731 1860.96,-141.558 1867.95,-141.883"/>
</g>
<!-- Node199 -->
<g id="node39" class="node"><title>Node199</title>
<g id="a_node39"><a xlink:href="signverifymessagedialog_8h.html" target="_top" xlink:title="signverifymessagedialog.h">
<polygon fill="white" stroke="black" points="1704.68,-168.5 1704.68,-187.5 1836.68,-187.5 1836.68,-168.5 1704.68,-168.5"/>
<text text-anchor="middle" x="1770.68" y="-175.5" font-family="Helvetica,sans-Serif" font-size="10.00">signverifymessagedialog.h</text>
</a>
</g>
</g>
<!-- Node0&#45;&gt;Node199 -->
<g id="edge58" class="edge"><title>Node0&#45;&gt;Node199</title>
<path fill="none" stroke="midnightblue" d="M1544.3,-224.444C1591.42,-214.984 1667.37,-199.738 1718.14,-189.547"/>
<polygon fill="midnightblue" stroke="midnightblue" points="1719.14,-192.916 1728.25,-187.516 1717.76,-186.053 1719.14,-192.916"/>
</g>
<!-- Node200 -->
<g id="node40" class="node"><title>Node200</title>
<g id="a_node40"><a xlink:href="transactionrecord_8h.html" target="_top" xlink:title="transactionrecord.h">
<polygon fill="white" stroke="red" points="1452.68,-112.5 1452.68,-131.5 1552.68,-131.5 1552.68,-112.5 1452.68,-112.5"/>
<text text-anchor="middle" x="1502.68" y="-119.5" font-family="Helvetica,sans-Serif" font-size="10.00">transactionrecord.h</text>
</a>
</g>
</g>
<!-- Node0&#45;&gt;Node200 -->
<g id="edge60" class="edge"><title>Node0&#45;&gt;Node200</title>
<path fill="none" stroke="midnightblue" d="M1483.07,-224.412C1461.31,-213.063 1429.7,-191.716 1441.68,-168 1448.48,-154.52 1461.44,-144.083 1473.67,-136.67"/>
<polygon fill="midnightblue" stroke="midnightblue" points="1475.75,-139.521 1482.77,-131.59 1472.33,-133.41 1475.75,-139.521"/>
</g>
<!-- Node201 -->
<g id="node41" class="node"><title>Node201</title>
<g id="a_node41"><a xlink:href="transactiontablemodel_8h.html" target="_top" xlink:title="transactiontablemodel.h">
<polygon fill="white" stroke="red" points="1892.68,-168.5 1892.68,-187.5 2012.68,-187.5 2012.68,-168.5 1892.68,-168.5"/>
<text text-anchor="middle" x="1952.68" y="-175.5" font-family="Helvetica,sans-Serif" font-size="10.00">transactiontablemodel.h</text>
</a>
</g>
</g>
<!-- Node0&#45;&gt;Node201 -->
<g id="edge63" class="edge"><title>Node0&#45;&gt;Node201</title>
<path fill="none" stroke="midnightblue" d="M1556.31,-226.517C1629.65,-217.807 1763.99,-201.819 1878.68,-188 1879.94,-187.848 1881.22,-187.694 1882.5,-187.538"/>
<polygon fill="midnightblue" stroke="midnightblue" points="1882.99,-191.005 1892.5,-186.33 1882.15,-184.055 1882.99,-191.005"/>
</g>
<!-- Node205 -->
<g id="node42" class="node"><title>Node205</title>
<g id="a_node42"><a xlink:href="transactionview_8h.html" target="_top" xlink:title="transactionview.h">
<polygon fill="white" stroke="red" points="825.176,-168.5 825.176,-187.5 918.176,-187.5 918.176,-168.5 825.176,-168.5"/>
<text text-anchor="middle" x="871.676" y="-175.5" font-family="Helvetica,sans-Serif" font-size="10.00">transactionview.h</text>
</a>
</g>
</g>
<!-- Node0&#45;&gt;Node205 -->
<g id="edge64" class="edge"><title>Node0&#45;&gt;Node205</title>
<path fill="none" stroke="midnightblue" d="M1446.92,-230.19C1346.35,-224.705 1125.25,-211.146 928.339,-187.979"/>
<polygon fill="midnightblue" stroke="midnightblue" points="928.73,-184.501 918.387,-186.798 927.905,-191.452 928.73,-184.501"/>
</g>
<!-- Node206 -->
<g id="node43" class="node"><title>Node206</title>
<g id="a_node43"><a xlink:href="ui__interface_8h.html" target="_top" xlink:title="ui_interface.h">
<polygon fill="white" stroke="red" points="2144.18,-168.5 2144.18,-187.5 2219.18,-187.5 2219.18,-168.5 2144.18,-168.5"/>
<text text-anchor="middle" x="2181.68" y="-175.5" font-family="Helvetica,sans-Serif" font-size="10.00">ui_interface.h</text>
</a>
</g>
</g>
<!-- Node0&#45;&gt;Node206 -->
<g id="edge68" class="edge"><title>Node0&#45;&gt;Node206</title>
<path fill="none" stroke="midnightblue" d="M1556.51,-231.284C1664.87,-227.421 1914.23,-216.18 2133.92,-187.93"/>
<polygon fill="midnightblue" stroke="midnightblue" points="2134.56,-191.375 2144.03,-186.615 2133.66,-184.434 2134.56,-191.375"/>
</g>
<!-- Node208 -->
<g id="node44" class="node"><title>Node208</title>
<polygon fill="white" stroke="#bfbfbf" points="2237.68,-168.5 2237.68,-187.5 2289.68,-187.5 2289.68,-168.5 2237.68,-168.5"/>
<text text-anchor="middle" x="2263.68" y="-175.5" font-family="Helvetica,sans-Serif" font-size="10.00">QAction</text>
</g>
<!-- Node0&#45;&gt;Node208 -->
<g id="edge69" class="edge"><title>Node0&#45;&gt;Node208</title>
<path fill="none" stroke="midnightblue" d="M1556.23,-233.016C1676.03,-232.32 1971.1,-226.611 2227.2,-187.724"/>
<polygon fill="midnightblue" stroke="midnightblue" points="2228.09,-191.128 2237.44,-186.148 2227.03,-184.21 2228.09,-191.128"/>
</g>
<!-- Node209 -->
<g id="node45" class="node"><title>Node209</title>
<polygon fill="white" stroke="#bfbfbf" points="2307.68,-168.5 2307.68,-187.5 2385.68,-187.5 2385.68,-168.5 2307.68,-168.5"/>
<text text-anchor="middle" x="2346.68" y="-175.5" font-family="Helvetica,sans-Serif" font-size="10.00">QActionGroup</text>
</g>
<!-- Node0&#45;&gt;Node209 -->
<g id="edge70" class="edge"><title>Node0&#45;&gt;Node209</title>
<path fill="none" stroke="midnightblue" d="M1556.49,-232.336C1684.52,-230.262 2013.29,-221.914 2297.36,-187.999"/>
<polygon fill="midnightblue" stroke="midnightblue" points="2297.94,-191.455 2307.45,-186.782 2297.1,-184.505 2297.94,-191.455"/>
</g>
<!-- Node210 -->
<g id="node46" class="node"><title>Node210</title>
<polygon fill="white" stroke="#bfbfbf" points="2403.68,-168.5 2403.68,-187.5 2471.68,-187.5 2471.68,-168.5 2403.68,-168.5"/>
<text text-anchor="middle" x="2437.68" y="-175.5" font-family="Helvetica,sans-Serif" font-size="10.00">QFileDialog</text>
</g>
<!-- Node0&#45;&gt;Node210 -->
<g id="edge71" class="edge"><title>Node0&#45;&gt;Node210</title>
<path fill="none" stroke="midnightblue" d="M1556.3,-233.203C1694.85,-233.085 2071.24,-228.817 2393.49,-187.939"/>
<polygon fill="midnightblue" stroke="midnightblue" points="2394.02,-191.401 2403.49,-186.657 2393.13,-184.458 2394.02,-191.401"/>
</g>
<!-- Node211 -->
<g id="node47" class="node"><title>Node211</title>
<polygon fill="white" stroke="#bfbfbf" points="2489.68,-168.5 2489.68,-187.5 2567.68,-187.5 2567.68,-168.5 2489.68,-168.5"/>
<text text-anchor="middle" x="2528.68" y="-175.5" font-family="Helvetica,sans-Serif" font-size="10.00">QHBoxLayout</text>
</g>
<!-- Node0&#45;&gt;Node211 -->
<g id="edge72" class="edge"><title>Node0&#45;&gt;Node211</title>
<path fill="none" stroke="midnightblue" d="M1556.29,-233.153C1703.74,-232.996 2122.33,-228.791 2479.44,-187.972"/>
<polygon fill="midnightblue" stroke="midnightblue" points="2479.92,-191.439 2489.45,-186.816 2479.12,-184.486 2479.92,-191.439"/>
</g>
<!-- Node212 -->
<g id="node48" class="node"><title>Node212</title>
<polygon fill="white" stroke="#bfbfbf" points="2586.18,-168.5 2586.18,-187.5 2677.18,-187.5 2677.18,-168.5 2586.18,-168.5"/>
<text text-anchor="middle" x="2631.68" y="-175.5" font-family="Helvetica,sans-Serif" font-size="10.00">QProgressDialog</text>
</g>
<!-- Node0&#45;&gt;Node212 -->
<g id="edge74" class="edge"><title>Node0&#45;&gt;Node212</title>
<path fill="none" stroke="midnightblue" d="M1556.38,-233.031C1713.43,-232.624 2179.32,-227.956 2576.16,-187.902"/>
<polygon fill="midnightblue" stroke="midnightblue" points="2576.52,-191.384 2586.11,-186.889 2575.81,-184.42 2576.52,-191.384"/>
</g>
<!-- Node213 -->
<g id="node49" class="node"><title>Node213</title>
<polygon fill="white" stroke="#bfbfbf" points="2695.68,-168.5 2695.68,-187.5 2755.68,-187.5 2755.68,-168.5 2695.68,-168.5"/>
<text text-anchor="middle" x="2725.68" y="-175.5" font-family="Helvetica,sans-Serif" font-size="10.00">QSettings</text>
</g>
<!-- Node0&#45;&gt;Node213 -->
<g id="edge76" class="edge"><title>Node0&#45;&gt;Node213</title>
<path fill="none" stroke="midnightblue" d="M1556.45,-232.251C1758.67,-229.28 2462.96,-217.039 2685.68,-188 2685.78,-187.987 2685.88,-187.973 2685.98,-187.96"/>
<polygon fill="midnightblue" stroke="midnightblue" points="2686.34,-191.448 2695.64,-186.378 2685.21,-184.54 2686.34,-191.448"/>
</g>
<!-- Node214 -->
<g id="node50" class="node"><title>Node214</title>
<polygon fill="white" stroke="#bfbfbf" points="2774.18,-168.5 2774.18,-187.5 2851.18,-187.5 2851.18,-168.5 2774.18,-168.5"/>
<text text-anchor="middle" x="2812.68" y="-175.5" font-family="Helvetica,sans-Serif" font-size="10.00">QVBoxLayout</text>
</g>
<!-- Node0&#45;&gt;Node214 -->
<g id="edge77" class="edge"><title>Node0&#45;&gt;Node214</title>
<path fill="none" stroke="midnightblue" d="M1556.38,-232.114C1766.82,-228.539 2524.35,-214.105 2763.68,-188 2763.78,-187.989 2763.89,-187.977 2763.99,-187.965"/>
<polygon fill="midnightblue" stroke="midnightblue" points="2764.51,-191.427 2773.97,-186.649 2763.6,-184.487 2764.51,-191.427"/>
</g>
<!-- Node2 -->
<g id="node3" class="node"><title>Node2</title>
<g id="a_node3"><a xlink:href="amount_8h.html" target="_top" xlink:title="amount.h">
<polygon fill="white" stroke="red" points="958.176,-56.5 958.176,-75.5 1015.18,-75.5 1015.18,-56.5 958.176,-56.5"/>
<text text-anchor="middle" x="986.676" y="-63.5" font-family="Helvetica,sans-Serif" font-size="10.00">amount.h</text>
</a>
</g>
</g>
<!-- Node1&#45;&gt;Node2 -->
<g id="edge2" class="edge"><title>Node1&#45;&gt;Node2</title>
<path fill="none" stroke="midnightblue" d="M355.411,-174.876C466.473,-168.147 800.998,-146.869 847.676,-132 864.381,-126.679 866.032,-119.913 881.676,-112 905.815,-99.7896 934.039,-87.816 955.142,-79.2932"/>
<polygon fill="midnightblue" stroke="midnightblue" points="956.603,-82.4789 964.588,-75.5164 954.004,-75.9791 956.603,-82.4789"/>
</g>
<!-- Node22 -->
<g id="node4" class="node"><title>Node22</title>
<g id="a_node4"><a xlink:href="masternodelist_8h.html" target="_top" xlink:title="masternodelist.h">
<polygon fill="white" stroke="red" points="126.176,-112.5 126.176,-131.5 215.176,-131.5 215.176,-112.5 126.176,-112.5"/>
<text text-anchor="middle" x="170.676" y="-119.5" font-family="Helvetica,sans-Serif" font-size="10.00">masternodelist.h</text>
</a>
</g>
</g>
<!-- Node1&#45;&gt;Node22 -->
<g id="edge3" class="edge"><title>Node1&#45;&gt;Node22</title>
<path fill="none" stroke="midnightblue" d="M296.067,-168.444C271.218,-159.438 231.902,-145.189 203.923,-135.049"/>
<polygon fill="midnightblue" stroke="midnightblue" points="204.77,-131.633 194.175,-131.516 202.384,-138.214 204.77,-131.633"/>
</g>
<!-- Node149 -->
<g id="node9" class="node"><title>Node149</title>
<polygon fill="white" stroke="#bfbfbf" points="17.1763,-112.5 17.1763,-131.5 108.176,-131.5 108.176,-112.5 17.1763,-112.5"/>
<text text-anchor="middle" x="62.6763" y="-119.5" font-family="Helvetica,sans-Serif" font-size="10.00">QStackedWidget</text>
</g>
<!-- Node1&#45;&gt;Node149 -->
<g id="edge8" class="edge"><title>Node1&#45;&gt;Node149</title>
<path fill="none" stroke="midnightblue" d="M283.942,-169.492C239.554,-160.165 163.546,-144.194 113.206,-133.617"/>
<polygon fill="midnightblue" stroke="midnightblue" points="113.692,-130.143 103.186,-131.512 112.253,-136.993 113.692,-130.143"/>
</g>
<!-- Node22&#45;&gt;Node23 -->
<g id="edge4" class="edge"><title>Node22&#45;&gt;Node23</title>
<path fill="none" stroke="midnightblue" d="M169.851,-112.083C169.195,-105.006 168.256,-94.8611 167.434,-85.9865"/>
<polygon fill="midnightblue" stroke="midnightblue" points="170.894,-85.3858 166.487,-75.7511 163.924,-86.0312 170.894,-85.3858"/>
</g>
<!-- Node146 -->
<g id="node7" class="node"><title>Node146</title>
<polygon fill="white" stroke="#bfbfbf" points="224.676,-56.5 224.676,-75.5 272.676,-75.5 272.676,-56.5 224.676,-56.5"/>
<text text-anchor="middle" x="248.676" y="-63.5" font-family="Helvetica,sans-Serif" font-size="10.00">QMenu</text>
</g>
<!-- Node22&#45;&gt;Node146 -->
<g id="edge6" class="edge"><title>Node22&#45;&gt;Node146</title>
<path fill="none" stroke="midnightblue" d="M183.208,-112.324C195.262,-103.979 213.703,-91.2122 227.945,-81.3524"/>
<polygon fill="midnightblue" stroke="midnightblue" points="229.946,-84.2243 236.175,-75.6545 225.961,-78.469 229.946,-84.2243"/>
</g>
<!-- Node148 -->
<g id="node8" class="node"><title>Node148</title>
<polygon fill="white" stroke="#bfbfbf" points="630.176,-56.5 630.176,-75.5 685.176,-75.5 685.176,-56.5 630.176,-56.5"/>
<text text-anchor="middle" x="657.676" y="-63.5" font-family="Helvetica,sans-Serif" font-size="10.00">QWidget</text>
</g>
<!-- Node22&#45;&gt;Node148 -->
<g id="edge7" class="edge"><title>Node22&#45;&gt;Node148</title>
<path fill="none" stroke="midnightblue" d="M215.185,-116.065C310.178,-105.532 531.315,-81.0113 619.945,-71.1838"/>
<polygon fill="midnightblue" stroke="midnightblue" points="620.526,-74.6409 630.079,-70.0601 619.754,-67.6835 620.526,-74.6409"/>
</g>
<!-- Node26 -->
<g id="node6" class="node"><title>Node26</title>
<polygon fill="white" stroke="#bfbfbf" points="1592.68,-0.5 1592.68,-19.5 1642.68,-19.5 1642.68,-0.5 1592.68,-0.5"/>
<text text-anchor="middle" x="1617.68" y="-7.5" font-family="Helvetica,sans-Serif" font-size="10.00">QString</text>
</g>
<!-- Node23&#45;&gt;Node26 -->
<g id="edge5" class="edge"><title>Node23&#45;&gt;Node26</title>
<path fill="none" stroke="midnightblue" d="M206.264,-57.1827C209.441,-56.7273 212.606,-56.3238 215.676,-56 492.449,-26.8066 1392.59,-13.8713 1582.35,-11.4339"/>
<polygon fill="midnightblue" stroke="midnightblue" points="1582.64,-14.9307 1592.59,-11.3038 1582.55,-7.93123 1582.64,-14.9307"/>
</g>
<!-- Node151 -->
<g id="node11" class="node"><title>Node151</title>
<polygon fill="white" stroke="#bfbfbf" points="1608.68,-112.5 1608.68,-131.5 1660.68,-131.5 1660.68,-112.5 1608.68,-112.5"/>
<text text-anchor="middle" x="1634.68" y="-119.5" font-family="Helvetica,sans-Serif" font-size="10.00">QDialog</text>
</g>
<!-- Node150&#45;&gt;Node151 -->
<g id="edge10" class="edge"><title>Node150&#45;&gt;Node151</title>
<path fill="none" stroke="midnightblue" d="M1522.75,-168.444C1544.74,-159.517 1579.41,-145.439 1604.34,-135.317"/>
<polygon fill="midnightblue" stroke="midnightblue" points="1605.75,-138.521 1613.7,-131.516 1603.12,-132.035 1605.75,-138.521"/>
</g>
<!-- Node152&#45;&gt;Node151 -->
<g id="edge12" class="edge"><title>Node152&#45;&gt;Node151</title>
<path fill="none" stroke="midnightblue" d="M1629.67,-168.083C1630.46,-160.927 1631.61,-150.635 1632.6,-141.691"/>
<polygon fill="midnightblue" stroke="midnightblue" points="1636.08,-142.076 1633.7,-131.751 1629.12,-141.303 1636.08,-142.076"/>
</g>
<!-- Node153&#45;&gt;Node2 -->
<g id="edge14" class="edge"><title>Node153&#45;&gt;Node2</title>
<path fill="none" stroke="midnightblue" d="M589.144,-176.905C649.441,-175.757 779.546,-168.788 881.676,-132 914.533,-120.165 948.089,-97.0735 968.151,-81.8428"/>
<polygon fill="midnightblue" stroke="midnightblue" points="970.367,-84.5534 976.125,-75.6596 966.078,-79.0216 970.367,-84.5534"/>
</g>
<!-- Node153&#45;&gt;Node146 -->
<g id="edge18" class="edge"><title>Node153&#45;&gt;Node146</title>
<path fill="none" stroke="midnightblue" d="M522.563,-176.483C453.974,-174.709 299.67,-166.847 262.676,-132 250.222,-120.268 247.496,-100.332 247.409,-85.625"/>
<polygon fill="midnightblue" stroke="midnightblue" points="250.907,-85.7297 247.738,-75.6198 243.911,-85.499 250.907,-85.7297"/>
</g>
<!-- Node153&#45;&gt;Node154 -->
<g id="edge15" class="edge"><title>Node153&#45;&gt;Node154</title>
<path fill="none" stroke="midnightblue" d="M555.716,-168.104C556.271,-154.198 559.406,-127.323 574.676,-112 576.833,-109.835 649.203,-89.0023 693.292,-76.4547"/>
<polygon fill="midnightblue" stroke="midnightblue" points="694.372,-79.7866 703.034,-73.6861 692.458,-73.0532 694.372,-79.7866"/>
</g>
<!-- Node155 -->
<g id="node15" class="node"><title>Node155</title>
<polygon fill="white" stroke="#bfbfbf" points="271.676,-112.5 271.676,-131.5 351.676,-131.5 351.676,-112.5 271.676,-112.5"/>
<text text-anchor="middle" x="311.676" y="-119.5" font-family="Helvetica,sans-Serif" font-size="10.00">QMainWindow</text>
</g>
<!-- Node153&#45;&gt;Node155 -->
<g id="edge16" class="edge"><title>Node153&#45;&gt;Node155</title>
<path fill="none" stroke="midnightblue" d="M522.515,-169.661C480.668,-160.4 408.364,-144.398 360.276,-133.756"/>
<polygon fill="midnightblue" stroke="midnightblue" points="360.922,-130.314 350.402,-131.57 359.409,-137.149 360.922,-130.314"/>
</g>
<!-- Node156 -->
<g id="node16" class="node"><title>Node156</title>
<polygon fill="white" stroke="#bfbfbf" points="370.176,-112.5 370.176,-131.5 413.176,-131.5 413.176,-112.5 370.176,-112.5"/>
<text text-anchor="middle" x="391.676" y="-119.5" font-family="Helvetica,sans-Serif" font-size="10.00">QMap</text>
</g>
<!-- Node153&#45;&gt;Node156 -->
<g id="edge17" class="edge"><title>Node153&#45;&gt;Node156</title>
<path fill="none" stroke="midnightblue" d="M529.69,-168.444C500.802,-158.932 454.147,-143.57 423.197,-133.379"/>
<polygon fill="midnightblue" stroke="midnightblue" points="423.944,-129.94 413.351,-130.137 421.755,-136.589 423.944,-129.94"/>
</g>
<!-- Node157 -->
<g id="node17" class="node"><title>Node157</title>
<polygon fill="white" stroke="#bfbfbf" points="1122.18,-112.5 1122.18,-131.5 1169.18,-131.5 1169.18,-112.5 1122.18,-112.5"/>
<text text-anchor="middle" x="1145.68" y="-119.5" font-family="Helvetica,sans-Serif" font-size="10.00">QPoint</text>
</g>
<!-- Node153&#45;&gt;Node157 -->
<g id="edge19" class="edge"><title>Node153&#45;&gt;Node157</title>
<path fill="none" stroke="midnightblue" d="M588.746,-174.562C670.886,-168.412 890.775,-151.369 1073.68,-132 1086.18,-130.676 1099.87,-129.017 1111.93,-127.486"/>
<polygon fill="midnightblue" stroke="midnightblue" points="1112.56,-130.933 1122.03,-126.184 1111.66,-123.99 1112.56,-130.933"/>
</g>
<!-- Node153&#45;&gt;Node158 -->
<g id="edge20" class="edge"><title>Node153&#45;&gt;Node158</title>
<path fill="none" stroke="midnightblue" d="M566.28,-168.324C576.132,-160.263 591.027,-148.077 602.891,-138.369"/>
<polygon fill="midnightblue" stroke="midnightblue" points="605.356,-140.875 610.879,-131.834 600.923,-135.457 605.356,-140.875"/>
</g>
<!-- Node159 -->
<g id="node19" class="node"><title>Node159</title>
<polygon fill="white" stroke="#bfbfbf" points="431.676,-112.5 431.676,-131.5 527.676,-131.5 527.676,-112.5 431.676,-112.5"/>
<text text-anchor="middle" x="479.676" y="-119.5" font-family="Helvetica,sans-Serif" font-size="10.00">QSystemTrayIcon</text>
</g>
<!-- Node153&#45;&gt;Node159 -->
<g id="edge21" class="edge"><title>Node153&#45;&gt;Node159</title>
<path fill="none" stroke="midnightblue" d="M543.466,-168.324C531.9,-160.107 514.301,-147.602 500.516,-137.807"/>
<polygon fill="midnightblue" stroke="midnightblue" points="502.288,-134.773 492.109,-131.834 498.234,-140.479 502.288,-134.773"/>
</g>
<!-- Node161 -->
<g id="node21" class="node"><title>Node161</title>
<polygon fill="white" stroke="#bfbfbf" points="1665.18,-56.5 1665.18,-75.5 1718.18,-75.5 1718.18,-56.5 1665.18,-56.5"/>
<text text-anchor="middle" x="1691.68" y="-63.5" font-family="Helvetica,sans-Serif" font-size="10.00">QObject</text>
</g>
<!-- Node160&#45;&gt;Node161 -->
<g id="edge23" class="edge"><title>Node160&#45;&gt;Node161</title>
<path fill="none" stroke="midnightblue" d="M1010.77,-169.324C1013.77,-168.83 1016.77,-168.379 1019.68,-168 1259.07,-136.759 1329.35,-197.65 1561.68,-132 1580.04,-126.81 1582.66,-120.638 1599.68,-112 1621.31,-101.017 1646.03,-88.9554 1664.39,-80.0864"/>
<polygon fill="midnightblue" stroke="midnightblue" points="1666.13,-83.1331 1673.62,-75.6387 1663.09,-76.8272 1666.13,-83.1331"/>
</g>
<!-- Node162 -->
<g id="node22" class="node"><title>Node162</title>
<polygon fill="white" stroke="#bfbfbf" points="998.176,-112.5 998.176,-131.5 1065.18,-131.5 1065.18,-112.5 998.176,-112.5"/>
<text text-anchor="middle" x="1031.68" y="-119.5" font-family="Helvetica,sans-Serif" font-size="10.00">QDateTime</text>
</g>
<!-- Node160&#45;&gt;Node162 -->
<g id="edge24" class="edge"><title>Node160&#45;&gt;Node162</title>
<path fill="none" stroke="midnightblue" d="M982.995,-168.324C991.569,-160.341 1004.49,-148.313 1014.86,-138.653"/>
<polygon fill="midnightblue" stroke="midnightblue" points="1017.25,-141.21 1022.19,-131.834 1012.48,-136.086 1017.25,-141.21"/>
</g>
<!-- Node78 -->
<g id="node23" class="node"><title>Node78</title>
<polygon fill="white" stroke="#bfbfbf" points="933.676,-112.5 933.676,-131.5 979.676,-131.5 979.676,-112.5 933.676,-112.5"/>
<text text-anchor="middle" x="956.676" y="-119.5" font-family="Helvetica,sans-Serif" font-size="10.00">atomic</text>
</g>
<!-- Node160&#45;&gt;Node78 -->
<g id="edge25" class="edge"><title>Node160&#45;&gt;Node78</title>
<path fill="none" stroke="midnightblue" d="M970.869,-168.083C968.592,-160.849 965.305,-150.409 962.468,-141.397"/>
<polygon fill="midnightblue" stroke="midnightblue" points="965.773,-140.239 959.431,-131.751 959.096,-142.341 965.773,-140.239"/>
</g>
<!-- Node163&#45;&gt;Node2 -->
<g id="edge27" class="edge"><title>Node163&#45;&gt;Node2</title>
<path fill="none" stroke="midnightblue" d="M1384.48,-117.784C1313.37,-108.706 1110.73,-82.8372 1025.35,-71.9377"/>
<polygon fill="midnightblue" stroke="midnightblue" points="1025.66,-68.4489 1015.3,-70.6543 1024.78,-75.3925 1025.66,-68.4489"/>
</g>
<!-- Node163&#45;&gt;Node26 -->
<g id="edge33" class="edge"><title>Node163&#45;&gt;Node26</title>
<path fill="none" stroke="midnightblue" d="M1434.91,-114.312C1481.94,-101.844 1578.31,-76.2761 1578.68,-76 1594.41,-64.1534 1605.08,-43.9407 1611.23,-29.1939"/>
<polygon fill="midnightblue" stroke="midnightblue" points="1614.58,-30.2096 1614.91,-19.6198 1608.05,-27.6957 1614.58,-30.2096"/>
</g>
<!-- Node163&#45;&gt;Node154 -->
<g id="edge35" class="edge"><title>Node163&#45;&gt;Node154</title>
<path fill="none" stroke="midnightblue" d="M1384.39,-117.701C1369.39,-115.828 1349.97,-113.555 1332.68,-112 1079.42,-89.2318 1012.82,-115.841 761.676,-76 761.212,-75.9263 760.744,-75.8491 760.274,-75.7689"/>
<polygon fill="midnightblue" stroke="midnightblue" points="760.772,-72.298 750.272,-73.7114 759.361,-79.1544 760.772,-72.298"/>
</g>
<!-- Node163&#45;&gt;Node161 -->
<g id="edge31" class="edge"><title>Node163&#45;&gt;Node161</title>
<path fill="none" stroke="midnightblue" d="M1434.87,-114.092C1437.83,-113.352 1440.82,-112.637 1443.68,-112 1518.29,-95.3834 1606.55,-80.4913 1655.09,-72.707"/>
<polygon fill="midnightblue" stroke="midnightblue" points="1655.79,-76.1401 1665.11,-71.1105 1654.69,-69.2272 1655.79,-76.1401"/>
</g>
<!-- Node164 -->
<g id="node25" class="node"><title>Node164</title>
<polygon fill="white" stroke="#bfbfbf" points="1210.68,-56.5 1210.68,-75.5 1260.68,-75.5 1260.68,-56.5 1210.68,-56.5"/>
<text text-anchor="middle" x="1235.68" y="-63.5" font-family="Helvetica,sans-Serif" font-size="10.00">QEvent</text>
</g>
<!-- Node163&#45;&gt;Node164 -->
<g id="edge28" class="edge"><title>Node163&#45;&gt;Node164</title>
<path fill="none" stroke="midnightblue" d="M1384.38,-113.148C1354.39,-103.843 1304.27,-88.2877 1270.6,-77.8398"/>
<polygon fill="midnightblue" stroke="midnightblue" points="1271.31,-74.3953 1260.73,-74.7739 1269.24,-81.0807 1271.31,-74.3953"/>
</g>
<!-- Node165 -->
<g id="node26" class="node"><title>Node165</title>
<polygon fill="white" stroke="#bfbfbf" points="1115.18,-56.5 1115.18,-75.5 1192.18,-75.5 1192.18,-56.5 1115.18,-56.5"/>
<text text-anchor="middle" x="1153.68" y="-63.5" font-family="Helvetica,sans-Serif" font-size="10.00">QHeaderView</text>
</g>
<!-- Node163&#45;&gt;Node165 -->
<g id="edge29" class="edge"><title>Node163&#45;&gt;Node165</title>
<path fill="none" stroke="midnightblue" d="M1384.52,-115.108C1379.92,-114.055 1375.16,-112.981 1370.68,-112 1312.97,-99.3598 1246.42,-85.6946 1202.4,-76.7808"/>
<polygon fill="midnightblue" stroke="midnightblue" points="1203.03,-73.3379 1192.54,-74.787 1201.65,-80.1991 1203.03,-73.3379"/>
</g>
<!-- Node166 -->
<g id="node27" class="node"><title>Node166</title>
<polygon fill="white" stroke="#bfbfbf" points="1833.18,-56.5 1833.18,-75.5 1914.18,-75.5 1914.18,-56.5 1833.18,-56.5"/>
<text text-anchor="middle" x="1873.68" y="-63.5" font-family="Helvetica,sans-Serif" font-size="10.00">QMessageBox</text>
</g>
<!-- Node163&#45;&gt;Node166 -->
<g id="edge30" class="edge"><title>Node163&#45;&gt;Node166</title>
<path fill="none" stroke="midnightblue" d="M1434.83,-113.878C1437.8,-113.176 1440.79,-112.529 1443.68,-112 1579.33,-87.1012 1741.78,-74.7619 1822.67,-69.7801"/>
<polygon fill="midnightblue" stroke="midnightblue" points="1823.3,-73.2491 1833.07,-69.1531 1822.87,-66.2618 1823.3,-73.2491"/>
</g>
<!-- Node167 -->
<g id="node28" class="node"><title>Node167</title>
<polygon fill="white" stroke="#bfbfbf" points="1278.68,-56.5 1278.68,-75.5 1356.68,-75.5 1356.68,-56.5 1278.68,-56.5"/>
<text text-anchor="middle" x="1317.68" y="-63.5" font-family="Helvetica,sans-Serif" font-size="10.00">QProgressBar</text>
</g>
<!-- Node163&#45;&gt;Node167 -->
<g id="edge32" class="edge"><title>Node163&#45;&gt;Node167</title>
<path fill="none" stroke="midnightblue" d="M1394.89,-112.324C1380.41,-103.822 1358.1,-90.7288 1341.18,-80.7975"/>
<polygon fill="midnightblue" stroke="midnightblue" points="1342.82,-77.6981 1332.42,-75.6545 1339.27,-83.735 1342.82,-77.6981"/>
</g>
<!-- Node168 -->
<g id="node29" class="node"><title>Node168</title>
<polygon fill="white" stroke="#bfbfbf" points="1374.68,-56.5 1374.68,-75.5 1444.68,-75.5 1444.68,-56.5 1374.68,-56.5"/>
<text text-anchor="middle" x="1409.68" y="-63.5" font-family="Helvetica,sans-Serif" font-size="10.00">QTableView</text>
</g>
<!-- Node163&#45;&gt;Node168 -->
<g id="edge34" class="edge"><title>Node163&#45;&gt;Node168</title>
<path fill="none" stroke="midnightblue" d="M1409.68,-112.083C1409.68,-105.006 1409.68,-94.8611 1409.68,-85.9865"/>
<polygon fill="midnightblue" stroke="midnightblue" points="1413.18,-85.751 1409.68,-75.7511 1406.18,-85.7511 1413.18,-85.751"/>
</g>
<!-- Node169 -->
<g id="node30" class="node"><title>Node169</title>
<polygon fill="white" stroke="#bfbfbf" points="1463.18,-56.5 1463.18,-75.5 1570.18,-75.5 1570.18,-56.5 1463.18,-56.5"/>
<text text-anchor="middle" x="1516.68" y="-63.5" font-family="Helvetica,sans-Serif" font-size="10.00">boost/filesystem.hpp</text>
</g>
<!-- Node163&#45;&gt;Node169 -->
<g id="edge36" class="edge"><title>Node163&#45;&gt;Node169</title>
<path fill="none" stroke="midnightblue" d="M1426.87,-112.324C1444.03,-103.664 1470.62,-90.2424 1490.42,-80.249"/>
<polygon fill="midnightblue" stroke="midnightblue" points="1492.18,-83.2847 1499.53,-75.6545 1489.02,-77.0354 1492.18,-83.2847"/>
</g>
<!-- Node171&#45;&gt;Node2 -->
<g id="edge39" class="edge"><title>Node171&#45;&gt;Node2</title>
<path fill="none" stroke="midnightblue" d="M1073.96,-168.249C1078.34,-155.007 1084.37,-129.563 1073.68,-112 1063.08,-94.5958 1043.35,-83.6257 1025.35,-76.8794"/>
<polygon fill="midnightblue" stroke="midnightblue" points="1026.19,-73.4689 1015.6,-73.552 1023.93,-80.0939 1026.19,-73.4689"/>
</g>
<!-- Node172 -->
<g id="node33" class="node"><title>Node172</title>
<polygon fill="white" stroke="#bfbfbf" points="1187.18,-112.5 1187.18,-131.5 1290.18,-131.5 1290.18,-112.5 1187.18,-112.5"/>
<text text-anchor="middle" x="1238.68" y="-119.5" font-family="Helvetica,sans-Serif" font-size="10.00">QAbstractListModel</text>
</g>
<!-- Node171&#45;&gt;Node172 -->
<g id="edge40" class="edge"><title>Node171&#45;&gt;Node172</title>
<path fill="none" stroke="midnightblue" d="M1097.3,-168.444C1125.68,-159.32 1170.81,-144.813 1202.43,-134.651"/>
<polygon fill="midnightblue" stroke="midnightblue" points="1203.73,-137.909 1212.18,-131.516 1201.59,-131.244 1203.73,-137.909"/>
</g>
<!-- Node173&#45;&gt;Node2 -->
<g id="edge42" class="edge"><title>Node173&#45;&gt;Node2</title>
<path fill="none" stroke="midnightblue" d="M826.782,-112.444C859.685,-103.092 912.48,-88.0874 948.325,-77.8999"/>
<polygon fill="midnightblue" stroke="midnightblue" points="949.293,-81.2635 957.955,-75.1629 947.379,-74.5302 949.293,-81.2635"/>
</g>
<!-- Node173&#45;&gt;Node148 -->
<g id="edge43" class="edge"><title>Node173&#45;&gt;Node148</title>
<path fill="none" stroke="midnightblue" d="M774.651,-112.444C751.572,-103.478 715.114,-89.314 689.035,-79.1827"/>
<polygon fill="midnightblue" stroke="midnightblue" points="690.187,-75.8753 679.598,-75.5164 687.652,-82.4002 690.187,-75.8753"/>
</g>
<!-- Node13 -->
<g id="node35" class="node"><title>Node13</title>
<polygon fill="white" stroke="#bfbfbf" points="770.676,-56.5 770.676,-75.5 822.676,-75.5 822.676,-56.5 770.676,-56.5"/>
<text text-anchor="middle" x="796.676" y="-63.5" font-family="Helvetica,sans-Serif" font-size="10.00">memory</text>
</g>
<!-- Node173&#45;&gt;Node13 -->
<g id="edge44" class="edge"><title>Node173&#45;&gt;Node13</title>
<path fill="none" stroke="midnightblue" d="M796.676,-112.083C796.676,-105.006 796.676,-94.8611 796.676,-85.9865"/>
<polygon fill="midnightblue" stroke="midnightblue" points="800.176,-85.751 796.676,-75.7511 793.176,-85.7511 800.176,-85.751"/>
</g>
<!-- Node174&#45;&gt;Node146 -->
<g id="edge50" class="edge"><title>Node174&#45;&gt;Node146</title>
<path fill="none" stroke="midnightblue" d="M1306.15,-168.36C1309.59,-154.314 1313.81,-126.631 1298.68,-112 1279.98,-93.9321 461.943,-72.3586 283.016,-67.8506"/>
<polygon fill="midnightblue" stroke="midnightblue" points="282.948,-64.3479 272.863,-67.5959 282.772,-71.3457 282.948,-64.3479"/>
</g>
<!-- Node174&#45;&gt;Node151 -->
<g id="edge48" class="edge"><title>Node174&#45;&gt;Node151</title>
<path fill="none" stroke="midnightblue" d="M1356.43,-169.94C1414.87,-161.864 1511.8,-147.712 1594.68,-132 1595.94,-131.761 1597.21,-131.512 1598.51,-131.254"/>
<polygon fill="midnightblue" stroke="midnightblue" points="1599.41,-134.64 1608.48,-129.162 1597.97,-127.789 1599.41,-134.64"/>
</g>
<!-- Node174&#45;&gt;Node157 -->
<g id="edge51" class="edge"><title>Node174&#45;&gt;Node157</title>
<path fill="none" stroke="midnightblue" d="M1278.64,-168.444C1251.67,-159.226 1208.62,-144.513 1178.85,-134.338"/>
<polygon fill="midnightblue" stroke="midnightblue" points="1179.9,-130.998 1169.3,-131.075 1177.64,-137.621 1179.9,-130.998"/>
</g>
<!-- Node174&#45;&gt;Node163 -->
<g id="edge47" class="edge"><title>Node174&#45;&gt;Node163</title>
<path fill="none" stroke="midnightblue" d="M1320.71,-168.324C1337.71,-159.664 1364.05,-146.242 1383.67,-136.249"/>
<polygon fill="midnightblue" stroke="midnightblue" points="1385.37,-139.312 1392.69,-131.655 1382.19,-133.075 1385.37,-139.312"/>
</g>
<!-- Node174&#45;&gt;Node165 -->
<g id="edge49" class="edge"><title>Node174&#45;&gt;Node165</title>
<path fill="none" stroke="midnightblue" d="M1313.01,-168.292C1326.01,-155.106 1346.51,-129.736 1332.68,-112 1328.57,-106.729 1253.75,-89.2086 1202.16,-77.6483"/>
<polygon fill="midnightblue" stroke="midnightblue" points="1202.7,-74.183 1192.18,-75.4211 1201.18,-81.015 1202.7,-74.183"/>
</g>
<!-- Node178&#45;&gt;Node26 -->
<g id="edge57" class="edge"><title>Node178&#45;&gt;Node26</title>
<path fill="none" stroke="midnightblue" d="M2070.89,-168.457C2049.66,-145.767 1987.94,-83.8315 1922.68,-56 1831.14,-16.9625 1711.68,-10.8926 1653.15,-10.4945"/>
<polygon fill="midnightblue" stroke="midnightblue" points="1652.95,-6.99428 1642.94,-10.4795 1652.94,-13.9943 1652.95,-6.99428"/>
</g>
<!-- Node178&#45;&gt;Node151 -->
<g id="edge55" class="edge"><title>Node178&#45;&gt;Node151</title>
<path fill="none" stroke="midnightblue" d="M2030.9,-169.44C2027.45,-168.938 2024.01,-168.453 2020.68,-168 1892.49,-150.589 1739.78,-134.015 1671.2,-126.791"/>
<polygon fill="midnightblue" stroke="midnightblue" points="1671.24,-123.277 1660.93,-125.714 1670.51,-130.238 1671.24,-123.277"/>
</g>
<!-- Node178&#45;&gt;Node166 -->
<g id="edge56" class="edge"><title>Node178&#45;&gt;Node166</title>
<path fill="none" stroke="midnightblue" d="M2062.59,-168.368C2026.96,-149.251 1941.19,-103.229 1898.58,-80.361"/>
<polygon fill="midnightblue" stroke="midnightblue" points="1900.15,-77.2356 1889.69,-75.5914 1896.84,-83.4037 1900.15,-77.2356"/>
</g>
<!-- Node178&#45;&gt;Node179 -->
<g id="edge53" class="edge"><title>Node178&#45;&gt;Node179</title>
<path fill="none" stroke="midnightblue" d="M2044.77,-168.444C2007.83,-159.122 1948.62,-144.183 1908.26,-133.997"/>
<polygon fill="midnightblue" stroke="midnightblue" points="1908.98,-130.57 1898.43,-131.516 1907.27,-137.357 1908.98,-130.57"/>
</g>
<!-- Node179&#45;&gt;Node161 -->
<g id="edge54" class="edge"><title>Node179&#45;&gt;Node161</title>
<path fill="none" stroke="midnightblue" d="M1837.26,-112.444C1807.73,-103.226 1760.61,-88.5157 1728.01,-78.3402"/>
<polygon fill="midnightblue" stroke="midnightblue" points="1728.98,-74.9776 1718.39,-75.339 1726.89,-81.6597 1728.98,-74.9776"/>
</g>
<!-- Node199&#45;&gt;Node151 -->
<g id="edge59" class="edge"><title>Node199&#45;&gt;Node151</title>
<path fill="none" stroke="midnightblue" d="M1749.13,-168.444C1726.65,-159.517 1691.19,-145.439 1665.7,-135.317"/>
<polygon fill="midnightblue" stroke="midnightblue" points="1666.71,-131.954 1656.13,-131.516 1664.13,-138.46 1666.71,-131.954"/>
</g>
<!-- Node200&#45;&gt;Node2 -->
<g id="edge61" class="edge"><title>Node200&#45;&gt;Node2</title>
<path fill="none" stroke="midnightblue" d="M1452.49,-113.159C1449.51,-112.751 1446.55,-112.361 1443.68,-112 1289.36,-92.6469 1104.87,-76.6586 1025.79,-70.1447"/>
<polygon fill="midnightblue" stroke="midnightblue" points="1025.6,-66.6173 1015.34,-69.2891 1025.02,-73.5939 1025.6,-66.6173"/>
</g>
<!-- Node200&#45;&gt;Node26 -->
<g id="edge62" class="edge"><title>Node200&#45;&gt;Node26</title>
<path fill="none" stroke="midnightblue" d="M1552.74,-112.702C1574.68,-106.398 1598.58,-95.3453 1612.68,-76 1622.35,-62.7185 1622.66,-43.5949 1621.12,-29.5277"/>
<polygon fill="midnightblue" stroke="midnightblue" points="1624.56,-28.9108 1619.62,-19.5384 1617.64,-29.946 1624.56,-28.9108"/>
</g>
<!-- Node205&#45;&gt;Node148 -->
<g id="edge66" class="edge"><title>Node205&#45;&gt;Node148</title>
<path fill="none" stroke="midnightblue" d="M839.238,-168.448C812.882,-160.816 775.205,-148.326 744.676,-132 718.625,-118.068 691.872,-96.8404 675.036,-82.4669"/>
<polygon fill="midnightblue" stroke="midnightblue" points="677.035,-79.5678 667.191,-75.6503 672.444,-84.8515 677.035,-79.5678"/>
</g>
<!-- Node205&#45;&gt;Node163 -->
<g id="edge65" class="edge"><title>Node205&#45;&gt;Node163</title>
<path fill="none" stroke="midnightblue" d="M918.394,-169.254C921.532,-168.807 924.648,-168.384 927.676,-168 1014.47,-156.986 1278.88,-134.124 1374.61,-125.969"/>
<polygon fill="midnightblue" stroke="midnightblue" points="1374.98,-129.451 1384.65,-125.116 1374.39,-122.476 1374.98,-129.451"/>
</g>
</g>
</svg>
