<?xml version="1.0" encoding="UTF-8" standalone="no"?>
<!DOCTYPE svg PUBLIC "-//W3C//DTD SVG 1.1//EN"
 "http://www.w3.org/Graphics/SVG/1.1/DTD/svg11.dtd">
<!-- Generated by graphviz version 2.36.0 (20140111.2315)
 -->
<!-- Title: src/qt/walletview.h Pages: 1 -->
<svg width="247pt" height="84pt"
 viewBox="0.00 0.00 247.00 84.00" xmlns="http://www.w3.org/2000/svg" xmlns:xlink="http://www.w3.org/1999/xlink">
<g id="graph0" class="graph" transform="scale(1 1) rotate(0) translate(4 80)">
<title>src/qt/walletview.h</title>
<polygon fill="white" stroke="none" points="-4,4 -4,-80 243,-80 243,4 -4,4"/>
<!-- Node149 -->
<g id="node1" class="node"><title>Node149</title>
<polygon fill="#bfbfbf" stroke="black" points="71,-56.5 71,-75.5 169,-75.5 169,-56.5 71,-56.5"/>
<text text-anchor="middle" x="120" y="-63.5" font-family="Helvetica,sans-Serif" font-size="10.00">src/qt/walletview.h</text>
</g>
<!-- Node150 -->
<g id="node2" class="node"><title>Node150</title>
<g id="a_node2"><a xlink:href="walletframe_8cpp.html" target="_top" xlink:title="src/qt/walletframe.cpp">
<polygon fill="white" stroke="black" points="-0.5,-0.5 -0.5,-19.5 112.5,-19.5 112.5,-0.5 -0.5,-0.5"/>
<text text-anchor="middle" x="56" y="-7.5" font-family="Helvetica,sans-Serif" font-size="10.00">src/qt/walletframe.cpp</text>
</a>
</g>
</g>
<!-- Node149&#45;&gt;Node150 -->
<g id="edge1" class="edge"><title>Node149&#45;&gt;Node150</title>
<path fill="none" stroke="midnightblue" d="M102.009,-49.8197C90.5424,-40.1452 76.0867,-27.9481 66.4698,-19.8339"/>
<polygon fill="midnightblue" stroke="midnightblue" points="99.8173,-52.5502 109.717,-56.324 104.331,-47.2002 99.8173,-52.5502"/>
</g>
<!-- Node151 -->
<g id="node3" class="node"><title>Node151</title>
<g id="a_node3"><a xlink:href="walletview_8cpp.html" target="_top" xlink:title="src/qt/walletview.cpp">
<polygon fill="white" stroke="black" points="130.5,-0.5 130.5,-19.5 239.5,-19.5 239.5,-0.5 130.5,-0.5"/>
<text text-anchor="middle" x="185" y="-7.5" font-family="Helvetica,sans-Serif" font-size="10.00">src/qt/walletview.cpp</text>
</a>
</g>
</g>
<!-- Node149&#45;&gt;Node151 -->
<g id="edge2" class="edge"><title>Node149&#45;&gt;Node151</title>
<path fill="none" stroke="midnightblue" d="M138.273,-49.8197C149.918,-40.1452 164.599,-27.9481 174.367,-19.8339"/>
<polygon fill="midnightblue" stroke="midnightblue" points="135.899,-47.2416 130.443,-56.324 140.372,-52.6259 135.899,-47.2416"/>
</g>
</g>
</svg>
