<?xml version="1.0" encoding="UTF-8" standalone="no"?>
<!DOCTYPE svg PUBLIC "-//W3C//DTD SVG 1.1//EN"
 "http://www.w3.org/Graphics/SVG/1.1/DTD/svg11.dtd">
<!-- Generated by graphviz version 2.36.0 (20140111.2315)
 -->
<!-- Title: src/warnings.h Pages: 1 -->
<svg width="892pt" height="84pt"
 viewBox="0.00 0.00 892.00 84.00" xmlns="http://www.w3.org/2000/svg" xmlns:xlink="http://www.w3.org/1999/xlink">
<g id="graph0" class="graph" transform="scale(1 1) rotate(0) translate(4 80)">
<title>src/warnings.h</title>
<polygon fill="white" stroke="none" points="-4,4 -4,-80 888,-80 888,4 -4,4"/>
<!-- Node3 -->
<g id="node1" class="node"><title>Node3</title>
<polygon fill="#bfbfbf" stroke="black" points="415,-56.5 415,-75.5 495,-75.5 495,-56.5 415,-56.5"/>
<text text-anchor="middle" x="455" y="-63.5" font-family="Helvetica,sans-Serif" font-size="10.00">src/warnings.h</text>
</g>
<!-- Node4 -->
<g id="node2" class="node"><title>Node4</title>
<g id="a_node2"><a xlink:href="activemasternode_8cpp.html" target="_top" xlink:title="src/activemasternode.cpp">
<polygon fill="white" stroke="black" points="-0.5,-0.5 -0.5,-19.5 128.5,-19.5 128.5,-0.5 -0.5,-0.5"/>
<text text-anchor="middle" x="64" y="-7.5" font-family="Helvetica,sans-Serif" font-size="10.00">src/activemasternode.cpp</text>
</a>
</g>
</g>
<!-- Node3&#45;&gt;Node4 -->
<g id="edge1" class="edge"><title>Node3&#45;&gt;Node4</title>
<path fill="none" stroke="midnightblue" d="M404.915,-58.0829C333.593,-48.2328 202.876,-30.1799 125.681,-19.5186"/>
<polygon fill="midnightblue" stroke="midnightblue" points="404.609,-61.5737 414.994,-59.4748 405.567,-54.6396 404.609,-61.5737"/>
</g>
<!-- Node5 -->
<g id="node3" class="node"><title>Node5</title>
<g id="a_node3"><a xlink:href="init_8cpp.html" target="_top" xlink:title="src/init.cpp">
<polygon fill="white" stroke="black" points="146.5,-0.5 146.5,-19.5 211.5,-19.5 211.5,-0.5 146.5,-0.5"/>
<text text-anchor="middle" x="179" y="-7.5" font-family="Helvetica,sans-Serif" font-size="10.00">src/init.cpp</text>
</a>
</g>
</g>
<!-- Node3&#45;&gt;Node5 -->
<g id="edge2" class="edge"><title>Node3&#45;&gt;Node5</title>
<path fill="none" stroke="midnightblue" d="M404.774,-55.6584C357.348,-46.7625 284.263,-32.8597 221,-20 217.931,-19.3761 214.738,-18.7147 211.545,-18.0448"/>
<polygon fill="midnightblue" stroke="midnightblue" points="404.312,-59.1326 414.785,-57.5333 405.6,-52.2522 404.312,-59.1326"/>
</g>
<!-- Node6 -->
<g id="node4" class="node"><title>Node6</title>
<g id="a_node4"><a xlink:href="instantx_8cpp.html" target="_top" xlink:title="src/instantx.cpp">
<polygon fill="white" stroke="black" points="230,-0.5 230,-19.5 316,-19.5 316,-0.5 230,-0.5"/>
<text text-anchor="middle" x="273" y="-7.5" font-family="Helvetica,sans-Serif" font-size="10.00">src/instantx.cpp</text>
</a>
</g>
</g>
<!-- Node3&#45;&gt;Node6 -->
<g id="edge3" class="edge"><title>Node3&#45;&gt;Node6</title>
<path fill="none" stroke="midnightblue" d="M416.469,-53.5677C382.136,-43.381 332.667,-28.7034 301.704,-19.5164"/>
<polygon fill="midnightblue" stroke="midnightblue" points="415.579,-56.9544 426.162,-56.4435 417.57,-50.2436 415.579,-56.9544"/>
</g>
<!-- Node7 -->
<g id="node5" class="node"><title>Node7</title>
<g id="a_node5"><a xlink:href="masternodeman_8cpp.html" target="_top" xlink:title="src/masternodeman.cpp">
<polygon fill="white" stroke="black" points="334,-0.5 334,-19.5 456,-19.5 456,-0.5 334,-0.5"/>
<text text-anchor="middle" x="395" y="-7.5" font-family="Helvetica,sans-Serif" font-size="10.00">src/masternodeman.cpp</text>
</a>
</g>
</g>
<!-- Node3&#45;&gt;Node7 -->
<g id="edge4" class="edge"><title>Node3&#45;&gt;Node7</title>
<path fill="none" stroke="midnightblue" d="M437.819,-49.5372C427.121,-39.9087 413.744,-27.8694 404.815,-19.8339"/>
<polygon fill="midnightblue" stroke="midnightblue" points="435.586,-52.2358 445.36,-56.324 440.268,-47.0327 435.586,-52.2358"/>
</g>
<!-- Node8 -->
<g id="node6" class="node"><title>Node8</title>
<g id="a_node6"><a xlink:href="dash_8cpp.html" target="_top" xlink:title="src/qt/dash.cpp">
<polygon fill="white" stroke="black" points="474,-0.5 474,-19.5 558,-19.5 558,-0.5 474,-0.5"/>
<text text-anchor="middle" x="516" y="-7.5" font-family="Helvetica,sans-Serif" font-size="10.00">src/qt/dash.cpp</text>
</a>
</g>
</g>
<!-- Node3&#45;&gt;Node8 -->
<g id="edge5" class="edge"><title>Node3&#45;&gt;Node8</title>
<path fill="none" stroke="midnightblue" d="M472.467,-49.5372C483.344,-39.9087 496.944,-27.8694 506.021,-19.8339"/>
<polygon fill="midnightblue" stroke="midnightblue" points="469.968,-47.0749 464.801,-56.324 474.608,-52.3162 469.968,-47.0749"/>
</g>
<!-- Node9 -->
<g id="node7" class="node"><title>Node9</title>
<g id="a_node7"><a xlink:href="timedata_8cpp.html" target="_top" xlink:title="src/timedata.cpp">
<polygon fill="white" stroke="black" points="575.5,-0.5 575.5,-19.5 664.5,-19.5 664.5,-0.5 575.5,-0.5"/>
<text text-anchor="middle" x="620" y="-7.5" font-family="Helvetica,sans-Serif" font-size="10.00">src/timedata.cpp</text>
</a>
</g>
</g>
<!-- Node3&#45;&gt;Node9 -->
<g id="edge6" class="edge"><title>Node3&#45;&gt;Node9</title>
<path fill="none" stroke="midnightblue" d="M490.736,-53.3044C521.827,-43.1294 566.147,-28.6246 593.978,-19.5164"/>
<polygon fill="midnightblue" stroke="midnightblue" points="489.56,-50.0067 481.145,-56.4435 491.737,-56.6595 489.56,-50.0067"/>
</g>
<!-- Node10 -->
<g id="node8" class="node"><title>Node10</title>
<g id="a_node8"><a xlink:href="validation_8cpp.html" target="_top" xlink:title="src/validation.cpp">
<polygon fill="white" stroke="black" points="682.5,-0.5 682.5,-19.5 775.5,-19.5 775.5,-0.5 682.5,-0.5"/>
<text text-anchor="middle" x="729" y="-7.5" font-family="Helvetica,sans-Serif" font-size="10.00">src/validation.cpp</text>
</a>
</g>
</g>
<!-- Node3&#45;&gt;Node10 -->
<g id="edge7" class="edge"><title>Node3&#45;&gt;Node10</title>
<path fill="none" stroke="midnightblue" d="M505.077,-55.1309C556.744,-44.9483 636.512,-29.2276 685.587,-19.5558"/>
<polygon fill="midnightblue" stroke="midnightblue" points="504.27,-51.7225 495.135,-57.0901 505.623,-58.5904 504.27,-51.7225"/>
</g>
<!-- Node11 -->
<g id="node9" class="node"><title>Node11</title>
<g id="a_node9"><a xlink:href="warnings_8cpp.html" target="_top" xlink:title="src/warnings.cpp">
<polygon fill="white" stroke="black" points="793.5,-0.5 793.5,-19.5 884.5,-19.5 884.5,-0.5 793.5,-0.5"/>
<text text-anchor="middle" x="839" y="-7.5" font-family="Helvetica,sans-Serif" font-size="10.00">src/warnings.cpp</text>
</a>
</g>
</g>
<!-- Node3&#45;&gt;Node11 -->
<g id="edge8" class="edge"><title>Node3&#45;&gt;Node11</title>
<path fill="none" stroke="midnightblue" d="M505.362,-58.5294C569.964,-50.1333 685.442,-34.8014 784,-20 787.062,-19.5402 790.218,-19.0547 793.396,-18.5571"/>
<polygon fill="midnightblue" stroke="midnightblue" points="504.524,-55.1086 495.058,-59.8658 505.425,-62.0505 504.524,-55.1086"/>
</g>
</g>
</svg>
