<?xml version="1.0" encoding="UTF-8" standalone="no"?>
<!DOCTYPE svg PUBLIC "-//W3C//DTD SVG 1.1//EN"
 "http://www.w3.org/Graphics/SVG/1.1/DTD/svg11.dtd">
<!-- Generated by graphviz version 2.36.0 (20140111.2315)
 -->
<!-- Title: src/immer/detail/arrays/with_capacity.hpp Pages: 1 -->
<svg width="276pt" height="96pt"
 viewBox="0.00 0.00 276.00 96.00" xmlns="http://www.w3.org/2000/svg" xmlns:xlink="http://www.w3.org/1999/xlink">
<g id="graph0" class="graph" transform="scale(1 1) rotate(0) translate(4 92)">
<title>src/immer/detail/arrays/with_capacity.hpp</title>
<polygon fill="white" stroke="none" points="-4,4 -4,-92 272,-92 272,4 -4,4"/>
<!-- Node11 -->
<g id="node1" class="node"><title>Node11</title>
<polygon fill="#bfbfbf" stroke="black" points="65,-57 65,-87 181,-87 181,-57 65,-57"/>
<text text-anchor="start" x="73" y="-75" font-family="Helvetica,sans-Serif" font-size="10.00">src/immer/detail/arrays</text>
<text text-anchor="middle" x="123" y="-64" font-family="Helvetica,sans-Serif" font-size="10.00">/with_capacity.hpp</text>
</g>
<!-- Node12 -->
<g id="node2" class="node"><title>Node12</title>
<g id="a_node2"><a xlink:href="array_8hpp.html" target="_top" xlink:title="src/immer/array.hpp">
<polygon fill="white" stroke="black" points="0,-0.5 0,-19.5 104,-19.5 104,-0.5 0,-0.5"/>
<text text-anchor="middle" x="52" y="-7.5" font-family="Helvetica,sans-Serif" font-size="10.00">src/immer/array.hpp</text>
</a>
</g>
</g>
<!-- Node11&#45;&gt;Node12 -->
<g id="edge1" class="edge"><title>Node11&#45;&gt;Node12</title>
<path fill="none" stroke="midnightblue" d="M98.4106,-50.2202C86.06,-39.7831 71.7579,-27.6968 62.3311,-19.7305"/>
<polygon fill="midnightblue" stroke="midnightblue" points="96.2769,-52.9995 106.174,-56.7808 100.795,-47.6529 96.2769,-52.9995"/>
</g>
<!-- Node13 -->
<g id="node3" class="node"><title>Node13</title>
<g id="a_node3"><a xlink:href="array__transient_8hpp.html" target="_top" xlink:title="src/immer/array_transient.hpp">
<polygon fill="white" stroke="black" points="122,-0.5 122,-19.5 268,-19.5 268,-0.5 122,-0.5"/>
<text text-anchor="middle" x="195" y="-7.5" font-family="Helvetica,sans-Serif" font-size="10.00">src/immer/array_transient.hpp</text>
</a>
</g>
</g>
<!-- Node11&#45;&gt;Node13 -->
<g id="edge2" class="edge"><title>Node11&#45;&gt;Node13</title>
<path fill="none" stroke="midnightblue" d="M147.936,-50.2202C160.46,-39.7831 174.964,-27.6968 184.523,-19.7305"/>
<polygon fill="midnightblue" stroke="midnightblue" points="145.505,-47.6902 140.063,-56.7808 149.986,-53.0677 145.505,-47.6902"/>
</g>
</g>
</svg>
