<?xml version="1.0" encoding="UTF-8" standalone="no"?>
<!DOCTYPE svg PUBLIC "-//W3C//DTD SVG 1.1//EN"
 "http://www.w3.org/Graphics/SVG/1.1/DTD/svg11.dtd">
<!-- Generated by graphviz version 2.36.0 (20140111.2315)
 -->
<!-- Title: src/zmq/zmqabstractnotifier.h Pages: 1 -->
<svg width="422pt" height="140pt"
 viewBox="0.00 0.00 422.00 140.00" xmlns="http://www.w3.org/2000/svg" xmlns:xlink="http://www.w3.org/1999/xlink">
<g id="graph0" class="graph" transform="scale(1 1) rotate(0) translate(4 136)">
<title>src/zmq/zmqabstractnotifier.h</title>
<polygon fill="white" stroke="none" points="-4,4 -4,-136 418,-136 418,4 -4,4"/>
<!-- Node169 -->
<g id="node1" class="node"><title>Node169</title>
<polygon fill="#bfbfbf" stroke="black" points="89,-112.5 89,-131.5 235,-131.5 235,-112.5 89,-112.5"/>
<text text-anchor="middle" x="162" y="-119.5" font-family="Helvetica,sans-Serif" font-size="10.00">src/zmq/zmqabstractnotifier.h</text>
</g>
<!-- Node170 -->
<g id="node2" class="node"><title>Node170</title>
<g id="a_node2"><a xlink:href="zmqabstractnotifier_8cpp.html" target="_top" xlink:title="src/zmq/zmqabstractnotifier.cpp">
<polygon fill="white" stroke="black" points="-0.5,-56.5 -0.5,-75.5 156.5,-75.5 156.5,-56.5 -0.5,-56.5"/>
<text text-anchor="middle" x="78" y="-63.5" font-family="Helvetica,sans-Serif" font-size="10.00">src/zmq/zmqabstractnotifier.cpp</text>
</a>
</g>
</g>
<!-- Node169&#45;&gt;Node170 -->
<g id="edge1" class="edge"><title>Node169&#45;&gt;Node170</title>
<path fill="none" stroke="midnightblue" d="M140.068,-106.901C124.665,-96.9986 104.554,-84.0705 91.4626,-75.6545"/>
<polygon fill="midnightblue" stroke="midnightblue" points="138.199,-109.86 148.504,-112.324 141.985,-103.972 138.199,-109.86"/>
</g>
<!-- Node171 -->
<g id="node3" class="node"><title>Node171</title>
<g id="a_node3"><a xlink:href="zmqpublishnotifier_8h.html" target="_top" xlink:title="src/zmq/zmqpublishnotifier.h">
<polygon fill="white" stroke="black" points="175,-56.5 175,-75.5 317,-75.5 317,-56.5 175,-56.5"/>
<text text-anchor="middle" x="246" y="-63.5" font-family="Helvetica,sans-Serif" font-size="10.00">src/zmq/zmqpublishnotifier.h</text>
</a>
</g>
</g>
<!-- Node169&#45;&gt;Node171 -->
<g id="edge2" class="edge"><title>Node169&#45;&gt;Node171</title>
<path fill="none" stroke="midnightblue" d="M183.932,-106.901C199.335,-96.9986 219.446,-84.0705 232.537,-75.6545"/>
<polygon fill="midnightblue" stroke="midnightblue" points="182.015,-103.972 175.496,-112.324 185.801,-109.86 182.015,-103.972"/>
</g>
<!-- Node172 -->
<g id="node4" class="node"><title>Node172</title>
<g id="a_node4"><a xlink:href="zmqnotificationinterface_8cpp.html" target="_top" xlink:title="src/zmq/zmqnotificationinterface.cpp">
<polygon fill="white" stroke="black" points="66.5,-0.5 66.5,-19.5 243.5,-19.5 243.5,-0.5 66.5,-0.5"/>
<text text-anchor="middle" x="155" y="-7.5" font-family="Helvetica,sans-Serif" font-size="10.00">src/zmq/zmqnotificationinterface.cpp</text>
</a>
</g>
</g>
<!-- Node171&#45;&gt;Node172 -->
<g id="edge3" class="edge"><title>Node171&#45;&gt;Node172</title>
<path fill="none" stroke="midnightblue" d="M222.706,-51.1774C205.961,-41.2407 183.9,-28.1492 169.584,-19.6545"/>
<polygon fill="midnightblue" stroke="midnightblue" points="220.993,-54.2307 231.379,-56.324 224.566,-48.2108 220.993,-54.2307"/>
</g>
<!-- Node173 -->
<g id="node5" class="node"><title>Node173</title>
<g id="a_node5"><a xlink:href="zmqpublishnotifier_8cpp.html" target="_top" xlink:title="src/zmq/zmqpublishnotifier.cpp">
<polygon fill="white" stroke="black" points="262,-0.5 262,-19.5 414,-19.5 414,-0.5 262,-0.5"/>
<text text-anchor="middle" x="338" y="-7.5" font-family="Helvetica,sans-Serif" font-size="10.00">src/zmq/zmqpublishnotifier.cpp</text>
</a>
</g>
</g>
<!-- Node171&#45;&gt;Node173 -->
<g id="edge4" class="edge"><title>Node171&#45;&gt;Node173</title>
<path fill="none" stroke="midnightblue" d="M269.55,-51.1774C286.479,-41.2407 308.783,-28.1492 323.255,-19.6545"/>
<polygon fill="midnightblue" stroke="midnightblue" points="267.634,-48.2435 260.781,-56.324 271.177,-54.2804 267.634,-48.2435"/>
</g>
</g>
</svg>
